<?xml version="1.0" standalone="no"?>
<svg xmlns="http://www.w3.org/2000/svg" width="8176" height="6144" viewBox="0 0 8176 6144" style="overflow:hidden">
<defs>
<clipPath id="c"><rect x="0" y="0" width="8176" height="6144"/></clipPath>
</defs>
<rect width="8176" height="6144" fill="rgb(4,3,7)"/>
<g clip-path="url(#c)">
<g transform="translate(4304.00 1056.00) rotate(129) scale(32.00 48.00)"><ellipse cx="0" cy="0" rx="1" ry="1" fill="rgb(249,243,255)" fill-opacity="0.502"/></g>
<polygon points="285.65,-14.83 194.35,14.83 194.35,14.83 285.65,-14.83" fill="rgb(18,12,25)" fill-opacity="0.502"/>
<g transform="translate(4000.00 768.00) rotate(300) scale(96.00 512.00)"><ellipse cx="0" cy="0" rx="1" ry="1" fill="rgb(7,6,11)" fill-opacity="0.502"/></g>
<circle cx="3344.00" cy="496.00" r="224.00" fill="rgb(4,3,7)" fill-opacity="0.502"/>
<polygon points="4268.61,1037.76 4275.58,958.06 4323.39,962.24 4316.42,1041.94" fill="rgb(147,141,157)" fill-opacity="0.502"/>
<polygon points="4509.64,925.76 4216.00,1004.44 4050.36,386.24 4344.00,307.56" fill="rgb(3,2,6)" fill-opacity="0.502"/>
<g transform="translate(4272.00 576.00) rotate(21) scale(688.00 384.00)"><ellipse cx="0" cy="0" rx="1" ry="1" fill="rgb(4,3,6)" fill-opacity="0.502"/></g>
<circle cx="3488.00" cy="656.00" r="784.00" fill="rgb(4,3,7)" fill-opacity="0.502"/>
<g transform="translate(4080.00 1328.00) rotate(79) scale(352.00 304.00)"><ellipse cx="0" cy="0" rx="1" ry="1" fill="rgb(4,3,7)" fill-opacity="0.502"/></g>
<polygon points="4910.03,1224.04 4173.62,911.46 4529.97,71.96 5266.38,384.54" fill="rgb(4,3,7)" fill-opacity="0.502"/>
<g transform="translate(4368.00 560.00) rotate(120) scale(304.00 624.00)"><ellipse cx="0" cy="0" rx="1" ry="1" fill="rgb(4,3,8)" fill-opacity="0.502"/></g>
<circle cx="3744.00" cy="416.00" r="64.00" fill="rgb(4,3,8)" fill-opacity="0.502"/>
<g transform="translate(4016.00 848.00) rotate(285) scale(80.00 352.00)"><ellipse cx="0" cy="0" rx="1" ry="1" fill="rgb(4,3,7)" fill-opacity="0.502"/></g>
<circle cx="4256.00" cy="864.00" r="80.00" fill="rgb(5,4,7)" fill-opacity="0.502"/>
<polygon points="4160.00,448.00 4384.00,448.00 4384.00,720.00 4160.00,720.00" fill="rgb(5,4,7)" fill-opacity="0.502"/>
<g transform="translate(4608.00 800.00) rotate(294) scale(480.00 112.00)"><ellipse cx="0" cy="0" rx="1" ry="1" fill="rgb(4,3,7)" fill-opacity="0.502"/></g>
<polygon points="4370.33,1096.93 4246.85,1527.58 4077.67,1479.07 4201.15,1048.42" fill="rgb(4,3,8)" fill-opacity="0.502"/>
<g transform="translate(4064.00 768.00) rotate(212) scale(384.00 64.00)"><ellipse cx="0" cy="0" rx="1" ry="1" fill="rgb(4,3,7)" fill-opacity="0.502"/></g>
<circle cx="4272.00" cy="768.00" r="208.00" fill="rgb(4,3,7)" fill-opacity="0.502"/>
<circle cx="160.00" cy="48.00" r="64.00" fill="rgb(4,3,7)" fill-opacity="0.502"/>
<circle cx="4480.00" cy="816.00" r="224.00" fill="rgb(4,3,7)" fill-opacity="0.502"/>
<circle cx="4240.00" cy="624.00" r="352.00" fill="rgb(4,3,7)" fill-opacity="0.502"/>
<g transform="translate(4576.00 960.00) rotate(251) scale(80.00 240.00)"><ellipse cx="0" cy="0" rx="1" ry="1" fill="rgb(7,5,10)" fill-opacity="0.502"/></g>
<circle cx="4400.00" cy="784.00" r="192.00" fill="rgb(4,3,7)" fill-opacity="0.502"/>
<circle cx="4736.00" cy="592.00" r="560.00" fill="rgb(4,3,7)" fill-opacity="0.502"/>
<circle cx="3712.00" cy="320.00" r="48.00" fill="rgb(4,3,8)" fill-opacity="0.502"/>
<polygon points="4378.87,1611.91 4389.20,1020.00 4853.13,1028.09 4842.80,1620.00" fill="rgb(4,3,7)" fill-opacity="0.502"/>
<polygon points="675.09,27.12 685.79,15.23 780.91,100.88 770.21,112.77" fill="rgb(6,5,10)" fill-opacity="0.502"/>
<circle cx="880.00" cy="112.00" r="128.00" fill="rgb(4,3,7)" fill-opacity="0.502"/>
<g transform="translate(592.00 432.00) rotate(293) scale(384.00 224.00)"><ellipse cx="0" cy="0" rx="1" ry="1" fill="rgb(4,3,7)" fill-opacity="0.502"/></g>
<g transform="translate(368.00 0.00) rotate(186) scale(48.00 16.00)"><ellipse cx="0" cy="0" rx="1" ry="1" fill="rgb(7,5,11)" fill-opacity="0.502"/></g>
<polygon points="4281.57,947.54 4144.90,1254.49 4086.43,1228.46 4223.10,921.51" fill="rgb(10,9,14)" fill-opacity="0.502"/>
<polygon points="4532.68,1140.36 4499.09,1313.12 4059.32,1227.64 4092.91,1054.88" fill="rgb(3,2,6)" fill-opacity="0.502"/>
<polygon points="4272.39,1795.86 3868.00,1239.26 4191.61,1004.14 4596.00,1560.74" fill="rgb(4,3,7)" fill-opacity="0.502"/>
<polygon points="1068.62,255.60 887.60,436.62 627.38,176.40 808.40,-4.62" fill="rgb(4,3,7)" fill-opacity="0.502"/>
<circle cx="4384.00" cy="1008.00" r="64.00" fill="rgb(25,23,31)" fill-opacity="0.502"/>
<circle cx="4640.00" cy="976.00" r="288.00" fill="rgb(3,2,6)" fill-opacity="0.502"/>
<g transform="translate(7872.00 16.00) rotate(223) scale(176.00 48.00)"><ellipse cx="0" cy="0" rx="1" ry="1" fill="rgb(4,3,7)" fill-opacity="0.502"/></g>
<polygon points="4322.86,1139.36 4501.27,817.50 4781.14,972.64 4602.73,1294.50" fill="rgb(5,4,8)" fill-opacity="0.502"/>
<g transform="translate(3904.00 1296.00) rotate(305) scale(400.00 480.00)"><ellipse cx="0" cy="0" rx="1" ry="1" fill="rgb(4,3,7)" fill-opacity="0.502"/></g>
<polygon points="4208.00,1344.00 3696.00,1344.00 3696.00,880.00 4208.00,880.00" fill="rgb(4,3,7)" fill-opacity="0.502"/>
<circle cx="4656.00" cy="704.00" r="432.00" fill="rgb(4,3,7)" fill-opacity="0.502"/>
<polygon points="4243.24,1050.96 4331.50,982.00 4380.76,1045.04 4292.50,1114.00" fill="rgb(123,118,137)" fill-opacity="0.502"/>
<circle cx="4864.00" cy="1040.00" r="48.00" fill="rgb(5,4,8)" fill-opacity="0.502"/>
<g transform="translate(4368.00 928.00) rotate(148) scale(64.00 224.00)"><ellipse cx="0" cy="0" rx="1" ry="1" fill="rgb(4,3,7)" fill-opacity="0.502"/></g>
<g transform="translate(4384.00 512.00) rotate(351) scale(1200.00 448.00)"><ellipse cx="0" cy="0" rx="1" ry="1" fill="rgb(4,3,7)" fill-opacity="0.502"/></g>
<g transform="translate(3984.00 560.00) rotate(157) scale(224.00 512.00)"><ellipse cx="0" cy="0" rx="1" ry="1" fill="rgb(4,3,7)" fill-opacity="0.502"/></g>
<circle cx="4704.00" cy="848.00" r="64.00" fill="rgb(5,4,8)" fill-opacity="0.502"/>
<g transform="translate(4048.00 1120.00) rotate(4) scale(288.00 96.00)"><ellipse cx="0" cy="0" rx="1" ry="1" fill="rgb(3,2,6)" fill-opacity="0.502"/></g>
<polygon points="3690.46,883.98 3739.45,535.40 4341.54,620.02 4292.55,968.60" fill="rgb(4,3,7)" fill-opacity="0.502"/>
<polygon points="4281.41,1078.11 4364.23,1387.21 4070.59,1465.89 3987.77,1156.79" fill="rgb(4,3,7)" fill-opacity="0.502"/>
<polygon points="4242.24,1102.33 4320.18,1084.33 4413.76,1489.67 4335.82,1507.67" fill="rgb(4,3,8)" fill-opacity="0.502"/>
<polygon points="4033.72,982.43 4366.28,1174.43 4318.28,1257.57 3985.72,1065.57" fill="rgb(5,4,7)" fill-opacity="0.502"/>
<polygon points="871.43,183.96 577.76,603.36 184.57,328.04 478.24,-91.36" fill="rgb(4,3,7)" fill-opacity="0.502"/>
<polygon points="4204.99,1364.87 4261.54,1098.82 5091.01,1275.13 5034.46,1541.18" fill="rgb(4,3,7)" fill-opacity="0.502"/>
<polygon points="4435.85,1466.19 4367.61,910.36 4828.15,853.81 4896.39,1409.64" fill="rgb(4,3,7)" fill-opacity="0.502"/>
<circle cx="4288.00" cy="1008.00" r="16.00" fill="rgb(196,184,199)" fill-opacity="0.502"/>
<circle cx="3760.00" cy="1232.00" r="496.00" fill="rgb(4,3,7)" fill-opacity="0.502"/>
<g transform="translate(4400.00 976.00) rotate(177) scale(96.00 16.00)"><ellipse cx="0" cy="0" rx="1" ry="1" fill="rgb(5,4,9)" fill-opacity="0.502"/></g>
<circle cx="4656.00" cy="816.00" r="352.00" fill="rgb(4,3,7)" fill-opacity="0.502"/>
<circle cx="4368.00" cy="784.00" r="48.00" fill="rgb(5,4,7)" fill-opacity="0.502"/>
<polygon points="3827.05,167.91 3848.09,211.05 3804.95,232.09 3783.91,188.95" fill="rgb(4,3,8)" fill-opacity="0.502"/>
<circle cx="4240.00" cy="368.00" r="32.00" fill="rgb(5,4,7)" fill-opacity="0.502"/>
<polygon points="3848.99,1102.36 3884.06,1030.46 4071.01,1121.64 4035.94,1193.54" fill="rgb(5,4,8)" fill-opacity="0.502"/>
<polygon points="4764.16,477.41 4758.17,462.58 4787.84,450.59 4793.83,465.42" fill="rgb(4,3,8)" fill-opacity="0.502"/>
<circle cx="4224.00" cy="1008.00" r="32.00" fill="rgb(48,50,59)" fill-opacity="0.502"/>
<circle cx="3904.00" cy="912.00" r="336.00" fill="rgb(4,3,7)" fill-opacity="0.502"/>
<circle cx="4512.00" cy="752.00" r="16.00" fill="rgb(5,4,8)" fill-opacity="0.502"/>
<polygon points="4736.00,1168.00 4736.00,1088.00 4816.00,1088.00 4816.00,1168.00" fill="rgb(5,4,8)" fill-opacity="0.502"/>
<polygon points="3828.13,1138.63 3821.37,1124.13 3835.87,1117.37 3842.63,1131.87" fill="rgb(5,4,8)" fill-opacity="0.502"/>
<g transform="translate(4240.00 960.00) rotate(49) scale(16.00 192.00)"><ellipse cx="0" cy="0" rx="1" ry="1" fill="rgb(3,2,6)" fill-opacity="0.502"/></g>
<circle cx="3648.00" cy="480.00" r="32.00" fill="rgb(4,3,8)" fill-opacity="0.502"/>
<polygon points="591.71,308.34 824.42,-111.48 1104.29,43.66 871.58,463.48" fill="rgb(4,3,7)" fill-opacity="0.502"/>
<g transform="translate(3760.00 1104.00) rotate(269) scale(608.00 464.00)"><ellipse cx="0" cy="0" rx="1" ry="1" fill="rgb(4,3,7)" fill-opacity="0.502"/></g>
<circle cx="4000.00" cy="1072.00" r="224.00" fill="rgb(4,3,7)" fill-opacity="0.502"/>
<circle cx="4256.00" cy="928.00" r="32.00" fill="rgb(5,4,8)" fill-opacity="0.502"/>
<g transform="translate(416.00 240.00) rotate(310) scale(368.00 144.00)"><ellipse cx="0" cy="0" rx="1" ry="1" fill="rgb(4,3,7)" fill-opacity="0.502"/></g>
<g transform="translate(4048.00 832.00) rotate(88) scale(336.00 208.00)"><ellipse cx="0" cy="0" rx="1" ry="1" fill="rgb(4,3,7)" fill-opacity="0.502"/></g>
<circle cx="4080.00" cy="1184.00" r="208.00" fill="rgb(4,3,7)" fill-opacity="0.502"/>
<circle cx="4288.00" cy="1024.00" r="48.00" fill="rgb(143,138,154)" fill-opacity="0.502"/>
<g transform="translate(4320.00 720.00) rotate(128) scale(256.00 336.00)"><ellipse cx="0" cy="0" rx="1" ry="1" fill="rgb(4,3,7)" fill-opacity="0.502"/></g>
<polygon points="4818.93,819.23 4715.09,777.27 4733.07,732.77 4836.91,774.73" fill="rgb(5,4,8)" fill-opacity="0.502"/>
<circle cx="4272.00" cy="1040.00" r="32.00" fill="rgb(162,158,170)" fill-opacity="0.502"/>
<g transform="translate(4272.00 1328.00) rotate(0) scale(256.00 224.00)"><ellipse cx="0" cy="0" rx="1" ry="1" fill="rgb(4,3,7)" fill-opacity="0.502"/></g>
<circle cx="4256.00" cy="400.00" r="16.00" fill="rgb(5,4,7)" fill-opacity="0.502"/>
<circle cx="4592.00" cy="768.00" r="64.00" fill="rgb(5,4,8)" fill-opacity="0.502"/>
<g transform="translate(4368.00 912.00) rotate(212) scale(64.00 80.00)"><ellipse cx="0" cy="0" rx="1" ry="1" fill="rgb(5,4,8)" fill-opacity="0.502"/></g>
<polygon points="4917.40,882.19 4888.42,990.37 4826.60,973.81 4855.58,865.63" fill="rgb(5,4,8)" fill-opacity="0.502"/>
</g>
</svg>