<?xml version="1.0" standalone="no"?>
<svg xmlns="http://www.w3.org/2000/svg" width="8176" height="6144" viewBox="0 0 8176 6144" style="overflow:hidden">
<defs>
<clipPath id="c"><rect x="0" y="0" width="8176" height="6144"/></clipPath>
</defs>
<rect width="8176" height="6144" fill="rgb(4,3,7)"/>
<g clip-path="url(#c)">
<g transform="translate(1936.00 2384.00) rotate(213) scale(48.00 80.00)"><ellipse cx="0" cy="0" rx="1" ry="1" fill="rgb(116,114,129)" fill-opacity="0.502"/></g>
<g transform="translate(1968.00 2560.00) rotate(270) scale(192.00 64.00)"><ellipse cx="0" cy="0" rx="1" ry="1" fill="rgb(0,0,2)" fill-opacity="0.502"/></g>
<g transform="translate(2144.00 2464.00) rotate(348) scale(192.00 272.00)"><ellipse cx="0" cy="0" rx="1" ry="1" fill="rgb(3,2,6)" fill-opacity="0.502"/></g>
<polygon points="1741.17,2610.35 1882.14,2436.27 2130.83,2637.65 1989.86,2811.73" fill="rgb(5,3,8)" fill-opacity="0.502"/>
<polygon points="2118.90,2770.23 1838.06,2508.34 2329.10,1981.77 2609.94,2243.66" fill="rgb(4,3,7)" fill-opacity="0.502"/>
<circle cx="2064.00" cy="2288.00" r="128.00" fill="rgb(4,3,7)" fill-opacity="0.502"/>
<polygon points="2009.88,2228.16 2255.96,2298.72 2150.12,2667.84 1904.04,2597.28" fill="rgb(4,3,7)" fill-opacity="0.502"/>
<g transform="translate(2112.00 2848.00) rotate(90) scale(496.00 320.00)"><ellipse cx="0" cy="0" rx="1" ry="1" fill="rgb(4,3,7)" fill-opacity="0.502"/></g>
<g transform="translate(2144.00 2048.00) rotate(98) scale(320.00 496.00)"><ellipse cx="0" cy="0" rx="1" ry="1" fill="rgb(4,3,7)" fill-opacity="0.502"/></g>
<g transform="translate(2224.00 2496.00) rotate(110) scale(320.00 272.00)"><ellipse cx="0" cy="0" rx="1" ry="1" fill="rgb(4,3,7)" fill-opacity="0.502"/></g>
<polygon points="2769.76,2974.42 2801.58,2977.76 2798.24,3009.58 2766.42,3006.24" fill="rgb(38,38,47)" fill-opacity="0.502"/>
<polygon points="1920.96,2404.72 2377.53,2210.91 2415.04,2299.28 1958.47,2493.09" fill="rgb(4,3,7)" fill-opacity="0.502"/>
<polygon points="2142.38,2632.17 1970.78,2488.19 2145.62,2279.83 2317.22,2423.81" fill="rgb(5,4,8)" fill-opacity="0.502"/>
<circle cx="2656.00" cy="2944.00" r="112.00" fill="rgb(3,2,6)" fill-opacity="0.502"/>
<circle cx="2128.00" cy="2688.00" r="32.00" fill="rgb(5,4,8)" fill-opacity="0.502"/>
<circle cx="208.00" cy="0.00" r="32.00" fill="rgb(13,9,19)" fill-opacity="0.502"/>
<circle cx="0.00" cy="480.00" r="512.00" fill="rgb(4,3,7)" fill-opacity="0.502"/>
<polygon points="2800.00,3216.00 2800.00,2928.00 3088.00,2928.00 3088.00,3216.00" fill="rgb(4,3,7)" fill-opacity="0.502"/>
<circle cx="1920.00" cy="2368.00" r="32.00" fill="rgb(224,220,237)" fill-opacity="0.502"/>
<polygon points="1957.56,2357.54 2254.25,2477.41 2074.44,2922.46 1777.75,2802.59" fill="rgb(4,3,7)" fill-opacity="0.502"/>
<g transform="translate(2176.00 1984.00) rotate(321) scale(384.00 464.00)"><ellipse cx="0" cy="0" rx="1" ry="1" fill="rgb(4,3,7)" fill-opacity="0.502"/></g>
<polygon points="2351.65,1530.94 2001.81,1337.02 2048.35,1253.06 2398.19,1446.98" fill="rgb(4,3,7)" fill-opacity="0.502"/>
<g transform="translate(2704.00 3152.00) rotate(118) scale(160.00 384.00)"><ellipse cx="0" cy="0" rx="1" ry="1" fill="rgb(4,3,7)" fill-opacity="0.502"/></g>
<circle cx="2352.00" cy="3232.00" r="480.00" fill="rgb(4,3,7)" fill-opacity="0.502"/>
<circle cx="1920.00" cy="2352.00" r="16.00" fill="rgb(229,224,238)" fill-opacity="0.502"/>
<g transform="translate(32.00 128.00) rotate(27) scale(80.00 464.00)"><ellipse cx="0" cy="0" rx="1" ry="1" fill="rgb(4,3,7)" fill-opacity="0.502"/></g>
<circle cx="2272.00" cy="2544.00" r="32.00" fill="rgb(5,4,8)" fill-opacity="0.502"/>
<g transform="translate(2368.00 2832.00) rotate(205) scale(432.00 288.00)"><ellipse cx="0" cy="0" rx="1" ry="1" fill="rgb(4,3,7)" fill-opacity="0.502"/></g>
<circle cx="1888.00" cy="2400.00" r="32.00" fill="rgb(106,106,123)" fill-opacity="0.502"/>
<g transform="translate(1936.00 2672.00) rotate(179) scale(32.00 304.00)"><ellipse cx="0" cy="0" rx="1" ry="1" fill="rgb(5,4,9)" fill-opacity="0.502"/></g>
<circle cx="2672.00" cy="2896.00" r="64.00" fill="rgb(5,4,8)" fill-opacity="0.502"/>
<polygon points="2313.85,3019.14 1985.23,3145.29 1750.15,2532.86 2078.77,2406.71" fill="rgb(4,3,7)" fill-opacity="0.502"/>
<polygon points="1866.14,2422.33 1418.02,2594.35 1205.86,2041.67 1653.98,1869.65" fill="rgb(4,3,7)" fill-opacity="0.502"/>
<g transform="translate(2304.00 2672.00) rotate(287) scale(480.00 432.00)"><ellipse cx="0" cy="0" rx="1" ry="1" fill="rgb(4,3,7)" fill-opacity="0.502"/></g>
<polygon points="1968.39,2644.84 2287.61,2667.16 2287.61,2667.16 1968.39,2644.84" fill="rgb(5,4,8)" fill-opacity="0.502"/>
<circle cx="2576.00" cy="2960.00" r="192.00" fill="rgb(4,3,7)" fill-opacity="0.502"/>
<g transform="translate(3120.00 3120.00) rotate(331) scale(304.00 368.00)"><ellipse cx="0" cy="0" rx="1" ry="1" fill="rgb(4,3,7)" fill-opacity="0.502"/></g>
<polygon points="2100.01,2316.44 2036.36,2323.13 2027.99,2243.56 2091.64,2236.87" fill="rgb(5,4,8)" fill-opacity="0.502"/>
<polygon points="2080.00,2224.00 2080.00,2224.00 2080.00,2224.00 2080.00,2224.00" fill="rgb(5,4,8)" fill-opacity="0.502"/>
<circle cx="2224.00" cy="2624.00" r="32.00" fill="rgb(5,4,8)" fill-opacity="0.502"/>
</g>
</svg>