<?xml version="1.0" standalone="no"?>
<svg xmlns="http://www.w3.org/2000/svg" width="8176" height="6144" viewBox="0 0 8176 6144" style="overflow:hidden">
<defs>
<clipPath id="c"><rect x="0" y="0" width="8176" height="6144"/></clipPath>
</defs>
<rect width="8176" height="6144" fill="rgb(4,3,7)"/>
<g clip-path="url(#c)">
<circle cx="608.00" cy="3344.00" r="80.00" fill="rgb(166,157,189)" fill-opacity="0.502"/>
<g transform="translate(208.00 3440.00) rotate(127) scale(368.00 352.00)"><ellipse cx="0" cy="0" rx="1" ry="1" fill="rgb(4,3,7)" fill-opacity="0.502"/></g>
<circle cx="880.00" cy="3792.00" r="464.00" fill="rgb(3,2,6)" fill-opacity="0.502"/>
<polygon points="6224.00,848.00 6176.00,848.00 6176.00,816.00 6224.00,816.00" fill="rgb(90,90,108)" fill-opacity="0.502"/>
<polygon points="1018.78,3538.28 500.85,4038.44 245.22,3773.72 763.15,3273.56" fill="rgb(5,4,8)" fill-opacity="0.502"/>
<g transform="translate(1008.00 3952.00) rotate(53) scale(240.00 384.00)"><ellipse cx="0" cy="0" rx="1" ry="1" fill="rgb(5,4,8)" fill-opacity="0.502"/></g>
<circle cx="448.00" cy="3232.00" r="144.00" fill="rgb(4,3,7)" fill-opacity="0.502"/>
<polygon points="275.18,194.26 176.68,-76.37 236.82,-98.26 335.32,172.37" fill="rgb(5,4,9)" fill-opacity="0.502"/>
<g transform="translate(6432.00 576.00) rotate(35) scale(112.00 320.00)"><ellipse cx="0" cy="0" rx="1" ry="1" fill="rgb(4,3,7)" fill-opacity="0.502"/></g>
<circle cx="6192.00" cy="528.00" r="304.00" fill="rgb(4,3,7)" fill-opacity="0.502"/>
<g transform="translate(416.00 48.00) rotate(223) scale(112.00 736.00)"><ellipse cx="0" cy="0" rx="1" ry="1" fill="rgb(4,3,7)" fill-opacity="0.502"/></g>
<g transform="translate(448.00 3456.00) rotate(13) scale(240.00 96.00)"><ellipse cx="0" cy="0" rx="1" ry="1" fill="rgb(4,3,7)" fill-opacity="0.502"/></g>
<polygon points="70.78,434.78 0.57,73.54 393.22,-2.78 463.43,358.46" fill="rgb(4,3,7)" fill-opacity="0.502"/>
<circle cx="896.00" cy="3680.00" r="368.00" fill="rgb(4,3,7)" fill-opacity="0.502"/>
<polygon points="600.00,3368.00 600.00,3304.00 648.00,3304.00 648.00,3368.00" fill="rgb(175,165,191)" fill-opacity="0.502"/>
<circle cx="6016.00" cy="368.00" r="480.00" fill="rgb(4,3,7)" fill-opacity="0.502"/>
<circle cx="5952.00" cy="816.00" r="224.00" fill="rgb(4,3,7)" fill-opacity="0.502"/>
<circle cx="640.00" cy="3088.00" r="192.00" fill="rgb(5,4,9)" fill-opacity="0.502"/>
<polygon points="566.87,3364.16 558.58,3333.25 713.13,3291.84 721.42,3322.75" fill="rgb(117,111,134)" fill-opacity="0.502"/>
<g transform="translate(1120.00 2976.00) rotate(185) scale(480.00 624.00)"><ellipse cx="0" cy="0" rx="1" ry="1" fill="rgb(4,3,7)" fill-opacity="0.502"/></g>
<g transform="translate(480.00 2528.00) rotate(5) scale(704.00 576.00)"><ellipse cx="0" cy="0" rx="1" ry="1" fill="rgb(4,3,7)" fill-opacity="0.502"/></g>
<g transform="translate(464.00 2720.00) rotate(296) scale(448.00 816.00)"><ellipse cx="0" cy="0" rx="1" ry="1" fill="rgb(4,3,7)" fill-opacity="0.502"/></g>
<circle cx="352.00" cy="2864.00" r="480.00" fill="rgb(4,3,7)" fill-opacity="0.502"/>
<circle cx="1088.00" cy="3536.00" r="64.00" fill="rgb(5,4,8)" fill-opacity="0.502"/>
<circle cx="864.00" cy="3568.00" r="272.00" fill="rgb(4,3,7)" fill-opacity="0.502"/>
<polygon points="6376.50,1412.01 6033.91,1031.52 6295.50,795.99 6638.09,1176.48" fill="rgb(4,3,7)" fill-opacity="0.502"/>
<circle cx="976.00" cy="2864.00" r="512.00" fill="rgb(4,3,7)" fill-opacity="0.502"/>
<g transform="translate(272.00 2992.00) rotate(335) scale(368.00 416.00)"><ellipse cx="0" cy="0" rx="1" ry="1" fill="rgb(4,3,7)" fill-opacity="0.502"/></g>
<circle cx="608.00" cy="3248.00" r="32.00" fill="rgb(47,45,58)" fill-opacity="0.502"/>
<polygon points="492.28,3270.94 728.19,3105.75 755.72,3145.06 519.81,3310.25" fill="rgb(4,3,7)" fill-opacity="0.502"/>
<circle cx="928.00" cy="3392.00" r="240.00" fill="rgb(4,3,7)" fill-opacity="0.502"/>
<g transform="translate(496.00 2768.00) rotate(169) scale(288.00 496.00)"><ellipse cx="0" cy="0" rx="1" ry="1" fill="rgb(4,3,7)" fill-opacity="0.502"/></g>
<circle cx="576.00" cy="4096.00" r="32.00" fill="rgb(5,4,8)" fill-opacity="0.502"/>
<circle cx="1104.00" cy="3648.00" r="16.00" fill="rgb(5,4,8)" fill-opacity="0.502"/>
<g transform="translate(816.00 2816.00) rotate(208) scale(336.00 464.00)"><ellipse cx="0" cy="0" rx="1" ry="1" fill="rgb(4,3,7)" fill-opacity="0.502"/></g>
<polygon points="641.98,3258.97 663.81,3235.56 734.02,3301.03 712.19,3324.44" fill="rgb(39,35,47)" fill-opacity="0.502"/>
<polygon points="704.00,3248.00 800.00,3248.00 800.00,3312.00 704.00,3312.00" fill="rgb(1,1,4)" fill-opacity="0.502"/>
<circle cx="1088.00" cy="3024.00" r="480.00" fill="rgb(4,3,7)" fill-opacity="0.502"/>
<circle cx="656.00" cy="4160.00" r="16.00" fill="rgb(5,4,8)" fill-opacity="0.502"/>
<polygon points="885.15,3238.00 662.00,3257.52 650.85,3130.00 874.00,3110.48" fill="rgb(4,3,7)" fill-opacity="0.502"/>
<polygon points="1040.14,3279.53 835.69,3433.59 623.86,3152.47 828.31,2998.41" fill="rgb(4,3,7)" fill-opacity="0.502"/>
<g transform="translate(816.00 3248.00) rotate(48) scale(400.00 96.00)"><ellipse cx="0" cy="0" rx="1" ry="1" fill="rgb(4,3,7)" fill-opacity="0.502"/></g>
<circle cx="1104.00" cy="3440.00" r="48.00" fill="rgb(5,4,8)" fill-opacity="0.502"/>
<circle cx="1168.00" cy="3552.00" r="16.00" fill="rgb(5,4,8)" fill-opacity="0.502"/>
<polygon points="879.31,3336.19 1036.76,3517.32 1024.69,3527.81 867.24,3346.68" fill="rgb(5,4,8)" fill-opacity="0.502"/>
<polygon points="943.52,3620.48 1199.36,3611.54 1200.48,3643.52 944.64,3652.46" fill="rgb(5,4,8)" fill-opacity="0.502"/>
<polygon points="78.81,2945.77 470.33,2763.20 673.19,3198.23 281.67,3380.80" fill="rgb(4,3,7)" fill-opacity="0.502"/>
<circle cx="1184.00" cy="3488.00" r="32.00" fill="rgb(5,4,8)" fill-opacity="0.502"/>
<polygon points="546.33,3380.48 482.09,3472.23 429.67,3435.52 493.91,3343.77" fill="rgb(7,6,11)" fill-opacity="0.502"/>
<polygon points="536.08,2923.60 711.83,2932.81 695.92,3236.40 520.17,3227.19" fill="rgb(4,3,7)" fill-opacity="0.502"/>
<circle cx="1184.00" cy="3280.00" r="480.00" fill="rgb(4,3,7)" fill-opacity="0.502"/>
<circle cx="0.00" cy="3344.00" r="496.00" fill="rgb(4,3,7)" fill-opacity="0.502"/>
<circle cx="368.00" cy="3712.00" r="352.00" fill="rgb(4,3,7)" fill-opacity="0.502"/>
<g transform="translate(928.00 3584.00) rotate(170) scale(208.00 464.00)"><ellipse cx="0" cy="0" rx="1" ry="1" fill="rgb(4,3,7)" fill-opacity="0.502"/></g>
</g>
</svg>