<?xml version="1.0" standalone="no"?>
<svg xmlns="http://www.w3.org/2000/svg" width="692" height="1024" viewBox="0 0 692 1024" style="overflow:hidden">
<defs>
<clipPath id="c"><rect x="0" y="0" width="692" height="1024"/></clipPath>
</defs>
<rect width="692" height="1024" fill="rgb(75,10,91)"/>
<g clip-path="url(#c)">
<circle cx="572.00" cy="624.00" r="180.00" fill="rgb(255,37,255)" fill-opacity="0.502"/>
<circle cx="176.00" cy="608.00" r="160.00" fill="rgb(253,34,235)" fill-opacity="0.502"/>
<circle cx="344.00" cy="20.00" r="368.00" fill="rgb(0,0,0)" fill-opacity="0.502"/>
<circle cx="540.00" cy="892.00" r="148.00" fill="rgb(31,3,57)" fill-opacity="0.502"/>
<g transform="translate(68.00 396.00) rotate(46) scale(64.00 1020.00)"><ellipse cx="0" cy="0" rx="1" ry="1" fill="rgb(0,0,29)" fill-opacity="0.502"/></g>
<g transform="translate(652.00 208.00) rotate(220) scale(400.00 116.00)"><ellipse cx="0" cy="0" rx="1" ry="1" fill="rgb(0,0,4)" fill-opacity="0.502"/></g>
<g transform="translate(156.00 764.00) rotate(278) scale(60.00 300.00)"><ellipse cx="0" cy="0" rx="1" ry="1" fill="rgb(40,5,76)" fill-opacity="0.502"/></g>
<g transform="translate(284.00 396.00) rotate(198) scale(100.00 60.00)"><ellipse cx="0" cy="0" rx="1" ry="1" fill="rgb(132,22,157)" fill-opacity="0.502"/></g>
<circle cx="44.00" cy="128.00" r="228.00" fill="rgb(15,3,71)" fill-opacity="0.502"/>
<circle cx="360.00" cy="648.00" r="96.00" fill="rgb(180,24,154)" fill-opacity="0.502"/>
<g transform="translate(364.00 240.00) rotate(49) scale(136.00 112.00)"><ellipse cx="0" cy="0" rx="1" ry="1" fill="rgb(0,0,11)" fill-opacity="0.502"/></g>
<polygon points="-0.94,711.04 -68.77,602.49 144.94,468.96 212.77,577.51" fill="rgb(215,31,219)" fill-opacity="0.502"/>
<g transform="translate(164.00 1020.00) rotate(102) scale(68.00 280.00)"><ellipse cx="0" cy="0" rx="1" ry="1" fill="rgb(25,2,45)" fill-opacity="0.502"/></g>
<circle cx="480.00" cy="536.00" r="72.00" fill="rgb(209,29,203)" fill-opacity="0.502"/>
<polygon points="422.48,325.40 575.07,292.96 597.52,398.60 444.93,431.04" fill="rgb(142,23,166)" fill-opacity="0.502"/>
<g transform="translate(604.00 624.00) rotate(160) scale(172.00 132.00)"><ellipse cx="0" cy="0" rx="1" ry="1" fill="rgb(205,27,190)" fill-opacity="0.502"/></g>
<g transform="translate(372.00 464.00) rotate(347) scale(80.00 56.00)"><ellipse cx="0" cy="0" rx="1" ry="1" fill="rgb(34,6,50)" fill-opacity="0.502"/></g>
<polygon points="532.00,932.00 688.00,932.00 688.00,1020.00 532.00,1020.00" fill="rgb(23,0,31)" fill-opacity="0.502"/>
<circle cx="320.00" cy="564.00" r="48.00" fill="rgb(179,24,160)" fill-opacity="0.502"/>
<circle cx="556.00" cy="428.00" r="24.00" fill="rgb(0,0,0)" fill-opacity="0.502"/>
<g transform="translate(128.00 760.00) rotate(78) scale(40.00 164.00)"><ellipse cx="0" cy="0" rx="1" ry="1" fill="rgb(69,11,97)" fill-opacity="0.502"/></g>
<g transform="translate(668.00 188.00) rotate(160) scale(168.00 120.00)"><ellipse cx="0" cy="0" rx="1" ry="1" fill="rgb(4,0,36)" fill-opacity="0.502"/></g>
<circle cx="396.00" cy="220.00" r="132.00" fill="rgb(7,0,27)" fill-opacity="0.502"/>
<circle cx="32.00" cy="292.00" r="164.00" fill="rgb(28,5,68)" fill-opacity="0.502"/>
<g transform="translate(616.00 868.00) rotate(36) scale(212.00 48.00)"><ellipse cx="0" cy="0" rx="1" ry="1" fill="rgb(72,14,101)" fill-opacity="0.502"/></g>
<circle cx="24.00" cy="796.00" r="116.00" fill="rgb(83,14,113)" fill-opacity="0.502"/>
<g transform="translate(156.00 584.00) rotate(299) scale(132.00 120.00)"><ellipse cx="0" cy="0" rx="1" ry="1" fill="rgb(191,26,183)" fill-opacity="0.502"/></g>
<g transform="translate(648.00 440.00) rotate(187) scale(164.00 16.00)"><ellipse cx="0" cy="0" rx="1" ry="1" fill="rgb(0,0,0)" fill-opacity="0.502"/></g>
<polygon points="597.93,760.93 703.83,797.39 666.07,907.07 560.17,870.61" fill="rgb(71,13,100)" fill-opacity="0.502"/>
<polygon points="253.17,433.29 250.38,465.17 130.83,454.71 133.62,422.83" fill="rgb(0,0,0)" fill-opacity="0.502"/>
<circle cx="304.00" cy="52.00" r="72.00" fill="rgb(3,0,31)" fill-opacity="0.502"/>
<circle cx="516.00" cy="548.00" r="92.00" fill="rgb(187,26,191)" fill-opacity="0.502"/>
<circle cx="688.00" cy="672.00" r="116.00" fill="rgb(189,25,181)" fill-opacity="0.502"/>
<g transform="translate(688.00 352.00) rotate(93) scale(120.00 28.00)"><ellipse cx="0" cy="0" rx="1" ry="1" fill="rgb(0,0,37)" fill-opacity="0.502"/></g>
<g transform="translate(444.00 676.00) rotate(217) scale(44.00 72.00)"><ellipse cx="0" cy="0" rx="1" ry="1" fill="rgb(195,26,185)" fill-opacity="0.502"/></g>
<circle cx="332.00" cy="424.00" r="48.00" fill="rgb(79,14,99)" fill-opacity="0.502"/>
<polygon points="52.00,452.00 52.00,436.00 180.00,436.00 180.00,452.00" fill="rgb(0,0,26)" fill-opacity="0.502"/>
<g transform="translate(176.00 404.00) rotate(39) scale(24.00 28.00)"><ellipse cx="0" cy="0" rx="1" ry="1" fill="rgb(151,23,172)" fill-opacity="0.502"/></g>
<circle cx="172.00" cy="848.00" r="120.00" fill="rgb(62,10,88)" fill-opacity="0.502"/>
<circle cx="688.00" cy="76.00" r="108.00" fill="rgb(14,1,51)" fill-opacity="0.502"/>
<circle cx="12.00" cy="624.00" r="60.00" fill="rgb(197,29,217)" fill-opacity="0.502"/>
<g transform="translate(324.00 984.00) rotate(227) scale(76.00 148.00)"><ellipse cx="0" cy="0" rx="1" ry="1" fill="rgb(61,10,86)" fill-opacity="0.502"/></g>
<polygon points="106.87,742.33 421.66,769.87 417.13,821.67 102.34,794.13" fill="rgb(39,2,59)" fill-opacity="0.502"/>
<polygon points="95.46,783.82 99.99,835.63 -43.46,848.18 -47.99,796.37" fill="rgb(96,16,127)" fill-opacity="0.502"/>
<circle cx="636.00" cy="532.00" r="72.00" fill="rgb(184,25,177)" fill-opacity="0.502"/>
<polygon points="656.16,325.29 655.81,345.29 507.84,342.71 508.19,322.71" fill="rgb(5,0,27)" fill-opacity="0.502"/>
<g transform="translate(560.00 48.00) rotate(190) scale(76.00 256.00)"><ellipse cx="0" cy="0" rx="1" ry="1" fill="rgb(7,0,22)" fill-opacity="0.502"/></g>
<g transform="translate(348.00 740.00) rotate(275) scale(12.00 208.00)"><ellipse cx="0" cy="0" rx="1" ry="1" fill="rgb(85,15,118)" fill-opacity="0.502"/></g>
<g transform="translate(284.00 256.00) rotate(314) scale(84.00 76.00)"><ellipse cx="0" cy="0" rx="1" ry="1" fill="rgb(12,0,26)" fill-opacity="0.502"/></g>
<polygon points="350.78,533.78 356.92,621.57 233.22,630.22 227.08,542.43" fill="rgb(171,22,159)" fill-opacity="0.502"/>
<g transform="translate(44.00 740.00) rotate(184) scale(88.00 56.00)"><ellipse cx="0" cy="0" rx="1" ry="1" fill="rgb(84,13,110)" fill-opacity="0.502"/></g>
<circle cx="244.00" cy="344.00" r="16.00" fill="rgb(197,30,220)" fill-opacity="0.502"/>
<polygon points="503.35,254.68 399.69,143.51 440.65,105.32 544.31,216.49" fill="rgb(20,1,49)" fill-opacity="0.502"/>
<g transform="translate(540.00 380.00) rotate(263) scale(8.00 88.00)"><ellipse cx="0" cy="0" rx="1" ry="1" fill="rgb(0,0,0)" fill-opacity="0.502"/></g>
<circle cx="372.00" cy="532.00" r="24.00" fill="rgb(0,0,0)" fill-opacity="0.502"/>
<circle cx="468.00" cy="0.00" r="108.00" fill="rgb(2,0,7)" fill-opacity="0.502"/>
<polygon points="403.20,441.38 372.15,433.63 412.80,270.62 443.85,278.37" fill="rgb(3,0,17)" fill-opacity="0.502"/>
<g transform="translate(372.00 700.00) rotate(185) scale(8.00 188.00)"><ellipse cx="0" cy="0" rx="1" ry="1" fill="rgb(54,6,58)" fill-opacity="0.502"/></g>
<g transform="translate(276.00 404.00) rotate(93) scale(12.00 116.00)"><ellipse cx="0" cy="0" rx="1" ry="1" fill="rgb(48,7,65)" fill-opacity="0.502"/></g>
<g transform="translate(36.00 564.00) rotate(214) scale(24.00 76.00)"><ellipse cx="0" cy="0" rx="1" ry="1" fill="rgb(188,27,193)" fill-opacity="0.502"/></g>
<circle cx="304.00" cy="528.00" r="28.00" fill="rgb(179,24,163)" fill-opacity="0.502"/>
<circle cx="292.00" cy="656.00" r="68.00" fill="rgb(158,22,147)" fill-opacity="0.502"/>
<g transform="translate(276.00 900.00) rotate(110) scale(100.00 156.00)"><ellipse cx="0" cy="0" rx="1" ry="1" fill="rgb(70,11,95)" fill-opacity="0.502"/></g>
<circle cx="528.00" cy="396.00" r="12.00" fill="rgb(244,38,255)" fill-opacity="0.502"/>
<g transform="translate(56.00 312.00) rotate(198) scale(132.00 172.00)"><ellipse cx="0" cy="0" rx="1" ry="1" fill="rgb(30,5,66)" fill-opacity="0.502"/></g>
<polygon points="74.07,982.96 82.28,960.41 149.93,985.04 141.72,1007.59" fill="rgb(2,0,13)" fill-opacity="0.502"/>
<circle cx="332.00" cy="460.00" r="16.00" fill="rgb(179,34,203)" fill-opacity="0.502"/>
<polygon points="324.85,439.43 316.25,461.84 219.15,424.57 227.75,402.16" fill="rgb(199,33,216)" fill-opacity="0.502"/>
<polygon points="683.16,196.12 636.21,186.14 652.84,107.88 699.79,117.86" fill="rgb(29,4,75)" fill-opacity="0.502"/>
<polygon points="597.85,336.81 585.54,321.05 598.15,311.19 610.46,326.95" fill="rgb(196,40,230)" fill-opacity="0.502"/>
<g transform="translate(600.00 264.00) rotate(40) scale(96.00 40.00)"><ellipse cx="0" cy="0" rx="1" ry="1" fill="rgb(10,0,22)" fill-opacity="0.502"/></g>
<circle cx="184.00" cy="548.00" r="96.00" fill="rgb(186,24,178)" fill-opacity="0.502"/>
<circle cx="296.00" cy="376.00" r="40.00" fill="rgb(115,19,137)" fill-opacity="0.502"/>
<g transform="translate(140.00 420.00) rotate(320) scale(16.00 8.00)"><ellipse cx="0" cy="0" rx="1" ry="1" fill="rgb(228,38,247)" fill-opacity="0.502"/></g>
<circle cx="556.00" cy="24.00" r="76.00" fill="rgb(12,0,27)" fill-opacity="0.502"/>
<circle cx="256.00" cy="84.00" r="96.00" fill="rgb(17,1,45)" fill-opacity="0.502"/>
<circle cx="320.00" cy="384.00" r="16.00" fill="rgb(0,0,5)" fill-opacity="0.502"/>
<polygon points="599.26,334.49 634.99,330.10 644.74,409.51 609.01,413.90" fill="rgb(105,20,136)" fill-opacity="0.502"/>
<circle cx="512.00" cy="580.00" r="120.00" fill="rgb(186,25,184)" fill-opacity="0.502"/>
<g transform="translate(24.00 292.00) rotate(359) scale(128.00 92.00)"><ellipse cx="0" cy="0" rx="1" ry="1" fill="rgb(40,6,68)" fill-opacity="0.502"/></g>
<g transform="translate(452.00 708.00) rotate(97) scale(32.00 52.00)"><ellipse cx="0" cy="0" rx="1" ry="1" fill="rgb(191,26,182)" fill-opacity="0.502"/></g>
<circle cx="8.00" cy="996.00" r="24.00" fill="rgb(87,18,115)" fill-opacity="0.502"/>
<g transform="translate(520.00 884.00) rotate(294) scale(40.00 76.00)"><ellipse cx="0" cy="0" rx="1" ry="1" fill="rgb(37,2,58)" fill-opacity="0.502"/></g>
<polygon points="474.06,425.86 487.48,445.75 397.94,506.14 384.52,486.25" fill="rgb(0,0,0)" fill-opacity="0.502"/>
<circle cx="272.00" cy="368.00" r="12.00" fill="rgb(0,0,0)" fill-opacity="0.502"/>
<circle cx="220.00" cy="348.00" r="12.00" fill="rgb(218,35,238)" fill-opacity="0.502"/>
<polygon points="27.28,997.33 47.42,972.46 84.72,1002.67 64.58,1027.54" fill="rgb(78,16,106)" fill-opacity="0.502"/>
<polygon points="314.89,463.54 388.37,518.91 369.11,544.46 295.63,489.09" fill="rgb(0,0,4)" fill-opacity="0.502"/>
<g transform="translate(656.00 268.00) rotate(151) scale(56.00 236.00)"><ellipse cx="0" cy="0" rx="1" ry="1" fill="rgb(12,0,28)" fill-opacity="0.502"/></g>
<polygon points="585.15,919.65 554.18,795.45 662.85,768.35 693.82,892.55" fill="rgb(69,12,95)" fill-opacity="0.502"/>
<g transform="translate(200.00 1020.00) rotate(108) scale(12.00 256.00)"><ellipse cx="0" cy="0" rx="1" ry="1" fill="rgb(3,0,17)" fill-opacity="0.502"/></g>
<polygon points="496.66,329.24 495.40,305.27 543.34,302.76 544.60,326.73" fill="rgb(228,38,251)" fill-opacity="0.502"/>
<g transform="translate(400.00 300.00) rotate(33) scale(64.00 80.00)"><ellipse cx="0" cy="0" rx="1" ry="1" fill="rgb(7,0,20)" fill-opacity="0.502"/></g>
<circle cx="560.00" cy="552.00" r="100.00" fill="rgb(188,26,191)" fill-opacity="0.502"/>
<circle cx="672.00" cy="144.00" r="44.00" fill="rgb(24,3,63)" fill-opacity="0.502"/>
<polygon points="389.55,514.61 377.55,535.39 242.45,457.39 254.45,436.61" fill="rgb(0,0,12)" fill-opacity="0.502"/>
<circle cx="44.00" cy="624.00" r="60.00" fill="rgb(184,27,198)" fill-opacity="0.502"/>
<circle cx="180.00" cy="500.00" r="44.00" fill="rgb(191,26,190)" fill-opacity="0.502"/>
<g transform="translate(488.00 988.00) rotate(311) scale(48.00 108.00)"><ellipse cx="0" cy="0" rx="1" ry="1" fill="rgb(59,6,76)" fill-opacity="0.502"/></g>
<g transform="translate(668.00 700.00) rotate(63) scale(88.00 64.00)"><ellipse cx="0" cy="0" rx="1" ry="1" fill="rgb(188,25,180)" fill-opacity="0.502"/></g>
<circle cx="112.00" cy="952.00" r="36.00" fill="rgb(56,5,69)" fill-opacity="0.502"/>
<g transform="translate(76.00 0.00) rotate(214) scale(116.00 72.00)"><ellipse cx="0" cy="0" rx="1" ry="1" fill="rgb(34,5,69)" fill-opacity="0.502"/></g>
<polygon points="448.00,768.00 584.00,768.00 584.00,824.00 448.00,824.00" fill="rgb(66,11,91)" fill-opacity="0.502"/>
<polygon points="389.48,529.59 338.63,473.11 350.52,462.41 401.37,518.89" fill="rgb(152,28,167)" fill-opacity="0.502"/>
<polygon points="666.34,242.88 698.21,245.67 685.66,389.12 653.79,386.33" fill="rgb(22,1,55)" fill-opacity="0.502"/>
<circle cx="512.00" cy="432.00" r="24.00" fill="rgb(0,0,0)" fill-opacity="0.502"/>
<polygon points="70.71,482.56 13.03,466.03 37.29,381.44 94.97,397.97" fill="rgb(11,0,51)" fill-opacity="0.502"/>
<polygon points="13.90,288.12 -2.09,287.84 2.10,47.88 18.09,48.16" fill="rgb(16,1,47)" fill-opacity="0.502"/>
<g transform="translate(204.00 356.00) rotate(110) scale(8.00 4.00)"><ellipse cx="0" cy="0" rx="1" ry="1" fill="rgb(237,38,255)" fill-opacity="0.502"/></g>
<polygon points="644.82,1057.19 573.97,975.68 607.18,946.81 678.03,1028.32" fill="rgb(27,1,38)" fill-opacity="0.502"/>
<circle cx="276.00" cy="412.00" r="16.00" fill="rgb(0,0,15)" fill-opacity="0.502"/>
<polygon points="680.51,467.29 581.60,435.15 591.49,404.71 690.40,436.85" fill="rgb(0,0,13)" fill-opacity="0.502"/>
<circle cx="508.00" cy="660.00" r="88.00" fill="rgb(187,25,178)" fill-opacity="0.502"/>
<polygon points="66.98,684.71 77.34,723.34 -26.98,751.29 -37.34,712.66" fill="rgb(93,18,124)" fill-opacity="0.502"/>
<g transform="translate(280.00 264.00) rotate(249) scale(64.00 112.00)"><ellipse cx="0" cy="0" rx="1" ry="1" fill="rgb(13,0,32)" fill-opacity="0.502"/></g>
<g transform="translate(480.00 268.00) rotate(357) scale(24.00 52.00)"><ellipse cx="0" cy="0" rx="1" ry="1" fill="rgb(12,0,27)" fill-opacity="0.502"/></g>
<circle cx="104.00" cy="204.00" r="120.00" fill="rgb(25,4,64)" fill-opacity="0.502"/>
<polygon points="353.72,566.85 298.71,606.82 242.28,529.15 297.29,489.18" fill="rgb(170,23,159)" fill-opacity="0.502"/>
<circle cx="592.00" cy="360.00" r="12.00" fill="rgb(202,38,234)" fill-opacity="0.502"/>
<polygon points="656.89,424.54 661.37,417.91 711.11,451.46 706.63,458.09" fill="rgb(104,19,130)" fill-opacity="0.502"/>
<circle cx="52.00" cy="336.00" r="48.00" fill="rgb(49,8,73)" fill-opacity="0.502"/>
<circle cx="688.00" cy="508.00" r="36.00" fill="rgb(159,21,146)" fill-opacity="0.502"/>
<polygon points="129.20,875.23 126.69,947.19 -57.20,940.77 -54.69,868.81" fill="rgb(65,12,91)" fill-opacity="0.502"/>
<polygon points="161.70,717.49 162.54,701.51 334.30,710.51 333.46,726.49" fill="rgb(131,26,147)" fill-opacity="0.502"/>
<g transform="translate(292.00 372.00) rotate(336) scale(12.00 12.00)"><ellipse cx="0" cy="0" rx="1" ry="1" fill="rgb(0,0,0)" fill-opacity="0.502"/></g>
<g transform="translate(108.00 1020.00) rotate(198) scale(44.00 16.00)"><ellipse cx="0" cy="0" rx="1" ry="1" fill="rgb(83,18,113)" fill-opacity="0.502"/></g>
<circle cx="628.00" cy="640.00" r="128.00" fill="rgb(187,25,183)" fill-opacity="0.502"/>
<circle cx="256.00" cy="836.00" r="24.00" fill="rgb(90,13,114)" fill-opacity="0.502"/>
<circle cx="144.00" cy="132.00" r="52.00" fill="rgb(17,2,50)" fill-opacity="0.502"/>
<g transform="translate(660.00 968.00) rotate(120) scale(32.00 80.00)"><ellipse cx="0" cy="0" rx="1" ry="1" fill="rgb(42,2,60)" fill-opacity="0.502"/></g>
<circle cx="208.00" cy="416.00" r="12.00" fill="rgb(243,38,255)" fill-opacity="0.502"/>
<polygon points="76.54,456.39 121.50,345.12 147.46,355.61 102.50,466.88" fill="rgb(17,1,56)" fill-opacity="0.502"/>
<g transform="translate(232.00 88.00) rotate(175) scale(152.00 16.00)"><ellipse cx="0" cy="0" rx="1" ry="1" fill="rgb(13,0,27)" fill-opacity="0.502"/></g>
<polygon points="307.49,273.10 263.82,278.46 256.51,218.90 300.18,213.54" fill="rgb(20,1,41)" fill-opacity="0.502"/>
<g transform="translate(564.00 568.00) rotate(111) scale(24.00 84.00)"><ellipse cx="0" cy="0" rx="1" ry="1" fill="rgb(184,28,206)" fill-opacity="0.502"/></g>
<g transform="translate(304.00 312.00) rotate(295) scale(28.00 92.00)"><ellipse cx="0" cy="0" rx="1" ry="1" fill="rgb(9,0,22)" fill-opacity="0.502"/></g>
<circle cx="288.00" cy="348.00" r="12.00" fill="rgb(228,37,249)" fill-opacity="0.502"/>
<circle cx="500.00" cy="404.00" r="12.00" fill="rgb(249,38,255)" fill-opacity="0.502"/>
<polygon points="494.36,180.94 438.66,186.80 433.64,139.06 489.34,133.20" fill="rgb(22,2,60)" fill-opacity="0.502"/>
<polygon points="377.76,575.60 365.48,550.43 394.24,536.40 406.52,561.57" fill="rgb(8,0,17)" fill-opacity="0.502"/>
<circle cx="344.00" cy="144.00" r="72.00" fill="rgb(13,0,24)" fill-opacity="0.502"/>
<g transform="translate(316.00 864.00) rotate(295) scale(16.00 112.00)"><ellipse cx="0" cy="0" rx="1" ry="1" fill="rgb(84,11,107)" fill-opacity="0.502"/></g>
<circle cx="136.00" cy="864.00" r="60.00" fill="rgb(77,13,102)" fill-opacity="0.502"/>
<circle cx="556.00" cy="948.00" r="40.00" fill="rgb(39,2,47)" fill-opacity="0.502"/>
<circle cx="200.00" cy="24.00" r="68.00" fill="rgb(23,3,61)" fill-opacity="0.502"/>
<polygon points="315.42,279.55 405.98,200.83 492.58,300.45 402.02,379.17" fill="rgb(10,0,22)" fill-opacity="0.502"/>
<g transform="translate(428.00 420.00) rotate(290) scale(32.00 16.00)"><ellipse cx="0" cy="0" rx="1" ry="1" fill="rgb(132,24,157)" fill-opacity="0.502"/></g>
<polygon points="189.72,624.84 125.44,701.44 70.28,655.16 134.56,578.56" fill="rgb(191,25,182)" fill-opacity="0.502"/>
<polygon points="74.00,366.00 74.00,238.00 150.00,238.00 150.00,366.00" fill="rgb(37,7,69)" fill-opacity="0.502"/>
<g transform="translate(452.00 864.00) rotate(124) scale(48.00 96.00)"><ellipse cx="0" cy="0" rx="1" ry="1" fill="rgb(45,4,67)" fill-opacity="0.502"/></g>
<circle cx="276.00" cy="388.00" r="12.00" fill="rgb(225,36,243)" fill-opacity="0.502"/>
<polygon points="204.58,705.71 154.15,666.31 235.42,562.29 285.85,601.69" fill="rgb(173,22,160)" fill-opacity="0.502"/>
<polygon points="176.16,863.12 183.87,836.21 283.84,864.88 276.13,891.79" fill="rgb(57,7,78)" fill-opacity="0.502"/>
<polygon points="406.85,616.60 391.09,613.82 409.15,511.40 424.91,514.18" fill="rgb(152,21,130)" fill-opacity="0.502"/>
<polygon points="181.00,350.40 178.09,338.76 279.00,313.60 281.91,325.24" fill="rgb(13,1,41)" fill-opacity="0.502"/>
<g transform="translate(472.00 396.00) rotate(65) scale(4.00 72.00)"><ellipse cx="0" cy="0" rx="1" ry="1" fill="rgb(0,0,0)" fill-opacity="0.502"/></g>
<polygon points="365.70,761.26 344.89,742.52 366.30,718.74 387.11,737.48" fill="rgb(90,15,118)" fill-opacity="0.502"/>
<g transform="translate(688.00 396.00) rotate(100) scale(8.00 172.00)"><ellipse cx="0" cy="0" rx="1" ry="1" fill="rgb(7,0,33)" fill-opacity="0.502"/></g>
<g transform="translate(504.00 180.00) rotate(220) scale(28.00 56.00)"><ellipse cx="0" cy="0" rx="1" ry="1" fill="rgb(11,0,21)" fill-opacity="0.502"/></g>
<polygon points="492.43,-23.27 428.19,114.49 395.57,99.27 459.81,-38.49" fill="rgb(0,0,0)" fill-opacity="0.502"/>
<g transform="translate(652.00 8.00) rotate(35) scale(32.00 52.00)"><ellipse cx="0" cy="0" rx="1" ry="1" fill="rgb(17,1,54)" fill-opacity="0.502"/></g>
<circle cx="352.00" cy="968.00" r="52.00" fill="rgb(61,9,81)" fill-opacity="0.502"/>
<circle cx="432.00" cy="916.00" r="32.00" fill="rgb(64,10,86)" fill-opacity="0.502"/>
<g transform="translate(152.00 280.00) rotate(120) scale(36.00 60.00)"><ellipse cx="0" cy="0" rx="1" ry="1" fill="rgb(22,3,65)" fill-opacity="0.502"/></g>
<polygon points="207.59,375.89 171.34,358.99 176.41,348.11 212.66,365.01" fill="rgb(53,8,81)" fill-opacity="0.502"/>
<g transform="translate(488.00 364.00) rotate(67) scale(8.00 44.00)"><ellipse cx="0" cy="0" rx="1" ry="1" fill="rgb(217,36,236)" fill-opacity="0.502"/></g>
<polygon points="418.00,586.00 418.00,502.00 538.00,502.00 538.00,586.00" fill="rgb(186,26,190)" fill-opacity="0.502"/>
<g transform="translate(580.00 244.00) rotate(319) scale(56.00 64.00)"><ellipse cx="0" cy="0" rx="1" ry="1" fill="rgb(13,0,27)" fill-opacity="0.502"/></g>
<circle cx="132.00" cy="144.00" r="44.00" fill="rgb(22,3,64)" fill-opacity="0.502"/>
<polygon points="444.36,779.05 466.36,740.95 535.64,780.95 513.64,819.05" fill="rgb(67,10,93)" fill-opacity="0.502"/>
<g transform="translate(36.00 712.00) rotate(273) scale(20.00 104.00)"><ellipse cx="0" cy="0" rx="1" ry="1" fill="rgb(86,14,113)" fill-opacity="0.502"/></g>
<circle cx="580.00" cy="396.00" r="12.00" fill="rgb(235,37,251)" fill-opacity="0.502"/>
<circle cx="0.00" cy="784.00" r="44.00" fill="rgb(92,15,119)" fill-opacity="0.502"/>
<polygon points="307.25,967.83 43.33,902.03 60.75,832.17 324.67,897.97" fill="rgb(68,14,96)" fill-opacity="0.502"/>
<g transform="translate(92.00 764.00) rotate(157) scale(36.00 44.00)"><ellipse cx="0" cy="0" rx="1" ry="1" fill="rgb(61,6,86)" fill-opacity="0.502"/></g>
<circle cx="360.00" cy="432.00" r="36.00" fill="rgb(61,10,80)" fill-opacity="0.502"/>
<g transform="translate(156.00 852.00) rotate(241) scale(32.00 60.00)"><ellipse cx="0" cy="0" rx="1" ry="1" fill="rgb(78,12,101)" fill-opacity="0.502"/></g>
<circle cx="656.00" cy="888.00" r="40.00" fill="rgb(71,12,97)" fill-opacity="0.502"/>
<circle cx="268.00" cy="340.00" r="8.00" fill="rgb(237,37,255)" fill-opacity="0.502"/>
<polygon points="236.61,401.83 217.05,405.99 215.39,398.17 234.95,394.01" fill="rgb(0,0,0)" fill-opacity="0.502"/>
<polygon points="305.26,387.71 373.10,430.11 366.74,440.29 298.90,397.89" fill="rgb(203,40,228)" fill-opacity="0.502"/>
<circle cx="364.00" cy="32.00" r="48.00" fill="rgb(13,0,27)" fill-opacity="0.502"/>
<g transform="translate(272.00 368.00) rotate(191) scale(56.00 12.00)"><ellipse cx="0" cy="0" rx="1" ry="1" fill="rgb(1,0,26)" fill-opacity="0.502"/></g>
<circle cx="120.00" cy="224.00" r="40.00" fill="rgb(38,7,69)" fill-opacity="0.502"/>
<circle cx="640.00" cy="836.00" r="60.00" fill="rgb(68,11,94)" fill-opacity="0.502"/>
<polygon points="437.91,15.32 484.48,26.93 466.09,100.68 419.52,89.07" fill="rgb(0,0,0)" fill-opacity="0.502"/>
<g transform="translate(128.00 40.00) rotate(216) scale(12.00 12.00)"><ellipse cx="0" cy="0" rx="1" ry="1" fill="rgb(9,0,34)" fill-opacity="0.502"/></g>
<g transform="translate(416.00 288.00) rotate(189) scale(48.00 76.00)"><ellipse cx="0" cy="0" rx="1" ry="1" fill="rgb(11,0,26)" fill-opacity="0.502"/></g>
<polygon points="663.20,145.97 633.13,135.03 672.80,26.03 702.87,36.97" fill="rgb(18,2,49)" fill-opacity="0.502"/>
<polygon points="340.20,144.17 229.27,110.26 239.80,75.83 350.73,109.74" fill="rgb(18,1,41)" fill-opacity="0.502"/>
<circle cx="688.00" cy="552.00" r="16.00" fill="rgb(166,21,153)" fill-opacity="0.502"/>
<polygon points="135.22,394.46 146.33,405.97 88.78,461.54 77.67,450.03" fill="rgb(25,3,59)" fill-opacity="0.502"/>
<g transform="translate(176.00 948.00) rotate(292) scale(16.00 36.00)"><ellipse cx="0" cy="0" rx="1" ry="1" fill="rgb(59,7,69)" fill-opacity="0.502"/></g>
<polygon points="468.01,556.99 454.78,510.85 523.99,491.01 537.22,537.15" fill="rgb(185,28,204)" fill-opacity="0.502"/>
<g transform="translate(196.00 252.00) rotate(92) scale(104.00 12.00)"><ellipse cx="0" cy="0" rx="1" ry="1" fill="rgb(22,2,62)" fill-opacity="0.502"/></g>
<g transform="translate(92.00 528.00) rotate(80) scale(48.00 36.00)"><ellipse cx="0" cy="0" rx="1" ry="1" fill="rgb(186,25,182)" fill-opacity="0.502"/></g>
<g transform="translate(496.00 324.00) rotate(244) scale(8.00 44.00)"><ellipse cx="0" cy="0" rx="1" ry="1" fill="rgb(212,35,233)" fill-opacity="0.502"/></g>
<circle cx="232.00" cy="672.00" r="28.00" fill="rgb(162,22,146)" fill-opacity="0.502"/>
<polygon points="582.50,449.09 679.50,505.09 641.50,570.91 544.50,514.91" fill="rgb(187,25,175)" fill-opacity="0.502"/>
<g transform="translate(16.00 596.00) rotate(234) scale(28.00 92.00)"><ellipse cx="0" cy="0" rx="1" ry="1" fill="rgb(186,27,199)" fill-opacity="0.502"/></g>
<polygon points="362.00,546.00 362.00,670.00 338.00,670.00 338.00,546.00" fill="rgb(156,22,143)" fill-opacity="0.502"/>
<polygon points="42.25,21.36 89.79,28.04 69.75,170.64 22.21,163.96" fill="rgb(31,5,68)" fill-opacity="0.502"/>
<g transform="translate(380.00 812.00) rotate(201) scale(124.00 20.00)"><ellipse cx="0" cy="0" rx="1" ry="1" fill="rgb(40,3,66)" fill-opacity="0.502"/></g>
<polygon points="513.05,444.55 504.11,457.82 470.95,435.45 479.89,422.18" fill="rgb(0,0,3)" fill-opacity="0.502"/>
<polygon points="622.57,1027.42 625.49,1003.60 633.43,1004.58 630.51,1028.40" fill="rgb(0,0,25)" fill-opacity="0.502"/>
<circle cx="600.00" cy="400.00" r="12.00" fill="rgb(210,35,234)" fill-opacity="0.502"/>
<polygon points="84.24,470.15 77.62,447.08 123.76,433.85 130.38,456.92" fill="rgb(16,1,39)" fill-opacity="0.502"/>
<g transform="translate(556.00 352.00) rotate(1) scale(36.00 8.00)"><ellipse cx="0" cy="0" rx="1" ry="1" fill="rgb(228,37,246)" fill-opacity="0.502"/></g>
<circle cx="396.00" cy="1020.00" r="52.00" fill="rgb(67,13,94)" fill-opacity="0.502"/>
<polygon points="578.29,763.76 478.50,712.91 525.71,620.24 625.50,671.09" fill="rgb(188,25,180)" fill-opacity="0.502"/>
<polygon points="540.72,186.56 595.03,145.63 679.28,257.44 624.97,298.37" fill="rgb(9,0,20)" fill-opacity="0.502"/>
<g transform="translate(0.00 528.00) rotate(308) scale(44.00 28.00)"><ellipse cx="0" cy="0" rx="1" ry="1" fill="rgb(9,2,63)" fill-opacity="0.502"/></g>
<polygon points="182.83,49.26 184.92,73.17 121.17,78.74 119.08,54.83" fill="rgb(46,9,74)" fill-opacity="0.502"/>
<g transform="translate(148.00 472.00) rotate(215) scale(16.00 20.00)"><ellipse cx="0" cy="0" rx="1" ry="1" fill="rgb(186,27,189)" fill-opacity="0.502"/></g>
<circle cx="548.00" cy="252.00" r="48.00" fill="rgb(15,1,34)" fill-opacity="0.502"/>
<polygon points="76.29,56.83 75.74,40.84 123.71,39.17 124.26,55.16" fill="rgb(11,0,42)" fill-opacity="0.502"/>
<g transform="translate(12.00 476.00) rotate(239) scale(48.00 52.00)"><ellipse cx="0" cy="0" rx="1" ry="1" fill="rgb(19,3,63)" fill-opacity="0.502"/></g>
<polygon points="396.15,731.15 384.21,732.41 375.85,652.85 387.79,651.59" fill="rgb(135,19,115)" fill-opacity="0.502"/>
<polygon points="202.03,590.00 155.75,534.85 213.97,486.00 260.25,541.15" fill="rgb(189,25,181)" fill-opacity="0.502"/>
<circle cx="316.00" cy="428.00" r="16.00" fill="rgb(0,0,10)" fill-opacity="0.502"/>
<polygon points="362.13,742.98 476.89,778.07 469.87,801.02 355.11,765.93" fill="rgb(61,6,86)" fill-opacity="0.502"/>
<g transform="translate(168.00 560.00) rotate(203) scale(52.00 108.00)"><ellipse cx="0" cy="0" rx="1" ry="1" fill="rgb(187,25,182)" fill-opacity="0.502"/></g>
<g transform="translate(624.00 808.00) rotate(0) scale(144.00 24.00)"><ellipse cx="0" cy="0" rx="1" ry="1" fill="rgb(70,13,97)" fill-opacity="0.502"/></g>
<circle cx="0.00" cy="4.00" r="16.00" fill="rgb(121,25,127)" fill-opacity="0.502"/>
<g transform="translate(564.00 400.00) rotate(182) scale(80.00 4.00)"><ellipse cx="0" cy="0" rx="1" ry="1" fill="rgb(199,32,219)" fill-opacity="0.502"/></g>
<circle cx="248.00" cy="40.00" r="20.00" fill="rgb(23,3,71)" fill-opacity="0.502"/>
<g transform="translate(372.00 668.00) rotate(14) scale(4.00 100.00)"><ellipse cx="0" cy="0" rx="1" ry="1" fill="rgb(97,12,81)" fill-opacity="0.502"/></g>
<g transform="translate(688.00 76.00) rotate(70) scale(8.00 40.00)"><ellipse cx="0" cy="0" rx="1" ry="1" fill="rgb(25,3,70)" fill-opacity="0.502"/></g>
<polygon points="395.07,223.06 436.69,185.59 500.93,256.94 459.31,294.41" fill="rgb(14,0,31)" fill-opacity="0.502"/>
<polygon points="631.43,83.93 626.59,64.52 692.57,48.07 697.41,67.48" fill="rgb(12,0,22)" fill-opacity="0.502"/>
<polygon points="406.02,462.84 398.97,453.13 453.98,413.16 461.03,422.87" fill="rgb(199,34,218)" fill-opacity="0.502"/>
<circle cx="632.00" cy="792.00" r="24.00" fill="rgb(71,10,99)" fill-opacity="0.502"/>
<g transform="translate(76.00 608.00) rotate(128) scale(20.00 24.00)"><ellipse cx="0" cy="0" rx="1" ry="1" fill="rgb(184,27,204)" fill-opacity="0.502"/></g>
<circle cx="204.00" cy="160.00" r="48.00" fill="rgb(23,3,63)" fill-opacity="0.502"/>
<g transform="translate(312.00 680.00) rotate(151) scale(40.00 40.00)"><ellipse cx="0" cy="0" rx="1" ry="1" fill="rgb(155,22,145)" fill-opacity="0.502"/></g>
<circle cx="20.00" cy="236.00" r="28.00" fill="rgb(37,7,70)" fill-opacity="0.502"/>
<polygon points="5.52,943.07 176.29,985.65 170.48,1008.93 -0.29,966.35" fill="rgb(24,1,38)" fill-opacity="0.502"/>
<polygon points="640.26,362.54 637.58,365.52 619.74,349.46 622.42,346.48" fill="rgb(0,0,0)" fill-opacity="0.502"/>
<circle cx="640.00" cy="380.00" r="12.00" fill="rgb(123,24,153)" fill-opacity="0.502"/>
<polygon points="325.08,348.99 326.83,368.92 302.92,371.01 301.17,351.08" fill="rgb(183,33,205)" fill-opacity="0.502"/>
<g transform="translate(548.00 84.00) rotate(46) scale(24.00 88.00)"><ellipse cx="0" cy="0" rx="1" ry="1" fill="rgb(8,0,20)" fill-opacity="0.502"/></g>
<circle cx="472.00" cy="408.00" r="12.00" fill="rgb(205,32,221)" fill-opacity="0.502"/>
<circle cx="20.00" cy="1012.00" r="36.00" fill="rgb(70,12,93)" fill-opacity="0.502"/>
<circle cx="260.00" cy="344.00" r="12.00" fill="rgb(200,31,219)" fill-opacity="0.502"/>
<circle cx="264.00" cy="588.00" r="40.00" fill="rgb(177,23,169)" fill-opacity="0.502"/>
<polygon points="610.80,400.75 614.56,393.69 685.20,431.25 681.44,438.31" fill="rgb(156,31,187)" fill-opacity="0.502"/>
<polygon points="582.35,770.65 665.08,840.07 613.65,901.35 530.92,831.93" fill="rgb(70,13,96)" fill-opacity="0.502"/>
<g transform="translate(72.00 660.00) rotate(306) scale(16.00 60.00)"><ellipse cx="0" cy="0" rx="1" ry="1" fill="rgb(188,25,186)" fill-opacity="0.502"/></g>
<circle cx="180.00" cy="676.00" r="36.00" fill="rgb(177,24,167)" fill-opacity="0.502"/>
<circle cx="260.00" cy="468.00" r="12.00" fill="rgb(0,0,16)" fill-opacity="0.502"/>
<polygon points="634.10,362.28 633.89,374.28 601.90,373.72 602.11,361.72" fill="rgb(158,30,186)" fill-opacity="0.502"/>
<circle cx="256.00" cy="380.00" r="12.00" fill="rgb(198,30,214)" fill-opacity="0.502"/>
<g transform="translate(128.00 520.00) rotate(74) scale(60.00 64.00)"><ellipse cx="0" cy="0" rx="1" ry="1" fill="rgb(187,26,185)" fill-opacity="0.502"/></g>
<g transform="translate(512.00 440.00) rotate(173) scale(96.00 12.00)"><ellipse cx="0" cy="0" rx="1" ry="1" fill="rgb(0,0,18)" fill-opacity="0.502"/></g>
<polygon points="561.17,412.00 608.58,404.49 614.83,444.00 567.42,451.51" fill="rgb(7,0,22)" fill-opacity="0.502"/>
<polygon points="353.90,504.78 401.44,511.46 398.10,535.22 350.56,528.54" fill="rgb(15,0,31)" fill-opacity="0.502"/>
<polygon points="143.96,355.33 -2.22,332.18 4.04,292.67 150.22,315.82" fill="rgb(47,8,72)" fill-opacity="0.502"/>
<polygon points="294.61,704.47 244.87,670.91 325.39,551.53 375.13,585.09" fill="rgb(162,22,150)" fill-opacity="0.502"/>
<polygon points="420.51,211.93 389.74,356.70 311.49,340.07 342.26,195.30" fill="rgb(9,0,21)" fill-opacity="0.502"/>
<circle cx="688.00" cy="436.00" r="20.00" fill="rgb(6,0,25)" fill-opacity="0.502"/>
<g transform="translate(680.00 976.00) rotate(189) scale(24.00 36.00)"><ellipse cx="0" cy="0" rx="1" ry="1" fill="rgb(44,5,69)" fill-opacity="0.502"/></g>
<circle cx="0.00" cy="656.00" r="24.00" fill="rgb(195,28,204)" fill-opacity="0.502"/>
<polygon points="207.54,754.44 67.62,749.55 68.46,725.56 208.38,730.45" fill="rgb(76,9,100)" fill-opacity="0.502"/>
<polygon points="408.02,505.93 377.83,486.32 403.98,446.07 434.17,465.68" fill="rgb(11,0,29)" fill-opacity="0.502"/>
<g transform="translate(276.00 0.00) rotate(283) scale(28.00 72.00)"><ellipse cx="0" cy="0" rx="1" ry="1" fill="rgb(14,0,35)" fill-opacity="0.502"/></g>
<circle cx="80.00" cy="424.00" r="20.00" fill="rgb(17,1,42)" fill-opacity="0.502"/>
<polygon points="174.92,610.59 196.06,628.96 133.08,701.41 111.94,683.04" fill="rgb(186,25,178)" fill-opacity="0.502"/>
<polygon points="612.45,587.79 588.46,588.21 587.55,536.21 611.54,535.79" fill="rgb(186,28,205)" fill-opacity="0.502"/>
<g transform="translate(380.00 96.00) rotate(266) scale(356.00 16.00)"><ellipse cx="0" cy="0" rx="1" ry="1" fill="rgb(10,0,22)" fill-opacity="0.502"/></g>
<polygon points="272.21,968.19 374.92,1001.57 363.79,1035.81 261.08,1002.43" fill="rgb(60,6,71)" fill-opacity="0.502"/>
<polygon points="171.11,384.20 206.19,376.10 208.89,387.80 173.81,395.90" fill="rgb(223,36,240)" fill-opacity="0.502"/>
<polygon points="248.02,931.86 281.72,887.14 367.98,952.14 334.28,996.86" fill="rgb(69,13,93)" fill-opacity="0.502"/>
<polygon points="290.02,167.72 235.63,335.11 189.98,320.28 244.37,152.89" fill="rgb(17,1,33)" fill-opacity="0.502"/>
<circle cx="688.00" cy="228.00" r="36.00" fill="rgb(19,1,48)" fill-opacity="0.502"/>
<g transform="translate(556.00 40.00) rotate(10) scale(60.00 76.00)"><ellipse cx="0" cy="0" rx="1" ry="1" fill="rgb(10,0,23)" fill-opacity="0.502"/></g>
<g transform="translate(524.00 856.00) rotate(122) scale(12.00 172.00)"><ellipse cx="0" cy="0" rx="1" ry="1" fill="rgb(56,6,73)" fill-opacity="0.502"/></g>
<circle cx="564.00" cy="312.00" r="16.00" fill="rgb(198,34,222)" fill-opacity="0.502"/>
<circle cx="24.00" cy="936.00" r="20.00" fill="rgb(54,5,68)" fill-opacity="0.502"/>
<g transform="translate(156.00 516.00) rotate(360) scale(16.00 44.00)"><ellipse cx="0" cy="0" rx="1" ry="1" fill="rgb(185,27,196)" fill-opacity="0.502"/></g>
<g transform="translate(52.00 536.00) rotate(317) scale(56.00 16.00)"><ellipse cx="0" cy="0" rx="1" ry="1" fill="rgb(188,26,183)" fill-opacity="0.502"/></g>
<polygon points="201.33,399.53 178.78,407.74 174.67,396.47 197.22,388.26" fill="rgb(0,0,7)" fill-opacity="0.502"/>
<polygon points="271.99,494.20 291.74,491.08 308.01,593.80 288.26,596.92" fill="rgb(176,23,167)" fill-opacity="0.502"/>
<g transform="translate(252.00 796.00) rotate(0) scale(152.00 16.00)"><ellipse cx="0" cy="0" rx="1" ry="1" fill="rgb(48,6,70)" fill-opacity="0.502"/></g>
<polygon points="581.77,472.57 477.95,502.34 470.23,475.43 574.05,445.66" fill="rgb(189,25,177)" fill-opacity="0.502"/>
<g transform="translate(444.00 372.00) rotate(331) scale(104.00 8.00)"><ellipse cx="0" cy="0" rx="1" ry="1" fill="rgb(7,0,29)" fill-opacity="0.502"/></g>
<polygon points="562.05,462.88 576.05,487.12 537.95,509.12 523.95,484.88" fill="rgb(187,27,196)" fill-opacity="0.502"/>
<polygon points="363.94,837.89 358.59,865.38 280.06,850.11 285.41,822.62" fill="rgb(72,10,100)" fill-opacity="0.502"/>
<g transform="translate(384.00 336.00) rotate(162) scale(36.00 60.00)"><ellipse cx="0" cy="0" rx="1" ry="1" fill="rgb(9,0,23)" fill-opacity="0.502"/></g>
<circle cx="236.00" cy="408.00" r="4.00" fill="rgb(0,0,0)" fill-opacity="0.502"/>
<polygon points="272.20,100.09 287.63,118.48 247.80,151.91 232.37,133.52" fill="rgb(23,3,64)" fill-opacity="0.502"/>
<circle cx="656.00" cy="360.00" r="20.00" fill="rgb(18,2,48)" fill-opacity="0.502"/>
<circle cx="544.00" cy="392.00" r="12.00" fill="rgb(196,31,213)" fill-opacity="0.502"/>
<g transform="translate(400.00 864.00) rotate(227) scale(84.00 16.00)"><ellipse cx="0" cy="0" rx="1" ry="1" fill="rgb(60,7,79)" fill-opacity="0.502"/></g>
<polygon points="639.45,948.18 631.82,987.45 592.55,979.82 600.18,940.55" fill="rgb(36,2,40)" fill-opacity="0.502"/>
<g transform="translate(0.00 808.00) rotate(111) scale(132.00 20.00)"><ellipse cx="0" cy="0" rx="1" ry="1" fill="rgb(88,14,115)" fill-opacity="0.502"/></g>
<polygon points="159.51,409.83 211.38,406.21 212.49,422.17 160.62,425.79" fill="rgb(222,34,236)" fill-opacity="0.502"/>
<polygon points="153.01,848.66 146.32,912.31 22.99,899.34 29.68,835.69" fill="rgb(70,12,95)" fill-opacity="0.502"/>
<polygon points="521.33,1000.72 496.46,980.58 526.67,943.28 551.54,963.42" fill="rgb(50,4,62)" fill-opacity="0.502"/>
<circle cx="0.00" cy="432.00" r="48.00" fill="rgb(26,4,67)" fill-opacity="0.502"/>
<circle cx="396.00" cy="0.00" r="36.00" fill="rgb(12,0,28)" fill-opacity="0.502"/>
</g>
</svg>