<?xml version="1.0" standalone="no"?>
<svg xmlns="http://www.w3.org/2000/svg" width="692" height="1024" viewBox="0 0 692 1024" style="overflow:hidden">
<defs>
<clipPath id="c"><rect x="0" y="0" width="692" height="1024"/></clipPath>
</defs>
<rect width="692" height="1024" fill="rgb(71,9,87)"/>
<g clip-path="url(#c)">
<circle cx="596.00" cy="684.00" r="184.00" fill="rgb(255,36,243)" fill-opacity="0.502"/>
<circle cx="216.00" cy="612.00" r="152.00" fill="rgb(234,32,209)" fill-opacity="0.502"/>
<circle cx="396.00" cy="76.00" r="324.00" fill="rgb(0,0,0)" fill-opacity="0.502"/>
<circle cx="36.00" cy="308.00" r="200.00" fill="rgb(0,0,50)" fill-opacity="0.502"/>
<polygon points="509.16,655.49 439.85,804.13 294.84,736.51 364.15,587.87" fill="rgb(169,24,147)" fill-opacity="0.502"/>
<polygon points="357.12,939.51 398.73,772.62 654.88,836.49 613.27,1003.38" fill="rgb(31,4,61)" fill-opacity="0.502"/>
<circle cx="564.00" cy="128.00" r="232.00" fill="rgb(0,0,9)" fill-opacity="0.502"/>
<circle cx="40.00" cy="608.00" r="84.00" fill="rgb(192,27,163)" fill-opacity="0.502"/>
<g transform="translate(168.00 824.00) rotate(102) scale(120.00 304.00)"><ellipse cx="0" cy="0" rx="1" ry="1" fill="rgb(60,9,90)" fill-opacity="0.502"/></g>
<circle cx="212.00" cy="648.00" r="68.00" fill="rgb(199,27,187)" fill-opacity="0.502"/>
<polygon points="491.19,460.28 604.65,436.16 608.81,455.72 495.35,479.84" fill="rgb(225,40,251)" fill-opacity="0.502"/>
<polygon points="182.31,590.77 89.17,705.79 -10.31,625.23 82.83,510.21" fill="rgb(137,19,129)" fill-opacity="0.502"/>
<circle cx="572.00" cy="652.00" r="148.00" fill="rgb(203,26,187)" fill-opacity="0.502"/>
<g transform="translate(36.00 8.00) rotate(102) scale(92.00 36.00)"><ellipse cx="0" cy="0" rx="1" ry="1" fill="rgb(177,38,207)" fill-opacity="0.502"/></g>
<circle cx="432.00" cy="284.00" r="124.00" fill="rgb(0,0,22)" fill-opacity="0.502"/>
<g transform="translate(420.00 584.00) rotate(272) scale(84.00 20.00)"><ellipse cx="0" cy="0" rx="1" ry="1" fill="rgb(25,3,26)" fill-opacity="0.502"/></g>
<g transform="translate(188.00 160.00) rotate(8) scale(152.00 260.00)"><ellipse cx="0" cy="0" rx="1" ry="1" fill="rgb(17,3,64)" fill-opacity="0.502"/></g>
<polygon points="236.48,438.14 268.02,355.99 387.52,401.86 355.98,484.01" fill="rgb(133,24,160)" fill-opacity="0.502"/>
<polygon points="716.00,320.00 716.00,364.00 616.00,364.00 616.00,320.00" fill="rgb(0,0,0)" fill-opacity="0.502"/>
<circle cx="592.00" cy="952.00" r="136.00" fill="rgb(51,7,72)" fill-opacity="0.502"/>
<circle cx="0.00" cy="624.00" r="96.00" fill="rgb(160,23,145)" fill-opacity="0.502"/>
<g transform="translate(128.00 776.00) rotate(233) scale(72.00 88.00)"><ellipse cx="0" cy="0" rx="1" ry="1" fill="rgb(61,7,90)" fill-opacity="0.502"/></g>
<g transform="translate(256.00 564.00) rotate(313) scale(64.00 120.00)"><ellipse cx="0" cy="0" rx="1" ry="1" fill="rgb(192,25,178)" fill-opacity="0.502"/></g>
<polygon points="431.27,-25.46 613.88,33.87 560.73,197.46 378.12,138.13" fill="rgb(0,0,10)" fill-opacity="0.502"/>
<g transform="translate(4.00 436.00) rotate(335) scale(52.00 108.00)"><ellipse cx="0" cy="0" rx="1" ry="1" fill="rgb(15,3,59)" fill-opacity="0.502"/></g>
<polygon points="71.80,557.43 68.45,509.55 168.20,502.57 171.55,550.45" fill="rgb(206,28,196)" fill-opacity="0.502"/>
<polygon points="427.64,454.74 368.48,327.86 408.36,309.26 467.52,436.14" fill="rgb(0,0,1)" fill-opacity="0.502"/>
<g transform="translate(112.00 644.00) rotate(310) scale(100.00 12.00)"><ellipse cx="0" cy="0" rx="1" ry="1" fill="rgb(82,12,78)" fill-opacity="0.502"/></g>
<g transform="translate(604.00 1016.00) rotate(287) scale(36.00 96.00)"><ellipse cx="0" cy="0" rx="1" ry="1" fill="rgb(26,0,33)" fill-opacity="0.502"/></g>
<circle cx="480.00" cy="208.00" r="40.00" fill="rgb(28,2,70)" fill-opacity="0.502"/>
<polygon points="342.67,527.53 228.62,469.42 241.33,444.47 355.38,502.58" fill="rgb(0,0,2)" fill-opacity="0.502"/>
<circle cx="84.00" cy="208.00" r="120.00" fill="rgb(27,4,61)" fill-opacity="0.502"/>
<circle cx="688.00" cy="280.00" r="104.00" fill="rgb(0,0,24)" fill-opacity="0.502"/>
<g transform="translate(648.00 920.00) rotate(122) scale(40.00 256.00)"><ellipse cx="0" cy="0" rx="1" ry="1" fill="rgb(74,13,102)" fill-opacity="0.502"/></g>
<circle cx="304.00" cy="600.00" r="80.00" fill="rgb(165,23,152)" fill-opacity="0.502"/>
<circle cx="688.00" cy="96.00" r="128.00" fill="rgb(13,0,44)" fill-opacity="0.502"/>
<g transform="translate(588.00 380.00) rotate(105) scale(36.00 72.00)"><ellipse cx="0" cy="0" rx="1" ry="1" fill="rgb(118,22,148)" fill-opacity="0.502"/></g>
<polygon points="563.05,396.75 569.23,415.77 496.95,439.25 490.77,420.23" fill="rgb(206,39,236)" fill-opacity="0.502"/>
<circle cx="348.00" cy="280.00" r="100.00" fill="rgb(5,0,18)" fill-opacity="0.502"/>
<polygon points="206.03,928.40 2.16,935.52 -2.03,815.60 201.84,808.48" fill="rgb(86,13,112)" fill-opacity="0.502"/>
<polygon points="682.00,470.00 682.00,502.00 518.00,502.00 518.00,470.00" fill="rgb(0,0,0)" fill-opacity="0.502"/>
<circle cx="236.00" cy="312.00" r="72.00" fill="rgb(15,1,46)" fill-opacity="0.502"/>
<g transform="translate(308.00 664.00) rotate(245) scale(88.00 60.00)"><ellipse cx="0" cy="0" rx="1" ry="1" fill="rgb(162,23,152)" fill-opacity="0.502"/></g>
<circle cx="536.00" cy="308.00" r="52.00" fill="rgb(13,0,32)" fill-opacity="0.502"/>
<g transform="translate(632.00 452.00) rotate(10) scale(56.00 8.00)"><ellipse cx="0" cy="0" rx="1" ry="1" fill="rgb(202,41,233)" fill-opacity="0.502"/></g>
<circle cx="440.00" cy="1020.00" r="100.00" fill="rgb(52,5,73)" fill-opacity="0.502"/>
<g transform="translate(500.00 568.00) rotate(327) scale(72.00 40.00)"><ellipse cx="0" cy="0" rx="1" ry="1" fill="rgb(188,25,178)" fill-opacity="0.502"/></g>
<circle cx="56.00" cy="1020.00" r="116.00" fill="rgb(51,8,75)" fill-opacity="0.502"/>
<circle cx="152.00" cy="260.00" r="108.00" fill="rgb(32,5,70)" fill-opacity="0.502"/>
<polygon points="298.00,490.00 298.00,658.00 254.00,658.00 254.00,490.00" fill="rgb(178,23,170)" fill-opacity="0.502"/>
<polygon points="310.96,302.54 286.21,374.39 237.04,357.46 261.79,285.61" fill="rgb(6,0,12)" fill-opacity="0.502"/>
<g transform="translate(180.00 792.00) rotate(359) scale(108.00 76.00)"><ellipse cx="0" cy="0" rx="1" ry="1" fill="rgb(64,8,89)" fill-opacity="0.502"/></g>
<polygon points="436.14,446.46 355.31,381.01 435.86,281.54 516.69,346.99" fill="rgb(6,0,21)" fill-opacity="0.502"/>
<g transform="translate(236.00 516.00) rotate(350) scale(56.00 40.00)"><ellipse cx="0" cy="0" rx="1" ry="1" fill="rgb(187,25,180)" fill-opacity="0.502"/></g>
<polygon points="111.41,585.98 160.28,568.19 172.59,602.02 123.72,619.81" fill="rgb(65,11,94)" fill-opacity="0.502"/>
<g transform="translate(344.00 0.00) rotate(211) scale(72.00 196.00)"><ellipse cx="0" cy="0" rx="1" ry="1" fill="rgb(14,0,53)" fill-opacity="0.502"/></g>
<circle cx="408.00" cy="532.00" r="48.00" fill="rgb(30,5,44)" fill-opacity="0.502"/>
<circle cx="324.00" cy="936.00" r="100.00" fill="rgb(65,11,89)" fill-opacity="0.502"/>
<circle cx="564.00" cy="236.00" r="116.00" fill="rgb(12,0,29)" fill-opacity="0.502"/>
<circle cx="48.00" cy="428.00" r="92.00" fill="rgb(30,5,64)" fill-opacity="0.502"/>
<polygon points="692.56,423.86 676.56,424.13 675.44,360.14 691.44,359.87" fill="rgb(0,0,16)" fill-opacity="0.502"/>
<circle cx="348.00" cy="620.00" r="56.00" fill="rgb(153,21,138)" fill-opacity="0.502"/>
<polygon points="256.25,439.93 255.27,447.87 191.75,440.07 192.73,432.13" fill="rgb(246,42,255)" fill-opacity="0.502"/>
<g transform="translate(140.00 76.00) rotate(328) scale(84.00 60.00)"><ellipse cx="0" cy="0" rx="1" ry="1" fill="rgb(34,5,73)" fill-opacity="0.502"/></g>
<polygon points="420.66,548.17 313.49,464.44 323.34,451.83 430.51,535.56" fill="rgb(180,36,201)" fill-opacity="0.502"/>
<g transform="translate(36.00 168.00) rotate(295) scale(116.00 28.00)"><ellipse cx="0" cy="0" rx="1" ry="1" fill="rgb(13,0,47)" fill-opacity="0.502"/></g>
<polygon points="7.03,882.74 330.99,934.05 320.97,997.26 -2.99,945.95" fill="rgb(70,13,96)" fill-opacity="0.502"/>
<circle cx="588.00" cy="388.00" r="12.00" fill="rgb(0,0,0)" fill-opacity="0.502"/>
<polygon points="638.77,955.97 591.54,907.05 669.23,832.03 716.46,880.95" fill="rgb(70,13,98)" fill-opacity="0.502"/>
<g transform="translate(60.00 364.00) rotate(255) scale(40.00 100.00)"><ellipse cx="0" cy="0" rx="1" ry="1" fill="rgb(52,8,75)" fill-opacity="0.502"/></g>
<polygon points="254.68,401.00 261.45,415.50 185.32,451.00 178.55,436.50" fill="rgb(143,25,171)" fill-opacity="0.502"/>
<polygon points="431.29,551.56 417.26,522.80 528.71,468.44 542.74,497.20" fill="rgb(0,0,0)" fill-opacity="0.502"/>
<g transform="translate(588.00 564.00) rotate(247) scale(32.00 120.00)"><ellipse cx="0" cy="0" rx="1" ry="1" fill="rgb(188,25,179)" fill-opacity="0.502"/></g>
<polygon points="139.54,652.81 244.77,628.52 256.46,679.19 151.23,703.48" fill="rgb(190,25,182)" fill-opacity="0.502"/>
<circle cx="24.00" cy="764.00" r="40.00" fill="rgb(33,0,41)" fill-opacity="0.502"/>
<circle cx="656.00" cy="0.00" r="36.00" fill="rgb(25,4,72)" fill-opacity="0.502"/>
<polygon points="664.53,507.23 671.35,562.82 655.47,564.77 648.65,509.18" fill="rgb(173,23,161)" fill-opacity="0.502"/>
<polygon points="666.34,-0.22 694.34,0.26 689.66,268.22 661.66,267.74" fill="rgb(21,2,52)" fill-opacity="0.502"/>
<circle cx="60.00" cy="624.00" r="72.00" fill="rgb(145,21,133)" fill-opacity="0.502"/>
<polygon points="360.64,451.13 358.30,458.78 247.36,424.87 249.70,417.22" fill="rgb(0,0,0)" fill-opacity="0.502"/>
<polygon points="212.43,399.80 313.77,376.41 315.57,384.20 214.23,407.59" fill="rgb(178,32,208)" fill-opacity="0.502"/>
<polygon points="214.54,484.34 204.53,547.55 129.46,535.66 139.47,472.45" fill="rgb(190,25,182)" fill-opacity="0.502"/>
<g transform="translate(392.00 676.00) rotate(73) scale(32.00 32.00)"><ellipse cx="0" cy="0" rx="1" ry="1" fill="rgb(116,15,94)" fill-opacity="0.502"/></g>
<g transform="translate(492.00 332.00) rotate(200) scale(60.00 32.00)"><ellipse cx="0" cy="0" rx="1" ry="1" fill="rgb(12,0,26)" fill-opacity="0.502"/></g>
<g transform="translate(688.00 788.00) rotate(278) scale(52.00 124.00)"><ellipse cx="0" cy="0" rx="1" ry="1" fill="rgb(182,24,170)" fill-opacity="0.502"/></g>
<polygon points="424.21,104.18 416.41,48.73 479.79,39.82 487.59,95.27" fill="rgb(0,0,0)" fill-opacity="0.502"/>
<g transform="translate(56.00 592.00) rotate(286) scale(68.00 36.00)"><ellipse cx="0" cy="0" rx="1" ry="1" fill="rgb(164,22,153)" fill-opacity="0.502"/></g>
<g transform="translate(468.00 672.00) rotate(344) scale(32.00 88.00)"><ellipse cx="0" cy="0" rx="1" ry="1" fill="rgb(171,23,163)" fill-opacity="0.502"/></g>
<polygon points="481.10,56.27 565.03,-11.70 690.90,143.73 606.97,211.70" fill="rgb(10,0,23)" fill-opacity="0.502"/>
<g transform="translate(368.00 128.00) rotate(21) scale(56.00 64.00)"><ellipse cx="0" cy="0" rx="1" ry="1" fill="rgb(8,0,23)" fill-opacity="0.502"/></g>
<polygon points="131.18,570.20 96.67,502.49 160.82,469.80 195.33,537.51" fill="rgb(183,25,174)" fill-opacity="0.502"/>
<polygon points="313.13,645.36 234.64,577.13 302.87,498.64 381.36,566.87" fill="rgb(170,23,159)" fill-opacity="0.502"/>
<polygon points="378.93,432.74 284.96,398.54 289.07,387.26 383.04,421.46" fill="rgb(0,0,0)" fill-opacity="0.502"/>
<g transform="translate(664.00 480.00) rotate(94) scale(16.00 132.00)"><ellipse cx="0" cy="0" rx="1" ry="1" fill="rgb(0,0,19)" fill-opacity="0.502"/></g>
<polygon points="415.08,455.21 410.84,461.99 376.92,440.79 381.16,434.01" fill="rgb(0,0,0)" fill-opacity="0.502"/>
<polygon points="528.95,987.17 483.62,911.74 535.05,880.83 580.38,956.26" fill="rgb(44,2,56)" fill-opacity="0.502"/>
<polygon points="269.13,476.46 59.74,443.29 62.87,423.54 272.26,456.71" fill="rgb(6,0,43)" fill-opacity="0.502"/>
<circle cx="160.00" cy="372.00" r="68.00" fill="rgb(30,5,65)" fill-opacity="0.502"/>
<polygon points="433.74,443.97 264.03,274.26 326.26,212.03 495.97,381.74" fill="rgb(10,0,23)" fill-opacity="0.502"/>
<g transform="translate(372.00 832.00) rotate(297) scale(24.00 112.00)"><ellipse cx="0" cy="0" rx="1" ry="1" fill="rgb(42,3,60)" fill-opacity="0.502"/></g>
<polygon points="161.08,275.34 140.37,198.07 294.92,156.66 315.63,233.93" fill="rgb(22,3,63)" fill-opacity="0.502"/>
<polygon points="633.66,395.83 606.75,403.55 602.34,388.17 629.25,380.45" fill="rgb(0,0,0)" fill-opacity="0.502"/>
<circle cx="656.00" cy="744.00" r="36.00" fill="rgb(190,25,183)" fill-opacity="0.502"/>
<polygon points="42.84,606.00 79.58,648.27 13.16,706.00 -23.58,663.73" fill="rgb(153,22,145)" fill-opacity="0.502"/>
<polygon points="446.40,189.35 488.78,166.82 537.60,258.65 495.22,281.18" fill="rgb(22,2,55)" fill-opacity="0.502"/>
<g transform="translate(568.00 644.00) rotate(261) scale(132.00 88.00)"><ellipse cx="0" cy="0" rx="1" ry="1" fill="rgb(189,25,182)" fill-opacity="0.502"/></g>
<circle cx="152.00" cy="1020.00" r="56.00" fill="rgb(52,5,67)" fill-opacity="0.502"/>
<g transform="translate(324.00 0.00) rotate(288) scale(40.00 84.00)"><ellipse cx="0" cy="0" rx="1" ry="1" fill="rgb(21,3,63)" fill-opacity="0.502"/></g>
<g transform="translate(412.00 816.00) rotate(258) scale(120.00 12.00)"><ellipse cx="0" cy="0" rx="1" ry="1" fill="rgb(64,8,77)" fill-opacity="0.502"/></g>
<g transform="translate(24.00 836.00) rotate(246) scale(20.00 36.00)"><ellipse cx="0" cy="0" rx="1" ry="1" fill="rgb(95,16,124)" fill-opacity="0.502"/></g>
<polygon points="424.05,648.33 491.55,656.62 475.95,783.67 408.45,775.38" fill="rgb(174,23,165)" fill-opacity="0.502"/>
<polygon points="416.73,970.69 396.60,1000.54 267.27,913.31 287.40,883.46" fill="rgb(54,5,73)" fill-opacity="0.502"/>
<circle cx="60.00" cy="544.00" r="16.00" fill="rgb(199,26,193)" fill-opacity="0.502"/>
<g transform="translate(404.00 564.00) rotate(327) scale(12.00 52.00)"><ellipse cx="0" cy="0" rx="1" ry="1" fill="rgb(0,0,0)" fill-opacity="0.502"/></g>
<circle cx="480.00" cy="832.00" r="36.00" fill="rgb(62,7,88)" fill-opacity="0.502"/>
<g transform="translate(204.00 632.00) rotate(56) scale(36.00 96.00)"><ellipse cx="0" cy="0" rx="1" ry="1" fill="rgb(182,24,174)" fill-opacity="0.502"/></g>
<polygon points="2.41,570.05 117.77,582.17 113.59,621.95 -1.77,609.83" fill="rgb(138,19,127)" fill-opacity="0.502"/>
<polygon points="431.24,533.70 504.72,478.33 516.76,494.30 443.28,549.67" fill="rgb(0,0,10)" fill-opacity="0.502"/>
<polygon points="39.08,510.49 67.55,440.02 100.92,453.51 72.45,523.98" fill="rgb(13,1,56)" fill-opacity="0.502"/>
<circle cx="300.00" cy="332.00" r="44.00" fill="rgb(10,0,25)" fill-opacity="0.502"/>
<circle cx="604.00" cy="604.00" r="108.00" fill="rgb(184,25,176)" fill-opacity="0.502"/>
<polygon points="609.31,396.70 687.19,428.17 682.69,439.30 604.81,407.83" fill="rgb(178,37,212)" fill-opacity="0.502"/>
<circle cx="296.00" cy="756.00" r="28.00" fill="rgb(88,15,120)" fill-opacity="0.502"/>
<circle cx="132.00" cy="860.00" r="24.00" fill="rgb(91,15,119)" fill-opacity="0.502"/>
<polygon points="219.92,63.55 96.68,110.86 88.08,88.45 211.32,41.14" fill="rgb(52,8,77)" fill-opacity="0.502"/>
<polygon points="504.00,704.00 504.00,520.00 616.00,520.00 616.00,704.00" fill="rgb(189,26,183)" fill-opacity="0.502"/>
<polygon points="436.04,434.21 455.16,440.06 439.96,489.79 420.84,483.94" fill="rgb(4,0,18)" fill-opacity="0.502"/>
<polygon points="420.95,543.97 439.27,449.74 451.05,452.03 432.73,546.26" fill="rgb(38,3,55)" fill-opacity="0.502"/>
<circle cx="56.00" cy="60.00" r="16.00" fill="rgb(117,24,126)" fill-opacity="0.502"/>
<polygon points="330.00,146.97 449.98,149.06 446.00,377.03 326.02,374.94" fill="rgb(11,0,24)" fill-opacity="0.502"/>
<g transform="translate(344.00 696.00) rotate(294) scale(64.00 44.00)"><ellipse cx="0" cy="0" rx="1" ry="1" fill="rgb(148,22,140)" fill-opacity="0.502"/></g>
<circle cx="0.00" cy="780.00" r="32.00" fill="rgb(33,1,47)" fill-opacity="0.502"/>
<circle cx="464.00" cy="972.00" r="68.00" fill="rgb(55,6,72)" fill-opacity="0.502"/>
<polygon points="318.97,852.04 390.58,844.51 401.03,943.96 329.42,951.49" fill="rgb(73,11,96)" fill-opacity="0.502"/>
<polygon points="159.43,326.96 160.55,390.95 40.57,393.04 39.45,329.05" fill="rgb(45,7,72)" fill-opacity="0.502"/>
<g transform="translate(56.00 848.00) rotate(95) scale(24.00 76.00)"><ellipse cx="0" cy="0" rx="1" ry="1" fill="rgb(91,13,114)" fill-opacity="0.502"/></g>
<polygon points="114.17,556.98 123.55,534.89 189.83,563.02 180.45,585.11" fill="rgb(151,22,140)" fill-opacity="0.502"/>
<circle cx="688.00" cy="572.00" r="60.00" fill="rgb(175,23,164)" fill-opacity="0.502"/>
<g transform="translate(12.00 164.00) rotate(300) scale(56.00 60.00)"><ellipse cx="0" cy="0" rx="1" ry="1" fill="rgb(19,2,51)" fill-opacity="0.502"/></g>
<polygon points="435.55,515.54 428.49,505.83 496.45,456.46 503.51,466.17" fill="rgb(176,35,203)" fill-opacity="0.502"/>
<circle cx="644.00" cy="400.00" r="8.00" fill="rgb(0,0,0)" fill-opacity="0.502"/>
<circle cx="36.00" cy="724.00" r="16.00" fill="rgb(111,14,90)" fill-opacity="0.502"/>
<circle cx="24.00" cy="256.00" r="28.00" fill="rgb(12,0,40)" fill-opacity="0.502"/>
<circle cx="688.00" cy="452.00" r="24.00" fill="rgb(90,17,121)" fill-opacity="0.502"/>
<circle cx="8.00" cy="408.00" r="28.00" fill="rgb(21,3,63)" fill-opacity="0.502"/>
<polygon points="588.00,260.00 588.00,352.00 384.00,352.00 384.00,260.00" fill="rgb(13,0,28)" fill-opacity="0.502"/>
<circle cx="64.00" cy="976.00" r="28.00" fill="rgb(49,3,65)" fill-opacity="0.502"/>
<circle cx="212.00" cy="528.00" r="60.00" fill="rgb(179,24,171)" fill-opacity="0.502"/>
<polygon points="181.76,115.30 218.08,44.02 282.24,76.70 245.92,147.98" fill="rgb(25,4,64)" fill-opacity="0.502"/>
<g transform="translate(672.00 1000.00) rotate(286) scale(12.00 120.00)"><ellipse cx="0" cy="0" rx="1" ry="1" fill="rgb(49,4,64)" fill-opacity="0.502"/></g>
<g transform="translate(288.00 448.00) rotate(200) scale(36.00 8.00)"><ellipse cx="0" cy="0" rx="1" ry="1" fill="rgb(218,38,241)" fill-opacity="0.502"/></g>
<polygon points="260.00,196.00 188.00,196.00 188.00,172.00 260.00,172.00" fill="rgb(41,7,73)" fill-opacity="0.502"/>
<circle cx="556.00" cy="368.00" r="16.00" fill="rgb(186,34,213)" fill-opacity="0.502"/>
<g transform="translate(144.00 1020.00) rotate(290) scale(8.00 164.00)"><ellipse cx="0" cy="0" rx="1" ry="1" fill="rgb(40,1,55)" fill-opacity="0.502"/></g>
<circle cx="420.00" cy="84.00" r="20.00" fill="rgb(0,0,0)" fill-opacity="0.502"/>
<polygon points="383.43,475.92 379.19,482.71 304.57,436.08 308.81,429.29" fill="rgb(0,0,0)" fill-opacity="0.502"/>
<polygon points="110.07,518.36 106.32,494.65 137.93,489.64 141.68,513.35" fill="rgb(194,26,188)" fill-opacity="0.502"/>
<circle cx="560.00" cy="388.00" r="16.00" fill="rgb(0,0,11)" fill-opacity="0.502"/>
<circle cx="688.00" cy="348.00" r="48.00" fill="rgb(6,0,21)" fill-opacity="0.502"/>
<circle cx="44.00" cy="1004.00" r="16.00" fill="rgb(72,13,95)" fill-opacity="0.502"/>
<circle cx="584.00" cy="364.00" r="12.00" fill="rgb(208,41,239)" fill-opacity="0.502"/>
<polygon points="128.99,296.33 194.72,172.72 283.01,219.67 217.28,343.28" fill="rgb(21,3,62)" fill-opacity="0.502"/>
<circle cx="128.00" cy="732.00" r="40.00" fill="rgb(70,12,98)" fill-opacity="0.502"/>
<polygon points="278.97,777.06 276.87,817.01 161.03,810.94 163.13,770.99" fill="rgb(54,6,75)" fill-opacity="0.502"/>
<g transform="translate(400.00 784.00) rotate(109) scale(16.00 104.00)"><ellipse cx="0" cy="0" rx="1" ry="1" fill="rgb(80,13,112)" fill-opacity="0.502"/></g>
<polygon points="66.82,523.25 119.79,495.09 129.18,512.75 76.21,540.91" fill="rgb(196,27,187)" fill-opacity="0.502"/>
<g transform="translate(624.00 860.00) rotate(0) scale(144.00 24.00)"><ellipse cx="0" cy="0" rx="1" ry="1" fill="rgb(68,11,95)" fill-opacity="0.502"/></g>
<polygon points="334.62,395.04 355.20,382.68 361.38,392.96 340.80,405.32" fill="rgb(169,33,197)" fill-opacity="0.502"/>
<polygon points="116.00,839.99 149.31,771.68 232.00,812.01 198.69,880.32" fill="rgb(69,9,94)" fill-opacity="0.502"/>
<circle cx="252.00" cy="840.00" r="32.00" fill="rgb(78,13,104)" fill-opacity="0.502"/>
<polygon points="38.50,62.64 25.99,-16.38 65.50,-22.64 78.01,56.38" fill="rgb(145,29,161)" fill-opacity="0.502"/>
<polygon points="491.20,388.68 537.53,365.07 544.80,379.32 498.47,402.93" fill="rgb(193,38,225)" fill-opacity="0.502"/>
<polygon points="390.60,468.33 313.64,425.67 321.40,411.67 398.36,454.33" fill="rgb(168,34,194)" fill-opacity="0.502"/>
<circle cx="208.00" cy="964.00" r="48.00" fill="rgb(67,13,93)" fill-opacity="0.502"/>
<polygon points="465.12,543.73 314.16,445.69 322.88,432.27 473.84,530.31" fill="rgb(28,2,47)" fill-opacity="0.502"/>
<polygon points="180.37,556.21 240.75,608.70 227.63,623.79 167.25,571.30" fill="rgb(162,22,152)" fill-opacity="0.502"/>
<g transform="translate(148.00 436.00) rotate(235) scale(24.00 108.00)"><ellipse cx="0" cy="0" rx="1" ry="1" fill="rgb(21,3,59)" fill-opacity="0.502"/></g>
<polygon points="360.65,291.08 419.43,210.18 555.35,308.92 496.57,389.82" fill="rgb(11,0,25)" fill-opacity="0.502"/>
<polygon points="310.58,394.68 309.47,378.72 329.42,377.32 330.53,393.28" fill="rgb(202,39,234)" fill-opacity="0.502"/>
<polygon points="552.93,358.61 479.39,285.07 567.07,197.39 640.61,270.93" fill="rgb(13,0,29)" fill-opacity="0.502"/>
<circle cx="24.00" cy="84.00" r="24.00" fill="rgb(100,20,128)" fill-opacity="0.502"/>
<polygon points="229.33,416.26 182.05,453.20 174.67,443.74 221.95,406.80" fill="rgb(126,22,151)" fill-opacity="0.502"/>
<g transform="translate(688.00 348.00) rotate(204) scale(252.00 40.00)"><ellipse cx="0" cy="0" rx="1" ry="1" fill="rgb(13,0,29)" fill-opacity="0.502"/></g>
<circle cx="520.00" cy="164.00" r="20.00" fill="rgb(2,0,4)" fill-opacity="0.502"/>
<polygon points="209.91,140.70 292.06,109.16 302.09,135.30 219.94,166.84" fill="rgb(14,0,33)" fill-opacity="0.502"/>
<g transform="translate(4.00 104.00) rotate(82) scale(4.00 12.00)"><ellipse cx="0" cy="0" rx="1" ry="1" fill="rgb(17,0,17)" fill-opacity="0.502"/></g>
<polygon points="200.70,613.31 265.56,517.14 315.30,550.69 250.44,646.86" fill="rgb(178,23,170)" fill-opacity="0.502"/>
<circle cx="532.00" cy="848.00" r="36.00" fill="rgb(64,10,91)" fill-opacity="0.502"/>
<polygon points="67.54,718.47 87.50,812.38 44.46,821.53 24.50,727.62" fill="rgb(55,6,73)" fill-opacity="0.502"/>
<circle cx="472.00" cy="444.00" r="12.00" fill="rgb(158,32,189)" fill-opacity="0.502"/>
<circle cx="424.00" cy="876.00" r="48.00" fill="rgb(53,5,72)" fill-opacity="0.502"/>
<g transform="translate(52.00 1020.00) rotate(201) scale(376.00 20.00)"><ellipse cx="0" cy="0" rx="1" ry="1" fill="rgb(70,12,93)" fill-opacity="0.502"/></g>
<circle cx="416.00" cy="604.00" r="12.00" fill="rgb(10,0,25)" fill-opacity="0.502"/>
<g transform="translate(476.00 432.00) rotate(327) scale(96.00 4.00)"><ellipse cx="0" cy="0" rx="1" ry="1" fill="rgb(17,1,39)" fill-opacity="0.502"/></g>
<circle cx="580.00" cy="408.00" r="12.00" fill="rgb(219,40,243)" fill-opacity="0.502"/>
<g transform="translate(480.00 756.00) rotate(201) scale(72.00 36.00)"><ellipse cx="0" cy="0" rx="1" ry="1" fill="rgb(174,23,165)" fill-opacity="0.502"/></g>
<circle cx="436.00" cy="928.00" r="32.00" fill="rgb(62,8,81)" fill-opacity="0.502"/>
<polygon points="121.87,354.90 64.58,293.47 82.13,277.10 139.42,338.53" fill="rgb(44,8,70)" fill-opacity="0.502"/>
<g transform="translate(104.00 188.00) rotate(93) scale(28.00 28.00)"><ellipse cx="0" cy="0" rx="1" ry="1" fill="rgb(40,6,70)" fill-opacity="0.502"/></g>
<circle cx="116.00" cy="452.00" r="32.00" fill="rgb(18,2,55)" fill-opacity="0.502"/>
<g transform="translate(492.00 640.00) rotate(252) scale(100.00 20.00)"><ellipse cx="0" cy="0" rx="1" ry="1" fill="rgb(186,25,178)" fill-opacity="0.502"/></g>
<polygon points="268.65,668.97 353.29,552.47 395.35,583.03 310.71,699.53" fill="rgb(158,22,146)" fill-opacity="0.502"/>
<circle cx="28.00" cy="480.00" r="52.00" fill="rgb(23,3,64)" fill-opacity="0.502"/>
<g transform="translate(168.00 96.00) rotate(260) scale(4.00 72.00)"><ellipse cx="0" cy="0" rx="1" ry="1" fill="rgb(11,0,40)" fill-opacity="0.502"/></g>
<g transform="translate(48.00 852.00) rotate(90) scale(32.00 44.00)"><ellipse cx="0" cy="0" rx="1" ry="1" fill="rgb(87,12,111)" fill-opacity="0.502"/></g>
<circle cx="244.00" cy="536.00" r="56.00" fill="rgb(178,24,169)" fill-opacity="0.502"/>
<polygon points="42.14,720.01 30.63,708.90 77.86,659.99 89.37,671.10" fill="rgb(106,14,90)" fill-opacity="0.502"/>
<circle cx="136.00" cy="420.00" r="48.00" fill="rgb(30,5,67)" fill-opacity="0.502"/>
<circle cx="600.00" cy="796.00" r="32.00" fill="rgb(165,23,160)" fill-opacity="0.502"/>
<circle cx="348.00" cy="72.00" r="48.00" fill="rgb(17,1,37)" fill-opacity="0.502"/>
<polygon points="698.70,507.48 693.45,513.52 669.30,492.52 674.55,486.48" fill="rgb(0,0,7)" fill-opacity="0.502"/>
<polygon points="267.13,538.58 214.08,574.37 164.87,501.42 217.92,465.63" fill="rgb(185,25,178)" fill-opacity="0.502"/>
<circle cx="248.00" cy="352.00" r="28.00" fill="rgb(15,1,36)" fill-opacity="0.502"/>
<polygon points="688.00,104.00 640.00,104.00 640.00,84.00 688.00,84.00" fill="rgb(22,2,58)" fill-opacity="0.502"/>
<polygon points="510.21,237.22 578.16,234.85 581.79,338.78 513.84,341.15" fill="rgb(16,1,34)" fill-opacity="0.502"/>
<g transform="translate(264.00 768.00) rotate(281) scale(12.00 144.00)"><ellipse cx="0" cy="0" rx="1" ry="1" fill="rgb(63,7,90)" fill-opacity="0.502"/></g>
<g transform="translate(284.00 656.00) rotate(266) scale(52.00 52.00)"><ellipse cx="0" cy="0" rx="1" ry="1" fill="rgb(170,22,158)" fill-opacity="0.502"/></g>
<polygon points="569.18,694.13 518.31,775.54 470.82,745.87 521.69,664.46" fill="rgb(186,25,179)" fill-opacity="0.502"/>
<polygon points="331.21,574.99 351.01,594.79 288.79,657.01 268.99,637.21" fill="rgb(162,22,149)" fill-opacity="0.502"/>
<polygon points="266.17,227.68 219.39,380.69 165.83,364.32 212.61,211.31" fill="rgb(22,3,64)" fill-opacity="0.502"/>
<circle cx="380.00" cy="412.00" r="12.00" fill="rgb(152,31,179)" fill-opacity="0.502"/>
<polygon points="133.20,135.44 131.11,111.53 210.80,104.56 212.89,128.47" fill="rgb(48,9,75)" fill-opacity="0.502"/>
<polygon points="270.94,144.13 268.43,168.00 153.06,155.87 155.57,132.00" fill="rgb(11,0,29)" fill-opacity="0.502"/>
<circle cx="312.00" cy="220.00" r="20.00" fill="rgb(11,0,21)" fill-opacity="0.502"/>
<circle cx="424.00" cy="476.00" r="28.00" fill="rgb(61,10,80)" fill-opacity="0.502"/>
<g transform="translate(256.00 0.00) rotate(345) scale(208.00 24.00)"><ellipse cx="0" cy="0" rx="1" ry="1" fill="rgb(22,2,60)" fill-opacity="0.502"/></g>
<polygon points="500.61,439.43 508.37,453.42 459.39,480.57 451.63,466.58" fill="rgb(19,1,41)" fill-opacity="0.502"/>
<circle cx="392.00" cy="700.00" r="16.00" fill="rgb(90,11,72)" fill-opacity="0.502"/>
<g transform="translate(368.00 628.00) rotate(358) scale(16.00 84.00)"><ellipse cx="0" cy="0" rx="1" ry="1" fill="rgb(141,20,129)" fill-opacity="0.502"/></g>
<circle cx="528.00" cy="436.00" r="8.00" fill="rgb(0,0,0)" fill-opacity="0.502"/>
<polygon points="561.64,218.45 638.97,185.63 698.36,325.55 621.03,358.37" fill="rgb(10,0,22)" fill-opacity="0.502"/>
<polygon points="688.74,573.31 625.71,562.20 631.26,530.69 694.29,541.80" fill="rgb(172,23,164)" fill-opacity="0.502"/>
<polygon points="483.49,535.89 627.30,528.35 636.51,704.11 492.70,711.65" fill="rgb(188,25,181)" fill-opacity="0.502"/>
<polygon points="237.68,712.53 234.33,616.59 266.32,615.47 269.67,711.41" fill="rgb(179,24,170)" fill-opacity="0.502"/>
<circle cx="280.00" cy="536.00" r="40.00" fill="rgb(172,23,163)" fill-opacity="0.502"/>
<polygon points="348.76,695.71 373.16,750.53 351.24,760.29 326.84,705.47" fill="rgb(151,22,141)" fill-opacity="0.502"/>
<circle cx="260.00" cy="400.00" r="8.00" fill="rgb(0,0,0)" fill-opacity="0.502"/>
<circle cx="72.00" cy="428.00" r="36.00" fill="rgb(21,3,63)" fill-opacity="0.502"/>
<polygon points="700.42,539.64 725.80,551.47 639.58,736.36 614.20,724.53" fill="rgb(178,24,169)" fill-opacity="0.502"/>
<polygon points="41.78,461.98 38.02,497.78 2.22,494.02 5.98,458.22" fill="rgb(34,6,67)" fill-opacity="0.502"/>
<circle cx="568.00" cy="836.00" r="28.00" fill="rgb(73,14,103)" fill-opacity="0.502"/>
<polygon points="612.66,36.76 678.64,20.31 687.34,55.24 621.36,71.69" fill="rgb(11,0,23)" fill-opacity="0.502"/>
<g transform="translate(0.00 208.00) rotate(106) scale(20.00 120.00)"><ellipse cx="0" cy="0" rx="1" ry="1" fill="rgb(20,3,58)" fill-opacity="0.502"/></g>
<circle cx="4.00" cy="696.00" r="16.00" fill="rgb(155,24,145)" fill-opacity="0.502"/>
<circle cx="200.00" cy="728.00" r="20.00" fill="rgb(85,15,113)" fill-opacity="0.502"/>
<circle cx="200.00" cy="656.00" r="48.00" fill="rgb(184,24,177)" fill-opacity="0.502"/>
<polygon points="148.71,512.69 147.31,472.71 187.29,471.31 188.69,511.29" fill="rgb(189,26,184)" fill-opacity="0.502"/>
<polygon points="251.76,385.27 310.85,374.85 312.24,382.73 253.15,393.15" fill="rgb(214,35,233)" fill-opacity="0.502"/>
<g transform="translate(540.00 52.00) rotate(346) scale(44.00 176.00)"><ellipse cx="0" cy="0" rx="1" ry="1" fill="rgb(10,0,23)" fill-opacity="0.502"/></g>
<g transform="translate(556.00 368.00) rotate(7) scale(24.00 8.00)"><ellipse cx="0" cy="0" rx="1" ry="1" fill="rgb(172,31,198)" fill-opacity="0.502"/></g>
<circle cx="552.00" cy="432.00" r="12.00" fill="rgb(0,0,16)" fill-opacity="0.502"/>
<g transform="translate(492.00 344.00) rotate(63) scale(40.00 124.00)"><ellipse cx="0" cy="0" rx="1" ry="1" fill="rgb(12,0,28)" fill-opacity="0.502"/></g>
<circle cx="124.00" cy="628.00" r="20.00" fill="rgb(133,19,113)" fill-opacity="0.502"/>
<polygon points="388.54,475.23 392.25,463.82 407.46,468.77 403.75,480.18" fill="rgb(159,33,184)" fill-opacity="0.502"/>
<g transform="translate(28.00 720.00) rotate(107) scale(16.00 12.00)"><ellipse cx="0" cy="0" rx="1" ry="1" fill="rgb(114,17,110)" fill-opacity="0.502"/></g>
<polygon points="228.66,836.73 124.85,866.50 119.34,847.27 223.15,817.50" fill="rgb(83,11,104)" fill-opacity="0.502"/>
<polygon points="339.03,92.93 329.65,115.02 244.97,79.07 254.35,56.98" fill="rgb(21,3,61)" fill-opacity="0.502"/>
<polygon points="365.49,806.49 376.20,794.60 450.51,861.51 439.80,873.40" fill="rgb(41,4,64)" fill-opacity="0.502"/>
<g transform="translate(196.00 408.00) rotate(191) scale(16.00 32.00)"><ellipse cx="0" cy="0" rx="1" ry="1" fill="rgb(33,4,68)" fill-opacity="0.502"/></g>
<polygon points="298.88,1049.60 112.47,989.03 121.12,962.40 307.53,1022.97" fill="rgb(61,8,79)" fill-opacity="0.502"/>
<polygon points="-14.85,378.39 -16.94,354.49 38.85,349.61 40.94,373.51" fill="rgb(63,6,88)" fill-opacity="0.502"/>
<g transform="translate(208.00 84.00) rotate(352) scale(96.00 4.00)"><ellipse cx="0" cy="0" rx="1" ry="1" fill="rgb(16,1,50)" fill-opacity="0.502"/></g>
<circle cx="616.00" cy="368.00" r="12.00" fill="rgb(181,36,208)" fill-opacity="0.502"/>
<polygon points="52.00,173.17 59.51,220.58 20.00,226.83 12.49,179.42" fill="rgb(25,4,65)" fill-opacity="0.502"/>
<circle cx="480.00" cy="440.00" r="12.00" fill="rgb(161,31,191)" fill-opacity="0.502"/>
<polygon points="725.91,951.66 715.11,998.43 602.09,972.34 612.89,925.57" fill="rgb(65,9,81)" fill-opacity="0.502"/>
<polygon points="680.20,419.11 691.90,421.81 683.80,456.89 672.10,454.19" fill="rgb(44,6,73)" fill-opacity="0.502"/>
<circle cx="584.00" cy="692.00" r="52.00" fill="rgb(188,25,181)" fill-opacity="0.502"/>
<polygon points="550.38,999.71 533.80,1010.89 437.62,868.29 454.20,857.11" fill="rgb(47,4,61)" fill-opacity="0.502"/>
<polygon points="446.65,45.84 464.18,9.89 489.35,22.16 471.82,58.11" fill="rgb(0,0,0)" fill-opacity="0.502"/>
<g transform="translate(656.00 912.00) rotate(219) scale(120.00 48.00)"><ellipse cx="0" cy="0" rx="1" ry="1" fill="rgb(68,12,93)" fill-opacity="0.502"/></g>
<polygon points="190.14,686.54 114.87,697.11 109.86,661.46 185.13,650.89" fill="rgb(179,24,170)" fill-opacity="0.502"/>
<polygon points="165.37,139.62 70.82,107.07 78.63,84.38 173.18,116.93" fill="rgb(35,6,68)" fill-opacity="0.502"/>
<circle cx="404.00" cy="668.00" r="12.00" fill="rgb(85,10,70)" fill-opacity="0.502"/>
<polygon points="357.14,566.78 320.20,668.27 278.86,653.22 315.80,551.73" fill="rgb(163,22,151)" fill-opacity="0.502"/>
<polygon points="388.63,528.83 368.83,548.63 343.37,523.17 363.17,503.37" fill="rgb(0,0,1)" fill-opacity="0.502"/>
<polygon points="159.55,608.19 203.26,556.10 212.45,563.81 168.74,615.90" fill="rgb(147,21,132)" fill-opacity="0.502"/>
<polygon points="586.88,371.46 591.56,356.16 645.12,372.54 640.44,387.84" fill="rgb(160,32,187)" fill-opacity="0.502"/>
<g transform="translate(440.00 480.00) rotate(97) scale(84.00 4.00)"><ellipse cx="0" cy="0" rx="1" ry="1" fill="rgb(16,0,30)" fill-opacity="0.502"/></g>
<polygon points="301.58,456.11 309.98,499.31 286.42,503.89 278.02,460.69" fill="rgb(16,1,39)" fill-opacity="0.502"/>
<circle cx="596.00" cy="408.00" r="12.00" fill="rgb(180,35,206)" fill-opacity="0.502"/>
<circle cx="388.00" cy="760.00" r="12.00" fill="rgb(84,11,76)" fill-opacity="0.502"/>
<circle cx="604.00" cy="388.00" r="12.00" fill="rgb(0,0,13)" fill-opacity="0.502"/>
<polygon points="614.72,1036.91 524.16,958.18 537.28,943.09 627.84,1021.82" fill="rgb(33,1,41)" fill-opacity="0.502"/>
<circle cx="132.00" cy="760.00" r="52.00" fill="rgb(67,9,93)" fill-opacity="0.502"/>
<circle cx="44.00" cy="296.00" r="40.00" fill="rgb(27,4,66)" fill-opacity="0.502"/>
<polygon points="629.71,341.20 689.46,364.13 682.29,382.80 622.54,359.87" fill="rgb(12,0,26)" fill-opacity="0.502"/>
<polygon points="63.21,33.38 39.66,37.96 32.79,2.62 56.34,-1.96" fill="rgb(157,29,180)" fill-opacity="0.502"/>
<polygon points="287.19,404.48 288.44,416.41 220.81,423.52 219.56,411.59" fill="rgb(198,33,214)" fill-opacity="0.502"/>
<polygon points="594.53,787.34 582.49,771.36 713.47,672.66 725.51,688.64" fill="rgb(187,25,180)" fill-opacity="0.502"/>
<polygon points="80.77,698.64 116.64,701.77 107.23,809.36 71.36,806.23" fill="rgb(64,9,89)" fill-opacity="0.502"/>
<polygon points="638.60,192.20 614.61,191.78 617.40,31.80 641.39,32.22" fill="rgb(12,0,26)" fill-opacity="0.502"/>
<circle cx="340.00" cy="872.00" r="32.00" fill="rgb(72,10,98)" fill-opacity="0.502"/>
<circle cx="92.00" cy="0.00" r="24.00" fill="rgb(26,0,25)" fill-opacity="0.502"/>
<g transform="translate(64.00 556.00) rotate(272) scale(20.00 28.00)"><ellipse cx="0" cy="0" rx="1" ry="1" fill="rgb(177,23,167)" fill-opacity="0.502"/></g>
<polygon points="406.11,1028.04 303.39,1011.77 305.89,995.96 408.61,1012.23" fill="rgb(71,15,97)" fill-opacity="0.502"/>
<polygon points="25.88,578.32 44.61,557.51 98.12,605.68 79.39,626.49" fill="rgb(156,22,146)" fill-opacity="0.502"/>
<g transform="translate(688.00 472.00) rotate(65) scale(12.00 8.00)"><ellipse cx="0" cy="0" rx="1" ry="1" fill="rgb(133,26,163)" fill-opacity="0.502"/></g>
<polygon points="491.15,497.20 605.72,479.05 608.85,498.80 494.28,516.95" fill="rgb(12,0,31)" fill-opacity="0.502"/>
<g transform="translate(640.00 340.00) rotate(84) scale(16.00 48.00)"><ellipse cx="0" cy="0" rx="1" ry="1" fill="rgb(11,0,26)" fill-opacity="0.502"/></g>
</g>
</svg>