<?xml version="1.0" standalone="no"?>
<svg xmlns="http://www.w3.org/2000/svg" width="692" height="1024" viewBox="0 0 692 1024" style="overflow:hidden">
<defs>
<clipPath id="c"><rect x="0" y="0" width="692" height="1024"/></clipPath>
</defs>
<rect width="692" height="1024" fill="rgb(72,9,87)"/>
<g clip-path="url(#c)">
<circle cx="412.00" cy="80.00" r="324.00" fill="rgb(0,0,0)" fill-opacity="0.502"/>
<g transform="translate(596.00 672.00) rotate(169) scale(184.00 168.00)"><ellipse cx="0" cy="0" rx="1" ry="1" fill="rgb(255,38,253)" fill-opacity="0.502"/></g>
<g transform="translate(220.00 612.00) rotate(287) scale(132.00 196.00)"><ellipse cx="0" cy="0" rx="1" ry="1" fill="rgb(239,33,211)" fill-opacity="0.502"/></g>
<circle cx="540.00" cy="136.00" r="232.00" fill="rgb(0,0,11)" fill-opacity="0.502"/>
<circle cx="68.00" cy="360.00" r="148.00" fill="rgb(0,0,45)" fill-opacity="0.502"/>
<circle cx="28.00" cy="184.00" r="88.00" fill="rgb(0,0,36)" fill-opacity="0.502"/>
<g transform="translate(0.00 656.00) rotate(117) scale(128.00 68.00)"><ellipse cx="0" cy="0" rx="1" ry="1" fill="rgb(183,26,158)" fill-opacity="0.502"/></g>
<circle cx="656.00" cy="696.00" r="152.00" fill="rgb(202,25,181)" fill-opacity="0.502"/>
<circle cx="492.00" cy="972.00" r="172.00" fill="rgb(43,6,70)" fill-opacity="0.502"/>
<circle cx="320.00" cy="388.00" r="16.00" fill="rgb(195,36,228)" fill-opacity="0.502"/>
<circle cx="396.00" cy="720.00" r="84.00" fill="rgb(148,20,131)" fill-opacity="0.502"/>
<g transform="translate(16.00 0.00) rotate(351) scale(56.00 96.00)"><ellipse cx="0" cy="0" rx="1" ry="1" fill="rgb(175,38,206)" fill-opacity="0.502"/></g>
<circle cx="212.00" cy="192.00" r="192.00" fill="rgb(12,1,59)" fill-opacity="0.502"/>
<circle cx="432.00" cy="364.00" r="64.00" fill="rgb(0,0,4)" fill-opacity="0.502"/>
<g transform="translate(356.00 292.00) rotate(239) scale(76.00 108.00)"><ellipse cx="0" cy="0" rx="1" ry="1" fill="rgb(1,0,9)" fill-opacity="0.502"/></g>
<circle cx="408.00" cy="560.00" r="36.00" fill="rgb(0,0,8)" fill-opacity="0.502"/>
<polygon points="582.69,346.63 624.69,419.37 517.31,481.37 475.31,408.63" fill="rgb(127,24,156)" fill-opacity="0.502"/>
<g transform="translate(328.00 472.00) rotate(120) scale(8.00 84.00)"><ellipse cx="0" cy="0" rx="1" ry="1" fill="rgb(214,42,241)" fill-opacity="0.502"/></g>
<circle cx="440.00" cy="444.00" r="20.00" fill="rgb(0,0,0)" fill-opacity="0.502"/>
<circle cx="200.00" cy="560.00" r="100.00" fill="rgb(184,24,175)" fill-opacity="0.502"/>
<circle cx="172.00" cy="800.00" r="100.00" fill="rgb(61,9,98)" fill-opacity="0.502"/>
<g transform="translate(648.00 288.00) rotate(54) scale(136.00 64.00)"><ellipse cx="0" cy="0" rx="1" ry="1" fill="rgb(0,0,15)" fill-opacity="0.502"/></g>
<circle cx="452.00" cy="744.00" r="48.00" fill="rgb(193,25,177)" fill-opacity="0.502"/>
<circle cx="132.00" cy="592.00" r="40.00" fill="rgb(77,12,79)" fill-opacity="0.502"/>
<g transform="translate(192.00 124.00) rotate(210) scale(148.00 504.00)"><ellipse cx="0" cy="0" rx="1" ry="1" fill="rgb(26,4,64)" fill-opacity="0.502"/></g>
<circle cx="16.00" cy="768.00" r="40.00" fill="rgb(21,0,41)" fill-opacity="0.502"/>
<circle cx="476.00" cy="84.00" r="84.00" fill="rgb(0,0,5)" fill-opacity="0.502"/>
<polygon points="249.41,726.05 397.78,774.26 370.59,857.95 222.22,809.74" fill="rgb(53,7,87)" fill-opacity="0.502"/>
<polygon points="104.32,692.37 250.43,734.27 231.68,799.63 85.57,757.73" fill="rgb(63,9,91)" fill-opacity="0.502"/>
<g transform="translate(404.00 620.00) rotate(357) scale(20.00 80.00)"><ellipse cx="0" cy="0" rx="1" ry="1" fill="rgb(48,5,40)" fill-opacity="0.502"/></g>
<g transform="translate(96.00 624.00) rotate(204) scale(40.00 84.00)"><ellipse cx="0" cy="0" rx="1" ry="1" fill="rgb(125,18,113)" fill-opacity="0.502"/></g>
<g transform="translate(508.00 592.00) rotate(29) scale(48.00 84.00)"><ellipse cx="0" cy="0" rx="1" ry="1" fill="rgb(203,26,183)" fill-opacity="0.502"/></g>
<g transform="translate(576.00 1020.00) rotate(141) scale(52.00 168.00)"><ellipse cx="0" cy="0" rx="1" ry="1" fill="rgb(35,1,48)" fill-opacity="0.502"/></g>
<circle cx="428.00" cy="248.00" r="156.00" fill="rgb(9,0,28)" fill-opacity="0.502"/>
<circle cx="688.00" cy="28.00" r="88.00" fill="rgb(15,1,55)" fill-opacity="0.502"/>
<circle cx="196.00" cy="656.00" r="60.00" fill="rgb(198,26,189)" fill-opacity="0.502"/>
<circle cx="560.00" cy="708.00" r="112.00" fill="rgb(187,25,177)" fill-opacity="0.502"/>
<g transform="translate(308.00 412.00) rotate(89) scale(36.00 88.00)"><ellipse cx="0" cy="0" rx="1" ry="1" fill="rgb(123,22,150)" fill-opacity="0.502"/></g>
<circle cx="172.00" cy="332.00" r="88.00" fill="rgb(27,4,64)" fill-opacity="0.502"/>
<circle cx="596.00" cy="484.00" r="28.00" fill="rgb(0,0,5)" fill-opacity="0.502"/>
<circle cx="68.00" cy="888.00" r="72.00" fill="rgb(85,14,116)" fill-opacity="0.502"/>
<g transform="translate(248.00 968.00) rotate(261) scale(128.00 168.00)"><ellipse cx="0" cy="0" rx="1" ry="1" fill="rgb(65,11,92)" fill-opacity="0.502"/></g>
<circle cx="252.00" cy="568.00" r="84.00" fill="rgb(180,24,168)" fill-opacity="0.502"/>
<polygon points="327.30,502.41 313.04,509.67 296.70,477.59 310.96,470.33" fill="rgb(0,0,0)" fill-opacity="0.502"/>
<circle cx="76.00" cy="360.00" r="68.00" fill="rgb(47,8,74)" fill-opacity="0.502"/>
<polygon points="2.00,670.00 2.00,542.00 126.00,542.00 126.00,670.00" fill="rgb(153,21,141)" fill-opacity="0.502"/>
<g transform="translate(612.00 892.00) rotate(316) scale(56.00 84.00)"><ellipse cx="0" cy="0" rx="1" ry="1" fill="rgb(73,15,103)" fill-opacity="0.502"/></g>
<g transform="translate(96.00 1020.00) rotate(215) scale(148.00 68.00)"><ellipse cx="0" cy="0" rx="1" ry="1" fill="rgb(54,8,76)" fill-opacity="0.502"/></g>
<g transform="translate(492.00 212.00) rotate(214) scale(44.00 32.00)"><ellipse cx="0" cy="0" rx="1" ry="1" fill="rgb(25,2,69)" fill-opacity="0.502"/></g>
<polygon points="64.33,183.91 147.16,6.28 219.67,40.09 136.84,217.72" fill="rgb(38,6,72)" fill-opacity="0.502"/>
<polygon points="556.99,445.13 688.27,458.93 687.01,470.87 555.73,457.07" fill="rgb(222,43,254)" fill-opacity="0.502"/>
<g transform="translate(688.00 308.00) rotate(158) scale(72.00 100.00)"><ellipse cx="0" cy="0" rx="1" ry="1" fill="rgb(7,0,25)" fill-opacity="0.502"/></g>
<polygon points="382.33,553.70 539.14,473.79 553.67,502.30 396.86,582.21" fill="rgb(0,0,0)" fill-opacity="0.502"/>
<circle cx="528.00" cy="596.00" r="80.00" fill="rgb(188,25,180)" fill-opacity="0.502"/>
<polygon points="400.34,577.08 383.25,772.33 275.66,762.92 292.75,567.67" fill="rgb(152,22,141)" fill-opacity="0.502"/>
<g transform="translate(688.00 836.00) rotate(101) scale(16.00 44.00)"><ellipse cx="0" cy="0" rx="1" ry="1" fill="rgb(182,29,180)" fill-opacity="0.502"/></g>
<g transform="translate(528.00 852.00) rotate(239) scale(48.00 32.00)"><ellipse cx="0" cy="0" rx="1" ry="1" fill="rgb(72,12,102)" fill-opacity="0.502"/></g>
<g transform="translate(536.00 388.00) rotate(98) scale(8.00 136.00)"><ellipse cx="0" cy="0" rx="1" ry="1" fill="rgb(18,1,37)" fill-opacity="0.502"/></g>
<circle cx="332.00" cy="108.00" r="60.00" fill="rgb(13,0,32)" fill-opacity="0.502"/>
<circle cx="144.00" cy="516.00" r="36.00" fill="rgb(196,26,186)" fill-opacity="0.502"/>
<g transform="translate(372.00 532.00) rotate(313) scale(16.00 88.00)"><ellipse cx="0" cy="0" rx="1" ry="1" fill="rgb(0,0,10)" fill-opacity="0.502"/></g>
<circle cx="136.00" cy="900.00" r="64.00" fill="rgb(83,12,106)" fill-opacity="0.502"/>
<g transform="translate(124.00 612.00) rotate(124) scale(48.00 16.00)"><ellipse cx="0" cy="0" rx="1" ry="1" fill="rgb(77,11,86)" fill-opacity="0.502"/></g>
<polygon points="357.57,256.06 307.84,215.78 466.43,19.94 516.16,60.22" fill="rgb(5,0,9)" fill-opacity="0.502"/>
<circle cx="488.00" cy="456.00" r="36.00" fill="rgb(110,20,136)" fill-opacity="0.502"/>
<polygon points="401.44,436.07 393.44,449.93 334.56,415.93 342.56,402.07" fill="rgb(0,0,0)" fill-opacity="0.502"/>
<polygon points="281.20,457.14 297.20,484.86 286.80,490.86 270.80,463.14" fill="rgb(0,0,0)" fill-opacity="0.502"/>
<circle cx="592.00" cy="616.00" r="108.00" fill="rgb(188,25,180)" fill-opacity="0.502"/>
<g transform="translate(392.00 392.00) rotate(55) scale(116.00 4.00)"><ellipse cx="0" cy="0" rx="1" ry="1" fill="rgb(0,0,13)" fill-opacity="0.502"/></g>
<polygon points="320.82,723.18 123.29,691.89 135.18,616.82 332.71,648.11" fill="rgb(182,24,171)" fill-opacity="0.502"/>
<circle cx="556.00" cy="496.00" r="20.00" fill="rgb(0,0,0)" fill-opacity="0.502"/>
<g transform="translate(604.00 144.00) rotate(247) scale(308.00 72.00)"><ellipse cx="0" cy="0" rx="1" ry="1" fill="rgb(10,0,27)" fill-opacity="0.502"/></g>
<circle cx="28.00" cy="468.00" r="68.00" fill="rgb(16,2,60)" fill-opacity="0.502"/>
<polygon points="612.88,435.84 608.00,446.80 575.12,432.16 580.00,421.20" fill="rgb(0,0,6)" fill-opacity="0.502"/>
<g transform="translate(112.00 516.00) rotate(152) scale(104.00 16.00)"><ellipse cx="0" cy="0" rx="1" ry="1" fill="rgb(198,27,191)" fill-opacity="0.502"/></g>
<circle cx="388.00" cy="912.00" r="128.00" fill="rgb(58,7,81)" fill-opacity="0.502"/>
<polygon points="433.27,550.44 421.01,560.72 374.73,505.56 386.99,495.28" fill="rgb(150,29,170)" fill-opacity="0.502"/>
<circle cx="56.00" cy="16.00" r="24.00" fill="rgb(157,30,176)" fill-opacity="0.502"/>
<circle cx="48.00" cy="604.00" r="20.00" fill="rgb(128,18,118)" fill-opacity="0.502"/>
<circle cx="216.00" cy="428.00" r="16.00" fill="rgb(154,27,184)" fill-opacity="0.502"/>
<g transform="translate(688.00 212.00) rotate(84) scale(72.00 28.00)"><ellipse cx="0" cy="0" rx="1" ry="1" fill="rgb(22,2,54)" fill-opacity="0.502"/></g>
<polygon points="511.93,783.92 441.25,797.66 416.07,668.08 486.75,654.34" fill="rgb(175,23,166)" fill-opacity="0.502"/>
<polygon points="183.48,435.46 239.06,428.63 240.52,440.54 184.94,447.37" fill="rgb(214,38,238)" fill-opacity="0.502"/>
<polygon points="468.45,811.44 630.43,837.10 623.55,880.56 461.57,854.90" fill="rgb(70,12,98)" fill-opacity="0.502"/>
<polygon points="89.12,515.95 35.66,488.71 82.88,396.05 136.34,423.29" fill="rgb(16,2,56)" fill-opacity="0.502"/>
<polygon points="548.00,412.00 664.00,412.00 664.00,424.00 548.00,424.00" fill="rgb(186,36,214)" fill-opacity="0.502"/>
<polygon points="607.11,483.53 686.80,476.56 688.89,500.47 609.20,507.44" fill="rgb(0,0,0)" fill-opacity="0.502"/>
<g transform="translate(576.00 432.00) rotate(165) scale(96.00 8.00)"><ellipse cx="0" cy="0" rx="1" ry="1" fill="rgb(9,0,28)" fill-opacity="0.502"/></g>
<circle cx="688.00" cy="576.00" r="60.00" fill="rgb(175,23,164)" fill-opacity="0.502"/>
<circle cx="224.00" cy="544.00" r="72.00" fill="rgb(178,23,169)" fill-opacity="0.502"/>
<circle cx="8.00" cy="888.00" r="72.00" fill="rgb(82,13,109)" fill-opacity="0.502"/>
<polygon points="617.77,370.94 632.39,357.30 714.23,445.06 699.61,458.70" fill="rgb(99,19,132)" fill-opacity="0.502"/>
<polygon points="431.82,494.32 428.19,390.38 448.18,389.68 451.81,493.62" fill="rgb(2,0,17)" fill-opacity="0.502"/>
<circle cx="148.00" cy="228.00" r="84.00" fill="rgb(28,4,66)" fill-opacity="0.502"/>
<polygon points="679.84,847.58 504.46,807.09 516.16,756.42 691.54,796.91" fill="rgb(166,23,157)" fill-opacity="0.502"/>
<circle cx="288.00" cy="180.00" r="32.00" fill="rgb(25,3,66)" fill-opacity="0.502"/>
<circle cx="412.00" cy="320.00" r="88.00" fill="rgb(10,0,23)" fill-opacity="0.502"/>
<polygon points="507.97,383.79 601.12,360.57 604.03,372.21 510.88,395.43" fill="rgb(227,43,255)" fill-opacity="0.502"/>
<polygon points="96.26,402.20 195.72,309.44 255.74,373.80 156.28,466.56" fill="rgb(24,3,63)" fill-opacity="0.502"/>
<g transform="translate(348.00 0.00) rotate(157) scale(128.00 32.00)"><ellipse cx="0" cy="0" rx="1" ry="1" fill="rgb(16,1,59)" fill-opacity="0.502"/></g>
<circle cx="356.00" cy="900.00" r="44.00" fill="rgb(75,13,98)" fill-opacity="0.502"/>
<g transform="translate(0.00 656.00) rotate(340) scale(24.00 96.00)"><ellipse cx="0" cy="0" rx="1" ry="1" fill="rgb(147,22,138)" fill-opacity="0.502"/></g>
<polygon points="325.25,936.41 360.75,1012.54 302.75,1039.59 267.25,963.46" fill="rgb(73,15,97)" fill-opacity="0.502"/>
<polygon points="67.61,728.84 79.50,803.90 8.39,815.16 -3.50,740.10" fill="rgb(45,4,66)" fill-opacity="0.502"/>
<g transform="translate(284.00 388.00) rotate(171) scale(44.00 8.00)"><ellipse cx="0" cy="0" rx="1" ry="1" fill="rgb(197,33,219)" fill-opacity="0.502"/></g>
<circle cx="548.00" cy="460.00" r="12.00" fill="rgb(234,39,254)" fill-opacity="0.502"/>
<polygon points="432.43,515.46 428.43,508.54 511.57,460.54 515.57,467.46" fill="rgb(188,35,214)" fill-opacity="0.502"/>
<polygon points="688.00,1020.00 536.00,1020.00 536.00,1000.00 688.00,1000.00" fill="rgb(32,1,43)" fill-opacity="0.502"/>
<polygon points="624.00,608.00 552.00,608.00 552.00,512.00 624.00,512.00" fill="rgb(191,25,182)" fill-opacity="0.502"/>
<polygon points="145.31,930.01 116.57,991.64 18.69,945.99 47.43,884.36" fill="rgb(68,13,92)" fill-opacity="0.502"/>
<g transform="translate(632.00 908.00) rotate(271) scale(68.00 64.00)"><ellipse cx="0" cy="0" rx="1" ry="1" fill="rgb(67,11,91)" fill-opacity="0.502"/></g>
<g transform="translate(248.00 152.00) rotate(273) scale(12.00 120.00)"><ellipse cx="0" cy="0" rx="1" ry="1" fill="rgb(11,0,29)" fill-opacity="0.502"/></g>
<polygon points="266.87,75.50 326.13,84.89 321.13,116.50 261.87,107.11" fill="rgb(22,3,70)" fill-opacity="0.502"/>
<g transform="translate(124.00 672.00) rotate(238) scale(12.00 56.00)"><ellipse cx="0" cy="0" rx="1" ry="1" fill="rgb(183,25,176)" fill-opacity="0.502"/></g>
<polygon points="428.02,414.69 480.45,377.99 507.98,417.31 455.55,454.01" fill="rgb(16,1,36)" fill-opacity="0.502"/>
<circle cx="172.00" cy="588.00" r="20.00" fill="rgb(126,19,120)" fill-opacity="0.502"/>
<polygon points="392.00,604.03 405.15,579.31 444.00,599.97 430.85,624.69" fill="rgb(18,1,20)" fill-opacity="0.502"/>
<polygon points="347.89,398.42 343.31,421.98 300.11,413.58 304.69,390.02" fill="rgb(26,3,43)" fill-opacity="0.502"/>
<polygon points="580.13,212.12 587.66,355.92 435.87,363.88 428.34,220.08" fill="rgb(14,0,32)" fill-opacity="0.502"/>
<circle cx="16.00" cy="148.00" r="40.00" fill="rgb(11,0,38)" fill-opacity="0.502"/>
<circle cx="612.00" cy="376.00" r="12.00" fill="rgb(205,42,240)" fill-opacity="0.502"/>
<g transform="translate(436.00 528.00) rotate(95) scale(48.00 8.00)"><ellipse cx="0" cy="0" rx="1" ry="1" fill="rgb(17,0,33)" fill-opacity="0.502"/></g>
<circle cx="284.00" cy="796.00" r="52.00" fill="rgb(64,9,89)" fill-opacity="0.502"/>
<g transform="translate(636.00 420.00) rotate(289) scale(8.00 48.00)"><ellipse cx="0" cy="0" rx="1" ry="1" fill="rgb(176,36,208)" fill-opacity="0.502"/></g>
<g transform="translate(240.00 360.00) rotate(106) scale(32.00 24.00)"><ellipse cx="0" cy="0" rx="1" ry="1" fill="rgb(9,0,30)" fill-opacity="0.502"/></g>
<circle cx="152.00" cy="548.00" r="28.00" fill="rgb(156,22,148)" fill-opacity="0.502"/>
<g transform="translate(364.00 632.00) rotate(315) scale(48.00 36.00)"><ellipse cx="0" cy="0" rx="1" ry="1" fill="rgb(147,21,133)" fill-opacity="0.502"/></g>
<polygon points="-7.01,267.36 26.91,213.08 71.01,240.64 37.09,294.92" fill="rgb(17,1,43)" fill-opacity="0.502"/>
<circle cx="28.00" cy="656.00" r="40.00" fill="rgb(155,22,144)" fill-opacity="0.502"/>
<circle cx="652.00" cy="304.00" r="68.00" fill="rgb(11,0,24)" fill-opacity="0.502"/>
<circle cx="396.00" cy="692.00" r="28.00" fill="rgb(107,14,87)" fill-opacity="0.502"/>
<polygon points="84.67,-3.90 111.14,5.21 103.33,27.90 76.86,18.79" fill="rgb(8,0,14)" fill-opacity="0.502"/>
<circle cx="4.00" cy="460.00" r="80.00" fill="rgb(28,4,66)" fill-opacity="0.502"/>
<g transform="translate(280.00 908.00) rotate(292) scale(24.00 116.00)"><ellipse cx="0" cy="0" rx="1" ry="1" fill="rgb(56,6,75)" fill-opacity="0.502"/></g>
<polygon points="548.46,266.96 522.57,285.77 475.54,221.04 501.43,202.23" fill="rgb(20,2,48)" fill-opacity="0.502"/>
<polygon points="480.01,42.96 487.25,94.46 411.99,105.04 404.75,53.54" fill="rgb(0,0,0)" fill-opacity="0.502"/>
<circle cx="132.00" cy="880.00" r="24.00" fill="rgb(92,15,119)" fill-opacity="0.502"/>
<circle cx="428.00" cy="372.00" r="52.00" fill="rgb(8,0,21)" fill-opacity="0.502"/>
<g transform="translate(492.00 424.00) rotate(337) scale(112.00 8.00)"><ellipse cx="0" cy="0" rx="1" ry="1" fill="rgb(17,1,35)" fill-opacity="0.502"/></g>
<polygon points="707.72,479.09 693.59,486.61 652.28,408.91 666.41,401.39" fill="rgb(51,9,79)" fill-opacity="0.502"/>
<circle cx="460.00" cy="836.00" r="44.00" fill="rgb(66,8,91)" fill-opacity="0.502"/>
<g transform="translate(408.00 860.00) rotate(301) scale(24.00 148.00)"><ellipse cx="0" cy="0" rx="1" ry="1" fill="rgb(44,4,63)" fill-opacity="0.502"/></g>
<polygon points="235.75,412.07 236.73,404.13 300.25,411.93 299.27,419.87" fill="rgb(228,37,246)" fill-opacity="0.502"/>
<circle cx="540.00" cy="124.00" r="72.00" fill="rgb(8,0,19)" fill-opacity="0.502"/>
<polygon points="664.00,0.00 688.00,0.00 688.00,132.00 664.00,132.00" fill="rgb(20,1,52)" fill-opacity="0.502"/>
<g transform="translate(140.00 764.00) rotate(278) scale(68.00 76.00)"><ellipse cx="0" cy="0" rx="1" ry="1" fill="rgb(68,9,94)" fill-opacity="0.502"/></g>
<polygon points="33.32,418.72 19.96,323.65 150.68,305.28 164.04,400.35" fill="rgb(44,7,71)" fill-opacity="0.502"/>
<circle cx="320.00" cy="852.00" r="32.00" fill="rgb(73,9,101)" fill-opacity="0.502"/>
<polygon points="395.79,581.81 410.05,574.55 428.21,610.19 413.95,617.45" fill="rgb(0,0,11)" fill-opacity="0.502"/>
<g transform="translate(216.00 940.00) rotate(204) scale(100.00 32.00)"><ellipse cx="0" cy="0" rx="1" ry="1" fill="rgb(76,12,102)" fill-opacity="0.502"/></g>
<polygon points="334.04,125.97 437.47,115.10 457.96,310.03 354.53,320.90" fill="rgb(11,0,24)" fill-opacity="0.502"/>
<polygon points="665.25,472.39 694.00,494.05 674.75,519.61 646.00,497.95" fill="rgb(0,0,10)" fill-opacity="0.502"/>
<polygon points="36.81,711.51 45.57,729.48 31.19,736.49 22.43,718.52" fill="rgb(96,13,86)" fill-opacity="0.502"/>
<g transform="translate(84.00 448.00) rotate(232) scale(56.00 52.00)"><ellipse cx="0" cy="0" rx="1" ry="1" fill="rgb(20,2,58)" fill-opacity="0.502"/></g>
<polygon points="415.10,493.45 501.39,451.36 504.90,458.55 418.61,500.64" fill="rgb(7,0,26)" fill-opacity="0.502"/>
<circle cx="568.00" cy="456.00" r="12.00" fill="rgb(197,33,219)" fill-opacity="0.502"/>
<polygon points="675.83,971.69 655.55,1015.19 572.17,976.31 592.45,932.81" fill="rgb(61,7,77)" fill-opacity="0.502"/>
<circle cx="528.00" cy="468.00" r="12.00" fill="rgb(210,33,228)" fill-opacity="0.502"/>
<circle cx="524.00" cy="424.00" r="12.00" fill="rgb(198,36,224)" fill-opacity="0.502"/>
<g transform="translate(644.00 0.00) rotate(187) scale(44.00 32.00)"><ellipse cx="0" cy="0" rx="1" ry="1" fill="rgb(24,3,66)" fill-opacity="0.502"/></g>
<circle cx="300.00" cy="600.00" r="52.00" fill="rgb(172,22,160)" fill-opacity="0.502"/>
<g transform="translate(268.00 308.00) rotate(195) scale(16.00 76.00)"><ellipse cx="0" cy="0" rx="1" ry="1" fill="rgb(13,0,27)" fill-opacity="0.502"/></g>
<polygon points="227.04,380.65 155.93,369.38 180.96,211.35 252.07,222.62" fill="rgb(21,3,65)" fill-opacity="0.502"/>
<polygon points="386.82,715.42 402.76,716.82 397.18,780.58 381.24,779.18" fill="rgb(72,9,63)" fill-opacity="0.502"/>
<circle cx="108.00" cy="632.00" r="32.00" fill="rgb(142,20,124)" fill-opacity="0.502"/>
<polygon points="90.63,837.36 79.83,884.13 21.37,870.64 32.17,823.87" fill="rgb(91,13,117)" fill-opacity="0.502"/>
<polygon points="675.88,35.26 643.05,125.47 564.12,96.74 596.95,6.53" fill="rgb(11,0,24)" fill-opacity="0.502"/>
<polygon points="625.62,494.24 648.24,471.62 662.38,485.76 639.76,508.38" fill="rgb(0,0,10)" fill-opacity="0.502"/>
<polygon points="243.98,387.86 306.08,372.38 308.02,380.14 245.92,395.62" fill="rgb(181,30,203)" fill-opacity="0.502"/>
<polygon points="89.26,514.73 92.97,526.14 58.74,537.27 55.03,525.86" fill="rgb(182,25,176)" fill-opacity="0.502"/>
<circle cx="0.00" cy="28.00" r="80.00" fill="rgb(121,24,142)" fill-opacity="0.502"/>
<circle cx="508.00" cy="432.00" r="12.00" fill="rgb(180,31,202)" fill-opacity="0.502"/>
<polygon points="207.15,185.20 321.72,167.05 324.85,186.80 210.28,204.95" fill="rgb(34,6,72)" fill-opacity="0.502"/>
<g transform="translate(452.00 580.00) rotate(205) scale(12.00 36.00)"><ellipse cx="0" cy="0" rx="1" ry="1" fill="rgb(162,22,141)" fill-opacity="0.502"/></g>
<polygon points="-7.98,378.45 -3.60,342.72 51.98,349.55 47.60,385.28" fill="rgb(59,7,83)" fill-opacity="0.502"/>
<polygon points="306.00,750.00 306.00,774.00 246.00,774.00 246.00,750.00" fill="rgb(83,13,111)" fill-opacity="0.502"/>
<circle cx="572.00" cy="308.00" r="52.00" fill="rgb(12,0,29)" fill-opacity="0.502"/>
<circle cx="348.00" cy="396.00" r="12.00" fill="rgb(187,37,213)" fill-opacity="0.502"/>
<g transform="translate(424.00 500.00) rotate(338) scale(20.00 36.00)"><ellipse cx="0" cy="0" rx="1" ry="1" fill="rgb(47,8,66)" fill-opacity="0.502"/></g>
<circle cx="264.00" cy="444.00" r="8.00" fill="rgb(249,39,255)" fill-opacity="0.502"/>
<g transform="translate(200.00 504.00) rotate(281) scale(40.00 44.00)"><ellipse cx="0" cy="0" rx="1" ry="1" fill="rgb(187,25,180)" fill-opacity="0.502"/></g>
<polygon points="308.00,404.00 248.00,404.00 248.00,396.00 308.00,396.00" fill="rgb(0,0,0)" fill-opacity="0.502"/>
<polygon points="467.88,432.55 465.10,429.68 488.12,407.45 490.90,410.32" fill="rgb(183,38,211)" fill-opacity="0.502"/>
<g transform="translate(568.00 112.00) rotate(299) scale(100.00 56.00)"><ellipse cx="0" cy="0" rx="1" ry="1" fill="rgb(10,0,23)" fill-opacity="0.502"/></g>
<g transform="translate(312.00 708.00) rotate(65) scale(44.00 28.00)"><ellipse cx="0" cy="0" rx="1" ry="1" fill="rgb(160,23,150)" fill-opacity="0.502"/></g>
<circle cx="228.00" cy="676.00" r="44.00" fill="rgb(181,24,173)" fill-opacity="0.502"/>
<g transform="translate(80.00 1000.00) rotate(199) scale(104.00 8.00)"><ellipse cx="0" cy="0" rx="1" ry="1" fill="rgb(43,2,56)" fill-opacity="0.502"/></g>
<circle cx="588.00" cy="684.00" r="104.00" fill="rgb(186,25,179)" fill-opacity="0.502"/>
<polygon points="497.92,484.16 519.84,493.92 510.08,515.84 488.16,506.08" fill="rgb(0,0,8)" fill-opacity="0.502"/>
<polygon points="459.84,38.77 456.22,-13.10 480.16,-14.77 483.78,37.10" fill="rgb(0,0,0)" fill-opacity="0.502"/>
<polygon points="-4.66,149.03 59.25,82.85 96.66,118.97 32.75,185.15" fill="rgb(19,1,52)" fill-opacity="0.502"/>
<polygon points="31.85,61.50 60.83,-46.68 80.15,-41.50 51.17,66.68" fill="rgb(159,30,181)" fill-opacity="0.502"/>
<polygon points="444.70,625.92 432.44,636.21 427.30,630.08 439.56,619.79" fill="rgb(127,17,97)" fill-opacity="0.502"/>
<polygon points="99.70,589.00 65.87,601.31 56.30,575.00 90.13,562.69" fill="rgb(128,17,113)" fill-opacity="0.502"/>
<g transform="translate(412.00 332.00) rotate(163) scale(36.00 116.00)"><ellipse cx="0" cy="0" rx="1" ry="1" fill="rgb(9,0,22)" fill-opacity="0.502"/></g>
<circle cx="116.00" cy="468.00" r="20.00" fill="rgb(16,1,44)" fill-opacity="0.502"/>
<g transform="translate(488.00 972.00) rotate(300) scale(96.00 36.00)"><ellipse cx="0" cy="0" rx="1" ry="1" fill="rgb(51,4,69)" fill-opacity="0.502"/></g>
<circle cx="240.00" cy="852.00" r="36.00" fill="rgb(76,12,100)" fill-opacity="0.502"/>
<polygon points="69.42,703.45 57.58,678.07 86.58,664.55 98.42,689.93" fill="rgb(113,15,95)" fill-opacity="0.502"/>
<polygon points="295.92,938.92 393.63,1015.26 364.08,1053.08 266.37,976.74" fill="rgb(69,13,92)" fill-opacity="0.502"/>
<g transform="translate(292.00 640.00) rotate(257) scale(16.00 24.00)"><ellipse cx="0" cy="0" rx="1" ry="1" fill="rgb(161,22,147)" fill-opacity="0.502"/></g>
<circle cx="132.00" cy="100.00" r="44.00" fill="rgb(37,6,68)" fill-opacity="0.502"/>
<circle cx="508.00" cy="468.00" r="12.00" fill="rgb(189,31,209)" fill-opacity="0.502"/>
<polygon points="268.59,90.08 127.23,117.55 123.41,97.92 264.77,70.45" fill="rgb(12,0,47)" fill-opacity="0.502"/>
<polygon points="464.17,601.46 479.14,671.89 447.83,678.54 432.86,608.11" fill="rgb(171,22,158)" fill-opacity="0.502"/>
<polygon points="412.70,768.31 415.14,796.20 375.30,799.69 372.86,771.80" fill="rgb(77,15,115)" fill-opacity="0.502"/>
<polygon points="268.17,716.84 247.16,652.17 311.83,631.16 332.84,695.83" fill="rgb(164,22,151)" fill-opacity="0.502"/>
<circle cx="544.00" cy="676.00" r="56.00" fill="rgb(188,25,182)" fill-opacity="0.502"/>
<circle cx="204.00" cy="796.00" r="28.00" fill="rgb(56,5,77)" fill-opacity="0.502"/>
<polygon points="338.36,443.94 334.26,455.21 281.64,436.06 285.74,424.79" fill="rgb(0,0,0)" fill-opacity="0.502"/>
<circle cx="312.00" cy="424.00" r="12.00" fill="rgb(189,34,214)" fill-opacity="0.502"/>
<circle cx="352.00" cy="440.00" r="12.00" fill="rgb(176,36,203)" fill-opacity="0.502"/>
<polygon points="415.46,740.31 391.79,791.07 384.54,787.69 408.21,736.93" fill="rgb(91,13,86)" fill-opacity="0.502"/>
<circle cx="0.00" cy="100.00" r="12.00" fill="rgb(7,0,3)" fill-opacity="0.502"/>
<g transform="translate(500.00 1008.00) rotate(1) scale(24.00 32.00)"><ellipse cx="0" cy="0" rx="1" ry="1" fill="rgb(61,8,80)" fill-opacity="0.502"/></g>
<circle cx="376.00" cy="452.00" r="12.00" fill="rgb(160,33,186)" fill-opacity="0.502"/>
<circle cx="0.00" cy="804.00" r="16.00" fill="rgb(24,0,39)" fill-opacity="0.502"/>
<circle cx="68.00" cy="300.00" r="48.00" fill="rgb(30,5,67)" fill-opacity="0.502"/>
<circle cx="476.00" cy="356.00" r="44.00" fill="rgb(11,0,26)" fill-opacity="0.502"/>
<polygon points="395.81,655.60 420.43,624.08 436.19,636.40 411.57,667.92" fill="rgb(92,11,77)" fill-opacity="0.502"/>
<polygon points="130.82,256.35 142.21,230.77 153.18,235.65 141.79,261.23" fill="rgb(47,9,73)" fill-opacity="0.502"/>
<circle cx="196.00" cy="56.00" r="20.00" fill="rgb(57,8,79)" fill-opacity="0.502"/>
<g transform="translate(220.00 0.00) rotate(34) scale(76.00 16.00)"><ellipse cx="0" cy="0" rx="1" ry="1" fill="rgb(15,0,42)" fill-opacity="0.502"/></g>
<polygon points="350.30,718.74 371.11,737.48 349.70,761.26 328.89,742.52" fill="rgb(151,24,145)" fill-opacity="0.502"/>
<circle cx="20.00" cy="1020.00" r="32.00" fill="rgb(70,13,94)" fill-opacity="0.502"/>
<g transform="translate(372.00 944.00) rotate(346) scale(20.00 8.00)"><ellipse cx="0" cy="0" rx="1" ry="1" fill="rgb(74,15,101)" fill-opacity="0.502"/></g>
<circle cx="380.00" cy="664.00" r="20.00" fill="rgb(133,18,119)" fill-opacity="0.502"/>
<g transform="translate(196.00 656.00) rotate(76) scale(48.00 76.00)"><ellipse cx="0" cy="0" rx="1" ry="1" fill="rgb(182,24,176)" fill-opacity="0.502"/></g>
<g transform="translate(368.00 304.00) rotate(354) scale(116.00 80.00)"><ellipse cx="0" cy="0" rx="1" ry="1" fill="rgb(12,0,25)" fill-opacity="0.502"/></g>
<polygon points="695.62,827.83 640.17,835.62 632.38,780.17 687.83,772.38" fill="rgb(174,22,162)" fill-opacity="0.502"/>
<polygon points="430.23,43.88 349.49,67.03 341.77,40.12 422.51,16.97" fill="rgb(16,0,47)" fill-opacity="0.502"/>
<polygon points="-7.97,851.17 1.39,820.57 119.97,856.83 110.61,887.43" fill="rgb(89,13,114)" fill-opacity="0.502"/>
<circle cx="532.00" cy="984.00" r="28.00" fill="rgb(39,3,54)" fill-opacity="0.502"/>
<g transform="translate(668.00 592.00) rotate(73) scale(80.00 68.00)"><ellipse cx="0" cy="0" rx="1" ry="1" fill="rgb(181,24,172)" fill-opacity="0.502"/></g>
<circle cx="392.00" cy="68.00" r="20.00" fill="rgb(12,0,30)" fill-opacity="0.502"/>
<polygon points="351.97,609.12 359.89,608.01 376.03,722.88 368.11,723.99" fill="rgb(139,19,129)" fill-opacity="0.502"/>
<g transform="translate(448.00 808.00) rotate(107) scale(16.00 384.00)"><ellipse cx="0" cy="0" rx="1" ry="1" fill="rgb(75,12,102)" fill-opacity="0.502"/></g>
<circle cx="388.00" cy="468.00" r="8.00" fill="rgb(174,37,202)" fill-opacity="0.502"/>
<polygon points="706.80,995.37 695.62,1011.95 649.20,980.63 660.38,964.05" fill="rgb(67,14,97)" fill-opacity="0.502"/>
<circle cx="208.00" cy="112.00" r="24.00" fill="rgb(39,7,71)" fill-opacity="0.502"/>
<polygon points="698.83,479.22 693.69,485.35 669.17,464.78 674.31,458.65" fill="rgb(153,32,181)" fill-opacity="0.502"/>
<polygon points="485.57,872.60 447.54,908.06 398.43,855.40 436.46,819.94" fill="rgb(50,5,71)" fill-opacity="0.502"/>
<circle cx="276.00" cy="848.00" r="24.00" fill="rgb(75,12,102)" fill-opacity="0.502"/>
<circle cx="76.00" cy="808.00" r="28.00" fill="rgb(61,7,86)" fill-opacity="0.502"/>
<polygon points="284.83,41.57 297.26,87.94 243.17,102.43 230.74,56.06" fill="rgb(20,2,58)" fill-opacity="0.502"/>
<polygon points="17.55,636.96 68.31,613.29 78.45,635.04 27.69,658.71" fill="rgb(162,23,152)" fill-opacity="0.502"/>
<polygon points="440.99,876.13 442.94,932.10 335.01,935.87 333.06,879.90" fill="rgb(66,11,88)" fill-opacity="0.502"/>
<g transform="translate(592.00 588.00) rotate(320) scale(84.00 80.00)"><ellipse cx="0" cy="0" rx="1" ry="1" fill="rgb(186,25,179)" fill-opacity="0.502"/></g>
<polygon points="167.57,402.13 164.22,466.04 8.43,457.87 11.78,393.96" fill="rgb(25,4,65)" fill-opacity="0.502"/>
<polygon points="624.41,561.36 642.64,508.41 695.59,526.64 677.36,579.59" fill="rgb(169,22,158)" fill-opacity="0.502"/>
<circle cx="472.00" cy="520.00" r="16.00" fill="rgb(0,0,5)" fill-opacity="0.502"/>
<polygon points="400.02,785.11 293.50,750.50 295.98,742.89 402.50,777.50" fill="rgb(98,20,133)" fill-opacity="0.502"/>
<polygon points="683.23,908.25 504.98,883.20 512.77,827.75 691.02,852.80" fill="rgb(68,11,94)" fill-opacity="0.502"/>
<polygon points="412.77,503.63 404.74,512.55 351.23,464.37 359.26,455.45" fill="rgb(0,0,6)" fill-opacity="0.502"/>
<polygon points="266.81,133.86 318.68,130.23 321.19,166.14 269.32,169.77" fill="rgb(19,1,49)" fill-opacity="0.502"/>
<polygon points="462.00,24.54 487.46,50.00 462.00,75.46 436.54,50.00" fill="rgb(0,0,0)" fill-opacity="0.502"/>
<g transform="translate(440.00 688.00) rotate(103) scale(72.00 20.00)"><ellipse cx="0" cy="0" rx="1" ry="1" fill="rgb(173,23,161)" fill-opacity="0.502"/></g>
<g transform="translate(120.00 0.00) rotate(210) scale(28.00 56.00)"><ellipse cx="0" cy="0" rx="1" ry="1" fill="rgb(24,0,42)" fill-opacity="0.502"/></g>
<g transform="translate(612.00 92.00) rotate(42) scale(20.00 88.00)"><ellipse cx="0" cy="0" rx="1" ry="1" fill="rgb(12,0,27)" fill-opacity="0.502"/></g>
<polygon points="179.33,517.07 124.95,542.43 104.67,498.93 159.05,473.57" fill="rgb(184,25,177)" fill-opacity="0.502"/>
<circle cx="484.00" cy="216.00" r="36.00" fill="rgb(20,2,53)" fill-opacity="0.502"/>
<polygon points="627.53,311.65 670.69,353.33 648.47,376.35 605.31,334.67" fill="rgb(10,0,23)" fill-opacity="0.502"/>
<polygon points="402.57,784.99 401.17,800.93 333.43,795.01 334.83,779.07" fill="rgb(63,7,92)" fill-opacity="0.502"/>
<g transform="translate(392.00 316.00) rotate(46) scale(124.00 76.00)"><ellipse cx="0" cy="0" rx="1" ry="1" fill="rgb(11,0,24)" fill-opacity="0.502"/></g>
<polygon points="236.30,724.11 214.85,706.11 263.70,647.89 285.15,665.89" fill="rgb(170,23,160)" fill-opacity="0.502"/>
<circle cx="644.00" cy="692.00" r="16.00" fill="rgb(174,23,165)" fill-opacity="0.502"/>
<polygon points="234.83,219.11 183.22,212.77 185.17,196.89 236.78,203.23" fill="rgb(11,0,38)" fill-opacity="0.502"/>
<g transform="translate(176.00 952.00) rotate(271) scale(28.00 124.00)"><ellipse cx="0" cy="0" rx="1" ry="1" fill="rgb(69,13,95)" fill-opacity="0.502"/></g>
<g transform="translate(228.00 536.00) rotate(133) scale(68.00 32.00)"><ellipse cx="0" cy="0" rx="1" ry="1" fill="rgb(177,23,168)" fill-opacity="0.502"/></g>
<g transform="translate(408.00 440.00) rotate(318) scale(4.00 40.00)"><ellipse cx="0" cy="0" rx="1" ry="1" fill="rgb(153,33,180)" fill-opacity="0.502"/></g>
<circle cx="688.00" cy="240.00" r="36.00" fill="rgb(19,1,44)" fill-opacity="0.502"/>
<polygon points="555.31,972.61 475.91,962.86 484.69,891.39 564.09,901.14" fill="rgb(48,5,66)" fill-opacity="0.502"/>
<g transform="translate(592.00 608.00) rotate(344) scale(48.00 96.00)"><ellipse cx="0" cy="0" rx="1" ry="1" fill="rgb(189,26,182)" fill-opacity="0.502"/></g>
<circle cx="360.00" cy="920.00" r="32.00" fill="rgb(70,13,97)" fill-opacity="0.502"/>
<g transform="translate(212.00 844.00) rotate(6) scale(44.00 32.00)"><ellipse cx="0" cy="0" rx="1" ry="1" fill="rgb(74,10,98)" fill-opacity="0.502"/></g>
<g transform="translate(148.00 580.00) rotate(293) scale(16.00 16.00)"><ellipse cx="0" cy="0" rx="1" ry="1" fill="rgb(58,11,103)" fill-opacity="0.502"/></g>
<polygon points="354.65,487.51 313.86,471.03 321.35,452.49 362.14,468.97" fill="rgb(150,29,175)" fill-opacity="0.502"/>
<g transform="translate(96.00 192.00) rotate(11) scale(24.00 180.00)"><ellipse cx="0" cy="0" rx="1" ry="1" fill="rgb(32,5,68)" fill-opacity="0.502"/></g>
<circle cx="280.00" cy="232.00" r="40.00" fill="rgb(19,2,52)" fill-opacity="0.502"/>
<circle cx="132.00" cy="592.00" r="12.00" fill="rgb(37,4,79)" fill-opacity="0.502"/>
<circle cx="0.00" cy="728.00" r="8.00" fill="rgb(53,10,95)" fill-opacity="0.502"/>
<circle cx="328.00" cy="428.00" r="12.00" fill="rgb(173,34,201)" fill-opacity="0.502"/>
<polygon points="623.42,553.58 673.32,528.16 680.58,542.42 630.68,567.84" fill="rgb(182,25,174)" fill-opacity="0.502"/>
<polygon points="651.99,645.69 660.38,602.50 680.01,606.31 671.62,649.50" fill="rgb(171,22,161)" fill-opacity="0.502"/>
<polygon points="594.70,164.50 647.56,99.22 697.30,139.50 644.44,204.78" fill="rgb(12,0,31)" fill-opacity="0.502"/>
<g transform="translate(688.00 716.00) rotate(212) scale(40.00 56.00)"><ellipse cx="0" cy="0" rx="1" ry="1" fill="rgb(189,25,182)" fill-opacity="0.502"/></g>
<circle cx="388.00" cy="24.00" r="24.00" fill="rgb(21,3,60)" fill-opacity="0.502"/>
<polygon points="441.39,554.48 427.63,534.82 486.61,493.52 500.37,513.18" fill="rgb(0,0,13)" fill-opacity="0.502"/>
<g transform="translate(124.00 392.00) rotate(319) scale(20.00 100.00)"><ellipse cx="0" cy="0" rx="1" ry="1" fill="rgb(37,6,68)" fill-opacity="0.502"/></g>
<circle cx="4.00" cy="548.00" r="12.00" fill="rgb(186,27,166)" fill-opacity="0.502"/>
<polygon points="35.25,817.62 20.81,798.45 52.75,774.38 67.19,793.55" fill="rgb(59,7,81)" fill-opacity="0.502"/>
<circle cx="52.00" cy="20.00" r="20.00" fill="rgb(150,29,172)" fill-opacity="0.502"/>
<polygon points="607.61,831.31 686.72,916.14 660.39,940.69 581.28,855.86" fill="rgb(69,13,96)" fill-opacity="0.502"/>
<polygon points="58.74,976.93 -2.39,913.63 29.26,883.07 90.39,946.37" fill="rgb(69,11,93)" fill-opacity="0.502"/>
<polygon points="462.40,426.06 524.57,375.72 529.60,381.94 467.43,432.28" fill="rgb(143,28,170)" fill-opacity="0.502"/>
<polygon points="158.58,1050.14 138.26,968.63 165.42,961.86 185.74,1043.37" fill="rgb(61,8,75)" fill-opacity="0.502"/>
<circle cx="160.00" cy="28.00" r="32.00" fill="rgb(17,2,63)" fill-opacity="0.502"/>
<polygon points="196.66,725.68 155.71,763.87 139.34,746.32 180.29,708.13" fill="rgb(77,12,102)" fill-opacity="0.502"/>
<circle cx="448.00" cy="188.00" r="12.00" fill="rgb(21,2,53)" fill-opacity="0.502"/>
<circle cx="224.00" cy="532.00" r="32.00" fill="rgb(186,25,179)" fill-opacity="0.502"/>
</g>
</svg>