<?xml version="1.0" standalone="no"?>
<svg xmlns="http://www.w3.org/2000/svg" width="692" height="1024" viewBox="0 0 692 1024" style="overflow:hidden">
<defs>
<clipPath id="c"><rect x="0" y="0" width="692" height="1024"/></clipPath>
</defs>
<rect width="692" height="1024" fill="rgb(70,9,85)"/>
<g clip-path="url(#c)">
<g transform="translate(560.00 740.00) rotate(1) scale(220.00 208.00)"><ellipse cx="0" cy="0" rx="1" ry="1" fill="rgb(255,35,226)" fill-opacity="0.502"/></g>
<circle cx="76.00" cy="680.00" r="100.00" fill="rgb(255,36,243)" fill-opacity="0.502"/>
<circle cx="324.00" cy="140.00" r="360.00" fill="rgb(0,0,10)" fill-opacity="0.502"/>
<circle cx="200.00" cy="24.00" r="68.00" fill="rgb(197,39,237)" fill-opacity="0.502"/>
<circle cx="260.00" cy="704.00" r="92.00" fill="rgb(188,26,174)" fill-opacity="0.502"/>
<circle cx="356.00" cy="472.00" r="116.00" fill="rgb(0,0,21)" fill-opacity="0.502"/>
<circle cx="280.00" cy="916.00" r="160.00" fill="rgb(47,4,60)" fill-opacity="0.502"/>
<g transform="translate(56.00 404.00) rotate(305) scale(268.00 84.00)"><ellipse cx="0" cy="0" rx="1" ry="1" fill="rgb(8,2,61)" fill-opacity="0.502"/></g>
<circle cx="540.00" cy="208.00" r="184.00" fill="rgb(0,0,27)" fill-opacity="0.502"/>
<g transform="translate(152.00 672.00) rotate(103) scale(60.00 184.00)"><ellipse cx="0" cy="0" rx="1" ry="1" fill="rgb(190,26,175)" fill-opacity="0.502"/></g>
<g transform="translate(632.00 668.00) rotate(202) scale(164.00 128.00)"><ellipse cx="0" cy="0" rx="1" ry="1" fill="rgb(194,25,184)" fill-opacity="0.502"/></g>
<circle cx="404.00" cy="796.00" r="108.00" fill="rgb(135,19,118)" fill-opacity="0.502"/>
<circle cx="272.00" cy="244.00" r="196.00" fill="rgb(6,0,35)" fill-opacity="0.502"/>
<g transform="translate(80.00 244.00) rotate(126) scale(200.00 120.00)"><ellipse cx="0" cy="0" rx="1" ry="1" fill="rgb(30,5,73)" fill-opacity="0.502"/></g>
<circle cx="624.00" cy="0.00" r="40.00" fill="rgb(178,36,217)" fill-opacity="0.502"/>
<circle cx="564.00" cy="440.00" r="60.00" fill="rgb(134,23,162)" fill-opacity="0.502"/>
<circle cx="672.00" cy="880.00" r="84.00" fill="rgb(174,25,161)" fill-opacity="0.502"/>
<circle cx="284.00" cy="904.00" r="88.00" fill="rgb(29,1,48)" fill-opacity="0.502"/>
<circle cx="0.00" cy="708.00" r="88.00" fill="rgb(192,25,181)" fill-opacity="0.502"/>
<circle cx="252.00" cy="572.00" r="76.00" fill="rgb(60,12,81)" fill-opacity="0.502"/>
<circle cx="0.00" cy="560.00" r="56.00" fill="rgb(16,3,57)" fill-opacity="0.502"/>
<circle cx="656.00" cy="64.00" r="40.00" fill="rgb(18,2,73)" fill-opacity="0.502"/>
<polygon points="516.51,109.69 353.73,129.68 343.49,46.31 506.27,26.32" fill="rgb(31,5,83)" fill-opacity="0.502"/>
<circle cx="256.00" cy="632.00" r="20.00" fill="rgb(0,0,0)" fill-opacity="0.502"/>
<g transform="translate(180.00 816.00) rotate(254) scale(92.00 120.00)"><ellipse cx="0" cy="0" rx="1" ry="1" fill="rgb(64,10,99)" fill-opacity="0.502"/></g>
<polygon points="372.49,507.80 383.30,631.32 327.51,636.20 316.70,512.68" fill="rgb(0,0,0)" fill-opacity="0.502"/>
<g transform="translate(360.00 808.00) rotate(316) scale(196.00 16.00)"><ellipse cx="0" cy="0" rx="1" ry="1" fill="rgb(68,8,73)" fill-opacity="0.502"/></g>
<polygon points="80.00,472.00 212.00,472.00 212.00,560.00 80.00,560.00" fill="rgb(128,23,156)" fill-opacity="0.502"/>
<g transform="translate(128.00 552.00) rotate(184) scale(60.00 8.00)"><ellipse cx="0" cy="0" rx="1" ry="1" fill="rgb(225,39,247)" fill-opacity="0.502"/></g>
<polygon points="378.57,751.37 293.04,794.96 269.43,748.63 354.96,705.04" fill="rgb(176,25,165)" fill-opacity="0.502"/>
<circle cx="628.00" cy="476.00" r="16.00" fill="rgb(222,43,255)" fill-opacity="0.502"/>
<circle cx="688.00" cy="252.00" r="116.00" fill="rgb(13,1,49)" fill-opacity="0.502"/>
<circle cx="504.00" cy="200.00" r="104.00" fill="rgb(9,0,18)" fill-opacity="0.502"/>
<circle cx="516.00" cy="780.00" r="64.00" fill="rgb(187,24,177)" fill-opacity="0.502"/>
<circle cx="436.00" cy="896.00" r="44.00" fill="rgb(155,23,138)" fill-opacity="0.502"/>
<polygon points="409.31,359.77 362.10,267.10 422.69,236.23 469.90,328.90" fill="rgb(29,4,79)" fill-opacity="0.502"/>
<polygon points="664.60,371.15 667.04,391.00 619.40,396.85 616.96,377.00" fill="rgb(228,44,255)" fill-opacity="0.502"/>
<circle cx="376.00" cy="588.00" r="24.00" fill="rgb(0,0,4)" fill-opacity="0.502"/>
<g transform="translate(504.00 472.00) rotate(61) scale(32.00 32.00)"><ellipse cx="0" cy="0" rx="1" ry="1" fill="rgb(137,24,168)" fill-opacity="0.502"/></g>
<circle cx="356.00" cy="656.00" r="20.00" fill="rgb(189,26,165)" fill-opacity="0.502"/>
<g transform="translate(236.00 1000.00) rotate(265) scale(76.00 52.00)"><ellipse cx="0" cy="0" rx="1" ry="1" fill="rgb(30,0,47)" fill-opacity="0.502"/></g>
<g transform="translate(252.00 376.00) rotate(149) scale(124.00 92.00)"><ellipse cx="0" cy="0" rx="1" ry="1" fill="rgb(7,0,19)" fill-opacity="0.502"/></g>
<g transform="translate(312.00 156.00) rotate(181) scale(44.00 368.00)"><ellipse cx="0" cy="0" rx="1" ry="1" fill="rgb(6,0,16)" fill-opacity="0.502"/></g>
<g transform="translate(504.00 612.00) rotate(72) scale(64.00 136.00)"><ellipse cx="0" cy="0" rx="1" ry="1" fill="rgb(181,24,172)" fill-opacity="0.502"/></g>
<polygon points="298.79,524.33 271.23,568.43 193.21,519.67 220.77,475.57" fill="rgb(115,21,138)" fill-opacity="0.502"/>
<g transform="translate(512.00 436.00) rotate(233) scale(24.00 20.00)"><ellipse cx="0" cy="0" rx="1" ry="1" fill="rgb(123,21,150)" fill-opacity="0.502"/></g>
<g transform="translate(160.00 28.00) rotate(101) scale(48.00 16.00)"><ellipse cx="0" cy="0" rx="1" ry="1" fill="rgb(178,34,205)" fill-opacity="0.502"/></g>
<g transform="translate(672.00 244.00) rotate(270) scale(56.00 84.00)"><ellipse cx="0" cy="0" rx="1" ry="1" fill="rgb(27,4,72)" fill-opacity="0.502"/></g>
<g transform="translate(512.00 396.00) rotate(246) scale(16.00 272.00)"><ellipse cx="0" cy="0" rx="1" ry="1" fill="rgb(6,0,27)" fill-opacity="0.502"/></g>
<polygon points="464.00,544.00 356.00,544.00 356.00,356.00 464.00,356.00" fill="rgb(19,1,61)" fill-opacity="0.502"/>
<polygon points="278.53,614.56 149.66,559.85 157.47,541.44 286.34,596.15" fill="rgb(184,36,206)" fill-opacity="0.502"/>
<polygon points="201.35,618.61 170.29,734.52 46.65,701.39 77.71,585.48" fill="rgb(181,23,170)" fill-opacity="0.502"/>
<g transform="translate(56.00 820.00) rotate(114) scale(40.00 60.00)"><ellipse cx="0" cy="0" rx="1" ry="1" fill="rgb(87,14,117)" fill-opacity="0.502"/></g>
<g transform="translate(620.00 932.00) rotate(272) scale(16.00 200.00)"><ellipse cx="0" cy="0" rx="1" ry="1" fill="rgb(140,22,137)" fill-opacity="0.502"/></g>
<g transform="translate(168.00 596.00) rotate(195) scale(120.00 16.00)"><ellipse cx="0" cy="0" rx="1" ry="1" fill="rgb(0,0,2)" fill-opacity="0.502"/></g>
<g transform="translate(52.00 324.00) rotate(221) scale(180.00 124.00)"><ellipse cx="0" cy="0" rx="1" ry="1" fill="rgb(27,4,60)" fill-opacity="0.502"/></g>
<polygon points="347.57,929.75 299.75,933.93 292.43,850.25 340.25,846.07" fill="rgb(10,0,24)" fill-opacity="0.502"/>
<g transform="translate(580.00 868.00) rotate(200) scale(184.00 68.00)"><ellipse cx="0" cy="0" rx="1" ry="1" fill="rgb(162,22,151)" fill-opacity="0.502"/></g>
<circle cx="224.00" cy="100.00" r="40.00" fill="rgb(28,5,70)" fill-opacity="0.502"/>
<g transform="translate(664.00 480.00) rotate(241) scale(12.00 20.00)"><ellipse cx="0" cy="0" rx="1" ry="1" fill="rgb(210,42,242)" fill-opacity="0.502"/></g>
<polygon points="286.76,533.84 280.25,548.46 185.24,506.16 191.75,491.54" fill="rgb(0,0,0)" fill-opacity="0.502"/>
<circle cx="192.00" cy="552.00" r="16.00" fill="rgb(20,1,35)" fill-opacity="0.502"/>
<circle cx="192.00" cy="120.00" r="56.00" fill="rgb(22,2,59)" fill-opacity="0.502"/>
<polygon points="462.12,529.08 444.57,512.71 561.88,386.92 579.43,403.29" fill="rgb(111,19,136)" fill-opacity="0.502"/>
<g transform="translate(264.00 404.00) rotate(7) scale(104.00 84.00)"><ellipse cx="0" cy="0" rx="1" ry="1" fill="rgb(12,0,26)" fill-opacity="0.502"/></g>
<g transform="translate(428.00 440.00) rotate(10) scale(44.00 148.00)"><ellipse cx="0" cy="0" rx="1" ry="1" fill="rgb(16,1,48)" fill-opacity="0.502"/></g>
<circle cx="36.00" cy="984.00" r="136.00" fill="rgb(57,9,83)" fill-opacity="0.502"/>
<g transform="translate(504.00 352.00) rotate(100) scale(60.00 52.00)"><ellipse cx="0" cy="0" rx="1" ry="1" fill="rgb(6,0,15)" fill-opacity="0.502"/></g>
<polygon points="621.73,528.99 490.45,542.79 486.27,503.01 617.55,489.21" fill="rgb(0,0,0)" fill-opacity="0.502"/>
<circle cx="280.00" cy="688.00" r="44.00" fill="rgb(179,24,165)" fill-opacity="0.502"/>
<polygon points="584.00,420.00 688.00,420.00 688.00,440.00 584.00,440.00" fill="rgb(207,41,237)" fill-opacity="0.502"/>
<polygon points="570.44,1009.89 490.11,1034.44 465.56,954.11 545.89,929.56" fill="rgb(63,13,91)" fill-opacity="0.502"/>
<polygon points="536.00,496.00 688.00,496.00 688.00,532.00 536.00,532.00" fill="rgb(0,0,0)" fill-opacity="0.502"/>
<g transform="translate(220.00 416.00) rotate(67) scale(32.00 108.00)"><ellipse cx="0" cy="0" rx="1" ry="1" fill="rgb(10,0,26)" fill-opacity="0.502"/></g>
<g transform="translate(628.00 756.00) rotate(269) scale(84.00 156.00)"><ellipse cx="0" cy="0" rx="1" ry="1" fill="rgb(181,24,173)" fill-opacity="0.502"/></g>
<polygon points="596.33,455.02 602.06,440.08 635.67,452.98 629.94,467.92" fill="rgb(0,0,0)" fill-opacity="0.502"/>
<polygon points="648.03,368.96 661.93,354.58 707.97,399.04 694.07,413.42" fill="rgb(137,26,166)" fill-opacity="0.502"/>
<circle cx="56.00" cy="580.00" r="16.00" fill="rgb(0,0,14)" fill-opacity="0.502"/>
<g transform="translate(208.00 892.00) rotate(128) scale(64.00 64.00)"><ellipse cx="0" cy="0" rx="1" ry="1" fill="rgb(49,4,69)" fill-opacity="0.502"/></g>
<g transform="translate(464.00 704.00) rotate(213) scale(24.00 36.00)"><ellipse cx="0" cy="0" rx="1" ry="1" fill="rgb(93,16,110)" fill-opacity="0.502"/></g>
<polygon points="583.07,40.20 618.39,21.42 640.93,63.80 605.61,82.58" fill="rgb(37,6,83)" fill-opacity="0.502"/>
<polygon points="316.28,807.33 299.38,775.54 447.72,696.67 464.62,728.46" fill="rgb(139,21,125)" fill-opacity="0.502"/>
<circle cx="52.00" cy="560.00" r="12.00" fill="rgb(182,34,213)" fill-opacity="0.502"/>
<polygon points="131.06,532.82 135.56,521.69 168.94,535.18 164.44,546.31" fill="rgb(0,0,0)" fill-opacity="0.502"/>
<circle cx="136.00" cy="648.00" r="52.00" fill="rgb(180,24,171)" fill-opacity="0.502"/>
<polygon points="523.85,489.31 524.20,469.31 832.15,474.69 831.80,494.69" fill="rgb(199,35,222)" fill-opacity="0.502"/>
<g transform="translate(20.00 72.00) rotate(18) scale(60.00 72.00)"><ellipse cx="0" cy="0" rx="1" ry="1" fill="rgb(24,0,34)" fill-opacity="0.502"/></g>
<g transform="translate(460.00 476.00) rotate(235) scale(4.00 100.00)"><ellipse cx="0" cy="0" rx="1" ry="1" fill="rgb(14,0,43)" fill-opacity="0.502"/></g>
<circle cx="528.00" cy="460.00" r="20.00" fill="rgb(73,11,92)" fill-opacity="0.502"/>
<polygon points="346.34,262.23 289.77,205.66 357.66,137.77 414.23,194.34" fill="rgb(8,0,16)" fill-opacity="0.502"/>
<polygon points="372.15,843.39 427.12,854.08 411.85,932.61 356.88,921.92" fill="rgb(124,16,102)" fill-opacity="0.502"/>
<g transform="translate(372.00 996.00) rotate(178) scale(104.00 76.00)"><ellipse cx="0" cy="0" rx="1" ry="1" fill="rgb(54,6,72)" fill-opacity="0.502"/></g>
<polygon points="538.61,37.43 471.07,141.43 417.39,106.57 484.93,2.57" fill="rgb(32,4,66)" fill-opacity="0.502"/>
<circle cx="20.00" cy="412.00" r="104.00" fill="rgb(34,6,67)" fill-opacity="0.502"/>
<polygon points="682.40,35.35 632.95,19.28 641.60,-7.35 691.05,8.72" fill="rgb(138,28,168)" fill-opacity="0.502"/>
<polygon points="260.32,791.57 122.56,855.81 83.68,772.43 221.44,708.19" fill="rgb(75,11,104)" fill-opacity="0.502"/>
<g transform="translate(604.00 412.00) rotate(79) scale(8.00 84.00)"><ellipse cx="0" cy="0" rx="1" ry="1" fill="rgb(0,0,0)" fill-opacity="0.502"/></g>
<polygon points="614.89,296.41 691.11,340.41 673.11,371.59 596.89,327.59" fill="rgb(8,0,18)" fill-opacity="0.502"/>
<polygon points="676.58,394.41 662.47,374.99 675.42,365.59 689.53,385.01" fill="rgb(191,37,219)" fill-opacity="0.502"/>
<g transform="translate(68.00 732.00) rotate(0) scale(88.00 24.00)"><ellipse cx="0" cy="0" rx="1" ry="1" fill="rgb(179,24,166)" fill-opacity="0.502"/></g>
<g transform="translate(356.00 896.00) rotate(100) scale(96.00 20.00)"><ellipse cx="0" cy="0" rx="1" ry="1" fill="rgb(64,6,65)" fill-opacity="0.502"/></g>
<polygon points="317.18,540.10 252.82,480.08 282.82,447.90 347.18,507.92" fill="rgb(2,0,14)" fill-opacity="0.502"/>
<g transform="translate(424.00 320.00) rotate(342) scale(36.00 60.00)"><ellipse cx="0" cy="0" rx="1" ry="1" fill="rgb(23,3,63)" fill-opacity="0.502"/></g>
<circle cx="476.00" cy="612.00" r="60.00" fill="rgb(180,24,171)" fill-opacity="0.502"/>
<polygon points="256.23,586.63 261.44,571.51 359.77,605.37 354.56,620.49" fill="rgb(4,0,20)" fill-opacity="0.502"/>
<g transform="translate(0.00 268.00) rotate(39) scale(68.00 196.00)"><ellipse cx="0" cy="0" rx="1" ry="1" fill="rgb(30,4,68)" fill-opacity="0.502"/></g>
<polygon points="271.31,698.94 258.24,678.81 328.69,633.06 341.76,653.19" fill="rgb(175,24,161)" fill-opacity="0.502"/>
<g transform="translate(580.00 304.00) rotate(130) scale(36.00 96.00)"><ellipse cx="0" cy="0" rx="1" ry="1" fill="rgb(12,0,26)" fill-opacity="0.502"/></g>
<polygon points="592.27,573.45 680.71,548.10 691.73,586.55 603.29,611.90" fill="rgb(176,23,167)" fill-opacity="0.502"/>
<circle cx="620.00" cy="388.00" r="16.00" fill="rgb(142,25,170)" fill-opacity="0.502"/>
<polygon points="175.26,857.50 290.59,785.44 328.74,846.50 213.41,918.56" fill="rgb(54,6,73)" fill-opacity="0.502"/>
<circle cx="208.00" cy="16.00" r="48.00" fill="rgb(151,31,175)" fill-opacity="0.502"/>
<circle cx="648.00" cy="996.00" r="40.00" fill="rgb(52,6,75)" fill-opacity="0.502"/>
<circle cx="684.00" cy="104.00" r="76.00" fill="rgb(19,2,52)" fill-opacity="0.502"/>
<polygon points="451.80,374.80 448.17,478.74 404.20,477.20 407.83,373.26" fill="rgb(23,3,60)" fill-opacity="0.502"/>
<circle cx="36.00" cy="436.00" r="76.00" fill="rgb(36,6,67)" fill-opacity="0.502"/>
<polygon points="516.00,452.00 616.00,452.00 616.00,468.00 516.00,468.00" fill="rgb(20,1,42)" fill-opacity="0.502"/>
<polygon points="294.23,777.67 256.04,736.71 305.77,690.33 343.96,731.29" fill="rgb(169,23,158)" fill-opacity="0.502"/>
<circle cx="0.00" cy="744.00" r="36.00" fill="rgb(186,26,179)" fill-opacity="0.502"/>
<circle cx="456.00" cy="872.00" r="60.00" fill="rgb(149,21,138)" fill-opacity="0.502"/>
<circle cx="516.00" cy="0.00" r="28.00" fill="rgb(0,0,8)" fill-opacity="0.502"/>
<polygon points="603.62,103.83 580.00,76.66 640.38,24.17 664.00,51.34" fill="rgb(26,4,64)" fill-opacity="0.502"/>
<polygon points="570.52,141.25 582.36,166.63 513.48,198.75 501.64,173.37" fill="rgb(0,0,1)" fill-opacity="0.502"/>
<g transform="translate(44.00 796.00) rotate(250) scale(12.00 220.00)"><ellipse cx="0" cy="0" rx="1" ry="1" fill="rgb(88,15,116)" fill-opacity="0.502"/></g>
<g transform="translate(476.00 960.00) rotate(2) scale(132.00 28.00)"><ellipse cx="0" cy="0" rx="1" ry="1" fill="rgb(65,10,88)" fill-opacity="0.502"/></g>
<g transform="translate(608.00 708.00) rotate(112) scale(68.00 128.00)"><ellipse cx="0" cy="0" rx="1" ry="1" fill="rgb(179,24,171)" fill-opacity="0.502"/></g>
<g transform="translate(104.00 168.00) rotate(70) scale(16.00 28.00)"><ellipse cx="0" cy="0" rx="1" ry="1" fill="rgb(59,9,80)" fill-opacity="0.502"/></g>
<circle cx="548.00" cy="152.00" r="80.00" fill="rgb(9,0,21)" fill-opacity="0.502"/>
<polygon points="691.80,931.99 623.32,954.24 612.20,920.01 680.68,897.76" fill="rgb(146,24,145)" fill-opacity="0.502"/>
<g transform="translate(336.00 480.00) rotate(172) scale(24.00 164.00)"><ellipse cx="0" cy="0" rx="1" ry="1" fill="rgb(8,0,22)" fill-opacity="0.502"/></g>
<circle cx="140.00" cy="516.00" r="12.00" fill="rgb(204,37,228)" fill-opacity="0.502"/>
<polygon points="252.70,568.94 104.60,534.75 107.30,523.06 255.40,557.25" fill="rgb(0,0,8)" fill-opacity="0.502"/>
<polygon points="475.98,583.62 382.13,651.80 368.02,632.38 461.87,564.20" fill="rgb(194,26,187)" fill-opacity="0.502"/>
<g transform="translate(252.00 216.00) rotate(198) scale(48.00 124.00)"><ellipse cx="0" cy="0" rx="1" ry="1" fill="rgb(15,1,36)" fill-opacity="0.502"/></g>
<g transform="translate(544.00 852.00) rotate(118) scale(52.00 96.00)"><ellipse cx="0" cy="0" rx="1" ry="1" fill="rgb(165,22,153)" fill-opacity="0.502"/></g>
<polygon points="575.14,7.90 615.40,34.04 608.86,44.10 568.60,17.96" fill="rgb(88,14,112)" fill-opacity="0.502"/>
<polygon points="484.13,162.12 457.09,154.88 479.87,69.88 506.91,77.12" fill="rgb(20,2,56)" fill-opacity="0.502"/>
<polygon points="611.73,434.05 488.68,469.33 484.27,453.95 607.32,418.67" fill="rgb(198,35,222)" fill-opacity="0.502"/>
<circle cx="12.00" cy="876.00" r="24.00" fill="rgb(42,3,64)" fill-opacity="0.502"/>
<polygon points="710.00,554.00 710.00,630.00 590.00,630.00 590.00,554.00" fill="rgb(176,23,167)" fill-opacity="0.502"/>
<polygon points="617.19,533.55 619.98,513.75 738.81,530.45 736.02,550.25" fill="rgb(0,0,12)" fill-opacity="0.502"/>
<circle cx="108.00" cy="656.00" r="64.00" fill="rgb(180,24,173)" fill-opacity="0.502"/>
<circle cx="124.00" cy="960.00" r="48.00" fill="rgb(68,11,89)" fill-opacity="0.502"/>
<circle cx="392.00" cy="1020.00" r="36.00" fill="rgb(44,2,57)" fill-opacity="0.502"/>
<g transform="translate(364.00 724.00) rotate(140) scale(16.00 88.00)"><ellipse cx="0" cy="0" rx="1" ry="1" fill="rgb(131,18,117)" fill-opacity="0.502"/></g>
<polygon points="254.52,114.67 219.06,108.42 229.48,49.33 264.94,55.58" fill="rgb(45,7,78)" fill-opacity="0.502"/>
<circle cx="100.00" cy="456.00" r="24.00" fill="rgb(21,3,56)" fill-opacity="0.502"/>
<polygon points="81.79,1016.12 7.19,1030.63 -5.79,963.88 68.81,949.37" fill="rgb(54,4,70)" fill-opacity="0.502"/>
<circle cx="372.00" cy="720.00" r="32.00" fill="rgb(167,24,158)" fill-opacity="0.502"/>
<circle cx="52.00" cy="672.00" r="76.00" fill="rgb(183,25,176)" fill-opacity="0.502"/>
<polygon points="227.51,536.16 234.04,526.09 304.49,571.84 297.96,581.91" fill="rgb(164,33,189)" fill-opacity="0.502"/>
<polygon points="488.30,512.34 498.30,529.66 411.70,579.66 401.70,562.34" fill="rgb(0,0,14)" fill-opacity="0.502"/>
<circle cx="384.00" cy="544.00" r="48.00" fill="rgb(14,0,38)" fill-opacity="0.502"/>
<circle cx="368.00" cy="52.00" r="32.00" fill="rgb(36,5,69)" fill-opacity="0.502"/>
<polygon points="316.17,703.09 340.80,635.43 355.83,640.91 331.20,708.57" fill="rgb(104,14,87)" fill-opacity="0.502"/>
<polygon points="628.77,455.99 507.05,479.65 503.23,460.01 624.95,436.35" fill="rgb(12,0,32)" fill-opacity="0.502"/>
<g transform="translate(196.00 652.00) rotate(297) scale(28.00 128.00)"><ellipse cx="0" cy="0" rx="1" ry="1" fill="rgb(169,23,158)" fill-opacity="0.502"/></g>
<circle cx="536.00" cy="308.00" r="84.00" fill="rgb(13,0,28)" fill-opacity="0.502"/>
<circle cx="504.00" cy="492.00" r="12.00" fill="rgb(205,36,227)" fill-opacity="0.502"/>
<circle cx="668.00" cy="460.00" r="16.00" fill="rgb(0,0,8)" fill-opacity="0.502"/>
<polygon points="465.97,451.53 545.56,397.84 550.03,404.47 470.44,458.16" fill="rgb(156,30,189)" fill-opacity="0.502"/>
<g transform="translate(288.00 408.00) rotate(357) scale(68.00 96.00)"><ellipse cx="0" cy="0" rx="1" ry="1" fill="rgb(12,0,26)" fill-opacity="0.502"/></g>
<polygon points="-11.44,691.79 -36.04,655.31 63.44,588.21 88.04,624.69" fill="rgb(185,25,178)" fill-opacity="0.502"/>
<g transform="translate(452.00 0.00) rotate(270) scale(16.00 144.00)"><ellipse cx="0" cy="0" rx="1" ry="1" fill="rgb(3,0,19)" fill-opacity="0.502"/></g>
<polygon points="650.05,499.99 650.05,499.99 725.95,496.01 725.95,496.01" fill="rgb(111,19,136)" fill-opacity="0.502"/>
<polygon points="553.00,33.01 596.19,41.41 571.00,170.99 527.81,162.59" fill="rgb(6,0,14)" fill-opacity="0.502"/>
<circle cx="608.00" cy="388.00" r="12.00" fill="rgb(192,37,221)" fill-opacity="0.502"/>
<polygon points="41.11,582.97 26.97,597.11 -21.11,549.03 -6.97,534.89" fill="rgb(11,0,48)" fill-opacity="0.502"/>
<circle cx="620.00" cy="400.00" r="8.00" fill="rgb(0,0,0)" fill-opacity="0.502"/>
<circle cx="664.00" cy="132.00" r="60.00" fill="rgb(18,1,44)" fill-opacity="0.502"/>
<circle cx="72.00" cy="56.00" r="68.00" fill="rgb(31,1,45)" fill-opacity="0.502"/>
<circle cx="40.00" cy="340.00" r="108.00" fill="rgb(29,5,66)" fill-opacity="0.502"/>
<g transform="translate(180.00 0.00) rotate(326) scale(52.00 36.00)"><ellipse cx="0" cy="0" rx="1" ry="1" fill="rgb(146,28,170)" fill-opacity="0.502"/></g>
<g transform="translate(164.00 708.00) rotate(147) scale(48.00 28.00)"><ellipse cx="0" cy="0" rx="1" ry="1" fill="rgb(159,23,151)" fill-opacity="0.502"/></g>
<polygon points="140.62,393.39 46.94,497.43 -0.62,454.61 93.06,350.57" fill="rgb(42,7,70)" fill-opacity="0.502"/>
<circle cx="472.00" cy="448.00" r="16.00" fill="rgb(5,0,33)" fill-opacity="0.502"/>
<polygon points="566.22,673.63 485.47,696.79 445.78,558.37 526.53,535.21" fill="rgb(174,23,166)" fill-opacity="0.502"/>
<circle cx="680.00" cy="408.00" r="16.00" fill="rgb(0,0,3)" fill-opacity="0.502"/>
<polygon points="53.71,967.12 3.17,921.62 126.29,784.88 176.83,830.38" fill="rgb(65,10,90)" fill-opacity="0.502"/>
<g transform="translate(680.00 932.00) rotate(216) scale(44.00 32.00)"><ellipse cx="0" cy="0" rx="1" ry="1" fill="rgb(149,23,146)" fill-opacity="0.502"/></g>
<circle cx="648.00" cy="820.00" r="56.00" fill="rgb(171,22,161)" fill-opacity="0.502"/>
<polygon points="344.43,587.53 320.47,624.43 283.57,600.47 307.53,563.57" fill="rgb(29,3,48)" fill-opacity="0.502"/>
<polygon points="567.14,916.02 542.59,942.35 492.86,895.98 517.41,869.65" fill="rgb(159,22,147)" fill-opacity="0.502"/>
<g transform="translate(456.00 696.00) rotate(216) scale(8.00 24.00)"><ellipse cx="0" cy="0" rx="1" ry="1" fill="rgb(63,13,111)" fill-opacity="0.502"/></g>
<circle cx="376.00" cy="584.00" r="28.00" fill="rgb(8,0,23)" fill-opacity="0.502"/>
<g transform="translate(588.00 716.00) rotate(65) scale(44.00 108.00)"><ellipse cx="0" cy="0" rx="1" ry="1" fill="rgb(183,24,175)" fill-opacity="0.502"/></g>
<circle cx="236.00" cy="620.00" r="20.00" fill="rgb(0,0,19)" fill-opacity="0.502"/>
<polygon points="53.52,580.46 56.52,573.05 82.48,583.54 79.48,590.95" fill="rgb(0,0,9)" fill-opacity="0.502"/>
<circle cx="268.00" cy="632.00" r="16.00" fill="rgb(0,0,17)" fill-opacity="0.502"/>
<circle cx="608.00" cy="0.00" r="32.00" fill="rgb(125,24,148)" fill-opacity="0.502"/>
<polygon points="97.78,236.27 212.65,220.12 218.22,259.73 103.35,275.88" fill="rgb(15,0,38)" fill-opacity="0.502"/>
<polygon points="230.68,310.91 217.09,466.32 157.32,461.09 170.91,305.68" fill="rgb(16,1,35)" fill-opacity="0.502"/>
<polygon points="274.60,522.56 247.11,517.22 249.40,505.44 276.89,510.78" fill="rgb(137,26,160)" fill-opacity="0.502"/>
<polygon points="368.64,762.68 388.64,797.32 319.36,837.32 299.36,802.68" fill="rgb(111,15,95)" fill-opacity="0.502"/>
<circle cx="256.00" cy="32.00" r="20.00" fill="rgb(141,26,165)" fill-opacity="0.502"/>
<circle cx="492.00" cy="592.00" r="48.00" fill="rgb(182,24,174)" fill-opacity="0.502"/>
<circle cx="328.00" cy="0.00" r="40.00" fill="rgb(6,0,20)" fill-opacity="0.502"/>
<polygon points="449.80,257.79 292.96,209.84 322.20,114.21 479.04,162.16" fill="rgb(13,0,26)" fill-opacity="0.502"/>
<polygon points="205.35,685.61 301.57,636.57 310.65,654.39 214.43,703.43" fill="rgb(177,24,168)" fill-opacity="0.502"/>
<polygon points="122.43,496.57 129.81,487.12 145.57,499.43 138.19,508.88" fill="rgb(0,0,0)" fill-opacity="0.502"/>
<g transform="translate(268.00 872.00) rotate(77) scale(40.00 40.00)"><ellipse cx="0" cy="0" rx="1" ry="1" fill="rgb(45,3,67)" fill-opacity="0.502"/></g>
<circle cx="144.00" cy="476.00" r="12.00" fill="rgb(207,36,231)" fill-opacity="0.502"/>
<polygon points="248.24,917.58 150.08,936.66 131.76,842.42 229.92,823.34" fill="rgb(55,7,75)" fill-opacity="0.502"/>
<polygon points="204.64,237.18 141.24,182.07 175.36,142.82 238.76,197.93" fill="rgb(19,2,57)" fill-opacity="0.502"/>
<circle cx="100.00" cy="116.00" r="28.00" fill="rgb(16,3,64)" fill-opacity="0.502"/>
<polygon points="380.67,694.93 413.03,679.15 439.33,733.07 406.97,748.85" fill="rgb(158,21,145)" fill-opacity="0.502"/>
<polygon points="235.94,971.98 255.20,997.54 220.06,1024.02 200.80,998.46" fill="rgb(31,2,38)" fill-opacity="0.502"/>
<polygon points="556.82,45.34 449.62,58.51 447.18,38.66 554.38,25.49" fill="rgb(52,8,74)" fill-opacity="0.502"/>
<circle cx="216.00" cy="0.00" r="48.00" fill="rgb(140,27,165)" fill-opacity="0.502"/>
<g transform="translate(416.00 72.00) rotate(1) scale(56.00 20.00)"><ellipse cx="0" cy="0" rx="1" ry="1" fill="rgb(17,3,63)" fill-opacity="0.502"/></g>
<g transform="translate(104.00 504.00) rotate(173) scale(92.00 8.00)"><ellipse cx="0" cy="0" rx="1" ry="1" fill="rgb(17,1,44)" fill-opacity="0.502"/></g>
<polygon points="404.22,335.37 434.48,345.79 379.78,504.63 349.52,494.21" fill="rgb(20,1,49)" fill-opacity="0.502"/>
<g transform="translate(36.00 852.00) rotate(109) scale(8.00 92.00)"><ellipse cx="0" cy="0" rx="1" ry="1" fill="rgb(74,11,101)" fill-opacity="0.502"/></g>
<polygon points="171.83,397.39 187.57,415.50 124.17,470.61 108.43,452.50" fill="rgb(14,1,35)" fill-opacity="0.502"/>
<polygon points="487.11,432.95 471.05,415.11 488.89,399.05 504.95,416.89" fill="rgb(0,0,12)" fill-opacity="0.502"/>
<circle cx="64.00" cy="660.00" r="72.00" fill="rgb(182,24,174)" fill-opacity="0.502"/>
<polygon points="711.67,528.52 696.02,551.74 636.33,511.48 651.98,488.26" fill="rgb(0,0,16)" fill-opacity="0.502"/>
<polygon points="508.58,105.77 497.07,94.66 555.42,34.23 566.93,45.34" fill="rgb(11,0,25)" fill-opacity="0.502"/>
<g transform="translate(220.00 680.00) rotate(209) scale(8.00 44.00)"><ellipse cx="0" cy="0" rx="1" ry="1" fill="rgb(140,22,135)" fill-opacity="0.502"/></g>
<g transform="translate(80.00 16.00) rotate(216) scale(68.00 40.00)"><ellipse cx="0" cy="0" rx="1" ry="1" fill="rgb(38,2,46)" fill-opacity="0.502"/></g>
<circle cx="0.00" cy="88.00" r="12.00" fill="rgb(132,25,150)" fill-opacity="0.502"/>
<circle cx="492.00" cy="452.00" r="4.00" fill="rgb(0,0,11)" fill-opacity="0.502"/>
<polygon points="631.65,952.02 630.95,955.96 540.35,939.98 541.05,936.04" fill="rgb(89,15,111)" fill-opacity="0.502"/>
<polygon points="87.38,965.31 99.23,963.43 108.62,1022.69 96.77,1024.57" fill="rgb(71,14,98)" fill-opacity="0.502"/>
<polygon points="322.65,928.03 373.86,937.06 361.35,1007.97 310.14,998.94" fill="rgb(49,4,66)" fill-opacity="0.502"/>
<g transform="translate(356.00 604.00) rotate(327) scale(52.00 24.00)"><ellipse cx="0" cy="0" rx="1" ry="1" fill="rgb(9,0,24)" fill-opacity="0.502"/></g>
<circle cx="376.00" cy="872.00" r="20.00" fill="rgb(109,14,94)" fill-opacity="0.502"/>
<circle cx="488.00" cy="240.00" r="64.00" fill="rgb(11,0,26)" fill-opacity="0.502"/>
<polygon points="31.57,778.59 -13.04,698.13 60.43,657.41 105.04,737.87" fill="rgb(179,23,170)" fill-opacity="0.502"/>
<polygon points="202.77,63.24 114.33,88.60 113.23,84.76 201.67,59.40" fill="rgb(64,9,93)" fill-opacity="0.502"/>
<polygon points="148.62,73.53 131.72,-33.15 159.38,-37.53 176.28,69.15" fill="rgb(155,29,184)" fill-opacity="0.502"/>
<polygon points="598.44,85.50 676.85,45.55 689.56,70.50 611.15,110.45" fill="rgb(22,3,65)" fill-opacity="0.502"/>
<g transform="translate(244.00 592.00) rotate(142) scale(8.00 28.00)"><ellipse cx="0" cy="0" rx="1" ry="1" fill="rgb(141,26,158)" fill-opacity="0.502"/></g>
<circle cx="448.00" cy="164.00" r="48.00" fill="rgb(15,1,35)" fill-opacity="0.502"/>
<polygon points="489.30,484.57 402.70,534.57 354.70,451.43 441.30,401.43" fill="rgb(22,2,54)" fill-opacity="0.502"/>
<polygon points="744.84,363.41 746.58,383.34 595.16,396.59 593.42,376.66" fill="rgb(161,30,187)" fill-opacity="0.502"/>
<g transform="translate(468.00 532.00) rotate(71) scale(12.00 128.00)"><ellipse cx="0" cy="0" rx="1" ry="1" fill="rgb(8,0,30)" fill-opacity="0.502"/></g>
<polygon points="22.01,221.08 12.16,208.47 49.99,178.92 59.84,191.53" fill="rgb(51,8,76)" fill-opacity="0.502"/>
<circle cx="312.00" cy="600.00" r="12.00" fill="rgb(76,12,92)" fill-opacity="0.502"/>
<polygon points="580.00,228.00 688.00,228.00 688.00,240.00 580.00,240.00" fill="rgb(16,0,37)" fill-opacity="0.502"/>
<polygon points="51.35,787.14 -8.34,746.88 76.65,620.86 136.34,661.12" fill="rgb(180,24,172)" fill-opacity="0.502"/>
<circle cx="108.00" cy="520.00" r="12.00" fill="rgb(182,30,208)" fill-opacity="0.502"/>
<circle cx="172.00" cy="480.00" r="12.00" fill="rgb(187,37,216)" fill-opacity="0.502"/>
<g transform="translate(668.00 628.00) rotate(303) scale(72.00 120.00)"><ellipse cx="0" cy="0" rx="1" ry="1" fill="rgb(176,23,167)" fill-opacity="0.502"/></g>
<circle cx="676.00" cy="0.00" r="28.00" fill="rgb(121,25,149)" fill-opacity="0.502"/>
<g transform="translate(456.00 520.00) rotate(209) scale(4.00 20.00)"><ellipse cx="0" cy="0" rx="1" ry="1" fill="rgb(134,26,157)" fill-opacity="0.502"/></g>
<polygon points="438.13,888.06 444.43,915.34 389.87,927.94 383.57,900.66" fill="rgb(129,18,113)" fill-opacity="0.502"/>
<polygon points="419.57,540.93 534.92,507.85 540.43,527.07 425.08,560.15" fill="rgb(10,0,29)" fill-opacity="0.502"/>
<polygon points="59.95,241.95 57.03,218.13 188.05,202.05 190.97,225.87" fill="rgb(39,7,71)" fill-opacity="0.502"/>
<circle cx="488.00" cy="500.00" r="8.00" fill="rgb(219,39,249)" fill-opacity="0.502"/>
<g transform="translate(428.00 632.00) rotate(325) scale(88.00 16.00)"><ellipse cx="0" cy="0" rx="1" ry="1" fill="rgb(185,24,177)" fill-opacity="0.502"/></g>
<g transform="translate(576.00 316.00) rotate(108) scale(20.00 160.00)"><ellipse cx="0" cy="0" rx="1" ry="1" fill="rgb(12,0,29)" fill-opacity="0.502"/></g>
<g transform="translate(296.00 20.00) rotate(21) scale(28.00 28.00)"><ellipse cx="0" cy="0" rx="1" ry="1" fill="rgb(10,0,27)" fill-opacity="0.502"/></g>
<circle cx="168.00" cy="776.00" r="24.00" fill="rgb(84,11,104)" fill-opacity="0.502"/>
<polygon points="507.08,658.55 504.30,678.36 440.92,669.45 443.70,649.64" fill="rgb(158,21,145)" fill-opacity="0.502"/>
<polygon points="395.62,866.53 392.40,774.59 424.38,773.47 427.60,865.41" fill="rgb(136,19,121)" fill-opacity="0.502"/>
<g transform="translate(288.00 924.00) rotate(135) scale(56.00 12.00)"><ellipse cx="0" cy="0" rx="1" ry="1" fill="rgb(24,1,33)" fill-opacity="0.502"/></g>
<circle cx="0.00" cy="24.00" r="36.00" fill="rgb(16,1,31)" fill-opacity="0.502"/>
<g transform="translate(504.00 476.00) rotate(251) scale(4.00 96.00)"><ellipse cx="0" cy="0" rx="1" ry="1" fill="rgb(10,0,34)" fill-opacity="0.502"/></g>
<circle cx="16.00" cy="800.00" r="28.00" fill="rgb(86,14,115)" fill-opacity="0.502"/>
<polygon points="473.09,637.79 484.92,663.16 426.91,690.21 415.08,664.84" fill="rgb(159,22,146)" fill-opacity="0.502"/>
<circle cx="16.00" cy="524.00" r="44.00" fill="rgb(26,4,65)" fill-opacity="0.502"/>
<g transform="translate(344.00 896.00) rotate(187) scale(8.00 80.00)"><ellipse cx="0" cy="0" rx="1" ry="1" fill="rgb(44,4,58)" fill-opacity="0.502"/></g>
<g transform="translate(116.00 484.00) rotate(332) scale(24.00 8.00)"><ellipse cx="0" cy="0" rx="1" ry="1" fill="rgb(192,35,218)" fill-opacity="0.502"/></g>
<polygon points="207.17,166.22 350.77,202.02 348.83,209.78 205.23,173.98" fill="rgb(12,0,28)" fill-opacity="0.502"/>
<polygon points="-3.33,95.65 -3.33,95.65 3.33,64.35 3.33,64.35" fill="rgb(139,28,156)" fill-opacity="0.502"/>
<polygon points="89.34,594.96 152.34,637.46 98.66,717.04 35.66,674.54" fill="rgb(184,24,176)" fill-opacity="0.502"/>
<circle cx="244.00" cy="340.00" r="40.00" fill="rgb(15,1,33)" fill-opacity="0.502"/>
<g transform="translate(584.00 4.00) rotate(53) scale(16.00 16.00)"><ellipse cx="0" cy="0" rx="1" ry="1" fill="rgb(50,5,71)" fill-opacity="0.502"/></g>
<polygon points="618.54,717.29 662.67,682.82 709.46,742.71 665.33,777.18" fill="rgb(184,25,176)" fill-opacity="0.502"/>
<circle cx="532.00" cy="432.00" r="4.00" fill="rgb(0,0,0)" fill-opacity="0.502"/>
<polygon points="422.95,796.32 442.95,761.68 481.05,783.68 461.05,818.32" fill="rgb(163,22,152)" fill-opacity="0.502"/>
<circle cx="40.00" cy="300.00" r="60.00" fill="rgb(22,3,62)" fill-opacity="0.502"/>
<g transform="translate(384.00 684.00) rotate(240) scale(44.00 16.00)"><ellipse cx="0" cy="0" rx="1" ry="1" fill="rgb(174,23,164)" fill-opacity="0.502"/></g>
<polygon points="556.78,393.91 503.19,352.04 567.22,270.09 620.81,311.96" fill="rgb(11,0,25)" fill-opacity="0.502"/>
<polygon points="450.92,727.31 307.11,797.45 293.08,768.69 436.89,698.55" fill="rgb(141,20,132)" fill-opacity="0.502"/>
<polygon points="213.92,1037.19 349.46,931.29 374.08,962.81 238.54,1068.71" fill="rgb(54,5,68)" fill-opacity="0.502"/>
<polygon points="228.11,2.51 255.76,-1.87 263.89,49.49 236.24,53.87" fill="rgb(154,30,180)" fill-opacity="0.502"/>
<polygon points="632.00,316.00 688.00,316.00 688.00,364.00 632.00,364.00" fill="rgb(16,1,35)" fill-opacity="0.502"/>
<polygon points="591.97,293.40 541.51,280.82 556.03,222.60 606.49,235.18" fill="rgb(18,1,42)" fill-opacity="0.502"/>
<circle cx="688.00" cy="172.00" r="12.00" fill="rgb(10,0,17)" fill-opacity="0.502"/>
<polygon points="622.04,447.19 643.43,436.30 657.96,464.81 636.57,475.70" fill="rgb(18,2,39)" fill-opacity="0.502"/>
<polygon points="494.81,483.55 499.40,490.10 473.19,508.45 468.60,501.90" fill="rgb(186,35,214)" fill-opacity="0.502"/>
<polygon points="140.54,212.37 181.88,197.32 191.46,223.63 150.12,238.68" fill="rgb(19,3,62)" fill-opacity="0.502"/>
<g transform="translate(512.00 936.00) rotate(186) scale(116.00 4.00)"><ellipse cx="0" cy="0" rx="1" ry="1" fill="rgb(114,18,118)" fill-opacity="0.502"/></g>
<circle cx="180.00" cy="564.00" r="16.00" fill="rgb(164,31,192)" fill-opacity="0.502"/>
<circle cx="408.00" cy="100.00" r="32.00" fill="rgb(22,3,64)" fill-opacity="0.502"/>
<polygon points="607.55,112.37 595.81,109.88 612.45,31.63 624.19,34.12" fill="rgb(22,3,60)" fill-opacity="0.502"/>
<g transform="translate(412.00 696.00) rotate(151) scale(92.00 4.00)"><ellipse cx="0" cy="0" rx="1" ry="1" fill="rgb(163,22,152)" fill-opacity="0.502"/></g>
<circle cx="656.00" cy="276.00" r="36.00" fill="rgb(22,3,66)" fill-opacity="0.502"/>
<polygon points="290.77,662.20 116.13,751.18 105.23,729.80 279.87,640.82" fill="rgb(168,23,158)" fill-opacity="0.502"/>
<polygon points="658.85,942.13 598.26,911.26 609.15,889.87 669.74,920.74" fill="rgb(153,23,148)" fill-opacity="0.502"/>
<circle cx="44.00" cy="460.00" r="52.00" fill="rgb(38,6,69)" fill-opacity="0.502"/>
<polygon points="580.00,860.00 580.00,896.00 456.00,896.00 456.00,860.00" fill="rgb(162,22,150)" fill-opacity="0.502"/>
<circle cx="688.00" cy="996.00" r="32.00" fill="rgb(53,5,75)" fill-opacity="0.502"/>
<g transform="translate(36.00 296.00) rotate(239) scale(12.00 52.00)"><ellipse cx="0" cy="0" rx="1" ry="1" fill="rgb(38,7,69)" fill-opacity="0.502"/></g>
<polygon points="739.89,272.75 724.26,318.13 588.11,271.25 603.74,225.87" fill="rgb(23,3,62)" fill-opacity="0.502"/>
<circle cx="64.00" cy="924.00" r="24.00" fill="rgb(71,13,99)" fill-opacity="0.502"/>
<polygon points="410.61,788.71 418.79,761.93 449.39,771.29 441.21,798.07" fill="rgb(154,22,143)" fill-opacity="0.502"/>
<circle cx="632.00" cy="0.00" r="32.00" fill="rgb(126,25,151)" fill-opacity="0.502"/>
</g>
</svg>