<?xml version="1.0" standalone="no"?>
<svg xmlns="http://www.w3.org/2000/svg" width="692" height="1024" viewBox="0 0 692 1024" style="overflow:hidden">
<defs>
<clipPath id="c"><rect x="0" y="0" width="692" height="1024"/></clipPath>
</defs>
<rect width="692" height="1024" fill="rgb(72,9,85)"/>
<g clip-path="url(#c)">
<g transform="translate(532.00 720.00) rotate(118) scale(212.00 200.00)"><ellipse cx="0" cy="0" rx="1" ry="1" fill="rgb(255,36,237)" fill-opacity="0.502"/></g>
<circle cx="256.00" cy="140.00" r="348.00" fill="rgb(0,0,8)" fill-opacity="0.502"/>
<g transform="translate(124.00 4.00) rotate(249) scale(36.00 84.00)"><ellipse cx="0" cy="0" rx="1" ry="1" fill="rgb(225,45,255)" fill-opacity="0.502"/></g>
<g transform="translate(64.00 716.00) rotate(111) scale(128.00 204.00)"><ellipse cx="0" cy="0" rx="1" ry="1" fill="rgb(230,32,197)" fill-opacity="0.502"/></g>
<g transform="translate(300.00 568.00) rotate(95) scale(220.00 64.00)"><ellipse cx="0" cy="0" rx="1" ry="1" fill="rgb(0,0,9)" fill-opacity="0.502"/></g>
<circle cx="576.00" cy="152.00" r="200.00" fill="rgb(0,0,33)" fill-opacity="0.502"/>
<circle cx="644.00" cy="860.00" r="80.00" fill="rgb(180,25,162)" fill-opacity="0.502"/>
<g transform="translate(244.00 260.00) rotate(101) scale(220.00 236.00)"><ellipse cx="0" cy="0" rx="1" ry="1" fill="rgb(0,0,33)" fill-opacity="0.502"/></g>
<polygon points="156.00,900.00 572.00,900.00 572.00,1020.00 156.00,1020.00" fill="rgb(49,7,73)" fill-opacity="0.502"/>
<polygon points="286.78,873.96 321.62,734.24 465.22,770.04 430.38,909.76" fill="rgb(177,24,154)" fill-opacity="0.502"/>
<circle cx="500.00" cy="668.00" r="148.00" fill="rgb(194,25,180)" fill-opacity="0.502"/>
<circle cx="340.00" cy="512.00" r="72.00" fill="rgb(3,0,46)" fill-opacity="0.502"/>
<polygon points="630.29,458.89 423.84,484.24 409.71,369.11 616.16,343.76" fill="rgb(128,23,156)" fill-opacity="0.502"/>
<g transform="translate(688.00 332.00) rotate(356) scale(48.00 240.00)"><ellipse cx="0" cy="0" rx="1" ry="1" fill="rgb(0,0,37)" fill-opacity="0.502"/></g>
<circle cx="192.00" cy="712.00" r="68.00" fill="rgb(138,20,125)" fill-opacity="0.502"/>
<g transform="translate(196.00 812.00) rotate(56) scale(72.00 72.00)"><ellipse cx="0" cy="0" rx="1" ry="1" fill="rgb(129,18,116)" fill-opacity="0.502"/></g>
<g transform="translate(100.00 504.00) rotate(177) scale(92.00 56.00)"><ellipse cx="0" cy="0" rx="1" ry="1" fill="rgb(124,23,153)" fill-opacity="0.502"/></g>
<g transform="translate(24.00 356.00) rotate(283) scale(124.00 80.00)"><ellipse cx="0" cy="0" rx="1" ry="1" fill="rgb(14,2,61)" fill-opacity="0.502"/></g>
<g transform="translate(196.00 544.00) rotate(278) scale(44.00 68.00)"><ellipse cx="0" cy="0" rx="1" ry="1" fill="rgb(85,17,109)" fill-opacity="0.502"/></g>
<g transform="translate(48.00 644.00) rotate(31) scale(80.00 64.00)"><ellipse cx="0" cy="0" rx="1" ry="1" fill="rgb(185,24,174)" fill-opacity="0.502"/></g>
<circle cx="68.00" cy="936.00" r="100.00" fill="rgb(49,6,74)" fill-opacity="0.502"/>
<g transform="translate(376.00 344.00) rotate(167) scale(144.00 68.00)"><ellipse cx="0" cy="0" rx="1" ry="1" fill="rgb(12,0,36)" fill-opacity="0.502"/></g>
<polygon points="565.94,512.83 577.33,470.33 670.06,495.17 658.67,537.67" fill="rgb(0,0,0)" fill-opacity="0.502"/>
<polygon points="180.77,598.66 232.70,601.38 231.23,629.34 179.30,626.62" fill="rgb(0,0,0)" fill-opacity="0.502"/>
<g transform="translate(668.00 848.00) rotate(322) scale(80.00 100.00)"><ellipse cx="0" cy="0" rx="1" ry="1" fill="rgb(166,23,155)" fill-opacity="0.502"/></g>
<polygon points="286.78,580.36 364.11,613.18 317.22,723.64 239.89,690.82" fill="rgb(0,0,7)" fill-opacity="0.502"/>
<g transform="translate(560.00 388.00) rotate(177) scale(84.00 8.00)"><ellipse cx="0" cy="0" rx="1" ry="1" fill="rgb(0,0,0)" fill-opacity="0.502"/></g>
<g transform="translate(668.00 220.00) rotate(156) scale(140.00 144.00)"><ellipse cx="0" cy="0" rx="1" ry="1" fill="rgb(17,2,59)" fill-opacity="0.502"/></g>
<circle cx="56.00" cy="156.00" r="112.00" fill="rgb(26,4,72)" fill-opacity="0.502"/>
<circle cx="224.00" cy="168.00" r="88.00" fill="rgb(6,0,14)" fill-opacity="0.502"/>
<g transform="translate(648.00 672.00) rotate(193) scale(72.00 124.00)"><ellipse cx="0" cy="0" rx="1" ry="1" fill="rgb(168,23,157)" fill-opacity="0.502"/></g>
<polygon points="653.11,342.75 672.86,339.62 702.89,529.25 683.14,532.38" fill="rgb(0,0,4)" fill-opacity="0.502"/>
<circle cx="548.00" cy="0.00" r="52.00" fill="rgb(90,16,123)" fill-opacity="0.502"/>
<g transform="translate(240.00 388.00) rotate(41) scale(184.00 96.00)"><ellipse cx="0" cy="0" rx="1" ry="1" fill="rgb(13,0,33)" fill-opacity="0.502"/></g>
<polygon points="247.39,432.10 343.75,294.48 448.61,367.90 352.25,505.52" fill="rgb(21,2,56)" fill-opacity="0.502"/>
<polygon points="517.23,469.23 525.88,495.86 430.77,526.77 422.12,500.14" fill="rgb(0,0,0)" fill-opacity="0.502"/>
<g transform="translate(192.00 404.00) rotate(10) scale(112.00 64.00)"><ellipse cx="0" cy="0" rx="1" ry="1" fill="rgb(11,0,20)" fill-opacity="0.502"/></g>
<circle cx="68.00" cy="388.00" r="68.00" fill="rgb(17,2,47)" fill-opacity="0.502"/>
<g transform="translate(228.00 0.00) rotate(13) scale(44.00 64.00)"><ellipse cx="0" cy="0" rx="1" ry="1" fill="rgb(0,0,12)" fill-opacity="0.502"/></g>
<polygon points="236.14,582.80 230.62,602.02 199.86,593.20 205.38,573.98" fill="rgb(177,36,199)" fill-opacity="0.502"/>
<g transform="translate(332.00 52.00) rotate(79) scale(48.00 64.00)"><ellipse cx="0" cy="0" rx="1" ry="1" fill="rgb(32,5,84)" fill-opacity="0.502"/></g>
<polygon points="297.12,724.22 294.88,852.20 270.88,851.78 273.12,723.80" fill="rgb(0,0,0)" fill-opacity="0.502"/>
<polygon points="79.49,101.53 65.16,51.55 180.51,18.47 194.84,68.45" fill="rgb(58,9,93)" fill-opacity="0.502"/>
<circle cx="440.00" cy="952.00" r="60.00" fill="rgb(71,14,97)" fill-opacity="0.502"/>
<g transform="translate(652.00 0.00) rotate(184) scale(276.00 12.00)"><ellipse cx="0" cy="0" rx="1" ry="1" fill="rgb(138,24,163)" fill-opacity="0.502"/></g>
<g transform="translate(416.00 372.00) rotate(68) scale(28.00 64.00)"><ellipse cx="0" cy="0" rx="1" ry="1" fill="rgb(6,0,14)" fill-opacity="0.502"/></g>
<g transform="translate(468.00 124.00) rotate(360) scale(44.00 116.00)"><ellipse cx="0" cy="0" rx="1" ry="1" fill="rgb(6,0,12)" fill-opacity="0.502"/></g>
<g transform="translate(220.00 776.00) rotate(102) scale(104.00 36.00)"><ellipse cx="0" cy="0" rx="1" ry="1" fill="rgb(131,18,116)" fill-opacity="0.502"/></g>
<circle cx="8.00" cy="760.00" r="80.00" fill="rgb(170,23,158)" fill-opacity="0.502"/>
<circle cx="296.00" cy="564.00" r="32.00" fill="rgb(0,0,8)" fill-opacity="0.502"/>
<polygon points="288.00,244.00 376.00,244.00 376.00,516.00 288.00,516.00" fill="rgb(24,3,67)" fill-opacity="0.502"/>
<polygon points="25.81,829.61 238.53,867.12 230.19,914.39 17.47,876.88" fill="rgb(75,13,103)" fill-opacity="0.502"/>
<g transform="translate(592.00 260.00) rotate(222) scale(108.00 72.00)"><ellipse cx="0" cy="0" rx="1" ry="1" fill="rgb(23,3,59)" fill-opacity="0.502"/></g>
<circle cx="584.00" cy="432.00" r="16.00" fill="rgb(0,0,0)" fill-opacity="0.502"/>
<polygon points="663.50,543.25 664.54,523.28 692.50,524.75 691.46,544.72" fill="rgb(0,0,0)" fill-opacity="0.502"/>
<g transform="translate(72.00 20.00) rotate(217) scale(32.00 16.00)"><ellipse cx="0" cy="0" rx="1" ry="1" fill="rgb(162,32,196)" fill-opacity="0.502"/></g>
<g transform="translate(280.00 1004.00) rotate(194) scale(160.00 48.00)"><ellipse cx="0" cy="0" rx="1" ry="1" fill="rgb(45,3,58)" fill-opacity="0.502"/></g>
<g transform="translate(616.00 88.00) rotate(279) scale(84.00 116.00)"><ellipse cx="0" cy="0" rx="1" ry="1" fill="rgb(21,2,54)" fill-opacity="0.502"/></g>
<circle cx="0.00" cy="328.00" r="80.00" fill="rgb(29,5,71)" fill-opacity="0.502"/>
<g transform="translate(632.00 1020.00) rotate(329) scale(88.00 96.00)"><ellipse cx="0" cy="0" rx="1" ry="1" fill="rgb(51,7,78)" fill-opacity="0.502"/></g>
<circle cx="376.00" cy="820.00" r="72.00" fill="rgb(162,22,151)" fill-opacity="0.502"/>
<g transform="translate(488.00 660.00) rotate(320) scale(104.00 136.00)"><ellipse cx="0" cy="0" rx="1" ry="1" fill="rgb(184,25,176)" fill-opacity="0.502"/></g>
<g transform="translate(152.00 704.00) rotate(0) scale(76.00 92.00)"><ellipse cx="0" cy="0" rx="1" ry="1" fill="rgb(151,22,142)" fill-opacity="0.502"/></g>
<g transform="translate(676.00 604.00) rotate(308) scale(44.00 128.00)"><ellipse cx="0" cy="0" rx="1" ry="1" fill="rgb(157,23,147)" fill-opacity="0.502"/></g>
<polygon points="464.98,217.55 415.77,290.50 303.02,214.45 352.23,141.50" fill="rgb(10,0,16)" fill-opacity="0.502"/>
<g transform="translate(524.00 716.00) rotate(0) scale(136.00 196.00)"><ellipse cx="0" cy="0" rx="1" ry="1" fill="rgb(178,23,168)" fill-opacity="0.502"/></g>
<polygon points="173.06,488.96 169.25,508.59 78.94,491.04 82.75,471.41" fill="rgb(1,0,17)" fill-opacity="0.502"/>
<polygon points="454.21,489.27 568.78,471.12 573.79,502.73 459.22,520.88" fill="rgb(0,0,0)" fill-opacity="0.502"/>
<g transform="translate(148.00 560.00) rotate(20) scale(104.00 8.00)"><ellipse cx="0" cy="0" rx="1" ry="1" fill="rgb(190,36,213)" fill-opacity="0.502"/></g>
<circle cx="168.00" cy="592.00" r="24.00" fill="rgb(0,0,12)" fill-opacity="0.502"/>
<circle cx="44.00" cy="560.00" r="20.00" fill="rgb(0,0,6)" fill-opacity="0.502"/>
<g transform="translate(140.00 20.00) rotate(178) scale(44.00 16.00)"><ellipse cx="0" cy="0" rx="1" ry="1" fill="rgb(149,29,180)" fill-opacity="0.502"/></g>
<g transform="translate(620.00 860.00) rotate(75) scale(56.00 88.00)"><ellipse cx="0" cy="0" rx="1" ry="1" fill="rgb(162,22,151)" fill-opacity="0.502"/></g>
<g transform="translate(512.00 320.00) rotate(84) scale(36.00 96.00)"><ellipse cx="0" cy="0" rx="1" ry="1" fill="rgb(10,0,23)" fill-opacity="0.502"/></g>
<polygon points="77.93,548.33 158.26,572.89 150.07,599.67 69.74,575.11" fill="rgb(0,0,0)" fill-opacity="0.502"/>
<g transform="translate(228.00 296.00) rotate(39) scale(84.00 44.00)"><ellipse cx="0" cy="0" rx="1" ry="1" fill="rgb(11,0,22)" fill-opacity="0.502"/></g>
<polygon points="140.70,596.50 158.94,649.45 83.30,675.50 65.06,622.55" fill="rgb(163,23,153)" fill-opacity="0.502"/>
<polygon points="420.00,912.00 580.00,912.00 580.00,1020.00 420.00,1020.00" fill="rgb(66,11,89)" fill-opacity="0.502"/>
<circle cx="416.00" cy="520.00" r="20.00" fill="rgb(0,0,2)" fill-opacity="0.502"/>
<polygon points="513.66,458.33 516.16,442.52 662.34,465.67 659.84,481.48" fill="rgb(194,38,225)" fill-opacity="0.502"/>
<g transform="translate(564.00 404.00) rotate(91) scale(12.00 52.00)"><ellipse cx="0" cy="0" rx="1" ry="1" fill="rgb(200,37,228)" fill-opacity="0.502"/></g>
<g transform="translate(636.00 440.00) rotate(181) scale(36.00 16.00)"><ellipse cx="0" cy="0" rx="1" ry="1" fill="rgb(30,5,52)" fill-opacity="0.502"/></g>
<circle cx="416.00" cy="16.00" r="32.00" fill="rgb(40,5,72)" fill-opacity="0.502"/>
<circle cx="244.00" cy="596.00" r="24.00" fill="rgb(83,14,106)" fill-opacity="0.502"/>
<g transform="translate(8.00 496.00) rotate(106) scale(8.00 252.00)"><ellipse cx="0" cy="0" rx="1" ry="1" fill="rgb(14,0,35)" fill-opacity="0.502"/></g>
<polygon points="474.13,1051.70 434.57,929.97 525.87,900.30 565.43,1022.03" fill="rgb(67,11,87)" fill-opacity="0.502"/>
<polygon points="30.55,559.23 0.71,539.10 45.45,472.77 75.29,492.90" fill="rgb(123,20,147)" fill-opacity="0.502"/>
<circle cx="104.00" cy="500.00" r="12.00" fill="rgb(201,39,231)" fill-opacity="0.502"/>
<polygon points="497.82,426.62 502.49,441.92 334.18,493.38 329.51,478.08" fill="rgb(16,1,45)" fill-opacity="0.502"/>
<polygon points="405.39,878.44 417.99,823.87 546.61,853.56 534.01,908.13" fill="rgb(160,22,145)" fill-opacity="0.502"/>
<circle cx="40.00" cy="504.00" r="8.00" fill="rgb(252,43,255)" fill-opacity="0.502"/>
<g transform="translate(436.00 304.00) rotate(291) scale(116.00 48.00)"><ellipse cx="0" cy="0" rx="1" ry="1" fill="rgb(14,0,26)" fill-opacity="0.502"/></g>
<circle cx="416.00" cy="472.00" r="28.00" fill="rgb(132,23,160)" fill-opacity="0.502"/>
<circle cx="72.00" cy="460.00" r="12.00" fill="rgb(206,34,226)" fill-opacity="0.502"/>
<circle cx="220.00" cy="108.00" r="68.00" fill="rgb(11,0,26)" fill-opacity="0.502"/>
<g transform="translate(280.00 788.00) rotate(183) scale(8.00 92.00)"><ellipse cx="0" cy="0" rx="1" ry="1" fill="rgb(0,0,13)" fill-opacity="0.502"/></g>
<circle cx="512.00" cy="684.00" r="104.00" fill="rgb(184,25,177)" fill-opacity="0.502"/>
<polygon points="621.96,821.08 558.00,818.85 562.04,702.92 626.00,705.15" fill="rgb(182,24,175)" fill-opacity="0.502"/>
<g transform="translate(144.00 508.00) rotate(139) scale(8.00 12.00)"><ellipse cx="0" cy="0" rx="1" ry="1" fill="rgb(210,41,242)" fill-opacity="0.502"/></g>
<polygon points="612.76,470.43 696.14,509.31 679.24,545.57 595.86,506.69" fill="rgb(0,0,18)" fill-opacity="0.502"/>
<g transform="translate(452.00 456.00) rotate(318) scale(84.00 4.00)"><ellipse cx="0" cy="0" rx="1" ry="1" fill="rgb(148,25,167)" fill-opacity="0.502"/></g>
<polygon points="450.63,412.85 440.92,405.80 457.37,383.15 467.08,390.20" fill="rgb(196,32,217)" fill-opacity="0.502"/>
<circle cx="188.00" cy="504.00" r="12.00" fill="rgb(0,0,0)" fill-opacity="0.502"/>
<circle cx="24.00" cy="252.00" r="88.00" fill="rgb(26,3,59)" fill-opacity="0.502"/>
<g transform="translate(360.00 468.00) rotate(174) scale(96.00 12.00)"><ellipse cx="0" cy="0" rx="1" ry="1" fill="rgb(23,3,54)" fill-opacity="0.502"/></g>
<polygon points="498.91,208.79 553.25,161.55 645.09,267.21 590.75,314.45" fill="rgb(26,4,66)" fill-opacity="0.502"/>
<polygon points="578.96,443.93 503.37,435.98 505.04,420.07 580.63,428.02" fill="rgb(0,0,0)" fill-opacity="0.502"/>
<g transform="translate(68.00 640.00) rotate(80) scale(56.00 76.00)"><ellipse cx="0" cy="0" rx="1" ry="1" fill="rgb(170,23,159)" fill-opacity="0.502"/></g>
<circle cx="676.00" cy="116.00" r="84.00" fill="rgb(16,1,48)" fill-opacity="0.502"/>
<g transform="translate(336.00 292.00) rotate(71) scale(72.00 36.00)"><ellipse cx="0" cy="0" rx="1" ry="1" fill="rgb(23,3,67)" fill-opacity="0.502"/></g>
<g transform="translate(88.00 112.00) rotate(97) scale(48.00 96.00)"><ellipse cx="0" cy="0" rx="1" ry="1" fill="rgb(21,3,59)" fill-opacity="0.502"/></g>
<polygon points="643.22,384.59 567.57,358.54 572.78,343.41 648.43,369.46" fill="rgb(193,39,222)" fill-opacity="0.502"/>
<polygon points="340.71,824.15 330.70,887.36 283.29,879.85 293.30,816.64" fill="rgb(127,18,108)" fill-opacity="0.502"/>
<polygon points="346.84,962.37 353.46,886.66 433.16,893.63 426.54,969.34" fill="rgb(74,13,99)" fill-opacity="0.502"/>
<g transform="translate(656.00 8.00) rotate(64) scale(20.00 72.00)"><ellipse cx="0" cy="0" rx="1" ry="1" fill="rgb(71,12,98)" fill-opacity="0.502"/></g>
<g transform="translate(644.00 328.00) rotate(287) scale(28.00 60.00)"><ellipse cx="0" cy="0" rx="1" ry="1" fill="rgb(15,1,37)" fill-opacity="0.502"/></g>
<polygon points="4.98,968.24 48.18,976.64 39.02,1023.76 -4.18,1015.36" fill="rgb(33,2,46)" fill-opacity="0.502"/>
<g transform="translate(24.00 524.00) rotate(347) scale(64.00 4.00)"><ellipse cx="0" cy="0" rx="1" ry="1" fill="rgb(0,0,0)" fill-opacity="0.502"/></g>
<g transform="translate(324.00 84.00) rotate(313) scale(60.00 32.00)"><ellipse cx="0" cy="0" rx="1" ry="1" fill="rgb(21,3,64)" fill-opacity="0.502"/></g>
<polygon points="88.29,241.57 136.29,158.43 191.71,190.43 143.71,273.57" fill="rgb(17,1,40)" fill-opacity="0.502"/>
<circle cx="496.00" cy="376.00" r="12.00" fill="rgb(210,36,235)" fill-opacity="0.502"/>
<polygon points="636.00,180.00 688.00,180.00 688.00,320.00 636.00,320.00" fill="rgb(26,4,66)" fill-opacity="0.502"/>
<polygon points="525.81,352.10 560.89,360.20 558.19,371.90 523.11,363.80" fill="rgb(211,38,240)" fill-opacity="0.502"/>
<g transform="translate(20.00 472.00) rotate(317) scale(68.00 8.00)"><ellipse cx="0" cy="0" rx="1" ry="1" fill="rgb(7,0,41)" fill-opacity="0.502"/></g>
<polygon points="435.98,773.50 384.02,803.50 328.02,706.50 379.98,676.50" fill="rgb(170,23,159)" fill-opacity="0.502"/>
<polygon points="646.78,954.59 680.33,1004.33 637.22,1033.41 603.67,983.67" fill="rgb(54,6,71)" fill-opacity="0.502"/>
<polygon points="349.44,536.68 380.73,578.21 246.56,679.32 215.27,637.79" fill="rgb(10,0,31)" fill-opacity="0.502"/>
<g transform="translate(520.00 460.00) rotate(2) scale(68.00 4.00)"><ellipse cx="0" cy="0" rx="1" ry="1" fill="rgb(205,34,224)" fill-opacity="0.502"/></g>
<g transform="translate(208.00 564.00) rotate(299) scale(4.00 104.00)"><ellipse cx="0" cy="0" rx="1" ry="1" fill="rgb(0,0,2)" fill-opacity="0.502"/></g>
<circle cx="188.00" cy="820.00" r="40.00" fill="rgb(146,21,133)" fill-opacity="0.502"/>
<g transform="translate(488.00 352.00) rotate(212) scale(12.00 20.00)"><ellipse cx="0" cy="0" rx="1" ry="1" fill="rgb(7,0,25)" fill-opacity="0.502"/></g>
<circle cx="172.00" cy="644.00" r="24.00" fill="rgb(149,22,139)" fill-opacity="0.502"/>
<polygon points="178.34,857.23 188.26,908.27 113.66,922.77 103.74,871.73" fill="rgb(71,11,91)" fill-opacity="0.502"/>
<circle cx="40.00" cy="396.00" r="64.00" fill="rgb(19,2,51)" fill-opacity="0.502"/>
<g transform="translate(388.00 924.00) rotate(103) scale(28.00 136.00)"><ellipse cx="0" cy="0" rx="1" ry="1" fill="rgb(72,12,96)" fill-opacity="0.502"/></g>
<polygon points="592.69,1019.44 528.70,1020.55 527.31,940.56 591.30,939.45" fill="rgb(58,6,76)" fill-opacity="0.502"/>
<polygon points="96.96,504.15 49.55,511.66 47.04,495.85 94.45,488.34" fill="rgb(208,37,232)" fill-opacity="0.502"/>
<circle cx="472.00" cy="384.00" r="12.00" fill="rgb(208,36,232)" fill-opacity="0.502"/>
<circle cx="360.00" cy="668.00" r="16.00" fill="rgb(147,21,133)" fill-opacity="0.502"/>
<polygon points="265.94,167.79 417.22,115.70 438.06,176.21 286.78,228.30" fill="rgb(12,0,24)" fill-opacity="0.502"/>
<g transform="translate(584.00 940.00) rotate(283) scale(24.00 124.00)"><ellipse cx="0" cy="0" rx="1" ry="1" fill="rgb(71,12,96)" fill-opacity="0.502"/></g>
<g transform="translate(0.00 852.00) rotate(257) scale(16.00 40.00)"><ellipse cx="0" cy="0" rx="1" ry="1" fill="rgb(75,11,106)" fill-opacity="0.502"/></g>
<polygon points="405.09,506.39 391.97,521.48 382.91,513.61 396.03,498.52" fill="rgb(140,27,167)" fill-opacity="0.502"/>
<g transform="translate(256.00 892.00) rotate(12) scale(248.00 16.00)"><ellipse cx="0" cy="0" rx="1" ry="1" fill="rgb(74,12,98)" fill-opacity="0.502"/></g>
<circle cx="0.00" cy="380.00" r="60.00" fill="rgb(26,4,71)" fill-opacity="0.502"/>
<polygon points="656.41,486.10 673.90,476.41 683.59,493.90 666.10,503.59" fill="rgb(114,21,143)" fill-opacity="0.502"/>
<polygon points="250.84,687.60 139.15,784.70 97.16,736.40 208.85,639.30" fill="rgb(142,20,132)" fill-opacity="0.502"/>
<circle cx="484.00" cy="416.00" r="12.00" fill="rgb(216,35,236)" fill-opacity="0.502"/>
<g transform="translate(680.00 632.00) rotate(163) scale(20.00 104.00)"><ellipse cx="0" cy="0" rx="1" ry="1" fill="rgb(145,23,144)" fill-opacity="0.502"/></g>
<polygon points="354.64,600.64 225.94,492.65 277.36,431.36 406.06,539.35" fill="rgb(12,0,34)" fill-opacity="0.502"/>
<g transform="translate(540.00 380.00) rotate(274) scale(4.00 20.00)"><ellipse cx="0" cy="0" rx="1" ry="1" fill="rgb(0,0,0)" fill-opacity="0.502"/></g>
<circle cx="604.00" cy="388.00" r="16.00" fill="rgb(0,0,14)" fill-opacity="0.502"/>
<g transform="translate(256.00 456.00) rotate(259) scale(76.00 28.00)"><ellipse cx="0" cy="0" rx="1" ry="1" fill="rgb(8,0,17)" fill-opacity="0.502"/></g>
<circle cx="648.00" cy="276.00" r="44.00" fill="rgb(24,4,66)" fill-opacity="0.502"/>
<g transform="translate(96.00 424.00) rotate(0) scale(52.00 24.00)"><ellipse cx="0" cy="0" rx="1" ry="1" fill="rgb(12,0,25)" fill-opacity="0.502"/></g>
<polygon points="377.76,626.93 368.37,644.59 354.24,637.07 363.63,619.41" fill="rgb(124,19,119)" fill-opacity="0.502"/>
<circle cx="348.00" cy="504.00" r="40.00" fill="rgb(23,3,65)" fill-opacity="0.502"/>
<g transform="translate(208.00 48.00) rotate(3) scale(24.00 272.00)"><ellipse cx="0" cy="0" rx="1" ry="1" fill="rgb(11,0,25)" fill-opacity="0.502"/></g>
<circle cx="56.00" cy="276.00" r="24.00" fill="rgb(41,7,73)" fill-opacity="0.502"/>
<circle cx="148.00" cy="364.00" r="80.00" fill="rgb(15,1,31)" fill-opacity="0.502"/>
<polygon points="316.03,822.04 394.67,766.98 435.97,825.96 357.33,881.02" fill="rgb(163,22,152)" fill-opacity="0.502"/>
<circle cx="616.00" cy="100.00" r="28.00" fill="rgb(14,0,29)" fill-opacity="0.502"/>
<circle cx="64.00" cy="40.00" r="16.00" fill="rgb(159,29,187)" fill-opacity="0.502"/>
<polygon points="99.30,486.96 168.84,505.59 164.70,521.04 95.16,502.41" fill="rgb(162,31,189)" fill-opacity="0.502"/>
<polygon points="264.83,951.41 249.90,945.68 287.17,848.59 302.10,854.32" fill="rgb(73,10,79)" fill-opacity="0.502"/>
<polygon points="230.57,576.54 224.06,595.45 61.43,539.46 67.94,520.55" fill="rgb(153,28,174)" fill-opacity="0.502"/>
<circle cx="640.00" cy="412.00" r="28.00" fill="rgb(81,15,108)" fill-opacity="0.502"/>
<polygon points="358.25,630.45 355.65,638.01 249.75,601.55 252.35,593.99" fill="rgb(10,0,26)" fill-opacity="0.502"/>
<circle cx="608.00" cy="436.00" r="12.00" fill="rgb(0,0,0)" fill-opacity="0.502"/>
<polygon points="520.65,838.91 594.83,868.88 575.35,917.09 501.17,887.12" fill="rgb(168,22,155)" fill-opacity="0.502"/>
<circle cx="676.00" cy="420.00" r="20.00" fill="rgb(0,0,15)" fill-opacity="0.502"/>
<polygon points="689.99,213.87 570.06,218.06 566.01,102.13 685.94,97.94" fill="rgb(20,2,52)" fill-opacity="0.502"/>
<g transform="translate(196.00 612.00) rotate(309) scale(8.00 80.00)"><ellipse cx="0" cy="0" rx="1" ry="1" fill="rgb(0,0,9)" fill-opacity="0.502"/></g>
<g transform="translate(652.00 1012.00) rotate(116) scale(44.00 144.00)"><ellipse cx="0" cy="0" rx="1" ry="1" fill="rgb(57,7,75)" fill-opacity="0.502"/></g>
<polygon points="171.21,80.31 148.27,140.06 84.79,115.69 107.73,55.94" fill="rgb(34,6,68)" fill-opacity="0.502"/>
<g transform="translate(200.00 996.00) rotate(53) scale(36.00 92.00)"><ellipse cx="0" cy="0" rx="1" ry="1" fill="rgb(54,6,71)" fill-opacity="0.502"/></g>
<polygon points="291.37,39.37 274.99,50.84 256.63,24.63 273.01,13.16" fill="rgb(48,8,85)" fill-opacity="0.502"/>
<circle cx="428.00" cy="424.00" r="24.00" fill="rgb(118,19,143)" fill-opacity="0.502"/>
<circle cx="336.00" cy="604.00" r="32.00" fill="rgb(13,1,35)" fill-opacity="0.502"/>
<polygon points="422.45,400.07 392.40,456.58 353.55,435.93 383.60,379.42" fill="rgb(9,0,26)" fill-opacity="0.502"/>
<polygon points="583.08,53.01 574.98,88.09 500.92,70.99 509.02,35.91" fill="rgb(25,4,68)" fill-opacity="0.502"/>
<circle cx="240.00" cy="552.00" r="32.00" fill="rgb(52,7,75)" fill-opacity="0.502"/>
<circle cx="344.00" cy="144.00" r="44.00" fill="rgb(16,1,38)" fill-opacity="0.502"/>
<g transform="translate(136.00 0.00) rotate(40) scale(28.00 24.00)"><ellipse cx="0" cy="0" rx="1" ry="1" fill="rgb(163,31,189)" fill-opacity="0.502"/></g>
<polygon points="672.90,833.68 605.49,923.13 599.10,918.32 666.51,828.87" fill="rgb(158,22,149)" fill-opacity="0.502"/>
<polygon points="582.85,508.79 559.71,481.21 581.15,463.21 604.29,490.79" fill="rgb(0,0,14)" fill-opacity="0.502"/>
<circle cx="152.00" cy="472.00" r="12.00" fill="rgb(180,36,204)" fill-opacity="0.502"/>
<polygon points="362.20,422.54 404.70,485.54 321.80,541.46 279.30,478.46" fill="rgb(20,2,55)" fill-opacity="0.502"/>
<polygon points="545.86,792.21 624.12,808.84 614.14,855.79 535.88,839.16" fill="rgb(175,23,165)" fill-opacity="0.502"/>
<circle cx="460.00" cy="848.00" r="56.00" fill="rgb(164,22,153)" fill-opacity="0.502"/>
<circle cx="56.00" cy="696.00" r="52.00" fill="rgb(166,22,153)" fill-opacity="0.502"/>
<polygon points="628.19,947.76 634.40,924.57 707.81,944.24 701.60,967.43" fill="rgb(87,15,109)" fill-opacity="0.502"/>
<polygon points="94.00,238.00 94.00,258.00 14.00,258.00 14.00,238.00" fill="rgb(10,0,26)" fill-opacity="0.502"/>
<circle cx="104.00" cy="68.00" r="32.00" fill="rgb(47,7,73)" fill-opacity="0.502"/>
<circle cx="52.00" cy="468.00" r="8.00" fill="rgb(242,40,255)" fill-opacity="0.502"/>
<g transform="translate(548.00 492.00) rotate(359) scale(100.00 24.00)"><ellipse cx="0" cy="0" rx="1" ry="1" fill="rgb(3,0,24)" fill-opacity="0.502"/></g>
<g transform="translate(516.00 540.00) rotate(315) scale(40.00 20.00)"><ellipse cx="0" cy="0" rx="1" ry="1" fill="rgb(178,24,171)" fill-opacity="0.502"/></g>
<circle cx="448.00" cy="572.00" r="44.00" fill="rgb(185,25,178)" fill-opacity="0.502"/>
<g transform="translate(688.00 76.00) rotate(28) scale(24.00 140.00)"><ellipse cx="0" cy="0" rx="1" ry="1" fill="rgb(21,2,56)" fill-opacity="0.502"/></g>
<circle cx="644.00" cy="400.00" r="20.00" fill="rgb(39,6,65)" fill-opacity="0.502"/>
<polygon points="333.64,575.63 367.87,586.75 302.36,788.37 268.13,777.25" fill="rgb(5,0,24)" fill-opacity="0.502"/>
<g transform="translate(0.00 1020.00) rotate(217) scale(12.00 32.00)"><ellipse cx="0" cy="0" rx="1" ry="1" fill="rgb(25,0,31)" fill-opacity="0.502"/></g>
<polygon points="223.13,523.96 225.96,521.13 276.87,572.04 274.04,574.87" fill="rgb(0,0,0)" fill-opacity="0.502"/>
<circle cx="8.00" cy="148.00" r="24.00" fill="rgb(49,8,79)" fill-opacity="0.502"/>
<circle cx="256.00" cy="616.00" r="12.00" fill="rgb(116,21,131)" fill-opacity="0.502"/>
<polygon points="618.61,361.49 624.65,356.24 661.39,398.51 655.35,403.76" fill="rgb(150,30,174)" fill-opacity="0.502"/>
<g transform="translate(548.00 212.00) rotate(172) scale(140.00 8.00)"><ellipse cx="0" cy="0" rx="1" ry="1" fill="rgb(14,0,35)" fill-opacity="0.502"/></g>
<polygon points="41.59,3.72 53.28,54.38 10.41,64.28 -1.28,13.62" fill="rgb(39,0,44)" fill-opacity="0.502"/>
<g transform="translate(440.00 732.00) rotate(229) scale(12.00 108.00)"><ellipse cx="0" cy="0" rx="1" ry="1" fill="rgb(183,24,175)" fill-opacity="0.502"/></g>
<circle cx="616.00" cy="608.00" r="52.00" fill="rgb(169,22,158)" fill-opacity="0.502"/>
<g transform="translate(688.00 824.00) rotate(25) scale(20.00 116.00)"><ellipse cx="0" cy="0" rx="1" ry="1" fill="rgb(153,23,148)" fill-opacity="0.502"/></g>
<polygon points="331.40,14.68 407.21,9.37 408.60,29.32 332.79,34.63" fill="rgb(58,8,80)" fill-opacity="0.502"/>
<circle cx="380.00" cy="80.00" r="28.00" fill="rgb(21,2,61)" fill-opacity="0.502"/>
<circle cx="228.00" cy="868.00" r="20.00" fill="rgb(115,15,103)" fill-opacity="0.502"/>
<g transform="translate(140.00 68.00) rotate(115) scale(40.00 32.00)"><ellipse cx="0" cy="0" rx="1" ry="1" fill="rgb(44,6,76)" fill-opacity="0.502"/></g>
<g transform="translate(24.00 400.00) rotate(196) scale(28.00 104.00)"><ellipse cx="0" cy="0" rx="1" ry="1" fill="rgb(26,4,65)" fill-opacity="0.502"/></g>
<circle cx="456.00" cy="428.00" r="12.00" fill="rgb(208,34,227)" fill-opacity="0.502"/>
<g transform="translate(244.00 776.00) rotate(283) scale(40.00 20.00)"><ellipse cx="0" cy="0" rx="1" ry="1" fill="rgb(109,15,94)" fill-opacity="0.502"/></g>
<polygon points="221.36,508.62 121.95,466.42 126.64,455.38 226.05,497.58" fill="rgb(163,33,191)" fill-opacity="0.502"/>
<circle cx="20.00" cy="640.00" r="28.00" fill="rgb(180,23,173)" fill-opacity="0.502"/>
<polygon points="441.44,21.99 364.84,86.27 354.56,74.01 431.16,9.73" fill="rgb(35,7,74)" fill-opacity="0.502"/>
<g transform="translate(312.00 588.00) rotate(298) scale(64.00 44.00)"><ellipse cx="0" cy="0" rx="1" ry="1" fill="rgb(15,0,32)" fill-opacity="0.502"/></g>
<g transform="translate(120.00 908.00) rotate(202) scale(112.00 24.00)"><ellipse cx="0" cy="0" rx="1" ry="1" fill="rgb(62,8,80)" fill-opacity="0.502"/></g>
<circle cx="104.00" cy="1020.00" r="48.00" fill="rgb(66,10,82)" fill-opacity="0.502"/>
<circle cx="144.00" cy="792.00" r="56.00" fill="rgb(146,22,138)" fill-opacity="0.502"/>
<polygon points="385.55,587.41 400.38,593.40 334.45,756.59 319.62,750.60" fill="rgb(161,22,147)" fill-opacity="0.502"/>
<circle cx="120.00" cy="184.00" r="24.00" fill="rgb(22,3,67)" fill-opacity="0.502"/>
<g transform="translate(264.00 696.00) rotate(67) scale(92.00 8.00)"><ellipse cx="0" cy="0" rx="1" ry="1" fill="rgb(6,0,18)" fill-opacity="0.502"/></g>
<g transform="translate(464.00 60.00) rotate(118) scale(64.00 36.00)"><ellipse cx="0" cy="0" rx="1" ry="1" fill="rgb(8,0,20)" fill-opacity="0.502"/></g>
<g transform="translate(408.00 156.00) rotate(286) scale(104.00 20.00)"><ellipse cx="0" cy="0" rx="1" ry="1" fill="rgb(10,0,21)" fill-opacity="0.502"/></g>
<polygon points="531.99,345.22 463.68,378.54 376.01,198.78 444.32,165.46" fill="rgb(13,0,28)" fill-opacity="0.502"/>
<polygon points="503.18,323.31 435.90,260.57 476.82,216.69 544.10,279.43" fill="rgb(15,1,34)" fill-opacity="0.502"/>
<circle cx="484.00" cy="596.00" r="76.00" fill="rgb(183,24,176)" fill-opacity="0.502"/>
<polygon points="635.74,567.30 482.54,695.86 436.26,640.70 589.46,512.14" fill="rgb(180,24,171)" fill-opacity="0.502"/>
<g transform="translate(356.00 520.00) rotate(97) scale(108.00 28.00)"><ellipse cx="0" cy="0" rx="1" ry="1" fill="rgb(20,2,54)" fill-opacity="0.502"/></g>
<polygon points="282.16,46.12 338.02,50.03 333.84,109.88 277.98,105.97" fill="rgb(23,3,66)" fill-opacity="0.502"/>
<g transform="translate(72.00 120.00) rotate(128) scale(20.00 72.00)"><ellipse cx="0" cy="0" rx="1" ry="1" fill="rgb(17,1,50)" fill-opacity="0.502"/></g>
<g transform="translate(436.00 968.00) rotate(248) scale(32.00 56.00)"><ellipse cx="0" cy="0" rx="1" ry="1" fill="rgb(64,10,81)" fill-opacity="0.502"/></g>
<circle cx="492.00" cy="1020.00" r="76.00" fill="rgb(66,10,87)" fill-opacity="0.502"/>
<polygon points="352.21,841.28 332.58,845.10 315.79,758.72 335.42,754.90" fill="rgb(150,22,140)" fill-opacity="0.502"/>
<circle cx="20.00" cy="768.00" r="68.00" fill="rgb(163,23,151)" fill-opacity="0.502"/>
<g transform="translate(116.00 300.00) rotate(197) scale(16.00 164.00)"><ellipse cx="0" cy="0" rx="1" ry="1" fill="rgb(18,1,40)" fill-opacity="0.502"/></g>
<polygon points="621.03,343.23 638.58,326.86 714.97,408.77 697.42,425.14" fill="rgb(10,0,26)" fill-opacity="0.502"/>
<polygon points="340.95,819.90 430.83,863.74 415.05,896.10 325.17,852.26" fill="rgb(152,22,141)" fill-opacity="0.502"/>
<polygon points="19.10,830.85 25.98,787.39 112.90,801.15 106.02,844.61" fill="rgb(153,22,143)" fill-opacity="0.502"/>
<polygon points="521.67,605.17 501.64,731.59 446.33,722.83 466.36,596.41" fill="rgb(187,24,180)" fill-opacity="0.502"/>
<circle cx="284.00" cy="528.00" r="24.00" fill="rgb(9,0,18)" fill-opacity="0.502"/>
<circle cx="540.00" cy="484.00" r="20.00" fill="rgb(5,0,22)" fill-opacity="0.502"/>
<g transform="translate(408.00 604.00) rotate(80) scale(24.00 28.00)"><ellipse cx="0" cy="0" rx="1" ry="1" fill="rgb(185,25,178)" fill-opacity="0.502"/></g>
<circle cx="336.00" cy="948.00" r="36.00" fill="rgb(64,8,77)" fill-opacity="0.502"/>
<polygon points="275.90,264.57 316.82,220.69 384.10,283.43 343.18,327.31" fill="rgb(22,3,64)" fill-opacity="0.502"/>
<polygon points="116.05,586.46 126.57,564.88 291.95,645.54 281.43,667.12" fill="rgb(6,0,23)" fill-opacity="0.502"/>
<g transform="translate(388.00 880.00) rotate(195) scale(68.00 8.00)"><ellipse cx="0" cy="0" rx="1" ry="1" fill="rgb(145,21,135)" fill-opacity="0.502"/></g>
<g transform="translate(508.00 340.00) rotate(299) scale(16.00 28.00)"><ellipse cx="0" cy="0" rx="1" ry="1" fill="rgb(12,0,29)" fill-opacity="0.502"/></g>
<circle cx="228.00" cy="464.00" r="28.00" fill="rgb(9,0,21)" fill-opacity="0.502"/>
<circle cx="436.00" cy="792.00" r="32.00" fill="rgb(171,23,162)" fill-opacity="0.502"/>
<polygon points="504.04,1022.62 440.29,1017.04 447.96,929.38 511.71,934.96" fill="rgb(67,11,88)" fill-opacity="0.502"/>
<circle cx="516.00" cy="0.00" r="12.00" fill="rgb(135,25,160)" fill-opacity="0.502"/>
<g transform="translate(612.00 32.00) rotate(88) scale(16.00 112.00)"><ellipse cx="0" cy="0" rx="1" ry="1" fill="rgb(40,7,71)" fill-opacity="0.502"/></g>
<polygon points="451.43,503.19 439.12,537.02 416.57,528.81 428.88,494.98" fill="rgb(0,0,21)" fill-opacity="0.502"/>
<polygon points="680.17,891.07 695.97,893.57 687.83,944.93 672.03,942.43" fill="rgb(144,23,140)" fill-opacity="0.502"/>
<g transform="translate(24.00 540.00) rotate(88) scale(8.00 72.00)"><ellipse cx="0" cy="0" rx="1" ry="1" fill="rgb(212,35,232)" fill-opacity="0.502"/></g>
<circle cx="688.00" cy="388.00" r="28.00" fill="rgb(8,0,24)" fill-opacity="0.502"/>
<g transform="translate(104.00 664.00) rotate(154) scale(88.00 48.00)"><ellipse cx="0" cy="0" rx="1" ry="1" fill="rgb(158,22,148)" fill-opacity="0.502"/></g>
<polygon points="276.21,283.08 315.06,303.73 303.79,324.92 264.94,304.27" fill="rgb(15,0,37)" fill-opacity="0.502"/>
<circle cx="512.00" cy="368.00" r="8.00" fill="rgb(233,42,255)" fill-opacity="0.502"/>
<g transform="translate(244.00 372.00) rotate(2) scale(40.00 96.00)"><ellipse cx="0" cy="0" rx="1" ry="1" fill="rgb(10,0,23)" fill-opacity="0.502"/></g>
<polygon points="161.87,967.76 110.51,975.89 106.13,948.24 157.49,940.11" fill="rgb(51,5,63)" fill-opacity="0.502"/>
<polygon points="372.18,383.08 358.42,402.74 315.82,372.92 329.58,353.26" fill="rgb(22,2,61)" fill-opacity="0.502"/>
<g transform="translate(24.00 692.00) rotate(69) scale(20.00 112.00)"><ellipse cx="0" cy="0" rx="1" ry="1" fill="rgb(169,22,158)" fill-opacity="0.502"/></g>
<polygon points="159.47,95.84 207.77,137.82 160.53,192.16 112.23,150.18" fill="rgb(15,1,37)" fill-opacity="0.502"/>
<circle cx="444.00" cy="420.00" r="8.00" fill="rgb(0,0,1)" fill-opacity="0.502"/>
<g transform="translate(40.00 492.00) rotate(69) scale(4.00 52.00)"><ellipse cx="0" cy="0" rx="1" ry="1" fill="rgb(0,0,11)" fill-opacity="0.502"/></g>
<polygon points="239.62,573.74 233.00,550.67 248.38,546.26 255.00,569.33" fill="rgb(112,21,136)" fill-opacity="0.502"/>
<circle cx="524.00" cy="140.00" r="40.00" fill="rgb(17,1,43)" fill-opacity="0.502"/>
<polygon points="633.00,399.11 617.09,400.78 615.00,380.89 630.91,379.22" fill="rgb(0,0,18)" fill-opacity="0.502"/>
<circle cx="284.00" cy="800.00" r="16.00" fill="rgb(2,0,15)" fill-opacity="0.502"/>
<polygon points="628.08,162.42 639.58,293.91 551.92,301.58 540.42,170.09" fill="rgb(25,4,64)" fill-opacity="0.502"/>
<polygon points="10.03,209.64 39.16,188.48 57.97,214.36 28.84,235.52" fill="rgb(40,8,74)" fill-opacity="0.502"/>
<polygon points="405.07,504.67 393.48,501.56 406.93,451.33 418.52,454.44" fill="rgb(118,22,144)" fill-opacity="0.502"/>
<polygon points="489.68,449.08 495.53,468.21 434.32,486.92 428.47,467.79" fill="rgb(214,35,232)" fill-opacity="0.502"/>
<polygon points="221.75,643.63 92.31,571.87 94.25,568.37 223.69,640.13" fill="rgb(18,0,33)" fill-opacity="0.502"/>
<circle cx="216.00" cy="764.00" r="28.00" fill="rgb(138,18,123)" fill-opacity="0.502"/>
<circle cx="280.00" cy="140.00" r="16.00" fill="rgb(18,1,39)" fill-opacity="0.502"/>
<polygon points="24.72,260.75 102.97,244.12 111.28,283.25 33.03,299.88" fill="rgb(33,6,69)" fill-opacity="0.502"/>
<circle cx="0.00" cy="564.00" r="16.00" fill="rgb(0,0,4)" fill-opacity="0.502"/>
<polygon points="174.56,17.14 192.83,25.28 181.44,50.86 163.17,42.72" fill="rgb(71,10,104)" fill-opacity="0.502"/>
<polygon points="287.69,627.88 273.10,545.15 324.31,536.12 338.90,618.85" fill="rgb(10,0,22)" fill-opacity="0.502"/>
<polygon points="668.77,462.32 686.23,493.80 679.23,497.68 661.77,466.20" fill="rgb(4,0,22)" fill-opacity="0.502"/>
<polygon points="456.91,1058.33 384.70,962.49 391.09,957.67 463.30,1053.51" fill="rgb(60,7,77)" fill-opacity="0.502"/>
<polygon points="16.06,837.61 272.11,882.76 267.94,906.39 11.89,861.24" fill="rgb(74,11,99)" fill-opacity="0.502"/>
<circle cx="688.00" cy="336.00" r="40.00" fill="rgb(21,2,56)" fill-opacity="0.502"/>
<circle cx="464.00" cy="444.00" r="12.00" fill="rgb(0,0,3)" fill-opacity="0.502"/>
<polygon points="263.83,116.23 287.12,225.79 240.17,235.77 216.88,126.21" fill="rgb(8,0,18)" fill-opacity="0.502"/>
<polygon points="145.02,703.84 135.56,636.51 194.98,628.16 204.44,695.49" fill="rgb(142,21,134)" fill-opacity="0.502"/>
<circle cx="444.00" cy="312.00" r="64.00" fill="rgb(13,0,29)" fill-opacity="0.502"/>
<circle cx="392.00" cy="780.00" r="40.00" fill="rgb(172,23,162)" fill-opacity="0.502"/>
<polygon points="687.11,703.87 717.71,713.22 656.89,912.13 626.29,902.78" fill="rgb(159,23,150)" fill-opacity="0.502"/>
<polygon points="252.00,764.00 264.00,764.00 264.00,872.00 252.00,872.00" fill="rgb(87,9,66)" fill-opacity="0.502"/>
<circle cx="132.00" cy="376.00" r="36.00" fill="rgb(17,1,38)" fill-opacity="0.502"/>
</g>
</svg>