<?xml version="1.0" standalone="no"?>
<svg xmlns="http://www.w3.org/2000/svg" width="692" height="1024" viewBox="0 0 692 1024" style="overflow:hidden">
<defs>
<clipPath id="c"><rect x="0" y="0" width="692" height="1024"/></clipPath>
</defs>
<rect width="692" height="1024" fill="rgb(74,10,88)"/>
<g clip-path="url(#c)">
<circle cx="528.00" cy="720.00" r="204.00" fill="rgb(255,36,241)" fill-opacity="0.502"/>
<circle cx="268.00" cy="92.00" r="384.00" fill="rgb(0,0,5)" fill-opacity="0.502"/>
<g transform="translate(92.00 712.00) rotate(210) scale(180.00 132.00)"><ellipse cx="0" cy="0" rx="1" ry="1" fill="rgb(238,32,208)" fill-opacity="0.502"/></g>
<g transform="translate(128.00 0.00) rotate(0) scale(68.00 40.00)"><ellipse cx="0" cy="0" rx="1" ry="1" fill="rgb(226,44,255)" fill-opacity="0.502"/></g>
<circle cx="560.00" cy="184.00" r="176.00" fill="rgb(0,0,32)" fill-opacity="0.502"/>
<polygon points="593.55,334.07 633.68,438.63 510.45,485.93 470.32,381.37" fill="rgb(123,22,150)" fill-opacity="0.502"/>
<circle cx="276.00" cy="512.00" r="136.00" fill="rgb(6,1,35)" fill-opacity="0.502"/>
<polygon points="169.61,865.82 179.64,770.35 406.39,794.18 396.36,889.65" fill="rgb(155,21,135)" fill-opacity="0.502"/>
<g transform="translate(660.00 888.00) rotate(194) scale(160.00 56.00)"><ellipse cx="0" cy="0" rx="1" ry="1" fill="rgb(183,25,162)" fill-opacity="0.502"/></g>
<circle cx="408.00" cy="780.00" r="104.00" fill="rgb(195,25,178)" fill-opacity="0.502"/>
<g transform="translate(480.00 644.00) rotate(24) scale(120.00 112.00)"><ellipse cx="0" cy="0" rx="1" ry="1" fill="rgb(201,25,187)" fill-opacity="0.502"/></g>
<circle cx="284.00" cy="260.00" r="212.00" fill="rgb(0,0,27)" fill-opacity="0.502"/>
<circle cx="144.00" cy="516.00" r="76.00" fill="rgb(107,19,129)" fill-opacity="0.502"/>
<circle cx="0.00" cy="276.00" r="184.00" fill="rgb(11,1,59)" fill-opacity="0.502"/>
<circle cx="688.00" cy="256.00" r="128.00" fill="rgb(9,1,54)" fill-opacity="0.502"/>
<polygon points="290.52,823.77 226.23,801.63 313.48,548.23 377.77,570.37" fill="rgb(0,0,0)" fill-opacity="0.502"/>
<circle cx="584.00" cy="0.00" r="64.00" fill="rgb(96,18,137)" fill-opacity="0.502"/>
<circle cx="108.00" cy="888.00" r="72.00" fill="rgb(56,10,88)" fill-opacity="0.502"/>
<g transform="translate(296.00 640.00) rotate(155) scale(56.00 52.00)"><ellipse cx="0" cy="0" rx="1" ry="1" fill="rgb(0,0,11)" fill-opacity="0.502"/></g>
<circle cx="476.00" cy="952.00" r="64.00" fill="rgb(57,11,87)" fill-opacity="0.502"/>
<g transform="translate(140.00 136.00) rotate(277) scale(112.00 60.00)"><ellipse cx="0" cy="0" rx="1" ry="1" fill="rgb(23,3,62)" fill-opacity="0.502"/></g>
<circle cx="292.00" cy="1020.00" r="112.00" fill="rgb(43,4,65)" fill-opacity="0.502"/>
<g transform="translate(648.00 516.00) rotate(10) scale(188.00 24.00)"><ellipse cx="0" cy="0" rx="1" ry="1" fill="rgb(0,0,0)" fill-opacity="0.502"/></g>
<polygon points="450.28,484.95 447.15,465.20 561.72,447.05 564.85,466.80" fill="rgb(238,40,255)" fill-opacity="0.502"/>
<circle cx="36.00" cy="676.00" r="116.00" fill="rgb(184,24,174)" fill-opacity="0.502"/>
<g transform="translate(208.00 792.00) rotate(120) scale(100.00 44.00)"><ellipse cx="0" cy="0" rx="1" ry="1" fill="rgb(129,18,122)" fill-opacity="0.502"/></g>
<g transform="translate(604.00 644.00) rotate(295) scale(112.00 176.00)"><ellipse cx="0" cy="0" rx="1" ry="1" fill="rgb(182,24,170)" fill-opacity="0.502"/></g>
<circle cx="60.00" cy="492.00" r="44.00" fill="rgb(127,21,157)" fill-opacity="0.502"/>
<g transform="translate(600.00 128.00) rotate(121) scale(124.00 92.00)"><ellipse cx="0" cy="0" rx="1" ry="1" fill="rgb(19,2,55)" fill-opacity="0.502"/></g>
<g transform="translate(688.00 440.00) rotate(86) scale(144.00 24.00)"><ellipse cx="0" cy="0" rx="1" ry="1" fill="rgb(0,0,15)" fill-opacity="0.502"/></g>
<g transform="translate(92.00 916.00) rotate(24) scale(132.00 88.00)"><ellipse cx="0" cy="0" rx="1" ry="1" fill="rgb(62,10,88)" fill-opacity="0.502"/></g>
<circle cx="320.00" cy="520.00" r="68.00" fill="rgb(3,0,32)" fill-opacity="0.502"/>
<g transform="translate(220.00 192.00) rotate(100) scale(272.00 52.00)"><ellipse cx="0" cy="0" rx="1" ry="1" fill="rgb(5,0,15)" fill-opacity="0.502"/></g>
<g transform="translate(240.00 548.00) rotate(292) scale(44.00 32.00)"><ellipse cx="0" cy="0" rx="1" ry="1" fill="rgb(105,18,120)" fill-opacity="0.502"/></g>
<polygon points="486.17,400.25 446.20,455.26 413.83,431.75 453.80,376.74" fill="rgb(150,25,182)" fill-opacity="0.502"/>
<g transform="translate(104.00 556.00) rotate(286) scale(16.00 80.00)"><ellipse cx="0" cy="0" rx="1" ry="1" fill="rgb(0,0,0)" fill-opacity="0.502"/></g>
<g transform="translate(36.00 104.00) rotate(211) scale(36.00 88.00)"><ellipse cx="0" cy="0" rx="1" ry="1" fill="rgb(34,6,82)" fill-opacity="0.502"/></g>
<g transform="translate(0.00 700.00) rotate(112) scale(28.00 24.00)"><ellipse cx="0" cy="0" rx="1" ry="1" fill="rgb(24,8,60)" fill-opacity="0.502"/></g>
<circle cx="544.00" cy="968.00" r="60.00" fill="rgb(55,8,80)" fill-opacity="0.502"/>
<circle cx="88.00" cy="24.00" r="24.00" fill="rgb(160,30,193)" fill-opacity="0.502"/>
<polygon points="435.44,460.50 444.21,468.69 400.56,515.50 391.79,507.31" fill="rgb(183,34,213)" fill-opacity="0.502"/>
<g transform="translate(532.00 712.00) rotate(327) scale(92.00 116.00)"><ellipse cx="0" cy="0" rx="1" ry="1" fill="rgb(188,25,180)" fill-opacity="0.502"/></g>
<polygon points="416.05,151.79 477.48,-0.26 547.95,28.21 486.52,180.26" fill="rgb(6,0,14)" fill-opacity="0.502"/>
<circle cx="324.00" cy="292.00" r="68.00" fill="rgb(21,3,68)" fill-opacity="0.502"/>
<polygon points="730.62,874.89 686.62,951.11 565.38,881.11 609.38,804.89" fill="rgb(164,23,153)" fill-opacity="0.502"/>
<circle cx="348.00" cy="36.00" r="72.00" fill="rgb(30,4,79)" fill-opacity="0.502"/>
<circle cx="292.00" cy="728.00" r="24.00" fill="rgb(0,0,0)" fill-opacity="0.502"/>
<g transform="translate(24.00 468.00) rotate(234) scale(4.00 100.00)"><ellipse cx="0" cy="0" rx="1" ry="1" fill="rgb(0,0,28)" fill-opacity="0.502"/></g>
<polygon points="564.18,376.23 683.96,408.32 679.82,423.77 560.04,391.68" fill="rgb(0,0,0)" fill-opacity="0.502"/>
<circle cx="592.00" cy="268.00" r="88.00" fill="rgb(22,3,56)" fill-opacity="0.502"/>
<polygon points="360.89,506.99 297.37,499.19 327.11,257.01 390.63,264.81" fill="rgb(25,3,72)" fill-opacity="0.502"/>
<circle cx="148.00" cy="544.00" r="16.00" fill="rgb(194,37,221)" fill-opacity="0.502"/>
<circle cx="204.00" cy="328.00" r="112.00" fill="rgb(14,0,25)" fill-opacity="0.502"/>
<g transform="translate(444.00 204.00) rotate(146) scale(84.00 60.00)"><ellipse cx="0" cy="0" rx="1" ry="1" fill="rgb(12,0,19)" fill-opacity="0.502"/></g>
<polygon points="420.00,500.00 632.00,500.00 632.00,520.00 420.00,520.00" fill="rgb(0,0,1)" fill-opacity="0.502"/>
<polygon points="500.00,432.00 604.00,432.00 604.00,448.00 500.00,448.00" fill="rgb(0,0,0)" fill-opacity="0.502"/>
<circle cx="84.00" cy="812.00" r="20.00" fill="rgb(166,24,157)" fill-opacity="0.502"/>
<circle cx="268.00" cy="840.00" r="24.00" fill="rgb(41,3,36)" fill-opacity="0.502"/>
<polygon points="119.24,85.94 110.21,34.73 204.76,18.06 213.79,69.27" fill="rgb(52,8,87)" fill-opacity="0.502"/>
<g transform="translate(544.00 832.00) rotate(262) scale(76.00 120.00)"><ellipse cx="0" cy="0" rx="1" ry="1" fill="rgb(173,22,160)" fill-opacity="0.502"/></g>
<g transform="translate(688.00 708.00) rotate(266) scale(144.00 28.00)"><ellipse cx="0" cy="0" rx="1" ry="1" fill="rgb(149,22,140)" fill-opacity="0.502"/></g>
<g transform="translate(232.00 916.00) rotate(190) scale(604.00 60.00)"><ellipse cx="0" cy="0" rx="1" ry="1" fill="rgb(65,10,89)" fill-opacity="0.502"/></g>
<polygon points="39.93,473.80 44.88,458.58 216.07,514.20 211.12,529.42" fill="rgb(165,31,190)" fill-opacity="0.502"/>
<polygon points="184.97,249.05 41.26,298.53 -32.97,82.95 110.74,33.47" fill="rgb(25,3,60)" fill-opacity="0.502"/>
<polygon points="517.36,240.84 604.91,164.74 662.64,231.16 575.09,307.26" fill="rgb(27,3,67)" fill-opacity="0.502"/>
<circle cx="80.00" cy="488.00" r="32.00" fill="rgb(62,9,82)" fill-opacity="0.502"/>
<polygon points="561.79,384.31 557.29,403.79 522.21,395.69 526.71,376.21" fill="rgb(0,0,1)" fill-opacity="0.502"/>
<g transform="translate(380.00 824.00) rotate(192) scale(88.00 72.00)"><ellipse cx="0" cy="0" rx="1" ry="1" fill="rgb(171,23,161)" fill-opacity="0.502"/></g>
<polygon points="16.55,558.28 74.51,573.81 43.45,689.72 -14.51,674.19" fill="rgb(188,25,181)" fill-opacity="0.502"/>
<circle cx="0.00" cy="364.00" r="104.00" fill="rgb(18,2,58)" fill-opacity="0.502"/>
<circle cx="600.00" cy="464.00" r="16.00" fill="rgb(203,41,239)" fill-opacity="0.502"/>
<circle cx="256.00" cy="460.00" r="40.00" fill="rgb(6,0,10)" fill-opacity="0.502"/>
<polygon points="568.10,946.98 697.21,974.42 683.90,1037.02 554.79,1009.58" fill="rgb(49,4,67)" fill-opacity="0.502"/>
<circle cx="688.00" cy="304.00" r="80.00" fill="rgb(19,2,55)" fill-opacity="0.502"/>
<polygon points="14.03,812.16 274.99,902.02 261.97,939.84 1.01,849.98" fill="rgb(76,13,103)" fill-opacity="0.502"/>
<polygon points="41.92,538.00 9.97,513.92 46.08,466.00 78.03,490.08" fill="rgb(124,20,148)" fill-opacity="0.502"/>
<circle cx="652.00" cy="244.00" r="80.00" fill="rgb(25,4,63)" fill-opacity="0.502"/>
<circle cx="108.00" cy="400.00" r="44.00" fill="rgb(11,0,26)" fill-opacity="0.502"/>
<circle cx="172.00" cy="716.00" r="92.00" fill="rgb(154,22,140)" fill-opacity="0.502"/>
<g transform="translate(188.00 564.00) rotate(118) scale(12.00 100.00)"><ellipse cx="0" cy="0" rx="1" ry="1" fill="rgb(172,33,193)" fill-opacity="0.502"/></g>
<circle cx="264.00" cy="164.00" r="76.00" fill="rgb(8,0,20)" fill-opacity="0.502"/>
<g transform="translate(340.00 988.00) rotate(199) scale(128.00 24.00)"><ellipse cx="0" cy="0" rx="1" ry="1" fill="rgb(46,3,59)" fill-opacity="0.502"/></g>
<circle cx="100.00" cy="448.00" r="12.00" fill="rgb(221,40,253)" fill-opacity="0.502"/>
<polygon points="588.84,367.97 586.61,383.82 531.16,376.03 533.39,360.18" fill="rgb(209,36,234)" fill-opacity="0.502"/>
<polygon points="144.97,465.98 312.48,551.33 307.03,562.02 139.52,476.67" fill="rgb(0,0,9)" fill-opacity="0.502"/>
<circle cx="172.00" cy="592.00" r="16.00" fill="rgb(0,0,5)" fill-opacity="0.502"/>
<polygon points="-45.27,547.99 -47.97,536.30 57.27,512.01 59.97,523.70" fill="rgb(226,39,249)" fill-opacity="0.502"/>
<polygon points="192.77,928.51 210.14,1026.99 139.23,1039.49 121.86,941.01" fill="rgb(56,6,72)" fill-opacity="0.502"/>
<g transform="translate(620.00 0.00) rotate(0) scale(108.00 16.00)"><ellipse cx="0" cy="0" rx="1" ry="1" fill="rgb(146,29,174)" fill-opacity="0.502"/></g>
<circle cx="548.00" cy="56.00" r="40.00" fill="rgb(27,4,64)" fill-opacity="0.502"/>
<circle cx="432.00" cy="352.00" r="48.00" fill="rgb(7,0,21)" fill-opacity="0.502"/>
<polygon points="4.87,712.53 180.20,727.87 171.13,831.47 -4.20,816.13" fill="rgb(171,23,160)" fill-opacity="0.502"/>
<circle cx="420.00" cy="780.00" r="64.00" fill="rgb(184,24,177)" fill-opacity="0.502"/>
<polygon points="133.10,438.51 138.49,461.89 122.90,465.49 117.51,442.11" fill="rgb(181,34,214)" fill-opacity="0.502"/>
<polygon points="101.62,249.21 85.35,351.93 2.38,338.79 18.65,236.07" fill="rgb(29,4,68)" fill-opacity="0.502"/>
<polygon points="679.53,387.63 695.46,389.02 680.47,560.37 664.54,558.98" fill="rgb(8,0,29)" fill-opacity="0.502"/>
<polygon points="496.00,528.00 592.00,528.00 592.00,804.00 496.00,804.00" fill="rgb(184,24,177)" fill-opacity="0.502"/>
<polygon points="67.48,135.37 14.42,171.16 -3.48,144.63 49.58,108.84" fill="rgb(48,8,74)" fill-opacity="0.502"/>
<g transform="translate(152.00 676.00) rotate(183) scale(44.00 84.00)"><ellipse cx="0" cy="0" rx="1" ry="1" fill="rgb(162,22,151)" fill-opacity="0.502"/></g>
<polygon points="74.59,478.46 65.54,470.59 73.41,461.54 82.46,469.41" fill="rgb(0,0,0)" fill-opacity="0.502"/>
<circle cx="636.00" cy="868.00" r="64.00" fill="rgb(161,23,152)" fill-opacity="0.502"/>
<circle cx="64.00" cy="716.00" r="36.00" fill="rgb(183,24,175)" fill-opacity="0.502"/>
<g transform="translate(280.00 544.00) rotate(180) scale(16.00 296.00)"><ellipse cx="0" cy="0" rx="1" ry="1" fill="rgb(10,0,24)" fill-opacity="0.502"/></g>
<circle cx="600.00" cy="368.00" r="16.00" fill="rgb(192,38,223)" fill-opacity="0.502"/>
<circle cx="72.00" cy="524.00" r="12.00" fill="rgb(216,38,238)" fill-opacity="0.502"/>
<polygon points="192.17,460.80 294.56,556.28 291.83,559.20 189.44,463.72" fill="rgb(144,28,169)" fill-opacity="0.502"/>
<polygon points="684.72,505.25 676.54,514.03 647.28,486.75 655.46,477.97" fill="rgb(173,36,209)" fill-opacity="0.502"/>
<g transform="translate(676.00 80.00) rotate(356) scale(120.00 56.00)"><ellipse cx="0" cy="0" rx="1" ry="1" fill="rgb(18,2,53)" fill-opacity="0.502"/></g>
<polygon points="510.09,912.76 494.82,991.29 329.91,959.24 345.18,880.71" fill="rgb(70,13,96)" fill-opacity="0.502"/>
<circle cx="428.00" cy="524.00" r="20.00" fill="rgb(0,0,7)" fill-opacity="0.502"/>
<circle cx="216.00" cy="804.00" r="52.00" fill="rgb(140,20,125)" fill-opacity="0.502"/>
<g transform="translate(596.00 880.00) rotate(6) scale(64.00 44.00)"><ellipse cx="0" cy="0" rx="1" ry="1" fill="rgb(162,22,153)" fill-opacity="0.502"/></g>
<polygon points="567.98,280.64 613.85,312.76 584.02,355.36 538.15,323.24" fill="rgb(9,0,23)" fill-opacity="0.502"/>
<circle cx="476.00" cy="412.00" r="32.00" fill="rgb(131,20,153)" fill-opacity="0.502"/>
<polygon points="284.43,815.00 268.98,810.86 315.57,637.00 331.02,641.14" fill="rgb(0,0,13)" fill-opacity="0.502"/>
<g transform="translate(4.00 380.00) rotate(195) scale(68.00 132.00)"><ellipse cx="0" cy="0" rx="1" ry="1" fill="rgb(23,3,63)" fill-opacity="0.502"/></g>
<polygon points="638.35,340.37 481.29,370.90 473.65,331.63 630.71,301.10" fill="rgb(7,0,21)" fill-opacity="0.502"/>
<polygon points="628.62,74.25 649.75,92.62 631.38,113.75 610.25,95.38" fill="rgb(11,0,21)" fill-opacity="0.502"/>
<polygon points="146.18,543.29 160.51,584.89 137.82,592.71 123.49,551.11" fill="rgb(4,0,21)" fill-opacity="0.502"/>
<polygon points="140.74,312.28 203.72,384.74 131.26,447.72 68.28,375.26" fill="rgb(15,1,33)" fill-opacity="0.502"/>
<polygon points="598.97,375.14 609.49,353.57 649.03,372.86 638.51,394.43" fill="rgb(176,35,203)" fill-opacity="0.502"/>
<polygon points="679.14,360.87 668.99,382.63 592.86,347.13 603.01,325.37" fill="rgb(13,0,22)" fill-opacity="0.502"/>
<circle cx="212.00" cy="604.00" r="20.00" fill="rgb(0,0,2)" fill-opacity="0.502"/>
<polygon points="595.66,385.00 467.04,414.69 464.34,403.00 592.96,373.31" fill="rgb(0,0,0)" fill-opacity="0.502"/>
<polygon points="293.58,680.51 240.96,661.36 298.42,503.49 351.04,522.64" fill="rgb(15,1,29)" fill-opacity="0.502"/>
<circle cx="528.00" cy="492.00" r="24.00" fill="rgb(0,0,23)" fill-opacity="0.502"/>
<polygon points="90.00,226.00 90.00,242.00 38.00,242.00 38.00,226.00" fill="rgb(8,0,17)" fill-opacity="0.502"/>
<circle cx="372.00" cy="764.00" r="64.00" fill="rgb(173,23,163)" fill-opacity="0.502"/>
<g transform="translate(496.00 660.00) rotate(71) scale(136.00 132.00)"><ellipse cx="0" cy="0" rx="1" ry="1" fill="rgb(184,24,176)" fill-opacity="0.502"/></g>
<polygon points="112.83,216.21 159.25,184.89 215.17,267.79 168.75,299.11" fill="rgb(13,0,28)" fill-opacity="0.502"/>
<g transform="translate(600.00 496.00) rotate(194) scale(72.00 16.00)"><ellipse cx="0" cy="0" rx="1" ry="1" fill="rgb(0,0,18)" fill-opacity="0.502"/></g>
<circle cx="444.00" cy="324.00" r="68.00" fill="rgb(14,0,28)" fill-opacity="0.502"/>
<circle cx="48.00" cy="8.00" r="16.00" fill="rgb(31,0,40)" fill-opacity="0.502"/>
<polygon points="71.48,792.94 109.51,736.56 172.52,779.06 134.49,835.44" fill="rgb(160,22,146)" fill-opacity="0.502"/>
<polygon points="129.05,267.24 122.91,443.13 54.95,440.76 61.09,264.87" fill="rgb(19,2,45)" fill-opacity="0.502"/>
<polygon points="68.58,558.20 0.67,561.76 -0.58,537.80 67.33,534.24" fill="rgb(0,0,8)" fill-opacity="0.502"/>
<g transform="translate(180.00 528.00) rotate(102) scale(4.00 152.00)"><ellipse cx="0" cy="0" rx="1" ry="1" fill="rgb(8,0,26)" fill-opacity="0.502"/></g>
<g transform="translate(688.00 468.00) rotate(323) scale(4.00 104.00)"><ellipse cx="0" cy="0" rx="1" ry="1" fill="rgb(2,0,23)" fill-opacity="0.502"/></g>
<polygon points="607.85,594.85 651.50,548.04 704.15,597.15 660.50,643.96" fill="rgb(156,23,146)" fill-opacity="0.502"/>
<polygon points="510.67,767.62 638.36,776.55 633.33,848.38 505.64,839.45" fill="rgb(178,24,169)" fill-opacity="0.502"/>
<polygon points="93.66,462.77 148.63,473.45 146.34,485.23 91.37,474.55" fill="rgb(0,0,0)" fill-opacity="0.502"/>
<g transform="translate(588.00 420.00) rotate(279) scale(8.00 68.00)"><ellipse cx="0" cy="0" rx="1" ry="1" fill="rgb(203,38,229)" fill-opacity="0.502"/></g>
<polygon points="414.54,134.26 300.67,112.12 317.46,25.74 431.33,47.88" fill="rgb(20,3,62)" fill-opacity="0.502"/>
<g transform="translate(452.00 724.00) rotate(136) scale(96.00 56.00)"><ellipse cx="0" cy="0" rx="1" ry="1" fill="rgb(187,25,180)" fill-opacity="0.502"/></g>
<circle cx="152.00" cy="464.00" r="16.00" fill="rgb(159,30,185)" fill-opacity="0.502"/>
<g transform="translate(400.00 176.00) rotate(180) scale(136.00 48.00)"><ellipse cx="0" cy="0" rx="1" ry="1" fill="rgb(10,0,23)" fill-opacity="0.502"/></g>
<circle cx="68.00" cy="1020.00" r="92.00" fill="rgb(62,10,86)" fill-opacity="0.502"/>
<circle cx="300.00" cy="692.00" r="32.00" fill="rgb(3,0,20)" fill-opacity="0.502"/>
<polygon points="678.23,253.41 613.95,330.01 509.77,242.59 574.05,165.99" fill="rgb(24,3,61)" fill-opacity="0.502"/>
<polygon points="355.81,393.89 404.91,494.55 340.19,526.11 291.09,425.45" fill="rgb(21,2,60)" fill-opacity="0.502"/>
<polygon points="321.52,579.34 314.29,588.92 202.48,504.66 209.71,495.08" fill="rgb(13,0,28)" fill-opacity="0.502"/>
<polygon points="585.13,496.58 473.08,526.60 466.87,503.42 578.92,473.40" fill="rgb(6,0,24)" fill-opacity="0.502"/>
<circle cx="348.00" cy="440.00" r="60.00" fill="rgb(19,2,53)" fill-opacity="0.502"/>
<polygon points="36.93,486.50 34.46,483.35 47.07,473.50 49.54,476.65" fill="rgb(0,0,0)" fill-opacity="0.502"/>
<polygon points="606.04,317.02 621.58,304.44 749.96,462.98 734.42,475.56" fill="rgb(8,0,23)" fill-opacity="0.502"/>
<polygon points="519.18,206.33 569.19,324.16 480.82,361.67 430.81,243.84" fill="rgb(15,0,33)" fill-opacity="0.502"/>
<circle cx="76.00" cy="452.00" r="12.00" fill="rgb(218,37,241)" fill-opacity="0.502"/>
<g transform="translate(564.00 220.00) rotate(170) scale(176.00 8.00)"><ellipse cx="0" cy="0" rx="1" ry="1" fill="rgb(15,0,36)" fill-opacity="0.502"/></g>
<polygon points="45.94,818.88 -8.33,784.96 34.06,717.12 88.33,751.04" fill="rgb(181,24,172)" fill-opacity="0.502"/>
<circle cx="572.00" cy="460.00" r="16.00" fill="rgb(196,38,229)" fill-opacity="0.502"/>
<polygon points="656.17,500.25 611.59,473.47 619.83,459.75 664.41,486.53" fill="rgb(177,37,207)" fill-opacity="0.502"/>
<circle cx="0.00" cy="984.00" r="28.00" fill="rgb(35,0,47)" fill-opacity="0.502"/>
<circle cx="640.00" cy="456.00" r="12.00" fill="rgb(0,0,0)" fill-opacity="0.502"/>
<polygon points="245.64,558.02 217.98,553.64 222.36,525.98 250.02,530.36" fill="rgb(102,19,127)" fill-opacity="0.502"/>
<circle cx="140.00" cy="0.00" r="32.00" fill="rgb(164,31,197)" fill-opacity="0.502"/>
<polygon points="406.77,487.67 410.10,472.02 449.23,480.33 445.90,495.98" fill="rgb(158,26,183)" fill-opacity="0.502"/>
<circle cx="124.00" cy="72.00" r="40.00" fill="rgb(39,7,74)" fill-opacity="0.502"/>
<circle cx="408.00" cy="12.00" r="48.00" fill="rgb(42,5,69)" fill-opacity="0.502"/>
<circle cx="224.00" cy="556.00" r="12.00" fill="rgb(0,0,0)" fill-opacity="0.502"/>
<g transform="translate(444.00 512.00) rotate(150) scale(76.00 12.00)"><ellipse cx="0" cy="0" rx="1" ry="1" fill="rgb(0,0,12)" fill-opacity="0.502"/></g>
<polygon points="290.49,1007.43 168.77,1031.10 153.51,952.57 275.23,928.90" fill="rgb(59,7,77)" fill-opacity="0.502"/>
<circle cx="56.00" cy="948.00" r="32.00" fill="rgb(77,13,103)" fill-opacity="0.502"/>
<polygon points="664.22,381.49 684.36,411.33 667.78,422.51 647.64,392.67" fill="rgb(73,14,109)" fill-opacity="0.502"/>
<g transform="translate(640.00 448.00) rotate(279) scale(12.00 132.00)"><ellipse cx="0" cy="0" rx="1" ry="1" fill="rgb(16,1,39)" fill-opacity="0.502"/></g>
<polygon points="696.42,409.40 674.33,418.78 655.58,374.60 677.67,365.22" fill="rgb(3,0,19)" fill-opacity="0.502"/>
<g transform="translate(316.00 420.00) rotate(91) scale(100.00 20.00)"><ellipse cx="0" cy="0" rx="1" ry="1" fill="rgb(20,2,54)" fill-opacity="0.502"/></g>
<polygon points="218.13,854.91 134.08,817.49 169.87,737.09 253.92,774.51" fill="rgb(143,20,133)" fill-opacity="0.502"/>
<polygon points="670.81,661.83 691.42,767.85 597.19,786.17 576.58,680.15" fill="rgb(177,23,166)" fill-opacity="0.502"/>
<g transform="translate(504.00 956.00) rotate(96) scale(52.00 100.00)"><ellipse cx="0" cy="0" rx="1" ry="1" fill="rgb(67,11,87)" fill-opacity="0.502"/></g>
<polygon points="334.87,688.24 326.89,687.68 329.13,655.76 337.11,656.32" fill="rgb(0,0,10)" fill-opacity="0.502"/>
<g transform="translate(332.00 904.00) rotate(188) scale(224.00 24.00)"><ellipse cx="0" cy="0" rx="1" ry="1" fill="rgb(74,12,100)" fill-opacity="0.502"/></g>
<polygon points="667.74,53.25 523.77,50.74 524.26,22.75 668.23,25.26" fill="rgb(43,8,74)" fill-opacity="0.502"/>
<circle cx="388.00" cy="24.00" r="12.00" fill="rgb(61,8,84)" fill-opacity="0.502"/>
<circle cx="544.00" cy="556.00" r="40.00" fill="rgb(181,24,173)" fill-opacity="0.502"/>
<circle cx="368.00" cy="628.00" r="16.00" fill="rgb(134,19,128)" fill-opacity="0.502"/>
<polygon points="719.63,486.87 715.05,493.43 600.37,413.13 604.95,406.57" fill="rgb(126,25,150)" fill-opacity="0.502"/>
<g transform="translate(328.00 268.00) rotate(360) scale(52.00 28.00)"><ellipse cx="0" cy="0" rx="1" ry="1" fill="rgb(23,3,67)" fill-opacity="0.502"/></g>
<circle cx="204.00" cy="424.00" r="40.00" fill="rgb(10,0,22)" fill-opacity="0.502"/>
<g transform="translate(456.00 160.00) rotate(105) scale(148.00 60.00)"><ellipse cx="0" cy="0" rx="1" ry="1" fill="rgb(11,0,24)" fill-opacity="0.502"/></g>
<circle cx="188.00" cy="652.00" r="36.00" fill="rgb(151,22,140)" fill-opacity="0.502"/>
<polygon points="695.08,531.00 683.14,532.25 668.92,397.00 680.86,395.75" fill="rgb(2,0,17)" fill-opacity="0.502"/>
<g transform="translate(224.00 0.00) rotate(46) scale(108.00 20.00)"><ellipse cx="0" cy="0" rx="1" ry="1" fill="rgb(3,0,17)" fill-opacity="0.502"/></g>
<polygon points="629.43,273.14 692.91,297.51 678.57,334.86 615.09,310.49" fill="rgb(30,5,70)" fill-opacity="0.502"/>
<g transform="translate(668.00 532.00) rotate(297) scale(20.00 76.00)"><ellipse cx="0" cy="0" rx="1" ry="1" fill="rgb(8,0,26)" fill-opacity="0.502"/></g>
<g transform="translate(252.00 492.00) rotate(313) scale(8.00 108.00)"><ellipse cx="0" cy="0" rx="1" ry="1" fill="rgb(6,0,17)" fill-opacity="0.502"/></g>
<polygon points="82.06,304.19 56.70,392.63 25.94,383.81 51.30,295.37" fill="rgb(25,4,69)" fill-opacity="0.502"/>
<polygon points="692.33,523.27 686.38,528.62 675.67,516.73 681.62,511.38" fill="rgb(67,11,99)" fill-opacity="0.502"/>
<polygon points="297.75,728.71 206.28,607.32 222.25,595.29 313.72,716.68" fill="rgb(2,0,13)" fill-opacity="0.502"/>
<g transform="translate(200.00 704.00) rotate(307) scale(64.00 24.00)"><ellipse cx="0" cy="0" rx="1" ry="1" fill="rgb(145,21,135)" fill-opacity="0.502"/></g>
<circle cx="328.00" cy="792.00" r="32.00" fill="rgb(153,21,139)" fill-opacity="0.502"/>
<g transform="translate(4.00 344.00) rotate(317) scale(148.00 48.00)"><ellipse cx="0" cy="0" rx="1" ry="1" fill="rgb(28,4,64)" fill-opacity="0.502"/></g>
<g transform="translate(596.00 1016.00) rotate(242) scale(80.00 56.00)"><ellipse cx="0" cy="0" rx="1" ry="1" fill="rgb(58,6,76)" fill-opacity="0.502"/></g>
<polygon points="-11.00,740.19 -15.59,733.64 27.00,703.81 31.59,710.36" fill="rgb(129,19,107)" fill-opacity="0.502"/>
<polygon points="715.76,392.70 701.37,406.60 640.24,343.30 654.63,329.40" fill="rgb(16,0,40)" fill-opacity="0.502"/>
<circle cx="396.00" cy="464.00" r="32.00" fill="rgb(43,7,79)" fill-opacity="0.502"/>
<circle cx="148.00" cy="372.00" r="76.00" fill="rgb(14,0,31)" fill-opacity="0.502"/>
<polygon points="347.27,398.70 414.93,423.33 380.73,517.30 313.07,492.67" fill="rgb(18,2,53)" fill-opacity="0.502"/>
<polygon points="420.15,647.42 401.83,553.19 507.85,532.58 526.17,626.81" fill="rgb(185,25,178)" fill-opacity="0.502"/>
<g transform="translate(188.00 12.00) rotate(202) scale(12.00 12.00)"><ellipse cx="0" cy="0" rx="1" ry="1" fill="rgb(137,28,170)" fill-opacity="0.502"/></g>
<polygon points="-1.25,193.83 138.47,159.00 145.25,186.17 5.53,221.00" fill="rgb(31,6,72)" fill-opacity="0.502"/>
<polygon points="223.04,634.84 272.53,778.56 264.96,781.16 215.47,637.44" fill="rgb(123,16,107)" fill-opacity="0.502"/>
<polygon points="354.51,697.93 332.03,753.56 313.49,746.07 335.97,690.44" fill="rgb(132,19,120)" fill-opacity="0.502"/>
<circle cx="256.00" cy="336.00" r="48.00" fill="rgb(9,0,21)" fill-opacity="0.502"/>
<g transform="translate(452.00 580.00) rotate(65) scale(48.00 24.00)"><ellipse cx="0" cy="0" rx="1" ry="1" fill="rgb(184,25,177)" fill-opacity="0.502"/></g>
<g transform="translate(212.00 168.00) rotate(289) scale(20.00 92.00)"><ellipse cx="0" cy="0" rx="1" ry="1" fill="rgb(12,0,26)" fill-opacity="0.502"/></g>
<circle cx="628.00" cy="588.00" r="44.00" fill="rgb(170,22,158)" fill-opacity="0.502"/>
<g transform="translate(4.00 936.00) rotate(81) scale(16.00 40.00)"><ellipse cx="0" cy="0" rx="1" ry="1" fill="rgb(94,12,118)" fill-opacity="0.502"/></g>
<polygon points="204.24,86.09 79.90,186.78 59.76,161.91 184.10,61.22" fill="rgb(18,2,58)" fill-opacity="0.502"/>
<polygon points="190.58,648.09 115.77,720.33 57.42,659.91 132.23,587.67" fill="rgb(169,22,157)" fill-opacity="0.502"/>
<g transform="translate(172.00 576.00) rotate(267) scale(12.00 20.00)"><ellipse cx="0" cy="0" rx="1" ry="1" fill="rgb(0,0,14)" fill-opacity="0.502"/></g>
<circle cx="516.00" cy="380.00" r="12.00" fill="rgb(211,34,235)" fill-opacity="0.502"/>
<polygon points="412.66,459.94 415.71,444.24 435.34,448.06 432.29,463.76" fill="rgb(176,33,207)" fill-opacity="0.502"/>
<polygon points="348.94,580.25 304.42,414.11 343.06,403.75 387.58,569.89" fill="rgb(21,2,57)" fill-opacity="0.502"/>
<polygon points="252.77,345.27 144.59,316.28 163.23,246.73 271.41,275.72" fill="rgb(13,0,29)" fill-opacity="0.502"/>
<polygon points="333.72,16.35 329.55,39.99 282.28,31.65 286.45,8.01" fill="rgb(49,9,76)" fill-opacity="0.502"/>
<polygon points="350.97,650.91 386.53,645.28 389.03,661.09 353.47,666.72" fill="rgb(159,22,146)" fill-opacity="0.502"/>
<polygon points="507.56,207.86 554.77,300.53 508.44,324.14 461.23,231.47" fill="rgb(17,1,38)" fill-opacity="0.502"/>
<polygon points="528.62,421.05 474.28,434.60 471.38,422.95 525.72,409.40" fill="rgb(243,38,255)" fill-opacity="0.502"/>
<g transform="translate(400.00 136.00) rotate(146) scale(20.00 16.00)"><ellipse cx="0" cy="0" rx="1" ry="1" fill="rgb(19,1,41)" fill-opacity="0.502"/></g>
<g transform="translate(576.00 368.00) rotate(277) scale(8.00 28.00)"><ellipse cx="0" cy="0" rx="1" ry="1" fill="rgb(187,33,214)" fill-opacity="0.502"/></g>
<polygon points="292.95,560.87 225.12,452.32 259.05,431.13 326.88,539.68" fill="rgb(10,0,23)" fill-opacity="0.502"/>
<polygon points="710.50,179.43 706.00,190.55 661.50,172.57 666.00,161.45" fill="rgb(13,0,28)" fill-opacity="0.502"/>
<circle cx="48.00" cy="264.00" r="16.00" fill="rgb(47,9,73)" fill-opacity="0.502"/>
<g transform="translate(460.00 400.00) rotate(239) scale(4.00 52.00)"><ellipse cx="0" cy="0" rx="1" ry="1" fill="rgb(215,38,239)" fill-opacity="0.502"/></g>
<circle cx="56.00" cy="96.00" r="40.00" fill="rgb(16,2,55)" fill-opacity="0.502"/>
<circle cx="672.00" cy="852.00" r="32.00" fill="rgb(155,23,148)" fill-opacity="0.502"/>
<g transform="translate(80.00 4.00) rotate(84) scale(36.00 12.00)"><ellipse cx="0" cy="0" rx="1" ry="1" fill="rgb(173,32,203)" fill-opacity="0.502"/></g>
<g transform="translate(588.00 708.00) rotate(264) scale(96.00 28.00)"><ellipse cx="0" cy="0" rx="1" ry="1" fill="rgb(182,24,174)" fill-opacity="0.502"/></g>
<circle cx="152.00" cy="732.00" r="52.00" fill="rgb(161,22,149)" fill-opacity="0.502"/>
<g transform="translate(356.00 152.00) rotate(28) scale(72.00 32.00)"><ellipse cx="0" cy="0" rx="1" ry="1" fill="rgb(15,0,34)" fill-opacity="0.502"/></g>
<polygon points="221.69,756.51 230.46,685.05 250.31,687.49 241.54,758.95" fill="rgb(135,18,120)" fill-opacity="0.502"/>
<g transform="translate(16.00 136.00) rotate(62) scale(20.00 40.00)"><ellipse cx="0" cy="0" rx="1" ry="1" fill="rgb(48,8,74)" fill-opacity="0.502"/></g>
<circle cx="484.00" cy="444.00" r="16.00" fill="rgb(16,2,40)" fill-opacity="0.502"/>
<g transform="translate(168.00 528.00) rotate(292) scale(8.00 80.00)"><ellipse cx="0" cy="0" rx="1" ry="1" fill="rgb(0,0,7)" fill-opacity="0.502"/></g>
<circle cx="76.00" cy="968.00" r="32.00" fill="rgb(71,14,98)" fill-opacity="0.502"/>
<g transform="translate(564.00 228.00) rotate(178) scale(16.00 56.00)"><ellipse cx="0" cy="0" rx="1" ry="1" fill="rgb(27,5,65)" fill-opacity="0.502"/></g>
<polygon points="122.91,529.15 97.54,540.98 89.09,522.85 114.46,511.02" fill="rgb(166,31,196)" fill-opacity="0.502"/>
<g transform="translate(256.00 612.00) rotate(47) scale(28.00 4.00)"><ellipse cx="0" cy="0" rx="1" ry="1" fill="rgb(134,27,152)" fill-opacity="0.502"/></g>
<g transform="translate(544.00 0.00) rotate(149) scale(24.00 8.00)"><ellipse cx="0" cy="0" rx="1" ry="1" fill="rgb(140,28,168)" fill-opacity="0.502"/></g>
<polygon points="264.00,832.00 276.00,832.00 276.00,880.00 264.00,880.00" fill="rgb(43,4,58)" fill-opacity="0.502"/>
<polygon points="372.53,660.22 383.66,581.00 403.47,583.78 392.34,663.00" fill="rgb(179,24,170)" fill-opacity="0.502"/>
<polygon points="116.00,240.00 12.00,240.00 12.00,220.00 116.00,220.00" fill="rgb(14,0,34)" fill-opacity="0.502"/>
<polygon points="92.40,631.93 54.64,678.56 -32.40,608.07 5.36,561.44" fill="rgb(179,24,170)" fill-opacity="0.502"/>
<circle cx="124.00" cy="796.00" r="40.00" fill="rgb(160,22,149)" fill-opacity="0.502"/>
<polygon points="120.09,448.69 30.82,470.95 27.91,459.31 117.18,437.05" fill="rgb(165,27,187)" fill-opacity="0.502"/>
<circle cx="156.00" cy="52.00" r="28.00" fill="rgb(47,6,71)" fill-opacity="0.502"/>
<g transform="translate(468.00 840.00) rotate(166) scale(120.00 40.00)"><ellipse cx="0" cy="0" rx="1" ry="1" fill="rgb(173,23,164)" fill-opacity="0.502"/></g>
<polygon points="633.28,454.57 637.87,448.01 742.72,521.43 738.13,527.99" fill="rgb(0,0,16)" fill-opacity="0.502"/>
<circle cx="320.00" cy="664.00" r="20.00" fill="rgb(9,0,25)" fill-opacity="0.502"/>
<polygon points="531.32,898.97 587.01,893.12 588.68,909.03 532.99,914.88" fill="rgb(149,23,144)" fill-opacity="0.502"/>
<circle cx="236.00" cy="60.00" r="36.00" fill="rgb(8,0,22)" fill-opacity="0.502"/>
<g transform="translate(24.00 900.00) rotate(280) scale(20.00 136.00)"><ellipse cx="0" cy="0" rx="1" ry="1" fill="rgb(61,7,76)" fill-opacity="0.502"/></g>
<polygon points="121.96,837.90 154.70,873.00 102.04,922.10 69.30,887.00" fill="rgb(74,12,95)" fill-opacity="0.502"/>
<g transform="translate(184.00 772.00) rotate(210) scale(8.00 72.00)"><ellipse cx="0" cy="0" rx="1" ry="1" fill="rgb(146,21,138)" fill-opacity="0.502"/></g>
<circle cx="32.00" cy="448.00" r="16.00" fill="rgb(22,2,57)" fill-opacity="0.502"/>
<polygon points="598.00,2.61 606.18,11.38 574.00,41.39 565.82,32.62" fill="rgb(52,6,76)" fill-opacity="0.502"/>
<g transform="translate(164.00 464.00) rotate(200) scale(64.00 8.00)"><ellipse cx="0" cy="0" rx="1" ry="1" fill="rgb(177,34,201)" fill-opacity="0.502"/></g>
<g transform="translate(632.00 832.00) rotate(308) scale(104.00 16.00)"><ellipse cx="0" cy="0" rx="1" ry="1" fill="rgb(169,22,156)" fill-opacity="0.502"/></g>
<polygon points="641.95,108.01 636.77,88.69 714.05,67.99 719.23,87.31" fill="rgb(14,0,35)" fill-opacity="0.502"/>
<polygon points="353.75,240.18 369.26,212.19 390.25,223.82 374.74,251.81" fill="rgb(7,0,18)" fill-opacity="0.502"/>
<g transform="translate(404.00 372.00) rotate(23) scale(44.00 68.00)"><ellipse cx="0" cy="0" rx="1" ry="1" fill="rgb(14,0,34)" fill-opacity="0.502"/></g>
<g transform="translate(348.00 400.00) rotate(302) scale(48.00 36.00)"><ellipse cx="0" cy="0" rx="1" ry="1" fill="rgb(21,3,59)" fill-opacity="0.502"/></g>
<g transform="translate(640.00 136.00) rotate(269) scale(16.00 88.00)"><ellipse cx="0" cy="0" rx="1" ry="1" fill="rgb(22,3,62)" fill-opacity="0.502"/></g>
<circle cx="44.00" cy="12.00" r="20.00" fill="rgb(37,1,47)" fill-opacity="0.502"/>
<polygon points="295.56,1007.26 419.39,1000.77 420.44,1020.74 296.61,1027.23" fill="rgb(47,4,61)" fill-opacity="0.502"/>
<circle cx="296.00" cy="844.00" r="20.00" fill="rgb(121,17,101)" fill-opacity="0.502"/>
<circle cx="332.00" cy="620.00" r="24.00" fill="rgb(9,0,30)" fill-opacity="0.502"/>
<g transform="translate(276.00 116.00) rotate(356) scale(20.00 104.00)"><ellipse cx="0" cy="0" rx="1" ry="1" fill="rgb(10,0,23)" fill-opacity="0.502"/></g>
<circle cx="156.00" cy="864.00" r="28.00" fill="rgb(76,11,101)" fill-opacity="0.502"/>
<g transform="translate(460.00 676.00) rotate(138) scale(88.00 52.00)"><ellipse cx="0" cy="0" rx="1" ry="1" fill="rgb(187,25,180)" fill-opacity="0.502"/></g>
<polygon points="463.61,48.11 507.61,-28.11 528.39,-16.11 484.39,60.11" fill="rgb(3,0,16)" fill-opacity="0.502"/>
<polygon points="354.60,723.61 357.39,803.56 333.40,804.39 330.61,724.44" fill="rgb(171,23,160)" fill-opacity="0.502"/>
<polygon points="602.53,876.15 456.35,899.31 449.47,855.85 595.65,832.69" fill="rgb(169,23,157)" fill-opacity="0.502"/>
<polygon points="198.99,575.14 200.86,586.99 189.01,588.86 187.14,577.01" fill="rgb(0,0,7)" fill-opacity="0.502"/>
<polygon points="129.47,243.50 130.44,271.48 -13.47,276.50 -14.44,248.52" fill="rgb(34,6,70)" fill-opacity="0.502"/>
<polygon points="92.95,64.46 198.92,17.27 207.05,35.54 101.08,82.73" fill="rgb(54,7,80)" fill-opacity="0.502"/>
<circle cx="244.00" cy="576.00" r="12.00" fill="rgb(7,0,23)" fill-opacity="0.502"/>
<circle cx="8.00" cy="804.00" r="12.00" fill="rgb(172,23,159)" fill-opacity="0.502"/>
<circle cx="688.00" cy="612.00" r="24.00" fill="rgb(136,24,142)" fill-opacity="0.502"/>
<circle cx="400.00" cy="0.00" r="16.00" fill="rgb(36,0,32)" fill-opacity="0.502"/>
<circle cx="248.00" cy="848.00" r="16.00" fill="rgb(114,16,94)" fill-opacity="0.502"/>
<polygon points="34.69,284.88 28.07,307.95 -2.69,299.12 3.93,276.05" fill="rgb(14,0,44)" fill-opacity="0.502"/>
<circle cx="496.00" cy="464.00" r="16.00" fill="rgb(184,29,205)" fill-opacity="0.502"/>
<g transform="translate(556.00 332.00) rotate(308) scale(24.00 28.00)"><ellipse cx="0" cy="0" rx="1" ry="1" fill="rgb(16,1,33)" fill-opacity="0.502"/></g>
<g transform="translate(220.00 152.00) rotate(93) scale(124.00 24.00)"><ellipse cx="0" cy="0" rx="1" ry="1" fill="rgb(11,0,24)" fill-opacity="0.502"/></g>
<polygon points="562.30,1005.48 457.98,1033.43 449.70,1002.52 554.02,974.57" fill="rgb(66,11,88)" fill-opacity="0.502"/>
<g transform="translate(248.00 396.00) rotate(282) scale(80.00 40.00)"><ellipse cx="0" cy="0" rx="1" ry="1" fill="rgb(10,0,23)" fill-opacity="0.502"/></g>
<circle cx="8.00" cy="200.00" r="16.00" fill="rgb(46,8,72)" fill-opacity="0.502"/>
<polygon points="30.71,557.56 175.72,625.18 145.29,690.44 0.28,622.82" fill="rgb(171,23,161)" fill-opacity="0.502"/>
<circle cx="688.00" cy="464.00" r="16.00" fill="rgb(0,0,8)" fill-opacity="0.502"/>
</g>
</svg>