<?xml version="1.0" standalone="no"?>
<svg xmlns="http://www.w3.org/2000/svg" width="692" height="1024" viewBox="0 0 692 1024" style="overflow:hidden">
<defs>
<clipPath id="c"><rect x="0" y="0" width="692" height="1024"/></clipPath>
</defs>
<rect width="692" height="1024" fill="rgb(74,10,89)"/>
<g clip-path="url(#c)">
<g transform="translate(560.00 684.00) rotate(113) scale(208.00 152.00)"><ellipse cx="0" cy="0" rx="1" ry="1" fill="rgb(255,37,250)" fill-opacity="0.502"/></g>
<circle cx="132.00" cy="696.00" r="204.00" fill="rgb(194,27,184)" fill-opacity="0.502"/>
<circle cx="364.00" cy="116.00" r="332.00" fill="rgb(0,0,0)" fill-opacity="0.502"/>
<g transform="translate(440.00 156.00) rotate(36) scale(216.00 292.00)"><ellipse cx="0" cy="0" rx="1" ry="1" fill="rgb(0,0,26)" fill-opacity="0.502"/></g>
<circle cx="4.00" cy="260.00" r="192.00" fill="rgb(4,1,61)" fill-opacity="0.502"/>
<circle cx="376.00" cy="568.00" r="76.00" fill="rgb(0,0,0)" fill-opacity="0.502"/>
<circle cx="412.00" cy="480.00" r="76.00" fill="rgb(0,0,26)" fill-opacity="0.502"/>
<g transform="translate(164.00 632.00) rotate(216) scale(176.00 128.00)"><ellipse cx="0" cy="0" rx="1" ry="1" fill="rgb(191,26,173)" fill-opacity="0.502"/></g>
<g transform="translate(260.00 920.00) rotate(119) scale(120.00 328.00)"><ellipse cx="0" cy="0" rx="1" ry="1" fill="rgb(47,8,82)" fill-opacity="0.502"/></g>
<g transform="translate(432.00 728.00) rotate(206) scale(48.00 112.00)"><ellipse cx="0" cy="0" rx="1" ry="1" fill="rgb(203,26,180)" fill-opacity="0.502"/></g>
<polygon points="700.29,769.34 733.03,804.45 627.71,902.66 594.97,867.55" fill="rgb(240,32,215)" fill-opacity="0.502"/>
<circle cx="672.00" cy="764.00" r="132.00" fill="rgb(194,24,174)" fill-opacity="0.502"/>
<g transform="translate(156.00 60.00) rotate(294) scale(556.00 132.00)"><ellipse cx="0" cy="0" rx="1" ry="1" fill="rgb(23,3,66)" fill-opacity="0.502"/></g>
<g transform="translate(200.00 416.00) rotate(84) scale(44.00 88.00)"><ellipse cx="0" cy="0" rx="1" ry="1" fill="rgb(141,24,172)" fill-opacity="0.502"/></g>
<g transform="translate(380.00 904.00) rotate(360) scale(272.00 68.00)"><ellipse cx="0" cy="0" rx="1" ry="1" fill="rgb(71,11,96)" fill-opacity="0.502"/></g>
<circle cx="548.00" cy="608.00" r="112.00" fill="rgb(200,26,183)" fill-opacity="0.502"/>
<circle cx="572.00" cy="396.00" r="56.00" fill="rgb(139,23,168)" fill-opacity="0.502"/>
<circle cx="0.00" cy="988.00" r="88.00" fill="rgb(5,0,17)" fill-opacity="0.502"/>
<circle cx="192.00" cy="924.00" r="136.00" fill="rgb(74,12,98)" fill-opacity="0.502"/>
<g transform="translate(660.00 184.00) rotate(96) scale(140.00 168.00)"><ellipse cx="0" cy="0" rx="1" ry="1" fill="rgb(6,0,33)" fill-opacity="0.502"/></g>
<polygon points="430.56,198.33 546.47,229.39 457.44,561.67 341.53,530.61" fill="rgb(16,1,55)" fill-opacity="0.502"/>
<circle cx="476.00" cy="0.00" r="68.00" fill="rgb(33,5,86)" fill-opacity="0.502"/>
<g transform="translate(684.00 456.00) rotate(354) scale(196.00 24.00)"><ellipse cx="0" cy="0" rx="1" ry="1" fill="rgb(0,0,0)" fill-opacity="0.502"/></g>
<polygon points="566.00,418.00 566.00,402.00 618.00,402.00 618.00,418.00" fill="rgb(0,0,0)" fill-opacity="0.502"/>
<g transform="translate(92.00 632.00) rotate(47) scale(24.00 60.00)"><ellipse cx="0" cy="0" rx="1" ry="1" fill="rgb(85,13,86)" fill-opacity="0.502"/></g>
<g transform="translate(308.00 232.00) rotate(99) scale(172.00 92.00)"><ellipse cx="0" cy="0" rx="1" ry="1" fill="rgb(5,0,18)" fill-opacity="0.502"/></g>
<g transform="translate(584.00 968.00) rotate(225) scale(144.00 72.00)"><ellipse cx="0" cy="0" rx="1" ry="1" fill="rgb(62,11,90)" fill-opacity="0.502"/></g>
<circle cx="656.00" cy="516.00" r="32.00" fill="rgb(207,26,182)" fill-opacity="0.502"/>
<polygon points="583.63,799.23 402.43,831.19 384.37,728.77 565.57,696.81" fill="rgb(190,25,176)" fill-opacity="0.502"/>
<polygon points="267.48,597.20 331.44,594.96 340.52,854.80 276.56,857.04" fill="rgb(123,18,113)" fill-opacity="0.502"/>
<circle cx="236.00" cy="456.00" r="36.00" fill="rgb(117,22,145)" fill-opacity="0.502"/>
<circle cx="272.00" cy="496.00" r="16.00" fill="rgb(175,35,204)" fill-opacity="0.502"/>
<g transform="translate(420.00 864.00) rotate(283) scale(36.00 468.00)"><ellipse cx="0" cy="0" rx="1" ry="1" fill="rgb(78,12,107)" fill-opacity="0.502"/></g>
<polygon points="619.44,384.83 620.83,368.89 692.56,375.17 691.17,391.11" fill="rgb(245,46,255)" fill-opacity="0.502"/>
<g transform="translate(88.00 184.00) rotate(360) scale(88.00 252.00)"><ellipse cx="0" cy="0" rx="1" ry="1" fill="rgb(30,5,63)" fill-opacity="0.502"/></g>
<g transform="translate(60.00 548.00) rotate(66) scale(36.00 124.00)"><ellipse cx="0" cy="0" rx="1" ry="1" fill="rgb(200,26,192)" fill-opacity="0.502"/></g>
<polygon points="688.00,320.00 636.00,320.00 636.00,0.00 688.00,0.00" fill="rgb(18,2,56)" fill-opacity="0.502"/>
<polygon points="717.75,412.95 718.24,440.95 598.25,443.05 597.76,415.05" fill="rgb(213,41,245)" fill-opacity="0.502"/>
<circle cx="420.00" cy="244.00" r="60.00" fill="rgb(24,3,69)" fill-opacity="0.502"/>
<g transform="translate(648.00 784.00) rotate(146) scale(60.00 144.00)"><ellipse cx="0" cy="0" rx="1" ry="1" fill="rgb(180,24,172)" fill-opacity="0.502"/></g>
<circle cx="372.00" cy="664.00" r="36.00" fill="rgb(0,0,0)" fill-opacity="0.502"/>
<circle cx="144.00" cy="680.00" r="68.00" fill="rgb(186,24,175)" fill-opacity="0.502"/>
<circle cx="404.00" cy="1020.00" r="104.00" fill="rgb(48,3,58)" fill-opacity="0.502"/>
<circle cx="276.00" cy="284.00" r="104.00" fill="rgb(10,0,25)" fill-opacity="0.502"/>
<polygon points="575.36,310.82 579.75,346.55 460.64,361.18 456.25,325.45" fill="rgb(9,0,23)" fill-opacity="0.502"/>
<polygon points="243.76,462.11 298.43,409.32 376.24,489.89 321.57,542.68" fill="rgb(92,17,116)" fill-opacity="0.502"/>
<circle cx="116.00" cy="136.00" r="136.00" fill="rgb(27,4,63)" fill-opacity="0.502"/>
<circle cx="244.00" cy="644.00" r="88.00" fill="rgb(165,22,152)" fill-opacity="0.502"/>
<polygon points="202.45,444.94 201.40,464.92 89.55,459.06 90.60,439.08" fill="rgb(183,31,209)" fill-opacity="0.502"/>
<circle cx="268.00" cy="528.00" r="24.00" fill="rgb(3,0,15)" fill-opacity="0.502"/>
<g transform="translate(688.00 336.00) rotate(0) scale(88.00 12.00)"><ellipse cx="0" cy="0" rx="1" ry="1" fill="rgb(215,41,249)" fill-opacity="0.502"/></g>
<g transform="translate(636.00 568.00) rotate(11) scale(112.00 84.00)"><ellipse cx="0" cy="0" rx="1" ry="1" fill="rgb(182,24,170)" fill-opacity="0.502"/></g>
<polygon points="629.85,436.37 695.83,452.82 686.15,491.63 620.17,475.18" fill="rgb(0,0,10)" fill-opacity="0.502"/>
<polygon points="625.57,1028.59 611.83,957.91 686.43,943.41 700.17,1014.09" fill="rgb(50,4,67)" fill-opacity="0.502"/>
<g transform="translate(608.00 284.00) rotate(284) scale(48.00 68.00)"><ellipse cx="0" cy="0" rx="1" ry="1" fill="rgb(14,0,34)" fill-opacity="0.502"/></g>
<polygon points="532.00,8.00 636.00,8.00 636.00,168.00 532.00,168.00" fill="rgb(8,0,16)" fill-opacity="0.502"/>
<circle cx="192.00" cy="576.00" r="64.00" fill="rgb(183,24,174)" fill-opacity="0.502"/>
<circle cx="324.00" cy="536.00" r="16.00" fill="rgb(140,26,165)" fill-opacity="0.502"/>
<polygon points="288.11,414.14 163.39,385.35 167.89,365.86 292.61,394.65" fill="rgb(167,31,194)" fill-opacity="0.502"/>
<polygon points="364.25,635.05 391.42,641.82 351.75,800.95 324.58,794.18" fill="rgb(0,0,2)" fill-opacity="0.502"/>
<polygon points="414.46,658.55 346.72,652.63 365.54,437.45 433.28,443.37" fill="rgb(1,0,18)" fill-opacity="0.502"/>
<g transform="translate(296.00 692.00) rotate(275) scale(112.00 44.00)"><ellipse cx="0" cy="0" rx="1" ry="1" fill="rgb(138,20,124)" fill-opacity="0.502"/></g>
<circle cx="56.00" cy="0.00" r="44.00" fill="rgb(26,0,32)" fill-opacity="0.502"/>
<circle cx="528.00" cy="444.00" r="12.00" fill="rgb(246,42,255)" fill-opacity="0.502"/>
<g transform="translate(428.00 384.00) rotate(187) scale(40.00 112.00)"><ellipse cx="0" cy="0" rx="1" ry="1" fill="rgb(25,3,69)" fill-opacity="0.502"/></g>
<polygon points="556.22,869.10 386.72,693.58 455.78,626.90 625.28,802.42" fill="rgb(184,24,175)" fill-opacity="0.502"/>
<g transform="translate(48.00 652.00) rotate(321) scale(100.00 24.00)"><ellipse cx="0" cy="0" rx="1" ry="1" fill="rgb(100,14,92)" fill-opacity="0.502"/></g>
<g transform="translate(244.00 456.00) rotate(203) scale(72.00 8.00)"><ellipse cx="0" cy="0" rx="1" ry="1" fill="rgb(0,0,0)" fill-opacity="0.502"/></g>
<circle cx="168.00" cy="952.00" r="64.00" fill="rgb(81,12,103)" fill-opacity="0.502"/>
<g transform="translate(36.00 860.00) rotate(68) scale(20.00 48.00)"><ellipse cx="0" cy="0" rx="1" ry="1" fill="rgb(114,24,145)" fill-opacity="0.502"/></g>
<circle cx="536.00" cy="676.00" r="124.00" fill="rgb(186,25,179)" fill-opacity="0.502"/>
<polygon points="535.72,404.91 494.41,482.61 480.28,475.09 521.59,397.39" fill="rgb(129,23,160)" fill-opacity="0.502"/>
<polygon points="333.28,462.47 326.92,472.64 238.72,417.53 245.08,407.36" fill="rgb(0,0,14)" fill-opacity="0.502"/>
<g transform="translate(448.00 136.00) rotate(316) scale(40.00 184.00)"><ellipse cx="0" cy="0" rx="1" ry="1" fill="rgb(9,0,21)" fill-opacity="0.502"/></g>
<polygon points="285.92,407.02 250.32,381.16 262.08,364.98 297.68,390.84" fill="rgb(5,0,19)" fill-opacity="0.502"/>
<g transform="translate(548.00 272.00) rotate(210) scale(48.00 132.00)"><ellipse cx="0" cy="0" rx="1" ry="1" fill="rgb(16,1,32)" fill-opacity="0.502"/></g>
<polygon points="515.75,498.64 476.43,526.17 428.25,457.36 467.57,429.83" fill="rgb(13,1,43)" fill-opacity="0.502"/>
<g transform="translate(32.00 404.00) rotate(66) scale(100.00 56.00)"><ellipse cx="0" cy="0" rx="1" ry="1" fill="rgb(35,6,65)" fill-opacity="0.502"/></g>
<polygon points="503.27,463.88 497.80,448.85 576.73,420.12 582.20,435.15" fill="rgb(212,35,234)" fill-opacity="0.502"/>
<polygon points="54.77,28.60 154.53,35.58 149.23,111.40 49.47,104.42" fill="rgb(39,6,72)" fill-opacity="0.502"/>
<polygon points="-0.66,423.23 9.35,360.01 64.66,368.77 54.65,431.99" fill="rgb(60,8,82)" fill-opacity="0.502"/>
<polygon points="302.68,507.41 310.81,489.14 453.32,552.59 445.19,570.86" fill="rgb(24,2,39)" fill-opacity="0.502"/>
<circle cx="200.00" cy="404.00" r="12.00" fill="rgb(0,0,2)" fill-opacity="0.502"/>
<polygon points="22.05,715.87 80.83,634.97 109.95,656.13 51.17,737.03" fill="rgb(177,24,162)" fill-opacity="0.502"/>
<g transform="translate(312.00 736.00) rotate(161) scale(20.00 60.00)"><ellipse cx="0" cy="0" rx="1" ry="1" fill="rgb(134,18,118)" fill-opacity="0.502"/></g>
<g transform="translate(232.00 680.00) rotate(217) scale(32.00 96.00)"><ellipse cx="0" cy="0" rx="1" ry="1" fill="rgb(165,22,155)" fill-opacity="0.502"/></g>
<g transform="translate(236.00 1016.00) rotate(338) scale(124.00 92.00)"><ellipse cx="0" cy="0" rx="1" ry="1" fill="rgb(70,12,92)" fill-opacity="0.502"/></g>
<g transform="translate(96.00 836.00) rotate(130) scale(48.00 168.00)"><ellipse cx="0" cy="0" rx="1" ry="1" fill="rgb(69,11,95)" fill-opacity="0.502"/></g>
<g transform="translate(688.00 572.00) rotate(73) scale(80.00 80.00)"><ellipse cx="0" cy="0" rx="1" ry="1" fill="rgb(176,23,167)" fill-opacity="0.502"/></g>
<circle cx="16.00" cy="476.00" r="40.00" fill="rgb(9,1,52)" fill-opacity="0.502"/>
<g transform="translate(260.00 372.00) rotate(276) scale(12.00 156.00)"><ellipse cx="0" cy="0" rx="1" ry="1" fill="rgb(7,0,24)" fill-opacity="0.502"/></g>
<polygon points="185.81,536.25 181.90,592.12 62.19,583.75 66.10,527.88" fill="rgb(184,24,178)" fill-opacity="0.502"/>
<circle cx="680.00" cy="200.00" r="60.00" fill="rgb(26,4,66)" fill-opacity="0.502"/>
<polygon points="413.33,736.15 432.07,756.96 366.67,815.85 347.93,795.04" fill="rgb(157,22,140)" fill-opacity="0.502"/>
<polygon points="106.19,707.25 63.93,743.99 29.81,704.75 72.07,668.01" fill="rgb(177,24,169)" fill-opacity="0.502"/>
<g transform="translate(444.00 860.00) rotate(275) scale(20.00 116.00)"><ellipse cx="0" cy="0" rx="1" ry="1" fill="rgb(90,12,112)" fill-opacity="0.502"/></g>
<g transform="translate(228.00 44.00) rotate(128) scale(184.00 44.00)"><ellipse cx="0" cy="0" rx="1" ry="1" fill="rgb(22,3,61)" fill-opacity="0.502"/></g>
<circle cx="52.00" cy="916.00" r="40.00" fill="rgb(41,2,54)" fill-opacity="0.502"/>
<g transform="translate(604.00 240.00) rotate(308) scale(36.00 120.00)"><ellipse cx="0" cy="0" rx="1" ry="1" fill="rgb(17,1,38)" fill-opacity="0.502"/></g>
<polygon points="52.16,956.12 82.04,944.66 107.84,1011.88 77.96,1023.34" fill="rgb(58,6,75)" fill-opacity="0.502"/>
<circle cx="588.00" cy="848.00" r="28.00" fill="rgb(167,23,155)" fill-opacity="0.502"/>
<g transform="translate(16.00 680.00) rotate(31) scale(12.00 28.00)"><ellipse cx="0" cy="0" rx="1" ry="1" fill="rgb(92,12,71)" fill-opacity="0.502"/></g>
<g transform="translate(132.00 928.00) rotate(354) scale(56.00 52.00)"><ellipse cx="0" cy="0" rx="1" ry="1" fill="rgb(79,11,101)" fill-opacity="0.502"/></g>
<g transform="translate(356.00 4.00) rotate(360) scale(48.00 192.00)"><ellipse cx="0" cy="0" rx="1" ry="1" fill="rgb(9,0,20)" fill-opacity="0.502"/></g>
<polygon points="138.00,702.00 138.00,598.00 190.00,598.00 190.00,702.00" fill="rgb(182,24,175)" fill-opacity="0.502"/>
<polygon points="403.81,536.22 420.54,377.09 484.19,383.78 467.46,542.91" fill="rgb(19,2,52)" fill-opacity="0.502"/>
<g transform="translate(448.00 864.00) rotate(203) scale(144.00 24.00)"><ellipse cx="0" cy="0" rx="1" ry="1" fill="rgb(85,12,107)" fill-opacity="0.502"/></g>
<circle cx="644.00" cy="828.00" r="56.00" fill="rgb(170,23,161)" fill-opacity="0.502"/>
<g transform="translate(180.00 336.00) rotate(245) scale(40.00 60.00)"><ellipse cx="0" cy="0" rx="1" ry="1" fill="rgb(12,0,37)" fill-opacity="0.502"/></g>
<circle cx="220.00" cy="996.00" r="52.00" fill="rgb(77,12,101)" fill-opacity="0.502"/>
<g transform="translate(332.00 292.00) rotate(261) scale(164.00 48.00)"><ellipse cx="0" cy="0" rx="1" ry="1" fill="rgb(9,0,21)" fill-opacity="0.502"/></g>
<polygon points="101.55,832.81 125.62,864.75 106.45,879.19 82.38,847.25" fill="rgb(93,16,123)" fill-opacity="0.502"/>
<g transform="translate(0.00 968.00) rotate(304) scale(40.00 36.00)"><ellipse cx="0" cy="0" rx="1" ry="1" fill="rgb(15,0,30)" fill-opacity="0.502"/></g>
<circle cx="296.00" cy="544.00" r="16.00" fill="rgb(0,0,0)" fill-opacity="0.502"/>
<circle cx="568.00" cy="940.00" r="72.00" fill="rgb(70,13,95)" fill-opacity="0.502"/>
<circle cx="224.00" cy="572.00" r="52.00" fill="rgb(164,22,153)" fill-opacity="0.502"/>
<polygon points="43.72,520.56 73.91,494.31 92.28,515.44 62.09,541.69" fill="rgb(192,25,185)" fill-opacity="0.502"/>
<polygon points="127.32,245.02 162.41,359.78 112.68,374.98 77.59,260.22" fill="rgb(27,4,69)" fill-opacity="0.502"/>
<circle cx="76.00" cy="628.00" r="28.00" fill="rgb(136,19,125)" fill-opacity="0.502"/>
<g transform="translate(312.00 844.00) rotate(159) scale(68.00 24.00)"><ellipse cx="0" cy="0" rx="1" ry="1" fill="rgb(84,11,105)" fill-opacity="0.502"/></g>
<polygon points="105.73,455.06 201.20,465.09 198.27,492.94 102.80,482.91" fill="rgb(0,0,8)" fill-opacity="0.502"/>
<circle cx="600.00" cy="272.00" r="64.00" fill="rgb(16,1,39)" fill-opacity="0.502"/>
<circle cx="316.00" cy="96.00" r="64.00" fill="rgb(12,0,27)" fill-opacity="0.502"/>
<g transform="translate(604.00 828.00) rotate(1) scale(132.00 36.00)"><ellipse cx="0" cy="0" rx="1" ry="1" fill="rgb(176,23,165)" fill-opacity="0.502"/></g>
<polygon points="688.93,90.55 627.64,141.97 607.07,117.45 668.36,66.03" fill="rgb(21,1,46)" fill-opacity="0.502"/>
<circle cx="596.00" cy="348.00" r="12.00" fill="rgb(211,37,239)" fill-opacity="0.502"/>
<circle cx="332.00" cy="944.00" r="64.00" fill="rgb(58,8,77)" fill-opacity="0.502"/>
<circle cx="616.00" cy="360.00" r="12.00" fill="rgb(0,0,5)" fill-opacity="0.502"/>
<g transform="translate(480.00 420.00) rotate(342) scale(20.00 40.00)"><ellipse cx="0" cy="0" rx="1" ry="1" fill="rgb(18,1,50)" fill-opacity="0.502"/></g>
<g transform="translate(372.00 708.00) rotate(22) scale(8.00 72.00)"><ellipse cx="0" cy="0" rx="1" ry="1" fill="rgb(0,0,11)" fill-opacity="0.502"/></g>
<polygon points="309.87,802.08 293.39,842.87 182.13,797.92 198.61,757.13" fill="rgb(88,17,121)" fill-opacity="0.502"/>
<polygon points="324.91,17.45 201.59,30.42 199.09,6.55 322.41,-6.42" fill="rgb(43,8,74)" fill-opacity="0.502"/>
<polygon points="592.95,437.43 611.33,452.86 583.05,486.57 564.67,471.14" fill="rgb(0,0,15)" fill-opacity="0.502"/>
<circle cx="308.00" cy="292.00" r="108.00" fill="rgb(12,0,27)" fill-opacity="0.502"/>
<polygon points="572.03,458.17 480.44,515.40 471.97,501.83 563.56,444.60" fill="rgb(0,0,3)" fill-opacity="0.502"/>
<circle cx="224.00" cy="500.00" r="20.00" fill="rgb(0,0,0)" fill-opacity="0.502"/>
<polygon points="546.20,428.87 537.43,420.68 553.80,403.13 562.57,411.32" fill="rgb(0,0,0)" fill-opacity="0.502"/>
<g transform="translate(580.00 876.00) rotate(14) scale(240.00 4.00)"><ellipse cx="0" cy="0" rx="1" ry="1" fill="rgb(85,14,112)" fill-opacity="0.502"/></g>
<polygon points="261.43,498.34 233.18,483.32 242.57,465.66 270.82,480.68" fill="rgb(194,38,222)" fill-opacity="0.502"/>
<g transform="translate(340.00 596.00) rotate(152) scale(12.00 72.00)"><ellipse cx="0" cy="0" rx="1" ry="1" fill="rgb(0,0,11)" fill-opacity="0.502"/></g>
<polygon points="287.75,819.20 319.87,773.33 336.25,784.80 304.13,830.67" fill="rgb(99,15,104)" fill-opacity="0.502"/>
<circle cx="468.00" cy="696.00" r="72.00" fill="rgb(184,25,176)" fill-opacity="0.502"/>
<polygon points="459.77,1034.83 436.15,1007.66 448.23,997.17 471.85,1024.34" fill="rgb(33,1,43)" fill-opacity="0.502"/>
<polygon points="110.86,444.21 50.72,466.10 41.14,439.79 101.28,417.90" fill="rgb(24,3,63)" fill-opacity="0.502"/>
<circle cx="408.00" cy="200.00" r="24.00" fill="rgb(23,3,67)" fill-opacity="0.502"/>
<g transform="translate(372.00 776.00) rotate(131) scale(20.00 16.00)"><ellipse cx="0" cy="0" rx="1" ry="1" fill="rgb(135,19,116)" fill-opacity="0.502"/></g>
<polygon points="322.89,673.29 278.45,789.05 241.11,774.71 285.55,658.95" fill="rgb(147,21,139)" fill-opacity="0.502"/>
<polygon points="602.01,350.34 612.29,356.52 601.99,373.66 591.71,367.48" fill="rgb(0,0,0)" fill-opacity="0.502"/>
<circle cx="344.00" cy="552.00" r="12.00" fill="rgb(126,24,156)" fill-opacity="0.502"/>
<g transform="translate(656.00 404.00) rotate(356) scale(108.00 8.00)"><ellipse cx="0" cy="0" rx="1" ry="1" fill="rgb(0,0,0)" fill-opacity="0.502"/></g>
<g transform="translate(436.00 288.00) rotate(180) scale(40.00 112.00)"><ellipse cx="0" cy="0" rx="1" ry="1" fill="rgb(22,3,62)" fill-opacity="0.502"/></g>
<polygon points="289.93,116.19 301.92,145.86 198.07,187.81 186.08,158.14" fill="rgb(14,0,35)" fill-opacity="0.502"/>
<circle cx="536.00" cy="152.00" r="48.00" fill="rgb(10,0,19)" fill-opacity="0.502"/>
<g transform="translate(440.00 52.00) rotate(208) scale(24.00 40.00)"><ellipse cx="0" cy="0" rx="1" ry="1" fill="rgb(27,3,62)" fill-opacity="0.502"/></g>
<g transform="translate(228.00 304.00) rotate(298) scale(76.00 48.00)"><ellipse cx="0" cy="0" rx="1" ry="1" fill="rgb(12,0,27)" fill-opacity="0.502"/></g>
<polygon points="57.01,824.69 74.21,869.50 6.99,895.31 -10.21,850.50" fill="rgb(105,19,131)" fill-opacity="0.502"/>
<circle cx="552.00" cy="580.00" r="88.00" fill="rgb(184,25,177)" fill-opacity="0.502"/>
<polygon points="379.38,774.96 478.86,694.41 516.62,741.04 417.14,821.59" fill="rgb(182,24,175)" fill-opacity="0.502"/>
<circle cx="404.00" cy="152.00" r="32.00" fill="rgb(8,0,20)" fill-opacity="0.502"/>
<circle cx="556.00" cy="380.00" r="28.00" fill="rgb(128,21,153)" fill-opacity="0.502"/>
<g transform="translate(516.00 616.00) rotate(15) scale(80.00 104.00)"><ellipse cx="0" cy="0" rx="1" ry="1" fill="rgb(185,25,178)" fill-opacity="0.502"/></g>
<polygon points="656.89,-3.82 691.82,4.89 683.11,39.82 648.18,31.11" fill="rgb(35,6,75)" fill-opacity="0.502"/>
<circle cx="12.00" cy="156.00" r="76.00" fill="rgb(34,5,67)" fill-opacity="0.502"/>
<g transform="translate(524.00 0.00) rotate(64) scale(20.00 120.00)"><ellipse cx="0" cy="0" rx="1" ry="1" fill="rgb(33,6,71)" fill-opacity="0.502"/></g>
<g transform="translate(32.00 396.00) rotate(290) scale(12.00 20.00)"><ellipse cx="0" cy="0" rx="1" ry="1" fill="rgb(65,6,90)" fill-opacity="0.502"/></g>
<g transform="translate(0.00 576.00) rotate(324) scale(156.00 24.00)"><ellipse cx="0" cy="0" rx="1" ry="1" fill="rgb(184,24,175)" fill-opacity="0.502"/></g>
<polygon points="342.60,498.47 367.09,512.04 357.40,529.53 332.91,515.96" fill="rgb(87,15,107)" fill-opacity="0.502"/>
<circle cx="132.00" cy="776.00" r="32.00" fill="rgb(87,16,121)" fill-opacity="0.502"/>
<polygon points="414.75,724.24 501.90,590.05 609.25,659.76 522.10,793.95" fill="rgb(188,25,181)" fill-opacity="0.502"/>
<polygon points="112.10,852.73 141.33,839.72 199.90,971.27 170.67,984.28" fill="rgb(83,10,104)" fill-opacity="0.502"/>
<circle cx="204.00" cy="536.00" r="28.00" fill="rgb(171,23,161)" fill-opacity="0.502"/>
<circle cx="92.00" cy="456.00" r="12.00" fill="rgb(153,26,180)" fill-opacity="0.502"/>
<circle cx="188.00" cy="608.00" r="48.00" fill="rgb(178,23,169)" fill-opacity="0.502"/>
<circle cx="160.00" cy="436.00" r="12.00" fill="rgb(8,0,32)" fill-opacity="0.502"/>
<circle cx="672.00" cy="964.00" r="36.00" fill="rgb(58,8,78)" fill-opacity="0.502"/>
<g transform="translate(56.00 576.00) rotate(62) scale(28.00 112.00)"><ellipse cx="0" cy="0" rx="1" ry="1" fill="rgb(183,24,174)" fill-opacity="0.502"/></g>
<polygon points="46.11,611.92 87.79,655.08 61.89,680.08 20.21,636.92" fill="rgb(134,19,117)" fill-opacity="0.502"/>
<circle cx="580.00" cy="428.00" r="16.00" fill="rgb(190,32,210)" fill-opacity="0.502"/>
<circle cx="396.00" cy="568.00" r="44.00" fill="rgb(6,0,23)" fill-opacity="0.502"/>
<polygon points="667.69,593.71 676.05,673.27 628.31,678.29 619.95,598.73" fill="rgb(180,24,173)" fill-opacity="0.502"/>
<circle cx="560.00" cy="376.00" r="12.00" fill="rgb(4,0,25)" fill-opacity="0.502"/>
<circle cx="504.00" cy="796.00" r="48.00" fill="rgb(181,24,171)" fill-opacity="0.502"/>
<g transform="translate(68.00 268.00) rotate(318) scale(112.00 108.00)"><ellipse cx="0" cy="0" rx="1" ry="1" fill="rgb(27,4,65)" fill-opacity="0.502"/></g>
<circle cx="656.00" cy="360.00" r="12.00" fill="rgb(0,0,11)" fill-opacity="0.502"/>
<circle cx="632.00" cy="912.00" r="28.00" fill="rgb(69,11,94)" fill-opacity="0.502"/>
<g transform="translate(684.00 804.00) rotate(220) scale(72.00 80.00)"><ellipse cx="0" cy="0" rx="1" ry="1" fill="rgb(175,23,165)" fill-opacity="0.502"/></g>
<polygon points="177.93,495.91 197.41,544.12 138.07,568.09 118.59,519.88" fill="rgb(176,23,167)" fill-opacity="0.502"/>
<circle cx="584.00" cy="368.00" r="12.00" fill="rgb(0,0,8)" fill-opacity="0.502"/>
<polygon points="421.08,848.75 445.71,916.41 426.92,923.25 402.29,855.59" fill="rgb(84,12,104)" fill-opacity="0.502"/>
<circle cx="512.00" cy="312.00" r="56.00" fill="rgb(12,0,27)" fill-opacity="0.502"/>
<polygon points="79.22,488.62 92.08,530.70 76.78,535.38 63.92,493.30" fill="rgb(186,25,178)" fill-opacity="0.502"/>
<g transform="translate(52.00 744.00) rotate(103) scale(12.00 52.00)"><ellipse cx="0" cy="0" rx="1" ry="1" fill="rgb(74,12,104)" fill-opacity="0.502"/></g>
<polygon points="160.30,78.02 45.55,113.11 39.70,93.98 154.45,58.89" fill="rgb(58,8,79)" fill-opacity="0.502"/>
<g transform="translate(148.00 784.00) rotate(269) scale(28.00 52.00)"><ellipse cx="0" cy="0" rx="1" ry="1" fill="rgb(85,15,115)" fill-opacity="0.502"/></g>
<polygon points="82.65,463.77 71.30,459.87 97.35,384.23 108.70,388.13" fill="rgb(26,4,63)" fill-opacity="0.502"/>
<g transform="translate(56.00 292.00) rotate(150) scale(56.00 28.00)"><ellipse cx="0" cy="0" rx="1" ry="1" fill="rgb(36,6,67)" fill-opacity="0.502"/></g>
<circle cx="496.00" cy="104.00" r="60.00" fill="rgb(12,0,30)" fill-opacity="0.502"/>
<circle cx="420.00" cy="444.00" r="44.00" fill="rgb(22,3,59)" fill-opacity="0.502"/>
<polygon points="678.16,391.11 664.89,382.16 673.84,368.89 687.11,377.84" fill="rgb(165,31,203)" fill-opacity="0.502"/>
<polygon points="184.53,159.87 183.14,175.80 95.47,168.13 96.86,152.20" fill="rgb(10,0,24)" fill-opacity="0.502"/>
<polygon points="358.00,530.00 358.00,510.00 470.00,510.00 470.00,530.00" fill="rgb(15,0,28)" fill-opacity="0.502"/>
<g transform="translate(112.00 0.00) rotate(198) scale(104.00 48.00)"><ellipse cx="0" cy="0" rx="1" ry="1" fill="rgb(20,2,55)" fill-opacity="0.502"/></g>
<polygon points="228.81,483.94 367.50,592.30 355.19,608.06 216.50,499.70" fill="rgb(0,0,17)" fill-opacity="0.502"/>
<polygon points="78.11,996.30 125.62,975.15 141.89,1011.70 94.38,1032.85" fill="rgb(58,10,81)" fill-opacity="0.502"/>
<polygon points="435.67,511.50 537.50,409.67 540.33,412.50 438.50,514.33" fill="rgb(37,4,64)" fill-opacity="0.502"/>
<circle cx="296.00" cy="920.00" r="36.00" fill="rgb(69,13,94)" fill-opacity="0.502"/>
<polygon points="302.65,482.59 266.17,457.99 277.35,441.41 313.83,466.01" fill="rgb(149,28,175)" fill-opacity="0.502"/>
<g transform="translate(40.00 796.00) rotate(211) scale(132.00 12.00)"><ellipse cx="0" cy="0" rx="1" ry="1" fill="rgb(68,11,92)" fill-opacity="0.502"/></g>
<circle cx="508.00" cy="548.00" r="36.00" fill="rgb(184,25,176)" fill-opacity="0.502"/>
<g transform="translate(292.00 508.00) rotate(72) scale(16.00 12.00)"><ellipse cx="0" cy="0" rx="1" ry="1" fill="rgb(171,34,192)" fill-opacity="0.502"/></g>
<polygon points="62.51,927.46 42.38,897.62 85.49,868.54 105.62,898.38" fill="rgb(49,5,63)" fill-opacity="0.502"/>
<polygon points="135.12,208.12 137.21,184.21 224.88,191.88 222.79,215.79" fill="rgb(41,7,73)" fill-opacity="0.502"/>
<circle cx="224.00" cy="108.00" r="44.00" fill="rgb(19,2,58)" fill-opacity="0.502"/>
<polygon points="119.13,7.38 138.83,32.59 56.87,96.62 37.17,71.41" fill="rgb(19,3,62)" fill-opacity="0.502"/>
<g transform="translate(120.00 136.00) rotate(359) scale(52.00 12.00)"><ellipse cx="0" cy="0" rx="1" ry="1" fill="rgb(53,10,76)" fill-opacity="0.502"/></g>
<polygon points="172.98,47.12 205.34,70.63 163.02,128.88 130.66,105.37" fill="rgb(18,2,55)" fill-opacity="0.502"/>
<circle cx="372.00" cy="544.00" r="24.00" fill="rgb(15,0,28)" fill-opacity="0.502"/>
<g transform="translate(648.00 140.00) rotate(170) scale(80.00 8.00)"><ellipse cx="0" cy="0" rx="1" ry="1" fill="rgb(12,0,22)" fill-opacity="0.502"/></g>
<g transform="translate(508.00 1020.00) rotate(360) scale(76.00 12.00)"><ellipse cx="0" cy="0" rx="1" ry="1" fill="rgb(44,2,58)" fill-opacity="0.502"/></g>
<g transform="translate(132.00 976.00) rotate(186) scale(60.00 12.00)"><ellipse cx="0" cy="0" rx="1" ry="1" fill="rgb(67,14,94)" fill-opacity="0.502"/></g>
<polygon points="562.55,871.33 597.34,909.97 585.45,920.67 550.66,882.03" fill="rgb(80,9,100)" fill-opacity="0.502"/>
<g transform="translate(188.00 252.00) rotate(3) scale(4.00 28.00)"><ellipse cx="0" cy="0" rx="1" ry="1" fill="rgb(22,3,60)" fill-opacity="0.502"/></g>
<circle cx="0.00" cy="512.00" r="28.00" fill="rgb(17,2,60)" fill-opacity="0.502"/>
<circle cx="680.00" cy="356.00" r="12.00" fill="rgb(0,0,0)" fill-opacity="0.502"/>
<circle cx="640.00" cy="520.00" r="32.00" fill="rgb(178,23,170)" fill-opacity="0.502"/>
<g transform="translate(188.00 712.00) rotate(200) scale(24.00 40.00)"><ellipse cx="0" cy="0" rx="1" ry="1" fill="rgb(171,22,160)" fill-opacity="0.502"/></g>
<polygon points="437.02,93.90 425.30,59.86 534.98,22.10 546.70,56.14" fill="rgb(17,1,48)" fill-opacity="0.502"/>
<g transform="translate(348.00 0.00) rotate(352) scale(36.00 36.00)"><ellipse cx="0" cy="0" rx="1" ry="1" fill="rgb(9,0,22)" fill-opacity="0.502"/></g>
<polygon points="760.08,414.91 758.41,426.80 603.92,405.09 605.59,393.20" fill="rgb(0,0,11)" fill-opacity="0.502"/>
<g transform="translate(0.00 0.00) rotate(226) scale(4.00 72.00)"><ellipse cx="0" cy="0" rx="1" ry="1" fill="rgb(194,41,219)" fill-opacity="0.502"/></g>
<polygon points="378.56,249.81 215.78,269.80 209.44,218.19 372.22,198.20" fill="rgb(13,0,29)" fill-opacity="0.502"/>
<circle cx="12.00" cy="656.00" r="20.00" fill="rgb(134,19,117)" fill-opacity="0.502"/>
<circle cx="100.00" cy="732.00" r="12.00" fill="rgb(176,27,177)" fill-opacity="0.502"/>
<circle cx="0.00" cy="28.00" r="16.00" fill="rgb(170,36,197)" fill-opacity="0.502"/>
<g transform="translate(604.00 860.00) rotate(283) scale(12.00 100.00)"><ellipse cx="0" cy="0" rx="1" ry="1" fill="rgb(168,23,157)" fill-opacity="0.502"/></g>
<g transform="translate(208.00 268.00) rotate(115) scale(124.00 16.00)"><ellipse cx="0" cy="0" rx="1" ry="1" fill="rgb(15,1,33)" fill-opacity="0.502"/></g>
<polygon points="271.72,915.47 206.47,885.04 240.28,812.53 305.53,842.96" fill="rgb(74,11,97)" fill-opacity="0.502"/>
<polygon points="520.13,130.62 572.22,-20.66 647.87,5.38 595.78,156.66" fill="rgb(9,0,21)" fill-opacity="0.502"/>
<g transform="translate(512.00 992.00) rotate(304) scale(16.00 52.00)"><ellipse cx="0" cy="0" rx="1" ry="1" fill="rgb(61,8,79)" fill-opacity="0.502"/></g>
<g transform="translate(596.00 380.00) rotate(296) scale(4.00 16.00)"><ellipse cx="0" cy="0" rx="1" ry="1" fill="rgb(210,34,228)" fill-opacity="0.502"/></g>
<polygon points="79.27,872.97 7.99,909.29 0.73,895.03 72.01,858.71" fill="rgb(67,10,91)" fill-opacity="0.502"/>
<polygon points="271.80,611.91 256.37,593.52 296.20,560.09 311.63,578.48" fill="rgb(148,21,136)" fill-opacity="0.502"/>
<polygon points="377.54,184.48 421.00,292.03 402.46,299.52 359.00,191.97" fill="rgb(18,1,42)" fill-opacity="0.502"/>
<g transform="translate(436.00 1000.00) rotate(319) scale(32.00 136.00)"><ellipse cx="0" cy="0" rx="1" ry="1" fill="rgb(50,5,66)" fill-opacity="0.502"/></g>
<polygon points="425.87,660.09 409.89,750.69 394.13,747.91 410.11,657.31" fill="rgb(158,21,146)" fill-opacity="0.502"/>
<polygon points="421.49,586.15 416.24,592.19 298.51,489.85 303.76,483.81" fill="rgb(5,0,20)" fill-opacity="0.502"/>
<polygon points="355.21,566.46 344.79,625.54 344.79,625.54 355.21,566.46" fill="rgb(49,8,69)" fill-opacity="0.502"/>
<polygon points="670.32,429.01 675.02,422.53 697.68,438.99 692.98,445.47" fill="rgb(178,34,211)" fill-opacity="0.502"/>
<g transform="translate(316.00 712.00) rotate(244) scale(48.00 20.00)"><ellipse cx="0" cy="0" rx="1" ry="1" fill="rgb(130,18,116)" fill-opacity="0.502"/></g>
<polygon points="483.33,289.76 432.47,300.58 416.67,226.24 467.53,215.42" fill="rgb(24,4,66)" fill-opacity="0.502"/>
<g transform="translate(48.00 920.00) rotate(210) scale(12.00 32.00)"><ellipse cx="0" cy="0" rx="1" ry="1" fill="rgb(33,1,42)" fill-opacity="0.502"/></g>
<g transform="translate(688.00 16.00) rotate(319) scale(44.00 44.00)"><ellipse cx="0" cy="0" rx="1" ry="1" fill="rgb(25,4,61)" fill-opacity="0.502"/></g>
<polygon points="483.75,264.76 438.20,434.77 380.25,419.24 425.80,249.23" fill="rgb(21,2,60)" fill-opacity="0.502"/>
<g transform="translate(52.00 560.00) rotate(78) scale(40.00 52.00)"><ellipse cx="0" cy="0" rx="1" ry="1" fill="rgb(184,24,177)" fill-opacity="0.502"/></g>
<polygon points="212.02,452.36 244.76,487.46 235.98,495.64 203.24,460.54" fill="rgb(174,31,201)" fill-opacity="0.502"/>
<g transform="translate(476.00 504.00) rotate(160) scale(136.00 12.00)"><ellipse cx="0" cy="0" rx="1" ry="1" fill="rgb(9,0,28)" fill-opacity="0.502"/></g>
<g transform="translate(688.00 384.00) rotate(269) scale(4.00 144.00)"><ellipse cx="0" cy="0" rx="1" ry="1" fill="rgb(195,34,221)" fill-opacity="0.502"/></g>
<circle cx="164.00" cy="400.00" r="12.00" fill="rgb(35,4,58)" fill-opacity="0.502"/>
<circle cx="356.00" cy="800.00" r="12.00" fill="rgb(106,13,84)" fill-opacity="0.502"/>
<polygon points="602.83,169.54 639.87,226.57 529.17,298.46 492.13,241.43" fill="rgb(17,1,39)" fill-opacity="0.502"/>
<g transform="translate(364.00 656.00) rotate(279) scale(100.00 12.00)"><ellipse cx="0" cy="0" rx="1" ry="1" fill="rgb(4,0,19)" fill-opacity="0.502"/></g>
<polygon points="678.92,412.68 675.41,419.87 625.08,395.32 628.59,388.13" fill="rgb(17,0,42)" fill-opacity="0.502"/>
<polygon points="435.70,595.19 439.38,596.76 400.30,688.81 396.62,687.24" fill="rgb(110,18,104)" fill-opacity="0.502"/>
<polygon points="13.55,565.04 22.55,526.06 26.45,526.96 17.45,565.94" fill="rgb(188,25,181)" fill-opacity="0.502"/>
<g transform="translate(684.00 472.00) rotate(150) scale(32.00 8.00)"><ellipse cx="0" cy="0" rx="1" ry="1" fill="rgb(9,0,25)" fill-opacity="0.502"/></g>
<g transform="translate(16.00 800.00) rotate(286) scale(28.00 60.00)"><ellipse cx="0" cy="0" rx="1" ry="1" fill="rgb(73,11,98)" fill-opacity="0.502"/></g>
<polygon points="245.02,686.05 267.02,647.95 318.98,677.95 296.98,716.05" fill="rgb(150,22,142)" fill-opacity="0.502"/>
<circle cx="616.00" cy="456.00" r="20.00" fill="rgb(1,0,22)" fill-opacity="0.502"/>
<polygon points="586.82,717.03 656.98,733.23 637.18,818.97 567.02,802.77" fill="rgb(182,24,174)" fill-opacity="0.502"/>
<polygon points="348.99,159.83 466.95,77.23 483.01,100.17 365.05,182.77" fill="rgb(10,0,23)" fill-opacity="0.502"/>
<polygon points="-6.99,850.09 -2.15,830.68 90.99,853.91 86.15,873.32" fill="rgb(103,19,129)" fill-opacity="0.502"/>
<g transform="translate(60.00 0.00) rotate(220) scale(24.00 56.00)"><ellipse cx="0" cy="0" rx="1" ry="1" fill="rgb(34,1,35)" fill-opacity="0.502"/></g>
<circle cx="80.00" cy="708.00" r="32.00" fill="rgb(176,23,169)" fill-opacity="0.502"/>
<polygon points="-18.69,101.66 -28.69,84.34 78.69,22.34 88.69,39.66" fill="rgb(42,7,72)" fill-opacity="0.502"/>
<circle cx="400.00" cy="808.00" r="16.00" fill="rgb(161,23,149)" fill-opacity="0.502"/>
<g transform="translate(0.00 900.00) rotate(227) scale(20.00 12.00)"><ellipse cx="0" cy="0" rx="1" ry="1" fill="rgb(68,9,91)" fill-opacity="0.502"/></g>
<circle cx="380.00" cy="736.00" r="12.00" fill="rgb(126,19,108)" fill-opacity="0.502"/>
<circle cx="576.00" cy="356.00" r="8.00" fill="rgb(239,40,255)" fill-opacity="0.502"/>
<circle cx="348.00" cy="412.00" r="28.00" fill="rgb(7,0,20)" fill-opacity="0.502"/>
<polygon points="676.83,498.94 696.63,501.72 687.17,569.06 667.37,566.28" fill="rgb(172,23,160)" fill-opacity="0.502"/>
<circle cx="528.00" cy="388.00" r="16.00" fill="rgb(84,15,113)" fill-opacity="0.502"/>
<polygon points="589.05,915.68 642.18,1040.87 586.95,1064.32 533.82,939.13" fill="rgb(68,13,93)" fill-opacity="0.502"/>
<polygon points="704.20,256.98 679.48,270.12 643.80,203.02 668.52,189.88" fill="rgb(25,4,69)" fill-opacity="0.502"/>
<g transform="translate(244.00 524.00) rotate(211) scale(132.00 4.00)"><ellipse cx="0" cy="0" rx="1" ry="1" fill="rgb(22,1,38)" fill-opacity="0.502"/></g>
<g transform="translate(252.00 440.00) rotate(22) scale(72.00 8.00)"><ellipse cx="0" cy="0" rx="1" ry="1" fill="rgb(179,33,202)" fill-opacity="0.502"/></g>
<circle cx="240.00" cy="720.00" r="24.00" fill="rgb(159,22,147)" fill-opacity="0.502"/>
<polygon points="608.70,168.95 524.54,194.68 495.30,99.05 579.46,73.32" fill="rgb(11,0,24)" fill-opacity="0.502"/>
<circle cx="180.00" cy="860.00" r="44.00" fill="rgb(73,11,96)" fill-opacity="0.502"/>
<circle cx="220.00" cy="412.00" r="8.00" fill="rgb(0,0,0)" fill-opacity="0.502"/>
<circle cx="604.00" cy="564.00" r="40.00" fill="rgb(178,23,170)" fill-opacity="0.502"/>
<g transform="translate(608.00 312.00) rotate(258) scale(20.00 136.00)"><ellipse cx="0" cy="0" rx="1" ry="1" fill="rgb(14,1,32)" fill-opacity="0.502"/></g>
<g transform="translate(24.00 380.00) rotate(341) scale(88.00 100.00)"><ellipse cx="0" cy="0" rx="1" ry="1" fill="rgb(34,5,68)" fill-opacity="0.502"/></g>
<circle cx="368.00" cy="944.00" r="36.00" fill="rgb(59,7,78)" fill-opacity="0.502"/>
<g transform="translate(240.00 1020.00) rotate(88) scale(28.00 76.00)"><ellipse cx="0" cy="0" rx="1" ry="1" fill="rgb(72,13,98)" fill-opacity="0.502"/></g>
<circle cx="176.00" cy="164.00" r="20.00" fill="rgb(14,0,40)" fill-opacity="0.502"/>
<g transform="translate(176.00 404.00) rotate(285) scale(4.00 20.00)"><ellipse cx="0" cy="0" rx="1" ry="1" fill="rgb(0,0,0)" fill-opacity="0.502"/></g>
<g transform="translate(16.00 396.00) rotate(266) scale(20.00 48.00)"><ellipse cx="0" cy="0" rx="1" ry="1" fill="rgb(60,7,82)" fill-opacity="0.502"/></g>
<polygon points="638.44,368.94 639.14,365.00 741.56,383.06 740.86,387.00" fill="rgb(146,29,172)" fill-opacity="0.502"/>
<circle cx="252.00" cy="956.00" r="16.00" fill="rgb(60,10,84)" fill-opacity="0.502"/>
<g transform="translate(380.00 484.00) rotate(329) scale(12.00 120.00)"><ellipse cx="0" cy="0" rx="1" ry="1" fill="rgb(11,0,24)" fill-opacity="0.502"/></g>
</g>
</svg>