<?xml version="1.0" standalone="no"?>
<svg xmlns="http://www.w3.org/2000/svg" width="692" height="1024" viewBox="0 0 692 1024" style="overflow:hidden">
<defs>
<clipPath id="c"><rect x="0" y="0" width="692" height="1024"/></clipPath>
</defs>
<rect width="692" height="1024" fill="rgb(73,9,88)"/>
<g clip-path="url(#c)">
<polygon points="716.58,610.37 604.20,888.53 359.42,789.63 471.80,511.47" fill="rgb(255,38,251)" fill-opacity="0.502"/>
<circle cx="140.00" cy="632.00" r="148.00" fill="rgb(234,32,206)" fill-opacity="0.502"/>
<circle cx="364.00" cy="84.00" r="360.00" fill="rgb(0,0,1)" fill-opacity="0.502"/>
<g transform="translate(276.00 696.00) rotate(183) scale(64.00 128.00)"><ellipse cx="0" cy="0" rx="1" ry="1" fill="rgb(182,27,160)" fill-opacity="0.502"/></g>
<circle cx="640.00" cy="476.00" r="148.00" fill="rgb(156,23,158)" fill-opacity="0.502"/>
<g transform="translate(360.00 184.00) rotate(256) scale(164.00 580.00)"><ellipse cx="0" cy="0" rx="1" ry="1" fill="rgb(0,0,38)" fill-opacity="0.502"/></g>
<g transform="translate(688.00 808.00) rotate(57) scale(96.00 92.00)"><ellipse cx="0" cy="0" rx="1" ry="1" fill="rgb(237,31,209)" fill-opacity="0.502"/></g>
<polygon points="298.47,608.17 432.68,409.20 525.53,471.83 391.32,670.80" fill="rgb(0,0,2)" fill-opacity="0.502"/>
<g transform="translate(80.00 568.00) rotate(67) scale(56.00 124.00)"><ellipse cx="0" cy="0" rx="1" ry="1" fill="rgb(204,27,194)" fill-opacity="0.502"/></g>
<polygon points="521.41,657.52 518.62,497.55 694.59,494.48 697.38,654.45" fill="rgb(219,27,197)" fill-opacity="0.502"/>
<g transform="translate(56.00 744.00) rotate(187) scale(68.00 96.00)"><ellipse cx="0" cy="0" rx="1" ry="1" fill="rgb(69,10,83)" fill-opacity="0.502"/></g>
<circle cx="220.00" cy="448.00" r="80.00" fill="rgb(106,19,132)" fill-opacity="0.502"/>
<polygon points="-0.00,900.00 72.00,900.00 72.00,1020.00 0.00,1020.00" fill="rgb(3,0,15)" fill-opacity="0.502"/>
<polygon points="565.99,484.96 457.23,535.67 442.01,503.04 550.77,452.33" fill="rgb(0,0,0)" fill-opacity="0.502"/>
<g transform="translate(572.00 712.00) rotate(336) scale(212.00 124.00)"><ellipse cx="0" cy="0" rx="1" ry="1" fill="rgb(189,24,173)" fill-opacity="0.502"/></g>
<g transform="translate(688.00 440.00) rotate(178) scale(180.00 52.00)"><ellipse cx="0" cy="0" rx="1" ry="1" fill="rgb(16,3,43)" fill-opacity="0.502"/></g>
<circle cx="64.00" cy="180.00" r="160.00" fill="rgb(33,6,81)" fill-opacity="0.502"/>
<g transform="translate(40.00 444.00) rotate(311) scale(116.00 52.00)"><ellipse cx="0" cy="0" rx="1" ry="1" fill="rgb(1,1,51)" fill-opacity="0.502"/></g>
<g transform="translate(288.00 320.00) rotate(42) scale(124.00 72.00)"><ellipse cx="0" cy="0" rx="1" ry="1" fill="rgb(0,0,10)" fill-opacity="0.502"/></g>
<circle cx="148.00" cy="828.00" r="84.00" fill="rgb(72,13,109)" fill-opacity="0.502"/>
<g transform="translate(672.00 228.00) rotate(106) scale(104.00 76.00)"><ellipse cx="0" cy="0" rx="1" ry="1" fill="rgb(8,0,42)" fill-opacity="0.502"/></g>
<polygon points="562.00,482.00 562.00,450.00 670.00,450.00 670.00,482.00" fill="rgb(0,0,0)" fill-opacity="0.502"/>
<polygon points="404.00,864.00 604.00,864.00 604.00,920.00 404.00,920.00" fill="rgb(78,12,108)" fill-opacity="0.502"/>
<circle cx="528.00" cy="136.00" r="92.00" fill="rgb(7,0,15)" fill-opacity="0.502"/>
<circle cx="244.00" cy="856.00" r="76.00" fill="rgb(74,13,106)" fill-opacity="0.502"/>
<polygon points="357.43,347.99 484.18,365.80 458.57,548.01 331.82,530.20" fill="rgb(2,0,45)" fill-opacity="0.502"/>
<circle cx="128.00" cy="620.00" r="36.00" fill="rgb(82,14,91)" fill-opacity="0.502"/>
<circle cx="580.00" cy="432.00" r="16.00" fill="rgb(241,40,255)" fill-opacity="0.502"/>
<g transform="translate(184.00 0.00) rotate(82) scale(152.00 100.00)"><ellipse cx="0" cy="0" rx="1" ry="1" fill="rgb(21,3,70)" fill-opacity="0.502"/></g>
<polygon points="689.85,373.27 690.13,389.27 606.15,390.73 605.87,374.73" fill="rgb(213,40,249)" fill-opacity="0.502"/>
<g transform="translate(488.00 1020.00) rotate(103) scale(108.00 220.00)"><ellipse cx="0" cy="0" rx="1" ry="1" fill="rgb(48,7,73)" fill-opacity="0.502"/></g>
<g transform="translate(368.00 652.00) rotate(5) scale(20.00 144.00)"><ellipse cx="0" cy="0" rx="1" ry="1" fill="rgb(0,0,0)" fill-opacity="0.502"/></g>
<g transform="translate(348.00 136.00) rotate(360) scale(68.00 156.00)"><ellipse cx="0" cy="0" rx="1" ry="1" fill="rgb(5,0,13)" fill-opacity="0.502"/></g>
<polygon points="506.31,722.96 406.52,672.11 493.69,501.04 593.48,551.89" fill="rgb(192,25,181)" fill-opacity="0.502"/>
<polygon points="751.06,707.77 621.75,885.76 404.94,728.23 534.25,550.24" fill="rgb(184,25,176)" fill-opacity="0.502"/>
<g transform="translate(440.00 432.00) rotate(69) scale(104.00 56.00)"><ellipse cx="0" cy="0" rx="1" ry="1" fill="rgb(22,3,65)" fill-opacity="0.502"/></g>
<polygon points="51.18,889.95 -8.16,865.97 12.82,814.05 72.16,838.03" fill="rgb(115,23,150)" fill-opacity="0.502"/>
<polygon points="337.67,613.72 166.37,803.96 62.33,710.28 233.63,520.04" fill="rgb(163,22,154)" fill-opacity="0.502"/>
<circle cx="200.00" cy="388.00" r="16.00" fill="rgb(192,31,216)" fill-opacity="0.502"/>
<polygon points="244.94,773.53 222.45,870.96 47.06,830.47 69.55,733.04" fill="rgb(66,11,96)" fill-opacity="0.502"/>
<polygon points="319.85,885.90 282.91,784.41 388.15,746.10 425.09,847.59" fill="rgb(105,15,113)" fill-opacity="0.502"/>
<polygon points="181.35,497.33 200.43,466.80 366.65,570.67 347.57,601.20" fill="rgb(0,0,11)" fill-opacity="0.502"/>
<g transform="translate(464.00 0.00) rotate(142) scale(56.00 92.00)"><ellipse cx="0" cy="0" rx="1" ry="1" fill="rgb(30,5,76)" fill-opacity="0.502"/></g>
<polygon points="603.02,377.45 601.28,357.52 680.98,350.55 682.72,370.48" fill="rgb(0,0,0)" fill-opacity="0.502"/>
<circle cx="504.00" cy="328.00" r="52.00" fill="rgb(0,0,22)" fill-opacity="0.502"/>
<circle cx="208.00" cy="624.00" r="104.00" fill="rgb(163,22,153)" fill-opacity="0.502"/>
<polygon points="103.97,442.03 175.91,372.56 212.03,409.97 140.09,479.44" fill="rgb(125,20,149)" fill-opacity="0.502"/>
<polygon points="170.91,623.57 102.54,685.13 73.09,652.43 141.46,590.87" fill="rgb(80,12,81)" fill-opacity="0.502"/>
<g transform="translate(276.00 412.00) rotate(28) scale(64.00 8.00)"><ellipse cx="0" cy="0" rx="1" ry="1" fill="rgb(194,38,226)" fill-opacity="0.502"/></g>
<polygon points="464.00,293.78 371.85,210.81 412.00,166.22 504.15,249.19" fill="rgb(26,4,79)" fill-opacity="0.502"/>
<g transform="translate(688.00 800.00) rotate(158) scale(96.00 88.00)"><ellipse cx="0" cy="0" rx="1" ry="1" fill="rgb(175,23,166)" fill-opacity="0.502"/></g>
<circle cx="588.00" cy="56.00" r="56.00" fill="rgb(6,0,12)" fill-opacity="0.502"/>
<polygon points="386.11,1002.23 404.50,928.48 489.89,949.77 471.50,1023.52" fill="rgb(43,3,56)" fill-opacity="0.502"/>
<circle cx="300.00" cy="288.00" r="112.00" fill="rgb(12,0,26)" fill-opacity="0.502"/>
<polygon points="562.96,259.86 572.58,351.36 489.04,360.14 479.42,268.64" fill="rgb(10,0,25)" fill-opacity="0.502"/>
<circle cx="592.00" cy="600.00" r="112.00" fill="rgb(185,25,177)" fill-opacity="0.502"/>
<circle cx="568.00" cy="956.00" r="88.00" fill="rgb(70,13,97)" fill-opacity="0.502"/>
<circle cx="72.00" cy="528.00" r="32.00" fill="rgb(195,26,187)" fill-opacity="0.502"/>
<circle cx="40.00" cy="308.00" r="132.00" fill="rgb(30,5,68)" fill-opacity="0.502"/>
<circle cx="208.00" cy="352.00" r="28.00" fill="rgb(7,0,20)" fill-opacity="0.502"/>
<g transform="translate(600.00 352.00) rotate(253) scale(8.00 72.00)"><ellipse cx="0" cy="0" rx="1" ry="1" fill="rgb(201,38,240)" fill-opacity="0.502"/></g>
<circle cx="264.00" cy="740.00" r="48.00" fill="rgb(160,22,146)" fill-opacity="0.502"/>
<g transform="translate(344.00 416.00) rotate(147) scale(20.00 184.00)"><ellipse cx="0" cy="0" rx="1" ry="1" fill="rgb(5,0,16)" fill-opacity="0.502"/></g>
<polygon points="537.36,350.93 521.38,260.33 698.64,229.07 714.62,319.67" fill="rgb(9,0,32)" fill-opacity="0.502"/>
<polygon points="127.63,741.30 374.91,821.64 356.37,878.70 109.09,798.36" fill="rgb(82,13,111)" fill-opacity="0.502"/>
<g transform="translate(76.00 952.00) rotate(347) scale(24.00 88.00)"><ellipse cx="0" cy="0" rx="1" ry="1" fill="rgb(51,6,72)" fill-opacity="0.502"/></g>
<polygon points="348.00,700.00 348.00,648.00 400.00,648.00 400.00,700.00" fill="rgb(0,0,12)" fill-opacity="0.502"/>
<g transform="translate(252.00 488.00) rotate(27) scale(96.00 8.00)"><ellipse cx="0" cy="0" rx="1" ry="1" fill="rgb(203,39,229)" fill-opacity="0.502"/></g>
<circle cx="620.00" cy="432.00" r="20.00" fill="rgb(195,34,219)" fill-opacity="0.502"/>
<circle cx="164.00" cy="480.00" r="20.00" fill="rgb(0,0,0)" fill-opacity="0.502"/>
<g transform="translate(208.00 1016.00) rotate(138) scale(76.00 164.00)"><ellipse cx="0" cy="0" rx="1" ry="1" fill="rgb(73,14,104)" fill-opacity="0.502"/></g>
<circle cx="148.00" cy="480.00" r="16.00" fill="rgb(0,0,18)" fill-opacity="0.502"/>
<circle cx="532.00" cy="560.00" r="60.00" fill="rgb(185,24,177)" fill-opacity="0.502"/>
<circle cx="528.00" cy="436.00" r="28.00" fill="rgb(141,24,167)" fill-opacity="0.502"/>
<circle cx="428.00" cy="328.00" r="48.00" fill="rgb(21,3,70)" fill-opacity="0.502"/>
<g transform="translate(16.00 404.00) rotate(336) scale(64.00 36.00)"><ellipse cx="0" cy="0" rx="1" ry="1" fill="rgb(59,9,79)" fill-opacity="0.502"/></g>
<polygon points="142.82,722.75 178.82,566.85 241.18,581.25 205.18,737.15" fill="rgb(181,24,170)" fill-opacity="0.502"/>
<g transform="translate(272.00 0.00) rotate(144) scale(60.00 40.00)"><ellipse cx="0" cy="0" rx="1" ry="1" fill="rgb(32,6,76)" fill-opacity="0.502"/></g>
<polygon points="690.79,439.04 668.38,447.64 661.21,428.96 683.62,420.36" fill="rgb(233,46,255)" fill-opacity="0.502"/>
<polygon points="394.60,822.98 550.50,858.97 533.40,933.02 377.50,897.03" fill="rgb(82,13,110)" fill-opacity="0.502"/>
<polygon points="256.03,451.81 252.72,463.34 171.97,440.19 175.28,428.66" fill="rgb(0,0,0)" fill-opacity="0.502"/>
<g transform="translate(80.00 556.00) rotate(149) scale(104.00 56.00)"><ellipse cx="0" cy="0" rx="1" ry="1" fill="rgb(184,25,175)" fill-opacity="0.502"/></g>
<g transform="translate(328.00 904.00) rotate(360) scale(52.00 36.00)"><ellipse cx="0" cy="0" rx="1" ry="1" fill="rgb(56,9,83)" fill-opacity="0.502"/></g>
<polygon points="700.94,949.24 581.56,1029.77 539.06,966.76 658.44,886.23" fill="rgb(65,12,91)" fill-opacity="0.502"/>
<polygon points="418.63,657.91 358.77,653.72 369.37,502.09 429.23,506.28" fill="rgb(2,0,21)" fill-opacity="0.502"/>
<polygon points="624.20,947.55 687.85,940.86 695.80,1016.45 632.15,1023.14" fill="rgb(51,5,69)" fill-opacity="0.502"/>
<g transform="translate(548.00 616.00) rotate(282) scale(100.00 112.00)"><ellipse cx="0" cy="0" rx="1" ry="1" fill="rgb(184,25,177)" fill-opacity="0.502"/></g>
<circle cx="552.00" cy="440.00" r="12.00" fill="rgb(247,40,255)" fill-opacity="0.502"/>
<polygon points="640.00,152.00 688.00,152.00 688.00,260.00 640.00,260.00" fill="rgb(30,4,71)" fill-opacity="0.502"/>
<g transform="translate(452.00 1012.00) rotate(202) scale(92.00 48.00)"><ellipse cx="0" cy="0" rx="1" ry="1" fill="rgb(48,4,62)" fill-opacity="0.502"/></g>
<polygon points="191.43,819.20 210.97,762.47 252.57,776.80 233.03,833.53" fill="rgb(95,16,121)" fill-opacity="0.502"/>
<circle cx="248.00" cy="304.00" r="76.00" fill="rgb(13,0,28)" fill-opacity="0.502"/>
<polygon points="378.96,796.24 474.60,787.87 477.04,815.76 381.40,824.13" fill="rgb(177,24,162)" fill-opacity="0.502"/>
<circle cx="212.00" cy="928.00" r="120.00" fill="rgb(72,11,95)" fill-opacity="0.502"/>
<polygon points="100.07,680.25 14.35,731.75 -0.07,707.75 85.65,656.25" fill="rgb(78,8,56)" fill-opacity="0.502"/>
<circle cx="512.00" cy="676.00" r="100.00" fill="rgb(188,25,180)" fill-opacity="0.502"/>
<g transform="translate(52.00 772.00) rotate(122) scale(32.00 124.00)"><ellipse cx="0" cy="0" rx="1" ry="1" fill="rgb(60,8,86)" fill-opacity="0.502"/></g>
<circle cx="60.00" cy="164.00" r="104.00" fill="rgb(29,4,63)" fill-opacity="0.502"/>
<polygon points="367.74,547.60 349.84,587.79 324.26,576.40 342.16,536.21" fill="rgb(74,12,99)" fill-opacity="0.502"/>
<circle cx="652.00" cy="432.00" r="16.00" fill="rgb(205,39,235)" fill-opacity="0.502"/>
<g transform="translate(648.00 620.00) rotate(82) scale(136.00 52.00)"><ellipse cx="0" cy="0" rx="1" ry="1" fill="rgb(178,23,169)" fill-opacity="0.502"/></g>
<g transform="translate(440.00 324.00) rotate(184) scale(28.00 140.00)"><ellipse cx="0" cy="0" rx="1" ry="1" fill="rgb(22,3,63)" fill-opacity="0.502"/></g>
<circle cx="212.00" cy="536.00" r="24.00" fill="rgb(181,24,168)" fill-opacity="0.502"/>
<polygon points="394.24,526.36 455.35,556.17 409.76,649.64 348.65,619.83" fill="rgb(10,0,28)" fill-opacity="0.502"/>
<polygon points="140.32,652.96 95.04,692.32 55.68,647.04 100.96,607.68" fill="rgb(133,19,112)" fill-opacity="0.502"/>
<g transform="translate(328.00 116.00) rotate(24) scale(48.00 200.00)"><ellipse cx="0" cy="0" rx="1" ry="1" fill="rgb(10,0,21)" fill-opacity="0.502"/></g>
<g transform="translate(0.00 0.00) rotate(182) scale(24.00 80.00)"><ellipse cx="0" cy="0" rx="1" ry="1" fill="rgb(156,30,171)" fill-opacity="0.502"/></g>
<polygon points="439.32,73.97 477.51,114.92 392.68,194.03 354.49,153.08" fill="rgb(9,0,19)" fill-opacity="0.502"/>
<circle cx="188.00" cy="404.00" r="12.00" fill="rgb(0,0,0)" fill-opacity="0.502"/>
<polygon points="149.37,609.55 146.45,633.37 122.63,630.45 125.55,606.63" fill="rgb(43,6,87)" fill-opacity="0.502"/>
<g transform="translate(100.00 724.00) rotate(95) scale(16.00 52.00)"><ellipse cx="0" cy="0" rx="1" ry="1" fill="rgb(180,26,164)" fill-opacity="0.502"/></g>
<g transform="translate(284.00 656.00) rotate(214) scale(48.00 64.00)"><ellipse cx="0" cy="0" rx="1" ry="1" fill="rgb(149,21,136)" fill-opacity="0.502"/></g>
<g transform="translate(536.00 908.00) rotate(357) scale(128.00 32.00)"><ellipse cx="0" cy="0" rx="1" ry="1" fill="rgb(74,11,97)" fill-opacity="0.502"/></g>
<circle cx="416.00" cy="704.00" r="28.00" fill="rgb(170,23,157)" fill-opacity="0.502"/>
<g transform="translate(196.00 144.00) rotate(35) scale(44.00 48.00)"><ellipse cx="0" cy="0" rx="1" ry="1" fill="rgb(19,1,50)" fill-opacity="0.502"/></g>
<polygon points="624.69,174.09 680.95,306.65 607.31,337.91 551.05,205.35" fill="rgb(18,1,38)" fill-opacity="0.502"/>
<g transform="translate(148.00 516.00) rotate(180) scale(60.00 20.00)"><ellipse cx="0" cy="0" rx="1" ry="1" fill="rgb(181,24,170)" fill-opacity="0.502"/></g>
<g transform="translate(364.00 376.00) rotate(91) scale(96.00 24.00)"><ellipse cx="0" cy="0" rx="1" ry="1" fill="rgb(10,0,19)" fill-opacity="0.502"/></g>
<g transform="translate(300.00 352.00) rotate(243) scale(120.00 20.00)"><ellipse cx="0" cy="0" rx="1" ry="1" fill="rgb(10,0,25)" fill-opacity="0.502"/></g>
<circle cx="0.00" cy="872.00" r="36.00" fill="rgb(100,18,127)" fill-opacity="0.502"/>
<g transform="translate(440.00 412.00) rotate(304) scale(76.00 60.00)"><ellipse cx="0" cy="0" rx="1" ry="1" fill="rgb(17,1,51)" fill-opacity="0.502"/></g>
<g transform="translate(100.00 864.00) rotate(116) scale(16.00 76.00)"><ellipse cx="0" cy="0" rx="1" ry="1" fill="rgb(94,15,120)" fill-opacity="0.502"/></g>
<g transform="translate(148.00 540.00) rotate(352) scale(48.00 52.00)"><ellipse cx="0" cy="0" rx="1" ry="1" fill="rgb(179,24,172)" fill-opacity="0.502"/></g>
<g transform="translate(92.00 100.00) rotate(139) scale(84.00 28.00)"><ellipse cx="0" cy="0" rx="1" ry="1" fill="rgb(42,7,70)" fill-opacity="0.502"/></g>
<circle cx="368.00" cy="600.00" r="32.00" fill="rgb(10,0,22)" fill-opacity="0.502"/>
<circle cx="356.00" cy="612.00" r="24.00" fill="rgb(8,0,21)" fill-opacity="0.502"/>
<circle cx="688.00" cy="472.00" r="28.00" fill="rgb(0,0,0)" fill-opacity="0.502"/>
<g transform="translate(476.00 460.00) rotate(354) scale(32.00 24.00)"><ellipse cx="0" cy="0" rx="1" ry="1" fill="rgb(60,10,96)" fill-opacity="0.502"/></g>
<g transform="translate(400.00 768.00) rotate(0) scale(32.00 60.00)"><ellipse cx="0" cy="0" rx="1" ry="1" fill="rgb(156,22,140)" fill-opacity="0.502"/></g>
<g transform="translate(236.00 592.00) rotate(13) scale(52.00 56.00)"><ellipse cx="0" cy="0" rx="1" ry="1" fill="rgb(169,23,157)" fill-opacity="0.502"/></g>
<g transform="translate(500.00 468.00) rotate(194) scale(12.00 8.00)"><ellipse cx="0" cy="0" rx="1" ry="1" fill="rgb(167,32,189)" fill-opacity="0.502"/></g>
<polygon points="338.92,461.52 346.48,458.92 349.08,466.48 341.52,469.08" fill="rgb(154,30,172)" fill-opacity="0.502"/>
<g transform="translate(32.00 488.00) rotate(220) scale(24.00 88.00)"><ellipse cx="0" cy="0" rx="1" ry="1" fill="rgb(15,2,55)" fill-opacity="0.502"/></g>
<polygon points="209.35,688.19 266.09,707.73 242.65,775.81 185.91,756.27" fill="rgb(163,23,154)" fill-opacity="0.502"/>
<circle cx="664.00" cy="12.00" r="20.00" fill="rgb(42,8,86)" fill-opacity="0.502"/>
<circle cx="96.00" cy="0.00" r="84.00" fill="rgb(23,2,55)" fill-opacity="0.502"/>
<circle cx="656.00" cy="820.00" r="72.00" fill="rgb(173,23,164)" fill-opacity="0.502"/>
<circle cx="608.00" cy="612.00" r="124.00" fill="rgb(183,25,175)" fill-opacity="0.502"/>
<g transform="translate(196.00 560.00) rotate(45) scale(60.00 48.00)"><ellipse cx="0" cy="0" rx="1" ry="1" fill="rgb(175,23,165)" fill-opacity="0.502"/></g>
<circle cx="152.00" cy="928.00" r="36.00" fill="rgb(84,10,104)" fill-opacity="0.502"/>
<g transform="translate(528.00 432.00) rotate(341) scale(112.00 8.00)"><ellipse cx="0" cy="0" rx="1" ry="1" fill="rgb(4,0,29)" fill-opacity="0.502"/></g>
<polygon points="109.67,612.73 99.91,634.66 74.33,623.27 84.09,601.34" fill="rgb(156,21,143)" fill-opacity="0.502"/>
<g transform="translate(416.00 956.00) rotate(292) scale(36.00 104.00)"><ellipse cx="0" cy="0" rx="1" ry="1" fill="rgb(55,6,73)" fill-opacity="0.502"/></g>
<g transform="translate(72.00 116.00) rotate(349) scale(264.00 12.00)"><ellipse cx="0" cy="0" rx="1" ry="1" fill="rgb(17,1,49)" fill-opacity="0.502"/></g>
<circle cx="672.00" cy="336.00" r="12.00" fill="rgb(201,38,234)" fill-opacity="0.502"/>
<polygon points="651.16,466.29 623.37,495.06 588.84,461.71 616.63,432.94" fill="rgb(0,0,15)" fill-opacity="0.502"/>
<g transform="translate(20.00 492.00) rotate(104) scale(20.00 36.00)"><ellipse cx="0" cy="0" rx="1" ry="1" fill="rgb(20,3,57)" fill-opacity="0.502"/></g>
<polygon points="516.27,608.06 596.13,668.24 463.73,843.94 383.87,783.76" fill="rgb(187,25,180)" fill-opacity="0.502"/>
<g transform="translate(428.00 856.00) rotate(185) scale(92.00 20.00)"><ellipse cx="0" cy="0" rx="1" ry="1" fill="rgb(86,12,114)" fill-opacity="0.502"/></g>
<circle cx="0.00" cy="120.00" r="64.00" fill="rgb(31,5,69)" fill-opacity="0.502"/>
<g transform="translate(564.00 260.00) rotate(266) scale(88.00 76.00)"><ellipse cx="0" cy="0" rx="1" ry="1" fill="rgb(16,1,34)" fill-opacity="0.502"/></g>
<g transform="translate(0.00 400.00) rotate(253) scale(16.00 68.00)"><ellipse cx="0" cy="0" rx="1" ry="1" fill="rgb(59,6,83)" fill-opacity="0.502"/></g>
<circle cx="8.00" cy="680.00" r="16.00" fill="rgb(142,21,118)" fill-opacity="0.502"/>
<circle cx="584.00" cy="372.00" r="12.00" fill="rgb(0,0,11)" fill-opacity="0.502"/>
<g transform="translate(236.00 432.00) rotate(201) scale(56.00 8.00)"><ellipse cx="0" cy="0" rx="1" ry="1" fill="rgb(199,37,226)" fill-opacity="0.502"/></g>
<polygon points="694.46,540.97 615.02,646.39 541.54,591.03 620.98,485.61" fill="rgb(180,23,171)" fill-opacity="0.502"/>
<circle cx="0.00" cy="32.00" r="16.00" fill="rgb(167,34,193)" fill-opacity="0.502"/>
<polygon points="476.89,787.59 407.84,720.91 555.11,568.41 624.16,635.09" fill="rgb(188,25,181)" fill-opacity="0.502"/>
<circle cx="628.00" cy="912.00" r="32.00" fill="rgb(73,13,100)" fill-opacity="0.502"/>
<g transform="translate(620.00 32.00) rotate(112) scale(172.00 16.00)"><ellipse cx="0" cy="0" rx="1" ry="1" fill="rgb(9,0,20)" fill-opacity="0.502"/></g>
<circle cx="440.00" cy="440.00" r="52.00" fill="rgb(20,2,56)" fill-opacity="0.502"/>
<g transform="translate(0.00 636.00) rotate(269) scale(40.00 72.00)"><ellipse cx="0" cy="0" rx="1" ry="1" fill="rgb(163,22,148)" fill-opacity="0.502"/></g>
<polygon points="255.82,977.08 236.34,928.87 340.18,886.92 359.66,935.13" fill="rgb(61,10,85)" fill-opacity="0.502"/>
<polygon points="369.22,684.78 380.70,688.29 346.78,799.22 335.30,795.71" fill="rgb(0,0,8)" fill-opacity="0.502"/>
<circle cx="532.00" cy="476.00" r="24.00" fill="rgb(0,0,21)" fill-opacity="0.502"/>
<polygon points="335.14,623.92 343.14,624.19 336.86,804.08 328.86,803.81" fill="rgb(105,13,80)" fill-opacity="0.502"/>
<circle cx="232.00" cy="0.00" r="28.00" fill="rgb(51,9,74)" fill-opacity="0.502"/>
<polygon points="352.50,538.35 423.74,582.86 419.50,589.65 348.26,545.14" fill="rgb(5,0,19)" fill-opacity="0.502"/>
<circle cx="268.00" cy="468.00" r="12.00" fill="rgb(0,0,1)" fill-opacity="0.502"/>
<circle cx="288.00" cy="44.00" r="28.00" fill="rgb(16,1,44)" fill-opacity="0.502"/>
<g transform="translate(124.00 708.00) rotate(185) scale(36.00 36.00)"><ellipse cx="0" cy="0" rx="1" ry="1" fill="rgb(168,23,154)" fill-opacity="0.502"/></g>
<polygon points="59.98,904.84 79.93,903.44 88.02,1019.16 68.07,1020.56" fill="rgb(58,6,74)" fill-opacity="0.502"/>
<polygon points="512.36,410.78 505.97,405.97 527.64,377.22 534.03,382.03" fill="rgb(133,27,174)" fill-opacity="0.502"/>
<circle cx="512.00" cy="456.00" r="12.00" fill="rgb(191,36,219)" fill-opacity="0.502"/>
<polygon points="382.69,736.77 392.87,743.13 365.31,787.23 355.13,780.87" fill="rgb(127,17,106)" fill-opacity="0.502"/>
<g transform="translate(148.00 260.00) rotate(72) scale(20.00 72.00)"><ellipse cx="0" cy="0" rx="1" ry="1" fill="rgb(28,4,66)" fill-opacity="0.502"/></g>
<g transform="translate(304.00 860.00) rotate(15) scale(248.00 16.00)"><ellipse cx="0" cy="0" rx="1" ry="1" fill="rgb(76,11,99)" fill-opacity="0.502"/></g>
<g transform="translate(516.00 368.00) rotate(312) scale(64.00 12.00)"><ellipse cx="0" cy="0" rx="1" ry="1" fill="rgb(8,0,25)" fill-opacity="0.502"/></g>
<circle cx="596.00" cy="116.00" r="64.00" fill="rgb(11,0,25)" fill-opacity="0.502"/>
<polygon points="156.59,476.41 49.64,491.44 47.41,475.59 154.36,460.56" fill="rgb(0,0,14)" fill-opacity="0.502"/>
<circle cx="492.00" cy="0.00" r="60.00" fill="rgb(28,4,66)" fill-opacity="0.502"/>
<polygon points="249.97,23.63 233.40,158.61 150.03,148.37 166.60,13.39" fill="rgb(21,3,61)" fill-opacity="0.502"/>
<g transform="translate(252.00 176.00) rotate(6) scale(160.00 12.00)"><ellipse cx="0" cy="0" rx="1" ry="1" fill="rgb(11,0,27)" fill-opacity="0.502"/></g>
<g transform="translate(40.00 1020.00) rotate(60) scale(120.00 20.00)"><ellipse cx="0" cy="0" rx="1" ry="1" fill="rgb(22,0,34)" fill-opacity="0.502"/></g>
<polygon points="287.06,802.68 284.97,742.72 324.94,741.32 327.03,801.28" fill="rgb(134,19,112)" fill-opacity="0.502"/>
<circle cx="596.00" cy="424.00" r="8.00" fill="rgb(220,38,242)" fill-opacity="0.502"/>
<polygon points="375.29,599.96 358.92,617.51 288.71,552.04 305.08,534.49" fill="rgb(0,0,13)" fill-opacity="0.502"/>
<polygon points="687.16,-0.38 708.16,23.77 656.84,68.38 635.84,44.23" fill="rgb(24,3,64)" fill-opacity="0.502"/>
<circle cx="220.00" cy="496.00" r="16.00" fill="rgb(0,0,5)" fill-opacity="0.502"/>
<polygon points="433.09,630.39 419.97,645.48 410.91,637.61 424.03,622.52" fill="rgb(86,13,82)" fill-opacity="0.502"/>
<polygon points="232.55,382.34 188.71,292.46 235.45,269.66 279.29,359.54" fill="rgb(12,0,28)" fill-opacity="0.502"/>
<g transform="translate(688.00 600.00) rotate(85) scale(108.00 20.00)"><ellipse cx="0" cy="0" rx="1" ry="1" fill="rgb(169,22,159)" fill-opacity="0.502"/></g>
<polygon points="317.57,508.27 361.14,575.37 354.43,579.73 310.86,512.63" fill="rgb(135,28,159)" fill-opacity="0.502"/>
<g transform="translate(232.00 320.00) rotate(233) scale(40.00 84.00)"><ellipse cx="0" cy="0" rx="1" ry="1" fill="rgb(13,0,28)" fill-opacity="0.502"/></g>
<g transform="translate(48.00 580.00) rotate(317) scale(116.00 52.00)"><ellipse cx="0" cy="0" rx="1" ry="1" fill="rgb(181,24,174)" fill-opacity="0.502"/></g>
<circle cx="284.00" cy="604.00" r="36.00" fill="rgb(147,21,136)" fill-opacity="0.502"/>
<polygon points="408.18,285.38 338.18,406.62 275.82,370.62 345.82,249.38" fill="rgb(10,0,22)" fill-opacity="0.502"/>
<polygon points="61.02,607.72 51.40,516.22 126.98,508.28 136.60,599.78" fill="rgb(185,24,177)" fill-opacity="0.502"/>
<polygon points="132.60,1003.23 120.77,1028.60 95.40,1016.77 107.23,991.40" fill="rgb(55,8,75)" fill-opacity="0.502"/>
<circle cx="0.00" cy="640.00" r="32.00" fill="rgb(157,22,145)" fill-opacity="0.502"/>
<polygon points="321.67,86.69 243.72,104.69 238.33,81.31 316.28,63.31" fill="rgb(16,0,31)" fill-opacity="0.502"/>
<g transform="translate(372.00 592.00) rotate(100) scale(88.00 20.00)"><ellipse cx="0" cy="0" rx="1" ry="1" fill="rgb(12,0,25)" fill-opacity="0.502"/></g>
<circle cx="24.00" cy="800.00" r="32.00" fill="rgb(60,7,87)" fill-opacity="0.502"/>
<polygon points="470.57,539.21 420.58,553.54 397.43,472.79 447.42,458.46" fill="rgb(20,1,48)" fill-opacity="0.502"/>
<polygon points="400.12,806.32 375.88,820.32 355.88,785.68 380.12,771.68" fill="rgb(135,19,118)" fill-opacity="0.502"/>
<g transform="translate(180.00 852.00) rotate(147) scale(24.00 128.00)"><ellipse cx="0" cy="0" rx="1" ry="1" fill="rgb(70,11,94)" fill-opacity="0.502"/></g>
<polygon points="437.23,505.20 398.27,408.78 442.77,390.80 481.73,487.22" fill="rgb(22,3,61)" fill-opacity="0.502"/>
<polygon points="27.86,45.43 17.06,-1.34 52.14,-9.43 62.94,37.34" fill="rgb(25,0,26)" fill-opacity="0.502"/>
<polygon points="684.87,419.80 653.96,411.52 659.13,392.20 690.04,400.48" fill="rgb(0,0,0)" fill-opacity="0.502"/>
<polygon points="130.68,405.38 32.72,351.08 77.32,270.62 175.28,324.92" fill="rgb(24,3,64)" fill-opacity="0.502"/>
<polygon points="91.96,442.41 73.72,495.36 -35.96,457.59 -17.72,404.64" fill="rgb(30,5,66)" fill-opacity="0.502"/>
<g transform="translate(592.00 956.00) rotate(334) scale(112.00 36.00)"><ellipse cx="0" cy="0" rx="1" ry="1" fill="rgb(69,12,93)" fill-opacity="0.502"/></g>
<circle cx="160.00" cy="436.00" r="8.00" fill="rgb(0,0,0)" fill-opacity="0.502"/>
<polygon points="462.24,84.26 466.08,40.42 549.76,47.74 545.92,91.58" fill="rgb(15,0,38)" fill-opacity="0.502"/>
<g transform="translate(232.00 800.00) rotate(204) scale(88.00 28.00)"><ellipse cx="0" cy="0" rx="1" ry="1" fill="rgb(87,15,115)" fill-opacity="0.502"/></g>
<polygon points="260.74,497.96 254.44,525.24 223.26,518.04 229.56,490.76" fill="rgb(0,0,18)" fill-opacity="0.502"/>
<circle cx="116.00" cy="80.00" r="24.00" fill="rgb(54,8,80)" fill-opacity="0.502"/>
<circle cx="608.00" cy="436.00" r="8.00" fill="rgb(224,38,247)" fill-opacity="0.502"/>
<circle cx="144.00" cy="612.00" r="20.00" fill="rgb(64,11,102)" fill-opacity="0.502"/>
<circle cx="36.00" cy="900.00" r="24.00" fill="rgb(43,2,57)" fill-opacity="0.502"/>
<polygon points="464.08,275.88 432.14,299.95 359.92,204.12 391.86,180.05" fill="rgb(22,2,59)" fill-opacity="0.502"/>
<polygon points="353.51,497.75 285.14,436.19 290.49,430.25 358.86,491.81" fill="rgb(0,0,0)" fill-opacity="0.502"/>
<circle cx="68.00" cy="276.00" r="40.00" fill="rgb(33,6,66)" fill-opacity="0.502"/>
<circle cx="72.00" cy="628.00" r="12.00" fill="rgb(140,20,127)" fill-opacity="0.502"/>
<polygon points="512.00,1024.00 444.00,1024.00 444.00,1008.00 512.00,1008.00" fill="rgb(36,1,51)" fill-opacity="0.502"/>
<polygon points="640.48,459.62 646.66,440.60 707.52,460.38 701.34,479.40" fill="rgb(0,0,19)" fill-opacity="0.502"/>
<polygon points="386.40,164.07 427.12,90.60 465.60,111.93 424.88,185.40" fill="rgb(10,0,22)" fill-opacity="0.502"/>
<circle cx="540.00" cy="0.00" r="20.00" fill="rgb(38,6,75)" fill-opacity="0.502"/>
<polygon points="539.15,494.46 618.14,568.11 560.85,629.54 481.86,555.89" fill="rgb(184,25,177)" fill-opacity="0.502"/>
<polygon points="662.27,65.35 700.76,86.68 669.73,142.65 631.24,121.32" fill="rgb(20,1,51)" fill-opacity="0.502"/>
<polygon points="161.37,123.93 162.48,139.89 102.63,144.07 101.52,128.11" fill="rgb(54,10,78)" fill-opacity="0.502"/>
<polygon points="102.58,882.75 248.71,808.30 261.42,833.25 115.29,907.70" fill="rgb(76,11,98)" fill-opacity="0.502"/>
<circle cx="428.00" cy="36.00" r="20.00" fill="rgb(31,5,70)" fill-opacity="0.502"/>
<polygon points="339.35,226.95 219.97,307.47 188.65,261.05 308.03,180.53" fill="rgb(13,0,29)" fill-opacity="0.502"/>
<polygon points="91.56,544.88 150.44,578.88 136.44,603.12 77.56,569.12" fill="rgb(180,25,175)" fill-opacity="0.502"/>
<polygon points="158.43,350.32 191.26,260.11 217.57,269.68 184.74,359.89" fill="rgb(16,1,36)" fill-opacity="0.502"/>
<g transform="translate(304.00 468.00) rotate(77) scale(16.00 8.00)"><ellipse cx="0" cy="0" rx="1" ry="1" fill="rgb(159,34,186)" fill-opacity="0.502"/></g>
<polygon points="256.00,748.00 148.00,748.00 148.00,636.00 256.00,636.00" fill="rgb(169,22,158)" fill-opacity="0.502"/>
<circle cx="188.00" cy="388.00" r="12.00" fill="rgb(204,34,225)" fill-opacity="0.502"/>
<circle cx="484.00" cy="988.00" r="28.00" fill="rgb(53,5,71)" fill-opacity="0.502"/>
<g transform="translate(688.00 360.00) rotate(38) scale(12.00 12.00)"><ellipse cx="0" cy="0" rx="1" ry="1" fill="rgb(0,0,0)" fill-opacity="0.502"/></g>
<circle cx="688.00" cy="300.00" r="24.00" fill="rgb(10,1,27)" fill-opacity="0.502"/>
<g transform="translate(396.00 700.00) rotate(23) scale(4.00 136.00)"><ellipse cx="0" cy="0" rx="1" ry="1" fill="rgb(116,17,103)" fill-opacity="0.502"/></g>
<circle cx="608.00" cy="16.00" r="36.00" fill="rgb(8,0,19)" fill-opacity="0.502"/>
<circle cx="172.00" cy="404.00" r="8.00" fill="rgb(0,0,0)" fill-opacity="0.502"/>
<polygon points="146.41,407.07 140.60,396.57 161.59,384.93 167.40,395.43" fill="rgb(208,38,236)" fill-opacity="0.502"/>
<circle cx="316.00" cy="928.00" r="24.00" fill="rgb(70,12,93)" fill-opacity="0.502"/>
<polygon points="77.20,887.43 29.20,970.57 18.80,964.57 66.80,881.43" fill="rgb(34,0,43)" fill-opacity="0.502"/>
<g transform="translate(108.00 448.00) rotate(244) scale(16.00 28.00)"><ellipse cx="0" cy="0" rx="1" ry="1" fill="rgb(119,21,148)" fill-opacity="0.502"/></g>
<circle cx="172.00" cy="420.00" r="8.00" fill="rgb(247,38,255)" fill-opacity="0.502"/>
<circle cx="172.00" cy="456.00" r="12.00" fill="rgb(205,34,226)" fill-opacity="0.502"/>
<circle cx="396.00" cy="12.00" r="16.00" fill="rgb(5,0,16)" fill-opacity="0.502"/>
<circle cx="292.00" cy="488.00" r="12.00" fill="rgb(8,0,27)" fill-opacity="0.502"/>
<g transform="translate(304.00 684.00) rotate(266) scale(60.00 20.00)"><ellipse cx="0" cy="0" rx="1" ry="1" fill="rgb(143,20,129)" fill-opacity="0.502"/></g>
<polygon points="692.00,388.00 692.00,392.00 592.00,392.00 592.00,388.00" fill="rgb(186,35,215)" fill-opacity="0.502"/>
<polygon points="210.37,497.47 199.10,501.57 193.63,486.53 204.90,482.43" fill="rgb(0,0,3)" fill-opacity="0.502"/>
<circle cx="576.00" cy="196.00" r="20.00" fill="rgb(18,1,44)" fill-opacity="0.502"/>
<polygon points="553.70,453.58 564.82,487.81 458.30,522.42 447.18,488.19" fill="rgb(10,0,28)" fill-opacity="0.502"/>
<polygon points="98.86,251.35 81.62,229.28 113.14,204.65 130.38,226.72" fill="rgb(15,1,58)" fill-opacity="0.502"/>
<polygon points="408.43,489.38 446.62,448.43 487.57,486.62 449.38,527.57" fill="rgb(23,2,57)" fill-opacity="0.502"/>
<circle cx="600.00" cy="232.00" r="52.00" fill="rgb(18,1,43)" fill-opacity="0.502"/>
<polygon points="446.68,549.93 450.07,542.68 457.32,546.07 453.93,553.32" fill="rgb(1,0,32)" fill-opacity="0.502"/>
<g transform="translate(44.00 852.00) rotate(355) scale(36.00 16.00)"><ellipse cx="0" cy="0" rx="1" ry="1" fill="rgb(111,21,135)" fill-opacity="0.502"/></g>
<polygon points="420.57,341.32 439.67,320.84 527.43,402.68 508.33,423.16" fill="rgb(20,2,48)" fill-opacity="0.502"/>
<g transform="translate(40.00 416.00) rotate(236) scale(64.00 88.00)"><ellipse cx="0" cy="0" rx="1" ry="1" fill="rgb(33,5,67)" fill-opacity="0.502"/></g>
<polygon points="560.29,863.74 563.78,763.80 691.71,768.26 688.22,868.20" fill="rgb(176,23,166)" fill-opacity="0.502"/>
<circle cx="524.00" cy="36.00" r="16.00" fill="rgb(15,0,44)" fill-opacity="0.502"/>
<g transform="translate(456.00 96.00) rotate(121) scale(36.00 60.00)"><ellipse cx="0" cy="0" rx="1" ry="1" fill="rgb(15,1,35)" fill-opacity="0.502"/></g>
<circle cx="556.00" cy="912.00" r="48.00" fill="rgb(72,11,97)" fill-opacity="0.502"/>
<polygon points="683.28,23.18 646.46,7.55 652.72,-7.18 689.54,8.45" fill="rgb(41,7,72)" fill-opacity="0.502"/>
<circle cx="172.00" cy="388.00" r="8.00" fill="rgb(247,38,255)" fill-opacity="0.502"/>
<polygon points="660.00,212.00 692.00,212.00 692.00,268.00 660.00,268.00" fill="rgb(24,4,68)" fill-opacity="0.502"/>
<circle cx="200.00" cy="404.00" r="12.00" fill="rgb(0,0,18)" fill-opacity="0.502"/>
<polygon points="616.29,756.81 619.43,816.73 419.71,827.19 416.57,767.27" fill="rgb(180,24,171)" fill-opacity="0.502"/>
<circle cx="116.00" cy="612.00" r="12.00" fill="rgb(131,23,145)" fill-opacity="0.502"/>
<polygon points="256.29,746.76 233.93,729.91 291.71,653.24 314.07,670.09" fill="rgb(147,21,139)" fill-opacity="0.502"/>
<g transform="translate(340.00 120.00) rotate(126) scale(128.00 16.00)"><ellipse cx="0" cy="0" rx="1" ry="1" fill="rgb(9,0,22)" fill-opacity="0.502"/></g>
<g transform="translate(156.00 4.00) rotate(130) scale(36.00 68.00)"><ellipse cx="0" cy="0" rx="1" ry="1" fill="rgb(17,2,57)" fill-opacity="0.502"/></g>
<polygon points="522.26,386.96 551.39,365.80 553.74,369.04 524.61,390.20" fill="rgb(201,38,233)" fill-opacity="0.502"/>
<g transform="translate(560.00 728.00) rotate(96) scale(64.00 96.00)"><ellipse cx="0" cy="0" rx="1" ry="1" fill="rgb(186,25,178)" fill-opacity="0.502"/></g>
<circle cx="628.00" cy="408.00" r="12.00" fill="rgb(0,0,7)" fill-opacity="0.502"/>
<g transform="translate(528.00 660.00) rotate(68) scale(104.00 104.00)"><ellipse cx="0" cy="0" rx="1" ry="1" fill="rgb(185,25,178)" fill-opacity="0.502"/></g>
<polygon points="70.60,1026.94 73.52,1003.11 89.40,1005.06 86.48,1028.89" fill="rgb(41,3,59)" fill-opacity="0.502"/>
<circle cx="320.00" cy="532.00" r="12.00" fill="rgb(138,28,158)" fill-opacity="0.502"/>
<polygon points="587.59,487.49 552.51,495.59 544.41,460.51 579.49,452.41" fill="rgb(0,0,16)" fill-opacity="0.502"/>
<polygon points="478.23,397.34 490.12,322.28 517.77,326.66 505.88,401.72" fill="rgb(9,0,21)" fill-opacity="0.502"/>
<g transform="translate(164.00 928.00) rotate(56) scale(72.00 16.00)"><ellipse cx="0" cy="0" rx="1" ry="1" fill="rgb(82,10,102)" fill-opacity="0.502"/></g>
<polygon points="643.42,570.61 526.04,595.56 508.58,513.39 625.96,488.44" fill="rgb(183,24,175)" fill-opacity="0.502"/>
<circle cx="648.00" cy="188.00" r="12.00" fill="rgb(15,0,37)" fill-opacity="0.502"/>
<polygon points="290.14,994.56 286.80,970.80 381.86,957.44 385.20,981.20" fill="rgb(59,7,75)" fill-opacity="0.502"/>
<polygon points="35.37,92.58 158.60,45.28 168.63,71.42 45.40,118.72" fill="rgb(49,7,75)" fill-opacity="0.502"/>
<circle cx="12.00" cy="20.00" r="8.00" fill="rgb(119,23,142)" fill-opacity="0.502"/>
<circle cx="272.00" cy="424.00" r="12.00" fill="rgb(3,0,24)" fill-opacity="0.502"/>
<circle cx="144.00" cy="452.00" r="12.00" fill="rgb(200,34,221)" fill-opacity="0.502"/>
<polygon points="330.55,523.05 258.06,466.41 265.45,456.95 337.94,513.59" fill="rgb(0,0,18)" fill-opacity="0.502"/>
<circle cx="208.00" cy="188.00" r="32.00" fill="rgb(26,4,62)" fill-opacity="0.502"/>
<g transform="translate(248.00 316.00) rotate(87) scale(68.00 28.00)"><ellipse cx="0" cy="0" rx="1" ry="1" fill="rgb(11,0,25)" fill-opacity="0.502"/></g>
<circle cx="216.00" cy="564.00" r="40.00" fill="rgb(168,23,158)" fill-opacity="0.502"/>
<polygon points="568.57,296.42 651.03,280.39 659.43,323.58 576.97,339.61" fill="rgb(13,1,33)" fill-opacity="0.502"/>
<circle cx="280.00" cy="532.00" r="16.00" fill="rgb(0,0,13)" fill-opacity="0.502"/>
</g>
</svg>