<?xml version="1.0" standalone="no"?>
<svg xmlns="http://www.w3.org/2000/svg" width="692" height="1024" viewBox="0 0 692 1024" style="overflow:hidden">
<defs>
<clipPath id="c"><rect x="0" y="0" width="692" height="1024"/></clipPath>
</defs>
<rect width="692" height="1024" fill="rgb(73,9,88)"/>
<g clip-path="url(#c)">
<circle cx="600.00" cy="684.00" r="196.00" fill="rgb(255,38,252)" fill-opacity="0.502"/>
<circle cx="140.00" cy="632.00" r="148.00" fill="rgb(238,33,210)" fill-opacity="0.502"/>
<circle cx="356.00" cy="104.00" r="344.00" fill="rgb(0,0,1)" fill-opacity="0.502"/>
<polygon points="322.13,628.48 398.77,392.62 493.87,423.52 417.23,659.38" fill="rgb(0,0,0)" fill-opacity="0.502"/>
<circle cx="240.00" cy="668.00" r="112.00" fill="rgb(173,24,156)" fill-opacity="0.502"/>
<g transform="translate(176.00 228.00) rotate(343) scale(688.00 152.00)"><ellipse cx="0" cy="0" rx="1" ry="1" fill="rgb(0,0,38)" fill-opacity="0.502"/></g>
<g transform="translate(68.00 752.00) rotate(177) scale(100.00 76.00)"><ellipse cx="0" cy="0" rx="1" ry="1" fill="rgb(67,10,82)" fill-opacity="0.502"/></g>
<g transform="translate(480.00 752.00) rotate(244) scale(88.00 120.00)"><ellipse cx="0" cy="0" rx="1" ry="1" fill="rgb(208,27,185)" fill-opacity="0.502"/></g>
<g transform="translate(96.00 200.00) rotate(22) scale(128.00 364.00)"><ellipse cx="0" cy="0" rx="1" ry="1" fill="rgb(25,4,74)" fill-opacity="0.502"/></g>
<circle cx="616.00" cy="252.00" r="84.00" fill="rgb(0,0,31)" fill-opacity="0.502"/>
<circle cx="204.00" cy="436.00" r="72.00" fill="rgb(113,20,142)" fill-opacity="0.502"/>
<circle cx="4.00" cy="976.00" r="80.00" fill="rgb(3,0,16)" fill-opacity="0.502"/>
<polygon points="382.66,637.45 295.12,561.34 405.34,434.55 492.88,510.66" fill="rgb(1,0,31)" fill-opacity="0.502"/>
<circle cx="572.00" cy="400.00" r="56.00" fill="rgb(137,24,165)" fill-opacity="0.502"/>
<circle cx="72.00" cy="564.00" r="64.00" fill="rgb(210,27,201)" fill-opacity="0.502"/>
<circle cx="592.00" cy="652.00" r="160.00" fill="rgb(195,25,177)" fill-opacity="0.502"/>
<polygon points="444.63,295.59 341.18,437.97 179.37,320.41 282.82,178.03" fill="rgb(0,0,13)" fill-opacity="0.502"/>
<g transform="translate(632.00 468.00) rotate(85) scale(20.00 140.00)"><ellipse cx="0" cy="0" rx="1" ry="1" fill="rgb(0,0,0)" fill-opacity="0.502"/></g>
<circle cx="688.00" cy="784.00" r="120.00" fill="rgb(183,24,168)" fill-opacity="0.502"/>
<polygon points="342.55,727.75 313.52,844.18 185.45,812.25 214.48,695.82" fill="rgb(139,22,141)" fill-opacity="0.502"/>
<circle cx="544.00" cy="132.00" r="100.00" fill="rgb(8,0,18)" fill-opacity="0.502"/>
<circle cx="348.00" cy="92.00" r="96.00" fill="rgb(4,0,15)" fill-opacity="0.502"/>
<g transform="translate(176.00 484.00) rotate(13) scale(72.00 16.00)"><ellipse cx="0" cy="0" rx="1" ry="1" fill="rgb(0,0,0)" fill-opacity="0.502"/></g>
<circle cx="648.00" cy="388.00" r="64.00" fill="rgb(119,22,144)" fill-opacity="0.502"/>
<circle cx="516.00" cy="320.00" r="56.00" fill="rgb(0,0,19)" fill-opacity="0.502"/>
<g transform="translate(204.00 684.00) rotate(3) scale(124.00 84.00)"><ellipse cx="0" cy="0" rx="1" ry="1" fill="rgb(154,21,145)" fill-opacity="0.502"/></g>
<polygon points="340.00,712.00 340.00,580.00 392.00,580.00 392.00,712.00" fill="rgb(0,0,0)" fill-opacity="0.502"/>
<g transform="translate(200.00 780.00) rotate(14) scale(488.00 12.00)"><ellipse cx="0" cy="0" rx="1" ry="1" fill="rgb(70,13,103)" fill-opacity="0.502"/></g>
<circle cx="400.00" cy="404.00" r="100.00" fill="rgb(12,1,53)" fill-opacity="0.502"/>
<polygon points="352.00,1020.00 352.00,908.00 464.00,908.00 464.00,1020.00" fill="rgb(37,3,57)" fill-opacity="0.502"/>
<g transform="translate(332.00 336.00) rotate(159) scale(32.00 216.00)"><ellipse cx="0" cy="0" rx="1" ry="1" fill="rgb(9,0,18)" fill-opacity="0.502"/></g>
<polygon points="138.29,884.83 -1.36,875.06 1.71,831.17 141.36,840.94" fill="rgb(103,20,139)" fill-opacity="0.502"/>
<g transform="translate(116.00 684.00) rotate(153) scale(76.00 20.00)"><ellipse cx="0" cy="0" rx="1" ry="1" fill="rgb(71,9,68)" fill-opacity="0.502"/></g>
<circle cx="688.00" cy="796.00" r="100.00" fill="rgb(176,23,166)" fill-opacity="0.502"/>
<circle cx="0.00" cy="468.00" r="64.00" fill="rgb(10,2,47)" fill-opacity="0.502"/>
<circle cx="664.00" cy="204.00" r="124.00" fill="rgb(15,1,41)" fill-opacity="0.502"/>
<circle cx="48.00" cy="208.00" r="144.00" fill="rgb(32,5,67)" fill-opacity="0.502"/>
<polygon points="325.59,806.84 240.76,1039.88 90.41,985.16 175.24,752.12" fill="rgb(72,13,105)" fill-opacity="0.502"/>
<circle cx="56.00" cy="580.00" r="60.00" fill="rgb(185,25,176)" fill-opacity="0.502"/>
<circle cx="444.00" cy="256.00" r="56.00" fill="rgb(24,3,75)" fill-opacity="0.502"/>
<polygon points="287.48,479.22 270.06,409.36 320.52,396.78 337.94,466.64" fill="rgb(101,19,122)" fill-opacity="0.502"/>
<polygon points="551.47,425.98 549.52,410.10 680.53,394.02 682.48,409.90" fill="rgb(0,0,0)" fill-opacity="0.502"/>
<circle cx="320.00" cy="952.00" r="72.00" fill="rgb(55,9,79)" fill-opacity="0.502"/>
<polygon points="493.29,473.20 487.29,462.80 542.71,430.80 548.71,441.20" fill="rgb(225,42,254)" fill-opacity="0.502"/>
<polygon points="133.39,452.31 136.45,436.61 234.61,455.69 231.55,471.39" fill="rgb(186,31,208)" fill-opacity="0.502"/>
<circle cx="640.00" cy="360.00" r="12.00" fill="rgb(0,0,0)" fill-opacity="0.502"/>
<g transform="translate(144.00 568.00) rotate(30) scale(108.00 64.00)"><ellipse cx="0" cy="0" rx="1" ry="1" fill="rgb(189,25,180)" fill-opacity="0.502"/></g>
<polygon points="270.11,408.04 167.39,391.77 169.89,375.96 272.61,392.23" fill="rgb(221,39,247)" fill-opacity="0.502"/>
<g transform="translate(472.00 1000.00) rotate(22) scale(56.00 52.00)"><ellipse cx="0" cy="0" rx="1" ry="1" fill="rgb(41,4,60)" fill-opacity="0.502"/></g>
<circle cx="688.00" cy="1008.00" r="72.00" fill="rgb(44,5,67)" fill-opacity="0.502"/>
<circle cx="476.00" cy="0.00" r="72.00" fill="rgb(30,5,79)" fill-opacity="0.502"/>
<g transform="translate(260.00 616.00) rotate(241) scale(76.00 64.00)"><ellipse cx="0" cy="0" rx="1" ry="1" fill="rgb(163,23,149)" fill-opacity="0.502"/></g>
<circle cx="32.00" cy="772.00" r="56.00" fill="rgb(54,6,76)" fill-opacity="0.502"/>
<polygon points="350.95,636.18 370.95,635.83 373.05,755.82 353.05,756.17" fill="rgb(0,0,0)" fill-opacity="0.502"/>
<g transform="translate(320.00 352.00) rotate(23) scale(164.00 64.00)"><ellipse cx="0" cy="0" rx="1" ry="1" fill="rgb(13,0,33)" fill-opacity="0.502"/></g>
<g transform="translate(316.00 484.00) rotate(64) scale(92.00 28.00)"><ellipse cx="0" cy="0" rx="1" ry="1" fill="rgb(94,18,115)" fill-opacity="0.502"/></g>
<polygon points="426.78,712.09 490.81,794.04 437.22,835.91 373.19,753.96" fill="rgb(187,25,175)" fill-opacity="0.502"/>
<polygon points="-2.31,911.09 -25.71,889.27 34.31,824.91 57.71,846.73" fill="rgb(113,22,140)" fill-opacity="0.502"/>
<polygon points="227.13,146.97 438.92,74.04 468.87,161.03 257.08,233.96" fill="rgb(10,0,20)" fill-opacity="0.502"/>
<g transform="translate(588.00 464.00) rotate(79) scale(20.00 68.00)"><ellipse cx="0" cy="0" rx="1" ry="1" fill="rgb(0,0,9)" fill-opacity="0.502"/></g>
<polygon points="225.75,469.83 232.81,460.12 362.25,554.17 355.19,563.88" fill="rgb(184,37,210)" fill-opacity="0.502"/>
<circle cx="480.00" cy="716.00" r="92.00" fill="rgb(181,24,176)" fill-opacity="0.502"/>
<circle cx="612.00" cy="364.00" r="12.00" fill="rgb(0,0,0)" fill-opacity="0.502"/>
<g transform="translate(380.00 568.00) rotate(86) scale(36.00 72.00)"><ellipse cx="0" cy="0" rx="1" ry="1" fill="rgb(14,0,28)" fill-opacity="0.502"/></g>
<circle cx="540.00" cy="668.00" r="124.00" fill="rgb(186,25,179)" fill-opacity="0.502"/>
<g transform="translate(688.00 232.00) rotate(153) scale(32.00 88.00)"><ellipse cx="0" cy="0" rx="1" ry="1" fill="rgb(25,3,71)" fill-opacity="0.502"/></g>
<g transform="translate(124.00 448.00) rotate(226) scale(16.00 32.00)"><ellipse cx="0" cy="0" rx="1" ry="1" fill="rgb(139,23,168)" fill-opacity="0.502"/></g>
<g transform="translate(428.00 872.00) rotate(284) scale(40.00 412.00)"><ellipse cx="0" cy="0" rx="1" ry="1" fill="rgb(78,12,108)" fill-opacity="0.502"/></g>
<g transform="translate(424.00 400.00) rotate(178) scale(40.00 116.00)"><ellipse cx="0" cy="0" rx="1" ry="1" fill="rgb(24,3,71)" fill-opacity="0.502"/></g>
<circle cx="56.00" cy="900.00" r="32.00" fill="rgb(37,2,54)" fill-opacity="0.502"/>
<g transform="translate(0.00 408.00) rotate(65) scale(36.00 72.00)"><ellipse cx="0" cy="0" rx="1" ry="1" fill="rgb(65,9,82)" fill-opacity="0.502"/></g>
<polygon points="682.76,453.37 664.38,437.95 677.24,422.63 695.62,438.05" fill="rgb(189,37,222)" fill-opacity="0.502"/>
<polygon points="88.50,625.73 134.24,484.97 187.50,502.27 141.76,643.03" fill="rgb(183,24,175)" fill-opacity="0.502"/>
<circle cx="232.00" cy="4.00" r="88.00" fill="rgb(22,3,62)" fill-opacity="0.502"/>
<polygon points="349.66,666.33 390.12,566.19 438.34,585.67 397.88,685.81" fill="rgb(0,0,18)" fill-opacity="0.502"/>
<polygon points="46.09,512.36 153.33,602.35 101.91,663.64 -5.33,573.65" fill="rgb(182,24,174)" fill-opacity="0.502"/>
<polygon points="454.81,692.05 555.68,770.85 489.19,855.95 388.32,777.15" fill="rgb(180,24,173)" fill-opacity="0.502"/>
<g transform="translate(108.00 960.00) rotate(269) scale(216.00 40.00)"><ellipse cx="0" cy="0" rx="1" ry="1" fill="rgb(64,10,89)" fill-opacity="0.502"/></g>
<circle cx="172.00" cy="364.00" r="20.00" fill="rgb(6,0,21)" fill-opacity="0.502"/>
<polygon points="572.00,420.00 688.00,420.00 688.00,432.00 572.00,432.00" fill="rgb(201,35,224)" fill-opacity="0.502"/>
<polygon points="644.02,330.89 646.50,338.50 539.98,373.11 537.50,365.50" fill="rgb(221,38,247)" fill-opacity="0.502"/>
<g transform="translate(508.00 684.00) rotate(289) scale(104.00 68.00)"><ellipse cx="0" cy="0" rx="1" ry="1" fill="rgb(189,25,182)" fill-opacity="0.502"/></g>
<polygon points="619.32,1033.08 503.41,1002.02 540.68,862.92 656.59,893.98" fill="rgb(66,13,94)" fill-opacity="0.502"/>
<polygon points="415.36,694.81 435.24,759.84 404.64,769.19 384.76,704.16" fill="rgb(166,22,152)" fill-opacity="0.502"/>
<circle cx="284.00" cy="536.00" r="16.00" fill="rgb(0,0,0)" fill-opacity="0.502"/>
<g transform="translate(184.00 704.00) rotate(341) scale(96.00 32.00)"><ellipse cx="0" cy="0" rx="1" ry="1" fill="rgb(172,23,158)" fill-opacity="0.502"/></g>
<polygon points="601.83,441.37 602.18,421.37 674.17,422.63 673.82,442.63" fill="rgb(191,34,215)" fill-opacity="0.502"/>
<polygon points="53.85,706.59 1.92,709.31 -1.85,637.41 50.08,634.69" fill="rgb(169,23,148)" fill-opacity="0.502"/>
<polygon points="708.00,496.00 708.00,544.00 620.00,544.00 620.00,496.00" fill="rgb(180,23,166)" fill-opacity="0.502"/>
<polygon points="93.51,24.23 159.83,68.97 90.49,171.77 24.17,127.03" fill="rgb(37,6,69)" fill-opacity="0.502"/>
<circle cx="156.00" cy="408.00" r="24.00" fill="rgb(136,22,158)" fill-opacity="0.502"/>
<polygon points="598.24,195.67 517.10,173.93 565.76,-7.67 646.90,14.07" fill="rgb(7,0,15)" fill-opacity="0.502"/>
<polygon points="311.23,185.43 103.51,174.54 104.77,150.57 312.49,161.46" fill="rgb(12,0,29)" fill-opacity="0.502"/>
<polygon points="531.61,441.00 597.29,423.40 600.39,435.00 534.71,452.60" fill="rgb(232,35,246)" fill-opacity="0.502"/>
<polygon points="617.66,463.45 626.43,445.48 698.34,480.55 689.57,498.52" fill="rgb(0,0,8)" fill-opacity="0.502"/>
<polygon points="514.13,473.53 524.62,499.49 457.87,526.47 447.38,500.51" fill="rgb(0,0,5)" fill-opacity="0.502"/>
<circle cx="140.00" cy="668.00" r="32.00" fill="rgb(91,15,103)" fill-opacity="0.502"/>
<circle cx="268.00" cy="300.00" r="92.00" fill="rgb(12,0,23)" fill-opacity="0.502"/>
<circle cx="600.00" cy="216.00" r="44.00" fill="rgb(21,1,44)" fill-opacity="0.502"/>
<polygon points="350.05,808.64 338.31,806.14 349.95,751.36 361.69,753.86" fill="rgb(14,0,15)" fill-opacity="0.502"/>
<polygon points="501.00,402.70 465.90,369.96 515.00,317.30 550.10,350.04" fill="rgb(4,0,19)" fill-opacity="0.502"/>
<polygon points="436.10,518.63 430.76,491.14 583.90,461.37 589.24,488.86" fill="rgb(10,0,36)" fill-opacity="0.502"/>
<circle cx="140.00" cy="924.00" r="48.00" fill="rgb(81,12,103)" fill-opacity="0.502"/>
<polygon points="228.65,681.83 293.32,660.82 335.35,790.17 270.68,811.18" fill="rgb(148,21,132)" fill-opacity="0.502"/>
<circle cx="0.00" cy="376.00" r="120.00" fill="rgb(30,5,64)" fill-opacity="0.502"/>
<g transform="translate(88.00 688.00) rotate(122) scale(56.00 28.00)"><ellipse cx="0" cy="0" rx="1" ry="1" fill="rgb(140,19,117)" fill-opacity="0.502"/></g>
<circle cx="340.00" cy="820.00" r="44.00" fill="rgb(99,13,104)" fill-opacity="0.502"/>
<g transform="translate(248.00 516.00) rotate(117) scale(12.00 100.00)"><ellipse cx="0" cy="0" rx="1" ry="1" fill="rgb(0,0,0)" fill-opacity="0.502"/></g>
<g transform="translate(516.00 776.00) rotate(202) scale(108.00 72.00)"><ellipse cx="0" cy="0" rx="1" ry="1" fill="rgb(182,24,173)" fill-opacity="0.502"/></g>
<polygon points="347.91,468.98 338.73,482.08 260.09,427.02 269.27,413.92" fill="rgb(0,0,10)" fill-opacity="0.502"/>
<circle cx="40.00" cy="716.00" r="20.00" fill="rgb(81,9,65)" fill-opacity="0.502"/>
<polygon points="592.74,378.88 594.62,382.41 499.26,433.12 497.38,429.59" fill="rgb(221,38,244)" fill-opacity="0.502"/>
<circle cx="352.00" cy="564.00" r="16.00" fill="rgb(74,12,92)" fill-opacity="0.502"/>
<circle cx="344.00" cy="376.00" r="56.00" fill="rgb(8,0,19)" fill-opacity="0.502"/>
<polygon points="342.69,586.21 410.22,482.22 477.31,525.79 409.78,629.78" fill="rgb(15,1,33)" fill-opacity="0.502"/>
<polygon points="517.10,854.42 505.72,896.92 358.90,857.58 370.28,815.08" fill="rgb(93,14,117)" fill-opacity="0.502"/>
<polygon points="37.09,1015.77 9.81,1022.07 -9.09,940.23 18.19,933.93" fill="rgb(15,0,30)" fill-opacity="0.502"/>
<g transform="translate(228.00 312.00) rotate(212) scale(40.00 76.00)"><ellipse cx="0" cy="0" rx="1" ry="1" fill="rgb(13,0,29)" fill-opacity="0.502"/></g>
<polygon points="161.71,752.72 155.02,689.07 286.29,675.28 292.98,738.93" fill="rgb(165,22,154)" fill-opacity="0.502"/>
<polygon points="322.16,742.49 264.48,725.95 289.84,637.51 347.52,654.05" fill="rgb(138,20,123)" fill-opacity="0.502"/>
<circle cx="0.00" cy="708.00" r="20.00" fill="rgb(137,18,108)" fill-opacity="0.502"/>
<circle cx="688.00" cy="532.00" r="36.00" fill="rgb(172,23,161)" fill-opacity="0.502"/>
<circle cx="448.00" cy="432.00" r="52.00" fill="rgb(20,2,58)" fill-opacity="0.502"/>
<g transform="translate(0.00 196.00) rotate(264) scale(120.00 60.00)"><ellipse cx="0" cy="0" rx="1" ry="1" fill="rgb(28,5,65)" fill-opacity="0.502"/></g>
<circle cx="260.00" cy="0.00" r="48.00" fill="rgb(38,7,74)" fill-opacity="0.502"/>
<polygon points="767.35,367.30 768.40,387.28 588.65,396.70 587.60,376.72" fill="rgb(207,36,230)" fill-opacity="0.502"/>
<polygon points="180.65,661.90 204.31,540.18 255.35,550.10 231.69,671.82" fill="rgb(173,22,164)" fill-opacity="0.502"/>
<g transform="translate(528.00 316.00) rotate(218) scale(48.00 72.00)"><ellipse cx="0" cy="0" rx="1" ry="1" fill="rgb(12,0,29)" fill-opacity="0.502"/></g>
<g transform="translate(128.00 436.00) rotate(97) scale(8.00 132.00)"><ellipse cx="0" cy="0" rx="1" ry="1" fill="rgb(21,3,48)" fill-opacity="0.502"/></g>
<circle cx="680.00" cy="848.00" r="44.00" fill="rgb(174,23,161)" fill-opacity="0.502"/>
<circle cx="252.00" cy="944.00" r="76.00" fill="rgb(70,12,93)" fill-opacity="0.502"/>
<g transform="translate(388.00 16.00) rotate(183) scale(32.00 28.00)"><ellipse cx="0" cy="0" rx="1" ry="1" fill="rgb(3,0,16)" fill-opacity="0.502"/></g>
<polygon points="644.36,272.54 672.05,306.73 631.64,339.46 603.95,305.27" fill="rgb(10,0,26)" fill-opacity="0.502"/>
<g transform="translate(688.00 0.00) rotate(17) scale(36.00 52.00)"><ellipse cx="0" cy="0" rx="1" ry="1" fill="rgb(35,6,80)" fill-opacity="0.502"/></g>
<circle cx="412.00" cy="792.00" r="32.00" fill="rgb(172,24,159)" fill-opacity="0.502"/>
<circle cx="100.00" cy="332.00" r="76.00" fill="rgb(27,4,64)" fill-opacity="0.502"/>
<polygon points="197.77,591.41 207.66,621.84 2.23,688.59 -7.66,658.16" fill="rgb(174,23,164)" fill-opacity="0.502"/>
<g transform="translate(448.00 468.00) rotate(360) scale(32.00 64.00)"><ellipse cx="0" cy="0" rx="1" ry="1" fill="rgb(22,2,58)" fill-opacity="0.502"/></g>
<polygon points="711.17,359.13 708.04,378.88 644.83,368.87 647.96,349.12" fill="rgb(0,0,0)" fill-opacity="0.502"/>
<g transform="translate(420.00 392.00) rotate(92) scale(76.00 32.00)"><ellipse cx="0" cy="0" rx="1" ry="1" fill="rgb(22,3,62)" fill-opacity="0.502"/></g>
<g transform="translate(0.00 364.00) rotate(291) scale(80.00 84.00)"><ellipse cx="0" cy="0" rx="1" ry="1" fill="rgb(43,7,73)" fill-opacity="0.502"/></g>
<circle cx="136.00" cy="804.00" r="56.00" fill="rgb(69,11,95)" fill-opacity="0.502"/>
<circle cx="28.00" cy="252.00" r="108.00" fill="rgb(29,5,65)" fill-opacity="0.502"/>
<polygon points="600.69,937.83 676.77,913.11 695.31,970.17 619.23,994.89" fill="rgb(61,10,80)" fill-opacity="0.502"/>
<polygon points="598.88,462.20 602.38,455.01 649.12,477.80 645.62,484.99" fill="rgb(1,0,21)" fill-opacity="0.502"/>
<polygon points="161.21,721.58 153.97,748.63 130.79,742.42 138.03,715.37" fill="rgb(171,25,161)" fill-opacity="0.502"/>
<polygon points="492.57,98.72 433.75,8.14 487.43,-26.72 546.25,63.86" fill="rgb(23,3,58)" fill-opacity="0.502"/>
<polygon points="98.64,479.95 96.14,491.69 41.36,480.05 43.86,468.31" fill="rgb(1,0,30)" fill-opacity="0.502"/>
<g transform="translate(80.00 856.00) rotate(13) scale(60.00 12.00)"><ellipse cx="0" cy="0" rx="1" ry="1" fill="rgb(102,18,129)" fill-opacity="0.502"/></g>
<polygon points="193.82,500.51 186.01,612.24 118.18,607.49 125.99,495.76" fill="rgb(180,24,171)" fill-opacity="0.502"/>
<polygon points="420.29,30.62 444.06,33.96 435.71,93.38 411.94,90.04" fill="rgb(28,3,61)" fill-opacity="0.502"/>
<g transform="translate(392.00 996.00) rotate(68) scale(124.00 44.00)"><ellipse cx="0" cy="0" rx="1" ry="1" fill="rgb(56,6,72)" fill-opacity="0.502"/></g>
<polygon points="338.64,796.06 330.64,795.92 333.36,639.94 341.36,640.08" fill="rgb(113,15,89)" fill-opacity="0.502"/>
<polygon points="655.92,459.01 685.59,447.03 696.08,472.99 666.41,484.97" fill="rgb(0,0,17)" fill-opacity="0.502"/>
<g transform="translate(168.00 788.00) rotate(315) scale(32.00 40.00)"><ellipse cx="0" cy="0" rx="1" ry="1" fill="rgb(84,13,109)" fill-opacity="0.502"/></g>
<polygon points="416.34,181.07 457.14,197.55 443.66,230.93 402.86,214.45" fill="rgb(24,4,74)" fill-opacity="0.502"/>
<circle cx="604.00" cy="368.00" r="12.00" fill="rgb(0,0,15)" fill-opacity="0.502"/>
<g transform="translate(436.00 880.00) rotate(243) scale(48.00 36.00)"><ellipse cx="0" cy="0" rx="1" ry="1" fill="rgb(82,12,106)" fill-opacity="0.502"/></g>
<polygon points="94.32,920.26 85.41,983.64 57.68,979.74 66.59,916.36" fill="rgb(62,7,79)" fill-opacity="0.502"/>
<polygon points="659.63,401.51 681.88,392.52 692.37,418.49 670.12,427.48" fill="rgb(0,0,14)" fill-opacity="0.502"/>
<g transform="translate(568.00 380.00) rotate(85) scale(4.00 28.00)"><ellipse cx="0" cy="0" rx="1" ry="1" fill="rgb(0,0,0)" fill-opacity="0.502"/></g>
<polygon points="158.35,462.15 247.89,522.54 245.65,525.85 156.11,465.46" fill="rgb(7,0,34)" fill-opacity="0.502"/>
<polygon points="335.70,517.53 241.77,456.53 248.30,446.47 342.23,507.47" fill="rgb(0,0,0)" fill-opacity="0.502"/>
<g transform="translate(688.00 580.00) rotate(230) scale(108.00 56.00)"><ellipse cx="0" cy="0" rx="1" ry="1" fill="rgb(177,23,166)" fill-opacity="0.502"/></g>
<polygon points="365.42,370.86 316.31,423.52 266.58,377.14 315.69,324.48" fill="rgb(9,0,21)" fill-opacity="0.502"/>
<circle cx="548.00" cy="280.00" r="68.00" fill="rgb(15,1,32)" fill-opacity="0.502"/>
<circle cx="80.00" cy="1016.00" r="28.00" fill="rgb(45,3,59)" fill-opacity="0.502"/>
<circle cx="376.00" cy="632.00" r="36.00" fill="rgb(9,0,24)" fill-opacity="0.502"/>
<circle cx="0.00" cy="516.00" r="28.00" fill="rgb(12,1,57)" fill-opacity="0.502"/>
<polygon points="398.52,517.43 425.61,552.10 381.48,586.57 354.39,551.90" fill="rgb(6,0,16)" fill-opacity="0.502"/>
<polygon points="204.98,591.30 155.23,557.75 191.02,504.70 240.77,538.25" fill="rgb(175,23,164)" fill-opacity="0.502"/>
<circle cx="492.00" cy="712.00" r="64.00" fill="rgb(187,25,181)" fill-opacity="0.502"/>
<circle cx="652.00" cy="292.00" r="40.00" fill="rgb(13,0,33)" fill-opacity="0.502"/>
<g transform="translate(332.00 140.00) rotate(168) scale(32.00 112.00)"><ellipse cx="0" cy="0" rx="1" ry="1" fill="rgb(10,0,21)" fill-opacity="0.502"/></g>
<polygon points="379.03,981.44 564.72,1010.85 560.97,1034.56 375.28,1005.15" fill="rgb(46,4,61)" fill-opacity="0.502"/>
<g transform="translate(68.00 0.00) rotate(260) scale(24.00 52.00)"><ellipse cx="0" cy="0" rx="1" ry="1" fill="rgb(23,0,32)" fill-opacity="0.502"/></g>
<polygon points="156.40,326.26 231.46,314.38 239.60,365.74 164.54,377.62" fill="rgb(12,0,27)" fill-opacity="0.502"/>
<polygon points="70.28,802.84 -4.15,748.76 21.72,713.16 96.15,767.24" fill="rgb(54,6,72)" fill-opacity="0.502"/>
<polygon points="427.30,266.58 326.20,400.75 268.70,357.42 369.80,223.25" fill="rgb(11,0,23)" fill-opacity="0.502"/>
<polygon points="491.13,18.73 495.29,38.30 424.87,53.27 420.71,33.70" fill="rgb(40,7,74)" fill-opacity="0.502"/>
<polygon points="360.30,534.97 356.06,541.75 335.70,529.03 339.94,522.25" fill="rgb(0,0,6)" fill-opacity="0.502"/>
<circle cx="136.00" cy="0.00" r="48.00" fill="rgb(15,1,56)" fill-opacity="0.502"/>
<circle cx="688.00" cy="156.00" r="16.00" fill="rgb(27,4,79)" fill-opacity="0.502"/>
<polygon points="537.94,172.41 530.19,24.61 626.06,19.59 633.81,167.39" fill="rgb(11,0,23)" fill-opacity="0.502"/>
<polygon points="377.58,436.29 419.99,236.74 490.42,251.71 448.01,451.26" fill="rgb(21,2,60)" fill-opacity="0.502"/>
<polygon points="243.34,299.62 203.90,225.45 288.66,180.38 328.10,254.55" fill="rgb(12,0,29)" fill-opacity="0.502"/>
<g transform="translate(648.00 464.00) rotate(357) scale(84.00 16.00)"><ellipse cx="0" cy="0" rx="1" ry="1" fill="rgb(8,0,26)" fill-opacity="0.502"/></g>
<polygon points="176.80,751.38 301.61,794.36 291.20,824.62 166.39,781.64" fill="rgb(92,17,122)" fill-opacity="0.502"/>
<circle cx="32.00" cy="400.00" r="32.00" fill="rgb(56,7,80)" fill-opacity="0.502"/>
<g transform="translate(540.00 0.00) rotate(340) scale(40.00 16.00)"><ellipse cx="0" cy="0" rx="1" ry="1" fill="rgb(41,7,74)" fill-opacity="0.502"/></g>
<g transform="translate(484.00 372.00) rotate(349) scale(16.00 64.00)"><ellipse cx="0" cy="0" rx="1" ry="1" fill="rgb(15,0,37)" fill-opacity="0.502"/></g>
<g transform="translate(564.00 804.00) rotate(274) scale(52.00 164.00)"><ellipse cx="0" cy="0" rx="1" ry="1" fill="rgb(177,23,168)" fill-opacity="0.502"/></g>
<circle cx="684.00" cy="332.00" r="12.00" fill="rgb(188,35,214)" fill-opacity="0.502"/>
<polygon points="200.24,184.60 199.75,212.59 131.76,211.40 132.25,183.41" fill="rgb(45,9,73)" fill-opacity="0.502"/>
<polygon points="378.74,780.12 363.88,766.74 377.26,751.88 392.12,765.26" fill="rgb(119,18,99)" fill-opacity="0.502"/>
<circle cx="184.00" cy="424.00" r="12.00" fill="rgb(206,34,224)" fill-opacity="0.502"/>
<circle cx="516.00" cy="568.00" r="56.00" fill="rgb(186,25,177)" fill-opacity="0.502"/>
<g transform="translate(100.00 560.00) rotate(325) scale(60.00 68.00)"><ellipse cx="0" cy="0" rx="1" ry="1" fill="rgb(184,24,176)" fill-opacity="0.502"/></g>
<g transform="translate(180.00 732.00) rotate(95) scale(20.00 108.00)"><ellipse cx="0" cy="0" rx="1" ry="1" fill="rgb(166,23,156)" fill-opacity="0.502"/></g>
<circle cx="272.00" cy="412.00" r="12.00" fill="rgb(167,32,194)" fill-opacity="0.502"/>
<circle cx="620.00" cy="856.00" r="28.00" fill="rgb(162,22,152)" fill-opacity="0.502"/>
<g transform="translate(28.00 456.00) rotate(237) scale(56.00 52.00)"><ellipse cx="0" cy="0" rx="1" ry="1" fill="rgb(26,4,62)" fill-opacity="0.502"/></g>
<circle cx="360.00" cy="732.00" r="16.00" fill="rgb(5,0,17)" fill-opacity="0.502"/>
<polygon points="554.98,595.08 630.01,672.77 489.02,808.92 413.99,731.23" fill="rgb(187,25,180)" fill-opacity="0.502"/>
<polygon points="363.23,497.68 345.77,466.20 352.77,462.32 370.23,493.80" fill="rgb(107,20,125)" fill-opacity="0.502"/>
<circle cx="340.00" cy="548.00" r="12.00" fill="rgb(126,23,147)" fill-opacity="0.502"/>
<g transform="translate(296.00 680.00) rotate(20) scale(24.00 80.00)"><ellipse cx="0" cy="0" rx="1" ry="1" fill="rgb(144,21,135)" fill-opacity="0.502"/></g>
<g transform="translate(252.00 124.00) rotate(17) scale(20.00 80.00)"><ellipse cx="0" cy="0" rx="1" ry="1" fill="rgb(20,2,50)" fill-opacity="0.502"/></g>
<circle cx="28.00" cy="864.00" r="28.00" fill="rgb(103,19,128)" fill-opacity="0.502"/>
<polygon points="241.95,492.61 304.12,542.96 294.05,555.39 231.88,505.04" fill="rgb(0,0,22)" fill-opacity="0.502"/>
<g transform="translate(28.00 808.00) rotate(184) scale(64.00 28.00)"><ellipse cx="0" cy="0" rx="1" ry="1" fill="rgb(68,10,97)" fill-opacity="0.502"/></g>
<g transform="translate(676.00 836.00) rotate(272) scale(44.00 56.00)"><ellipse cx="0" cy="0" rx="1" ry="1" fill="rgb(173,23,164)" fill-opacity="0.502"/></g>
<polygon points="246.96,952.96 259.32,932.38 297.04,955.04 284.68,975.62" fill="rgb(54,5,71)" fill-opacity="0.502"/>
<polygon points="334.32,483.94 341.21,474.11 429.68,536.06 422.79,545.89" fill="rgb(15,0,31)" fill-opacity="0.502"/>
<circle cx="240.00" cy="748.00" r="24.00" fill="rgb(163,22,149)" fill-opacity="0.502"/>
<circle cx="180.00" cy="724.00" r="28.00" fill="rgb(173,22,163)" fill-opacity="0.502"/>
<circle cx="596.00" cy="272.00" r="68.00" fill="rgb(17,1,38)" fill-opacity="0.502"/>
<g transform="translate(380.00 676.00) rotate(200) scale(16.00 96.00)"><ellipse cx="0" cy="0" rx="1" ry="1" fill="rgb(7,0,22)" fill-opacity="0.502"/></g>
<polygon points="112.31,446.26 212.25,449.75 211.69,465.74 111.75,462.25" fill="rgb(192,33,212)" fill-opacity="0.502"/>
<polygon points="297.30,1051.78 129.37,958.70 150.70,920.22 318.63,1013.30" fill="rgb(76,12,101)" fill-opacity="0.502"/>
<polygon points="191.10,972.94 173.91,1013.44 92.90,979.06 110.09,938.56" fill="rgb(69,14,95)" fill-opacity="0.502"/>
<circle cx="28.00" cy="408.00" r="36.00" fill="rgb(51,8,77)" fill-opacity="0.502"/>
<polygon points="400.15,1022.80 377.67,967.17 451.85,937.20 474.33,992.83" fill="rgb(53,6,68)" fill-opacity="0.502"/>
<polygon points="144.43,646.89 163.83,642.06 171.57,673.11 152.17,677.94" fill="rgb(50,8,94)" fill-opacity="0.502"/>
<g transform="translate(544.00 296.00) rotate(1) scale(60.00 60.00)"><ellipse cx="0" cy="0" rx="1" ry="1" fill="rgb(13,1,30)" fill-opacity="0.502"/></g>
<polygon points="582.35,502.32 631.51,485.39 653.65,549.68 604.49,566.61" fill="rgb(182,24,174)" fill-opacity="0.502"/>
<polygon points="468.40,343.45 485.30,375.24 407.60,416.55 390.70,384.76" fill="rgb(19,2,52)" fill-opacity="0.502"/>
<polygon points="259.52,592.91 243.72,590.40 252.48,535.09 268.28,537.60" fill="rgb(159,22,148)" fill-opacity="0.502"/>
<polygon points="686.00,402.00 686.00,414.00 590.00,414.00 590.00,402.00" fill="rgb(0,0,7)" fill-opacity="0.502"/>
<g transform="translate(436.00 120.00) rotate(58) scale(136.00 20.00)"><ellipse cx="0" cy="0" rx="1" ry="1" fill="rgb(11,0,24)" fill-opacity="0.502"/></g>
<g transform="translate(616.00 576.00) rotate(193) scale(56.00 24.00)"><ellipse cx="0" cy="0" rx="1" ry="1" fill="rgb(178,23,169)" fill-opacity="0.502"/></g>
<polygon points="397.86,258.78 374.92,199.03 442.14,173.22 465.08,232.97" fill="rgb(22,3,62)" fill-opacity="0.502"/>
<circle cx="28.00" cy="1020.00" r="36.00" fill="rgb(35,1,44)" fill-opacity="0.502"/>
<g transform="translate(680.00 252.00) rotate(41) scale(76.00 72.00)"><ellipse cx="0" cy="0" rx="1" ry="1" fill="rgb(18,2,47)" fill-opacity="0.502"/></g>
<polygon points="642.00,2.00 642.00,74.00 566.00,74.00 566.00,2.00" fill="rgb(8,0,19)" fill-opacity="0.502"/>
<g transform="translate(688.00 984.00) rotate(218) scale(36.00 56.00)"><ellipse cx="0" cy="0" rx="1" ry="1" fill="rgb(54,6,73)" fill-opacity="0.502"/></g>
<circle cx="388.00" cy="752.00" r="24.00" fill="rgb(147,20,133)" fill-opacity="0.502"/>
<g transform="translate(148.00 260.00) rotate(162) scale(24.00 56.00)"><ellipse cx="0" cy="0" rx="1" ry="1" fill="rgb(23,3,63)" fill-opacity="0.502"/></g>
<polygon points="346.24,937.33 388.67,979.76 337.76,1030.67 295.33,988.24" fill="rgb(59,7,75)" fill-opacity="0.502"/>
<g transform="translate(40.00 84.00) rotate(243) scale(12.00 136.00)"><ellipse cx="0" cy="0" rx="1" ry="1" fill="rgb(17,2,62)" fill-opacity="0.502"/></g>
<g transform="translate(124.00 108.00) rotate(0) scale(52.00 12.00)"><ellipse cx="0" cy="0" rx="1" ry="1" fill="rgb(12,0,43)" fill-opacity="0.502"/></g>
<circle cx="672.00" cy="100.00" r="24.00" fill="rgb(21,1,55)" fill-opacity="0.502"/>
<polygon points="595.44,978.89 527.13,1012.21 488.56,933.11 556.87,899.79" fill="rgb(69,13,96)" fill-opacity="0.502"/>
<polygon points="417.23,725.27 429.59,763.31 406.77,770.73 394.41,732.69" fill="rgb(178,24,170)" fill-opacity="0.502"/>
<polygon points="686.83,611.86 694.82,612.28 689.17,720.14 681.18,719.72" fill="rgb(168,22,158)" fill-opacity="0.502"/>
<polygon points="667.55,333.58 671.06,345.06 640.45,354.42 636.94,342.94" fill="rgb(209,37,237)" fill-opacity="0.502"/>
<g transform="translate(324.00 844.00) rotate(122) scale(32.00 64.00)"><ellipse cx="0" cy="0" rx="1" ry="1" fill="rgb(80,11,105)" fill-opacity="0.502"/></g>
<circle cx="532.00" cy="428.00" r="12.00" fill="rgb(0,0,18)" fill-opacity="0.502"/>
<polygon points="683.59,933.83 538.31,905.59 544.41,874.17 689.69,902.41" fill="rgb(77,11,100)" fill-opacity="0.502"/>
<polygon points="279.46,545.12 284.49,640.99 248.54,642.88 243.51,547.01" fill="rgb(160,22,149)" fill-opacity="0.502"/>
<polygon points="163.99,408.03 161.39,415.60 116.01,399.97 118.61,392.40" fill="rgb(41,6,69)" fill-opacity="0.502"/>
<polygon points="113.93,436.90 112.13,429.10 190.07,411.10 191.87,418.90" fill="rgb(213,35,231)" fill-opacity="0.502"/>
<g transform="translate(328.00 576.00) rotate(233) scale(80.00 12.00)"><ellipse cx="0" cy="0" rx="1" ry="1" fill="rgb(9,0,21)" fill-opacity="0.502"/></g>
<polygon points="532.11,422.63 536.70,429.19 467.89,477.37 463.30,470.81" fill="rgb(18,1,46)" fill-opacity="0.502"/>
<polygon points="148.91,10.42 190.26,-4.63 223.09,85.58 181.74,100.63" fill="rgb(18,2,54)" fill-opacity="0.502"/>
<polygon points="428.99,795.30 419.38,703.81 487.01,696.70 496.62,788.19" fill="rgb(185,25,178)" fill-opacity="0.502"/>
<circle cx="132.00" cy="820.00" r="36.00" fill="rgb(64,9,89)" fill-opacity="0.502"/>
<g transform="translate(140.00 40.00) rotate(167) scale(12.00 108.00)"><ellipse cx="0" cy="0" rx="1" ry="1" fill="rgb(33,5,67)" fill-opacity="0.502"/></g>
<circle cx="596.00" cy="756.00" r="52.00" fill="rgb(184,24,177)" fill-opacity="0.502"/>
<polygon points="351.82,603.57 360.20,483.87 368.18,484.43 359.80,604.13" fill="rgb(56,8,76)" fill-opacity="0.502"/>
<circle cx="364.00" cy="32.00" r="52.00" fill="rgb(10,0,23)" fill-opacity="0.502"/>
<polygon points="619.82,615.41 665.20,599.78 708.18,724.59 662.80,740.22" fill="rgb(179,23,170)" fill-opacity="0.502"/>
<polygon points="592.75,350.32 596.13,357.57 527.25,389.68 523.87,382.43" fill="rgb(197,34,224)" fill-opacity="0.502"/>
<g transform="translate(356.00 396.00) rotate(175) scale(16.00 76.00)"><ellipse cx="0" cy="0" rx="1" ry="1" fill="rgb(9,0,21)" fill-opacity="0.502"/></g>
<polygon points="257.36,549.98 225.24,595.85 182.64,566.02 214.76,520.15" fill="rgb(168,22,157)" fill-opacity="0.502"/>
<g transform="translate(500.00 188.00) rotate(0) scale(44.00 32.00)"><ellipse cx="0" cy="0" rx="1" ry="1" fill="rgb(10,0,23)" fill-opacity="0.502"/></g>
<g transform="translate(664.00 124.00) rotate(179) scale(48.00 12.00)"><ellipse cx="0" cy="0" rx="1" ry="1" fill="rgb(20,1,48)" fill-opacity="0.502"/></g>
<g transform="translate(604.00 236.00) rotate(19) scale(20.00 72.00)"><ellipse cx="0" cy="0" rx="1" ry="1" fill="rgb(17,1,40)" fill-opacity="0.502"/></g>
<g transform="translate(136.00 136.00) rotate(267) scale(12.00 32.00)"><ellipse cx="0" cy="0" rx="1" ry="1" fill="rgb(50,9,74)" fill-opacity="0.502"/></g>
<circle cx="460.00" cy="104.00" r="52.00" fill="rgb(14,0,32)" fill-opacity="0.502"/>
<polygon points="157.70,226.73 172.69,263.82 50.30,313.27 35.31,276.18" fill="rgb(34,6,68)" fill-opacity="0.502"/>
<polygon points="192.58,85.33 265.26,107.55 259.42,126.67 186.74,104.45" fill="rgb(22,3,66)" fill-opacity="0.502"/>
<g transform="translate(676.00 196.00) rotate(284) scale(48.00 36.00)"><ellipse cx="0" cy="0" rx="1" ry="1" fill="rgb(25,3,65)" fill-opacity="0.502"/></g>
<circle cx="560.00" cy="532.00" r="40.00" fill="rgb(184,24,175)" fill-opacity="0.502"/>
<circle cx="84.00" cy="700.00" r="16.00" fill="rgb(90,10,77)" fill-opacity="0.502"/>
<circle cx="404.00" cy="892.00" r="24.00" fill="rgb(72,12,95)" fill-opacity="0.502"/>
<polygon points="123.35,694.31 128.80,705.00 64.65,737.69 59.20,727.00" fill="rgb(136,20,123)" fill-opacity="0.502"/>
<polygon points="625.04,716.69 462.77,760.17 438.96,671.31 601.23,627.83" fill="rgb(187,25,179)" fill-opacity="0.502"/>
<g transform="translate(344.00 532.00) rotate(319) scale(4.00 84.00)"><ellipse cx="0" cy="0" rx="1" ry="1" fill="rgb(9,0,26)" fill-opacity="0.502"/></g>
<polygon points="318.05,863.20 340.11,880.44 317.95,908.80 295.89,891.56" fill="rgb(61,9,84)" fill-opacity="0.502"/>
<polygon points="152.28,344.33 106.95,451.11 51.72,427.67 97.05,320.89" fill="rgb(27,4,66)" fill-opacity="0.502"/>
<circle cx="232.00" cy="0.00" r="32.00" fill="rgb(46,8,71)" fill-opacity="0.502"/>
<circle cx="120.00" cy="76.00" r="20.00" fill="rgb(59,8,81)" fill-opacity="0.502"/>
<polygon points="94.03,741.99 131.11,803.71 113.97,814.01 76.89,752.29" fill="rgb(70,13,96)" fill-opacity="0.502"/>
<g transform="translate(204.00 900.00) rotate(234) scale(28.00 20.00)"><ellipse cx="0" cy="0" rx="1" ry="1" fill="rgb(64,11,86)" fill-opacity="0.502"/></g>
<g transform="translate(564.00 924.00) rotate(88) scale(32.00 104.00)"><ellipse cx="0" cy="0" rx="1" ry="1" fill="rgb(70,12,95)" fill-opacity="0.502"/></g>
<g transform="translate(376.00 732.00) rotate(248) scale(4.00 8.00)"><ellipse cx="0" cy="0" rx="1" ry="1" fill="rgb(82,10,75)" fill-opacity="0.502"/></g>
<circle cx="220.00" cy="352.00" r="28.00" fill="rgb(10,0,24)" fill-opacity="0.502"/>
<g transform="translate(372.00 772.00) rotate(221) scale(12.00 20.00)"><ellipse cx="0" cy="0" rx="1" ry="1" fill="rgb(124,17,105)" fill-opacity="0.502"/></g>
<circle cx="456.00" cy="248.00" r="32.00" fill="rgb(25,4,67)" fill-opacity="0.502"/>
<polygon points="284.44,26.07 324.14,30.94 307.56,165.93 267.86,161.06" fill="rgb(14,0,32)" fill-opacity="0.502"/>
<circle cx="516.00" cy="396.00" r="8.00" fill="rgb(125,24,163)" fill-opacity="0.502"/>
<circle cx="0.00" cy="32.00" r="20.00" fill="rgb(181,39,210)" fill-opacity="0.502"/>
<polygon points="593.23,840.07 594.63,860.02 538.77,863.93 537.37,843.98" fill="rgb(166,23,151)" fill-opacity="0.502"/>
<polygon points="141.11,419.98 88.34,344.61 94.89,340.02 147.66,415.39" fill="rgb(35,5,71)" fill-opacity="0.502"/>
<polygon points="548.23,56.40 591.34,85.48 519.77,191.60 476.66,162.52" fill="rgb(10,0,23)" fill-opacity="0.502"/>
<g transform="translate(64.00 700.00) rotate(77) scale(8.00 120.00)"><ellipse cx="0" cy="0" rx="1" ry="1" fill="rgb(111,15,96)" fill-opacity="0.502"/></g>
<polygon points="351.04,192.15 370.43,227.13 296.96,267.85 277.57,232.87" fill="rgb(13,0,29)" fill-opacity="0.502"/>
<polygon points="239.25,789.75 240.09,797.71 120.75,810.25 119.91,802.29" fill="rgb(84,15,112)" fill-opacity="0.502"/>
<polygon points="289.59,870.26 182.18,881.55 178.41,845.74 285.82,834.45" fill="rgb(76,11,98)" fill-opacity="0.502"/>
</g>
</svg>