<?xml version="1.0" standalone="no"?>
<svg xmlns="http://www.w3.org/2000/svg" width="692" height="1024" viewBox="0 0 692 1024" style="overflow:hidden">
<defs>
<clipPath id="c"><rect x="0" y="0" width="692" height="1024"/></clipPath>
</defs>
<rect width="692" height="1024" fill="rgb(74,10,89)"/>
<g clip-path="url(#c)">
<g transform="translate(624.00 680.00) rotate(159) scale(236.00 192.00)"><ellipse cx="0" cy="0" rx="1" ry="1" fill="rgb(255,37,250)" fill-opacity="0.502"/></g>
<g transform="translate(400.00 140.00) rotate(352) scale(464.00 252.00)"><ellipse cx="0" cy="0" rx="1" ry="1" fill="rgb(0,0,0)" fill-opacity="0.502"/></g>
<g transform="translate(120.00 624.00) rotate(106) scale(136.00 208.00)"><ellipse cx="0" cy="0" rx="1" ry="1" fill="rgb(253,34,222)" fill-opacity="0.502"/></g>
<circle cx="392.00" cy="284.00" r="172.00" fill="rgb(0,0,20)" fill-opacity="0.502"/>
<circle cx="0.00" cy="212.00" r="236.00" fill="rgb(14,2,70)" fill-opacity="0.502"/>
<g transform="translate(680.00 884.00) rotate(99) scale(24.00 112.00)"><ellipse cx="0" cy="0" rx="1" ry="1" fill="rgb(207,30,187)" fill-opacity="0.502"/></g>
<g transform="translate(392.00 556.00) rotate(198) scale(60.00 180.00)"><ellipse cx="0" cy="0" rx="1" ry="1" fill="rgb(0,0,1)" fill-opacity="0.502"/></g>
<polygon points="352.41,824.04 380.36,719.72 515.59,755.96 487.64,860.28" fill="rgb(205,27,180)" fill-opacity="0.502"/>
<circle cx="196.00" cy="672.00" r="136.00" fill="rgb(170,23,161)" fill-opacity="0.502"/>
<g transform="translate(28.00 992.00) rotate(356) scale(32.00 96.00)"><ellipse cx="0" cy="0" rx="1" ry="1" fill="rgb(0,0,13)" fill-opacity="0.502"/></g>
<circle cx="560.00" cy="628.00" r="132.00" fill="rgb(203,26,183)" fill-opacity="0.502"/>
<g transform="translate(496.00 112.00) rotate(196) scale(280.00 232.00)"><ellipse cx="0" cy="0" rx="1" ry="1" fill="rgb(1,0,34)" fill-opacity="0.502"/></g>
<polygon points="391.32,481.21 396.69,173.26 484.68,174.79 479.31,482.74" fill="rgb(24,3,73)" fill-opacity="0.502"/>
<polygon points="388.00,456.00 688.00,456.00 688.00,496.00 388.00,496.00" fill="rgb(0,0,5)" fill-opacity="0.502"/>
<circle cx="576.00" cy="392.00" r="60.00" fill="rgb(128,21,154)" fill-opacity="0.502"/>
<g transform="translate(24.00 476.00) rotate(28) scale(24.00 36.00)"><ellipse cx="0" cy="0" rx="1" ry="1" fill="rgb(0,0,30)" fill-opacity="0.502"/></g>
<circle cx="660.00" cy="392.00" r="64.00" fill="rgb(118,21,143)" fill-opacity="0.502"/>
<circle cx="400.00" cy="1020.00" r="112.00" fill="rgb(37,2,57)" fill-opacity="0.502"/>
<polygon points="489.87,343.45 599.35,285.23 618.13,320.55 508.65,378.77" fill="rgb(3,0,16)" fill-opacity="0.502"/>
<circle cx="400.00" cy="464.00" r="96.00" fill="rgb(14,1,45)" fill-opacity="0.502"/>
<g transform="translate(32.00 592.00) rotate(30) scale(32.00 36.00)"><ellipse cx="0" cy="0" rx="1" ry="1" fill="rgb(72,12,85)" fill-opacity="0.502"/></g>
<circle cx="304.00" cy="284.00" r="120.00" fill="rgb(8,0,21)" fill-opacity="0.502"/>
<circle cx="500.00" cy="740.00" r="124.00" fill="rgb(185,24,173)" fill-opacity="0.502"/>
<circle cx="572.00" cy="108.00" r="84.00" fill="rgb(5,0,16)" fill-opacity="0.502"/>
<g transform="translate(212.00 0.00) rotate(209) scale(92.00 172.00)"><ellipse cx="0" cy="0" rx="1" ry="1" fill="rgb(26,4,72)" fill-opacity="0.502"/></g>
<circle cx="352.00" cy="108.00" r="92.00" fill="rgb(8,0,16)" fill-opacity="0.502"/>
<g transform="translate(128.00 800.00) rotate(285) scale(44.00 268.00)"><ellipse cx="0" cy="0" rx="1" ry="1" fill="rgb(69,11,104)" fill-opacity="0.502"/></g>
<polygon points="537.04,426.22 588.91,429.85 586.96,457.78 535.09,454.15" fill="rgb(178,29,198)" fill-opacity="0.502"/>
<g transform="translate(688.00 196.00) rotate(96) scale(128.00 64.00)"><ellipse cx="0" cy="0" rx="1" ry="1" fill="rgb(18,2,56)" fill-opacity="0.502"/></g>
<polygon points="269.06,499.61 109.28,447.69 138.94,356.39 298.72,408.31" fill="rgb(124,22,152)" fill-opacity="0.502"/>
<polygon points="221.73,508.77 237.15,490.38 338.27,575.23 322.85,593.62" fill="rgb(0,0,0)" fill-opacity="0.502"/>
<g transform="translate(52.00 352.00) rotate(44) scale(96.00 232.00)"><ellipse cx="0" cy="0" rx="1" ry="1" fill="rgb(24,4,61)" fill-opacity="0.502"/></g>
<circle cx="0.00" cy="108.00" r="124.00" fill="rgb(39,6,67)" fill-opacity="0.502"/>
<circle cx="120.00" cy="676.00" r="80.00" fill="rgb(189,25,180)" fill-opacity="0.502"/>
<polygon points="520.90,390.16 688.49,401.88 687.10,421.84 519.51,410.12" fill="rgb(17,0,33)" fill-opacity="0.502"/>
<circle cx="568.00" cy="708.00" r="172.00" fill="rgb(181,24,171)" fill-opacity="0.502"/>
<circle cx="316.00" cy="496.00" r="44.00" fill="rgb(91,17,111)" fill-opacity="0.502"/>
<g transform="translate(104.00 520.00) rotate(167) scale(52.00 40.00)"><ellipse cx="0" cy="0" rx="1" ry="1" fill="rgb(195,25,186)" fill-opacity="0.502"/></g>
<circle cx="476.00" cy="0.00" r="72.00" fill="rgb(30,5,81)" fill-opacity="0.502"/>
<polygon points="624.68,632.83 577.27,798.17 427.32,755.17 474.73,589.83" fill="rgb(190,25,184)" fill-opacity="0.502"/>
<g transform="translate(688.00 1016.00) rotate(67) scale(80.00 64.00)"><ellipse cx="0" cy="0" rx="1" ry="1" fill="rgb(43,4,66)" fill-opacity="0.502"/></g>
<polygon points="416.00,524.00 416.00,632.00 356.00,632.00 356.00,524.00" fill="rgb(0,0,3)" fill-opacity="0.502"/>
<polygon points="426.96,547.30 323.04,487.30 373.04,400.70 476.96,460.70" fill="rgb(14,1,40)" fill-opacity="0.502"/>
<polygon points="578.30,442.74 599.11,461.48 577.70,485.26 556.89,466.52" fill="rgb(0,0,0)" fill-opacity="0.502"/>
<circle cx="252.00" cy="748.00" r="68.00" fill="rgb(152,23,140)" fill-opacity="0.502"/>
<circle cx="500.00" cy="460.00" r="20.00" fill="rgb(151,27,182)" fill-opacity="0.502"/>
<circle cx="0.00" cy="320.00" r="152.00" fill="rgb(32,5,68)" fill-opacity="0.502"/>
<polygon points="711.77,456.84 702.61,503.95 616.23,487.16 625.39,440.05" fill="rgb(0,0,3)" fill-opacity="0.502"/>
<g transform="translate(632.00 436.00) rotate(360) scale(88.00 12.00)"><ellipse cx="0" cy="0" rx="1" ry="1" fill="rgb(219,38,243)" fill-opacity="0.502"/></g>
<polygon points="320.32,775.13 344.51,678.10 371.68,684.87 347.49,781.90" fill="rgb(0,0,0)" fill-opacity="0.502"/>
<g transform="translate(688.00 820.00) rotate(325) scale(96.00 68.00)"><ellipse cx="0" cy="0" rx="1" ry="1" fill="rgb(176,23,161)" fill-opacity="0.502"/></g>
<g transform="translate(180.00 288.00) rotate(297) scale(108.00 64.00)"><ellipse cx="0" cy="0" rx="1" ry="1" fill="rgb(15,1,44)" fill-opacity="0.502"/></g>
<g transform="translate(296.00 980.00) rotate(204) scale(68.00 112.00)"><ellipse cx="0" cy="0" rx="1" ry="1" fill="rgb(59,9,85)" fill-opacity="0.502"/></g>
<g transform="translate(44.00 8.00) rotate(68) scale(28.00 32.00)"><ellipse cx="0" cy="0" rx="1" ry="1" fill="rgb(16,0,10)" fill-opacity="0.502"/></g>
<g transform="translate(296.00 696.00) rotate(355) scale(28.00 128.00)"><ellipse cx="0" cy="0" rx="1" ry="1" fill="rgb(135,19,118)" fill-opacity="0.502"/></g>
<g transform="translate(376.00 644.00) rotate(285) scale(168.00 16.00)"><ellipse cx="0" cy="0" rx="1" ry="1" fill="rgb(0,0,14)" fill-opacity="0.502"/></g>
<polygon points="486.45,229.05 468.56,269.25 373.55,226.95 391.44,186.75" fill="rgb(29,4,72)" fill-opacity="0.502"/>
<g transform="translate(48.00 836.00) rotate(251) scale(80.00 128.00)"><ellipse cx="0" cy="0" rx="1" ry="1" fill="rgb(67,10,95)" fill-opacity="0.502"/></g>
<polygon points="412.08,634.60 386.04,693.06 323.92,665.40 349.96,606.94" fill="rgb(1,0,16)" fill-opacity="0.502"/>
<g transform="translate(224.00 416.00) rotate(15) scale(60.00 8.00)"><ellipse cx="0" cy="0" rx="1" ry="1" fill="rgb(0,0,0)" fill-opacity="0.502"/></g>
<circle cx="180.00" cy="900.00" r="124.00" fill="rgb(68,11,96)" fill-opacity="0.502"/>
<circle cx="484.00" cy="136.00" r="76.00" fill="rgb(12,0,23)" fill-opacity="0.502"/>
<polygon points="738.17,355.05 737.82,375.05 617.83,372.95 618.18,352.95" fill="rgb(0,0,0)" fill-opacity="0.502"/>
<polygon points="536.67,411.39 533.34,395.74 623.33,376.61 626.66,392.26" fill="rgb(240,41,255)" fill-opacity="0.502"/>
<g transform="translate(40.00 288.00) rotate(342) scale(136.00 120.00)"><ellipse cx="0" cy="0" rx="1" ry="1" fill="rgb(31,5,69)" fill-opacity="0.502"/></g>
<circle cx="428.00" cy="868.00" r="32.00" fill="rgb(91,13,122)" fill-opacity="0.502"/>
<g transform="translate(92.00 1020.00) rotate(158) scale(32.00 144.00)"><ellipse cx="0" cy="0" rx="1" ry="1" fill="rgb(52,5,71)" fill-opacity="0.502"/></g>
<polygon points="355.62,484.79 352.65,487.47 280.38,407.21 283.35,404.53" fill="rgb(146,29,170)" fill-opacity="0.502"/>
<polygon points="64.24,493.89 71.56,577.57 19.76,582.11 12.44,498.43" fill="rgb(175,24,162)" fill-opacity="0.502"/>
<g transform="translate(132.00 552.00) rotate(307) scale(68.00 60.00)"><ellipse cx="0" cy="0" rx="1" ry="1" fill="rgb(182,24,173)" fill-opacity="0.502"/></g>
<polygon points="397.58,486.59 462.83,517.02 410.42,629.41 345.17,598.98" fill="rgb(9,0,28)" fill-opacity="0.502"/>
<polygon points="273.57,504.89 284.89,493.57 358.43,567.11 347.11,578.43" fill="rgb(155,31,179)" fill-opacity="0.502"/>
<polygon points="481.05,523.80 472.13,515.77 514.95,468.20 523.87,476.23" fill="rgb(0,0,0)" fill-opacity="0.502"/>
<circle cx="268.00" cy="472.00" r="12.00" fill="rgb(0,0,4)" fill-opacity="0.502"/>
<g transform="translate(468.00 468.00) rotate(267) scale(24.00 20.00)"><ellipse cx="0" cy="0" rx="1" ry="1" fill="rgb(56,9,97)" fill-opacity="0.502"/></g>
<circle cx="224.00" cy="724.00" r="60.00" fill="rgb(163,22,153)" fill-opacity="0.502"/>
<polygon points="691.80,48.24 648.34,55.12 640.20,3.76 683.66,-3.12" fill="rgb(30,5,78)" fill-opacity="0.502"/>
<polygon points="724.78,318.59 727.84,334.30 547.22,369.41 544.16,353.70" fill="rgb(203,37,229)" fill-opacity="0.502"/>
<polygon points="617.19,1022.90 489.68,988.74 522.81,865.10 650.32,899.26" fill="rgb(66,13,99)" fill-opacity="0.502"/>
<circle cx="368.00" cy="16.00" r="40.00" fill="rgb(5,0,15)" fill-opacity="0.502"/>
<polygon points="523.77,330.91 673.59,264.20 688.23,297.09 538.41,363.80" fill="rgb(12,0,29)" fill-opacity="0.502"/>
<g transform="translate(376.00 840.00) rotate(236) scale(56.00 20.00)"><ellipse cx="0" cy="0" rx="1" ry="1" fill="rgb(96,13,107)" fill-opacity="0.502"/></g>
<circle cx="24.00" cy="460.00" r="40.00" fill="rgb(23,3,61)" fill-opacity="0.502"/>
<g transform="translate(4.00 700.00) rotate(314) scale(24.00 52.00)"><ellipse cx="0" cy="0" rx="1" ry="1" fill="rgb(182,25,172)" fill-opacity="0.502"/></g>
<g transform="translate(432.00 376.00) rotate(0) scale(40.00 152.00)"><ellipse cx="0" cy="0" rx="1" ry="1" fill="rgb(24,3,65)" fill-opacity="0.502"/></g>
<polygon points="477.47,848.86 552.09,947.89 526.53,967.14 451.91,868.11" fill="rgb(77,12,105)" fill-opacity="0.502"/>
<circle cx="184.00" cy="392.00" r="12.00" fill="rgb(213,34,234)" fill-opacity="0.502"/>
<circle cx="216.00" cy="88.00" r="64.00" fill="rgb(17,2,56)" fill-opacity="0.502"/>
<polygon points="83.93,845.75 79.75,893.57 -3.93,886.25 0.25,838.43" fill="rgb(106,19,133)" fill-opacity="0.502"/>
<g transform="translate(552.00 564.00) rotate(18) scale(88.00 48.00)"><ellipse cx="0" cy="0" rx="1" ry="1" fill="rgb(185,25,178)" fill-opacity="0.502"/></g>
<circle cx="328.00" cy="392.00" r="44.00" fill="rgb(2,0,11)" fill-opacity="0.502"/>
<g transform="translate(264.00 312.00) rotate(171) scale(96.00 76.00)"><ellipse cx="0" cy="0" rx="1" ry="1" fill="rgb(10,0,22)" fill-opacity="0.502"/></g>
<g transform="translate(392.00 732.00) rotate(15) scale(16.00 88.00)"><ellipse cx="0" cy="0" rx="1" ry="1" fill="rgb(138,20,121)" fill-opacity="0.502"/></g>
<g transform="translate(688.00 204.00) rotate(313) scale(48.00 60.00)"><ellipse cx="0" cy="0" rx="1" ry="1" fill="rgb(27,4,70)" fill-opacity="0.502"/></g>
<g transform="translate(156.00 596.00) rotate(191) scale(72.00 100.00)"><ellipse cx="0" cy="0" rx="1" ry="1" fill="rgb(179,24,170)" fill-opacity="0.502"/></g>
<circle cx="12.00" cy="864.00" r="24.00" fill="rgb(107,21,135)" fill-opacity="0.502"/>
<g transform="translate(684.00 804.00) rotate(34) scale(72.00 92.00)"><ellipse cx="0" cy="0" rx="1" ry="1" fill="rgb(176,23,165)" fill-opacity="0.502"/></g>
<polygon points="137.22,437.05 263.46,475.65 258.78,490.95 132.54,452.35" fill="rgb(202,36,226)" fill-opacity="0.502"/>
<g transform="translate(40.00 388.00) rotate(128) scale(24.00 28.00)"><ellipse cx="0" cy="0" rx="1" ry="1" fill="rgb(68,8,84)" fill-opacity="0.502"/></g>
<polygon points="104.00,416.00 212.00,416.00 212.00,428.00 104.00,428.00" fill="rgb(168,28,193)" fill-opacity="0.502"/>
<polygon points="44.85,583.76 67.08,606.78 -4.85,676.24 -27.08,653.22" fill="rgb(87,12,88)" fill-opacity="0.502"/>
<circle cx="204.00" cy="388.00" r="12.00" fill="rgb(187,30,210)" fill-opacity="0.502"/>
<circle cx="60.00" cy="700.00" r="44.00" fill="rgb(181,24,174)" fill-opacity="0.502"/>
<circle cx="524.00" cy="448.00" r="12.00" fill="rgb(230,40,255)" fill-opacity="0.502"/>
<polygon points="460.56,449.93 475.61,306.72 507.44,310.07 492.39,453.28" fill="rgb(12,0,29)" fill-opacity="0.502"/>
<circle cx="304.00" cy="348.00" r="68.00" fill="rgb(11,0,25)" fill-opacity="0.502"/>
<polygon points="141.44,457.66 232.74,487.32 226.56,506.34 135.26,476.68" fill="rgb(0,0,0)" fill-opacity="0.502"/>
<polygon points="248.96,210.02 113.48,221.87 111.04,193.98 246.52,182.13" fill="rgb(36,6,72)" fill-opacity="0.502"/>
<g transform="translate(184.00 48.00) rotate(322) scale(32.00 112.00)"><ellipse cx="0" cy="0" rx="1" ry="1" fill="rgb(19,2,57)" fill-opacity="0.502"/></g>
<g transform="translate(236.00 1012.00) rotate(312) scale(36.00 252.00)"><ellipse cx="0" cy="0" rx="1" ry="1" fill="rgb(76,13,102)" fill-opacity="0.502"/></g>
<polygon points="67.85,418.95 72.45,375.19 128.15,381.05 123.55,424.81" fill="rgb(25,4,61)" fill-opacity="0.502"/>
<circle cx="684.00" cy="288.00" r="40.00" fill="rgb(14,1,36)" fill-opacity="0.502"/>
<polygon points="529.54,47.96 526.19,95.85 414.46,88.04 417.81,40.15" fill="rgb(19,1,49)" fill-opacity="0.502"/>
<polygon points="504.73,863.61 510.95,840.43 615.27,868.39 609.05,891.57" fill="rgb(148,23,144)" fill-opacity="0.502"/>
<circle cx="296.00" cy="940.00" r="60.00" fill="rgb(61,9,82)" fill-opacity="0.502"/>
<polygon points="405.32,931.67 581.48,1017.59 558.68,1064.33 382.52,978.41" fill="rgb(47,5,64)" fill-opacity="0.502"/>
<circle cx="232.00" cy="456.00" r="12.00" fill="rgb(0,0,3)" fill-opacity="0.502"/>
<g transform="translate(140.00 268.00) rotate(70) scale(24.00 60.00)"><ellipse cx="0" cy="0" rx="1" ry="1" fill="rgb(29,5,69)" fill-opacity="0.502"/></g>
<polygon points="212.85,380.18 141.24,387.71 139.15,367.82 210.76,360.29" fill="rgb(5,0,27)" fill-opacity="0.502"/>
<polygon points="497.74,410.95 493.44,399.75 594.26,361.05 598.56,372.25" fill="rgb(7,0,33)" fill-opacity="0.502"/>
<g transform="translate(600.00 4.00) rotate(27) scale(36.00 56.00)"><ellipse cx="0" cy="0" rx="1" ry="1" fill="rgb(4,0,12)" fill-opacity="0.502"/></g>
<polygon points="592.90,475.14 595.69,443.26 751.10,456.86 748.31,488.74" fill="rgb(3,0,24)" fill-opacity="0.502"/>
<circle cx="268.00" cy="860.00" r="56.00" fill="rgb(78,13,102)" fill-opacity="0.502"/>
<g transform="translate(516.00 780.00) rotate(99) scale(72.00 132.00)"><ellipse cx="0" cy="0" rx="1" ry="1" fill="rgb(180,24,171)" fill-opacity="0.502"/></g>
<circle cx="456.00" cy="876.00" r="32.00" fill="rgb(88,12,112)" fill-opacity="0.502"/>
<polygon points="364.34,419.17 400.13,472.23 363.66,496.83 327.87,443.77" fill="rgb(6,0,12)" fill-opacity="0.502"/>
<polygon points="622.88,498.19 694.78,501.96 689.12,609.81 617.22,606.04" fill="rgb(179,23,164)" fill-opacity="0.502"/>
<g transform="translate(332.00 596.00) rotate(231) scale(104.00 16.00)"><ellipse cx="0" cy="0" rx="1" ry="1" fill="rgb(0,0,13)" fill-opacity="0.502"/></g>
<g transform="translate(216.00 32.00) rotate(332) scale(132.00 32.00)"><ellipse cx="0" cy="0" rx="1" ry="1" fill="rgb(36,6,69)" fill-opacity="0.502"/></g>
<polygon points="335.17,557.70 401.59,499.96 448.83,554.30 382.41,612.04" fill="rgb(11,0,25)" fill-opacity="0.502"/>
<circle cx="492.00" cy="724.00" r="60.00" fill="rgb(188,25,182)" fill-opacity="0.502"/>
<g transform="translate(524.00 908.00) rotate(96) scale(28.00 176.00)"><ellipse cx="0" cy="0" rx="1" ry="1" fill="rgb(72,11,98)" fill-opacity="0.502"/></g>
<circle cx="0.00" cy="460.00" r="48.00" fill="rgb(29,5,64)" fill-opacity="0.502"/>
<polygon points="518.72,374.28 533.34,380.79 481.28,497.72 466.66,491.21" fill="rgb(118,21,144)" fill-opacity="0.502"/>
<polygon points="343.96,229.54 293.11,333.80 196.04,286.46 246.89,182.20" fill="rgb(13,0,27)" fill-opacity="0.502"/>
<circle cx="188.00" cy="164.00" r="28.00" fill="rgb(13,0,39)" fill-opacity="0.502"/>
<polygon points="325.93,507.33 316.98,520.59 234.07,464.67 243.02,451.41" fill="rgb(0,0,21)" fill-opacity="0.502"/>
<polygon points="470.16,312.03 522.16,221.97 601.84,267.97 549.84,358.03" fill="rgb(17,1,29)" fill-opacity="0.502"/>
<circle cx="120.00" cy="440.00" r="20.00" fill="rgb(133,22,159)" fill-opacity="0.502"/>
<circle cx="356.00" cy="912.00" r="28.00" fill="rgb(50,4,71)" fill-opacity="0.502"/>
<polygon points="293.45,722.97 298.47,794.80 266.55,797.03 261.53,725.20" fill="rgb(147,21,135)" fill-opacity="0.502"/>
<polygon points="371.13,724.50 382.54,728.20 352.87,819.50 341.46,815.80" fill="rgb(120,15,90)" fill-opacity="0.502"/>
<polygon points="464.13,317.05 483.15,310.87 507.87,386.95 488.85,393.13" fill="rgb(7,0,17)" fill-opacity="0.502"/>
<polygon points="426.61,839.63 421.27,867.11 201.39,824.37 206.73,796.89" fill="rgb(87,12,112)" fill-opacity="0.502"/>
<circle cx="92.00" cy="204.00" r="56.00" fill="rgb(22,3,58)" fill-opacity="0.502"/>
<g transform="translate(536.00 428.00) rotate(342) scale(92.00 8.00)"><ellipse cx="0" cy="0" rx="1" ry="1" fill="rgb(0,0,17)" fill-opacity="0.502"/></g>
<g transform="translate(432.00 536.00) rotate(325) scale(144.00 16.00)"><ellipse cx="0" cy="0" rx="1" ry="1" fill="rgb(9,0,27)" fill-opacity="0.502"/></g>
<g transform="translate(112.00 652.00) rotate(196) scale(56.00 36.00)"><ellipse cx="0" cy="0" rx="1" ry="1" fill="rgb(186,25,179)" fill-opacity="0.502"/></g>
<polygon points="593.29,273.34 610.48,232.83 746.71,290.66 729.52,331.17" fill="rgb(17,1,39)" fill-opacity="0.502"/>
<g transform="translate(320.00 488.00) rotate(256) scale(16.00 4.00)"><ellipse cx="0" cy="0" rx="1" ry="1" fill="rgb(156,31,180)" fill-opacity="0.502"/></g>
<polygon points="23.47,897.87 51.72,912.90 8.53,994.13 -19.72,979.10" fill="rgb(24,0,37)" fill-opacity="0.502"/>
<circle cx="528.00" cy="952.00" r="56.00" fill="rgb(67,12,92)" fill-opacity="0.502"/>
<g transform="translate(680.00 728.00) rotate(60) scale(32.00 148.00)"><ellipse cx="0" cy="0" rx="1" ry="1" fill="rgb(182,24,172)" fill-opacity="0.502"/></g>
<polygon points="372.81,411.39 415.07,502.02 375.19,520.61 332.93,429.98" fill="rgb(10,0,23)" fill-opacity="0.502"/>
<polygon points="482.48,524.83 419.65,537.04 397.52,423.17 460.35,410.96" fill="rgb(21,2,55)" fill-opacity="0.502"/>
<polygon points="204.00,664.00 204.00,580.00 280.00,580.00 280.00,664.00" fill="rgb(166,22,153)" fill-opacity="0.502"/>
<polygon points="95.43,425.70 125.19,321.89 140.57,326.30 110.81,430.11" fill="rgb(20,3,62)" fill-opacity="0.502"/>
<g transform="translate(156.00 440.00) rotate(95) scale(4.00 88.00)"><ellipse cx="0" cy="0" rx="1" ry="1" fill="rgb(0,0,17)" fill-opacity="0.502"/></g>
<g transform="translate(196.00 100.00) rotate(260) scale(12.00 136.00)"><ellipse cx="0" cy="0" rx="1" ry="1" fill="rgb(15,1,42)" fill-opacity="0.502"/></g>
<polygon points="534.91,412.44 491.80,441.51 485.09,431.56 528.20,402.49" fill="rgb(187,35,218)" fill-opacity="0.502"/>
<g transform="translate(320.00 472.00) rotate(42) scale(80.00 4.00)"><ellipse cx="0" cy="0" rx="1" ry="1" fill="rgb(0,0,3)" fill-opacity="0.502"/></g>
<circle cx="644.00" cy="276.00" r="56.00" fill="rgb(17,1,41)" fill-opacity="0.502"/>
<circle cx="400.00" cy="788.00" r="28.00" fill="rgb(164,22,152)" fill-opacity="0.502"/>
<g transform="translate(428.00 212.00) rotate(230) scale(32.00 32.00)"><ellipse cx="0" cy="0" rx="1" ry="1" fill="rgb(23,4,64)" fill-opacity="0.502"/></g>
<circle cx="0.00" cy="32.00" r="16.00" fill="rgb(170,32,174)" fill-opacity="0.502"/>
<g transform="translate(0.00 576.00) rotate(6) scale(20.00 60.00)"><ellipse cx="0" cy="0" rx="1" ry="1" fill="rgb(159,22,144)" fill-opacity="0.502"/></g>
<g transform="translate(460.00 1020.00) rotate(283) scale(16.00 28.00)"><ellipse cx="0" cy="0" rx="1" ry="1" fill="rgb(29,0,44)" fill-opacity="0.502"/></g>
<polygon points="566.05,491.04 562.28,455.23 621.95,448.96 625.72,484.77" fill="rgb(0,0,19)" fill-opacity="0.502"/>
<polygon points="195.01,873.63 179.23,905.99 56.99,846.37 72.77,814.01" fill="rgb(59,7,81)" fill-opacity="0.502"/>
<circle cx="0.00" cy="56.00" r="16.00" fill="rgb(126,19,122)" fill-opacity="0.502"/>
<polygon points="498.96,398.60 511.03,409.10 469.04,457.40 456.97,446.90" fill="rgb(29,4,67)" fill-opacity="0.502"/>
<g transform="translate(548.00 272.00) rotate(1) scale(52.00 84.00)"><ellipse cx="0" cy="0" rx="1" ry="1" fill="rgb(15,1,33)" fill-opacity="0.502"/></g>
<polygon points="102.77,383.64 119.25,424.44 -58.77,496.36 -75.25,455.56" fill="rgb(36,6,68)" fill-opacity="0.502"/>
<circle cx="464.00" cy="12.00" r="48.00" fill="rgb(26,4,67)" fill-opacity="0.502"/>
<polygon points="149.00,441.66 150.46,453.57 79.00,462.34 77.54,450.43" fill="rgb(195,33,219)" fill-opacity="0.502"/>
<polygon points="207.86,432.67 214.37,418.05 280.14,447.33 273.63,461.95" fill="rgb(185,36,214)" fill-opacity="0.502"/>
<g transform="translate(172.00 28.00) rotate(237) scale(136.00 24.00)"><ellipse cx="0" cy="0" rx="1" ry="1" fill="rgb(18,2,56)" fill-opacity="0.502"/></g>
<circle cx="152.00" cy="168.00" r="16.00" fill="rgb(10,0,26)" fill-opacity="0.502"/>
<circle cx="680.00" cy="908.00" r="8.00" fill="rgb(152,29,164)" fill-opacity="0.502"/>
<polygon points="42.94,887.82 102.20,897.21 89.06,980.18 29.80,970.79" fill="rgb(61,8,79)" fill-opacity="0.502"/>
<polygon points="56.94,153.55 55.55,137.61 183.06,126.45 184.45,142.39" fill="rgb(48,9,75)" fill-opacity="0.502"/>
<circle cx="480.00" cy="840.00" r="20.00" fill="rgb(164,23,157)" fill-opacity="0.502"/>
<polygon points="684.00,504.00 688.00,504.00 688.00,824.00 684.00,824.00" fill="rgb(168,22,156)" fill-opacity="0.502"/>
<g transform="translate(628.00 140.00) rotate(351) scale(44.00 24.00)"><ellipse cx="0" cy="0" rx="1" ry="1" fill="rgb(12,0,26)" fill-opacity="0.502"/></g>
<polygon points="51.10,965.65 91.36,905.96 180.90,966.35 140.64,1026.04" fill="rgb(68,13,92)" fill-opacity="0.502"/>
<polygon points="677.48,61.52 652.76,137.60 618.52,126.48 643.24,50.40" fill="rgb(18,1,44)" fill-opacity="0.502"/>
<polygon points="217.25,808.06 210.56,871.71 174.75,867.94 181.44,804.29" fill="rgb(82,12,102)" fill-opacity="0.502"/>
<polygon points="328.62,950.91 204.64,953.08 203.38,881.09 327.36,878.92" fill="rgb(64,11,88)" fill-opacity="0.502"/>
<g transform="translate(608.00 532.00) rotate(346) scale(72.00 40.00)"><ellipse cx="0" cy="0" rx="1" ry="1" fill="rgb(180,24,171)" fill-opacity="0.502"/></g>
<circle cx="604.00" cy="860.00" r="24.00" fill="rgb(162,22,151)" fill-opacity="0.502"/>
<polygon points="216.44,867.82 213.11,883.47 103.56,860.18 106.89,844.53" fill="rgb(72,12,98)" fill-opacity="0.502"/>
<circle cx="0.00" cy="1020.00" r="40.00" fill="rgb(19,0,33)" fill-opacity="0.502"/>
<circle cx="496.00" cy="164.00" r="60.00" fill="rgb(11,0,24)" fill-opacity="0.502"/>
<circle cx="188.00" cy="108.00" r="48.00" fill="rgb(23,3,62)" fill-opacity="0.502"/>
<polygon points="9.18,27.71 63.49,-13.21 106.82,44.29 52.51,85.21" fill="rgb(27,2,52)" fill-opacity="0.502"/>
<g transform="translate(60.00 88.00) rotate(295) scale(72.00 28.00)"><ellipse cx="0" cy="0" rx="1" ry="1" fill="rgb(31,6,71)" fill-opacity="0.502"/></g>
<polygon points="305.89,36.32 293.29,90.88 262.11,83.68 274.71,29.12" fill="rgb(18,1,42)" fill-opacity="0.502"/>
<polygon points="110.45,759.14 109.61,743.16 153.55,740.86 154.39,756.84" fill="rgb(139,25,146)" fill-opacity="0.502"/>
<polygon points="651.22,348.89 654.33,360.48 584.78,379.11 581.67,367.52" fill="rgb(0,0,1)" fill-opacity="0.502"/>
<g transform="translate(316.00 124.00) rotate(117) scale(16.00 80.00)"><ellipse cx="0" cy="0" rx="1" ry="1" fill="rgb(11,0,22)" fill-opacity="0.502"/></g>
<polygon points="211.14,253.60 261.89,277.27 212.86,382.40 162.11,358.73" fill="rgb(14,1,30)" fill-opacity="0.502"/>
<g transform="translate(100.00 540.00) rotate(126) scale(20.00 80.00)"><ellipse cx="0" cy="0" rx="1" ry="1" fill="rgb(183,24,176)" fill-opacity="0.502"/></g>
<circle cx="64.00" cy="464.00" r="20.00" fill="rgb(19,3,57)" fill-opacity="0.502"/>
<polygon points="289.72,245.36 392.61,397.90 326.28,442.64 223.39,290.10" fill="rgb(10,0,23)" fill-opacity="0.502"/>
<polygon points="400.01,421.69 415.52,393.70 495.99,438.31 480.48,466.30" fill="rgb(21,2,59)" fill-opacity="0.502"/>
<g transform="translate(688.00 384.00) rotate(268) scale(8.00 88.00)"><ellipse cx="0" cy="0" rx="1" ry="1" fill="rgb(220,38,244)" fill-opacity="0.502"/></g>
<polygon points="464.17,51.51 408.18,52.49 407.83,32.49 463.82,31.51" fill="rgb(36,7,72)" fill-opacity="0.502"/>
<circle cx="684.00" cy="396.00" r="4.00" fill="rgb(206,43,235)" fill-opacity="0.502"/>
<g transform="translate(72.00 588.00) rotate(167) scale(12.00 28.00)"><ellipse cx="0" cy="0" rx="1" ry="1" fill="rgb(157,22,144)" fill-opacity="0.502"/></g>
<circle cx="688.00" cy="236.00" r="36.00" fill="rgb(27,5,73)" fill-opacity="0.502"/>
<circle cx="476.00" cy="248.00" r="16.00" fill="rgb(25,3,67)" fill-opacity="0.502"/>
<polygon points="602.41,816.83 696.86,869.19 673.59,911.17 579.14,858.81" fill="rgb(167,23,158)" fill-opacity="0.502"/>
<g transform="translate(36.00 260.00) rotate(92) scale(120.00 48.00)"><ellipse cx="0" cy="0" rx="1" ry="1" fill="rgb(30,5,65)" fill-opacity="0.502"/></g>
<circle cx="672.00" cy="996.00" r="60.00" fill="rgb(59,8,78)" fill-opacity="0.502"/>
<circle cx="0.00" cy="4.00" r="16.00" fill="rgb(99,13,90)" fill-opacity="0.502"/>
<polygon points="14.89,300.84 41.68,256.26 93.11,287.16 66.32,331.74" fill="rgb(35,6,67)" fill-opacity="0.502"/>
<polygon points="262.43,748.49 228.49,782.43 177.57,731.51 211.51,697.57" fill="rgb(166,23,156)" fill-opacity="0.502"/>
<polygon points="309.78,505.24 300.70,523.06 190.22,466.76 199.30,448.94" fill="rgb(158,30,183)" fill-opacity="0.502"/>
<g transform="translate(112.00 472.00) rotate(266) scale(4.00 76.00)"><ellipse cx="0" cy="0" rx="1" ry="1" fill="rgb(0,0,11)" fill-opacity="0.502"/></g>
<polygon points="402.40,218.10 366.67,213.72 369.60,189.90 405.33,194.28" fill="rgb(22,1,55)" fill-opacity="0.502"/>
<g transform="translate(60.00 996.00) rotate(150) scale(16.00 76.00)"><ellipse cx="0" cy="0" rx="1" ry="1" fill="rgb(46,3,62)" fill-opacity="0.502"/></g>
<circle cx="408.00" cy="812.00" r="24.00" fill="rgb(166,23,154)" fill-opacity="0.502"/>
<circle cx="116.00" cy="80.00" r="20.00" fill="rgb(55,7,78)" fill-opacity="0.502"/>
<g transform="translate(112.00 356.00) rotate(206) scale(36.00 116.00)"><ellipse cx="0" cy="0" rx="1" ry="1" fill="rgb(26,4,66)" fill-opacity="0.502"/></g>
<g transform="translate(0.00 412.00) rotate(156) scale(76.00 32.00)"><ellipse cx="0" cy="0" rx="1" ry="1" fill="rgb(53,8,77)" fill-opacity="0.502"/></g>
<polygon points="387.85,742.53 376.73,738.03 456.15,541.47 467.27,545.97" fill="rgb(143,21,135)" fill-opacity="0.502"/>
<polygon points="691.11,126.26 679.36,142.44 672.89,137.74 684.64,121.56" fill="rgb(10,0,20)" fill-opacity="0.502"/>
<circle cx="0.00" cy="528.00" r="16.00" fill="rgb(193,26,188)" fill-opacity="0.502"/>
<polygon points="545.95,493.64 637.82,498.46 634.05,570.36 542.18,565.54" fill="rgb(183,24,175)" fill-opacity="0.502"/>
<circle cx="20.00" cy="804.00" r="24.00" fill="rgb(60,5,79)" fill-opacity="0.502"/>
<polygon points="113.58,153.79 232.93,166.34 230.42,190.21 111.07,177.66" fill="rgb(15,1,37)" fill-opacity="0.502"/>
<polygon points="327.63,657.81 328.26,669.79 244.37,674.19 243.74,662.21" fill="rgb(143,21,132)" fill-opacity="0.502"/>
<g transform="translate(688.00 484.00) rotate(161) scale(20.00 12.00)"><ellipse cx="0" cy="0" rx="1" ry="1" fill="rgb(0,0,15)" fill-opacity="0.502"/></g>
<polygon points="136.60,41.75 86.17,81.16 71.40,62.25 121.83,22.84" fill="rgb(18,2,61)" fill-opacity="0.502"/>
<circle cx="660.00" cy="408.00" r="12.00" fill="rgb(0,0,0)" fill-opacity="0.502"/>
<g transform="translate(372.00 76.00) rotate(164) scale(44.00 116.00)"><ellipse cx="0" cy="0" rx="1" ry="1" fill="rgb(10,0,23)" fill-opacity="0.502"/></g>
<polygon points="615.70,228.06 533.73,269.83 508.30,219.94 590.27,178.17" fill="rgb(17,1,39)" fill-opacity="0.502"/>
<polygon points="669.17,744.53 602.70,781.37 470.83,543.47 537.30,506.63" fill="rgb(185,25,178)" fill-opacity="0.502"/>
<g transform="translate(456.00 804.00) rotate(347) scale(32.00 48.00)"><ellipse cx="0" cy="0" rx="1" ry="1" fill="rgb(178,24,170)" fill-opacity="0.502"/></g>
<circle cx="612.00" cy="408.00" r="12.00" fill="rgb(1,0,13)" fill-opacity="0.502"/>
<g transform="translate(588.00 60.00) rotate(183) scale(52.00 68.00)"><ellipse cx="0" cy="0" rx="1" ry="1" fill="rgb(10,0,22)" fill-opacity="0.502"/></g>
<polygon points="300.95,34.84 319.58,-13.71 327.05,-10.84 308.42,37.71" fill="rgb(17,1,49)" fill-opacity="0.502"/>
<circle cx="348.00" cy="848.00" r="32.00" fill="rgb(86,11,105)" fill-opacity="0.502"/>
<circle cx="116.00" cy="468.00" r="16.00" fill="rgb(10,0,33)" fill-opacity="0.502"/>
<polygon points="270.60,460.78 349.59,534.44 341.40,543.22 262.41,469.56" fill="rgb(7,0,26)" fill-opacity="0.502"/>
<g transform="translate(524.00 608.00) rotate(276) scale(108.00 36.00)"><ellipse cx="0" cy="0" rx="1" ry="1" fill="rgb(187,25,180)" fill-opacity="0.502"/></g>
<circle cx="164.00" cy="940.00" r="24.00" fill="rgb(86,9,104)" fill-opacity="0.502"/>
<polygon points="217.06,490.28 209.89,508.95 138.94,481.72 146.11,463.05" fill="rgb(0,0,22)" fill-opacity="0.502"/>
<polygon points="449.45,863.22 451.95,851.48 514.55,864.78 512.05,876.52" fill="rgb(87,15,116)" fill-opacity="0.502"/>
<polygon points="353.46,194.32 375.21,184.18 422.54,285.68 400.79,295.82" fill="rgb(18,1,37)" fill-opacity="0.502"/>
<g transform="translate(36.00 604.00) rotate(331) scale(20.00 16.00)"><ellipse cx="0" cy="0" rx="1" ry="1" fill="rgb(60,10,104)" fill-opacity="0.502"/></g>
<polygon points="403.78,726.27 409.41,690.71 504.22,705.73 498.59,741.29" fill="rgb(184,25,176)" fill-opacity="0.502"/>
<polygon points="12.86,1.86 20.62,-0.08 35.14,58.14 27.38,60.08" fill="rgb(8,0,16)" fill-opacity="0.502"/>
<g transform="translate(4.00 652.00) rotate(324) scale(76.00 12.00)"><ellipse cx="0" cy="0" rx="1" ry="1" fill="rgb(138,21,117)" fill-opacity="0.502"/></g>
<polygon points="225.46,460.14 147.21,443.51 150.54,427.86 228.79,444.49" fill="rgb(26,1,48)" fill-opacity="0.502"/>
<polygon points="2.15,553.65 38.01,550.51 41.85,594.35 5.99,597.49" fill="rgb(126,19,121)" fill-opacity="0.502"/>
<polygon points="538.65,837.03 675.87,781.59 689.35,814.97 552.13,870.41" fill="rgb(175,23,165)" fill-opacity="0.502"/>
<polygon points="207.44,571.84 247.70,597.98 160.56,732.16 120.30,706.02" fill="rgb(174,23,164)" fill-opacity="0.502"/>
<polygon points="103.64,155.24 104.34,175.23 60.36,176.76 59.66,156.77" fill="rgb(14,1,52)" fill-opacity="0.502"/>
<polygon points="241.80,819.96 296.95,829.68 278.20,936.04 223.05,926.32" fill="rgb(71,12,96)" fill-opacity="0.502"/>
<g transform="translate(472.00 124.00) rotate(7) scale(40.00 48.00)"><ellipse cx="0" cy="0" rx="1" ry="1" fill="rgb(12,0,28)" fill-opacity="0.502"/></g>
<circle cx="236.00" cy="0.00" r="28.00" fill="rgb(48,9,75)" fill-opacity="0.502"/>
<polygon points="153.77,767.23 146.75,744.28 158.23,740.77 165.25,763.72" fill="rgb(144,25,151)" fill-opacity="0.502"/>
<circle cx="168.00" cy="724.00" r="36.00" fill="rgb(172,23,162)" fill-opacity="0.502"/>
<g transform="translate(656.00 188.00) rotate(239) scale(12.00 20.00)"><ellipse cx="0" cy="0" rx="1" ry="1" fill="rgb(15,1,40)" fill-opacity="0.502"/></g>
<circle cx="0.00" cy="788.00" r="40.00" fill="rgb(64,8,87)" fill-opacity="0.502"/>
<polygon points="17.36,426.65 39.46,436.03 6.64,513.35 -15.46,503.97" fill="rgb(24,3,64)" fill-opacity="0.502"/>
<circle cx="52.00" cy="900.00" r="24.00" fill="rgb(57,7,75)" fill-opacity="0.502"/>
<polygon points="393.04,515.20 401.23,506.42 450.96,552.80 442.77,561.58" fill="rgb(17,1,36)" fill-opacity="0.502"/>
<circle cx="344.00" cy="628.00" r="20.00" fill="rgb(7,0,20)" fill-opacity="0.502"/>
<polygon points="112.76,597.03 11.18,525.91 27.24,502.97 128.82,574.09" fill="rgb(172,23,162)" fill-opacity="0.502"/>
<polygon points="350.42,317.83 367.73,264.57 409.58,278.17 392.27,331.43" fill="rgb(12,0,23)" fill-opacity="0.502"/>
<g transform="translate(0.00 0.00) rotate(310) scale(68.00 4.00)"><ellipse cx="0" cy="0" rx="1" ry="1" fill="rgb(159,29,173)" fill-opacity="0.502"/></g>
<polygon points="377.12,467.44 395.10,296.38 434.88,300.56 416.90,471.62" fill="rgb(21,2,58)" fill-opacity="0.502"/>
<polygon points="314.04,372.54 250.05,371.42 253.96,147.46 317.95,148.58" fill="rgb(12,0,25)" fill-opacity="0.502"/>
<g transform="translate(64.00 760.00) rotate(287) scale(16.00 64.00)"><ellipse cx="0" cy="0" rx="1" ry="1" fill="rgb(72,12,98)" fill-opacity="0.502"/></g>
<polygon points="280.91,791.72 238.83,778.86 275.09,660.28 317.17,673.14" fill="rgb(145,21,136)" fill-opacity="0.502"/>
<polygon points="96.79,822.44 115.95,808.00 135.21,833.56 116.05,848.00" fill="rgb(60,5,79)" fill-opacity="0.502"/>
<circle cx="264.00" cy="952.00" r="28.00" fill="rgb(57,6,75)" fill-opacity="0.502"/>
<g transform="translate(128.00 1020.00) rotate(30) scale(100.00 16.00)"><ellipse cx="0" cy="0" rx="1" ry="1" fill="rgb(58,7,76)" fill-opacity="0.502"/></g>
<polygon points="407.45,511.77 433.03,500.38 452.55,544.23 426.97,555.62" fill="rgb(17,1,39)" fill-opacity="0.502"/>
<polygon points="457.15,904.77 440.69,927.42 346.85,859.23 363.31,836.58" fill="rgb(77,11,101)" fill-opacity="0.502"/>
<g transform="translate(540.00 376.00) rotate(126) scale(8.00 4.00)"><ellipse cx="0" cy="0" rx="1" ry="1" fill="rgb(197,39,230)" fill-opacity="0.502"/></g>
<g transform="translate(96.00 84.00) rotate(243) scale(12.00 72.00)"><ellipse cx="0" cy="0" rx="1" ry="1" fill="rgb(52,7,75)" fill-opacity="0.502"/></g>
<circle cx="520.00" cy="916.00" r="44.00" fill="rgb(74,12,98)" fill-opacity="0.502"/>
<polygon points="447.01,791.33 461.23,656.07 504.99,660.67 490.77,795.93" fill="rgb(187,25,180)" fill-opacity="0.502"/>
<g transform="translate(440.00 420.00) rotate(289) scale(80.00 32.00)"><ellipse cx="0" cy="0" rx="1" ry="1" fill="rgb(20,2,56)" fill-opacity="0.502"/></g>
<g transform="translate(144.00 200.00) rotate(86) scale(12.00 60.00)"><ellipse cx="0" cy="0" rx="1" ry="1" fill="rgb(39,7,71)" fill-opacity="0.502"/></g>
<polygon points="473.59,469.74 542.17,428.54 550.41,442.26 481.83,483.46" fill="rgb(175,31,198)" fill-opacity="0.502"/>
<polygon points="340.58,927.60 319.93,966.45 263.42,936.40 284.07,897.55" fill="rgb(70,12,93)" fill-opacity="0.502"/>
<circle cx="560.00" cy="48.00" r="36.00" fill="rgb(11,0,26)" fill-opacity="0.502"/>
<g transform="translate(420.00 296.00) rotate(285) scale(124.00 4.00)"><ellipse cx="0" cy="0" rx="1" ry="1" fill="rgb(23,3,63)" fill-opacity="0.502"/></g>
<polygon points="224.72,95.47 165.30,103.82 155.28,32.53 214.70,24.18" fill="rgb(19,2,54)" fill-opacity="0.502"/>
<polygon points="136.70,627.14 130.45,662.59 75.30,652.86 81.55,617.41" fill="rgb(187,25,181)" fill-opacity="0.502"/>
<polygon points="4.67,988.20 -3.30,987.51 3.33,911.80 11.30,912.49" fill="rgb(11,0,30)" fill-opacity="0.502"/>
<circle cx="688.00" cy="588.00" r="40.00" fill="rgb(174,23,166)" fill-opacity="0.502"/>
<polygon points="160.14,749.88 224.81,770.90 219.86,786.12 155.19,765.10" fill="rgb(128,26,148)" fill-opacity="0.502"/>
<circle cx="24.00" cy="48.00" r="16.00" fill="rgb(29,1,37)" fill-opacity="0.502"/>
<polygon points="32.99,485.89 112.41,458.54 115.01,466.11 35.59,493.46" fill="rgb(14,0,39)" fill-opacity="0.502"/>
<circle cx="460.00" cy="268.00" r="20.00" fill="rgb(23,4,66)" fill-opacity="0.502"/>
</g>
</svg>