<?xml version="1.0" standalone="no"?>
<svg xmlns="http://www.w3.org/2000/svg" width="692" height="1024" viewBox="0 0 692 1024" style="overflow:hidden">
<defs>
<clipPath id="c"><rect x="0" y="0" width="692" height="1024"/></clipPath>
</defs>
<rect width="692" height="1024" fill="rgb(70,9,85)"/>
<g clip-path="url(#c)">
<circle cx="564.00" cy="632.00" r="164.00" fill="rgb(255,39,255)" fill-opacity="0.502"/>
<g transform="translate(396.00 136.00) rotate(271) scale(240.00 432.00)"><ellipse cx="0" cy="0" rx="1" ry="1" fill="rgb(0,0,0)" fill-opacity="0.502"/></g>
<g transform="translate(212.00 596.00) rotate(195) scale(172.00 116.00)"><ellipse cx="0" cy="0" rx="1" ry="1" fill="rgb(248,34,217)" fill-opacity="0.502"/></g>
<g transform="translate(504.00 156.00) rotate(333) scale(316.00 168.00)"><ellipse cx="0" cy="0" rx="1" ry="1" fill="rgb(0,0,15)" fill-opacity="0.502"/></g>
<circle cx="56.00" cy="400.00" r="104.00" fill="rgb(0,0,44)" fill-opacity="0.502"/>
<g transform="translate(544.00 356.00) rotate(176) scale(76.00 36.00)"><ellipse cx="0" cy="0" rx="1" ry="1" fill="rgb(153,27,185)" fill-opacity="0.502"/></g>
<circle cx="528.00" cy="864.00" r="104.00" fill="rgb(39,5,69)" fill-opacity="0.502"/>
<circle cx="40.00" cy="596.00" r="76.00" fill="rgb(192,26,171)" fill-opacity="0.502"/>
<circle cx="364.00" cy="700.00" r="72.00" fill="rgb(157,23,142)" fill-opacity="0.502"/>
<g transform="translate(608.00 664.00) rotate(126) scale(92.00 232.00)"><ellipse cx="0" cy="0" rx="1" ry="1" fill="rgb(212,26,191)" fill-opacity="0.502"/></g>
<circle cx="108.00" cy="160.00" r="168.00" fill="rgb(19,3,78)" fill-opacity="0.502"/>
<g transform="translate(612.00 992.00) rotate(14) scale(108.00 56.00)"><ellipse cx="0" cy="0" rx="1" ry="1" fill="rgb(15,0,27)" fill-opacity="0.502"/></g>
<polygon points="631.36,290.82 694.76,345.93 660.64,385.18 597.24,330.07" fill="rgb(0,0,6)" fill-opacity="0.502"/>
<g transform="translate(172.00 656.00) rotate(143) scale(96.00 40.00)"><ellipse cx="0" cy="0" rx="1" ry="1" fill="rgb(81,12,82)" fill-opacity="0.502"/></g>
<polygon points="362.59,382.58 341.00,476.12 173.41,437.42 195.00,343.88" fill="rgb(124,21,151)" fill-opacity="0.502"/>
<circle cx="164.00" cy="1000.00" r="68.00" fill="rgb(33,2,52)" fill-opacity="0.502"/>
<g transform="translate(40.00 740.00) rotate(333) scale(76.00 48.00)"><ellipse cx="0" cy="0" rx="1" ry="1" fill="rgb(25,0,42)" fill-opacity="0.502"/></g>
<polygon points="246.48,512.46 204.18,607.47 105.52,563.54 147.82,468.53" fill="rgb(208,28,204)" fill-opacity="0.502"/>
<circle cx="128.00" cy="308.00" r="104.00" fill="rgb(24,4,63)" fill-opacity="0.502"/>
<circle cx="448.00" cy="32.00" r="108.00" fill="rgb(0,0,2)" fill-opacity="0.502"/>
<g transform="translate(656.00 560.00) rotate(312) scale(68.00 104.00)"><ellipse cx="0" cy="0" rx="1" ry="1" fill="rgb(197,25,179)" fill-opacity="0.502"/></g>
<g transform="translate(556.00 656.00) rotate(157) scale(168.00 84.00)"><ellipse cx="0" cy="0" rx="1" ry="1" fill="rgb(190,25,180)" fill-opacity="0.502"/></g>
<polygon points="595.20,768.02 686.20,869.09 620.80,927.98 529.80,826.91" fill="rgb(76,16,108)" fill-opacity="0.502"/>
<g transform="translate(440.00 896.00) rotate(129) scale(156.00 116.00)"><ellipse cx="0" cy="0" rx="1" ry="1" fill="rgb(52,7,77)" fill-opacity="0.502"/></g>
<polygon points="498.07,322.24 396.24,424.07 285.93,313.76 387.76,211.93" fill="rgb(0,0,13)" fill-opacity="0.502"/>
<circle cx="4.00" cy="580.00" r="72.00" fill="rgb(157,22,144)" fill-opacity="0.502"/>
<g transform="translate(688.00 360.00) rotate(1) scale(28.00 136.00)"><ellipse cx="0" cy="0" rx="1" ry="1" fill="rgb(0,0,33)" fill-opacity="0.502"/></g>
<polygon points="395.42,130.46 187.70,141.35 180.58,5.54 388.30,-5.35" fill="rgb(8,0,42)" fill-opacity="0.502"/>
<polygon points="487.35,422.76 582.42,409.40 584.65,425.24 489.58,438.60" fill="rgb(255,45,255)" fill-opacity="0.502"/>
<circle cx="52.00" cy="276.00" r="176.00" fill="rgb(27,4,63)" fill-opacity="0.502"/>
<polygon points="650.73,462.29 628.97,479.91 601.27,445.71 623.03,428.09" fill="rgb(0,0,0)" fill-opacity="0.502"/>
<polygon points="704.46,141.46 683.62,201.98 615.54,178.54 636.38,118.02" fill="rgb(24,3,76)" fill-opacity="0.502"/>
<circle cx="44.00" cy="844.00" r="52.00" fill="rgb(89,15,124)" fill-opacity="0.502"/>
<polygon points="284.84,773.58 377.56,748.74 395.16,814.42 302.44,839.26" fill="rgb(32,2,65)" fill-opacity="0.502"/>
<circle cx="48.00" cy="1020.00" r="108.00" fill="rgb(50,7,72)" fill-opacity="0.502"/>
<polygon points="435.03,472.80 410.02,446.90 504.97,355.20 529.98,381.10" fill="rgb(119,20,145)" fill-opacity="0.502"/>
<polygon points="466.47,477.96 375.96,568.47 333.53,526.04 424.04,435.53" fill="rgb(16,3,30)" fill-opacity="0.502"/>
<g transform="translate(288.00 740.00) rotate(280) scale(24.00 212.00)"><ellipse cx="0" cy="0" rx="1" ry="1" fill="rgb(81,13,117)" fill-opacity="0.502"/></g>
<polygon points="-31.20,578.28 8.64,544.86 83.20,633.72 43.36,667.14" fill="rgb(181,24,167)" fill-opacity="0.502"/>
<polygon points="570.70,363.75 575.91,348.62 621.30,364.25 616.09,379.38" fill="rgb(0,0,0)" fill-opacity="0.502"/>
<polygon points="557.48,871.26 471.23,806.27 502.52,764.74 588.77,829.73" fill="rgb(80,15,106)" fill-opacity="0.502"/>
<circle cx="688.00" cy="56.00" r="76.00" fill="rgb(19,1,62)" fill-opacity="0.502"/>
<g transform="translate(320.00 472.00) rotate(29) scale(80.00 8.00)"><ellipse cx="0" cy="0" rx="1" ry="1" fill="rgb(211,41,234)" fill-opacity="0.502"/></g>
<g transform="translate(240.00 892.00) rotate(183) scale(156.00 84.00)"><ellipse cx="0" cy="0" rx="1" ry="1" fill="rgb(69,12,100)" fill-opacity="0.502"/></g>
<g transform="translate(336.00 432.00) rotate(342) scale(36.00 36.00)"><ellipse cx="0" cy="0" rx="1" ry="1" fill="rgb(52,9,70)" fill-opacity="0.502"/></g>
<g transform="translate(468.00 868.00) rotate(216) scale(172.00 28.00)"><ellipse cx="0" cy="0" rx="1" ry="1" fill="rgb(37,2,56)" fill-opacity="0.502"/></g>
<circle cx="0.00" cy="24.00" r="32.00" fill="rgb(158,32,168)" fill-opacity="0.502"/>
<polygon points="71.15,509.04 53.61,544.99 24.85,530.96 42.39,495.01" fill="rgb(0,0,26)" fill-opacity="0.502"/>
<g transform="translate(276.00 484.00) rotate(115) scale(16.00 84.00)"><ellipse cx="0" cy="0" rx="1" ry="1" fill="rgb(0,0,0)" fill-opacity="0.502"/></g>
<g transform="translate(472.00 252.00) rotate(149) scale(196.00 88.00)"><ellipse cx="0" cy="0" rx="1" ry="1" fill="rgb(10,0,29)" fill-opacity="0.502"/></g>
<circle cx="608.00" cy="272.00" r="64.00" fill="rgb(6,0,25)" fill-opacity="0.502"/>
<polygon points="150.86,120.58 196.41,-49.42 289.14,-24.58 243.59,145.42" fill="rgb(22,3,58)" fill-opacity="0.502"/>
<g transform="translate(16.00 352.00) rotate(346) scale(140.00 48.00)"><ellipse cx="0" cy="0" rx="1" ry="1" fill="rgb(51,9,75)" fill-opacity="0.502"/></g>
<circle cx="384.00" cy="568.00" r="20.00" fill="rgb(1,0,2)" fill-opacity="0.502"/>
<polygon points="735.83,562.03 690.80,793.69 404.17,737.97 449.20,506.31" fill="rgb(187,25,179)" fill-opacity="0.502"/>
<circle cx="120.00" cy="760.00" r="64.00" fill="rgb(52,5,80)" fill-opacity="0.502"/>
<circle cx="300.00" cy="392.00" r="12.00" fill="rgb(0,0,0)" fill-opacity="0.502"/>
<circle cx="112.00" cy="516.00" r="28.00" fill="rgb(205,27,198)" fill-opacity="0.502"/>
<polygon points="488.23,478.51 484.33,446.75 559.77,437.49 563.67,469.25" fill="rgb(0,0,0)" fill-opacity="0.502"/>
<g transform="translate(592.00 576.00) rotate(142) scale(120.00 88.00)"><ellipse cx="0" cy="0" rx="1" ry="1" fill="rgb(186,24,179)" fill-opacity="0.502"/></g>
<g transform="translate(408.00 380.00) rotate(180) scale(20.00 64.00)"><ellipse cx="0" cy="0" rx="1" ry="1" fill="rgb(0,0,10)" fill-opacity="0.502"/></g>
<polygon points="352.36,644.67 359.33,724.36 279.64,731.33 272.67,651.64" fill="rgb(158,23,148)" fill-opacity="0.502"/>
<circle cx="100.00" cy="664.00" r="32.00" fill="rgb(96,12,81)" fill-opacity="0.502"/>
<g transform="translate(456.00 176.00) rotate(109) scale(28.00 40.00)"><ellipse cx="0" cy="0" rx="1" ry="1" fill="rgb(24,2,69)" fill-opacity="0.502"/></g>
<g transform="translate(492.00 400.00) rotate(44) scale(16.00 112.00)"><ellipse cx="0" cy="0" rx="1" ry="1" fill="rgb(111,18,133)" fill-opacity="0.502"/></g>
<polygon points="264.44,514.27 308.27,518.11 299.56,617.73 255.73,613.89" fill="rgb(189,24,178)" fill-opacity="0.502"/>
<circle cx="212.00" cy="296.00" r="68.00" fill="rgb(11,0,40)" fill-opacity="0.502"/>
<circle cx="480.00" cy="436.00" r="12.00" fill="rgb(239,38,255)" fill-opacity="0.502"/>
<circle cx="48.00" cy="444.00" r="68.00" fill="rgb(14,1,52)" fill-opacity="0.502"/>
<polygon points="31.29,164.74 228.34,217.53 180.71,395.26 -16.34,342.47" fill="rgb(31,5,69)" fill-opacity="0.502"/>
<g transform="translate(460.00 424.00) rotate(246) scale(8.00 76.00)"><ellipse cx="0" cy="0" rx="1" ry="1" fill="rgb(0,0,9)" fill-opacity="0.502"/></g>
<polygon points="140.00,992.00 316.00,992.00 316.00,1020.00 140.00,1020.00" fill="rgb(39,3,56)" fill-opacity="0.502"/>
<circle cx="588.00" cy="444.00" r="20.00" fill="rgb(0,0,0)" fill-opacity="0.502"/>
<circle cx="348.00" cy="1020.00" r="76.00" fill="rgb(68,12,90)" fill-opacity="0.502"/>
<polygon points="619.45,-45.84 591.66,180.46 472.55,165.84 500.34,-60.46" fill="rgb(8,0,22)" fill-opacity="0.502"/>
<polygon points="136.16,454.71 132.69,435.01 187.84,425.29 191.31,444.99" fill="rgb(195,32,218)" fill-opacity="0.502"/>
<polygon points="148.00,768.00 404.00,768.00 404.00,808.00 148.00,808.00" fill="rgb(45,4,71)" fill-opacity="0.502"/>
<polygon points="105.93,392.88 142.67,435.14 46.07,519.12 9.33,476.86" fill="rgb(18,2,52)" fill-opacity="0.502"/>
<circle cx="472.00" cy="464.00" r="16.00" fill="rgb(0,0,0)" fill-opacity="0.502"/>
<polygon points="270.20,614.50 284.72,643.02 177.80,697.50 163.28,668.98" fill="rgb(179,25,162)" fill-opacity="0.502"/>
<g transform="translate(556.00 600.00) rotate(288) scale(124.00 144.00)"><ellipse cx="0" cy="0" rx="1" ry="1" fill="rgb(187,25,180)" fill-opacity="0.502"/></g>
<g transform="translate(400.00 280.00) rotate(103) scale(120.00 64.00)"><ellipse cx="0" cy="0" rx="1" ry="1" fill="rgb(12,0,25)" fill-opacity="0.502"/></g>
<g transform="translate(56.00 344.00) rotate(252) scale(56.00 52.00)"><ellipse cx="0" cy="0" rx="1" ry="1" fill="rgb(46,8,71)" fill-opacity="0.502"/></g>
<g transform="translate(124.00 48.00) rotate(262) scale(64.00 104.00)"><ellipse cx="0" cy="0" rx="1" ry="1" fill="rgb(32,5,65)" fill-opacity="0.502"/></g>
<polygon points="617.20,814.82 624.94,783.77 694.80,801.18 687.06,832.23" fill="rgb(65,11,101)" fill-opacity="0.502"/>
<circle cx="296.00" cy="240.00" r="68.00" fill="rgb(10,0,25)" fill-opacity="0.502"/>
<circle cx="540.00" cy="36.00" r="60.00" fill="rgb(11,0,24)" fill-opacity="0.502"/>
<g transform="translate(136.00 564.00) rotate(301) scale(104.00 36.00)"><ellipse cx="0" cy="0" rx="1" ry="1" fill="rgb(184,25,178)" fill-opacity="0.502"/></g>
<circle cx="44.00" cy="560.00" r="24.00" fill="rgb(117,17,104)" fill-opacity="0.502"/>
<circle cx="688.00" cy="192.00" r="48.00" fill="rgb(26,3,71)" fill-opacity="0.502"/>
<g transform="translate(160.00 680.00) rotate(33) scale(16.00 16.00)"><ellipse cx="0" cy="0" rx="1" ry="1" fill="rgb(166,24,151)" fill-opacity="0.502"/></g>
<g transform="translate(164.00 840.00) rotate(178) scale(164.00 16.00)"><ellipse cx="0" cy="0" rx="1" ry="1" fill="rgb(82,10,105)" fill-opacity="0.502"/></g>
<circle cx="280.00" cy="364.00" r="16.00" fill="rgb(181,31,209)" fill-opacity="0.502"/>
<polygon points="501.61,336.85 530.36,315.18 542.39,331.15 513.64,352.82" fill="rgb(178,29,201)" fill-opacity="0.502"/>
<g transform="translate(672.00 544.00) rotate(50) scale(64.00 52.00)"><ellipse cx="0" cy="0" rx="1" ry="1" fill="rgb(174,24,164)" fill-opacity="0.502"/></g>
<g transform="translate(676.00 752.00) rotate(148) scale(20.00 60.00)"><ellipse cx="0" cy="0" rx="1" ry="1" fill="rgb(190,25,183)" fill-opacity="0.502"/></g>
<circle cx="576.00" cy="812.00" r="40.00" fill="rgb(71,14,97)" fill-opacity="0.502"/>
<g transform="translate(12.00 160.00) rotate(12) scale(24.00 132.00)"><ellipse cx="0" cy="0" rx="1" ry="1" fill="rgb(16,1,50)" fill-opacity="0.502"/></g>
<polygon points="680.97,366.15 633.23,361.13 647.03,229.85 694.77,234.87" fill="rgb(14,0,42)" fill-opacity="0.502"/>
<polygon points="245.38,616.26 177.43,665.63 158.62,639.74 226.57,590.37" fill="rgb(80,11,84)" fill-opacity="0.502"/>
<polygon points="221.98,875.82 235.55,851.33 302.02,888.18 288.45,912.67" fill="rgb(50,5,71)" fill-opacity="0.502"/>
<polygon points="368.13,696.28 327.94,678.38 371.87,579.72 412.06,597.62" fill="rgb(120,16,100)" fill-opacity="0.502"/>
<g transform="translate(188.00 524.00) rotate(121) scale(24.00 80.00)"><ellipse cx="0" cy="0" rx="1" ry="1" fill="rgb(191,26,187)" fill-opacity="0.502"/></g>
<polygon points="263.49,711.82 306.97,549.54 376.51,568.18 333.03,730.46" fill="rgb(159,22,148)" fill-opacity="0.502"/>
<polygon points="493.34,481.17 485.63,471.97 534.66,430.83 542.37,440.03" fill="rgb(0,0,10)" fill-opacity="0.502"/>
<g transform="translate(500.00 1020.00) rotate(83) scale(120.00 48.00)"><ellipse cx="0" cy="0" rx="1" ry="1" fill="rgb(53,5,68)" fill-opacity="0.502"/></g>
<polygon points="482.57,103.70 406.98,95.75 417.43,-3.70 493.02,4.25" fill="rgb(0,0,0)" fill-opacity="0.502"/>
<polygon points="528.30,331.05 468.26,299.12 507.70,224.95 567.74,256.88" fill="rgb(14,1,32)" fill-opacity="0.502"/>
<g transform="translate(604.00 832.00) rotate(13) scale(136.00 52.00)"><ellipse cx="0" cy="0" rx="1" ry="1" fill="rgb(69,11,95)" fill-opacity="0.502"/></g>
<circle cx="276.00" cy="388.00" r="12.00" fill="rgb(0,0,0)" fill-opacity="0.502"/>
<polygon points="325.76,406.79 351.21,432.24 334.24,449.21 308.79,423.76" fill="rgb(160,30,186)" fill-opacity="0.502"/>
<g transform="translate(36.00 732.00) rotate(235) scale(20.00 84.00)"><ellipse cx="0" cy="0" rx="1" ry="1" fill="rgb(33,1,45)" fill-opacity="0.502"/></g>
<circle cx="608.00" cy="120.00" r="48.00" fill="rgb(12,0,28)" fill-opacity="0.502"/>
<polygon points="151.95,746.26 147.76,806.11 28.05,797.74 32.24,737.89" fill="rgb(54,6,76)" fill-opacity="0.502"/>
<polygon points="211.86,380.45 263.86,379.55 264.14,395.55 212.14,396.45" fill="rgb(0,0,1)" fill-opacity="0.502"/>
<polygon points="30.80,672.30 216.12,577.87 225.20,595.70 39.88,690.13" fill="rgb(140,21,126)" fill-opacity="0.502"/>
<g transform="translate(28.00 836.00) rotate(3) scale(116.00 40.00)"><ellipse cx="0" cy="0" rx="1" ry="1" fill="rgb(85,13,110)" fill-opacity="0.502"/></g>
<circle cx="528.00" cy="360.00" r="12.00" fill="rgb(0,0,0)" fill-opacity="0.502"/>
<circle cx="0.00" cy="552.00" r="40.00" fill="rgb(174,24,160)" fill-opacity="0.502"/>
<polygon points="280.34,359.71 223.11,268.12 331.66,200.29 388.89,291.88" fill="rgb(11,0,25)" fill-opacity="0.502"/>
<g transform="translate(220.00 528.00) rotate(189) scale(84.00 48.00)"><ellipse cx="0" cy="0" rx="1" ry="1" fill="rgb(185,25,178)" fill-opacity="0.502"/></g>
<polygon points="580.00,416.00 624.00,416.00 624.00,428.00 580.00,428.00" fill="rgb(221,44,255)" fill-opacity="0.502"/>
<g transform="translate(452.00 412.00) rotate(118) scale(76.00 20.00)"><ellipse cx="0" cy="0" rx="1" ry="1" fill="rgb(112,19,139)" fill-opacity="0.502"/></g>
<polygon points="405.40,226.29 345.48,229.43 334.60,21.71 394.52,18.57" fill="rgb(9,0,19)" fill-opacity="0.502"/>
<polygon points="490.64,365.07 479.13,353.95 501.36,330.93 512.87,342.05" fill="rgb(192,34,215)" fill-opacity="0.502"/>
<circle cx="100.00" cy="412.00" r="48.00" fill="rgb(22,3,61)" fill-opacity="0.502"/>
<g transform="translate(52.00 1012.00) rotate(13) scale(124.00 36.00)"><ellipse cx="0" cy="0" rx="1" ry="1" fill="rgb(72,13,94)" fill-opacity="0.502"/></g>
<polygon points="174.83,141.56 185.29,-58.17 273.17,-53.56 262.71,146.17" fill="rgb(18,1,51)" fill-opacity="0.502"/>
<polygon points="676.77,490.55 631.47,457.63 643.23,441.45 688.53,474.37" fill="rgb(0,0,0)" fill-opacity="0.502"/>
<g transform="translate(424.00 752.00) rotate(191) scale(308.00 8.00)"><ellipse cx="0" cy="0" rx="1" ry="1" fill="rgb(94,18,122)" fill-opacity="0.502"/></g>
<circle cx="224.00" cy="388.00" r="24.00" fill="rgb(148,22,171)" fill-opacity="0.502"/>
<circle cx="360.00" cy="448.00" r="12.00" fill="rgb(165,32,186)" fill-opacity="0.502"/>
<g transform="translate(264.00 328.00) rotate(147) scale(92.00 8.00)"><ellipse cx="0" cy="0" rx="1" ry="1" fill="rgb(8,0,23)" fill-opacity="0.502"/></g>
<polygon points="416.29,440.54 390.93,528.97 371.71,523.46 397.07,435.03" fill="rgb(64,11,81)" fill-opacity="0.502"/>
<g transform="translate(572.00 452.00) rotate(182) scale(92.00 16.00)"><ellipse cx="0" cy="0" rx="1" ry="1" fill="rgb(0,0,12)" fill-opacity="0.502"/></g>
<circle cx="0.00" cy="664.00" r="24.00" fill="rgb(29,2,63)" fill-opacity="0.502"/>
<polygon points="219.16,195.28 143.45,188.66 144.84,172.72 220.55,179.34" fill="rgb(12,0,39)" fill-opacity="0.502"/>
<polygon points="614.97,471.09 628.13,578.29 509.03,592.91 495.87,485.71" fill="rgb(190,26,184)" fill-opacity="0.502"/>
<g transform="translate(604.00 924.00) rotate(34) scale(256.00 20.00)"><ellipse cx="0" cy="0" rx="1" ry="1" fill="rgb(51,5,71)" fill-opacity="0.502"/></g>
<polygon points="557.54,963.60 637.23,956.63 642.46,1016.40 562.77,1023.37" fill="rgb(27,0,37)" fill-opacity="0.502"/>
<circle cx="420.00" cy="888.00" r="36.00" fill="rgb(58,6,75)" fill-opacity="0.502"/>
<g transform="translate(180.00 276.00) rotate(93) scale(112.00 28.00)"><ellipse cx="0" cy="0" rx="1" ry="1" fill="rgb(19,2,63)" fill-opacity="0.502"/></g>
<g transform="translate(640.00 336.00) rotate(7) scale(8.00 24.00)"><ellipse cx="0" cy="0" rx="1" ry="1" fill="rgb(3,0,13)" fill-opacity="0.502"/></g>
<polygon points="466.62,319.01 548.90,269.56 565.38,296.99 483.10,346.44" fill="rgb(14,0,31)" fill-opacity="0.502"/>
<polygon points="352.00,368.00 352.00,372.00 220.00,372.00 220.00,368.00" fill="rgb(181,29,200)" fill-opacity="0.502"/>
<polygon points="654.89,324.07 666.53,321.16 709.11,491.93 697.47,494.84" fill="rgb(9,0,35)" fill-opacity="0.502"/>
<circle cx="616.00" cy="388.00" r="12.00" fill="rgb(179,37,213)" fill-opacity="0.502"/>
<polygon points="43.75,97.11 174.35,-38.12 200.25,-13.11 69.65,122.12" fill="rgb(40,6,71)" fill-opacity="0.502"/>
<g transform="translate(172.00 532.00) rotate(80) scale(52.00 84.00)"><ellipse cx="0" cy="0" rx="1" ry="1" fill="rgb(188,25,182)" fill-opacity="0.502"/></g>
<g transform="translate(664.00 52.00) rotate(66) scale(24.00 40.00)"><ellipse cx="0" cy="0" rx="1" ry="1" fill="rgb(22,2,62)" fill-opacity="0.502"/></g>
<polygon points="425.30,326.44 422.58,378.37 330.70,373.56 333.42,321.63" fill="rgb(7,0,20)" fill-opacity="0.502"/>
<g transform="translate(448.00 188.00) rotate(215) scale(52.00 24.00)"><ellipse cx="0" cy="0" rx="1" ry="1" fill="rgb(21,2,56)" fill-opacity="0.502"/></g>
<g transform="translate(100.00 76.00) rotate(78) scale(8.00 128.00)"><ellipse cx="0" cy="0" rx="1" ry="1" fill="rgb(14,0,45)" fill-opacity="0.502"/></g>
<polygon points="546.45,807.60 462.77,800.28 465.55,768.40 549.23,775.72" fill="rgb(68,12,93)" fill-opacity="0.502"/>
<g transform="translate(268.00 428.00) rotate(281) scale(4.00 72.00)"><ellipse cx="0" cy="0" rx="1" ry="1" fill="rgb(0,0,0)" fill-opacity="0.502"/></g>
<polygon points="378.80,427.32 375.17,434.45 293.20,392.68 296.83,385.55" fill="rgb(0,0,0)" fill-opacity="0.502"/>
<circle cx="0.00" cy="708.00" r="32.00" fill="rgb(34,1,49)" fill-opacity="0.502"/>
<g transform="translate(388.00 304.00) rotate(332) scale(88.00 88.00)"><ellipse cx="0" cy="0" rx="1" ry="1" fill="rgb(11,0,24)" fill-opacity="0.502"/></g>
<polygon points="463.31,1054.21 347.97,982.14 360.69,961.79 476.03,1033.86" fill="rgb(73,16,103)" fill-opacity="0.502"/>
<polygon points="159.47,1009.93 34.28,956.79 40.53,942.07 165.72,995.21" fill="rgb(26,0,38)" fill-opacity="0.502"/>
<circle cx="56.00" cy="588.00" r="16.00" fill="rgb(121,17,111)" fill-opacity="0.502"/>
<g transform="translate(528.00 704.00) rotate(339) scale(56.00 64.00)"><ellipse cx="0" cy="0" rx="1" ry="1" fill="rgb(189,25,181)" fill-opacity="0.502"/></g>
<g transform="translate(684.00 884.00) rotate(102) scale(60.00 68.00)"><ellipse cx="0" cy="0" rx="1" ry="1" fill="rgb(66,11,95)" fill-opacity="0.502"/></g>
<polygon points="585.51,261.18 564.50,325.86 370.49,262.82 391.50,198.14" fill="rgb(14,0,31)" fill-opacity="0.502"/>
<circle cx="44.00" cy="888.00" r="36.00" fill="rgb(63,13,91)" fill-opacity="0.502"/>
<polygon points="286.25,749.38 258.40,746.45 261.75,714.62 289.60,717.55" fill="rgb(96,17,125)" fill-opacity="0.502"/>
<polygon points="371.22,723.12 380.84,631.62 392.78,632.88 383.16,724.38" fill="rgb(74,6,54)" fill-opacity="0.502"/>
<circle cx="284.00" cy="556.00" r="40.00" fill="rgb(172,23,162)" fill-opacity="0.502"/>
<polygon points="338.12,917.09 458.12,989.20 449.88,1002.91 329.88,930.80" fill="rgb(49,4,68)" fill-opacity="0.502"/>
<polygon points="509.20,377.39 498.80,371.39 510.80,350.61 521.20,356.61" fill="rgb(0,0,0)" fill-opacity="0.502"/>
<circle cx="680.00" cy="596.00" r="44.00" fill="rgb(179,23,171)" fill-opacity="0.502"/>
<polygon points="212.56,473.47 116.69,478.50 115.44,454.53 211.31,449.50" fill="rgb(0,0,13)" fill-opacity="0.502"/>
<circle cx="460.00" cy="480.00" r="16.00" fill="rgb(0,0,1)" fill-opacity="0.502"/>
<circle cx="400.00" cy="504.00" r="16.00" fill="rgb(0,0,2)" fill-opacity="0.502"/>
<polygon points="176.00,972.00 332.00,972.00 332.00,1000.00 176.00,1000.00" fill="rgb(60,7,78)" fill-opacity="0.502"/>
<polygon points="30.68,659.92 16.18,605.82 97.32,584.08 111.82,638.18" fill="rgb(162,22,151)" fill-opacity="0.502"/>
<polygon points="657.16,789.19 572.05,722.70 618.84,662.81 703.95,729.30" fill="rgb(187,25,180)" fill-opacity="0.502"/>
<circle cx="116.00" cy="516.00" r="32.00" fill="rgb(184,25,177)" fill-opacity="0.502"/>
<circle cx="324.00" cy="880.00" r="36.00" fill="rgb(74,11,99)" fill-opacity="0.502"/>
<circle cx="488.00" cy="568.00" r="76.00" fill="rgb(185,25,180)" fill-opacity="0.502"/>
<polygon points="80.58,58.33 98.73,172.91 43.42,181.67 25.27,67.09" fill="rgb(34,6,69)" fill-opacity="0.502"/>
<polygon points="484.36,441.51 430.90,468.75 423.64,454.49 477.10,427.25" fill="rgb(209,36,229)" fill-opacity="0.502"/>
<polygon points="420.95,684.44 400.98,683.40 407.05,567.56 427.02,568.60" fill="rgb(159,20,137)" fill-opacity="0.502"/>
<g transform="translate(312.00 444.00) rotate(25) scale(68.00 8.00)"><ellipse cx="0" cy="0" rx="1" ry="1" fill="rgb(0,0,2)" fill-opacity="0.502"/></g>
<polygon points="705.66,407.67 686.93,428.48 642.34,388.33 661.07,367.52" fill="rgb(14,0,46)" fill-opacity="0.502"/>
<g transform="translate(392.00 488.00) rotate(222) scale(4.00 84.00)"><ellipse cx="0" cy="0" rx="1" ry="1" fill="rgb(30,3,44)" fill-opacity="0.502"/></g>
<polygon points="335.33,184.07 277.15,289.02 224.67,259.93 282.85,154.98" fill="rgb(15,1,32)" fill-opacity="0.502"/>
<g transform="translate(68.00 936.00) rotate(9) scale(100.00 28.00)"><ellipse cx="0" cy="0" rx="1" ry="1" fill="rgb(60,7,75)" fill-opacity="0.502"/></g>
<polygon points="299.32,231.44 218.97,365.16 184.68,344.56 265.03,210.84" fill="rgb(15,1,31)" fill-opacity="0.502"/>
<circle cx="212.00" cy="436.00" r="12.00" fill="rgb(231,37,244)" fill-opacity="0.502"/>
<polygon points="243.62,706.89 210.41,678.02 336.38,533.11 369.59,561.98" fill="rgb(165,22,151)" fill-opacity="0.502"/>
<polygon points="98.09,939.09 3.27,924.07 13.91,856.91 108.73,871.93" fill="rgb(69,13,94)" fill-opacity="0.502"/>
<polygon points="522.48,491.91 540.85,622.63 473.52,632.09 455.15,501.37" fill="rgb(189,25,185)" fill-opacity="0.502"/>
<g transform="translate(468.00 320.00) rotate(308) scale(80.00 24.00)"><ellipse cx="0" cy="0" rx="1" ry="1" fill="rgb(11,0,26)" fill-opacity="0.502"/></g>
<circle cx="48.00" cy="684.00" r="16.00" fill="rgb(102,11,84)" fill-opacity="0.502"/>
<circle cx="296.00" cy="288.00" r="72.00" fill="rgb(12,0,28)" fill-opacity="0.502"/>
<circle cx="340.00" cy="868.00" r="24.00" fill="rgb(79,10,101)" fill-opacity="0.502"/>
<polygon points="259.24,270.71 265.09,215.02 324.76,221.29 318.91,276.98" fill="rgb(19,1,40)" fill-opacity="0.502"/>
<circle cx="100.00" cy="0.00" r="36.00" fill="rgb(16,2,63)" fill-opacity="0.502"/>
<polygon points="291.85,503.56 304.56,483.21 396.15,540.44 383.44,560.79" fill="rgb(0,0,9)" fill-opacity="0.502"/>
<circle cx="688.00" cy="352.00" r="48.00" fill="rgb(16,0,44)" fill-opacity="0.502"/>
<circle cx="600.00" cy="708.00" r="72.00" fill="rgb(186,25,179)" fill-opacity="0.502"/>
<circle cx="372.00" cy="512.00" r="12.00" fill="rgb(154,30,171)" fill-opacity="0.502"/>
<polygon points="166.72,992.01 202.36,1010.17 193.28,1027.99 157.64,1009.83" fill="rgb(12,0,23)" fill-opacity="0.502"/>
<g transform="translate(228.00 200.00) rotate(37) scale(20.00 96.00)"><ellipse cx="0" cy="0" rx="1" ry="1" fill="rgb(23,3,62)" fill-opacity="0.502"/></g>
<circle cx="544.00" cy="252.00" r="76.00" fill="rgb(13,0,28)" fill-opacity="0.502"/>
<polygon points="352.17,418.01 349.40,433.77 191.83,405.99 194.60,390.23" fill="rgb(173,29,195)" fill-opacity="0.502"/>
<g transform="translate(500.00 1020.00) rotate(243) scale(124.00 32.00)"><ellipse cx="0" cy="0" rx="1" ry="1" fill="rgb(56,7,77)" fill-opacity="0.502"/></g>
<circle cx="8.00" cy="820.00" r="20.00" fill="rgb(92,17,124)" fill-opacity="0.502"/>
<circle cx="560.00" cy="356.00" r="12.00" fill="rgb(0,0,0)" fill-opacity="0.502"/>
<polygon points="344.70,428.12 343.31,408.16 347.30,407.88 348.69,427.84" fill="rgb(0,0,0)" fill-opacity="0.502"/>
<polygon points="448.00,460.00 500.00,460.00 500.00,480.00 448.00,480.00" fill="rgb(3,0,26)" fill-opacity="0.502"/>
<polygon points="154.16,591.00 118.52,609.16 85.84,545.00 121.48,526.84" fill="rgb(187,25,179)" fill-opacity="0.502"/>
<polygon points="288.80,394.76 294.44,384.17 379.20,429.24 373.56,439.83" fill="rgb(2,0,26)" fill-opacity="0.502"/>
<g transform="translate(384.00 444.00) rotate(228) scale(40.00 8.00)"><ellipse cx="0" cy="0" rx="1" ry="1" fill="rgb(7,0,23)" fill-opacity="0.502"/></g>
<polygon points="248.00,444.00 168.00,444.00 168.00,436.00 248.00,436.00" fill="rgb(221,34,234)" fill-opacity="0.502"/>
<g transform="translate(444.00 124.00) rotate(270) scale(24.00 88.00)"><ellipse cx="0" cy="0" rx="1" ry="1" fill="rgb(8,0,21)" fill-opacity="0.502"/></g>
<g transform="translate(312.00 376.00) rotate(202) scale(44.00 12.00)"><ellipse cx="0" cy="0" rx="1" ry="1" fill="rgb(167,32,194)" fill-opacity="0.502"/></g>
<polygon points="514.92,395.01 513.17,375.08 537.08,372.99 538.83,392.92" fill="rgb(201,33,220)" fill-opacity="0.502"/>
<g transform="translate(516.00 248.00) rotate(124) scale(20.00 72.00)"><ellipse cx="0" cy="0" rx="1" ry="1" fill="rgb(17,1,38)" fill-opacity="0.502"/></g>
<polygon points="684.65,945.56 697.01,983.60 651.35,998.44 638.99,960.40" fill="rgb(41,3,66)" fill-opacity="0.502"/>
<circle cx="224.00" cy="48.00" r="56.00" fill="rgb(20,3,58)" fill-opacity="0.502"/>
<circle cx="240.00" cy="388.00" r="12.00" fill="rgb(0,0,20)" fill-opacity="0.502"/>
<polygon points="38.44,948.49 26.68,964.67 -2.44,943.51 9.32,927.33" fill="rgb(39,2,52)" fill-opacity="0.502"/>
<circle cx="0.00" cy="464.00" r="44.00" fill="rgb(29,5,71)" fill-opacity="0.502"/>
<circle cx="624.00" cy="1020.00" r="16.00" fill="rgb(2,0,31)" fill-opacity="0.502"/>
<g transform="translate(624.00 456.00) rotate(192) scale(96.00 16.00)"><ellipse cx="0" cy="0" rx="1" ry="1" fill="rgb(8,0,28)" fill-opacity="0.502"/></g>
<g transform="translate(308.00 1020.00) rotate(172) scale(72.00 28.00)"><ellipse cx="0" cy="0" rx="1" ry="1" fill="rgb(59,7,74)" fill-opacity="0.502"/></g>
<circle cx="456.00" cy="612.00" r="44.00" fill="rgb(187,25,179)" fill-opacity="0.502"/>
<polygon points="265.79,835.47 111.68,891.56 106.21,876.53 260.32,820.44" fill="rgb(67,11,92)" fill-opacity="0.502"/>
<g transform="translate(632.00 432.00) rotate(112) scale(8.00 60.00)"><ellipse cx="0" cy="0" rx="1" ry="1" fill="rgb(148,29,179)" fill-opacity="0.502"/></g>
<polygon points="638.89,202.57 613.43,177.11 701.11,89.43 726.57,114.89" fill="rgb(21,2,54)" fill-opacity="0.502"/>
<polygon points="224.52,764.90 146.90,745.55 159.48,695.10 237.10,714.45" fill="rgb(84,11,107)" fill-opacity="0.502"/>
<g transform="translate(448.00 388.00) rotate(70) scale(8.00 108.00)"><ellipse cx="0" cy="0" rx="1" ry="1" fill="rgb(16,1,39)" fill-opacity="0.502"/></g>
<g transform="translate(288.00 324.00) rotate(335) scale(24.00 40.00)"><ellipse cx="0" cy="0" rx="1" ry="1" fill="rgb(11,0,24)" fill-opacity="0.502"/></g>
<circle cx="140.00" cy="416.00" r="24.00" fill="rgb(28,4,67)" fill-opacity="0.502"/>
<polygon points="311.84,708.26 306.90,693.04 360.16,675.74 365.10,690.96" fill="rgb(145,20,133)" fill-opacity="0.502"/>
<polygon points="280.71,180.25 428.50,187.99 419.29,363.75 271.50,356.01" fill="rgb(10,0,23)" fill-opacity="0.502"/>
<g transform="translate(136.00 368.00) rotate(109) scale(12.00 92.00)"><ellipse cx="0" cy="0" rx="1" ry="1" fill="rgb(29,5,64)" fill-opacity="0.502"/></g>
<circle cx="584.00" cy="604.00" r="64.00" fill="rgb(188,25,182)" fill-opacity="0.502"/>
<circle cx="444.00" cy="796.00" r="24.00" fill="rgb(54,5,73)" fill-opacity="0.502"/>
<polygon points="475.55,1006.63 575.41,1001.40 576.45,1021.37 476.59,1026.60" fill="rgb(53,5,69)" fill-opacity="0.502"/>
<g transform="translate(300.00 328.00) rotate(209) scale(104.00 28.00)"><ellipse cx="0" cy="0" rx="1" ry="1" fill="rgb(12,0,28)" fill-opacity="0.502"/></g>
<polygon points="660.00,108.00 688.00,108.00 688.00,372.00 660.00,372.00" fill="rgb(22,2,55)" fill-opacity="0.502"/>
<circle cx="444.00" cy="716.00" r="36.00" fill="rgb(177,23,166)" fill-opacity="0.502"/>
<circle cx="660.00" cy="84.00" r="20.00" fill="rgb(14,0,27)" fill-opacity="0.502"/>
<g transform="translate(92.00 244.00) rotate(92) scale(20.00 68.00)"><ellipse cx="0" cy="0" rx="1" ry="1" fill="rgb(43,8,70)" fill-opacity="0.502"/></g>
<circle cx="296.00" cy="1016.00" r="44.00" fill="rgb(62,8,78)" fill-opacity="0.502"/>
<polygon points="61.48,722.11 106.52,696.11 174.52,813.89 129.48,839.89" fill="rgb(58,6,81)" fill-opacity="0.502"/>
<polygon points="207.93,875.26 186.94,851.11 208.07,832.74 229.06,856.89" fill="rgb(56,7,74)" fill-opacity="0.502"/>
<polygon points="85.24,499.76 67.68,516.12 26.76,472.24 44.32,455.88" fill="rgb(16,0,46)" fill-opacity="0.502"/>
<g transform="translate(164.00 28.00) rotate(64) scale(16.00 20.00)"><ellipse cx="0" cy="0" rx="1" ry="1" fill="rgb(48,7,75)" fill-opacity="0.502"/></g>
<polygon points="668.42,256.27 635.73,320.42 571.58,287.73 604.27,223.58" fill="rgb(9,0,20)" fill-opacity="0.502"/>
<circle cx="684.00" cy="824.00" r="24.00" fill="rgb(61,5,78)" fill-opacity="0.502"/>
<circle cx="552.00" cy="336.00" r="16.00" fill="rgb(184,35,216)" fill-opacity="0.502"/>
<polygon points="162.67,640.17 169.19,659.08 97.33,683.83 90.81,664.92" fill="rgb(84,9,66)" fill-opacity="0.502"/>
<circle cx="368.00" cy="408.00" r="12.00" fill="rgb(140,28,168)" fill-opacity="0.502"/>
<polygon points="408.95,-3.24 435.87,4.48 427.05,35.24 400.13,27.52" fill="rgb(12,0,32)" fill-opacity="0.502"/>
<polygon points="230.45,392.69 300.88,407.66 297.55,423.31 227.12,408.34" fill="rgb(191,32,210)" fill-opacity="0.502"/>
<polygon points="654.30,656.77 649.77,604.97 669.70,603.23 674.23,655.03" fill="rgb(175,23,166)" fill-opacity="0.502"/>
<polygon points="379.95,97.57 321.60,158.00 264.05,102.43 322.40,42.00" fill="rgb(15,1,31)" fill-opacity="0.502"/>
<polygon points="112.52,131.97 111.69,115.99 263.48,108.03 264.31,124.01" fill="rgb(13,0,27)" fill-opacity="0.502"/>
<polygon points="287.22,814.53 346.12,825.98 340.78,853.47 281.88,842.02" fill="rgb(65,8,93)" fill-opacity="0.502"/>
<circle cx="536.00" cy="936.00" r="20.00" fill="rgb(36,1,41)" fill-opacity="0.502"/>
<polygon points="139.98,583.46 73.80,519.56 96.02,496.54 162.20,560.44" fill="rgb(186,25,178)" fill-opacity="0.502"/>
<circle cx="592.00" cy="936.00" r="16.00" fill="rgb(58,6,71)" fill-opacity="0.502"/>
<circle cx="0.00" cy="8.00" r="16.00" fill="rgb(157,32,191)" fill-opacity="0.502"/>
<circle cx="596.00" cy="380.00" r="12.00" fill="rgb(184,36,217)" fill-opacity="0.502"/>
<polygon points="269.25,688.48 262.98,616.75 322.75,611.52 329.02,683.25" fill="rgb(167,22,155)" fill-opacity="0.502"/>
<polygon points="184.14,446.53 280.27,474.09 275.86,489.47 179.73,461.91" fill="rgb(0,0,24)" fill-opacity="0.502"/>
<polygon points="547.66,975.70 497.66,1062.30 480.34,1052.30 530.34,965.70" fill="rgb(55,6,67)" fill-opacity="0.502"/>
<g transform="translate(396.00 724.00) rotate(87) scale(28.00 4.00)"><ellipse cx="0" cy="0" rx="1" ry="1" fill="rgb(137,19,119)" fill-opacity="0.502"/></g>
<polygon points="27.53,397.88 7.21,316.38 96.47,294.12 116.79,375.62" fill="rgb(43,7,71)" fill-opacity="0.502"/>
<polygon points="447.21,368.92 453.99,373.16 432.79,407.08 426.01,402.84" fill="rgb(122,24,148)" fill-opacity="0.502"/>
<polygon points="629.88,385.45 652.90,407.68 650.12,410.55 627.10,388.32" fill="rgb(167,37,204)" fill-opacity="0.502"/>
<g transform="translate(536.00 28.00) rotate(66) scale(80.00 44.00)"><ellipse cx="0" cy="0" rx="1" ry="1" fill="rgb(9,0,23)" fill-opacity="0.502"/></g>
<polygon points="278.34,175.26 322.29,269.52 289.66,284.74 245.71,190.48" fill="rgb(16,1,36)" fill-opacity="0.502"/>
<polygon points="-41.94,627.75 -36.93,592.10 77.94,608.25 72.93,643.90" fill="rgb(173,23,163)" fill-opacity="0.502"/>
<g transform="translate(380.00 916.00) rotate(310) scale(16.00 32.00)"><ellipse cx="0" cy="0" rx="1" ry="1" fill="rgb(72,14,96)" fill-opacity="0.502"/></g>
<circle cx="0.00" cy="48.00" r="16.00" fill="rgb(100,17,116)" fill-opacity="0.502"/>
<polygon points="393.58,783.51 139.49,752.31 142.42,728.49 396.51,759.69" fill="rgb(68,9,95)" fill-opacity="0.502"/>
<g transform="translate(688.00 196.00) rotate(65) scale(24.00 20.00)"><ellipse cx="0" cy="0" rx="1" ry="1" fill="rgb(32,6,74)" fill-opacity="0.502"/></g>
<polygon points="655.70,169.04 595.74,166.95 596.30,150.96 656.26,153.05" fill="rgb(15,1,31)" fill-opacity="0.502"/>
<g transform="translate(136.00 96.00) rotate(357) scale(76.00 12.00)"><ellipse cx="0" cy="0" rx="1" ry="1" fill="rgb(45,8,74)" fill-opacity="0.502"/></g>
<circle cx="520.00" cy="696.00" r="64.00" fill="rgb(188,25,181)" fill-opacity="0.502"/>
<circle cx="336.00" cy="0.00" r="20.00" fill="rgb(22,3,67)" fill-opacity="0.502"/>
<polygon points="697.74,285.16 663.31,295.69 642.26,226.84 676.69,216.31" fill="rgb(17,1,40)" fill-opacity="0.502"/>
<g transform="translate(228.00 112.00) rotate(329) scale(32.00 32.00)"><ellipse cx="0" cy="0" rx="1" ry="1" fill="rgb(19,1,48)" fill-opacity="0.502"/></g>
<polygon points="123.01,697.27 116.50,711.88 68.99,690.73 75.50,676.12" fill="rgb(57,6,70)" fill-opacity="0.502"/>
<circle cx="432.00" cy="492.00" r="16.00" fill="rgb(0,0,0)" fill-opacity="0.502"/>
<polygon points="702.13,932.06 708.43,959.34 653.87,971.94 647.57,944.66" fill="rgb(52,6,73)" fill-opacity="0.502"/>
<polygon points="225.33,577.86 176.22,630.51 158.67,614.14 207.78,561.49" fill="rgb(160,22,150)" fill-opacity="0.502"/>
<g transform="translate(396.00 568.00) rotate(185) scale(4.00 40.00)"><ellipse cx="0" cy="0" rx="1" ry="1" fill="rgb(10,0,27)" fill-opacity="0.502"/></g>
<g transform="translate(0.00 440.00) rotate(68) scale(24.00 196.00)"><ellipse cx="0" cy="0" rx="1" ry="1" fill="rgb(22,3,63)" fill-opacity="0.502"/></g>
<g transform="translate(292.00 44.00) rotate(103) scale(16.00 56.00)"><ellipse cx="0" cy="0" rx="1" ry="1" fill="rgb(15,0,37)" fill-opacity="0.502"/></g>
<circle cx="196.00" cy="896.00" r="40.00" fill="rgb(69,14,97)" fill-opacity="0.502"/>
<circle cx="0.00" cy="552.00" r="36.00" fill="rgb(163,22,152)" fill-opacity="0.502"/>
<g transform="translate(504.00 636.00) rotate(0) scale(92.00 44.00)"><ellipse cx="0" cy="0" rx="1" ry="1" fill="rgb(187,25,179)" fill-opacity="0.502"/></g>
<circle cx="72.00" cy="56.00" r="20.00" fill="rgb(40,6,71)" fill-opacity="0.502"/>
<g transform="translate(596.00 844.00) rotate(308) scale(32.00 116.00)"><ellipse cx="0" cy="0" rx="1" ry="1" fill="rgb(70,14,96)" fill-opacity="0.502"/></g>
</g>
</svg>