<?xml version="1.0" standalone="no"?>
<svg xmlns="http://www.w3.org/2000/svg" width="8192" height="4608" viewBox="0 0 8192 4608" style="overflow:hidden">
<defs>
<clipPath id="c"><rect x="0" y="0" width="8192" height="4608"/></clipPath>
</defs>
<rect width="8192" height="4608" fill="rgb(77,55,46)"/>
<g clip-path="url(#c)">
<circle cx="2816.00" cy="1936.00" r="1744.00" fill="rgb(255,204,181)" fill-opacity="0.502"/>
<circle cx="3440.00" cy="576.00" r="816.00" fill="rgb(50,0,0)" fill-opacity="0.502"/>
<circle cx="6784.00" cy="1776.00" r="368.00" fill="rgb(255,255,255)" fill-opacity="0.502"/>
<g transform="translate(2208.00 1728.00) rotate(78) scale(400.00 1200.00)"><ellipse cx="0" cy="0" rx="1" ry="1" fill="rgb(255,255,255)" fill-opacity="0.502"/></g>
<circle cx="4544.00" cy="928.00" r="560.00" fill="rgb(12,0,0)" fill-opacity="0.502"/>
<circle cx="7600.00" cy="3456.00" r="1536.00" fill="rgb(0,0,0)" fill-opacity="0.502"/>
<circle cx="224.00" cy="1904.00" r="896.00" fill="rgb(0,0,0)" fill-opacity="0.502"/>
<circle cx="3376.00" cy="4272.00" r="1088.00" fill="rgb(0,0,0)" fill-opacity="0.502"/>
<polygon points="5008.00,2576.00 3536.00,2576.00 3536.00,1472.00 5008.00,1472.00" fill="rgb(255,255,255)" fill-opacity="0.502"/>
<circle cx="0.00" cy="3712.00" r="1280.00" fill="rgb(0,0,0)" fill-opacity="0.502"/>
<g transform="translate(6304.00 0.00) rotate(25) scale(7008.00 1168.00)"><ellipse cx="0" cy="0" rx="1" ry="1" fill="rgb(0,0,0)" fill-opacity="0.502"/></g>
<circle cx="144.00" cy="784.00" r="1008.00" fill="rgb(0,0,0)" fill-opacity="0.502"/>
<g transform="translate(1376.00 3008.00) rotate(358) scale(288.00 928.00)"><ellipse cx="0" cy="0" rx="1" ry="1" fill="rgb(234,148,119)" fill-opacity="0.502"/></g>
<circle cx="5824.00" cy="2064.00" r="736.00" fill="rgb(0,0,0)" fill-opacity="0.502"/>
<circle cx="6800.00" cy="2144.00" r="288.00" fill="rgb(255,240,199)" fill-opacity="0.502"/>
<circle cx="7408.00" cy="3904.00" r="1536.00" fill="rgb(3,0,0)" fill-opacity="0.502"/>
<g transform="translate(560.00 2528.00) rotate(360) scale(544.00 4592.00)"><ellipse cx="0" cy="0" rx="1" ry="1" fill="rgb(0,0,0)" fill-opacity="0.502"/></g>
<g transform="translate(5488.00 4080.00) rotate(114) scale(1296.00 112.00)"><ellipse cx="0" cy="0" rx="1" ry="1" fill="rgb(255,255,234)" fill-opacity="0.502"/></g>
<g transform="translate(2208.00 592.00) rotate(259) scale(768.00 1168.00)"><ellipse cx="0" cy="0" rx="1" ry="1" fill="rgb(143,51,23)" fill-opacity="0.502"/></g>
<circle cx="1488.00" cy="1696.00" r="416.00" fill="rgb(255,255,255)" fill-opacity="0.502"/>
<circle cx="4512.00" cy="2048.00" r="448.00" fill="rgb(255,255,255)" fill-opacity="0.502"/>
<circle cx="4688.00" cy="2848.00" r="512.00" fill="rgb(223,174,123)" fill-opacity="0.502"/>
<circle cx="6672.00" cy="2672.00" r="448.00" fill="rgb(87,44,25)" fill-opacity="0.502"/>
<circle cx="2544.00" cy="3888.00" r="624.00" fill="rgb(58,12,0)" fill-opacity="0.502"/>
<circle cx="1760.00" cy="3584.00" r="496.00" fill="rgb(171,81,48)" fill-opacity="0.502"/>
<circle cx="1744.00" cy="1872.00" r="512.00" fill="rgb(255,255,255)" fill-opacity="0.502"/>
<polygon points="4243.58,1786.49 3220.98,1732.90 3244.42,1285.51 4267.02,1339.10" fill="rgb(255,249,255)" fill-opacity="0.502"/>
<g transform="translate(7904.00 1760.00) rotate(360) scale(816.00 4592.00)"><ellipse cx="0" cy="0" rx="1" ry="1" fill="rgb(0,0,0)" fill-opacity="0.502"/></g>
<circle cx="4624.00" cy="3936.00" r="640.00" fill="rgb(0,0,0)" fill-opacity="0.502"/>
<g transform="translate(1616.00 448.00) rotate(14) scale(496.00 960.00)"><ellipse cx="0" cy="0" rx="1" ry="1" fill="rgb(170,95,74)" fill-opacity="0.502"/></g>
<polygon points="2564.73,1216.05 2747.30,1607.57 2283.27,1823.95 2100.70,1432.43" fill="rgb(255,255,255)" fill-opacity="0.502"/>
<circle cx="2496.00" cy="688.00" r="592.00" fill="rgb(105,46,26)" fill-opacity="0.502"/>
<g transform="translate(5760.00 1392.00) rotate(57) scale(1248.00 496.00)"><ellipse cx="0" cy="0" rx="1" ry="1" fill="rgb(17,2,3)" fill-opacity="0.502"/></g>
<g transform="translate(1408.00 2032.00) rotate(138) scale(368.00 208.00)"><ellipse cx="0" cy="0" rx="1" ry="1" fill="rgb(255,255,255)" fill-opacity="0.502"/></g>
<g transform="translate(3744.00 1968.00) rotate(11) scale(464.00 208.00)"><ellipse cx="0" cy="0" rx="1" ry="1" fill="rgb(82,12,0)" fill-opacity="0.502"/></g>
<g transform="translate(3504.00 2976.00) rotate(279) scale(320.00 1024.00)"><ellipse cx="0" cy="0" rx="1" ry="1" fill="rgb(156,113,74)" fill-opacity="0.502"/></g>
<circle cx="5280.00" cy="4432.00" r="224.00" fill="rgb(193,135,103)" fill-opacity="0.502"/>
<circle cx="560.00" cy="2880.00" r="544.00" fill="rgb(0,0,0)" fill-opacity="0.502"/>
<circle cx="6784.00" cy="1696.00" r="320.00" fill="rgb(239,221,240)" fill-opacity="0.502"/>
<circle cx="5104.00" cy="1536.00" r="96.00" fill="rgb(255,255,255)" fill-opacity="0.502"/>
<circle cx="416.00" cy="432.00" r="704.00" fill="rgb(0,0,0)" fill-opacity="0.502"/>
<circle cx="1584.00" cy="4592.00" r="640.00" fill="rgb(27,0,0)" fill-opacity="0.502"/>
<polygon points="2116.08,3566.89 2347.39,4111.83 2155.92,4193.11 1924.61,3648.17" fill="rgb(199,133,101)" fill-opacity="0.502"/>
<g transform="translate(4960.00 3040.00) rotate(128) scale(176.00 848.00)"><ellipse cx="0" cy="0" rx="1" ry="1" fill="rgb(180,131,91)" fill-opacity="0.502"/></g>
<circle cx="2720.00" cy="2224.00" r="480.00" fill="rgb(193,110,71)" fill-opacity="0.502"/>
<circle cx="1344.00" cy="1344.00" r="256.00" fill="rgb(243,196,199)" fill-opacity="0.502"/>
<g transform="translate(4544.00 2016.00) rotate(212) scale(336.00 624.00)"><ellipse cx="0" cy="0" rx="1" ry="1" fill="rgb(255,255,255)" fill-opacity="0.502"/></g>
<g transform="translate(3312.00 1968.00) rotate(94) scale(240.00 448.00)"><ellipse cx="0" cy="0" rx="1" ry="1" fill="rgb(139,62,27)" fill-opacity="0.502"/></g>
<circle cx="3520.00" cy="2336.00" r="160.00" fill="rgb(255,255,255)" fill-opacity="0.502"/>
<g transform="translate(2000.00 2704.00) rotate(259) scale(560.00 912.00)"><ellipse cx="0" cy="0" rx="1" ry="1" fill="rgb(194,143,112)" fill-opacity="0.502"/></g>
<g transform="translate(6128.00 4368.00) rotate(207) scale(528.00 1904.00)"><ellipse cx="0" cy="0" rx="1" ry="1" fill="rgb(60,29,17)" fill-opacity="0.502"/></g>
<polygon points="5175.87,3154.36 5011.70,2703.31 5192.13,2637.64 5356.30,3088.69" fill="rgb(232,15,0)" fill-opacity="0.502"/>
<circle cx="3856.00" cy="528.00" r="816.00" fill="rgb(73,30,8)" fill-opacity="0.502"/>
<g transform="translate(4304.00 1088.00) rotate(126) scale(288.00 544.00)"><ellipse cx="0" cy="0" rx="1" ry="1" fill="rgb(60,27,13)" fill-opacity="0.502"/></g>
<circle cx="7776.00" cy="1712.00" r="704.00" fill="rgb(0,0,0)" fill-opacity="0.502"/>
<g transform="translate(1360.00 3824.00) rotate(162) scale(208.00 512.00)"><ellipse cx="0" cy="0" rx="1" ry="1" fill="rgb(103,35,17)" fill-opacity="0.502"/></g>
<circle cx="7168.00" cy="0.00" r="1344.00" fill="rgb(0,0,0)" fill-opacity="0.502"/>
<circle cx="176.00" cy="3824.00" r="928.00" fill="rgb(0,0,0)" fill-opacity="0.502"/>
<g transform="translate(2944.00 3776.00) rotate(16) scale(800.00 448.00)"><ellipse cx="0" cy="0" rx="1" ry="1" fill="rgb(27,3,0)" fill-opacity="0.502"/></g>
<g transform="translate(6592.00 1520.00) rotate(102) scale(80.00 368.00)"><ellipse cx="0" cy="0" rx="1" ry="1" fill="rgb(205,184,240)" fill-opacity="0.502"/></g>
<circle cx="1728.00" cy="3632.00" r="336.00" fill="rgb(174,94,67)" fill-opacity="0.502"/>
<g transform="translate(2784.00 1536.00) rotate(347) scale(640.00 208.00)"><ellipse cx="0" cy="0" rx="1" ry="1" fill="rgb(255,255,255)" fill-opacity="0.502"/></g>
<polygon points="3344.00,1776.00 1216.00,1776.00 1216.00,1392.00 3344.00,1392.00" fill="rgb(255,249,255)" fill-opacity="0.502"/>
<g transform="translate(6192.00 4496.00) rotate(168) scale(448.00 400.00)"><ellipse cx="0" cy="0" rx="1" ry="1" fill="rgb(17,6,6)" fill-opacity="0.502"/></g>
<circle cx="4480.00" cy="4144.00" r="656.00" fill="rgb(15,4,9)" fill-opacity="0.502"/>
<g transform="translate(5488.00 3296.00) rotate(178) scale(64.00 624.00)"><ellipse cx="0" cy="0" rx="1" ry="1" fill="rgb(75,9,0)" fill-opacity="0.502"/></g>
<circle cx="3696.00" cy="4592.00" r="1312.00" fill="rgb(25,10,9)" fill-opacity="0.502"/>
<g transform="translate(2768.00 1904.00) rotate(102) scale(64.00 496.00)"><ellipse cx="0" cy="0" rx="1" ry="1" fill="rgb(209,95,70)" fill-opacity="0.502"/></g>
<g transform="translate(3616.00 2912.00) rotate(350) scale(1136.00 352.00)"><ellipse cx="0" cy="0" rx="1" ry="1" fill="rgb(158,126,94)" fill-opacity="0.502"/></g>
<circle cx="192.00" cy="1504.00" r="912.00" fill="rgb(0,0,0)" fill-opacity="0.502"/>
<g transform="translate(4720.00 3120.00) rotate(359) scale(416.00 112.00)"><ellipse cx="0" cy="0" rx="1" ry="1" fill="rgb(82,60,20)" fill-opacity="0.502"/></g>
<g transform="translate(6896.00 3520.00) rotate(266) scale(1104.00 176.00)"><ellipse cx="0" cy="0" rx="1" ry="1" fill="rgb(64,32,20)" fill-opacity="0.502"/></g>
<circle cx="1280.00" cy="2048.00" r="192.00" fill="rgb(236,245,249)" fill-opacity="0.502"/>
<g transform="translate(5376.00 960.00) rotate(0) scale(960.00 448.00)"><ellipse cx="0" cy="0" rx="1" ry="1" fill="rgb(25,9,8)" fill-opacity="0.502"/></g>
<polygon points="3730.01,3116.48 3741.17,3276.09 3405.99,3299.52 3394.83,3139.91" fill="rgb(225,193,164)" fill-opacity="0.502"/>
<g transform="translate(1968.00 2896.00) rotate(162) scale(256.00 432.00)"><ellipse cx="0" cy="0" rx="1" ry="1" fill="rgb(199,151,121)" fill-opacity="0.502"/></g>
<g transform="translate(5472.00 3696.00) rotate(197) scale(96.00 1008.00)"><ellipse cx="0" cy="0" rx="1" ry="1" fill="rgb(88,43,25)" fill-opacity="0.502"/></g>
<g transform="translate(1296.00 1136.00) rotate(18) scale(208.00 208.00)"><ellipse cx="0" cy="0" rx="1" ry="1" fill="rgb(202,123,102)" fill-opacity="0.502"/></g>
<circle cx="2688.00" cy="448.00" r="848.00" fill="rgb(118,59,39)" fill-opacity="0.502"/>
<circle cx="4992.00" cy="272.00" r="368.00" fill="rgb(72,32,13)" fill-opacity="0.502"/>
<g transform="translate(5600.00 2656.00) rotate(41) scale(416.00 416.00)"><ellipse cx="0" cy="0" rx="1" ry="1" fill="rgb(36,11,2)" fill-opacity="0.502"/></g>
<polygon points="1452.95,3613.26 1295.59,3025.98 1651.05,2930.74 1808.41,3518.02" fill="rgb(140,64,44)" fill-opacity="0.502"/>
<circle cx="464.00" cy="4336.00" r="672.00" fill="rgb(0,0,0)" fill-opacity="0.502"/>
<g transform="translate(2240.00 384.00) rotate(322) scale(816.00 432.00)"><ellipse cx="0" cy="0" rx="1" ry="1" fill="rgb(132,65,46)" fill-opacity="0.502"/></g>
<g transform="translate(6336.00 544.00) rotate(258) scale(816.00 752.00)"><ellipse cx="0" cy="0" rx="1" ry="1" fill="rgb(33,14,13)" fill-opacity="0.502"/></g>
<polygon points="3620.78,2394.18 3843.07,2163.99 4027.22,2341.82 3804.93,2572.01" fill="rgb(255,255,255)" fill-opacity="0.502"/>
<polygon points="5229.69,3346.15 5217.96,3681.95 4642.31,3661.85 4654.04,3326.05" fill="rgb(29,12,3)" fill-opacity="0.502"/>
<g transform="translate(3232.00 1920.00) rotate(105) scale(96.00 496.00)"><ellipse cx="0" cy="0" rx="1" ry="1" fill="rgb(137,66,39)" fill-opacity="0.502"/></g>
<circle cx="2816.00" cy="2064.00" r="256.00" fill="rgb(226,134,105)" fill-opacity="0.502"/>
<circle cx="4528.00" cy="2176.00" r="384.00" fill="rgb(242,255,253)" fill-opacity="0.502"/>
<circle cx="3360.00" cy="1872.00" r="208.00" fill="rgb(129,80,61)" fill-opacity="0.502"/>
<circle cx="2624.00" cy="2832.00" r="352.00" fill="rgb(151,102,75)" fill-opacity="0.502"/>
<circle cx="7744.00" cy="3920.00" r="688.00" fill="rgb(0,0,0)" fill-opacity="0.502"/>
<polygon points="6580.62,2456.86 6571.69,2201.01 7083.38,2183.14 7092.31,2438.99" fill="rgb(178,109,71)" fill-opacity="0.502"/>
<circle cx="1824.00" cy="1776.00" r="400.00" fill="rgb(255,255,255)" fill-opacity="0.502"/>
<polygon points="6019.34,2952.07 7141.82,3211.21 6972.66,3943.93 5850.18,3684.79" fill="rgb(66,37,22)" fill-opacity="0.502"/>
<circle cx="1552.00" cy="1120.00" r="272.00" fill="rgb(176,93,73)" fill-opacity="0.502"/>
<polygon points="5091.37,2784.80 5038.58,2485.42 5164.63,2463.20 5217.42,2762.58" fill="rgb(221,56,22)" fill-opacity="0.502"/>
<polygon points="3168.00,2752.00 3264.00,2752.00 3264.00,3248.00 3168.00,3248.00" fill="rgb(70,10,0)" fill-opacity="0.502"/>
<polygon points="3836.42,3112.81 4250.46,2563.35 4531.58,2775.19 4117.54,3324.65" fill="rgb(171,155,124)" fill-opacity="0.502"/>
<g transform="translate(7552.00 2048.00) rotate(181) scale(464.00 4208.00)"><ellipse cx="0" cy="0" rx="1" ry="1" fill="rgb(0,0,0)" fill-opacity="0.502"/></g>
<circle cx="4384.00" cy="2752.00" r="256.00" fill="rgb(160,147,119)" fill-opacity="0.502"/>
<polygon points="5406.32,3756.38 5363.08,3552.93 5425.68,3539.62 5468.92,3743.07" fill="rgb(255,223,196)" fill-opacity="0.502"/>
<polygon points="1520.00,1360.00 1520.00,1552.00 1104.00,1552.00 1104.00,1360.00" fill="rgb(252,247,255)" fill-opacity="0.502"/>
<circle cx="2896.00" cy="2480.00" r="352.00" fill="rgb(170,139,112)" fill-opacity="0.502"/>
<g transform="translate(272.00 3232.00) rotate(274) scale(2688.00 816.00)"><ellipse cx="0" cy="0" rx="1" ry="1" fill="rgb(0,0,0)" fill-opacity="0.502"/></g>
<polygon points="6645.03,2180.45 6530.35,1881.70 6858.97,1755.55 6973.65,2054.30" fill="rgb(255,255,253)" fill-opacity="0.502"/>
<circle cx="5024.00" cy="2144.00" r="112.00" fill="rgb(81,10,0)" fill-opacity="0.502"/>
<g transform="translate(3744.00 336.00) rotate(170) scale(640.00 144.00)"><ellipse cx="0" cy="0" rx="1" ry="1" fill="rgb(106,59,40)" fill-opacity="0.502"/></g>
<g transform="translate(5616.00 3824.00) rotate(293) scale(896.00 48.00)"><ellipse cx="0" cy="0" rx="1" ry="1" fill="rgb(255,255,255)" fill-opacity="0.502"/></g>
<circle cx="3056.00" cy="688.00" r="608.00" fill="rgb(102,50,30)" fill-opacity="0.502"/>
<g transform="translate(688.00 48.00) rotate(149) scale(384.00 496.00)"><ellipse cx="0" cy="0" rx="1" ry="1" fill="rgb(0,0,0)" fill-opacity="0.502"/></g>
<g transform="translate(4992.00 1664.00) rotate(327) scale(384.00 96.00)"><ellipse cx="0" cy="0" rx="1" ry="1" fill="rgb(255,194,181)" fill-opacity="0.502"/></g>
<g transform="translate(5232.00 3184.00) rotate(58) scale(112.00 80.00)"><ellipse cx="0" cy="0" rx="1" ry="1" fill="rgb(255,255,212)" fill-opacity="0.502"/></g>
<circle cx="5312.00" cy="3376.00" r="96.00" fill="rgb(255,166,128)" fill-opacity="0.502"/>
<circle cx="2240.00" cy="4256.00" r="160.00" fill="rgb(150,96,74)" fill-opacity="0.502"/>
<g transform="translate(1984.00 2400.00) rotate(277) scale(160.00 752.00)"><ellipse cx="0" cy="0" rx="1" ry="1" fill="rgb(203,162,138)" fill-opacity="0.502"/></g>
<circle cx="3856.00" cy="3232.00" r="80.00" fill="rgb(233,206,182)" fill-opacity="0.502"/>
<g transform="translate(2368.00 3120.00) rotate(11) scale(464.00 176.00)"><ellipse cx="0" cy="0" rx="1" ry="1" fill="rgb(196,155,125)" fill-opacity="0.502"/></g>
<circle cx="6304.00" cy="2816.00" r="192.00" fill="rgb(28,14,9)" fill-opacity="0.502"/>
<g transform="translate(5184.00 1856.00) rotate(192) scale(240.00 272.00)"><ellipse cx="0" cy="0" rx="1" ry="1" fill="rgb(62,18,4)" fill-opacity="0.502"/></g>
<g transform="translate(5184.00 1248.00) rotate(272) scale(224.00 624.00)"><ellipse cx="0" cy="0" rx="1" ry="1" fill="rgb(54,25,16)" fill-opacity="0.502"/></g>
<g transform="translate(7904.00 1552.00) rotate(358) scale(816.00 3760.00)"><ellipse cx="0" cy="0" rx="1" ry="1" fill="rgb(0,0,0)" fill-opacity="0.502"/></g>
<polygon points="3467.96,1710.50 3769.96,1563.21 3812.04,1649.50 3510.04,1796.79" fill="rgb(255,255,255)" fill-opacity="0.502"/>
<polygon points="5338.32,3428.55 5420.24,3504.94 5365.68,3563.45 5283.76,3487.06" fill="rgb(255,199,175)" fill-opacity="0.502"/>
<g transform="translate(2480.00 2032.00) rotate(317) scale(208.00 272.00)"><ellipse cx="0" cy="0" rx="1" ry="1" fill="rgb(165,103,77)" fill-opacity="0.502"/></g>
<circle cx="1440.00" cy="4384.00" r="352.00" fill="rgb(47,15,2)" fill-opacity="0.502"/>
<polygon points="3728.00,3184.00 4976.00,3184.00 4976.00,3296.00 3728.00,3296.00" fill="rgb(189,150,126)" fill-opacity="0.502"/>
<circle cx="4512.00" cy="2000.00" r="384.00" fill="rgb(243,249,246)" fill-opacity="0.502"/>
<g transform="translate(4752.00 2656.00) rotate(86) scale(128.00 304.00)"><ellipse cx="0" cy="0" rx="1" ry="1" fill="rgb(138,108,69)" fill-opacity="0.502"/></g>
<g transform="translate(1296.00 240.00) rotate(360) scale(192.00 1120.00)"><ellipse cx="0" cy="0" rx="1" ry="1" fill="rgb(167,102,79)" fill-opacity="0.502"/></g>
<polygon points="5346.28,4440.50 5013.72,4632.50 4957.72,4535.50 5290.28,4343.50" fill="rgb(154,119,101)" fill-opacity="0.502"/>
<polygon points="7039.60,1375.71 7116.63,1477.94 6784.40,1728.29 6707.37,1626.06" fill="rgb(204,181,218)" fill-opacity="0.502"/>
<g transform="translate(5024.00 2192.00) rotate(258) scale(320.00 64.00)"><ellipse cx="0" cy="0" rx="1" ry="1" fill="rgb(120,54,27)" fill-opacity="0.502"/></g>
<polygon points="1105.52,1602.21 1217.45,1598.30 1246.48,2429.79 1134.55,2433.70" fill="rgb(255,255,255)" fill-opacity="0.502"/>
<circle cx="1264.00" cy="3728.00" r="176.00" fill="rgb(150,79,63)" fill-opacity="0.502"/>
<polygon points="2158.05,3732.28 2236.00,3714.28 2433.95,4571.72 2356.00,4589.72" fill="rgb(151,106,81)" fill-opacity="0.502"/>
<polygon points="2863.63,2868.77 2847.72,3172.35 2368.37,3147.23 2384.28,2843.65" fill="rgb(140,89,61)" fill-opacity="0.502"/>
<polygon points="4165.34,2128.75 4028.38,2173.24 3914.66,1823.25 4051.62,1778.76" fill="rgb(64,19,0)" fill-opacity="0.502"/>
<circle cx="2064.00" cy="1072.00" r="352.00" fill="rgb(152,75,58)" fill-opacity="0.502"/>
<polygon points="4363.86,2567.60 3910.01,2411.33 3988.14,2184.40 4441.99,2340.67" fill="rgb(250,255,255)" fill-opacity="0.502"/>
<polygon points="1408.77,3868.47 1269.15,4120.37 1087.23,4019.53 1226.85,3767.63" fill="rgb(69,15,0)" fill-opacity="0.502"/>
<circle cx="1456.00" cy="2592.00" r="368.00" fill="rgb(201,150,129)" fill-opacity="0.502"/>
<polygon points="1911.51,2943.30 1523.23,2753.93 1656.49,2480.70 2044.77,2670.07" fill="rgb(177,116,93)" fill-opacity="0.502"/>
<g transform="translate(3664.00 4432.00) rotate(337) scale(1872.00 544.00)"><ellipse cx="0" cy="0" rx="1" ry="1" fill="rgb(22,11,13)" fill-opacity="0.502"/></g>
<polygon points="3697.91,1486.91 3419.35,1674.80 3294.09,1489.09 3572.65,1301.20" fill="rgb(254,208,216)" fill-opacity="0.502"/>
<circle cx="32.00" cy="880.00" r="1072.00" fill="rgb(0,0,0)" fill-opacity="0.502"/>
<circle cx="2304.00" cy="2688.00" r="272.00" fill="rgb(181,125,98)" fill-opacity="0.502"/>
<g transform="translate(3136.00 1744.00) rotate(96) scale(32.00 144.00)"><ellipse cx="0" cy="0" rx="1" ry="1" fill="rgb(255,255,255)" fill-opacity="0.502"/></g>
<circle cx="2320.00" cy="384.00" r="672.00" fill="rgb(127,65,44)" fill-opacity="0.502"/>
<polygon points="2531.86,1845.94 2639.52,1815.07 2732.14,2138.06 2624.48,2168.93" fill="rgb(255,172,150)" fill-opacity="0.502"/>
<polygon points="4468.83,3568.10 3808.67,4047.73 3611.17,3775.90 4271.33,3296.27" fill="rgb(40,22,16)" fill-opacity="0.502"/>
<polygon points="3792.25,1059.53 3399.06,1334.85 3279.75,1164.47 3672.94,889.15" fill="rgb(101,49,31)" fill-opacity="0.502"/>
<polygon points="6929.23,2854.96 6910.25,3398.63 6062.77,3369.04 6081.75,2825.37" fill="rgb(47,28,18)" fill-opacity="0.502"/>
<polygon points="5539.08,3562.78 5619.64,3640.58 5452.92,3813.22 5372.36,3735.42" fill="rgb(185,108,88)" fill-opacity="0.502"/>
<polygon points="4986.01,1831.46 4843.09,1813.91 4885.99,1464.54 5028.91,1482.09" fill="rgb(255,232,229)" fill-opacity="0.502"/>
<g transform="translate(5712.00 2720.00) rotate(138) scale(416.00 256.00)"><ellipse cx="0" cy="0" rx="1" ry="1" fill="rgb(36,21,15)" fill-opacity="0.502"/></g>
<polygon points="3570.86,2743.23 3667.63,3131.35 3357.14,3208.77 3260.37,2820.65" fill="rgb(146,99,76)" fill-opacity="0.502"/>
<circle cx="4000.00" cy="880.00" r="448.00" fill="rgb(70,36,20)" fill-opacity="0.502"/>
<g transform="translate(3744.00 1408.00) rotate(182) scale(496.00 112.00)"><ellipse cx="0" cy="0" rx="1" ry="1" fill="rgb(252,193,211)" fill-opacity="0.502"/></g>
<g transform="translate(3584.00 1680.00) rotate(115) scale(64.00 224.00)"><ellipse cx="0" cy="0" rx="1" ry="1" fill="rgb(255,255,242)" fill-opacity="0.502"/></g>
<polygon points="5279.71,4187.64 5224.29,4155.64 5376.29,3892.36 5431.71,3924.36" fill="rgb(208,189,167)" fill-opacity="0.502"/>
<g transform="translate(2848.00 1552.00) rotate(284) scale(208.00 480.00)"><ellipse cx="0" cy="0" rx="1" ry="1" fill="rgb(254,233,229)" fill-opacity="0.502"/></g>
<g transform="translate(2080.00 4592.00) rotate(253) scale(560.00 192.00)"><ellipse cx="0" cy="0" rx="1" ry="1" fill="rgb(50,18,8)" fill-opacity="0.502"/></g>
<g transform="translate(4400.00 128.00) rotate(260) scale(1120.00 240.00)"><ellipse cx="0" cy="0" rx="1" ry="1" fill="rgb(43,21,13)" fill-opacity="0.502"/></g>
<polygon points="2021.33,3264.94 2432.21,3330.02 2394.67,3567.06 1983.79,3501.98" fill="rgb(52,10,0)" fill-opacity="0.502"/>
<polygon points="6734.88,1439.02 6511.21,1107.40 6657.12,1008.98 6880.79,1340.60" fill="rgb(54,19,15)" fill-opacity="0.502"/>
<polygon points="6595.02,2217.74 5970.86,2607.76 5724.98,2214.26 6349.14,1824.24" fill="rgb(39,25,16)" fill-opacity="0.502"/>
<g transform="translate(3376.00 832.00) rotate(288) scale(320.00 528.00)"><ellipse cx="0" cy="0" rx="1" ry="1" fill="rgb(91,45,27)" fill-opacity="0.502"/></g>
<g transform="translate(4304.00 3136.00) rotate(22) scale(272.00 80.00)"><ellipse cx="0" cy="0" rx="1" ry="1" fill="rgb(128,67,37)" fill-opacity="0.502"/></g>
<polygon points="2958.60,2165.43 2935.33,2207.41 2753.40,2106.57 2776.67,2064.59" fill="rgb(153,50,17)" fill-opacity="0.502"/>
<polygon points="1680.00,3856.00 2096.00,3856.00 2096.00,4224.00 1680.00,4224.00" fill="rgb(104,50,26)" fill-opacity="0.502"/>
<polygon points="5182.08,2761.58 5471.89,3013.51 5345.92,3158.42 5056.11,2906.49" fill="rgb(154,36,2)" fill-opacity="0.502"/>
<circle cx="4128.00" cy="1680.00" r="176.00" fill="rgb(243,227,223)" fill-opacity="0.502"/>
<g transform="translate(1456.00 3808.00) rotate(154) scale(64.00 544.00)"><ellipse cx="0" cy="0" rx="1" ry="1" fill="rgb(102,43,26)" fill-opacity="0.502"/></g>
<polygon points="7098.92,1589.70 6868.26,1733.83 6741.08,1530.30 6971.74,1386.17" fill="rgb(185,166,198)" fill-opacity="0.502"/>
<g transform="translate(6528.00 4064.00) rotate(153) scale(496.00 560.00)"><ellipse cx="0" cy="0" rx="1" ry="1" fill="rgb(37,19,14)" fill-opacity="0.502"/></g>
<polygon points="3908.24,2802.54 3930.55,3057.57 3611.76,3085.46 3589.45,2830.43" fill="rgb(130,96,69)" fill-opacity="0.502"/>
<g transform="translate(6736.00 1536.00) rotate(102) scale(96.00 352.00)"><ellipse cx="0" cy="0" rx="1" ry="1" fill="rgb(183,165,198)" fill-opacity="0.502"/></g>
<g transform="translate(6784.00 2736.00) rotate(191) scale(320.00 288.00)"><ellipse cx="0" cy="0" rx="1" ry="1" fill="rgb(36,20,12)" fill-opacity="0.502"/></g>
<circle cx="5200.00" cy="848.00" r="400.00" fill="rgb(23,13,13)" fill-opacity="0.502"/>
<polygon points="3408.14,2203.95 4108.29,2277.54 4079.86,2548.05 3379.71,2474.46" fill="rgb(249,255,255)" fill-opacity="0.502"/>
<circle cx="5584.00" cy="2848.00" r="336.00" fill="rgb(48,22,13)" fill-opacity="0.502"/>
<polygon points="3088.00,0.00 4016.00,0.00 4016.00,192.00 3088.00,192.00" fill="rgb(55,18,10)" fill-opacity="0.502"/>
<g transform="translate(3280.00 3472.00) rotate(175) scale(1200.00 144.00)"><ellipse cx="0" cy="0" rx="1" ry="1" fill="rgb(49,16,1)" fill-opacity="0.502"/></g>
<polygon points="1430.62,3634.24 1220.91,3781.08 1193.38,3741.76 1403.09,3594.92" fill="rgb(213,151,125)" fill-opacity="0.502"/>
<circle cx="4560.00" cy="1744.00" r="272.00" fill="rgb(244,227,229)" fill-opacity="0.502"/>
<polygon points="3304.87,2188.04 3303.20,2092.06 3767.13,2083.96 3768.80,2179.94" fill="rgb(104,54,21)" fill-opacity="0.502"/>
<polygon points="4062.11,3024.65 4180.32,3175.95 4129.89,3215.35 4011.68,3064.05" fill="rgb(133,67,34)" fill-opacity="0.502"/>
<g transform="translate(3056.00 4048.00) rotate(150) scale(720.00 640.00)"><ellipse cx="0" cy="0" rx="1" ry="1" fill="rgb(37,17,12)" fill-opacity="0.502"/></g>
<polygon points="4135.18,2491.80 4216.33,2665.82 4056.82,2740.20 3975.67,2566.18" fill="rgb(164,157,114)" fill-opacity="0.502"/>
<g transform="translate(2848.00 720.00) rotate(194) scale(256.00 576.00)"><ellipse cx="0" cy="0" rx="1" ry="1" fill="rgb(117,58,37)" fill-opacity="0.502"/></g>
<polygon points="4795.58,1523.00 4923.88,1457.62 5076.42,1757.00 4948.12,1822.38" fill="rgb(233,190,187)" fill-opacity="0.502"/>
<circle cx="2560.00" cy="3664.00" r="368.00" fill="rgb(58,25,14)" fill-opacity="0.502"/>
<g transform="translate(2336.00 128.00) rotate(184) scale(576.00 256.00)"><ellipse cx="0" cy="0" rx="1" ry="1" fill="rgb(132,73,52)" fill-opacity="0.502"/></g>
<circle cx="4992.00" cy="2496.00" r="64.00" fill="rgb(255,247,230)" fill-opacity="0.502"/>
<g transform="translate(1168.00 3056.00) rotate(91) scale(272.00 64.00)"><ellipse cx="0" cy="0" rx="1" ry="1" fill="rgb(227,182,159)" fill-opacity="0.502"/></g>
<polygon points="4640.47,2080.24 4515.30,1914.12 4847.53,1663.76 4972.70,1829.88" fill="rgb(250,255,251)" fill-opacity="0.502"/>
<polygon points="2314.95,1224.20 2359.80,858.95 2725.05,903.80 2680.20,1269.05" fill="rgb(139,76,52)" fill-opacity="0.502"/>
<g transform="translate(5648.00 304.00) rotate(100) scale(112.00 928.00)"><ellipse cx="0" cy="0" rx="1" ry="1" fill="rgb(67,32,17)" fill-opacity="0.502"/></g>
<polygon points="4466.89,2006.99 4409.12,2083.66 3949.11,1737.01 4006.88,1660.34" fill="rgb(247,255,247)" fill-opacity="0.502"/>
<circle cx="4832.00" cy="2368.00" r="160.00" fill="rgb(240,229,209)" fill-opacity="0.502"/>
<polygon points="2394.09,1897.70 2581.04,1988.88 2517.91,2118.30 2330.96,2027.12" fill="rgb(151,86,54)" fill-opacity="0.502"/>
<polygon points="1161.45,3059.22 1084.78,3001.45 1142.55,2924.78 1219.22,2982.55" fill="rgb(67,16,0)" fill-opacity="0.502"/>
<g transform="translate(5968.00 1920.00) rotate(171) scale(576.00 384.00)"><ellipse cx="0" cy="0" rx="1" ry="1" fill="rgb(22,14,11)" fill-opacity="0.502"/></g>
<g transform="translate(5344.00 2128.00) rotate(256) scale(544.00 224.00)"><ellipse cx="0" cy="0" rx="1" ry="1" fill="rgb(40,24,15)" fill-opacity="0.502"/></g>
<circle cx="2016.00" cy="1824.00" r="240.00" fill="rgb(255,255,255)" fill-opacity="0.502"/>
<polygon points="4200.01,1741.56 4172.65,1666.39 4743.99,1458.44 4771.35,1533.61" fill="rgb(221,189,196)" fill-opacity="0.502"/>
<polygon points="1641.38,527.41 1453.29,786.30 1142.62,560.59 1330.71,301.70" fill="rgb(124,69,51)" fill-opacity="0.502"/>
<g transform="translate(976.00 4544.00) rotate(91) scale(1152.00 128.00)"><ellipse cx="0" cy="0" rx="1" ry="1" fill="rgb(0,0,0)" fill-opacity="0.502"/></g>
<g transform="translate(5920.00 2976.00) rotate(47) scale(16.00 32.00)"><ellipse cx="0" cy="0" rx="1" ry="1" fill="rgb(222,198,192)" fill-opacity="0.502"/></g>
<circle cx="3264.00" cy="1376.00" r="96.00" fill="rgb(254,186,190)" fill-opacity="0.502"/>
<g transform="translate(2304.00 1520.00) rotate(299) scale(288.00 144.00)"><ellipse cx="0" cy="0" rx="1" ry="1" fill="rgb(248,237,241)" fill-opacity="0.502"/></g>
<g transform="translate(4832.00 2848.00) rotate(118) scale(32.00 80.00)"><ellipse cx="0" cy="0" rx="1" ry="1" fill="rgb(253,255,255)" fill-opacity="0.502"/></g>
<polygon points="1126.21,940.48 1334.08,947.74 1321.79,1299.52 1113.92,1292.26" fill="rgb(208,141,126)" fill-opacity="0.502"/>
<g transform="translate(3648.00 2656.00) rotate(282) scale(176.00 304.00)"><ellipse cx="0" cy="0" rx="1" ry="1" fill="rgb(181,134,102)" fill-opacity="0.502"/></g>
<g transform="translate(6768.00 1040.00) rotate(86) scale(384.00 336.00)"><ellipse cx="0" cy="0" rx="1" ry="1" fill="rgb(36,17,14)" fill-opacity="0.502"/></g>
<polygon points="3073.83,2301.28 3331.01,2212.72 3534.17,2802.72 3276.99,2891.28" fill="rgb(179,130,95)" fill-opacity="0.502"/>
<circle cx="624.00" cy="2400.00" r="464.00" fill="rgb(0,0,0)" fill-opacity="0.502"/>
<polygon points="3839.92,2102.85 3712.88,2087.25 3744.08,1833.15 3871.12,1848.75" fill="rgb(247,210,155)" fill-opacity="0.502"/>
<g transform="translate(1024.00 1728.00) rotate(299) scale(64.00 80.00)"><ellipse cx="0" cy="0" rx="1" ry="1" fill="rgb(0,0,0)" fill-opacity="0.502"/></g>
<circle cx="4528.00" cy="2016.00" r="384.00" fill="rgb(240,248,244)" fill-opacity="0.502"/>
<g transform="translate(1840.00 4384.00) rotate(181) scale(80.00 320.00)"><ellipse cx="0" cy="0" rx="1" ry="1" fill="rgb(38,11,2)" fill-opacity="0.502"/></g>
<polygon points="2743.16,897.11 2957.41,1253.69 2888.84,1294.89 2674.59,938.31" fill="rgb(125,62,40)" fill-opacity="0.502"/>
<polygon points="1360.00,1408.00 2176.00,1408.00 2176.00,2128.00 1360.00,2128.00" fill="rgb(254,251,255)" fill-opacity="0.502"/>
<g transform="translate(5952.00 3632.00) rotate(193) scale(128.00 464.00)"><ellipse cx="0" cy="0" rx="1" ry="1" fill="rgb(96,55,36)" fill-opacity="0.502"/></g>
<circle cx="752.00" cy="576.00" r="352.00" fill="rgb(0,0,0)" fill-opacity="0.502"/>
<circle cx="4592.00" cy="2816.00" r="80.00" fill="rgb(224,231,194)" fill-opacity="0.502"/>
<circle cx="3520.00" cy="1968.00" r="192.00" fill="rgb(144,94,61)" fill-opacity="0.502"/>
<polygon points="2229.98,3989.06 1859.16,3371.90 1914.02,3338.94 2284.84,3956.10" fill="rgb(188,137,110)" fill-opacity="0.502"/>
<polygon points="2977.66,3243.87 3095.43,3113.07 3214.34,3220.13 3096.57,3350.93" fill="rgb(222,183,152)" fill-opacity="0.502"/>
<g transform="translate(3968.00 1520.00) rotate(108) scale(160.00 432.00)"><ellipse cx="0" cy="0" rx="1" ry="1" fill="rgb(234,202,212)" fill-opacity="0.502"/></g>
<polygon points="4544.00,3216.00 5232.00,3216.00 5232.00,3328.00 4544.00,3328.00" fill="rgb(154,111,78)" fill-opacity="0.502"/>
<g transform="translate(2704.00 1168.00) rotate(282) scale(32.00 656.00)"><ellipse cx="0" cy="0" rx="1" ry="1" fill="rgb(132,68,45)" fill-opacity="0.502"/></g>
<circle cx="5856.00" cy="896.00" r="368.00" fill="rgb(20,12,13)" fill-opacity="0.502"/>
<g transform="translate(4560.00 2864.00) rotate(0) scale(544.00 32.00)"><ellipse cx="0" cy="0" rx="1" ry="1" fill="rgb(255,255,255)" fill-opacity="0.502"/></g>
<circle cx="6672.00" cy="2080.00" r="128.00" fill="rgb(251,255,250)" fill-opacity="0.502"/>
<polygon points="1933.72,2311.50 2266.28,2119.50 2322.28,2216.50 1989.72,2408.50" fill="rgb(213,185,158)" fill-opacity="0.502"/>
<g transform="translate(5680.00 0.00) rotate(105) scale(208.00 1104.00)"><ellipse cx="0" cy="0" rx="1" ry="1" fill="rgb(20,7,6)" fill-opacity="0.502"/></g>
<circle cx="3056.00" cy="3664.00" r="368.00" fill="rgb(48,21,12)" fill-opacity="0.502"/>
<g transform="translate(5168.00 2192.00) rotate(160) scale(128.00 448.00)"><ellipse cx="0" cy="0" rx="1" ry="1" fill="rgb(71,36,21)" fill-opacity="0.502"/></g>
<circle cx="3952.00" cy="2064.00" r="96.00" fill="rgb(109,56,18)" fill-opacity="0.502"/>
<g transform="translate(3184.00 4288.00) rotate(42) scale(608.00 448.00)"><ellipse cx="0" cy="0" rx="1" ry="1" fill="rgb(24,10,9)" fill-opacity="0.502"/></g>
<polygon points="1482.54,3441.24 1517.38,3580.96 1253.46,3646.76 1218.62,3507.04" fill="rgb(76,7,0)" fill-opacity="0.502"/>
<polygon points="3966.43,1364.06 3970.61,1316.24 4241.57,1339.94 4237.39,1387.76" fill="rgb(244,185,182)" fill-opacity="0.502"/>
<polygon points="3567.82,2176.62 3182.90,1980.50 3328.18,1695.38 3713.10,1891.50" fill="rgb(130,72,47)" fill-opacity="0.502"/>
<circle cx="1392.00" cy="2912.00" r="32.00" fill="rgb(255,255,255)" fill-opacity="0.502"/>
<polygon points="5217.39,4715.10 5481.10,4149.57 5582.61,4196.90 5318.90,4762.43" fill="rgb(246,188,142)" fill-opacity="0.502"/>
<g transform="translate(2304.00 1280.00) rotate(212) scale(16.00 176.00)"><ellipse cx="0" cy="0" rx="1" ry="1" fill="rgb(141,87,75)" fill-opacity="0.502"/></g>
<circle cx="4544.00" cy="4304.00" r="416.00" fill="rgb(21,13,17)" fill-opacity="0.502"/>
<g transform="translate(5184.00 2848.00) rotate(336) scale(128.00 256.00)"><ellipse cx="0" cy="0" rx="1" ry="1" fill="rgb(180,35,9)" fill-opacity="0.502"/></g>
<polygon points="5100.54,4587.35 5251.83,4535.26 5267.46,4580.65 5116.17,4632.74" fill="rgb(46,16,0)" fill-opacity="0.502"/>
<circle cx="3072.00" cy="2320.00" r="160.00" fill="rgb(181,143,113)" fill-opacity="0.502"/>
<circle cx="4704.00" cy="2496.00" r="32.00" fill="rgb(94,81,34)" fill-opacity="0.502"/>
<polygon points="4882.48,2420.68 4847.87,2314.16 4893.52,2299.32 4928.13,2405.84" fill="rgb(155,106,75)" fill-opacity="0.502"/>
<g transform="translate(5344.00 1536.00) rotate(32) scale(96.00 112.00)"><ellipse cx="0" cy="0" rx="1" ry="1" fill="rgb(124,43,26)" fill-opacity="0.502"/></g>
<polygon points="5532.91,2289.74 5120.07,1779.93 5779.09,1246.26 6191.93,1756.07" fill="rgb(23,14,14)" fill-opacity="0.502"/>
<g transform="translate(4352.00 1312.00) rotate(164) scale(128.00 112.00)"><ellipse cx="0" cy="0" rx="1" ry="1" fill="rgb(67,28,9)" fill-opacity="0.502"/></g>
<g transform="translate(1744.00 3712.00) rotate(63) scale(80.00 320.00)"><ellipse cx="0" cy="0" rx="1" ry="1" fill="rgb(175,99,73)" fill-opacity="0.502"/></g>
<polygon points="1210.11,983.17 1482.91,1275.71 1365.89,1384.83 1093.09,1092.29" fill="rgb(189,127,111)" fill-opacity="0.502"/>
<circle cx="3952.00" cy="3232.00" r="80.00" fill="rgb(203,172,137)" fill-opacity="0.502"/>
<circle cx="1552.00" cy="2400.00" r="192.00" fill="rgb(211,167,143)" fill-opacity="0.502"/>
<g transform="translate(3840.00 576.00) rotate(23) scale(208.00 416.00)"><ellipse cx="0" cy="0" rx="1" ry="1" fill="rgb(87,45,25)" fill-opacity="0.502"/></g>
<polygon points="2153.28,3911.66 2449.28,4424.34 2310.72,4504.34 2014.72,3991.66" fill="rgb(130,77,53)" fill-opacity="0.502"/>
<polygon points="1718.87,3684.98 1845.47,3562.72 2201.13,3931.02 2074.53,4053.28" fill="rgb(131,61,35)" fill-opacity="0.502"/>
<g transform="translate(2144.00 3200.00) rotate(307) scale(144.00 96.00)"><ellipse cx="0" cy="0" rx="1" ry="1" fill="rgb(206,177,152)" fill-opacity="0.502"/></g>
<g transform="translate(3152.00 3504.00) rotate(320) scale(288.00 176.00)"><ellipse cx="0" cy="0" rx="1" ry="1" fill="rgb(57,24,11)" fill-opacity="0.502"/></g>
<circle cx="6352.00" cy="2560.00" r="48.00" fill="rgb(153,116,112)" fill-opacity="0.502"/>
<g transform="translate(3872.00 3600.00) rotate(7) scale(320.00 256.00)"><ellipse cx="0" cy="0" rx="1" ry="1" fill="rgb(42,25,20)" fill-opacity="0.502"/></g>
<circle cx="160.00" cy="2016.00" r="944.00" fill="rgb(0,0,0)" fill-opacity="0.502"/>
<g transform="translate(1568.00 3216.00) rotate(318) scale(208.00 320.00)"><ellipse cx="0" cy="0" rx="1" ry="1" fill="rgb(162,93,70)" fill-opacity="0.502"/></g>
<polygon points="2044.61,1328.10 1697.95,1389.23 1667.39,1215.90 2014.05,1154.77" fill="rgb(174,107,92)" fill-opacity="0.502"/>
<circle cx="6800.00" cy="3136.00" r="272.00" fill="rgb(60,32,21)" fill-opacity="0.502"/>
<g transform="translate(3936.00 2352.00) rotate(13) scale(368.00 160.00)"><ellipse cx="0" cy="0" rx="1" ry="1" fill="rgb(246,255,254)" fill-opacity="0.502"/></g>
<polygon points="2686.79,1267.52 1729.34,492.20 2001.21,156.48 2958.66,931.80" fill="rgb(124,60,40)" fill-opacity="0.502"/>
<g transform="translate(1952.00 3072.00) rotate(299) scale(160.00 400.00)"><ellipse cx="0" cy="0" rx="1" ry="1" fill="rgb(198,156,126)" fill-opacity="0.502"/></g>
<circle cx="3136.00" cy="1424.00" r="144.00" fill="rgb(253,203,211)" fill-opacity="0.502"/>
<polygon points="4272.00,2880.00 5024.00,2880.00 5024.00,2912.00 4272.00,2912.00" fill="rgb(36,19,0)" fill-opacity="0.502"/>
<circle cx="160.00" cy="176.00" r="944.00" fill="rgb(0,0,0)" fill-opacity="0.502"/>
<circle cx="2048.00" cy="3152.00" r="160.00" fill="rgb(195,166,137)" fill-opacity="0.502"/>
<circle cx="4160.00" cy="736.00" r="144.00" fill="rgb(38,19,7)" fill-opacity="0.502"/>
<circle cx="5120.00" cy="2528.00" r="48.00" fill="rgb(217,164,122)" fill-opacity="0.502"/>
<g transform="translate(5600.00 2656.00) rotate(109) scale(400.00 320.00)"><ellipse cx="0" cy="0" rx="1" ry="1" fill="rgb(40,24,17)" fill-opacity="0.502"/></g>
<polygon points="2253.15,2618.97 2804.18,2362.02 2898.85,2565.03 2347.82,2821.98" fill="rgb(173,130,103)" fill-opacity="0.502"/>
<polygon points="1291.55,3626.88 1267.05,3801.16 1124.45,3781.12 1148.95,3606.84" fill="rgb(185,123,107)" fill-opacity="0.502"/>
<polygon points="1131.86,1699.50 1108.42,1364.32 1220.14,1356.50 1243.58,1691.68" fill="rgb(255,255,255)" fill-opacity="0.502"/>
<polygon points="2966.03,3162.90 2855.72,3070.34 3225.97,2629.10 3336.28,2721.66" fill="rgb(137,86,59)" fill-opacity="0.502"/>
<polygon points="1219.34,3856.87 1212.64,4240.81 1116.66,4239.13 1123.36,3855.19" fill="rgb(71,26,9)" fill-opacity="0.502"/>
<g transform="translate(6768.00 1840.00) rotate(212) scale(384.00 64.00)"><ellipse cx="0" cy="0" rx="1" ry="1" fill="rgb(232,219,196)" fill-opacity="0.502"/></g>
<polygon points="2194.22,3659.62 2159.10,3325.46 2397.78,3300.38 2432.90,3634.54" fill="rgb(72,26,11)" fill-opacity="0.502"/>
<circle cx="2480.00" cy="2304.00" r="160.00" fill="rgb(185,143,114)" fill-opacity="0.502"/>
<polygon points="1310.76,1814.99 1329.18,2166.50 1281.24,2169.01 1262.82,1817.50" fill="rgb(153,149,153)" fill-opacity="0.502"/>
<circle cx="4032.00" cy="3600.00" r="304.00" fill="rgb(34,18,12)" fill-opacity="0.502"/>
<circle cx="4560.00" cy="1616.00" r="160.00" fill="rgb(227,196,201)" fill-opacity="0.502"/>
<circle cx="3424.00" cy="2240.00" r="64.00" fill="rgb(255,255,255)" fill-opacity="0.502"/>
<g transform="translate(7776.00 2400.00) rotate(30) scale(608.00 896.00)"><ellipse cx="0" cy="0" rx="1" ry="1" fill="rgb(0,0,0)" fill-opacity="0.502"/></g>
<polygon points="3443.04,1816.70 3840.06,1865.45 3804.96,2151.30 3407.94,2102.55" fill="rgb(156,104,69)" fill-opacity="0.502"/>
<polygon points="7075.07,1748.29 6981.30,1969.22 6892.93,1931.71 6986.70,1710.78" fill="rgb(210,170,127)" fill-opacity="0.502"/>
<polygon points="1599.01,3624.27 1790.28,3641.01 1760.99,3975.73 1569.72,3958.99" fill="rgb(181,107,82)" fill-opacity="0.502"/>
<polygon points="4767.68,102.55 5144.63,29.28 5184.32,233.45 4807.37,306.72" fill="rgb(81,45,26)" fill-opacity="0.502"/>
<circle cx="7504.00" cy="4448.00" r="432.00" fill="rgb(0,0,0)" fill-opacity="0.502"/>
<polygon points="4786.29,2804.38 5009.06,2827.79 5005.71,2859.62 4782.94,2836.21" fill="rgb(255,255,248)" fill-opacity="0.502"/>
<g transform="translate(4416.00 2016.00) rotate(328) scale(480.00 48.00)"><ellipse cx="0" cy="0" rx="1" ry="1" fill="rgb(241,248,245)" fill-opacity="0.502"/></g>
<polygon points="6466.99,2232.44 6479.24,2242.72 5965.01,2855.56 5952.76,2845.28" fill="rgb(116,93,79)" fill-opacity="0.502"/>
<polygon points="5513.15,3134.64 5383.71,3228.69 5270.85,3073.36 5400.29,2979.31" fill="rgb(114,55,25)" fill-opacity="0.502"/>
<g transform="translate(1408.00 96.00) rotate(29) scale(320.00 112.00)"><ellipse cx="0" cy="0" rx="1" ry="1" fill="rgb(142,76,53)" fill-opacity="0.502"/></g>
<circle cx="7840.00" cy="944.00" r="784.00" fill="rgb(0,0,0)" fill-opacity="0.502"/>
<circle cx="3984.00" cy="4352.00" r="544.00" fill="rgb(21,10,14)" fill-opacity="0.502"/>
<polygon points="6568.45,2354.23 6158.76,2572.06 6023.55,2317.77 6433.24,2099.94" fill="rgb(51,26,18)" fill-opacity="0.502"/>
<circle cx="3392.00" cy="1232.00" r="80.00" fill="rgb(117,60,36)" fill-opacity="0.502"/>
<circle cx="3808.00" cy="1680.00" r="112.00" fill="rgb(255,251,246)" fill-opacity="0.502"/>
<circle cx="1136.00" cy="3200.00" r="48.00" fill="rgb(255,238,210)" fill-opacity="0.502"/>
<g transform="translate(3024.00 3232.00) rotate(271) scale(64.00 176.00)"><ellipse cx="0" cy="0" rx="1" ry="1" fill="rgb(235,195,168)" fill-opacity="0.502"/></g>
<circle cx="6960.00" cy="2176.00" r="128.00" fill="rgb(147,83,54)" fill-opacity="0.502"/>
<g transform="translate(6480.00 1552.00) rotate(352) scale(64.00 144.00)"><ellipse cx="0" cy="0" rx="1" ry="1" fill="rgb(163,149,180)" fill-opacity="0.502"/></g>
<polygon points="6789.29,1571.20 6794.87,1411.30 7066.71,1420.80 7061.13,1580.70" fill="rgb(196,169,208)" fill-opacity="0.502"/>
<circle cx="7376.00" cy="1408.00" r="304.00" fill="rgb(0,0,1)" fill-opacity="0.502"/>
<g transform="translate(1936.00 2704.00) rotate(119) scale(224.00 224.00)"><ellipse cx="0" cy="0" rx="1" ry="1" fill="rgb(184,130,105)" fill-opacity="0.502"/></g>
<circle cx="1392.00" cy="2704.00" r="176.00" fill="rgb(182,126,103)" fill-opacity="0.502"/>
<circle cx="2432.00" cy="1056.00" r="224.00" fill="rgb(136,71,49)" fill-opacity="0.502"/>
<g transform="translate(1248.00 2096.00) rotate(306) scale(240.00 16.00)"><ellipse cx="0" cy="0" rx="1" ry="1" fill="rgb(242,241,240)" fill-opacity="0.502"/></g>
<g transform="translate(3440.00 384.00) rotate(260) scale(128.00 384.00)"><ellipse cx="0" cy="0" rx="1" ry="1" fill="rgb(111,58,38)" fill-opacity="0.502"/></g>
<g transform="translate(5136.00 2496.00) rotate(139) scale(16.00 272.00)"><ellipse cx="0" cy="0" rx="1" ry="1" fill="rgb(129,66,41)" fill-opacity="0.502"/></g>
<polygon points="4418.61,2475.51 3906.69,2484.44 3901.39,2180.49 4413.31,2171.56" fill="rgb(238,243,240)" fill-opacity="0.502"/>
<g transform="translate(4208.00 880.00) rotate(56) scale(144.00 496.00)"><ellipse cx="0" cy="0" rx="1" ry="1" fill="rgb(56,31,19)" fill-opacity="0.502"/></g>
<polygon points="6096.04,2931.26 6475.31,2871.18 6607.96,3708.74 6228.69,3768.82" fill="rgb(42,26,16)" fill-opacity="0.502"/>
<circle cx="368.00" cy="3344.00" r="736.00" fill="rgb(0,0,0)" fill-opacity="0.502"/>
<circle cx="2864.00" cy="3840.00" r="368.00" fill="rgb(36,15,10)" fill-opacity="0.502"/>
<polygon points="2300.13,4488.03 2422.39,4614.63 2387.87,4647.97 2265.61,4521.37" fill="rgb(120,63,38)" fill-opacity="0.502"/>
<polygon points="3625.31,1326.29 3184.02,1182.91 3302.69,817.71 3743.98,961.09" fill="rgb(98,48,33)" fill-opacity="0.502"/>
<polygon points="1407.59,3729.92 1394.58,3759.16 1248.41,3694.08 1261.42,3664.84" fill="rgb(97,13,4)" fill-opacity="0.502"/>
<polygon points="4456.58,3540.44 5167.61,3295.61 5287.42,3643.56 4576.39,3888.39" fill="rgb(35,20,14)" fill-opacity="0.502"/>
<polygon points="5264.59,4565.42 5189.90,4536.75 5631.41,3386.58 5706.10,3415.25" fill="rgb(77,38,20)" fill-opacity="0.502"/>
<polygon points="1696.00,1360.00 1232.00,1360.00 1232.00,880.00 1696.00,880.00" fill="rgb(180,104,86)" fill-opacity="0.502"/>
<circle cx="3024.00" cy="3072.00" r="160.00" fill="rgb(147,105,82)" fill-opacity="0.502"/>
<polygon points="5845.08,4272.20 5689.48,4111.07 6218.92,3599.80 6374.52,3760.93" fill="rgb(47,28,18)" fill-opacity="0.502"/>
<polygon points="2591.18,2722.39 2549.37,2324.58 3376.82,2237.61 3418.63,2635.42" fill="rgb(173,134,106)" fill-opacity="0.502"/>
<polygon points="6794.64,1999.29 6650.64,2248.71 6581.36,2208.71 6725.36,1959.29" fill="rgb(242,255,224)" fill-opacity="0.502"/>
<polygon points="7081.77,3384.16 7061.68,3671.46 6838.23,3655.84 6858.32,3368.54" fill="rgb(74,37,23)" fill-opacity="0.502"/>
<polygon points="3840.00,2176.00 3840.00,2144.00 4128.00,2144.00 4128.00,2176.00" fill="rgb(60,24,11)" fill-opacity="0.502"/>
<polygon points="3309.82,1988.40 3192.05,1857.61 3394.18,1675.60 3511.95,1806.39" fill="rgb(109,44,32)" fill-opacity="0.502"/>
<polygon points="5922.44,2896.13 6015.98,2874.53 6109.56,3279.87 6016.02,3301.47" fill="rgb(125,74,46)" fill-opacity="0.502"/>
<circle cx="6608.00" cy="2352.00" r="128.00" fill="rgb(137,90,58)" fill-opacity="0.502"/>
<polygon points="3055.81,2685.21 3087.88,3051.81 3008.19,3058.79 2976.12,2692.19" fill="rgb(177,132,102)" fill-opacity="0.502"/>
<polygon points="3304.00,3320.00 3304.00,3544.00 3064.00,3544.00 3064.00,3320.00" fill="rgb(72,34,14)" fill-opacity="0.502"/>
<circle cx="6368.00" cy="1840.00" r="160.00" fill="rgb(30,19,11)" fill-opacity="0.502"/>
<g transform="translate(4880.00 1904.00) rotate(158) scale(32.00 144.00)"><ellipse cx="0" cy="0" rx="1" ry="1" fill="rgb(255,252,240)" fill-opacity="0.502"/></g>
<polygon points="1273.97,3134.67 1788.44,3015.89 1846.03,3265.33 1331.56,3384.11" fill="rgb(164,96,72)" fill-opacity="0.502"/>
<g transform="translate(4976.00 3888.00) rotate(137) scale(464.00 336.00)"><ellipse cx="0" cy="0" rx="1" ry="1" fill="rgb(24,14,14)" fill-opacity="0.502"/></g>
<polygon points="4166.64,3009.32 4755.40,3071.20 4745.36,3166.68 4156.60,3104.80" fill="rgb(112,69,32)" fill-opacity="0.502"/>
<g transform="translate(5632.00 3280.00) rotate(113) scale(432.00 128.00)"><ellipse cx="0" cy="0" rx="1" ry="1" fill="rgb(86,34,16)" fill-opacity="0.502"/></g>
<circle cx="6064.00" cy="2160.00" r="400.00" fill="rgb(31,19,14)" fill-opacity="0.502"/>
<g transform="translate(6224.00 4464.00) rotate(335) scale(640.00 240.00)"><ellipse cx="0" cy="0" rx="1" ry="1" fill="rgb(31,16,13)" fill-opacity="0.502"/></g>
<circle cx="1632.00" cy="192.00" r="176.00" fill="rgb(141,84,62)" fill-opacity="0.502"/>
<g transform="translate(3456.00 2528.00) rotate(128) scale(160.00 48.00)"><ellipse cx="0" cy="0" rx="1" ry="1" fill="rgb(194,158,131)" fill-opacity="0.502"/></g>
<circle cx="2960.00" cy="624.00" r="224.00" fill="rgb(102,48,29)" fill-opacity="0.502"/>
<polygon points="3936.10,1806.55 3933.87,1822.40 3727.90,1793.45 3730.13,1777.60" fill="rgb(12,0,0)" fill-opacity="0.502"/>
<polygon points="1280.51,1730.82 1200.81,1723.84 1231.49,1373.18 1311.19,1380.16" fill="rgb(194,171,187)" fill-opacity="0.502"/>
<circle cx="6784.00" cy="3952.00" r="304.00" fill="rgb(46,23,16)" fill-opacity="0.502"/>
<circle cx="5344.00" cy="2608.00" r="128.00" fill="rgb(51,27,15)" fill-opacity="0.502"/>
<polygon points="2388.15,3247.44 2025.74,3311.34 2011.85,3232.56 2374.26,3168.66" fill="rgb(217,183,152)" fill-opacity="0.502"/>
<g transform="translate(5360.00 2144.00) rotate(208) scale(192.00 176.00)"><ellipse cx="0" cy="0" rx="1" ry="1" fill="rgb(36,20,14)" fill-opacity="0.502"/></g>
<circle cx="5856.00" cy="3264.00" r="80.00" fill="rgb(255,255,251)" fill-opacity="0.502"/>
<circle cx="4144.00" cy="1184.00" r="160.00" fill="rgb(101,54,40)" fill-opacity="0.502"/>
<g transform="translate(1248.00 224.00) rotate(66) scale(144.00 144.00)"><ellipse cx="0" cy="0" rx="1" ry="1" fill="rgb(158,92,66)" fill-opacity="0.502"/></g>
<polygon points="4467.78,214.68 4557.23,282.08 4220.22,729.32 4130.77,661.92" fill="rgb(37,12,0)" fill-opacity="0.502"/>
<g transform="translate(4944.00 1392.00) rotate(263) scale(64.00 592.00)"><ellipse cx="0" cy="0" rx="1" ry="1" fill="rgb(84,37,22)" fill-opacity="0.502"/></g>
<circle cx="6176.00" cy="3120.00" r="160.00" fill="rgb(50,32,18)" fill-opacity="0.502"/>
<polygon points="4152.00,344.00 4152.00,120.00 4392.00,120.00 4392.00,344.00" fill="rgb(78,41,28)" fill-opacity="0.502"/>
<circle cx="4352.00" cy="2688.00" r="80.00" fill="rgb(132,101,61)" fill-opacity="0.502"/>
<polygon points="3199.65,2184.65 2207.80,2167.34 2208.35,2135.35 3200.20,2152.66" fill="rgb(101,44,9)" fill-opacity="0.502"/>
<polygon points="1906.33,3958.21 1750.44,3994.20 1613.67,3401.79 1769.56,3365.80" fill="rgb(141,67,40)" fill-opacity="0.502"/>
<polygon points="2237.04,4124.26 2033.55,3798.61 2114.96,3747.74 2318.45,4073.39" fill="rgb(147,88,66)" fill-opacity="0.502"/>
<circle cx="4272.00" cy="2384.00" r="64.00" fill="rgb(203,201,193)" fill-opacity="0.502"/>
<g transform="translate(5568.00 3872.00) rotate(202) scale(16.00 1136.00)"><ellipse cx="0" cy="0" rx="1" ry="1" fill="rgb(255,255,243)" fill-opacity="0.502"/></g>
<polygon points="5549.51,4127.29 5454.53,4067.93 5666.49,3728.71 5761.47,3788.07" fill="rgb(255,232,203)" fill-opacity="0.502"/>
<g transform="translate(5312.00 3232.00) rotate(319) scale(48.00 80.00)"><ellipse cx="0" cy="0" rx="1" ry="1" fill="rgb(255,176,143)" fill-opacity="0.502"/></g>
<g transform="translate(5280.00 3360.00) rotate(44) scale(144.00 48.00)"><ellipse cx="0" cy="0" rx="1" ry="1" fill="rgb(229,155,126)" fill-opacity="0.502"/></g>
<g transform="translate(6656.00 1600.00) rotate(305) scale(208.00 160.00)"><ellipse cx="0" cy="0" rx="1" ry="1" fill="rgb(188,173,194)" fill-opacity="0.502"/></g>
<g transform="translate(2640.00 2304.00) rotate(19) scale(464.00 80.00)"><ellipse cx="0" cy="0" rx="1" ry="1" fill="rgb(189,141,115)" fill-opacity="0.502"/></g>
<g transform="translate(1456.00 3248.00) rotate(50) scale(432.00 48.00)"><ellipse cx="0" cy="0" rx="1" ry="1" fill="rgb(161,85,62)" fill-opacity="0.502"/></g>
<polygon points="1116.46,3336.10 1287.95,3296.51 1363.54,3623.90 1192.05,3663.49" fill="rgb(104,34,15)" fill-opacity="0.502"/>
<polygon points="6568.00,1720.00 6568.00,1448.00 7080.00,1448.00 7080.00,1720.00" fill="rgb(188,171,194)" fill-opacity="0.502"/>
<circle cx="4240.00" cy="3552.00" r="240.00" fill="rgb(37,20,14)" fill-opacity="0.502"/>
<polygon points="5032.14,3444.25 4920.99,3559.35 4759.86,3403.75 4871.01,3288.65" fill="rgb(56,36,21)" fill-opacity="0.502"/>
<circle cx="6576.00" cy="4592.00" r="512.00" fill="rgb(33,16,13)" fill-opacity="0.502"/>
<circle cx="4672.00" cy="2512.00" r="48.00" fill="rgb(133,109,92)" fill-opacity="0.502"/>
<polygon points="3498.37,2691.81 3531.71,2502.73 3925.63,2572.19 3892.29,2761.27" fill="rgb(172,132,104)" fill-opacity="0.502"/>
<polygon points="1742.34,953.00 1924.70,1326.89 1809.66,1383.00 1627.30,1009.11" fill="rgb(171,93,71)" fill-opacity="0.502"/>
<circle cx="5360.00" cy="4240.00" r="32.00" fill="rgb(225,211,202)" fill-opacity="0.502"/>
<polygon points="4892.22,2244.72 4234.90,2384.44 4131.78,1899.28 4789.10,1759.56" fill="rgb(242,250,249)" fill-opacity="0.502"/>
<g transform="translate(4624.00 0.00) rotate(260) scale(176.00 224.00)"><ellipse cx="0" cy="0" rx="1" ry="1" fill="rgb(35,10,3)" fill-opacity="0.502"/></g>
<g transform="translate(6352.00 2144.00) rotate(270) scale(400.00 176.00)"><ellipse cx="0" cy="0" rx="1" ry="1" fill="rgb(44,25,18)" fill-opacity="0.502"/></g>
<circle cx="6576.00" cy="592.00" r="512.00" fill="rgb(24,14,13)" fill-opacity="0.502"/>
<circle cx="2128.00" cy="3440.00" r="128.00" fill="rgb(76,29,12)" fill-opacity="0.502"/>
<polygon points="3958.55,1041.32 3871.51,970.84 4153.45,622.68 4240.49,693.16" fill="rgb(45,18,6)" fill-opacity="0.502"/>
<circle cx="5616.00" cy="2736.00" r="352.00" fill="rgb(41,22,15)" fill-opacity="0.502"/>
<polygon points="3419.31,1985.06 3468.40,2085.73 3252.69,2190.94 3203.60,2090.27" fill="rgb(133,68,42)" fill-opacity="0.502"/>
<circle cx="2800.00" cy="3024.00" r="144.00" fill="rgb(130,88,62)" fill-opacity="0.502"/>
<g transform="translate(6992.00 1232.00) rotate(330) scale(96.00 192.00)"><ellipse cx="0" cy="0" rx="1" ry="1" fill="rgb(45,20,17)" fill-opacity="0.502"/></g>
<circle cx="6144.00" cy="1920.00" r="384.00" fill="rgb(25,15,13)" fill-opacity="0.502"/>
<circle cx="4144.00" cy="1392.00" r="80.00" fill="rgb(238,197,203)" fill-opacity="0.502"/>
<g transform="translate(6080.00 3456.00) rotate(275) scale(352.00 96.00)"><ellipse cx="0" cy="0" rx="1" ry="1" fill="rgb(64,41,27)" fill-opacity="0.502"/></g>
<circle cx="4016.00" cy="1856.00" r="48.00" fill="rgb(84,39,20)" fill-opacity="0.502"/>
<polygon points="2573.31,2757.61 2720.14,2967.31 2418.69,3178.39 2271.86,2968.69" fill="rgb(166,115,88)" fill-opacity="0.502"/>
<polygon points="6621.61,1689.98 6930.24,1890.41 6834.39,2038.02 6525.76,1837.59" fill="rgb(240,245,226)" fill-opacity="0.502"/>
<g transform="translate(3488.00 1680.00) rotate(119) scale(32.00 224.00)"><ellipse cx="0" cy="0" rx="1" ry="1" fill="rgb(250,241,229)" fill-opacity="0.502"/></g>
<g transform="translate(3648.00 2656.00) rotate(168) scale(64.00 112.00)"><ellipse cx="0" cy="0" rx="1" ry="1" fill="rgb(200,154,124)" fill-opacity="0.502"/></g>
</g>
</svg>