<?xml version="1.0" standalone="no"?>
<svg xmlns="http://www.w3.org/2000/svg" width="8192" height="4608" viewBox="0 0 8192 4608" style="overflow:hidden">
<defs>
<clipPath id="c"><rect x="0" y="0" width="8192" height="4608"/></clipPath>
</defs>
<rect width="8192" height="4608" fill="rgb(81,66,52)"/>
<g clip-path="url(#c)">
<circle cx="4048.00" cy="464.00" r="1488.00" fill="rgb(251,242,224)" fill-opacity="0.502"/>
<polygon points="1696.00,-64.00 1696.00,816.00 1104.00,816.00 1104.00,-64.00" fill="rgb(255,255,255)" fill-opacity="0.502"/>
<circle cx="6672.00" cy="288.00" r="368.00" fill="rgb(252,255,255)" fill-opacity="0.502"/>
<circle cx="8176.00" cy="1744.00" r="1776.00" fill="rgb(0,0,0)" fill-opacity="0.502"/>
<polygon points="3612.81,939.06 3140.99,1565.19 2323.19,948.94 2795.01,322.81" fill="rgb(78,7,0)" fill-opacity="0.502"/>
<circle cx="6080.00" cy="1072.00" r="448.00" fill="rgb(237,226,199)" fill-opacity="0.502"/>
<circle cx="0.00" cy="2256.00" r="1968.00" fill="rgb(0,0,0)" fill-opacity="0.502"/>
<circle cx="4992.00" cy="240.00" r="464.00" fill="rgb(229,255,255)" fill-opacity="0.502"/>
<circle cx="2048.00" cy="3136.00" r="752.00" fill="rgb(198,150,119)" fill-opacity="0.502"/>
<circle cx="5232.00" cy="1008.00" r="288.00" fill="rgb(0,0,0)" fill-opacity="0.502"/>
<circle cx="5808.00" cy="144.00" r="352.00" fill="rgb(227,233,211)" fill-opacity="0.502"/>
<g transform="translate(3424.00 2624.00) rotate(207) scale(528.00 1712.00)"><ellipse cx="0" cy="0" rx="1" ry="1" fill="rgb(227,162,121)" fill-opacity="0.502"/></g>
<circle cx="8176.00" cy="3872.00" r="1232.00" fill="rgb(0,0,0)" fill-opacity="0.502"/>
<circle cx="2416.00" cy="1824.00" r="848.00" fill="rgb(54,4,0)" fill-opacity="0.502"/>
<g transform="translate(1456.00 2656.00) rotate(0) scale(384.00 208.00)"><ellipse cx="0" cy="0" rx="1" ry="1" fill="rgb(235,211,187)" fill-opacity="0.502"/></g>
<circle cx="3568.00" cy="3680.00" r="896.00" fill="rgb(177,121,90)" fill-opacity="0.502"/>
<circle cx="2432.00" cy="0.00" r="400.00" fill="rgb(247,255,255)" fill-opacity="0.502"/>
<circle cx="0.00" cy="3536.00" r="1280.00" fill="rgb(0,0,0)" fill-opacity="0.502"/>
<g transform="translate(5104.00 1520.00) rotate(78) scale(128.00 368.00)"><ellipse cx="0" cy="0" rx="1" ry="1" fill="rgb(255,255,238)" fill-opacity="0.502"/></g>
<g transform="translate(560.00 384.00) rotate(29) scale(480.00 720.00)"><ellipse cx="0" cy="0" rx="1" ry="1" fill="rgb(0,0,0)" fill-opacity="0.502"/></g>
<g transform="translate(4096.00 1232.00) rotate(191) scale(288.00 768.00)"><ellipse cx="0" cy="0" rx="1" ry="1" fill="rgb(255,255,255)" fill-opacity="0.502"/></g>
<circle cx="7808.00" cy="3936.00" r="784.00" fill="rgb(0,0,0)" fill-opacity="0.502"/>
<circle cx="3872.00" cy="128.00" r="512.00" fill="rgb(88,5,0)" fill-opacity="0.502"/>
<circle cx="5728.00" cy="1952.00" r="528.00" fill="rgb(0,0,0)" fill-opacity="0.502"/>
<polygon points="4477.57,1100.59 4665.10,555.97 5058.43,691.41 4870.90,1236.03" fill="rgb(250,255,255)" fill-opacity="0.502"/>
<g transform="translate(464.00 1744.00) rotate(269) scale(5968.00 656.00)"><ellipse cx="0" cy="0" rx="1" ry="1" fill="rgb(0,0,0)" fill-opacity="0.502"/></g>
<polygon points="1112.00,2584.00 1112.00,1944.00 1416.00,1944.00 1416.00,2584.00" fill="rgb(234,155,120)" fill-opacity="0.502"/>
<g transform="translate(6688.00 2688.00) rotate(81) scale(1552.00 320.00)"><ellipse cx="0" cy="0" rx="1" ry="1" fill="rgb(141,104,70)" fill-opacity="0.502"/></g>
<circle cx="8176.00" cy="1200.00" r="1552.00" fill="rgb(0,0,0)" fill-opacity="0.502"/>
<g transform="translate(1968.00 4080.00) rotate(203) scale(464.00 576.00)"><ellipse cx="0" cy="0" rx="1" ry="1" fill="rgb(1,0,0)" fill-opacity="0.502"/></g>
<circle cx="6384.00" cy="496.00" r="464.00" fill="rgb(175,164,140)" fill-opacity="0.502"/>
<circle cx="4944.00" cy="2144.00" r="480.00" fill="rgb(31,1,0)" fill-opacity="0.502"/>
<g transform="translate(3008.00 2608.00) rotate(190) scale(1104.00 208.00)"><ellipse cx="0" cy="0" rx="1" ry="1" fill="rgb(43,11,0)" fill-opacity="0.502"/></g>
<g transform="translate(4944.00 400.00) rotate(288) scale(1488.00 240.00)"><ellipse cx="0" cy="0" rx="1" ry="1" fill="rgb(222,255,255)" fill-opacity="0.502"/></g>
<polygon points="4477.37,570.63 4143.88,611.58 4114.63,373.37 4448.12,332.42" fill="rgb(242,252,249)" fill-opacity="0.502"/>
<circle cx="3200.00" cy="1056.00" r="224.00" fill="rgb(0,0,0)" fill-opacity="0.502"/>
<polygon points="1776.00,352.00 1120.00,352.00 1120.00,0.00 1776.00,-0.00" fill="rgb(198,255,255)" fill-opacity="0.502"/>
<circle cx="3024.00" cy="1808.00" r="448.00" fill="rgb(200,106,75)" fill-opacity="0.502"/>
<g transform="translate(2688.00 4512.00) rotate(294) scale(176.00 192.00)"><ellipse cx="0" cy="0" rx="1" ry="1" fill="rgb(0,0,0)" fill-opacity="0.502"/></g>
<circle cx="2080.00" cy="2880.00" r="320.00" fill="rgb(209,178,153)" fill-opacity="0.502"/>
<g transform="translate(3248.00 4192.00) rotate(175) scale(384.00 224.00)"><ellipse cx="0" cy="0" rx="1" ry="1" fill="rgb(230,171,141)" fill-opacity="0.502"/></g>
<g transform="translate(1840.00 1712.00) rotate(29) scale(416.00 624.00)"><ellipse cx="0" cy="0" rx="1" ry="1" fill="rgb(0,6,6)" fill-opacity="0.502"/></g>
<circle cx="2256.00" cy="560.00" r="384.00" fill="rgb(105,67,0)" fill-opacity="0.502"/>
<circle cx="5472.00" cy="4592.00" r="928.00" fill="rgb(46,31,0)" fill-opacity="0.502"/>
<circle cx="1424.00" cy="3664.00" r="448.00" fill="rgb(112,79,56)" fill-opacity="0.502"/>
<g transform="translate(7696.00 1984.00) rotate(180) scale(624.00 4544.00)"><ellipse cx="0" cy="0" rx="1" ry="1" fill="rgb(0,0,0)" fill-opacity="0.502"/></g>
<circle cx="5184.00" cy="3008.00" r="256.00" fill="rgb(0,0,0)" fill-opacity="0.502"/>
<circle cx="3584.00" cy="0.00" r="288.00" fill="rgb(23,32,12)" fill-opacity="0.502"/>
<g transform="translate(4816.00 3680.00) rotate(177) scale(1872.00 432.00)"><ellipse cx="0" cy="0" rx="1" ry="1" fill="rgb(139,93,62)" fill-opacity="0.502"/></g>
<g transform="translate(2864.00 112.00) rotate(256) scale(288.00 416.00)"><ellipse cx="0" cy="0" rx="1" ry="1" fill="rgb(198,249,255)" fill-opacity="0.502"/></g>
<circle cx="6352.00" cy="1584.00" r="144.00" fill="rgb(252,219,190)" fill-opacity="0.502"/>
<g transform="translate(6560.00 2848.00) rotate(280) scale(384.00 144.00)"><ellipse cx="0" cy="0" rx="1" ry="1" fill="rgb(206,177,143)" fill-opacity="0.502"/></g>
<circle cx="3712.00" cy="4560.00" r="208.00" fill="rgb(0,0,0)" fill-opacity="0.502"/>
<circle cx="1856.00" cy="624.00" r="288.00" fill="rgb(31,50,0)" fill-opacity="0.502"/>
<polygon points="1128.00,856.00 1128.00,408.00 1592.00,408.00 1592.00,856.00" fill="rgb(216,253,255)" fill-opacity="0.502"/>
<circle cx="6256.00" cy="2176.00" r="400.00" fill="rgb(7,25,0)" fill-opacity="0.502"/>
<g transform="translate(2688.00 1104.00) rotate(186) scale(368.00 720.00)"><ellipse cx="0" cy="0" rx="1" ry="1" fill="rgb(146,75,39)" fill-opacity="0.502"/></g>
<circle cx="2432.00" cy="2240.00" r="432.00" fill="rgb(28,11,5)" fill-opacity="0.502"/>
<g transform="translate(4304.00 1856.00) rotate(9) scale(48.00 1792.00)"><ellipse cx="0" cy="0" rx="1" ry="1" fill="rgb(96,50,22)" fill-opacity="0.502"/></g>
<g transform="translate(3712.00 1344.00) rotate(94) scale(160.00 400.00)"><ellipse cx="0" cy="0" rx="1" ry="1" fill="rgb(227,224,204)" fill-opacity="0.502"/></g>
<polygon points="6888.00,2888.00 6888.00,3352.00 6728.00,3352.00 6728.00,2888.00" fill="rgb(0,0,0)" fill-opacity="0.502"/>
<circle cx="416.00" cy="1488.00" r="848.00" fill="rgb(0,0,0)" fill-opacity="0.502"/>
<g transform="translate(6912.00 4464.00) rotate(191) scale(288.00 576.00)"><ellipse cx="0" cy="0" rx="1" ry="1" fill="rgb(19,7,0)" fill-opacity="0.502"/></g>
<g transform="translate(6672.00 320.00) rotate(299) scale(816.00 128.00)"><ellipse cx="0" cy="0" rx="1" ry="1" fill="rgb(216,251,248)" fill-opacity="0.502"/></g>
<circle cx="2592.00" cy="3504.00" r="288.00" fill="rgb(238,182,153)" fill-opacity="0.502"/>
<polygon points="6253.37,718.52 6210.14,1212.63 6082.63,1201.48 6125.86,707.37" fill="rgb(0,0,0)" fill-opacity="0.502"/>
<polygon points="5808.86,2858.65 4820.64,2772.19 4847.14,2469.35 5835.36,2555.81" fill="rgb(89,143,114)" fill-opacity="0.502"/>
<circle cx="5904.00" cy="1088.00" r="208.00" fill="rgb(255,255,255)" fill-opacity="0.502"/>
<g transform="translate(6864.00 1024.00) rotate(336) scale(176.00 480.00)"><ellipse cx="0" cy="0" rx="1" ry="1" fill="rgb(159,77,45)" fill-opacity="0.502"/></g>
<g transform="translate(640.00 4512.00) rotate(186) scale(1200.00 272.00)"><ellipse cx="0" cy="0" rx="1" ry="1" fill="rgb(0,0,0)" fill-opacity="0.502"/></g>
<polygon points="3403.48,1697.57 3553.10,1842.06 3108.52,2302.43 2958.90,2157.94" fill="rgb(245,170,137)" fill-opacity="0.502"/>
<g transform="translate(6112.00 1632.00) rotate(5) scale(80.00 1680.00)"><ellipse cx="0" cy="0" rx="1" ry="1" fill="rgb(33,19,0)" fill-opacity="0.502"/></g>
<polygon points="1104.00,3680.00 1392.00,3680.00 1392.00,4304.00 1104.00,4304.00" fill="rgb(185,118,94)" fill-opacity="0.502"/>
<circle cx="1280.00" cy="2800.00" r="192.00" fill="rgb(194,155,120)" fill-opacity="0.502"/>
<polygon points="3626.17,3076.51 3618.37,3140.04 3157.83,3083.49 3165.63,3019.96" fill="rgb(0,0,0)" fill-opacity="0.502"/>
<circle cx="4592.00" cy="3296.00" r="240.00" fill="rgb(142,124,106)" fill-opacity="0.502"/>
<g transform="translate(2928.00 2592.00) rotate(63) scale(128.00 240.00)"><ellipse cx="0" cy="0" rx="1" ry="1" fill="rgb(0,0,0)" fill-opacity="0.502"/></g>
<g transform="translate(3104.00 608.00) rotate(29) scale(320.00 240.00)"><ellipse cx="0" cy="0" rx="1" ry="1" fill="rgb(145,102,33)" fill-opacity="0.502"/></g>
<polygon points="2139.17,965.15 2120.77,790.11 2836.83,714.85 2855.23,889.89" fill="rgb(208,148,133)" fill-opacity="0.502"/>
<g transform="translate(3680.00 2560.00) rotate(268) scale(352.00 576.00)"><ellipse cx="0" cy="0" rx="1" ry="1" fill="rgb(160,94,38)" fill-opacity="0.502"/></g>
<g transform="translate(5200.00 3440.00) rotate(202) scale(416.00 304.00)"><ellipse cx="0" cy="0" rx="1" ry="1" fill="rgb(132,110,86)" fill-opacity="0.502"/></g>
<g transform="translate(3216.00 3808.00) rotate(128) scale(208.00 112.00)"><ellipse cx="0" cy="0" rx="1" ry="1" fill="rgb(0,0,0)" fill-opacity="0.502"/></g>
<g transform="translate(1824.00 3296.00) rotate(358) scale(576.00 512.00)"><ellipse cx="0" cy="0" rx="1" ry="1" fill="rgb(102,72,50)" fill-opacity="0.502"/></g>
<polygon points="4072.00,4408.00 4072.00,4104.00 4200.00,4104.00 4200.00,4408.00" fill="rgb(236,192,162)" fill-opacity="0.502"/>
<circle cx="4688.00" cy="4448.00" r="496.00" fill="rgb(42,31,8)" fill-opacity="0.502"/>
<circle cx="5424.00" cy="848.00" r="352.00" fill="rgb(79,60,10)" fill-opacity="0.502"/>
<circle cx="5488.00" cy="1328.00" r="304.00" fill="rgb(151,86,39)" fill-opacity="0.502"/>
<circle cx="2544.00" cy="2912.00" r="176.00" fill="rgb(255,217,186)" fill-opacity="0.502"/>
<g transform="translate(6864.00 704.00) rotate(25) scale(224.00 384.00)"><ellipse cx="0" cy="0" rx="1" ry="1" fill="rgb(128,65,38)" fill-opacity="0.502"/></g>
<g transform="translate(6832.00 2528.00) rotate(170) scale(16.00 1232.00)"><ellipse cx="0" cy="0" rx="1" ry="1" fill="rgb(172,136,115)" fill-opacity="0.502"/></g>
<g transform="translate(1456.00 80.00) rotate(229) scale(272.00 400.00)"><ellipse cx="0" cy="0" rx="1" ry="1" fill="rgb(183,213,255)" fill-opacity="0.502"/></g>
<g transform="translate(5344.00 3008.00) rotate(274) scale(144.00 576.00)"><ellipse cx="0" cy="0" rx="1" ry="1" fill="rgb(0,2,0)" fill-opacity="0.502"/></g>
<g transform="translate(6816.00 2096.00) rotate(268) scale(432.00 272.00)"><ellipse cx="0" cy="0" rx="1" ry="1" fill="rgb(67,42,23)" fill-opacity="0.502"/></g>
<polygon points="1132.69,2693.49 1110.42,2535.05 1427.31,2490.51 1449.58,2648.95" fill="rgb(59,49,30)" fill-opacity="0.502"/>
<circle cx="1968.00" cy="3968.00" r="288.00" fill="rgb(5,9,0)" fill-opacity="0.502"/>
<circle cx="4096.00" cy="1040.00" r="304.00" fill="rgb(224,255,255)" fill-opacity="0.502"/>
<circle cx="1248.00" cy="880.00" r="128.00" fill="rgb(182,126,60)" fill-opacity="0.502"/>
<g transform="translate(4880.00 1488.00) rotate(359) scale(336.00 208.00)"><ellipse cx="0" cy="0" rx="1" ry="1" fill="rgb(255,255,228)" fill-opacity="0.502"/></g>
<polygon points="1703.00,2606.40 1846.81,2536.27 1945.00,2737.60 1801.19,2807.73" fill="rgb(241,235,225)" fill-opacity="0.502"/>
<polygon points="3786.69,643.52 3551.10,597.72 3621.31,236.48 3856.90,282.28" fill="rgb(19,0,0)" fill-opacity="0.502"/>
<polygon points="1096.00,3272.00 1096.00,3960.00 392.00,3960.00 392.00,3272.00" fill="rgb(0,0,0)" fill-opacity="0.502"/>
<g transform="translate(6304.00 224.00) rotate(342) scale(160.00 144.00)"><ellipse cx="0" cy="0" rx="1" ry="1" fill="rgb(99,51,32)" fill-opacity="0.502"/></g>
<circle cx="3616.00" cy="3680.00" r="160.00" fill="rgb(219,160,135)" fill-opacity="0.502"/>
<polygon points="3840.02,3708.43 4219.83,3341.65 4719.98,3859.57 4340.17,4226.35" fill="rgb(104,62,35)" fill-opacity="0.502"/>
<g transform="translate(0.00 784.00) rotate(35) scale(1008.00 1296.00)"><ellipse cx="0" cy="0" rx="1" ry="1" fill="rgb(0,0,0)" fill-opacity="0.502"/></g>
<g transform="translate(4000.00 4400.00) rotate(52) scale(400.00 128.00)"><ellipse cx="0" cy="0" rx="1" ry="1" fill="rgb(164,115,80)" fill-opacity="0.502"/></g>
<circle cx="2976.00" cy="1520.00" r="352.00" fill="rgb(106,49,37)" fill-opacity="0.502"/>
<g transform="translate(4016.00 3232.00) rotate(224) scale(432.00 336.00)"><ellipse cx="0" cy="0" rx="1" ry="1" fill="rgb(129,109,92)" fill-opacity="0.502"/></g>
<polygon points="2728.41,3055.51 2637.30,3260.14 2359.59,3136.49 2450.70,2931.86" fill="rgb(118,71,47)" fill-opacity="0.502"/>
<circle cx="6784.00" cy="1088.00" r="368.00" fill="rgb(75,40,25)" fill-opacity="0.502"/>
<circle cx="4512.00" cy="2352.00" r="288.00" fill="rgb(42,11,0)" fill-opacity="0.502"/>
<g transform="translate(1408.00 3248.00) rotate(196) scale(192.00 464.00)"><ellipse cx="0" cy="0" rx="1" ry="1" fill="rgb(63,63,46)" fill-opacity="0.502"/></g>
<polygon points="6859.05,943.61 7037.07,871.69 7156.95,1168.39 6978.93,1240.31" fill="rgb(193,114,79)" fill-opacity="0.502"/>
<g transform="translate(4192.00 80.00) rotate(209) scale(176.00 928.00)"><ellipse cx="0" cy="0" rx="1" ry="1" fill="rgb(194,100,49)" fill-opacity="0.502"/></g>
<polygon points="2361.20,2902.72 1804.83,2753.64 1862.80,2537.28 2419.17,2686.36" fill="rgb(249,234,211)" fill-opacity="0.502"/>
<circle cx="5536.00" cy="2064.00" r="400.00" fill="rgb(25,8,0)" fill-opacity="0.502"/>
<polygon points="4876.30,3543.89 6549.90,3690.31 6499.70,4264.11 4826.10,4117.69" fill="rgb(82,54,26)" fill-opacity="0.502"/>
<polygon points="6888.29,3362.58 6868.20,3649.87 5431.71,3549.42 5451.80,3262.13" fill="rgb(154,127,102)" fill-opacity="0.502"/>
<circle cx="576.00" cy="2592.00" r="528.00" fill="rgb(0,0,0)" fill-opacity="0.502"/>
<g transform="translate(4992.00 80.00) rotate(84) scale(640.00 416.00)"><ellipse cx="0" cy="0" rx="1" ry="1" fill="rgb(194,231,255)" fill-opacity="0.502"/></g>
<polygon points="4853.65,1164.23 5053.71,957.06 5226.35,1123.77 5026.29,1330.94" fill="rgb(44,18,0)" fill-opacity="0.502"/>
<polygon points="4987.58,1253.53 4724.25,1615.97 4452.42,1418.47 4715.75,1056.03" fill="rgb(238,253,228)" fill-opacity="0.502"/>
<polygon points="4550.94,3197.65 4135.95,3168.63 4185.06,2466.35 4600.05,2495.37" fill="rgb(74,57,20)" fill-opacity="0.502"/>
<circle cx="7600.00" cy="2704.00" r="528.00" fill="rgb(0,0,0)" fill-opacity="0.502"/>
<circle cx="5920.00" cy="1296.00" r="160.00" fill="rgb(252,255,224)" fill-opacity="0.502"/>
<g transform="translate(3472.00 496.00) rotate(190) scale(64.00 256.00)"><ellipse cx="0" cy="0" rx="1" ry="1" fill="rgb(232,255,250)" fill-opacity="0.502"/></g>
<circle cx="5952.00" cy="4592.00" r="448.00" fill="rgb(28,32,8)" fill-opacity="0.502"/>
<polygon points="3667.26,1301.53 3840.02,1335.11 3708.74,2010.47 3535.98,1976.89" fill="rgb(91,26,9)" fill-opacity="0.502"/>
<polygon points="2148.51,308.86 1786.20,73.58 1899.49,-100.86 2261.80,134.42" fill="rgb(201,181,130)" fill-opacity="0.502"/>
<g transform="translate(1568.00 2928.00) rotate(170) scale(496.00 80.00)"><ellipse cx="0" cy="0" rx="1" ry="1" fill="rgb(70,48,30)" fill-opacity="0.502"/></g>
<circle cx="7904.00" cy="1216.00" r="848.00" fill="rgb(0,0,0)" fill-opacity="0.502"/>
<circle cx="640.00" cy="4240.00" r="464.00" fill="rgb(0,0,0)" fill-opacity="0.502"/>
<polygon points="4706.56,2509.21 4996.37,2761.13 4765.44,3026.79 4475.63,2774.87" fill="rgb(95,119,81)" fill-opacity="0.502"/>
<g transform="translate(5648.00 48.00) rotate(359) scale(160.00 224.00)"><ellipse cx="0" cy="0" rx="1" ry="1" fill="rgb(98,39,1)" fill-opacity="0.502"/></g>
<polygon points="5076.86,1309.76 5036.42,847.52 5371.14,818.24 5411.58,1280.48" fill="rgb(34,22,0)" fill-opacity="0.502"/>
<circle cx="2448.00" cy="0.00" r="176.00" fill="rgb(207,253,255)" fill-opacity="0.502"/>
<polygon points="4558.06,426.66 4877.86,437.83 4849.94,1237.34 4530.14,1226.17" fill="rgb(211,241,248)" fill-opacity="0.502"/>
<circle cx="6960.00" cy="2784.00" r="144.00" fill="rgb(148,134,98)" fill-opacity="0.502"/>
<g transform="translate(5968.00 1920.00) rotate(292) scale(432.00 352.00)"><ellipse cx="0" cy="0" rx="1" ry="1" fill="rgb(21,14,0)" fill-opacity="0.502"/></g>
<circle cx="6064.00" cy="2592.00" r="336.00" fill="rgb(49,98,53)" fill-opacity="0.502"/>
<polygon points="5905.22,1024.06 5887.36,768.68 6126.78,751.94 6144.64,1007.32" fill="rgb(219,232,217)" fill-opacity="0.502"/>
<g transform="translate(432.00 1488.00) rotate(76) scale(1728.00 544.00)"><ellipse cx="0" cy="0" rx="1" ry="1" fill="rgb(0,0,0)" fill-opacity="0.502"/></g>
<circle cx="3776.00" cy="2160.00" r="256.00" fill="rgb(175,112,91)" fill-opacity="0.502"/>
<circle cx="4336.00" cy="1888.00" r="96.00" fill="rgb(65,17,0)" fill-opacity="0.502"/>
<polygon points="5616.41,1051.68 6007.67,968.52 6047.59,1156.32 5656.33,1239.48" fill="rgb(230,240,222)" fill-opacity="0.502"/>
<circle cx="3472.00" cy="1632.00" r="160.00" fill="rgb(247,255,223)" fill-opacity="0.502"/>
<polygon points="1148.61,4416.69 1091.27,4267.32 1539.39,4095.31 1596.73,4244.68" fill="rgb(118,65,43)" fill-opacity="0.502"/>
<polygon points="6390.63,660.07 6624.66,878.31 6537.37,971.93 6303.34,753.69" fill="rgb(175,147,116)" fill-opacity="0.502"/>
<g transform="translate(2784.00 3056.00) rotate(280) scale(112.00 416.00)"><ellipse cx="0" cy="0" rx="1" ry="1" fill="rgb(213,182,154)" fill-opacity="0.502"/></g>
<g transform="translate(3920.00 1424.00) rotate(287) scale(208.00 128.00)"><ellipse cx="0" cy="0" rx="1" ry="1" fill="rgb(239,248,224)" fill-opacity="0.502"/></g>
<circle cx="4080.00" cy="1216.00" r="288.00" fill="rgb(224,243,232)" fill-opacity="0.502"/>
<polygon points="1780.45,1246.88 2182.27,1354.55 1867.55,2529.12 1465.73,2421.45" fill="rgb(0,5,6)" fill-opacity="0.502"/>
<g transform="translate(4944.00 2064.00) rotate(256) scale(400.00 592.00)"><ellipse cx="0" cy="0" rx="1" ry="1" fill="rgb(51,28,6)" fill-opacity="0.502"/></g>
<polygon points="1677.38,3414.53 1475.17,3146.19 1794.62,2905.47 1996.83,3173.81" fill="rgb(151,125,106)" fill-opacity="0.502"/>
<circle cx="7504.00" cy="128.00" r="432.00" fill="rgb(0,0,0)" fill-opacity="0.502"/>
<circle cx="2224.00" cy="4592.00" r="272.00" fill="rgb(39,25,1)" fill-opacity="0.502"/>
<polygon points="5792.88,110.59 5979.83,19.41 6127.12,321.41 5940.17,412.59" fill="rgb(207,239,239)" fill-opacity="0.502"/>
<circle cx="2112.00" cy="3584.00" r="208.00" fill="rgb(137,82,47)" fill-opacity="0.502"/>
<circle cx="6064.00" cy="3072.00" r="256.00" fill="rgb(49,39,14)" fill-opacity="0.502"/>
<g transform="translate(1552.00 1904.00) rotate(124) scale(144.00 512.00)"><ellipse cx="0" cy="0" rx="1" ry="1" fill="rgb(12,12,8)" fill-opacity="0.502"/></g>
<polygon points="4131.61,759.19 4197.42,495.27 4492.39,568.81 4426.58,832.73" fill="rgb(200,247,255)" fill-opacity="0.502"/>
<g transform="translate(3184.00 4448.00) rotate(203) scale(96.00 640.00)"><ellipse cx="0" cy="0" rx="1" ry="1" fill="rgb(205,145,112)" fill-opacity="0.502"/></g>
<polygon points="4419.36,2178.74 4030.21,1926.03 4108.64,1805.26 4497.79,2057.97" fill="rgb(210,147,112)" fill-opacity="0.502"/>
<circle cx="6848.00" cy="4080.00" r="240.00" fill="rgb(99,65,30)" fill-opacity="0.502"/>
<g transform="translate(3904.00 768.00) rotate(241) scale(64.00 96.00)"><ellipse cx="0" cy="0" rx="1" ry="1" fill="rgb(246,255,255)" fill-opacity="0.502"/></g>
<polygon points="2494.38,576.25 1738.05,442.89 1793.62,127.75 2549.95,261.11" fill="rgb(116,81,23)" fill-opacity="0.502"/>
<polygon points="3162.44,2345.65 3092.77,2066.21 3589.56,1942.35 3659.23,2221.79" fill="rgb(204,122,89)" fill-opacity="0.502"/>
<circle cx="2768.00" cy="1664.00" r="176.00" fill="rgb(162,79,61)" fill-opacity="0.502"/>
<polygon points="4684.95,1972.83 4294.13,2438.59 4147.05,2315.17 4537.87,1849.41" fill="rgb(114,53,22)" fill-opacity="0.502"/>
<g transform="translate(6624.00 1040.00) rotate(89) scale(96.00 272.00)"><ellipse cx="0" cy="0" rx="1" ry="1" fill="rgb(26,4,0)" fill-opacity="0.502"/></g>
<g transform="translate(7680.00 3792.00) rotate(137) scale(464.00 704.00)"><ellipse cx="0" cy="0" rx="1" ry="1" fill="rgb(0,0,0)" fill-opacity="0.502"/></g>
<polygon points="1689.17,3879.97 1642.41,3547.24 2006.83,3496.03 2053.59,3828.76" fill="rgb(76,48,27)" fill-opacity="0.502"/>
<polygon points="2717.10,1454.18 2626.00,1794.19 2146.90,1665.82 2238.00,1325.81" fill="rgb(117,42,28)" fill-opacity="0.502"/>
<g transform="translate(1776.00 1104.00) rotate(29) scale(224.00 480.00)"><ellipse cx="0" cy="0" rx="1" ry="1" fill="rgb(31,34,14)" fill-opacity="0.502"/></g>
<polygon points="1255.21,3584.09 1562.16,3447.43 1672.79,3695.91 1365.84,3832.57" fill="rgb(134,99,85)" fill-opacity="0.502"/>
<polygon points="3689.41,1284.57 3750.77,583.25 3798.59,587.43 3737.23,1288.75" fill="rgb(65,2,0)" fill-opacity="0.502"/>
<circle cx="4752.00" cy="3920.00" r="352.00" fill="rgb(106,66,39)" fill-opacity="0.502"/>
<circle cx="7664.00" cy="2400.00" r="576.00" fill="rgb(0,0,0)" fill-opacity="0.502"/>
<polygon points="5117.94,1215.69 5348.13,993.40 5826.06,1488.31 5595.87,1710.60" fill="rgb(109,62,26)" fill-opacity="0.502"/>
<g transform="translate(6176.00 1008.00) rotate(179) scale(32.00 1056.00)"><ellipse cx="0" cy="0" rx="1" ry="1" fill="rgb(47,17,0)" fill-opacity="0.502"/></g>
<circle cx="2528.00" cy="3968.00" r="128.00" fill="rgb(57,23,8)" fill-opacity="0.502"/>
<circle cx="2848.00" cy="368.00" r="160.00" fill="rgb(196,200,171)" fill-opacity="0.502"/>
<g transform="translate(6720.00 2240.00) rotate(269) scale(752.00 80.00)"><ellipse cx="0" cy="0" rx="1" ry="1" fill="rgb(65,33,18)" fill-opacity="0.502"/></g>
<polygon points="3376.00,1248.00 3616.00,1248.00 3616.00,1568.00 3376.00,1568.00" fill="rgb(249,255,237)" fill-opacity="0.502"/>
<circle cx="2192.00" cy="3136.00" r="304.00" fill="rgb(161,114,89)" fill-opacity="0.502"/>
<g transform="translate(1232.00 1984.00) rotate(76) scale(128.00 128.00)"><ellipse cx="0" cy="0" rx="1" ry="1" fill="rgb(177,138,116)" fill-opacity="0.502"/></g>
<polygon points="1375.90,790.70 1104.28,776.47 1136.10,169.30 1407.72,183.53" fill="rgb(199,224,255)" fill-opacity="0.502"/>
<g transform="translate(6512.00 4592.00) rotate(189) scale(96.00 768.00)"><ellipse cx="0" cy="0" rx="1" ry="1" fill="rgb(136,107,66)" fill-opacity="0.502"/></g>
<circle cx="2496.00" cy="4256.00" r="192.00" fill="rgb(132,86,50)" fill-opacity="0.502"/>
<g transform="translate(7488.00 4304.00) rotate(241) scale(224.00 944.00)"><ellipse cx="0" cy="0" rx="1" ry="1" fill="rgb(0,0,0)" fill-opacity="0.502"/></g>
<g transform="translate(6736.00 1264.00) rotate(132) scale(96.00 320.00)"><ellipse cx="0" cy="0" rx="1" ry="1" fill="rgb(0,4,0)" fill-opacity="0.502"/></g>
<polygon points="5536.00,4592.00 4208.00,4592.00 4208.00,4368.00 5536.00,4368.00" fill="rgb(25,30,9)" fill-opacity="0.502"/>
<polygon points="6489.21,3401.70 6444.71,3264.74 6870.79,3126.30 6915.29,3263.26" fill="rgb(21,19,5)" fill-opacity="0.502"/>
<g transform="translate(4032.00 2656.00) rotate(190) scale(384.00 80.00)"><ellipse cx="0" cy="0" rx="1" ry="1" fill="rgb(134,69,10)" fill-opacity="0.502"/></g>
<polygon points="6346.40,2206.88 6342.21,2159.06 6501.60,2145.12 6505.79,2192.94" fill="rgb(189,186,174)" fill-opacity="0.502"/>
<circle cx="1440.00" cy="1232.00" r="256.00" fill="rgb(17,27,2)" fill-opacity="0.502"/>
<circle cx="5456.00" cy="624.00" r="192.00" fill="rgb(79,82,40)" fill-opacity="0.502"/>
<polygon points="2444.30,595.84 2435.09,771.60 1987.70,748.16 1996.91,572.40" fill="rgb(11,25,0)" fill-opacity="0.502"/>
<polygon points="3729.94,812.19 3587.55,915.64 3390.06,643.81 3532.45,540.36" fill="rgb(215,222,201)" fill-opacity="0.502"/>
<circle cx="256.00" cy="3632.00" r="848.00" fill="rgb(0,0,0)" fill-opacity="0.502"/>
<polygon points="2632.00,3256.00 2632.00,3672.00 2296.00,3672.00 2296.00,3256.00" fill="rgb(210,159,132)" fill-opacity="0.502"/>
<polygon points="6677.72,3216.90 6316.48,3146.69 6362.28,2911.10 6723.52,2981.31" fill="rgb(180,92,60)" fill-opacity="0.502"/>
<polygon points="1530.47,2054.68 1440.56,2277.21 1173.53,2169.32 1263.44,1946.79" fill="rgb(161,109,83)" fill-opacity="0.502"/>
<polygon points="6723.98,4612.89 6732.08,4148.96 7084.02,4155.11 7075.92,4619.04" fill="rgb(44,36,14)" fill-opacity="0.502"/>
<g transform="translate(992.00 288.00) rotate(89) scale(3344.00 96.00)"><ellipse cx="0" cy="0" rx="1" ry="1" fill="rgb(0,0,0)" fill-opacity="0.502"/></g>
<circle cx="5840.00" cy="3072.00" r="224.00" fill="rgb(63,52,31)" fill-opacity="0.502"/>
<circle cx="4576.00" cy="1632.00" r="160.00" fill="rgb(249,234,198)" fill-opacity="0.502"/>
<g transform="translate(2064.00 1952.00) rotate(198) scale(80.00 608.00)"><ellipse cx="0" cy="0" rx="1" ry="1" fill="rgb(62,29,20)" fill-opacity="0.502"/></g>
<g transform="translate(5168.00 3216.00) rotate(274) scale(32.00 2048.00)"><ellipse cx="0" cy="0" rx="1" ry="1" fill="rgb(0,0,0)" fill-opacity="0.502"/></g>
<polygon points="1294.72,717.05 1579.67,895.10 1537.28,962.95 1252.33,784.90" fill="rgb(190,172,131)" fill-opacity="0.502"/>
<g transform="translate(2960.00 912.00) rotate(65) scale(128.00 304.00)"><ellipse cx="0" cy="0" rx="1" ry="1" fill="rgb(106,59,20)" fill-opacity="0.502"/></g>
<circle cx="7568.00" cy="160.00" r="496.00" fill="rgb(0,0,0)" fill-opacity="0.502"/>
<polygon points="7078.24,2209.04 7064.30,2368.43 6681.76,2334.96 6695.70,2175.57" fill="rgb(1,13,5)" fill-opacity="0.502"/>
<g transform="translate(4624.00 2384.00) rotate(328) scale(496.00 144.00)"><ellipse cx="0" cy="0" rx="1" ry="1" fill="rgb(34,15,9)" fill-opacity="0.502"/></g>
<g transform="translate(7760.00 4368.00) rotate(173) scale(640.00 1856.00)"><ellipse cx="0" cy="0" rx="1" ry="1" fill="rgb(0,0,0)" fill-opacity="0.502"/></g>
<g transform="translate(752.00 208.00) rotate(350) scale(320.00 688.00)"><ellipse cx="0" cy="0" rx="1" ry="1" fill="rgb(0,0,0)" fill-opacity="0.502"/></g>
<circle cx="5264.00" cy="1536.00" r="64.00" fill="rgb(255,240,218)" fill-opacity="0.502"/>
<g transform="translate(2528.00 2480.00) rotate(302) scale(176.00 432.00)"><ellipse cx="0" cy="0" rx="1" ry="1" fill="rgb(18,9,3)" fill-opacity="0.502"/></g>
<circle cx="4016.00" cy="4336.00" r="96.00" fill="rgb(97,59,36)" fill-opacity="0.502"/>
<g transform="translate(2848.00 1312.00) rotate(12) scale(96.00 128.00)"><ellipse cx="0" cy="0" rx="1" ry="1" fill="rgb(48,16,4)" fill-opacity="0.502"/></g>
<polygon points="3979.33,3311.15 4014.17,3171.43 4324.67,3248.85 4289.83,3388.57" fill="rgb(168,143,131)" fill-opacity="0.502"/>
<polygon points="2682.78,3627.01 2939.73,4178.04 2693.22,4292.99 2436.27,3741.96" fill="rgb(146,94,70)" fill-opacity="0.502"/>
<polygon points="3530.94,874.99 3278.09,915.04 3253.06,757.01 3505.91,716.96" fill="rgb(123,85,17)" fill-opacity="0.502"/>
<g transform="translate(2688.00 1936.00) rotate(139) scale(112.00 736.00)"><ellipse cx="0" cy="0" rx="1" ry="1" fill="rgb(110,46,24)" fill-opacity="0.502"/></g>
<circle cx="7680.00" cy="1136.00" r="608.00" fill="rgb(0,0,0)" fill-opacity="0.502"/>
<circle cx="3424.00" cy="2368.00" r="208.00" fill="rgb(163,109,89)" fill-opacity="0.502"/>
<polygon points="3512.22,3538.50 3853.62,4208.54 3639.78,4317.50 3298.38,3647.46" fill="rgb(162,100,69)" fill-opacity="0.502"/>
<polygon points="5200.15,1277.25 5183.42,1468.52 5071.85,1458.75 5088.58,1267.48" fill="rgb(190,136,107)" fill-opacity="0.502"/>
<g transform="translate(1616.00 4512.00) rotate(4) scale(208.00 336.00)"><ellipse cx="0" cy="0" rx="1" ry="1" fill="rgb(34,33,16)" fill-opacity="0.502"/></g>
<polygon points="6569.00,2958.40 6470.81,3159.73 6327.00,3089.60 6425.19,2888.27" fill="rgb(144,91,58)" fill-opacity="0.502"/>
<circle cx="6688.00" cy="1696.00" r="176.00" fill="rgb(111,59,33)" fill-opacity="0.502"/>
<polygon points="4296.40,1654.54 4389.55,1631.32 4567.60,2345.46 4474.45,2368.68" fill="rgb(81,35,16)" fill-opacity="0.502"/>
<polygon points="4040.70,1749.96 3805.58,1426.35 4103.30,1210.04 4338.42,1533.65" fill="rgb(228,244,217)" fill-opacity="0.502"/>
<polygon points="1506.89,2478.42 1587.46,2556.22 1165.11,2993.58 1084.54,2915.78" fill="rgb(192,165,140)" fill-opacity="0.502"/>
<g transform="translate(1216.00 0.00) rotate(360) scale(112.00 720.00)"><ellipse cx="0" cy="0" rx="1" ry="1" fill="rgb(188,212,251)" fill-opacity="0.502"/></g>
<polygon points="6460.51,4259.29 6368.82,4779.27 6195.49,4748.71 6287.18,4228.73" fill="rgb(34,32,4)" fill-opacity="0.502"/>
<circle cx="1680.00" cy="544.00" r="160.00" fill="rgb(78,89,50)" fill-opacity="0.502"/>
<polygon points="3216.00,3184.00 3360.00,3184.00 3360.00,3472.00 3216.00,3472.00" fill="rgb(212,186,170)" fill-opacity="0.502"/>
<g transform="translate(3904.00 368.00) rotate(78) scale(288.00 80.00)"><ellipse cx="0" cy="0" rx="1" ry="1" fill="rgb(199,88,42)" fill-opacity="0.502"/></g>
<g transform="translate(5056.00 3440.00) rotate(7) scale(784.00 208.00)"><ellipse cx="0" cy="0" rx="1" ry="1" fill="rgb(141,110,84)" fill-opacity="0.502"/></g>
<circle cx="3696.00" cy="3408.00" r="256.00" fill="rgb(153,112,89)" fill-opacity="0.502"/>
<g transform="translate(3200.00 224.00) rotate(237) scale(224.00 80.00)"><ellipse cx="0" cy="0" rx="1" ry="1" fill="rgb(207,242,255)" fill-opacity="0.502"/></g>
<polygon points="4416.00,240.00 4416.00,544.00 4336.00,544.00 4336.00,240.00" fill="rgb(213,242,248)" fill-opacity="0.502"/>
<polygon points="1176.58,2193.09 1430.67,2161.89 1479.42,2558.91 1225.33,2590.11" fill="rgb(164,110,85)" fill-opacity="0.502"/>
<polygon points="2080.00,3616.00 1584.00,3616.00 1584.00,3216.00 2080.00,3216.00" fill="rgb(108,74,54)" fill-opacity="0.502"/>
<circle cx="4016.00" cy="3792.00" r="256.00" fill="rgb(104,62,38)" fill-opacity="0.502"/>
<g transform="translate(6944.00 2160.00) rotate(272) scale(48.00 144.00)"><ellipse cx="0" cy="0" rx="1" ry="1" fill="rgb(163,146,139)" fill-opacity="0.502"/></g>
<circle cx="2800.00" cy="0.00" r="272.00" fill="rgb(182,223,255)" fill-opacity="0.502"/>
<polygon points="1755.84,23.98 1943.65,-15.94 2020.16,344.02 1832.35,383.94" fill="rgb(112,96,46)" fill-opacity="0.502"/>
<polygon points="1749.43,4623.00 1661.87,4382.44 1962.57,4273.00 2050.13,4513.56" fill="rgb(68,56,35)" fill-opacity="0.502"/>
<circle cx="1520.00" cy="336.00" r="96.00" fill="rgb(120,150,111)" fill-opacity="0.502"/>
<g transform="translate(5344.00 320.00) rotate(188) scale(576.00 80.00)"><ellipse cx="0" cy="0" rx="1" ry="1" fill="rgb(201,237,250)" fill-opacity="0.502"/></g>
<g transform="translate(5184.00 2256.00) rotate(177) scale(304.00 48.00)"><ellipse cx="0" cy="0" rx="1" ry="1" fill="rgb(140,59,46)" fill-opacity="0.502"/></g>
<polygon points="4646.68,1925.20 5700.11,1851.54 5721.32,2154.80 4667.89,2228.46" fill="rgb(16,11,1)" fill-opacity="0.502"/>
<circle cx="7344.00" cy="512.00" r="288.00" fill="rgb(0,0,0)" fill-opacity="0.502"/>
<g transform="translate(3504.00 32.00) rotate(289) scale(512.00 64.00)"><ellipse cx="0" cy="0" rx="1" ry="1" fill="rgb(70,70,50)" fill-opacity="0.502"/></g>
<g transform="translate(2640.00 368.00) rotate(234) scale(48.00 96.00)"><ellipse cx="0" cy="0" rx="1" ry="1" fill="rgb(205,210,166)" fill-opacity="0.502"/></g>
<polygon points="6219.37,1864.94 6552.10,1818.18 6596.63,2135.06 6263.90,2181.82" fill="rgb(49,20,1)" fill-opacity="0.502"/>
<circle cx="3680.00" cy="448.00" r="160.00" fill="rgb(51,30,8)" fill-opacity="0.502"/>
<polygon points="2546.99,86.07 3214.56,-80.37 3261.01,105.93 2593.44,272.37" fill="rgb(186,220,255)" fill-opacity="0.502"/>
<polygon points="1727.53,2446.13 1489.87,2479.53 1456.47,2241.87 1694.13,2208.47" fill="rgb(5,0,0)" fill-opacity="0.502"/>
<circle cx="3600.00" cy="1840.00" r="112.00" fill="rgb(67,23,1)" fill-opacity="0.502"/>
<g transform="translate(5392.00 3808.00) rotate(149) scale(320.00 320.00)"><ellipse cx="0" cy="0" rx="1" ry="1" fill="rgb(92,62,38)" fill-opacity="0.502"/></g>
<polygon points="6274.53,796.57 6531.97,556.50 6717.47,755.43 6460.03,995.50" fill="rgb(192,182,153)" fill-opacity="0.502"/>
<polygon points="4653.87,-28.04 5323.31,30.53 5266.13,684.04 4596.69,625.47" fill="rgb(200,228,246)" fill-opacity="0.502"/>
<polygon points="7148.10,3378.70 6936.14,3717.92 6691.90,3565.30 6903.86,3226.08" fill="rgb(146,98,69)" fill-opacity="0.502"/>
<g transform="translate(464.00 336.00) rotate(113) scale(832.00 592.00)"><ellipse cx="0" cy="0" rx="1" ry="1" fill="rgb(0,0,0)" fill-opacity="0.502"/></g>
<polygon points="2600.99,3047.04 2198.16,3436.05 2087.01,3320.96 2489.84,2931.95" fill="rgb(118,79,53)" fill-opacity="0.502"/>
<circle cx="5488.00" cy="1216.00" r="160.00" fill="rgb(135,90,58)" fill-opacity="0.502"/>
<polygon points="3890.74,2466.43 3855.64,2180.57 4173.26,2141.57 4208.36,2427.43" fill="rgb(155,99,79)" fill-opacity="0.502"/>
<g transform="translate(1936.00 1008.00) rotate(206) scale(400.00 144.00)"><ellipse cx="0" cy="0" rx="1" ry="1" fill="rgb(56,54,35)" fill-opacity="0.502"/></g>
<g transform="translate(2208.00 3952.00) rotate(4) scale(288.00 192.00)"><ellipse cx="0" cy="0" rx="1" ry="1" fill="rgb(9,8,0)" fill-opacity="0.502"/></g>
<polygon points="3028.78,1152.97 2630.30,1118.11 2651.22,879.03 3049.70,913.89" fill="rgb(151,79,57)" fill-opacity="0.502"/>
<polygon points="3768.00,4312.00 3768.00,4632.00 3624.00,4632.00 3624.00,4312.00" fill="rgb(10,0,0)" fill-opacity="0.502"/>
<polygon points="2507.09,1077.46 1550.32,1747.39 1476.91,1642.54 2433.68,972.61" fill="rgb(0,8,3)" fill-opacity="0.502"/>
<polygon points="4178.46,4586.53 4087.16,4556.86 4141.54,4389.47 4232.84,4419.14" fill="rgb(195,157,127)" fill-opacity="0.502"/>
<circle cx="1488.00" cy="3424.00" r="80.00" fill="rgb(33,37,13)" fill-opacity="0.502"/>
<g transform="translate(4160.00 144.00) rotate(68) scale(64.00 144.00)"><ellipse cx="0" cy="0" rx="1" ry="1" fill="rgb(191,168,138)" fill-opacity="0.502"/></g>
<g transform="translate(4192.00 0.00) rotate(36) scale(176.00 128.00)"><ellipse cx="0" cy="0" rx="1" ry="1" fill="rgb(137,68,26)" fill-opacity="0.502"/></g>
<polygon points="2310.22,1132.27 2666.80,918.01 2905.78,1315.73 2549.20,1529.99" fill="rgb(92,34,18)" fill-opacity="0.502"/>
<polygon points="5586.88,386.51 5936.56,803.24 5581.12,1101.49 5231.44,684.76" fill="rgb(102,86,52)" fill-opacity="0.502"/>
<g transform="translate(2064.00 4480.00) rotate(49) scale(112.00 368.00)"><ellipse cx="0" cy="0" rx="1" ry="1" fill="rgb(35,29,11)" fill-opacity="0.502"/></g>
<g transform="translate(7008.00 144.00) rotate(0) scale(80.00 384.00)"><ellipse cx="0" cy="0" rx="1" ry="1" fill="rgb(180,111,73)" fill-opacity="0.502"/></g>
<circle cx="7312.00" cy="3088.00" r="240.00" fill="rgb(0,0,0)" fill-opacity="0.502"/>
<polygon points="6204.55,1059.90 6377.87,1029.34 6483.45,1628.10 6310.13,1658.66" fill="rgb(239,208,186)" fill-opacity="0.502"/>
<polygon points="3792.00,3472.00 5232.00,3472.00 5232.00,3824.00 3792.00,3824.00" fill="rgb(119,75,47)" fill-opacity="0.502"/>
<g transform="translate(4112.00 1536.00) rotate(89) scale(464.00 208.00)"><ellipse cx="0" cy="0" rx="1" ry="1" fill="rgb(226,227,204)" fill-opacity="0.502"/></g>
<polygon points="5588.63,765.08 5506.00,920.48 5435.37,882.92 5518.00,727.52" fill="rgb(188,171,148)" fill-opacity="0.502"/>
<polygon points="2871.43,1994.69 3166.06,1678.75 3224.57,1733.31 2929.94,2049.25" fill="rgb(60,12,0)" fill-opacity="0.502"/>
<circle cx="3216.00" cy="1104.00" r="160.00" fill="rgb(0,7,0)" fill-opacity="0.502"/>
<polygon points="2969.25,3828.88 3056.21,4153.43 2870.75,4203.12 2783.79,3878.57" fill="rgb(184,135,112)" fill-opacity="0.502"/>
<circle cx="6976.00" cy="2992.00" r="112.00" fill="rgb(172,122,93)" fill-opacity="0.502"/>
<circle cx="1136.00" cy="4576.00" r="208.00" fill="rgb(0,2,0)" fill-opacity="0.502"/>
<polygon points="3177.17,4209.83 3320.33,4422.07 3094.83,4574.17 2951.67,4361.93" fill="rgb(166,112,84)" fill-opacity="0.502"/>
<circle cx="7664.00" cy="2000.00" r="608.00" fill="rgb(0,0,0)" fill-opacity="0.502"/>
<circle cx="7296.00" cy="2848.00" r="240.00" fill="rgb(0,0,0)" fill-opacity="0.502"/>
<g transform="translate(4080.00 2976.00) rotate(266) scale(112.00 240.00)"><ellipse cx="0" cy="0" rx="1" ry="1" fill="rgb(162,117,90)" fill-opacity="0.502"/></g>
<polygon points="6834.35,3146.35 6709.65,3074.35 6781.65,2949.65 6906.35,3021.65" fill="rgb(0,0,0)" fill-opacity="0.502"/>
<circle cx="5472.00" cy="976.00" r="96.00" fill="rgb(40,12,0)" fill-opacity="0.502"/>
<g transform="translate(3312.00 4160.00) rotate(352) scale(224.00 160.00)"><ellipse cx="0" cy="0" rx="1" ry="1" fill="rgb(198,157,134)" fill-opacity="0.502"/></g>
<polygon points="7070.35,3575.44 7025.89,3323.33 7041.65,3320.56 7086.11,3572.67" fill="rgb(255,255,244)" fill-opacity="0.502"/>
<polygon points="2627.06,2886.09 2403.91,2905.61 2396.94,2825.91 2620.09,2806.39" fill="rgb(255,255,227)" fill-opacity="0.502"/>
<g transform="translate(1936.00 3072.00) rotate(61) scale(144.00 176.00)"><ellipse cx="0" cy="0" rx="1" ry="1" fill="rgb(179,143,116)" fill-opacity="0.502"/></g>
<polygon points="2948.42,3045.33 2709.34,3066.25 2699.58,2954.67 2938.66,2933.75" fill="rgb(255,239,205)" fill-opacity="0.502"/>
<polygon points="3457.59,1082.43 3039.34,921.88 3102.41,757.57 3520.66,918.12" fill="rgb(39,39,0)" fill-opacity="0.502"/>
<g transform="translate(2352.00 3632.00) rotate(288) scale(96.00 64.00)"><ellipse cx="0" cy="0" rx="1" ry="1" fill="rgb(163,99,74)" fill-opacity="0.502"/></g>
<polygon points="5796.97,1345.17 6083.39,1375.27 6075.03,1454.83 5788.61,1424.73" fill="rgb(231,213,175)" fill-opacity="0.502"/>
<g transform="translate(3664.00 2688.00) rotate(270) scale(64.00 608.00)"><ellipse cx="0" cy="0" rx="1" ry="1" fill="rgb(190,114,33)" fill-opacity="0.502"/></g>
<g transform="translate(5152.00 2512.00) rotate(176) scale(304.00 64.00)"><ellipse cx="0" cy="0" rx="1" ry="1" fill="rgb(141,81,63)" fill-opacity="0.502"/></g>
<polygon points="2537.31,2614.14 2985.12,2365.92 3062.69,2505.86 2614.88,2754.08" fill="rgb(14,6,0)" fill-opacity="0.502"/>
<circle cx="7776.00" cy="496.00" r="688.00" fill="rgb(0,0,0)" fill-opacity="0.502"/>
<g transform="translate(1792.00 1232.00) rotate(306) scale(288.00 96.00)"><ellipse cx="0" cy="0" rx="1" ry="1" fill="rgb(81,67,52)" fill-opacity="0.502"/></g>
<polygon points="5842.58,1471.16 5696.41,1406.08 5709.42,1376.84 5855.59,1441.92" fill="rgb(216,152,119)" fill-opacity="0.502"/>
<polygon points="2927.76,4708.38 2596.83,4430.70 2720.24,4283.62 3051.17,4561.30" fill="rgb(43,29,2)" fill-opacity="0.502"/>
<polygon points="3304.13,1927.50 3248.13,2024.50 2887.87,1816.50 2943.87,1719.50" fill="rgb(141,70,51)" fill-opacity="0.502"/>
<circle cx="3392.00" cy="3568.00" r="80.00" fill="rgb(69,43,21)" fill-opacity="0.502"/>
<polygon points="3482.86,2878.36 3459.47,3068.93 3237.14,3041.64 3260.53,2851.07" fill="rgb(122,105,92)" fill-opacity="0.502"/>
<polygon points="6838.02,2792.60 6859.91,2732.46 6889.98,2743.40 6868.09,2803.54" fill="rgb(255,255,255)" fill-opacity="0.502"/>
<polygon points="6842.71,343.51 6754.81,532.02 6421.29,376.49 6509.19,187.98" fill="rgb(190,218,225)" fill-opacity="0.502"/>
<polygon points="1409.32,274.98 1781.91,367.87 1758.68,461.02 1386.09,368.13" fill="rgb(145,163,149)" fill-opacity="0.502"/>
<circle cx="1568.00" cy="1936.00" r="224.00" fill="rgb(24,21,20)" fill-opacity="0.502"/>
<polygon points="3034.60,2278.51 2931.50,2322.27 2581.40,1497.49 2684.50,1453.73" fill="rgb(147,73,45)" fill-opacity="0.502"/>
<circle cx="2128.00" cy="0.00" r="144.00" fill="rgb(197,234,232)" fill-opacity="0.502"/>
<polygon points="2751.43,780.21 2532.00,648.36 2688.57,387.79 2908.00,519.64" fill="rgb(129,77,12)" fill-opacity="0.502"/>
<g transform="translate(3504.00 3488.00) rotate(38) scale(128.00 48.00)"><ellipse cx="0" cy="0" rx="1" ry="1" fill="rgb(208,164,145)" fill-opacity="0.502"/></g>
<polygon points="6054.12,316.34 6132.90,330.23 6057.88,755.66 5979.10,741.77" fill="rgb(176,177,146)" fill-opacity="0.502"/>
<polygon points="2025.42,2485.66 2341.86,2146.31 2470.58,2266.34 2154.14,2605.69" fill="rgb(48,21,17)" fill-opacity="0.502"/>
<polygon points="4595.04,-16.77 4540.08,265.93 4492.96,256.77 4547.92,-25.93" fill="rgb(129,69,37)" fill-opacity="0.502"/>
<circle cx="2048.00" cy="3808.00" r="48.00" fill="rgb(96,68,45)" fill-opacity="0.502"/>
<g transform="translate(6416.00 2304.00) rotate(10) scale(112.00 112.00)"><ellipse cx="0" cy="0" rx="1" ry="1" fill="rgb(0,30,20)" fill-opacity="0.502"/></g>
<polygon points="6402.81,2844.76 6534.09,2535.47 6637.19,2579.24 6505.91,2888.53" fill="rgb(183,209,177)" fill-opacity="0.502"/>
<g transform="translate(7312.00 3648.00) rotate(149) scale(112.00 416.00)"><ellipse cx="0" cy="0" rx="1" ry="1" fill="rgb(0,0,0)" fill-opacity="0.502"/></g>
<polygon points="6787.01,2154.74 6750.22,1804.67 6972.99,1781.26 7009.78,2131.33" fill="rgb(66,37,16)" fill-opacity="0.502"/>
<g transform="translate(2080.00 3168.00) rotate(24) scale(336.00 48.00)"><ellipse cx="0" cy="0" rx="1" ry="1" fill="rgb(186,147,123)" fill-opacity="0.502"/></g>
<g transform="translate(5808.00 528.00) rotate(147) scale(192.00 48.00)"><ellipse cx="0" cy="0" rx="1" ry="1" fill="rgb(37,34,0)" fill-opacity="0.502"/></g>
<g transform="translate(3168.00 2720.00) rotate(260) scale(48.00 608.00)"><ellipse cx="0" cy="0" rx="1" ry="1" fill="rgb(165,90,38)" fill-opacity="0.502"/></g>
<polygon points="4082.36,4136.62 4177.34,4077.27 4253.64,4199.38 4158.66,4258.73" fill="rgb(221,183,154)" fill-opacity="0.502"/>
<polygon points="2540.19,3624.16 2775.84,3724.19 2675.81,3959.84 2440.16,3859.81" fill="rgb(162,111,84)" fill-opacity="0.502"/>
<polygon points="7088.77,1522.40 6863.85,738.01 6879.23,733.60 7104.15,1517.99" fill="rgb(227,160,128)" fill-opacity="0.502"/>
<polygon points="2286.24,773.87 1834.13,878.24 1729.76,426.13 2181.87,321.76" fill="rgb(51,49,8)" fill-opacity="0.502"/>
<polygon points="6928.15,1132.80 6707.70,1485.59 6639.85,1443.20 6860.30,1090.41" fill="rgb(14,7,0)" fill-opacity="0.502"/>
<polygon points="3380.19,4577.21 3290.72,4444.57 3595.81,4238.79 3685.28,4371.43" fill="rgb(148,81,53)" fill-opacity="0.502"/>
<polygon points="2950.95,2035.41 3134.80,1881.14 3433.05,2236.59 3249.20,2390.86" fill="rgb(205,119,84)" fill-opacity="0.502"/>
<polygon points="2823.12,4179.44 2882.87,4156.50 2968.88,4380.56 2909.13,4403.50" fill="rgb(131,70,57)" fill-opacity="0.502"/>
<polygon points="6734.16,3624.65 6828.82,3421.64 7089.84,3543.35 6995.18,3746.36" fill="rgb(116,69,45)" fill-opacity="0.502"/>
<g transform="translate(2656.00 4112.00) rotate(323) scale(48.00 816.00)"><ellipse cx="0" cy="0" rx="1" ry="1" fill="rgb(101,58,35)" fill-opacity="0.502"/></g>
<polygon points="5047.67,3368.24 5399.59,3260.65 5432.33,3367.76 5080.41,3475.35" fill="rgb(151,134,112)" fill-opacity="0.502"/>
<polygon points="6159.69,2139.01 6526.67,2395.97 6352.31,2644.99 5985.33,2388.03" fill="rgb(48,69,41)" fill-opacity="0.502"/>
<g transform="translate(4864.00 160.00) rotate(70) scale(128.00 336.00)"><ellipse cx="0" cy="0" rx="1" ry="1" fill="rgb(200,222,236)" fill-opacity="0.502"/></g>
<polygon points="3140.98,1679.24 2935.54,1711.78 2923.02,1632.76 3128.46,1600.22" fill="rgb(44,3,2)" fill-opacity="0.502"/>
<polygon points="5340.53,846.47 5332.17,766.91 5459.47,753.53 5467.83,833.09" fill="rgb(194,196,152)" fill-opacity="0.502"/>
<g transform="translate(3104.00 448.00) rotate(164) scale(64.00 256.00)"><ellipse cx="0" cy="0" rx="1" ry="1" fill="rgb(137,77,28)" fill-opacity="0.502"/></g>
<circle cx="5504.00" cy="304.00" r="96.00" fill="rgb(202,224,231)" fill-opacity="0.502"/>
<circle cx="592.00" cy="4384.00" r="512.00" fill="rgb(0,0,0)" fill-opacity="0.502"/>
<g transform="translate(2176.00 3584.00) rotate(50) scale(128.00 176.00)"><ellipse cx="0" cy="0" rx="1" ry="1" fill="rgb(130,83,53)" fill-opacity="0.502"/></g>
<circle cx="5824.00" cy="192.00" r="112.00" fill="rgb(187,184,162)" fill-opacity="0.502"/>
<g transform="translate(2800.00 3184.00) rotate(27) scale(432.00 96.00)"><ellipse cx="0" cy="0" rx="1" ry="1" fill="rgb(138,97,64)" fill-opacity="0.502"/></g>
<polygon points="6556.57,19.37 6667.43,83.37 6403.43,540.63 6292.57,476.63" fill="rgb(172,172,154)" fill-opacity="0.502"/>
<polygon points="3712.00,4544.00 4144.00,4544.00 4144.00,4592.00 3712.00,4592.00" fill="rgb(116,81,47)" fill-opacity="0.502"/>
<circle cx="368.00" cy="3824.00" r="736.00" fill="rgb(0,0,0)" fill-opacity="0.502"/>
<g transform="translate(2672.00 3552.00) rotate(294) scale(80.00 384.00)"><ellipse cx="0" cy="0" rx="1" ry="1" fill="rgb(222,171,139)" fill-opacity="0.502"/></g>
<g transform="translate(2112.00 2176.00) rotate(360) scale(384.00 416.00)"><ellipse cx="0" cy="0" rx="1" ry="1" fill="rgb(40,19,13)" fill-opacity="0.502"/></g>
<g transform="translate(3056.00 928.00) rotate(266) scale(224.00 80.00)"><ellipse cx="0" cy="0" rx="1" ry="1" fill="rgb(86,55,16)" fill-opacity="0.502"/></g>
<circle cx="1264.00" cy="4096.00" r="176.00" fill="rgb(157,103,79)" fill-opacity="0.502"/>
<circle cx="3616.00" cy="1104.00" r="64.00" fill="rgb(255,255,233)" fill-opacity="0.502"/>
<polygon points="6739.65,3936.18 6781.75,3798.47 6812.35,3807.82 6770.25,3945.53" fill="rgb(201,151,139)" fill-opacity="0.502"/>
<polygon points="5785.05,3431.07 4204.91,3320.58 4214.95,3176.93 5795.09,3287.42" fill="rgb(147,136,119)" fill-opacity="0.502"/>
<circle cx="1616.00" cy="2688.00" r="112.00" fill="rgb(214,207,192)" fill-opacity="0.502"/>
<polygon points="5264.84,1588.50 5336.43,1749.28 4927.16,1931.50 4855.57,1770.72" fill="rgb(52,30,8)" fill-opacity="0.502"/>
<circle cx="5408.00" cy="4208.00" r="208.00" fill="rgb(51,45,19)" fill-opacity="0.502"/>
<circle cx="4112.00" cy="992.00" r="272.00" fill="rgb(212,239,244)" fill-opacity="0.502"/>
<polygon points="3763.64,4344.42 3862.06,4490.33 3676.36,4615.58 3577.94,4469.67" fill="rgb(3,1,0)" fill-opacity="0.502"/>
<g transform="translate(3504.00 1200.00) rotate(96) scale(96.00 160.00)"><ellipse cx="0" cy="0" rx="1" ry="1" fill="rgb(218,218,194)" fill-opacity="0.502"/></g>
<g transform="translate(3312.00 240.00) rotate(6) scale(64.00 112.00)"><ellipse cx="0" cy="0" rx="1" ry="1" fill="rgb(173,209,222)" fill-opacity="0.502"/></g>
<polygon points="0.00,0.00 1088.00,0.00 1088.00,3776.00 0.00,3776.00" fill="rgb(0,0,0)" fill-opacity="0.502"/>
<polygon points="7045.35,-154.54 6970.26,319.55 6938.65,314.54 7013.74,-159.55" fill="rgb(31,19,8)" fill-opacity="0.502"/>
<circle cx="3872.00" cy="4000.00" r="96.00" fill="rgb(87,46,28)" fill-opacity="0.502"/>
<circle cx="1344.00" cy="1088.00" r="176.00" fill="rgb(46,43,3)" fill-opacity="0.502"/>
<g transform="translate(6432.00 0.00) rotate(283) scale(240.00 192.00)"><ellipse cx="0" cy="0" rx="1" ry="1" fill="rgb(150,119,102)" fill-opacity="0.502"/></g>
<polygon points="4440.56,890.83 4291.18,948.17 4199.44,709.17 4348.82,651.83" fill="rgb(201,238,252)" fill-opacity="0.502"/>
<polygon points="7004.20,973.74 7004.20,973.74 7043.80,802.26 7043.80,802.26" fill="rgb(255,255,252)" fill-opacity="0.502"/>
<circle cx="3168.00" cy="3152.00" r="64.00" fill="rgb(236,211,185)" fill-opacity="0.502"/>
<g transform="translate(6832.00 832.00) rotate(183) scale(16.00 192.00)"><ellipse cx="0" cy="0" rx="1" ry="1" fill="rgb(0,0,0)" fill-opacity="0.502"/></g>
<g transform="translate(3040.00 1424.00) rotate(269) scale(32.00 304.00)"><ellipse cx="0" cy="0" rx="1" ry="1" fill="rgb(89,27,15)" fill-opacity="0.502"/></g>
<polygon points="4361.79,4450.94 4315.02,4440.14 4358.21,4253.06 4404.98,4263.86" fill="rgb(164,137,124)" fill-opacity="0.502"/>
<g transform="translate(7936.00 2816.00) rotate(159) scale(752.00 1344.00)"><ellipse cx="0" cy="0" rx="1" ry="1" fill="rgb(0,0,0)" fill-opacity="0.502"/></g>
<polygon points="6857.37,3684.03 7081.23,3676.21 7094.63,4059.97 6870.77,4067.79" fill="rgb(93,57,32)" fill-opacity="0.502"/>
<polygon points="1921.98,4150.50 1905.26,3991.38 2494.02,3929.50 2510.74,4088.62" fill="rgb(0,8,1)" fill-opacity="0.502"/>
<polygon points="6727.39,333.20 6793.69,-206.75 6936.61,-189.20 6870.31,350.75" fill="rgb(199,234,255)" fill-opacity="0.502"/>
<g transform="translate(5920.00 2752.00) rotate(246) scale(144.00 192.00)"><ellipse cx="0" cy="0" rx="1" ry="1" fill="rgb(68,101,67)" fill-opacity="0.502"/></g>
<g transform="translate(3616.00 2192.00) rotate(212) scale(288.00 240.00)"><ellipse cx="0" cy="0" rx="1" ry="1" fill="rgb(163,111,86)" fill-opacity="0.502"/></g>
<polygon points="6153.43,1053.63 6231.68,1070.26 6118.57,1602.37 6040.32,1585.74" fill="rgb(32,3,0)" fill-opacity="0.502"/>
<circle cx="1200.00" cy="3680.00" r="80.00" fill="rgb(114,92,73)" fill-opacity="0.502"/>
<polygon points="2232.26,2635.43 2753.42,2948.57 2695.74,3044.57 2174.58,2731.43" fill="rgb(255,239,206)" fill-opacity="0.502"/>
<polygon points="5077.14,822.24 5479.80,625.85 5514.86,697.76 5112.20,894.15" fill="rgb(34,39,0)" fill-opacity="0.502"/>
<polygon points="4988.90,2295.87 5053.17,2493.69 4627.10,2632.13 4562.83,2434.31" fill="rgb(67,29,16)" fill-opacity="0.502"/>
<polygon points="4543.73,2365.61 4933.48,2275.62 4944.27,2322.39 4554.52,2412.38" fill="rgb(50,35,35)" fill-opacity="0.502"/>
<circle cx="3728.00" cy="3456.00" r="128.00" fill="rgb(126,79,51)" fill-opacity="0.502"/>
<circle cx="6768.00" cy="2928.00" r="96.00" fill="rgb(25,10,0)" fill-opacity="0.502"/>
<circle cx="5952.00" cy="3952.00" r="272.00" fill="rgb(82,61,36)" fill-opacity="0.502"/>
<polygon points="6902.94,456.39 6919.61,550.94 6825.06,567.61 6808.39,473.06" fill="rgb(211,125,87)" fill-opacity="0.502"/>
<polygon points="1134.49,209.06 1315.79,-92.67 1521.51,30.94 1340.21,332.67" fill="rgb(189,214,255)" fill-opacity="0.502"/>
<polygon points="2762.43,4708.64 2556.42,4365.77 2693.57,4283.36 2899.58,4626.23" fill="rgb(22,23,8)" fill-opacity="0.502"/>
<circle cx="5216.00" cy="960.00" r="192.00" fill="rgb(32,32,0)" fill-opacity="0.502"/>
<g transform="translate(3696.00 1600.00) rotate(92) scale(416.00 32.00)"><ellipse cx="0" cy="0" rx="1" ry="1" fill="rgb(90,38,18)" fill-opacity="0.502"/></g>
<polygon points="5920.00,1856.00 5792.00,1856.00 5792.00,1456.00 5920.00,1456.00" fill="rgb(45,31,3)" fill-opacity="0.502"/>
<g transform="translate(3088.00 1296.00) rotate(62) scale(416.00 16.00)"><ellipse cx="0" cy="0" rx="1" ry="1" fill="rgb(177,134,105)" fill-opacity="0.502"/></g>
<circle cx="5728.00" cy="992.00" r="80.00" fill="rgb(166,129,115)" fill-opacity="0.502"/>
</g>
</svg>