<?xml version="1.0" standalone="no"?>
<svg xmlns="http://www.w3.org/2000/svg" width="8192" height="4608" viewBox="0 0 8192 4608" style="overflow:hidden">
<defs>
<clipPath id="c"><rect x="0" y="0" width="8192" height="4608"/></clipPath>
</defs>
<rect width="8192" height="4608" fill="rgb(73,91,69)"/>
<g clip-path="url(#c)">
<circle cx="8176.00" cy="1504.00" r="1696.00" fill="rgb(0,0,0)" fill-opacity="0.502"/>
<circle cx="3760.00" cy="640.00" r="2640.00" fill="rgb(202,174,172)" fill-opacity="0.502"/>
<circle cx="6032.00" cy="2640.00" r="720.00" fill="rgb(255,255,255)" fill-opacity="0.502"/>
<circle cx="5072.00" cy="2560.00" r="592.00" fill="rgb(246,255,255)" fill-opacity="0.502"/>
<g transform="translate(3408.00 2336.00) rotate(80) scale(560.00 1216.00)"><ellipse cx="0" cy="0" rx="1" ry="1" fill="rgb(194,255,255)" fill-opacity="0.502"/></g>
<circle cx="0.00" cy="1536.00" r="1600.00" fill="rgb(0,0,0)" fill-opacity="0.502"/>
<circle cx="2880.00" cy="4432.00" r="1552.00" fill="rgb(0,167,4)" fill-opacity="0.502"/>
<circle cx="5296.00" cy="848.00" r="1200.00" fill="rgb(46,3,0)" fill-opacity="0.502"/>
<circle cx="7376.00" cy="4368.00" r="1360.00" fill="rgb(0,0,0)" fill-opacity="0.502"/>
<circle cx="0.00" cy="3632.00" r="1280.00" fill="rgb(0,0,0)" fill-opacity="0.502"/>
<g transform="translate(3584.00 192.00) rotate(84) scale(752.00 272.00)"><ellipse cx="0" cy="0" rx="1" ry="1" fill="rgb(255,255,200)" fill-opacity="0.502"/></g>
<circle cx="6448.00" cy="2608.00" r="640.00" fill="rgb(202,240,255)" fill-opacity="0.502"/>
<g transform="translate(6384.00 1728.00) rotate(182) scale(2240.00 320.00)"><ellipse cx="0" cy="0" rx="1" ry="1" fill="rgb(16,0,0)" fill-opacity="0.502"/></g>
<circle cx="5312.00" cy="2544.00" r="576.00" fill="rgb(198,255,255)" fill-opacity="0.502"/>
<circle cx="5824.00" cy="3984.00" r="912.00" fill="rgb(0,83,15)" fill-opacity="0.502"/>
<g transform="translate(4368.00 2736.00) rotate(277) scale(272.00 1856.00)"><ellipse cx="0" cy="0" rx="1" ry="1" fill="rgb(226,255,255)" fill-opacity="0.502"/></g>
<circle cx="8176.00" cy="3488.00" r="1248.00" fill="rgb(0,0,0)" fill-opacity="0.502"/>
<polygon points="4280.55,4494.87 4314.00,4176.63 4775.45,4225.13 4742.00,4543.37" fill="rgb(0,0,0)" fill-opacity="0.502"/>
<g transform="translate(1456.00 2528.00) rotate(313) scale(336.00 368.00)"><ellipse cx="0" cy="0" rx="1" ry="1" fill="rgb(180,205,255)" fill-opacity="0.502"/></g>
<g transform="translate(7776.00 1744.00) rotate(360) scale(704.00 4592.00)"><ellipse cx="0" cy="0" rx="1" ry="1" fill="rgb(0,0,0)" fill-opacity="0.502"/></g>
<circle cx="2160.00" cy="0.00" r="704.00" fill="rgb(255,254,197)" fill-opacity="0.502"/>
<circle cx="4368.00" cy="208.00" r="544.00" fill="rgb(75,46,29)" fill-opacity="0.502"/>
<g transform="translate(368.00 1568.00) rotate(179) scale(752.00 4592.00)"><ellipse cx="0" cy="0" rx="1" ry="1" fill="rgb(0,0,0)" fill-opacity="0.502"/></g>
<g transform="translate(1632.00 3536.00) rotate(4) scale(592.00 496.00)"><ellipse cx="0" cy="0" rx="1" ry="1" fill="rgb(99,255,74)" fill-opacity="0.502"/></g>
<g transform="translate(3712.00 4560.00) rotate(360) scale(3696.00 336.00)"><ellipse cx="0" cy="0" rx="1" ry="1" fill="rgb(0,0,0)" fill-opacity="0.502"/></g>
<g transform="translate(4192.00 3520.00) rotate(3) scale(2976.00 464.00)"><ellipse cx="0" cy="0" rx="1" ry="1" fill="rgb(0,163,7)" fill-opacity="0.502"/></g>
<circle cx="6320.00" cy="1296.00" r="416.00" fill="rgb(26,7,9)" fill-opacity="0.502"/>
<g transform="translate(1776.00 1120.00) rotate(236) scale(880.00 640.00)"><ellipse cx="0" cy="0" rx="1" ry="1" fill="rgb(143,99,77)" fill-opacity="0.502"/></g>
<circle cx="6208.00" cy="0.00" r="288.00" fill="rgb(245,255,253)" fill-opacity="0.502"/>
<polygon points="1154.97,2709.18 1467.56,1972.78 1821.03,2122.82 1508.44,2859.22" fill="rgb(121,149,245)" fill-opacity="0.502"/>
<g transform="translate(2640.00 3664.00) rotate(189) scale(1600.00 416.00)"><ellipse cx="0" cy="0" rx="1" ry="1" fill="rgb(88,197,88)" fill-opacity="0.502"/></g>
<circle cx="6800.00" cy="0.00" r="288.00" fill="rgb(255,225,223)" fill-opacity="0.502"/>
<polygon points="1838.82,3755.86 1823.48,3931.19 1377.18,3892.14 1392.52,3716.81" fill="rgb(255,222,255)" fill-opacity="0.502"/>
<g transform="translate(1568.00 4320.00) rotate(280) scale(384.00 2992.00)"><ellipse cx="0" cy="0" rx="1" ry="1" fill="rgb(0,39,0)" fill-opacity="0.502"/></g>
<circle cx="4688.00" cy="1440.00" r="576.00" fill="rgb(104,75,58)" fill-opacity="0.502"/>
<g transform="translate(400.00 1664.00) rotate(209) scale(528.00 1152.00)"><ellipse cx="0" cy="0" rx="1" ry="1" fill="rgb(0,0,0)" fill-opacity="0.502"/></g>
<polygon points="1754.12,2761.75 1928.45,2419.60 2341.88,2630.25 2167.55,2972.40" fill="rgb(189,199,223)" fill-opacity="0.502"/>
<g transform="translate(4304.00 4080.00) rotate(95) scale(96.00 3248.00)"><ellipse cx="0" cy="0" rx="1" ry="1" fill="rgb(204,166,228)" fill-opacity="0.502"/></g>
<g transform="translate(6272.00 3328.00) rotate(273) scale(176.00 1536.00)"><ellipse cx="0" cy="0" rx="1" ry="1" fill="rgb(0,28,1)" fill-opacity="0.502"/></g>
<g transform="translate(1536.00 48.00) rotate(275) scale(464.00 432.00)"><ellipse cx="0" cy="0" rx="1" ry="1" fill="rgb(253,203,163)" fill-opacity="0.502"/></g>
<g transform="translate(7456.00 3856.00) rotate(90) scale(8176.00 368.00)"><ellipse cx="0" cy="0" rx="1" ry="1" fill="rgb(0,0,0)" fill-opacity="0.502"/></g>
<g transform="translate(2288.00 256.00) rotate(204) scale(304.00 320.00)"><ellipse cx="0" cy="0" rx="1" ry="1" fill="rgb(255,254,210)" fill-opacity="0.502"/></g>
<polygon points="1632.45,215.06 1465.76,699.17 1087.55,568.94 1254.24,84.83" fill="rgb(174,136,109)" fill-opacity="0.502"/>
<circle cx="6592.00" cy="592.00" r="464.00" fill="rgb(88,27,17)" fill-opacity="0.502"/>
<circle cx="320.00" cy="3632.00" r="784.00" fill="rgb(0,0,0)" fill-opacity="0.502"/>
<g transform="translate(3600.00 2432.00) rotate(0) scale(832.00 288.00)"><ellipse cx="0" cy="0" rx="1" ry="1" fill="rgb(141,206,255)" fill-opacity="0.502"/></g>
<circle cx="5696.00" cy="2320.00" r="352.00" fill="rgb(146,215,255)" fill-opacity="0.502"/>
<g transform="translate(2608.00 768.00) rotate(82) scale(160.00 544.00)"><ellipse cx="0" cy="0" rx="1" ry="1" fill="rgb(161,179,200)" fill-opacity="0.502"/></g>
<circle cx="1216.00" cy="3776.00" r="128.00" fill="rgb(255,232,222)" fill-opacity="0.502"/>
<g transform="translate(2784.00 1280.00) rotate(26) scale(656.00 320.00)"><ellipse cx="0" cy="0" rx="1" ry="1" fill="rgb(140,97,74)" fill-opacity="0.502"/></g>
<circle cx="3920.00" cy="3520.00" r="480.00" fill="rgb(0,132,10)" fill-opacity="0.502"/>
<circle cx="2848.00" cy="2720.00" r="272.00" fill="rgb(149,194,255)" fill-opacity="0.502"/>
<circle cx="1376.00" cy="3152.00" r="304.00" fill="rgb(0,182,11)" fill-opacity="0.502"/>
<g transform="translate(4384.00 2560.00) rotate(64) scale(80.00 192.00)"><ellipse cx="0" cy="0" rx="1" ry="1" fill="rgb(0,0,0)" fill-opacity="0.502"/></g>
<g transform="translate(3008.00 464.00) rotate(286) scale(272.00 496.00)"><ellipse cx="0" cy="0" rx="1" ry="1" fill="rgb(223,170,129)" fill-opacity="0.502"/></g>
<polygon points="5458.50,2784.16 5995.33,1988.28 6605.50,2399.84 6068.67,3195.72" fill="rgb(202,239,255)" fill-opacity="0.502"/>
<circle cx="2528.00" cy="3488.00" r="352.00" fill="rgb(0,206,9)" fill-opacity="0.502"/>
<circle cx="2240.00" cy="2416.00" r="512.00" fill="rgb(136,168,168)" fill-opacity="0.502"/>
<circle cx="352.00" cy="336.00" r="752.00" fill="rgb(0,0,0)" fill-opacity="0.502"/>
<polygon points="3823.31,2442.86 3809.35,2043.11 4896.69,2005.14 4910.65,2404.89" fill="rgb(201,252,254)" fill-opacity="0.502"/>
<g transform="translate(5888.00 1696.00) rotate(268) scale(304.00 336.00)"><ellipse cx="0" cy="0" rx="1" ry="1" fill="rgb(98,79,65)" fill-opacity="0.502"/></g>
<circle cx="6880.00" cy="3008.00" r="224.00" fill="rgb(162,220,255)" fill-opacity="0.502"/>
<circle cx="3728.00" cy="1568.00" r="496.00" fill="rgb(169,134,106)" fill-opacity="0.502"/>
<polygon points="6186.62,2071.26 6361.97,1711.74 7397.38,2216.74 7222.03,2576.26" fill="rgb(64,42,34)" fill-opacity="0.502"/>
<circle cx="5840.00" cy="0.00" r="288.00" fill="rgb(182,182,158)" fill-opacity="0.502"/>
<circle cx="7968.00" cy="784.00" r="896.00" fill="rgb(0,0,0)" fill-opacity="0.502"/>
<circle cx="3584.00" cy="1328.00" r="672.00" fill="rgb(163,132,109)" fill-opacity="0.502"/>
<polygon points="5352.00,3512.00 5352.00,3752.00 5000.00,3752.00 5000.00,3512.00" fill="rgb(17,204,75)" fill-opacity="0.502"/>
<circle cx="3104.00" cy="1680.00" r="368.00" fill="rgb(135,134,122)" fill-opacity="0.502"/>
<circle cx="6768.00" cy="3792.00" r="320.00" fill="rgb(0,123,43)" fill-opacity="0.502"/>
<g transform="translate(1520.00 2992.00) rotate(89) scale(96.00 992.00)"><ellipse cx="0" cy="0" rx="1" ry="1" fill="rgb(0,50,0)" fill-opacity="0.502"/></g>
<g transform="translate(1968.00 3296.00) rotate(360) scale(720.00 208.00)"><ellipse cx="0" cy="0" rx="1" ry="1" fill="rgb(33,221,44)" fill-opacity="0.502"/></g>
<circle cx="7008.00" cy="2224.00" r="112.00" fill="rgb(178,163,145)" fill-opacity="0.502"/>
<polygon points="4663.30,3085.78 3235.03,2729.67 3304.70,2450.22 4732.97,2806.33" fill="rgb(233,255,255)" fill-opacity="0.502"/>
<g transform="translate(4672.00 4496.00) rotate(266) scale(256.00 1008.00)"><ellipse cx="0" cy="0" rx="1" ry="1" fill="rgb(0,0,0)" fill-opacity="0.502"/></g>
<g transform="translate(3600.00 3632.00) rotate(268) scale(224.00 1664.00)"><ellipse cx="0" cy="0" rx="1" ry="1" fill="rgb(0,178,22)" fill-opacity="0.502"/></g>
<circle cx="5856.00" cy="4112.00" r="304.00" fill="rgb(14,39,55)" fill-opacity="0.502"/>
<circle cx="6816.00" cy="2672.00" r="208.00" fill="rgb(171,212,255)" fill-opacity="0.502"/>
<polygon points="3651.08,2818.51 4052.92,3050.51 3884.92,3341.49 3483.08,3109.49" fill="rgb(38,61,31)" fill-opacity="0.502"/>
<polygon points="1987.78,492.66 2321.27,533.61 2284.22,835.34 1950.73,794.39" fill="rgb(126,86,78)" fill-opacity="0.502"/>
<polygon points="6953.26,-2.35 7097.17,2.67 7078.74,530.35 6934.83,525.33" fill="rgb(221,191,177)" fill-opacity="0.502"/>
<g transform="translate(4960.00 960.00) rotate(131) scale(560.00 640.00)"><ellipse cx="0" cy="0" rx="1" ry="1" fill="rgb(116,74,55)" fill-opacity="0.502"/></g>
<polygon points="3161.67,3322.97 3059.77,3070.78 3638.33,2837.03 3740.23,3089.22" fill="rgb(10,49,34)" fill-opacity="0.502"/>
<g transform="translate(6416.00 2576.00) rotate(128) scale(368.00 800.00)"><ellipse cx="0" cy="0" rx="1" ry="1" fill="rgb(170,215,254)" fill-opacity="0.502"/></g>
<g transform="translate(1920.00 2208.00) rotate(121) scale(208.00 528.00)"><ellipse cx="0" cy="0" rx="1" ry="1" fill="rgb(115,152,140)" fill-opacity="0.502"/></g>
<circle cx="5888.00" cy="2976.00" r="192.00" fill="rgb(255,255,204)" fill-opacity="0.502"/>
<g transform="translate(6192.00 2880.00) rotate(115) scale(208.00 528.00)"><ellipse cx="0" cy="0" rx="1" ry="1" fill="rgb(254,255,214)" fill-opacity="0.502"/></g>
<polygon points="5750.22,1983.97 5769.21,2527.64 4841.78,2560.03 4822.79,2016.36" fill="rgb(162,218,255)" fill-opacity="0.502"/>
<circle cx="3200.00" cy="2608.00" r="400.00" fill="rgb(173,210,255)" fill-opacity="0.502"/>
<g transform="translate(4240.00 3200.00) rotate(184) scale(3280.00 80.00)"><ellipse cx="0" cy="0" rx="1" ry="1" fill="rgb(0,28,0)" fill-opacity="0.502"/></g>
<g transform="translate(496.00 2464.00) rotate(346) scale(496.00 1600.00)"><ellipse cx="0" cy="0" rx="1" ry="1" fill="rgb(0,0,0)" fill-opacity="0.502"/></g>
<g transform="translate(3600.00 2352.00) rotate(184) scale(448.00 336.00)"><ellipse cx="0" cy="0" rx="1" ry="1" fill="rgb(160,217,255)" fill-opacity="0.502"/></g>
<circle cx="1584.00" cy="4464.00" r="560.00" fill="rgb(0,94,0)" fill-opacity="0.502"/>
<polygon points="6679.20,3342.28 6665.81,3150.74 7080.80,3121.72 7094.19,3313.26" fill="rgb(12,95,54)" fill-opacity="0.502"/>
<g transform="translate(1584.00 0.00) rotate(81) scale(112.00 480.00)"><ellipse cx="0" cy="0" rx="1" ry="1" fill="rgb(255,255,229)" fill-opacity="0.502"/></g>
<polygon points="1544.56,3393.33 1572.99,3663.84 1127.44,3710.67 1099.01,3440.16" fill="rgb(104,97,1)" fill-opacity="0.502"/>
<polygon points="2023.15,2675.25 2007.52,2898.70 1464.85,2860.75 1480.48,2637.30" fill="rgb(149,166,199)" fill-opacity="0.502"/>
<circle cx="7584.00" cy="4208.00" r="512.00" fill="rgb(0,0,0)" fill-opacity="0.502"/>
<g transform="translate(4352.00 0.00) rotate(261) scale(384.00 352.00)"><ellipse cx="0" cy="0" rx="1" ry="1" fill="rgb(53,36,26)" fill-opacity="0.502"/></g>
<g transform="translate(3360.00 2944.00) rotate(284) scale(32.00 448.00)"><ellipse cx="0" cy="0" rx="1" ry="1" fill="rgb(188,191,209)" fill-opacity="0.502"/></g>
<polygon points="4063.29,3596.41 3573.66,3746.11 3456.71,3363.59 3946.34,3213.89" fill="rgb(30,185,52)" fill-opacity="0.502"/>
<g transform="translate(6096.00 1504.00) rotate(100) scale(512.00 208.00)"><ellipse cx="0" cy="0" rx="1" ry="1" fill="rgb(42,29,26)" fill-opacity="0.502"/></g>
<circle cx="624.00" cy="272.00" r="480.00" fill="rgb(0,0,0)" fill-opacity="0.502"/>
<g transform="translate(2384.00 2720.00) rotate(13) scale(496.00 112.00)"><ellipse cx="0" cy="0" rx="1" ry="1" fill="rgb(190,217,251)" fill-opacity="0.502"/></g>
<circle cx="6656.00" cy="768.00" r="496.00" fill="rgb(72,43,35)" fill-opacity="0.502"/>
<g transform="translate(4080.00 560.00) rotate(1) scale(176.00 864.00)"><ellipse cx="0" cy="0" rx="1" ry="1" fill="rgb(157,113,83)" fill-opacity="0.502"/></g>
<polygon points="4011.75,345.14 3813.96,834.69 3428.25,678.86 3626.04,189.31" fill="rgb(246,191,143)" fill-opacity="0.502"/>
<circle cx="1888.00" cy="3488.00" r="288.00" fill="rgb(27,201,24)" fill-opacity="0.502"/>
<g transform="translate(4240.00 160.00) rotate(151) scale(240.00 240.00)"><ellipse cx="0" cy="0" rx="1" ry="1" fill="rgb(56,37,26)" fill-opacity="0.502"/></g>
<g transform="translate(3552.00 0.00) rotate(63) scale(208.00 304.00)"><ellipse cx="0" cy="0" rx="1" ry="1" fill="rgb(255,255,223)" fill-opacity="0.502"/></g>
<polygon points="2911.32,3170.63 3612.64,3231.99 3552.68,3917.37 2851.36,3856.01" fill="rgb(8,171,17)" fill-opacity="0.502"/>
<polygon points="5360.00,3568.00 6640.00,3568.00 6640.00,3840.00 5360.00,3840.00" fill="rgb(15,172,77)" fill-opacity="0.502"/>
<circle cx="3040.00" cy="32.00" r="128.00" fill="rgb(0,0,0)" fill-opacity="0.502"/>
<polygon points="6587.70,612.10 6051.16,361.91 6132.30,187.90 6668.84,438.09" fill="rgb(69,35,20)" fill-opacity="0.502"/>
<g transform="translate(1280.00 2544.00) rotate(235) scale(256.00 128.00)"><ellipse cx="0" cy="0" rx="1" ry="1" fill="rgb(168,176,220)" fill-opacity="0.502"/></g>
<g transform="translate(2800.00 2032.00) rotate(310) scale(448.00 352.00)"><ellipse cx="0" cy="0" rx="1" ry="1" fill="rgb(156,171,155)" fill-opacity="0.502"/></g>
<polygon points="4044.58,2868.66 4064.62,3011.26 3779.42,3051.34 3759.38,2908.74" fill="rgb(255,255,248)" fill-opacity="0.502"/>
<g transform="translate(1600.00 1120.00) rotate(354) scale(528.00 496.00)"><ellipse cx="0" cy="0" rx="1" ry="1" fill="rgb(131,102,80)" fill-opacity="0.502"/></g>
<circle cx="8176.00" cy="2048.00" r="1120.00" fill="rgb(0,0,0)" fill-opacity="0.502"/>
<circle cx="5232.00" cy="4000.00" r="224.00" fill="rgb(0,60,32)" fill-opacity="0.502"/>
<g transform="translate(432.00 4128.00) rotate(182) scale(672.00 3072.00)"><ellipse cx="0" cy="0" rx="1" ry="1" fill="rgb(0,0,0)" fill-opacity="0.502"/></g>
<polygon points="2563.99,479.88 2974.55,122.99 3132.01,304.12 2721.45,661.01" fill="rgb(215,181,149)" fill-opacity="0.502"/>
<g transform="translate(2832.00 4400.00) rotate(42) scale(256.00 416.00)"><ellipse cx="0" cy="0" rx="1" ry="1" fill="rgb(0,95,0)" fill-opacity="0.502"/></g>
<circle cx="4832.00" cy="3888.00" r="144.00" fill="rgb(0,93,0)" fill-opacity="0.502"/>
<circle cx="8032.00" cy="816.00" r="960.00" fill="rgb(0,0,0)" fill-opacity="0.502"/>
<polygon points="7289.88,2046.89 8222.89,2775.83 7878.12,3217.11 6945.11,2488.17" fill="rgb(0,0,0)" fill-opacity="0.502"/>
<polygon points="6094.59,353.23 5839.13,778.38 5633.41,654.77 5888.87,229.62" fill="rgb(142,107,76)" fill-opacity="0.502"/>
<circle cx="5792.00" cy="2976.00" r="192.00" fill="rgb(245,243,209)" fill-opacity="0.502"/>
<circle cx="1920.00" cy="2432.00" r="208.00" fill="rgb(94,111,115)" fill-opacity="0.502"/>
<polygon points="7008.00,96.00 6544.00,96.00 6544.00,0.00 7008.00,-0.00" fill="rgb(218,255,255)" fill-opacity="0.502"/>
<polygon points="1623.12,3069.62 1591.05,3436.22 1112.88,3394.38 1144.95,3027.78" fill="rgb(53,229,58)" fill-opacity="0.502"/>
<g transform="translate(1728.00 592.00) rotate(251) scale(144.00 144.00)"><ellipse cx="0" cy="0" rx="1" ry="1" fill="rgb(218,188,159)" fill-opacity="0.502"/></g>
<circle cx="6624.00" cy="3264.00" r="128.00" fill="rgb(9,83,30)" fill-opacity="0.502"/>
<g transform="translate(2544.00 4192.00) rotate(360) scale(1184.00 144.00)"><ellipse cx="0" cy="0" rx="1" ry="1" fill="rgb(0,115,0)" fill-opacity="0.502"/></g>
<g transform="translate(4976.00 48.00) rotate(4) scale(32.00 512.00)"><ellipse cx="0" cy="0" rx="1" ry="1" fill="rgb(182,164,154)" fill-opacity="0.502"/></g>
<g transform="translate(5568.00 1104.00) rotate(347) scale(144.00 560.00)"><ellipse cx="0" cy="0" rx="1" ry="1" fill="rgb(49,28,13)" fill-opacity="0.502"/></g>
<circle cx="4928.00" cy="4128.00" r="80.00" fill="rgb(26,44,59)" fill-opacity="0.502"/>
<polygon points="4634.11,2296.99 4032.03,2212.37 4069.89,1943.01 4671.97,2027.63" fill="rgb(230,255,233)" fill-opacity="0.502"/>
<circle cx="2176.00" cy="2656.00" r="176.00" fill="rgb(188,182,173)" fill-opacity="0.502"/>
<g transform="translate(2400.00 1008.00) rotate(215) scale(112.00 144.00)"><ellipse cx="0" cy="0" rx="1" ry="1" fill="rgb(57,62,66)" fill-opacity="0.502"/></g>
<g transform="translate(1264.00 1920.00) rotate(95) scale(384.00 192.00)"><ellipse cx="0" cy="0" rx="1" ry="1" fill="rgb(48,12,11)" fill-opacity="0.502"/></g>
<polygon points="7095.15,4397.51 5786.34,4305.99 5800.85,4098.49 7109.66,4190.01" fill="rgb(91,114,162)" fill-opacity="0.502"/>
<polygon points="2870.06,3571.56 2893.77,3300.59 3897.94,3388.44 3874.23,3659.41" fill="rgb(37,205,68)" fill-opacity="0.502"/>
<g transform="translate(2304.00 3904.00) rotate(96) scale(96.00 1200.00)"><ellipse cx="0" cy="0" rx="1" ry="1" fill="rgb(218,216,193)" fill-opacity="0.502"/></g>
<polygon points="4000.00,3456.00 4992.00,3456.00 4992.00,3712.00 4000.00,3712.00" fill="rgb(28,182,71)" fill-opacity="0.502"/>
<g transform="translate(4624.00 912.00) rotate(177) scale(304.00 624.00)"><ellipse cx="0" cy="0" rx="1" ry="1" fill="rgb(84,73,72)" fill-opacity="0.502"/></g>
<g transform="translate(4832.00 2640.00) rotate(346) scale(576.00 208.00)"><ellipse cx="0" cy="0" rx="1" ry="1" fill="rgb(207,241,242)" fill-opacity="0.502"/></g>
<g transform="translate(6080.00 3200.00) rotate(268) scale(64.00 400.00)"><ellipse cx="0" cy="0" rx="1" ry="1" fill="rgb(36,87,10)" fill-opacity="0.502"/></g>
<polygon points="1382.54,2498.38 1492.86,2590.94 1225.46,2909.62 1115.14,2817.06" fill="rgb(107,131,182)" fill-opacity="0.502"/>
<circle cx="3696.00" cy="1088.00" r="256.00" fill="rgb(154,107,85)" fill-opacity="0.502"/>
<polygon points="6320.99,2159.43 6127.01,2047.43 6191.01,1936.57 6384.99,2048.57" fill="rgb(78,80,74)" fill-opacity="0.502"/>
<circle cx="5200.00" cy="688.00" r="272.00" fill="rgb(142,81,48)" fill-opacity="0.502"/>
<circle cx="1792.00" cy="1792.00" r="176.00" fill="rgb(80,89,97)" fill-opacity="0.502"/>
<g transform="translate(1824.00 752.00) rotate(276) scale(736.00 112.00)"><ellipse cx="0" cy="0" rx="1" ry="1" fill="rgb(146,115,90)" fill-opacity="0.502"/></g>
<g transform="translate(4144.00 464.00) rotate(60) scale(144.00 128.00)"><ellipse cx="0" cy="0" rx="1" ry="1" fill="rgb(69,79,71)" fill-opacity="0.502"/></g>
<polygon points="1503.50,1267.55 1308.09,1500.43 1136.50,1356.45 1331.91,1123.57" fill="rgb(56,37,17)" fill-opacity="0.502"/>
<circle cx="1568.00" cy="2272.00" r="128.00" fill="rgb(110,142,255)" fill-opacity="0.502"/>
<g transform="translate(2768.00 2608.00) rotate(248) scale(112.00 560.00)"><ellipse cx="0" cy="0" rx="1" ry="1" fill="rgb(159,214,255)" fill-opacity="0.502"/></g>
<circle cx="2128.00" cy="0.00" r="240.00" fill="rgb(255,255,220)" fill-opacity="0.502"/>
<circle cx="288.00" cy="912.00" r="816.00" fill="rgb(0,0,0)" fill-opacity="0.502"/>
<g transform="translate(5568.00 4512.00) rotate(2) scale(1664.00 224.00)"><ellipse cx="0" cy="0" rx="1" ry="1" fill="rgb(2,1,6)" fill-opacity="0.502"/></g>
<polygon points="5820.52,1590.33 5916.81,1718.12 5763.48,1833.67 5667.19,1705.88" fill="rgb(172,139,107)" fill-opacity="0.502"/>
<circle cx="3792.00" cy="1632.00" r="416.00" fill="rgb(151,148,131)" fill-opacity="0.502"/>
<g transform="translate(7712.00 2560.00) rotate(167) scale(544.00 1648.00)"><ellipse cx="0" cy="0" rx="1" ry="1" fill="rgb(0,0,0)" fill-opacity="0.502"/></g>
<g transform="translate(5408.00 0.00) rotate(262) scale(256.00 352.00)"><ellipse cx="0" cy="0" rx="1" ry="1" fill="rgb(124,119,106)" fill-opacity="0.502"/></g>
<circle cx="7648.00" cy="4320.00" r="576.00" fill="rgb(0,0,0)" fill-opacity="0.502"/>
<polygon points="2272.00,672.00 2688.00,672.00 2688.00,768.00 2272.00,768.00" fill="rgb(82,72,68)" fill-opacity="0.502"/>
<polygon points="3331.54,2935.92 3219.63,2845.29 3340.46,2696.08 3452.37,2786.71" fill="rgb(255,255,241)" fill-opacity="0.502"/>
<g transform="translate(4112.00 672.00) rotate(285) scale(144.00 96.00)"><ellipse cx="0" cy="0" rx="1" ry="1" fill="rgb(77,79,69)" fill-opacity="0.502"/></g>
<polygon points="5786.80,771.86 5338.87,764.05 5349.20,172.14 5797.13,179.95" fill="rgb(78,52,38)" fill-opacity="0.502"/>
<polygon points="1119.82,1341.97 1086.48,1307.44 1328.18,1074.03 1361.52,1108.56" fill="rgb(255,239,197)" fill-opacity="0.502"/>
<circle cx="4512.00" cy="2832.00" r="240.00" fill="rgb(240,253,225)" fill-opacity="0.502"/>
<polygon points="5764.77,1542.24 5803.29,807.25 5851.23,809.76 5812.71,1544.75" fill="rgb(243,214,174)" fill-opacity="0.502"/>
<polygon points="4185.77,1142.34 4251.24,1212.55 4134.23,1321.66 4068.76,1251.45" fill="rgb(183,158,136)" fill-opacity="0.502"/>
<polygon points="5092.97,1680.31 5534.26,1536.92 5643.03,1871.69 5201.74,2015.08" fill="rgb(66,49,34)" fill-opacity="0.502"/>
<g transform="translate(6928.00 3456.00) rotate(63) scale(160.00 176.00)"><ellipse cx="0" cy="0" rx="1" ry="1" fill="rgb(21,75,25)" fill-opacity="0.502"/></g>
<g transform="translate(6640.00 3424.00) rotate(93) scale(240.00 480.00)"><ellipse cx="0" cy="0" rx="1" ry="1" fill="rgb(7,70,17)" fill-opacity="0.502"/></g>
<polygon points="5577.01,1711.29 5360.71,2009.01 5062.99,1792.71 5279.29,1494.99" fill="rgb(64,42,30)" fill-opacity="0.502"/>
<circle cx="7616.00" cy="176.00" r="544.00" fill="rgb(0,0,0)" fill-opacity="0.502"/>
<circle cx="2384.00" cy="2272.00" r="304.00" fill="rgb(142,168,150)" fill-opacity="0.502"/>
<circle cx="1616.00" cy="1760.00" r="192.00" fill="rgb(96,89,83)" fill-opacity="0.502"/>
<circle cx="2032.00" cy="2784.00" r="80.00" fill="rgb(136,90,64)" fill-opacity="0.502"/>
<circle cx="3616.00" cy="3728.00" r="208.00" fill="rgb(2,134,0)" fill-opacity="0.502"/>
<circle cx="1664.00" cy="1152.00" r="448.00" fill="rgb(129,101,83)" fill-opacity="0.502"/>
<polygon points="5259.90,3096.13 5022.10,2882.01 5204.10,2679.87 5441.90,2893.99" fill="rgb(255,255,214)" fill-opacity="0.502"/>
<polygon points="1466.98,718.77 2041.86,916.72 2021.02,977.23 1446.14,779.28" fill="rgb(186,162,148)" fill-opacity="0.502"/>
<circle cx="1248.00" cy="4016.00" r="144.00" fill="rgb(5,201,5)" fill-opacity="0.502"/>
<polygon points="4127.81,1921.67 4247.80,1440.40 4496.19,1502.33 4376.20,1983.60" fill="rgb(84,70,57)" fill-opacity="0.502"/>
<circle cx="6528.00" cy="1168.00" r="304.00" fill="rgb(43,32,30)" fill-opacity="0.502"/>
<g transform="translate(6688.00 3728.00) rotate(284) scale(128.00 416.00)"><ellipse cx="0" cy="0" rx="1" ry="1" fill="rgb(17,148,60)" fill-opacity="0.502"/></g>
<g transform="translate(1712.00 3568.00) rotate(125) scale(192.00 176.00)"><ellipse cx="0" cy="0" rx="1" ry="1" fill="rgb(50,186,25)" fill-opacity="0.502"/></g>
<circle cx="1312.00" cy="4256.00" r="208.00" fill="rgb(0,64,1)" fill-opacity="0.502"/>
<polygon points="2734.42,503.29 3153.82,796.96 3089.58,888.71 2670.18,595.04" fill="rgb(176,193,203)" fill-opacity="0.502"/>
<g transform="translate(4080.00 3808.00) rotate(50) scale(192.00 128.00)"><ellipse cx="0" cy="0" rx="1" ry="1" fill="rgb(0,104,0)" fill-opacity="0.502"/></g>
<circle cx="2976.00" cy="1008.00" r="96.00" fill="rgb(54,37,24)" fill-opacity="0.502"/>
<g transform="translate(4368.00 3888.00) rotate(183) scale(1696.00 96.00)"><ellipse cx="0" cy="0" rx="1" ry="1" fill="rgb(0,97,0)" fill-opacity="0.502"/></g>
<circle cx="1712.00" cy="4384.00" r="288.00" fill="rgb(0,52,1)" fill-opacity="0.502"/>
<polygon points="1112.16,1204.78 1099.95,1141.96 1319.84,1099.22 1332.05,1162.04" fill="rgb(10,0,0)" fill-opacity="0.502"/>
<g transform="translate(6256.00 544.00) rotate(329) scale(320.00 320.00)"><ellipse cx="0" cy="0" rx="1" ry="1" fill="rgb(80,45,29)" fill-opacity="0.502"/></g>
<g transform="translate(6784.00 1008.00) rotate(205) scale(288.00 288.00)"><ellipse cx="0" cy="0" rx="1" ry="1" fill="rgb(77,58,48)" fill-opacity="0.502"/></g>
<polygon points="4603.33,323.08 4716.00,111.18 5012.67,268.92 4900.00,480.82" fill="rgb(33,32,32)" fill-opacity="0.502"/>
<g transform="translate(6224.00 0.00) rotate(20) scale(224.00 160.00)"><ellipse cx="0" cy="0" rx="1" ry="1" fill="rgb(202,232,234)" fill-opacity="0.502"/></g>
<polygon points="3063.04,-47.94 2925.38,148.65 2872.96,111.94 3010.62,-84.65" fill="rgb(44,0,0)" fill-opacity="0.502"/>
<g transform="translate(5584.00 2448.00) rotate(91) scale(224.00 1024.00)"><ellipse cx="0" cy="0" rx="1" ry="1" fill="rgb(164,211,244)" fill-opacity="0.502"/></g>
<polygon points="5404.96,3084.34 5411.10,2732.40 5827.04,2739.66 5820.90,3091.60" fill="rgb(243,249,212)" fill-opacity="0.502"/>
<polygon points="3764.99,3933.72 6012.40,4130.34 6011.01,4146.28 3763.60,3949.66" fill="rgb(195,206,185)" fill-opacity="0.502"/>
<g transform="translate(2256.00 832.00) rotate(359) scale(400.00 48.00)"><ellipse cx="0" cy="0" rx="1" ry="1" fill="rgb(212,225,235)" fill-opacity="0.502"/></g>
<polygon points="6175.45,864.21 7102.88,831.82 7104.55,879.79 6177.12,912.18" fill="rgb(142,125,115)" fill-opacity="0.502"/>
<polygon points="4882.50,2309.69 4838.00,2446.64 4381.50,2298.31 4426.00,2161.36" fill="rgb(169,202,168)" fill-opacity="0.502"/>
<polygon points="4294.99,1826.07 4324.65,1917.38 3929.01,2045.93 3899.35,1954.62" fill="rgb(139,148,124)" fill-opacity="0.502"/>
<circle cx="3584.00" cy="4400.00" r="288.00" fill="rgb(0,84,0)" fill-opacity="0.502"/>
<g transform="translate(4720.00 3280.00) rotate(170) scale(432.00 240.00)"><ellipse cx="0" cy="0" rx="1" ry="1" fill="rgb(14,98,9)" fill-opacity="0.502"/></g>
<circle cx="4672.00" cy="4112.00" r="80.00" fill="rgb(69,86,44)" fill-opacity="0.502"/>
<polygon points="4508.90,1818.89 4615.92,1722.54 4755.10,1877.11 4648.08,1973.46" fill="rgb(36,31,18)" fill-opacity="0.502"/>
<circle cx="3568.00" cy="640.00" r="224.00" fill="rgb(219,188,157)" fill-opacity="0.502"/>
<g transform="translate(1776.00 2048.00) rotate(357) scale(400.00 80.00)"><ellipse cx="0" cy="0" rx="1" ry="1" fill="rgb(163,200,177)" fill-opacity="0.502"/></g>
<circle cx="3200.00" cy="1600.00" r="96.00" fill="rgb(70,60,56)" fill-opacity="0.502"/>
<polygon points="4081.29,3968.05 4059.84,4142.74 3678.71,4095.95 3700.16,3921.26" fill="rgb(192,183,156)" fill-opacity="0.502"/>
<polygon points="1634.57,2760.55 1592.17,2692.71 1741.43,2599.45 1783.83,2667.29" fill="rgb(47,84,161)" fill-opacity="0.502"/>
<circle cx="6928.00" cy="2128.00" r="160.00" fill="rgb(123,113,95)" fill-opacity="0.502"/>
<g transform="translate(2400.00 4592.00) rotate(304) scale(400.00 496.00)"><ellipse cx="0" cy="0" rx="1" ry="1" fill="rgb(0,63,0)" fill-opacity="0.502"/></g>
<circle cx="5680.00" cy="1072.00" r="144.00" fill="rgb(76,59,45)" fill-opacity="0.502"/>
<polygon points="6427.37,3195.75 5712.73,3108.01 5716.63,3076.25 6431.27,3163.99" fill="rgb(183,110,93)" fill-opacity="0.502"/>
<polygon points="4912.00,1328.00 5328.00,1328.00 5328.00,1552.00 4912.00,1552.00" fill="rgb(152,72,41)" fill-opacity="0.502"/>
<polygon points="6624.00,2096.00 6944.00,2096.00 6944.00,2272.00 6624.00,2272.00" fill="rgb(147,136,127)" fill-opacity="0.502"/>
<g transform="translate(1376.00 3536.00) rotate(301) scale(80.00 112.00)"><ellipse cx="0" cy="0" rx="1" ry="1" fill="rgb(177,28,28)" fill-opacity="0.502"/></g>
<g transform="translate(3536.00 1440.00) rotate(331) scale(368.00 192.00)"><ellipse cx="0" cy="0" rx="1" ry="1" fill="rgb(171,134,117)" fill-opacity="0.502"/></g>
<g transform="translate(2400.00 0.00) rotate(157) scale(240.00 112.00)"><ellipse cx="0" cy="0" rx="1" ry="1" fill="rgb(255,255,224)" fill-opacity="0.502"/></g>
<g transform="translate(768.00 1840.00) rotate(192) scale(336.00 752.00)"><ellipse cx="0" cy="0" rx="1" ry="1" fill="rgb(0,0,0)" fill-opacity="0.502"/></g>
<circle cx="6768.00" cy="4016.00" r="128.00" fill="rgb(0,38,0)" fill-opacity="0.502"/>
<g transform="translate(1984.00 1232.00) rotate(348) scale(464.00 128.00)"><ellipse cx="0" cy="0" rx="1" ry="1" fill="rgb(165,123,99)" fill-opacity="0.502"/></g>
<polygon points="3003.45,242.60 2622.02,39.78 2644.55,-2.60 3025.98,200.22" fill="rgb(255,235,196)" fill-opacity="0.502"/>
<g transform="translate(4144.00 896.00) rotate(96) scale(768.00 80.00)"><ellipse cx="0" cy="0" rx="1" ry="1" fill="rgb(157,141,123)" fill-opacity="0.502"/></g>
<polygon points="5460.31,3361.96 5435.19,3841.30 5067.69,3822.04 5092.81,3342.70" fill="rgb(14,149,39)" fill-opacity="0.502"/>
<circle cx="4080.00" cy="2848.00" r="176.00" fill="rgb(243,255,237)" fill-opacity="0.502"/>
<polygon points="3942.87,4145.13 3177.79,4078.20 3193.13,3902.87 3958.21,3969.80" fill="rgb(188,199,176)" fill-opacity="0.502"/>
<polygon points="3120.70,1157.83 3200.10,1148.08 3231.30,1402.17 3151.90,1411.92" fill="rgb(82,45,17)" fill-opacity="0.502"/>
<polygon points="1689.53,734.09 1654.93,239.30 1846.47,225.91 1881.07,720.70" fill="rgb(233,200,166)" fill-opacity="0.502"/>
<polygon points="1689.56,697.57 1840.85,749.66 1606.44,1430.43 1455.15,1378.34" fill="rgb(126,98,80)" fill-opacity="0.502"/>
<circle cx="144.00" cy="4336.00" r="976.00" fill="rgb(0,0,0)" fill-opacity="0.502"/>
<g transform="translate(6448.00 960.00) rotate(278) scale(80.00 144.00)"><ellipse cx="0" cy="0" rx="1" ry="1" fill="rgb(13,9,3)" fill-opacity="0.502"/></g>
<polygon points="4507.75,596.34 4739.77,488.15 4868.25,763.66 4636.23,871.85" fill="rgb(116,99,89)" fill-opacity="0.502"/>
<g transform="translate(7008.00 3232.00) rotate(84) scale(128.00 80.00)"><ellipse cx="0" cy="0" rx="1" ry="1" fill="rgb(45,98,101)" fill-opacity="0.502"/></g>
<g transform="translate(3328.00 3760.00) rotate(182) scale(1904.00 96.00)"><ellipse cx="0" cy="0" rx="1" ry="1" fill="rgb(2,153,0)" fill-opacity="0.502"/></g>
<circle cx="3616.00" cy="768.00" r="96.00" fill="rgb(192,121,88)" fill-opacity="0.502"/>
<polygon points="4110.32,2238.13 4063.49,2683.68 3665.68,2641.87 3712.51,2196.32" fill="rgb(154,208,255)" fill-opacity="0.502"/>
<polygon points="2768.00,208.00 3344.00,208.00 3344.00,704.00 2768.00,704.00" fill="rgb(176,144,115)" fill-opacity="0.502"/>
<polygon points="6456.95,3856.77 6481.44,4031.06 5911.05,4111.23 5886.56,3936.94" fill="rgb(0,45,0)" fill-opacity="0.502"/>
<g transform="translate(2816.00 992.00) rotate(347) scale(256.00 64.00)"><ellipse cx="0" cy="0" rx="1" ry="1" fill="rgb(52,49,53)" fill-opacity="0.502"/></g>
<polygon points="5831.34,944.41 5799.35,943.29 5816.66,447.59 5848.65,448.71" fill="rgb(255,255,235)" fill-opacity="0.502"/>
<g transform="translate(2112.00 1024.00) rotate(196) scale(208.00 32.00)"><ellipse cx="0" cy="0" rx="1" ry="1" fill="rgb(25,0,0)" fill-opacity="0.502"/></g>
<polygon points="2968.67,2041.53 2949.14,2264.67 2375.33,2214.47 2394.86,1991.33" fill="rgb(182,212,197)" fill-opacity="0.502"/>
<polygon points="4720.50,1233.55 4865.50,1165.93 5007.50,1470.45 4862.50,1538.07" fill="rgb(70,30,20)" fill-opacity="0.502"/>
<circle cx="2608.00" cy="256.00" r="48.00" fill="rgb(123,72,57)" fill-opacity="0.502"/>
<g transform="translate(2512.00 3488.00) rotate(186) scale(1424.00 64.00)"><ellipse cx="0" cy="0" rx="1" ry="1" fill="rgb(40,204,65)" fill-opacity="0.502"/></g>
<circle cx="5168.00" cy="3120.00" r="80.00" fill="rgb(125,130,40)" fill-opacity="0.502"/>
<g transform="translate(3216.00 2976.00) rotate(168) scale(608.00 16.00)"><ellipse cx="0" cy="0" rx="1" ry="1" fill="rgb(3,25,3)" fill-opacity="0.502"/></g>
<circle cx="6656.00" cy="1600.00" r="432.00" fill="rgb(30,14,14)" fill-opacity="0.502"/>
<g transform="translate(2272.00 1696.00) rotate(45) scale(208.00 352.00)"><ellipse cx="0" cy="0" rx="1" ry="1" fill="rgb(113,111,105)" fill-opacity="0.502"/></g>
<g transform="translate(4400.00 624.00) rotate(196) scale(144.00 320.00)"><ellipse cx="0" cy="0" rx="1" ry="1" fill="rgb(68,46,37)" fill-opacity="0.502"/></g>
<polygon points="2560.00,3072.00 2560.00,2976.00 2944.00,2976.00 2944.00,3072.00" fill="rgb(0,74,15)" fill-opacity="0.502"/>
<circle cx="7328.00" cy="112.00" r="256.00" fill="rgb(0,0,0)" fill-opacity="0.502"/>
<circle cx="1696.00" cy="3680.00" r="80.00" fill="rgb(117,169,9)" fill-opacity="0.502"/>
<g transform="translate(6032.00 2256.00) rotate(218) scale(320.00 208.00)"><ellipse cx="0" cy="0" rx="1" ry="1" fill="rgb(161,215,255)" fill-opacity="0.502"/></g>
<g transform="translate(1840.00 4048.00) rotate(187) scale(768.00 80.00)"><ellipse cx="0" cy="0" rx="1" ry="1" fill="rgb(9,190,15)" fill-opacity="0.502"/></g>
<g transform="translate(2672.00 1808.00) rotate(11) scale(784.00 176.00)"><ellipse cx="0" cy="0" rx="1" ry="1" fill="rgb(132,137,131)" fill-opacity="0.502"/></g>
<g transform="translate(3472.00 320.00) rotate(64) scale(368.00 128.00)"><ellipse cx="0" cy="0" rx="1" ry="1" fill="rgb(238,218,170)" fill-opacity="0.502"/></g>
<polygon points="2165.26,3469.31 2155.21,3181.49 2922.74,3154.69 2932.79,3442.51" fill="rgb(26,195,39)" fill-opacity="0.502"/>
<g transform="translate(1296.00 1600.00) rotate(90) scale(400.00 96.00)"><ellipse cx="0" cy="0" rx="1" ry="1" fill="rgb(52,31,23)" fill-opacity="0.502"/></g>
<polygon points="4889.49,1471.50 4841.50,1472.34 4822.51,384.50 4870.50,383.66" fill="rgb(24,3,0)" fill-opacity="0.502"/>
<g transform="translate(3264.00 2640.00) rotate(216) scale(144.00 336.00)"><ellipse cx="0" cy="0" rx="1" ry="1" fill="rgb(162,212,255)" fill-opacity="0.502"/></g>
<circle cx="5424.00" cy="3280.00" r="208.00" fill="rgb(30,85,21)" fill-opacity="0.502"/>
<polygon points="2439.04,250.76 2595.33,618.96 2344.96,725.24 2188.67,357.04" fill="rgb(255,221,175)" fill-opacity="0.502"/>
<circle cx="6896.00" cy="4272.00" r="112.00" fill="rgb(101,142,162)" fill-opacity="0.502"/>
<polygon points="4380.95,1979.65 4389.85,1916.27 4675.05,1956.35 4666.15,2019.73" fill="rgb(143,170,164)" fill-opacity="0.502"/>
<polygon points="6269.03,1661.64 6229.44,1833.13 5714.97,1714.36 5754.56,1542.87" fill="rgb(108,87,79)" fill-opacity="0.502"/>
<polygon points="1137.59,704.44 1407.56,737.59 1374.41,1007.56 1104.44,974.41" fill="rgb(159,134,112)" fill-opacity="0.502"/>
<polygon points="5811.65,621.88 5487.63,759.41 5356.35,450.12 5680.37,312.59" fill="rgb(98,67,51)" fill-opacity="0.502"/>
<polygon points="3498.86,689.11 3200.35,502.58 3285.14,366.89 3583.65,553.42" fill="rgb(206,181,157)" fill-opacity="0.502"/>
<polygon points="3034.27,1037.21 3152.93,1402.41 2437.73,1634.79 2319.07,1269.59" fill="rgb(165,123,98)" fill-opacity="0.502"/>
<g transform="translate(6448.00 464.00) rotate(236) scale(384.00 80.00)"><ellipse cx="0" cy="0" rx="1" ry="1" fill="rgb(67,39,25)" fill-opacity="0.502"/></g>
<polygon points="4302.87,2031.10 5166.34,2000.95 5169.13,2080.90 4305.66,2111.05" fill="rgb(199,244,255)" fill-opacity="0.502"/>
<polygon points="2138.27,797.64 1391.88,706.00 1397.73,658.36 2144.12,750.00" fill="rgb(77,50,33)" fill-opacity="0.502"/>
<g transform="translate(6912.00 3232.00) rotate(25) scale(192.00 48.00)"><ellipse cx="0" cy="0" rx="1" ry="1" fill="rgb(6,64,27)" fill-opacity="0.502"/></g>
<g transform="translate(1840.00 3472.00) rotate(122) scale(240.00 384.00)"><ellipse cx="0" cy="0" rx="1" ry="1" fill="rgb(38,201,42)" fill-opacity="0.502"/></g>
<g transform="translate(4048.00 512.00) rotate(270) scale(288.00 32.00)"><ellipse cx="0" cy="0" rx="1" ry="1" fill="rgb(54,0,0)" fill-opacity="0.502"/></g>
<g transform="translate(736.00 2064.00) rotate(58) scale(384.00 384.00)"><ellipse cx="0" cy="0" rx="1" ry="1" fill="rgb(0,0,0)" fill-opacity="0.502"/></g>
<polygon points="4056.13,2244.24 3897.69,2266.51 3879.87,2139.76 4038.31,2117.49" fill="rgb(162,200,154)" fill-opacity="0.502"/>
<g transform="translate(5008.00 2304.00) rotate(268) scale(288.00 208.00)"><ellipse cx="0" cy="0" rx="1" ry="1" fill="rgb(172,221,251)" fill-opacity="0.502"/></g>
<circle cx="4368.00" cy="2496.00" r="64.00" fill="rgb(1,0,0)" fill-opacity="0.502"/>
<circle cx="1184.00" cy="3632.00" r="80.00" fill="rgb(69,255,46)" fill-opacity="0.502"/>
<polygon points="5172.73,1987.20 5179.43,1795.31 5451.27,1804.80 5444.57,1996.69" fill="rgb(31,29,16)" fill-opacity="0.502"/>
<circle cx="5968.00" cy="1680.00" r="144.00" fill="rgb(51,38,37)" fill-opacity="0.502"/>
<polygon points="1133.55,660.00 1106.76,276.93 1234.45,268.00 1261.24,651.07" fill="rgb(170,129,118)" fill-opacity="0.502"/>
<polygon points="3984.00,3024.00 4416.00,3024.00 4416.00,3056.00 3984.00,3056.00" fill="rgb(164,87,41)" fill-opacity="0.502"/>
<polygon points="3352.23,2938.21 3286.86,2809.91 3671.77,2613.79 3737.14,2742.09" fill="rgb(255,255,227)" fill-opacity="0.502"/>
<polygon points="1264.06,2358.04 1497.21,2217.95 1727.94,2601.96 1494.79,2742.05" fill="rgb(128,152,231)" fill-opacity="0.502"/>
<circle cx="2784.00" cy="496.00" r="160.00" fill="rgb(229,196,163)" fill-opacity="0.502"/>
<polygon points="3056.80,2270.33 3641.25,2102.74 3791.20,2625.67 3206.75,2793.26" fill="rgb(162,210,253)" fill-opacity="0.502"/>
<g transform="translate(5776.00 768.00) rotate(270) scale(512.00 16.00)"><ellipse cx="0" cy="0" rx="1" ry="1" fill="rgb(44,22,5)" fill-opacity="0.502"/></g>
<g transform="translate(3632.00 16.00) rotate(41) scale(192.00 272.00)"><ellipse cx="0" cy="0" rx="1" ry="1" fill="rgb(255,244,197)" fill-opacity="0.502"/></g>
<polygon points="2432.63,2387.10 2395.36,2248.01 2735.37,2156.90 2772.64,2295.99" fill="rgb(170,205,234)" fill-opacity="0.502"/>
<circle cx="1936.00" cy="3648.00" r="112.00" fill="rgb(7,211,2)" fill-opacity="0.502"/>
<circle cx="864.00" cy="64.00" r="240.00" fill="rgb(0,0,0)" fill-opacity="0.502"/>
<g transform="translate(6816.00 4528.00) rotate(86) scale(160.00 272.00)"><ellipse cx="0" cy="0" rx="1" ry="1" fill="rgb(16,48,23)" fill-opacity="0.502"/></g>
<g transform="translate(5728.00 128.00) rotate(218) scale(112.00 32.00)"><ellipse cx="0" cy="0" rx="1" ry="1" fill="rgb(184,198,186)" fill-opacity="0.502"/></g>
<polygon points="6080.00,4288.00 6080.00,4160.00 6816.00,4160.00 6816.00,4288.00" fill="rgb(60,76,102)" fill-opacity="0.502"/>
<circle cx="5168.00" cy="2944.00" r="176.00" fill="rgb(237,243,210)" fill-opacity="0.502"/>
<polygon points="5398.51,3812.57 5689.49,3980.57 5625.49,4091.43 5334.51,3923.43" fill="rgb(0,51,0)" fill-opacity="0.502"/>
<circle cx="3936.00" cy="1808.00" r="240.00" fill="rgb(141,151,129)" fill-opacity="0.502"/>
<polygon points="5797.26,3029.73 5319.89,3079.90 5274.74,2650.27 5752.11,2600.10" fill="rgb(229,245,224)" fill-opacity="0.502"/>
<polygon points="2446.09,2220.40 2223.76,2427.72 2081.91,2275.60 2304.24,2068.28" fill="rgb(117,143,116)" fill-opacity="0.502"/>
<polygon points="4926.01,3453.68 4932.98,3373.99 5713.99,3442.32 5707.02,3522.01" fill="rgb(0,76,0)" fill-opacity="0.502"/>
<circle cx="1328.00" cy="32.00" r="240.00" fill="rgb(248,224,177)" fill-opacity="0.502"/>
<polygon points="4220.58,1185.58 4211.09,1457.41 3667.42,1438.42 3676.91,1166.59" fill="rgb(182,139,118)" fill-opacity="0.502"/>
<circle cx="592.00" cy="1168.00" r="512.00" fill="rgb(0,0,0)" fill-opacity="0.502"/>
<circle cx="5440.00" cy="4144.00" r="112.00" fill="rgb(27,52,118)" fill-opacity="0.502"/>
<g transform="translate(3952.00 1056.00) rotate(209) scale(256.00 80.00)"><ellipse cx="0" cy="0" rx="1" ry="1" fill="rgb(144,105,80)" fill-opacity="0.502"/></g>
<circle cx="6320.00" cy="1184.00" r="80.00" fill="rgb(90,71,78)" fill-opacity="0.502"/>
<circle cx="6480.00" cy="3008.00" r="176.00" fill="rgb(232,235,198)" fill-opacity="0.502"/>
<g transform="translate(4336.00 3200.00) rotate(219) scale(128.00 96.00)"><ellipse cx="0" cy="0" rx="1" ry="1" fill="rgb(0,61,2)" fill-opacity="0.502"/></g>
<g transform="translate(4816.00 2832.00) rotate(93) scale(208.00 768.00)"><ellipse cx="0" cy="0" rx="1" ry="1" fill="rgb(232,250,231)" fill-opacity="0.502"/></g>
<polygon points="4709.17,3734.17 3607.86,3657.16 3626.83,3385.83 4728.14,3462.84" fill="rgb(26,182,56)" fill-opacity="0.502"/>
<polygon points="2664.45,1911.61 2738.99,1633.43 3063.55,1720.39 2989.01,1998.57" fill="rgb(153,161,150)" fill-opacity="0.502"/>
<g transform="translate(6912.00 2400.00) rotate(46) scale(208.00 80.00)"><ellipse cx="0" cy="0" rx="1" ry="1" fill="rgb(84,62,41)" fill-opacity="0.502"/></g>
<g transform="translate(3072.00 64.00) rotate(116) scale(128.00 224.00)"><ellipse cx="0" cy="0" rx="1" ry="1" fill="rgb(74,29,15)" fill-opacity="0.502"/></g>
<g transform="translate(5264.00 752.00) rotate(261) scale(464.00 64.00)"><ellipse cx="0" cy="0" rx="1" ry="1" fill="rgb(137,91,66)" fill-opacity="0.502"/></g>
<polygon points="2042.00,2761.22 2028.48,2732.21 2246.00,2630.78 2259.52,2659.79" fill="rgb(95,63,25)" fill-opacity="0.502"/>
<polygon points="6128.00,4544.00 8176.00,4544.00 8176.00,4592.00 6128.00,4592.00" fill="rgb(2,0,0)" fill-opacity="0.502"/>
<g transform="translate(5840.00 3040.00) rotate(5) scale(320.00 96.00)"><ellipse cx="0" cy="0" rx="1" ry="1" fill="rgb(239,242,213)" fill-opacity="0.502"/></g>
<polygon points="1976.28,2573.13 2089.41,2438.31 2199.72,2530.87 2086.59,2665.69" fill="rgb(126,165,204)" fill-opacity="0.502"/>
<polygon points="5399.87,265.46 5283.37,350.10 5208.13,246.54 5324.63,161.90" fill="rgb(39,13,11)" fill-opacity="0.502"/>
<polygon points="5648.00,4224.00 5184.00,4224.00 5184.00,4112.00 5648.00,4112.00" fill="rgb(50,65,126)" fill-opacity="0.502"/>
<g transform="translate(2208.00 2352.00) rotate(116) scale(96.00 432.00)"><ellipse cx="0" cy="0" rx="1" ry="1" fill="rgb(120,135,123)" fill-opacity="0.502"/></g>
<polygon points="2753.11,2461.69 2620.47,2372.22 2718.89,2226.31 2851.53,2315.78" fill="rgb(180,171,100)" fill-opacity="0.502"/>
<circle cx="5776.00" cy="1888.00" r="80.00" fill="rgb(173,145,114)" fill-opacity="0.502"/>
<polygon points="2716.33,2032.37 2698.52,1905.61 3395.67,1807.63 3413.48,1934.39" fill="rgb(137,150,148)" fill-opacity="0.502"/>
<polygon points="1777.11,245.53 1920.28,-76.04 1934.89,-69.53 1791.72,252.04" fill="rgb(139,109,85)" fill-opacity="0.502"/>
<polygon points="3896.49,3273.85 3897.61,3257.88 4759.51,3318.15 4758.39,3334.12" fill="rgb(83,227,114)" fill-opacity="0.502"/>
<polygon points="7124.31,4336.47 7379.26,4170.90 7579.69,4479.53 7324.74,4645.10" fill="rgb(0,0,0)" fill-opacity="0.502"/>
<circle cx="2192.00" cy="3664.00" r="112.00" fill="rgb(13,207,5)" fill-opacity="0.502"/>
<polygon points="4326.78,813.73 4691.20,762.52 4809.22,1602.27 4444.80,1653.48" fill="rgb(105,84,77)" fill-opacity="0.502"/>
<polygon points="3801.29,587.59 3860.63,611.56 3782.71,804.41 3723.37,780.44" fill="rgb(231,237,205)" fill-opacity="0.502"/>
<circle cx="5296.00" cy="3152.00" r="64.00" fill="rgb(62,96,22)" fill-opacity="0.502"/>
<circle cx="1552.00" cy="192.00" r="80.00" fill="rgb(166,120,82)" fill-opacity="0.502"/>
<g transform="translate(6912.00 4000.00) rotate(101) scale(112.00 176.00)"><ellipse cx="0" cy="0" rx="1" ry="1" fill="rgb(0,64,2)" fill-opacity="0.502"/></g>
<polygon points="3880.04,4150.50 4675.66,4234.12 4663.96,4345.50 3868.34,4261.88" fill="rgb(0,54,0)" fill-opacity="0.502"/>
<polygon points="3088.00,496.00 3120.00,496.00 3120.00,1280.00 3088.00,1280.00" fill="rgb(255,255,220)" fill-opacity="0.502"/>
<g transform="translate(3616.00 208.00) rotate(133) scale(128.00 96.00)"><ellipse cx="0" cy="0" rx="1" ry="1" fill="rgb(219,177,129)" fill-opacity="0.502"/></g>
<g transform="translate(2000.00 1040.00) rotate(269) scale(48.00 992.00)"><ellipse cx="0" cy="0" rx="1" ry="1" fill="rgb(66,42,29)" fill-opacity="0.502"/></g>
<g transform="translate(1936.00 1712.00) rotate(128) scale(240.00 320.00)"><ellipse cx="0" cy="0" rx="1" ry="1" fill="rgb(114,106,101)" fill-opacity="0.502"/></g>
<circle cx="2688.00" cy="4112.00" r="96.00" fill="rgb(0,149,20)" fill-opacity="0.502"/>
<g transform="translate(4800.00 1888.00) rotate(191) scale(448.00 80.00)"><ellipse cx="0" cy="0" rx="1" ry="1" fill="rgb(48,44,33)" fill-opacity="0.502"/></g>
<polygon points="4120.43,3084.88 4134.96,3056.37 4391.57,3187.12 4377.04,3215.63" fill="rgb(0,94,10)" fill-opacity="0.502"/>
<g transform="translate(6864.00 0.00) rotate(344) scale(16.00 160.00)"><ellipse cx="0" cy="0" rx="1" ry="1" fill="rgb(255,255,255)" fill-opacity="0.502"/></g>
<circle cx="2400.00" cy="2192.00" r="112.00" fill="rgb(128,159,129)" fill-opacity="0.502"/>
<g transform="translate(4656.00 2208.00) rotate(144) scale(128.00 80.00)"><ellipse cx="0" cy="0" rx="1" ry="1" fill="rgb(196,210,155)" fill-opacity="0.502"/></g>
<polygon points="6781.67,885.80 6754.04,1413.08 6546.33,1402.20 6573.96,874.92" fill="rgb(55,41,35)" fill-opacity="0.502"/>
<g transform="translate(1328.00 1408.00) rotate(60) scale(48.00 48.00)"><ellipse cx="0" cy="0" rx="1" ry="1" fill="rgb(97,99,102)" fill-opacity="0.502"/></g>
<polygon points="7390.81,290.62 7392.49,322.58 6881.19,349.38 6879.51,317.42" fill="rgb(0,0,0)" fill-opacity="0.502"/>
<polygon points="1254.71,994.65 1298.36,947.84 1497.29,1133.35 1453.64,1180.16" fill="rgb(202,165,136)" fill-opacity="0.502"/>
<circle cx="2368.00" cy="384.00" r="208.00" fill="rgb(245,222,180)" fill-opacity="0.502"/>
<polygon points="6668.16,2634.75 6571.87,2762.54 5651.84,2069.25 5748.13,1941.46" fill="rgb(168,214,249)" fill-opacity="0.502"/>
<polygon points="6429.55,1069.36 6493.20,1076.05 6466.45,1330.64 6402.80,1323.95" fill="rgb(0,0,0)" fill-opacity="0.502"/>
<polygon points="4942.01,306.69 4957.31,302.01 4961.99,317.31 4946.69,321.99" fill="rgb(255,255,255)" fill-opacity="0.502"/>
<circle cx="384.00" cy="624.00" r="720.00" fill="rgb(0,0,0)" fill-opacity="0.502"/>
<circle cx="4816.00" cy="4480.00" r="272.00" fill="rgb(0,9,8)" fill-opacity="0.502"/>
<polygon points="5494.73,3500.76 5618.15,3647.84 5385.27,3843.24 5261.85,3696.16" fill="rgb(20,170,58)" fill-opacity="0.502"/>
<circle cx="3216.00" cy="720.00" r="64.00" fill="rgb(95,64,43)" fill-opacity="0.502"/>
<circle cx="4064.00" cy="2496.00" r="192.00" fill="rgb(155,214,255)" fill-opacity="0.502"/>
<polygon points="5352.09,1759.10 5324.61,1617.75 5575.91,1568.90 5603.39,1710.25" fill="rgb(111,88,86)" fill-opacity="0.502"/>
<g transform="translate(5600.00 976.00) rotate(93) scale(16.00 512.00)"><ellipse cx="0" cy="0" rx="1" ry="1" fill="rgb(90,65,47)" fill-opacity="0.502"/></g>
<g transform="translate(5296.00 912.00) rotate(341) scale(432.00 288.00)"><ellipse cx="0" cy="0" rx="1" ry="1" fill="rgb(99,67,47)" fill-opacity="0.502"/></g>
<circle cx="720.00" cy="4048.00" r="384.00" fill="rgb(0,0,0)" fill-opacity="0.502"/>
<polygon points="1439.41,603.12 1315.07,502.43 1536.59,228.88 1660.93,329.57" fill="rgb(147,110,88)" fill-opacity="0.502"/>
<g transform="translate(6800.00 1008.00) rotate(56) scale(144.00 96.00)"><ellipse cx="0" cy="0" rx="1" ry="1" fill="rgb(35,21,13)" fill-opacity="0.502"/></g>
<polygon points="2247.93,2841.88 2246.82,2857.84 1736.07,2822.12 1737.18,2806.16" fill="rgb(0,0,0)" fill-opacity="0.502"/>
<polygon points="5660.96,638.82 5629.00,640.50 5603.04,145.18 5635.00,143.50" fill="rgb(125,103,92)" fill-opacity="0.502"/>
<circle cx="7904.00" cy="3040.00" r="832.00" fill="rgb(0,0,0)" fill-opacity="0.502"/>
<circle cx="3360.00" cy="1072.00" r="112.00" fill="rgb(161,100,76)" fill-opacity="0.502"/>
<polygon points="2491.31,1581.16 1451.15,1321.81 1524.69,1026.84 2564.85,1286.19" fill="rgb(145,108,83)" fill-opacity="0.502"/>
<circle cx="5568.00" cy="3136.00" r="48.00" fill="rgb(135,64,10)" fill-opacity="0.502"/>
<circle cx="1216.00" cy="2832.00" r="32.00" fill="rgb(253,255,255)" fill-opacity="0.502"/>
<polygon points="5343.54,1094.27 5360.28,1285.54 5312.46,1289.73 5295.72,1098.46" fill="rgb(172,120,96)" fill-opacity="0.502"/>
<polygon points="5858.58,512.49 5826.62,510.81 5853.42,-0.49 5885.38,1.19" fill="rgb(244,210,164)" fill-opacity="0.502"/>
<circle cx="6592.00" cy="464.00" r="304.00" fill="rgb(74,39,26)" fill-opacity="0.502"/>
<g transform="translate(2864.00 768.00) rotate(79) scale(128.00 144.00)"><ellipse cx="0" cy="0" rx="1" ry="1" fill="rgb(122,172,227)" fill-opacity="0.502"/></g>
<polygon points="3797.58,4480.18 4164.18,4512.25 4154.42,4623.82 3787.82,4591.75" fill="rgb(2,0,4)" fill-opacity="0.502"/>
<polygon points="2128.00,1040.00 2464.00,1040.00 2464.00,1040.00 2128.00,1040.00" fill="rgb(238,213,190)" fill-opacity="0.502"/>
<g transform="translate(4672.00 0.00) rotate(156) scale(128.00 192.00)"><ellipse cx="0" cy="0" rx="1" ry="1" fill="rgb(125,117,114)" fill-opacity="0.502"/></g>
<polygon points="2244.84,1999.84 2205.05,2026.69 2187.16,2000.16 2226.95,1973.31" fill="rgb(255,255,255)" fill-opacity="0.502"/>
<circle cx="2352.00" cy="2064.00" r="80.00" fill="rgb(189,226,211)" fill-opacity="0.502"/>
<circle cx="1184.00" cy="3152.00" r="96.00" fill="rgb(62,235,49)" fill-opacity="0.502"/>
<circle cx="2736.00" cy="16.00" r="112.00" fill="rgb(255,255,231)" fill-opacity="0.502"/>
<polygon points="1288.37,3407.70 1273.03,3232.37 1639.63,3200.30 1654.97,3375.63" fill="rgb(32,168,45)" fill-opacity="0.502"/>
<circle cx="1328.00" cy="3824.00" r="80.00" fill="rgb(255,218,159)" fill-opacity="0.502"/>
<circle cx="2400.00" cy="2496.00" r="64.00" fill="rgb(112,85,68)" fill-opacity="0.502"/>
<polygon points="5916.58,1963.15 5810.68,1999.62 5779.42,1908.85 5885.32,1872.38" fill="rgb(48,37,30)" fill-opacity="0.502"/>
<polygon points="2349.64,1651.47 1791.01,1612.41 1794.36,1564.53 2352.99,1603.59" fill="rgb(229,220,214)" fill-opacity="0.502"/>
<polygon points="1461.58,2175.82 1451.82,2064.25 1818.42,2032.18 1828.18,2143.75" fill="rgb(109,129,106)" fill-opacity="0.502"/>
<circle cx="6352.00" cy="144.00" r="128.00" fill="rgb(178,170,152)" fill-opacity="0.502"/>
<polygon points="1373.43,1010.94 1331.60,532.77 1602.57,509.06 1644.40,987.23" fill="rgb(144,121,101)" fill-opacity="0.502"/>
<circle cx="3840.00" cy="3264.00" r="128.00" fill="rgb(1,98,0)" fill-opacity="0.502"/>
<circle cx="4400.00" cy="1488.00" r="192.00" fill="rgb(81,64,58)" fill-opacity="0.502"/>
<polygon points="2645.30,1998.06 2701.85,1732.00 2842.70,1761.94 2786.15,2028.00" fill="rgb(128,140,133)" fill-opacity="0.502"/>
<g transform="translate(6864.00 2272.00) rotate(101) scale(32.00 224.00)"><ellipse cx="0" cy="0" rx="1" ry="1" fill="rgb(179,160,147)" fill-opacity="0.502"/></g>
<polygon points="6624.18,3466.83 6621.95,3498.75 5855.82,3445.17 5858.05,3413.25" fill="rgb(49,171,84)" fill-opacity="0.502"/>
<polygon points="5827.22,956.38 5902.24,530.95 5996.78,547.62 5921.76,973.05" fill="rgb(106,78,50)" fill-opacity="0.502"/>
</g>
</svg>