<?xml version="1.0" standalone="no"?>
<svg xmlns="http://www.w3.org/2000/svg" width="8192" height="4608" viewBox="0 0 8192 4608" style="overflow:hidden">
<defs>
<clipPath id="c"><rect x="0" y="0" width="8192" height="4608"/></clipPath>
</defs>
<rect width="8192" height="4608" fill="rgb(65,39,32)"/>
<g clip-path="url(#c)">
<circle cx="3936.00" cy="672.00" r="1008.00" fill="rgb(249,245,255)" fill-opacity="0.502"/>
<g transform="translate(2160.00 1360.00) rotate(8) scale(1072.00 2272.00)"><ellipse cx="0" cy="0" rx="1" ry="1" fill="rgb(255,167,116)" fill-opacity="0.502"/></g>
<circle cx="7184.00" cy="2256.00" r="2512.00" fill="rgb(0,0,0)" fill-opacity="0.502"/>
<circle cx="3952.00" cy="960.00" r="544.00" fill="rgb(254,255,255)" fill-opacity="0.502"/>
<g transform="translate(128.00 2560.00) rotate(91) scale(8176.00 976.00)"><ellipse cx="0" cy="0" rx="1" ry="1" fill="rgb(0,0,0)" fill-opacity="0.502"/></g>
<g transform="translate(4336.00 3328.00) rotate(254) scale(464.00 816.00)"><ellipse cx="0" cy="0" rx="1" ry="1" fill="rgb(234,163,126)" fill-opacity="0.502"/></g>
<circle cx="3200.00" cy="2688.00" r="848.00" fill="rgb(148,53,24)" fill-opacity="0.502"/>
<g transform="translate(3296.00 4480.00) rotate(0) scale(7968.00 752.00)"><ellipse cx="0" cy="0" rx="1" ry="1" fill="rgb(0,0,0)" fill-opacity="0.502"/></g>
<circle cx="3008.00" cy="1296.00" r="608.00" fill="rgb(187,87,61)" fill-opacity="0.502"/>
<polygon points="3120.71,2066.87 2893.28,2766.85 2543.29,2653.13 2770.72,1953.15" fill="rgb(4,0,0)" fill-opacity="0.502"/>
<g transform="translate(4384.00 0.00) rotate(11) scale(1648.00 384.00)"><ellipse cx="0" cy="0" rx="1" ry="1" fill="rgb(81,3,0)" fill-opacity="0.502"/></g>
<polygon points="4272.00,352.00 5040.00,352.00 5040.00,1344.00 4272.00,1344.00" fill="rgb(88,117,230)" fill-opacity="0.502"/>
<g transform="translate(3904.00 3440.00) rotate(152) scale(512.00 208.00)"><ellipse cx="0" cy="0" rx="1" ry="1" fill="rgb(211,153,124)" fill-opacity="0.502"/></g>
<g transform="translate(1632.00 656.00) rotate(90) scale(2352.00 528.00)"><ellipse cx="0" cy="0" rx="1" ry="1" fill="rgb(249,151,119)" fill-opacity="0.502"/></g>
<g transform="translate(496.00 1664.00) rotate(268) scale(4192.00 592.00)"><ellipse cx="0" cy="0" rx="1" ry="1" fill="rgb(0,0,0)" fill-opacity="0.502"/></g>
<circle cx="7808.00" cy="1488.00" r="2512.00" fill="rgb(0,0,0)" fill-opacity="0.502"/>
<g transform="translate(2288.00 3504.00) rotate(110) scale(384.00 400.00)"><ellipse cx="0" cy="0" rx="1" ry="1" fill="rgb(74,41,19)" fill-opacity="0.502"/></g>
<circle cx="3104.00" cy="256.00" r="496.00" fill="rgb(190,83,51)" fill-opacity="0.502"/>
<g transform="translate(3888.00 960.00) rotate(5) scale(352.00 592.00)"><ellipse cx="0" cy="0" rx="1" ry="1" fill="rgb(251,255,255)" fill-opacity="0.502"/></g>
<g transform="translate(5424.00 2880.00) rotate(200) scale(896.00 768.00)"><ellipse cx="0" cy="0" rx="1" ry="1" fill="rgb(98,42,18)" fill-opacity="0.502"/></g>
<g transform="translate(4768.00 1888.00) rotate(270) scale(464.00 1248.00)"><ellipse cx="0" cy="0" rx="1" ry="1" fill="rgb(0,0,4)" fill-opacity="0.502"/></g>
<circle cx="3024.00" cy="4592.00" r="944.00" fill="rgb(0,0,0)" fill-opacity="0.502"/>
<g transform="translate(4800.00 320.00) rotate(285) scale(160.00 432.00)"><ellipse cx="0" cy="0" rx="1" ry="1" fill="rgb(0,0,27)" fill-opacity="0.502"/></g>
<polygon points="3116.20,2837.89 3063.21,2232.20 3955.80,2154.11 4008.79,2759.80" fill="rgb(221,108,68)" fill-opacity="0.502"/>
<circle cx="4816.00" cy="880.00" r="192.00" fill="rgb(236,255,255)" fill-opacity="0.502"/>
<polygon points="3792.00,4544.00 3792.00,3776.00 4688.00,3776.00 4688.00,4544.00" fill="rgb(0,0,0)" fill-opacity="0.502"/>
<g transform="translate(1952.00 480.00) rotate(251) scale(352.00 224.00)"><ellipse cx="0" cy="0" rx="1" ry="1" fill="rgb(200,186,167)" fill-opacity="0.502"/></g>
<circle cx="2864.00" cy="304.00" r="496.00" fill="rgb(207,108,73)" fill-opacity="0.502"/>
<circle cx="2080.00" cy="2416.00" r="544.00" fill="rgb(223,110,76)" fill-opacity="0.502"/>
<circle cx="1344.00" cy="3360.00" r="256.00" fill="rgb(222,165,131)" fill-opacity="0.502"/>
<circle cx="1728.00" cy="4560.00" r="768.00" fill="rgb(0,0,0)" fill-opacity="0.502"/>
<g transform="translate(3344.00 768.00) rotate(349) scale(160.00 1168.00)"><ellipse cx="0" cy="0" rx="1" ry="1" fill="rgb(109,79,91)" fill-opacity="0.502"/></g>
<circle cx="5616.00" cy="4128.00" r="608.00" fill="rgb(75,27,12)" fill-opacity="0.502"/>
<circle cx="7792.00" cy="3120.00" r="1664.00" fill="rgb(0,0,0)" fill-opacity="0.502"/>
<circle cx="560.00" cy="1328.00" r="544.00" fill="rgb(0,0,0)" fill-opacity="0.502"/>
<circle cx="1424.00" cy="2880.00" r="352.00" fill="rgb(195,100,69)" fill-opacity="0.502"/>
<circle cx="3568.00" cy="0.00" r="384.00" fill="rgb(182,104,70)" fill-opacity="0.502"/>
<polygon points="4374.30,1684.40 3592.21,1739.09 3577.70,1531.60 4359.79,1476.91" fill="rgb(35,52,176)" fill-opacity="0.502"/>
<circle cx="7520.00" cy="368.00" r="1360.00" fill="rgb(0,0,0)" fill-opacity="0.502"/>
<circle cx="5232.00" cy="1408.00" r="336.00" fill="rgb(0,0,0)" fill-opacity="0.502"/>
<g transform="translate(2448.00 1376.00) rotate(275) scale(640.00 992.00)"><ellipse cx="0" cy="0" rx="1" ry="1" fill="rgb(202,103,68)" fill-opacity="0.502"/></g>
<circle cx="5136.00" cy="800.00" r="208.00" fill="rgb(0,7,68)" fill-opacity="0.502"/>
<circle cx="3200.00" cy="1632.00" r="288.00" fill="rgb(173,96,60)" fill-opacity="0.502"/>
<g transform="translate(6112.00 2864.00) rotate(161) scale(768.00 160.00)"><ellipse cx="0" cy="0" rx="1" ry="1" fill="rgb(88,43,22)" fill-opacity="0.502"/></g>
<g transform="translate(4480.00 2352.00) rotate(0) scale(592.00 240.00)"><ellipse cx="0" cy="0" rx="1" ry="1" fill="rgb(106,28,0)" fill-opacity="0.502"/></g>
<polygon points="3757.63,2856.06 5132.79,2808.04 5138.37,2967.94 3763.21,3015.96" fill="rgb(160,147,141)" fill-opacity="0.502"/>
<g transform="translate(2896.00 3584.00) rotate(170) scale(656.00 160.00)"><ellipse cx="0" cy="0" rx="1" ry="1" fill="rgb(131,29,0)" fill-opacity="0.502"/></g>
<g transform="translate(4640.00 4400.00) rotate(21) scale(352.00 736.00)"><ellipse cx="0" cy="0" rx="1" ry="1" fill="rgb(0,0,0)" fill-opacity="0.502"/></g>
<circle cx="2656.00" cy="3136.00" r="224.00" fill="rgb(183,146,118)" fill-opacity="0.502"/>
<g transform="translate(1744.00 336.00) rotate(31) scale(272.00 592.00)"><ellipse cx="0" cy="0" rx="1" ry="1" fill="rgb(197,159,136)" fill-opacity="0.502"/></g>
<circle cx="592.00" cy="3296.00" r="512.00" fill="rgb(0,0,0)" fill-opacity="0.502"/>
<polygon points="1600.00,3424.00 1600.00,3040.00 2112.00,3040.00 2112.00,3424.00" fill="rgb(145,161,133)" fill-opacity="0.502"/>
<circle cx="368.00" cy="384.00" r="752.00" fill="rgb(0,0,0)" fill-opacity="0.502"/>
<g transform="translate(5216.00 3168.00) rotate(91) scale(1008.00 256.00)"><ellipse cx="0" cy="0" rx="1" ry="1" fill="rgb(58,22,7)" fill-opacity="0.502"/></g>
<g transform="translate(2848.00 2880.00) rotate(55) scale(224.00 176.00)"><ellipse cx="0" cy="0" rx="1" ry="1" fill="rgb(53,0,0)" fill-opacity="0.502"/></g>
<circle cx="5344.00" cy="304.00" r="448.00" fill="rgb(73,15,0)" fill-opacity="0.502"/>
<g transform="translate(96.00 2240.00) rotate(136) scale(768.00 1216.00)"><ellipse cx="0" cy="0" rx="1" ry="1" fill="rgb(0,0,0)" fill-opacity="0.502"/></g>
<circle cx="4592.00" cy="1792.00" r="384.00" fill="rgb(0,0,12)" fill-opacity="0.502"/>
<circle cx="3728.00" cy="4240.00" r="512.00" fill="rgb(0,0,0)" fill-opacity="0.502"/>
<circle cx="4464.00" cy="2400.00" r="144.00" fill="rgb(148,67,34)" fill-opacity="0.502"/>
<circle cx="4208.00" cy="2464.00" r="208.00" fill="rgb(39,2,0)" fill-opacity="0.502"/>
<g transform="translate(2944.00 2752.00) rotate(253) scale(800.00 272.00)"><ellipse cx="0" cy="0" rx="1" ry="1" fill="rgb(91,20,3)" fill-opacity="0.502"/></g>
<g transform="translate(2272.00 80.00) rotate(0) scale(96.00 768.00)"><ellipse cx="0" cy="0" rx="1" ry="1" fill="rgb(50,0,0)" fill-opacity="0.502"/></g>
<circle cx="2144.00" cy="2576.00" r="496.00" fill="rgb(194,104,70)" fill-opacity="0.502"/>
<g transform="translate(3040.00 224.00) rotate(345) scale(192.00 1024.00)"><ellipse cx="0" cy="0" rx="1" ry="1" fill="rgb(199,115,73)" fill-opacity="0.502"/></g>
<g transform="translate(6592.00 1728.00) rotate(144) scale(400.00 144.00)"><ellipse cx="0" cy="0" rx="1" ry="1" fill="rgb(86,37,15)" fill-opacity="0.502"/></g>
<g transform="translate(3584.00 0.00) rotate(268) scale(256.00 1280.00)"><ellipse cx="0" cy="0" rx="1" ry="1" fill="rgb(200,107,65)" fill-opacity="0.502"/></g>
<polygon points="2793.98,2504.56 3005.43,2243.44 3366.02,2535.44 3154.57,2796.56" fill="rgb(166,56,27)" fill-opacity="0.502"/>
<g transform="translate(4000.00 272.00) rotate(261) scale(128.00 688.00)"><ellipse cx="0" cy="0" rx="1" ry="1" fill="rgb(50,54,110)" fill-opacity="0.502"/></g>
<g transform="translate(1472.00 0.00) rotate(203) scale(288.00 624.00)"><ellipse cx="0" cy="0" rx="1" ry="1" fill="rgb(200,92,61)" fill-opacity="0.502"/></g>
<g transform="translate(2256.00 1664.00) rotate(335) scale(560.00 544.00)"><ellipse cx="0" cy="0" rx="1" ry="1" fill="rgb(205,109,78)" fill-opacity="0.502"/></g>
<g transform="translate(5280.00 928.00) rotate(271) scale(400.00 160.00)"><ellipse cx="0" cy="0" rx="1" ry="1" fill="rgb(0,0,0)" fill-opacity="0.502"/></g>
<circle cx="3920.00" cy="736.00" r="400.00" fill="rgb(223,255,253)" fill-opacity="0.502"/>
<g transform="translate(6304.00 2528.00) rotate(321) scale(240.00 576.00)"><ellipse cx="0" cy="0" rx="1" ry="1" fill="rgb(42,8,0)" fill-opacity="0.502"/></g>
<g transform="translate(3648.00 2784.00) rotate(272) scale(96.00 800.00)"><ellipse cx="0" cy="0" rx="1" ry="1" fill="rgb(153,77,47)" fill-opacity="0.502"/></g>
<g transform="translate(5600.00 4400.00) rotate(360) scale(144.00 240.00)"><ellipse cx="0" cy="0" rx="1" ry="1" fill="rgb(0,0,0)" fill-opacity="0.502"/></g>
<g transform="translate(2864.00 576.00) rotate(172) scale(400.00 688.00)"><ellipse cx="0" cy="0" rx="1" ry="1" fill="rgb(195,109,77)" fill-opacity="0.502"/></g>
<g transform="translate(4096.00 1408.00) rotate(345) scale(208.00 144.00)"><ellipse cx="0" cy="0" rx="1" ry="1" fill="rgb(215,255,255)" fill-opacity="0.502"/></g>
<polygon points="4376.08,2752.62 4602.34,3022.27 4295.92,3279.38 4069.66,3009.73" fill="rgb(192,161,135)" fill-opacity="0.502"/>
<circle cx="1808.00" cy="128.00" r="336.00" fill="rgb(200,157,133)" fill-opacity="0.502"/>
<g transform="translate(3872.00 1904.00) rotate(341) scale(1040.00 144.00)"><ellipse cx="0" cy="0" rx="1" ry="1" fill="rgb(0,0,12)" fill-opacity="0.502"/></g>
<g transform="translate(2128.00 3776.00) rotate(299) scale(224.00 432.00)"><ellipse cx="0" cy="0" rx="1" ry="1" fill="rgb(50,10,2)" fill-opacity="0.502"/></g>
<polygon points="1456.11,3322.34 1170.44,3218.36 1279.89,2917.66 1565.56,3021.64" fill="rgb(114,61,30)" fill-opacity="0.502"/>
<g transform="translate(5312.00 96.00) rotate(287) scale(368.00 224.00)"><ellipse cx="0" cy="0" rx="1" ry="1" fill="rgb(117,38,4)" fill-opacity="0.502"/></g>
<circle cx="7680.00" cy="1904.00" r="912.00" fill="rgb(0,0,0)" fill-opacity="0.502"/>
<circle cx="3488.00" cy="3312.00" r="160.00" fill="rgb(81,27,2)" fill-opacity="0.502"/>
<circle cx="480.00" cy="3952.00" r="656.00" fill="rgb(0,0,0)" fill-opacity="0.502"/>
<polygon points="5713.31,3382.22 5846.48,2805.39 6142.69,2873.78 6009.52,3450.61" fill="rgb(101,66,46)" fill-opacity="0.502"/>
<polygon points="4314.61,1156.03 4364.31,1341.48 3653.39,1531.97 3603.69,1346.52" fill="rgb(231,255,251)" fill-opacity="0.502"/>
<g transform="translate(3168.00 2128.00) rotate(179) scale(608.00 96.00)"><ellipse cx="0" cy="0" rx="1" ry="1" fill="rgb(0,0,0)" fill-opacity="0.502"/></g>
<circle cx="2256.00" cy="4320.00" r="544.00" fill="rgb(0,0,0)" fill-opacity="0.502"/>
<polygon points="4248.73,879.10 4188.28,386.80 4855.27,304.90 4915.72,797.20" fill="rgb(122,124,196)" fill-opacity="0.502"/>
<g transform="translate(1360.00 4352.00) rotate(174) scale(3728.00 448.00)"><ellipse cx="0" cy="0" rx="1" ry="1" fill="rgb(4,0,0)" fill-opacity="0.502"/></g>
<circle cx="704.00" cy="1600.00" r="400.00" fill="rgb(0,0,0)" fill-opacity="0.502"/>
<polygon points="3471.41,2890.76 3373.17,2569.44 3648.59,2485.24 3746.83,2806.56" fill="rgb(192,94,59)" fill-opacity="0.502"/>
<polygon points="3394.02,469.52 3521.71,460.59 3581.98,1322.48 3454.29,1331.41" fill="rgb(81,117,203)" fill-opacity="0.502"/>
<circle cx="1520.00" cy="3712.00" r="192.00" fill="rgb(107,26,2)" fill-opacity="0.502"/>
<circle cx="2896.00" cy="1920.00" r="160.00" fill="rgb(138,56,21)" fill-opacity="0.502"/>
<circle cx="5552.00" cy="1632.00" r="656.00" fill="rgb(6,0,0)" fill-opacity="0.502"/>
<g transform="translate(1776.00 992.00) rotate(347) scale(416.00 192.00)"><ellipse cx="0" cy="0" rx="1" ry="1" fill="rgb(173,105,77)" fill-opacity="0.502"/></g>
<polygon points="4028.77,329.04 3888.35,459.98 3779.23,342.96 3919.65,212.02" fill="rgb(78,86,188)" fill-opacity="0.502"/>
<g transform="translate(2000.00 2928.00) rotate(70) scale(48.00 528.00)"><ellipse cx="0" cy="0" rx="1" ry="1" fill="rgb(151,73,38)" fill-opacity="0.502"/></g>
<polygon points="1852.20,808.79 1120.23,885.72 1091.80,615.21 1823.77,538.28" fill="rgb(214,185,159)" fill-opacity="0.502"/>
<polygon points="1140.10,3883.81 1091.25,3632.51 1483.90,3556.19 1532.75,3807.49" fill="rgb(108,34,10)" fill-opacity="0.502"/>
<circle cx="5328.00" cy="2400.00" r="208.00" fill="rgb(30,5,2)" fill-opacity="0.502"/>
<polygon points="1244.60,3448.16 1310.85,3200.88 1635.40,3287.84 1569.15,3535.12" fill="rgb(188,150,125)" fill-opacity="0.502"/>
<g transform="translate(4416.00 2688.00) rotate(141) scale(144.00 144.00)"><ellipse cx="0" cy="0" rx="1" ry="1" fill="rgb(88,46,9)" fill-opacity="0.502"/></g>
<circle cx="3728.00" cy="608.00" r="240.00" fill="rgb(234,254,243)" fill-opacity="0.502"/>
<polygon points="6024.46,4385.13 5752.63,4187.64 5959.54,3902.87 6231.37,4100.36" fill="rgb(72,37,27)" fill-opacity="0.502"/>
<polygon points="2428.62,2998.90 3034.09,3149.86 2995.38,3305.10 2389.91,3154.14" fill="rgb(182,145,121)" fill-opacity="0.502"/>
<g transform="translate(6080.00 560.00) rotate(86) scale(1808.00 160.00)"><ellipse cx="0" cy="0" rx="1" ry="1" fill="rgb(33,0,0)" fill-opacity="0.502"/></g>
<circle cx="1648.00" cy="1440.00" r="544.00" fill="rgb(212,122,90)" fill-opacity="0.502"/>
<polygon points="1608.23,2967.48 1128.52,2984.23 1111.77,2504.52 1591.48,2487.77" fill="rgb(222,129,99)" fill-opacity="0.502"/>
<circle cx="1664.00" cy="416.00" r="256.00" fill="rgb(191,125,98)" fill-opacity="0.502"/>
<g transform="translate(5328.00 4144.00) rotate(21) scale(224.00 592.00)"><ellipse cx="0" cy="0" rx="1" ry="1" fill="rgb(71,32,17)" fill-opacity="0.502"/></g>
<polygon points="4128.00,1488.00 4576.00,1488.00 4576.00,1632.00 4128.00,1632.00" fill="rgb(42,44,127)" fill-opacity="0.502"/>
<g transform="translate(7328.00 3888.00) rotate(114) scale(2816.00 944.00)"><ellipse cx="0" cy="0" rx="1" ry="1" fill="rgb(0,0,0)" fill-opacity="0.502"/></g>
<g transform="translate(2272.00 2880.00) rotate(356) scale(416.00 176.00)"><ellipse cx="0" cy="0" rx="1" ry="1" fill="rgb(163,81,47)" fill-opacity="0.502"/></g>
<polygon points="2880.80,2454.60 2810.24,2700.68 2687.20,2665.40 2757.76,2419.32" fill="rgb(30,0,0)" fill-opacity="0.502"/>
<circle cx="4864.00" cy="768.00" r="112.00" fill="rgb(240,255,255)" fill-opacity="0.502"/>
<polygon points="4556.33,329.67 4534.89,154.98 4963.67,102.33 4985.11,277.02" fill="rgb(0,0,0)" fill-opacity="0.502"/>
<circle cx="416.00" cy="3184.00" r="688.00" fill="rgb(0,0,0)" fill-opacity="0.502"/>
<polygon points="3681.99,2001.72 2866.48,2030.20 2862.01,1902.28 3677.52,1873.80" fill="rgb(107,46,13)" fill-opacity="0.502"/>
<polygon points="3842.91,365.40 3835.94,445.10 3533.09,418.60 3540.06,338.90" fill="rgb(67,76,182)" fill-opacity="0.502"/>
<circle cx="4784.00" cy="0.00" r="144.00" fill="rgb(146,53,4)" fill-opacity="0.502"/>
<g transform="translate(7872.00 384.00) rotate(360) scale(1520.00 752.00)"><ellipse cx="0" cy="0" rx="1" ry="1" fill="rgb(0,0,0)" fill-opacity="0.502"/></g>
<g transform="translate(4368.00 256.00) rotate(185) scale(192.00 80.00)"><ellipse cx="0" cy="0" rx="1" ry="1" fill="rgb(4,0,26)" fill-opacity="0.502"/></g>
<circle cx="2240.00" cy="2560.00" r="384.00" fill="rgb(204,112,79)" fill-opacity="0.502"/>
<circle cx="5216.00" cy="2816.00" r="256.00" fill="rgb(84,48,23)" fill-opacity="0.502"/>
<circle cx="3936.00" cy="160.00" r="112.00" fill="rgb(178,114,75)" fill-opacity="0.502"/>
<polygon points="5392.19,2433.54 5304.29,2245.03 5695.81,2062.46 5783.71,2250.97" fill="rgb(20,0,0)" fill-opacity="0.502"/>
<circle cx="512.00" cy="720.00" r="592.00" fill="rgb(0,0,0)" fill-opacity="0.502"/>
<circle cx="3504.00" cy="1584.00" r="128.00" fill="rgb(43,40,72)" fill-opacity="0.502"/>
<circle cx="3792.00" cy="1152.00" r="224.00" fill="rgb(240,255,242)" fill-opacity="0.502"/>
<polygon points="2309.88,3429.49 2354.34,3681.60 1850.12,3770.51 1805.66,3518.40" fill="rgb(78,40,20)" fill-opacity="0.502"/>
<g transform="translate(2832.00 1408.00) rotate(124) scale(544.00 448.00)"><ellipse cx="0" cy="0" rx="1" ry="1" fill="rgb(183,98,67)" fill-opacity="0.502"/></g>
<polygon points="4286.47,3288.69 4237.72,3685.71 3729.53,3623.31 3778.28,3226.29" fill="rgb(189,138,112)" fill-opacity="0.502"/>
<circle cx="5008.00" cy="2336.00" r="160.00" fill="rgb(102,37,16)" fill-opacity="0.502"/>
<g transform="translate(2320.00 1248.00) rotate(13) scale(432.00 432.00)"><ellipse cx="0" cy="0" rx="1" ry="1" fill="rgb(201,109,76)" fill-opacity="0.502"/></g>
<polygon points="4291.50,1397.24 3752.79,1472.95 3612.50,474.76 4151.21,399.05" fill="rgb(238,255,240)" fill-opacity="0.502"/>
<circle cx="2176.00" cy="3216.00" r="144.00" fill="rgb(36,76,44)" fill-opacity="0.502"/>
<circle cx="4400.00" cy="3440.00" r="112.00" fill="rgb(101,53,29)" fill-opacity="0.502"/>
<polygon points="5407.64,-4.15 4099.81,226.45 4080.36,116.15 5388.19,-114.45" fill="rgb(160,71,29)" fill-opacity="0.502"/>
<circle cx="2208.00" cy="3648.00" r="208.00" fill="rgb(78,30,12)" fill-opacity="0.502"/>
<circle cx="4000.00" cy="3264.00" r="240.00" fill="rgb(180,130,107)" fill-opacity="0.502"/>
<circle cx="4720.00" cy="1280.00" r="160.00" fill="rgb(58,60,137)" fill-opacity="0.502"/>
<circle cx="6080.00" cy="1008.00" r="704.00" fill="rgb(13,0,0)" fill-opacity="0.502"/>
<circle cx="3536.00" cy="2496.00" r="304.00" fill="rgb(181,89,56)" fill-opacity="0.502"/>
<circle cx="4832.00" cy="1792.00" r="416.00" fill="rgb(4,0,2)" fill-opacity="0.502"/>
<polygon points="4884.89,514.60 5040.29,431.97 5243.11,813.40 5087.71,896.03" fill="rgb(11,20,82)" fill-opacity="0.502"/>
<polygon points="4688.00,1408.00 4304.00,1408.00 4304.00,624.00 4688.00,624.00" fill="rgb(124,133,207)" fill-opacity="0.502"/>
<polygon points="5915.41,352.87 5618.71,232.99 5732.59,-48.87 6029.29,71.01" fill="rgb(43,1,0)" fill-opacity="0.502"/>
<polygon points="2282.66,63.82 2464.59,793.48 2309.34,832.18 2127.41,102.52" fill="rgb(91,30,7)" fill-opacity="0.502"/>
<polygon points="3223.64,3228.36 3240.27,3306.61 2520.36,3459.64 2503.73,3381.39" fill="rgb(39,0,0)" fill-opacity="0.502"/>
<circle cx="4832.00" cy="3008.00" r="144.00" fill="rgb(125,60,39)" fill-opacity="0.502"/>
<polygon points="1314.63,3727.16 1358.73,3573.36 1789.37,3696.84 1745.27,3850.64" fill="rgb(87,32,14)" fill-opacity="0.502"/>
<polygon points="2046.45,2978.46 2698.86,2909.89 2705.55,2973.54 2053.14,3042.11" fill="rgb(106,39,11)" fill-opacity="0.502"/>
<circle cx="400.00" cy="1888.00" r="704.00" fill="rgb(0,0,0)" fill-opacity="0.502"/>
<g transform="translate(5104.00 4112.00) rotate(91) scale(688.00 128.00)"><ellipse cx="0" cy="0" rx="1" ry="1" fill="rgb(32,8,3)" fill-opacity="0.502"/></g>
<polygon points="4455.55,2500.66 5308.92,2365.50 5336.45,2539.34 4483.08,2674.50" fill="rgb(25,0,0)" fill-opacity="0.502"/>
<polygon points="2014.77,2707.90 2367.95,2895.69 2225.23,3164.10 1872.05,2976.31" fill="rgb(155,83,51)" fill-opacity="0.502"/>
<circle cx="1680.00" cy="2320.00" r="576.00" fill="rgb(210,120,89)" fill-opacity="0.502"/>
<circle cx="5552.00" cy="1040.00" r="400.00" fill="rgb(4,0,0)" fill-opacity="0.502"/>
<circle cx="4704.00" cy="528.00" r="208.00" fill="rgb(102,95,159)" fill-opacity="0.502"/>
<g transform="translate(2976.00 4528.00) rotate(15) scale(1024.00 816.00)"><ellipse cx="0" cy="0" rx="1" ry="1" fill="rgb(11,0,0)" fill-opacity="0.502"/></g>
<polygon points="1609.45,3463.62 1659.77,3261.80 1830.55,3304.38 1780.23,3506.20" fill="rgb(192,155,136)" fill-opacity="0.502"/>
<circle cx="4448.00" cy="1344.00" r="144.00" fill="rgb(103,119,197)" fill-opacity="0.502"/>
<polygon points="1358.78,1683.20 1612.87,1714.40 1521.22,2460.80 1267.13,2429.60" fill="rgb(220,134,100)" fill-opacity="0.502"/>
<polygon points="2834.08,3033.28 2885.98,3300.29 2461.92,3382.72 2410.02,3115.71" fill="rgb(159,116,90)" fill-opacity="0.502"/>
<g transform="translate(6624.00 752.00) rotate(70) scale(400.00 64.00)"><ellipse cx="0" cy="0" rx="1" ry="1" fill="rgb(36,21,19)" fill-opacity="0.502"/></g>
<polygon points="4256.00,288.00 4256.00,384.00 3648.00,384.00 3648.00,288.00" fill="rgb(73,85,181)" fill-opacity="0.502"/>
<polygon points="2341.51,3792.37 1592.37,3726.83 1610.49,3519.63 2359.63,3585.17" fill="rgb(101,51,31)" fill-opacity="0.502"/>
<g transform="translate(3696.00 2528.00) rotate(127) scale(464.00 160.00)"><ellipse cx="0" cy="0" rx="1" ry="1" fill="rgb(168,79,48)" fill-opacity="0.502"/></g>
<polygon points="3359.17,2738.29 3751.87,3223.23 3664.83,3293.71 3272.13,2808.77" fill="rgb(72,25,0)" fill-opacity="0.502"/>
<circle cx="8048.00" cy="3680.00" r="1200.00" fill="rgb(0,0,0)" fill-opacity="0.502"/>
<g transform="translate(2800.00 2192.00) rotate(66) scale(112.00 240.00)"><ellipse cx="0" cy="0" rx="1" ry="1" fill="rgb(17,0,0)" fill-opacity="0.502"/></g>
<circle cx="1168.00" cy="3072.00" r="80.00" fill="rgb(168,78,41)" fill-opacity="0.502"/>
<circle cx="4848.00" cy="3584.00" r="112.00" fill="rgb(197,143,111)" fill-opacity="0.502"/>
<polygon points="1695.19,3517.68 1143.70,3614.92 1104.81,3394.32 1656.30,3297.08" fill="rgb(182,137,117)" fill-opacity="0.502"/>
<g transform="translate(3200.00 64.00) rotate(103) scale(160.00 656.00)"><ellipse cx="0" cy="0" rx="1" ry="1" fill="rgb(192,108,74)" fill-opacity="0.502"/></g>
<polygon points="4907.40,3689.60 4493.68,3733.08 4468.60,3494.40 4882.32,3450.92" fill="rgb(178,122,92)" fill-opacity="0.502"/>
<circle cx="2928.00" cy="2320.00" r="80.00" fill="rgb(171,63,34)" fill-opacity="0.502"/>
<polygon points="5100.83,1095.39 4989.67,1109.04 4931.17,632.61 5042.33,618.96" fill="rgb(44,64,164)" fill-opacity="0.502"/>
<circle cx="6320.00" cy="3232.00" r="304.00" fill="rgb(20,2,0)" fill-opacity="0.502"/>
<g transform="translate(3280.00 3056.00) rotate(106) scale(224.00 496.00)"><ellipse cx="0" cy="0" rx="1" ry="1" fill="rgb(98,39,13)" fill-opacity="0.502"/></g>
<polygon points="5959.27,2523.86 6087.75,2799.38 5768.73,2948.14 5640.25,2672.62" fill="rgb(81,39,21)" fill-opacity="0.502"/>
<circle cx="2352.00" cy="4192.00" r="448.00" fill="rgb(11,0,0)" fill-opacity="0.502"/>
<polygon points="5738.02,2413.30 5804.18,2182.60 5957.98,2226.70 5891.82,2457.40" fill="rgb(75,54,43)" fill-opacity="0.502"/>
<circle cx="2016.00" cy="368.00" r="176.00" fill="rgb(201,165,144)" fill-opacity="0.502"/>
<circle cx="4544.00" cy="4384.00" r="480.00" fill="rgb(5,0,0)" fill-opacity="0.502"/>
<polygon points="3506.86,1871.36 3045.45,1739.06 3085.14,1600.64 3546.55,1732.94" fill="rgb(188,97,61)" fill-opacity="0.502"/>
<polygon points="1455.10,2962.16 1500.99,3027.70 1120.90,3293.84 1075.01,3228.30" fill="rgb(122,58,28)" fill-opacity="0.502"/>
<polygon points="6707.39,1322.90 6654.47,1138.33 6700.61,1125.10 6753.53,1309.67" fill="rgb(75,62,60)" fill-opacity="0.502"/>
<g transform="translate(6464.00 3776.00) rotate(247) scale(544.00 256.00)"><ellipse cx="0" cy="0" rx="1" ry="1" fill="rgb(10,0,0)" fill-opacity="0.502"/></g>
<circle cx="4992.00" cy="288.00" r="128.00" fill="rgb(0,1,21)" fill-opacity="0.502"/>
<g transform="translate(2288.00 3472.00) rotate(259) scale(48.00 480.00)"><ellipse cx="0" cy="0" rx="1" ry="1" fill="rgb(34,1,0)" fill-opacity="0.502"/></g>
<polygon points="2059.75,3624.83 2078.07,3719.06 1748.25,3783.17 1729.93,3688.94" fill="rgb(122,67,44)" fill-opacity="0.502"/>
<polygon points="3765.65,2090.72 2901.82,2258.63 2874.35,2117.28 3738.18,1949.37" fill="rgb(7,0,0)" fill-opacity="0.502"/>
<g transform="translate(3792.00 2080.00) rotate(352) scale(1040.00 80.00)"><ellipse cx="0" cy="0" rx="1" ry="1" fill="rgb(8,0,0)" fill-opacity="0.502"/></g>
<polygon points="4665.17,326.00 4252.27,376.69 4230.83,202.00 4643.73,151.31" fill="rgb(18,9,45)" fill-opacity="0.502"/>
<g transform="translate(1296.00 384.00) rotate(131) scale(96.00 240.00)"><ellipse cx="0" cy="0" rx="1" ry="1" fill="rgb(180,74,44)" fill-opacity="0.502"/></g>
<polygon points="2152.32,983.78 2336.47,805.95 2647.68,1128.22 2463.53,1306.05" fill="rgb(205,114,84)" fill-opacity="0.502"/>
<g transform="translate(640.00 240.00) rotate(6) scale(432.00 4592.00)"><ellipse cx="0" cy="0" rx="1" ry="1" fill="rgb(0,0,0)" fill-opacity="0.502"/></g>
<g transform="translate(6560.00 320.00) rotate(14) scale(320.00 832.00)"><ellipse cx="0" cy="0" rx="1" ry="1" fill="rgb(3,0,0)" fill-opacity="0.502"/></g>
<polygon points="1164.92,940.97 1273.60,846.50 1347.08,931.03 1238.40,1025.50" fill="rgb(109,67,40)" fill-opacity="0.502"/>
<g transform="translate(6688.00 2160.00) rotate(108) scale(432.00 304.00)"><ellipse cx="0" cy="0" rx="1" ry="1" fill="rgb(10,0,0)" fill-opacity="0.502"/></g>
<g transform="translate(3056.00 896.00) rotate(139) scale(224.00 432.00)"><ellipse cx="0" cy="0" rx="1" ry="1" fill="rgb(182,112,80)" fill-opacity="0.502"/></g>
<circle cx="4496.00" cy="2288.00" r="160.00" fill="rgb(135,56,24)" fill-opacity="0.502"/>
<polygon points="3319.70,299.95 3489.71,345.50 3448.30,500.05 3278.29,454.50" fill="rgb(52,42,57)" fill-opacity="0.502"/>
<g transform="translate(3952.00 2720.00) rotate(132) scale(320.00 64.00)"><ellipse cx="0" cy="0" rx="1" ry="1" fill="rgb(104,48,22)" fill-opacity="0.502"/></g>
<g transform="translate(2336.00 1936.00) rotate(10) scale(256.00 352.00)"><ellipse cx="0" cy="0" rx="1" ry="1" fill="rgb(201,110,80)" fill-opacity="0.502"/></g>
<polygon points="4077.65,3519.06 4293.65,3144.94 4418.35,3216.94 4202.35,3591.06" fill="rgb(169,118,96)" fill-opacity="0.502"/>
<polygon points="4889.90,3184.43 5311.57,2681.90 5814.10,3103.57 5392.43,3606.10" fill="rgb(70,32,16)" fill-opacity="0.502"/>
<polygon points="2524.79,3435.96 2856.66,3383.39 2899.21,3652.04 2567.34,3704.61" fill="rgb(121,44,10)" fill-opacity="0.502"/>
<circle cx="3504.00" cy="1424.00" r="96.00" fill="rgb(50,75,155)" fill-opacity="0.502"/>
<polygon points="3472.15,1275.36 3502.68,1432.42 3439.85,1444.64 3409.32,1287.58" fill="rgb(77,51,71)" fill-opacity="0.502"/>
<polygon points="5200.87,2852.02 4563.31,2907.80 4559.13,2859.98 5196.69,2804.20" fill="rgb(159,116,86)" fill-opacity="0.502"/>
<polygon points="5126.49,1334.69 5002.29,1303.72 5145.51,729.31 5269.71,760.28" fill="rgb(12,12,45)" fill-opacity="0.502"/>
<circle cx="3040.00" cy="4464.00" r="352.00" fill="rgb(0,0,0)" fill-opacity="0.502"/>
<polygon points="6100.74,2191.51 6039.61,2538.16 5803.26,2496.49 5864.39,2149.84" fill="rgb(63,35,20)" fill-opacity="0.502"/>
<g transform="translate(4912.00 960.00) rotate(0) scale(48.00 160.00)"><ellipse cx="0" cy="0" rx="1" ry="1" fill="rgb(202,233,255)" fill-opacity="0.502"/></g>
<circle cx="2944.00" cy="432.00" r="368.00" fill="rgb(196,108,75)" fill-opacity="0.502"/>
<polygon points="5638.04,3959.68 5141.07,4180.95 5049.96,3976.32 5546.93,3755.05" fill="rgb(72,34,20)" fill-opacity="0.502"/>
<circle cx="1376.00" cy="544.00" r="112.00" fill="rgb(190,118,88)" fill-opacity="0.502"/>
<circle cx="5280.00" cy="2944.00" r="208.00" fill="rgb(73,35,14)" fill-opacity="0.502"/>
<circle cx="8176.00" cy="1072.00" r="1376.00" fill="rgb(0,0,0)" fill-opacity="0.502"/>
<g transform="translate(1312.00 4480.00) rotate(242) scale(544.00 944.00)"><ellipse cx="0" cy="0" rx="1" ry="1" fill="rgb(2,0,0)" fill-opacity="0.502"/></g>
<polygon points="6466.72,2727.85 6281.22,2926.78 5965.28,2632.15 6150.78,2433.22" fill="rgb(53,20,5)" fill-opacity="0.502"/>
<polygon points="2671.45,2908.91 1736.63,3040.29 1696.55,2755.09 2631.37,2623.71" fill="rgb(184,95,61)" fill-opacity="0.502"/>
<polygon points="4612.62,2049.94 4762.50,2216.41 4667.38,2302.06 4517.50,2135.59" fill="rgb(43,3,0)" fill-opacity="0.502"/>
<polygon points="3837.09,3109.79 3358.15,3457.76 3282.91,3354.21 3761.85,3006.24" fill="rgb(82,40,19)" fill-opacity="0.502"/>
<polygon points="5568.72,3733.59 5737.77,3371.07 5839.28,3418.41 5670.23,3780.93" fill="rgb(95,54,33)" fill-opacity="0.502"/>
<polygon points="4766.38,3456.49 4711.52,3423.53 5057.62,2847.51 5112.48,2880.47" fill="rgb(95,49,28)" fill-opacity="0.502"/>
<polygon points="3061.03,3192.75 3207.20,3127.67 3434.97,3639.25 3288.80,3704.33" fill="rgb(109,40,11)" fill-opacity="0.502"/>
<circle cx="2496.00" cy="3264.00" r="64.00" fill="rgb(75,45,21)" fill-opacity="0.502"/>
<g transform="translate(1296.00 96.00) rotate(245) scale(480.00 128.00)"><ellipse cx="0" cy="0" rx="1" ry="1" fill="rgb(198,96,65)" fill-opacity="0.502"/></g>
<circle cx="3952.00" cy="2960.00" r="64.00" fill="rgb(135,161,211)" fill-opacity="0.502"/>
<g transform="translate(6416.00 1200.00) rotate(167) scale(288.00 192.00)"><ellipse cx="0" cy="0" rx="1" ry="1" fill="rgb(4,0,0)" fill-opacity="0.502"/></g>
<circle cx="2752.00" cy="736.00" r="304.00" fill="rgb(195,107,74)" fill-opacity="0.502"/>
<polygon points="1105.20,2220.22 978.02,2423.75 638.80,2211.78 765.98,2008.25" fill="rgb(0,0,0)" fill-opacity="0.502"/>
<g transform="translate(6688.00 960.00) rotate(39) scale(64.00 80.00)"><ellipse cx="0" cy="0" rx="1" ry="1" fill="rgb(90,66,59)" fill-opacity="0.502"/></g>
<circle cx="4560.00" cy="1568.00" r="160.00" fill="rgb(17,10,51)" fill-opacity="0.502"/>
<circle cx="336.00" cy="3888.00" r="768.00" fill="rgb(0,0,0)" fill-opacity="0.502"/>
<circle cx="5072.00" cy="3664.00" r="192.00" fill="rgb(27,5,0)" fill-opacity="0.502"/>
<g transform="translate(4400.00 784.00) rotate(216) scale(96.00 240.00)"><ellipse cx="0" cy="0" rx="1" ry="1" fill="rgb(147,160,220)" fill-opacity="0.502"/></g>
<g transform="translate(1808.00 3184.00) rotate(356) scale(96.00 160.00)"><ellipse cx="0" cy="0" rx="1" ry="1" fill="rgb(180,159,126)" fill-opacity="0.502"/></g>
<polygon points="4971.65,639.08 4888.86,280.51 5060.35,240.92 5143.14,599.49" fill="rgb(5,5,31)" fill-opacity="0.502"/>
<polygon points="6968.19,3823.79 6203.11,3756.86 6279.81,2880.21 7044.89,2947.14" fill="rgb(9,0,0)" fill-opacity="0.502"/>
<circle cx="1440.00" cy="1520.00" r="336.00" fill="rgb(212,127,95)" fill-opacity="0.502"/>
<polygon points="3206.26,1554.98 3422.63,1497.01 3513.74,1837.02 3297.37,1894.99" fill="rgb(173,97,61)" fill-opacity="0.502"/>
<circle cx="2416.00" cy="3296.00" r="32.00" fill="rgb(0,0,0)" fill-opacity="0.502"/>
<g transform="translate(4608.00 2720.00) rotate(84) scale(272.00 32.00)"><ellipse cx="0" cy="0" rx="1" ry="1" fill="rgb(85,44,18)" fill-opacity="0.502"/></g>
<polygon points="4889.84,3274.39 4699.27,3250.99 4742.16,2901.61 4932.73,2925.01" fill="rgb(105,53,34)" fill-opacity="0.502"/>
<g transform="translate(2672.00 192.00) rotate(21) scale(336.00 448.00)"><ellipse cx="0" cy="0" rx="1" ry="1" fill="rgb(194,102,70)" fill-opacity="0.502"/></g>
<g transform="translate(3728.00 2720.00) rotate(115) scale(112.00 240.00)"><ellipse cx="0" cy="0" rx="1" ry="1" fill="rgb(176,88,51)" fill-opacity="0.502"/></g>
<g transform="translate(3056.00 2640.00) rotate(176) scale(112.00 416.00)"><ellipse cx="0" cy="0" rx="1" ry="1" fill="rgb(121,23,0)" fill-opacity="0.502"/></g>
<g transform="translate(96.00 608.00) rotate(50) scale(1152.00 912.00)"><ellipse cx="0" cy="0" rx="1" ry="1" fill="rgb(0,0,0)" fill-opacity="0.502"/></g>
<polygon points="5417.73,2522.61 5437.08,2600.24 4614.27,2805.39 4594.92,2727.76" fill="rgb(86,57,34)" fill-opacity="0.502"/>
<circle cx="752.00" cy="2720.00" r="352.00" fill="rgb(0,0,0)" fill-opacity="0.502"/>
<g transform="translate(2464.00 4128.00) rotate(90) scale(64.00 384.00)"><ellipse cx="0" cy="0" rx="1" ry="1" fill="rgb(39,8,9)" fill-opacity="0.502"/></g>
<polygon points="4887.69,3702.74 4920.35,3079.59 4952.31,3081.26 4919.65,3704.41" fill="rgb(137,100,78)" fill-opacity="0.502"/>
<g transform="translate(4016.00 1648.00) rotate(134) scale(112.00 192.00)"><ellipse cx="0" cy="0" rx="1" ry="1" fill="rgb(61,60,137)" fill-opacity="0.502"/></g>
<polygon points="2691.05,2769.76 2791.74,2645.41 2940.95,2766.24 2840.26,2890.59" fill="rgb(25,0,0)" fill-opacity="0.502"/>
<g transform="translate(2512.00 3568.00) rotate(14) scale(160.00 112.00)"><ellipse cx="0" cy="0" rx="1" ry="1" fill="rgb(104,45,16)" fill-opacity="0.502"/></g>
<polygon points="5126.55,5.15 5192.85,545.10 5113.45,554.85 5047.15,14.90" fill="rgb(97,42,22)" fill-opacity="0.502"/>
<polygon points="1328.00,848.00 1872.00,848.00 1872.00,928.00 1328.00,928.00" fill="rgb(102,63,38)" fill-opacity="0.502"/>
<polygon points="3952.00,1744.00 4928.00,1744.00 4928.00,2096.00 3952.00,2096.00" fill="rgb(6,0,3)" fill-opacity="0.502"/>
<polygon points="3145.25,2598.37 3216.39,2402.91 3366.75,2457.63 3295.61,2653.09" fill="rgb(183,99,66)" fill-opacity="0.502"/>
<polygon points="4297.99,2818.67 4350.27,2899.18 4310.01,2925.33 4257.73,2844.82" fill="rgb(188,167,148)" fill-opacity="0.502"/>
<circle cx="3760.00" cy="688.00" r="256.00" fill="rgb(238,255,238)" fill-opacity="0.502"/>
<polygon points="4831.75,1001.78 4705.69,979.55 4736.25,806.22 4862.31,828.45" fill="rgb(236,255,255)" fill-opacity="0.502"/>
<polygon points="5920.00,3168.00 6080.00,3168.00 6080.00,3696.00 5920.00,3696.00" fill="rgb(70,35,22)" fill-opacity="0.502"/>
<circle cx="6240.00" cy="64.00" r="128.00" fill="rgb(39,0,0)" fill-opacity="0.502"/>
<polygon points="5022.79,4017.79 3768.21,4171.83 3729.21,3854.21 4983.79,3700.17" fill="rgb(19,0,0)" fill-opacity="0.502"/>
<circle cx="2144.00" cy="3344.00" r="32.00" fill="rgb(200,180,177)" fill-opacity="0.502"/>
<circle cx="2960.00" cy="2592.00" r="80.00" fill="rgb(162,72,38)" fill-opacity="0.502"/>
<polygon points="2206.40,544.60 2193.01,736.14 1953.60,719.40 1966.99,527.86" fill="rgb(219,175,153)" fill-opacity="0.502"/>
<circle cx="2928.00" cy="3184.00" r="48.00" fill="rgb(233,172,152)" fill-opacity="0.502"/>
<polygon points="5644.19,436.30 5148.27,427.64 5155.81,-4.30 5651.73,4.36" fill="rgb(92,22,0)" fill-opacity="0.502"/>
<polygon points="5136.00,640.00 5664.00,640.00 5664.00,880.00 5136.00,880.00" fill="rgb(20,1,0)" fill-opacity="0.502"/>
<polygon points="1767.87,1311.76 2316.46,1641.38 2168.13,1888.24 1619.54,1558.62" fill="rgb(197,109,77)" fill-opacity="0.502"/>
<polygon points="3348.97,1864.36 2694.56,1910.12 2651.03,1287.64 3305.44,1241.88" fill="rgb(178,93,61)" fill-opacity="0.502"/>
<g transform="translate(3904.00 2368.00) rotate(16) scale(112.00 112.00)"><ellipse cx="0" cy="0" rx="1" ry="1" fill="rgb(162,78,44)" fill-opacity="0.502"/></g>
<g transform="translate(4560.00 848.00) rotate(81) scale(304.00 128.00)"><ellipse cx="0" cy="0" rx="1" ry="1" fill="rgb(129,132,197)" fill-opacity="0.502"/></g>
<circle cx="1600.00" cy="3088.00" r="96.00" fill="rgb(133,73,52)" fill-opacity="0.502"/>
<g transform="translate(3328.00 3344.00) rotate(78) scale(144.00 400.00)"><ellipse cx="0" cy="0" rx="1" ry="1" fill="rgb(97,35,12)" fill-opacity="0.502"/></g>
<polygon points="2740.00,2465.59 2586.07,2380.26 2780.00,2030.41 2933.93,2115.74" fill="rgb(43,0,0)" fill-opacity="0.502"/>
<polygon points="4061.46,2709.90 5288.78,2602.53 5298.54,2714.10 4071.22,2821.47" fill="rgb(98,63,37)" fill-opacity="0.502"/>
<polygon points="5798.70,3272.63 5691.57,3094.34 6089.30,2855.37 6196.43,3033.66" fill="rgb(94,58,37)" fill-opacity="0.502"/>
<polygon points="2134.94,294.38 2073.06,-294.38 2073.06,-294.38 2134.94,294.38" fill="rgb(255,255,244)" fill-opacity="0.502"/>
<circle cx="688.00" cy="2128.00" r="400.00" fill="rgb(0,0,0)" fill-opacity="0.502"/>
<circle cx="4864.00" cy="1280.00" r="128.00" fill="rgb(55,47,103)" fill-opacity="0.502"/>
<circle cx="6144.00" cy="3968.00" r="192.00" fill="rgb(50,24,14)" fill-opacity="0.502"/>
<circle cx="6208.00" cy="1904.00" r="64.00" fill="rgb(65,34,30)" fill-opacity="0.502"/>
<circle cx="4448.00" cy="480.00" r="128.00" fill="rgb(95,91,151)" fill-opacity="0.502"/>
<g transform="translate(1568.00 3712.00) rotate(171) scale(336.00 192.00)"><ellipse cx="0" cy="0" rx="1" ry="1" fill="rgb(80,28,14)" fill-opacity="0.502"/></g>
<polygon points="3525.96,1607.81 3462.44,1615.61 3322.04,472.19 3385.56,464.39" fill="rgb(71,55,82)" fill-opacity="0.502"/>
<circle cx="5296.00" cy="560.00" r="112.00" fill="rgb(57,14,0)" fill-opacity="0.502"/>
<circle cx="3920.00" cy="1552.00" r="64.00" fill="rgb(113,128,218)" fill-opacity="0.502"/>
<g transform="translate(6528.00 4432.00) rotate(18) scale(352.00 944.00)"><ellipse cx="0" cy="0" rx="1" ry="1" fill="rgb(7,0,0)" fill-opacity="0.502"/></g>
<circle cx="5680.00" cy="4272.00" r="160.00" fill="rgb(12,0,0)" fill-opacity="0.502"/>
<polygon points="4948.69,1097.66 4938.65,1241.31 4667.31,1222.34 4677.35,1078.69" fill="rgb(81,83,157)" fill-opacity="0.502"/>
<circle cx="4560.00" cy="3680.00" r="16.00" fill="rgb(49,0,0)" fill-opacity="0.502"/>
<polygon points="3176.00,2600.00 3176.00,2248.00 3416.00,2248.00 3416.00,2600.00" fill="rgb(185,96,64)" fill-opacity="0.502"/>
<g transform="translate(1824.00 432.00) rotate(46) scale(208.00 128.00)"><ellipse cx="0" cy="0" rx="1" ry="1" fill="rgb(191,145,119)" fill-opacity="0.502"/></g>
<circle cx="2768.00" cy="240.00" r="368.00" fill="rgb(199,110,77)" fill-opacity="0.502"/>
<polygon points="3606.66,3373.86 3543.53,3503.29 3385.34,3426.14 3448.47,3296.71" fill="rgb(102,42,22)" fill-opacity="0.502"/>
<polygon points="1925.90,869.22 1974.64,1266.24 1514.10,1322.78 1465.36,925.76" fill="rgb(206,123,91)" fill-opacity="0.502"/>
<polygon points="2480.00,2144.00 2560.00,2144.00 2560.00,2480.00 2480.00,2480.00" fill="rgb(195,113,87)" fill-opacity="0.502"/>
<g transform="translate(4224.00 96.00) rotate(354) scale(448.00 96.00)"><ellipse cx="0" cy="0" rx="1" ry="1" fill="rgb(167,91,56)" fill-opacity="0.502"/></g>
<circle cx="5216.00" cy="2528.00" r="96.00" fill="rgb(25,2,0)" fill-opacity="0.502"/>
<polygon points="2668.04,2973.90 2824.32,2520.05 2899.96,2546.10 2743.68,2999.95" fill="rgb(58,0,0)" fill-opacity="0.502"/>
<circle cx="3760.00" cy="3264.00" r="32.00" fill="rgb(196,186,187)" fill-opacity="0.502"/>
<g transform="translate(4272.00 4416.00) rotate(3) scale(752.00 352.00)"><ellipse cx="0" cy="0" rx="1" ry="1" fill="rgb(3,0,0)" fill-opacity="0.502"/></g>
<polygon points="2208.78,828.72 1637.07,898.92 1631.22,851.28 2202.93,781.08" fill="rgb(59,24,0)" fill-opacity="0.502"/>
<g transform="translate(1648.00 4064.00) rotate(267) scale(240.00 656.00)"><ellipse cx="0" cy="0" rx="1" ry="1" fill="rgb(11,0,0)" fill-opacity="0.502"/></g>
<polygon points="6247.34,2356.34 6232.82,1940.59 6488.66,1931.66 6503.18,2347.41" fill="rgb(20,1,0)" fill-opacity="0.502"/>
<circle cx="4256.00" cy="1712.00" r="128.00" fill="rgb(28,24,65)" fill-opacity="0.502"/>
<circle cx="3680.00" cy="1728.00" r="128.00" fill="rgb(22,16,48)" fill-opacity="0.502"/>
<polygon points="4697.73,128.34 5064.33,96.27 5078.27,255.66 4711.67,287.73" fill="rgb(2,0,0)" fill-opacity="0.502"/>
<g transform="translate(4480.00 4000.00) rotate(0) scale(256.00 48.00)"><ellipse cx="0" cy="0" rx="1" ry="1" fill="rgb(42,2,4)" fill-opacity="0.502"/></g>
<polygon points="4028.97,2154.54 4034.55,2218.30 3907.03,2229.46 3901.45,2165.70" fill="rgb(169,78,45)" fill-opacity="0.502"/>
<circle cx="4592.00" cy="416.00" r="96.00" fill="rgb(109,100,162)" fill-opacity="0.502"/>
<circle cx="2128.00" cy="3392.00" r="64.00" fill="rgb(177,142,127)" fill-opacity="0.502"/>
<circle cx="6880.00" cy="2576.00" r="144.00" fill="rgb(13,0,0)" fill-opacity="0.502"/>
<polygon points="3043.63,2454.50 2991.20,2491.21 2844.37,2281.50 2896.80,2244.79" fill="rgb(149,53,22)" fill-opacity="0.502"/>
<circle cx="3648.00" cy="3088.00" r="160.00" fill="rgb(80,48,29)" fill-opacity="0.502"/>
<polygon points="5907.63,495.44 6082.32,473.99 6236.37,1728.56 6061.68,1750.01" fill="rgb(36,2,1)" fill-opacity="0.502"/>
<g transform="translate(5568.00 2656.00) rotate(193) scale(144.00 176.00)"><ellipse cx="0" cy="0" rx="1" ry="1" fill="rgb(52,24,3)" fill-opacity="0.502"/></g>
<circle cx="3536.00" cy="1344.00" r="48.00" fill="rgb(100,119,200)" fill-opacity="0.502"/>
<g transform="translate(4528.00 3312.00) rotate(162) scale(96.00 144.00)"><ellipse cx="0" cy="0" rx="1" ry="1" fill="rgb(178,118,97)" fill-opacity="0.502"/></g>
<polygon points="1674.82,3142.50 1708.09,3299.01 1301.18,3385.50 1267.91,3228.99" fill="rgb(165,126,99)" fill-opacity="0.502"/>
<polygon points="2963.74,2815.81 3625.29,3056.59 3532.26,3312.19 2870.71,3071.41" fill="rgb(101,39,15)" fill-opacity="0.502"/>
<polygon points="2183.53,-194.91 2232.03,266.55 2152.47,274.91 2103.97,-186.55" fill="rgb(105,65,51)" fill-opacity="0.502"/>
<polygon points="2655.08,1728.72 2080.67,1585.50 2192.92,1135.28 2767.33,1278.50" fill="rgb(193,102,69)" fill-opacity="0.502"/>
<g transform="translate(4256.00 1488.00) rotate(163) scale(544.00 32.00)"><ellipse cx="0" cy="0" rx="1" ry="1" fill="rgb(88,95,185)" fill-opacity="0.502"/></g>
<circle cx="5200.00" cy="4352.00" r="208.00" fill="rgb(60,29,16)" fill-opacity="0.502"/>
<circle cx="5536.00" cy="4592.00" r="176.00" fill="rgb(16,0,0)" fill-opacity="0.502"/>
<polygon points="4796.54,685.68 4957.09,1103.92 4867.46,1138.32 4706.91,720.08" fill="rgb(199,226,242)" fill-opacity="0.502"/>
<circle cx="6720.00" cy="1584.00" r="128.00" fill="rgb(81,45,27)" fill-opacity="0.502"/>
<polygon points="1426.18,2463.83 1182.36,1889.44 1373.82,1808.17 1617.64,2382.56" fill="rgb(216,130,97)" fill-opacity="0.502"/>
<circle cx="5072.00" cy="1712.00" r="320.00" fill="rgb(1,0,0)" fill-opacity="0.502"/>
<polygon points="5761.48,4160.58 5599.47,4091.81 5774.52,3679.42 5936.53,3748.19" fill="rgb(25,0,0)" fill-opacity="0.502"/>
<polygon points="6023.24,180.92 6446.01,523.27 6264.76,747.08 5841.99,404.73" fill="rgb(24,0,0)" fill-opacity="0.502"/>
<g transform="translate(5184.00 1120.00) rotate(275) scale(16.00 320.00)"><ellipse cx="0" cy="0" rx="1" ry="1" fill="rgb(11,15,43)" fill-opacity="0.502"/></g>
<polygon points="2461.52,2110.18 1953.33,2047.79 1986.48,1777.82 2494.67,1840.21" fill="rgb(203,113,82)" fill-opacity="0.502"/>
<polygon points="1076.50,3671.15 1125.60,3570.49 1499.50,3752.85 1450.40,3853.51" fill="rgb(105,46,25)" fill-opacity="0.502"/>
<circle cx="5696.00" cy="2368.00" r="112.00" fill="rgb(38,16,7)" fill-opacity="0.502"/>
<polygon points="1657.87,3387.78 2102.53,3333.18 2118.13,3460.22 1673.47,3514.82" fill="rgb(162,125,113)" fill-opacity="0.502"/>
<g transform="translate(1200.00 3440.00) rotate(211) scale(48.00 160.00)"><ellipse cx="0" cy="0" rx="1" ry="1" fill="rgb(183,133,112)" fill-opacity="0.502"/></g>
<g transform="translate(3808.00 1680.00) rotate(28) scale(224.00 64.00)"><ellipse cx="0" cy="0" rx="1" ry="1" fill="rgb(41,40,103)" fill-opacity="0.502"/></g>
<polygon points="2143.77,1060.26 1860.06,1364.51 1696.23,1211.74 1979.94,907.49" fill="rgb(204,116,82)" fill-opacity="0.502"/>
<polygon points="4053.35,1936.96 3999.05,1839.00 4922.65,1327.04 4976.95,1425.00" fill="rgb(13,7,34)" fill-opacity="0.502"/>
<polygon points="4512.00,2832.00 4512.00,2848.00 4304.00,2848.00 4304.00,2832.00" fill="rgb(228,194,162)" fill-opacity="0.502"/>
<circle cx="3856.00" cy="992.00" r="320.00" fill="rgb(234,255,237)" fill-opacity="0.502"/>
<g transform="translate(3760.00 144.00) rotate(89) scale(112.00 336.00)"><ellipse cx="0" cy="0" rx="1" ry="1" fill="rgb(168,107,78)" fill-opacity="0.502"/></g>
<g transform="translate(2336.00 192.00) rotate(353) scale(64.00 608.00)"><ellipse cx="0" cy="0" rx="1" ry="1" fill="rgb(122,48,22)" fill-opacity="0.502"/></g>
<polygon points="2420.82,3324.94 2426.40,3404.74 2107.18,3427.06 2101.60,3347.26" fill="rgb(144,111,90)" fill-opacity="0.502"/>
<polygon points="3214.07,1450.88 3062.77,1332.67 3249.93,1093.12 3401.23,1211.33" fill="rgb(162,107,79)" fill-opacity="0.502"/>
<g transform="translate(4560.00 32.00) rotate(95) scale(32.00 512.00)"><ellipse cx="0" cy="0" rx="1" ry="1" fill="rgb(143,56,26)" fill-opacity="0.502"/></g>
<polygon points="4353.05,1054.43 4302.35,1467.32 4222.95,1457.57 4273.65,1044.68" fill="rgb(175,205,247)" fill-opacity="0.502"/>
<circle cx="5552.00" cy="1376.00" r="480.00" fill="rgb(5,0,0)" fill-opacity="0.502"/>
<circle cx="6288.00" cy="3056.00" r="160.00" fill="rgb(32,8,0)" fill-opacity="0.502"/>
<polygon points="4096.00,2096.00 4336.00,2096.00 4336.00,2688.00 4096.00,2688.00" fill="rgb(48,12,0)" fill-opacity="0.502"/>
<polygon points="5694.40,3209.80 5022.69,3582.13 4929.60,3414.20 5601.31,3041.87" fill="rgb(69,31,16)" fill-opacity="0.502"/>
<polygon points="4655.53,1261.32 4914.42,1073.23 5008.47,1202.68 4749.58,1390.77" fill="rgb(69,66,129)" fill-opacity="0.502"/>
<g transform="translate(1936.00 0.00) rotate(321) scale(112.00 352.00)"><ellipse cx="0" cy="0" rx="1" ry="1" fill="rgb(210,171,151)" fill-opacity="0.502"/></g>
<polygon points="5557.39,3621.59 5652.87,3611.55 5674.61,3818.41 5579.13,3828.45" fill="rgb(78,39,21)" fill-opacity="0.502"/>
<circle cx="7760.00" cy="2320.00" r="864.00" fill="rgb(0,0,0)" fill-opacity="0.502"/>
<g transform="translate(5920.00 4144.00) rotate(116) scale(544.00 32.00)"><ellipse cx="0" cy="0" rx="1" ry="1" fill="rgb(61,27,23)" fill-opacity="0.502"/></g>
<polygon points="3982.34,2634.31 3826.44,2670.31 3761.66,2389.69 3917.56,2353.69" fill="rgb(155,73,41)" fill-opacity="0.502"/>
<polygon points="1153.88,673.71 1406.07,775.61 1358.12,894.29 1105.93,792.39" fill="rgb(217,183,156)" fill-opacity="0.502"/>
<g transform="translate(4176.00 48.00) rotate(300) scale(128.00 192.00)"><ellipse cx="0" cy="0" rx="1" ry="1" fill="rgb(166,94,62)" fill-opacity="0.502"/></g>
<polygon points="1934.32,-18.30 1921.48,349.47 1601.68,338.30 1614.52,-29.47" fill="rgb(194,145,120)" fill-opacity="0.502"/>
<polygon points="6694.29,748.55 6549.82,1567.91 6297.71,1523.45 6442.18,704.09" fill="rgb(3,0,0)" fill-opacity="0.502"/>
<circle cx="3840.00" cy="2992.00" r="32.00" fill="rgb(216,226,246)" fill-opacity="0.502"/>
<polygon points="5988.62,4635.75 5835.85,4471.93 6011.38,4308.25 6164.15,4472.07" fill="rgb(59,26,15)" fill-opacity="0.502"/>
<g transform="translate(3696.00 3968.00) rotate(205) scale(384.00 208.00)"><ellipse cx="0" cy="0" rx="1" ry="1" fill="rgb(15,0,0)" fill-opacity="0.502"/></g>
<g transform="translate(2448.00 2576.00) rotate(242) scale(352.00 144.00)"><ellipse cx="0" cy="0" rx="1" ry="1" fill="rgb(197,106,77)" fill-opacity="0.502"/></g>
<polygon points="4566.37,1644.97 5011.03,1590.37 5065.63,2035.03 4620.97,2089.63" fill="rgb(4,0,0)" fill-opacity="0.502"/>
<polygon points="5862.00,2222.20 5576.33,2118.22 5642.00,1937.80 5927.67,2041.78" fill="rgb(19,0,0)" fill-opacity="0.502"/>
<g transform="translate(4368.00 976.00) rotate(93) scale(464.00 64.00)"><ellipse cx="0" cy="0" rx="1" ry="1" fill="rgb(139,152,214)" fill-opacity="0.502"/></g>
<polygon points="2849.69,2652.10 2715.25,2703.71 2606.31,2419.90 2740.75,2368.29" fill="rgb(57,0,0)" fill-opacity="0.502"/>
<circle cx="2704.00" cy="0.00" r="304.00" fill="rgb(201,110,75)" fill-opacity="0.502"/>
<circle cx="6672.00" cy="1456.00" r="112.00" fill="rgb(33,7,0)" fill-opacity="0.502"/>
<g transform="translate(3536.00 512.00) rotate(112) scale(48.00 32.00)"><ellipse cx="0" cy="0" rx="1" ry="1" fill="rgb(255,255,255)" fill-opacity="0.502"/></g>
<circle cx="1904.00" cy="3328.00" r="64.00" fill="rgb(91,62,42)" fill-opacity="0.502"/>
<polygon points="2133.32,2778.13 1883.89,2720.54 1930.68,2517.87 2180.11,2575.46" fill="rgb(199,105,71)" fill-opacity="0.502"/>
<circle cx="2080.00" cy="3424.00" r="16.00" fill="rgb(0,0,0)" fill-opacity="0.502"/>
<polygon points="4675.97,2987.60 4682.94,3067.30 4396.03,3092.40 4389.06,3012.70" fill="rgb(180,131,107)" fill-opacity="0.502"/>
<g transform="translate(7600.00 992.00) rotate(89) scale(7728.00 624.00)"><ellipse cx="0" cy="0" rx="1" ry="1" fill="rgb(0,0,0)" fill-opacity="0.502"/></g>
<polygon points="5472.48,2040.53 5484.19,2151.92 4879.52,2215.47 4867.81,2104.08" fill="rgb(31,0,0)" fill-opacity="0.502"/>
<circle cx="4912.00" cy="2960.00" r="64.00" fill="rgb(160,100,81)" fill-opacity="0.502"/>
<g transform="translate(4336.00 304.00) rotate(189) scale(176.00 48.00)"><ellipse cx="0" cy="0" rx="1" ry="1" fill="rgb(37,36,99)" fill-opacity="0.502"/></g>
<circle cx="3456.00" cy="1824.00" r="112.00" fill="rgb(149,75,44)" fill-opacity="0.502"/>
<polygon points="2853.04,587.58 2918.84,323.66 3306.96,420.42 3241.16,684.34" fill="rgb(186,110,79)" fill-opacity="0.502"/>
<circle cx="4048.00" cy="1248.00" r="240.00" fill="rgb(231,254,240)" fill-opacity="0.502"/>
<g transform="translate(3472.00 688.00) rotate(97) scale(64.00 48.00)"><ellipse cx="0" cy="0" rx="1" ry="1" fill="rgb(98,102,153)" fill-opacity="0.502"/></g>
<g transform="translate(1248.00 2736.00) rotate(227) scale(48.00 192.00)"><ellipse cx="0" cy="0" rx="1" ry="1" fill="rgb(193,110,86)" fill-opacity="0.502"/></g>
<g transform="translate(7152.00 4528.00) rotate(273) scale(272.00 496.00)"><ellipse cx="0" cy="0" rx="1" ry="1" fill="rgb(0,0,0)" fill-opacity="0.502"/></g>
<g transform="translate(3424.00 3664.00) rotate(114) scale(32.00 48.00)"><ellipse cx="0" cy="0" rx="1" ry="1" fill="rgb(249,175,155)" fill-opacity="0.502"/></g>
<g transform="translate(672.00 4272.00) rotate(91) scale(752.00 496.00)"><ellipse cx="0" cy="0" rx="1" ry="1" fill="rgb(0,0,0)" fill-opacity="0.502"/></g>
<polygon points="2544.00,3424.00 3392.00,3424.00 3392.00,3632.00 2544.00,3632.00" fill="rgb(111,36,6)" fill-opacity="0.502"/>
<polygon points="1645.03,3617.60 1581.11,3614.25 1586.97,3502.40 1650.89,3505.75" fill="rgb(136,82,86)" fill-opacity="0.502"/>
<polygon points="6668.48,2883.74 6517.44,2697.23 6691.52,2556.26 6842.56,2742.77" fill="rgb(53,23,6)" fill-opacity="0.502"/>
<circle cx="1232.00" cy="784.00" r="112.00" fill="rgb(213,173,142)" fill-opacity="0.502"/>
<polygon points="6071.63,3948.28 6102.82,4202.37 5896.37,4227.72 5865.18,3973.63" fill="rgb(69,35,20)" fill-opacity="0.502"/>
<circle cx="688.00" cy="1152.00" r="400.00" fill="rgb(0,0,0)" fill-opacity="0.502"/>
</g>
</svg>