<?xml version="1.0" standalone="no"?>
<svg xmlns="http://www.w3.org/2000/svg" width="8192" height="4608" viewBox="0 0 8192 4608" style="overflow:hidden">
<defs>
<clipPath id="c"><rect x="0" y="0" width="8192" height="4608"/></clipPath>
</defs>
<rect width="8192" height="4608" fill="rgb(18,11,16)"/>
<g clip-path="url(#c)">
<circle cx="6576.00" cy="1168.00" r="832.00" fill="rgb(0,141,255)" fill-opacity="0.502"/>
<circle cx="4208.00" cy="2832.00" r="752.00" fill="rgb(226,74,44)" fill-opacity="0.502"/>
<circle cx="7600.00" cy="1072.00" r="608.00" fill="rgb(0,0,0)" fill-opacity="0.502"/>
<circle cx="3728.00" cy="1088.00" r="560.00" fill="rgb(255,91,53)" fill-opacity="0.502"/>
<circle cx="6448.00" cy="224.00" r="416.00" fill="rgb(0,199,255)" fill-opacity="0.502"/>
<circle cx="6672.00" cy="1808.00" r="512.00" fill="rgb(0,151,255)" fill-opacity="0.502"/>
<circle cx="5536.00" cy="1312.00" r="704.00" fill="rgb(0,0,0)" fill-opacity="0.502"/>
<polygon points="7226.68,2472.13 6931.46,2663.85 6661.32,2247.87 6956.54,2056.15" fill="rgb(0,190,255)" fill-opacity="0.502"/>
<circle cx="1168.00" cy="2016.00" r="2192.00" fill="rgb(0,0,0)" fill-opacity="0.502"/>
<polygon points="5185.04,2528.86 4568.60,2753.23 4398.96,2287.14 5015.40,2062.77" fill="rgb(166,42,23)" fill-opacity="0.502"/>
<circle cx="7392.00" cy="544.00" r="480.00" fill="rgb(0,0,0)" fill-opacity="0.502"/>
<polygon points="1180.13,4638.34 1080.01,4006.22 1411.87,3953.66 1511.99,4585.78" fill="rgb(213,97,79)" fill-opacity="0.502"/>
<circle cx="7232.00" cy="3888.00" r="1280.00" fill="rgb(0,0,0)" fill-opacity="0.502"/>
<circle cx="6592.00" cy="1200.00" r="480.00" fill="rgb(0,169,255)" fill-opacity="0.502"/>
<circle cx="6432.00" cy="2208.00" r="176.00" fill="rgb(0,0,0)" fill-opacity="0.502"/>
<circle cx="6416.00" cy="80.00" r="416.00" fill="rgb(0,128,255)" fill-opacity="0.502"/>
<g transform="translate(5696.00 656.00) rotate(84) scale(3488.00 432.00)"><ellipse cx="0" cy="0" rx="1" ry="1" fill="rgb(0,0,0)" fill-opacity="0.502"/></g>
<polygon points="6639.12,-403.19 7041.42,912.68 6352.88,1123.19 5950.58,-192.68" fill="rgb(3,113,255)" fill-opacity="0.502"/>
<circle cx="5648.00" cy="704.00" r="560.00" fill="rgb(0,0,0)" fill-opacity="0.502"/>
<g transform="translate(5008.00 3248.00) rotate(207) scale(320.00 2432.00)"><ellipse cx="0" cy="0" rx="1" ry="1" fill="rgb(7,0,0)" fill-opacity="0.502"/></g>
<polygon points="1101.80,3558.86 3473.03,2552.33 4098.20,4025.14 1726.97,5031.67" fill="rgb(11,0,0)" fill-opacity="0.502"/>
<circle cx="4320.00" cy="1056.00" r="416.00" fill="rgb(124,23,6)" fill-opacity="0.502"/>
<polygon points="7088.00,2576.00 7088.00,1360.00 8048.00,1360.00 8048.00,2576.00" fill="rgb(0,0,0)" fill-opacity="0.502"/>
<polygon points="1365.69,4583.42 1158.20,4597.93 1082.31,3512.58 1289.80,3498.07" fill="rgb(139,64,60)" fill-opacity="0.502"/>
<circle cx="3424.00" cy="1392.00" r="240.00" fill="rgb(226,85,59)" fill-opacity="0.502"/>
<circle cx="3696.00" cy="2352.00" r="272.00" fill="rgb(207,70,50)" fill-opacity="0.502"/>
<g transform="translate(4112.00 3024.00) rotate(32) scale(192.00 160.00)"><ellipse cx="0" cy="0" rx="1" ry="1" fill="rgb(255,190,137)" fill-opacity="0.502"/></g>
<g transform="translate(4016.00 4384.00) rotate(104) scale(656.00 1632.00)"><ellipse cx="0" cy="0" rx="1" ry="1" fill="rgb(4,0,0)" fill-opacity="0.502"/></g>
<g transform="translate(4192.00 144.00) rotate(281) scale(672.00 2016.00)"><ellipse cx="0" cy="0" rx="1" ry="1" fill="rgb(6,0,0)" fill-opacity="0.502"/></g>
<polygon points="8246.41,2012.72 7146.61,2108.94 7001.59,451.28 8101.39,355.06" fill="rgb(0,0,0)" fill-opacity="0.502"/>
<circle cx="336.00" cy="4160.00" r="768.00" fill="rgb(0,0,0)" fill-opacity="0.502"/>
<polygon points="4234.27,2459.77 4405.57,2269.52 4821.73,2644.23 4650.43,2834.48" fill="rgb(194,78,58)" fill-opacity="0.502"/>
<circle cx="3728.00" cy="1280.00" r="288.00" fill="rgb(220,98,73)" fill-opacity="0.502"/>
<g transform="translate(4272.00 3600.00) rotate(360) scale(288.00 160.00)"><ellipse cx="0" cy="0" rx="1" ry="1" fill="rgb(218,75,48)" fill-opacity="0.502"/></g>
<polygon points="4410.91,2167.77 3515.04,2152.14 3525.09,1576.23 4420.96,1591.86" fill="rgb(0,0,0)" fill-opacity="0.502"/>
<g transform="translate(7760.00 2544.00) rotate(244) scale(624.00 688.00)"><ellipse cx="0" cy="0" rx="1" ry="1" fill="rgb(0,0,0)" fill-opacity="0.502"/></g>
<circle cx="4656.00" cy="1744.00" r="416.00" fill="rgb(0,0,0)" fill-opacity="0.502"/>
<polygon points="3900.93,1801.11 4069.24,1749.65 4275.07,2422.89 4106.76,2474.35" fill="rgb(0,1,0)" fill-opacity="0.502"/>
<circle cx="6432.00" cy="1104.00" r="304.00" fill="rgb(6,136,255)" fill-opacity="0.502"/>
<circle cx="5888.00" cy="2992.00" r="1040.00" fill="rgb(5,0,0)" fill-opacity="0.502"/>
<circle cx="6480.00" cy="1840.00" r="240.00" fill="rgb(0,136,255)" fill-opacity="0.502"/>
<g transform="translate(7504.00 80.00) rotate(202) scale(768.00 496.00)"><ellipse cx="0" cy="0" rx="1" ry="1" fill="rgb(0,0,0)" fill-opacity="0.502"/></g>
<g transform="translate(7584.00 1504.00) rotate(338) scale(336.00 1792.00)"><ellipse cx="0" cy="0" rx="1" ry="1" fill="rgb(0,0,0)" fill-opacity="0.502"/></g>
<g transform="translate(4032.00 1232.00) rotate(239) scale(400.00 240.00)"><ellipse cx="0" cy="0" rx="1" ry="1" fill="rgb(156,64,46)" fill-opacity="0.502"/></g>
<circle cx="4000.00" cy="3216.00" r="240.00" fill="rgb(229,72,52)" fill-opacity="0.502"/>
<polygon points="4992.59,2958.50 4657.81,2849.73 4959.41,1921.50 5294.19,2030.27" fill="rgb(90,13,3)" fill-opacity="0.502"/>
<circle cx="4224.00" cy="1984.00" r="224.00" fill="rgb(0,0,0)" fill-opacity="0.502"/>
<g transform="translate(5712.00 1616.00) rotate(323) scale(416.00 576.00)"><ellipse cx="0" cy="0" rx="1" ry="1" fill="rgb(1,0,0)" fill-opacity="0.502"/></g>
<circle cx="4992.00" cy="3776.00" r="144.00" fill="rgb(180,65,45)" fill-opacity="0.502"/>
<polygon points="4693.07,1124.59 4393.83,1413.56 3626.93,619.41 3926.17,330.44" fill="rgb(108,20,10)" fill-opacity="0.502"/>
<polygon points="3928.69,2203.52 3813.60,2314.67 3591.31,2084.48 3706.40,1973.33" fill="rgb(210,68,50)" fill-opacity="0.502"/>
<circle cx="912.00" cy="1360.00" r="2288.00" fill="rgb(3,0,0)" fill-opacity="0.502"/>
<polygon points="6572.37,1576.91 6427.89,757.55 6963.63,663.09 7108.11,1482.45" fill="rgb(0,137,255)" fill-opacity="0.502"/>
<circle cx="7728.00" cy="3760.00" r="1232.00" fill="rgb(0,0,0)" fill-opacity="0.502"/>
<g transform="translate(6704.00 1456.00) rotate(253) scale(544.00 368.00)"><ellipse cx="0" cy="0" rx="1" ry="1" fill="rgb(0,136,255)" fill-opacity="0.502"/></g>
<circle cx="3408.00" cy="752.00" r="240.00" fill="rgb(132,32,18)" fill-opacity="0.502"/>
<polygon points="6912.00,2640.00 6912.00,2032.00 7072.00,2032.00 7072.00,2640.00" fill="rgb(0,149,255)" fill-opacity="0.502"/>
<circle cx="2400.00" cy="3296.00" r="1264.00" fill="rgb(17,0,0)" fill-opacity="0.502"/>
<g transform="translate(5744.00 3920.00) rotate(320) scale(80.00 448.00)"><ellipse cx="0" cy="0" rx="1" ry="1" fill="rgb(108,60,52)" fill-opacity="0.502"/></g>
<g transform="translate(6496.00 1440.00) rotate(102) scale(656.00 272.00)"><ellipse cx="0" cy="0" rx="1" ry="1" fill="rgb(6,127,255)" fill-opacity="0.502"/></g>
<polygon points="3371.92,1375.10 3413.21,784.54 3876.08,816.90 3834.79,1407.46" fill="rgb(190,77,55)" fill-opacity="0.502"/>
<circle cx="8096.00" cy="880.00" r="1024.00" fill="rgb(0,0,0)" fill-opacity="0.502"/>
<circle cx="3056.00" cy="176.00" r="480.00" fill="rgb(0,0,0)" fill-opacity="0.502"/>
<polygon points="3596.35,2634.24 3438.16,2557.09 3683.65,2053.76 3841.84,2130.91" fill="rgb(197,75,53)" fill-opacity="0.502"/>
<polygon points="6144.54,801.16 6122.94,707.62 6559.46,606.84 6581.06,700.38" fill="rgb(1,0,0)" fill-opacity="0.502"/>
<circle cx="3456.00" cy="2192.00" r="128.00" fill="rgb(0,0,0)" fill-opacity="0.502"/>
<g transform="translate(3648.00 3536.00) rotate(137) scale(224.00 1824.00)"><ellipse cx="0" cy="0" rx="1" ry="1" fill="rgb(3,0,0)" fill-opacity="0.502"/></g>
<circle cx="6704.00" cy="368.00" r="192.00" fill="rgb(0,128,255)" fill-opacity="0.502"/>
<polygon points="4011.13,2442.95 4046.20,2514.85 3844.87,2613.05 3809.80,2541.15" fill="rgb(0,0,0)" fill-opacity="0.502"/>
<polygon points="4719.62,1144.37 4071.58,869.29 4240.38,471.63 4888.42,746.71" fill="rgb(51,3,0)" fill-opacity="0.502"/>
<g transform="translate(5776.00 1200.00) rotate(305) scale(256.00 496.00)"><ellipse cx="0" cy="0" rx="1" ry="1" fill="rgb(8,0,0)" fill-opacity="0.502"/></g>
<polygon points="4532.39,743.71 4606.29,-101.07 5307.61,-39.71 5233.71,805.07" fill="rgb(1,0,0)" fill-opacity="0.502"/>
<g transform="translate(1888.00 2768.00) rotate(176) scale(688.00 2368.00)"><ellipse cx="0" cy="0" rx="1" ry="1" fill="rgb(17,0,0)" fill-opacity="0.502"/></g>
<circle cx="480.00" cy="4128.00" r="624.00" fill="rgb(0,0,0)" fill-opacity="0.502"/>
<g transform="translate(4768.00 1760.00) rotate(96) scale(304.00 416.00)"><ellipse cx="0" cy="0" rx="1" ry="1" fill="rgb(1,0,0)" fill-opacity="0.502"/></g>
<g transform="translate(5376.00 3632.00) rotate(271) scale(144.00 544.00)"><ellipse cx="0" cy="0" rx="1" ry="1" fill="rgb(0,0,0)" fill-opacity="0.502"/></g>
<polygon points="3642.77,418.78 4027.44,678.25 3893.23,877.22 3508.56,617.75" fill="rgb(119,31,21)" fill-opacity="0.502"/>
<circle cx="6832.00" cy="2384.00" r="112.00" fill="rgb(13,141,255)" fill-opacity="0.502"/>
<g transform="translate(4016.00 4336.00) rotate(77) scale(576.00 1136.00)"><ellipse cx="0" cy="0" rx="1" ry="1" fill="rgb(8,0,0)" fill-opacity="0.502"/></g>
<polygon points="3019.61,2032.15 3200.91,1605.04 3716.39,1823.85 3535.09,2250.96" fill="rgb(0,0,0)" fill-opacity="0.502"/>
<polygon points="6743.78,2693.98 5517.08,3618.37 4968.22,2890.02 6194.92,1965.63" fill="rgb(0,0,0)" fill-opacity="0.502"/>
<circle cx="4000.00" cy="0.00" r="480.00" fill="rgb(0,0,0)" fill-opacity="0.502"/>
<g transform="translate(4544.00 3216.00) rotate(0) scale(176.00 464.00)"><ellipse cx="0" cy="0" rx="1" ry="1" fill="rgb(98,21,7)" fill-opacity="0.502"/></g>
<g transform="translate(3376.00 2944.00) rotate(324) scale(224.00 432.00)"><ellipse cx="0" cy="0" rx="1" ry="1" fill="rgb(1,0,0)" fill-opacity="0.502"/></g>
<polygon points="5988.66,4988.85 5152.92,3956.80 5451.34,3715.15 6287.08,4747.20" fill="rgb(6,0,0)" fill-opacity="0.502"/>
<g transform="translate(4208.00 2720.00) rotate(26) scale(480.00 64.00)"><ellipse cx="0" cy="0" rx="1" ry="1" fill="rgb(25,0,0)" fill-opacity="0.502"/></g>
<polygon points="6856.00,2040.00 6856.00,1960.00 7048.00,1960.00 7048.00,2040.00" fill="rgb(0,0,46)" fill-opacity="0.502"/>
<polygon points="6929.45,602.35 6345.01,769.93 6318.55,677.65 6902.99,510.07" fill="rgb(0,0,40)" fill-opacity="0.502"/>
<g transform="translate(6528.00 352.00) rotate(40) scale(240.00 352.00)"><ellipse cx="0" cy="0" rx="1" ry="1" fill="rgb(0,129,255)" fill-opacity="0.502"/></g>
<polygon points="7049.87,1911.70 7222.64,1878.12 7366.13,2616.30 7193.36,2649.88" fill="rgb(0,0,0)" fill-opacity="0.502"/>
<circle cx="4160.00" cy="3072.00" r="192.00" fill="rgb(244,122,87)" fill-opacity="0.502"/>
<circle cx="5136.00" cy="1120.00" r="448.00" fill="rgb(7,0,0)" fill-opacity="0.502"/>
<g transform="translate(1424.00 4432.00) rotate(73) scale(1072.00 64.00)"><ellipse cx="0" cy="0" rx="1" ry="1" fill="rgb(116,60,59)" fill-opacity="0.502"/></g>
<polygon points="4395.64,1083.01 4507.64,1276.99 4244.36,1428.99 4132.36,1235.01" fill="rgb(142,50,31)" fill-opacity="0.502"/>
<polygon points="6930.79,4644.04 5993.82,4528.99 6173.21,3067.96 7110.18,3183.01" fill="rgb(11,1,0)" fill-opacity="0.502"/>
<circle cx="3344.00" cy="1520.00" r="128.00" fill="rgb(161,46,31)" fill-opacity="0.502"/>
<g transform="translate(0.00 2320.00) rotate(182) scale(1200.00 4592.00)"><ellipse cx="0" cy="0" rx="1" ry="1" fill="rgb(0,0,0)" fill-opacity="0.502"/></g>
<g transform="translate(3888.00 2800.00) rotate(260) scale(64.00 224.00)"><ellipse cx="0" cy="0" rx="1" ry="1" fill="rgb(191,82,65)" fill-opacity="0.502"/></g>
<polygon points="6624.00,2096.00 7072.00,2096.00 7072.00,2208.00 6624.00,2208.00" fill="rgb(9,118,255)" fill-opacity="0.502"/>
<circle cx="3872.00" cy="1728.00" r="176.00" fill="rgb(0,0,0)" fill-opacity="0.502"/>
<g transform="translate(5888.00 848.00) rotate(180) scale(272.00 848.00)"><ellipse cx="0" cy="0" rx="1" ry="1" fill="rgb(3,0,0)" fill-opacity="0.502"/></g>
<circle cx="8128.00" cy="3472.00" r="1280.00" fill="rgb(0,0,0)" fill-opacity="0.502"/>
<circle cx="4160.00" cy="2224.00" r="48.00" fill="rgb(211,188,169)" fill-opacity="0.502"/>
<polygon points="6802.14,1170.79 6868.40,923.51 7053.86,973.21 6987.60,1220.49" fill="rgb(3,129,255)" fill-opacity="0.502"/>
<g transform="translate(6048.00 1872.00) rotate(106) scale(496.00 96.00)"><ellipse cx="0" cy="0" rx="1" ry="1" fill="rgb(5,0,0)" fill-opacity="0.502"/></g>
<circle cx="6640.00" cy="1584.00" r="400.00" fill="rgb(0,135,255)" fill-opacity="0.502"/>
<polygon points="1367.75,4285.36 1482.43,4584.10 1288.25,4658.64 1173.57,4359.90" fill="rgb(174,81,67)" fill-opacity="0.502"/>
<polygon points="4422.22,3738.54 4569.18,3569.48 4665.78,3653.46 4518.82,3822.52" fill="rgb(33,9,0)" fill-opacity="0.502"/>
<polygon points="3887.21,2994.82 3915.28,2903.01 4144.79,2973.18 4116.72,3064.99" fill="rgb(255,176,137)" fill-opacity="0.502"/>
<polygon points="4209.68,1579.64 4177.56,1615.31 4094.32,1540.36 4126.44,1504.69" fill="rgb(206,211,207)" fill-opacity="0.502"/>
<polygon points="6175.45,868.91 6271.08,860.55 6304.55,1243.09 6208.92,1251.45" fill="rgb(15,123,255)" fill-opacity="0.502"/>
<g transform="translate(3856.00 32.00) rotate(52) scale(368.00 528.00)"><ellipse cx="0" cy="0" rx="1" ry="1" fill="rgb(5,0,0)" fill-opacity="0.502"/></g>
<circle cx="3968.00" cy="2144.00" r="96.00" fill="rgb(0,0,0)" fill-opacity="0.502"/>
<g transform="translate(1024.00 4384.00) rotate(70) scale(416.00 112.00)"><ellipse cx="0" cy="0" rx="1" ry="1" fill="rgb(4,0,0)" fill-opacity="0.502"/></g>
<polygon points="7055.57,2693.84 6993.47,2678.36 7024.43,2554.16 7086.53,2569.64" fill="rgb(11,182,255)" fill-opacity="0.502"/>
<polygon points="5456.01,3493.16 5667.46,3754.28 5567.99,3834.84 5356.54,3573.72" fill="rgb(48,32,29)" fill-opacity="0.502"/>
<polygon points="4217.52,3371.04 4350.89,3232.93 4454.48,3332.96 4321.11,3471.07" fill="rgb(42,0,0)" fill-opacity="0.502"/>
<circle cx="4800.00" cy="1184.00" r="128.00" fill="rgb(54,2,0)" fill-opacity="0.502"/>
<circle cx="3728.00" cy="1360.00" r="160.00" fill="rgb(206,97,72)" fill-opacity="0.502"/>
<circle cx="2096.00" cy="464.00" r="1072.00" fill="rgb(6,0,0)" fill-opacity="0.502"/>
<g transform="translate(3840.00 3104.00) rotate(336) scale(128.00 160.00)"><ellipse cx="0" cy="0" rx="1" ry="1" fill="rgb(139,27,14)" fill-opacity="0.502"/></g>
<circle cx="5024.00" cy="3840.00" r="96.00" fill="rgb(204,76,51)" fill-opacity="0.502"/>
<circle cx="4688.00" cy="112.00" r="512.00" fill="rgb(5,0,0)" fill-opacity="0.502"/>
<polygon points="4118.19,3085.34 4144.80,2960.13 4457.81,3026.66 4431.20,3151.87" fill="rgb(206,90,59)" fill-opacity="0.502"/>
<polygon points="3901.49,3388.29 4004.70,3657.17 3810.51,3731.71 3707.30,3462.83" fill="rgb(16,7,26)" fill-opacity="0.502"/>
<circle cx="6464.00" cy="2144.00" r="112.00" fill="rgb(0,0,0)" fill-opacity="0.502"/>
<polygon points="6966.15,1903.60 7011.22,1818.84 7081.85,1856.40 7036.78,1941.16" fill="rgb(7,141,255)" fill-opacity="0.502"/>
<circle cx="4864.00" cy="4144.00" r="272.00" fill="rgb(10,3,0)" fill-opacity="0.502"/>
<polygon points="3979.09,2731.60 3531.70,2708.16 3540.91,2532.40 3988.30,2555.84" fill="rgb(127,37,20)" fill-opacity="0.502"/>
<polygon points="6002.29,3640.94 6411.56,3458.72 6541.71,3751.06 6132.44,3933.28" fill="rgb(19,14,13)" fill-opacity="0.502"/>
<polygon points="7087.69,1399.82 7308.29,1360.93 7408.31,1928.18 7187.71,1967.07" fill="rgb(0,0,0)" fill-opacity="0.502"/>
<circle cx="2400.00" cy="4096.00" r="928.00" fill="rgb(15,0,0)" fill-opacity="0.502"/>
<circle cx="5568.00" cy="1488.00" r="624.00" fill="rgb(4,0,0)" fill-opacity="0.502"/>
<circle cx="3248.00" cy="912.00" r="112.00" fill="rgb(108,31,13)" fill-opacity="0.502"/>
<g transform="translate(320.00 1264.00) rotate(0) scale(800.00 4560.00)"><ellipse cx="0" cy="0" rx="1" ry="1" fill="rgb(0,0,0)" fill-opacity="0.502"/></g>
<g transform="translate(4720.00 2768.00) rotate(71) scale(288.00 160.00)"><ellipse cx="0" cy="0" rx="1" ry="1" fill="rgb(144,46,28)" fill-opacity="0.502"/></g>
<polygon points="4142.77,3611.99 4434.60,3415.16 4497.23,3508.01 4205.40,3704.84" fill="rgb(199,78,61)" fill-opacity="0.502"/>
<polygon points="4771.31,2811.07 4870.28,2523.63 5036.69,2580.93 4937.72,2868.37" fill="rgb(87,21,14)" fill-opacity="0.502"/>
<g transform="translate(4352.00 2032.00) rotate(71) scale(128.00 432.00)"><ellipse cx="0" cy="0" rx="1" ry="1" fill="rgb(0,0,0)" fill-opacity="0.502"/></g>
<g transform="translate(3264.00 2256.00) rotate(121) scale(752.00 208.00)"><ellipse cx="0" cy="0" rx="1" ry="1" fill="rgb(3,0,0)" fill-opacity="0.502"/></g>
<polygon points="6846.65,348.89 6915.68,-142.29 7153.35,-108.89 7084.32,382.29" fill="rgb(0,9,51)" fill-opacity="0.502"/>
<circle cx="1840.00" cy="1696.00" r="496.00" fill="rgb(15,0,0)" fill-opacity="0.502"/>
<circle cx="4112.00" cy="560.00" r="144.00" fill="rgb(67,7,0)" fill-opacity="0.502"/>
<circle cx="7808.00" cy="2384.00" r="720.00" fill="rgb(0,0,0)" fill-opacity="0.502"/>
<polygon points="3670.44,565.06 3299.03,815.58 3209.56,682.94 3580.97,432.42" fill="rgb(83,16,15)" fill-opacity="0.502"/>
<polygon points="5899.22,1150.72 5940.78,1174.72 5860.78,1313.28 5819.22,1289.28" fill="rgb(128,49,60)" fill-opacity="0.502"/>
<circle cx="4384.00" cy="2800.00" r="144.00" fill="rgb(23,0,0)" fill-opacity="0.502"/>
<polygon points="6689.92,30.43 6433.94,492.23 6126.08,321.57 6382.06,-140.23" fill="rgb(0,128,255)" fill-opacity="0.502"/>
<polygon points="6481.53,2034.55 6811.91,2506.38 6510.47,2717.45 6180.09,2245.62" fill="rgb(0,0,0)" fill-opacity="0.502"/>
<circle cx="2816.00" cy="1872.00" r="528.00" fill="rgb(6,0,0)" fill-opacity="0.502"/>
<g transform="translate(5248.00 3456.00) rotate(161) scale(688.00 160.00)"><ellipse cx="0" cy="0" rx="1" ry="1" fill="rgb(0,0,0)" fill-opacity="0.502"/></g>
<polygon points="6439.70,678.79 6200.29,695.53 6152.30,9.21 6391.71,-7.53" fill="rgb(6,121,255)" fill-opacity="0.502"/>
<polygon points="6544.35,1123.83 6629.83,684.06 6959.65,748.17 6874.17,1187.94" fill="rgb(0,138,255)" fill-opacity="0.502"/>
<circle cx="4384.00" cy="2224.00" r="80.00" fill="rgb(189,144,142)" fill-opacity="0.502"/>
<g transform="translate(5648.00 192.00) rotate(206) scale(496.00 272.00)"><ellipse cx="0" cy="0" rx="1" ry="1" fill="rgb(0,0,0)" fill-opacity="0.502"/></g>
<circle cx="2240.00" cy="3056.00" r="464.00" fill="rgb(18,0,0)" fill-opacity="0.502"/>
<circle cx="3936.00" cy="3888.00" r="176.00" fill="rgb(15,12,23)" fill-opacity="0.502"/>
<polygon points="1092.36,3315.66 1220.19,3308.96 1243.64,3756.34 1115.81,3763.04" fill="rgb(61,32,52)" fill-opacity="0.502"/>
<g transform="translate(6880.00 1248.00) rotate(356) scale(192.00 608.00)"><ellipse cx="0" cy="0" rx="1" ry="1" fill="rgb(2,133,255)" fill-opacity="0.502"/></g>
<g transform="translate(3152.00 16.00) rotate(326) scale(320.00 464.00)"><ellipse cx="0" cy="0" rx="1" ry="1" fill="rgb(0,0,0)" fill-opacity="0.502"/></g>
<polygon points="4570.35,2621.12 4299.84,2592.69 4341.65,2194.88 4612.16,2223.31" fill="rgb(184,72,52)" fill-opacity="0.502"/>
<circle cx="4320.00" cy="1728.00" r="208.00" fill="rgb(9,0,0)" fill-opacity="0.502"/>
<polygon points="6653.19,2786.47 6179.85,3801.53 5570.81,3517.53 6044.15,2502.47" fill="rgb(5,0,0)" fill-opacity="0.502"/>
<circle cx="3216.00" cy="3440.00" r="512.00" fill="rgb(7,0,0)" fill-opacity="0.502"/>
<circle cx="3856.00" cy="2224.00" r="96.00" fill="rgb(123,31,23)" fill-opacity="0.502"/>
<circle cx="7968.00" cy="304.00" r="944.00" fill="rgb(0,0,0)" fill-opacity="0.502"/>
<g transform="translate(1600.00 448.00) rotate(67) scale(560.00 448.00)"><ellipse cx="0" cy="0" rx="1" ry="1" fill="rgb(10,0,0)" fill-opacity="0.502"/></g>
<g transform="translate(2752.00 4160.00) rotate(78) scale(1408.00 272.00)"><ellipse cx="0" cy="0" rx="1" ry="1" fill="rgb(17,0,0)" fill-opacity="0.502"/></g>
<circle cx="7520.00" cy="1664.00" r="432.00" fill="rgb(0,0,0)" fill-opacity="0.502"/>
<polygon points="3639.59,3478.82 4186.68,4600.51 3496.41,4937.18 2949.32,3815.49" fill="rgb(8,0,0)" fill-opacity="0.502"/>
<circle cx="6016.00" cy="16.00" r="48.00" fill="rgb(42,154,255)" fill-opacity="0.502"/>
<circle cx="6160.00" cy="1888.00" r="64.00" fill="rgb(12,0,0)" fill-opacity="0.502"/>
<g transform="translate(5472.00 1904.00) rotate(17) scale(256.00 416.00)"><ellipse cx="0" cy="0" rx="1" ry="1" fill="rgb(5,0,0)" fill-opacity="0.502"/></g>
<g transform="translate(6368.00 1296.00) rotate(78) scale(512.00 144.00)"><ellipse cx="0" cy="0" rx="1" ry="1" fill="rgb(2,123,252)" fill-opacity="0.502"/></g>
<circle cx="3584.00" cy="1040.00" r="192.00" fill="rgb(177,70,49)" fill-opacity="0.502"/>
<circle cx="3200.00" cy="3200.00" r="464.00" fill="rgb(9,0,0)" fill-opacity="0.502"/>
<circle cx="4800.00" cy="3344.00" r="128.00" fill="rgb(18,0,0)" fill-opacity="0.502"/>
<circle cx="6864.00" cy="1776.00" r="192.00" fill="rgb(0,139,255)" fill-opacity="0.502"/>
<polygon points="5008.00,4384.00 5920.00,4384.00 5920.00,4592.00 5008.00,4592.00" fill="rgb(23,8,0)" fill-opacity="0.502"/>
<polygon points="4376.76,3150.16 4160.78,3407.55 4087.24,3345.84 4303.22,3088.45" fill="rgb(167,42,34)" fill-opacity="0.502"/>
<polygon points="5392.73,578.20 6157.80,511.26 6191.27,893.80 5426.20,960.74" fill="rgb(0,0,0)" fill-opacity="0.502"/>
<circle cx="5216.00" cy="1984.00" r="112.00" fill="rgb(52,3,0)" fill-opacity="0.502"/>
<circle cx="6944.00" cy="2400.00" r="144.00" fill="rgb(0,135,255)" fill-opacity="0.502"/>
<circle cx="4192.00" cy="2368.00" r="80.00" fill="rgb(0,0,0)" fill-opacity="0.502"/>
<circle cx="6624.00" cy="3920.00" r="400.00" fill="rgb(5,0,0)" fill-opacity="0.502"/>
<g transform="translate(5104.00 3872.00) rotate(140) scale(128.00 48.00)"><ellipse cx="0" cy="0" rx="1" ry="1" fill="rgb(167,59,33)" fill-opacity="0.502"/></g>
<polygon points="4818.99,3867.32 5178.95,3943.83 5149.01,4084.68 4789.05,4008.17" fill="rgb(28,10,4)" fill-opacity="0.502"/>
<polygon points="7100.63,1722.39 7676.28,1702.29 7715.37,2821.61 7139.72,2841.71" fill="rgb(0,0,0)" fill-opacity="0.502"/>
<g transform="translate(4448.00 624.00) rotate(209) scale(416.00 144.00)"><ellipse cx="0" cy="0" rx="1" ry="1" fill="rgb(35,4,0)" fill-opacity="0.502"/></g>
<polygon points="4626.66,2545.88 4800.95,2814.26 4653.34,2910.12 4479.05,2641.74" fill="rgb(166,63,42)" fill-opacity="0.502"/>
<g transform="translate(4720.00 224.00) rotate(150) scale(416.00 336.00)"><ellipse cx="0" cy="0" rx="1" ry="1" fill="rgb(5,0,0)" fill-opacity="0.502"/></g>
<circle cx="4736.00" cy="1520.00" r="240.00" fill="rgb(7,0,0)" fill-opacity="0.502"/>
<circle cx="3136.00" cy="2640.00" r="320.00" fill="rgb(6,0,0)" fill-opacity="0.502"/>
<circle cx="7696.00" cy="1312.00" r="560.00" fill="rgb(0,0,0)" fill-opacity="0.502"/>
<circle cx="3248.00" cy="1264.00" r="112.00" fill="rgb(114,38,25)" fill-opacity="0.502"/>
<circle cx="5040.00" cy="1056.00" r="256.00" fill="rgb(7,0,0)" fill-opacity="0.502"/>
<g transform="translate(3888.00 960.00) rotate(333) scale(96.00 368.00)"><ellipse cx="0" cy="0" rx="1" ry="1" fill="rgb(142,46,27)" fill-opacity="0.502"/></g>
<g transform="translate(6400.00 4432.00) rotate(23) scale(416.00 1424.00)"><ellipse cx="0" cy="0" rx="1" ry="1" fill="rgb(7,1,0)" fill-opacity="0.502"/></g>
<g transform="translate(6512.00 864.00) rotate(330) scale(160.00 160.00)"><ellipse cx="0" cy="0" rx="1" ry="1" fill="rgb(2,122,249)" fill-opacity="0.502"/></g>
<g transform="translate(960.00 4400.00) rotate(171) scale(112.00 432.00)"><ellipse cx="0" cy="0" rx="1" ry="1" fill="rgb(0,0,0)" fill-opacity="0.502"/></g>
<circle cx="5792.00" cy="2160.00" r="480.00" fill="rgb(1,0,0)" fill-opacity="0.502"/>
<circle cx="7856.00" cy="4112.00" r="864.00" fill="rgb(0,0,0)" fill-opacity="0.502"/>
<g transform="translate(3376.00 2208.00) rotate(303) scale(144.00 176.00)"><ellipse cx="0" cy="0" rx="1" ry="1" fill="rgb(8,0,0)" fill-opacity="0.502"/></g>
<polygon points="6554.46,735.28 6332.64,704.10 6341.54,640.72 6563.36,671.90" fill="rgb(3,22,83)" fill-opacity="0.502"/>
<g transform="translate(4448.00 1552.00) rotate(109) scale(80.00 272.00)"><ellipse cx="0" cy="0" rx="1" ry="1" fill="rgb(20,3,0)" fill-opacity="0.502"/></g>
<polygon points="4809.26,3232.47 5383.28,2196.92 6614.74,2879.53 6040.72,3915.08" fill="rgb(6,0,0)" fill-opacity="0.502"/>
<polygon points="4216.51,694.77 4379.41,988.64 4183.49,1097.23 4020.59,803.36" fill="rgb(91,18,12)" fill-opacity="0.502"/>
<polygon points="3901.29,3449.21 3890.68,3753.02 3826.71,3750.79 3837.32,3446.98" fill="rgb(8,4,23)" fill-opacity="0.502"/>
<polygon points="4365.25,959.28 4536.74,998.87 4482.75,1232.72 4311.26,1193.13" fill="rgb(108,22,17)" fill-opacity="0.502"/>
<circle cx="6080.00" cy="80.00" r="64.00" fill="rgb(13,130,255)" fill-opacity="0.502"/>
<g transform="translate(6400.00 1312.00) rotate(313) scale(64.00 336.00)"><ellipse cx="0" cy="0" rx="1" ry="1" fill="rgb(5,128,250)" fill-opacity="0.502"/></g>
<circle cx="6752.00" cy="2848.00" r="256.00" fill="rgb(1,0,0)" fill-opacity="0.502"/>
<circle cx="4704.00" cy="2304.00" r="144.00" fill="rgb(143,43,27)" fill-opacity="0.502"/>
<polygon points="4609.76,895.54 4799.89,868.82 4862.24,1312.46 4672.11,1339.18" fill="rgb(47,5,0)" fill-opacity="0.502"/>
<g transform="translate(3232.00 912.00) rotate(99) scale(320.00 48.00)"><ellipse cx="0" cy="0" rx="1" ry="1" fill="rgb(96,29,21)" fill-opacity="0.502"/></g>
<polygon points="5449.33,4377.48 5460.84,4366.37 5638.67,4550.52 5627.16,4561.63" fill="rgb(78,52,50)" fill-opacity="0.502"/>
<circle cx="2240.00" cy="2128.00" r="304.00" fill="rgb(15,0,0)" fill-opacity="0.502"/>
<circle cx="6832.00" cy="2240.00" r="176.00" fill="rgb(7,123,255)" fill-opacity="0.502"/>
<g transform="translate(3792.00 2912.00) rotate(321) scale(32.00 368.00)"><ellipse cx="0" cy="0" rx="1" ry="1" fill="rgb(103,16,6)" fill-opacity="0.502"/></g>
<circle cx="5040.00" cy="4192.00" r="176.00" fill="rgb(4,0,0)" fill-opacity="0.502"/>
<polygon points="3630.62,2433.14 3694.58,2430.91 3697.38,2510.86 3633.42,2513.09" fill="rgb(252,154,141)" fill-opacity="0.502"/>
<polygon points="3506.89,2308.57 3717.96,2610.02 3613.11,2683.43 3402.04,2381.98" fill="rgb(155,57,44)" fill-opacity="0.502"/>
<polygon points="4244.53,1528.28 4413.81,1295.29 4491.47,1351.72 4322.19,1584.71" fill="rgb(72,30,9)" fill-opacity="0.502"/>
<polygon points="3229.90,1020.14 3369.33,805.44 3490.10,883.86 3350.67,1098.56" fill="rgb(150,49,24)" fill-opacity="0.502"/>
<polygon points="3449.57,1389.54 3496.02,1203.24 4070.43,1346.46 4023.98,1532.76" fill="rgb(196,87,67)" fill-opacity="0.502"/>
<circle cx="3088.00" cy="2240.00" r="48.00" fill="rgb(37,38,45)" fill-opacity="0.502"/>
<polygon points="1126.24,3225.38 1290.79,3421.48 1241.76,3462.62 1077.21,3266.52" fill="rgb(22,11,27)" fill-opacity="0.502"/>
<circle cx="4000.00" cy="1600.00" r="80.00" fill="rgb(32,20,15)" fill-opacity="0.502"/>
<g transform="translate(6320.00 2640.00) rotate(342) scale(496.00 464.00)"><ellipse cx="0" cy="0" rx="1" ry="1" fill="rgb(2,0,0)" fill-opacity="0.502"/></g>
<circle cx="2576.00" cy="2576.00" r="192.00" fill="rgb(14,0,0)" fill-opacity="0.502"/>
<polygon points="4112.00,2832.00 4112.00,2880.00 3904.00,2880.00 3904.00,2832.00" fill="rgb(111,0,0)" fill-opacity="0.502"/>
<polygon points="6888.66,1230.99 6369.44,1021.21 6471.34,769.01 6990.56,978.79" fill="rgb(1,136,254)" fill-opacity="0.502"/>
<g transform="translate(6832.00 2016.00) rotate(170) scale(624.00 32.00)"><ellipse cx="0" cy="0" rx="1" ry="1" fill="rgb(0,0,21)" fill-opacity="0.502"/></g>
<g transform="translate(3024.00 768.00) rotate(102) scale(176.00 144.00)"><ellipse cx="0" cy="0" rx="1" ry="1" fill="rgb(5,0,14)" fill-opacity="0.502"/></g>
<polygon points="1240.69,3275.37 1442.42,3432.98 1383.31,3508.63 1181.58,3351.02" fill="rgb(11,0,0)" fill-opacity="0.502"/>
<g transform="translate(4128.00 3568.00) rotate(140) scale(128.00 272.00)"><ellipse cx="0" cy="0" rx="1" ry="1" fill="rgb(144,47,32)" fill-opacity="0.502"/></g>
<g transform="translate(3616.00 1680.00) rotate(345) scale(384.00 64.00)"><ellipse cx="0" cy="0" rx="1" ry="1" fill="rgb(0,0,0)" fill-opacity="0.502"/></g>
<polygon points="5937.90,4365.25 5895.13,4343.46 6142.10,3858.75 6184.87,3880.54" fill="rgb(77,49,46)" fill-opacity="0.502"/>
<polygon points="6044.85,1398.59 6172.63,1302.30 6211.15,1353.41 6083.37,1449.70" fill="rgb(12,0,0)" fill-opacity="0.502"/>
<circle cx="3856.00" cy="3248.00" r="144.00" fill="rgb(180,55,41)" fill-opacity="0.502"/>
<circle cx="1328.00" cy="2640.00" r="304.00" fill="rgb(14,0,0)" fill-opacity="0.502"/>
<circle cx="4096.00" cy="2240.00" r="32.00" fill="rgb(255,255,215)" fill-opacity="0.502"/>
<polygon points="4868.76,3994.40 5018.01,3901.13 5323.24,4389.60 5173.99,4482.87" fill="rgb(10,1,0)" fill-opacity="0.502"/>
<circle cx="6240.00" cy="0.00" r="256.00" fill="rgb(4,121,255)" fill-opacity="0.502"/>
<circle cx="5936.00" cy="848.00" r="240.00" fill="rgb(1,0,0)" fill-opacity="0.502"/>
<polygon points="4557.89,3358.56 4596.20,3463.80 4130.11,3633.44 4091.80,3528.20" fill="rgb(177,68,52)" fill-opacity="0.502"/>
<g transform="translate(4016.00 2576.00) rotate(343) scale(304.00 32.00)"><ellipse cx="0" cy="0" rx="1" ry="1" fill="rgb(168,67,57)" fill-opacity="0.502"/></g>
<g transform="translate(3328.00 1232.00) rotate(182) scale(80.00 240.00)"><ellipse cx="0" cy="0" rx="1" ry="1" fill="rgb(159,54,32)" fill-opacity="0.502"/></g>
<circle cx="2224.00" cy="64.00" r="352.00" fill="rgb(2,0,0)" fill-opacity="0.502"/>
<polygon points="1299.16,3730.02 1261.31,3460.66 1308.84,3453.98 1346.69,3723.34" fill="rgb(27,0,3)" fill-opacity="0.502"/>
<g transform="translate(4560.00 1840.00) rotate(73) scale(304.00 320.00)"><ellipse cx="0" cy="0" rx="1" ry="1" fill="rgb(4,0,0)" fill-opacity="0.502"/></g>
<g transform="translate(4736.00 1936.00) rotate(37) scale(64.00 352.00)"><ellipse cx="0" cy="0" rx="1" ry="1" fill="rgb(3,0,0)" fill-opacity="0.502"/></g>
<polygon points="4966.72,3313.19 5149.29,3704.71 5033.28,3758.81 4850.71,3367.29" fill="rgb(0,0,0)" fill-opacity="0.502"/>
<g transform="translate(1280.00 1424.00) rotate(275) scale(1152.00 144.00)"><ellipse cx="0" cy="0" rx="1" ry="1" fill="rgb(9,0,0)" fill-opacity="0.502"/></g>
<polygon points="3854.14,2051.83 3823.94,2089.14 3649.86,1948.17 3680.06,1910.86" fill="rgb(88,27,25)" fill-opacity="0.502"/>
<circle cx="7616.00" cy="160.00" r="544.00" fill="rgb(0,0,0)" fill-opacity="0.502"/>
<circle cx="3984.00" cy="3952.00" r="32.00" fill="rgb(73,76,72)" fill-opacity="0.502"/>
<g transform="translate(4208.00 4000.00) rotate(93) scale(240.00 112.00)"><ellipse cx="0" cy="0" rx="1" ry="1" fill="rgb(2,0,0)" fill-opacity="0.502"/></g>
<polygon points="5218.64,4078.71 5350.49,3859.27 5693.36,4065.29 5561.51,4284.73" fill="rgb(7,0,0)" fill-opacity="0.502"/>
<polygon points="5942.28,4298.13 5844.09,4499.46 5225.72,4197.87 5323.91,3996.54" fill="rgb(12,1,0)" fill-opacity="0.502"/>
<circle cx="4720.00" cy="3072.00" r="80.00" fill="rgb(93,15,3)" fill-opacity="0.502"/>
<polygon points="6975.22,2445.51 6766.10,2365.24 6880.78,2066.49 7089.90,2146.76" fill="rgb(0,130,255)" fill-opacity="0.502"/>
<circle cx="3712.00" cy="2640.00" r="96.00" fill="rgb(93,17,0)" fill-opacity="0.502"/>
<polygon points="6256.38,1985.86 6771.86,1767.05 6815.62,1870.14 6300.14,2088.95" fill="rgb(4,132,255)" fill-opacity="0.502"/>
<polygon points="4213.54,2737.15 4522.69,3015.51 4458.46,3086.85 4149.31,2808.49" fill="rgb(139,43,26)" fill-opacity="0.502"/>
<polygon points="3861.21,371.05 3882.80,464.59 3274.79,604.95 3253.20,511.41" fill="rgb(43,5,6)" fill-opacity="0.502"/>
<g transform="translate(6672.00 336.00) rotate(46) scale(272.00 112.00)"><ellipse cx="0" cy="0" rx="1" ry="1" fill="rgb(1,128,255)" fill-opacity="0.502"/></g>
<circle cx="4096.00" cy="1568.00" r="32.00" fill="rgb(248,247,234)" fill-opacity="0.502"/>
<polygon points="4065.97,3134.76 4209.94,3137.27 4206.03,3361.24 4062.06,3358.73" fill="rgb(191,67,54)" fill-opacity="0.502"/>
<polygon points="6477.25,427.54 6612.46,173.25 6866.75,308.46 6731.54,562.75" fill="rgb(1,128,255)" fill-opacity="0.502"/>
<g transform="translate(5264.00 240.00) rotate(74) scale(1264.00 528.00)"><ellipse cx="0" cy="0" rx="1" ry="1" fill="rgb(2,0,0)" fill-opacity="0.502"/></g>
<circle cx="6848.00" cy="112.00" r="64.00" fill="rgb(0,14,90)" fill-opacity="0.502"/>
<g transform="translate(6592.00 144.00) rotate(336) scale(160.00 432.00)"><ellipse cx="0" cy="0" rx="1" ry="1" fill="rgb(0,127,255)" fill-opacity="0.502"/></g>
<polygon points="2716.62,1357.61 2879.51,1063.74 3187.38,1234.39 3024.49,1528.26" fill="rgb(3,0,1)" fill-opacity="0.502"/>
<circle cx="5328.00" cy="4224.00" r="64.00" fill="rgb(39,27,22)" fill-opacity="0.502"/>
<g transform="translate(7312.00 736.00) rotate(176) scale(192.00 1536.00)"><ellipse cx="0" cy="0" rx="1" ry="1" fill="rgb(0,0,0)" fill-opacity="0.502"/></g>
<g transform="translate(4048.00 736.00) rotate(50) scale(320.00 80.00)"><ellipse cx="0" cy="0" rx="1" ry="1" fill="rgb(95,17,12)" fill-opacity="0.502"/></g>
<circle cx="1584.00" cy="2496.00" r="512.00" fill="rgb(14,0,0)" fill-opacity="0.502"/>
<polygon points="4985.54,1980.38 4555.62,1550.46 4838.46,1267.62 5268.38,1697.54" fill="rgb(4,0,0)" fill-opacity="0.502"/>
<polygon points="4704.44,4243.59 4859.69,4204.88 4863.56,4220.41 4708.31,4259.12" fill="rgb(57,56,57)" fill-opacity="0.502"/>
<polygon points="4946.49,2816.71 5041.47,2876.07 4829.51,3215.29 4734.53,3155.93" fill="rgb(55,8,0)" fill-opacity="0.502"/>
<g transform="translate(4720.00 4288.00) rotate(51) scale(624.00 96.00)"><ellipse cx="0" cy="0" rx="1" ry="1" fill="rgb(3,0,0)" fill-opacity="0.502"/></g>
<circle cx="5024.00" cy="624.00" r="304.00" fill="rgb(7,0,0)" fill-opacity="0.502"/>
<polygon points="6176.25,1665.09 6242.08,1574.48 6319.75,1630.91 6253.92,1721.52" fill="rgb(34,128,237)" fill-opacity="0.502"/>
<circle cx="4128.00" cy="4352.00" r="256.00" fill="rgb(2,0,0)" fill-opacity="0.502"/>
<polygon points="5530.45,3417.66 5633.36,3754.28 5541.55,3782.34 5438.64,3445.72" fill="rgb(27,14,11)" fill-opacity="0.502"/>
<g transform="translate(6464.00 4496.00) rotate(85) scale(560.00 496.00)"><ellipse cx="0" cy="0" rx="1" ry="1" fill="rgb(9,2,0)" fill-opacity="0.502"/></g>
<polygon points="5971.89,1.99 5964.07,449.92 5740.11,446.01 5747.93,-1.92" fill="rgb(2,0,0)" fill-opacity="0.502"/>
<polygon points="5100.49,2064.50 5303.94,2107.74 5187.51,2655.50 4984.06,2612.26" fill="rgb(50,5,1)" fill-opacity="0.502"/>
<polygon points="4235.65,1550.24 4029.67,1521.29 4036.35,1473.76 4242.33,1502.71" fill="rgb(37,8,6)" fill-opacity="0.502"/>
<polygon points="5378.48,3692.14 5671.02,3964.94 5485.52,4163.86 5192.98,3891.06" fill="rgb(11,0,0)" fill-opacity="0.502"/>
<g transform="translate(3840.00 272.00) rotate(98) scale(144.00 384.00)"><ellipse cx="0" cy="0" rx="1" ry="1" fill="rgb(7,0,0)" fill-opacity="0.502"/></g>
<g transform="translate(5824.00 240.00) rotate(148) scale(256.00 112.00)"><ellipse cx="0" cy="0" rx="1" ry="1" fill="rgb(4,0,1)" fill-opacity="0.502"/></g>
<polygon points="6781.42,1612.13 6442.86,2078.13 6274.58,1955.87 6613.14,1489.87" fill="rgb(1,128,249)" fill-opacity="0.502"/>
<g transform="translate(3712.00 4544.00) rotate(104) scale(224.00 576.00)"><ellipse cx="0" cy="0" rx="1" ry="1" fill="rgb(8,0,0)" fill-opacity="0.502"/></g>
<polygon points="4373.35,1747.71 4580.68,1970.05 4346.65,2188.29 4139.32,1965.95" fill="rgb(4,0,0)" fill-opacity="0.502"/>
<polygon points="6814.24,600.24 6818.43,552.42 6993.76,567.76 6989.57,615.58" fill="rgb(0,3,47)" fill-opacity="0.502"/>
<polygon points="5582.67,3424.89 5077.85,3791.66 4833.33,3455.11 5338.15,3088.34" fill="rgb(0,0,0)" fill-opacity="0.502"/>
<circle cx="4816.00" cy="2432.00" r="128.00" fill="rgb(99,18,14)" fill-opacity="0.502"/>
<polygon points="6730.12,2248.54 6921.59,2167.26 7077.88,2535.46 6886.41,2616.74" fill="rgb(7,131,255)" fill-opacity="0.502"/>
<g transform="translate(5920.00 4208.00) rotate(145) scale(48.00 128.00)"><ellipse cx="0" cy="0" rx="1" ry="1" fill="rgb(97,53,53)" fill-opacity="0.502"/></g>
<polygon points="5006.54,4106.29 4818.73,4146.21 4785.46,3989.71 4973.27,3949.79" fill="rgb(23,8,9)" fill-opacity="0.502"/>
<circle cx="7056.00" cy="1168.00" r="48.00" fill="rgb(7,74,198)" fill-opacity="0.502"/>
<circle cx="5968.00" cy="3760.00" r="224.00" fill="rgb(10,0,0)" fill-opacity="0.502"/>
<g transform="translate(7824.00 2288.00) rotate(335) scale(720.00 800.00)"><ellipse cx="0" cy="0" rx="1" ry="1" fill="rgb(0,0,0)" fill-opacity="0.502"/></g>
<g transform="translate(6208.00 3808.00) rotate(122) scale(544.00 16.00)"><ellipse cx="0" cy="0" rx="1" ry="1" fill="rgb(65,57,52)" fill-opacity="0.502"/></g>
<circle cx="4032.00" cy="1600.00" r="64.00" fill="rgb(57,41,33)" fill-opacity="0.502"/>
<g transform="translate(5744.00 1824.00) rotate(115) scale(480.00 448.00)"><ellipse cx="0" cy="0" rx="1" ry="1" fill="rgb(2,0,0)" fill-opacity="0.502"/></g>
<g transform="translate(4432.00 3792.00) rotate(348) scale(592.00 16.00)"><ellipse cx="0" cy="0" rx="1" ry="1" fill="rgb(6,0,0)" fill-opacity="0.502"/></g>
<circle cx="3520.00" cy="1584.00" r="48.00" fill="rgb(143,34,23)" fill-opacity="0.502"/>
<polygon points="1136.40,3855.66 1357.64,3890.70 1327.60,4080.34 1106.36,4045.30" fill="rgb(98,53,41)" fill-opacity="0.502"/>
<circle cx="4480.00" cy="480.00" r="144.00" fill="rgb(17,0,0)" fill-opacity="0.502"/>
<circle cx="4896.00" cy="2224.00" r="128.00" fill="rgb(110,25,19)" fill-opacity="0.502"/>
<circle cx="6432.00" cy="272.00" r="320.00" fill="rgb(1,125,251)" fill-opacity="0.502"/>
<circle cx="5408.00" cy="3632.00" r="32.00" fill="rgb(75,64,71)" fill-opacity="0.502"/>
<circle cx="6400.00" cy="1696.00" r="176.00" fill="rgb(0,126,248)" fill-opacity="0.502"/>
<polygon points="4878.54,857.43 4975.01,1311.29 4865.46,1334.57 4768.99,880.71" fill="rgb(15,0,0)" fill-opacity="0.502"/>
<polygon points="5829.39,4488.65 5794.32,4560.56 5578.61,4455.35 5613.68,4383.44" fill="rgb(6,0,0)" fill-opacity="0.502"/>
<polygon points="6816.00,3344.00 7056.00,3344.00 7056.00,4544.00 6816.00,4544.00" fill="rgb(7,0,0)" fill-opacity="0.502"/>
<g transform="translate(4640.00 1184.00) rotate(62) scale(144.00 80.00)"><ellipse cx="0" cy="0" rx="1" ry="1" fill="rgb(70,12,7)" fill-opacity="0.502"/></g>
<polygon points="3972.73,3936.32 4308.63,4322.73 4091.27,4511.68 3755.37,4125.27" fill="rgb(6,0,0)" fill-opacity="0.502"/>
<polygon points="6223.43,3334.99 5993.53,2841.96 6544.57,2585.01 6774.47,3078.04" fill="rgb(6,0,0)" fill-opacity="0.502"/>
<polygon points="2608.92,1526.36 3639.88,1963.98 3471.08,2361.64 2440.12,1924.02" fill="rgb(5,0,0)" fill-opacity="0.502"/>
<g transform="translate(7984.00 656.00) rotate(356) scale(864.00 2064.00)"><ellipse cx="0" cy="0" rx="1" ry="1" fill="rgb(0,0,0)" fill-opacity="0.502"/></g>
<polygon points="3361.28,1437.36 3665.23,1442.66 3662.72,1586.64 3358.77,1581.34" fill="rgb(170,65,41)" fill-opacity="0.502"/>
<polygon points="4558.51,1041.30 4578.04,818.15 4721.49,830.70 4701.96,1053.85" fill="rgb(48,9,6)" fill-opacity="0.502"/>
<circle cx="1232.00" cy="4304.00" r="144.00" fill="rgb(130,57,49)" fill-opacity="0.502"/>
<g transform="translate(5008.00 2240.00) rotate(95) scale(208.00 112.00)"><ellipse cx="0" cy="0" rx="1" ry="1" fill="rgb(85,15,10)" fill-opacity="0.502"/></g>
<circle cx="3696.00" cy="1680.00" r="96.00" fill="rgb(5,0,0)" fill-opacity="0.502"/>
<g transform="translate(1712.00 1328.00) rotate(47) scale(208.00 336.00)"><ellipse cx="0" cy="0" rx="1" ry="1" fill="rgb(13,0,0)" fill-opacity="0.502"/></g>
<circle cx="3264.00" cy="3440.00" r="496.00" fill="rgb(9,0,1)" fill-opacity="0.502"/>
<polygon points="6905.36,2460.87 7030.53,2626.99 6966.64,2675.13 6841.47,2509.01" fill="rgb(19,131,255)" fill-opacity="0.502"/>
<circle cx="6256.00" cy="2224.00" r="144.00" fill="rgb(0,0,0)" fill-opacity="0.502"/>
<g transform="translate(4416.00 3488.00) rotate(205) scale(176.00 32.00)"><ellipse cx="0" cy="0" rx="1" ry="1" fill="rgb(160,61,44)" fill-opacity="0.502"/></g>
<polygon points="5208.73,3459.50 5642.15,2904.74 5831.27,3052.50 5397.85,3607.26" fill="rgb(1,0,0)" fill-opacity="0.502"/>
<circle cx="4432.00" cy="832.00" r="80.00" fill="rgb(68,8,3)" fill-opacity="0.502"/>
<circle cx="5760.00" cy="1440.00" r="176.00" fill="rgb(4,0,0)" fill-opacity="0.502"/>
<circle cx="3264.00" cy="1456.00" r="96.00" fill="rgb(133,46,29)" fill-opacity="0.502"/>
<polygon points="4391.75,3338.28 4400.90,3385.40 4008.25,3461.72 3999.10,3414.60" fill="rgb(81,4,0)" fill-opacity="0.502"/>
<circle cx="5968.00" cy="2176.00" r="304.00" fill="rgb(2,0,2)" fill-opacity="0.502"/>
<polygon points="1182.51,3904.91 1325.07,3977.55 1281.49,4063.09 1138.93,3990.45" fill="rgb(112,56,45)" fill-opacity="0.502"/>
<polygon points="7103.48,2621.00 7087.89,2731.91 7024.52,2723.00 7040.11,2612.09" fill="rgb(11,120,244)" fill-opacity="0.502"/>
<polygon points="5103.79,2831.98 5025.84,2813.98 5184.21,2128.02 5262.16,2146.02" fill="rgb(37,5,1)" fill-opacity="0.502"/>
<g transform="translate(2704.00 2912.00) rotate(254) scale(1328.00 80.00)"><ellipse cx="0" cy="0" rx="1" ry="1" fill="rgb(12,0,0)" fill-opacity="0.502"/></g>
<circle cx="6320.00" cy="16.00" r="272.00" fill="rgb(0,120,254)" fill-opacity="0.502"/>
<circle cx="6016.00" cy="3984.00" r="112.00" fill="rgb(9,0,0)" fill-opacity="0.502"/>
<g transform="translate(7600.00 3248.00) rotate(232) scale(736.00 528.00)"><ellipse cx="0" cy="0" rx="1" ry="1" fill="rgb(0,0,0)" fill-opacity="0.502"/></g>
<g transform="translate(5936.00 1232.00) rotate(213) scale(16.00 160.00)"><ellipse cx="0" cy="0" rx="1" ry="1" fill="rgb(36,4,7)" fill-opacity="0.502"/></g>
<circle cx="4080.00" cy="1360.00" r="128.00" fill="rgb(157,64,50)" fill-opacity="0.502"/>
<g transform="translate(6640.00 1056.00) rotate(157) scale(384.00 368.00)"><ellipse cx="0" cy="0" rx="1" ry="1" fill="rgb(1,129,252)" fill-opacity="0.502"/></g>
<g transform="translate(4592.00 1776.00) rotate(325) scale(400.00 352.00)"><ellipse cx="0" cy="0" rx="1" ry="1" fill="rgb(5,0,0)" fill-opacity="0.502"/></g>
<polygon points="2986.37,3558.48 2698.64,3836.35 2309.63,3433.52 2597.36,3155.65" fill="rgb(17,0,0)" fill-opacity="0.502"/>
<circle cx="3376.00" cy="752.00" r="128.00" fill="rgb(116,32,19)" fill-opacity="0.502"/>
<polygon points="5147.06,3978.15 5192.71,3992.98 5172.94,4053.85 5127.29,4039.02" fill="rgb(65,52,43)" fill-opacity="0.502"/>
<polygon points="3793.93,2144.90 4019.84,2348.31 3902.07,2479.10 3676.16,2275.69" fill="rgb(172,59,46)" fill-opacity="0.502"/>
<g transform="translate(4064.00 2992.00) rotate(241) scale(96.00 128.00)"><ellipse cx="0" cy="0" rx="1" ry="1" fill="rgb(251,156,117)" fill-opacity="0.502"/></g>
<g transform="translate(3200.00 1568.00) rotate(346) scale(16.00 160.00)"><ellipse cx="0" cy="0" rx="1" ry="1" fill="rgb(35,12,16)" fill-opacity="0.502"/></g>
<circle cx="4928.00" cy="3776.00" r="64.00" fill="rgb(189,76,70)" fill-opacity="0.502"/>
<polygon points="4472.26,2890.94 4572.06,2941.78 4535.74,3013.06 4435.94,2962.22" fill="rgb(37,7,0)" fill-opacity="0.502"/>
<polygon points="1331.04,4456.03 1240.39,4305.17 1308.96,4263.97 1399.61,4414.83" fill="rgb(147,69,60)" fill-opacity="0.502"/>
<circle cx="5216.00" cy="4368.00" r="144.00" fill="rgb(13,1,0)" fill-opacity="0.502"/>
<g transform="translate(5936.00 4096.00) rotate(44) scale(144.00 48.00)"><ellipse cx="0" cy="0" rx="1" ry="1" fill="rgb(100,50,45)" fill-opacity="0.502"/></g>
<circle cx="7024.00" cy="2080.00" r="64.00" fill="rgb(11,89,248)" fill-opacity="0.502"/>
<circle cx="6928.00" cy="2048.00" r="64.00" fill="rgb(5,49,156)" fill-opacity="0.502"/>
<polygon points="3415.84,2442.47 3460.35,2424.49 3640.16,2869.53 3595.65,2887.51" fill="rgb(115,51,43)" fill-opacity="0.502"/>
<g transform="translate(4640.00 3888.00) rotate(117) scale(640.00 128.00)"><ellipse cx="0" cy="0" rx="1" ry="1" fill="rgb(5,0,0)" fill-opacity="0.502"/></g>
<g transform="translate(6848.00 1840.00) rotate(179) scale(240.00 96.00)"><ellipse cx="0" cy="0" rx="1" ry="1" fill="rgb(0,137,255)" fill-opacity="0.502"/></g>
<polygon points="4818.79,3689.96 4781.95,3163.25 5085.21,3142.04 5122.05,3668.75" fill="rgb(7,0,0)" fill-opacity="0.502"/>
<circle cx="6016.00" cy="4048.00" r="64.00" fill="rgb(15,3,0)" fill-opacity="0.502"/>
<polygon points="4811.97,1664.69 4803.88,2128.62 3812.03,2111.31 3820.12,1647.38" fill="rgb(5,0,0)" fill-opacity="0.502"/>
<polygon points="4450.83,3574.21 4576.79,3429.31 4637.17,3481.79 4511.21,3626.69" fill="rgb(111,32,10)" fill-opacity="0.502"/>
<g transform="translate(4464.00 2400.00) rotate(78) scale(192.00 176.00)"><ellipse cx="0" cy="0" rx="1" ry="1" fill="rgb(174,64,45)" fill-opacity="0.502"/></g>
<polygon points="4757.69,1213.74 4798.89,1282.32 4346.31,1554.26 4305.11,1485.68" fill="rgb(43,7,0)" fill-opacity="0.502"/>
<g transform="translate(6944.00 416.00) rotate(206) scale(64.00 48.00)"><ellipse cx="0" cy="0" rx="1" ry="1" fill="rgb(0,18,84)" fill-opacity="0.502"/></g>
<polygon points="7081.29,1138.63 7385.53,854.92 7734.71,1229.37 7430.47,1513.08" fill="rgb(0,0,0)" fill-opacity="0.502"/>
<polygon points="4351.01,1376.08 3918.05,972.34 4048.99,831.92 4481.95,1235.66" fill="rgb(121,35,21)" fill-opacity="0.502"/>
<polygon points="6919.38,1906.23 6736.45,1343.21 6888.62,1293.77 7071.55,1856.79" fill="rgb(0,139,248)" fill-opacity="0.502"/>
<polygon points="7636.79,4189.14 7459.68,4703.50 7051.21,4562.86 7228.32,4048.50" fill="rgb(0,0,0)" fill-opacity="0.502"/>
<polygon points="5879.74,4735.32 5832.51,4467.46 5848.26,4464.68 5895.49,4732.54" fill="rgb(36,33,30)" fill-opacity="0.502"/>
<polygon points="6576.64,4070.60 6875.38,4185.28 6703.36,4633.40 6404.62,4518.72" fill="rgb(9,5,0)" fill-opacity="0.502"/>
<polygon points="3437.99,585.88 3430.19,522.36 3986.01,454.12 3993.81,517.64" fill="rgb(64,13,13)" fill-opacity="0.502"/>
<g transform="translate(5520.00 2192.00) rotate(143) scale(224.00 288.00)"><ellipse cx="0" cy="0" rx="1" ry="1" fill="rgb(6,0,0)" fill-opacity="0.502"/></g>
<circle cx="1152.00" cy="3312.00" r="64.00" fill="rgb(29,19,40)" fill-opacity="0.502"/>
<polygon points="6680.66,3984.59 6273.60,3730.23 6375.34,3567.41 6782.40,3821.77" fill="rgb(5,0,0)" fill-opacity="0.502"/>
<g transform="translate(4816.00 4368.00) rotate(132) scale(96.00 288.00)"><ellipse cx="0" cy="0" rx="1" ry="1" fill="rgb(7,0,0)" fill-opacity="0.502"/></g>
<polygon points="3489.16,2924.90 3457.04,2889.23 3694.84,2675.10 3726.96,2710.77" fill="rgb(26,5,0)" fill-opacity="0.502"/>
<circle cx="4032.00" cy="2480.00" r="64.00" fill="rgb(9,0,5)" fill-opacity="0.502"/>
<polygon points="4650.28,3626.64 4317.72,3818.64 4277.72,3749.36 4610.28,3557.36" fill="rgb(66,17,7)" fill-opacity="0.502"/>
<polygon points="3810.50,1705.72 4234.56,1788.15 4173.50,2102.28 3749.44,2019.85" fill="rgb(4,0,0)" fill-opacity="0.502"/>
<circle cx="3824.00" cy="3152.00" r="128.00" fill="rgb(160,46,28)" fill-opacity="0.502"/>
<g transform="translate(2512.00 800.00) rotate(23) scale(400.00 544.00)"><ellipse cx="0" cy="0" rx="1" ry="1" fill="rgb(4,0,0)" fill-opacity="0.502"/></g>
<polygon points="4304.74,4215.28 4197.63,4182.54 4319.26,3784.72 4426.37,3817.46" fill="rgb(5,0,0)" fill-opacity="0.502"/>
<circle cx="3792.00" cy="3072.00" r="64.00" fill="rgb(191,80,68)" fill-opacity="0.502"/>
<g transform="translate(6016.00 3280.00) rotate(114) scale(400.00 432.00)"><ellipse cx="0" cy="0" rx="1" ry="1" fill="rgb(5,0,0)" fill-opacity="0.502"/></g>
<g transform="translate(6512.00 352.00) rotate(15) scale(304.00 256.00)"><ellipse cx="0" cy="0" rx="1" ry="1" fill="rgb(1,127,252)" fill-opacity="0.502"/></g>
<polygon points="6092.13,607.16 6289.91,712.33 6259.87,768.84 6062.09,663.67" fill="rgb(12,6,25)" fill-opacity="0.502"/>
<polygon points="4873.15,2584.24 5013.43,2296.63 5142.85,2359.76 5002.57,2647.37" fill="rgb(69,11,6)" fill-opacity="0.502"/>
<g transform="translate(4400.00 880.00) rotate(123) scale(48.00 384.00)"><ellipse cx="0" cy="0" rx="1" ry="1" fill="rgb(69,12,4)" fill-opacity="0.502"/></g>
<circle cx="3424.00" cy="1760.00" r="128.00" fill="rgb(3,0,0)" fill-opacity="0.502"/>
<g transform="translate(4768.00 2496.00) rotate(0) scale(96.00 368.00)"><ellipse cx="0" cy="0" rx="1" ry="1" fill="rgb(121,34,21)" fill-opacity="0.502"/></g>
<polygon points="4558.65,4562.88 4645.04,4188.72 4785.35,4221.12 4698.96,4595.28" fill="rgb(2,0,0)" fill-opacity="0.502"/>
<circle cx="672.00" cy="3472.00" r="432.00" fill="rgb(0,0,0)" fill-opacity="0.502"/>
<polygon points="7096.00,2840.00 7096.00,2392.00 7176.00,2392.00 7176.00,2840.00" fill="rgb(3,0,2)" fill-opacity="0.502"/>
<circle cx="6816.00" cy="0.00" r="64.00" fill="rgb(0,24,128)" fill-opacity="0.502"/>
<g transform="translate(3936.00 3328.00) rotate(229) scale(176.00 80.00)"><ellipse cx="0" cy="0" rx="1" ry="1" fill="rgb(191,60,44)" fill-opacity="0.502"/></g>
<polygon points="3092.37,1258.36 3067.82,907.22 3147.63,901.64 3172.18,1252.78" fill="rgb(14,0,20)" fill-opacity="0.502"/>
<g transform="translate(6592.00 2960.00) rotate(71) scale(320.00 528.00)"><ellipse cx="0" cy="0" rx="1" ry="1" fill="rgb(5,0,0)" fill-opacity="0.502"/></g>
<polygon points="3251.53,999.62 3260.46,1511.54 3212.47,1512.38 3203.54,1000.46" fill="rgb(110,44,29)" fill-opacity="0.502"/>
</g>
</svg>