<?xml version="1.0" standalone="no"?>
<svg xmlns="http://www.w3.org/2000/svg" width="8192" height="4608" viewBox="0 0 8192 4608" style="overflow:hidden">
<defs>
<clipPath id="c"><rect x="0" y="0" width="8192" height="4608"/></clipPath>
</defs>
<rect width="8192" height="4608" fill="rgb(83,49,35)"/>
<g clip-path="url(#c)">
<circle cx="3456.00" cy="4064.00" r="2032.00" fill="rgb(253,183,147)" fill-opacity="0.502"/>
<circle cx="5824.00" cy="4592.00" r="576.00" fill="rgb(255,235,203)" fill-opacity="0.502"/>
<circle cx="7536.00" cy="2480.00" r="2112.00" fill="rgb(0,0,0)" fill-opacity="0.502"/>
<g transform="translate(1712.00 2528.00) rotate(88) scale(672.00 624.00)"><ellipse cx="0" cy="0" rx="1" ry="1" fill="rgb(255,190,138)" fill-opacity="0.502"/></g>
<g transform="translate(304.00 2656.00) rotate(181) scale(816.00 4592.00)"><ellipse cx="0" cy="0" rx="1" ry="1" fill="rgb(0,0,0)" fill-opacity="0.502"/></g>
<g transform="translate(4144.00 2544.00) rotate(84) scale(512.00 976.00)"><ellipse cx="0" cy="0" rx="1" ry="1" fill="rgb(41,0,0)" fill-opacity="0.502"/></g>
<circle cx="4336.00" cy="4048.00" r="864.00" fill="rgb(255,213,186)" fill-opacity="0.502"/>
<circle cx="928.00" cy="4176.00" r="1024.00" fill="rgb(0,0,0)" fill-opacity="0.502"/>
<circle cx="5344.00" cy="3040.00" r="464.00" fill="rgb(0,0,0)" fill-opacity="0.502"/>
<circle cx="2224.00" cy="1392.00" r="1168.00" fill="rgb(170,24,0)" fill-opacity="0.502"/>
<circle cx="7056.00" cy="2656.00" r="1776.00" fill="rgb(0,0,0)" fill-opacity="0.502"/>
<circle cx="7888.00" cy="480.00" r="832.00" fill="rgb(0,0,0)" fill-opacity="0.502"/>
<circle cx="4096.00" cy="944.00" r="272.00" fill="rgb(255,223,195)" fill-opacity="0.502"/>
<g transform="translate(6336.00 416.00) rotate(130) scale(1696.00 240.00)"><ellipse cx="0" cy="0" rx="1" ry="1" fill="rgb(227,169,171)" fill-opacity="0.502"/></g>
<circle cx="1584.00" cy="2640.00" r="416.00" fill="rgb(255,203,175)" fill-opacity="0.502"/>
<g transform="translate(2624.00 2944.00) rotate(303) scale(336.00 768.00)"><ellipse cx="0" cy="0" rx="1" ry="1" fill="rgb(255,212,183)" fill-opacity="0.502"/></g>
<circle cx="6528.00" cy="112.00" r="560.00" fill="rgb(188,137,136)" fill-opacity="0.502"/>
<circle cx="0.00" cy="1392.00" r="1280.00" fill="rgb(0,0,0)" fill-opacity="0.502"/>
<circle cx="7696.00" cy="320.00" r="640.00" fill="rgb(0,0,0)" fill-opacity="0.502"/>
<circle cx="2240.00" cy="3968.00" r="384.00" fill="rgb(255,196,165)" fill-opacity="0.502"/>
<circle cx="4000.00" cy="1648.00" r="512.00" fill="rgb(168,85,58)" fill-opacity="0.502"/>
<circle cx="2896.00" cy="2192.00" r="400.00" fill="rgb(54,0,0)" fill-opacity="0.502"/>
<circle cx="3392.00" cy="800.00" r="528.00" fill="rgb(42,0,0)" fill-opacity="0.502"/>
<g transform="translate(3984.00 3488.00) rotate(225) scale(560.00 256.00)"><ellipse cx="0" cy="0" rx="1" ry="1" fill="rgb(255,228,205)" fill-opacity="0.502"/></g>
<circle cx="4864.00" cy="3952.00" r="368.00" fill="rgb(137,84,52)" fill-opacity="0.502"/>
<circle cx="6608.00" cy="4592.00" r="400.00" fill="rgb(213,166,136)" fill-opacity="0.502"/>
<g transform="translate(3232.00 1616.00) rotate(27) scale(272.00 656.00)"><ellipse cx="0" cy="0" rx="1" ry="1" fill="rgb(3,0,0)" fill-opacity="0.502"/></g>
<g transform="translate(384.00 2864.00) rotate(92) scale(3296.00 720.00)"><ellipse cx="0" cy="0" rx="1" ry="1" fill="rgb(0,0,0)" fill-opacity="0.502"/></g>
<g transform="translate(5312.00 512.00) rotate(326) scale(720.00 512.00)"><ellipse cx="0" cy="0" rx="1" ry="1" fill="rgb(36,4,0)" fill-opacity="0.502"/></g>
<circle cx="1472.00" cy="3440.00" r="400.00" fill="rgb(125,65,33)" fill-opacity="0.502"/>
<circle cx="5504.00" cy="2368.00" r="512.00" fill="rgb(0,0,5)" fill-opacity="0.502"/>
<polygon points="5345.72,1326.62 5888.97,1298.15 5918.28,1857.38 5375.03,1885.85" fill="rgb(155,97,99)" fill-opacity="0.502"/>
<g transform="translate(1312.00 2096.00) rotate(86) scale(400.00 208.00)"><ellipse cx="0" cy="0" rx="1" ry="1" fill="rgb(232,86,30)" fill-opacity="0.502"/></g>
<g transform="translate(800.00 592.00) rotate(270) scale(8176.00 304.00)"><ellipse cx="0" cy="0" rx="1" ry="1" fill="rgb(0,0,0)" fill-opacity="0.502"/></g>
<circle cx="7600.00" cy="3472.00" r="1216.00" fill="rgb(0,0,0)" fill-opacity="0.502"/>
<g transform="translate(4464.00 2688.00) rotate(32) scale(704.00 432.00)"><ellipse cx="0" cy="0" rx="1" ry="1" fill="rgb(147,48,14)" fill-opacity="0.502"/></g>
<g transform="translate(4048.00 336.00) rotate(196) scale(160.00 384.00)"><ellipse cx="0" cy="0" rx="1" ry="1" fill="rgb(222,185,165)" fill-opacity="0.502"/></g>
<circle cx="2208.00" cy="1600.00" r="768.00" fill="rgb(161,48,0)" fill-opacity="0.502"/>
<g transform="translate(5520.00 4496.00) rotate(75) scale(496.00 576.00)"><ellipse cx="0" cy="0" rx="1" ry="1" fill="rgb(209,165,139)" fill-opacity="0.502"/></g>
<circle cx="4624.00" cy="1376.00" r="512.00" fill="rgb(62,2,0)" fill-opacity="0.502"/>
<circle cx="2016.00" cy="416.00" r="928.00" fill="rgb(142,39,0)" fill-opacity="0.502"/>
<polygon points="2360.45,4369.19 3222.21,3910.99 3447.55,4334.81 2585.79,4793.01" fill="rgb(101,55,22)" fill-opacity="0.502"/>
<g transform="translate(3776.00 1520.00) rotate(290) scale(832.00 128.00)"><ellipse cx="0" cy="0" rx="1" ry="1" fill="rgb(216,164,143)" fill-opacity="0.502"/></g>
<polygon points="3917.62,909.71 4438.77,596.57 4562.38,802.29 4041.23,1115.43" fill="rgb(255,204,175)" fill-opacity="0.502"/>
<g transform="translate(2352.00 3504.00) rotate(216) scale(240.00 80.00)"><ellipse cx="0" cy="0" rx="1" ry="1" fill="rgb(0,0,0)" fill-opacity="0.502"/></g>
<g transform="translate(2496.00 3056.00) rotate(208) scale(304.00 368.00)"><ellipse cx="0" cy="0" rx="1" ry="1" fill="rgb(241,196,170)" fill-opacity="0.502"/></g>
<g transform="translate(3328.00 2608.00) rotate(31) scale(896.00 176.00)"><ellipse cx="0" cy="0" rx="1" ry="1" fill="rgb(2,0,0)" fill-opacity="0.502"/></g>
<g transform="translate(1472.00 640.00) rotate(288) scale(768.00 288.00)"><ellipse cx="0" cy="0" rx="1" ry="1" fill="rgb(176,75,32)" fill-opacity="0.502"/></g>
<circle cx="6288.00" cy="4528.00" r="336.00" fill="rgb(199,155,131)" fill-opacity="0.502"/>
<g transform="translate(4816.00 4592.00) rotate(295) scale(336.00 1344.00)"><ellipse cx="0" cy="0" rx="1" ry="1" fill="rgb(255,211,186)" fill-opacity="0.502"/></g>
<circle cx="6112.00" cy="3728.00" r="432.00" fill="rgb(0,0,0)" fill-opacity="0.502"/>
<g transform="translate(2576.00 3920.00) rotate(68) scale(240.00 480.00)"><ellipse cx="0" cy="0" rx="1" ry="1" fill="rgb(250,192,165)" fill-opacity="0.502"/></g>
<g transform="translate(3296.00 4464.00) rotate(121) scale(320.00 544.00)"><ellipse cx="0" cy="0" rx="1" ry="1" fill="rgb(135,83,51)" fill-opacity="0.502"/></g>
<g transform="translate(3072.00 304.00) rotate(300) scale(1008.00 512.00)"><ellipse cx="0" cy="0" rx="1" ry="1" fill="rgb(93,11,0)" fill-opacity="0.502"/></g>
<circle cx="2688.00" cy="2448.00" r="304.00" fill="rgb(206,69,17)" fill-opacity="0.502"/>
<g transform="translate(3920.00 1728.00) rotate(90) scale(368.00 384.00)"><ellipse cx="0" cy="0" rx="1" ry="1" fill="rgb(99,39,19)" fill-opacity="0.502"/></g>
<circle cx="5248.00" cy="1936.00" r="192.00" fill="rgb(0,0,0)" fill-opacity="0.502"/>
<g transform="translate(3408.00 3552.00) rotate(50) scale(496.00 208.00)"><ellipse cx="0" cy="0" rx="1" ry="1" fill="rgb(150,106,82)" fill-opacity="0.502"/></g>
<g transform="translate(5568.00 4384.00) rotate(112) scale(96.00 1216.00)"><ellipse cx="0" cy="0" rx="1" ry="1" fill="rgb(108,74,48)" fill-opacity="0.502"/></g>
<circle cx="1568.00" cy="4320.00" r="496.00" fill="rgb(105,49,18)" fill-opacity="0.502"/>
<g transform="translate(3472.00 3392.00) rotate(353) scale(368.00 160.00)"><ellipse cx="0" cy="0" rx="1" ry="1" fill="rgb(237,187,158)" fill-opacity="0.502"/></g>
<g transform="translate(2304.00 2512.00) rotate(195) scale(960.00 176.00)"><ellipse cx="0" cy="0" rx="1" ry="1" fill="rgb(255,118,69)" fill-opacity="0.502"/></g>
<g transform="translate(6048.00 4448.00) rotate(310) scale(272.00 272.00)"><ellipse cx="0" cy="0" rx="1" ry="1" fill="rgb(209,169,145)" fill-opacity="0.502"/></g>
<polygon points="5723.21,3824.97 5642.65,3902.77 5364.79,3615.03 5445.35,3537.23" fill="rgb(255,177,130)" fill-opacity="0.502"/>
<g transform="translate(6272.00 880.00) rotate(228) scale(128.00 400.00)"><ellipse cx="0" cy="0" rx="1" ry="1" fill="rgb(39,10,23)" fill-opacity="0.502"/></g>
<polygon points="3821.85,1407.09 3677.36,1257.46 4034.15,912.91 4178.64,1062.54" fill="rgb(255,202,180)" fill-opacity="0.502"/>
<circle cx="7056.00" cy="1840.00" r="1216.00" fill="rgb(0,0,0)" fill-opacity="0.502"/>
<circle cx="6896.00" cy="4528.00" r="192.00" fill="rgb(164,128,98)" fill-opacity="0.502"/>
<g transform="translate(3216.00 3648.00) rotate(296) scale(96.00 624.00)"><ellipse cx="0" cy="0" rx="1" ry="1" fill="rgb(50,17,0)" fill-opacity="0.502"/></g>
<g transform="translate(416.00 2880.00) rotate(87) scale(2128.00 688.00)"><ellipse cx="0" cy="0" rx="1" ry="1" fill="rgb(0,0,0)" fill-opacity="0.502"/></g>
<g transform="translate(4528.00 224.00) rotate(69) scale(96.00 720.00)"><ellipse cx="0" cy="0" rx="1" ry="1" fill="rgb(169,141,122)" fill-opacity="0.502"/></g>
<g transform="translate(5024.00 3760.00) rotate(49) scale(416.00 224.00)"><ellipse cx="0" cy="0" rx="1" ry="1" fill="rgb(210,149,116)" fill-opacity="0.502"/></g>
<circle cx="7648.00" cy="128.00" r="576.00" fill="rgb(0,0,0)" fill-opacity="0.502"/>
<g transform="translate(1856.00 3856.00) rotate(78) scale(992.00 144.00)"><ellipse cx="0" cy="0" rx="1" ry="1" fill="rgb(135,81,56)" fill-opacity="0.502"/></g>
<g transform="translate(5424.00 64.00) rotate(310) scale(608.00 368.00)"><ellipse cx="0" cy="0" rx="1" ry="1" fill="rgb(21,18,15)" fill-opacity="0.502"/></g>
<g transform="translate(5600.00 1904.00) rotate(351) scale(128.00 128.00)"><ellipse cx="0" cy="0" rx="1" ry="1" fill="rgb(106,57,62)" fill-opacity="0.502"/></g>
<g transform="translate(4928.00 3072.00) rotate(357) scale(112.00 864.00)"><ellipse cx="0" cy="0" rx="1" ry="1" fill="rgb(152,108,96)" fill-opacity="0.502"/></g>
<g transform="translate(8176.00 3408.00) rotate(266) scale(4576.00 1152.00)"><ellipse cx="0" cy="0" rx="1" ry="1" fill="rgb(0,0,0)" fill-opacity="0.502"/></g>
<g transform="translate(4432.00 496.00) rotate(72) scale(96.00 416.00)"><ellipse cx="0" cy="0" rx="1" ry="1" fill="rgb(0,0,0)" fill-opacity="0.502"/></g>
<g transform="translate(5648.00 1392.00) rotate(310) scale(528.00 192.00)"><ellipse cx="0" cy="0" rx="1" ry="1" fill="rgb(148,97,96)" fill-opacity="0.502"/></g>
<polygon points="2369.45,2395.08 2518.53,1838.71 3198.55,2020.92 3049.47,2577.29" fill="rgb(95,22,0)" fill-opacity="0.502"/>
<circle cx="3296.00" cy="3136.00" r="288.00" fill="rgb(171,125,102)" fill-opacity="0.502"/>
<g transform="translate(3568.00 464.00) rotate(249) scale(304.00 240.00)"><ellipse cx="0" cy="0" rx="1" ry="1" fill="rgb(30,2,0)" fill-opacity="0.502"/></g>
<g transform="translate(2672.00 1296.00) rotate(330) scale(544.00 144.00)"><ellipse cx="0" cy="0" rx="1" ry="1" fill="rgb(198,69,14)" fill-opacity="0.502"/></g>
<g transform="translate(2016.00 3056.00) rotate(85) scale(336.00 240.00)"><ellipse cx="0" cy="0" rx="1" ry="1" fill="rgb(204,163,143)" fill-opacity="0.502"/></g>
<circle cx="5568.00" cy="3056.00" r="480.00" fill="rgb(12,5,7)" fill-opacity="0.502"/>
<circle cx="672.00" cy="288.00" r="448.00" fill="rgb(0,0,0)" fill-opacity="0.502"/>
<polygon points="5572.09,3782.58 5865.96,3945.47 5803.91,4057.42 5510.04,3894.53" fill="rgb(21,9,0)" fill-opacity="0.502"/>
<g transform="translate(3472.00 2480.00) rotate(49) scale(144.00 224.00)"><ellipse cx="0" cy="0" rx="1" ry="1" fill="rgb(0,0,0)" fill-opacity="0.502"/></g>
<circle cx="3584.00" cy="2144.00" r="256.00" fill="rgb(216,166,139)" fill-opacity="0.502"/>
<g transform="translate(2992.00 464.00) rotate(203) scale(480.00 752.00)"><ellipse cx="0" cy="0" rx="1" ry="1" fill="rgb(98,24,0)" fill-opacity="0.502"/></g>
<circle cx="1344.00" cy="1520.00" r="256.00" fill="rgb(91,24,0)" fill-opacity="0.502"/>
<circle cx="4000.00" cy="3824.00" r="144.00" fill="rgb(255,243,226)" fill-opacity="0.502"/>
<polygon points="3893.72,2698.85 3554.37,3015.30 3194.28,2629.15 3533.63,2312.70" fill="rgb(4,0,0)" fill-opacity="0.502"/>
<circle cx="3392.00" cy="3968.00" r="112.00" fill="rgb(255,201,165)" fill-opacity="0.502"/>
<g transform="translate(4096.00 2336.00) rotate(48) scale(336.00 240.00)"><ellipse cx="0" cy="0" rx="1" ry="1" fill="rgb(88,20,0)" fill-opacity="0.502"/></g>
<circle cx="1312.00" cy="1904.00" r="224.00" fill="rgb(157,52,8)" fill-opacity="0.502"/>
<g transform="translate(4880.00 784.00) rotate(22) scale(448.00 256.00)"><ellipse cx="0" cy="0" rx="1" ry="1" fill="rgb(137,51,15)" fill-opacity="0.502"/></g>
<g transform="translate(2160.00 176.00) rotate(44) scale(416.00 640.00)"><ellipse cx="0" cy="0" rx="1" ry="1" fill="rgb(134,36,1)" fill-opacity="0.502"/></g>
<polygon points="1392.00,2656.00 2192.00,2656.00 2192.00,2912.00 1392.00,2912.00" fill="rgb(255,219,202)" fill-opacity="0.502"/>
<g transform="translate(3184.00 1744.00) rotate(271) scale(256.00 448.00)"><ellipse cx="0" cy="0" rx="1" ry="1" fill="rgb(44,6,0)" fill-opacity="0.502"/></g>
<polygon points="4438.12,2141.04 4575.79,1271.87 5049.88,1346.96 4912.21,2216.13" fill="rgb(39,9,0)" fill-opacity="0.502"/>
<polygon points="2059.18,2379.08 1803.54,2114.36 2148.82,1780.92 2404.46,2045.64" fill="rgb(212,74,19)" fill-opacity="0.502"/>
<polygon points="5040.02,1835.14 4974.55,1764.93 5231.98,1524.86 5297.45,1595.07" fill="rgb(180,125,114)" fill-opacity="0.502"/>
<circle cx="4192.00" cy="1984.00" r="208.00" fill="rgb(164,89,58)" fill-opacity="0.502"/>
<g transform="translate(4064.00 1984.00) rotate(291) scale(576.00 144.00)"><ellipse cx="0" cy="0" rx="1" ry="1" fill="rgb(99,26,2)" fill-opacity="0.502"/></g>
<polygon points="4719.55,2568.88 5024.45,2061.44 5120.45,2119.12 4815.55,2626.56" fill="rgb(194,119,110)" fill-opacity="0.502"/>
<polygon points="4448.13,1880.84 4370.04,2056.24 4223.87,1991.16 4301.96,1815.76" fill="rgb(248,206,184)" fill-opacity="0.502"/>
<polygon points="7078.37,655.67 6471.21,623.85 6489.63,272.33 7096.79,304.15" fill="rgb(137,83,92)" fill-opacity="0.502"/>
<polygon points="4957.31,3361.85 5136.56,3430.65 5090.69,3550.15 4911.44,3481.35" fill="rgb(65,35,21)" fill-opacity="0.502"/>
<g transform="translate(2608.00 3936.00) rotate(228) scale(144.00 400.00)"><ellipse cx="0" cy="0" rx="1" ry="1" fill="rgb(229,174,147)" fill-opacity="0.502"/></g>
<polygon points="1760.00,2608.00 2864.00,2608.00 2864.00,2752.00 1760.00,2752.00" fill="rgb(238,164,133)" fill-opacity="0.502"/>
<circle cx="5072.00" cy="0.00" r="288.00" fill="rgb(99,66,48)" fill-opacity="0.502"/>
<g transform="translate(7008.00 4224.00) rotate(1) scale(96.00 240.00)"><ellipse cx="0" cy="0" rx="1" ry="1" fill="rgb(91,62,45)" fill-opacity="0.502"/></g>
<g transform="translate(3072.00 832.00) rotate(320) scale(256.00 192.00)"><ellipse cx="0" cy="0" rx="1" ry="1" fill="rgb(135,37,3)" fill-opacity="0.502"/></g>
<circle cx="2160.00" cy="3456.00" r="96.00" fill="rgb(4,0,0)" fill-opacity="0.502"/>
<g transform="translate(2800.00 3184.00) rotate(32) scale(800.00 96.00)"><ellipse cx="0" cy="0" rx="1" ry="1" fill="rgb(247,207,186)" fill-opacity="0.502"/></g>
<circle cx="1968.00" cy="3072.00" r="224.00" fill="rgb(173,124,96)" fill-opacity="0.502"/>
<g transform="translate(1376.00 2608.00) rotate(106) scale(448.00 256.00)"><ellipse cx="0" cy="0" rx="1" ry="1" fill="rgb(226,159,131)" fill-opacity="0.502"/></g>
<circle cx="1760.00" cy="1648.00" r="192.00" fill="rgb(90,18,0)" fill-opacity="0.502"/>
<polygon points="3874.26,3603.18 3852.37,3663.32 3581.74,3564.82 3603.63,3504.68" fill="rgb(118,43,15)" fill-opacity="0.502"/>
<g transform="translate(7296.00 4592.00) rotate(141) scale(176.00 240.00)"><ellipse cx="0" cy="0" rx="1" ry="1" fill="rgb(0,0,0)" fill-opacity="0.502"/></g>
<circle cx="4160.00" cy="1520.00" r="304.00" fill="rgb(99,31,7)" fill-opacity="0.502"/>
<circle cx="1568.00" cy="2144.00" r="288.00" fill="rgb(201,73,24)" fill-opacity="0.502"/>
<polygon points="4332.69,2441.76 4945.22,2560.82 4835.31,3126.24 4222.78,3007.18" fill="rgb(130,43,11)" fill-opacity="0.502"/>
<circle cx="4576.00" cy="3984.00" r="160.00" fill="rgb(115,69,41)" fill-opacity="0.502"/>
<circle cx="0.00" cy="528.00" r="1104.00" fill="rgb(0,0,0)" fill-opacity="0.502"/>
<g transform="translate(3696.00 2400.00) rotate(80) scale(224.00 32.00)"><ellipse cx="0" cy="0" rx="1" ry="1" fill="rgb(217,155,133)" fill-opacity="0.502"/></g>
<polygon points="3293.28,1402.57 3620.93,1708.11 3522.72,1813.43 3195.07,1507.89" fill="rgb(25,4,0)" fill-opacity="0.502"/>
<g transform="translate(6336.00 0.00) rotate(151) scale(560.00 160.00)"><ellipse cx="0" cy="0" rx="1" ry="1" fill="rgb(147,113,94)" fill-opacity="0.502"/></g>
<g transform="translate(3968.00 2608.00) rotate(112) scale(144.00 224.00)"><ellipse cx="0" cy="0" rx="1" ry="1" fill="rgb(164,75,41)" fill-opacity="0.502"/></g>
<g transform="translate(4640.00 3440.00) rotate(39) scale(368.00 176.00)"><ellipse cx="0" cy="0" rx="1" ry="1" fill="rgb(255,204,178)" fill-opacity="0.502"/></g>
<g transform="translate(3328.00 2080.00) rotate(129) scale(208.00 80.00)"><ellipse cx="0" cy="0" rx="1" ry="1" fill="rgb(194,156,133)" fill-opacity="0.502"/></g>
<g transform="translate(4720.00 3184.00) rotate(89) scale(64.00 448.00)"><ellipse cx="0" cy="0" rx="1" ry="1" fill="rgb(165,103,83)" fill-opacity="0.502"/></g>
<circle cx="4752.00" cy="2528.00" r="96.00" fill="rgb(196,78,44)" fill-opacity="0.502"/>
<polygon points="1381.24,561.33 1683.57,529.56 1738.76,1054.67 1436.43,1086.44" fill="rgb(178,89,52)" fill-opacity="0.502"/>
<circle cx="6544.00" cy="4176.00" r="144.00" fill="rgb(10,7,0)" fill-opacity="0.502"/>
<polygon points="4248.69,248.18 4066.09,188.85 4135.31,-24.18 4317.91,35.15" fill="rgb(43,10,2)" fill-opacity="0.502"/>
<circle cx="2864.00" cy="432.00" r="272.00" fill="rgb(62,12,0)" fill-opacity="0.502"/>
<polygon points="5013.88,1245.82 5243.31,918.16 5466.12,1074.18 5236.69,1401.84" fill="rgb(98,25,0)" fill-opacity="0.502"/>
<g transform="translate(2960.00 1536.00) rotate(306) scale(432.00 96.00)"><ellipse cx="0" cy="0" rx="1" ry="1" fill="rgb(129,30,0)" fill-opacity="0.502"/></g>
<circle cx="4944.00" cy="1648.00" r="144.00" fill="rgb(106,46,22)" fill-opacity="0.502"/>
<polygon points="1955.13,3197.51 2161.58,3172.16 2188.87,3394.49 1982.42,3419.84" fill="rgb(255,203,181)" fill-opacity="0.502"/>
<circle cx="7776.00" cy="4096.00" r="720.00" fill="rgb(0,0,0)" fill-opacity="0.502"/>
<polygon points="1104.00,2448.00 1104.00,2112.00 1216.00,2112.00 1216.00,2448.00" fill="rgb(237,138,103)" fill-opacity="0.502"/>
<circle cx="3872.00" cy="3440.00" r="176.00" fill="rgb(255,227,207)" fill-opacity="0.502"/>
<circle cx="2224.00" cy="3184.00" r="80.00" fill="rgb(105,57,18)" fill-opacity="0.502"/>
<polygon points="3868.97,2718.28 3959.61,2869.14 3699.03,3025.72 3608.39,2874.86" fill="rgb(0,0,0)" fill-opacity="0.502"/>
<polygon points="5605.99,2260.53 5309.23,2735.44 4970.01,2523.47 5266.77,2048.56" fill="rgb(0,0,1)" fill-opacity="0.502"/>
<circle cx="6304.00" cy="2416.00" r="832.00" fill="rgb(5,8,7)" fill-opacity="0.502"/>
<g transform="translate(352.00 3152.00) rotate(277) scale(1520.00 736.00)"><ellipse cx="0" cy="0" rx="1" ry="1" fill="rgb(0,0,0)" fill-opacity="0.502"/></g>
<polygon points="1990.93,1434.20 2928.89,1111.24 3033.07,1413.80 2095.11,1736.76" fill="rgb(183,62,15)" fill-opacity="0.502"/>
<circle cx="1280.00" cy="2992.00" r="192.00" fill="rgb(141,93,69)" fill-opacity="0.502"/>
<polygon points="5249.47,488.73 4417.60,503.25 4414.53,327.27 5246.40,312.75" fill="rgb(8,4,0)" fill-opacity="0.502"/>
<polygon points="1671.23,2836.65 1422.20,3011.01 1192.77,2683.35 1441.80,2508.99" fill="rgb(242,212,191)" fill-opacity="0.502"/>
<circle cx="1344.00" cy="3280.00" r="256.00" fill="rgb(118,68,42)" fill-opacity="0.502"/>
<circle cx="2624.00" cy="1888.00" r="272.00" fill="rgb(112,26,0)" fill-opacity="0.502"/>
<g transform="translate(4896.00 3312.00) rotate(60) scale(304.00 64.00)"><ellipse cx="0" cy="0" rx="1" ry="1" fill="rgb(107,69,53)" fill-opacity="0.502"/></g>
<circle cx="2128.00" cy="688.00" r="448.00" fill="rgb(125,35,5)" fill-opacity="0.502"/>
<polygon points="2589.90,3681.41 1868.21,3418.73 1890.10,3358.59 2611.79,3621.27" fill="rgb(31,0,0)" fill-opacity="0.502"/>
<polygon points="3525.14,243.19 3880.60,338.43 3594.86,1404.81 3239.40,1309.57" fill="rgb(33,5,0)" fill-opacity="0.502"/>
<polygon points="4002.51,540.69 3900.69,642.51 3821.49,563.31 3923.31,461.49" fill="rgb(221,168,149)" fill-opacity="0.502"/>
<polygon points="3888.00,3600.00 4048.00,3600.00 4048.00,3664.00 3888.00,3664.00" fill="rgb(127,53,14)" fill-opacity="0.502"/>
<g transform="translate(2480.00 1008.00) rotate(260) scale(176.00 240.00)"><ellipse cx="0" cy="0" rx="1" ry="1" fill="rgb(86,14,0)" fill-opacity="0.502"/></g>
<polygon points="5366.48,3436.42 5588.77,3666.61 5289.52,3955.58 5067.23,3725.39" fill="rgb(213,132,82)" fill-opacity="0.502"/>
<polygon points="1927.22,4020.19 2537.58,3890.45 2600.78,4187.81 1990.42,4317.55" fill="rgb(213,153,126)" fill-opacity="0.502"/>
<polygon points="2137.81,2657.55 1199.62,2388.53 1270.19,2142.45 2208.38,2411.47" fill="rgb(246,127,83)" fill-opacity="0.502"/>
<polygon points="3664.76,238.41 3730.56,-25.51 3839.24,1.59 3773.44,265.51" fill="rgb(212,153,133)" fill-opacity="0.502"/>
<g transform="translate(2800.00 4560.00) rotate(68) scale(336.00 608.00)"><ellipse cx="0" cy="0" rx="1" ry="1" fill="rgb(123,83,58)" fill-opacity="0.502"/></g>
<g transform="translate(3264.00 2336.00) rotate(180) scale(176.00 96.00)"><ellipse cx="0" cy="0" rx="1" ry="1" fill="rgb(132,95,69)" fill-opacity="0.502"/></g>
<g transform="translate(2000.00 3072.00) rotate(258) scale(96.00 224.00)"><ellipse cx="0" cy="0" rx="1" ry="1" fill="rgb(148,102,73)" fill-opacity="0.502"/></g>
<polygon points="6117.72,4209.13 6077.58,4313.69 5674.28,4158.87 5714.42,4054.31" fill="rgb(255,219,202)" fill-opacity="0.502"/>
<circle cx="3712.00" cy="944.00" r="176.00" fill="rgb(44,6,0)" fill-opacity="0.502"/>
<g transform="translate(6560.00 128.00) rotate(225) scale(112.00 1088.00)"><ellipse cx="0" cy="0" rx="1" ry="1" fill="rgb(196,149,139)" fill-opacity="0.502"/></g>
<circle cx="5792.00" cy="2048.00" r="112.00" fill="rgb(57,33,37)" fill-opacity="0.502"/>
<circle cx="1408.00" cy="1136.00" r="256.00" fill="rgb(157,53,9)" fill-opacity="0.502"/>
<g transform="translate(5488.00 2576.00) rotate(138) scale(512.00 464.00)"><ellipse cx="0" cy="0" rx="1" ry="1" fill="rgb(14,8,9)" fill-opacity="0.502"/></g>
<circle cx="5552.00" cy="4160.00" r="128.00" fill="rgb(251,204,178)" fill-opacity="0.502"/>
<polygon points="3030.51,3763.91 3562.59,4023.43 3513.49,4124.09 2981.41,3864.57" fill="rgb(230,157,119)" fill-opacity="0.502"/>
<g transform="translate(3376.00 3040.00) rotate(218) scale(432.00 144.00)"><ellipse cx="0" cy="0" rx="1" ry="1" fill="rgb(202,145,117)" fill-opacity="0.502"/></g>
<polygon points="6098.84,-22.09 6268.03,26.43 6237.16,134.09 6067.97,85.57" fill="rgb(191,150,138)" fill-opacity="0.502"/>
<polygon points="3992.66,139.73 3960.12,-65.71 4023.34,-75.73 4055.88,129.71" fill="rgb(255,227,197)" fill-opacity="0.502"/>
<circle cx="1360.00" cy="3872.00" r="272.00" fill="rgb(81,44,21)" fill-opacity="0.502"/>
<polygon points="4529.75,3209.70 4736.96,3191.58 4766.25,3526.30 4559.04,3544.42" fill="rgb(238,189,163)" fill-opacity="0.502"/>
<circle cx="912.00" cy="4320.00" r="224.00" fill="rgb(0,0,0)" fill-opacity="0.502"/>
<g transform="translate(6368.00 4592.00) rotate(323) scale(384.00 256.00)"><ellipse cx="0" cy="0" rx="1" ry="1" fill="rgb(176,137,116)" fill-opacity="0.502"/></g>
<polygon points="4152.98,2784.27 4377.81,3033.96 4247.02,3151.73 4022.19,2902.04" fill="rgb(176,95,64)" fill-opacity="0.502"/>
<circle cx="3568.00" cy="2320.00" r="80.00" fill="rgb(29,2,0)" fill-opacity="0.502"/>
<polygon points="3521.21,3219.35 3174.79,3419.35 2990.79,3100.65 3337.21,2900.65" fill="rgb(154,109,86)" fill-opacity="0.502"/>
<g transform="translate(5264.00 560.00) rotate(337) scale(96.00 208.00)"><ellipse cx="0" cy="0" rx="1" ry="1" fill="rgb(0,0,0)" fill-opacity="0.502"/></g>
<g transform="translate(5184.00 1632.00) rotate(243) scale(64.00 192.00)"><ellipse cx="0" cy="0" rx="1" ry="1" fill="rgb(152,105,90)" fill-opacity="0.502"/></g>
<polygon points="4276.93,4029.45 4517.29,3577.38 4715.07,3682.55 4474.71,4134.62" fill="rgb(173,117,88)" fill-opacity="0.502"/>
<circle cx="4320.00" cy="2720.00" r="144.00" fill="rgb(90,23,0)" fill-opacity="0.502"/>
<polygon points="3850.04,4364.31 4313.40,4340.02 4325.96,4579.69 3862.60,4603.98" fill="rgb(228,170,140)" fill-opacity="0.502"/>
<g transform="translate(3504.00 4048.00) rotate(338) scale(208.00 160.00)"><ellipse cx="0" cy="0" rx="1" ry="1" fill="rgb(239,174,142)" fill-opacity="0.502"/></g>
<polygon points="2018.59,4601.14 1234.71,4614.82 1229.41,4310.86 2013.29,4297.18" fill="rgb(89,48,25)" fill-opacity="0.502"/>
<g transform="translate(3744.00 1920.00) rotate(95) scale(416.00 128.00)"><ellipse cx="0" cy="0" rx="1" ry="1" fill="rgb(188,133,112)" fill-opacity="0.502"/></g>
<circle cx="6288.00" cy="3440.00" r="720.00" fill="rgb(4,7,6)" fill-opacity="0.502"/>
<polygon points="2219.57,3410.62 2252.31,3375.52 2404.43,3517.38 2371.69,3552.48" fill="rgb(0,0,0)" fill-opacity="0.502"/>
<g transform="translate(4944.00 3168.00) rotate(81) scale(272.00 192.00)"><ellipse cx="0" cy="0" rx="1" ry="1" fill="rgb(135,89,79)" fill-opacity="0.502"/></g>
<g transform="translate(3376.00 4240.00) rotate(334) scale(80.00 384.00)"><ellipse cx="0" cy="0" rx="1" ry="1" fill="rgb(163,93,54)" fill-opacity="0.502"/></g>
<g transform="translate(4464.00 1920.00) rotate(296) scale(656.00 32.00)"><ellipse cx="0" cy="0" rx="1" ry="1" fill="rgb(45,10,0)" fill-opacity="0.502"/></g>
<g transform="translate(256.00 352.00) rotate(192) scale(832.00 1152.00)"><ellipse cx="0" cy="0" rx="1" ry="1" fill="rgb(0,0,0)" fill-opacity="0.502"/></g>
<polygon points="4338.26,2009.88 4815.63,1959.70 4845.74,2246.12 4368.37,2296.30" fill="rgb(71,24,3)" fill-opacity="0.502"/>
<g transform="translate(2144.00 240.00) rotate(77) scale(576.00 416.00)"><ellipse cx="0" cy="0" rx="1" ry="1" fill="rgb(134,39,7)" fill-opacity="0.502"/></g>
<circle cx="7616.00" cy="1088.00" r="768.00" fill="rgb(0,0,0)" fill-opacity="0.502"/>
<circle cx="4144.00" cy="656.00" r="96.00" fill="rgb(40,4,0)" fill-opacity="0.502"/>
<circle cx="3312.00" cy="0.00" r="240.00" fill="rgb(134,37,2)" fill-opacity="0.502"/>
<g transform="translate(2576.00 2128.00) rotate(21) scale(208.00 128.00)"><ellipse cx="0" cy="0" rx="1" ry="1" fill="rgb(167,56,8)" fill-opacity="0.502"/></g>
<g transform="translate(2512.00 0.00) rotate(160) scale(256.00 144.00)"><ellipse cx="0" cy="0" rx="1" ry="1" fill="rgb(169,55,17)" fill-opacity="0.502"/></g>
<polygon points="5064.97,4066.22 5111.85,3930.07 5959.03,4221.78 5912.15,4357.93" fill="rgb(240,196,174)" fill-opacity="0.502"/>
<polygon points="3766.03,2614.79 4038.95,2928.75 3881.97,3065.21 3609.05,2751.25" fill="rgb(0,1,0)" fill-opacity="0.502"/>
<polygon points="4508.54,810.96 4130.34,941.19 4083.46,805.04 4461.66,674.81" fill="rgb(255,186,159)" fill-opacity="0.502"/>
<polygon points="2445.80,3341.13 1947.36,2655.08 1986.20,2626.87 2484.64,3312.92" fill="rgb(249,205,179)" fill-opacity="0.502"/>
<polygon points="3910.77,3331.23 4509.26,3909.19 4409.23,4012.77 3810.74,3434.81" fill="rgb(242,214,195)" fill-opacity="0.502"/>
<g transform="translate(2448.00 3696.00) rotate(111) scale(48.00 624.00)"><ellipse cx="0" cy="0" rx="1" ry="1" fill="rgb(253,203,178)" fill-opacity="0.502"/></g>
<polygon points="5368.00,3987.92 5480.53,3722.81 5672.00,3804.08 5559.47,4069.19" fill="rgb(116,70,39)" fill-opacity="0.502"/>
<circle cx="6736.00" cy="1120.00" r="400.00" fill="rgb(4,7,7)" fill-opacity="0.502"/>
<g transform="translate(2256.00 3904.00) rotate(327) scale(304.00 192.00)"><ellipse cx="0" cy="0" rx="1" ry="1" fill="rgb(228,168,141)" fill-opacity="0.502"/></g>
<circle cx="4752.00" cy="1136.00" r="208.00" fill="rgb(42,13,0)" fill-opacity="0.502"/>
<circle cx="3536.00" cy="2096.00" r="128.00" fill="rgb(234,187,166)" fill-opacity="0.502"/>
<polygon points="4645.14,3519.08 4660.76,3564.46 4554.86,3600.92 4539.24,3555.54" fill="rgb(255,255,222)" fill-opacity="0.502"/>
<circle cx="3504.00" cy="1840.00" r="112.00" fill="rgb(31,17,2)" fill-opacity="0.502"/>
<circle cx="1568.00" cy="4256.00" r="288.00" fill="rgb(79,41,20)" fill-opacity="0.502"/>
<polygon points="3869.96,1456.57 4288.57,1037.96 4594.04,1343.43 4175.43,1762.04" fill="rgb(105,38,12)" fill-opacity="0.502"/>
<polygon points="4626.19,313.21 4610.93,391.74 4029.81,278.79 4045.07,200.26" fill="rgb(107,80,68)" fill-opacity="0.502"/>
<g transform="translate(1856.00 3104.00) rotate(274) scale(112.00 336.00)"><ellipse cx="0" cy="0" rx="1" ry="1" fill="rgb(171,123,100)" fill-opacity="0.502"/></g>
<g transform="translate(1168.00 96.00) rotate(270) scale(1984.00 64.00)"><ellipse cx="0" cy="0" rx="1" ry="1" fill="rgb(115,28,4)" fill-opacity="0.502"/></g>
<circle cx="3520.00" cy="256.00" r="192.00" fill="rgb(69,16,0)" fill-opacity="0.502"/>
<circle cx="5808.00" cy="448.00" r="192.00" fill="rgb(31,12,4)" fill-opacity="0.502"/>
<circle cx="5408.00" cy="1088.00" r="112.00" fill="rgb(21,5,0)" fill-opacity="0.502"/>
<g transform="translate(5120.00 1216.00) rotate(102) scale(400.00 208.00)"><ellipse cx="0" cy="0" rx="1" ry="1" fill="rgb(98,36,10)" fill-opacity="0.502"/></g>
<circle cx="1280.00" cy="2864.00" r="64.00" fill="rgb(113,62,42)" fill-opacity="0.502"/>
<g transform="translate(3056.00 2864.00) rotate(354) scale(192.00 80.00)"><ellipse cx="0" cy="0" rx="1" ry="1" fill="rgb(253,167,134)" fill-opacity="0.502"/></g>
<circle cx="7952.00" cy="2528.00" r="896.00" fill="rgb(0,0,0)" fill-opacity="0.502"/>
<g transform="translate(6080.00 1200.00) rotate(209) scale(64.00 528.00)"><ellipse cx="0" cy="0" rx="1" ry="1" fill="rgb(53,21,30)" fill-opacity="0.502"/></g>
<g transform="translate(4192.00 3616.00) rotate(339) scale(208.00 64.00)"><ellipse cx="0" cy="0" rx="1" ry="1" fill="rgb(211,158,132)" fill-opacity="0.502"/></g>
<polygon points="6575.71,4478.22 6232.15,4346.34 6272.29,4241.78 6615.85,4373.66" fill="rgb(240,188,168)" fill-opacity="0.502"/>
<polygon points="1777.51,2218.53 1366.66,2085.03 1470.49,1765.47 1881.34,1898.97" fill="rgb(163,51,6)" fill-opacity="0.502"/>
<polygon points="5436.83,4386.84 5882.86,4514.74 5843.17,4653.16 5397.14,4525.26" fill="rgb(214,175,148)" fill-opacity="0.502"/>
<g transform="translate(4464.00 2384.00) rotate(278) scale(144.00 144.00)"><ellipse cx="0" cy="0" rx="1" ry="1" fill="rgb(143,62,37)" fill-opacity="0.502"/></g>
<g transform="translate(3712.00 3440.00) rotate(10) scale(304.00 32.00)"><ellipse cx="0" cy="0" rx="1" ry="1" fill="rgb(255,255,231)" fill-opacity="0.502"/></g>
<polygon points="4143.03,3071.84 4483.80,3310.45 4336.97,3520.16 3996.20,3281.55" fill="rgb(215,155,129)" fill-opacity="0.502"/>
<polygon points="5776.69,1397.89 5664.74,1459.95 5455.31,1082.11 5567.26,1020.05" fill="rgb(147,105,101)" fill-opacity="0.502"/>
<circle cx="5248.00" cy="3744.00" r="224.00" fill="rgb(188,119,76)" fill-opacity="0.502"/>
<polygon points="2642.47,3198.44 2853.12,3611.87 2653.53,3713.56 2442.88,3300.13" fill="rgb(172,146,123)" fill-opacity="0.502"/>
<polygon points="1797.37,430.89 1668.99,-48.21 1962.63,-126.89 2091.01,352.21" fill="rgb(102,29,2)" fill-opacity="0.502"/>
<circle cx="4768.00" cy="4032.00" r="128.00" fill="rgb(111,69,41)" fill-opacity="0.502"/>
<g transform="translate(4944.00 2864.00) rotate(163) scale(112.00 208.00)"><ellipse cx="0" cy="0" rx="1" ry="1" fill="rgb(137,103,104)" fill-opacity="0.502"/></g>
<polygon points="4434.30,2290.71 4208.59,2601.38 3949.70,2413.29 4175.41,2102.62" fill="rgb(102,34,10)" fill-opacity="0.502"/>
<g transform="translate(4176.00 400.00) rotate(310) scale(176.00 64.00)"><ellipse cx="0" cy="0" rx="1" ry="1" fill="rgb(221,182,160)" fill-opacity="0.502"/></g>
<circle cx="3408.00" cy="48.00" r="176.00" fill="rgb(123,34,5)" fill-opacity="0.502"/>
<g transform="translate(3616.00 2736.00) rotate(144) scale(176.00 336.00)"><ellipse cx="0" cy="0" rx="1" ry="1" fill="rgb(11,5,0)" fill-opacity="0.502"/></g>
<polygon points="4008.35,2754.73 3947.06,2806.15 3751.65,2573.27 3812.94,2521.85" fill="rgb(169,112,89)" fill-opacity="0.502"/>
<polygon points="2781.81,4102.77 2173.43,4544.78 2098.19,4441.23 2706.57,3999.22" fill="rgb(184,131,101)" fill-opacity="0.502"/>
<circle cx="3280.00" cy="1808.00" r="192.00" fill="rgb(31,10,0)" fill-opacity="0.502"/>
<polygon points="3706.06,2020.38 3766.13,1641.11 3781.94,1643.62 3721.87,2022.89" fill="rgb(60,4,0)" fill-opacity="0.502"/>
<polygon points="4521.74,2834.94 4892.66,2934.33 4822.26,3197.06 4451.34,3097.67" fill="rgb(158,55,21)" fill-opacity="0.502"/>
<circle cx="6512.00" cy="4528.00" r="112.00" fill="rgb(134,98,74)" fill-opacity="0.502"/>
<polygon points="3683.49,523.87 3971.10,664.14 3676.51,1268.13 3388.90,1127.86" fill="rgb(48,13,0)" fill-opacity="0.502"/>
<circle cx="3392.00" cy="1504.00" r="176.00" fill="rgb(41,7,0)" fill-opacity="0.502"/>
<polygon points="3871.13,1315.66 3787.97,1706.92 3568.87,1660.34 3652.03,1269.08" fill="rgb(158,109,88)" fill-opacity="0.502"/>
<circle cx="3792.00" cy="3744.00" r="112.00" fill="rgb(255,238,209)" fill-opacity="0.502"/>
<polygon points="5041.81,2009.87 5120.62,2110.73 5070.19,2150.13 4991.38,2049.27" fill="rgb(133,77,89)" fill-opacity="0.502"/>
<g transform="translate(2960.00 2336.00) rotate(315) scale(160.00 112.00)"><ellipse cx="0" cy="0" rx="1" ry="1" fill="rgb(59,11,0)" fill-opacity="0.502"/></g>
<g transform="translate(6560.00 3024.00) rotate(354) scale(592.00 1248.00)"><ellipse cx="0" cy="0" rx="1" ry="1" fill="rgb(7,7,6)" fill-opacity="0.502"/></g>
<circle cx="6112.00" cy="4592.00" r="160.00" fill="rgb(199,170,144)" fill-opacity="0.502"/>
<polygon points="5356.83,2990.22 5316.91,2802.41 5395.17,2785.78 5435.09,2973.59" fill="rgb(71,39,44)" fill-opacity="0.502"/>
<g transform="translate(4576.00 2640.00) rotate(161) scale(256.00 80.00)"><ellipse cx="0" cy="0" rx="1" ry="1" fill="rgb(109,32,7)" fill-opacity="0.502"/></g>
<polygon points="1364.53,2905.84 1271.68,2843.21 1307.47,2790.16 1400.32,2852.79" fill="rgb(108,60,31)" fill-opacity="0.502"/>
<polygon points="2472.88,1310.93 2013.39,1375.51 1991.12,1217.07 2450.61,1152.49" fill="rgb(159,51,9)" fill-opacity="0.502"/>
<circle cx="1824.00" cy="2832.00" r="128.00" fill="rgb(249,210,184)" fill-opacity="0.502"/>
<polygon points="2768.00,3456.00 3136.00,3456.00 3136.00,3584.00 2768.00,3584.00" fill="rgb(78,53,27)" fill-opacity="0.502"/>
<polygon points="6561.55,599.37 7057.24,616.68 7054.45,696.63 6558.76,679.32" fill="rgb(67,20,28)" fill-opacity="0.502"/>
<polygon points="2614.65,3384.42 2671.08,3306.76 3305.35,3767.58 3248.92,3845.24" fill="rgb(123,83,49)" fill-opacity="0.502"/>
<circle cx="1280.00" cy="1552.00" r="192.00" fill="rgb(81,19,0)" fill-opacity="0.502"/>
<g transform="translate(1760.00 4128.00) rotate(0) scale(144.00 752.00)"><ellipse cx="0" cy="0" rx="1" ry="1" fill="rgb(107,58,33)" fill-opacity="0.502"/></g>
<g transform="translate(4176.00 720.00) rotate(248) scale(16.00 256.00)"><ellipse cx="0" cy="0" rx="1" ry="1" fill="rgb(129,75,53)" fill-opacity="0.502"/></g>
<polygon points="2388.58,3541.17 2378.83,3620.58 2299.42,3610.83 2309.17,3531.42" fill="rgb(24,0,0)" fill-opacity="0.502"/>
<polygon points="6614.70,310.79 6942.79,-17.30 7033.30,73.21 6705.21,401.30" fill="rgb(170,114,119)" fill-opacity="0.502"/>
<g transform="translate(6208.00 224.00) rotate(136) scale(368.00 32.00)"><ellipse cx="0" cy="0" rx="1" ry="1" fill="rgb(73,44,32)" fill-opacity="0.502"/></g>
<circle cx="7888.00" cy="3920.00" r="816.00" fill="rgb(0,0,0)" fill-opacity="0.502"/>
<circle cx="4320.00" cy="1424.00" r="176.00" fill="rgb(123,46,22)" fill-opacity="0.502"/>
<circle cx="3616.00" cy="4000.00" r="112.00" fill="rgb(251,204,180)" fill-opacity="0.502"/>
<polygon points="3813.16,1091.63 3961.30,863.51 4202.84,1020.37 4054.70,1248.49" fill="rgb(237,174,154)" fill-opacity="0.502"/>
<polygon points="4456.64,3316.97 4411.09,3419.28 3943.36,3211.03 3988.91,3108.72" fill="rgb(224,168,144)" fill-opacity="0.502"/>
<polygon points="5440.12,4564.37 5538.17,4482.09 5599.88,4555.63 5501.83,4637.91" fill="rgb(236,191,168)" fill-opacity="0.502"/>
<g transform="translate(5600.00 3136.00) rotate(358) scale(416.00 416.00)"><ellipse cx="0" cy="0" rx="1" ry="1" fill="rgb(19,9,8)" fill-opacity="0.502"/></g>
<polygon points="5046.04,1883.09 5271.54,1730.99 5369.96,1876.91 5144.46,2029.01" fill="rgb(0,0,0)" fill-opacity="0.502"/>
<polygon points="3755.95,3069.34 3765.98,2973.87 4116.05,3010.66 4106.02,3106.13" fill="rgb(34,23,13)" fill-opacity="0.502"/>
<polygon points="3114.59,659.61 3282.52,566.52 3445.41,860.39 3277.48,953.48" fill="rgb(104,24,0)" fill-opacity="0.502"/>
<g transform="translate(4624.00 4432.00) rotate(355) scale(112.00 336.00)"><ellipse cx="0" cy="0" rx="1" ry="1" fill="rgb(236,188,163)" fill-opacity="0.502"/></g>
<polygon points="5558.55,1958.35 5450.00,1890.52 5865.45,1225.65 5974.00,1293.48" fill="rgb(116,68,70)" fill-opacity="0.502"/>
<circle cx="3216.00" cy="4592.00" r="336.00" fill="rgb(136,90,65)" fill-opacity="0.502"/>
<circle cx="3440.00" cy="3664.00" r="64.00" fill="rgb(215,160,131)" fill-opacity="0.502"/>
<polygon points="3823.71,2189.72 3757.91,2453.64 3680.29,2434.28 3746.09,2170.36" fill="rgb(203,141,112)" fill-opacity="0.502"/>
<circle cx="4592.00" cy="2912.00" r="48.00" fill="rgb(224,114,92)" fill-opacity="0.502"/>
<polygon points="3153.53,2969.60 3209.11,2912.05 3646.47,3334.40 3590.89,3391.95" fill="rgb(166,116,89)" fill-opacity="0.502"/>
<circle cx="4448.00" cy="4000.00" r="64.00" fill="rgb(120,66,47)" fill-opacity="0.502"/>
<circle cx="4016.00" cy="1488.00" r="144.00" fill="rgb(57,19,3)" fill-opacity="0.502"/>
<circle cx="2592.00" cy="3552.00" r="48.00" fill="rgb(255,225,191)" fill-opacity="0.502"/>
<polygon points="4261.95,1523.06 4406.39,1714.73 4138.05,1916.94 3993.61,1725.27" fill="rgb(125,45,24)" fill-opacity="0.502"/>
<circle cx="3648.00" cy="3696.00" r="80.00" fill="rgb(232,190,164)" fill-opacity="0.502"/>
<g transform="translate(6880.00 4320.00) rotate(47) scale(112.00 128.00)"><ellipse cx="0" cy="0" rx="1" ry="1" fill="rgb(82,52,26)" fill-opacity="0.502"/></g>
<circle cx="3408.00" cy="1664.00" r="192.00" fill="rgb(40,10,0)" fill-opacity="0.502"/>
<g transform="translate(4432.00 1184.00) rotate(201) scale(160.00 368.00)"><ellipse cx="0" cy="0" rx="1" ry="1" fill="rgb(105,39,12)" fill-opacity="0.502"/></g>
<g transform="translate(3488.00 4208.00) rotate(52) scale(512.00 64.00)"><ellipse cx="0" cy="0" rx="1" ry="1" fill="rgb(200,130,93)" fill-opacity="0.502"/></g>
<g transform="translate(5024.00 0.00) rotate(265) scale(208.00 112.00)"><ellipse cx="0" cy="0" rx="1" ry="1" fill="rgb(106,75,57)" fill-opacity="0.502"/></g>
<polygon points="1258.30,2579.00 1935.03,2773.05 1877.70,2973.00 1200.97,2778.95" fill="rgb(245,210,186)" fill-opacity="0.502"/>
<circle cx="6208.00" cy="4496.00" r="176.00" fill="rgb(171,133,110)" fill-opacity="0.502"/>
<g transform="translate(5664.00 368.00) rotate(308) scale(480.00 80.00)"><ellipse cx="0" cy="0" rx="1" ry="1" fill="rgb(64,38,31)" fill-opacity="0.502"/></g>
<polygon points="5741.03,1976.61 5613.73,1989.99 5586.97,1735.39 5714.27,1722.01" fill="rgb(82,40,44)" fill-opacity="0.502"/>
<circle cx="3952.00" cy="384.00" r="80.00" fill="rgb(232,195,179)" fill-opacity="0.502"/>
<circle cx="6528.00" cy="1488.00" r="560.00" fill="rgb(6,7,7)" fill-opacity="0.502"/>
<polygon points="4139.77,3991.86 4156.19,3946.75 5028.23,4264.14 5011.81,4309.25" fill="rgb(171,131,108)" fill-opacity="0.502"/>
<circle cx="736.00" cy="4032.00" r="368.00" fill="rgb(0,0,0)" fill-opacity="0.502"/>
<circle cx="4720.00" cy="2304.00" r="128.00" fill="rgb(48,24,4)" fill-opacity="0.502"/>
<polygon points="3566.80,3037.09 4013.09,3076.13 3985.20,3394.91 3538.91,3355.87" fill="rgb(221,157,128)" fill-opacity="0.502"/>
<g transform="translate(5536.00 0.00) rotate(270) scale(384.00 144.00)"><ellipse cx="0" cy="0" rx="1" ry="1" fill="rgb(4,0,0)" fill-opacity="0.502"/></g>
<circle cx="6672.00" cy="4288.00" r="80.00" fill="rgb(74,44,21)" fill-opacity="0.502"/>
<polygon points="1226.81,942.31 1810.45,1335.98 1685.19,1521.69 1101.55,1128.02" fill="rgb(144,47,10)" fill-opacity="0.502"/>
<g transform="translate(4560.00 608.00) rotate(84) scale(64.00 240.00)"><ellipse cx="0" cy="0" rx="1" ry="1" fill="rgb(112,55,24)" fill-opacity="0.502"/></g>
<polygon points="2972.62,3272.81 2892.71,3429.62 2707.38,3335.19 2787.29,3178.38" fill="rgb(251,211,187)" fill-opacity="0.502"/>
<polygon points="3708.30,3355.20 3713.88,3418.96 3235.70,3460.80 3230.12,3397.04" fill="rgb(253,216,185)" fill-opacity="0.502"/>
<circle cx="2720.00" cy="3056.00" r="272.00" fill="rgb(237,186,161)" fill-opacity="0.502"/>
<g transform="translate(2144.00 544.00) rotate(202) scale(352.00 176.00)"><ellipse cx="0" cy="0" rx="1" ry="1" fill="rgb(147,43,8)" fill-opacity="0.502"/></g>
<polygon points="5662.42,3492.87 5102.51,3483.10 5105.58,3307.13 5665.49,3316.90" fill="rgb(37,14,7)" fill-opacity="0.502"/>
<polygon points="4544.40,3795.01 4560.81,3749.90 5327.60,4028.99 5311.19,4074.10" fill="rgb(255,218,187)" fill-opacity="0.502"/>
<polygon points="4223.55,1883.81 4407.04,1755.33 4480.45,1860.19 4296.96,1988.67" fill="rgb(224,171,146)" fill-opacity="0.502"/>
<polygon points="6309.36,408.27 6393.41,666.96 6058.64,775.73 5974.59,517.04" fill="rgb(164,117,114)" fill-opacity="0.502"/>
<polygon points="2900.57,2943.43 2372.73,2811.82 2411.43,2656.57 2939.27,2788.18" fill="rgb(227,158,126)" fill-opacity="0.502"/>
<g transform="translate(2976.00 704.00) rotate(95) scale(128.00 224.00)"><ellipse cx="0" cy="0" rx="1" ry="1" fill="rgb(116,31,3)" fill-opacity="0.502"/></g>
<polygon points="4926.44,3853.89 4561.02,3691.19 4593.56,3618.11 4958.98,3780.81" fill="rgb(142,67,27)" fill-opacity="0.502"/>
<polygon points="4828.07,2146.07 4666.42,2276.97 4595.93,2189.93 4757.58,2059.03" fill="rgb(108,42,20)" fill-opacity="0.502"/>
<polygon points="3852.60,4290.30 3888.72,4495.14 3715.40,4525.70 3679.28,4320.86" fill="rgb(210,144,108)" fill-opacity="0.502"/>
<g transform="translate(2704.00 1776.00) rotate(12) scale(320.00 128.00)"><ellipse cx="0" cy="0" rx="1" ry="1" fill="rgb(107,23,0)" fill-opacity="0.502"/></g>
<g transform="translate(3920.00 608.00) rotate(153) scale(160.00 32.00)"><ellipse cx="0" cy="0" rx="1" ry="1" fill="rgb(145,99,75)" fill-opacity="0.502"/></g>
<polygon points="4812.40,2762.32 4797.13,2840.85 4451.60,2773.68 4466.87,2695.15" fill="rgb(66,31,13)" fill-opacity="0.502"/>
<g transform="translate(3008.00 0.00) rotate(88) scale(112.00 400.00)"><ellipse cx="0" cy="0" rx="1" ry="1" fill="rgb(132,35,2)" fill-opacity="0.502"/></g>
<circle cx="3344.00" cy="3024.00" r="176.00" fill="rgb(172,133,111)" fill-opacity="0.502"/>
<circle cx="7408.00" cy="3280.00" r="352.00" fill="rgb(0,0,0)" fill-opacity="0.502"/>
<circle cx="3040.00" cy="2592.00" r="80.00" fill="rgb(203,74,35)" fill-opacity="0.502"/>
<circle cx="6960.00" cy="416.00" r="128.00" fill="rgb(127,80,91)" fill-opacity="0.502"/>
<polygon points="4920.66,3588.16 5298.87,3457.94 5335.34,3563.84 4957.13,3694.06" fill="rgb(219,153,116)" fill-opacity="0.502"/>
<polygon points="3839.95,1986.05 3860.52,2010.56 3456.05,2349.95 3435.48,2325.44" fill="rgb(146,95,69)" fill-opacity="0.502"/>
<circle cx="5168.00" cy="3744.00" r="208.00" fill="rgb(187,119,78)" fill-opacity="0.502"/>
<polygon points="4031.50,2356.32 3830.22,2487.03 3760.50,2379.68 3961.78,2248.97" fill="rgb(77,28,9)" fill-opacity="0.502"/>
<g transform="translate(1472.00 752.00) rotate(201) scale(160.00 240.00)"><ellipse cx="0" cy="0" rx="1" ry="1" fill="rgb(170,80,44)" fill-opacity="0.502"/></g>
<polygon points="4546.18,757.31 4581.03,810.98 4285.82,1002.69 4250.97,949.02" fill="rgb(180,103,81)" fill-opacity="0.502"/>
<g transform="translate(3840.00 256.00) rotate(196) scale(80.00 400.00)"><ellipse cx="0" cy="0" rx="1" ry="1" fill="rgb(52,22,4)" fill-opacity="0.502"/></g>
<circle cx="400.00" cy="1456.00" r="704.00" fill="rgb(0,0,0)" fill-opacity="0.502"/>
<g transform="translate(3216.00 368.00) rotate(226) scale(256.00 192.00)"><ellipse cx="0" cy="0" rx="1" ry="1" fill="rgb(70,16,0)" fill-opacity="0.502"/></g>
<polygon points="4830.98,1821.65 4525.44,2149.30 4385.02,2018.35 4690.56,1690.70" fill="rgb(38,11,0)" fill-opacity="0.502"/>
<circle cx="3776.00" cy="1968.00" r="64.00" fill="rgb(198,143,121)" fill-opacity="0.502"/>
<polygon points="3903.42,1653.51 4282.69,1713.58 4192.58,2282.49 3813.31,2222.42" fill="rgb(100,34,11)" fill-opacity="0.502"/>
<g transform="translate(3312.00 1536.00) rotate(225) scale(240.00 272.00)"><ellipse cx="0" cy="0" rx="1" ry="1" fill="rgb(45,11,0)" fill-opacity="0.502"/></g>
<g transform="translate(7696.00 176.00) rotate(272) scale(2800.00 608.00)"><ellipse cx="0" cy="0" rx="1" ry="1" fill="rgb(0,0,0)" fill-opacity="0.502"/></g>
<g transform="translate(1696.00 3152.00) rotate(144) scale(16.00 352.00)"><ellipse cx="0" cy="0" rx="1" ry="1" fill="rgb(151,101,74)" fill-opacity="0.502"/></g>
<polygon points="1359.10,129.42 1514.71,-31.71 1744.90,190.58 1589.29,351.71" fill="rgb(157,80,55)" fill-opacity="0.502"/>
<polygon points="1434.91,4079.01 1301.39,4025.07 1589.09,3312.99 1722.61,3366.93" fill="rgb(92,50,30)" fill-opacity="0.502"/>
<g transform="translate(3392.00 1104.00) rotate(114) scale(336.00 144.00)"><ellipse cx="0" cy="0" rx="1" ry="1" fill="rgb(36,9,0)" fill-opacity="0.502"/></g>
<circle cx="4016.00" cy="2528.00" r="144.00" fill="rgb(129,45,14)" fill-opacity="0.502"/>
<circle cx="3152.00" cy="4064.00" r="160.00" fill="rgb(150,83,43)" fill-opacity="0.502"/>
<g transform="translate(1696.00 1056.00) rotate(135) scale(96.00 96.00)"><ellipse cx="0" cy="0" rx="1" ry="1" fill="rgb(167,57,10)" fill-opacity="0.502"/></g>
<polygon points="6857.78,556.91 6937.16,148.56 7094.22,179.09 7014.84,587.44" fill="rgb(129,80,91)" fill-opacity="0.502"/>
<circle cx="1536.00" cy="1888.00" r="112.00" fill="rgb(192,71,22)" fill-opacity="0.502"/>
<circle cx="5952.00" cy="2848.00" r="448.00" fill="rgb(4,6,5)" fill-opacity="0.502"/>
<g transform="translate(1280.00 2912.00) rotate(319) scale(80.00 48.00)"><ellipse cx="0" cy="0" rx="1" ry="1" fill="rgb(216,167,146)" fill-opacity="0.502"/></g>
<polygon points="2409.52,490.25 2406.44,666.22 2150.48,661.75 2153.56,485.78" fill="rgb(159,52,17)" fill-opacity="0.502"/>
<g transform="translate(6128.00 1744.00) rotate(300) scale(336.00 272.00)"><ellipse cx="0" cy="0" rx="1" ry="1" fill="rgb(8,7,7)" fill-opacity="0.502"/></g>
<polygon points="4818.41,1438.60 4725.51,1811.20 4461.59,1745.40 4554.49,1372.80" fill="rgb(41,14,2)" fill-opacity="0.502"/>
<g transform="translate(4704.00 3488.00) rotate(168) scale(160.00 224.00)"><ellipse cx="0" cy="0" rx="1" ry="1" fill="rgb(235,188,162)" fill-opacity="0.502"/></g>
<circle cx="5008.00" cy="2128.00" r="80.00" fill="rgb(133,91,102)" fill-opacity="0.502"/>
<polygon points="2048.00,2928.00 2144.00,2928.00 2144.00,3040.00 2048.00,3040.00" fill="rgb(129,74,36)" fill-opacity="0.502"/>
<polygon points="2989.59,3827.08 2899.08,3917.59 2514.41,3532.92 2604.92,3442.41" fill="rgb(231,188,166)" fill-opacity="0.502"/>
<polygon points="1600.56,3535.87 1321.32,3165.31 1487.44,3040.13 1766.68,3410.69" fill="rgb(128,74,49)" fill-opacity="0.502"/>
<circle cx="6080.00" cy="4144.00" r="48.00" fill="rgb(132,82,53)" fill-opacity="0.502"/>
<polygon points="5120.00,3104.00 5280.00,3104.00 5280.00,3472.00 5120.00,3472.00" fill="rgb(62,26,20)" fill-opacity="0.502"/>
<polygon points="4028.87,3448.06 4215.94,3404.87 4259.13,3591.94 4072.06,3635.13" fill="rgb(249,212,188)" fill-opacity="0.502"/>
<circle cx="3520.00" cy="3808.00" r="64.00" fill="rgb(46,5,0)" fill-opacity="0.502"/>
<polygon points="2157.48,3551.33 2177.55,3742.28 2002.52,3760.67 1982.45,3569.72" fill="rgb(218,159,127)" fill-opacity="0.502"/>
<g transform="translate(3776.00 3056.00) rotate(38) scale(64.00 32.00)"><ellipse cx="0" cy="0" rx="1" ry="1" fill="rgb(125,95,71)" fill-opacity="0.502"/></g>
<circle cx="1760.00" cy="3408.00" r="160.00" fill="rgb(135,79,53)" fill-opacity="0.502"/>
<polygon points="4423.23,1142.07 4587.78,945.97 5016.77,1305.93 4852.22,1502.03" fill="rgb(49,16,5)" fill-opacity="0.502"/>
<g transform="translate(1504.00 0.00) rotate(67) scale(80.00 192.00)"><ellipse cx="0" cy="0" rx="1" ry="1" fill="rgb(126,47,23)" fill-opacity="0.502"/></g>
<g transform="translate(4656.00 2480.00) rotate(290) scale(48.00 32.00)"><ellipse cx="0" cy="0" rx="1" ry="1" fill="rgb(216,131,101)" fill-opacity="0.502"/></g>
<g transform="translate(4896.00 608.00) rotate(14) scale(336.00 128.00)"><ellipse cx="0" cy="0" rx="1" ry="1" fill="rgb(92,34,13)" fill-opacity="0.502"/></g>
<g transform="translate(320.00 3056.00) rotate(190) scale(736.00 1616.00)"><ellipse cx="0" cy="0" rx="1" ry="1" fill="rgb(0,0,0)" fill-opacity="0.502"/></g>
<polygon points="4406.79,293.88 4817.65,160.38 4857.21,282.12 4446.35,415.62" fill="rgb(81,57,43)" fill-opacity="0.502"/>
<polygon points="2893.85,3164.47 2422.67,3072.88 2450.15,2931.53 2921.33,3023.12" fill="rgb(245,208,185)" fill-opacity="0.502"/>
<polygon points="1774.29,2596.45 1829.01,2446.10 2129.71,2555.55 2074.99,2705.90" fill="rgb(228,149,117)" fill-opacity="0.502"/>
<polygon points="4438.91,4196.21 4484.78,4076.71 4649.09,4139.79 4603.22,4259.29" fill="rgb(208,166,139)" fill-opacity="0.502"/>
<polygon points="3756.51,1205.05 3583.74,1529.97 3555.49,1514.95 3728.26,1190.03" fill="rgb(236,191,172)" fill-opacity="0.502"/>
<circle cx="5152.00" cy="2912.00" r="80.00" fill="rgb(52,19,25)" fill-opacity="0.502"/>
<circle cx="5376.00" cy="4320.00" r="112.00" fill="rgb(117,82,57)" fill-opacity="0.502"/>
<circle cx="5712.00" cy="1120.00" r="224.00" fill="rgb(154,109,104)" fill-opacity="0.502"/>
<circle cx="3440.00" cy="1168.00" r="240.00" fill="rgb(37,9,0)" fill-opacity="0.502"/>
<circle cx="2416.00" cy="1456.00" r="128.00" fill="rgb(193,68,22)" fill-opacity="0.502"/>
<polygon points="5593.15,637.68 5215.26,246.35 5318.85,146.32 5696.74,537.65" fill="rgb(58,27,22)" fill-opacity="0.502"/>
<polygon points="4706.13,1933.67 4657.14,1585.09 4989.87,1538.33 5038.86,1886.91" fill="rgb(74,27,14)" fill-opacity="0.502"/>
<circle cx="4224.00" cy="4224.00" r="192.00" fill="rgb(243,198,174)" fill-opacity="0.502"/>
<g transform="translate(5504.00 704.00) rotate(204) scale(176.00 272.00)"><ellipse cx="0" cy="0" rx="1" ry="1" fill="rgb(43,16,7)" fill-opacity="0.502"/></g>
<circle cx="3472.00" cy="3600.00" r="128.00" fill="rgb(181,128,109)" fill-opacity="0.502"/>
<circle cx="3600.00" cy="464.00" r="144.00" fill="rgb(23,8,0)" fill-opacity="0.502"/>
<polygon points="5388.22,4533.44 4314.11,4163.59 4355.78,4042.56 5429.89,4412.41" fill="rgb(203,167,143)" fill-opacity="0.502"/>
<g transform="translate(5088.00 848.00) rotate(335) scale(160.00 336.00)"><ellipse cx="0" cy="0" rx="1" ry="1" fill="rgb(105,42,18)" fill-opacity="0.502"/></g>
<g transform="translate(1232.00 4256.00) rotate(269) scale(912.00 128.00)"><ellipse cx="0" cy="0" rx="1" ry="1" fill="rgb(72,37,17)" fill-opacity="0.502"/></g>
<g transform="translate(4992.00 4544.00) rotate(204) scale(1536.00 144.00)"><ellipse cx="0" cy="0" rx="1" ry="1" fill="rgb(243,197,173)" fill-opacity="0.502"/></g>
</g>
</svg>