<?xml version="1.0" standalone="no"?>
<svg xmlns="http://www.w3.org/2000/svg" width="8192" height="4608" viewBox="0 0 8192 4608" style="overflow:hidden">
<defs>
<clipPath id="c"><rect x="0" y="0" width="8192" height="4608"/></clipPath>
</defs>
<rect width="8192" height="4608" fill="rgb(15,37,71)"/>
<g clip-path="url(#c)">
<circle cx="2336.00" cy="2832.00" r="1632.00" fill="rgb(2,136,255)" fill-opacity="0.502"/>
<circle cx="6192.00" cy="1328.00" r="944.00" fill="rgb(12,151,255)" fill-opacity="0.502"/>
<circle cx="4480.00" cy="2608.00" r="1536.00" fill="rgb(85,13,0)" fill-opacity="0.502"/>
<g transform="translate(4512.00 2640.00) rotate(229) scale(528.00 432.00)"><ellipse cx="0" cy="0" rx="1" ry="1" fill="rgb(249,100,65)" fill-opacity="0.502"/></g>
<g transform="translate(1712.00 4256.00) rotate(102) scale(784.00 592.00)"><ellipse cx="0" cy="0" rx="1" ry="1" fill="rgb(22,138,255)" fill-opacity="0.502"/></g>
<g transform="translate(1968.00 1776.00) rotate(317) scale(960.00 832.00)"><ellipse cx="0" cy="0" rx="1" ry="1" fill="rgb(9,135,255)" fill-opacity="0.502"/></g>
<circle cx="3120.00" cy="1680.00" r="320.00" fill="rgb(0,0,0)" fill-opacity="0.502"/>
<g transform="translate(368.00 2592.00) rotate(180) scale(752.00 4592.00)"><ellipse cx="0" cy="0" rx="1" ry="1" fill="rgb(0,0,0)" fill-opacity="0.502"/></g>
<g transform="translate(6288.00 1776.00) rotate(334) scale(544.00 1120.00)"><ellipse cx="0" cy="0" rx="1" ry="1" fill="rgb(13,155,255)" fill-opacity="0.502"/></g>
<g transform="translate(4160.00 1472.00) rotate(0) scale(544.00 432.00)"><ellipse cx="0" cy="0" rx="1" ry="1" fill="rgb(255,118,70)" fill-opacity="0.502"/></g>
<circle cx="7984.00" cy="1120.00" r="1296.00" fill="rgb(0,0,0)" fill-opacity="0.502"/>
<circle cx="3728.00" cy="2752.00" r="352.00" fill="rgb(0,148,255)" fill-opacity="0.502"/>
<circle cx="2624.00" cy="4000.00" r="656.00" fill="rgb(7,139,255)" fill-opacity="0.502"/>
<circle cx="6912.00" cy="3936.00" r="1424.00" fill="rgb(0,0,0)" fill-opacity="0.502"/>
<circle cx="4128.00" cy="0.00" r="1168.00" fill="rgb(6,0,0)" fill-opacity="0.502"/>
<circle cx="3440.00" cy="1088.00" r="272.00" fill="rgb(16,127,255)" fill-opacity="0.502"/>
<g transform="translate(2560.00 2720.00) rotate(144) scale(496.00 592.00)"><ellipse cx="0" cy="0" rx="1" ry="1" fill="rgb(10,175,255)" fill-opacity="0.502"/></g>
<circle cx="4192.00" cy="4064.00" r="976.00" fill="rgb(3,0,0)" fill-opacity="0.502"/>
<polygon points="3642.74,1826.96 3387.72,1849.27 3301.26,861.04 3556.28,838.73" fill="rgb(7,150,255)" fill-opacity="0.502"/>
<circle cx="6080.00" cy="2816.00" r="336.00" fill="rgb(10,0,0)" fill-opacity="0.502"/>
<circle cx="1536.00" cy="3024.00" r="448.00" fill="rgb(7,163,255)" fill-opacity="0.502"/>
<circle cx="1760.00" cy="544.00" r="608.00" fill="rgb(0,0,0)" fill-opacity="0.502"/>
<polygon points="5186.87,463.00 6569.00,194.34 6749.13,1121.00 5367.00,1389.66" fill="rgb(15,123,255)" fill-opacity="0.502"/>
<circle cx="528.00" cy="2800.00" r="592.00" fill="rgb(0,0,0)" fill-opacity="0.502"/>
<circle cx="8176.00" cy="3392.00" r="1488.00" fill="rgb(0,0,0)" fill-opacity="0.502"/>
<circle cx="6832.00" cy="2592.00" r="256.00" fill="rgb(23,144,255)" fill-opacity="0.502"/>
<circle cx="2848.00" cy="224.00" r="736.00" fill="rgb(0,0,0)" fill-opacity="0.502"/>
<polygon points="2872.18,1704.68 3360.64,1618.55 3671.82,3383.32 3183.36,3469.45" fill="rgb(0,0,11)" fill-opacity="0.502"/>
<g transform="translate(5744.00 3680.00) rotate(240) scale(1168.00 1312.00)"><ellipse cx="0" cy="0" rx="1" ry="1" fill="rgb(20,0,0)" fill-opacity="0.502"/></g>
<circle cx="7728.00" cy="688.00" r="1088.00" fill="rgb(0,0,0)" fill-opacity="0.502"/>
<circle cx="5168.00" cy="1328.00" r="496.00" fill="rgb(19,0,0)" fill-opacity="0.502"/>
<circle cx="1504.00" cy="1520.00" r="416.00" fill="rgb(8,112,255)" fill-opacity="0.502"/>
<circle cx="656.00" cy="496.00" r="896.00" fill="rgb(0,0,0)" fill-opacity="0.502"/>
<g transform="translate(2320.00 1184.00) rotate(0) scale(480.00 256.00)"><ellipse cx="0" cy="0" rx="1" ry="1" fill="rgb(12,141,255)" fill-opacity="0.502"/></g>
<g transform="translate(1712.00 4080.00) rotate(24) scale(480.00 592.00)"><ellipse cx="0" cy="0" rx="1" ry="1" fill="rgb(21,123,255)" fill-opacity="0.502"/></g>
<circle cx="6544.00" cy="2224.00" r="400.00" fill="rgb(13,154,255)" fill-opacity="0.502"/>
<circle cx="5488.00" cy="0.00" r="384.00" fill="rgb(0,0,0)" fill-opacity="0.502"/>
<circle cx="2544.00" cy="2656.00" r="512.00" fill="rgb(10,138,255)" fill-opacity="0.502"/>
<g transform="translate(4816.00 2304.00) rotate(332) scale(320.00 128.00)"><ellipse cx="0" cy="0" rx="1" ry="1" fill="rgb(237,87,55)" fill-opacity="0.502"/></g>
<circle cx="1568.00" cy="2800.00" r="480.00" fill="rgb(8,125,255)" fill-opacity="0.502"/>
<circle cx="2864.00" cy="4032.00" r="400.00" fill="rgb(7,148,255)" fill-opacity="0.502"/>
<polygon points="3045.90,1661.21 2745.80,1350.46 3114.10,994.79 3414.20,1305.54" fill="rgb(0,0,0)" fill-opacity="0.502"/>
<g transform="translate(6288.00 1744.00) rotate(149) scale(624.00 240.00)"><ellipse cx="0" cy="0" rx="1" ry="1" fill="rgb(14,146,255)" fill-opacity="0.502"/></g>
<circle cx="6368.00" cy="2000.00" r="544.00" fill="rgb(15,136,255)" fill-opacity="0.502"/>
<g transform="translate(784.00 2336.00) rotate(269) scale(5936.00 304.00)"><ellipse cx="0" cy="0" rx="1" ry="1" fill="rgb(0,0,0)" fill-opacity="0.502"/></g>
<g transform="translate(4128.00 1584.00) rotate(309) scale(416.00 240.00)"><ellipse cx="0" cy="0" rx="1" ry="1" fill="rgb(255,109,82)" fill-opacity="0.502"/></g>
<circle cx="4528.00" cy="2000.00" r="272.00" fill="rgb(0,0,0)" fill-opacity="0.502"/>
<g transform="translate(4320.00 544.00) rotate(27) scale(1040.00 432.00)"><ellipse cx="0" cy="0" rx="1" ry="1" fill="rgb(8,0,0)" fill-opacity="0.502"/></g>
<g transform="translate(3584.00 3824.00) rotate(74) scale(784.00 320.00)"><ellipse cx="0" cy="0" rx="1" ry="1" fill="rgb(0,0,0)" fill-opacity="0.502"/></g>
<circle cx="2352.00" cy="1504.00" r="512.00" fill="rgb(11,137,255)" fill-opacity="0.502"/>
<circle cx="336.00" cy="3872.00" r="784.00" fill="rgb(0,0,0)" fill-opacity="0.502"/>
<g transform="translate(1312.00 432.00) rotate(182) scale(1936.00 608.00)"><ellipse cx="0" cy="0" rx="1" ry="1" fill="rgb(2,0,0)" fill-opacity="0.502"/></g>
<circle cx="272.00" cy="2000.00" r="832.00" fill="rgb(0,0,0)" fill-opacity="0.502"/>
<g transform="translate(5936.00 1472.00) rotate(347) scale(880.00 80.00)"><ellipse cx="0" cy="0" rx="1" ry="1" fill="rgb(6,0,9)" fill-opacity="0.502"/></g>
<circle cx="7664.00" cy="2240.00" r="736.00" fill="rgb(0,0,0)" fill-opacity="0.502"/>
<g transform="translate(1904.00 2224.00) rotate(237) scale(112.00 160.00)"><ellipse cx="0" cy="0" rx="1" ry="1" fill="rgb(8,0,10)" fill-opacity="0.502"/></g>
<polygon points="5535.25,3072.20 4914.99,2858.63 5232.75,1935.80 5853.01,2149.37" fill="rgb(0,0,0)" fill-opacity="0.502"/>
<g transform="translate(2784.00 3888.00) rotate(20) scale(480.00 560.00)"><ellipse cx="0" cy="0" rx="1" ry="1" fill="rgb(8,137,255)" fill-opacity="0.502"/></g>
<circle cx="4144.00" cy="3488.00" r="448.00" fill="rgb(0,0,0)" fill-opacity="0.502"/>
<circle cx="2352.00" cy="4592.00" r="192.00" fill="rgb(8,0,27)" fill-opacity="0.502"/>
<circle cx="3504.00" cy="2368.00" r="192.00" fill="rgb(0,96,227)" fill-opacity="0.502"/>
<polygon points="6530.51,219.49 6591.63,566.14 5693.49,724.51 5632.37,377.86" fill="rgb(14,124,255)" fill-opacity="0.502"/>
<circle cx="4992.00" cy="4592.00" r="1152.00" fill="rgb(39,18,3)" fill-opacity="0.502"/>
<g transform="translate(4464.00 1296.00) rotate(38) scale(480.00 256.00)"><ellipse cx="0" cy="0" rx="1" ry="1" fill="rgb(148,39,23)" fill-opacity="0.502"/></g>
<polygon points="3416.31,1032.26 3348.48,923.71 3687.69,711.74 3755.52,820.29" fill="rgb(19,123,255)" fill-opacity="0.502"/>
<g transform="translate(3024.00 1104.00) rotate(83) scale(2048.00 240.00)"><ellipse cx="0" cy="0" rx="1" ry="1" fill="rgb(0,0,13)" fill-opacity="0.502"/></g>
<g transform="translate(8128.00 2512.00) rotate(178) scale(1088.00 4592.00)"><ellipse cx="0" cy="0" rx="1" ry="1" fill="rgb(0,0,0)" fill-opacity="0.502"/></g>
<circle cx="2736.00" cy="2864.00" r="384.00" fill="rgb(10,137,255)" fill-opacity="0.502"/>
<g transform="translate(6528.00 1008.00) rotate(136) scale(160.00 320.00)"><ellipse cx="0" cy="0" rx="1" ry="1" fill="rgb(9,146,255)" fill-opacity="0.502"/></g>
<circle cx="1648.00" cy="4016.00" r="496.00" fill="rgb(21,120,255)" fill-opacity="0.502"/>
<circle cx="6928.00" cy="2784.00" r="128.00" fill="rgb(30,197,255)" fill-opacity="0.502"/>
<g transform="translate(3472.00 4160.00) rotate(287) scale(832.00 208.00)"><ellipse cx="0" cy="0" rx="1" ry="1" fill="rgb(0,0,0)" fill-opacity="0.502"/></g>
<g transform="translate(4704.00 1936.00) rotate(55) scale(224.00 448.00)"><ellipse cx="0" cy="0" rx="1" ry="1" fill="rgb(0,0,0)" fill-opacity="0.502"/></g>
<g transform="translate(4992.00 0.00) rotate(177) scale(7984.00 272.00)"><ellipse cx="0" cy="0" rx="1" ry="1" fill="rgb(3,0,0)" fill-opacity="0.502"/></g>
<g transform="translate(2256.00 4064.00) rotate(259) scale(3760.00 48.00)"><ellipse cx="0" cy="0" rx="1" ry="1" fill="rgb(6,0,48)" fill-opacity="0.502"/></g>
<polygon points="1523.33,2242.63 2858.35,1983.13 2876.67,2077.37 1541.65,2336.87" fill="rgb(0,0,0)" fill-opacity="0.502"/>
<g transform="translate(5552.00 1904.00) rotate(177) scale(80.00 192.00)"><ellipse cx="0" cy="0" rx="1" ry="1" fill="rgb(17,169,255)" fill-opacity="0.502"/></g>
<circle cx="416.00" cy="4176.00" r="768.00" fill="rgb(0,0,0)" fill-opacity="0.502"/>
<polygon points="2758.41,4499.22 2761.76,4403.28 3033.59,4412.78 3030.24,4508.72" fill="rgb(0,0,0)" fill-opacity="0.502"/>
<circle cx="2400.00" cy="2896.00" r="368.00" fill="rgb(11,135,255)" fill-opacity="0.502"/>
<circle cx="3776.00" cy="1120.00" r="192.00" fill="rgb(57,0,0)" fill-opacity="0.502"/>
<circle cx="4128.00" cy="800.00" r="304.00" fill="rgb(21,0,0)" fill-opacity="0.502"/>
<g transform="translate(5728.00 2528.00) rotate(235) scale(528.00 288.00)"><ellipse cx="0" cy="0" rx="1" ry="1" fill="rgb(0,0,0)" fill-opacity="0.502"/></g>
<polygon points="4636.20,2778.12 4767.54,3138.96 4451.80,3253.88 4320.46,2893.04" fill="rgb(209,86,66)" fill-opacity="0.502"/>
<circle cx="7232.00" cy="4048.00" r="1120.00" fill="rgb(1,0,0)" fill-opacity="0.502"/>
<polygon points="5457.09,868.40 5423.69,630.73 5502.91,619.60 5536.31,857.27" fill="rgb(9,0,0)" fill-opacity="0.502"/>
<g transform="translate(4144.00 1520.00) rotate(132) scale(240.00 432.00)"><ellipse cx="0" cy="0" rx="1" ry="1" fill="rgb(218,98,74)" fill-opacity="0.502"/></g>
<polygon points="3879.46,2400.91 4123.28,2975.30 3784.54,3119.09 3540.72,2544.70" fill="rgb(3,142,255)" fill-opacity="0.502"/>
<polygon points="3520.59,2145.83 3702.59,1943.69 4047.41,2254.17 3865.41,2456.31" fill="rgb(0,0,0)" fill-opacity="0.502"/>
<circle cx="2336.00" cy="1616.00" r="464.00" fill="rgb(10,133,255)" fill-opacity="0.502"/>
<g transform="translate(576.00 2832.00) rotate(5) scale(496.00 2160.00)"><ellipse cx="0" cy="0" rx="1" ry="1" fill="rgb(0,0,0)" fill-opacity="0.502"/></g>
<g transform="translate(3024.00 4384.00) rotate(179) scale(128.00 432.00)"><ellipse cx="0" cy="0" rx="1" ry="1" fill="rgb(7,110,238)" fill-opacity="0.502"/></g>
<g transform="translate(1472.00 3136.00) rotate(49) scale(272.00 432.00)"><ellipse cx="0" cy="0" rx="1" ry="1" fill="rgb(7,130,255)" fill-opacity="0.502"/></g>
<polygon points="1145.38,694.26 1528.31,531.71 1734.62,1017.74 1351.69,1180.29" fill="rgb(7,5,40)" fill-opacity="0.502"/>
<circle cx="6240.00" cy="1920.00" r="480.00" fill="rgb(15,133,244)" fill-opacity="0.502"/>
<circle cx="3488.00" cy="1520.00" r="144.00" fill="rgb(10,118,255)" fill-opacity="0.502"/>
<polygon points="3880.66,1504.71 3910.79,1935.66 3687.34,1951.29 3657.21,1520.34" fill="rgb(203,80,59)" fill-opacity="0.502"/>
<g transform="translate(5456.00 1216.00) rotate(258) scale(864.00 48.00)"><ellipse cx="0" cy="0" rx="1" ry="1" fill="rgb(18,98,238)" fill-opacity="0.502"/></g>
<circle cx="336.00" cy="1600.00" r="768.00" fill="rgb(0,0,0)" fill-opacity="0.502"/>
<polygon points="1191.02,2294.99 1113.61,1984.49 1656.98,1849.01 1734.39,2159.51" fill="rgb(5,141,255)" fill-opacity="0.502"/>
<g transform="translate(1504.00 2784.00) rotate(129) scale(352.00 432.00)"><ellipse cx="0" cy="0" rx="1" ry="1" fill="rgb(6,133,255)" fill-opacity="0.502"/></g>
<circle cx="3040.00" cy="3456.00" r="160.00" fill="rgb(14,156,255)" fill-opacity="0.502"/>
<g transform="translate(7840.00 1904.00) rotate(263) scale(2192.00 944.00)"><ellipse cx="0" cy="0" rx="1" ry="1" fill="rgb(0,0,0)" fill-opacity="0.502"/></g>
<polygon points="3122.09,3290.58 2252.93,3428.24 2237.91,3333.42 3107.07,3195.76" fill="rgb(0,0,1)" fill-opacity="0.502"/>
<circle cx="6896.00" cy="384.00" r="320.00" fill="rgb(0,0,33)" fill-opacity="0.502"/>
<polygon points="3690.86,2328.30 4021.53,2857.48 3845.14,2967.70 3514.47,2438.52" fill="rgb(12,135,255)" fill-opacity="0.502"/>
<g transform="translate(4976.00 1120.00) rotate(62) scale(464.00 368.00)"><ellipse cx="0" cy="0" rx="1" ry="1" fill="rgb(20,0,0)" fill-opacity="0.502"/></g>
<polygon points="5774.35,2044.48 5703.10,1537.46 6257.65,1459.52 6328.90,1966.54" fill="rgb(16,138,250)" fill-opacity="0.502"/>
<polygon points="4027.15,2409.73 4137.78,2658.21 4020.85,2710.27 3910.22,2461.79" fill="rgb(199,59,23)" fill-opacity="0.502"/>
<g transform="translate(4880.00 2464.00) rotate(236) scale(144.00 320.00)"><ellipse cx="0" cy="0" rx="1" ry="1" fill="rgb(130,36,16)" fill-opacity="0.502"/></g>
<polygon points="3377.11,4579.05 3256.86,3723.46 4270.89,3580.95 4391.14,4436.54" fill="rgb(7,0,0)" fill-opacity="0.502"/>
<circle cx="1328.00" cy="1424.00" r="256.00" fill="rgb(8,137,255)" fill-opacity="0.502"/>
<polygon points="1461.23,3554.43 1579.89,3919.63 1290.77,4013.57 1172.11,3648.37" fill="rgb(0,123,255)" fill-opacity="0.502"/>
<g transform="translate(1392.00 1392.00) rotate(96) scale(224.00 288.00)"><ellipse cx="0" cy="0" rx="1" ry="1" fill="rgb(8,120,255)" fill-opacity="0.502"/></g>
<g transform="translate(2208.00 704.00) rotate(84) scale(272.00 496.00)"><ellipse cx="0" cy="0" rx="1" ry="1" fill="rgb(8,10,56)" fill-opacity="0.502"/></g>
<g transform="translate(5104.00 3568.00) rotate(6) scale(496.00 544.00)"><ellipse cx="0" cy="0" rx="1" ry="1" fill="rgb(13,10,7)" fill-opacity="0.502"/></g>
<polygon points="3717.09,1840.05 3935.01,2267.73 3706.91,2383.95 3488.99,1956.27" fill="rgb(0,0,0)" fill-opacity="0.502"/>
<g transform="translate(2736.00 3568.00) rotate(186) scale(480.00 160.00)"><ellipse cx="0" cy="0" rx="1" ry="1" fill="rgb(11,146,255)" fill-opacity="0.502"/></g>
<circle cx="1856.00" cy="4192.00" r="368.00" fill="rgb(31,115,255)" fill-opacity="0.502"/>
<circle cx="6592.00" cy="3168.00" r="416.00" fill="rgb(9,3,3)" fill-opacity="0.502"/>
<polygon points="6577.36,294.75 6647.58,655.98 6270.64,729.25 6200.42,368.02" fill="rgb(10,113,245)" fill-opacity="0.502"/>
<polygon points="6738.92,1340.75 6822.27,1813.46 6381.08,1891.25 6297.73,1418.54" fill="rgb(13,135,244)" fill-opacity="0.502"/>
<g transform="translate(3392.00 3552.00) rotate(349) scale(192.00 736.00)"><ellipse cx="0" cy="0" rx="1" ry="1" fill="rgb(0,0,16)" fill-opacity="0.502"/></g>
<g transform="translate(2608.00 1296.00) rotate(359) scale(160.00 464.00)"><ellipse cx="0" cy="0" rx="1" ry="1" fill="rgb(11,131,255)" fill-opacity="0.502"/></g>
<circle cx="4480.00" cy="528.00" r="496.00" fill="rgb(8,0,0)" fill-opacity="0.502"/>
<g transform="translate(4688.00 4592.00) rotate(71) scale(160.00 80.00)"><ellipse cx="0" cy="0" rx="1" ry="1" fill="rgb(139,77,72)" fill-opacity="0.502"/></g>
<g transform="translate(6032.00 976.00) rotate(322) scale(496.00 368.00)"><ellipse cx="0" cy="0" rx="1" ry="1" fill="rgb(14,127,245)" fill-opacity="0.502"/></g>
<polygon points="4096.00,2720.00 4224.00,2720.00 4224.00,3072.00 4096.00,3072.00" fill="rgb(0,0,0)" fill-opacity="0.502"/>
<circle cx="2848.00" cy="2208.00" r="128.00" fill="rgb(19,154,255)" fill-opacity="0.502"/>
<g transform="translate(2736.00 3504.00) rotate(159) scale(480.00 128.00)"><ellipse cx="0" cy="0" rx="1" ry="1" fill="rgb(12,140,255)" fill-opacity="0.502"/></g>
<polygon points="3466.55,759.76 3683.90,813.95 3637.45,1000.24 3420.10,946.05" fill="rgb(14,114,255)" fill-opacity="0.502"/>
<polygon points="5243.24,1598.49 5272.19,1392.52 5620.76,1441.51 5591.81,1647.48" fill="rgb(52,8,0)" fill-opacity="0.502"/>
<g transform="translate(4496.00 4064.00) rotate(243) scale(192.00 64.00)"><ellipse cx="0" cy="0" rx="1" ry="1" fill="rgb(98,72,66)" fill-opacity="0.502"/></g>
<g transform="translate(2256.00 1120.00) rotate(178) scale(512.00 96.00)"><ellipse cx="0" cy="0" rx="1" ry="1" fill="rgb(13,118,255)" fill-opacity="0.502"/></g>
<circle cx="1968.00" cy="3424.00" r="64.00" fill="rgb(0,0,0)" fill-opacity="0.502"/>
<polygon points="4374.56,1193.70 4544.56,941.67 4889.44,1174.30 4719.44,1426.33" fill="rgb(102,27,16)" fill-opacity="0.502"/>
<circle cx="2496.00" cy="1664.00" r="384.00" fill="rgb(10,134,248)" fill-opacity="0.502"/>
<polygon points="4752.42,2668.08 4764.12,2763.37 4303.58,2819.92 4291.88,2724.63" fill="rgb(255,150,132)" fill-opacity="0.502"/>
<g transform="translate(5280.00 2192.00) rotate(0) scale(128.00 624.00)"><ellipse cx="0" cy="0" rx="1" ry="1" fill="rgb(0,0,0)" fill-opacity="0.502"/></g>
<circle cx="3520.00" cy="1680.00" r="144.00" fill="rgb(14,120,255)" fill-opacity="0.502"/>
<g transform="translate(2624.00 4496.00) rotate(262) scale(32.00 2400.00)"><ellipse cx="0" cy="0" rx="1" ry="1" fill="rgb(2,0,0)" fill-opacity="0.502"/></g>
<polygon points="3584.42,3356.76 3525.07,3261.78 3823.58,3075.24 3882.93,3170.22" fill="rgb(9,75,166)" fill-opacity="0.502"/>
<polygon points="3273.30,2367.52 3389.25,1934.79 3574.70,1984.48 3458.75,2417.21" fill="rgb(9,49,139)" fill-opacity="0.502"/>
<circle cx="4688.00" cy="3008.00" r="192.00" fill="rgb(152,58,45)" fill-opacity="0.502"/>
<polygon points="1152.74,2172.37 1104.74,1486.04 1711.26,1443.63 1759.26,2129.96" fill="rgb(6,123,255)" fill-opacity="0.502"/>
<g transform="translate(6032.00 3568.00) rotate(63) scale(480.00 464.00)"><ellipse cx="0" cy="0" rx="1" ry="1" fill="rgb(23,12,3)" fill-opacity="0.502"/></g>
<g transform="translate(3264.00 1568.00) rotate(169) scale(128.00 352.00)"><ellipse cx="0" cy="0" rx="1" ry="1" fill="rgb(16,38,106)" fill-opacity="0.502"/></g>
<circle cx="2576.00" cy="1072.00" r="144.00" fill="rgb(11,128,255)" fill-opacity="0.502"/>
<polygon points="5620.65,3304.63 5445.61,3286.23 5467.35,3079.37 5642.39,3097.77" fill="rgb(104,67,54)" fill-opacity="0.502"/>
<polygon points="4205.06,4094.38 5011.56,3832.33 5154.94,4273.62 4348.44,4535.67" fill="rgb(30,14,9)" fill-opacity="0.502"/>
<circle cx="4400.00" cy="3968.00" r="64.00" fill="rgb(211,155,153)" fill-opacity="0.502"/>
<g transform="translate(240.00 3280.00) rotate(73) scale(1264.00 832.00)"><ellipse cx="0" cy="0" rx="1" ry="1" fill="rgb(0,0,0)" fill-opacity="0.502"/></g>
<g transform="translate(6656.00 3984.00) rotate(238) scale(384.00 432.00)"><ellipse cx="0" cy="0" rx="1" ry="1" fill="rgb(9,3,21)" fill-opacity="0.502"/></g>
<g transform="translate(2912.00 4304.00) rotate(4) scale(320.00 80.00)"><ellipse cx="0" cy="0" rx="1" ry="1" fill="rgb(7,122,255)" fill-opacity="0.502"/></g>
<g transform="translate(4224.00 4592.00) rotate(90) scale(80.00 448.00)"><ellipse cx="0" cy="0" rx="1" ry="1" fill="rgb(100,66,58)" fill-opacity="0.502"/></g>
<polygon points="7061.85,762.59 7081.95,1338.24 6762.15,1349.41 6742.05,773.76" fill="rgb(0,11,67)" fill-opacity="0.502"/>
<circle cx="4208.00" cy="2224.00" r="112.00" fill="rgb(255,135,97)" fill-opacity="0.502"/>
<polygon points="3488.96,1847.48 3456.42,1642.04 3567.04,1624.52 3599.58,1829.96" fill="rgb(2,133,255)" fill-opacity="0.502"/>
<polygon points="4274.20,2846.51 4592.55,2631.78 4717.80,2817.49 4399.45,3032.22" fill="rgb(235,104,90)" fill-opacity="0.502"/>
<polygon points="4015.81,3298.72 4049.28,2916.18 4336.19,2941.28 4302.72,3323.82" fill="rgb(2,0,0)" fill-opacity="0.502"/>
<circle cx="1984.00" cy="2032.00" r="128.00" fill="rgb(21,120,255)" fill-opacity="0.502"/>
<circle cx="3008.00" cy="3104.00" r="128.00" fill="rgb(4,134,255)" fill-opacity="0.502"/>
<circle cx="2512.00" cy="768.00" r="160.00" fill="rgb(7,13,54)" fill-opacity="0.502"/>
<circle cx="1344.00" cy="688.00" r="480.00" fill="rgb(4,1,14)" fill-opacity="0.502"/>
<polygon points="1774.31,3951.23 1627.35,3782.18 2001.69,3456.77 2148.65,3625.82" fill="rgb(8,136,255)" fill-opacity="0.502"/>
<polygon points="5244.45,399.42 5266.76,654.45 5059.55,672.58 5037.24,417.55" fill="rgb(29,109,233)" fill-opacity="0.502"/>
<polygon points="6276.36,1333.79 6229.78,1114.68 6683.64,1018.21 6730.22,1237.32" fill="rgb(14,153,255)" fill-opacity="0.502"/>
<g transform="translate(4000.00 3728.00) rotate(339) scale(416.00 464.00)"><ellipse cx="0" cy="0" rx="1" ry="1" fill="rgb(5,1,0)" fill-opacity="0.502"/></g>
<circle cx="5264.00" cy="3696.00" r="512.00" fill="rgb(25,14,10)" fill-opacity="0.502"/>
<polygon points="2364.90,3400.62 863.61,3638.40 851.10,3559.38 2352.39,3321.60" fill="rgb(0,0,0)" fill-opacity="0.502"/>
<circle cx="6848.00" cy="608.00" r="224.00" fill="rgb(3,9,56)" fill-opacity="0.502"/>
<g transform="translate(3808.00 1072.00) rotate(130) scale(320.00 144.00)"><ellipse cx="0" cy="0" rx="1" ry="1" fill="rgb(43,7,0)" fill-opacity="0.502"/></g>
<g transform="translate(5264.00 720.00) rotate(155) scale(64.00 288.00)"><ellipse cx="0" cy="0" rx="1" ry="1" fill="rgb(32,124,246)" fill-opacity="0.502"/></g>
<circle cx="5536.00" cy="944.00" r="96.00" fill="rgb(16,17,72)" fill-opacity="0.502"/>
<circle cx="5072.00" cy="672.00" r="96.00" fill="rgb(4,0,0)" fill-opacity="0.502"/>
<polygon points="1271.80,4582.92 1208.77,4594.03 1128.20,4137.08 1191.23,4125.97" fill="rgb(4,0,46)" fill-opacity="0.502"/>
<polygon points="4230.04,2137.74 4422.05,2253.11 4281.96,2486.26 4089.95,2370.89" fill="rgb(238,116,94)" fill-opacity="0.502"/>
<polygon points="1585.45,738.70 2072.33,644.06 2142.55,1005.30 1655.67,1099.94" fill="rgb(5,7,34)" fill-opacity="0.502"/>
<polygon points="1314.74,3413.59 1281.29,3095.34 2013.26,3018.41 2046.71,3336.66" fill="rgb(11,128,255)" fill-opacity="0.502"/>
<circle cx="4976.00" cy="4064.00" r="496.00" fill="rgb(32,15,12)" fill-opacity="0.502"/>
<g transform="translate(3712.00 2016.00) rotate(111) scale(80.00 464.00)"><ellipse cx="0" cy="0" rx="1" ry="1" fill="rgb(0,0,8)" fill-opacity="0.502"/></g>
<circle cx="6848.00" cy="2720.00" r="96.00" fill="rgb(24,188,255)" fill-opacity="0.502"/>
<polygon points="6625.35,529.69 6678.14,829.07 6126.65,926.31 6073.86,626.93" fill="rgb(11,126,245)" fill-opacity="0.502"/>
<circle cx="1680.00" cy="176.00" r="512.00" fill="rgb(9,0,2)" fill-opacity="0.502"/>
<polygon points="6638.91,1692.68 6658.41,1533.87 6833.09,1555.32 6813.59,1714.13" fill="rgb(16,147,255)" fill-opacity="0.502"/>
<g transform="translate(6544.00 784.00) rotate(48) scale(224.00 80.00)"><ellipse cx="0" cy="0" rx="1" ry="1" fill="rgb(7,132,252)" fill-opacity="0.502"/></g>
<g transform="translate(5552.00 1552.00) rotate(340) scale(288.00 112.00)"><ellipse cx="0" cy="0" rx="1" ry="1" fill="rgb(27,9,26)" fill-opacity="0.502"/></g>
<g transform="translate(1344.00 3168.00) rotate(207) scale(240.00 240.00)"><ellipse cx="0" cy="0" rx="1" ry="1" fill="rgb(6,119,255)" fill-opacity="0.502"/></g>
<circle cx="1216.00" cy="3728.00" r="112.00" fill="rgb(6,118,255)" fill-opacity="0.502"/>
<polygon points="5424.70,274.04 5501.21,634.00 5407.30,653.96 5330.79,294.00" fill="rgb(1,0,2)" fill-opacity="0.502"/>
<polygon points="2392.14,2817.68 2289.34,2234.68 2903.86,2126.32 3006.66,2709.32" fill="rgb(12,145,255)" fill-opacity="0.502"/>
<circle cx="5888.00" cy="720.00" r="400.00" fill="rgb(16,115,232)" fill-opacity="0.502"/>
<circle cx="5056.00" cy="2064.00" r="144.00" fill="rgb(117,25,6)" fill-opacity="0.502"/>
<circle cx="432.00" cy="896.00" r="720.00" fill="rgb(0,0,0)" fill-opacity="0.502"/>
<polygon points="6982.71,390.74 6543.99,239.67 6601.29,73.26 7040.01,224.33" fill="rgb(0,3,29)" fill-opacity="0.502"/>
<polygon points="3322.76,857.50 3465.98,842.45 3541.24,1558.50 3398.02,1573.55" fill="rgb(17,108,255)" fill-opacity="0.502"/>
<circle cx="2032.00" cy="4320.00" r="224.00" fill="rgb(19,110,255)" fill-opacity="0.502"/>
<g transform="translate(4448.00 1424.00) rotate(299) scale(160.00 384.00)"><ellipse cx="0" cy="0" rx="1" ry="1" fill="rgb(172,65,47)" fill-opacity="0.502"/></g>
<circle cx="1376.00" cy="864.00" r="288.00" fill="rgb(7,10,43)" fill-opacity="0.502"/>
<circle cx="5152.00" cy="4592.00" r="464.00" fill="rgb(35,14,11)" fill-opacity="0.502"/>
<g transform="translate(4352.00 4240.00) rotate(270) scale(240.00 368.00)"><ellipse cx="0" cy="0" rx="1" ry="1" fill="rgb(17,8,4)" fill-opacity="0.502"/></g>
<polygon points="1933.84,3396.89 1195.59,3185.20 1266.16,2939.11 2004.41,3150.80" fill="rgb(8,129,255)" fill-opacity="0.502"/>
<polygon points="1106.10,2509.35 1601.42,2483.39 1629.90,3026.65 1134.58,3052.61" fill="rgb(7,127,255)" fill-opacity="0.502"/>
<polygon points="6922.66,2084.35 6973.87,2448.77 6213.34,2555.65 6162.13,2191.23" fill="rgb(15,140,250)" fill-opacity="0.502"/>
<polygon points="3524.32,1981.65 3751.76,2681.63 3675.68,2706.35 3448.24,2006.37" fill="rgb(20,133,255)" fill-opacity="0.502"/>
<polygon points="4664.29,2208.30 5037.72,2351.64 4951.71,2575.70 4578.28,2432.36" fill="rgb(194,82,60)" fill-opacity="0.502"/>
<polygon points="4478.39,3487.78 4149.73,3417.92 4209.61,3136.22 4538.27,3206.08" fill="rgb(8,0,0)" fill-opacity="0.502"/>
<polygon points="3632.00,2544.00 3952.00,2544.00 3952.00,3056.00 3632.00,3056.00" fill="rgb(11,126,255)" fill-opacity="0.502"/>
<polygon points="5004.60,976.86 5365.83,1047.08 5283.40,1471.14 4922.17,1400.92" fill="rgb(0,0,0)" fill-opacity="0.502"/>
<g transform="translate(912.00 2208.00) rotate(205) scale(400.00 96.00)"><ellipse cx="0" cy="0" rx="1" ry="1" fill="rgb(2,0,7)" fill-opacity="0.502"/></g>
<polygon points="1312.00,4272.00 1696.00,4272.00 1696.00,4592.00 1312.00,4592.00" fill="rgb(4,105,255)" fill-opacity="0.502"/>
<polygon points="4951.18,1500.64 4994.76,1586.18 4552.82,1811.36 4509.24,1725.82" fill="rgb(78,20,10)" fill-opacity="0.502"/>
<polygon points="3807.16,4182.47 3585.39,4731.36 3184.84,4569.53 3406.61,4020.64" fill="rgb(7,0,0)" fill-opacity="0.502"/>
<g transform="translate(5024.00 32.00) rotate(99) scale(448.00 528.00)"><ellipse cx="0" cy="0" rx="1" ry="1" fill="rgb(3,0,18)" fill-opacity="0.502"/></g>
<polygon points="1400.00,4552.00 1400.00,3960.00 1944.00,3960.00 1944.00,4552.00" fill="rgb(33,117,255)" fill-opacity="0.502"/>
<g transform="translate(2976.00 224.00) rotate(256) scale(624.00 368.00)"><ellipse cx="0" cy="0" rx="1" ry="1" fill="rgb(7,0,0)" fill-opacity="0.502"/></g>
<g transform="translate(7168.00 2304.00) rotate(224) scale(16.00 464.00)"><ellipse cx="0" cy="0" rx="1" ry="1" fill="rgb(1,0,21)" fill-opacity="0.502"/></g>
<circle cx="5664.00" cy="2320.00" r="240.00" fill="rgb(0,0,0)" fill-opacity="0.502"/>
<polygon points="2413.55,3613.96 2302.79,3750.73 2178.45,3650.04 2289.21,3513.27" fill="rgb(18,124,255)" fill-opacity="0.502"/>
<circle cx="4320.00" cy="160.00" r="224.00" fill="rgb(5,2,27)" fill-opacity="0.502"/>
<circle cx="4832.00" cy="1872.00" r="192.00" fill="rgb(0,0,0)" fill-opacity="0.502"/>
<polygon points="5669.46,297.95 6079.79,630.23 5898.54,854.05 5488.21,521.77" fill="rgb(11,102,224)" fill-opacity="0.502"/>
<circle cx="688.00" cy="480.00" r="576.00" fill="rgb(0,0,0)" fill-opacity="0.502"/>
<g transform="translate(2384.00 3104.00) rotate(242) scale(144.00 304.00)"><ellipse cx="0" cy="0" rx="1" ry="1" fill="rgb(11,138,255)" fill-opacity="0.502"/></g>
<polygon points="7095.83,2144.84 6905.26,2168.24 6792.17,1247.16 6982.74,1223.76" fill="rgb(4,13,81)" fill-opacity="0.502"/>
<g transform="translate(2704.00 3968.00) rotate(128) scale(368.00 480.00)"><ellipse cx="0" cy="0" rx="1" ry="1" fill="rgb(6,129,255)" fill-opacity="0.502"/></g>
<polygon points="6260.14,1329.53 6021.45,1354.62 5947.86,654.47 6186.55,629.38" fill="rgb(13,148,248)" fill-opacity="0.502"/>
<polygon points="3115.05,2984.06 3017.87,2563.13 3204.95,2519.94 3302.13,2940.87" fill="rgb(0,0,33)" fill-opacity="0.502"/>
<g transform="translate(7008.00 2752.00) rotate(267) scale(176.00 64.00)"><ellipse cx="0" cy="0" rx="1" ry="1" fill="rgb(20,91,234)" fill-opacity="0.502"/></g>
<g transform="translate(5472.00 736.00) rotate(80) scale(1520.00 48.00)"><ellipse cx="0" cy="0" rx="1" ry="1" fill="rgb(0,0,42)" fill-opacity="0.502"/></g>
<polygon points="3764.40,2023.70 3878.12,2373.69 3771.60,2408.30 3657.88,2058.31" fill="rgb(0,0,0)" fill-opacity="0.502"/>
<g transform="translate(5696.00 2832.00) rotate(56) scale(448.00 304.00)"><ellipse cx="0" cy="0" rx="1" ry="1" fill="rgb(13,6,0)" fill-opacity="0.502"/></g>
<circle cx="3680.00" cy="560.00" r="208.00" fill="rgb(4,2,33)" fill-opacity="0.502"/>
<g transform="translate(1568.00 2752.00) rotate(299) scale(432.00 352.00)"><ellipse cx="0" cy="0" rx="1" ry="1" fill="rgb(6,129,254)" fill-opacity="0.502"/></g>
<g transform="translate(2576.00 1616.00) rotate(320) scale(192.00 464.00)"><ellipse cx="0" cy="0" rx="1" ry="1" fill="rgb(11,134,249)" fill-opacity="0.502"/></g>
<polygon points="3778.51,3086.29 3857.71,3165.49 3597.49,3425.71 3518.29,3346.51" fill="rgb(25,65,131)" fill-opacity="0.502"/>
<circle cx="7872.00" cy="400.00" r="848.00" fill="rgb(0,0,0)" fill-opacity="0.502"/>
<circle cx="4704.00" cy="4032.00" r="80.00" fill="rgb(93,74,79)" fill-opacity="0.502"/>
<circle cx="6496.00" cy="2304.00" r="320.00" fill="rgb(14,132,240)" fill-opacity="0.502"/>
<polygon points="5992.39,194.05 6380.51,97.28 6407.61,205.95 6019.49,302.72" fill="rgb(3,18,97)" fill-opacity="0.502"/>
<polygon points="3453.94,1337.79 3363.73,1370.63 3298.06,1190.21 3388.27,1157.37" fill="rgb(36,114,239)" fill-opacity="0.502"/>
<polygon points="2849.27,3096.05 2890.94,2975.02 3102.73,3047.95 3061.06,3168.98" fill="rgb(13,148,255)" fill-opacity="0.502"/>
<g transform="translate(3072.00 1408.00) rotate(78) scale(1808.00 80.00)"><ellipse cx="0" cy="0" rx="1" ry="1" fill="rgb(1,0,11)" fill-opacity="0.502"/></g>
<circle cx="3040.00" cy="4592.00" r="112.00" fill="rgb(7,151,255)" fill-opacity="0.502"/>
<polygon points="4264.93,2538.21 4211.25,2458.62 4503.07,2261.79 4556.75,2341.38" fill="rgb(42,9,8)" fill-opacity="0.502"/>
<circle cx="2512.00" cy="4592.00" r="48.00" fill="rgb(31,143,255)" fill-opacity="0.502"/>
<circle cx="3184.00" cy="1056.00" r="112.00" fill="rgb(15,26,77)" fill-opacity="0.502"/>
<polygon points="4859.12,2547.89 5011.23,2773.38 4692.88,2988.11 4540.77,2762.62" fill="rgb(113,30,21)" fill-opacity="0.502"/>
<g transform="translate(6736.00 2592.00) rotate(81) scale(32.00 400.00)"><ellipse cx="0" cy="0" rx="1" ry="1" fill="rgb(0,0,19)" fill-opacity="0.502"/></g>
<polygon points="2954.21,1842.69 2891.39,1854.90 2741.79,1085.31 2804.61,1073.10" fill="rgb(0,0,73)" fill-opacity="0.502"/>
<circle cx="5424.00" cy="1280.00" r="64.00" fill="rgb(37,134,255)" fill-opacity="0.502"/>
<polygon points="1761.73,1172.83 2118.80,1083.80 2254.27,1627.17 1897.20,1716.20" fill="rgb(13,110,247)" fill-opacity="0.502"/>
<polygon points="4239.26,1848.00 4329.90,1998.86 3808.74,2312.00 3718.10,2161.14" fill="rgb(0,0,0)" fill-opacity="0.502"/>
<circle cx="3968.00" cy="3632.00" r="432.00" fill="rgb(7,3,2)" fill-opacity="0.502"/>
<polygon points="3822.28,2396.97 3978.86,2136.39 4129.72,2227.03 3973.14,2487.61" fill="rgb(0,0,0)" fill-opacity="0.502"/>
<circle cx="3552.00" cy="2000.00" r="64.00" fill="rgb(32,74,177)" fill-opacity="0.502"/>
<g transform="translate(3888.00 1216.00) rotate(145) scale(368.00 96.00)"><ellipse cx="0" cy="0" rx="1" ry="1" fill="rgb(127,49,38)" fill-opacity="0.502"/></g>
<circle cx="4352.00" cy="2320.00" r="80.00" fill="rgb(251,115,103)" fill-opacity="0.502"/>
<polygon points="1177.79,2317.62 1082.67,2231.97 1318.21,1970.38 1413.33,2056.03" fill="rgb(11,129,255)" fill-opacity="0.502"/>
<circle cx="7312.00" cy="4336.00" r="336.00" fill="rgb(0,0,0)" fill-opacity="0.502"/>
<circle cx="2944.00" cy="3008.00" r="144.00" fill="rgb(13,143,255)" fill-opacity="0.502"/>
<g transform="translate(5072.00 816.00) rotate(194) scale(144.00 192.00)"><ellipse cx="0" cy="0" rx="1" ry="1" fill="rgb(2,0,0)" fill-opacity="0.502"/></g>
<g transform="translate(4000.00 1744.00) rotate(125) scale(192.00 160.00)"><ellipse cx="0" cy="0" rx="1" ry="1" fill="rgb(235,105,79)" fill-opacity="0.502"/></g>
<polygon points="6318.93,519.33 6431.89,1100.46 6369.07,1112.67 6256.11,531.54" fill="rgb(8,78,207)" fill-opacity="0.502"/>
<g transform="translate(5792.00 2800.00) rotate(355) scale(736.00 256.00)"><ellipse cx="0" cy="0" rx="1" ry="1" fill="rgb(17,8,3)" fill-opacity="0.502"/></g>
<circle cx="240.00" cy="2320.00" r="864.00" fill="rgb(0,0,0)" fill-opacity="0.502"/>
<polygon points="5229.98,2826.96 5151.99,3462.19 4882.02,3429.04 4960.01,2793.81" fill="rgb(6,1,0)" fill-opacity="0.502"/>
<polygon points="4190.21,182.36 5103.35,569.97 4865.79,1129.64 3952.65,742.03" fill="rgb(9,0,0)" fill-opacity="0.502"/>
<g transform="translate(3952.00 752.00) rotate(212) scale(160.00 640.00)"><ellipse cx="0" cy="0" rx="1" ry="1" fill="rgb(7,1,3)" fill-opacity="0.502"/></g>
<circle cx="6400.00" cy="1360.00" r="64.00" fill="rgb(0,0,45)" fill-opacity="0.502"/>
<g transform="translate(4384.00 3744.00) rotate(263) scale(160.00 512.00)"><ellipse cx="0" cy="0" rx="1" ry="1" fill="rgb(16,9,12)" fill-opacity="0.502"/></g>
<polygon points="3935.35,3397.90 3821.47,3116.03 3984.65,3050.10 4098.53,3331.97" fill="rgb(0,0,0)" fill-opacity="0.502"/>
<polygon points="4026.28,1510.35 4006.19,1223.05 4197.72,1209.65 4217.81,1496.95" fill="rgb(210,107,84)" fill-opacity="0.502"/>
<polygon points="5799.63,2922.35 5019.29,2683.78 5192.37,2117.65 5972.71,2356.22" fill="rgb(8,0,0)" fill-opacity="0.502"/>
<polygon points="3424.00,2032.00 3232.00,2032.00 3232.00,1904.00 3424.00,1904.00" fill="rgb(0,0,9)" fill-opacity="0.502"/>
<circle cx="5008.00" cy="496.00" r="16.00" fill="rgb(127,169,243)" fill-opacity="0.502"/>
<circle cx="6544.00" cy="2896.00" r="192.00" fill="rgb(5,1,4)" fill-opacity="0.502"/>
<circle cx="3520.00" cy="992.00" r="112.00" fill="rgb(19,110,246)" fill-opacity="0.502"/>
<g transform="translate(1456.00 3776.00) rotate(86) scale(208.00 352.00)"><ellipse cx="0" cy="0" rx="1" ry="1" fill="rgb(9,122,255)" fill-opacity="0.502"/></g>
<g transform="translate(6832.00 3680.00) rotate(68) scale(288.00 192.00)"><ellipse cx="0" cy="0" rx="1" ry="1" fill="rgb(6,3,21)" fill-opacity="0.502"/></g>
<circle cx="4592.00" cy="1312.00" r="128.00" fill="rgb(134,41,31)" fill-opacity="0.502"/>
<g transform="translate(3136.00 2960.00) rotate(359) scale(16.00 304.00)"><ellipse cx="0" cy="0" rx="1" ry="1" fill="rgb(0,12,56)" fill-opacity="0.502"/></g>
<polygon points="5921.11,1109.14 5734.58,1407.65 5598.89,1322.86 5785.42,1024.35" fill="rgb(20,138,247)" fill-opacity="0.502"/>
<circle cx="2864.00" cy="4576.00" r="64.00" fill="rgb(1,144,255)" fill-opacity="0.502"/>
<g transform="translate(6432.00 1696.00) rotate(350) scale(416.00 288.00)"><ellipse cx="0" cy="0" rx="1" ry="1" fill="rgb(12,134,240)" fill-opacity="0.502"/></g>
<polygon points="1187.39,4087.20 1196.60,4615.12 1100.61,4616.80 1091.40,4088.88" fill="rgb(5,45,151)" fill-opacity="0.502"/>
<polygon points="1445.95,2429.70 1286.44,2355.31 1354.05,2210.30 1513.56,2284.69" fill="rgb(16,4,62)" fill-opacity="0.502"/>
<polygon points="6480.46,2148.79 6462.88,2484.33 5983.54,2459.21 6001.12,2123.67" fill="rgb(21,135,244)" fill-opacity="0.502"/>
<polygon points="2963.96,3193.38 2335.72,3071.27 2412.04,2678.62 3040.28,2800.73" fill="rgb(10,141,245)" fill-opacity="0.502"/>
<polygon points="6781.21,1353.13 6834.44,1603.54 6818.79,1606.87 6765.56,1356.46" fill="rgb(0,49,224)" fill-opacity="0.502"/>
<circle cx="4048.00" cy="2544.00" r="128.00" fill="rgb(161,68,59)" fill-opacity="0.502"/>
<g transform="translate(5216.00 3392.00) rotate(6) scale(304.00 352.00)"><ellipse cx="0" cy="0" rx="1" ry="1" fill="rgb(24,13,12)" fill-opacity="0.502"/></g>
<polygon points="1164.62,2262.37 1124.44,1687.77 1555.38,1657.63 1595.56,2232.23" fill="rgb(6,128,255)" fill-opacity="0.502"/>
<g transform="translate(7680.00 1712.00) rotate(131) scale(752.00 496.00)"><ellipse cx="0" cy="0" rx="1" ry="1" fill="rgb(0,0,0)" fill-opacity="0.502"/></g>
<polygon points="4221.27,2590.22 4102.57,2780.18 4034.73,2737.78 4153.43,2547.82" fill="rgb(90,18,13)" fill-opacity="0.502"/>
<circle cx="5440.00" cy="1680.00" r="80.00" fill="rgb(150,62,45)" fill-opacity="0.502"/>
<polygon points="3310.51,823.58 3691.64,776.78 3697.49,824.42 3316.36,871.22" fill="rgb(28,130,255)" fill-opacity="0.502"/>
<polygon points="4575.43,2959.76 4496.24,2880.57 4688.57,2688.24 4767.76,2767.43" fill="rgb(244,112,99)" fill-opacity="0.502"/>
<polygon points="2664.43,2928.42 1941.29,2321.63 2023.57,2223.58 2746.71,2830.37" fill="rgb(10,127,249)" fill-opacity="0.502"/>
<g transform="translate(4336.00 3088.00) rotate(70) scale(48.00 448.00)"><ellipse cx="0" cy="0" rx="1" ry="1" fill="rgb(41,13,8)" fill-opacity="0.502"/></g>
<polygon points="2670.14,2108.63 1492.18,2337.60 1473.86,2243.37 2651.82,2014.40" fill="rgb(1,0,60)" fill-opacity="0.502"/>
<polygon points="4405.08,4062.37 3882.27,4263.06 3738.92,3889.63 4261.73,3688.94" fill="rgb(14,7,7)" fill-opacity="0.502"/>
<polygon points="1536.79,3076.10 1611.64,3320.92 1183.21,3451.90 1108.36,3207.08" fill="rgb(7,124,255)" fill-opacity="0.502"/>
<circle cx="5744.00" cy="960.00" r="192.00" fill="rgb(20,120,235)" fill-opacity="0.502"/>
<g transform="translate(4448.00 960.00) rotate(277) scale(96.00 320.00)"><ellipse cx="0" cy="0" rx="1" ry="1" fill="rgb(49,12,7)" fill-opacity="0.502"/></g>
<polygon points="2691.55,3636.38 2713.00,3811.07 2252.45,3867.62 2231.00,3692.93" fill="rgb(12,138,254)" fill-opacity="0.502"/>
<polygon points="2978.76,2047.56 2616.35,2111.47 2605.24,2048.44 2967.65,1984.53" fill="rgb(2,0,47)" fill-opacity="0.502"/>
<polygon points="3137.78,4568.87 2611.79,4614.89 2606.22,4551.13 3132.21,4505.11" fill="rgb(6,132,255)" fill-opacity="0.502"/>
<g transform="translate(4752.00 4032.00) rotate(195) scale(16.00 112.00)"><ellipse cx="0" cy="0" rx="1" ry="1" fill="rgb(169,141,138)" fill-opacity="0.502"/></g>
<circle cx="6464.00" cy="3184.00" r="480.00" fill="rgb(11,5,8)" fill-opacity="0.502"/>
<g transform="translate(4256.00 2032.00) rotate(272) scale(64.00 688.00)"><ellipse cx="0" cy="0" rx="1" ry="1" fill="rgb(0,0,0)" fill-opacity="0.502"/></g>
<polygon points="5814.72,786.08 5547.71,837.98 5465.28,413.92 5732.29,362.02" fill="rgb(22,117,228)" fill-opacity="0.502"/>
<circle cx="1776.00" cy="4112.00" r="160.00" fill="rgb(54,123,247)" fill-opacity="0.502"/>
<circle cx="192.00" cy="336.00" r="976.00" fill="rgb(0,0,0)" fill-opacity="0.502"/>
<circle cx="3728.00" cy="3216.00" r="48.00" fill="rgb(32,177,255)" fill-opacity="0.502"/>
<circle cx="2544.00" cy="0.00" r="352.00" fill="rgb(8,0,0)" fill-opacity="0.502"/>
<g transform="translate(6112.00 4416.00) rotate(182) scale(160.00 464.00)"><ellipse cx="0" cy="0" rx="1" ry="1" fill="rgb(17,6,2)" fill-opacity="0.502"/></g>
<g transform="translate(4032.00 4224.00) rotate(227) scale(208.00 432.00)"><ellipse cx="0" cy="0" rx="1" ry="1" fill="rgb(17,6,4)" fill-opacity="0.502"/></g>
<g transform="translate(3328.00 2192.00) rotate(252) scale(544.00 144.00)"><ellipse cx="0" cy="0" rx="1" ry="1" fill="rgb(7,20,64)" fill-opacity="0.502"/></g>
<g transform="translate(4208.00 224.00) rotate(78) scale(224.00 960.00)"><ellipse cx="0" cy="0" rx="1" ry="1" fill="rgb(6,1,16)" fill-opacity="0.502"/></g>
<polygon points="1575.80,1099.18 1252.82,1191.80 1160.20,868.82 1483.18,776.20" fill="rgb(6,10,45)" fill-opacity="0.502"/>
<circle cx="5712.00" cy="80.00" r="288.00" fill="rgb(4,6,47)" fill-opacity="0.502"/>
<polygon points="3018.54,1253.04 2767.24,1204.20 2837.46,842.96 3088.76,891.80" fill="rgb(1,0,9)" fill-opacity="0.502"/>
<polygon points="4601.61,2247.04 4394.11,2232.53 4406.39,2056.96 4613.89,2071.47" fill="rgb(0,0,0)" fill-opacity="0.502"/>
<polygon points="2129.93,2513.94 2267.63,2556.04 2174.07,2862.06 2036.37,2819.96" fill="rgb(9,112,246)" fill-opacity="0.502"/>
<polygon points="6138.18,2033.36 6730.60,2170.13 6629.82,2606.64 6037.40,2469.87" fill="rgb(14,129,240)" fill-opacity="0.502"/>
<g transform="translate(4544.00 3152.00) rotate(219) scale(128.00 48.00)"><ellipse cx="0" cy="0" rx="1" ry="1" fill="rgb(179,82,50)" fill-opacity="0.502"/></g>
<circle cx="5568.00" cy="2016.00" r="80.00" fill="rgb(31,125,248)" fill-opacity="0.502"/>
<circle cx="1712.00" cy="2048.00" r="112.00" fill="rgb(5,110,255)" fill-opacity="0.502"/>
<g transform="translate(2288.00 1376.00) rotate(53) scale(416.00 256.00)"><ellipse cx="0" cy="0" rx="1" ry="1" fill="rgb(10,125,246)" fill-opacity="0.502"/></g>
<circle cx="5104.00" cy="1600.00" r="160.00" fill="rgb(0,0,0)" fill-opacity="0.502"/>
<polygon points="5392.00,1088.00 5456.00,1088.00 5456.00,1360.00 5392.00,1360.00" fill="rgb(40,129,255)" fill-opacity="0.502"/>
<circle cx="5232.00" cy="3072.00" r="208.00" fill="rgb(36,21,19)" fill-opacity="0.502"/>
<polygon points="2451.23,1527.55 2146.81,1177.37 2460.77,904.45 2765.19,1254.63" fill="rgb(11,126,243)" fill-opacity="0.502"/>
<g transform="translate(4864.00 1280.00) rotate(64) scale(320.00 96.00)"><ellipse cx="0" cy="0" rx="1" ry="1" fill="rgb(50,13,6)" fill-opacity="0.502"/></g>
<g transform="translate(5632.00 4496.00) rotate(214) scale(304.00 864.00)"><ellipse cx="0" cy="0" rx="1" ry="1" fill="rgb(30,16,15)" fill-opacity="0.502"/></g>
<polygon points="4028.24,1789.87 4095.96,1593.20 4307.76,1666.13 4240.04,1862.80" fill="rgb(239,115,87)" fill-opacity="0.502"/>
<circle cx="3120.00" cy="2128.00" r="176.00" fill="rgb(0,0,15)" fill-opacity="0.502"/>
<circle cx="6448.00" cy="0.00" r="192.00" fill="rgb(0,9,57)" fill-opacity="0.502"/>
<polygon points="3683.17,1437.31 3833.11,1960.23 3740.83,1986.69 3590.89,1463.77" fill="rgb(123,45,38)" fill-opacity="0.502"/>
<g transform="translate(6496.00 2288.00) rotate(110) scale(208.00 544.00)"><ellipse cx="0" cy="0" rx="1" ry="1" fill="rgb(13,133,242)" fill-opacity="0.502"/></g>
<polygon points="2439.86,2292.80 2296.48,2734.09 1992.14,2635.20 2135.52,2193.91" fill="rgb(11,122,248)" fill-opacity="0.502"/>
<g transform="translate(3520.00 3920.00) rotate(276) scale(448.00 160.00)"><ellipse cx="0" cy="0" rx="1" ry="1" fill="rgb(2,0,0)" fill-opacity="0.502"/></g>
<polygon points="2314.12,4229.83 2667.60,4079.79 2773.88,4330.17 2420.40,4480.21" fill="rgb(11,115,255)" fill-opacity="0.502"/>
<polygon points="3074.80,3284.05 3138.45,3277.36 3165.20,3531.95 3101.55,3538.64" fill="rgb(13,127,255)" fill-opacity="0.502"/>
<g transform="translate(4272.00 2720.00) rotate(17) scale(32.00 64.00)"><ellipse cx="0" cy="0" rx="1" ry="1" fill="rgb(56,0,0)" fill-opacity="0.502"/></g>
<polygon points="6670.47,4695.34 6204.27,4447.46 6369.53,4136.66 6835.73,4384.54" fill="rgb(7,0,14)" fill-opacity="0.502"/>
<circle cx="6288.00" cy="1376.00" r="64.00" fill="rgb(2,0,54)" fill-opacity="0.502"/>
<circle cx="1440.00" cy="2656.00" r="320.00" fill="rgb(7,129,254)" fill-opacity="0.502"/>
<circle cx="3856.00" cy="1792.00" r="144.00" fill="rgb(207,88,65)" fill-opacity="0.502"/>
<g transform="translate(5760.00 1280.00) rotate(18) scale(176.00 64.00)"><ellipse cx="0" cy="0" rx="1" ry="1" fill="rgb(16,137,248)" fill-opacity="0.502"/></g>
<circle cx="4752.00" cy="1872.00" r="192.00" fill="rgb(4,0,0)" fill-opacity="0.502"/>
<polygon points="5019.53,2789.94 4877.31,2767.42 5012.47,1914.06 5154.69,1936.58" fill="rgb(105,26,20)" fill-opacity="0.502"/>
<polygon points="5305.30,4259.13 5195.40,3693.71 5446.70,3644.87 5556.60,4210.29" fill="rgb(21,13,4)" fill-opacity="0.502"/>
<polygon points="4651.36,983.04 4733.77,845.89 5364.64,1224.96 5282.23,1362.11" fill="rgb(10,0,0)" fill-opacity="0.502"/>
<g transform="translate(6656.00 2464.00) rotate(19) scale(192.00 80.00)"><ellipse cx="0" cy="0" rx="1" ry="1" fill="rgb(10,131,244)" fill-opacity="0.502"/></g>
<polygon points="3712.00,1248.00 3888.00,1248.00 3888.00,1680.00 3712.00,1680.00" fill="rgb(195,77,59)" fill-opacity="0.502"/>
<circle cx="2560.00" cy="768.00" r="144.00" fill="rgb(7,14,50)" fill-opacity="0.502"/>
<circle cx="5840.00" cy="2736.00" r="352.00" fill="rgb(16,8,4)" fill-opacity="0.502"/>
<circle cx="7184.00" cy="4576.00" r="192.00" fill="rgb(0,0,0)" fill-opacity="0.502"/>
<circle cx="2688.00" cy="1888.00" r="128.00" fill="rgb(13,149,255)" fill-opacity="0.502"/>
<polygon points="4465.71,3337.08 4849.72,3106.34 5006.29,3366.92 4622.28,3597.66" fill="rgb(8,3,0)" fill-opacity="0.502"/>
<circle cx="2848.00" cy="2768.00" r="176.00" fill="rgb(10,147,249)" fill-opacity="0.502"/>
<circle cx="7888.00" cy="3696.00" r="896.00" fill="rgb(0,0,0)" fill-opacity="0.502"/>
<g transform="translate(3728.00 2640.00) rotate(244) scale(464.00 112.00)"><ellipse cx="0" cy="0" rx="1" ry="1" fill="rgb(14,126,246)" fill-opacity="0.502"/></g>
<polygon points="6007.88,3496.37 5706.16,3315.08 6184.12,2519.63 6485.84,2700.92" fill="rgb(17,6,3)" fill-opacity="0.502"/>
<circle cx="768.00" cy="3360.00" r="320.00" fill="rgb(0,0,0)" fill-opacity="0.502"/>
<polygon points="5509.12,1498.65 5330.43,1744.59 5226.88,1669.35 5405.57,1423.41" fill="rgb(5,0,0)" fill-opacity="0.502"/>
<polygon points="3714.66,722.91 3299.39,841.99 3277.34,765.09 3692.61,646.01" fill="rgb(5,9,56)" fill-opacity="0.502"/>
<g transform="translate(4544.00 2512.00) rotate(14) scale(272.00 32.00)"><ellipse cx="0" cy="0" rx="1" ry="1" fill="rgb(68,11,5)" fill-opacity="0.502"/></g>
<polygon points="2476.74,2029.22 2424.18,1697.36 2819.26,1634.78 2871.82,1966.64" fill="rgb(12,143,251)" fill-opacity="0.502"/>
<polygon points="5177.84,3087.97 4903.94,2998.97 5062.16,2512.03 5336.06,2601.03" fill="rgb(10,0,0)" fill-opacity="0.502"/>
<circle cx="5392.00" cy="0.00" r="224.00" fill="rgb(4,3,4)" fill-opacity="0.502"/>
<polygon points="3089.60,1304.04 3136.83,1036.17 3294.40,1063.96 3247.17,1331.83" fill="rgb(10,26,76)" fill-opacity="0.502"/>
<g transform="translate(1152.00 3968.00) rotate(81) scale(368.00 16.00)"><ellipse cx="0" cy="0" rx="1" ry="1" fill="rgb(35,58,107)" fill-opacity="0.502"/></g>
<g transform="translate(4416.00 1600.00) rotate(299) scale(176.00 144.00)"><ellipse cx="0" cy="0" rx="1" ry="1" fill="rgb(195,76,50)" fill-opacity="0.502"/></g>
<circle cx="7408.00" cy="2720.00" r="384.00" fill="rgb(0,0,1)" fill-opacity="0.502"/>
<circle cx="5376.00" cy="3072.00" r="80.00" fill="rgb(102,71,64)" fill-opacity="0.502"/>
<circle cx="2464.00" cy="784.00" r="160.00" fill="rgb(7,15,54)" fill-opacity="0.502"/>
<circle cx="4896.00" cy="16.00" r="208.00" fill="rgb(5,0,0)" fill-opacity="0.502"/>
<g transform="translate(3328.00 3376.00) rotate(0) scale(64.00 656.00)"><ellipse cx="0" cy="0" rx="1" ry="1" fill="rgb(0,4,26)" fill-opacity="0.502"/></g>
<circle cx="2672.00" cy="2480.00" r="352.00" fill="rgb(11,137,247)" fill-opacity="0.502"/>
<g transform="translate(2992.00 1168.00) rotate(194) scale(16.00 512.00)"><ellipse cx="0" cy="0" rx="1" ry="1" fill="rgb(2,0,15)" fill-opacity="0.502"/></g>
<circle cx="5536.00" cy="3552.00" r="32.00" fill="rgb(99,95,95)" fill-opacity="0.502"/>
<polygon points="3055.41,4283.12 2931.07,4182.43 3152.59,3908.88 3276.93,4009.57" fill="rgb(7,136,253)" fill-opacity="0.502"/>
<circle cx="4768.00" cy="2368.00" r="144.00" fill="rgb(192,78,55)" fill-opacity="0.502"/>
<polygon points="5162.94,2483.09 5067.47,2473.05 5141.06,1772.91 5236.53,1782.95" fill="rgb(44,7,0)" fill-opacity="0.502"/>
<polygon points="2281.20,2429.54 2578.46,2697.20 2310.80,2994.46 2013.54,2726.80" fill="rgb(9,130,246)" fill-opacity="0.502"/>
<g transform="translate(4496.00 2720.00) rotate(348) scale(128.00 48.00)"><ellipse cx="0" cy="0" rx="1" ry="1" fill="rgb(248,177,164)" fill-opacity="0.502"/></g>
<polygon points="7016.00,3800.00 7016.00,4712.00 6856.00,4712.00 6856.00,3800.00" fill="rgb(10,6,23)" fill-opacity="0.502"/>
<circle cx="4304.00" cy="2592.00" r="96.00" fill="rgb(203,93,75)" fill-opacity="0.502"/>
<circle cx="6752.00" cy="48.00" r="208.00" fill="rgb(0,2,27)" fill-opacity="0.502"/>
<polygon points="2528.00,3264.00 2528.00,3232.00 2848.00,3232.00 2848.00,3264.00" fill="rgb(14,22,127)" fill-opacity="0.502"/>
<g transform="translate(3504.00 1392.00) rotate(257) scale(448.00 64.00)"><ellipse cx="0" cy="0" rx="1" ry="1" fill="rgb(11,112,251)" fill-opacity="0.502"/></g>
<circle cx="2992.00" cy="3920.00" r="288.00" fill="rgb(7,132,247)" fill-opacity="0.502"/>
<circle cx="4896.00" cy="720.00" r="224.00" fill="rgb(6,0,0)" fill-opacity="0.502"/>
<polygon points="4071.66,1895.65 4706.89,1817.66 4728.34,1992.35 4093.11,2070.34" fill="rgb(3,0,0)" fill-opacity="0.502"/>
<g transform="translate(1456.00 4240.00) rotate(72) scale(672.00 192.00)"><ellipse cx="0" cy="0" rx="1" ry="1" fill="rgb(8,106,253)" fill-opacity="0.502"/></g>
<g transform="translate(4352.00 2976.00) rotate(236) scale(256.00 32.00)"><ellipse cx="0" cy="0" rx="1" ry="1" fill="rgb(180,83,74)" fill-opacity="0.502"/></g>
<polygon points="6913.49,605.64 7091.94,810.92 6862.51,1010.36 6684.06,805.08" fill="rgb(0,12,47)" fill-opacity="0.502"/>
<polygon points="1677.23,4192.53 1466.74,4269.14 1362.77,3983.47 1573.26,3906.86" fill="rgb(32,119,248)" fill-opacity="0.502"/>
<circle cx="5120.00" cy="3280.00" r="304.00" fill="rgb(16,7,5)" fill-opacity="0.502"/>
<circle cx="4016.00" cy="2832.00" r="96.00" fill="rgb(22,104,248)" fill-opacity="0.502"/>
<circle cx="2096.00" cy="4384.00" r="160.00" fill="rgb(6,108,252)" fill-opacity="0.502"/>
<polygon points="5760.00,2080.00 5760.00,2352.00 5520.00,2352.00 5520.00,2080.00" fill="rgb(0,0,0)" fill-opacity="0.502"/>
<polygon points="5880.26,2688.99 6515.64,2907.77 6343.74,3407.01 5708.36,3188.23" fill="rgb(19,11,7)" fill-opacity="0.502"/>
<circle cx="5216.00" cy="3440.00" r="176.00" fill="rgb(31,21,18)" fill-opacity="0.502"/>
<g transform="translate(5552.00 1824.00) rotate(360) scale(32.00 208.00)"><ellipse cx="0" cy="0" rx="1" ry="1" fill="rgb(15,135,255)" fill-opacity="0.502"/></g>
</g>
</svg>