<?xml version="1.0" standalone="no"?>
<svg xmlns="http://www.w3.org/2000/svg" width="8192" height="4608" viewBox="0 0 8192 4608" style="overflow:hidden">
<defs>
<clipPath id="c"><rect x="0" y="0" width="8192" height="4608"/></clipPath>
</defs>
<rect width="8192" height="4608" fill="rgb(122,91,66)"/>
<g clip-path="url(#c)">
<g transform="translate(2448.00 400.00) rotate(105) scale(1680.00 1136.00)"><ellipse cx="0" cy="0" rx="1" ry="1" fill="rgb(255,255,255)" fill-opacity="0.502"/></g>
<g transform="translate(336.00 2400.00) rotate(181) scale(864.00 4592.00)"><ellipse cx="0" cy="0" rx="1" ry="1" fill="rgb(0,0,0)" fill-opacity="0.502"/></g>
<g transform="translate(8176.00 2336.00) rotate(90) scale(8176.00 1104.00)"><ellipse cx="0" cy="0" rx="1" ry="1" fill="rgb(0,0,0)" fill-opacity="0.502"/></g>
<circle cx="208.00" cy="1392.00" r="1264.00" fill="rgb(0,0,0)" fill-opacity="0.502"/>
<g transform="translate(5760.00 0.00) rotate(286) scale(800.00 1376.00)"><ellipse cx="0" cy="0" rx="1" ry="1" fill="rgb(255,255,255)" fill-opacity="0.502"/></g>
<circle cx="2368.00" cy="0.00" r="1072.00" fill="rgb(255,255,255)" fill-opacity="0.502"/>
<g transform="translate(4784.00 1920.00) rotate(90) scale(624.00 320.00)"><ellipse cx="0" cy="0" rx="1" ry="1" fill="rgb(243,188,149)" fill-opacity="0.502"/></g>
<g transform="translate(8064.00 2192.00) rotate(91) scale(8176.00 976.00)"><ellipse cx="0" cy="0" rx="1" ry="1" fill="rgb(0,0,0)" fill-opacity="0.502"/></g>
<circle cx="5344.00" cy="3952.00" r="1760.00" fill="rgb(204,135,75)" fill-opacity="0.502"/>
<g transform="translate(2768.00 1776.00) rotate(45) scale(448.00 512.00)"><ellipse cx="0" cy="0" rx="1" ry="1" fill="rgb(156,78,20)" fill-opacity="0.502"/></g>
<g transform="translate(4080.00 112.00) rotate(105) scale(288.00 736.00)"><ellipse cx="0" cy="0" rx="1" ry="1" fill="rgb(255,255,255)" fill-opacity="0.502"/></g>
<g transform="translate(480.00 3440.00) rotate(181) scale(640.00 4592.00)"><ellipse cx="0" cy="0" rx="1" ry="1" fill="rgb(0,0,0)" fill-opacity="0.502"/></g>
<g transform="translate(6464.00 1184.00) rotate(23) scale(608.00 736.00)"><ellipse cx="0" cy="0" rx="1" ry="1" fill="rgb(249,204,169)" fill-opacity="0.502"/></g>
<g transform="translate(5120.00 0.00) rotate(99) scale(496.00 1840.00)"><ellipse cx="0" cy="0" rx="1" ry="1" fill="rgb(255,240,210)" fill-opacity="0.502"/></g>
<circle cx="4688.00" cy="928.00" r="560.00" fill="rgb(88,54,5)" fill-opacity="0.502"/>
<circle cx="2432.00" cy="4384.00" r="1328.00" fill="rgb(216,136,65)" fill-opacity="0.502"/>
<circle cx="2816.00" cy="2896.00" r="1200.00" fill="rgb(166,98,57)" fill-opacity="0.502"/>
<g transform="translate(1552.00 3488.00) rotate(194) scale(592.00 288.00)"><ellipse cx="0" cy="0" rx="1" ry="1" fill="rgb(53,41,20)" fill-opacity="0.502"/></g>
<polygon points="5813.12,741.21 5802.79,1333.12 5210.88,1322.79 5221.21,730.88" fill="rgb(46,36,0)" fill-opacity="0.502"/>
<circle cx="6736.00" cy="3472.00" r="368.00" fill="rgb(85,43,27)" fill-opacity="0.502"/>
<polygon points="3533.83,1501.23 2929.16,1437.68 3026.17,514.77 3630.84,578.32" fill="rgb(255,222,179)" fill-opacity="0.502"/>
<circle cx="1904.00" cy="1536.00" r="592.00" fill="rgb(219,185,150)" fill-opacity="0.502"/>
<g transform="translate(7696.00 2576.00) rotate(269) scale(5520.00 608.00)"><ellipse cx="0" cy="0" rx="1" ry="1" fill="rgb(0,0,0)" fill-opacity="0.502"/></g>
<g transform="translate(3488.00 1920.00) rotate(257) scale(256.00 768.00)"><ellipse cx="0" cy="0" rx="1" ry="1" fill="rgb(95,48,19)" fill-opacity="0.502"/></g>
<g transform="translate(352.00 3792.00) rotate(274) scale(4816.00 704.00)"><ellipse cx="0" cy="0" rx="1" ry="1" fill="rgb(0,0,0)" fill-opacity="0.502"/></g>
<polygon points="6204.05,1448.82 6043.50,1867.06 5699.95,1735.18 5860.50,1316.94" fill="rgb(188,166,152)" fill-opacity="0.502"/>
<g transform="translate(1888.00 400.00) rotate(313) scale(608.00 560.00)"><ellipse cx="0" cy="0" rx="1" ry="1" fill="rgb(255,255,230)" fill-opacity="0.502"/></g>
<g transform="translate(3664.00 4048.00) rotate(101) scale(128.00 1168.00)"><ellipse cx="0" cy="0" rx="1" ry="1" fill="rgb(102,56,14)" fill-opacity="0.502"/></g>
<polygon points="3281.96,1510.81 2747.95,1614.61 2638.04,1049.19 3172.05,945.39" fill="rgb(180,128,78)" fill-opacity="0.502"/>
<circle cx="5440.00" cy="2576.00" r="400.00" fill="rgb(206,158,115)" fill-opacity="0.502"/>
<circle cx="2400.00" cy="2848.00" r="640.00" fill="rgb(192,117,76)" fill-opacity="0.502"/>
<circle cx="5056.00" cy="1536.00" r="224.00" fill="rgb(255,224,204)" fill-opacity="0.502"/>
<circle cx="3264.00" cy="4400.00" r="416.00" fill="rgb(223,146,83)" fill-opacity="0.502"/>
<circle cx="5200.00" cy="4224.00" r="592.00" fill="rgb(211,145,87)" fill-opacity="0.502"/>
<g transform="translate(6832.00 4496.00) rotate(105) scale(752.00 160.00)"><ellipse cx="0" cy="0" rx="1" ry="1" fill="rgb(249,185,119)" fill-opacity="0.502"/></g>
<circle cx="3872.00" cy="1200.00" r="384.00" fill="rgb(114,61,22)" fill-opacity="0.502"/>
<circle cx="4512.00" cy="2688.00" r="624.00" fill="rgb(139,103,70)" fill-opacity="0.502"/>
<g transform="translate(1360.00 1264.00) rotate(71) scale(496.00 240.00)"><ellipse cx="0" cy="0" rx="1" ry="1" fill="rgb(142,89,50)" fill-opacity="0.502"/></g>
<g transform="translate(6512.00 1296.00) rotate(267) scale(464.00 160.00)"><ellipse cx="0" cy="0" rx="1" ry="1" fill="rgb(255,251,231)" fill-opacity="0.502"/></g>
<circle cx="3072.00" cy="2928.00" r="320.00" fill="rgb(110,62,38)" fill-opacity="0.502"/>
<circle cx="3888.00" cy="464.00" r="400.00" fill="rgb(199,160,111)" fill-opacity="0.502"/>
<circle cx="1840.00" cy="4592.00" r="752.00" fill="rgb(203,153,90)" fill-opacity="0.502"/>
<g transform="translate(4896.00 3264.00) rotate(338) scale(144.00 432.00)"><ellipse cx="0" cy="0" rx="1" ry="1" fill="rgb(86,61,43)" fill-opacity="0.502"/></g>
<g transform="translate(6608.00 592.00) rotate(161) scale(512.00 256.00)"><ellipse cx="0" cy="0" rx="1" ry="1" fill="rgb(202,154,114)" fill-opacity="0.502"/></g>
<polygon points="1803.13,1853.58 1812.91,1293.67 2084.87,1298.42 2075.09,1858.33" fill="rgb(255,255,249)" fill-opacity="0.502"/>
<circle cx="6704.00" cy="1872.00" r="192.00" fill="rgb(64,27,0)" fill-opacity="0.502"/>
<g transform="translate(6208.00 1104.00) rotate(188) scale(16.00 1152.00)"><ellipse cx="0" cy="0" rx="1" ry="1" fill="rgb(27,0,0)" fill-opacity="0.502"/></g>
<circle cx="2640.00" cy="1200.00" r="352.00" fill="rgb(209,160,118)" fill-opacity="0.502"/>
<circle cx="7600.00" cy="3984.00" r="528.00" fill="rgb(0,0,0)" fill-opacity="0.502"/>
<circle cx="2048.00" cy="3136.00" r="288.00" fill="rgb(203,141,94)" fill-opacity="0.502"/>
<circle cx="2576.00" cy="224.00" r="704.00" fill="rgb(255,241,218)" fill-opacity="0.502"/>
<circle cx="6064.00" cy="3024.00" r="192.00" fill="rgb(95,52,29)" fill-opacity="0.502"/>
<circle cx="6432.00" cy="1312.00" r="192.00" fill="rgb(248,217,192)" fill-opacity="0.502"/>
<g transform="translate(1392.00 2640.00) rotate(262) scale(1008.00 256.00)"><ellipse cx="0" cy="0" rx="1" ry="1" fill="rgb(126,75,43)" fill-opacity="0.502"/></g>
<g transform="translate(4272.00 64.00) rotate(295) scale(352.00 304.00)"><ellipse cx="0" cy="0" rx="1" ry="1" fill="rgb(255,239,224)" fill-opacity="0.502"/></g>
<circle cx="7712.00" cy="2128.00" r="640.00" fill="rgb(0,0,0)" fill-opacity="0.502"/>
<circle cx="6384.00" cy="2304.00" r="400.00" fill="rgb(129,70,37)" fill-opacity="0.502"/>
<g transform="translate(5456.00 4336.00) rotate(277) scale(112.00 1680.00)"><ellipse cx="0" cy="0" rx="1" ry="1" fill="rgb(121,74,24)" fill-opacity="0.502"/></g>
<g transform="translate(4688.00 4384.00) rotate(130) scale(512.00 272.00)"><ellipse cx="0" cy="0" rx="1" ry="1" fill="rgb(219,155,97)" fill-opacity="0.502"/></g>
<polygon points="7077.86,2135.77 6391.53,2183.76 6378.14,1992.23 7064.47,1944.24" fill="rgb(48,19,6)" fill-opacity="0.502"/>
<polygon points="7061.16,1683.50 6695.95,1564.84 6794.84,1260.50 7160.05,1379.16" fill="rgb(231,214,195)" fill-opacity="0.502"/>
<circle cx="7552.00" cy="1392.00" r="480.00" fill="rgb(0,0,0)" fill-opacity="0.502"/>
<polygon points="5813.07,1302.37 5591.55,1028.81 5802.93,857.63 6024.45,1131.19" fill="rgb(55,39,0)" fill-opacity="0.502"/>
<polygon points="4638.38,1935.34 4717.06,1641.70 5041.62,1728.66 4962.94,2022.30" fill="rgb(247,233,218)" fill-opacity="0.502"/>
<circle cx="6048.00" cy="864.00" r="240.00" fill="rgb(166,112,61)" fill-opacity="0.502"/>
<g transform="translate(3776.00 2560.00) rotate(201) scale(432.00 384.00)"><ellipse cx="0" cy="0" rx="1" ry="1" fill="rgb(164,123,84)" fill-opacity="0.502"/></g>
<g transform="translate(2672.00 4208.00) rotate(118) scale(224.00 448.00)"><ellipse cx="0" cy="0" rx="1" ry="1" fill="rgb(190,142,80)" fill-opacity="0.502"/></g>
<polygon points="6731.97,1089.71 6923.94,1086.36 6932.03,1550.29 6740.06,1553.64" fill="rgb(255,247,225)" fill-opacity="0.502"/>
<g transform="translate(3760.00 432.00) rotate(88) scale(384.00 80.00)"><ellipse cx="0" cy="0" rx="1" ry="1" fill="rgb(118,71,23)" fill-opacity="0.502"/></g>
<polygon points="5449.66,1478.23 5331.46,1629.53 5142.34,1481.77 5260.54,1330.47" fill="rgb(240,211,189)" fill-opacity="0.502"/>
<g transform="translate(6736.00 3104.00) rotate(224) scale(336.00 224.00)"><ellipse cx="0" cy="0" rx="1" ry="1" fill="rgb(96,58,38)" fill-opacity="0.502"/></g>
<circle cx="320.00" cy="3696.00" r="784.00" fill="rgb(0,0,0)" fill-opacity="0.502"/>
<polygon points="4486.23,1883.28 4141.35,1650.66 4409.77,1252.72 4754.65,1485.34" fill="rgb(177,94,58)" fill-opacity="0.502"/>
<polygon points="6780.41,2559.66 6771.20,2735.42 6483.59,2720.34 6492.80,2544.58" fill="rgb(235,122,73)" fill-opacity="0.502"/>
<circle cx="6880.00" cy="4128.00" r="208.00" fill="rgb(246,183,130)" fill-opacity="0.502"/>
<circle cx="5488.00" cy="560.00" r="208.00" fill="rgb(254,225,195)" fill-opacity="0.502"/>
<polygon points="4292.29,540.26 4283.08,716.02 3819.71,691.74 3828.92,515.98" fill="rgb(222,197,169)" fill-opacity="0.502"/>
<g transform="translate(6672.00 32.00) rotate(326) scale(400.00 432.00)"><ellipse cx="0" cy="0" rx="1" ry="1" fill="rgb(233,205,176)" fill-opacity="0.502"/></g>
<g transform="translate(3584.00 3280.00) rotate(95) scale(176.00 176.00)"><ellipse cx="0" cy="0" rx="1" ry="1" fill="rgb(220,157,89)" fill-opacity="0.502"/></g>
<g transform="translate(1312.00 2784.00) rotate(65) scale(64.00 240.00)"><ellipse cx="0" cy="0" rx="1" ry="1" fill="rgb(221,111,65)" fill-opacity="0.502"/></g>
<polygon points="5555.12,1757.64 5298.01,2064.05 5052.88,1858.36 5309.99,1551.95" fill="rgb(103,50,19)" fill-opacity="0.502"/>
<circle cx="7520.00" cy="384.00" r="448.00" fill="rgb(0,0,0)" fill-opacity="0.502"/>
<polygon points="1714.15,1031.89 1856.01,1184.01 1469.85,1544.11 1327.99,1391.99" fill="rgb(158,112,76)" fill-opacity="0.502"/>
<g transform="translate(6672.00 3840.00) rotate(157) scale(256.00 224.00)"><ellipse cx="0" cy="0" rx="1" ry="1" fill="rgb(111,61,32)" fill-opacity="0.502"/></g>
<circle cx="3472.00" cy="1472.00" r="160.00" fill="rgb(242,212,188)" fill-opacity="0.502"/>
<g transform="translate(1200.00 1008.00) rotate(181) scale(112.00 1008.00)"><ellipse cx="0" cy="0" rx="1" ry="1" fill="rgb(93,54,42)" fill-opacity="0.502"/></g>
<g transform="translate(256.00 80.00) rotate(43) scale(976.00 688.00)"><ellipse cx="0" cy="0" rx="1" ry="1" fill="rgb(0,0,0)" fill-opacity="0.502"/></g>
<polygon points="1132.98,3703.87 1593.16,3928.32 1523.02,4072.13 1062.84,3847.68" fill="rgb(207,149,99)" fill-opacity="0.502"/>
<polygon points="5394.56,123.69 6054.72,603.32 5885.44,836.31 5225.28,356.68" fill="rgb(248,216,193)" fill-opacity="0.502"/>
<circle cx="4992.00" cy="1056.00" r="352.00" fill="rgb(79,54,22)" fill-opacity="0.502"/>
<circle cx="5664.00" cy="3696.00" r="272.00" fill="rgb(127,79,47)" fill-opacity="0.502"/>
<g transform="translate(7872.00 3280.00) rotate(325) scale(736.00 880.00)"><ellipse cx="0" cy="0" rx="1" ry="1" fill="rgb(0,0,0)" fill-opacity="0.502"/></g>
<g transform="translate(4832.00 128.00) rotate(6) scale(1168.00 208.00)"><ellipse cx="0" cy="0" rx="1" ry="1" fill="rgb(246,218,201)" fill-opacity="0.502"/></g>
<g transform="translate(7728.00 480.00) rotate(237) scale(752.00 592.00)"><ellipse cx="0" cy="0" rx="1" ry="1" fill="rgb(0,0,0)" fill-opacity="0.502"/></g>
<polygon points="6425.43,3664.78 6329.45,3663.11 6342.57,2911.22 6438.55,2912.89" fill="rgb(209,166,145)" fill-opacity="0.502"/>
<g transform="translate(3856.00 896.00) rotate(336) scale(448.00 112.00)"><ellipse cx="0" cy="0" rx="1" ry="1" fill="rgb(123,82,38)" fill-opacity="0.502"/></g>
<polygon points="2190.61,3918.41 2228.26,3488.05 2977.39,3553.59 2939.74,3983.95" fill="rgb(123,71,28)" fill-opacity="0.502"/>
<polygon points="3375.50,1864.36 3120.13,1846.51 3152.50,1383.64 3407.87,1401.49" fill="rgb(108,60,20)" fill-opacity="0.502"/>
<circle cx="4400.00" cy="3328.00" r="192.00" fill="rgb(208,152,99)" fill-opacity="0.502"/>
<g transform="translate(6704.00 2592.00) rotate(34) scale(368.00 416.00)"><ellipse cx="0" cy="0" rx="1" ry="1" fill="rgb(150,96,60)" fill-opacity="0.502"/></g>
<polygon points="5290.45,3366.98 5511.72,3863.95 5365.55,3929.02 5144.28,3432.05" fill="rgb(219,166,137)" fill-opacity="0.502"/>
<polygon points="3024.00,960.00 3024.00,688.00 3616.00,688.00 3616.00,960.00" fill="rgb(255,246,232)" fill-opacity="0.502"/>
<circle cx="4624.00" cy="3776.00" r="192.00" fill="rgb(110,66,42)" fill-opacity="0.502"/>
<polygon points="5804.75,4268.75 7093.65,4404.22 7075.25,4579.25 5786.35,4443.78" fill="rgb(122,73,25)" fill-opacity="0.502"/>
<polygon points="6259.29,4655.81 5211.16,4527.12 5228.71,4384.19 6276.84,4512.88" fill="rgb(203,147,84)" fill-opacity="0.502"/>
<circle cx="6096.00" cy="4000.00" r="336.00" fill="rgb(198,133,74)" fill-opacity="0.502"/>
<polygon points="5154.10,3381.78 5059.56,3365.11 5117.90,3034.22 5212.44,3050.89" fill="rgb(75,53,26)" fill-opacity="0.502"/>
<polygon points="4552.55,3132.37 4073.21,3107.25 4087.45,2835.63 4566.79,2860.75" fill="rgb(104,72,40)" fill-opacity="0.502"/>
<circle cx="3184.00" cy="1952.00" r="448.00" fill="rgb(122,75,44)" fill-opacity="0.502"/>
<circle cx="2256.00" cy="1344.00" r="96.00" fill="rgb(255,255,255)" fill-opacity="0.502"/>
<circle cx="2400.00" cy="2816.00" r="272.00" fill="rgb(134,80,49)" fill-opacity="0.502"/>
<circle cx="592.00" cy="2816.00" r="512.00" fill="rgb(0,0,0)" fill-opacity="0.502"/>
<g transform="translate(2960.00 2352.00) rotate(320) scale(208.00 1056.00)"><ellipse cx="0" cy="0" rx="1" ry="1" fill="rgb(154,102,67)" fill-opacity="0.502"/></g>
<circle cx="416.00" cy="4496.00" r="688.00" fill="rgb(0,0,0)" fill-opacity="0.502"/>
<polygon points="6133.38,4267.35 6173.52,3885.46 6698.62,3940.65 6658.48,4322.54" fill="rgb(193,131,79)" fill-opacity="0.502"/>
<g transform="translate(5776.00 2432.00) rotate(134) scale(288.00 160.00)"><ellipse cx="0" cy="0" rx="1" ry="1" fill="rgb(195,133,83)" fill-opacity="0.502"/></g>
<g transform="translate(1392.00 672.00) rotate(285) scale(256.00 64.00)"><ellipse cx="0" cy="0" rx="1" ry="1" fill="rgb(255,251,224)" fill-opacity="0.502"/></g>
<g transform="translate(7600.00 4368.00) rotate(74) scale(688.00 496.00)"><ellipse cx="0" cy="0" rx="1" ry="1" fill="rgb(0,0,0)" fill-opacity="0.502"/></g>
<circle cx="5040.00" cy="784.00" r="256.00" fill="rgb(74,59,17)" fill-opacity="0.502"/>
<circle cx="3968.00" cy="4592.00" r="368.00" fill="rgb(210,150,86)" fill-opacity="0.502"/>
<circle cx="1584.00" cy="640.00" r="272.00" fill="rgb(255,241,224)" fill-opacity="0.502"/>
<circle cx="4480.00" cy="1552.00" r="160.00" fill="rgb(199,125,89)" fill-opacity="0.502"/>
<polygon points="3252.50,579.95 3220.11,439.64 3547.50,364.05 3579.89,504.36" fill="rgb(171,109,43)" fill-opacity="0.502"/>
<g transform="translate(6624.00 3376.00) rotate(179) scale(192.00 368.00)"><ellipse cx="0" cy="0" rx="1" ry="1" fill="rgb(97,55,30)" fill-opacity="0.502"/></g>
<circle cx="400.00" cy="2368.00" r="752.00" fill="rgb(0,0,0)" fill-opacity="0.502"/>
<circle cx="3504.00" cy="3728.00" r="208.00" fill="rgb(123,87,38)" fill-opacity="0.502"/>
<g transform="translate(1504.00 2752.00) rotate(268) scale(48.00 208.00)"><ellipse cx="0" cy="0" rx="1" ry="1" fill="rgb(253,136,96)" fill-opacity="0.502"/></g>
<circle cx="1840.00" cy="256.00" r="544.00" fill="rgb(255,232,217)" fill-opacity="0.502"/>
<polygon points="4713.68,3176.41 4249.96,2758.87 4710.32,2247.59 5174.04,2665.13" fill="rgb(156,116,81)" fill-opacity="0.502"/>
<circle cx="6944.00" cy="3568.00" r="144.00" fill="rgb(197,136,88)" fill-opacity="0.502"/>
<g transform="translate(5152.00 1744.00) rotate(174) scale(112.00 176.00)"><ellipse cx="0" cy="0" rx="1" ry="1" fill="rgb(143,95,63)" fill-opacity="0.502"/></g>
<polygon points="2224.85,1874.30 2145.63,1863.16 2239.15,1197.70 2318.37,1208.84" fill="rgb(255,239,216)" fill-opacity="0.502"/>
<circle cx="3728.00" cy="2880.00" r="256.00" fill="rgb(117,91,62)" fill-opacity="0.502"/>
<g transform="translate(896.00 784.00) rotate(98) scale(5536.00 128.00)"><ellipse cx="0" cy="0" rx="1" ry="1" fill="rgb(0,0,0)" fill-opacity="0.502"/></g>
<polygon points="7124.42,1757.00 6996.12,1822.38 6843.58,1523.00 6971.88,1457.62" fill="rgb(194,161,127)" fill-opacity="0.502"/>
<circle cx="7920.00" cy="1632.00" r="848.00" fill="rgb(0,0,0)" fill-opacity="0.502"/>
<g transform="translate(3216.00 3264.00) rotate(152) scale(176.00 240.00)"><ellipse cx="0" cy="0" rx="1" ry="1" fill="rgb(111,62,37)" fill-opacity="0.502"/></g>
<g transform="translate(5136.00 2192.00) rotate(266) scale(176.00 256.00)"><ellipse cx="0" cy="0" rx="1" ry="1" fill="rgb(197,129,85)" fill-opacity="0.502"/></g>
<g transform="translate(5712.00 1616.00) rotate(110) scale(80.00 176.00)"><ellipse cx="0" cy="0" rx="1" ry="1" fill="rgb(190,170,145)" fill-opacity="0.502"/></g>
<circle cx="7024.00" cy="2256.00" r="80.00" fill="rgb(158,135,109)" fill-opacity="0.502"/>
<g transform="translate(6176.00 1648.00) rotate(277) scale(592.00 64.00)"><ellipse cx="0" cy="0" rx="1" ry="1" fill="rgb(115,54,25)" fill-opacity="0.502"/></g>
<g transform="translate(3952.00 1504.00) rotate(228) scale(416.00 320.00)"><ellipse cx="0" cy="0" rx="1" ry="1" fill="rgb(119,75,44)" fill-opacity="0.502"/></g>
<circle cx="1936.00" cy="3520.00" r="272.00" fill="rgb(102,78,51)" fill-opacity="0.502"/>
<polygon points="4478.32,3545.09 4286.79,4071.32 4241.68,4054.91 4433.21,3528.68" fill="rgb(214,175,134)" fill-opacity="0.502"/>
<circle cx="6368.00" cy="944.00" r="96.00" fill="rgb(255,237,215)" fill-opacity="0.502"/>
<circle cx="4576.00" cy="656.00" r="336.00" fill="rgb(116,85,41)" fill-opacity="0.502"/>
<polygon points="4076.30,665.01 4476.42,1079.35 4211.70,1334.99 3811.58,920.65" fill="rgb(83,57,24)" fill-opacity="0.502"/>
<g transform="translate(2656.00 2400.00) rotate(69) scale(368.00 112.00)"><ellipse cx="0" cy="0" rx="1" ry="1" fill="rgb(198,132,93)" fill-opacity="0.502"/></g>
<circle cx="1568.00" cy="1856.00" r="160.00" fill="rgb(224,213,189)" fill-opacity="0.502"/>
<polygon points="1561.13,3662.85 1114.22,3631.60 1158.87,2993.15 1605.78,3024.40" fill="rgb(83,60,38)" fill-opacity="0.502"/>
<g transform="translate(4048.00 3392.00) rotate(95) scale(432.00 224.00)"><ellipse cx="0" cy="0" rx="1" ry="1" fill="rgb(183,135,83)" fill-opacity="0.502"/></g>
<g transform="translate(6448.00 1792.00) rotate(226) scale(80.00 304.00)"><ellipse cx="0" cy="0" rx="1" ry="1" fill="rgb(211,171,130)" fill-opacity="0.502"/></g>
<polygon points="5581.49,3218.87 5453.67,3212.17 5490.51,2509.13 5618.33,2515.83" fill="rgb(223,176,135)" fill-opacity="0.502"/>
<g transform="translate(6704.00 1536.00) rotate(360) scale(16.00 1024.00)"><ellipse cx="0" cy="0" rx="1" ry="1" fill="rgb(73,23,0)" fill-opacity="0.502"/></g>
<polygon points="4791.53,3579.67 4284.51,3650.93 4264.47,3508.33 4771.49,3437.07" fill="rgb(88,55,41)" fill-opacity="0.502"/>
<polygon points="5851.64,1185.77 5895.42,1306.06 5444.36,1470.23 5400.58,1349.94" fill="rgb(82,51,24)" fill-opacity="0.502"/>
<g transform="translate(5312.00 2784.00) rotate(281) scale(192.00 304.00)"><ellipse cx="0" cy="0" rx="1" ry="1" fill="rgb(177,136,99)" fill-opacity="0.502"/></g>
<polygon points="5178.40,3998.95 5175.61,3967.07 5701.60,3921.05 5704.39,3952.93" fill="rgb(101,42,5)" fill-opacity="0.502"/>
<circle cx="1264.00" cy="3904.00" r="176.00" fill="rgb(194,138,93)" fill-opacity="0.502"/>
<polygon points="6943.04,1220.18 6993.22,742.81 7040.96,747.82 6990.78,1225.19" fill="rgb(99,33,10)" fill-opacity="0.502"/>
<g transform="translate(5344.00 1840.00) rotate(310) scale(304.00 64.00)"><ellipse cx="0" cy="0" rx="1" ry="1" fill="rgb(78,35,10)" fill-opacity="0.502"/></g>
<circle cx="6432.00" cy="496.00" r="144.00" fill="rgb(240,224,210)" fill-opacity="0.502"/>
<g transform="translate(6368.00 1664.00) rotate(14) scale(128.00 288.00)"><ellipse cx="0" cy="0" rx="1" ry="1" fill="rgb(233,192,159)" fill-opacity="0.502"/></g>
<circle cx="5872.00" cy="1424.00" r="80.00" fill="rgb(255,255,223)" fill-opacity="0.502"/>
<g transform="translate(2048.00 2256.00) rotate(146) scale(256.00 208.00)"><ellipse cx="0" cy="0" rx="1" ry="1" fill="rgb(188,101,61)" fill-opacity="0.502"/></g>
<g transform="translate(1472.00 4192.00) rotate(180) scale(368.00 64.00)"><ellipse cx="0" cy="0" rx="1" ry="1" fill="rgb(133,75,38)" fill-opacity="0.502"/></g>
<polygon points="4896.00,4144.00 4896.00,4304.00 4384.00,4304.00 4384.00,4144.00" fill="rgb(130,88,43)" fill-opacity="0.502"/>
<g transform="translate(2080.00 1552.00) rotate(181) scale(48.00 400.00)"><ellipse cx="0" cy="0" rx="1" ry="1" fill="rgb(255,255,255)" fill-opacity="0.502"/></g>
<g transform="translate(1760.00 1984.00) rotate(91) scale(864.00 16.00)"><ellipse cx="0" cy="0" rx="1" ry="1" fill="rgb(75,46,20)" fill-opacity="0.502"/></g>
<g transform="translate(2480.00 1424.00) rotate(164) scale(32.00 480.00)"><ellipse cx="0" cy="0" rx="1" ry="1" fill="rgb(172,135,97)" fill-opacity="0.502"/></g>
<polygon points="3727.92,1553.56 3763.88,1464.55 4016.08,1566.44 3980.12,1655.45" fill="rgb(181,123,93)" fill-opacity="0.502"/>
<polygon points="4231.50,558.06 4006.55,152.24 4104.50,97.94 4329.45,503.76" fill="rgb(246,227,200)" fill-opacity="0.502"/>
<circle cx="2704.00" cy="3328.00" r="192.00" fill="rgb(209,136,92)" fill-opacity="0.502"/>
<circle cx="3872.00" cy="2432.00" r="112.00" fill="rgb(197,154,91)" fill-opacity="0.502"/>
<circle cx="800.00" cy="3824.00" r="304.00" fill="rgb(0,0,0)" fill-opacity="0.502"/>
<g transform="translate(2800.00 4304.00) rotate(277) scale(384.00 560.00)"><ellipse cx="0" cy="0" rx="1" ry="1" fill="rgb(185,133,75)" fill-opacity="0.502"/></g>
<polygon points="5026.14,4556.36 4680.60,4623.52 4637.86,4403.64 4983.40,4336.48" fill="rgb(246,182,119)" fill-opacity="0.502"/>
<polygon points="3290.77,4244.87 3608.38,4205.87 3653.23,4571.13 3335.62,4610.13" fill="rgb(238,137,76)" fill-opacity="0.502"/>
<g transform="translate(4448.00 1824.00) rotate(39) scale(64.00 496.00)"><ellipse cx="0" cy="0" rx="1" ry="1" fill="rgb(145,73,44)" fill-opacity="0.502"/></g>
<circle cx="7008.00" cy="3296.00" r="64.00" fill="rgb(255,213,185)" fill-opacity="0.502"/>
<g transform="translate(1440.00 4320.00) rotate(270) scale(64.00 336.00)"><ellipse cx="0" cy="0" rx="1" ry="1" fill="rgb(227,161,115)" fill-opacity="0.502"/></g>
<g transform="translate(2544.00 400.00) rotate(167) scale(768.00 528.00)"><ellipse cx="0" cy="0" rx="1" ry="1" fill="rgb(254,233,215)" fill-opacity="0.502"/></g>
<g transform="translate(1392.00 1088.00) rotate(269) scale(256.00 144.00)"><ellipse cx="0" cy="0" rx="1" ry="1" fill="rgb(149,98,48)" fill-opacity="0.502"/></g>
<polygon points="2040.79,3226.99 2178.45,3030.40 2519.21,3269.01 2381.55,3465.60" fill="rgb(243,164,114)" fill-opacity="0.502"/>
<polygon points="4526.22,843.94 4529.85,635.97 4993.78,644.06 4990.15,852.03" fill="rgb(65,41,17)" fill-opacity="0.502"/>
<polygon points="6114.82,2597.74 6206.57,2533.50 6445.18,2874.26 6353.43,2938.50" fill="rgb(209,147,112)" fill-opacity="0.502"/>
<g transform="translate(4304.00 1216.00) rotate(187) scale(544.00 128.00)"><ellipse cx="0" cy="0" rx="1" ry="1" fill="rgb(130,83,49)" fill-opacity="0.502"/></g>
<g transform="translate(128.00 864.00) rotate(86) scale(2320.00 976.00)"><ellipse cx="0" cy="0" rx="1" ry="1" fill="rgb(0,0,0)" fill-opacity="0.502"/></g>
<polygon points="6281.29,3815.78 5999.15,3427.45 6102.71,3352.22 6384.85,3740.55" fill="rgb(213,157,119)" fill-opacity="0.502"/>
<circle cx="2624.00" cy="1888.00" r="240.00" fill="rgb(139,88,47)" fill-opacity="0.502"/>
<g transform="translate(6032.00 2480.00) rotate(262) scale(128.00 288.00)"><ellipse cx="0" cy="0" rx="1" ry="1" fill="rgb(129,77,49)" fill-opacity="0.502"/></g>
<polygon points="5848.45,2116.05 5440.09,2195.43 5351.55,1739.95 5759.91,1660.57" fill="rgb(150,80,48)" fill-opacity="0.502"/>
<polygon points="5040.00,1424.00 5072.00,1424.00 5072.00,2112.00 5040.00,2112.00" fill="rgb(81,41,24)" fill-opacity="0.502"/>
<circle cx="5216.00" cy="3792.00" r="144.00" fill="rgb(245,183,159)" fill-opacity="0.502"/>
<polygon points="2122.98,1882.53 2269.15,1947.61 2165.02,2181.47 2018.85,2116.39" fill="rgb(196,141,112)" fill-opacity="0.502"/>
<g transform="translate(3520.00 2496.00) rotate(94) scale(176.00 16.00)"><ellipse cx="0" cy="0" rx="1" ry="1" fill="rgb(255,191,144)" fill-opacity="0.502"/></g>
<polygon points="1436.48,1662.75 1502.29,1926.67 1331.52,1969.25 1265.71,1705.33" fill="rgb(159,93,60)" fill-opacity="0.502"/>
<polygon points="1726.24,935.90 1738.23,906.23 2049.76,1032.10 2037.77,1061.77" fill="rgb(147,111,72)" fill-opacity="0.502"/>
<g transform="translate(3856.00 3216.00) rotate(96) scale(16.00 416.00)"><ellipse cx="0" cy="0" rx="1" ry="1" fill="rgb(74,37,0)" fill-opacity="0.502"/></g>
<g transform="translate(6880.00 2112.00) rotate(187) scale(32.00 880.00)"><ellipse cx="0" cy="0" rx="1" ry="1" fill="rgb(112,70,40)" fill-opacity="0.502"/></g>
<circle cx="4528.00" cy="2032.00" r="80.00" fill="rgb(255,212,197)" fill-opacity="0.502"/>
<circle cx="5568.00" cy="336.00" r="400.00" fill="rgb(234,210,190)" fill-opacity="0.502"/>
<g transform="translate(1808.00 2912.00) rotate(23) scale(128.00 256.00)"><ellipse cx="0" cy="0" rx="1" ry="1" fill="rgb(118,70,37)" fill-opacity="0.502"/></g>
<polygon points="6372.74,2909.95 6828.98,2613.67 7003.26,2882.05 6547.02,3178.33" fill="rgb(130,87,60)" fill-opacity="0.502"/>
<polygon points="2046.18,1032.43 2050.09,920.50 2481.82,935.57 2477.91,1047.50" fill="rgb(191,151,104)" fill-opacity="0.502"/>
<circle cx="6672.00" cy="992.00" r="96.00" fill="rgb(127,52,20)" fill-opacity="0.502"/>
<circle cx="5744.00" cy="4128.00" r="160.00" fill="rgb(225,165,101)" fill-opacity="0.502"/>
<polygon points="2458.17,1777.75 2266.16,1893.12 2117.83,1646.25 2309.84,1530.88" fill="rgb(215,165,137)" fill-opacity="0.502"/>
<g transform="translate(6208.00 3936.00) rotate(294) scale(80.00 192.00)"><ellipse cx="0" cy="0" rx="1" ry="1" fill="rgb(142,87,29)" fill-opacity="0.502"/></g>
<polygon points="1105.07,2878.60 1197.80,2853.76 1230.93,2977.40 1138.20,3002.24" fill="rgb(211,133,99)" fill-opacity="0.502"/>
<polygon points="6618.18,470.66 6815.96,575.82 6725.82,745.34 6528.04,640.18" fill="rgb(193,140,89)" fill-opacity="0.502"/>
<circle cx="1968.00" cy="1328.00" r="32.00" fill="rgb(73,41,17)" fill-opacity="0.502"/>
<circle cx="1248.00" cy="2512.00" r="112.00" fill="rgb(168,115,80)" fill-opacity="0.502"/>
<circle cx="3024.00" cy="3504.00" r="80.00" fill="rgb(229,154,111)" fill-opacity="0.502"/>
<polygon points="6498.70,2790.01 6448.80,2555.26 6605.30,2521.99 6655.20,2756.74" fill="rgb(223,118,79)" fill-opacity="0.502"/>
<polygon points="3019.24,1549.73 3127.62,1115.04 3220.76,1138.27 3112.38,1572.96" fill="rgb(137,101,60)" fill-opacity="0.502"/>
<g transform="translate(6496.00 944.00) rotate(82) scale(832.00 96.00)"><ellipse cx="0" cy="0" rx="1" ry="1" fill="rgb(238,211,189)" fill-opacity="0.502"/></g>
<g transform="translate(2656.00 3152.00) rotate(273) scale(64.00 368.00)"><ellipse cx="0" cy="0" rx="1" ry="1" fill="rgb(145,79,39)" fill-opacity="0.502"/></g>
<circle cx="4048.00" cy="1872.00" r="208.00" fill="rgb(96,54,30)" fill-opacity="0.502"/>
<polygon points="4695.79,2559.06 4479.79,2184.94 4632.21,2096.94 4848.21,2471.06" fill="rgb(134,92,42)" fill-opacity="0.502"/>
<circle cx="4944.00" cy="1600.00" r="112.00" fill="rgb(255,237,215)" fill-opacity="0.502"/>
<polygon points="6214.62,2232.58 6373.43,2252.08 6297.38,2871.42 6138.57,2851.92" fill="rgb(179,127,81)" fill-opacity="0.502"/>
<polygon points="5927.93,1918.46 5944.12,1454.75 6024.07,1457.54 6007.88,1921.25" fill="rgb(52,26,23)" fill-opacity="0.502"/>
<polygon points="5702.43,4667.14 5606.43,4500.86 5689.57,4452.86 5785.57,4619.14" fill="rgb(255,201,125)" fill-opacity="0.502"/>
<polygon points="6294.20,2350.80 6451.06,2592.34 5833.80,2993.20 5676.94,2751.66" fill="rgb(144,90,61)" fill-opacity="0.502"/>
<g transform="translate(7808.00 3152.00) rotate(188) scale(720.00 1072.00)"><ellipse cx="0" cy="0" rx="1" ry="1" fill="rgb(0,0,0)" fill-opacity="0.502"/></g>
<polygon points="6257.36,2162.51 6501.36,1786.78 6702.64,1917.49 6458.64,2293.22" fill="rgb(80,43,21)" fill-opacity="0.502"/>
<polygon points="4270.68,3478.69 3502.80,3465.29 3505.32,3321.31 4273.20,3334.71" fill="rgb(203,145,97)" fill-opacity="0.502"/>
<g transform="translate(1568.00 1872.00) rotate(97) scale(464.00 16.00)"><ellipse cx="0" cy="0" rx="1" ry="1" fill="rgb(34,15,0)" fill-opacity="0.502"/></g>
<g transform="translate(3792.00 2112.00) rotate(267) scale(96.00 64.00)"><ellipse cx="0" cy="0" rx="1" ry="1" fill="rgb(196,156,125)" fill-opacity="0.502"/></g>
<polygon points="1330.29,-138.49 1293.45,564.54 1101.71,554.49 1138.55,-148.54" fill="rgb(95,56,41)" fill-opacity="0.502"/>
<g transform="translate(3216.00 1952.00) rotate(171) scale(128.00 256.00)"><ellipse cx="0" cy="0" rx="1" ry="1" fill="rgb(82,46,22)" fill-opacity="0.502"/></g>
<circle cx="5920.00" cy="1888.00" r="144.00" fill="rgb(192,139,118)" fill-opacity="0.502"/>
<polygon points="6408.77,3918.99 6424.40,3695.53 6903.23,3729.01 6887.60,3952.47" fill="rgb(102,54,28)" fill-opacity="0.502"/>
<circle cx="4736.00" cy="432.00" r="112.00" fill="rgb(172,143,88)" fill-opacity="0.502"/>
<polygon points="2208.07,3004.79 2247.76,3143.21 1647.93,3315.21 1608.24,3176.79" fill="rgb(212,150,99)" fill-opacity="0.502"/>
<polygon points="5397.96,2210.57 5383.57,2148.21 5898.04,2029.43 5912.43,2091.79" fill="rgb(172,120,97)" fill-opacity="0.502"/>
<polygon points="3499.54,1602.24 3237.65,1321.40 3284.46,1277.76 3546.35,1558.60" fill="rgb(255,236,214)" fill-opacity="0.502"/>
<circle cx="6704.00" cy="2304.00" r="80.00" fill="rgb(185,148,118)" fill-opacity="0.502"/>
<g transform="translate(1152.00 192.00) rotate(1) scale(32.00 1280.00)"><ellipse cx="0" cy="0" rx="1" ry="1" fill="rgb(112,82,76)" fill-opacity="0.502"/></g>
<circle cx="400.00" cy="3296.00" r="704.00" fill="rgb(0,0,0)" fill-opacity="0.502"/>
<circle cx="6016.00" cy="3616.00" r="80.00" fill="rgb(111,54,8)" fill-opacity="0.502"/>
<g transform="translate(3776.00 704.00) rotate(249) scale(256.00 96.00)"><ellipse cx="0" cy="0" rx="1" ry="1" fill="rgb(116,62,44)" fill-opacity="0.502"/></g>
<polygon points="1267.80,2773.08 1157.90,2207.66 1676.20,2106.92 1786.10,2672.34" fill="rgb(112,85,54)" fill-opacity="0.502"/>
<circle cx="7024.00" cy="3184.00" r="64.00" fill="rgb(188,165,158)" fill-opacity="0.502"/>
<circle cx="2992.00" cy="1728.00" r="176.00" fill="rgb(160,112,65)" fill-opacity="0.502"/>
<g transform="translate(2656.00 2560.00) rotate(296) scale(720.00 32.00)"><ellipse cx="0" cy="0" rx="1" ry="1" fill="rgb(122,70,38)" fill-opacity="0.502"/></g>
<g transform="translate(2928.00 2560.00) rotate(151) scale(288.00 144.00)"><ellipse cx="0" cy="0" rx="1" ry="1" fill="rgb(179,117,85)" fill-opacity="0.502"/></g>
<g transform="translate(5584.00 1184.00) rotate(262) scale(64.00 480.00)"><ellipse cx="0" cy="0" rx="1" ry="1" fill="rgb(82,51,20)" fill-opacity="0.502"/></g>
<g transform="translate(3056.00 3104.00) rotate(101) scale(128.00 320.00)"><ellipse cx="0" cy="0" rx="1" ry="1" fill="rgb(127,73,45)" fill-opacity="0.502"/></g>
<polygon points="2910.71,1384.42 2828.42,1433.87 2721.29,1255.58 2803.58,1206.13" fill="rgb(252,221,191)" fill-opacity="0.502"/>
<g transform="translate(1968.00 2816.00) rotate(76) scale(384.00 144.00)"><ellipse cx="0" cy="0" rx="1" ry="1" fill="rgb(194,108,62)" fill-opacity="0.502"/></g>
<circle cx="7712.00" cy="640.00" r="640.00" fill="rgb(0,0,0)" fill-opacity="0.502"/>
<g transform="translate(7664.00 4384.00) rotate(117) scale(528.00 592.00)"><ellipse cx="0" cy="0" rx="1" ry="1" fill="rgb(0,0,0)" fill-opacity="0.502"/></g>
<g transform="translate(4784.00 3312.00) rotate(153) scale(400.00 16.00)"><ellipse cx="0" cy="0" rx="1" ry="1" fill="rgb(205,166,132)" fill-opacity="0.502"/></g>
<g transform="translate(2736.00 3328.00) rotate(235) scale(208.00 160.00)"><ellipse cx="0" cy="0" rx="1" ry="1" fill="rgb(201,130,85)" fill-opacity="0.502"/></g>
<circle cx="2448.00" cy="1488.00" r="112.00" fill="rgb(219,195,170)" fill-opacity="0.502"/>
<polygon points="2315.02,3111.66 2340.98,2616.34 2340.98,2616.34 2315.02,3111.66" fill="rgb(232,186,166)" fill-opacity="0.502"/>
<g transform="translate(4464.00 2704.00) rotate(174) scale(192.00 64.00)"><ellipse cx="0" cy="0" rx="1" ry="1" fill="rgb(198,144,105)" fill-opacity="0.502"/></g>
<g transform="translate(3440.00 2192.00) rotate(268) scale(416.00 32.00)"><ellipse cx="0" cy="0" rx="1" ry="1" fill="rgb(98,48,16)" fill-opacity="0.502"/></g>
<g transform="translate(1408.00 3056.00) rotate(27) scale(112.00 112.00)"><ellipse cx="0" cy="0" rx="1" ry="1" fill="rgb(150,84,51)" fill-opacity="0.502"/></g>
<g transform="translate(6976.00 2064.00) rotate(182) scale(64.00 208.00)"><ellipse cx="0" cy="0" rx="1" ry="1" fill="rgb(67,34,11)" fill-opacity="0.502"/></g>
<g transform="translate(6496.00 4192.00) rotate(80) scale(144.00 256.00)"><ellipse cx="0" cy="0" rx="1" ry="1" fill="rgb(197,134,88)" fill-opacity="0.502"/></g>
<g transform="translate(6864.00 1664.00) rotate(299) scale(96.00 48.00)"><ellipse cx="0" cy="0" rx="1" ry="1" fill="rgb(114,73,21)" fill-opacity="0.502"/></g>
<polygon points="6716.05,1368.58 6689.21,1408.37 6675.95,1399.42 6702.79,1359.63" fill="rgb(25,0,0)" fill-opacity="0.502"/>
<polygon points="1199.10,2574.58 1429.29,2352.29 1584.90,2513.42 1354.71,2735.71" fill="rgb(160,104,67)" fill-opacity="0.502"/>
<polygon points="1202.33,4461.98 1765.75,4342.22 1805.67,4530.02 1242.25,4649.78" fill="rgb(198,150,102)" fill-opacity="0.502"/>
<g transform="translate(2304.00 3776.00) rotate(2) scale(1232.00 48.00)"><ellipse cx="0" cy="0" rx="1" ry="1" fill="rgb(170,109,60)" fill-opacity="0.502"/></g>
<g transform="translate(6912.00 3152.00) rotate(292) scale(160.00 112.00)"><ellipse cx="0" cy="0" rx="1" ry="1" fill="rgb(81,48,28)" fill-opacity="0.502"/></g>
<polygon points="1689.29,3854.58 1541.15,4082.70 1366.71,3969.42 1514.85,3741.30" fill="rgb(191,141,89)" fill-opacity="0.502"/>
<circle cx="6256.00" cy="3552.00" r="64.00" fill="rgb(115,59,41)" fill-opacity="0.502"/>
<circle cx="5760.00" cy="256.00" r="432.00" fill="rgb(234,209,190)" fill-opacity="0.502"/>
<polygon points="6399.28,3552.63 6452.96,3632.22 6240.72,3775.37 6187.04,3695.78" fill="rgb(222,173,142)" fill-opacity="0.502"/>
<polygon points="4561.22,339.92 4613.28,456.85 4174.78,652.08 4122.72,535.15" fill="rgb(161,131,78)" fill-opacity="0.502"/>
<g transform="translate(4288.00 320.00) rotate(292) scale(416.00 16.00)"><ellipse cx="0" cy="0" rx="1" ry="1" fill="rgb(249,230,198)" fill-opacity="0.502"/></g>
<polygon points="5052.01,3970.30 4525.29,3933.47 4531.99,3837.70 5058.71,3874.53" fill="rgb(111,55,11)" fill-opacity="0.502"/>
<polygon points="5545.28,2192.73 5513.67,2187.72 5558.72,1903.27 5590.33,1908.28" fill="rgb(255,225,178)" fill-opacity="0.502"/>
<polygon points="3736.87,1011.45 3926.50,981.41 4039.13,1692.55 3849.50,1722.59" fill="rgb(151,101,63)" fill-opacity="0.502"/>
<circle cx="3328.00" cy="96.00" r="176.00" fill="rgb(255,233,205)" fill-opacity="0.502"/>
<polygon points="3609.75,2300.33 3303.74,2393.89 3238.25,2179.67 3544.26,2086.11" fill="rgb(156,101,64)" fill-opacity="0.502"/>
<g transform="translate(3120.00 1312.00) rotate(110) scale(32.00 32.00)"><ellipse cx="0" cy="0" rx="1" ry="1" fill="rgb(255,255,255)" fill-opacity="0.502"/></g>
<g transform="translate(4128.00 1088.00) rotate(25) scale(240.00 208.00)"><ellipse cx="0" cy="0" rx="1" ry="1" fill="rgb(81,53,25)" fill-opacity="0.502"/></g>
<polygon points="4723.29,3292.77 4654.52,3130.76 4860.71,3043.23 4929.48,3205.24" fill="rgb(68,39,19)" fill-opacity="0.502"/>
<circle cx="2544.00" cy="1184.00" r="80.00" fill="rgb(255,255,240)" fill-opacity="0.502"/>
<polygon points="5965.75,1694.08 5934.45,1687.43 6034.25,1217.92 6065.55,1224.57" fill="rgb(121,115,99)" fill-opacity="0.502"/>
<polygon points="5728.00,3456.00 6256.00,3456.00 6256.00,3568.00 5728.00,3568.00" fill="rgb(207,150,107)" fill-opacity="0.502"/>
<circle cx="1728.00" cy="1008.00" r="96.00" fill="rgb(197,158,119)" fill-opacity="0.502"/>
<polygon points="1267.96,3747.43 1088.15,3302.38 1548.04,3116.57 1727.85,3561.62" fill="rgb(90,63,36)" fill-opacity="0.502"/>
<polygon points="6170.46,3263.28 5948.64,3232.10 5957.54,3168.72 6179.36,3199.90" fill="rgb(102,50,12)" fill-opacity="0.502"/>
<g transform="translate(5360.00 3856.00) rotate(101) scale(288.00 32.00)"><ellipse cx="0" cy="0" rx="1" ry="1" fill="rgb(157,102,55)" fill-opacity="0.502"/></g>
<polygon points="4132.53,291.48 4139.23,419.31 3963.47,428.52 3956.77,300.69" fill="rgb(160,149,105)" fill-opacity="0.502"/>
<polygon points="4847.87,1505.67 4800.92,1495.69 4864.13,1198.33 4911.08,1208.31" fill="rgb(100,51,27)" fill-opacity="0.502"/>
<polygon points="6336.99,2093.83 6252.46,2167.30 6095.01,1986.17 6179.54,1912.70" fill="rgb(110,60,28)" fill-opacity="0.502"/>
<polygon points="4490.80,3647.14 4294.39,3436.51 4341.20,3392.86 4537.61,3603.49" fill="rgb(183,141,114)" fill-opacity="0.502"/>
<polygon points="4769.78,1425.86 4739.74,1236.22 5182.22,1166.14 5212.26,1355.78" fill="rgb(123,76,47)" fill-opacity="0.502"/>
<g transform="translate(4048.00 3888.00) rotate(208) scale(320.00 128.00)"><ellipse cx="0" cy="0" rx="1" ry="1" fill="rgb(166,111,51)" fill-opacity="0.502"/></g>
<g transform="translate(6000.00 3248.00) rotate(259) scale(112.00 320.00)"><ellipse cx="0" cy="0" rx="1" ry="1" fill="rgb(175,123,83)" fill-opacity="0.502"/></g>
<polygon points="5248.00,3440.00 5248.00,3216.00 5280.00,3216.00 5280.00,3440.00" fill="rgb(255,206,178)" fill-opacity="0.502"/>
<polygon points="4393.15,1111.60 4619.71,1401.59 4518.85,1480.40 4292.29,1190.41" fill="rgb(154,105,66)" fill-opacity="0.502"/>
<polygon points="3512.00,2984.00 3512.00,2808.00 3704.00,2808.00 3704.00,2984.00" fill="rgb(162,129,101)" fill-opacity="0.502"/>
<g transform="translate(1984.00 1488.00) rotate(95) scale(512.00 16.00)"><ellipse cx="0" cy="0" rx="1" ry="1" fill="rgb(69,52,36)" fill-opacity="0.502"/></g>
<polygon points="4132.92,3923.12 4962.89,3981.16 4955.08,4092.88 4125.11,4034.84" fill="rgb(213,153,99)" fill-opacity="0.502"/>
<g transform="translate(3888.00 4048.00) rotate(283) scale(128.00 128.00)"><ellipse cx="0" cy="0" rx="1" ry="1" fill="rgb(107,76,28)" fill-opacity="0.502"/></g>
<circle cx="1808.00" cy="1888.00" r="48.00" fill="rgb(255,255,255)" fill-opacity="0.502"/>
<circle cx="2128.00" cy="4336.00" r="144.00" fill="rgb(204,154,85)" fill-opacity="0.502"/>
<polygon points="6950.38,260.88 7045.51,346.52 6713.62,715.12 6618.49,629.48" fill="rgb(205,163,118)" fill-opacity="0.502"/>
<circle cx="3536.00" cy="656.00" r="96.00" fill="rgb(221,198,176)" fill-opacity="0.502"/>
<polygon points="3451.66,3784.86 2939.97,3766.99 2948.34,3527.14 3460.03,3545.01" fill="rgb(137,80,25)" fill-opacity="0.502"/>
<g transform="translate(5536.00 3600.00) rotate(105) scale(368.00 128.00)"><ellipse cx="0" cy="0" rx="1" ry="1" fill="rgb(141,92,59)" fill-opacity="0.502"/></g>
<circle cx="4720.00" cy="4432.00" r="80.00" fill="rgb(253,198,131)" fill-opacity="0.502"/>
<polygon points="4546.63,2806.38 4480.47,2575.67 4557.37,2553.62 4623.53,2784.33" fill="rgb(199,153,118)" fill-opacity="0.502"/>
<circle cx="6752.00" cy="0.00" r="320.00" fill="rgb(226,204,180)" fill-opacity="0.502"/>
<polygon points="4872.78,3450.11 4789.99,3808.68 4743.22,3797.89 4826.01,3439.32" fill="rgb(232,189,146)" fill-opacity="0.502"/>
<g transform="translate(2672.00 4496.00) rotate(319) scale(544.00 608.00)"><ellipse cx="0" cy="0" rx="1" ry="1" fill="rgb(184,132,73)" fill-opacity="0.502"/></g>
<polygon points="3660.79,612.13 3844.27,134.14 3859.21,139.87 3675.73,617.86" fill="rgb(125,84,37)" fill-opacity="0.502"/>
<circle cx="1584.00" cy="992.00" r="112.00" fill="rgb(242,202,156)" fill-opacity="0.502"/>
<circle cx="5008.00" cy="2320.00" r="144.00" fill="rgb(210,159,105)" fill-opacity="0.502"/>
<circle cx="4960.00" cy="1520.00" r="96.00" fill="rgb(255,221,200)" fill-opacity="0.502"/>
<polygon points="6565.27,980.32 6570.86,820.42 6778.73,827.68 6773.14,987.58" fill="rgb(160,94,55)" fill-opacity="0.502"/>
<circle cx="5504.00" cy="2512.00" r="48.00" fill="rgb(125,60,18)" fill-opacity="0.502"/>
<polygon points="2107.93,3826.76 1787.98,3821.17 1796.07,3357.24 2116.02,3362.83" fill="rgb(104,76,45)" fill-opacity="0.502"/>
<circle cx="3152.00" cy="3504.00" r="64.00" fill="rgb(242,171,114)" fill-opacity="0.502"/>
<polygon points="3429.42,4600.34 3527.03,4381.09 3658.58,4439.66 3560.97,4658.91" fill="rgb(226,120,59)" fill-opacity="0.502"/>
<circle cx="3120.00" cy="2960.00" r="240.00" fill="rgb(121,72,45)" fill-opacity="0.502"/>
<g transform="translate(3568.00 3328.00) rotate(333) scale(48.00 400.00)"><ellipse cx="0" cy="0" rx="1" ry="1" fill="rgb(184,128,73)" fill-opacity="0.502"/></g>
<g transform="translate(6928.00 4288.00) rotate(296) scale(80.00 176.00)"><ellipse cx="0" cy="0" rx="1" ry="1" fill="rgb(255,189,142)" fill-opacity="0.502"/></g>
<polygon points="1877.34,990.70 1898.54,1293.96 1850.66,1297.30 1829.46,994.04" fill="rgb(255,255,234)" fill-opacity="0.502"/>
<polygon points="4932.74,2577.97 4996.65,2574.62 5019.26,3006.03 4955.35,3009.38" fill="rgb(104,64,41)" fill-opacity="0.502"/>
<polygon points="4730.00,4255.54 4794.11,3925.72 5014.00,3968.46 4949.89,4298.28" fill="rgb(216,150,98)" fill-opacity="0.502"/>
<circle cx="4416.00" cy="1504.00" r="48.00" fill="rgb(255,205,171)" fill-opacity="0.502"/>
<circle cx="4816.00" cy="3392.00" r="112.00" fill="rgb(188,139,94)" fill-opacity="0.502"/>
<g transform="translate(3056.00 3120.00) rotate(0) scale(80.00 320.00)"><ellipse cx="0" cy="0" rx="1" ry="1" fill="rgb(145,88,57)" fill-opacity="0.502"/></g>
<polygon points="4400.99,3153.56 4719.24,3120.11 4751.01,3422.44 4432.76,3455.89" fill="rgb(190,137,84)" fill-opacity="0.502"/>
<g transform="translate(4800.00 2896.00) rotate(300) scale(160.00 208.00)"><ellipse cx="0" cy="0" rx="1" ry="1" fill="rgb(157,119,88)" fill-opacity="0.502"/></g>
<polygon points="6911.07,3629.64 6926.12,3772.85 6416.93,3826.36 6401.88,3683.15" fill="rgb(132,80,51)" fill-opacity="0.502"/>
<g transform="translate(2480.00 2992.00) rotate(205) scale(64.00 208.00)"><ellipse cx="0" cy="0" rx="1" ry="1" fill="rgb(112,65,34)" fill-opacity="0.502"/></g>
<g transform="translate(3168.00 1024.00) rotate(206) scale(336.00 80.00)"><ellipse cx="0" cy="0" rx="1" ry="1" fill="rgb(202,161,121)" fill-opacity="0.502"/></g>
<polygon points="1707.55,1552.92 1755.52,1551.24 1764.45,1807.08 1716.48,1808.76" fill="rgb(99,66,35)" fill-opacity="0.502"/>
<g transform="translate(2672.00 1536.00) rotate(181) scale(32.00 688.00)"><ellipse cx="0" cy="0" rx="1" ry="1" fill="rgb(137,85,39)" fill-opacity="0.502"/></g>
<circle cx="3904.00" cy="3120.00" r="64.00" fill="rgb(91,60,14)" fill-opacity="0.502"/>
<polygon points="6264.25,2580.17 6242.36,2520.03 6407.75,2459.83 6429.64,2519.97" fill="rgb(85,50,27)" fill-opacity="0.502"/>
<g transform="translate(5408.00 928.00) rotate(235) scale(112.00 320.00)"><ellipse cx="0" cy="0" rx="1" ry="1" fill="rgb(85,73,24)" fill-opacity="0.502"/></g>
<polygon points="2960.00,3536.00 2784.00,3536.00 2784.00,3152.00 2960.00,3152.00" fill="rgb(201,125,86)" fill-opacity="0.502"/>
<circle cx="1840.00" cy="1904.00" r="80.00" fill="rgb(255,249,226)" fill-opacity="0.502"/>
<g transform="translate(2176.00 3920.00) rotate(315) scale(32.00 48.00)"><ellipse cx="0" cy="0" rx="1" ry="1" fill="rgb(117,64,18)" fill-opacity="0.502"/></g>
<g transform="translate(3376.00 3984.00) rotate(358) scale(384.00 80.00)"><ellipse cx="0" cy="0" rx="1" ry="1" fill="rgb(129,73,43)" fill-opacity="0.502"/></g>
<polygon points="3964.93,426.72 4145.20,765.77 4131.07,773.28 3950.80,434.23" fill="rgb(78,55,17)" fill-opacity="0.502"/>
<polygon points="1207.20,4033.93 1192.69,4241.42 1144.80,4238.07 1159.31,4030.58" fill="rgb(84,60,17)" fill-opacity="0.502"/>
<circle cx="1472.00" cy="1376.00" r="48.00" fill="rgb(255,232,207)" fill-opacity="0.502"/>
<polygon points="4195.51,1954.12 4223.04,1914.80 4524.49,2125.88 4496.96,2165.20" fill="rgb(201,133,107)" fill-opacity="0.502"/>
<circle cx="5984.00" cy="3216.00" r="64.00" fill="rgb(114,60,34)" fill-opacity="0.502"/>
<circle cx="4912.00" cy="1984.00" r="96.00" fill="rgb(255,220,193)" fill-opacity="0.502"/>
<polygon points="4606.36,2823.30 4526.84,3083.41 4465.64,3064.70 4545.16,2804.59" fill="rgb(74,39,14)" fill-opacity="0.502"/>
<polygon points="4286.24,3661.24 4252.90,3850.33 3937.76,3794.76 3971.10,3605.67" fill="rgb(199,140,81)" fill-opacity="0.502"/>
<circle cx="6576.00" cy="1888.00" r="144.00" fill="rgb(129,90,52)" fill-opacity="0.502"/>
<g transform="translate(3584.00 416.00) rotate(205) scale(16.00 272.00)"><ellipse cx="0" cy="0" rx="1" ry="1" fill="rgb(166,111,67)" fill-opacity="0.502"/></g>
<g transform="translate(2160.00 3744.00) rotate(46) scale(96.00 208.00)"><ellipse cx="0" cy="0" rx="1" ry="1" fill="rgb(170,117,63)" fill-opacity="0.502"/></g>
<g transform="translate(5536.00 528.00) rotate(328) scale(320.00 64.00)"><ellipse cx="0" cy="0" rx="1" ry="1" fill="rgb(232,212,187)" fill-opacity="0.502"/></g>
<polygon points="4050.02,4594.32 4096.78,4261.59 4381.98,4301.68 4335.22,4634.41" fill="rgb(188,135,75)" fill-opacity="0.502"/>
<circle cx="6416.00" cy="1664.00" r="128.00" fill="rgb(189,151,121)" fill-opacity="0.502"/>
<circle cx="1360.00" cy="1216.00" r="192.00" fill="rgb(118,77,51)" fill-opacity="0.502"/>
<polygon points="4701.12,4644.10 4151.41,4537.25 4178.88,4395.90 4728.59,4502.75" fill="rgb(187,130,70)" fill-opacity="0.502"/>
<polygon points="5102.62,2622.31 5105.41,2462.34 5297.38,2465.69 5294.59,2625.66" fill="rgb(218,173,117)" fill-opacity="0.502"/>
<circle cx="5856.00" cy="3088.00" r="176.00" fill="rgb(129,88,59)" fill-opacity="0.502"/>
<polygon points="6159.73,3151.42 7049.74,2678.20 7072.27,2720.58 6182.26,3193.80" fill="rgb(180,141,117)" fill-opacity="0.502"/>
<circle cx="2416.00" cy="1216.00" r="80.00" fill="rgb(102,66,49)" fill-opacity="0.502"/>
<g transform="translate(3232.00 3296.00) rotate(164) scale(176.00 176.00)"><ellipse cx="0" cy="0" rx="1" ry="1" fill="rgb(120,71,42)" fill-opacity="0.502"/></g>
<g transform="translate(7472.00 2320.00) rotate(107) scale(208.00 400.00)"><ellipse cx="0" cy="0" rx="1" ry="1" fill="rgb(0,0,0)" fill-opacity="0.502"/></g>
<polygon points="6839.14,3188.97 6793.59,3358.98 6360.86,3243.03 6406.41,3073.02" fill="rgb(119,72,36)" fill-opacity="0.502"/>
<circle cx="7152.00" cy="48.00" r="80.00" fill="rgb(0,0,0)" fill-opacity="0.502"/>
<circle cx="6848.00" cy="912.00" r="96.00" fill="rgb(249,212,178)" fill-opacity="0.502"/>
<circle cx="480.00" cy="4336.00" r="624.00" fill="rgb(0,0,0)" fill-opacity="0.502"/>
<polygon points="6933.02,2030.45 6973.16,2135.01 6778.98,2209.55 6738.84,2104.99" fill="rgb(132,87,67)" fill-opacity="0.502"/>
<g transform="translate(2544.00 2000.00) rotate(109) scale(112.00 256.00)"><ellipse cx="0" cy="0" rx="1" ry="1" fill="rgb(171,111,80)" fill-opacity="0.502"/></g>
<g transform="translate(2128.00 2688.00) rotate(25) scale(16.00 272.00)"><ellipse cx="0" cy="0" rx="1" ry="1" fill="rgb(222,137,98)" fill-opacity="0.502"/></g>
<circle cx="3568.00" cy="1008.00" r="96.00" fill="rgb(162,110,54)" fill-opacity="0.502"/>
<polygon points="6222.38,1313.59 6158.73,1306.90 6225.62,670.41 6289.27,677.10" fill="rgb(80,39,13)" fill-opacity="0.502"/>
<circle cx="4368.00" cy="3744.00" r="80.00" fill="rgb(210,167,123)" fill-opacity="0.502"/>
<g transform="translate(272.00 672.00) rotate(64) scale(1152.00 736.00)"><ellipse cx="0" cy="0" rx="1" ry="1" fill="rgb(0,0,0)" fill-opacity="0.502"/></g>
<polygon points="1358.07,887.92 1304.08,654.07 1537.93,600.08 1591.92,833.93" fill="rgb(255,233,213)" fill-opacity="0.502"/>
<polygon points="6887.15,3115.02 6839.61,3121.71 6792.85,2788.98 6840.39,2782.29" fill="rgb(147,115,88)" fill-opacity="0.502"/>
<polygon points="3048.02,3447.98 2897.67,3393.26 2935.98,3288.02 3086.33,3342.74" fill="rgb(115,51,24)" fill-opacity="0.502"/>
<polygon points="5866.39,3823.28 5959.65,3674.02 6149.61,3792.72 6056.35,3941.98" fill="rgb(200,140,68)" fill-opacity="0.502"/>
<circle cx="5120.00" cy="224.00" r="304.00" fill="rgb(241,216,195)" fill-opacity="0.502"/>
<polygon points="5704.00,3960.00 5704.00,3896.00 5848.00,3896.00 5848.00,3960.00" fill="rgb(114,58,13)" fill-opacity="0.502"/>
<polygon points="4210.92,3446.04 4220.97,3637.77 4141.08,3641.96 4131.03,3450.23" fill="rgb(205,169,143)" fill-opacity="0.502"/>
<polygon points="5422.06,2878.34 5469.61,3178.60 5121.94,3233.66 5074.39,2933.40" fill="rgb(134,93,67)" fill-opacity="0.502"/>
<polygon points="6226.53,2501.56 6154.62,2536.63 6077.47,2378.44 6149.38,2343.37" fill="rgb(99,41,12)" fill-opacity="0.502"/>
<circle cx="4336.00" cy="2304.00" r="144.00" fill="rgb(118,73,39)" fill-opacity="0.502"/>
<polygon points="5392.00,2256.00 5904.00,2256.00 5904.00,2400.00 5392.00,2400.00" fill="rgb(218,165,110)" fill-opacity="0.502"/>
<polygon points="4027.94,1354.45 4109.36,1303.58 4228.06,1493.55 4146.64,1544.42" fill="rgb(79,38,20)" fill-opacity="0.502"/>
<polygon points="1359.83,4091.60 1909.54,4198.46 1888.17,4308.40 1338.46,4201.54" fill="rgb(149,98,55)" fill-opacity="0.502"/>
<polygon points="3483.73,2605.33 3530.10,2617.76 3476.27,2818.67 3429.90,2806.24" fill="rgb(231,172,141)" fill-opacity="0.502"/>
<g transform="translate(6944.00 80.00) rotate(17) scale(128.00 176.00)"><ellipse cx="0" cy="0" rx="1" ry="1" fill="rgb(231,208,182)" fill-opacity="0.502"/></g>
<circle cx="2768.00" cy="1168.00" r="48.00" fill="rgb(255,255,255)" fill-opacity="0.502"/>
<g transform="translate(5936.00 2592.00) rotate(284) scale(176.00 16.00)"><ellipse cx="0" cy="0" rx="1" ry="1" fill="rgb(233,162,132)" fill-opacity="0.502"/></g>
<polygon points="2840.00,2664.00 2840.00,2408.00 2888.00,2408.00 2888.00,2664.00" fill="rgb(204,139,98)" fill-opacity="0.502"/>
<g transform="translate(1920.00 4096.00) rotate(354) scale(256.00 176.00)"><ellipse cx="0" cy="0" rx="1" ry="1" fill="rgb(186,133,75)" fill-opacity="0.502"/></g>
<g transform="translate(6112.00 4160.00) rotate(102) scale(144.00 384.00)"><ellipse cx="0" cy="0" rx="1" ry="1" fill="rgb(192,132,82)" fill-opacity="0.502"/></g>
<polygon points="6549.60,3291.13 6866.48,3335.67 6826.40,3620.87 6509.52,3576.33" fill="rgb(92,52,29)" fill-opacity="0.502"/>
<circle cx="7008.00" cy="1584.00" r="48.00" fill="rgb(255,255,224)" fill-opacity="0.502"/>
<circle cx="6512.00" cy="2000.00" r="112.00" fill="rgb(49,25,3)" fill-opacity="0.502"/>
<polygon points="5889.11,786.18 6058.39,553.18 6174.89,637.82 6005.61,870.82" fill="rgb(204,151,98)" fill-opacity="0.502"/>
<g transform="translate(2032.00 1936.00) rotate(252) scale(64.00 80.00)"><ellipse cx="0" cy="0" rx="1" ry="1" fill="rgb(249,243,231)" fill-opacity="0.502"/></g>
<g transform="translate(4640.00 1776.00) rotate(122) scale(352.00 48.00)"><ellipse cx="0" cy="0" rx="1" ry="1" fill="rgb(229,175,157)" fill-opacity="0.502"/></g>
<polygon points="1497.17,2871.70 1223.93,3004.96 1174.83,2904.30 1448.07,2771.04" fill="rgb(109,63,21)" fill-opacity="0.502"/>
<g transform="translate(6352.00 2192.00) rotate(86) scale(32.00 16.00)"><ellipse cx="0" cy="0" rx="1" ry="1" fill="rgb(255,255,227)" fill-opacity="0.502"/></g>
<polygon points="2840.36,1119.23 2903.34,1046.78 2951.64,1088.77 2888.66,1161.22" fill="rgb(107,31,14)" fill-opacity="0.502"/>
</g>
</svg>