<?xml version="1.0" standalone="no"?>
<svg xmlns="http://www.w3.org/2000/svg" width="8192" height="4608" viewBox="0 0 8192 4608" style="overflow:hidden">
<defs>
<clipPath id="c"><rect x="0" y="0" width="8192" height="4608"/></clipPath>
</defs>
<rect width="8192" height="4608" fill="rgb(18,25,41)"/>
<g clip-path="url(#c)">
<circle cx="1952.00" cy="1344.00" r="944.00" fill="rgb(0,130,255)" fill-opacity="0.502"/>
<circle cx="6624.00" cy="816.00" r="832.00" fill="rgb(5,220,255)" fill-opacity="0.502"/>
<circle cx="6736.00" cy="1520.00" r="528.00" fill="rgb(26,255,255)" fill-opacity="0.502"/>
<g transform="translate(3408.00 688.00) rotate(288) scale(944.00 848.00)"><ellipse cx="0" cy="0" rx="1" ry="1" fill="rgb(227,58,21)" fill-opacity="0.502"/></g>
<circle cx="1872.00" cy="944.00" r="640.00" fill="rgb(0,116,255)" fill-opacity="0.502"/>
<circle cx="7920.00" cy="992.00" r="928.00" fill="rgb(0,0,0)" fill-opacity="0.502"/>
<polygon points="2019.85,1703.23 2489.06,2206.40 1740.15,2904.77 1270.94,2401.60" fill="rgb(0,155,255)" fill-opacity="0.502"/>
<circle cx="4928.00" cy="608.00" r="416.00" fill="rgb(0,163,255)" fill-opacity="0.502"/>
<polygon points="6249.04,1188.36 6033.79,-170.70 6902.96,-308.36 7118.21,1050.70" fill="rgb(15,226,255)" fill-opacity="0.502"/>
<polygon points="5331.70,1369.97 5132.11,1471.66 4972.30,1158.03 5171.89,1056.34" fill="rgb(18,220,255)" fill-opacity="0.502"/>
<circle cx="3392.00" cy="2112.00" r="224.00" fill="rgb(255,86,43)" fill-opacity="0.502"/>
<circle cx="5696.00" cy="832.00" r="544.00" fill="rgb(0,0,0)" fill-opacity="0.502"/>
<circle cx="5152.00" cy="3680.00" r="2176.00" fill="rgb(19,0,0)" fill-opacity="0.502"/>
<circle cx="6576.00" cy="176.00" r="528.00" fill="rgb(7,193,255)" fill-opacity="0.502"/>
<circle cx="7632.00" cy="3936.00" r="1968.00" fill="rgb(0,0,0)" fill-opacity="0.502"/>
<g transform="translate(592.00 1952.00) rotate(270) scale(2736.00 816.00)"><ellipse cx="0" cy="0" rx="1" ry="1" fill="rgb(0,0,0)" fill-opacity="0.502"/></g>
<circle cx="7616.00" cy="496.00" r="560.00" fill="rgb(0,0,0)" fill-opacity="0.502"/>
<circle cx="2832.00" cy="2672.00" r="640.00" fill="rgb(11,0,0)" fill-opacity="0.502"/>
<circle cx="1920.00" cy="2144.00" r="464.00" fill="rgb(2,125,255)" fill-opacity="0.502"/>
<circle cx="4224.00" cy="1264.00" r="512.00" fill="rgb(6,0,0)" fill-opacity="0.502"/>
<circle cx="2144.00" cy="3728.00" r="912.00" fill="rgb(5,0,0)" fill-opacity="0.502"/>
<circle cx="2848.00" cy="2112.00" r="368.00" fill="rgb(34,0,0)" fill-opacity="0.502"/>
<circle cx="5344.00" cy="368.00" r="272.00" fill="rgb(0,0,0)" fill-opacity="0.502"/>
<polygon points="6544.48,1516.52 7194.33,1862.05 6991.52,2243.48 6341.67,1897.95" fill="rgb(27,245,255)" fill-opacity="0.502"/>
<circle cx="4848.00" cy="736.00" r="320.00" fill="rgb(12,150,255)" fill-opacity="0.502"/>
<circle cx="7616.00" cy="1616.00" r="576.00" fill="rgb(0,0,0)" fill-opacity="0.502"/>
<circle cx="496.00" cy="2128.00" r="1056.00" fill="rgb(0,0,0)" fill-opacity="0.502"/>
<g transform="translate(5968.00 1008.00) rotate(79) scale(1984.00 224.00)"><ellipse cx="0" cy="0" rx="1" ry="1" fill="rgb(2,0,18)" fill-opacity="0.502"/></g>
<circle cx="1872.00" cy="976.00" r="560.00" fill="rgb(2,112,255)" fill-opacity="0.502"/>
<g transform="translate(1200.00 4288.00) rotate(87) scale(992.00 80.00)"><ellipse cx="0" cy="0" rx="1" ry="1" fill="rgb(0,161,255)" fill-opacity="0.502"/></g>
<g transform="translate(7360.00 1760.00) rotate(269) scale(2432.00 272.00)"><ellipse cx="0" cy="0" rx="1" ry="1" fill="rgb(0,0,0)" fill-opacity="0.502"/></g>
<circle cx="4560.00" cy="1504.00" r="512.00" fill="rgb(9,0,0)" fill-opacity="0.502"/>
<g transform="translate(6688.00 1344.00) rotate(0) scale(416.00 704.00)"><ellipse cx="0" cy="0" rx="1" ry="1" fill="rgb(23,206,255)" fill-opacity="0.502"/></g>
<circle cx="4768.00" cy="2768.00" r="1328.00" fill="rgb(23,5,0)" fill-opacity="0.502"/>
<circle cx="368.00" cy="768.00" r="880.00" fill="rgb(0,0,0)" fill-opacity="0.502"/>
<circle cx="4272.00" cy="816.00" r="288.00" fill="rgb(20,0,0)" fill-opacity="0.502"/>
<circle cx="2704.00" cy="16.00" r="384.00" fill="rgb(0,0,0)" fill-opacity="0.502"/>
<circle cx="6608.00" cy="592.00" r="496.00" fill="rgb(13,164,255)" fill-opacity="0.502"/>
<g transform="translate(6848.00 1664.00) rotate(260) scale(528.00 224.00)"><ellipse cx="0" cy="0" rx="1" ry="1" fill="rgb(22,220,255)" fill-opacity="0.502"/></g>
<g transform="translate(3312.00 1056.00) rotate(326) scale(368.00 784.00)"><ellipse cx="0" cy="0" rx="1" ry="1" fill="rgb(180,69,56)" fill-opacity="0.502"/></g>
<circle cx="4912.00" cy="192.00" r="240.00" fill="rgb(0,143,255)" fill-opacity="0.502"/>
<circle cx="2656.00" cy="688.00" r="304.00" fill="rgb(165,46,25)" fill-opacity="0.502"/>
<circle cx="8176.00" cy="3360.00" r="1536.00" fill="rgb(0,0,0)" fill-opacity="0.502"/>
<circle cx="5824.00" cy="1424.00" r="448.00" fill="rgb(7,0,32)" fill-opacity="0.502"/>
<g transform="translate(3680.00 1888.00) rotate(297) scale(176.00 1008.00)"><ellipse cx="0" cy="0" rx="1" ry="1" fill="rgb(23,0,0)" fill-opacity="0.502"/></g>
<circle cx="3824.00" cy="384.00" r="208.00" fill="rgb(246,104,78)" fill-opacity="0.502"/>
<circle cx="2816.00" cy="1088.00" r="224.00" fill="rgb(52,10,9)" fill-opacity="0.502"/>
<polygon points="1666.72,3013.05 1533.89,2897.59 1901.28,2474.95 2034.11,2590.41" fill="rgb(10,116,255)" fill-opacity="0.502"/>
<circle cx="352.00" cy="4016.00" r="752.00" fill="rgb(0,0,0)" fill-opacity="0.502"/>
<g transform="translate(1776.00 1392.00) rotate(333) scale(400.00 208.00)"><ellipse cx="0" cy="0" rx="1" ry="1" fill="rgb(1,115,255)" fill-opacity="0.502"/></g>
<polygon points="3136.00,864.00 3456.00,864.00 3456.00,1008.00 3136.00,1008.00" fill="rgb(0,0,0)" fill-opacity="0.502"/>
<g transform="translate(3840.00 4160.00) rotate(181) scale(1712.00 112.00)"><ellipse cx="0" cy="0" rx="1" ry="1" fill="rgb(100,54,40)" fill-opacity="0.502"/></g>
<circle cx="208.00" cy="2816.00" r="1008.00" fill="rgb(0,0,0)" fill-opacity="0.502"/>
<polygon points="3264.26,1306.59 3168.36,1069.23 3583.74,901.41 3679.64,1138.77" fill="rgb(243,104,96)" fill-opacity="0.502"/>
<g transform="translate(2528.00 3552.00) rotate(35) scale(976.00 1552.00)"><ellipse cx="0" cy="0" rx="1" ry="1" fill="rgb(15,0,0)" fill-opacity="0.502"/></g>
<g transform="translate(1392.00 576.00) rotate(159) scale(192.00 112.00)"><ellipse cx="0" cy="0" rx="1" ry="1" fill="rgb(6,101,255)" fill-opacity="0.502"/></g>
<polygon points="2416.49,694.24 2655.58,715.16 2623.51,1081.76 2384.42,1060.84" fill="rgb(10,2,48)" fill-opacity="0.502"/>
<circle cx="7552.00" cy="1296.00" r="480.00" fill="rgb(0,0,0)" fill-opacity="0.502"/>
<polygon points="1052.54,-107.88 1902.56,119.88 1811.46,459.88 961.44,232.12" fill="rgb(0,0,12)" fill-opacity="0.502"/>
<g transform="translate(4864.00 624.00) rotate(233) scale(288.00 288.00)"><ellipse cx="0" cy="0" rx="1" ry="1" fill="rgb(5,124,255)" fill-opacity="0.502"/></g>
<g transform="translate(3168.00 96.00) rotate(76) scale(288.00 128.00)"><ellipse cx="0" cy="0" rx="1" ry="1" fill="rgb(213,87,73)" fill-opacity="0.502"/></g>
<g transform="translate(3328.00 3952.00) rotate(109) scale(848.00 768.00)"><ellipse cx="0" cy="0" rx="1" ry="1" fill="rgb(42,22,10)" fill-opacity="0.502"/></g>
<circle cx="4432.00" cy="2208.00" r="304.00" fill="rgb(52,30,21)" fill-opacity="0.502"/>
<circle cx="5200.00" cy="1376.00" r="112.00" fill="rgb(11,135,255)" fill-opacity="0.502"/>
<g transform="translate(7200.00 1296.00) rotate(264) scale(880.00 64.00)"><ellipse cx="0" cy="0" rx="1" ry="1" fill="rgb(0,0,0)" fill-opacity="0.502"/></g>
<circle cx="1936.00" cy="896.00" r="496.00" fill="rgb(2,103,255)" fill-opacity="0.502"/>
<circle cx="3168.00" cy="1984.00" r="160.00" fill="rgb(211,72,47)" fill-opacity="0.502"/>
<polygon points="6198.20,752.35 6008.53,-8.36 6489.80,-128.35 6679.47,632.36" fill="rgb(17,184,255)" fill-opacity="0.502"/>
<circle cx="4624.00" cy="1552.00" r="480.00" fill="rgb(9,0,0)" fill-opacity="0.502"/>
<circle cx="4400.00" cy="320.00" r="288.00" fill="rgb(35,0,0)" fill-opacity="0.502"/>
<circle cx="496.00" cy="4384.00" r="608.00" fill="rgb(0,0,0)" fill-opacity="0.502"/>
<circle cx="7504.00" cy="192.00" r="432.00" fill="rgb(0,0,0)" fill-opacity="0.502"/>
<g transform="translate(7840.00 1936.00) rotate(73) scale(1200.00 704.00)"><ellipse cx="0" cy="0" rx="1" ry="1" fill="rgb(0,0,0)" fill-opacity="0.502"/></g>
<polygon points="3198.27,523.41 2831.18,1047.67 2529.73,836.59 2896.82,312.33" fill="rgb(194,80,61)" fill-opacity="0.502"/>
<g transform="translate(1744.00 2064.00) rotate(242) scale(320.00 256.00)"><ellipse cx="0" cy="0" rx="1" ry="1" fill="rgb(6,120,255)" fill-opacity="0.502"/></g>
<g transform="translate(5312.00 224.00) rotate(86) scale(688.00 224.00)"><ellipse cx="0" cy="0" rx="1" ry="1" fill="rgb(2,0,11)" fill-opacity="0.502"/></g>
<circle cx="6896.00" cy="1008.00" r="192.00" fill="rgb(25,242,255)" fill-opacity="0.502"/>
<polygon points="3376.00,0.00 4656.00,0.00 4656.00,96.00 3376.00,96.00" fill="rgb(0,0,0)" fill-opacity="0.502"/>
<polygon points="1478.14,1956.62 1685.74,3024.63 1465.86,3067.38 1258.26,1999.37" fill="rgb(8,20,87)" fill-opacity="0.502"/>
<g transform="translate(7760.00 272.00) rotate(2) scale(672.00 3072.00)"><ellipse cx="0" cy="0" rx="1" ry="1" fill="rgb(0,0,0)" fill-opacity="0.502"/></g>
<polygon points="3337.36,2160.07 3373.99,1971.60 3766.64,2047.93 3730.01,2236.40" fill="rgb(228,91,68)" fill-opacity="0.502"/>
<polygon points="1661.82,2705.29 1582.71,2461.82 1826.18,2382.71 1905.29,2626.18" fill="rgb(4,129,255)" fill-opacity="0.502"/>
<g transform="translate(4496.00 4528.00) rotate(76) scale(272.00 592.00)"><ellipse cx="0" cy="0" rx="1" ry="1" fill="rgb(35,15,3)" fill-opacity="0.502"/></g>
<polygon points="3034.74,4541.50 2936.68,4623.78 2885.26,4562.50 2983.32,4480.22" fill="rgb(239,153,133)" fill-opacity="0.502"/>
<circle cx="4864.00" cy="80.00" r="192.00" fill="rgb(7,134,255)" fill-opacity="0.502"/>
<circle cx="1968.00" cy="2192.00" r="384.00" fill="rgb(2,121,255)" fill-opacity="0.502"/>
<g transform="translate(2368.00 2512.00) rotate(98) scale(448.00 64.00)"><ellipse cx="0" cy="0" rx="1" ry="1" fill="rgb(0,0,0)" fill-opacity="0.502"/></g>
<circle cx="5440.00" cy="2016.00" r="544.00" fill="rgb(13,2,0)" fill-opacity="0.502"/>
<polygon points="5141.96,985.26 5050.66,335.65 5114.04,326.74 5205.34,976.35" fill="rgb(5,95,255)" fill-opacity="0.502"/>
<circle cx="6656.00" cy="128.00" r="432.00" fill="rgb(4,184,255)" fill-opacity="0.502"/>
<g transform="translate(3824.00 1728.00) rotate(156) scale(496.00 160.00)"><ellipse cx="0" cy="0" rx="1" ry="1" fill="rgb(4,0,0)" fill-opacity="0.502"/></g>
<polygon points="3846.45,881.81 4115.47,-56.38 4361.55,14.19 4092.53,952.38" fill="rgb(111,28,17)" fill-opacity="0.502"/>
<circle cx="2784.00" cy="176.00" r="208.00" fill="rgb(0,0,0)" fill-opacity="0.502"/>
<polygon points="3057.24,4156.39 2610.94,4195.43 2606.76,4147.61 3053.06,4108.57" fill="rgb(127,98,102)" fill-opacity="0.502"/>
<polygon points="2358.60,489.95 1865.67,679.17 1785.40,470.05 2278.33,280.83" fill="rgb(2,102,255)" fill-opacity="0.502"/>
<polygon points="3043.96,1529.52 2936.61,1599.23 2588.04,1062.48 2695.39,992.77" fill="rgb(0,0,7)" fill-opacity="0.502"/>
<polygon points="3062.36,1109.99 3316.29,1012.52 3545.64,1610.01 3291.71,1707.48" fill="rgb(175,68,49)" fill-opacity="0.502"/>
<circle cx="2336.00" cy="1856.00" r="224.00" fill="rgb(0,141,255)" fill-opacity="0.502"/>
<polygon points="3102.01,1469.04 1881.28,1728.51 1857.99,1618.96 3078.72,1359.49" fill="rgb(3,0,10)" fill-opacity="0.502"/>
<g transform="translate(416.00 832.00) rotate(90) scale(7904.00 720.00)"><ellipse cx="0" cy="0" rx="1" ry="1" fill="rgb(0,0,0)" fill-opacity="0.502"/></g>
<g transform="translate(5680.00 480.00) rotate(219) scale(400.00 448.00)"><ellipse cx="0" cy="0" rx="1" ry="1" fill="rgb(8,0,31)" fill-opacity="0.502"/></g>
<circle cx="4736.00" cy="832.00" r="192.00" fill="rgb(18,122,255)" fill-opacity="0.502"/>
<polygon points="3793.65,735.78 3996.32,782.57 3870.35,1328.22 3667.68,1281.43" fill="rgb(49,8,3)" fill-opacity="0.502"/>
<circle cx="3040.00" cy="3280.00" r="80.00" fill="rgb(255,170,145)" fill-opacity="0.502"/>
<g transform="translate(3376.00 816.00) rotate(153) scale(96.00 48.00)"><ellipse cx="0" cy="0" rx="1" ry="1" fill="rgb(253,186,176)" fill-opacity="0.502"/></g>
<circle cx="1840.00" cy="2384.00" r="288.00" fill="rgb(4,118,255)" fill-opacity="0.502"/>
<polygon points="5634.82,1376.51 5284.16,1407.19 5277.18,1327.49 5627.84,1296.81" fill="rgb(0,0,20)" fill-opacity="0.502"/>
<polygon points="3535.44,3325.66 3619.61,3498.23 3504.56,3554.34 3420.39,3381.77" fill="rgb(96,80,81)" fill-opacity="0.502"/>
<polygon points="4223.51,442.90 4331.89,8.20 4704.49,101.10 4596.11,535.80" fill="rgb(6,0,0)" fill-opacity="0.502"/>
<circle cx="1392.00" cy="704.00" r="144.00" fill="rgb(8,99,255)" fill-opacity="0.502"/>
<circle cx="6064.00" cy="4240.00" r="688.00" fill="rgb(5,0,0)" fill-opacity="0.502"/>
<g transform="translate(4896.00 304.00) rotate(347) scale(160.00 704.00)"><ellipse cx="0" cy="0" rx="1" ry="1" fill="rgb(8,135,255)" fill-opacity="0.502"/></g>
<circle cx="4032.00" cy="2592.00" r="544.00" fill="rgb(16,7,0)" fill-opacity="0.502"/>
<g transform="translate(1344.00 3104.00) rotate(7) scale(128.00 640.00)"><ellipse cx="0" cy="0" rx="1" ry="1" fill="rgb(0,0,21)" fill-opacity="0.502"/></g>
<polygon points="6320.00,864.00 7072.00,864.00 7072.00,1536.00 6320.00,1536.00" fill="rgb(20,211,255)" fill-opacity="0.502"/>
<g transform="translate(2464.00 1840.00) rotate(188) scale(112.00 192.00)"><ellipse cx="0" cy="0" rx="1" ry="1" fill="rgb(7,104,255)" fill-opacity="0.502"/></g>
<polygon points="1453.04,492.35 1373.93,248.87 1586.96,179.65 1666.07,423.13" fill="rgb(1,6,53)" fill-opacity="0.502"/>
<g transform="translate(6752.00 1504.00) rotate(342) scale(288.00 624.00)"><ellipse cx="0" cy="0" rx="1" ry="1" fill="rgb(21,210,255)" fill-opacity="0.502"/></g>
<g transform="translate(7824.00 3808.00) rotate(113) scale(1360.00 736.00)"><ellipse cx="0" cy="0" rx="1" ry="1" fill="rgb(0,0,0)" fill-opacity="0.502"/></g>
<polygon points="2497.50,1499.51 1517.71,1654.70 1342.50,548.49 2322.29,393.30" fill="rgb(2,104,255)" fill-opacity="0.502"/>
<polygon points="6032.42,804.75 7166.91,604.71 7183.58,699.25 6049.09,899.29" fill="rgb(0,0,120)" fill-opacity="0.502"/>
<g transform="translate(6256.00 2592.00) rotate(224) scale(592.00 688.00)"><ellipse cx="0" cy="0" rx="1" ry="1" fill="rgb(4,0,3)" fill-opacity="0.502"/></g>
<circle cx="2800.00" cy="1968.00" r="240.00" fill="rgb(0,0,0)" fill-opacity="0.502"/>
<polygon points="2032.35,1970.37 2131.23,1666.03 2511.65,1789.63 2412.77,2093.97" fill="rgb(1,125,255)" fill-opacity="0.502"/>
<polygon points="2778.37,710.03 2689.37,436.13 2917.63,361.97 3006.63,635.87" fill="rgb(213,95,79)" fill-opacity="0.502"/>
<g transform="translate(1584.00 1696.00) rotate(176) scale(480.00 64.00)"><ellipse cx="0" cy="0" rx="1" ry="1" fill="rgb(0,0,20)" fill-opacity="0.502"/></g>
<circle cx="1600.00" cy="4592.00" r="352.00" fill="rgb(0,0,0)" fill-opacity="0.502"/>
<polygon points="2542.23,396.09 3090.04,574.09 3025.77,771.91 2477.96,593.91" fill="rgb(190,74,56)" fill-opacity="0.502"/>
<circle cx="4160.00" cy="4544.00" r="96.00" fill="rgb(133,110,107)" fill-opacity="0.502"/>
<polygon points="2574.67,1909.55 3096.92,2332.46 2865.33,2618.45 2343.08,2195.54" fill="rgb(5,0,2)" fill-opacity="0.502"/>
<polygon points="1145.41,426.12 1304.80,440.07 1254.59,1013.88 1095.20,999.93" fill="rgb(12,23,82)" fill-opacity="0.502"/>
<circle cx="5696.00" cy="1200.00" r="448.00" fill="rgb(5,7,36)" fill-opacity="0.502"/>
<polygon points="2470.02,503.07 2520.03,786.70 2393.98,808.93 2343.97,525.30" fill="rgb(0,0,33)" fill-opacity="0.502"/>
<polygon points="2179.65,-24.21 2232.21,307.65 1900.35,360.21 1847.79,28.35" fill="rgb(0,0,42)" fill-opacity="0.502"/>
<polygon points="3364.90,4166.57 3332.36,4239.65 2923.10,4057.43 2955.64,3984.35" fill="rgb(86,61,61)" fill-opacity="0.502"/>
<circle cx="5232.00" cy="0.00" r="224.00" fill="rgb(2,0,18)" fill-opacity="0.502"/>
<circle cx="2048.00" cy="3600.00" r="576.00" fill="rgb(2,0,0)" fill-opacity="0.502"/>
<circle cx="7792.00" cy="544.00" r="704.00" fill="rgb(0,0,0)" fill-opacity="0.502"/>
<circle cx="3568.00" cy="3200.00" r="512.00" fill="rgb(22,11,6)" fill-opacity="0.502"/>
<circle cx="3264.00" cy="2096.00" r="160.00" fill="rgb(187,70,55)" fill-opacity="0.502"/>
<circle cx="2256.00" cy="2960.00" r="400.00" fill="rgb(2,0,0)" fill-opacity="0.502"/>
<g transform="translate(6048.00 1584.00) rotate(91) scale(192.00 272.00)"><ellipse cx="0" cy="0" rx="1" ry="1" fill="rgb(10,17,61)" fill-opacity="0.502"/></g>
<g transform="translate(5216.00 1328.00) rotate(336) scale(64.00 208.00)"><ellipse cx="0" cy="0" rx="1" ry="1" fill="rgb(3,131,255)" fill-opacity="0.502"/></g>
<polygon points="3383.17,3837.27 3521.08,4013.78 3432.83,4082.73 3294.92,3906.22" fill="rgb(125,69,71)" fill-opacity="0.502"/>
<polygon points="2584.16,1000.04 2692.35,1232.06 2503.84,1319.96 2395.65,1087.94" fill="rgb(8,39,151)" fill-opacity="0.502"/>
<g transform="translate(2192.00 1072.00) rotate(153) scale(192.00 464.00)"><ellipse cx="0" cy="0" rx="1" ry="1" fill="rgb(1,115,255)" fill-opacity="0.502"/></g>
<polygon points="6666.26,701.10 6632.86,463.44 6949.74,418.90 6983.14,656.56" fill="rgb(13,210,255)" fill-opacity="0.502"/>
<polygon points="2853.56,1286.93 2433.29,587.48 2570.44,505.07 2990.71,1204.52" fill="rgb(127,42,24)" fill-opacity="0.502"/>
<polygon points="2347.35,2389.38 1645.81,2551.35 1476.65,1818.62 2178.19,1656.65" fill="rgb(5,117,255)" fill-opacity="0.502"/>
<circle cx="2448.00" cy="3632.00" r="464.00" fill="rgb(13,3,0)" fill-opacity="0.502"/>
<g transform="translate(6736.00 3776.00) rotate(93) scale(1664.00 304.00)"><ellipse cx="0" cy="0" rx="1" ry="1" fill="rgb(3,0,16)" fill-opacity="0.502"/></g>
<polygon points="6821.56,1416.00 6450.56,1813.86 6298.44,1672.00 6669.44,1274.14" fill="rgb(19,192,255)" fill-opacity="0.502"/>
<circle cx="1744.00" cy="0.00" r="384.00" fill="rgb(0,1,32)" fill-opacity="0.502"/>
<polygon points="6759.92,2057.00 6828.87,1968.74 7144.08,2215.00 7075.13,2303.26" fill="rgb(23,138,255)" fill-opacity="0.502"/>
<g transform="translate(1200.00 4304.00) rotate(89) scale(720.00 96.00)"><ellipse cx="0" cy="0" rx="1" ry="1" fill="rgb(5,103,255)" fill-opacity="0.502"/></g>
<polygon points="4433.80,1954.44 4749.00,2200.70 4670.20,2301.56 4355.00,2055.30" fill="rgb(128,75,64)" fill-opacity="0.502"/>
<circle cx="3552.00" cy="3360.00" r="96.00" fill="rgb(85,68,67)" fill-opacity="0.502"/>
<g transform="translate(4912.00 4224.00) rotate(274) scale(16.00 640.00)"><ellipse cx="0" cy="0" rx="1" ry="1" fill="rgb(165,127,117)" fill-opacity="0.502"/></g>
<circle cx="5216.00" cy="3808.00" r="320.00" fill="rgb(26,12,2)" fill-opacity="0.502"/>
<g transform="translate(2784.00 1616.00) rotate(192) scale(96.00 64.00)"><ellipse cx="0" cy="0" rx="1" ry="1" fill="rgb(9,126,255)" fill-opacity="0.502"/></g>
<circle cx="3760.00" cy="240.00" r="128.00" fill="rgb(225,101,73)" fill-opacity="0.502"/>
<g transform="translate(4272.00 1952.00) rotate(304) scale(64.00 128.00)"><ellipse cx="0" cy="0" rx="1" ry="1" fill="rgb(91,68,61)" fill-opacity="0.502"/></g>
<polygon points="5270.69,1170.22 5095.17,1333.90 4953.31,1181.78 5128.83,1018.10" fill="rgb(23,123,255)" fill-opacity="0.502"/>
<polygon points="3501.72,1369.54 3601.75,1605.19 3410.28,1686.46 3310.25,1450.81" fill="rgb(186,80,60)" fill-opacity="0.502"/>
<circle cx="4176.00" cy="448.00" r="160.00" fill="rgb(80,15,9)" fill-opacity="0.502"/>
<polygon points="1752.50,3875.68 1624.02,4059.17 1191.50,3756.32 1319.98,3572.83" fill="rgb(0,0,8)" fill-opacity="0.502"/>
<circle cx="6288.00" cy="3312.00" r="480.00" fill="rgb(4,0,4)" fill-opacity="0.502"/>
<polygon points="3589.96,797.28 3606.63,891.82 3386.04,930.72 3369.37,836.18" fill="rgb(9,0,0)" fill-opacity="0.502"/>
<polygon points="1261.69,4599.46 1189.69,4513.66 1410.31,4328.54 1482.31,4414.34" fill="rgb(0,0,3)" fill-opacity="0.502"/>
<g transform="translate(1792.00 2704.00) rotate(58) scale(80.00 128.00)"><ellipse cx="0" cy="0" rx="1" ry="1" fill="rgb(0,125,255)" fill-opacity="0.502"/></g>
<circle cx="4288.00" cy="1200.00" r="304.00" fill="rgb(6,0,0)" fill-opacity="0.502"/>
<g transform="translate(3808.00 4512.00) rotate(279) scale(256.00 320.00)"><ellipse cx="0" cy="0" rx="1" ry="1" fill="rgb(24,6,0)" fill-opacity="0.502"/></g>
<polygon points="6496.44,1779.40 6711.14,1639.97 6911.56,1948.60 6696.86,2088.03" fill="rgb(28,208,255)" fill-opacity="0.502"/>
<polygon points="2400.00,304.00 2512.00,304.00 2512.00,464.00 2400.00,464.00" fill="rgb(129,33,21)" fill-opacity="0.502"/>
<circle cx="2624.00" cy="2240.00" r="64.00" fill="rgb(84,74,74)" fill-opacity="0.502"/>
<g transform="translate(2192.00 1824.00) rotate(157) scale(384.00 112.00)"><ellipse cx="0" cy="0" rx="1" ry="1" fill="rgb(3,117,255)" fill-opacity="0.502"/></g>
<polygon points="1716.54,1770.19 1367.16,1813.09 1355.46,1717.81 1704.84,1674.91" fill="rgb(2,0,15)" fill-opacity="0.502"/>
<circle cx="5216.00" cy="4528.00" r="272.00" fill="rgb(24,7,0)" fill-opacity="0.502"/>
<g transform="translate(3840.00 3600.00) rotate(340) scale(256.00 464.00)"><ellipse cx="0" cy="0" rx="1" ry="1" fill="rgb(19,6,2)" fill-opacity="0.502"/></g>
<circle cx="3072.00" cy="4352.00" r="192.00" fill="rgb(8,0,0)" fill-opacity="0.502"/>
<g transform="translate(6640.00 176.00) rotate(239) scale(528.00 416.00)"><ellipse cx="0" cy="0" rx="1" ry="1" fill="rgb(9,182,255)" fill-opacity="0.502"/></g>
<g transform="translate(3360.00 1840.00) rotate(117) scale(80.00 432.00)"><ellipse cx="0" cy="0" rx="1" ry="1" fill="rgb(13,0,0)" fill-opacity="0.502"/></g>
<polygon points="2697.93,1485.80 2495.07,1050.77 2582.07,1010.20 2784.93,1445.23" fill="rgb(11,112,255)" fill-opacity="0.502"/>
<circle cx="4816.00" cy="2768.00" r="480.00" fill="rgb(16,8,0)" fill-opacity="0.502"/>
<polygon points="1278.03,1818.21 1388.94,1802.62 1457.97,2293.79 1347.06,2309.38" fill="rgb(14,41,113)" fill-opacity="0.502"/>
<polygon points="2615.50,1729.28 2695.50,1590.72 2792.50,1646.72 2712.50,1785.28" fill="rgb(31,112,255)" fill-opacity="0.502"/>
<circle cx="5440.00" cy="176.00" r="352.00" fill="rgb(5,2,18)" fill-opacity="0.502"/>
<circle cx="2576.00" cy="4464.00" r="272.00" fill="rgb(15,5,0)" fill-opacity="0.502"/>
<g transform="translate(5600.00 2160.00) rotate(317) scale(560.00 800.00)"><ellipse cx="0" cy="0" rx="1" ry="1" fill="rgb(17,7,2)" fill-opacity="0.502"/></g>
<g transform="translate(4384.00 4560.00) rotate(267) scale(352.00 128.00)"><ellipse cx="0" cy="0" rx="1" ry="1" fill="rgb(6,0,0)" fill-opacity="0.502"/></g>
<polygon points="1604.00,2404.28 1546.43,2767.75 1420.00,2747.72 1477.57,2384.25" fill="rgb(9,30,96)" fill-opacity="0.502"/>
<circle cx="2320.00" cy="4336.00" r="272.00" fill="rgb(31,18,15)" fill-opacity="0.502"/>
<circle cx="7872.00" cy="3920.00" r="864.00" fill="rgb(0,0,0)" fill-opacity="0.502"/>
<g transform="translate(3808.00 1184.00) rotate(152) scale(384.00 64.00)"><ellipse cx="0" cy="0" rx="1" ry="1" fill="rgb(43,2,1)" fill-opacity="0.502"/></g>
<g transform="translate(2608.00 1696.00) rotate(0) scale(48.00 256.00)"><ellipse cx="0" cy="0" rx="1" ry="1" fill="rgb(7,0,36)" fill-opacity="0.502"/></g>
<g transform="translate(976.00 4432.00) rotate(115) scale(48.00 464.00)"><ellipse cx="0" cy="0" rx="1" ry="1" fill="rgb(2,0,10)" fill-opacity="0.502"/></g>
<g transform="translate(1856.00 2256.00) rotate(97) scale(496.00 240.00)"><ellipse cx="0" cy="0" rx="1" ry="1" fill="rgb(1,118,255)" fill-opacity="0.502"/></g>
<circle cx="976.00" cy="1792.00" r="304.00" fill="rgb(0,0,0)" fill-opacity="0.502"/>
<polygon points="1225.84,4564.18 1176.59,4627.22 1126.16,4587.82 1175.41,4524.78" fill="rgb(30,81,213)" fill-opacity="0.502"/>
<polygon points="3619.01,253.94 3679.88,273.72 3580.99,578.06 3520.12,558.28" fill="rgb(90,6,0)" fill-opacity="0.502"/>
<g transform="translate(2784.00 2592.00) rotate(117) scale(576.00 320.00)"><ellipse cx="0" cy="0" rx="1" ry="1" fill="rgb(9,1,0)" fill-opacity="0.502"/></g>
<circle cx="4320.00" cy="944.00" r="256.00" fill="rgb(10,0,0)" fill-opacity="0.502"/>
<g transform="translate(4704.00 3456.00) rotate(186) scale(1152.00 640.00)"><ellipse cx="0" cy="0" rx="1" ry="1" fill="rgb(23,10,4)" fill-opacity="0.502"/></g>
<circle cx="464.00" cy="288.00" r="752.00" fill="rgb(0,0,0)" fill-opacity="0.502"/>
<circle cx="5888.00" cy="800.00" r="272.00" fill="rgb(9,9,42)" fill-opacity="0.502"/>
<g transform="translate(1632.00 4240.00) rotate(360) scale(256.00 976.00)"><ellipse cx="0" cy="0" rx="1" ry="1" fill="rgb(0,0,0)" fill-opacity="0.502"/></g>
<g transform="translate(6480.00 1248.00) rotate(109) scale(272.00 224.00)"><ellipse cx="0" cy="0" rx="1" ry="1" fill="rgb(22,188,255)" fill-opacity="0.502"/></g>
<circle cx="5888.00" cy="3232.00" r="416.00" fill="rgb(12,2,5)" fill-opacity="0.502"/>
<polygon points="3196.54,2134.84 3300.66,1900.97 3651.46,2057.16 3547.34,2291.03" fill="rgb(182,73,54)" fill-opacity="0.502"/>
<g transform="translate(2416.00 2960.00) rotate(277) scale(240.00 640.00)"><ellipse cx="0" cy="0" rx="1" ry="1" fill="rgb(9,1,0)" fill-opacity="0.502"/></g>
<g transform="translate(1296.00 256.00) rotate(41) scale(160.00 288.00)"><ellipse cx="0" cy="0" rx="1" ry="1" fill="rgb(2,0,20)" fill-opacity="0.502"/></g>
<g transform="translate(3264.00 640.00) rotate(48) scale(144.00 416.00)"><ellipse cx="0" cy="0" rx="1" ry="1" fill="rgb(138,41,32)" fill-opacity="0.502"/></g>
<polygon points="1394.07,1140.34 1198.41,1329.28 1053.93,1179.66 1249.59,990.72" fill="rgb(11,11,62)" fill-opacity="0.502"/>
<polygon points="3949.98,4108.40 3953.89,4220.34 3746.02,4227.60 3742.11,4115.66" fill="rgb(107,63,61)" fill-opacity="0.502"/>
<g transform="translate(3200.00 2576.00) rotate(252) scale(400.00 272.00)"><ellipse cx="0" cy="0" rx="1" ry="1" fill="rgb(22,9,4)" fill-opacity="0.502"/></g>
<g transform="translate(4720.00 1376.00) rotate(32) scale(144.00 464.00)"><ellipse cx="0" cy="0" rx="1" ry="1" fill="rgb(8,0,0)" fill-opacity="0.502"/></g>
<polygon points="6359.79,626.20 6047.79,85.80 6200.21,-2.20 6512.21,538.20" fill="rgb(17,184,255)" fill-opacity="0.502"/>
<circle cx="3632.00" cy="176.00" r="64.00" fill="rgb(255,126,103)" fill-opacity="0.502"/>
<g transform="translate(6640.00 0.00) rotate(141) scale(432.00 448.00)"><ellipse cx="0" cy="0" rx="1" ry="1" fill="rgb(6,174,253)" fill-opacity="0.502"/></g>
<polygon points="6128.25,1849.29 6052.67,1521.90 6239.75,1478.71 6315.33,1806.10" fill="rgb(7,11,52)" fill-opacity="0.502"/>
<circle cx="3264.00" cy="4528.00" r="208.00" fill="rgb(19,4,0)" fill-opacity="0.502"/>
<circle cx="5552.00" cy="2704.00" r="432.00" fill="rgb(21,11,7)" fill-opacity="0.502"/>
<g transform="translate(4896.00 3680.00) rotate(127) scale(368.00 528.00)"><ellipse cx="0" cy="0" rx="1" ry="1" fill="rgb(25,12,8)" fill-opacity="0.502"/></g>
<g transform="translate(4896.00 304.00) rotate(0) scale(144.00 704.00)"><ellipse cx="0" cy="0" rx="1" ry="1" fill="rgb(3,122,255)" fill-opacity="0.502"/></g>
<g transform="translate(3648.00 4192.00) rotate(41) scale(96.00 96.00)"><ellipse cx="0" cy="0" rx="1" ry="1" fill="rgb(98,61,58)" fill-opacity="0.502"/></g>
<g transform="translate(800.00 1376.00) rotate(199) scale(336.00 464.00)"><ellipse cx="0" cy="0" rx="1" ry="1" fill="rgb(0,0,0)" fill-opacity="0.502"/></g>
<g transform="translate(2768.00 80.00) rotate(41) scale(272.00 368.00)"><ellipse cx="0" cy="0" rx="1" ry="1" fill="rgb(1,0,0)" fill-opacity="0.502"/></g>
<circle cx="1264.00" cy="4272.00" r="112.00" fill="rgb(0,111,255)" fill-opacity="0.502"/>
<polygon points="6307.63,881.38 6410.43,1464.39 6284.37,1486.62 6181.57,903.61" fill="rgb(37,138,249)" fill-opacity="0.502"/>
<polygon points="1536.12,3137.85 1519.37,3457.41 1151.88,3438.15 1168.63,3118.59" fill="rgb(2,0,20)" fill-opacity="0.502"/>
<circle cx="3792.00" cy="1392.00" r="128.00" fill="rgb(148,50,32)" fill-opacity="0.502"/>
<g transform="translate(4752.00 704.00) rotate(204) scale(80.00 368.00)"><ellipse cx="0" cy="0" rx="1" ry="1" fill="rgb(11,119,255)" fill-opacity="0.502"/></g>
<polygon points="2201.09,275.11 2365.26,726.16 2214.91,780.89 2050.74,329.84" fill="rgb(3,87,234)" fill-opacity="0.502"/>
<polygon points="3935.19,1098.46 3993.19,1125.51 3776.81,1589.54 3718.81,1562.49" fill="rgb(125,40,32)" fill-opacity="0.502"/>
<g transform="translate(4096.00 2432.00) rotate(180) scale(544.00 368.00)"><ellipse cx="0" cy="0" rx="1" ry="1" fill="rgb(18,7,4)" fill-opacity="0.502"/></g>
<g transform="translate(3664.00 1632.00) rotate(65) scale(64.00 288.00)"><ellipse cx="0" cy="0" rx="1" ry="1" fill="rgb(82,16,9)" fill-opacity="0.502"/></g>
<polygon points="3676.80,656.86 3698.25,831.54 3571.20,847.14 3549.75,672.46" fill="rgb(192,79,60)" fill-opacity="0.502"/>
<polygon points="6047.85,366.89 6097.11,303.85 6160.15,353.11 6110.89,416.15" fill="rgb(42,76,194)" fill-opacity="0.502"/>
<polygon points="4543.57,4458.59 4393.69,4625.06 4096.43,4357.41 4246.31,4190.94" fill="rgb(13,0,0)" fill-opacity="0.502"/>
<g transform="translate(5952.00 864.00) rotate(176) scale(176.00 928.00)"><ellipse cx="0" cy="0" rx="1" ry="1" fill="rgb(7,14,49)" fill-opacity="0.502"/></g>
<g transform="translate(4304.00 2608.00) rotate(253) scale(144.00 368.00)"><ellipse cx="0" cy="0" rx="1" ry="1" fill="rgb(27,16,10)" fill-opacity="0.502"/></g>
<circle cx="6272.00" cy="2416.00" r="496.00" fill="rgb(6,2,7)" fill-opacity="0.502"/>
<circle cx="3936.00" cy="1792.00" r="272.00" fill="rgb(11,0,0)" fill-opacity="0.502"/>
<circle cx="2944.00" cy="1328.00" r="80.00" fill="rgb(52,12,14)" fill-opacity="0.502"/>
<polygon points="3551.38,2300.54 3518.84,2505.98 3376.62,2483.46 3409.16,2278.02" fill="rgb(17,3,0)" fill-opacity="0.502"/>
<g transform="translate(2272.00 16.00) rotate(168) scale(224.00 128.00)"><ellipse cx="0" cy="0" rx="1" ry="1" fill="rgb(0,0,3)" fill-opacity="0.502"/></g>
<circle cx="5680.00" cy="2432.00" r="336.00" fill="rgb(20,8,7)" fill-opacity="0.502"/>
<g transform="translate(5616.00 4464.00) rotate(141) scale(560.00 272.00)"><ellipse cx="0" cy="0" rx="1" ry="1" fill="rgb(13,3,0)" fill-opacity="0.502"/></g>
<polygon points="3844.58,1494.32 3854.34,1382.75 4619.42,1449.68 4609.66,1561.25" fill="rgb(16,0,0)" fill-opacity="0.502"/>
<circle cx="5488.00" cy="544.00" r="368.00" fill="rgb(5,5,22)" fill-opacity="0.502"/>
<polygon points="2590.75,1369.37 2624.16,1607.04 2513.25,1622.63 2479.84,1384.96" fill="rgb(0,0,30)" fill-opacity="0.502"/>
<g transform="translate(4896.00 2224.00) rotate(118) scale(480.00 128.00)"><ellipse cx="0" cy="0" rx="1" ry="1" fill="rgb(9,0,0)" fill-opacity="0.502"/></g>
<polygon points="3216.33,3883.16 3343.09,3865.35 3407.67,4324.84 3280.91,4342.65" fill="rgb(35,13,12)" fill-opacity="0.502"/>
<circle cx="3200.00" cy="3728.00" r="256.00" fill="rgb(10,4,0)" fill-opacity="0.502"/>
<g transform="translate(1536.00 2736.00) rotate(170) scale(80.00 384.00)"><ellipse cx="0" cy="0" rx="1" ry="1" fill="rgb(4,33,93)" fill-opacity="0.502"/></g>
<circle cx="1712.00" cy="1472.00" r="192.00" fill="rgb(0,108,250)" fill-opacity="0.502"/>
<g transform="translate(2992.00 880.00) rotate(40) scale(32.00 64.00)"><ellipse cx="0" cy="0" rx="1" ry="1" fill="rgb(41,0,0)" fill-opacity="0.502"/></g>
<polygon points="3859.15,922.81 3626.53,577.93 3692.85,533.19 3925.47,878.07" fill="rgb(29,0,0)" fill-opacity="0.502"/>
<polygon points="2527.89,1203.35 2448.33,1194.99 2480.11,892.65 2559.67,901.01" fill="rgb(9,20,76)" fill-opacity="0.502"/>
<polygon points="3679.30,555.37 3775.16,407.77 4016.70,564.63 3920.84,712.23" fill="rgb(200,78,62)" fill-opacity="0.502"/>
<polygon points="2321.80,381.69 2368.92,372.53 2558.20,1346.31 2511.08,1355.47" fill="rgb(0,0,60)" fill-opacity="0.502"/>
<circle cx="2560.00" cy="176.00" r="176.00" fill="rgb(9,0,0)" fill-opacity="0.502"/>
<g transform="translate(3920.00 3584.00) rotate(71) scale(432.00 384.00)"><ellipse cx="0" cy="0" rx="1" ry="1" fill="rgb(24,10,7)" fill-opacity="0.502"/></g>
<g transform="translate(4048.00 912.00) rotate(25) scale(80.00 288.00)"><ellipse cx="0" cy="0" rx="1" ry="1" fill="rgb(90,28,27)" fill-opacity="0.502"/></g>
<circle cx="2928.00" cy="1776.00" r="160.00" fill="rgb(15,0,0)" fill-opacity="0.502"/>
<g transform="translate(1792.00 4592.00) rotate(255) scale(640.00 464.00)"><ellipse cx="0" cy="0" rx="1" ry="1" fill="rgb(6,0,0)" fill-opacity="0.502"/></g>
<g transform="translate(1120.00 3072.00) rotate(4) scale(16.00 368.00)"><ellipse cx="0" cy="0" rx="1" ry="1" fill="rgb(6,11,57)" fill-opacity="0.502"/></g>
<g transform="translate(7600.00 2016.00) rotate(273) scale(1616.00 512.00)"><ellipse cx="0" cy="0" rx="1" ry="1" fill="rgb(0,0,0)" fill-opacity="0.502"/></g>
<circle cx="7440.00" cy="2176.00" r="352.00" fill="rgb(0,0,0)" fill-opacity="0.502"/>
<circle cx="3408.00" cy="3968.00" r="96.00" fill="rgb(112,67,69)" fill-opacity="0.502"/>
<polygon points="3780.15,549.63 3804.87,625.71 2891.85,922.37 2867.13,846.29" fill="rgb(112,23,17)" fill-opacity="0.502"/>
<polygon points="5268.24,1360.63 5435.70,1146.30 5851.76,1471.37 5684.30,1685.70" fill="rgb(5,5,22)" fill-opacity="0.502"/>
<polygon points="3963.25,838.34 3869.20,708.90 3972.75,633.66 4066.80,763.10" fill="rgb(172,67,51)" fill-opacity="0.502"/>
<circle cx="1760.00" cy="2768.00" r="80.00" fill="rgb(6,115,255)" fill-opacity="0.502"/>
<g transform="translate(3168.00 3584.00) rotate(5) scale(128.00 448.00)"><ellipse cx="0" cy="0" rx="1" ry="1" fill="rgb(15,5,2)" fill-opacity="0.502"/></g>
<polygon points="6493.34,1905.09 6365.36,1902.86 6370.66,1598.91 6498.64,1601.14" fill="rgb(34,184,255)" fill-opacity="0.502"/>
<polygon points="3879.11,362.38 3801.20,169.53 4008.89,85.62 4086.80,278.47" fill="rgb(185,68,48)" fill-opacity="0.502"/>
<polygon points="7096.75,800.95 6692.96,1472.97 6583.25,1407.05 6987.04,735.03" fill="rgb(23,215,255)" fill-opacity="0.502"/>
<circle cx="6656.00" cy="4000.00" r="416.00" fill="rgb(4,4,14)" fill-opacity="0.502"/>
<circle cx="128.00" cy="4224.00" r="960.00" fill="rgb(0,0,0)" fill-opacity="0.502"/>
<circle cx="6448.00" cy="464.00" r="288.00" fill="rgb(14,194,252)" fill-opacity="0.502"/>
<circle cx="2544.00" cy="3776.00" r="320.00" fill="rgb(14,7,0)" fill-opacity="0.502"/>
<g transform="translate(3408.00 2496.00) rotate(36) scale(512.00 144.00)"><ellipse cx="0" cy="0" rx="1" ry="1" fill="rgb(24,9,7)" fill-opacity="0.502"/></g>
<g transform="translate(4784.00 1888.00) rotate(210) scale(656.00 288.00)"><ellipse cx="0" cy="0" rx="1" ry="1" fill="rgb(15,3,1)" fill-opacity="0.502"/></g>
<circle cx="3264.00" cy="544.00" r="160.00" fill="rgb(180,66,49)" fill-opacity="0.502"/>
<g transform="translate(4352.00 144.00) rotate(73) scale(656.00 32.00)"><ellipse cx="0" cy="0" rx="1" ry="1" fill="rgb(6,0,0)" fill-opacity="0.502"/></g>
<polygon points="1649.75,457.96 1826.49,382.94 1870.25,486.04 1693.51,561.06" fill="rgb(16,75,195)" fill-opacity="0.502"/>
<g transform="translate(4384.00 768.00) rotate(275) scale(1008.00 128.00)"><ellipse cx="0" cy="0" rx="1" ry="1" fill="rgb(8,0,0)" fill-opacity="0.502"/></g>
<polygon points="2385.36,191.84 2396.51,319.35 1838.64,368.16 1827.49,240.65" fill="rgb(15,22,70)" fill-opacity="0.502"/>
<circle cx="3376.00" cy="336.00" r="64.00" fill="rgb(0,0,0)" fill-opacity="0.502"/>
<circle cx="3648.00" cy="960.00" r="112.00" fill="rgb(212,77,71)" fill-opacity="0.502"/>
<circle cx="128.00" cy="1200.00" r="976.00" fill="rgb(0,0,0)" fill-opacity="0.502"/>
<g transform="translate(3456.00 432.00) rotate(107) scale(16.00 544.00)"><ellipse cx="0" cy="0" rx="1" ry="1" fill="rgb(154,50,34)" fill-opacity="0.502"/></g>
<circle cx="5056.00" cy="864.00" r="128.00" fill="rgb(11,157,255)" fill-opacity="0.502"/>
<polygon points="3349.11,4340.03 3284.87,4268.68 3498.89,4075.97 3563.13,4147.32" fill="rgb(76,39,39)" fill-opacity="0.502"/>
<circle cx="6960.00" cy="2144.00" r="112.00" fill="rgb(7,92,242)" fill-opacity="0.502"/>
<polygon points="2479.84,1502.43 1869.47,1632.17 1856.16,1569.57 2466.53,1439.83" fill="rgb(5,57,181)" fill-opacity="0.502"/>
<g transform="translate(5824.00 80.00) rotate(183) scale(176.00 720.00)"><ellipse cx="0" cy="0" rx="1" ry="1" fill="rgb(6,8,37)" fill-opacity="0.502"/></g>
<polygon points="6567.93,1763.43 6652.57,1879.93 6536.07,1964.57 6451.43,1848.07" fill="rgb(29,211,255)" fill-opacity="0.502"/>
<circle cx="5936.00" cy="4272.00" r="112.00" fill="rgb(21,18,17)" fill-opacity="0.502"/>
<polygon points="3310.70,1285.61 3630.51,1274.44 3633.30,1354.39 3313.49,1365.56" fill="rgb(74,0,0)" fill-opacity="0.502"/>
<polygon points="6405.02,1415.48 6726.41,1950.35 6602.98,2024.52 6281.59,1489.65" fill="rgb(24,194,255)" fill-opacity="0.502"/>
<circle cx="2688.00" cy="1408.00" r="80.00" fill="rgb(14,107,255)" fill-opacity="0.502"/>
<circle cx="3440.00" cy="1056.00" r="96.00" fill="rgb(228,102,95)" fill-opacity="0.502"/>
<g transform="translate(6240.00 4064.00) rotate(117) scale(224.00 112.00)"><ellipse cx="0" cy="0" rx="1" ry="1" fill="rgb(3,0,4)" fill-opacity="0.502"/></g>
<polygon points="2312.12,1484.29 1962.05,1521.08 1911.88,1043.71 2261.95,1006.92" fill="rgb(4,123,255)" fill-opacity="0.502"/>
<g transform="translate(1296.00 3120.00) rotate(124) scale(224.00 256.00)"><ellipse cx="0" cy="0" rx="1" ry="1" fill="rgb(4,2,17)" fill-opacity="0.502"/></g>
<polygon points="3126.85,223.79 3144.84,268.30 2937.15,352.21 2919.16,307.70" fill="rgb(206,91,76)" fill-opacity="0.502"/>
<polygon points="1788.80,3393.69 1299.76,3900.11 1219.20,3822.31 1708.24,3315.89" fill="rgb(0,0,10)" fill-opacity="0.502"/>
<polygon points="6480.14,1896.11 6286.60,1119.88 6767.86,999.89 6961.40,1776.12" fill="rgb(17,206,252)" fill-opacity="0.502"/>
<circle cx="2896.00" cy="2832.00" r="400.00" fill="rgb(13,4,0)" fill-opacity="0.502"/>
<g transform="translate(3488.00 2992.00) rotate(277) scale(656.00 48.00)"><ellipse cx="0" cy="0" rx="1" ry="1" fill="rgb(15,6,2)" fill-opacity="0.502"/></g>
<polygon points="3889.26,2160.41 3886.75,2016.43 3934.74,2015.59 3937.25,2159.57" fill="rgb(61,45,49)" fill-opacity="0.502"/>
<g transform="translate(3616.00 2960.00) rotate(325) scale(352.00 288.00)"><ellipse cx="0" cy="0" rx="1" ry="1" fill="rgb(24,11,9)" fill-opacity="0.502"/></g>
<polygon points="4141.48,1868.71 4182.89,1714.16 4306.52,1747.29 4265.11,1901.84" fill="rgb(59,50,53)" fill-opacity="0.502"/>
<polygon points="3785.25,2133.76 3706.24,2121.25 3718.75,2042.24 3797.76,2054.75" fill="rgb(210,95,96)" fill-opacity="0.502"/>
<polygon points="7081.76,1934.38 6905.79,1937.45 6886.24,817.62 7062.21,814.55" fill="rgb(29,225,255)" fill-opacity="0.502"/>
<circle cx="4160.00" cy="2000.00" r="80.00" fill="rgb(7,0,0)" fill-opacity="0.502"/>
<polygon points="6352.00,816.00 6592.00,816.00 6592.00,880.00 6352.00,880.00" fill="rgb(19,92,231)" fill-opacity="0.502"/>
<g transform="translate(1344.00 592.00) rotate(77) scale(96.00 64.00)"><ellipse cx="0" cy="0" rx="1" ry="1" fill="rgb(11,103,245)" fill-opacity="0.502"/></g>
<polygon points="4608.68,1157.63 5054.70,1285.53 4975.32,1562.37 4529.30,1434.47" fill="rgb(10,0,0)" fill-opacity="0.502"/>
<g transform="translate(6928.00 1696.00) rotate(0) scale(144.00 368.00)"><ellipse cx="0" cy="0" rx="1" ry="1" fill="rgb(26,217,255)" fill-opacity="0.502"/></g>
<polygon points="5863.78,1024.48 5708.26,1358.00 5128.22,1087.52 5283.74,754.00" fill="rgb(4,6,28)" fill-opacity="0.502"/>
<polygon points="3037.06,4611.36 2957.36,4604.39 2962.94,4540.64 3042.64,4547.61" fill="rgb(243,170,149)" fill-opacity="0.502"/>
<polygon points="1335.21,1245.29 1429.85,1732.18 1272.79,1762.71 1178.15,1275.82" fill="rgb(9,21,87)" fill-opacity="0.502"/>
<circle cx="7456.00" cy="656.00" r="384.00" fill="rgb(0,0,0)" fill-opacity="0.502"/>
<circle cx="4784.00" cy="2032.00" r="48.00" fill="rgb(66,63,68)" fill-opacity="0.502"/>
<g transform="translate(2528.00 1008.00) rotate(2) scale(16.00 112.00)"><ellipse cx="0" cy="0" rx="1" ry="1" fill="rgb(35,89,174)" fill-opacity="0.502"/></g>
<polygon points="2608.40,4203.31 2017.84,4244.61 2015.60,4212.69 2606.16,4171.39" fill="rgb(80,62,62)" fill-opacity="0.502"/>
<circle cx="1232.00" cy="2352.00" r="144.00" fill="rgb(5,1,21)" fill-opacity="0.502"/>
<polygon points="2636.43,806.97 2734.67,1128.29 2627.57,1161.03 2529.33,839.71" fill="rgb(54,18,17)" fill-opacity="0.502"/>
<circle cx="3872.00" cy="4464.00" r="256.00" fill="rgb(31,13,10)" fill-opacity="0.502"/>
<g transform="translate(3808.00 0.00) rotate(89) scale(96.00 400.00)"><ellipse cx="0" cy="0" rx="1" ry="1" fill="rgb(0,0,0)" fill-opacity="0.502"/></g>
<g transform="translate(2208.00 4464.00) rotate(192) scale(496.00 272.00)"><ellipse cx="0" cy="0" rx="1" ry="1" fill="rgb(15,6,5)" fill-opacity="0.502"/></g>
<polygon points="1763.71,474.57 1850.20,881.47 1756.29,901.43 1669.80,494.53" fill="rgb(2,82,233)" fill-opacity="0.502"/>
<g transform="translate(3744.00 4224.00) rotate(262) scale(32.00 496.00)"><ellipse cx="0" cy="0" rx="1" ry="1" fill="rgb(111,76,72)" fill-opacity="0.502"/></g>
<polygon points="3967.31,622.17 4134.89,37.73 4288.69,81.83 4121.11,666.27" fill="rgb(106,27,19)" fill-opacity="0.502"/>
<g transform="translate(1488.00 1376.00) rotate(257) scale(320.00 96.00)"><ellipse cx="0" cy="0" rx="1" ry="1" fill="rgb(8,105,244)" fill-opacity="0.502"/></g>
<polygon points="6546.04,-67.71 6737.35,168.54 6525.96,339.71 6334.65,103.46" fill="rgb(6,167,247)" fill-opacity="0.502"/>
<g transform="translate(2128.00 112.00) rotate(47) scale(224.00 128.00)"><ellipse cx="0" cy="0" rx="1" ry="1" fill="rgb(0,6,36)" fill-opacity="0.502"/></g>
<g transform="translate(5712.00 3888.00) rotate(8) scale(240.00 304.00)"><ellipse cx="0" cy="0" rx="1" ry="1" fill="rgb(10,0,0)" fill-opacity="0.502"/></g>
<polygon points="3951.41,2069.21 3937.01,2131.56 3344.59,1994.79 3358.99,1932.44" fill="rgb(94,37,32)" fill-opacity="0.502"/>
<polygon points="2768.00,416.00 2768.00,560.00 2656.00,560.00 2656.00,416.00" fill="rgb(186,83,73)" fill-opacity="0.502"/>
<circle cx="4496.00" cy="4448.00" r="224.00" fill="rgb(17,6,4)" fill-opacity="0.502"/>
<circle cx="6464.00" cy="4384.00" r="288.00" fill="rgb(3,2,6)" fill-opacity="0.502"/>
<g transform="translate(592.00 3280.00) rotate(240) scale(720.00 400.00)"><ellipse cx="0" cy="0" rx="1" ry="1" fill="rgb(0,0,0)" fill-opacity="0.502"/></g>
<polygon points="3894.59,2035.63 3512.69,1995.49 3529.41,1836.37 3911.31,1876.51" fill="rgb(1,0,0)" fill-opacity="0.502"/>
<polygon points="1919.78,1897.98 2057.16,2604.75 1680.22,2678.02 1542.84,1971.25" fill="rgb(3,121,253)" fill-opacity="0.502"/>
<polygon points="2585.89,4087.68 2718.53,3998.21 2790.11,4104.32 2657.47,4193.79" fill="rgb(52,32,31)" fill-opacity="0.502"/>
<circle cx="3248.00" cy="1040.00" r="48.00" fill="rgb(46,0,0)" fill-opacity="0.502"/>
<circle cx="3024.00" cy="1600.00" r="128.00" fill="rgb(13,2,8)" fill-opacity="0.502"/>
<g transform="translate(880.00 1616.00) rotate(358) scale(320.00 336.00)"><ellipse cx="0" cy="0" rx="1" ry="1" fill="rgb(0,0,1)" fill-opacity="0.502"/></g>
<polygon points="4201.10,4408.86 4198.87,4472.82 4150.90,4471.14 4153.13,4407.18" fill="rgb(149,149,161)" fill-opacity="0.502"/>
<circle cx="6752.00" cy="352.00" r="336.00" fill="rgb(9,186,254)" fill-opacity="0.502"/>
<circle cx="2480.00" cy="1824.00" r="112.00" fill="rgb(8,99,254)" fill-opacity="0.502"/>
<circle cx="3216.00" cy="256.00" r="64.00" fill="rgb(255,124,105)" fill-opacity="0.502"/>
<circle cx="1664.00" cy="1344.00" r="240.00" fill="rgb(0,111,254)" fill-opacity="0.502"/>
<circle cx="6480.00" cy="48.00" r="432.00" fill="rgb(10,172,252)" fill-opacity="0.502"/>
<circle cx="1936.00" cy="3296.00" r="352.00" fill="rgb(3,0,0)" fill-opacity="0.502"/>
<polygon points="2272.00,4400.00 2944.00,4400.00 2944.00,4544.00 2272.00,4544.00" fill="rgb(24,15,12)" fill-opacity="0.502"/>
<circle cx="6848.00" cy="400.00" r="240.00" fill="rgb(9,192,253)" fill-opacity="0.502"/>
<g transform="translate(1744.00 4592.00) rotate(13) scale(464.00 320.00)"><ellipse cx="0" cy="0" rx="1" ry="1" fill="rgb(5,0,1)" fill-opacity="0.502"/></g>
<circle cx="4368.00" cy="1312.00" r="384.00" fill="rgb(9,0,0)" fill-opacity="0.502"/>
<polygon points="2288.95,4735.21 2319.05,4448.79 2319.05,4448.79 2288.95,4735.21" fill="rgb(247,246,222)" fill-opacity="0.502"/>
<polygon points="2797.32,4080.57 2844.12,4036.92 2898.68,4095.43 2851.88,4139.08" fill="rgb(90,69,73)" fill-opacity="0.502"/>
<polygon points="3437.38,3458.21 3574.99,3816.71 3186.62,3965.79 3049.01,3607.29" fill="rgb(23,11,7)" fill-opacity="0.502"/>
<circle cx="2464.00" cy="3520.00" r="464.00" fill="rgb(13,4,0)" fill-opacity="0.502"/>
<circle cx="1552.00" cy="2896.00" r="96.00" fill="rgb(6,34,90)" fill-opacity="0.502"/>
<circle cx="2592.00" cy="2528.00" r="272.00" fill="rgb(3,0,0)" fill-opacity="0.502"/>
<polygon points="1366.69,2489.87 1157.25,2867.70 1017.31,2790.13 1226.75,2412.30" fill="rgb(3,0,17)" fill-opacity="0.502"/>
<g transform="translate(3760.00 2336.00) rotate(236) scale(128.00 288.00)"><ellipse cx="0" cy="0" rx="1" ry="1" fill="rgb(6,0,0)" fill-opacity="0.502"/></g>
<g transform="translate(3440.00 1184.00) rotate(274) scale(80.00 208.00)"><ellipse cx="0" cy="0" rx="1" ry="1" fill="rgb(213,85,74)" fill-opacity="0.502"/></g>
<polygon points="4702.77,96.16 4673.78,-12.02 4689.23,-16.16 4718.22,92.02" fill="rgb(136,104,141)" fill-opacity="0.502"/>
<circle cx="5536.00" cy="960.00" r="224.00" fill="rgb(8,5,17)" fill-opacity="0.502"/>
<polygon points="5804.05,1144.82 5643.50,1563.06 5299.95,1431.18 5460.50,1012.94" fill="rgb(6,7,26)" fill-opacity="0.502"/>
<circle cx="4736.00" cy="400.00" r="96.00" fill="rgb(15,97,243)" fill-opacity="0.502"/>
<g transform="translate(1808.00 1888.00) rotate(181) scale(336.00 112.00)"><ellipse cx="0" cy="0" rx="1" ry="1" fill="rgb(6,115,253)" fill-opacity="0.502"/></g>
<g transform="translate(4416.00 1520.00) rotate(228) scale(480.00 304.00)"><ellipse cx="0" cy="0" rx="1" ry="1" fill="rgb(10,0,0)" fill-opacity="0.502"/></g>
<g transform="translate(2704.00 1936.00) rotate(43) scale(80.00 512.00)"><ellipse cx="0" cy="0" rx="1" ry="1" fill="rgb(4,0,0)" fill-opacity="0.502"/></g>
<circle cx="6224.00" cy="704.00" r="80.00" fill="rgb(39,171,255)" fill-opacity="0.502"/>
<g transform="translate(3104.00 4032.00) rotate(1) scale(128.00 32.00)"><ellipse cx="0" cy="0" rx="1" ry="1" fill="rgb(105,80,75)" fill-opacity="0.502"/></g>
<polygon points="3064.86,3340.07 3033.45,3346.17 3015.14,3251.93 3046.55,3245.83" fill="rgb(255,169,152)" fill-opacity="0.502"/>
<polygon points="4942.60,1936.69 4862.61,1935.29 4865.40,1775.31 4945.39,1776.71" fill="rgb(47,38,39)" fill-opacity="0.502"/>
<circle cx="1696.00" cy="192.00" r="208.00" fill="rgb(4,8,33)" fill-opacity="0.502"/>
<polygon points="1103.99,4036.83 1166.05,3924.88 1264.01,3979.17 1201.95,4091.12" fill="rgb(1,136,255)" fill-opacity="0.502"/>
<circle cx="3472.00" cy="288.00" r="48.00" fill="rgb(0,0,0)" fill-opacity="0.502"/>
<g transform="translate(7920.00 384.00) rotate(248) scale(1024.00 800.00)"><ellipse cx="0" cy="0" rx="1" ry="1" fill="rgb(0,0,0)" fill-opacity="0.502"/></g>
<g transform="translate(2592.00 4368.00) rotate(68) scale(160.00 240.00)"><ellipse cx="0" cy="0" rx="1" ry="1" fill="rgb(12,4,0)" fill-opacity="0.502"/></g>
<g transform="translate(6592.00 1072.00) rotate(96) scale(208.00 336.00)"><ellipse cx="0" cy="0" rx="1" ry="1" fill="rgb(18,206,253)" fill-opacity="0.502"/></g>
<circle cx="3568.00" cy="1504.00" r="112.00" fill="rgb(180,72,52)" fill-opacity="0.502"/>
<g transform="translate(2016.00 816.00) rotate(175) scale(192.00 464.00)"><ellipse cx="0" cy="0" rx="1" ry="1" fill="rgb(3,111,251)" fill-opacity="0.502"/></g>
<circle cx="5280.00" cy="4144.00" r="32.00" fill="rgb(147,121,114)" fill-opacity="0.502"/>
<polygon points="3432.00,1976.00 3432.00,2152.00 3112.00,2152.00 3112.00,1976.00" fill="rgb(168,63,47)" fill-opacity="0.502"/>
<polygon points="1148.09,3351.12 1171.79,3622.09 1139.91,3624.88 1116.21,3353.91" fill="rgb(11,71,255)" fill-opacity="0.502"/>
<circle cx="5024.00" cy="1008.00" r="48.00" fill="rgb(2,0,79)" fill-opacity="0.502"/>
<polygon points="1005.22,2684.20 1341.84,2581.28 1458.78,2963.80 1122.16,3066.72" fill="rgb(4,2,12)" fill-opacity="0.502"/>
<circle cx="1424.00" cy="3184.00" r="192.00" fill="rgb(5,7,26)" fill-opacity="0.502"/>
<g transform="translate(3152.00 3600.00) rotate(97) scale(432.00 128.00)"><ellipse cx="0" cy="0" rx="1" ry="1" fill="rgb(18,7,3)" fill-opacity="0.502"/></g>
<g transform="translate(3376.00 3792.00) rotate(98) scale(288.00 64.00)"><ellipse cx="0" cy="0" rx="1" ry="1" fill="rgb(30,13,8)" fill-opacity="0.502"/></g>
<polygon points="1231.47,1156.29 1099.92,1097.72 1184.53,907.71 1316.08,966.28" fill="rgb(8,20,74)" fill-opacity="0.502"/>
<g transform="translate(3200.00 112.00) rotate(53) scale(64.00 208.00)"><ellipse cx="0" cy="0" rx="1" ry="1" fill="rgb(169,54,44)" fill-opacity="0.502"/></g>
<polygon points="3969.93,2220.71 3999.48,2182.88 4302.07,2419.29 4272.52,2457.12" fill="rgb(58,40,40)" fill-opacity="0.502"/>
<g transform="translate(6848.00 3872.00) rotate(12) scale(128.00 496.00)"><ellipse cx="0" cy="0" rx="1" ry="1" fill="rgb(6,4,18)" fill-opacity="0.502"/></g>
<circle cx="3904.00" cy="1840.00" r="192.00" fill="rgb(6,0,0)" fill-opacity="0.502"/>
<polygon points="4686.47,2433.02 4900.60,2195.21 5233.53,2494.98 5019.40,2732.79" fill="rgb(14,5,0)" fill-opacity="0.502"/>
<polygon points="4638.31,1017.18 4560.90,706.68 5057.69,582.82 5135.10,893.32" fill="rgb(10,134,254)" fill-opacity="0.502"/>
<circle cx="3136.00" cy="464.00" r="64.00" fill="rgb(205,89,74)" fill-opacity="0.502"/>
<circle cx="1616.00" cy="4144.00" r="304.00" fill="rgb(2,0,5)" fill-opacity="0.502"/>
</g>
</svg>