<?xml version="1.0" standalone="no"?>
<svg xmlns="http://www.w3.org/2000/svg" width="8192" height="4608" viewBox="0 0 8192 4608" style="overflow:hidden">
<defs>
<clipPath id="c"><rect x="0" y="0" width="8192" height="4608"/></clipPath>
</defs>
<rect width="8192" height="4608" fill="rgb(19,40,83)"/>
<g clip-path="url(#c)">
<circle cx="2352.00" cy="3408.00" r="1376.00" fill="rgb(1,155,255)" fill-opacity="0.502"/>
<circle cx="2176.00" cy="1776.00" r="1136.00" fill="rgb(0,139,255)" fill-opacity="0.502"/>
<circle cx="7808.00" cy="4592.00" r="2400.00" fill="rgb(0,0,0)" fill-opacity="0.502"/>
<g transform="translate(6512.00 1360.00) rotate(82) scale(2208.00 560.00)"><ellipse cx="0" cy="0" rx="1" ry="1" fill="rgb(0,182,255)" fill-opacity="0.502"/></g>
<g transform="translate(336.00 1664.00) rotate(88) scale(5072.00 768.00)"><ellipse cx="0" cy="0" rx="1" ry="1" fill="rgb(0,0,0)" fill-opacity="0.502"/></g>
<circle cx="4368.00" cy="2640.00" r="992.00" fill="rgb(184,26,0)" fill-opacity="0.502"/>
<circle cx="5152.00" cy="3792.00" r="1424.00" fill="rgb(65,1,0)" fill-opacity="0.502"/>
<circle cx="4704.00" cy="1264.00" r="1328.00" fill="rgb(52,0,0)" fill-opacity="0.502"/>
<g transform="translate(6464.00 1024.00) rotate(351) scale(512.00 2640.00)"><ellipse cx="0" cy="0" rx="1" ry="1" fill="rgb(2,116,255)" fill-opacity="0.502"/></g>
<circle cx="2048.00" cy="1680.00" r="960.00" fill="rgb(0,109,255)" fill-opacity="0.502"/>
<circle cx="1664.00" cy="4192.00" r="592.00" fill="rgb(0,86,255)" fill-opacity="0.502"/>
<circle cx="8176.00" cy="1072.00" r="1200.00" fill="rgb(0,0,0)" fill-opacity="0.502"/>
<circle cx="3040.00" cy="832.00" r="368.00" fill="rgb(0,159,255)" fill-opacity="0.502"/>
<circle cx="4416.00" cy="2368.00" r="432.00" fill="rgb(255,109,71)" fill-opacity="0.502"/>
<g transform="translate(3712.00 1264.00) rotate(336) scale(464.00 208.00)"><ellipse cx="0" cy="0" rx="1" ry="1" fill="rgb(222,63,25)" fill-opacity="0.502"/></g>
<circle cx="1760.00" cy="2720.00" r="688.00" fill="rgb(1,100,255)" fill-opacity="0.502"/>
<circle cx="2768.00" cy="3936.00" r="640.00" fill="rgb(26,115,255)" fill-opacity="0.502"/>
<g transform="translate(1280.00 112.00) rotate(78) scale(800.00 4592.00)"><ellipse cx="0" cy="0" rx="1" ry="1" fill="rgb(0,0,0)" fill-opacity="0.502"/></g>
<g transform="translate(5408.00 1232.00) rotate(23) scale(688.00 640.00)"><ellipse cx="0" cy="0" rx="1" ry="1" fill="rgb(0,0,0)" fill-opacity="0.502"/></g>
<circle cx="7776.00" cy="1856.00" r="736.00" fill="rgb(0,0,0)" fill-opacity="0.502"/>
<polygon points="6128.93,420.89 5851.55,637.61 5487.07,171.11 5764.45,-45.61" fill="rgb(1,149,255)" fill-opacity="0.502"/>
<circle cx="2656.00" cy="1168.00" r="624.00" fill="rgb(3,120,255)" fill-opacity="0.502"/>
<circle cx="368.00" cy="2000.00" r="752.00" fill="rgb(0,0,0)" fill-opacity="0.502"/>
<circle cx="7712.00" cy="3904.00" r="816.00" fill="rgb(0,0,0)" fill-opacity="0.502"/>
<polygon points="7020.02,2520.03 6001.63,2627.06 5907.98,1735.97 6926.37,1628.94" fill="rgb(6,143,255)" fill-opacity="0.502"/>
<circle cx="3968.00" cy="4288.00" r="464.00" fill="rgb(0,0,0)" fill-opacity="0.502"/>
<circle cx="4880.00" cy="4032.00" r="320.00" fill="rgb(246,92,44)" fill-opacity="0.502"/>
<circle cx="3472.00" cy="3712.00" r="320.00" fill="rgb(4,135,255)" fill-opacity="0.502"/>
<circle cx="4000.00" cy="3184.00" r="432.00" fill="rgb(181,67,41)" fill-opacity="0.502"/>
<circle cx="4640.00" cy="624.00" r="992.00" fill="rgb(2,0,0)" fill-opacity="0.502"/>
<g transform="translate(3200.00 1968.00) rotate(206) scale(288.00 352.00)"><ellipse cx="0" cy="0" rx="1" ry="1" fill="rgb(1,0,0)" fill-opacity="0.502"/></g>
<circle cx="5312.00" cy="2928.00" r="768.00" fill="rgb(28,2,0)" fill-opacity="0.502"/>
<g transform="translate(2736.00 3920.00) rotate(97) scale(608.00 512.00)"><ellipse cx="0" cy="0" rx="1" ry="1" fill="rgb(21,118,255)" fill-opacity="0.502"/></g>
<circle cx="4704.00" cy="3680.00" r="288.00" fill="rgb(0,0,0)" fill-opacity="0.502"/>
<g transform="translate(528.00 3888.00) rotate(90) scale(8176.00 576.00)"><ellipse cx="0" cy="0" rx="1" ry="1" fill="rgb(0,0,0)" fill-opacity="0.502"/></g>
<g transform="translate(6576.00 64.00) rotate(93) scale(1008.00 528.00)"><ellipse cx="0" cy="0" rx="1" ry="1" fill="rgb(1,103,255)" fill-opacity="0.502"/></g>
<circle cx="5296.00" cy="3728.00" r="256.00" fill="rgb(249,91,50)" fill-opacity="0.502"/>
<g transform="translate(4064.00 1712.00) rotate(170) scale(496.00 384.00)"><ellipse cx="0" cy="0" rx="1" ry="1" fill="rgb(0,0,0)" fill-opacity="0.502"/></g>
<g transform="translate(5552.00 2384.00) rotate(242) scale(8144.00 336.00)"><ellipse cx="0" cy="0" rx="1" ry="1" fill="rgb(8,0,0)" fill-opacity="0.502"/></g>
<polygon points="2897.13,2021.47 3116.94,3152.30 2158.87,3338.53 1939.06,2207.70" fill="rgb(3,133,255)" fill-opacity="0.502"/>
<polygon points="3505.91,3125.41 3237.25,3167.96 3102.09,2314.59 3370.75,2272.04" fill="rgb(6,147,255)" fill-opacity="0.502"/>
<g transform="translate(3456.00 2016.00) rotate(33) scale(496.00 336.00)"><ellipse cx="0" cy="0" rx="1" ry="1" fill="rgb(78,12,0)" fill-opacity="0.502"/></g>
<g transform="translate(7936.00 544.00) rotate(228) scale(896.00 816.00)"><ellipse cx="0" cy="0" rx="1" ry="1" fill="rgb(0,0,0)" fill-opacity="0.502"/></g>
<polygon points="4690.59,3973.63 4606.53,4232.31 4317.41,4138.37 4401.47,3879.69" fill="rgb(244,94,54)" fill-opacity="0.502"/>
<circle cx="2224.00" cy="1504.00" r="496.00" fill="rgb(1,132,255)" fill-opacity="0.502"/>
<polygon points="3273.84,1060.06 3367.60,787.75 3670.16,891.94 3576.40,1164.25" fill="rgb(25,0,0)" fill-opacity="0.502"/>
<g transform="translate(7600.00 2624.00) rotate(89) scale(4624.00 512.00)"><ellipse cx="0" cy="0" rx="1" ry="1" fill="rgb(0,0,0)" fill-opacity="0.502"/></g>
<g transform="translate(5968.00 0.00) rotate(31) scale(416.00 512.00)"><ellipse cx="0" cy="0" rx="1" ry="1" fill="rgb(6,114,255)" fill-opacity="0.502"/></g>
<polygon points="5951.26,2718.19 6113.81,2335.26 6496.74,2497.81 6334.19,2880.74" fill="rgb(6,106,244)" fill-opacity="0.502"/>
<circle cx="1248.00" cy="1088.00" r="160.00" fill="rgb(0,137,255)" fill-opacity="0.502"/>
<circle cx="3792.00" cy="4592.00" r="512.00" fill="rgb(0,0,0)" fill-opacity="0.502"/>
<circle cx="3264.00" cy="608.00" r="208.00" fill="rgb(0,136,255)" fill-opacity="0.502"/>
<g transform="translate(3504.00 1808.00) rotate(259) scale(208.00 704.00)"><ellipse cx="0" cy="0" rx="1" ry="1" fill="rgb(0,0,0)" fill-opacity="0.502"/></g>
<g transform="translate(1520.00 4304.00) rotate(294) scale(928.00 288.00)"><ellipse cx="0" cy="0" rx="1" ry="1" fill="rgb(0,95,255)" fill-opacity="0.502"/></g>
<g transform="translate(4816.00 2016.00) rotate(178) scale(272.00 432.00)"><ellipse cx="0" cy="0" rx="1" ry="1" fill="rgb(162,45,28)" fill-opacity="0.502"/></g>
<polygon points="6441.87,2756.61 6885.59,2620.95 7110.13,3355.39 6666.41,3491.05" fill="rgb(8,156,255)" fill-opacity="0.502"/>
<circle cx="704.00" cy="3488.00" r="400.00" fill="rgb(0,0,0)" fill-opacity="0.502"/>
<g transform="translate(6656.00 3664.00) rotate(148) scale(224.00 272.00)"><ellipse cx="0" cy="0" rx="1" ry="1" fill="rgb(7,0,0)" fill-opacity="0.502"/></g>
<circle cx="6496.00" cy="4080.00" r="672.00" fill="rgb(6,0,0)" fill-opacity="0.502"/>
<polygon points="3817.44,2028.58 3614.58,2463.61 3382.56,2355.42 3585.42,1920.39" fill="rgb(234,94,73)" fill-opacity="0.502"/>
<g transform="translate(1568.00 144.00) rotate(263) scale(672.00 2064.00)"><ellipse cx="0" cy="0" rx="1" ry="1" fill="rgb(2,0,2)" fill-opacity="0.502"/></g>
<g transform="translate(6784.00 1392.00) rotate(325) scale(352.00 256.00)"><ellipse cx="0" cy="0" rx="1" ry="1" fill="rgb(4,114,255)" fill-opacity="0.502"/></g>
<polygon points="5454.99,3172.65 5787.22,3423.01 5585.01,3691.35 5252.78,3440.99" fill="rgb(177,55,28)" fill-opacity="0.502"/>
<g transform="translate(3104.00 1408.00) rotate(14) scale(160.00 352.00)"><ellipse cx="0" cy="0" rx="1" ry="1" fill="rgb(7,150,255)" fill-opacity="0.502"/></g>
<g transform="translate(1808.00 2144.00) rotate(77) scale(64.00 1136.00)"><ellipse cx="0" cy="0" rx="1" ry="1" fill="rgb(9,12,65)" fill-opacity="0.502"/></g>
<g transform="translate(3824.00 2272.00) rotate(56) scale(496.00 80.00)"><ellipse cx="0" cy="0" rx="1" ry="1" fill="rgb(185,65,51)" fill-opacity="0.502"/></g>
<circle cx="6224.00" cy="2192.00" r="304.00" fill="rgb(8,135,255)" fill-opacity="0.502"/>
<g transform="translate(5680.00 0.00) rotate(79) scale(160.00 496.00)"><ellipse cx="0" cy="0" rx="1" ry="1" fill="rgb(10,92,233)" fill-opacity="0.502"/></g>
<g transform="translate(496.00 3488.00) rotate(283) scale(1536.00 512.00)"><ellipse cx="0" cy="0" rx="1" ry="1" fill="rgb(0,0,0)" fill-opacity="0.502"/></g>
<polygon points="5905.12,1210.64 7047.60,967.80 7070.88,1077.36 5928.40,1320.20" fill="rgb(6,0,0)" fill-opacity="0.502"/>
<circle cx="4064.00" cy="1184.00" r="240.00" fill="rgb(146,36,21)" fill-opacity="0.502"/>
<g transform="translate(7232.00 2560.00) rotate(221) scale(192.00 160.00)"><ellipse cx="0" cy="0" rx="1" ry="1" fill="rgb(0,0,0)" fill-opacity="0.502"/></g>
<polygon points="3264.00,1424.00 2864.00,1424.00 2864.00,528.00 3264.00,528.00" fill="rgb(3,127,255)" fill-opacity="0.502"/>
<g transform="translate(3552.00 3504.00) rotate(62) scale(368.00 144.00)"><ellipse cx="0" cy="0" rx="1" ry="1" fill="rgb(5,157,255)" fill-opacity="0.502"/></g>
<polygon points="6172.93,593.56 6284.51,1076.85 6035.07,1134.44 5923.49,651.15" fill="rgb(13,133,255)" fill-opacity="0.502"/>
<g transform="translate(5264.00 4592.00) rotate(306) scale(1184.00 384.00)"><ellipse cx="0" cy="0" rx="1" ry="1" fill="rgb(8,7,0)" fill-opacity="0.502"/></g>
<polygon points="3245.14,3114.45 3277.53,3254.76 3074.86,3301.55 3042.47,3161.24" fill="rgb(0,0,14)" fill-opacity="0.502"/>
<circle cx="5632.00" cy="1936.00" r="336.00" fill="rgb(120,30,11)" fill-opacity="0.502"/>
<g transform="translate(1840.00 2624.00) rotate(78) scale(3120.00 48.00)"><ellipse cx="0" cy="0" rx="1" ry="1" fill="rgb(5,6,69)" fill-opacity="0.502"/></g>
<circle cx="8064.00" cy="2576.00" r="992.00" fill="rgb(0,0,0)" fill-opacity="0.502"/>
<g transform="translate(5696.00 2112.00) rotate(211) scale(80.00 288.00)"><ellipse cx="0" cy="0" rx="1" ry="1" fill="rgb(175,58,46)" fill-opacity="0.502"/></g>
<g transform="translate(4320.00 3072.00) rotate(39) scale(160.00 800.00)"><ellipse cx="0" cy="0" rx="1" ry="1" fill="rgb(167,60,42)" fill-opacity="0.502"/></g>
<g transform="translate(5232.00 2240.00) rotate(273) scale(1360.00 208.00)"><ellipse cx="0" cy="0" rx="1" ry="1" fill="rgb(4,0,0)" fill-opacity="0.502"/></g>
<g transform="translate(3120.00 3952.00) rotate(264) scale(480.00 464.00)"><ellipse cx="0" cy="0" rx="1" ry="1" fill="rgb(29,103,245)" fill-opacity="0.502"/></g>
<g transform="translate(1616.00 2608.00) rotate(68) scale(416.00 528.00)"><ellipse cx="0" cy="0" rx="1" ry="1" fill="rgb(5,110,255)" fill-opacity="0.502"/></g>
<g transform="translate(3840.00 720.00) rotate(79) scale(256.00 464.00)"><ellipse cx="0" cy="0" rx="1" ry="1" fill="rgb(1,0,0)" fill-opacity="0.502"/></g>
<g transform="translate(3888.00 4448.00) rotate(108) scale(768.00 432.00)"><ellipse cx="0" cy="0" rx="1" ry="1" fill="rgb(2,0,0)" fill-opacity="0.502"/></g>
<g transform="translate(4816.00 3456.00) rotate(313) scale(592.00 336.00)"><ellipse cx="0" cy="0" rx="1" ry="1" fill="rgb(7,0,0)" fill-opacity="0.502"/></g>
<g transform="translate(1312.00 3232.00) rotate(8) scale(208.00 272.00)"><ellipse cx="0" cy="0" rx="1" ry="1" fill="rgb(0,105,255)" fill-opacity="0.502"/></g>
<circle cx="4416.00" cy="1152.00" r="192.00" fill="rgb(94,14,4)" fill-opacity="0.502"/>
<polygon points="7072.00,1088.00 7072.00,2048.00 6848.00,2048.00 6848.00,1088.00" fill="rgb(9,135,255)" fill-opacity="0.502"/>
<polygon points="3253.09,4057.93 3275.40,3802.91 3402.91,3814.07 3380.60,4069.09" fill="rgb(0,25,109)" fill-opacity="0.502"/>
<circle cx="2720.00" cy="928.00" r="128.00" fill="rgb(13,32,142)" fill-opacity="0.502"/>
<g transform="translate(5024.00 4400.00) rotate(52) scale(144.00 448.00)"><ellipse cx="0" cy="0" rx="1" ry="1" fill="rgb(0,0,0)" fill-opacity="0.502"/></g>
<circle cx="2544.00" cy="2768.00" r="496.00" fill="rgb(4,125,255)" fill-opacity="0.502"/>
<circle cx="7696.00" cy="4176.00" r="848.00" fill="rgb(0,0,0)" fill-opacity="0.502"/>
<g transform="translate(5040.00 4016.00) rotate(327) scale(464.00 160.00)"><ellipse cx="0" cy="0" rx="1" ry="1" fill="rgb(235,96,71)" fill-opacity="0.502"/></g>
<circle cx="4048.00" cy="4464.00" r="512.00" fill="rgb(8,0,0)" fill-opacity="0.502"/>
<polygon points="1399.52,2168.56 1103.31,2100.17 1272.48,1367.44 1568.69,1435.83" fill="rgb(3,119,255)" fill-opacity="0.502"/>
<g transform="translate(5744.00 4448.00) rotate(49) scale(624.00 80.00)"><ellipse cx="0" cy="0" rx="1" ry="1" fill="rgb(119,104,94)" fill-opacity="0.502"/></g>
<circle cx="4800.00" cy="2928.00" r="320.00" fill="rgb(83,25,22)" fill-opacity="0.502"/>
<circle cx="2688.00" cy="3840.00" r="496.00" fill="rgb(15,118,255)" fill-opacity="0.502"/>
<g transform="translate(6336.00 1744.00) rotate(171) scale(304.00 480.00)"><ellipse cx="0" cy="0" rx="1" ry="1" fill="rgb(4,129,255)" fill-opacity="0.502"/></g>
<circle cx="5312.00" cy="992.00" r="640.00" fill="rgb(7,0,0)" fill-opacity="0.502"/>
<g transform="translate(6432.00 2672.00) rotate(78) scale(48.00 752.00)"><ellipse cx="0" cy="0" rx="1" ry="1" fill="rgb(7,0,36)" fill-opacity="0.502"/></g>
<polygon points="3464.38,1087.95 3832.58,931.66 4007.62,1344.05 3639.42,1500.34" fill="rgb(158,54,42)" fill-opacity="0.502"/>
<polygon points="3653.35,3062.65 3435.51,2652.96 3562.65,2585.35 3780.49,2995.04" fill="rgb(96,17,3)" fill-opacity="0.502"/>
<circle cx="672.00" cy="1056.00" r="432.00" fill="rgb(0,0,0)" fill-opacity="0.502"/>
<g transform="translate(2080.00 1056.00) rotate(144) scale(592.00 256.00)"><ellipse cx="0" cy="0" rx="1" ry="1" fill="rgb(3,117,255)" fill-opacity="0.502"/></g>
<circle cx="7760.00" cy="176.00" r="688.00" fill="rgb(0,0,0)" fill-opacity="0.502"/>
<g transform="translate(4208.00 2320.00) rotate(326) scale(208.00 256.00)"><ellipse cx="0" cy="0" rx="1" ry="1" fill="rgb(237,106,81)" fill-opacity="0.502"/></g>
<circle cx="3776.00" cy="576.00" r="224.00" fill="rgb(3,0,0)" fill-opacity="0.502"/>
<polygon points="2661.10,4177.68 3000.49,3773.21 3306.90,4030.32 2967.51,4434.79" fill="rgb(59,117,251)" fill-opacity="0.502"/>
<g transform="translate(3232.00 0.00) rotate(252) scale(448.00 560.00)"><ellipse cx="0" cy="0" rx="1" ry="1" fill="rgb(8,6,54)" fill-opacity="0.502"/></g>
<polygon points="2404.99,3309.63 2420.25,3388.16 2059.01,3458.37 2043.75,3379.84" fill="rgb(0,0,16)" fill-opacity="0.502"/>
<polygon points="2210.83,4010.99 2097.87,3429.86 2349.17,3381.01 2462.13,3962.14" fill="rgb(0,99,255)" fill-opacity="0.502"/>
<polygon points="3180.97,574.43 3442.56,338.89 3571.03,481.57 3309.44,717.11" fill="rgb(2,128,255)" fill-opacity="0.502"/>
<polygon points="3917.84,3752.67 3862.98,3785.63 3698.16,3511.33 3753.02,3478.37" fill="rgb(39,9,27)" fill-opacity="0.502"/>
<circle cx="6512.00" cy="2864.00" r="208.00" fill="rgb(14,144,255)" fill-opacity="0.502"/>
<polygon points="5956.04,1825.32 6972.41,1700.52 7067.96,2478.68 6051.59,2603.48" fill="rgb(3,126,255)" fill-opacity="0.502"/>
<circle cx="7760.00" cy="1200.00" r="704.00" fill="rgb(0,0,0)" fill-opacity="0.502"/>
<g transform="translate(3312.00 2720.00) rotate(0) scale(128.00 432.00)"><ellipse cx="0" cy="0" rx="1" ry="1" fill="rgb(9,135,255)" fill-opacity="0.502"/></g>
<circle cx="4272.00" cy="1632.00" r="352.00" fill="rgb(9,7,1)" fill-opacity="0.502"/>
<circle cx="6080.00" cy="496.00" r="304.00" fill="rgb(5,117,255)" fill-opacity="0.502"/>
<g transform="translate(2144.00 1552.00) rotate(129) scale(528.00 416.00)"><ellipse cx="0" cy="0" rx="1" ry="1" fill="rgb(3,119,255)" fill-opacity="0.502"/></g>
<g transform="translate(688.00 832.00) rotate(90) scale(8176.00 416.00)"><ellipse cx="0" cy="0" rx="1" ry="1" fill="rgb(0,0,0)" fill-opacity="0.502"/></g>
<circle cx="4032.00" cy="2816.00" r="224.00" fill="rgb(88,30,15)" fill-opacity="0.502"/>
<circle cx="1456.00" cy="3072.00" r="368.00" fill="rgb(3,114,255)" fill-opacity="0.502"/>
<g transform="translate(4560.00 544.00) rotate(176) scale(992.00 528.00)"><ellipse cx="0" cy="0" rx="1" ry="1" fill="rgb(6,0,0)" fill-opacity="0.502"/></g>
<g transform="translate(6160.00 3344.00) rotate(69) scale(560.00 336.00)"><ellipse cx="0" cy="0" rx="1" ry="1" fill="rgb(0,0,0)" fill-opacity="0.502"/></g>
<g transform="translate(6528.00 816.00) rotate(181) scale(544.00 240.00)"><ellipse cx="0" cy="0" rx="1" ry="1" fill="rgb(4,118,255)" fill-opacity="0.502"/></g>
<g transform="translate(4432.00 3376.00) rotate(138) scale(608.00 144.00)"><ellipse cx="0" cy="0" rx="1" ry="1" fill="rgb(68,19,11)" fill-opacity="0.502"/></g>
<g transform="translate(2784.00 1264.00) rotate(348) scale(64.00 832.00)"><ellipse cx="0" cy="0" rx="1" ry="1" fill="rgb(8,22,114)" fill-opacity="0.502"/></g>
<g transform="translate(4272.00 1584.00) rotate(53) scale(112.00 128.00)"><ellipse cx="0" cy="0" rx="1" ry="1" fill="rgb(91,74,73)" fill-opacity="0.502"/></g>
<circle cx="3248.00" cy="2000.00" r="256.00" fill="rgb(0,0,0)" fill-opacity="0.502"/>
<circle cx="1264.00" cy="0.00" r="528.00" fill="rgb(2,0,0)" fill-opacity="0.502"/>
<polygon points="1724.41,4752.71 1441.85,3619.41 1907.59,3503.29 2190.15,4636.59" fill="rgb(3,97,255)" fill-opacity="0.502"/>
<circle cx="272.00" cy="3184.00" r="832.00" fill="rgb(0,0,0)" fill-opacity="0.502"/>
<circle cx="2208.00" cy="2400.00" r="352.00" fill="rgb(4,120,254)" fill-opacity="0.502"/>
<circle cx="5424.00" cy="0.00" r="112.00" fill="rgb(0,0,11)" fill-opacity="0.502"/>
<polygon points="1937.67,2814.20 3015.08,2662.78 3086.33,3169.80 2008.92,3321.22" fill="rgb(6,117,255)" fill-opacity="0.502"/>
<polygon points="1556.63,3918.87 1876.63,4473.13 1419.37,4737.13 1099.37,4182.87" fill="rgb(0,87,216)" fill-opacity="0.502"/>
<circle cx="4688.00" cy="1936.00" r="176.00" fill="rgb(174,59,46)" fill-opacity="0.502"/>
<g transform="translate(5952.00 48.00) rotate(188) scale(336.00 512.00)"><ellipse cx="0" cy="0" rx="1" ry="1" fill="rgb(4,115,255)" fill-opacity="0.502"/></g>
<polygon points="1442.20,1435.25 1107.02,1411.81 1133.80,1028.75 1468.98,1052.19" fill="rgb(1,113,255)" fill-opacity="0.502"/>
<circle cx="3264.00" cy="3696.00" r="112.00" fill="rgb(0,41,143)" fill-opacity="0.502"/>
<g transform="translate(2320.00 1136.00) rotate(238) scale(432.00 384.00)"><ellipse cx="0" cy="0" rx="1" ry="1" fill="rgb(3,118,255)" fill-opacity="0.502"/></g>
<circle cx="7968.00" cy="2768.00" r="896.00" fill="rgb(0,0,0)" fill-opacity="0.502"/>
<g transform="translate(3840.00 48.00) rotate(334) scale(144.00 992.00)"><ellipse cx="0" cy="0" rx="1" ry="1" fill="rgb(7,0,0)" fill-opacity="0.502"/></g>
<polygon points="1515.70,4040.93 1241.80,4129.93 1108.30,3719.07 1382.20,3630.07" fill="rgb(0,92,255)" fill-opacity="0.502"/>
<circle cx="6560.00" cy="4208.00" r="720.00" fill="rgb(12,1,0)" fill-opacity="0.502"/>
<g transform="translate(1344.00 3968.00) rotate(15) scale(224.00 416.00)"><ellipse cx="0" cy="0" rx="1" ry="1" fill="rgb(3,91,236)" fill-opacity="0.502"/></g>
<circle cx="1344.00" cy="1936.00" r="256.00" fill="rgb(4,111,255)" fill-opacity="0.502"/>
<polygon points="3934.51,4396.45 3221.71,4759.65 3105.49,4531.55 3818.29,4168.35" fill="rgb(4,0,0)" fill-opacity="0.502"/>
<circle cx="6960.00" cy="3392.00" r="176.00" fill="rgb(11,139,255)" fill-opacity="0.502"/>
<g transform="translate(272.00 4192.00) rotate(147) scale(896.00 672.00)"><ellipse cx="0" cy="0" rx="1" ry="1" fill="rgb(0,0,0)" fill-opacity="0.502"/></g>
<circle cx="320.00" cy="1552.00" r="784.00" fill="rgb(0,0,0)" fill-opacity="0.502"/>
<polygon points="3622.98,3172.46 3701.41,3051.69 3849.02,3147.54 3770.59,3268.31" fill="rgb(223,84,81)" fill-opacity="0.502"/>
<g transform="translate(2992.00 2272.00) rotate(345) scale(96.00 336.00)"><ellipse cx="0" cy="0" rx="1" ry="1" fill="rgb(12,51,193)" fill-opacity="0.502"/></g>
<polygon points="1860.34,2040.05 1897.85,2128.42 1691.66,2215.95 1654.15,2127.58" fill="rgb(7,9,30)" fill-opacity="0.502"/>
<circle cx="1264.00" cy="2352.00" r="176.00" fill="rgb(6,108,254)" fill-opacity="0.502"/>
<g transform="translate(4560.00 1184.00) rotate(21) scale(464.00 96.00)"><ellipse cx="0" cy="0" rx="1" ry="1" fill="rgb(70,11,11)" fill-opacity="0.502"/></g>
<circle cx="3792.00" cy="2752.00" r="144.00" fill="rgb(184,86,61)" fill-opacity="0.502"/>
<g transform="translate(2512.00 4368.00) rotate(113) scale(240.00 192.00)"><ellipse cx="0" cy="0" rx="1" ry="1" fill="rgb(1,91,255)" fill-opacity="0.502"/></g>
<g transform="translate(5920.00 176.00) rotate(236) scale(560.00 304.00)"><ellipse cx="0" cy="0" rx="1" ry="1" fill="rgb(5,114,250)" fill-opacity="0.502"/></g>
<g transform="translate(7296.00 3344.00) rotate(72) scale(208.00 208.00)"><ellipse cx="0" cy="0" rx="1" ry="1" fill="rgb(0,0,0)" fill-opacity="0.502"/></g>
<polygon points="4385.52,2986.99 4219.23,2553.81 4398.48,2485.01 4564.77,2918.19" fill="rgb(190,76,53)" fill-opacity="0.502"/>
<circle cx="4672.00" cy="4592.00" r="288.00" fill="rgb(12,0,0)" fill-opacity="0.502"/>
<g transform="translate(6560.00 2720.00) rotate(82) scale(64.00 528.00)"><ellipse cx="0" cy="0" rx="1" ry="1" fill="rgb(11,116,255)" fill-opacity="0.502"/></g>
<circle cx="2848.00" cy="3264.00" r="80.00" fill="rgb(2,0,88)" fill-opacity="0.502"/>
<g transform="translate(2256.00 400.00) rotate(194) scale(576.00 192.00)"><ellipse cx="0" cy="0" rx="1" ry="1" fill="rgb(8,2,40)" fill-opacity="0.502"/></g>
<polygon points="5825.22,2297.86 6320.98,3230.26 5854.78,3478.14 5359.02,2545.74" fill="rgb(4,0,0)" fill-opacity="0.502"/>
<g transform="translate(5008.00 2192.00) rotate(181) scale(112.00 624.00)"><ellipse cx="0" cy="0" rx="1" ry="1" fill="rgb(73,14,11)" fill-opacity="0.502"/></g>
<g transform="translate(6656.00 352.00) rotate(305) scale(240.00 256.00)"><ellipse cx="0" cy="0" rx="1" ry="1" fill="rgb(3,107,255)" fill-opacity="0.502"/></g>
<circle cx="6320.00" cy="1888.00" r="384.00" fill="rgb(8,128,253)" fill-opacity="0.502"/>
<polygon points="2623.13,4572.05 3627.29,4484.20 3632.87,4547.95 2628.71,4635.80" fill="rgb(0,0,0)" fill-opacity="0.502"/>
<polygon points="1296.97,2674.68 1093.32,2471.03 1263.03,2301.32 1466.68,2504.97" fill="rgb(2,121,255)" fill-opacity="0.502"/>
<g transform="translate(1712.00 656.00) rotate(68) scale(176.00 592.00)"><ellipse cx="0" cy="0" rx="1" ry="1" fill="rgb(6,5,37)" fill-opacity="0.502"/></g>
<g transform="translate(3584.00 3056.00) rotate(333) scale(416.00 48.00)"><ellipse cx="0" cy="0" rx="1" ry="1" fill="rgb(33,0,24)" fill-opacity="0.502"/></g>
<circle cx="6720.00" cy="1680.00" r="368.00" fill="rgb(2,113,250)" fill-opacity="0.502"/>
<polygon points="3225.03,1189.96 2796.60,1058.97 2950.97,554.04 3379.40,685.03" fill="rgb(5,126,255)" fill-opacity="0.502"/>
<polygon points="5217.85,3084.33 5167.63,2366.08 5774.15,2323.67 5824.37,3041.92" fill="rgb(6,0,0)" fill-opacity="0.502"/>
<circle cx="3312.00" cy="1600.00" r="112.00" fill="rgb(43,0,0)" fill-opacity="0.502"/>
<circle cx="6288.00" cy="2272.00" r="336.00" fill="rgb(7,134,253)" fill-opacity="0.502"/>
<polygon points="2626.02,3100.10 2362.81,2044.41 2781.98,1939.90 3045.19,2995.59" fill="rgb(5,127,255)" fill-opacity="0.502"/>
<polygon points="3306.06,1472.24 3462.57,1505.51 3445.94,1583.76 3289.43,1550.49" fill="rgb(171,69,36)" fill-opacity="0.502"/>
<g transform="translate(7456.00 2144.00) rotate(42) scale(288.00 448.00)"><ellipse cx="0" cy="0" rx="1" ry="1" fill="rgb(0,0,0)" fill-opacity="0.502"/></g>
<polygon points="5649.69,4237.85 5408.11,3879.71 6270.31,3298.15 6511.89,3656.29" fill="rgb(7,0,0)" fill-opacity="0.502"/>
<polygon points="5814.72,1996.36 5953.28,2076.36 5801.28,2339.64 5662.72,2259.64" fill="rgb(0,0,0)" fill-opacity="0.502"/>
<circle cx="7024.00" cy="3568.00" r="64.00" fill="rgb(25,180,255)" fill-opacity="0.502"/>
<polygon points="1494.56,3563.03 1084.88,3635.27 1065.44,3524.97 1475.12,3452.73" fill="rgb(0,0,0)" fill-opacity="0.502"/>
<polygon points="4081.82,2608.01 4194.68,2763.35 4078.18,2847.99 3965.32,2692.65" fill="rgb(13,0,0)" fill-opacity="0.502"/>
<g transform="translate(1456.00 1888.00) rotate(287) scale(288.00 160.00)"><ellipse cx="0" cy="0" rx="1" ry="1" fill="rgb(2,105,255)" fill-opacity="0.502"/></g>
<g transform="translate(2000.00 3424.00) rotate(170) scale(1376.00 48.00)"><ellipse cx="0" cy="0" rx="1" ry="1" fill="rgb(1,0,41)" fill-opacity="0.502"/></g>
<circle cx="6928.00" cy="2896.00" r="160.00" fill="rgb(2,136,255)" fill-opacity="0.502"/>
<polygon points="3803.27,3559.47 4006.76,3233.82 4196.73,3352.53 3993.24,3678.18" fill="rgb(191,74,58)" fill-opacity="0.502"/>
<circle cx="3568.00" cy="2896.00" r="144.00" fill="rgb(109,25,12)" fill-opacity="0.502"/>
<polygon points="4002.19,752.30 4062.07,1034.01 3357.81,1183.70 3297.93,901.99" fill="rgb(41,0,0)" fill-opacity="0.502"/>
<circle cx="4000.00" cy="2896.00" r="112.00" fill="rgb(178,60,51)" fill-opacity="0.502"/>
<polygon points="6655.51,3161.76 6416.42,3140.84 6448.49,2774.24 6687.58,2795.16" fill="rgb(8,147,255)" fill-opacity="0.502"/>
<polygon points="5861.53,1612.17 5976.48,1858.69 5802.47,1939.83 5687.52,1693.31" fill="rgb(134,36,29)" fill-opacity="0.502"/>
<g transform="translate(5776.00 1248.00) rotate(0) scale(256.00 432.00)"><ellipse cx="0" cy="0" rx="1" ry="1" fill="rgb(10,0,0)" fill-opacity="0.502"/></g>
<g transform="translate(4768.00 2112.00) rotate(81) scale(512.00 112.00)"><ellipse cx="0" cy="0" rx="1" ry="1" fill="rgb(142,42,30)" fill-opacity="0.502"/></g>
<g transform="translate(1616.00 1312.00) rotate(349) scale(16.00 432.00)"><ellipse cx="0" cy="0" rx="1" ry="1" fill="rgb(17,69,167)" fill-opacity="0.502"/></g>
<polygon points="1392.00,3536.00 2000.00,3536.00 2000.00,4128.00 1392.00,4128.00" fill="rgb(5,97,248)" fill-opacity="0.502"/>
<circle cx="3872.00" cy="1856.00" r="224.00" fill="rgb(0,0,0)" fill-opacity="0.502"/>
<g transform="translate(784.00 4384.00) rotate(172) scale(336.00 3360.00)"><ellipse cx="0" cy="0" rx="1" ry="1" fill="rgb(0,0,0)" fill-opacity="0.502"/></g>
<g transform="translate(2832.00 3680.00) rotate(203) scale(400.00 400.00)"><ellipse cx="0" cy="0" rx="1" ry="1" fill="rgb(14,120,255)" fill-opacity="0.502"/></g>
<circle cx="3376.00" cy="4176.00" r="80.00" fill="rgb(0,22,109)" fill-opacity="0.502"/>
<circle cx="7888.00" cy="16.00" r="816.00" fill="rgb(0,0,0)" fill-opacity="0.502"/>
<g transform="translate(5504.00 1664.00) rotate(210) scale(32.00 128.00)"><ellipse cx="0" cy="0" rx="1" ry="1" fill="rgb(206,101,97)" fill-opacity="0.502"/></g>
<circle cx="4432.00" cy="3712.00" r="192.00" fill="rgb(10,0,0)" fill-opacity="0.502"/>
<circle cx="1792.00" cy="3264.00" r="144.00" fill="rgb(1,105,255)" fill-opacity="0.502"/>
<circle cx="5344.00" cy="112.00" r="64.00" fill="rgb(20,98,228)" fill-opacity="0.502"/>
<circle cx="6608.00" cy="64.00" r="240.00" fill="rgb(4,101,255)" fill-opacity="0.502"/>
<polygon points="3603.87,2355.25 4259.19,2814.11 4204.13,2892.75 3548.81,2433.89" fill="rgb(32,3,0)" fill-opacity="0.502"/>
<polygon points="4567.09,1486.29 4580.74,1597.46 4024.91,1665.71 4011.26,1554.54" fill="rgb(7,0,0)" fill-opacity="0.502"/>
<g transform="translate(5040.00 1216.00) rotate(214) scale(272.00 464.00)"><ellipse cx="0" cy="0" rx="1" ry="1" fill="rgb(13,0,0)" fill-opacity="0.502"/></g>
<g transform="translate(6688.00 3264.00) rotate(137) scale(144.00 256.00)"><ellipse cx="0" cy="0" rx="1" ry="1" fill="rgb(18,149,255)" fill-opacity="0.502"/></g>
<polygon points="1770.14,2202.92 1872.03,2455.11 1797.86,2485.08 1695.97,2232.89" fill="rgb(2,37,110)" fill-opacity="0.502"/>
<polygon points="3658.38,1490.27 4204.03,1364.29 4261.62,1613.73 3715.97,1739.71" fill="rgb(5,0,0)" fill-opacity="0.502"/>
<circle cx="1360.00" cy="1008.00" r="96.00" fill="rgb(1,86,255)" fill-opacity="0.502"/>
<circle cx="5440.00" cy="4560.00" r="256.00" fill="rgb(7,0,0)" fill-opacity="0.502"/>
<g transform="translate(2464.00 1488.00) rotate(338) scale(304.00 432.00)"><ellipse cx="0" cy="0" rx="1" ry="1" fill="rgb(4,121,255)" fill-opacity="0.502"/></g>
<g transform="translate(6432.00 2080.00) rotate(75) scale(528.00 112.00)"><ellipse cx="0" cy="0" rx="1" ry="1" fill="rgb(6,150,254)" fill-opacity="0.502"/></g>
<polygon points="5564.16,1584.61 6016.23,1344.24 6083.84,1471.39 5631.77,1711.76" fill="rgb(28,2,0)" fill-opacity="0.502"/>
<polygon points="4177.43,1702.49 4194.06,1624.24 4350.57,1657.51 4333.94,1735.76" fill="rgb(153,145,152)" fill-opacity="0.502"/>
<circle cx="6432.00" cy="384.00" r="144.00" fill="rgb(2,78,204)" fill-opacity="0.502"/>
<polygon points="1880.42,2132.58 1868.81,2086.00 2039.58,2043.42 2051.19,2090.00" fill="rgb(0,7,43)" fill-opacity="0.502"/>
<g transform="translate(7744.00 3888.00) rotate(91) scale(2656.00 672.00)"><ellipse cx="0" cy="0" rx="1" ry="1" fill="rgb(0,0,0)" fill-opacity="0.502"/></g>
<circle cx="6256.00" cy="1328.00" r="112.00" fill="rgb(8,119,255)" fill-opacity="0.502"/>
<g transform="translate(3488.00 3616.00) rotate(347) scale(192.00 416.00)"><ellipse cx="0" cy="0" rx="1" ry="1" fill="rgb(8,139,255)" fill-opacity="0.502"/></g>
<circle cx="4352.00" cy="2112.00" r="112.00" fill="rgb(233,115,86)" fill-opacity="0.502"/>
<polygon points="5220.56,3409.87 5763.81,3438.35 5755.44,3598.13 5212.19,3569.65" fill="rgb(133,47,34)" fill-opacity="0.502"/>
<g transform="translate(5184.00 512.00) rotate(190) scale(512.00 368.00)"><ellipse cx="0" cy="0" rx="1" ry="1" fill="rgb(6,0,0)" fill-opacity="0.502"/></g>
<polygon points="2830.91,4464.58 2849.34,3936.90 3265.09,3951.42 3246.66,4479.10" fill="rgb(46,112,252)" fill-opacity="0.502"/>
<circle cx="4368.00" cy="1792.00" r="160.00" fill="rgb(0,0,0)" fill-opacity="0.502"/>
<circle cx="1216.00" cy="3360.00" r="128.00" fill="rgb(6,93,255)" fill-opacity="0.502"/>
<circle cx="3408.00" cy="1760.00" r="192.00" fill="rgb(0,0,0)" fill-opacity="0.502"/>
<circle cx="1616.00" cy="3152.00" r="272.00" fill="rgb(3,109,255)" fill-opacity="0.502"/>
<g transform="translate(1344.00 4176.00) rotate(86) scale(272.00 224.00)"><ellipse cx="0" cy="0" rx="1" ry="1" fill="rgb(0,88,218)" fill-opacity="0.502"/></g>
<circle cx="6128.00" cy="2528.00" r="144.00" fill="rgb(8,124,255)" fill-opacity="0.502"/>
<g transform="translate(6912.00 1312.00) rotate(222) scale(160.00 192.00)"><ellipse cx="0" cy="0" rx="1" ry="1" fill="rgb(4,126,255)" fill-opacity="0.502"/></g>
<polygon points="4266.02,3628.13 3895.11,3727.51 3861.98,3603.87 4232.89,3504.49" fill="rgb(119,34,24)" fill-opacity="0.502"/>
<polygon points="1586.18,832.62 1132.33,676.35 1293.82,207.38 1747.67,363.65" fill="rgb(9,1,24)" fill-opacity="0.502"/>
<g transform="translate(2528.00 2704.00) rotate(113) scale(624.00 400.00)"><ellipse cx="0" cy="0" rx="1" ry="1" fill="rgb(3,124,253)" fill-opacity="0.502"/></g>
<polygon points="4452.57,4541.29 4335.62,4158.77 4427.43,4130.71 4544.38,4513.23" fill="rgb(31,7,0)" fill-opacity="0.502"/>
<circle cx="5584.00" cy="1920.00" r="96.00" fill="rgb(0,0,0)" fill-opacity="0.502"/>
<circle cx="3616.00" cy="2704.00" r="112.00" fill="rgb(179,66,58)" fill-opacity="0.502"/>
<polygon points="5238.27,2322.36 5183.32,2039.65 5481.73,1981.64 5536.68,2264.35" fill="rgb(0,0,0)" fill-opacity="0.502"/>
<circle cx="1376.00" cy="2800.00" r="272.00" fill="rgb(1,113,255)" fill-opacity="0.502"/>
<polygon points="6978.02,2585.78 6802.45,2598.06 6797.98,2534.22 6973.55,2521.94" fill="rgb(0,2,54)" fill-opacity="0.502"/>
<polygon points="2776.00,2360.00 2776.00,1960.00 2872.00,1960.00 2872.00,2360.00" fill="rgb(4,116,255)" fill-opacity="0.502"/>
<circle cx="6912.00" cy="3104.00" r="176.00" fill="rgb(1,134,255)" fill-opacity="0.502"/>
<polygon points="4889.91,4609.28 4294.09,4265.28 4374.09,4126.72 4969.91,4470.72" fill="rgb(23,2,0)" fill-opacity="0.502"/>
<circle cx="7680.00" cy="928.00" r="624.00" fill="rgb(0,0,0)" fill-opacity="0.502"/>
<polygon points="4196.72,3063.22 4303.85,2884.93 4523.28,3016.78 4416.15,3195.07" fill="rgb(103,32,25)" fill-opacity="0.502"/>
<circle cx="4144.00" cy="1952.00" r="128.00" fill="rgb(0,0,0)" fill-opacity="0.502"/>
<polygon points="3421.26,2866.43 3103.64,2827.43 3138.74,2541.57 3456.36,2580.57" fill="rgb(12,123,255)" fill-opacity="0.502"/>
<g transform="translate(6864.00 2896.00) rotate(327) scale(208.00 256.00)"><ellipse cx="0" cy="0" rx="1" ry="1" fill="rgb(2,128,254)" fill-opacity="0.502"/></g>
<circle cx="3472.00" cy="2368.00" r="112.00" fill="rgb(182,90,77)" fill-opacity="0.502"/>
<polygon points="1274.90,1690.46 1114.35,1272.22 1413.10,1157.54 1573.65,1575.78" fill="rgb(4,109,255)" fill-opacity="0.502"/>
<circle cx="2752.00" cy="256.00" r="320.00" fill="rgb(8,4,30)" fill-opacity="0.502"/>
<polygon points="3383.40,1437.68 4005.00,1107.17 4072.60,1234.32 3451.00,1564.83" fill="rgb(169,63,47)" fill-opacity="0.502"/>
<polygon points="1438.64,2922.59 1100.78,2360.29 1265.36,2261.41 1603.22,2823.71" fill="rgb(4,111,255)" fill-opacity="0.502"/>
<polygon points="2953.67,528.97 3370.72,732.37 3174.33,1135.03 2757.28,931.63" fill="rgb(3,123,255)" fill-opacity="0.502"/>
<polygon points="3839.50,2318.42 3736.05,2460.81 3632.50,2385.58 3735.95,2243.19" fill="rgb(56,28,19)" fill-opacity="0.502"/>
<circle cx="1232.00" cy="1184.00" r="144.00" fill="rgb(1,109,255)" fill-opacity="0.502"/>
<polygon points="6557.39,1133.43 5880.66,1327.47 5858.61,1250.57 6535.34,1056.53" fill="rgb(2,0,20)" fill-opacity="0.502"/>
<polygon points="1572.61,1030.21 1791.29,819.03 2091.39,1129.79 1872.71,1340.97" fill="rgb(0,112,255)" fill-opacity="0.502"/>
<circle cx="4608.00" cy="4176.00" r="96.00" fill="rgb(209,89,65)" fill-opacity="0.502"/>
<g transform="translate(3872.00 3264.00) rotate(242) scale(64.00 256.00)"><ellipse cx="0" cy="0" rx="1" ry="1" fill="rgb(64,8,5)" fill-opacity="0.502"/></g>
<g transform="translate(4640.00 2416.00) rotate(197) scale(160.00 432.00)"><ellipse cx="0" cy="0" rx="1" ry="1" fill="rgb(149,41,30)" fill-opacity="0.502"/></g>
<g transform="translate(5344.00 4544.00) rotate(287) scale(208.00 512.00)"><ellipse cx="0" cy="0" rx="1" ry="1" fill="rgb(16,3,0)" fill-opacity="0.502"/></g>
<circle cx="4816.00" cy="3968.00" r="80.00" fill="rgb(173,61,50)" fill-opacity="0.502"/>
<polygon points="5045.10,3226.56 5265.72,3411.68 4874.90,3877.44 4654.28,3692.32" fill="rgb(3,0,0)" fill-opacity="0.502"/>
<g transform="translate(4256.00 3824.00) rotate(72) scale(112.00 672.00)"><ellipse cx="0" cy="0" rx="1" ry="1" fill="rgb(8,0,0)" fill-opacity="0.502"/></g>
<polygon points="3921.56,781.53 3819.87,981.12 3406.44,770.47 3508.13,570.88" fill="rgb(5,0,0)" fill-opacity="0.502"/>
<polygon points="5577.47,3455.89 5393.93,3193.76 5590.53,3056.11 5774.07,3318.24" fill="rgb(87,17,13)" fill-opacity="0.502"/>
<polygon points="3031.10,388.04 3049.52,36.52 3496.90,59.96 3478.48,411.48" fill="rgb(7,13,49)" fill-opacity="0.502"/>
<g transform="translate(6000.00 4592.00) rotate(162) scale(160.00 80.00)"><ellipse cx="0" cy="0" rx="1" ry="1" fill="rgb(1,0,0)" fill-opacity="0.502"/></g>
<polygon points="5096.50,3845.44 5129.65,3575.46 5415.50,3610.56 5382.35,3880.54" fill="rgb(173,62,44)" fill-opacity="0.502"/>
<polygon points="3881.06,2239.57 3878.55,2287.50 3590.94,2272.43 3593.45,2224.50" fill="rgb(240,120,96)" fill-opacity="0.502"/>
<g transform="translate(4592.00 2144.00) rotate(256) scale(256.00 144.00)"><ellipse cx="0" cy="0" rx="1" ry="1" fill="rgb(183,63,46)" fill-opacity="0.502"/></g>
<polygon points="3934.70,2965.87 4332.51,2924.06 4369.30,3274.13 3971.49,3315.94" fill="rgb(144,44,32)" fill-opacity="0.502"/>
<polygon points="5742.52,2118.20 5622.49,2246.92 5505.48,2137.80 5625.51,2009.08" fill="rgb(176,74,63)" fill-opacity="0.502"/>
<polygon points="5297.61,3904.94 5329.10,3941.17 4894.39,4319.06 4862.90,4282.83" fill="rgb(215,106,96)" fill-opacity="0.502"/>
<circle cx="4704.00" cy="464.00" r="496.00" fill="rgb(8,0,0)" fill-opacity="0.502"/>
<circle cx="3168.00" cy="2224.00" r="112.00" fill="rgb(0,0,0)" fill-opacity="0.502"/>
<circle cx="3232.00" cy="3520.00" r="80.00" fill="rgb(3,26,132)" fill-opacity="0.502"/>
<circle cx="7584.00" cy="3616.00" r="512.00" fill="rgb(0,0,0)" fill-opacity="0.502"/>
<polygon points="6965.92,561.06 6859.47,60.25 6922.08,46.94 7028.53,547.75" fill="rgb(0,0,40)" fill-opacity="0.502"/>
<polygon points="4898.33,3519.26 4776.70,3917.08 4317.67,3776.74 4439.30,3378.92" fill="rgb(11,0,0)" fill-opacity="0.502"/>
<polygon points="4997.27,1229.70 4822.68,1416.92 4506.73,1122.30 4681.32,935.08" fill="rgb(31,2,2)" fill-opacity="0.502"/>
<polygon points="3896.00,3048.00 3896.00,3192.00 3768.00,3192.00 3768.00,3048.00" fill="rgb(211,83,77)" fill-opacity="0.502"/>
<g transform="translate(1552.00 0.00) rotate(94) scale(272.00 576.00)"><ellipse cx="0" cy="0" rx="1" ry="1" fill="rgb(5,0,2)" fill-opacity="0.502"/></g>
<polygon points="4779.74,3051.15 4990.82,3352.60 4676.26,3572.85 4465.18,3271.40" fill="rgb(47,11,17)" fill-opacity="0.502"/>
<g transform="translate(7408.00 1760.00) rotate(52) scale(224.00 368.00)"><ellipse cx="0" cy="0" rx="1" ry="1" fill="rgb(0,0,0)" fill-opacity="0.502"/></g>
<polygon points="5444.69,3830.96 5241.04,3627.31 5467.31,3401.04 5670.96,3604.69" fill="rgb(152,53,39)" fill-opacity="0.502"/>
<polygon points="3365.62,3870.59 3287.37,3887.23 3114.38,3073.41 3192.63,3056.77" fill="rgb(5,26,113)" fill-opacity="0.502"/>
<polygon points="3182.35,1698.54 3459.19,1777.92 3313.65,2285.46 3036.81,2206.08" fill="rgb(0,0,0)" fill-opacity="0.502"/>
<circle cx="3296.00" cy="2368.00" r="80.00" fill="rgb(36,150,255)" fill-opacity="0.502"/>
<polygon points="6440.00,1368.00 6440.00,1720.00 6200.00,1720.00 6200.00,1368.00" fill="rgb(3,135,255)" fill-opacity="0.502"/>
<g transform="translate(864.00 2400.00) rotate(93) scale(448.00 240.00)"><ellipse cx="0" cy="0" rx="1" ry="1" fill="rgb(0,0,0)" fill-opacity="0.502"/></g>
<polygon points="6533.23,973.91 6506.99,222.37 6858.77,210.09 6885.01,961.63" fill="rgb(4,120,255)" fill-opacity="0.502"/>
<circle cx="6576.00" cy="1152.00" r="112.00" fill="rgb(10,19,92)" fill-opacity="0.502"/>
<polygon points="6608.86,1122.79 6607.19,1026.80 6927.14,1021.21 6928.81,1117.20" fill="rgb(3,0,56)" fill-opacity="0.502"/>
<g transform="translate(1472.00 3152.00) rotate(318) scale(368.00 256.00)"><ellipse cx="0" cy="0" rx="1" ry="1" fill="rgb(3,106,254)" fill-opacity="0.502"/></g>
<polygon points="6855.30,2389.96 6557.58,2173.65 6792.70,1850.04 7090.42,2066.35" fill="rgb(4,118,255)" fill-opacity="0.502"/>
<g transform="translate(1136.00 2272.00) rotate(74) scale(32.00 640.00)"><ellipse cx="0" cy="0" rx="1" ry="1" fill="rgb(1,3,23)" fill-opacity="0.502"/></g>
<g transform="translate(3440.00 2448.00) rotate(183) scale(16.00 192.00)"><ellipse cx="0" cy="0" rx="1" ry="1" fill="rgb(112,61,60)" fill-opacity="0.502"/></g>
<circle cx="1296.00" cy="2384.00" r="144.00" fill="rgb(9,109,253)" fill-opacity="0.502"/>
<g transform="translate(5008.00 4304.00) rotate(216) scale(96.00 16.00)"><ellipse cx="0" cy="0" rx="1" ry="1" fill="rgb(121,82,76)" fill-opacity="0.502"/></g>
<polygon points="4519.58,4135.84 4716.00,3925.21 4856.42,4056.16 4660.00,4266.79" fill="rgb(191,74,56)" fill-opacity="0.502"/>
<polygon points="3395.09,4401.13 3325.63,4007.21 3372.91,3998.87 3442.37,4392.79" fill="rgb(0,3,68)" fill-opacity="0.502"/>
<polygon points="3333.14,1665.30 3269.29,1660.83 3322.86,894.70 3386.71,899.17" fill="rgb(30,6,26)" fill-opacity="0.502"/>
<polygon points="1832.15,2866.07 1739.00,2427.86 1879.85,2397.93 1973.00,2836.14" fill="rgb(7,55,156)" fill-opacity="0.502"/>
<polygon points="2552.41,607.71 2672.29,904.41 2375.59,1024.29 2255.71,727.59" fill="rgb(6,105,253)" fill-opacity="0.502"/>
<circle cx="3856.00" cy="1360.00" r="80.00" fill="rgb(163,66,53)" fill-opacity="0.502"/>
<circle cx="5664.00" cy="1216.00" r="352.00" fill="rgb(8,0,0)" fill-opacity="0.502"/>
<polygon points="4149.61,2677.60 3936.18,2091.23 4026.39,2058.40 4239.82,2644.77" fill="rgb(176,65,48)" fill-opacity="0.502"/>
<circle cx="5312.00" cy="3152.00" r="176.00" fill="rgb(11,0,0)" fill-opacity="0.502"/>
<polygon points="6644.22,1870.59 6589.16,1522.93 6699.78,1505.41 6754.84,1853.07" fill="rgb(3,83,221)" fill-opacity="0.502"/>
<polygon points="4405.06,1724.67 4285.25,1376.72 4602.94,1267.33 4722.75,1615.28" fill="rgb(5,0,0)" fill-opacity="0.502"/>
<circle cx="112.00" cy="2080.00" r="992.00" fill="rgb(0,0,0)" fill-opacity="0.502"/>
<g transform="translate(6800.00 4224.00) rotate(277) scale(704.00 320.00)"><ellipse cx="0" cy="0" rx="1" ry="1" fill="rgb(13,0,0)" fill-opacity="0.502"/></g>
<g transform="translate(3760.00 1632.00) rotate(284) scale(128.00 240.00)"><ellipse cx="0" cy="0" rx="1" ry="1" fill="rgb(8,0,0)" fill-opacity="0.502"/></g>
<circle cx="6000.00" cy="3808.00" r="384.00" fill="rgb(13,2,1)" fill-opacity="0.502"/>
<circle cx="2592.00" cy="0.00" r="240.00" fill="rgb(8,0,9)" fill-opacity="0.502"/>
<g transform="translate(5360.00 4368.00) rotate(12) scale(32.00 384.00)"><ellipse cx="0" cy="0" rx="1" ry="1" fill="rgb(13,0,0)" fill-opacity="0.502"/></g>
<polygon points="5985.94,2796.02 5906.14,2801.60 5838.06,1827.98 5917.86,1822.40" fill="rgb(25,1,14)" fill-opacity="0.502"/>
<polygon points="4620.17,1640.49 4582.32,1371.14 4835.83,1335.51 4873.68,1604.86" fill="rgb(4,0,0)" fill-opacity="0.502"/>
<circle cx="4288.00" cy="1520.00" r="32.00" fill="rgb(239,217,217)" fill-opacity="0.502"/>
<g transform="translate(6352.00 4544.00) rotate(356) scale(432.00 256.00)"><ellipse cx="0" cy="0" rx="1" ry="1" fill="rgb(11,2,0)" fill-opacity="0.502"/></g>
<g transform="translate(3248.00 3200.00) rotate(316) scale(96.00 32.00)"><ellipse cx="0" cy="0" rx="1" ry="1" fill="rgb(0,0,37)" fill-opacity="0.502"/></g>
<circle cx="7328.00" cy="1344.00" r="256.00" fill="rgb(0,0,0)" fill-opacity="0.502"/>
<polygon points="2911.50,1504.75 3095.06,709.66 3344.50,767.25 3160.94,1562.34" fill="rgb(5,127,255)" fill-opacity="0.502"/>
<g transform="translate(6160.00 2128.00) rotate(54) scale(272.00 144.00)"><ellipse cx="0" cy="0" rx="1" ry="1" fill="rgb(5,117,246)" fill-opacity="0.502"/></g>
<polygon points="5936.51,2336.88 6065.06,1941.24 6095.49,1951.12 5966.94,2346.76" fill="rgb(24,111,226)" fill-opacity="0.502"/>
<polygon points="4808.94,2039.28 4842.21,1882.78 4983.06,1912.72 4949.79,2069.22" fill="rgb(109,23,11)" fill-opacity="0.502"/>
<g transform="translate(1264.00 1552.00) rotate(345) scale(144.00 304.00)"><ellipse cx="0" cy="0" rx="1" ry="1" fill="rgb(7,115,255)" fill-opacity="0.502"/></g>
<g transform="translate(2992.00 1104.00) rotate(344) scale(192.00 592.00)"><ellipse cx="0" cy="0" rx="1" ry="1" fill="rgb(7,116,250)" fill-opacity="0.502"/></g>
<polygon points="2696.86,3896.98 2305.33,4079.55 2055.14,3543.02 2446.67,3360.45" fill="rgb(5,108,250)" fill-opacity="0.502"/>
<circle cx="3632.00" cy="3776.00" r="144.00" fill="rgb(5,152,255)" fill-opacity="0.502"/>
<circle cx="6304.00" cy="128.00" r="144.00" fill="rgb(0,86,226)" fill-opacity="0.502"/>
<polygon points="5953.24,2716.91 6738.54,2564.26 6750.76,2627.09 5965.46,2779.74" fill="rgb(2,0,45)" fill-opacity="0.502"/>
<circle cx="2368.00" cy="2384.00" r="352.00" fill="rgb(3,125,251)" fill-opacity="0.502"/>
<g transform="translate(6736.00 2128.00) rotate(148) scale(352.00 352.00)"><ellipse cx="0" cy="0" rx="1" ry="1" fill="rgb(5,127,253)" fill-opacity="0.502"/></g>
<circle cx="3200.00" cy="2432.00" r="128.00" fill="rgb(9,137,255)" fill-opacity="0.502"/>
<circle cx="1776.00" cy="416.00" r="304.00" fill="rgb(7,6,33)" fill-opacity="0.502"/>
<g transform="translate(6128.00 1808.00) rotate(166) scale(144.00 208.00)"><ellipse cx="0" cy="0" rx="1" ry="1" fill="rgb(11,121,244)" fill-opacity="0.502"/></g>
<g transform="translate(3936.00 1088.00) rotate(228) scale(144.00 128.00)"><ellipse cx="0" cy="0" rx="1" ry="1" fill="rgb(104,23,22)" fill-opacity="0.502"/></g>
<g transform="translate(6128.00 4176.00) rotate(28) scale(64.00 464.00)"><ellipse cx="0" cy="0" rx="1" ry="1" fill="rgb(30,23,24)" fill-opacity="0.502"/></g>
<polygon points="3529.88,3267.55 3298.79,3574.23 3222.12,3516.45 3453.21,3209.77" fill="rgb(12,116,253)" fill-opacity="0.502"/>
<circle cx="2336.00" cy="496.00" r="176.00" fill="rgb(6,9,48)" fill-opacity="0.502"/>
<g transform="translate(2992.00 3472.00) rotate(298) scale(256.00 128.00)"><ellipse cx="0" cy="0" rx="1" ry="1" fill="rgb(16,116,255)" fill-opacity="0.502"/></g>
<polygon points="6911.51,1149.08 6442.53,1310.56 6416.49,1234.92 6885.47,1073.44" fill="rgb(13,77,209)" fill-opacity="0.502"/>
<polygon points="3718.98,2368.24 4085.58,2400.31 4073.02,2543.76 3706.42,2511.69" fill="rgb(188,63,47)" fill-opacity="0.502"/>
<circle cx="6992.00" cy="1536.00" r="80.00" fill="rgb(10,137,255)" fill-opacity="0.502"/>
<polygon points="5827.51,3001.90 5578.83,2800.52 5820.49,2502.10 6069.17,2703.48" fill="rgb(5,0,0)" fill-opacity="0.502"/>
<polygon points="1751.10,4109.45 1515.45,4209.48 1352.90,3826.55 1588.55,3726.52" fill="rgb(0,91,237)" fill-opacity="0.502"/>
<g transform="translate(5552.00 800.00) rotate(12) scale(304.00 368.00)"><ellipse cx="0" cy="0" rx="1" ry="1" fill="rgb(7,0,0)" fill-opacity="0.502"/></g>
<circle cx="6640.00" cy="3072.00" r="208.00" fill="rgb(7,144,255)" fill-opacity="0.502"/>
<polygon points="3498.77,793.91 3552.96,1011.25 3413.23,1046.09 3359.04,828.75" fill="rgb(0,0,0)" fill-opacity="0.502"/>
<g transform="translate(336.00 960.00) rotate(178) scale(752.00 4592.00)"><ellipse cx="0" cy="0" rx="1" ry="1" fill="rgb(0,0,0)" fill-opacity="0.502"/></g>
<polygon points="2452.89,3162.79 2495.44,2894.14 2843.11,2949.21 2800.56,3217.86" fill="rgb(5,129,255)" fill-opacity="0.502"/>
<g transform="translate(4272.00 3360.00) rotate(311) scale(384.00 48.00)"><ellipse cx="0" cy="0" rx="1" ry="1" fill="rgb(123,38,22)" fill-opacity="0.502"/></g>
<circle cx="3280.00" cy="0.00" r="432.00" fill="rgb(7,10,43)" fill-opacity="0.502"/>
<polygon points="7012.58,979.34 6727.38,939.26 6747.42,796.66 7032.62,836.74" fill="rgb(1,116,255)" fill-opacity="0.502"/>
<polygon points="1168.94,2257.32 1380.12,2476.00 1311.06,2542.68 1099.88,2324.00" fill="rgb(8,109,250)" fill-opacity="0.502"/>
<circle cx="6240.00" cy="4336.00" r="208.00" fill="rgb(7,0,0)" fill-opacity="0.502"/>
<circle cx="5264.00" cy="1872.00" r="160.00" fill="rgb(9,0,0)" fill-opacity="0.502"/>
<circle cx="4272.00" cy="576.00" r="400.00" fill="rgb(10,0,0)" fill-opacity="0.502"/>
<circle cx="3808.00" cy="3744.00" r="32.00" fill="rgb(0,51,178)" fill-opacity="0.502"/>
<circle cx="7552.00" cy="2064.00" r="480.00" fill="rgb(0,0,0)" fill-opacity="0.502"/>
<polygon points="3169.36,879.20 3032.90,722.23 3310.64,480.80 3447.10,637.77" fill="rgb(3,129,255)" fill-opacity="0.502"/>
<polygon points="2793.99,509.50 3356.23,85.83 3414.01,162.50 2851.77,586.17" fill="rgb(6,15,57)" fill-opacity="0.502"/>
<polygon points="5282.72,4661.72 5230.66,4544.79 5245.28,4538.28 5297.34,4655.21" fill="rgb(153,115,114)" fill-opacity="0.502"/>
<circle cx="1280.00" cy="3696.00" r="128.00" fill="rgb(6,91,239)" fill-opacity="0.502"/>
<polygon points="3961.88,1176.35 3806.27,1337.48 3622.12,1159.65 3777.73,998.52" fill="rgb(139,46,33)" fill-opacity="0.502"/>
<polygon points="5796.32,3509.22 5458.21,3215.31 5531.68,3130.78 5869.79,3424.69" fill="rgb(84,19,13)" fill-opacity="0.502"/>
<polygon points="3279.47,509.69 3581.46,362.40 3616.53,434.31 3314.54,581.60" fill="rgb(3,113,255)" fill-opacity="0.502"/>
<g transform="translate(5760.00 1104.00) rotate(343) scale(240.00 544.00)"><ellipse cx="0" cy="0" rx="1" ry="1" fill="rgb(7,0,0)" fill-opacity="0.502"/></g>
<polygon points="2938.58,1825.69 2886.01,1493.82 2933.42,1486.31 2985.99,1818.18" fill="rgb(23,109,247)" fill-opacity="0.502"/>
<g transform="translate(2688.00 4160.00) rotate(67) scale(336.00 112.00)"><ellipse cx="0" cy="0" rx="1" ry="1" fill="rgb(20,111,251)" fill-opacity="0.502"/></g>
<circle cx="3584.00" cy="4592.00" r="352.00" fill="rgb(5,0,0)" fill-opacity="0.502"/>
<circle cx="3424.00" cy="1184.00" r="128.00" fill="rgb(86,18,12)" fill-opacity="0.502"/>
<polygon points="2294.41,1353.80 2177.98,806.04 2553.59,726.20 2670.02,1273.96" fill="rgb(2,120,252)" fill-opacity="0.502"/>
<polygon points="6269.89,1153.46 6017.04,1113.42 6082.11,702.54 6334.96,742.58" fill="rgb(6,128,255)" fill-opacity="0.502"/>
<circle cx="2176.00" cy="32.00" r="272.00" fill="rgb(8,0,18)" fill-opacity="0.502"/>
<polygon points="4278.58,3991.43 4342.58,3880.57 4841.42,4168.57 4777.42,4279.43" fill="rgb(194,72,49)" fill-opacity="0.502"/>
<circle cx="5136.00" cy="3584.00" r="48.00" fill="rgb(74,25,20)" fill-opacity="0.502"/>
<polygon points="2933.15,2224.45 3011.68,2209.19 3194.85,3151.55 3116.32,3166.81" fill="rgb(0,25,143)" fill-opacity="0.502"/>
<polygon points="1200.80,1209.17 1142.83,992.80 1359.20,934.83 1417.17,1151.20" fill="rgb(4,104,255)" fill-opacity="0.502"/>
<circle cx="3200.00" cy="2224.00" r="96.00" fill="rgb(6,0,4)" fill-opacity="0.502"/>
<polygon points="4248.98,2952.55 4247.03,2840.57 4311.02,2839.45 4312.97,2951.43" fill="rgb(53,17,4)" fill-opacity="0.502"/>
<circle cx="6720.00" cy="2688.00" r="80.00" fill="rgb(9,111,247)" fill-opacity="0.502"/>
<g transform="translate(3888.00 1984.00) rotate(16) scale(224.00 112.00)"><ellipse cx="0" cy="0" rx="1" ry="1" fill="rgb(2,0,0)" fill-opacity="0.502"/></g>
<circle cx="6848.00" cy="3200.00" r="240.00" fill="rgb(3,136,250)" fill-opacity="0.502"/>
<circle cx="3760.00" cy="2320.00" r="48.00" fill="rgb(2,0,0)" fill-opacity="0.502"/>
<polygon points="4519.95,1677.91 4400.46,1723.78 4280.05,1410.09 4399.54,1364.22" fill="rgb(8,0,0)" fill-opacity="0.502"/>
<g transform="translate(3904.00 2384.00) rotate(46) scale(16.00 160.00)"><ellipse cx="0" cy="0" rx="1" ry="1" fill="rgb(90,8,7)" fill-opacity="0.502"/></g>
<g transform="translate(1872.00 1072.00) rotate(322) scale(272.00 256.00)"><ellipse cx="0" cy="0" rx="1" ry="1" fill="rgb(2,111,253)" fill-opacity="0.502"/></g>
<circle cx="6144.00" cy="3456.00" r="400.00" fill="rgb(10,0,0)" fill-opacity="0.502"/>
<polygon points="2700.57,681.10 2952.59,511.11 2979.43,550.90 2727.41,720.89" fill="rgb(16,68,187)" fill-opacity="0.502"/>
<circle cx="2400.00" cy="1600.00" r="336.00" fill="rgb(3,123,253)" fill-opacity="0.502"/>
<polygon points="5013.24,2880.50 4871.24,2575.98 5146.76,2447.50 5288.76,2752.02" fill="rgb(49,9,10)" fill-opacity="0.502"/>
<g transform="translate(6656.00 2560.00) rotate(349) scale(464.00 32.00)"><ellipse cx="0" cy="0" rx="1" ry="1" fill="rgb(24,85,202)" fill-opacity="0.502"/></g>
</g>
</svg>