<?xml version="1.0" standalone="no"?>
<svg xmlns="http://www.w3.org/2000/svg" width="8192" height="4608" viewBox="0 0 8192 4608" style="overflow:hidden">
<defs>
<clipPath id="c"><rect x="0" y="0" width="8192" height="4608"/></clipPath>
</defs>
<rect width="8192" height="4608" fill="rgb(28,19,18)"/>
<g clip-path="url(#c)">
<g transform="translate(4384.00 1792.00) rotate(11) scale(464.00 976.00)"><ellipse cx="0" cy="0" rx="1" ry="1" fill="rgb(134,114,125)" fill-opacity="0.502"/></g>
<g transform="translate(2784.00 2064.00) rotate(163) scale(688.00 1088.00)"><ellipse cx="0" cy="0" rx="1" ry="1" fill="rgb(185,159,192)" fill-opacity="0.502"/></g>
<circle cx="8176.00" cy="3120.00" r="1696.00" fill="rgb(0,0,0)" fill-opacity="0.502"/>
<g transform="translate(6592.00 1904.00) rotate(272) scale(688.00 432.00)"><ellipse cx="0" cy="0" rx="1" ry="1" fill="rgb(172,54,44)" fill-opacity="0.502"/></g>
<g transform="translate(2400.00 1968.00) rotate(24) scale(352.00 352.00)"><ellipse cx="0" cy="0" rx="1" ry="1" fill="rgb(200,190,216)" fill-opacity="0.502"/></g>
<g transform="translate(2976.00 1040.00) rotate(250) scale(288.00 880.00)"><ellipse cx="0" cy="0" rx="1" ry="1" fill="rgb(98,57,48)" fill-opacity="0.502"/></g>
<circle cx="3200.00" cy="3088.00" r="208.00" fill="rgb(70,138,252)" fill-opacity="0.502"/>
<circle cx="176.00" cy="2880.00" r="2032.00" fill="rgb(0,0,0)" fill-opacity="0.502"/>
<polygon points="6208.31,4355.43 6920.24,3838.18 7023.69,3980.57 6311.76,4497.82" fill="rgb(160,114,144)" fill-opacity="0.502"/>
<polygon points="4116.90,1934.83 4020.13,1546.71 4315.10,1473.17 4411.87,1861.29" fill="rgb(173,194,255)" fill-opacity="0.502"/>
<g transform="translate(5088.00 2304.00) rotate(239) scale(1088.00 256.00)"><ellipse cx="0" cy="0" rx="1" ry="1" fill="rgb(102,78,76)" fill-opacity="0.502"/></g>
<circle cx="3184.00" cy="1424.00" r="464.00" fill="rgb(172,92,104)" fill-opacity="0.502"/>
<g transform="translate(1152.00 736.00) rotate(226) scale(1296.00 1792.00)"><ellipse cx="0" cy="0" rx="1" ry="1" fill="rgb(0,0,0)" fill-opacity="0.502"/></g>
<circle cx="4816.00" cy="544.00" r="1088.00" fill="rgb(63,25,13)" fill-opacity="0.502"/>
<g transform="translate(2256.00 2848.00) rotate(178) scale(400.00 496.00)"><ellipse cx="0" cy="0" rx="1" ry="1" fill="rgb(8,2,0)" fill-opacity="0.502"/></g>
<circle cx="5728.00" cy="1296.00" r="208.00" fill="rgb(221,83,71)" fill-opacity="0.502"/>
<g transform="translate(6320.00 2016.00) rotate(145) scale(240.00 816.00)"><ellipse cx="0" cy="0" rx="1" ry="1" fill="rgb(45,0,0)" fill-opacity="0.502"/></g>
<g transform="translate(7856.00 1248.00) rotate(94) scale(4240.00 848.00)"><ellipse cx="0" cy="0" rx="1" ry="1" fill="rgb(0,0,0)" fill-opacity="0.502"/></g>
<g transform="translate(2992.00 2512.00) rotate(360) scale(160.00 416.00)"><ellipse cx="0" cy="0" rx="1" ry="1" fill="rgb(0,27,54)" fill-opacity="0.502"/></g>
<circle cx="5488.00" cy="4368.00" r="640.00" fill="rgb(0,0,0)" fill-opacity="0.502"/>
<g transform="translate(3088.00 4336.00) rotate(231) scale(608.00 2192.00)"><ellipse cx="0" cy="0" rx="1" ry="1" fill="rgb(0,0,0)" fill-opacity="0.502"/></g>
<circle cx="6336.00" cy="3136.00" r="608.00" fill="rgb(0,0,0)" fill-opacity="0.502"/>
<circle cx="3584.00" cy="2128.00" r="304.00" fill="rgb(93,33,12)" fill-opacity="0.502"/>
<circle cx="6592.00" cy="1024.00" r="528.00" fill="rgb(104,52,39)" fill-opacity="0.502"/>
<circle cx="2880.00" cy="2704.00" r="288.00" fill="rgb(68,103,178)" fill-opacity="0.502"/>
<g transform="translate(6176.00 208.00) rotate(170) scale(960.00 480.00)"><ellipse cx="0" cy="0" rx="1" ry="1" fill="rgb(40,0,0)" fill-opacity="0.502"/></g>
<polygon points="3605.84,1228.36 3754.17,1475.22 3274.16,1763.64 3125.83,1516.78" fill="rgb(100,35,14)" fill-opacity="0.502"/>
<g transform="translate(6640.00 1472.00) rotate(44) scale(208.00 240.00)"><ellipse cx="0" cy="0" rx="1" ry="1" fill="rgb(185,112,109)" fill-opacity="0.502"/></g>
<circle cx="880.00" cy="3728.00" r="1648.00" fill="rgb(0,0,0)" fill-opacity="0.502"/>
<polygon points="3142.04,2094.02 2887.95,2125.21 2809.96,1489.98 3064.05,1458.79" fill="rgb(176,169,228)" fill-opacity="0.502"/>
<g transform="translate(1984.00 1744.00) rotate(251) scale(176.00 224.00)"><ellipse cx="0" cy="0" rx="1" ry="1" fill="rgb(150,92,77)" fill-opacity="0.502"/></g>
<g transform="translate(2480.00 2896.00) rotate(106) scale(496.00 80.00)"><ellipse cx="0" cy="0" rx="1" ry="1" fill="rgb(16,6,0)" fill-opacity="0.502"/></g>
<circle cx="3184.00" cy="80.00" r="496.00" fill="rgb(0,0,0)" fill-opacity="0.502"/>
<g transform="translate(3424.00 2672.00) rotate(214) scale(176.00 288.00)"><ellipse cx="0" cy="0" rx="1" ry="1" fill="rgb(27,7,0)" fill-opacity="0.502"/></g>
<circle cx="2368.00" cy="880.00" r="432.00" fill="rgb(32,26,22)" fill-opacity="0.502"/>
<circle cx="1968.00" cy="2112.00" r="240.00" fill="rgb(140,83,69)" fill-opacity="0.502"/>
<polygon points="4017.64,1943.37 4221.09,1900.13 4254.36,2056.63 4050.91,2099.87" fill="rgb(175,234,255)" fill-opacity="0.502"/>
<circle cx="4576.00" cy="2096.00" r="384.00" fill="rgb(29,40,47)" fill-opacity="0.502"/>
<polygon points="5385.14,2874.62 5250.31,2761.49 5414.86,2565.38 5549.69,2678.51" fill="rgb(183,120,135)" fill-opacity="0.502"/>
<polygon points="2505.45,3442.31 2852.09,2982.30 3286.55,3309.69 2939.91,3769.70" fill="rgb(46,52,48)" fill-opacity="0.502"/>
<polygon points="2468.92,2163.34 2619.88,2768.80 2123.08,2892.66 1972.12,2287.20" fill="rgb(72,40,26)" fill-opacity="0.502"/>
<circle cx="2448.00" cy="1728.00" r="240.00" fill="rgb(165,150,178)" fill-opacity="0.502"/>
<polygon points="2674.43,442.50 2834.04,453.66 2829.57,517.50 2669.96,506.34" fill="rgb(255,255,255)" fill-opacity="0.502"/>
<g transform="translate(7664.00 1168.00) rotate(358) scale(576.00 4592.00)"><ellipse cx="0" cy="0" rx="1" ry="1" fill="rgb(0,0,0)" fill-opacity="0.502"/></g>
<g transform="translate(6112.00 0.00) rotate(154) scale(368.00 416.00)"><ellipse cx="0" cy="0" rx="1" ry="1" fill="rgb(74,0,0)" fill-opacity="0.502"/></g>
<polygon points="2653.60,2545.17 2730.87,2524.46 2834.40,2910.83 2757.13,2931.54" fill="rgb(118,131,255)" fill-opacity="0.502"/>
<circle cx="2272.00" cy="1568.00" r="192.00" fill="rgb(137,92,73)" fill-opacity="0.502"/>
<polygon points="3424.00,1584.00 4032.00,1584.00 4032.00,2000.00 3424.00,2000.00" fill="rgb(35,11,0)" fill-opacity="0.502"/>
<circle cx="4080.00" cy="1360.00" r="224.00" fill="rgb(122,88,83)" fill-opacity="0.502"/>
<polygon points="4293.65,548.06 4820.69,105.82 5386.35,779.94 4859.31,1222.18" fill="rgb(87,47,40)" fill-opacity="0.502"/>
<circle cx="832.00" cy="928.00" r="1280.00" fill="rgb(0,0,0)" fill-opacity="0.502"/>
<circle cx="5280.00" cy="1472.00" r="304.00" fill="rgb(0,0,0)" fill-opacity="0.502"/>
<polygon points="6469.25,2355.71 6664.55,1988.41 7130.75,2236.29 6935.45,2603.59" fill="rgb(116,47,40)" fill-opacity="0.502"/>
<polygon points="4992.66,3770.50 5138.52,3346.90 5471.34,3461.50 5325.48,3885.10" fill="rgb(87,70,60)" fill-opacity="0.502"/>
<circle cx="4000.00" cy="2208.00" r="96.00" fill="rgb(158,210,255)" fill-opacity="0.502"/>
<circle cx="7296.00" cy="4592.00" r="672.00" fill="rgb(0,0,0)" fill-opacity="0.502"/>
<circle cx="4432.00" cy="2304.00" r="384.00" fill="rgb(59,56,57)" fill-opacity="0.502"/>
<circle cx="4160.00" cy="288.00" r="256.00" fill="rgb(0,2,0)" fill-opacity="0.502"/>
<circle cx="3312.00" cy="4400.00" r="784.00" fill="rgb(0,0,0)" fill-opacity="0.502"/>
<polygon points="6091.32,868.82 5480.95,998.55 5284.68,75.18 5895.05,-54.55" fill="rgb(19,2,0)" fill-opacity="0.502"/>
<polygon points="5403.11,1945.96 5326.60,2305.92 5044.89,2246.04 5121.40,1886.08" fill="rgb(113,85,86)" fill-opacity="0.502"/>
<polygon points="4573.17,1321.19 3934.73,1365.83 3906.83,966.81 4545.27,922.17" fill="rgb(92,47,31)" fill-opacity="0.502"/>
<circle cx="3888.00" cy="16.00" r="160.00" fill="rgb(176,136,138)" fill-opacity="0.502"/>
<g transform="translate(5776.00 2032.00) rotate(139) scale(464.00 400.00)"><ellipse cx="0" cy="0" rx="1" ry="1" fill="rgb(7,9,1)" fill-opacity="0.502"/></g>
<circle cx="4320.00" cy="2160.00" r="192.00" fill="rgb(2,5,0)" fill-opacity="0.502"/>
<polygon points="4750.99,1768.77 4784.47,2247.60 4561.01,2263.23 4527.53,1784.40" fill="rgb(114,109,164)" fill-opacity="0.502"/>
<g transform="translate(4912.00 2720.00) rotate(303) scale(352.00 416.00)"><ellipse cx="0" cy="0" rx="1" ry="1" fill="rgb(25,27,16)" fill-opacity="0.502"/></g>
<g transform="translate(560.00 3200.00) rotate(351) scale(1488.00 4096.00)"><ellipse cx="0" cy="0" rx="1" ry="1" fill="rgb(0,0,0)" fill-opacity="0.502"/></g>
<polygon points="3546.97,1105.99 3721.57,1293.21 3429.03,1566.01 3254.43,1378.79" fill="rgb(162,74,57)" fill-opacity="0.502"/>
<g transform="translate(6768.00 1680.00) rotate(358) scale(144.00 464.00)"><ellipse cx="0" cy="0" rx="1" ry="1" fill="rgb(133,79,65)" fill-opacity="0.502"/></g>
<circle cx="2768.00" cy="1120.00" r="144.00" fill="rgb(153,115,119)" fill-opacity="0.502"/>
<g transform="translate(7104.00 1376.00) rotate(173) scale(352.00 160.00)"><ellipse cx="0" cy="0" rx="1" ry="1" fill="rgb(14,0,0)" fill-opacity="0.502"/></g>
<polygon points="6524.50,2235.94 6612.06,2476.50 6371.50,2564.06 6283.94,2323.50" fill="rgb(137,56,42)" fill-opacity="0.502"/>
<polygon points="4398.70,893.83 4533.90,639.54 4689.30,722.17 4554.10,976.46" fill="rgb(12,8,6)" fill-opacity="0.502"/>
<g transform="translate(6896.00 208.00) rotate(138) scale(192.00 448.00)"><ellipse cx="0" cy="0" rx="1" ry="1" fill="rgb(7,0,0)" fill-opacity="0.502"/></g>
<circle cx="5952.00" cy="2784.00" r="368.00" fill="rgb(0,8,0)" fill-opacity="0.502"/>
<g transform="translate(1840.00 208.00) rotate(336) scale(304.00 688.00)"><ellipse cx="0" cy="0" rx="1" ry="1" fill="rgb(0,2,0)" fill-opacity="0.502"/></g>
<circle cx="6576.00" cy="816.00" r="464.00" fill="rgb(57,27,17)" fill-opacity="0.502"/>
<g transform="translate(4656.00 544.00) rotate(151) scale(176.00 96.00)"><ellipse cx="0" cy="0" rx="1" ry="1" fill="rgb(99,59,50)" fill-opacity="0.502"/></g>
<circle cx="6176.00" cy="3696.00" r="496.00" fill="rgb(0,8,1)" fill-opacity="0.502"/>
<polygon points="4057.76,2263.07 4117.97,2835.91 4070.24,2840.93 4010.03,2268.09" fill="rgb(176,223,255)" fill-opacity="0.502"/>
<circle cx="5696.00" cy="1232.00" r="208.00" fill="rgb(148,65,56)" fill-opacity="0.502"/>
<g transform="translate(3440.00 992.00) rotate(94) scale(112.00 240.00)"><ellipse cx="0" cy="0" rx="1" ry="1" fill="rgb(0,0,0)" fill-opacity="0.502"/></g>
<circle cx="6928.00" cy="3968.00" r="160.00" fill="rgb(66,51,57)" fill-opacity="0.502"/>
<circle cx="2464.00" cy="3264.00" r="336.00" fill="rgb(0,0,0)" fill-opacity="0.502"/>
<circle cx="4048.00" cy="2112.00" r="80.00" fill="rgb(162,208,255)" fill-opacity="0.502"/>
<polygon points="5085.00,1497.03 4810.70,1661.84 4547.00,1222.97 4821.30,1058.16" fill="rgb(72,35,25)" fill-opacity="0.502"/>
<polygon points="4631.92,1585.07 5010.13,1715.29 4984.08,1790.93 4605.87,1660.71" fill="rgb(198,136,153)" fill-opacity="0.502"/>
<circle cx="2608.00" cy="1952.00" r="144.00" fill="rgb(161,186,255)" fill-opacity="0.502"/>
<polygon points="3988.31,2075.26 4155.38,1747.37 4283.69,1812.74 4116.62,2140.63" fill="rgb(172,206,255)" fill-opacity="0.502"/>
<polygon points="1991.40,2512.05 1770.80,2473.15 1848.60,2031.95 2069.20,2070.85" fill="rgb(87,45,37)" fill-opacity="0.502"/>
<circle cx="5344.00" cy="4592.00" r="560.00" fill="rgb(0,0,0)" fill-opacity="0.502"/>
<polygon points="2629.84,2903.81 2151.83,3304.91 1802.16,2888.19 2280.17,2487.09" fill="rgb(11,11,8)" fill-opacity="0.502"/>
<polygon points="7083.94,1518.97 7322.92,1916.70 7076.06,2065.03 6837.08,1667.30" fill="rgb(15,2,1)" fill-opacity="0.502"/>
<polygon points="4627.75,4239.99 4577.85,4005.23 4828.25,3952.01 4878.15,4186.77" fill="rgb(65,53,44)" fill-opacity="0.502"/>
<circle cx="2736.00" cy="3696.00" r="128.00" fill="rgb(98,57,46)" fill-opacity="0.502"/>
<polygon points="6286.49,1347.47 6564.21,1471.11 6401.51,1836.53 6123.79,1712.89" fill="rgb(168,0,0)" fill-opacity="0.502"/>
<g transform="translate(2832.00 2672.00) rotate(277) scale(48.00 1136.00)"><ellipse cx="0" cy="0" rx="1" ry="1" fill="rgb(29,25,22)" fill-opacity="0.502"/></g>
<g transform="translate(5760.00 1344.00) rotate(88) scale(288.00 128.00)"><ellipse cx="0" cy="0" rx="1" ry="1" fill="rgb(154,56,48)" fill-opacity="0.502"/></g>
<g transform="translate(6624.00 1024.00) rotate(274) scale(240.00 240.00)"><ellipse cx="0" cy="0" rx="1" ry="1" fill="rgb(17,10,8)" fill-opacity="0.502"/></g>
<polygon points="6128.87,2193.16 6270.00,1700.99 6639.13,1806.84 6498.00,2299.01" fill="rgb(52,0,0)" fill-opacity="0.502"/>
<g transform="translate(7984.00 880.00) rotate(309) scale(896.00 928.00)"><ellipse cx="0" cy="0" rx="1" ry="1" fill="rgb(0,0,0)" fill-opacity="0.502"/></g>
<circle cx="6272.00" cy="864.00" r="208.00" fill="rgb(123,55,38)" fill-opacity="0.502"/>
<circle cx="3024.00" cy="2304.00" r="128.00" fill="rgb(0,0,0)" fill-opacity="0.502"/>
<polygon points="5678.56,3358.37 5411.53,3250.48 5489.44,3057.63 5756.47,3165.52" fill="rgb(107,83,80)" fill-opacity="0.502"/>
<polygon points="3455.39,1149.48 3143.31,1344.49 3024.61,1154.52 3336.69,959.51" fill="rgb(58,34,20)" fill-opacity="0.502"/>
<g transform="translate(3840.00 3104.00) rotate(97) scale(112.00 144.00)"><ellipse cx="0" cy="0" rx="1" ry="1" fill="rgb(61,60,54)" fill-opacity="0.502"/></g>
<g transform="translate(4576.00 4528.00) rotate(35) scale(416.00 112.00)"><ellipse cx="0" cy="0" rx="1" ry="1" fill="rgb(0,0,0)" fill-opacity="0.502"/></g>
<polygon points="4140.02,2905.91 4049.41,2840.08 4387.98,2374.09 4478.59,2439.92" fill="rgb(118,103,111)" fill-opacity="0.502"/>
<polygon points="3376.85,1947.88 3197.91,2213.17 2959.15,2052.12 3138.09,1786.83" fill="rgb(140,147,181)" fill-opacity="0.502"/>
<g transform="translate(6592.00 2640.00) rotate(303) scale(224.00 144.00)"><ellipse cx="0" cy="0" rx="1" ry="1" fill="rgb(0,5,0)" fill-opacity="0.502"/></g>
<g transform="translate(5360.00 1280.00) rotate(360) scale(192.00 272.00)"><ellipse cx="0" cy="0" rx="1" ry="1" fill="rgb(4,7,3)" fill-opacity="0.502"/></g>
<polygon points="5410.80,3051.27 5023.49,3695.86 4845.20,3588.73 5232.51,2944.14" fill="rgb(3,8,2)" fill-opacity="0.502"/>
<circle cx="4688.00" cy="3984.00" r="400.00" fill="rgb(38,34,28)" fill-opacity="0.502"/>
<polygon points="6123.71,2093.80 5883.75,2097.99 5860.29,754.20 6100.25,750.01" fill="rgb(0,0,0)" fill-opacity="0.502"/>
<circle cx="3104.00" cy="768.00" r="112.00" fill="rgb(132,91,84)" fill-opacity="0.502"/>
<circle cx="5392.00" cy="1952.00" r="192.00" fill="rgb(41,39,32)" fill-opacity="0.502"/>
<polygon points="4627.74,2511.64 4483.93,2441.50 4652.26,2096.36 4796.07,2166.50" fill="rgb(94,84,83)" fill-opacity="0.502"/>
<g transform="translate(2256.00 880.00) rotate(132) scale(624.00 144.00)"><ellipse cx="0" cy="0" rx="1" ry="1" fill="rgb(32,26,24)" fill-opacity="0.502"/></g>
<g transform="translate(3488.00 3200.00) rotate(75) scale(528.00 128.00)"><ellipse cx="0" cy="0" rx="1" ry="1" fill="rgb(3,17,14)" fill-opacity="0.502"/></g>
<polygon points="5180.27,3803.17 5040.33,3880.74 4931.73,3684.83 5071.67,3607.26" fill="rgb(106,79,76)" fill-opacity="0.502"/>
<polygon points="4443.92,1579.69 4099.04,1347.07 4260.08,1108.31 4604.96,1340.93" fill="rgb(71,33,23)" fill-opacity="0.502"/>
<g transform="translate(4352.00 4064.00) rotate(115) scale(144.00 96.00)"><ellipse cx="0" cy="0" rx="1" ry="1" fill="rgb(92,69,64)" fill-opacity="0.502"/></g>
<polygon points="3292.99,1945.83 2991.95,1988.14 2963.01,1782.17 3264.05,1739.86" fill="rgb(141,83,127)" fill-opacity="0.502"/>
<polygon points="3271.50,2703.85 3157.62,2421.99 3528.50,2272.15 3642.38,2554.01" fill="rgb(134,70,54)" fill-opacity="0.502"/>
<circle cx="2256.00" cy="1920.00" r="208.00" fill="rgb(157,150,170)" fill-opacity="0.502"/>
<circle cx="4112.00" cy="2224.00" r="96.00" fill="rgb(20,21,28)" fill-opacity="0.502"/>
<polygon points="4304.00,3920.00 4304.00,3760.00 4720.00,3760.00 4720.00,3920.00" fill="rgb(0,0,0)" fill-opacity="0.502"/>
<polygon points="2347.57,1670.17 2324.12,2117.55 2100.43,2105.83 2123.88,1658.45" fill="rgb(167,154,181)" fill-opacity="0.502"/>
<polygon points="6320.45,4650.40 6087.57,4454.99 6303.55,4197.60 6536.43,4393.01" fill="rgb(76,66,68)" fill-opacity="0.502"/>
<polygon points="2479.48,2430.65 2385.01,1894.91 2416.52,1889.35 2510.99,2425.09" fill="rgb(21,0,0)" fill-opacity="0.502"/>
<polygon points="5198.51,2024.31 5514.00,2617.65 5457.49,2647.69 5142.00,2054.35" fill="rgb(137,104,111)" fill-opacity="0.502"/>
<polygon points="3893.74,197.67 4007.46,547.66 3642.26,666.33 3528.54,316.34" fill="rgb(8,10,4)" fill-opacity="0.502"/>
<polygon points="5126.43,2974.25 5080.41,3500.24 4777.57,3473.75 4823.59,2947.76" fill="rgb(46,44,38)" fill-opacity="0.502"/>
<g transform="translate(1632.00 1888.00) rotate(210) scale(160.00 384.00)"><ellipse cx="0" cy="0" rx="1" ry="1" fill="rgb(16,13,11)" fill-opacity="0.502"/></g>
<polygon points="4828.08,2334.72 4760.92,1989.18 5027.92,1937.28 5095.08,2282.82" fill="rgb(6,11,0)" fill-opacity="0.502"/>
<circle cx="5840.00" cy="4192.00" r="384.00" fill="rgb(5,8,4)" fill-opacity="0.502"/>
<g transform="translate(4112.00 1648.00) rotate(319) scale(48.00 272.00)"><ellipse cx="0" cy="0" rx="1" ry="1" fill="rgb(192,205,255)" fill-opacity="0.502"/></g>
<polygon points="4267.77,2854.71 5205.72,2531.75 5268.23,2713.29 4330.28,3036.25" fill="rgb(2,6,3)" fill-opacity="0.502"/>
<polygon points="5602.08,2752.78 5505.48,2668.80 5725.92,2415.22 5822.52,2499.20" fill="rgb(6,11,3)" fill-opacity="0.502"/>
<polygon points="2842.28,2396.83 2642.34,2454.16 2549.72,2131.17 2749.66,2073.84" fill="rgb(169,154,170)" fill-opacity="0.502"/>
<circle cx="2816.00" cy="2832.00" r="112.00" fill="rgb(108,147,255)" fill-opacity="0.502"/>
<g transform="translate(6736.00 1664.00) rotate(263) scale(240.00 144.00)"><ellipse cx="0" cy="0" rx="1" ry="1" fill="rgb(131,60,45)" fill-opacity="0.502"/></g>
<polygon points="2927.78,3179.20 3121.97,3253.74 2944.22,3716.80 2750.03,3642.26" fill="rgb(69,63,57)" fill-opacity="0.502"/>
<g transform="translate(3040.00 2672.00) rotate(145) scale(112.00 480.00)"><ellipse cx="0" cy="0" rx="1" ry="1" fill="rgb(59,88,135)" fill-opacity="0.502"/></g>
<polygon points="5763.41,1211.46 5548.08,1149.72 5596.59,980.54 5811.92,1042.28" fill="rgb(167,70,61)" fill-opacity="0.502"/>
<circle cx="6624.00" cy="1344.00" r="96.00" fill="rgb(215,233,242)" fill-opacity="0.502"/>
<polygon points="4727.18,1618.48 4342.67,1508.22 4408.82,1277.52 4793.33,1387.78" fill="rgb(67,32,26)" fill-opacity="0.502"/>
<g transform="translate(4320.00 3344.00) rotate(261) scale(272.00 512.00)"><ellipse cx="0" cy="0" rx="1" ry="1" fill="rgb(0,1,0)" fill-opacity="0.502"/></g>
<g transform="translate(4400.00 1808.00) rotate(296) scale(192.00 64.00)"><ellipse cx="0" cy="0" rx="1" ry="1" fill="rgb(2,1,0)" fill-opacity="0.502"/></g>
<polygon points="3034.84,1348.89 2843.11,1338.84 2853.16,1147.11 3044.89,1157.16" fill="rgb(175,135,205)" fill-opacity="0.502"/>
<polygon points="2006.29,1097.53 2361.74,799.28 2649.71,1142.47 2294.26,1440.72" fill="rgb(43,24,20)" fill-opacity="0.502"/>
<g transform="translate(4768.00 2464.00) rotate(273) scale(96.00 352.00)"><ellipse cx="0" cy="0" rx="1" ry="1" fill="rgb(71,60,49)" fill-opacity="0.502"/></g>
<polygon points="4081.00,2677.30 4112.20,2423.20 4271.00,2442.70 4239.80,2696.80" fill="rgb(107,77,74)" fill-opacity="0.502"/>
<circle cx="2944.00" cy="2496.00" r="32.00" fill="rgb(0,0,0)" fill-opacity="0.502"/>
<circle cx="6976.00" cy="3312.00" r="592.00" fill="rgb(0,2,0)" fill-opacity="0.502"/>
<polygon points="4450.94,2505.86 5074.48,2796.62 4973.06,3014.14 4349.52,2723.38" fill="rgb(12,14,11)" fill-opacity="0.502"/>
<polygon points="4411.21,1583.20 4374.50,1635.63 4164.79,1488.80 4201.50,1436.37" fill="rgb(249,233,255)" fill-opacity="0.502"/>
<circle cx="3952.00" cy="2944.00" r="144.00" fill="rgb(0,0,0)" fill-opacity="0.502"/>
<g transform="translate(3360.00 1328.00) rotate(163) scale(240.00 128.00)"><ellipse cx="0" cy="0" rx="1" ry="1" fill="rgb(134,69,58)" fill-opacity="0.502"/></g>
<circle cx="2464.00" cy="1456.00" r="144.00" fill="rgb(161,122,109)" fill-opacity="0.502"/>
<polygon points="4227.04,869.63 3611.83,1046.03 3580.96,938.37 4196.17,761.97" fill="rgb(0,0,0)" fill-opacity="0.502"/>
<g transform="translate(1776.00 1216.00) rotate(281) scale(208.00 464.00)"><ellipse cx="0" cy="0" rx="1" ry="1" fill="rgb(8,8,9)" fill-opacity="0.502"/></g>
<polygon points="2480.68,2135.65 2425.73,2418.36 2127.32,2360.35 2182.27,2077.64" fill="rgb(159,124,114)" fill-opacity="0.502"/>
<polygon points="3173.52,2062.97 3179.10,1983.17 3434.48,2001.03 3428.90,2080.83" fill="rgb(74,42,38)" fill-opacity="0.502"/>
<g transform="translate(3056.00 2384.00) rotate(72) scale(352.00 48.00)"><ellipse cx="0" cy="0" rx="1" ry="1" fill="rgb(1,9,1)" fill-opacity="0.502"/></g>
<polygon points="2309.01,1295.67 2300.65,1216.11 2602.99,1184.33 2611.35,1263.89" fill="rgb(0,0,0)" fill-opacity="0.502"/>
<circle cx="3264.00" cy="1264.00" r="64.00" fill="rgb(148,131,144)" fill-opacity="0.502"/>
<circle cx="4944.00" cy="560.00" r="224.00" fill="rgb(90,48,37)" fill-opacity="0.502"/>
<circle cx="2992.00" cy="2576.00" r="64.00" fill="rgb(14,11,0)" fill-opacity="0.502"/>
<g transform="translate(2192.00 1728.00) rotate(7) scale(208.00 96.00)"><ellipse cx="0" cy="0" rx="1" ry="1" fill="rgb(139,115,111)" fill-opacity="0.502"/></g>
<g transform="translate(3808.00 112.00) rotate(242) scale(112.00 160.00)"><ellipse cx="0" cy="0" rx="1" ry="1" fill="rgb(111,74,71)" fill-opacity="0.502"/></g>
<polygon points="4481.43,3747.50 4332.22,3626.67 4382.57,3564.50 4531.78,3685.33" fill="rgb(89,83,85)" fill-opacity="0.502"/>
<g transform="translate(4992.00 2544.00) rotate(125) scale(160.00 32.00)"><ellipse cx="0" cy="0" rx="1" ry="1" fill="rgb(102,84,78)" fill-opacity="0.502"/></g>
<polygon points="2736.00,2976.00 2992.00,2976.00 2992.00,3376.00 2736.00,3376.00" fill="rgb(20,47,56)" fill-opacity="0.502"/>
<polygon points="6128.00,2336.00 6256.00,2336.00 6256.00,2400.00 6128.00,2400.00" fill="rgb(245,143,140)" fill-opacity="0.502"/>
<circle cx="5744.00" cy="1744.00" r="144.00" fill="rgb(0,0,0)" fill-opacity="0.502"/>
<g transform="translate(5888.00 576.00) rotate(88) scale(400.00 256.00)"><ellipse cx="0" cy="0" rx="1" ry="1" fill="rgb(42,5,0)" fill-opacity="0.502"/></g>
<polygon points="4432.54,4248.33 4718.21,4144.36 4767.46,4279.67 4481.79,4383.64" fill="rgb(10,10,8)" fill-opacity="0.502"/>
<g transform="translate(2816.00 2800.00) rotate(240) scale(256.00 32.00)"><ellipse cx="0" cy="0" rx="1" ry="1" fill="rgb(91,125,249)" fill-opacity="0.502"/></g>
<polygon points="5928.00,1144.00 5928.00,1240.00 5560.00,1240.00 5560.00,1144.00" fill="rgb(72,24,18)" fill-opacity="0.502"/>
<g transform="translate(3520.00 1536.00) rotate(294) scale(304.00 96.00)"><ellipse cx="0" cy="0" rx="1" ry="1" fill="rgb(83,31,24)" fill-opacity="0.502"/></g>
<circle cx="3968.00" cy="3232.00" r="112.00" fill="rgb(63,51,48)" fill-opacity="0.502"/>
<circle cx="4000.00" cy="3680.00" r="384.00" fill="rgb(0,1,0)" fill-opacity="0.502"/>
<g transform="translate(6992.00 2160.00) rotate(260) scale(352.00 64.00)"><ellipse cx="0" cy="0" rx="1" ry="1" fill="rgb(86,31,29)" fill-opacity="0.502"/></g>
<circle cx="5504.00" cy="2272.00" r="160.00" fill="rgb(48,43,32)" fill-opacity="0.502"/>
<g transform="translate(3168.00 3056.00) rotate(193) scale(96.00 192.00)"><ellipse cx="0" cy="0" rx="1" ry="1" fill="rgb(86,128,254)" fill-opacity="0.502"/></g>
<g transform="translate(3152.00 2704.00) rotate(135) scale(48.00 352.00)"><ellipse cx="0" cy="0" rx="1" ry="1" fill="rgb(13,40,45)" fill-opacity="0.502"/></g>
<g transform="translate(4272.00 1776.00) rotate(298) scale(256.00 64.00)"><ellipse cx="0" cy="0" rx="1" ry="1" fill="rgb(160,184,242)" fill-opacity="0.502"/></g>
<g transform="translate(6112.00 3744.00) rotate(169) scale(512.00 224.00)"><ellipse cx="0" cy="0" rx="1" ry="1" fill="rgb(19,20,14)" fill-opacity="0.502"/></g>
<g transform="translate(5408.00 80.00) rotate(309) scale(224.00 224.00)"><ellipse cx="0" cy="0" rx="1" ry="1" fill="rgb(9,7,1)" fill-opacity="0.502"/></g>
<g transform="translate(2960.00 4368.00) rotate(274) scale(432.00 1056.00)"><ellipse cx="0" cy="0" rx="1" ry="1" fill="rgb(1,3,0)" fill-opacity="0.502"/></g>
<polygon points="5045.73,4276.02 4895.69,3922.55 5514.27,3659.98 5664.31,4013.45" fill="rgb(10,10,5)" fill-opacity="0.502"/>
<circle cx="3344.00" cy="3312.00" r="144.00" fill="rgb(41,35,21)" fill-opacity="0.502"/>
<circle cx="1824.00" cy="2640.00" r="240.00" fill="rgb(9,10,8)" fill-opacity="0.502"/>
<circle cx="3776.00" cy="2432.00" r="224.00" fill="rgb(29,19,16)" fill-opacity="0.502"/>
<polygon points="4144.17,2000.42 4085.66,2054.98 4063.83,2031.58 4122.34,1977.02" fill="rgb(40,70,168)" fill-opacity="0.502"/>
<circle cx="2528.00" cy="3824.00" r="112.00" fill="rgb(69,42,34)" fill-opacity="0.502"/>
<polygon points="2355.77,1920.39 2348.23,1488.45 2396.23,1487.61 2403.77,1919.55" fill="rgb(89,73,66)" fill-opacity="0.502"/>
<circle cx="5152.00" cy="1008.00" r="208.00" fill="rgb(62,33,27)" fill-opacity="0.502"/>
<polygon points="6727.36,4482.20 6508.68,4693.38 6408.64,4589.80 6627.32,4378.62" fill="rgb(0,0,0)" fill-opacity="0.502"/>
<polygon points="3063.19,1238.01 2862.27,1184.18 2936.81,905.99 3137.73,959.82" fill="rgb(160,78,67)" fill-opacity="0.502"/>
<polygon points="2863.15,798.84 3115.04,659.21 3184.85,785.16 2932.96,924.79" fill="rgb(95,66,67)" fill-opacity="0.502"/>
<polygon points="3287.34,1442.73 3461.17,1470.26 3448.66,1549.27 3274.83,1521.74" fill="rgb(136,97,90)" fill-opacity="0.502"/>
<polygon points="5741.21,1132.04 5925.06,1286.31 5698.79,1555.96 5514.94,1401.69" fill="rgb(157,68,60)" fill-opacity="0.502"/>
<circle cx="6896.00" cy="2576.00" r="160.00" fill="rgb(34,20,16)" fill-opacity="0.502"/>
<polygon points="6904.16,4625.11 6830.89,4248.16 7207.84,4174.89 7281.11,4551.84" fill="rgb(0,1,0)" fill-opacity="0.502"/>
<g transform="translate(5456.00 3360.00) rotate(174) scale(48.00 336.00)"><ellipse cx="0" cy="0" rx="1" ry="1" fill="rgb(80,67,55)" fill-opacity="0.502"/></g>
<g transform="translate(5168.00 4320.00) rotate(234) scale(208.00 464.00)"><ellipse cx="0" cy="0" rx="1" ry="1" fill="rgb(0,0,0)" fill-opacity="0.502"/></g>
<polygon points="6760.31,2357.48 6397.79,2526.53 6343.69,2410.52 6706.21,2241.47" fill="rgb(141,57,43)" fill-opacity="0.502"/>
<g transform="translate(3648.00 16.00) rotate(252) scale(176.00 64.00)"><ellipse cx="0" cy="0" rx="1" ry="1" fill="rgb(12,2,0)" fill-opacity="0.502"/></g>
<circle cx="6576.00" cy="3744.00" r="288.00" fill="rgb(12,14,8)" fill-opacity="0.502"/>
<g transform="translate(3424.00 800.00) rotate(192) scale(256.00 80.00)"><ellipse cx="0" cy="0" rx="1" ry="1" fill="rgb(98,76,77)" fill-opacity="0.502"/></g>
<polygon points="6458.47,1390.30 6305.70,1226.47 6469.53,1073.70 6622.30,1237.53" fill="rgb(33,22,20)" fill-opacity="0.502"/>
<g transform="translate(4352.00 608.00) rotate(254) scale(96.00 656.00)"><ellipse cx="0" cy="0" rx="1" ry="1" fill="rgb(84,48,41)" fill-opacity="0.502"/></g>
<polygon points="3925.35,4084.69 3729.43,4193.28 3690.65,4123.31 3886.57,4014.72" fill="rgb(62,64,64)" fill-opacity="0.502"/>
<polygon points="2575.74,2861.79 2822.71,3346.50 2352.26,3586.21 2105.29,3101.50" fill="rgb(1,3,0)" fill-opacity="0.502"/>
<polygon points="6593.85,1793.41 6541.20,2222.19 6414.15,2206.59 6466.80,1777.81" fill="rgb(21,0,0)" fill-opacity="0.502"/>
<g transform="translate(3280.00 2352.00) rotate(360) scale(112.00 320.00)"><ellipse cx="0" cy="0" rx="1" ry="1" fill="rgb(160,110,112)" fill-opacity="0.502"/></g>
<polygon points="6198.33,1677.61 6482.79,1722.66 6377.67,2386.39 6093.21,2341.34" fill="rgb(86,3,3)" fill-opacity="0.502"/>
<polygon points="2340.76,1658.53 2133.85,1943.30 2043.24,1877.47 2250.15,1592.70" fill="rgb(159,138,150)" fill-opacity="0.502"/>
<polygon points="2979.65,2363.55 2651.55,2691.65 2572.35,2612.45 2900.45,2284.35" fill="rgb(108,104,164)" fill-opacity="0.502"/>
<g transform="translate(6800.00 1312.00) rotate(149) scale(336.00 48.00)"><ellipse cx="0" cy="0" rx="1" ry="1" fill="rgb(154,120,115)" fill-opacity="0.502"/></g>
<g transform="translate(6560.00 4224.00) rotate(143) scale(304.00 144.00)"><ellipse cx="0" cy="0" rx="1" ry="1" fill="rgb(113,79,98)" fill-opacity="0.502"/></g>
<circle cx="2512.00" cy="1664.00" r="160.00" fill="rgb(171,155,189)" fill-opacity="0.502"/>
<circle cx="3984.00" cy="2224.00" r="48.00" fill="rgb(197,233,255)" fill-opacity="0.502"/>
<polygon points="4467.12,2491.25 5097.99,2112.18 5196.88,2276.75 4566.01,2655.82" fill="rgb(57,46,35)" fill-opacity="0.502"/>
<polygon points="3346.20,2540.71 3280.53,2360.29 3821.80,2163.29 3887.47,2343.71" fill="rgb(77,36,26)" fill-opacity="0.502"/>
<polygon points="4262.37,2446.94 4449.60,2272.35 4569.63,2401.06 4382.40,2575.65" fill="rgb(70,72,70)" fill-opacity="0.502"/>
<circle cx="4256.00" cy="1648.00" r="80.00" fill="rgb(105,64,74)" fill-opacity="0.502"/>
<polygon points="6972.97,803.27 6830.41,875.90 6627.03,476.73 6769.59,404.10" fill="rgb(94,45,31)" fill-opacity="0.502"/>
<polygon points="3401.62,2729.37 3601.56,2672.04 3782.38,3302.63 3582.44,3359.96" fill="rgb(1,3,0)" fill-opacity="0.502"/>
<polygon points="4054.02,1739.98 4083.02,1753.50 3913.98,2116.02 3884.98,2102.50" fill="rgb(61,15,0)" fill-opacity="0.502"/>
<polygon points="6270.06,4318.39 6305.78,4829.14 6241.94,4833.61 6206.22,4322.86" fill="rgb(29,26,21)" fill-opacity="0.502"/>
<polygon points="2727.69,2382.24 2744.43,2190.97 2776.31,2193.76 2759.57,2385.03" fill="rgb(210,182,199)" fill-opacity="0.502"/>
<g transform="translate(3344.00 416.00) rotate(330) scale(288.00 336.00)"><ellipse cx="0" cy="0" rx="1" ry="1" fill="rgb(9,9,1)" fill-opacity="0.502"/></g>
<polygon points="2838.81,1019.09 2271.20,1236.97 2185.19,1012.91 2752.80,795.03" fill="rgb(63,47,43)" fill-opacity="0.502"/>
<polygon points="4070.55,199.17 3959.64,183.58 3977.45,56.83 4088.36,72.42" fill="rgb(32,31,26)" fill-opacity="0.502"/>
<polygon points="3971.11,1239.29 4091.87,1344.26 4028.89,1416.71 3908.13,1311.74" fill="rgb(144,116,115)" fill-opacity="0.502"/>
<polygon points="4696.22,231.42 4888.93,17.39 5447.78,520.58 5255.07,734.61" fill="rgb(57,30,23)" fill-opacity="0.502"/>
<polygon points="2036.62,1813.93 2058.07,1988.62 1883.38,2010.07 1861.93,1835.38" fill="rgb(52,13,8)" fill-opacity="0.502"/>
<circle cx="3072.00" cy="2640.00" r="96.00" fill="rgb(91,82,87)" fill-opacity="0.502"/>
<g transform="translate(4512.00 1152.00) rotate(158) scale(448.00 320.00)"><ellipse cx="0" cy="0" rx="1" ry="1" fill="rgb(78,42,32)" fill-opacity="0.502"/></g>
<circle cx="4176.00" cy="0.00" r="160.00" fill="rgb(0,7,7)" fill-opacity="0.502"/>
<polygon points="6970.64,3154.07 5873.08,3553.55 5621.36,2861.93 6718.92,2462.45" fill="rgb(4,7,0)" fill-opacity="0.502"/>
<circle cx="4784.00" cy="768.00" r="80.00" fill="rgb(0,0,0)" fill-opacity="0.502"/>
<polygon points="4147.81,2933.93 4118.14,2945.92 4076.19,2842.07 4105.86,2830.08" fill="rgb(206,225,235)" fill-opacity="0.502"/>
<circle cx="6224.00" cy="656.00" r="128.00" fill="rgb(98,50,35)" fill-opacity="0.502"/>
<g transform="translate(7344.00 1312.00) rotate(177) scale(272.00 368.00)"><ellipse cx="0" cy="0" rx="1" ry="1" fill="rgb(0,0,0)" fill-opacity="0.502"/></g>
<circle cx="6880.00" cy="1360.00" r="112.00" fill="rgb(52,0,0)" fill-opacity="0.502"/>
<polygon points="3953.54,1771.60 3934.28,2139.10 3806.46,2132.40 3825.72,1764.90" fill="rgb(61,25,15)" fill-opacity="0.502"/>
<polygon points="2729.83,1725.32 2603.96,1379.51 2694.17,1346.68 2820.04,1692.49" fill="rgb(71,33,21)" fill-opacity="0.502"/>
<polygon points="4564.08,3947.66 4608.54,3695.55 4907.92,3748.34 4863.46,4000.45" fill="rgb(0,2,0)" fill-opacity="0.502"/>
<g transform="translate(4960.00 2976.00) rotate(170) scale(528.00 48.00)"><ellipse cx="0" cy="0" rx="1" ry="1" fill="rgb(52,45,39)" fill-opacity="0.502"/></g>
<circle cx="7632.00" cy="2240.00" r="560.00" fill="rgb(0,0,0)" fill-opacity="0.502"/>
<circle cx="4128.00" cy="1536.00" r="80.00" fill="rgb(36,33,42)" fill-opacity="0.502"/>
<g transform="translate(5488.00 2816.00) rotate(78) scale(112.00 64.00)"><ellipse cx="0" cy="0" rx="1" ry="1" fill="rgb(151,110,118)" fill-opacity="0.502"/></g>
<polygon points="2928.54,2096.36 2954.10,2115.62 2607.46,2575.64 2581.90,2556.38" fill="rgb(76,50,56)" fill-opacity="0.502"/>
<g transform="translate(4240.00 2560.00) rotate(54) scale(176.00 176.00)"><ellipse cx="0" cy="0" rx="1" ry="1" fill="rgb(93,75,82)" fill-opacity="0.502"/></g>
<polygon points="6973.53,2047.69 6660.53,1981.16 6690.47,1840.31 7003.47,1906.84" fill="rgb(131,57,42)" fill-opacity="0.502"/>
<g transform="translate(3200.00 816.00) rotate(269) scale(64.00 416.00)"><ellipse cx="0" cy="0" rx="1" ry="1" fill="rgb(103,79,77)" fill-opacity="0.502"/></g>
<circle cx="6880.00" cy="1024.00" r="176.00" fill="rgb(35,17,11)" fill-opacity="0.502"/>
<polygon points="2772.28,1361.38 2905.79,1307.44 2971.72,1470.62 2838.21,1524.56" fill="rgb(82,78,93)" fill-opacity="0.502"/>
<polygon points="5023.48,1015.08 5197.67,1713.69 5104.52,1736.92 4930.33,1038.31" fill="rgb(0,3,0)" fill-opacity="0.502"/>
<g transform="translate(4288.00 832.00) rotate(259) scale(32.00 560.00)"><ellipse cx="0" cy="0" rx="1" ry="1" fill="rgb(0,0,0)" fill-opacity="0.502"/></g>
<polygon points="3910.52,275.07 3982.45,97.05 4249.48,204.93 4177.55,382.95" fill="rgb(0,3,0)" fill-opacity="0.502"/>
<g transform="translate(2112.00 2656.00) rotate(306) scale(96.00 448.00)"><ellipse cx="0" cy="0" rx="1" ry="1" fill="rgb(20,14,15)" fill-opacity="0.502"/></g>
<polygon points="3293.96,1385.56 3342.81,1636.86 3170.04,1670.44 3121.19,1419.14" fill="rgb(76,40,36)" fill-opacity="0.502"/>
<polygon points="5773.15,1984.54 5803.41,1974.12 5938.85,2367.46 5908.59,2377.88" fill="rgb(85,65,65)" fill-opacity="0.502"/>
<circle cx="2608.00" cy="0.00" r="352.00" fill="rgb(0,5,0)" fill-opacity="0.502"/>
<polygon points="4686.23,4431.30 4578.86,4590.48 4273.77,4384.70 4381.14,4225.52" fill="rgb(0,0,0)" fill-opacity="0.502"/>
<g transform="translate(7440.00 208.00) rotate(46) scale(480.00 336.00)"><ellipse cx="0" cy="0" rx="1" ry="1" fill="rgb(0,0,0)" fill-opacity="0.502"/></g>
<circle cx="800.00" cy="640.00" r="864.00" fill="rgb(0,0,0)" fill-opacity="0.502"/>
<circle cx="6832.00" cy="1584.00" r="48.00" fill="rgb(242,234,233)" fill-opacity="0.502"/>
<circle cx="448.00" cy="2608.00" r="1248.00" fill="rgb(0,0,0)" fill-opacity="0.502"/>
<circle cx="2672.00" cy="720.00" r="160.00" fill="rgb(5,8,7)" fill-opacity="0.502"/>
<polygon points="6026.46,4435.42 5765.03,4032.86 5845.54,3980.58 6106.97,4383.14" fill="rgb(21,21,24)" fill-opacity="0.502"/>
<g transform="translate(7728.00 3888.00) rotate(139) scale(400.00 1600.00)"><ellipse cx="0" cy="0" rx="1" ry="1" fill="rgb(0,0,0)" fill-opacity="0.502"/></g>
<polygon points="2612.46,1951.64 2596.47,1952.20 2587.54,1696.36 2603.53,1695.80" fill="rgb(85,93,153)" fill-opacity="0.502"/>
<polygon points="5744.56,1743.95 6012.90,1946.16 5791.44,2240.05 5523.10,2037.84" fill="rgb(4,4,0)" fill-opacity="0.502"/>
<polygon points="4719.20,579.42 4054.64,757.49 4000.80,556.58 4665.36,378.51" fill="rgb(75,42,36)" fill-opacity="0.502"/>
<polygon points="7058.56,3841.68 7103.63,3926.44 6637.44,4174.32 6592.37,4089.56" fill="rgb(123,85,111)" fill-opacity="0.502"/>
<circle cx="3680.00" cy="3488.00" r="320.00" fill="rgb(8,4,0)" fill-opacity="0.502"/>
<polygon points="5399.80,3985.52 4888.61,4171.58 4872.20,4126.48 5383.39,3940.42" fill="rgb(63,62,56)" fill-opacity="0.502"/>
<polygon points="3095.42,988.19 3318.19,964.77 3336.58,1139.81 3113.81,1163.23" fill="rgb(103,51,39)" fill-opacity="0.502"/>
<g transform="translate(1904.00 608.00) rotate(215) scale(416.00 288.00)"><ellipse cx="0" cy="0" rx="1" ry="1" fill="rgb(5,7,6)" fill-opacity="0.502"/></g>
<polygon points="6387.97,311.09 6512.17,280.12 6636.03,776.91 6511.83,807.88" fill="rgb(7,5,2)" fill-opacity="0.502"/>
<circle cx="3040.00" cy="3952.00" r="304.00" fill="rgb(6,4,0)" fill-opacity="0.502"/>
<circle cx="5648.00" cy="1056.00" r="96.00" fill="rgb(168,74,67)" fill-opacity="0.502"/>
<polygon points="4950.68,768.61 5044.62,1057.73 4953.32,1087.39 4859.38,798.27" fill="rgb(4,0,0)" fill-opacity="0.502"/>
<circle cx="4128.00" cy="2944.00" r="48.00" fill="rgb(110,119,128)" fill-opacity="0.502"/>
<circle cx="6144.00" cy="0.00" r="192.00" fill="rgb(83,5,3)" fill-opacity="0.502"/>
<polygon points="6104.04,3657.20 6423.79,4097.30 6151.96,4294.80 5832.21,3854.70" fill="rgb(5,6,1)" fill-opacity="0.502"/>
<polygon points="4072.95,1267.76 4070.44,1315.69 3623.05,1292.24 3625.56,1244.31" fill="rgb(27,3,0)" fill-opacity="0.502"/>
<polygon points="2414.49,1453.86 2449.02,1420.52 2593.51,1570.14 2558.98,1603.48" fill="rgb(146,116,106)" fill-opacity="0.502"/>
<circle cx="6240.00" cy="832.00" r="128.00" fill="rgb(117,52,36)" fill-opacity="0.502"/>
<polygon points="3973.81,1493.05 4009.48,1460.93 4202.19,1674.95 4166.52,1707.07" fill="rgb(183,187,255)" fill-opacity="0.502"/>
<polygon points="2448.00,1920.00 2416.00,1920.00 2416.00,1824.00 2448.00,1824.00" fill="rgb(255,228,225)" fill-opacity="0.502"/>
<polygon points="2776.09,389.87 2820.19,543.67 2727.91,570.13 2683.81,416.33" fill="rgb(184,190,196)" fill-opacity="0.502"/>
<circle cx="6736.00" cy="3776.00" r="224.00" fill="rgb(11,14,7)" fill-opacity="0.502"/>
<circle cx="736.00" cy="4288.00" r="880.00" fill="rgb(0,0,0)" fill-opacity="0.502"/>
<circle cx="4480.00" cy="1744.00" r="128.00" fill="rgb(45,32,15)" fill-opacity="0.502"/>
<g transform="translate(4064.00 2912.00) rotate(165) scale(32.00 352.00)"><ellipse cx="0" cy="0" rx="1" ry="1" fill="rgb(0,0,0)" fill-opacity="0.502"/></g>
<polygon points="3023.64,2375.53 2806.30,2321.34 2864.36,2088.47 3081.70,2142.66" fill="rgb(17,33,32)" fill-opacity="0.502"/>
<g transform="translate(6832.00 4592.00) rotate(360) scale(432.00 192.00)"><ellipse cx="0" cy="0" rx="1" ry="1" fill="rgb(1,3,0)" fill-opacity="0.502"/></g>
<g transform="translate(4016.00 3280.00) rotate(20) scale(128.00 64.00)"><ellipse cx="0" cy="0" rx="1" ry="1" fill="rgb(51,40,36)" fill-opacity="0.502"/></g>
<circle cx="4592.00" cy="4128.00" r="160.00" fill="rgb(55,40,33)" fill-opacity="0.502"/>
<polygon points="6659.77,891.21 6742.59,582.11 7036.23,660.79 6953.41,969.89" fill="rgb(79,37,27)" fill-opacity="0.502"/>
<polygon points="2665.33,2608.62 2142.53,2407.94 2182.67,2303.38 2705.47,2504.06" fill="rgb(120,71,62)" fill-opacity="0.502"/>
<polygon points="3137.70,2601.36 3333.80,2180.83 3406.30,2214.64 3210.20,2635.17" fill="rgb(154,104,111)" fill-opacity="0.502"/>
<polygon points="3220.96,2054.24 3192.17,2178.96 3083.04,2153.76 3111.83,2029.04" fill="rgb(160,255,255)" fill-opacity="0.502"/>
<polygon points="3027.44,1763.27 2839.34,1504.39 3020.56,1372.73 3208.66,1631.61" fill="rgb(174,123,184)" fill-opacity="0.502"/>
<circle cx="6384.00" cy="1568.00" r="112.00" fill="rgb(188,14,7)" fill-opacity="0.502"/>
<polygon points="3929.32,4130.69 4208.56,3760.13 4374.68,3885.31 4095.44,4255.87" fill="rgb(0,0,0)" fill-opacity="0.502"/>
<polygon points="2262.58,1446.94 2004.77,1608.04 1945.42,1513.06 2203.23,1351.96" fill="rgb(93,52,44)" fill-opacity="0.502"/>
<polygon points="2756.95,1580.79 2576.67,1241.74 2619.05,1219.21 2799.33,1558.26" fill="rgb(49,23,14)" fill-opacity="0.502"/>
<polygon points="5601.03,1515.93 5830.46,1843.59 5646.97,1972.07 5417.54,1644.41" fill="rgb(4,5,0)" fill-opacity="0.502"/>
<g transform="translate(3536.00 2096.00) rotate(2) scale(128.00 256.00)"><ellipse cx="0" cy="0" rx="1" ry="1" fill="rgb(87,41,32)" fill-opacity="0.502"/></g>
<polygon points="6760.24,2253.96 6695.16,2400.13 6519.76,2322.04 6584.84,2175.87" fill="rgb(138,55,42)" fill-opacity="0.502"/>
<g transform="translate(2448.00 1552.00) rotate(334) scale(320.00 16.00)"><ellipse cx="0" cy="0" rx="1" ry="1" fill="rgb(144,108,105)" fill-opacity="0.502"/></g>
<polygon points="5813.93,889.67 5483.17,1050.99 5434.07,950.33 5764.83,789.01" fill="rgb(0,2,0)" fill-opacity="0.502"/>
<g transform="translate(4208.00 2688.00) rotate(109) scale(80.00 128.00)"><ellipse cx="0" cy="0" rx="1" ry="1" fill="rgb(86,62,54)" fill-opacity="0.502"/></g>
<polygon points="6999.38,1407.67 7095.74,1514.68 7000.62,1600.33 6904.26,1493.32" fill="rgb(82,12,9)" fill-opacity="0.502"/>
<polygon points="2082.00,1374.48 1953.52,1650.00 1678.00,1521.52 1806.48,1246.00" fill="rgb(16,12,12)" fill-opacity="0.502"/>
<polygon points="7081.93,1530.37 6974.27,1561.24 6886.07,1253.63 6993.73,1222.76" fill="rgb(28,0,0)" fill-opacity="0.502"/>
<circle cx="2976.00" cy="2800.00" r="64.00" fill="rgb(17,42,37)" fill-opacity="0.502"/>
<polygon points="5138.84,1865.67 5312.16,2095.67 5197.16,2182.33 5023.84,1952.33" fill="rgb(124,92,94)" fill-opacity="0.502"/>
<polygon points="5143.42,2510.95 5189.99,2522.56 5112.58,2833.05 5066.01,2821.44" fill="rgb(0,0,0)" fill-opacity="0.502"/>
<g transform="translate(2928.00 3568.00) rotate(331) scale(400.00 64.00)"><ellipse cx="0" cy="0" rx="1" ry="1" fill="rgb(88,53,45)" fill-opacity="0.502"/></g>
<g transform="translate(2880.00 208.00) rotate(121) scale(256.00 320.00)"><ellipse cx="0" cy="0" rx="1" ry="1" fill="rgb(11,13,9)" fill-opacity="0.502"/></g>
<g transform="translate(3232.00 3392.00) rotate(313) scale(240.00 112.00)"><ellipse cx="0" cy="0" rx="1" ry="1" fill="rgb(33,29,24)" fill-opacity="0.502"/></g>
<polygon points="2278.91,551.52 2204.37,273.33 2297.09,248.48 2371.63,526.67" fill="rgb(56,46,36)" fill-opacity="0.502"/>
<polygon points="2843.05,1009.13 3253.93,944.05 3268.95,1038.87 2858.07,1103.95" fill="rgb(141,66,54)" fill-opacity="0.502"/>
<polygon points="5323.53,3190.86 5177.36,3125.78 5268.47,2921.14 5414.64,2986.22" fill="rgb(1,2,0)" fill-opacity="0.502"/>
<circle cx="6512.00" cy="1136.00" r="160.00" fill="rgb(36,18,15)" fill-opacity="0.502"/>
<circle cx="4720.00" cy="2000.00" r="64.00" fill="rgb(93,105,203)" fill-opacity="0.502"/>
<circle cx="7792.00" cy="3408.00" r="880.00" fill="rgb(0,0,0)" fill-opacity="0.502"/>
<g transform="translate(6048.00 3680.00) rotate(121) scale(144.00 576.00)"><ellipse cx="0" cy="0" rx="1" ry="1" fill="rgb(11,13,9)" fill-opacity="0.502"/></g>
<polygon points="6460.10,2311.28 6248.72,2140.10 6419.90,1928.72 6631.28,2099.90" fill="rgb(45,1,0)" fill-opacity="0.502"/>
<polygon points="4898.68,3791.74 4791.67,3695.38 4877.32,3600.26 4984.33,3696.62" fill="rgb(93,77,69)" fill-opacity="0.502"/>
<polygon points="2956.33,3041.72 2938.35,3086.23 2819.67,3038.28 2837.65,2993.77" fill="rgb(0,0,0)" fill-opacity="0.502"/>
<polygon points="2610.52,1904.26 2605.49,1616.30 2637.48,1615.74 2642.51,1903.70" fill="rgb(204,198,252)" fill-opacity="0.502"/>
<polygon points="5224.54,813.50 4753.36,721.91 4759.46,690.50 5230.64,782.09" fill="rgb(99,62,53)" fill-opacity="0.502"/>
<g transform="translate(5200.00 944.00) rotate(239) scale(176.00 160.00)"><ellipse cx="0" cy="0" rx="1" ry="1" fill="rgb(77,36,29)" fill-opacity="0.502"/></g>
<circle cx="2864.00" cy="528.00" r="64.00" fill="rgb(64,69,87)" fill-opacity="0.502"/>
<polygon points="6528.50,1456.71 6431.50,1512.71 6287.50,1263.29 6384.50,1207.29" fill="rgb(68,3,0)" fill-opacity="0.502"/>
<polygon points="4674.22,2142.72 4530.24,2145.24 4525.78,1889.28 4669.76,1886.76" fill="rgb(104,95,153)" fill-opacity="0.502"/>
<g transform="translate(5424.00 2912.00) rotate(185) scale(208.00 32.00)"><ellipse cx="0" cy="0" rx="1" ry="1" fill="rgb(76,57,49)" fill-opacity="0.502"/></g>
<circle cx="3968.00" cy="1072.00" r="128.00" fill="rgb(80,49,36)" fill-opacity="0.502"/>
<polygon points="3713.25,3088.45 3676.48,3057.60 3758.75,2959.55 3795.52,2990.40" fill="rgb(80,82,88)" fill-opacity="0.502"/>
<polygon points="6267.84,4250.99 6259.13,4237.58 6420.16,4133.01 6428.87,4146.42" fill="rgb(122,126,126)" fill-opacity="0.502"/>
<polygon points="3413.17,2726.18 3353.82,2821.17 3258.83,2761.82 3318.18,2666.83" fill="rgb(0,0,0)" fill-opacity="0.502"/>
<polygon points="4982.76,1737.16 4973.36,1724.21 5465.24,1366.84 5474.64,1379.79" fill="rgb(3,3,2)" fill-opacity="0.502"/>
<g transform="translate(2000.00 3376.00) rotate(272) scale(304.00 272.00)"><ellipse cx="0" cy="0" rx="1" ry="1" fill="rgb(3,5,0)" fill-opacity="0.502"/></g>
<g transform="translate(2992.00 1616.00) rotate(161) scale(48.00 144.00)"><ellipse cx="0" cy="0" rx="1" ry="1" fill="rgb(174,143,253)" fill-opacity="0.502"/></g>
<g transform="translate(3760.00 2640.00) rotate(33) scale(64.00 432.00)"><ellipse cx="0" cy="0" rx="1" ry="1" fill="rgb(20,23,21)" fill-opacity="0.502"/></g>
<g transform="translate(7360.00 1008.00) rotate(344) scale(688.00 64.00)"><ellipse cx="0" cy="0" rx="1" ry="1" fill="rgb(2,0,0)" fill-opacity="0.502"/></g>
<circle cx="4912.00" cy="1952.00" r="112.00" fill="rgb(15,20,2)" fill-opacity="0.502"/>
<polygon points="4298.83,1308.82 4216.40,884.76 4389.17,851.18 4471.60,1275.24" fill="rgb(97,57,43)" fill-opacity="0.502"/>
<g transform="translate(5744.00 1232.00) rotate(92) scale(272.00 48.00)"><ellipse cx="0" cy="0" rx="1" ry="1" fill="rgb(152,62,53)" fill-opacity="0.502"/></g>
<polygon points="4236.46,1092.33 4209.16,1314.66 3891.54,1275.67 3918.84,1053.34" fill="rgb(78,40,28)" fill-opacity="0.502"/>
<polygon points="4046.66,2202.83 4298.55,2063.20 4337.34,2133.17 4085.45,2272.80" fill="rgb(29,19,12)" fill-opacity="0.502"/>
<circle cx="2752.00" cy="592.00" r="80.00" fill="rgb(21,26,29)" fill-opacity="0.502"/>
<polygon points="4082.25,2658.00 4045.99,2243.58 4109.75,2238.00 4146.01,2652.42" fill="rgb(41,72,124)" fill-opacity="0.502"/>
<polygon points="3734.36,3112.22 3540.55,3568.79 3481.64,3543.78 3675.45,3087.21" fill="rgb(19,16,15)" fill-opacity="0.502"/>
<g transform="translate(4752.00 3664.00) rotate(205) scale(144.00 64.00)"><ellipse cx="0" cy="0" rx="1" ry="1" fill="rgb(51,52,45)" fill-opacity="0.502"/></g>
<circle cx="6464.00" cy="0.00" r="320.00" fill="rgb(45,3,0)" fill-opacity="0.502"/>
<polygon points="2721.75,286.33 2788.44,355.38 2558.25,577.67 2491.56,508.62" fill="rgb(55,54,53)" fill-opacity="0.502"/>
<circle cx="5008.00" cy="1600.00" r="128.00" fill="rgb(40,29,27)" fill-opacity="0.502"/>
<polygon points="4824.73,1822.94 4619.29,1855.48 4599.27,1729.06 4804.71,1696.52" fill="rgb(108,81,83)" fill-opacity="0.502"/>
<polygon points="5627.72,1423.30 5214.89,1933.11 5140.28,1872.70 5553.11,1362.89" fill="rgb(16,10,8)" fill-opacity="0.502"/>
<polygon points="4230.71,3200.66 3902.05,3130.80 3945.29,2927.34 4273.95,2997.20" fill="rgb(0,0,0)" fill-opacity="0.502"/>
<polygon points="5595.34,2898.69 5325.98,2860.84 5332.66,2813.31 5602.02,2851.16" fill="rgb(131,103,102)" fill-opacity="0.502"/>
<polygon points="3657.94,1630.15 3820.76,1731.89 3702.06,1921.85 3539.24,1820.11" fill="rgb(0,4,0)" fill-opacity="0.502"/>
<circle cx="4240.00" cy="160.00" r="176.00" fill="rgb(4,7,1)" fill-opacity="0.502"/>
<polygon points="6434.19,1420.06 6247.89,1373.61 6429.81,643.94 6616.11,690.39" fill="rgb(57,28,20)" fill-opacity="0.502"/>
<polygon points="5700.81,894.75 5783.08,796.70 5979.19,961.25 5896.92,1059.30" fill="rgb(2,4,0)" fill-opacity="0.502"/>
<circle cx="3168.00" cy="2896.00" r="80.00" fill="rgb(65,124,241)" fill-opacity="0.502"/>
<circle cx="3344.00" cy="1168.00" r="80.00" fill="rgb(55,11,14)" fill-opacity="0.502"/>
<g transform="translate(4640.00 2320.00) rotate(146) scale(80.00 80.00)"><ellipse cx="0" cy="0" rx="1" ry="1" fill="rgb(120,106,141)" fill-opacity="0.502"/></g>
<polygon points="3276.82,699.67 3765.29,613.54 3779.18,692.33 3290.71,778.46" fill="rgb(51,29,22)" fill-opacity="0.502"/>
<circle cx="1872.00" cy="2096.00" r="128.00" fill="rgb(105,61,50)" fill-opacity="0.502"/>
<g transform="translate(6000.00 1344.00) rotate(268) scale(384.00 96.00)"><ellipse cx="0" cy="0" rx="1" ry="1" fill="rgb(2,2,0)" fill-opacity="0.502"/></g>
<polygon points="2544.91,305.40 2565.95,262.26 2911.09,430.60 2890.05,473.74" fill="rgb(45,39,43)" fill-opacity="0.502"/>
<polygon points="2920.40,3510.80 2764.57,3125.09 3031.60,3017.20 3187.43,3402.91" fill="rgb(41,55,55)" fill-opacity="0.502"/>
<polygon points="6359.34,874.59 6443.51,1047.16 6184.66,1173.41 6100.49,1000.84" fill="rgb(97,44,29)" fill-opacity="0.502"/>
<polygon points="6353.39,2911.70 6337.40,2912.25 6334.61,2832.30 6350.60,2831.75" fill="rgb(109,109,98)" fill-opacity="0.502"/>
<polygon points="5740.27,3365.50 5695.77,3347.51 5731.73,3258.50 5776.23,3276.49" fill="rgb(125,117,103)" fill-opacity="0.502"/>
<polygon points="7056.29,2734.35 6984.29,2609.65 7039.71,2577.65 7111.71,2702.35" fill="rgb(48,35,40)" fill-opacity="0.502"/>
<polygon points="1465.60,983.68 1978.46,433.70 2294.40,728.32 1781.54,1278.30" fill="rgb(8,9,9)" fill-opacity="0.502"/>
<polygon points="5330.77,3652.15 5339.13,3731.71 4957.23,3771.85 4948.87,3692.29" fill="rgb(95,69,66)" fill-opacity="0.502"/>
<polygon points="3548.18,945.04 3463.42,990.11 3395.82,862.96 3480.58,817.89" fill="rgb(1,2,0)" fill-opacity="0.502"/>
<polygon points="4006.91,4461.67 4216.61,4314.84 4345.09,4498.33 4135.39,4645.16" fill="rgb(56,16,12)" fill-opacity="0.502"/>
<g transform="translate(2864.00 3392.00) rotate(126) scale(208.00 64.00)"><ellipse cx="0" cy="0" rx="1" ry="1" fill="rgb(31,37,33)" fill-opacity="0.502"/></g>
<g transform="translate(2320.00 2016.00) rotate(257) scale(384.00 32.00)"><ellipse cx="0" cy="0" rx="1" ry="1" fill="rgb(195,179,215)" fill-opacity="0.502"/></g>
<circle cx="3744.00" cy="784.00" r="96.00" fill="rgb(48,21,15)" fill-opacity="0.502"/>
<polygon points="3779.60,4069.76 3751.54,4127.28 3708.40,4106.24 3736.46,4048.72" fill="rgb(58,59,52)" fill-opacity="0.502"/>
<circle cx="2864.00" cy="944.00" r="80.00" fill="rgb(25,10,9)" fill-opacity="0.502"/>
<polygon points="2368.31,3500.18 2480.54,3730.27 1919.69,4003.82 1807.46,3773.73" fill="rgb(13,14,14)" fill-opacity="0.502"/>
<polygon points="2325.20,298.92 2943.78,36.35 3018.80,213.08 2400.22,475.65" fill="rgb(4,5,0)" fill-opacity="0.502"/>
<circle cx="4176.00" cy="2736.00" r="96.00" fill="rgb(68,53,54)" fill-opacity="0.502"/>
<polygon points="4717.14,3160.77 4620.37,2772.65 4930.86,2695.23 5027.63,3083.35" fill="rgb(19,18,15)" fill-opacity="0.502"/>
<circle cx="5376.00" cy="3584.00" r="80.00" fill="rgb(82,65,58)" fill-opacity="0.502"/>
<circle cx="2032.00" cy="1664.00" r="64.00" fill="rgb(129,74,52)" fill-opacity="0.502"/>
<circle cx="4496.00" cy="2784.00" r="144.00" fill="rgb(0,3,0)" fill-opacity="0.502"/>
<g transform="translate(5968.00 1712.00) rotate(353) scale(192.00 112.00)"><ellipse cx="0" cy="0" rx="1" ry="1" fill="rgb(0,5,0)" fill-opacity="0.502"/></g>
<polygon points="6540.18,4320.69 6879.24,4140.42 6931.82,4239.31 6592.76,4419.58" fill="rgb(36,33,25)" fill-opacity="0.502"/>
<polygon points="3260.37,2308.61 3185.53,2553.42 3139.63,2539.39 3214.47,2294.58" fill="rgb(177,133,157)" fill-opacity="0.502"/>
</g>
</svg>