<?xml version="1.0" standalone="no"?>
<svg xmlns="http://www.w3.org/2000/svg" width="8192" height="4608" viewBox="0 0 8192 4608" style="overflow:hidden">
<defs>
<clipPath id="c"><rect x="0" y="0" width="8192" height="4608"/></clipPath>
</defs>
<rect width="8192" height="4608" fill="rgb(30,13,10)"/>
<g clip-path="url(#c)">
<g transform="translate(4960.00 3056.00) rotate(284) scale(592.00 752.00)"><ellipse cx="0" cy="0" rx="1" ry="1" fill="rgb(204,81,59)" fill-opacity="0.502"/></g>
<polygon points="3572.43,3556.50 3349.55,4605.07 2363.57,4395.50 2586.45,3346.93" fill="rgb(255,143,107)" fill-opacity="0.502"/>
<circle cx="4384.00" cy="1328.00" r="688.00" fill="rgb(255,109,80)" fill-opacity="0.502"/>
<circle cx="3632.00" cy="3728.00" r="416.00" fill="rgb(0,0,0)" fill-opacity="0.502"/>
<circle cx="8176.00" cy="2128.00" r="2304.00" fill="rgb(0,0,0)" fill-opacity="0.502"/>
<circle cx="5696.00" cy="2576.00" r="336.00" fill="rgb(155,49,40)" fill-opacity="0.502"/>
<g transform="translate(2240.00 4192.00) rotate(330) scale(288.00 4592.00)"><ellipse cx="0" cy="0" rx="1" ry="1" fill="rgb(0,0,0)" fill-opacity="0.502"/></g>
<g transform="translate(3120.00 3776.00) rotate(258) scale(848.00 176.00)"><ellipse cx="0" cy="0" rx="1" ry="1" fill="rgb(248,129,109)" fill-opacity="0.502"/></g>
<g transform="translate(4160.00 3200.00) rotate(147) scale(288.00 576.00)"><ellipse cx="0" cy="0" rx="1" ry="1" fill="rgb(1,0,0)" fill-opacity="0.502"/></g>
<g transform="translate(4224.00 1584.00) rotate(301) scale(432.00 400.00)"><ellipse cx="0" cy="0" rx="1" ry="1" fill="rgb(207,91,67)" fill-opacity="0.502"/></g>
<g transform="translate(432.00 3120.00) rotate(166) scale(1872.00 4048.00)"><ellipse cx="0" cy="0" rx="1" ry="1" fill="rgb(0,0,0)" fill-opacity="0.502"/></g>
<circle cx="5152.00" cy="2928.00" r="288.00" fill="rgb(225,99,72)" fill-opacity="0.502"/>
<circle cx="4928.00" cy="1168.00" r="560.00" fill="rgb(123,39,30)" fill-opacity="0.502"/>
<g transform="translate(3392.00 3680.00) rotate(255) scale(1312.00 160.00)"><ellipse cx="0" cy="0" rx="1" ry="1" fill="rgb(18,4,0)" fill-opacity="0.502"/></g>
<circle cx="3008.00" cy="4352.00" r="336.00" fill="rgb(255,151,109)" fill-opacity="0.502"/>
<g transform="translate(6832.00 1792.00) rotate(199) scale(96.00 320.00)"><ellipse cx="0" cy="0" rx="1" ry="1" fill="rgb(157,74,67)" fill-opacity="0.502"/></g>
<g transform="translate(1520.00 880.00) rotate(275) scale(1392.00 432.00)"><ellipse cx="0" cy="0" rx="1" ry="1" fill="rgb(20,12,30)" fill-opacity="0.502"/></g>
<circle cx="5088.00" cy="3504.00" r="400.00" fill="rgb(119,41,30)" fill-opacity="0.502"/>
<polygon points="5579.31,2459.34 4647.14,2798.62 4340.69,1956.66 5272.86,1617.38" fill="rgb(3,1,0)" fill-opacity="0.502"/>
<g transform="translate(2768.00 2160.00) rotate(161) scale(192.00 352.00)"><ellipse cx="0" cy="0" rx="1" ry="1" fill="rgb(93,52,66)" fill-opacity="0.502"/></g>
<g transform="translate(2704.00 3680.00) rotate(24) scale(256.00 416.00)"><ellipse cx="0" cy="0" rx="1" ry="1" fill="rgb(204,75,55)" fill-opacity="0.502"/></g>
<g transform="translate(4496.00 4224.00) rotate(259) scale(592.00 640.00)"><ellipse cx="0" cy="0" rx="1" ry="1" fill="rgb(0,0,0)" fill-opacity="0.502"/></g>
<circle cx="7904.00" cy="3568.00" r="1136.00" fill="rgb(0,0,0)" fill-opacity="0.502"/>
<polygon points="2724.82,3788.27 2971.79,4272.98 2715.18,4403.73 2468.21,3919.02" fill="rgb(255,137,96)" fill-opacity="0.502"/>
<circle cx="4816.00" cy="1616.00" r="320.00" fill="rgb(162,74,54)" fill-opacity="0.502"/>
<g transform="translate(368.00 2592.00) rotate(360) scale(784.00 4592.00)"><ellipse cx="0" cy="0" rx="1" ry="1" fill="rgb(0,0,0)" fill-opacity="0.502"/></g>
<g transform="translate(4336.00 2736.00) rotate(360) scale(80.00 304.00)"><ellipse cx="0" cy="0" rx="1" ry="1" fill="rgb(255,135,112)" fill-opacity="0.502"/></g>
<polygon points="2337.56,1873.22 2376.26,2028.46 2174.44,2078.78 2135.74,1923.54" fill="rgb(194,86,72)" fill-opacity="0.502"/>
<g transform="translate(7664.00 1504.00) rotate(181) scale(592.00 4592.00)"><ellipse cx="0" cy="0" rx="1" ry="1" fill="rgb(0,0,0)" fill-opacity="0.502"/></g>
<circle cx="2512.00" cy="2976.00" r="464.00" fill="rgb(8,3,0)" fill-opacity="0.502"/>
<polygon points="4428.70,449.90 4526.90,651.23 3635.30,1086.10 3537.10,884.77" fill="rgb(82,28,25)" fill-opacity="0.502"/>
<circle cx="4032.00" cy="3312.00" r="480.00" fill="rgb(22,8,3)" fill-opacity="0.502"/>
<polygon points="3167.37,1335.95 3869.65,1385.06 3840.63,1800.05 3138.35,1750.94" fill="rgb(17,4,0)" fill-opacity="0.502"/>
<g transform="translate(2976.00 4176.00) rotate(77) scale(1056.00 32.00)"><ellipse cx="0" cy="0" rx="1" ry="1" fill="rgb(73,0,0)" fill-opacity="0.502"/></g>
<g transform="translate(4528.00 2800.00) rotate(241) scale(128.00 224.00)"><ellipse cx="0" cy="0" rx="1" ry="1" fill="rgb(223,104,77)" fill-opacity="0.502"/></g>
<circle cx="5968.00" cy="464.00" r="960.00" fill="rgb(6,3,4)" fill-opacity="0.502"/>
<circle cx="5984.00" cy="3856.00" r="656.00" fill="rgb(10,8,4)" fill-opacity="0.502"/>
<circle cx="6544.00" cy="4016.00" r="512.00" fill="rgb(34,25,22)" fill-opacity="0.502"/>
<g transform="translate(3744.00 0.00) rotate(64) scale(672.00 2416.00)"><ellipse cx="0" cy="0" rx="1" ry="1" fill="rgb(13,1,5)" fill-opacity="0.502"/></g>
<circle cx="5280.00" cy="4336.00" r="416.00" fill="rgb(5,3,0)" fill-opacity="0.502"/>
<circle cx="3616.00" cy="2496.00" r="656.00" fill="rgb(12,4,0)" fill-opacity="0.502"/>
<g transform="translate(1872.00 1760.00) rotate(245) scale(384.00 256.00)"><ellipse cx="0" cy="0" rx="1" ry="1" fill="rgb(40,12,21)" fill-opacity="0.502"/></g>
<g transform="translate(4992.00 768.00) rotate(103) scale(288.00 496.00)"><ellipse cx="0" cy="0" rx="1" ry="1" fill="rgb(74,24,19)" fill-opacity="0.502"/></g>
<g transform="translate(2848.00 4464.00) rotate(170) scale(112.00 768.00)"><ellipse cx="0" cy="0" rx="1" ry="1" fill="rgb(255,137,101)" fill-opacity="0.502"/></g>
<g transform="translate(3920.00 3376.00) rotate(299) scale(576.00 576.00)"><ellipse cx="0" cy="0" rx="1" ry="1" fill="rgb(23,9,5)" fill-opacity="0.502"/></g>
<g transform="translate(6592.00 1264.00) rotate(126) scale(208.00 48.00)"><ellipse cx="0" cy="0" rx="1" ry="1" fill="rgb(178,92,90)" fill-opacity="0.502"/></g>
<circle cx="5840.00" cy="2192.00" r="256.00" fill="rgb(103,31,31)" fill-opacity="0.502"/>
<g transform="translate(5232.00 3664.00) rotate(99) scale(288.00 256.00)"><ellipse cx="0" cy="0" rx="1" ry="1" fill="rgb(102,37,28)" fill-opacity="0.502"/></g>
<g transform="translate(4288.00 1408.00) rotate(35) scale(512.00 448.00)"><ellipse cx="0" cy="0" rx="1" ry="1" fill="rgb(184,82,60)" fill-opacity="0.502"/></g>
<circle cx="5520.00" cy="2608.00" r="192.00" fill="rgb(158,60,47)" fill-opacity="0.502"/>
<g transform="translate(4688.00 2544.00) rotate(199) scale(304.00 96.00)"><ellipse cx="0" cy="0" rx="1" ry="1" fill="rgb(0,0,0)" fill-opacity="0.502"/></g>
<g transform="translate(5056.00 3616.00) rotate(279) scale(128.00 496.00)"><ellipse cx="0" cy="0" rx="1" ry="1" fill="rgb(132,51,41)" fill-opacity="0.502"/></g>
<g transform="translate(3408.00 1056.00) rotate(309) scale(352.00 240.00)"><ellipse cx="0" cy="0" rx="1" ry="1" fill="rgb(14,2,0)" fill-opacity="0.502"/></g>
<circle cx="7872.00" cy="1072.00" r="864.00" fill="rgb(0,0,0)" fill-opacity="0.502"/>
<g transform="translate(6000.00 3168.00) rotate(292) scale(1760.00 320.00)"><ellipse cx="0" cy="0" rx="1" ry="1" fill="rgb(16,7,2)" fill-opacity="0.502"/></g>
<polygon points="5782.30,3942.59 5166.56,3601.29 5321.70,3321.41 5937.44,3662.71" fill="rgb(30,9,4)" fill-opacity="0.502"/>
<polygon points="5328.08,1458.86 5270.49,1708.30 4303.92,1485.14 4361.51,1235.70" fill="rgb(142,51,38)" fill-opacity="0.502"/>
<polygon points="4294.96,790.64 4451.94,927.10 4137.04,1289.36 3980.06,1152.90" fill="rgb(179,87,65)" fill-opacity="0.502"/>
<circle cx="1888.00" cy="2976.00" r="816.00" fill="rgb(15,8,3)" fill-opacity="0.502"/>
<circle cx="2288.00" cy="4544.00" r="448.00" fill="rgb(12,5,1)" fill-opacity="0.502"/>
<circle cx="5264.00" cy="1328.00" r="352.00" fill="rgb(82,23,19)" fill-opacity="0.502"/>
<g transform="translate(2608.00 1296.00) rotate(196) scale(1232.00 544.00)"><ellipse cx="0" cy="0" rx="1" ry="1" fill="rgb(20,5,9)" fill-opacity="0.502"/></g>
<circle cx="1760.00" cy="560.00" r="688.00" fill="rgb(18,10,21)" fill-opacity="0.502"/>
<circle cx="7040.00" cy="32.00" r="48.00" fill="rgb(55,154,255)" fill-opacity="0.502"/>
<circle cx="3024.00" cy="3232.00" r="224.00" fill="rgb(133,69,64)" fill-opacity="0.502"/>
<polygon points="5740.19,2093.45 5871.86,2274.67 5651.81,2434.55 5520.14,2253.33" fill="rgb(133,50,44)" fill-opacity="0.502"/>
<circle cx="2960.00" cy="3488.00" r="224.00" fill="rgb(133,61,50)" fill-opacity="0.502"/>
<g transform="translate(5952.00 1664.00) rotate(79) scale(176.00 704.00)"><ellipse cx="0" cy="0" rx="1" ry="1" fill="rgb(8,3,0)" fill-opacity="0.502"/></g>
<g transform="translate(4800.00 3328.00) rotate(100) scale(368.00 208.00)"><ellipse cx="0" cy="0" rx="1" ry="1" fill="rgb(165,64,49)" fill-opacity="0.502"/></g>
<circle cx="0.00" cy="3344.00" r="1264.00" fill="rgb(0,0,0)" fill-opacity="0.502"/>
<polygon points="6912.95,4146.77 6806.83,4218.34 6431.05,3661.23 6537.17,3589.66" fill="rgb(92,74,75)" fill-opacity="0.502"/>
<circle cx="1408.00" cy="1760.00" r="352.00" fill="rgb(30,12,18)" fill-opacity="0.502"/>
<polygon points="6191.50,3468.52 6615.56,3550.95 6496.50,4163.48 6072.44,4081.05" fill="rgb(13,5,3)" fill-opacity="0.502"/>
<circle cx="4192.00" cy="608.00" r="192.00" fill="rgb(68,29,27)" fill-opacity="0.502"/>
<circle cx="2048.00" cy="3776.00" r="368.00" fill="rgb(20,9,2)" fill-opacity="0.502"/>
<circle cx="2656.00" cy="4128.00" r="144.00" fill="rgb(248,124,84)" fill-opacity="0.502"/>
<circle cx="4288.00" cy="1744.00" r="192.00" fill="rgb(207,99,75)" fill-opacity="0.502"/>
<g transform="translate(5664.00 3088.00) rotate(106) scale(416.00 128.00)"><ellipse cx="0" cy="0" rx="1" ry="1" fill="rgb(106,29,24)" fill-opacity="0.502"/></g>
<circle cx="6720.00" cy="480.00" r="512.00" fill="rgb(6,8,18)" fill-opacity="0.502"/>
<g transform="translate(304.00 928.00) rotate(360) scale(800.00 4592.00)"><ellipse cx="0" cy="0" rx="1" ry="1" fill="rgb(0,0,0)" fill-opacity="0.502"/></g>
<g transform="translate(5712.00 1136.00) rotate(223) scale(480.00 336.00)"><ellipse cx="0" cy="0" rx="1" ry="1" fill="rgb(24,9,5)" fill-opacity="0.502"/></g>
<circle cx="3616.00" cy="3152.00" r="480.00" fill="rgb(25,10,6)" fill-opacity="0.502"/>
<polygon points="4730.66,2187.37 4516.63,1994.66 4709.34,1780.63 4923.37,1973.34" fill="rgb(18,11,5)" fill-opacity="0.502"/>
<g transform="translate(3040.00 3568.00) rotate(68) scale(464.00 96.00)"><ellipse cx="0" cy="0" rx="1" ry="1" fill="rgb(190,96,80)" fill-opacity="0.502"/></g>
<g transform="translate(3824.00 4064.00) rotate(187) scale(400.00 688.00)"><ellipse cx="0" cy="0" rx="1" ry="1" fill="rgb(18,7,1)" fill-opacity="0.502"/></g>
<g transform="translate(4880.00 176.00) rotate(228) scale(304.00 416.00)"><ellipse cx="0" cy="0" rx="1" ry="1" fill="rgb(14,7,5)" fill-opacity="0.502"/></g>
<polygon points="2705.25,3481.09 2791.26,3257.03 2910.75,3302.91 2824.74,3526.97" fill="rgb(79,22,15)" fill-opacity="0.502"/>
<polygon points="5314.17,2554.19 5553.84,2566.75 5517.83,3253.81 5278.16,3241.25" fill="rgb(158,59,39)" fill-opacity="0.502"/>
<circle cx="6928.00" cy="4240.00" r="112.00" fill="rgb(106,78,69)" fill-opacity="0.502"/>
<circle cx="4432.00" cy="2608.00" r="96.00" fill="rgb(231,119,93)" fill-opacity="0.502"/>
<polygon points="4714.49,3107.75 5597.07,3394.52 5557.51,3516.25 4674.93,3229.48" fill="rgb(52,14,4)" fill-opacity="0.502"/>
<polygon points="5741.05,1843.52 5922.97,1742.68 6178.95,2204.48 5997.03,2305.32" fill="rgb(42,16,16)" fill-opacity="0.502"/>
<g transform="translate(4832.00 1104.00) rotate(51) scale(384.00 304.00)"><ellipse cx="0" cy="0" rx="1" ry="1" fill="rgb(119,42,31)" fill-opacity="0.502"/></g>
<circle cx="2816.00" cy="2736.00" r="304.00" fill="rgb(10,4,0)" fill-opacity="0.502"/>
<polygon points="3147.61,4235.02 3442.17,4360.06 3348.39,4580.98 3053.83,4455.94" fill="rgb(255,155,121)" fill-opacity="0.502"/>
<circle cx="6336.00" cy="4496.00" r="528.00" fill="rgb(15,11,7)" fill-opacity="0.502"/>
<polygon points="5148.47,3531.22 5194.03,3633.54 4755.53,3828.78 4709.97,3726.46" fill="rgb(19,0,0)" fill-opacity="0.502"/>
<polygon points="3433.50,3985.80 3208.44,3455.58 4342.50,2974.20 4567.56,3504.42" fill="rgb(23,8,5)" fill-opacity="0.502"/>
<circle cx="7488.00" cy="4592.00" r="544.00" fill="rgb(0,0,0)" fill-opacity="0.502"/>
<polygon points="3002.66,3902.14 3013.27,4205.95 2901.34,4209.86 2890.73,3906.05" fill="rgb(156,43,22)" fill-opacity="0.502"/>
<circle cx="6816.00" cy="3328.00" r="368.00" fill="rgb(15,8,2)" fill-opacity="0.502"/>
<polygon points="3219.03,2954.61 3212.06,3034.31 2972.97,3013.39 2979.94,2933.69" fill="rgb(66,36,31)" fill-opacity="0.502"/>
<circle cx="2448.00" cy="4464.00" r="256.00" fill="rgb(10,4,1)" fill-opacity="0.502"/>
<circle cx="5024.00" cy="2480.00" r="176.00" fill="rgb(0,0,0)" fill-opacity="0.502"/>
<circle cx="7552.00" cy="2176.00" r="784.00" fill="rgb(0,0,1)" fill-opacity="0.502"/>
<polygon points="1069.72,1008.69 2247.24,884.92 2354.28,1903.31 1176.76,2027.08" fill="rgb(25,10,20)" fill-opacity="0.502"/>
<g transform="translate(1488.00 3264.00) rotate(128) scale(400.00 400.00)"><ellipse cx="0" cy="0" rx="1" ry="1" fill="rgb(18,8,7)" fill-opacity="0.502"/></g>
<g transform="translate(2592.00 3920.00) rotate(344) scale(128.00 432.00)"><ellipse cx="0" cy="0" rx="1" ry="1" fill="rgb(219,105,76)" fill-opacity="0.502"/></g>
<g transform="translate(4448.00 2240.00) rotate(39) scale(352.00 192.00)"><ellipse cx="0" cy="0" rx="1" ry="1" fill="rgb(8,2,0)" fill-opacity="0.502"/></g>
<polygon points="2571.37,1849.46 2592.82,2024.15 2084.63,2086.54 2063.18,1911.85" fill="rgb(107,46,36)" fill-opacity="0.502"/>
<g transform="translate(5440.00 768.00) rotate(224) scale(464.00 160.00)"><ellipse cx="0" cy="0" rx="1" ry="1" fill="rgb(30,12,12)" fill-opacity="0.502"/></g>
<g transform="translate(3088.00 2000.00) rotate(5) scale(160.00 464.00)"><ellipse cx="0" cy="0" rx="1" ry="1" fill="rgb(23,7,9)" fill-opacity="0.502"/></g>
<circle cx="7536.00" cy="80.00" r="464.00" fill="rgb(0,0,0)" fill-opacity="0.502"/>
<circle cx="3216.00" cy="1424.00" r="528.00" fill="rgb(23,8,2)" fill-opacity="0.502"/>
<circle cx="5136.00" cy="3792.00" r="96.00" fill="rgb(164,67,49)" fill-opacity="0.502"/>
<polygon points="6471.01,4257.33 6504.49,4736.16 6296.99,4750.67 6263.51,4271.84" fill="rgb(33,24,22)" fill-opacity="0.502"/>
<g transform="translate(3136.00 4000.00) rotate(218) scale(128.00 112.00)"><ellipse cx="0" cy="0" rx="1" ry="1" fill="rgb(233,124,97)" fill-opacity="0.502"/></g>
<polygon points="4796.81,1543.72 4817.73,1782.81 4435.19,1816.28 4414.27,1577.19" fill="rgb(194,100,75)" fill-opacity="0.502"/>
<polygon points="4471.27,1438.32 4836.91,1152.65 5112.73,1505.68 4747.09,1791.35" fill="rgb(160,68,50)" fill-opacity="0.502"/>
<g transform="translate(4176.00 752.00) rotate(73) scale(96.00 464.00)"><ellipse cx="0" cy="0" rx="1" ry="1" fill="rgb(97,38,32)" fill-opacity="0.502"/></g>
<polygon points="5256.00,2968.00 5256.00,3064.00 4664.00,3064.00 4664.00,2968.00" fill="rgb(202,98,75)" fill-opacity="0.502"/>
<polygon points="6804.59,1539.03 6980.11,1375.35 7067.41,1468.97 6891.89,1632.65" fill="rgb(131,55,57)" fill-opacity="0.502"/>
<g transform="translate(2864.00 4528.00) rotate(3) scale(128.00 48.00)"><ellipse cx="0" cy="0" rx="1" ry="1" fill="rgb(255,182,148)" fill-opacity="0.502"/></g>
<g transform="translate(4720.00 2256.00) rotate(281) scale(304.00 528.00)"><ellipse cx="0" cy="0" rx="1" ry="1" fill="rgb(13,6,0)" fill-opacity="0.502"/></g>
<polygon points="2364.20,1689.11 2443.21,1676.60 2515.80,2134.89 2436.79,2147.40" fill="rgb(12,0,0)" fill-opacity="0.502"/>
<polygon points="5633.65,937.03 5409.20,1397.22 5150.35,1270.97 5374.80,810.78" fill="rgb(47,14,13)" fill-opacity="0.502"/>
<g transform="translate(1296.00 304.00) rotate(271) scale(1696.00 192.00)"><ellipse cx="0" cy="0" rx="1" ry="1" fill="rgb(19,15,26)" fill-opacity="0.502"/></g>
<polygon points="4452.83,811.95 4648.49,623.00 4715.17,692.05 4519.51,881.00" fill="rgb(125,49,32)" fill-opacity="0.502"/>
<g transform="translate(6080.00 720.00) rotate(84) scale(1376.00 384.00)"><ellipse cx="0" cy="0" rx="1" ry="1" fill="rgb(12,6,1)" fill-opacity="0.502"/></g>
<g transform="translate(1408.00 2176.00) rotate(232) scale(144.00 368.00)"><ellipse cx="0" cy="0" rx="1" ry="1" fill="rgb(13,7,1)" fill-opacity="0.502"/></g>
<circle cx="2656.00" cy="3824.00" r="160.00" fill="rgb(212,92,66)" fill-opacity="0.502"/>
<polygon points="2517.17,4051.00 2412.01,4248.78 2058.83,4061.00 2163.99,3863.22" fill="rgb(13,7,1)" fill-opacity="0.502"/>
<polygon points="5473.17,2895.50 5680.50,2673.17 5902.83,2880.50 5695.50,3102.83" fill="rgb(103,33,24)" fill-opacity="0.502"/>
<g transform="translate(3840.00 1152.00) rotate(207) scale(160.00 160.00)"><ellipse cx="0" cy="0" rx="1" ry="1" fill="rgb(145,50,38)" fill-opacity="0.502"/></g>
<circle cx="3888.00" cy="4592.00" r="528.00" fill="rgb(14,6,0)" fill-opacity="0.502"/>
<polygon points="4945.95,2854.35 4824.21,2893.90 4750.05,2665.65 4871.79,2626.10" fill="rgb(4,0,0)" fill-opacity="0.502"/>
<polygon points="5624.24,2556.38 5500.83,2409.30 5831.76,2131.62 5955.17,2278.70" fill="rgb(105,30,25)" fill-opacity="0.502"/>
<polygon points="4934.64,1920.95 4735.05,2022.64 4633.36,1823.05 4832.95,1721.36" fill="rgb(78,44,38)" fill-opacity="0.502"/>
<circle cx="2944.00" cy="4592.00" r="32.00" fill="rgb(0,0,0)" fill-opacity="0.502"/>
<circle cx="4640.00" cy="2304.00" r="304.00" fill="rgb(16,6,3)" fill-opacity="0.502"/>
<g transform="translate(5328.00 2000.00) rotate(69) scale(320.00 416.00)"><ellipse cx="0" cy="0" rx="1" ry="1" fill="rgb(11,4,0)" fill-opacity="0.502"/></g>
<polygon points="5223.24,1253.97 5686.88,1378.21 5624.76,1610.03 5161.12,1485.79" fill="rgb(72,21,19)" fill-opacity="0.502"/>
<polygon points="6846.58,1618.50 6558.63,1613.47 6561.42,1453.50 6849.37,1458.53" fill="rgb(12,2,0)" fill-opacity="0.502"/>
<circle cx="6624.00" cy="336.00" r="464.00" fill="rgb(11,8,14)" fill-opacity="0.502"/>
<circle cx="2064.00" cy="4208.00" r="464.00" fill="rgb(14,7,5)" fill-opacity="0.502"/>
<g transform="translate(2496.00 928.00) rotate(170) scale(352.00 704.00)"><ellipse cx="0" cy="0" rx="1" ry="1" fill="rgb(24,6,5)" fill-opacity="0.502"/></g>
<polygon points="5156.48,1749.31 4956.89,1851.00 4891.52,1722.69 5091.11,1621.00" fill="rgb(71,22,15)" fill-opacity="0.502"/>
<g transform="translate(5888.00 2384.00) rotate(261) scale(224.00 128.00)"><ellipse cx="0" cy="0" rx="1" ry="1" fill="rgb(64,18,15)" fill-opacity="0.502"/></g>
<g transform="translate(6832.00 3664.00) rotate(153) scale(176.00 640.00)"><ellipse cx="0" cy="0" rx="1" ry="1" fill="rgb(15,6,3)" fill-opacity="0.502"/></g>
<g transform="translate(5136.00 1536.00) rotate(331) scale(128.00 176.00)"><ellipse cx="0" cy="0" rx="1" ry="1" fill="rgb(118,37,31)" fill-opacity="0.502"/></g>
<polygon points="3936.89,629.15 3912.17,553.07 4399.11,394.85 4423.83,470.93" fill="rgb(41,21,18)" fill-opacity="0.502"/>
<circle cx="1952.00" cy="2544.00" r="480.00" fill="rgb(11,5,0)" fill-opacity="0.502"/>
<circle cx="5680.00" cy="2304.00" r="160.00" fill="rgb(116,44,37)" fill-opacity="0.502"/>
<g transform="translate(7984.00 3728.00) rotate(88) scale(5632.00 896.00)"><ellipse cx="0" cy="0" rx="1" ry="1" fill="rgb(0,0,0)" fill-opacity="0.502"/></g>
<circle cx="928.00" cy="96.00" r="208.00" fill="rgb(0,0,0)" fill-opacity="0.502"/>
<g transform="translate(5200.00 2848.00) rotate(32) scale(208.00 256.00)"><ellipse cx="0" cy="0" rx="1" ry="1" fill="rgb(180,77,57)" fill-opacity="0.502"/></g>
<polygon points="7060.50,4.33 7116.07,61.87 7035.50,139.67 6979.93,82.13" fill="rgb(20,66,152)" fill-opacity="0.502"/>
<circle cx="5472.00" cy="2816.00" r="160.00" fill="rgb(137,48,32)" fill-opacity="0.502"/>
<g transform="translate(6912.00 1040.00) rotate(13) scale(240.00 432.00)"><ellipse cx="0" cy="0" rx="1" ry="1" fill="rgb(13,9,15)" fill-opacity="0.502"/></g>
<g transform="translate(3040.00 4080.00) rotate(354) scale(16.00 480.00)"><ellipse cx="0" cy="0" rx="1" ry="1" fill="rgb(203,91,73)" fill-opacity="0.502"/></g>
<g transform="translate(3824.00 3776.00) rotate(136) scale(576.00 224.00)"><ellipse cx="0" cy="0" rx="1" ry="1" fill="rgb(25,10,7)" fill-opacity="0.502"/></g>
<g transform="translate(4512.00 1744.00) rotate(133) scale(96.00 80.00)"><ellipse cx="0" cy="0" rx="1" ry="1" fill="rgb(210,110,86)" fill-opacity="0.502"/></g>
<g transform="translate(4704.00 3280.00) rotate(284) scale(160.00 240.00)"><ellipse cx="0" cy="0" rx="1" ry="1" fill="rgb(126,45,34)" fill-opacity="0.502"/></g>
<circle cx="7120.00" cy="1824.00" r="272.00" fill="rgb(13,5,7)" fill-opacity="0.502"/>
<polygon points="2515.01,4666.74 2478.22,4316.67 2700.99,4293.26 2737.78,4643.33" fill="rgb(20,7,1)" fill-opacity="0.502"/>
<polygon points="4900.69,1949.60 4827.60,1917.06 5003.31,1522.40 5076.40,1554.94" fill="rgb(120,59,51)" fill-opacity="0.502"/>
<circle cx="5248.00" cy="3568.00" r="144.00" fill="rgb(103,33,23)" fill-opacity="0.502"/>
<circle cx="4032.00" cy="1936.00" r="80.00" fill="rgb(156,60,47)" fill-opacity="0.502"/>
<circle cx="4656.00" cy="2944.00" r="80.00" fill="rgb(2,1,0)" fill-opacity="0.502"/>
<polygon points="6339.91,3574.39 6563.06,3593.91 6556.09,3673.61 6332.94,3654.09" fill="rgb(43,36,37)" fill-opacity="0.502"/>
<circle cx="7440.00" cy="1376.00" r="416.00" fill="rgb(0,0,0)" fill-opacity="0.502"/>
<circle cx="1648.00" cy="4368.00" r="592.00" fill="rgb(10,7,6)" fill-opacity="0.502"/>
<circle cx="6016.00" cy="2704.00" r="128.00" fill="rgb(23,11,13)" fill-opacity="0.502"/>
<polygon points="2934.48,4303.80 2748.42,3792.61 2793.52,3776.20 2979.58,4287.39" fill="rgb(203,84,57)" fill-opacity="0.502"/>
<polygon points="1152.00,3920.00 1152.00,4608.00 496.00,4608.00 496.00,3920.00" fill="rgb(0,0,0)" fill-opacity="0.502"/>
<circle cx="6592.00" cy="2528.00" r="480.00" fill="rgb(10,8,3)" fill-opacity="0.502"/>
<circle cx="3360.00" cy="720.00" r="368.00" fill="rgb(23,8,2)" fill-opacity="0.502"/>
<polygon points="5439.91,2240.61 5540.86,2384.78 5200.09,2623.39 5099.14,2479.22" fill="rgb(11,3,0)" fill-opacity="0.502"/>
<polygon points="3232.73,3020.30 2736.57,2839.72 2895.27,2403.70 3391.43,2584.28" fill="rgb(16,7,2)" fill-opacity="0.502"/>
<polygon points="3577.02,2454.28 3853.04,1912.54 4294.98,2137.72 4018.96,2679.46" fill="rgb(13,5,1)" fill-opacity="0.502"/>
<g transform="translate(4144.00 0.00) rotate(309) scale(464.00 464.00)"><ellipse cx="0" cy="0" rx="1" ry="1" fill="rgb(16,8,4)" fill-opacity="0.502"/></g>
<g transform="translate(352.00 1632.00) rotate(186) scale(736.00 1728.00)"><ellipse cx="0" cy="0" rx="1" ry="1" fill="rgb(0,0,0)" fill-opacity="0.502"/></g>
<circle cx="2064.00" cy="2000.00" r="96.00" fill="rgb(100,41,36)" fill-opacity="0.502"/>
<g transform="translate(2032.00 96.00) rotate(231) scale(192.00 560.00)"><ellipse cx="0" cy="0" rx="1" ry="1" fill="rgb(17,5,14)" fill-opacity="0.502"/></g>
<g transform="translate(2496.00 3024.00) rotate(229) scale(400.00 240.00)"><ellipse cx="0" cy="0" rx="1" ry="1" fill="rgb(15,6,2)" fill-opacity="0.502"/></g>
<circle cx="1600.00" cy="2464.00" r="512.00" fill="rgb(13,7,4)" fill-opacity="0.502"/>
<polygon points="6451.37,2777.25 6755.66,3429.79 6204.63,3686.75 5900.34,3034.21" fill="rgb(10,6,1)" fill-opacity="0.502"/>
<polygon points="2999.52,3089.86 3280.85,3752.63 3192.48,3790.14 2911.15,3127.37" fill="rgb(146,77,69)" fill-opacity="0.502"/>
<circle cx="4864.00" cy="4352.00" r="480.00" fill="rgb(15,7,0)" fill-opacity="0.502"/>
<circle cx="3936.00" cy="2800.00" r="336.00" fill="rgb(25,10,6)" fill-opacity="0.502"/>
<polygon points="4971.84,2667.05 5310.21,2570.02 5460.16,3092.95 5121.79,3189.98" fill="rgb(174,75,56)" fill-opacity="0.502"/>
<polygon points="2649.40,1832.27 2211.66,1537.02 2390.60,1271.73 2828.34,1566.98" fill="rgb(19,5,5)" fill-opacity="0.502"/>
<polygon points="4584.66,2903.01 4617.63,2957.87 4439.34,3064.99 4406.37,3010.13" fill="rgb(17,0,0)" fill-opacity="0.502"/>
<g transform="translate(4160.00 3968.00) rotate(125) scale(640.00 256.00)"><ellipse cx="0" cy="0" rx="1" ry="1" fill="rgb(13,6,0)" fill-opacity="0.502"/></g>
<polygon points="4782.45,3706.98 4887.01,3666.84 4961.55,3861.02 4856.99,3901.16" fill="rgb(4,1,0)" fill-opacity="0.502"/>
<g transform="translate(4752.00 4176.00) rotate(108) scale(384.00 400.00)"><ellipse cx="0" cy="0" rx="1" ry="1" fill="rgb(14,6,2)" fill-opacity="0.502"/></g>
<polygon points="6110.22,-252.83 6754.75,369.58 6465.78,668.83 5821.25,46.42" fill="rgb(12,6,6)" fill-opacity="0.502"/>
<g transform="translate(2736.00 4096.00) rotate(3) scale(112.00 240.00)"><ellipse cx="0" cy="0" rx="1" ry="1" fill="rgb(240,123,88)" fill-opacity="0.502"/></g>
<circle cx="5856.00" cy="3680.00" r="304.00" fill="rgb(10,5,1)" fill-opacity="0.502"/>
<polygon points="3242.15,3789.41 3273.06,3781.13 3413.85,4306.59 3382.94,4314.87" fill="rgb(147,64,58)" fill-opacity="0.502"/>
<g transform="translate(2672.00 2448.00) rotate(315) scale(80.00 80.00)"><ellipse cx="0" cy="0" rx="1" ry="1" fill="rgb(80,49,42)" fill-opacity="0.502"/></g>
<g transform="translate(4496.00 2064.00) rotate(348) scale(432.00 96.00)"><ellipse cx="0" cy="0" rx="1" ry="1" fill="rgb(12,5,1)" fill-opacity="0.502"/></g>
<circle cx="4784.00" cy="3472.00" r="208.00" fill="rgb(162,62,52)" fill-opacity="0.502"/>
<circle cx="2768.00" cy="2256.00" r="176.00" fill="rgb(86,48,49)" fill-opacity="0.502"/>
<g transform="translate(2224.00 4544.00) rotate(104) scale(448.00 464.00)"><ellipse cx="0" cy="0" rx="1" ry="1" fill="rgb(14,7,4)" fill-opacity="0.502"/></g>
<circle cx="2128.00" cy="1200.00" r="336.00" fill="rgb(24,7,14)" fill-opacity="0.502"/>
<polygon points="3663.07,976.84 3864.36,846.13 3968.93,1007.16 3767.64,1137.87" fill="rgb(134,47,33)" fill-opacity="0.502"/>
<polygon points="5655.32,3361.95 5881.35,3482.14 5768.68,3694.05 5542.65,3573.86" fill="rgb(19,9,4)" fill-opacity="0.502"/>
<polygon points="4400.00,1664.00 4400.00,1552.00 4928.00,1552.00 4928.00,1664.00" fill="rgb(178,83,59)" fill-opacity="0.502"/>
<polygon points="7007.91,1498.99 7070.95,1548.24 6864.09,1813.01 6801.05,1763.76" fill="rgb(65,8,2)" fill-opacity="0.502"/>
<circle cx="1504.00" cy="1008.00" r="368.00" fill="rgb(21,12,22)" fill-opacity="0.502"/>
<polygon points="4569.46,1325.88 4457.53,1329.79 4438.54,786.12 4550.47,782.21" fill="rgb(145,58,41)" fill-opacity="0.502"/>
<g transform="translate(5232.00 1424.00) rotate(57) scale(272.00 80.00)"><ellipse cx="0" cy="0" rx="1" ry="1" fill="rgb(92,28,21)" fill-opacity="0.502"/></g>
<g transform="translate(7280.00 2032.00) rotate(276) scale(752.00 192.00)"><ellipse cx="0" cy="0" rx="1" ry="1" fill="rgb(0,0,0)" fill-opacity="0.502"/></g>
<g transform="translate(6752.00 3024.00) rotate(197) scale(336.00 560.00)"><ellipse cx="0" cy="0" rx="1" ry="1" fill="rgb(14,7,3)" fill-opacity="0.502"/></g>
<polygon points="4519.09,555.46 4436.47,710.86 4040.91,500.54 4123.53,345.14" fill="rgb(43,17,15)" fill-opacity="0.502"/>
<polygon points="7031.35,1448.04 7123.63,1474.50 7048.65,1735.96 6956.37,1709.50" fill="rgb(32,14,22)" fill-opacity="0.502"/>
<g transform="translate(2272.00 3248.00) rotate(153) scale(416.00 352.00)"><ellipse cx="0" cy="0" rx="1" ry="1" fill="rgb(16,6,2)" fill-opacity="0.502"/></g>
<g transform="translate(3904.00 1520.00) rotate(351) scale(80.00 448.00)"><ellipse cx="0" cy="0" rx="1" ry="1" fill="rgb(152,53,40)" fill-opacity="0.502"/></g>
<polygon points="3925.50,1941.89 3239.45,2440.33 2938.50,2026.11 3624.55,1527.67" fill="rgb(23,8,6)" fill-opacity="0.502"/>
<polygon points="4481.82,1523.93 3987.26,1656.44 3838.18,1100.07 4332.74,967.56" fill="rgb(177,78,57)" fill-opacity="0.502"/>
<circle cx="5648.00" cy="1664.00" r="128.00" fill="rgb(9,4,0)" fill-opacity="0.502"/>
<polygon points="2801.71,1799.95 2977.23,1963.63 2846.29,2104.05 2670.77,1940.37" fill="rgb(38,28,54)" fill-opacity="0.502"/>
<polygon points="6080.00,3888.00 6240.00,3888.00 6240.00,4560.00 6080.00,4560.00" fill="rgb(26,18,18)" fill-opacity="0.502"/>
<g transform="translate(5392.00 3184.00) rotate(67) scale(240.00 80.00)"><ellipse cx="0" cy="0" rx="1" ry="1" fill="rgb(154,65,47)" fill-opacity="0.502"/></g>
<polygon points="5796.92,2159.91 5681.87,2103.80 5787.08,1888.09 5902.13,1944.20" fill="rgb(94,28,29)" fill-opacity="0.502"/>
<g transform="translate(1440.00 1968.00) rotate(249) scale(160.00 400.00)"><ellipse cx="0" cy="0" rx="1" ry="1" fill="rgb(23,9,14)" fill-opacity="0.502"/></g>
<g transform="translate(6352.00 3152.00) rotate(182) scale(480.00 336.00)"><ellipse cx="0" cy="0" rx="1" ry="1" fill="rgb(12,7,2)" fill-opacity="0.502"/></g>
<polygon points="5062.29,574.31 4360.97,512.96 4377.71,321.69 5079.03,383.04" fill="rgb(33,15,16)" fill-opacity="0.502"/>
<circle cx="6608.00" cy="3536.00" r="160.00" fill="rgb(20,11,9)" fill-opacity="0.502"/>
<polygon points="4122.41,2661.03 4277.55,2940.91 4165.59,3002.97 4010.45,2723.09" fill="rgb(27,10,5)" fill-opacity="0.502"/>
<polygon points="3278.00,2855.07 3914.51,3013.77 3810.00,3432.93 3173.49,3274.23" fill="rgb(22,9,6)" fill-opacity="0.502"/>
<polygon points="4759.58,597.27 4890.91,958.11 4680.42,1034.73 4549.09,673.89" fill="rgb(98,32,24)" fill-opacity="0.502"/>
<circle cx="3776.00" cy="80.00" r="128.00" fill="rgb(29,6,7)" fill-opacity="0.502"/>
<circle cx="3200.00" cy="3472.00" r="48.00" fill="rgb(106,53,48)" fill-opacity="0.502"/>
<g transform="translate(5440.00 3040.00) rotate(346) scale(32.00 400.00)"><ellipse cx="0" cy="0" rx="1" ry="1" fill="rgb(139,51,34)" fill-opacity="0.502"/></g>
<polygon points="5165.85,2615.74 5272.86,2712.10 4898.15,3128.26 4791.14,3031.90" fill="rgb(197,92,74)" fill-opacity="0.502"/>
<g transform="translate(3872.00 2768.00) rotate(240) scale(896.00 160.00)"><ellipse cx="0" cy="0" rx="1" ry="1" fill="rgb(24,10,6)" fill-opacity="0.502"/></g>
<g transform="translate(1520.00 3920.00) rotate(239) scale(640.00 320.00)"><ellipse cx="0" cy="0" rx="1" ry="1" fill="rgb(12,7,6)" fill-opacity="0.502"/></g>
<polygon points="6999.07,1777.10 7195.18,1941.66 6824.93,2382.90 6628.82,2218.34" fill="rgb(14,9,11)" fill-opacity="0.502"/>
<g transform="translate(6208.00 3424.00) rotate(333) scale(112.00 352.00)"><ellipse cx="0" cy="0" rx="1" ry="1" fill="rgb(14,6,1)" fill-opacity="0.502"/></g>
<polygon points="5860.04,4595.57 5508.89,4620.12 5499.96,4492.43 5851.11,4467.88" fill="rgb(11,12,8)" fill-opacity="0.502"/>
<polygon points="4810.65,3448.95 4678.09,3392.69 4709.35,3319.05 4841.91,3375.31" fill="rgb(84,12,2)" fill-opacity="0.502"/>
<polygon points="6084.68,2426.66 6119.52,2566.38 5995.32,2597.34 5960.48,2457.62" fill="rgb(25,12,12)" fill-opacity="0.502"/>
<polygon points="4498.64,3260.90 4277.40,3295.94 4237.36,3043.10 4458.60,3008.06" fill="rgb(22,9,5)" fill-opacity="0.502"/>
<polygon points="3885.97,1515.56 3760.77,1488.95 3794.03,1332.44 3919.23,1359.05" fill="rgb(148,58,34)" fill-opacity="0.502"/>
<circle cx="4240.00" cy="576.00" r="96.00" fill="rgb(71,27,26)" fill-opacity="0.502"/>
<circle cx="1696.00" cy="4192.00" r="432.00" fill="rgb(13,7,5)" fill-opacity="0.502"/>
<g transform="translate(7328.00 1936.00) rotate(171) scale(256.00 256.00)"><ellipse cx="0" cy="0" rx="1" ry="1" fill="rgb(0,0,0)" fill-opacity="0.502"/></g>
<circle cx="6912.00" cy="2336.00" r="208.00" fill="rgb(13,7,8)" fill-opacity="0.502"/>
<polygon points="5749.64,2812.26 5844.62,2752.91 5946.36,2915.74 5851.38,2975.09" fill="rgb(58,18,15)" fill-opacity="0.502"/>
<g transform="translate(6800.00 4576.00) rotate(310) scale(144.00 784.00)"><ellipse cx="0" cy="0" rx="1" ry="1" fill="rgb(16,10,2)" fill-opacity="0.502"/></g>
<polygon points="3168.66,2237.25 3151.08,2572.79 2959.34,2562.75 2976.92,2227.21" fill="rgb(29,12,18)" fill-opacity="0.502"/>
<circle cx="4832.00" cy="2784.00" r="112.00" fill="rgb(64,6,6)" fill-opacity="0.502"/>
<circle cx="4400.00" cy="3888.00" r="336.00" fill="rgb(15,6,2)" fill-opacity="0.502"/>
<g transform="translate(3232.00 1088.00) rotate(72) scale(272.00 480.00)"><ellipse cx="0" cy="0" rx="1" ry="1" fill="rgb(23,8,4)" fill-opacity="0.502"/></g>
<g transform="translate(2848.00 3440.00) rotate(179) scale(48.00 352.00)"><ellipse cx="0" cy="0" rx="1" ry="1" fill="rgb(103,33,24)" fill-opacity="0.502"/></g>
<g transform="translate(1504.00 2176.00) rotate(275) scale(112.00 480.00)"><ellipse cx="0" cy="0" rx="1" ry="1" fill="rgb(12,6,4)" fill-opacity="0.502"/></g>
<polygon points="1425.92,3060.07 1520.59,3263.08 1390.08,3323.93 1295.41,3120.92" fill="rgb(25,15,20)" fill-opacity="0.502"/>
<circle cx="5520.00" cy="3776.00" r="160.00" fill="rgb(34,16,11)" fill-opacity="0.502"/>
<circle cx="2736.00" cy="2288.00" r="160.00" fill="rgb(78,42,40)" fill-opacity="0.502"/>
<circle cx="8048.00" cy="3776.00" r="944.00" fill="rgb(0,0,0)" fill-opacity="0.502"/>
<polygon points="5051.46,3429.77 5069.78,3524.01 4708.54,3594.23 4690.22,3499.99" fill="rgb(206,89,67)" fill-opacity="0.502"/>
<polygon points="7023.02,1295.59 7024.97,1407.57 6976.98,1408.41 6975.03,1296.43" fill="rgb(95,61,58)" fill-opacity="0.502"/>
<circle cx="4352.00" cy="2512.00" r="64.00" fill="rgb(231,131,113)" fill-opacity="0.502"/>
<circle cx="4480.00" cy="2720.00" r="160.00" fill="rgb(183,87,63)" fill-opacity="0.502"/>
<polygon points="6473.53,3766.48 6354.15,3685.96 6470.47,3513.52 6589.85,3594.04" fill="rgb(46,38,38)" fill-opacity="0.502"/>
<polygon points="6998.77,39.13 7001.28,-8.80 7033.23,-7.13 7030.72,40.80" fill="rgb(70,116,238)" fill-opacity="0.502"/>
<g transform="translate(6336.00 848.00) rotate(164) scale(416.00 416.00)"><ellipse cx="0" cy="0" rx="1" ry="1" fill="rgb(14,6,5)" fill-opacity="0.502"/></g>
<circle cx="7360.00" cy="736.00" r="304.00" fill="rgb(0,0,0)" fill-opacity="0.502"/>
<circle cx="4528.00" cy="2688.00" r="112.00" fill="rgb(137,52,37)" fill-opacity="0.502"/>
<polygon points="2402.81,3707.54 2402.81,3707.54 2557.19,4212.46 2557.19,4212.46" fill="rgb(154,80,52)" fill-opacity="0.502"/>
<polygon points="3168.25,4336.04 3071.96,4208.25 3199.75,4111.96 3296.04,4239.75" fill="rgb(252,140,111)" fill-opacity="0.502"/>
<circle cx="2256.00" cy="2000.00" r="64.00" fill="rgb(152,69,58)" fill-opacity="0.502"/>
<g transform="translate(6720.00 2048.00) rotate(23) scale(16.00 80.00)"><ellipse cx="0" cy="0" rx="1" ry="1" fill="rgb(139,140,138)" fill-opacity="0.502"/></g>
<g transform="translate(5728.00 3936.00) rotate(185) scale(16.00 336.00)"><ellipse cx="0" cy="0" rx="1" ry="1" fill="rgb(24,16,17)" fill-opacity="0.502"/></g>
<g transform="translate(2960.00 3312.00) rotate(319) scale(144.00 144.00)"><ellipse cx="0" cy="0" rx="1" ry="1" fill="rgb(153,78,66)" fill-opacity="0.502"/></g>
<g transform="translate(5088.00 2288.00) rotate(52) scale(320.00 432.00)"><ellipse cx="0" cy="0" rx="1" ry="1" fill="rgb(15,6,2)" fill-opacity="0.502"/></g>
<circle cx="5856.00" cy="2688.00" r="80.00" fill="rgb(73,17,16)" fill-opacity="0.502"/>
<polygon points="5606.90,2334.78 5544.50,2842.97 5465.10,2833.22 5527.50,2325.03" fill="rgb(132,52,39)" fill-opacity="0.502"/>
<circle cx="5264.00" cy="976.00" r="176.00" fill="rgb(61,21,17)" fill-opacity="0.502"/>
<circle cx="1408.00" cy="128.00" r="320.00" fill="rgb(15,10,20)" fill-opacity="0.502"/>
<polygon points="4395.68,1744.09 4476.82,1918.10 4404.32,1951.91 4323.18,1777.90" fill="rgb(198,98,75)" fill-opacity="0.502"/>
<g transform="translate(6080.00 1744.00) rotate(265) scale(672.00 96.00)"><ellipse cx="0" cy="0" rx="1" ry="1" fill="rgb(18,7,4)" fill-opacity="0.502"/></g>
<polygon points="3919.01,1118.32 4301.53,1001.37 4352.99,1169.68 3970.47,1286.63" fill="rgb(179,83,63)" fill-opacity="0.502"/>
<circle cx="7440.00" cy="416.00" r="368.00" fill="rgb(0,0,0)" fill-opacity="0.502"/>
<polygon points="2415.51,2902.66 2244.33,2691.28 2592.49,2409.34 2763.67,2620.72" fill="rgb(14,7,2)" fill-opacity="0.502"/>
<g transform="translate(6528.00 2320.00) rotate(68) scale(288.00 320.00)"><ellipse cx="0" cy="0" rx="1" ry="1" fill="rgb(11,5,4)" fill-opacity="0.502"/></g>
<polygon points="5826.37,4170.32 5446.33,4001.12 5693.63,3445.68 6073.67,3614.88" fill="rgb(13,6,2)" fill-opacity="0.502"/>
<polygon points="5288.85,3251.04 5306.85,3328.99 4839.15,3436.96 4821.15,3359.01" fill="rgb(62,17,12)" fill-opacity="0.502"/>
<polygon points="3021.36,4490.15 2816.73,4581.25 2738.64,4405.85 2943.27,4314.75" fill="rgb(255,157,110)" fill-opacity="0.502"/>
<circle cx="3200.00" cy="1824.00" r="336.00" fill="rgb(22,8,7)" fill-opacity="0.502"/>
<g transform="translate(3584.00 3904.00) rotate(151) scale(192.00 288.00)"><ellipse cx="0" cy="0" rx="1" ry="1" fill="rgb(24,9,4)" fill-opacity="0.502"/></g>
<polygon points="3140.50,3448.21 3043.50,3504.21 2955.50,3351.79 3052.50,3295.79" fill="rgb(167,83,73)" fill-opacity="0.502"/>
<circle cx="5616.00" cy="0.00" r="448.00" fill="rgb(15,6,2)" fill-opacity="0.502"/>
<polygon points="1216.00,3088.00 1104.00,3088.00 1104.00,1952.00 1216.00,1952.00" fill="rgb(12,9,17)" fill-opacity="0.502"/>
<polygon points="3228.25,3448.38 3679.24,3144.18 4099.75,3767.62 3648.76,4071.82" fill="rgb(24,9,5)" fill-opacity="0.502"/>
<circle cx="6064.00" cy="2736.00" r="16.00" fill="rgb(86,81,118)" fill-opacity="0.502"/>
<circle cx="4720.00" cy="3008.00" r="64.00" fill="rgb(185,90,65)" fill-opacity="0.502"/>
<polygon points="4744.66,1089.70 4843.55,1037.12 5031.34,1390.30 4932.45,1442.88" fill="rgb(125,44,37)" fill-opacity="0.502"/>
<g transform="translate(2800.00 3952.00) rotate(296) scale(48.00 112.00)"><ellipse cx="0" cy="0" rx="1" ry="1" fill="rgb(206,90,59)" fill-opacity="0.502"/></g>
<g transform="translate(2560.00 4576.00) rotate(290) scale(96.00 240.00)"><ellipse cx="0" cy="0" rx="1" ry="1" fill="rgb(16,7,4)" fill-opacity="0.502"/></g>
<circle cx="2176.00" cy="2800.00" r="432.00" fill="rgb(14,6,2)" fill-opacity="0.502"/>
<circle cx="7072.00" cy="4080.00" r="160.00" fill="rgb(10,4,3)" fill-opacity="0.502"/>
<polygon points="2579.03,4244.92 2594.41,4249.33 2492.97,4603.08 2477.59,4598.67" fill="rgb(8,6,2)" fill-opacity="0.502"/>
<circle cx="4944.00" cy="3024.00" r="144.00" fill="rgb(193,93,69)" fill-opacity="0.502"/>
<g transform="translate(4992.00 224.00) rotate(281) scale(96.00 432.00)"><ellipse cx="0" cy="0" rx="1" ry="1" fill="rgb(17,8,4)" fill-opacity="0.502"/></g>
<circle cx="3408.00" cy="576.00" r="416.00" fill="rgb(22,7,4)" fill-opacity="0.502"/>
<g transform="translate(3264.00 1040.00) rotate(354) scale(432.00 688.00)"><ellipse cx="0" cy="0" rx="1" ry="1" fill="rgb(22,7,4)" fill-opacity="0.502"/></g>
<circle cx="3712.00" cy="4512.00" r="304.00" fill="rgb(16,7,2)" fill-opacity="0.502"/>
<circle cx="1344.00" cy="1824.00" r="240.00" fill="rgb(29,12,20)" fill-opacity="0.502"/>
<polygon points="1525.08,1952.90 1406.37,1762.93 1514.92,1695.10 1633.63,1885.07" fill="rgb(15,4,13)" fill-opacity="0.502"/>
<g transform="translate(6928.00 3744.00) rotate(185) scale(160.00 288.00)"><ellipse cx="0" cy="0" rx="1" ry="1" fill="rgb(19,11,5)" fill-opacity="0.502"/></g>
<polygon points="5822.40,1381.99 5454.91,1401.25 5425.60,842.01 5793.09,822.75" fill="rgb(28,10,8)" fill-opacity="0.502"/>
<polygon points="6346.57,4430.75 6122.90,4099.14 6149.43,4081.25 6373.10,4412.86" fill="rgb(69,62,61)" fill-opacity="0.502"/>
<circle cx="6944.00" cy="992.00" r="144.00" fill="rgb(5,8,20)" fill-opacity="0.502"/>
<g transform="translate(6320.00 3888.00) rotate(329) scale(208.00 448.00)"><ellipse cx="0" cy="0" rx="1" ry="1" fill="rgb(16,7,4)" fill-opacity="0.502"/></g>
<circle cx="2032.00" cy="3680.00" r="400.00" fill="rgb(16,6,2)" fill-opacity="0.502"/>
<circle cx="7040.00" cy="208.00" r="112.00" fill="rgb(9,12,30)" fill-opacity="0.502"/>
<circle cx="4096.00" cy="2640.00" r="176.00" fill="rgb(16,5,1)" fill-opacity="0.502"/>
<circle cx="3984.00" cy="3248.00" r="416.00" fill="rgb(23,9,5)" fill-opacity="0.502"/>
<circle cx="1168.00" cy="1504.00" r="80.00" fill="rgb(30,17,27)" fill-opacity="0.502"/>
<circle cx="3552.00" cy="2944.00" r="448.00" fill="rgb(22,9,5)" fill-opacity="0.502"/>
<circle cx="3808.00" cy="976.00" r="112.00" fill="rgb(125,46,36)" fill-opacity="0.502"/>
<circle cx="6432.00" cy="3632.00" r="48.00" fill="rgb(67,59,65)" fill-opacity="0.502"/>
<circle cx="2608.00" cy="3664.00" r="144.00" fill="rgb(202,87,66)" fill-opacity="0.502"/>
<circle cx="6464.00" cy="4576.00" r="32.00" fill="rgb(79,65,61)" fill-opacity="0.502"/>
<circle cx="5008.00" cy="2720.00" r="80.00" fill="rgb(182,87,74)" fill-opacity="0.502"/>
<polygon points="6672.27,547.52 6850.96,301.58 7135.73,508.48 6957.04,754.42" fill="rgb(9,10,19)" fill-opacity="0.502"/>
<circle cx="2896.00" cy="3792.00" r="80.00" fill="rgb(124,36,20)" fill-opacity="0.502"/>
<circle cx="5984.00" cy="1488.00" r="256.00" fill="rgb(12,5,1)" fill-opacity="0.502"/>
<circle cx="6176.00" cy="3424.00" r="304.00" fill="rgb(13,6,2)" fill-opacity="0.502"/>
<circle cx="4432.00" cy="1328.00" r="144.00" fill="rgb(155,62,45)" fill-opacity="0.502"/>
<circle cx="4112.00" cy="4304.00" r="272.00" fill="rgb(15,6,2)" fill-opacity="0.502"/>
<g transform="translate(6784.00 1824.00) rotate(27) scale(80.00 80.00)"><ellipse cx="0" cy="0" rx="1" ry="1" fill="rgb(135,67,61)" fill-opacity="0.502"/></g>
<circle cx="6864.00" cy="3312.00" r="208.00" fill="rgb(18,8,2)" fill-opacity="0.502"/>
<polygon points="2001.07,2969.33 2796.39,2631.74 2958.93,3014.67 2163.61,3352.26" fill="rgb(15,6,2)" fill-opacity="0.502"/>
<circle cx="3872.00" cy="2960.00" r="384.00" fill="rgb(24,10,6)" fill-opacity="0.502"/>
<circle cx="5488.00" cy="672.00" r="192.00" fill="rgb(23,8,7)" fill-opacity="0.502"/>
<circle cx="4704.00" cy="2912.00" r="48.00" fill="rgb(10,0,0)" fill-opacity="0.502"/>
<g transform="translate(5088.00 4496.00) rotate(291) scale(656.00 256.00)"><ellipse cx="0" cy="0" rx="1" ry="1" fill="rgb(15,8,2)" fill-opacity="0.502"/></g>
<polygon points="3021.08,2973.44 3117.08,3031.13 3042.92,3154.56 2946.92,3096.87" fill="rgb(100,62,53)" fill-opacity="0.502"/>
<circle cx="4144.00" cy="1872.00" r="128.00" fill="rgb(168,62,40)" fill-opacity="0.502"/>
<g transform="translate(2816.00 1008.00) rotate(182) scale(352.00 336.00)"><ellipse cx="0" cy="0" rx="1" ry="1" fill="rgb(24,7,5)" fill-opacity="0.502"/></g>
<circle cx="7200.00" cy="1024.00" r="144.00" fill="rgb(0,0,0)" fill-opacity="0.502"/>
<circle cx="2576.00" cy="2032.00" r="48.00" fill="rgb(40,10,2)" fill-opacity="0.502"/>
<g transform="translate(4976.00 1040.00) rotate(63) scale(400.00 80.00)"><ellipse cx="0" cy="0" rx="1" ry="1" fill="rgb(101,33,25)" fill-opacity="0.502"/></g>
<circle cx="6640.00" cy="768.00" r="320.00" fill="rgb(10,7,12)" fill-opacity="0.502"/>
<polygon points="4768.85,3438.75 4912.83,3441.26 4911.15,3537.25 4767.17,3534.74" fill="rgb(195,91,75)" fill-opacity="0.502"/>
<polygon points="5250.01,3483.01 5204.12,3548.54 4941.99,3364.99 4987.88,3299.46" fill="rgb(136,55,52)" fill-opacity="0.502"/>
<circle cx="6544.00" cy="1264.00" r="64.00" fill="rgb(120,64,60)" fill-opacity="0.502"/>
<polygon points="3350.38,1735.86 3497.76,1469.97 3833.62,1656.14 3686.24,1922.03" fill="rgb(22,8,6)" fill-opacity="0.502"/>
<g transform="translate(5232.00 736.00) rotate(203) scale(352.00 48.00)"><ellipse cx="0" cy="0" rx="1" ry="1" fill="rgb(43,15,16)" fill-opacity="0.502"/></g>
<polygon points="1598.45,2770.04 1376.16,3000.22 1249.55,2877.96 1471.84,2647.78" fill="rgb(17,6,0)" fill-opacity="0.502"/>
<polygon points="4760.69,3437.75 4641.31,3518.28 4471.31,3266.25 4590.69,3185.72" fill="rgb(137,57,57)" fill-opacity="0.502"/>
<polygon points="2353.95,2245.39 2428.12,2215.42 2494.05,2378.61 2419.88,2408.58" fill="rgb(62,18,12)" fill-opacity="0.502"/>
<polygon points="4767.72,2932.81 4744.78,2873.06 4864.28,2827.19 4887.22,2886.94" fill="rgb(36,0,0)" fill-opacity="0.502"/>
<polygon points="4430.77,2623.94 4554.38,2829.66 4417.23,2912.06 4293.62,2706.34" fill="rgb(207,106,76)" fill-opacity="0.502"/>
<polygon points="5647.22,2158.43 5393.13,2189.63 5328.78,1665.57 5582.87,1634.37" fill="rgb(12,5,1)" fill-opacity="0.502"/>
<polygon points="5699.53,4558.61 5743.01,4144.89 6204.47,4193.39 6160.99,4607.11" fill="rgb(17,11,8)" fill-opacity="0.502"/>
<g transform="translate(6880.00 1472.00) rotate(331) scale(16.00 48.00)"><ellipse cx="0" cy="0" rx="1" ry="1" fill="rgb(173,103,102)" fill-opacity="0.502"/></g>
<polygon points="7018.82,52.19 6695.53,313.98 6645.18,251.81 6968.47,-9.98" fill="rgb(7,9,22)" fill-opacity="0.502"/>
<polygon points="4933.07,1837.53 4905.98,1946.21 4874.93,1938.47 4902.02,1829.79" fill="rgb(117,121,113)" fill-opacity="0.502"/>
<circle cx="4752.00" cy="2752.00" r="64.00" fill="rgb(144,40,41)" fill-opacity="0.502"/>
<polygon points="3817.01,1652.13 3787.55,1664.63 3574.99,1163.87 3604.45,1151.37" fill="rgb(20,5,0)" fill-opacity="0.502"/>
<circle cx="1264.00" cy="1888.00" r="192.00" fill="rgb(28,14,21)" fill-opacity="0.502"/>
<polygon points="5752.00,2456.00 5752.00,2856.00 5592.00,2856.00 5592.00,2456.00" fill="rgb(115,34,29)" fill-opacity="0.502"/>
<polygon points="5774.56,1871.31 5412.12,2134.63 5233.44,1888.69 5595.88,1625.37" fill="rgb(14,6,2)" fill-opacity="0.502"/>
<polygon points="4552.50,1784.00 4482.02,1871.04 4295.50,1720.00 4365.98,1632.96" fill="rgb(204,102,83)" fill-opacity="0.502"/>
<g transform="translate(5360.00 3760.00) rotate(149) scale(64.00 176.00)"><ellipse cx="0" cy="0" rx="1" ry="1" fill="rgb(88,30,19)" fill-opacity="0.502"/></g>
<g transform="translate(6608.00 1824.00) rotate(179) scale(80.00 528.00)"><ellipse cx="0" cy="0" rx="1" ry="1" fill="rgb(19,7,4)" fill-opacity="0.502"/></g>
<polygon points="1923.64,1946.94 2042.32,1994.89 2012.36,2069.06 1893.68,2021.11" fill="rgb(76,33,26)" fill-opacity="0.502"/>
<polygon points="3804.58,691.53 4103.00,449.87 4163.42,524.47 3865.00,766.13" fill="rgb(46,18,15)" fill-opacity="0.502"/>
<polygon points="4268.26,1220.29 4243.98,756.92 4419.74,747.71 4444.02,1211.08" fill="rgb(159,74,53)" fill-opacity="0.502"/>
<g transform="translate(4528.00 2304.00) rotate(173) scale(112.00 304.00)"><ellipse cx="0" cy="0" rx="1" ry="1" fill="rgb(15,5,0)" fill-opacity="0.502"/></g>
<polygon points="4303.27,2409.92 4333.24,2484.10 4288.73,2502.08 4258.76,2427.90" fill="rgb(134,70,70)" fill-opacity="0.502"/>
<polygon points="6673.69,1240.23 7009.16,1458.09 6974.31,1511.77 6638.84,1293.91" fill="rgb(34,4,0)" fill-opacity="0.502"/>
<circle cx="4944.00" cy="1872.00" r="32.00" fill="rgb(20,2,6)" fill-opacity="0.502"/>
<polygon points="6982.96,4384.65 6700.82,4772.97 6649.04,4735.35 6931.18,4347.03" fill="rgb(45,37,38)" fill-opacity="0.502"/>
<circle cx="5584.00" cy="1968.00" r="128.00" fill="rgb(14,6,0)" fill-opacity="0.502"/>
<polygon points="6348.57,4432.61 5928.75,4665.32 5843.43,4511.39 6263.25,4278.68" fill="rgb(22,13,11)" fill-opacity="0.502"/>
<polygon points="5919.62,3863.37 6176.74,4169.79 5968.38,4344.63 5711.26,4038.21" fill="rgb(11,4,1)" fill-opacity="0.502"/>
<polygon points="4935.79,993.81 5185.85,1582.93 5112.21,1614.19 4862.15,1025.07" fill="rgb(120,40,30)" fill-opacity="0.502"/>
<polygon points="5478.84,2453.07 5385.23,2540.37 5145.16,2282.93 5238.77,2195.63" fill="rgb(13,5,2)" fill-opacity="0.502"/>
<polygon points="2786.20,2138.24 2753.07,2014.60 2845.80,1989.76 2878.93,2113.40" fill="rgb(65,44,68)" fill-opacity="0.502"/>
<circle cx="4784.00" cy="1872.00" r="32.00" fill="rgb(142,84,89)" fill-opacity="0.502"/>
<g transform="translate(4832.00 3216.00) rotate(7) scale(192.00 64.00)"><ellipse cx="0" cy="0" rx="1" ry="1" fill="rgb(90,25,4)" fill-opacity="0.502"/></g>
<polygon points="6551.97,3713.81 6593.17,3645.23 6648.03,3678.19 6606.83,3746.77" fill="rgb(17,1,4)" fill-opacity="0.502"/>
<polygon points="4202.49,809.29 4244.88,877.13 3973.51,1046.71 3931.12,978.87" fill="rgb(151,69,50)" fill-opacity="0.502"/>
<circle cx="1856.00" cy="4528.00" r="448.00" fill="rgb(12,7,6)" fill-opacity="0.502"/>
<circle cx="5056.00" cy="2880.00" r="112.00" fill="rgb(173,69,48)" fill-opacity="0.502"/>
<circle cx="5664.00" cy="4144.00" r="80.00" fill="rgb(37,27,29)" fill-opacity="0.502"/>
<g transform="translate(6240.00 0.00) rotate(125) scale(304.00 368.00)"><ellipse cx="0" cy="0" rx="1" ry="1" fill="rgb(13,6,8)" fill-opacity="0.502"/></g>
<polygon points="1796.63,1995.17 1781.37,1916.63 2315.37,1812.83 2330.63,1891.37" fill="rgb(38,10,11)" fill-opacity="0.502"/>
<circle cx="5184.00" cy="1872.00" r="176.00" fill="rgb(19,8,2)" fill-opacity="0.502"/>
<circle cx="4688.00" cy="1696.00" r="64.00" fill="rgb(200,107,84)" fill-opacity="0.502"/>
<polygon points="3244.37,4495.84 3146.41,4550.13 3107.63,4480.16 3205.59,4425.87" fill="rgb(255,164,129)" fill-opacity="0.502"/>
<polygon points="5594.24,2176.21 5678.21,2272.81 5605.76,2335.79 5521.79,2239.19" fill="rgb(121,56,57)" fill-opacity="0.502"/>
<polygon points="4609.47,747.15 4782.53,1035.16 4686.53,1092.85 4513.47,804.84" fill="rgb(119,42,30)" fill-opacity="0.502"/>
<circle cx="6720.00" cy="2352.00" r="288.00" fill="rgb(11,7,5)" fill-opacity="0.502"/>
<g transform="translate(3520.00 3312.00) rotate(165) scale(288.00 304.00)"><ellipse cx="0" cy="0" rx="1" ry="1" fill="rgb(25,10,6)" fill-opacity="0.502"/></g>
<circle cx="3680.00" cy="224.00" r="224.00" fill="rgb(25,7,5)" fill-opacity="0.502"/>
<circle cx="3344.00" cy="1680.00" r="464.00" fill="rgb(23,8,5)" fill-opacity="0.502"/>
<circle cx="1616.00" cy="272.00" r="224.00" fill="rgb(18,11,18)" fill-opacity="0.502"/>
<circle cx="6144.00" cy="992.00" r="448.00" fill="rgb(13,6,2)" fill-opacity="0.502"/>
<polygon points="5715.47,3044.50 5851.93,2887.52 5948.53,2971.50 5812.07,3128.48" fill="rgb(50,14,13)" fill-opacity="0.502"/>
<g transform="translate(4688.00 3040.00) rotate(137) scale(128.00 64.00)"><ellipse cx="0" cy="0" rx="1" ry="1" fill="rgb(155,69,51)" fill-opacity="0.502"/></g>
<g transform="translate(2592.00 3472.00) rotate(136) scale(224.00 16.00)"><ellipse cx="0" cy="0" rx="1" ry="1" fill="rgb(142,59,66)" fill-opacity="0.502"/></g>
</g>
</svg>