<?xml version="1.0" standalone="no"?>
<svg xmlns="http://www.w3.org/2000/svg" width="8192" height="4608" viewBox="0 0 8192 4608" style="overflow:hidden">
<defs>
<clipPath id="c"><rect x="0" y="0" width="8192" height="4608"/></clipPath>
</defs>
<rect width="8192" height="4608" fill="rgb(3,5,16)"/>
<g clip-path="url(#c)">
<g transform="translate(3744.00 1936.00) rotate(73) scale(256.00 1168.00)"><ellipse cx="0" cy="0" rx="1" ry="1" fill="rgb(78,98,157)" fill-opacity="0.502"/></g>
<circle cx="5920.00" cy="480.00" r="848.00" fill="rgb(23,40,81)" fill-opacity="0.502"/>
<circle cx="3056.00" cy="0.00" r="976.00" fill="rgb(20,32,98)" fill-opacity="0.502"/>
<circle cx="6880.00" cy="2624.00" r="208.00" fill="rgb(18,59,168)" fill-opacity="0.502"/>
<g transform="translate(6240.00 2704.00) rotate(261) scale(128.00 864.00)"><ellipse cx="0" cy="0" rx="1" ry="1" fill="rgb(15,48,142)" fill-opacity="0.502"/></g>
<circle cx="3648.00" cy="1888.00" r="208.00" fill="rgb(93,123,197)" fill-opacity="0.502"/>
<circle cx="4464.00" cy="1728.00" r="528.00" fill="rgb(29,33,65)" fill-opacity="0.502"/>
<circle cx="3776.00" cy="2592.00" r="576.00" fill="rgb(5,8,33)" fill-opacity="0.502"/>
<circle cx="3872.00" cy="496.00" r="512.00" fill="rgb(35,1,34)" fill-opacity="0.502"/>
<g transform="translate(8160.00 2112.00) rotate(359) scale(1104.00 4592.00)"><ellipse cx="0" cy="0" rx="1" ry="1" fill="rgb(0,0,0)" fill-opacity="0.502"/></g>
<circle cx="2384.00" cy="0.00" r="272.00" fill="rgb(20,59,149)" fill-opacity="0.502"/>
<circle cx="176.00" cy="2848.00" r="2640.00" fill="rgb(0,0,0)" fill-opacity="0.502"/>
<circle cx="4144.00" cy="4480.00" r="1696.00" fill="rgb(0,0,0)" fill-opacity="0.502"/>
<circle cx="6496.00" cy="1888.00" r="656.00" fill="rgb(0,0,0)" fill-opacity="0.502"/>
<circle cx="3376.00" cy="1024.00" r="560.00" fill="rgb(2,7,32)" fill-opacity="0.502"/>
<g transform="translate(4784.00 1520.00) rotate(84) scale(240.00 352.00)"><ellipse cx="0" cy="0" rx="1" ry="1" fill="rgb(0,0,11)" fill-opacity="0.502"/></g>
<circle cx="3040.00" cy="2256.00" r="352.00" fill="rgb(38,51,82)" fill-opacity="0.502"/>
<polygon points="4422.88,1978.37 4388.05,1838.65 4745.12,1749.63 4779.95,1889.35" fill="rgb(87,102,145)" fill-opacity="0.502"/>
<circle cx="5696.00" cy="272.00" r="336.00" fill="rgb(27,43,85)" fill-opacity="0.502"/>
<g transform="translate(4752.00 2688.00) rotate(180) scale(1120.00 368.00)"><ellipse cx="0" cy="0" rx="1" ry="1" fill="rgb(2,8,48)" fill-opacity="0.502"/></g>
<circle cx="5824.00" cy="4032.00" r="800.00" fill="rgb(0,0,0)" fill-opacity="0.502"/>
<polygon points="6465.52,987.66 6672.38,965.92 6702.48,1252.34 6495.62,1274.08" fill="rgb(23,50,87)" fill-opacity="0.502"/>
<circle cx="1680.00" cy="720.00" r="576.00" fill="rgb(9,1,30)" fill-opacity="0.502"/>
<polygon points="3550.17,1852.54 3583.32,2122.51 3249.83,2163.46 3216.68,1893.49" fill="rgb(85,111,181)" fill-opacity="0.502"/>
<polygon points="2840.96,776.01 2461.89,145.13 2983.04,-168.01 3362.11,462.87" fill="rgb(8,31,81)" fill-opacity="0.502"/>
<circle cx="6896.00" cy="3456.00" r="224.00" fill="rgb(30,45,69)" fill-opacity="0.502"/>
<circle cx="272.00" cy="768.00" r="944.00" fill="rgb(0,0,0)" fill-opacity="0.502"/>
<polygon points="7078.86,1309.73 6055.49,1345.46 6009.14,18.27 7032.51,-17.46" fill="rgb(7,13,32)" fill-opacity="0.502"/>
<g transform="translate(7152.00 3152.00) rotate(321) scale(256.00 512.00)"><ellipse cx="0" cy="0" rx="1" ry="1" fill="rgb(0,0,0)" fill-opacity="0.502"/></g>
<polygon points="1264.00,2736.00 1600.00,2736.00 1600.00,2800.00 1264.00,2800.00" fill="rgb(37,62,164)" fill-opacity="0.502"/>
<g transform="translate(4080.00 1760.00) rotate(215) scale(224.00 320.00)"><ellipse cx="0" cy="0" rx="1" ry="1" fill="rgb(61,73,114)" fill-opacity="0.502"/></g>
<g transform="translate(3536.00 288.00) rotate(246) scale(336.00 224.00)"><ellipse cx="0" cy="0" rx="1" ry="1" fill="rgb(0,16,45)" fill-opacity="0.502"/></g>
<g transform="translate(4480.00 2368.00) rotate(38) scale(80.00 160.00)"><ellipse cx="0" cy="0" rx="1" ry="1" fill="rgb(28,48,120)" fill-opacity="0.502"/></g>
<polygon points="2256.22,1936.92 2275.67,1826.62 2527.78,1871.08 2508.33,1981.38" fill="rgb(136,12,93)" fill-opacity="0.502"/>
<g transform="translate(5184.00 992.00) rotate(276) scale(608.00 240.00)"><ellipse cx="0" cy="0" rx="1" ry="1" fill="rgb(3,1,8)" fill-opacity="0.502"/></g>
<circle cx="2864.00" cy="1728.00" r="384.00" fill="rgb(1,0,12)" fill-opacity="0.502"/>
<g transform="translate(3392.00 896.00) rotate(37) scale(256.00 624.00)"><ellipse cx="0" cy="0" rx="1" ry="1" fill="rgb(6,14,44)" fill-opacity="0.502"/></g>
<circle cx="0.00" cy="3280.00" r="1440.00" fill="rgb(0,0,0)" fill-opacity="0.502"/>
<g transform="translate(4272.00 2176.00) rotate(144) scale(192.00 208.00)"><ellipse cx="0" cy="0" rx="1" ry="1" fill="rgb(0,0,0)" fill-opacity="0.502"/></g>
<circle cx="7840.00" cy="1872.00" r="976.00" fill="rgb(0,0,0)" fill-opacity="0.502"/>
<g transform="translate(5728.00 736.00) rotate(261) scale(576.00 320.00)"><ellipse cx="0" cy="0" rx="1" ry="1" fill="rgb(20,36,74)" fill-opacity="0.502"/></g>
<circle cx="3920.00" cy="144.00" r="160.00" fill="rgb(89,8,59)" fill-opacity="0.502"/>
<circle cx="2368.00" cy="352.00" r="256.00" fill="rgb(4,22,68)" fill-opacity="0.502"/>
<circle cx="4640.00" cy="384.00" r="512.00" fill="rgb(0,0,9)" fill-opacity="0.502"/>
<g transform="translate(2128.00 752.00) rotate(169) scale(544.00 224.00)"><ellipse cx="0" cy="0" rx="1" ry="1" fill="rgb(0,4,21)" fill-opacity="0.502"/></g>
<circle cx="5744.00" cy="1984.00" r="640.00" fill="rgb(0,0,3)" fill-opacity="0.502"/>
<g transform="translate(7792.00 3312.00) rotate(0) scale(704.00 4592.00)"><ellipse cx="0" cy="0" rx="1" ry="1" fill="rgb(0,0,0)" fill-opacity="0.502"/></g>
<g transform="translate(3696.00 1360.00) rotate(136) scale(368.00 352.00)"><ellipse cx="0" cy="0" rx="1" ry="1" fill="rgb(4,1,19)" fill-opacity="0.502"/></g>
<circle cx="1616.00" cy="64.00" r="496.00" fill="rgb(10,1,26)" fill-opacity="0.502"/>
<circle cx="3312.00" cy="816.00" r="336.00" fill="rgb(1,5,22)" fill-opacity="0.502"/>
<polygon points="5065.87,1793.17 4631.15,1415.28 4694.13,1342.83 5128.85,1720.72" fill="rgb(11,25,80)" fill-opacity="0.502"/>
<polygon points="4395.13,1979.50 4460.20,2390.37 3764.87,2500.50 3699.80,2089.63" fill="rgb(0,0,3)" fill-opacity="0.502"/>
<g transform="translate(3952.00 3280.00) rotate(147) scale(592.00 496.00)"><ellipse cx="0" cy="0" rx="1" ry="1" fill="rgb(0,0,14)" fill-opacity="0.502"/></g>
<polygon points="448.00,3648.00 5088.00,3648.00 5088.00,4592.00 448.00,4592.00" fill="rgb(0,0,0)" fill-opacity="0.502"/>
<polygon points="6667.63,779.15 6676.29,1275.08 6116.37,1284.85 6107.71,788.92" fill="rgb(15,28,54)" fill-opacity="0.502"/>
<polygon points="965.96,1224.24 1192.24,997.96 1690.04,1495.76 1463.76,1722.04" fill="rgb(7,0,23)" fill-opacity="0.502"/>
<polygon points="3840.00,256.00 4032.00,256.00 4032.00,992.00 3840.00,992.00" fill="rgb(59,3,44)" fill-opacity="0.502"/>
<g transform="translate(2752.00 1776.00) rotate(43) scale(144.00 416.00)"><ellipse cx="0" cy="0" rx="1" ry="1" fill="rgb(0,0,6)" fill-opacity="0.502"/></g>
<circle cx="2352.00" cy="48.00" r="96.00" fill="rgb(39,76,172)" fill-opacity="0.502"/>
<circle cx="2976.00" cy="3088.00" r="560.00" fill="rgb(0,0,17)" fill-opacity="0.502"/>
<g transform="translate(2288.00 1552.00) rotate(29) scale(208.00 400.00)"><ellipse cx="0" cy="0" rx="1" ry="1" fill="rgb(2,0,17)" fill-opacity="0.502"/></g>
<circle cx="6064.00" cy="4352.00" r="496.00" fill="rgb(0,0,0)" fill-opacity="0.502"/>
<polygon points="2403.22,272.86 2444.78,296.86 2348.78,463.14 2307.22,439.14" fill="rgb(28,52,131)" fill-opacity="0.502"/>
<polygon points="6449.34,592.67 6557.53,563.69 6590.66,687.33 6482.47,716.31" fill="rgb(32,48,108)" fill-opacity="0.502"/>
<circle cx="4528.00" cy="1440.00" r="320.00" fill="rgb(9,9,26)" fill-opacity="0.502"/>
<polygon points="3257.21,2215.09 3826.28,2378.27 3702.79,2808.91 3133.72,2645.73" fill="rgb(15,23,43)" fill-opacity="0.502"/>
<polygon points="3117.52,2278.97 3433.26,2164.05 3586.48,2585.03 3270.74,2699.95" fill="rgb(20,30,47)" fill-opacity="0.502"/>
<polygon points="5472.00,336.00 5472.00,928.00 5456.00,928.00 5456.00,336.00" fill="rgb(88,125,211)" fill-opacity="0.502"/>
<circle cx="2992.00" cy="0.00" r="320.00" fill="rgb(7,24,67)" fill-opacity="0.502"/>
<g transform="translate(2016.00 224.00) rotate(360) scale(80.00 448.00)"><ellipse cx="0" cy="0" rx="1" ry="1" fill="rgb(7,16,49)" fill-opacity="0.502"/></g>
<polygon points="3131.99,801.13 3011.60,1131.90 2756.01,1038.87 2876.40,708.10" fill="rgb(0,0,6)" fill-opacity="0.502"/>
<polygon points="6558.76,3207.38 6728.40,2741.29 7089.24,2872.62 6919.60,3338.71" fill="rgb(0,0,21)" fill-opacity="0.502"/>
<polygon points="4818.48,1916.76 5169.62,1892.21 5197.52,2291.24 4846.38,2315.79" fill="rgb(0,0,0)" fill-opacity="0.502"/>
<polygon points="2896.00,1168.00 3440.00,1168.00 3440.00,1312.00 2896.00,1312.00" fill="rgb(13,25,74)" fill-opacity="0.502"/>
<g transform="translate(2768.00 2032.00) rotate(25) scale(80.00 64.00)"><ellipse cx="0" cy="0" rx="1" ry="1" fill="rgb(73,82,131)" fill-opacity="0.502"/></g>
<g transform="translate(6992.00 288.00) rotate(74) scale(192.00 64.00)"><ellipse cx="0" cy="0" rx="1" ry="1" fill="rgb(41,60,94)" fill-opacity="0.502"/></g>
<g transform="translate(6672.00 2592.00) rotate(254) scale(96.00 480.00)"><ellipse cx="0" cy="0" rx="1" ry="1" fill="rgb(14,40,114)" fill-opacity="0.502"/></g>
<circle cx="544.00" cy="304.00" r="624.00" fill="rgb(0,0,0)" fill-opacity="0.502"/>
<g transform="translate(3168.00 0.00) rotate(80) scale(112.00 128.00)"><ellipse cx="0" cy="0" rx="1" ry="1" fill="rgb(31,60,149)" fill-opacity="0.502"/></g>
<circle cx="1360.00" cy="3248.00" r="448.00" fill="rgb(1,1,17)" fill-opacity="0.502"/>
<polygon points="3523.68,1692.47 3516.98,1564.65 3996.32,1539.53 4003.02,1667.35" fill="rgb(0,0,0)" fill-opacity="0.502"/>
<g transform="translate(496.00 2160.00) rotate(0) scale(624.00 4544.00)"><ellipse cx="0" cy="0" rx="1" ry="1" fill="rgb(0,0,0)" fill-opacity="0.502"/></g>
<circle cx="6576.00" cy="192.00" r="368.00" fill="rgb(4,5,22)" fill-opacity="0.502"/>
<polygon points="5808.00,672.00 5808.00,992.00 5744.00,992.00 5744.00,672.00" fill="rgb(44,72,119)" fill-opacity="0.502"/>
<g transform="translate(7424.00 416.00) rotate(352) scale(320.00 4592.00)"><ellipse cx="0" cy="0" rx="1" ry="1" fill="rgb(0,0,0)" fill-opacity="0.502"/></g>
<circle cx="4736.00" cy="1120.00" r="240.00" fill="rgb(0,0,4)" fill-opacity="0.502"/>
<polygon points="3319.65,927.54 3276.46,740.46 3432.35,704.46 3475.54,891.54" fill="rgb(20,40,92)" fill-opacity="0.502"/>
<circle cx="4256.00" cy="1616.00" r="192.00" fill="rgb(47,52,87)" fill-opacity="0.502"/>
<circle cx="6816.00" cy="3728.00" r="224.00" fill="rgb(7,18,32)" fill-opacity="0.502"/>
<polygon points="1120.00,2800.00 1664.00,2800.00 1664.00,2880.00 1120.00,2880.00" fill="rgb(11,18,60)" fill-opacity="0.502"/>
<circle cx="1344.00" cy="1824.00" r="240.00" fill="rgb(5,0,22)" fill-opacity="0.502"/>
<circle cx="6832.00" cy="2080.00" r="416.00" fill="rgb(0,0,0)" fill-opacity="0.502"/>
<circle cx="2912.00" cy="624.00" r="80.00" fill="rgb(38,72,167)" fill-opacity="0.502"/>
<g transform="translate(5904.00 3232.00) rotate(268) scale(288.00 832.00)"><ellipse cx="0" cy="0" rx="1" ry="1" fill="rgb(0,0,11)" fill-opacity="0.502"/></g>
<circle cx="3456.00" cy="1952.00" r="160.00" fill="rgb(72,95,157)" fill-opacity="0.502"/>
<polygon points="5728.00,2752.00 4640.00,2752.00 4640.00,2496.00 5728.00,2496.00" fill="rgb(0,0,14)" fill-opacity="0.502"/>
<g transform="translate(6800.00 3424.00) rotate(189) scale(208.00 80.00)"><ellipse cx="0" cy="0" rx="1" ry="1" fill="rgb(35,49,82)" fill-opacity="0.502"/></g>
<circle cx="5152.00" cy="80.00" r="64.00" fill="rgb(66,91,156)" fill-opacity="0.502"/>
<polygon points="5854.69,-0.87 5902.62,1.64 5873.31,560.87 5825.38,558.36" fill="rgb(0,0,0)" fill-opacity="0.502"/>
<polygon points="2844.99,917.10 2600.75,1069.72 2499.01,906.90 2743.25,754.28" fill="rgb(17,29,82)" fill-opacity="0.502"/>
<polygon points="4333.76,2468.86 4018.85,2831.12 3922.24,2747.14 4237.15,2384.88" fill="rgb(13,19,60)" fill-opacity="0.502"/>
<g transform="translate(2864.00 3504.00) rotate(217) scale(192.00 160.00)"><ellipse cx="0" cy="0" rx="1" ry="1" fill="rgb(0,0,0)" fill-opacity="0.502"/></g>
<polygon points="4431.91,1771.78 4497.40,1985.99 4176.09,2084.22 4110.60,1870.01" fill="rgb(54,66,100)" fill-opacity="0.502"/>
<polygon points="6538.82,1002.86 6433.85,1123.61 6325.18,1029.14 6430.15,908.39" fill="rgb(0,0,11)" fill-opacity="0.502"/>
<polygon points="5333.60,1948.75 5447.65,1890.64 5578.40,2147.25 5464.35,2205.36" fill="rgb(11,17,58)" fill-opacity="0.502"/>
<g transform="translate(4080.00 0.00) rotate(284) scale(304.00 64.00)"><ellipse cx="0" cy="0" rx="1" ry="1" fill="rgb(22,0,24)" fill-opacity="0.502"/></g>
<g transform="translate(2032.00 3328.00) rotate(182) scale(464.00 976.00)"><ellipse cx="0" cy="0" rx="1" ry="1" fill="rgb(0,0,7)" fill-opacity="0.502"/></g>
<g transform="translate(4352.00 3136.00) rotate(76) scale(368.00 592.00)"><ellipse cx="0" cy="0" rx="1" ry="1" fill="rgb(0,0,17)" fill-opacity="0.502"/></g>
<polygon points="6136.00,472.00 6136.00,-152.00 6200.00,-152.00 6200.00,472.00" fill="rgb(30,51,86)" fill-opacity="0.502"/>
<circle cx="3120.00" cy="1696.00" r="240.00" fill="rgb(1,0,21)" fill-opacity="0.502"/>
<polygon points="6965.92,354.21 6922.43,-59.52 6986.08,-66.21 7029.57,347.52" fill="rgb(35,47,77)" fill-opacity="0.502"/>
<circle cx="2832.00" cy="368.00" r="64.00" fill="rgb(48,64,135)" fill-opacity="0.502"/>
<g transform="translate(2800.00 176.00) rotate(263) scale(96.00 384.00)"><ellipse cx="0" cy="0" rx="1" ry="1" fill="rgb(0,6,30)" fill-opacity="0.502"/></g>
<polygon points="6448.99,1182.54 6623.35,1431.56 6335.01,1633.46 6160.65,1384.44" fill="rgb(0,0,1)" fill-opacity="0.502"/>
<polygon points="4685.99,1545.39 4819.69,1386.05 4930.01,1478.61 4796.31,1637.95" fill="rgb(15,33,112)" fill-opacity="0.502"/>
<polygon points="3240.29,478.67 2918.97,380.43 2951.71,273.33 3273.03,371.57" fill="rgb(20,42,120)" fill-opacity="0.502"/>
<circle cx="6864.00" cy="3008.00" r="224.00" fill="rgb(0,1,16)" fill-opacity="0.502"/>
<g transform="translate(1376.00 672.00) rotate(90) scale(1120.00 272.00)"><ellipse cx="0" cy="0" rx="1" ry="1" fill="rgb(8,1,20)" fill-opacity="0.502"/></g>
<g transform="translate(4816.00 2400.00) rotate(87) scale(32.00 512.00)"><ellipse cx="0" cy="0" rx="1" ry="1" fill="rgb(25,53,131)" fill-opacity="0.502"/></g>
<polygon points="3744.45,2080.54 3691.66,2379.92 3439.55,2335.46 3492.34,2036.08" fill="rgb(14,17,27)" fill-opacity="0.502"/>
<circle cx="3648.00" cy="1856.00" r="112.00" fill="rgb(88,122,201)" fill-opacity="0.502"/>
<g transform="translate(2512.00 2384.00) rotate(277) scale(496.00 208.00)"><ellipse cx="0" cy="0" rx="1" ry="1" fill="rgb(0,0,9)" fill-opacity="0.502"/></g>
<circle cx="5152.00" cy="560.00" r="112.00" fill="rgb(33,40,72)" fill-opacity="0.502"/>
<g transform="translate(5600.00 1264.00) rotate(96) scale(144.00 160.00)"><ellipse cx="0" cy="0" rx="1" ry="1" fill="rgb(10,21,48)" fill-opacity="0.502"/></g>
<circle cx="3744.00" cy="1168.00" r="144.00" fill="rgb(13,13,38)" fill-opacity="0.502"/>
<circle cx="4496.00" cy="1664.00" r="96.00" fill="rgb(0,0,3)" fill-opacity="0.502"/>
<polygon points="4241.25,2019.98 4368.95,2260.14 3902.75,2508.02 3775.05,2267.86" fill="rgb(0,0,4)" fill-opacity="0.502"/>
<polygon points="7103.32,2719.07 6567.58,2813.53 6528.68,2592.93 7064.42,2498.47" fill="rgb(13,43,118)" fill-opacity="0.502"/>
<polygon points="3376.59,2178.84 3346.56,1989.21 3599.41,1949.16 3629.44,2138.79" fill="rgb(57,72,112)" fill-opacity="0.502"/>
<g transform="translate(5648.00 3664.00) rotate(354) scale(912.00 272.00)"><ellipse cx="0" cy="0" rx="1" ry="1" fill="rgb(0,0,5)" fill-opacity="0.502"/></g>
<g transform="translate(2048.00 1696.00) rotate(200) scale(224.00 336.00)"><ellipse cx="0" cy="0" rx="1" ry="1" fill="rgb(0,0,2)" fill-opacity="0.502"/></g>
<polygon points="6783.59,3929.22 6536.32,3862.97 6656.41,3414.78 6903.68,3481.03" fill="rgb(5,15,32)" fill-opacity="0.502"/>
<g transform="translate(5600.00 128.00) rotate(279) scale(224.00 224.00)"><ellipse cx="0" cy="0" rx="1" ry="1" fill="rgb(27,41,84)" fill-opacity="0.502"/></g>
<polygon points="5062.65,1157.41 4664.71,1425.82 4217.35,762.59 4615.29,494.18" fill="rgb(0,0,10)" fill-opacity="0.502"/>
<g transform="translate(4336.00 0.00) rotate(301) scale(336.00 256.00)"><ellipse cx="0" cy="0" rx="1" ry="1" fill="rgb(6,1,26)" fill-opacity="0.502"/></g>
<polygon points="4283.21,2782.39 4044.99,2753.14 4052.79,2689.61 4291.01,2718.86" fill="rgb(22,38,114)" fill-opacity="0.502"/>
<g transform="translate(6304.00 1408.00) rotate(273) scale(128.00 544.00)"><ellipse cx="0" cy="0" rx="1" ry="1" fill="rgb(0,0,3)" fill-opacity="0.502"/></g>
<polygon points="3238.29,2261.74 3002.75,2523.33 2681.71,2234.26 2917.25,1972.67" fill="rgb(41,52,85)" fill-opacity="0.502"/>
<g transform="translate(464.00 2016.00) rotate(145) scale(784.00 512.00)"><ellipse cx="0" cy="0" rx="1" ry="1" fill="rgb(0,0,0)" fill-opacity="0.502"/></g>
<polygon points="4748.90,1918.81 4701.34,1875.98 4819.10,1745.19 4866.66,1788.02" fill="rgb(70,75,103)" fill-opacity="0.502"/>
<circle cx="2384.00" cy="784.00" r="240.00" fill="rgb(2,2,24)" fill-opacity="0.502"/>
<polygon points="4190.71,1707.19 3917.15,1485.67 3937.29,1460.81 4210.85,1682.33" fill="rgb(83,92,130)" fill-opacity="0.502"/>
<g transform="translate(5200.00 32.00) rotate(181) scale(16.00 736.00)"><ellipse cx="0" cy="0" rx="1" ry="1" fill="rgb(103,138,226)" fill-opacity="0.502"/></g>
<polygon points="5453.39,1032.62 4943.58,1445.46 4802.61,1271.38 5312.42,858.54" fill="rgb(4,4,19)" fill-opacity="0.502"/>
<circle cx="5936.00" cy="2592.00" r="128.00" fill="rgb(2,5,36)" fill-opacity="0.502"/>
<circle cx="6560.00" cy="416.00" r="144.00" fill="rgb(13,21,53)" fill-opacity="0.502"/>
<g transform="translate(2608.00 1648.00) rotate(119) scale(288.00 192.00)"><ellipse cx="0" cy="0" rx="1" ry="1" fill="rgb(0,0,4)" fill-opacity="0.502"/></g>
<polygon points="5072.00,0.00 5136.00,0.00 5136.00,736.00 5072.00,736.00" fill="rgb(0,0,0)" fill-opacity="0.502"/>
<polygon points="4198.57,1053.98 3723.24,1120.78 3705.43,994.02 4180.76,927.22" fill="rgb(17,7,32)" fill-opacity="0.502"/>
<circle cx="3440.00" cy="3120.00" r="400.00" fill="rgb(0,0,18)" fill-opacity="0.502"/>
<g transform="translate(1648.00 2608.00) rotate(88) scale(160.00 176.00)"><ellipse cx="0" cy="0" rx="1" ry="1" fill="rgb(0,0,4)" fill-opacity="0.502"/></g>
<g transform="translate(1824.00 336.00) rotate(311) scale(176.00 112.00)"><ellipse cx="0" cy="0" rx="1" ry="1" fill="rgb(0,0,9)" fill-opacity="0.502"/></g>
<polygon points="3047.34,652.02 2833.50,543.06 2920.66,371.98 3134.50,480.94" fill="rgb(1,11,38)" fill-opacity="0.502"/>
<g transform="translate(2688.00 688.00) rotate(289) scale(208.00 32.00)"><ellipse cx="0" cy="0" rx="1" ry="1" fill="rgb(26,45,99)" fill-opacity="0.502"/></g>
<g transform="translate(4720.00 2128.00) rotate(99) scale(48.00 144.00)"><ellipse cx="0" cy="0" rx="1" ry="1" fill="rgb(11,23,72)" fill-opacity="0.502"/></g>
<g transform="translate(7744.00 544.00) rotate(229) scale(576.00 736.00)"><ellipse cx="0" cy="0" rx="1" ry="1" fill="rgb(0,0,0)" fill-opacity="0.502"/></g>
<g transform="translate(3616.00 400.00) rotate(196) scale(96.00 80.00)"><ellipse cx="0" cy="0" rx="1" ry="1" fill="rgb(20,49,102)" fill-opacity="0.502"/></g>
<polygon points="4635.25,1265.93 4691.80,1726.47 4564.75,1742.07 4508.20,1281.53" fill="rgb(0,0,0)" fill-opacity="0.502"/>
<circle cx="6080.00" cy="2752.00" r="176.00" fill="rgb(8,25,80)" fill-opacity="0.502"/>
<g transform="translate(6560.00 912.00) rotate(268) scale(352.00 16.00)"><ellipse cx="0" cy="0" rx="1" ry="1" fill="rgb(39,69,108)" fill-opacity="0.502"/></g>
<polygon points="2572.79,388.17 2398.20,200.95 2515.21,91.83 2689.80,279.05" fill="rgb(0,9,43)" fill-opacity="0.502"/>
<polygon points="5617.46,2435.41 4897.89,2460.53 4894.54,2364.59 5614.11,2339.47" fill="rgb(1,12,48)" fill-opacity="0.502"/>
<g transform="translate(2832.00 2176.00) rotate(57) scale(160.00 64.00)"><ellipse cx="0" cy="0" rx="1" ry="1" fill="rgb(61,78,124)" fill-opacity="0.502"/></g>
<g transform="translate(2480.00 336.00) rotate(206) scale(352.00 80.00)"><ellipse cx="0" cy="0" rx="1" ry="1" fill="rgb(12,31,86)" fill-opacity="0.502"/></g>
<polygon points="1625.57,3353.92 1346.32,3857.70 1094.43,3718.08 1373.68,3214.30" fill="rgb(2,2,20)" fill-opacity="0.502"/>
<polygon points="7102.25,3494.04 6925.51,3569.06 6881.75,3465.96 7058.49,3390.94" fill="rgb(41,47,62)" fill-opacity="0.502"/>
<g transform="translate(7056.00 1552.00) rotate(323) scale(80.00 304.00)"><ellipse cx="0" cy="0" rx="1" ry="1" fill="rgb(0,0,0)" fill-opacity="0.502"/></g>
<circle cx="2368.00" cy="1584.00" r="112.00" fill="rgb(14,5,52)" fill-opacity="0.502"/>
<g transform="translate(5312.00 1120.00) rotate(269) scale(1280.00 80.00)"><ellipse cx="0" cy="0" rx="1" ry="1" fill="rgb(0,0,0)" fill-opacity="0.502"/></g>
<polygon points="3661.61,502.89 3706.11,639.84 3234.39,793.11 3189.89,656.16" fill="rgb(0,0,8)" fill-opacity="0.502"/>
<polygon points="1988.32,935.52 1871.30,826.40 1947.68,744.48 2064.70,853.60" fill="rgb(12,20,63)" fill-opacity="0.502"/>
<circle cx="2848.00" cy="3808.00" r="528.00" fill="rgb(0,0,7)" fill-opacity="0.502"/>
<g transform="translate(6752.00 400.00) rotate(91) scale(1232.00 32.00)"><ellipse cx="0" cy="0" rx="1" ry="1" fill="rgb(0,0,0)" fill-opacity="0.502"/></g>
<polygon points="5469.08,970.58 5509.79,996.01 5458.92,1077.42 5418.21,1051.99" fill="rgb(54,65,129)" fill-opacity="0.502"/>
<g transform="translate(4288.00 1200.00) rotate(322) scale(144.00 16.00)"><ellipse cx="0" cy="0" rx="1" ry="1" fill="rgb(40,40,59)" fill-opacity="0.502"/></g>
<polygon points="4830.86,3374.24 4898.58,3177.58 5201.14,3281.76 5133.42,3478.42" fill="rgb(1,0,19)" fill-opacity="0.502"/>
<g transform="translate(2720.00 2480.00) rotate(59) scale(208.00 80.00)"><ellipse cx="0" cy="0" rx="1" ry="1" fill="rgb(10,13,35)" fill-opacity="0.502"/></g>
<g transform="translate(1792.00 48.00) rotate(108) scale(112.00 256.00)"><ellipse cx="0" cy="0" rx="1" ry="1" fill="rgb(15,9,37)" fill-opacity="0.502"/></g>
<polygon points="3453.87,19.24 3546.60,-5.61 3650.13,380.76 3557.40,405.61" fill="rgb(10,29,75)" fill-opacity="0.502"/>
<g transform="translate(6608.00 2944.00) rotate(342) scale(624.00 160.00)"><ellipse cx="0" cy="0" rx="1" ry="1" fill="rgb(0,0,18)" fill-opacity="0.502"/></g>
<g transform="translate(2544.00 1216.00) rotate(11) scale(448.00 256.00)"><ellipse cx="0" cy="0" rx="1" ry="1" fill="rgb(0,0,15)" fill-opacity="0.502"/></g>
<g transform="translate(3808.00 3776.00) rotate(78) scale(384.00 608.00)"><ellipse cx="0" cy="0" rx="1" ry="1" fill="rgb(0,0,5)" fill-opacity="0.502"/></g>
<circle cx="6576.00" cy="112.00" r="128.00" fill="rgb(12,22,50)" fill-opacity="0.502"/>
<g transform="translate(3760.00 1904.00) rotate(67) scale(112.00 304.00)"><ellipse cx="0" cy="0" rx="1" ry="1" fill="rgb(70,94,151)" fill-opacity="0.502"/></g>
<polygon points="3996.73,1686.39 3260.84,1673.55 3267.27,1305.61 4003.16,1318.45" fill="rgb(0,0,12)" fill-opacity="0.502"/>
<circle cx="7600.00" cy="4240.00" r="544.00" fill="rgb(0,0,0)" fill-opacity="0.502"/>
<polygon points="4800.10,1287.56 4924.30,1256.60 5055.90,1784.44 4931.70,1815.40" fill="rgb(6,8,36)" fill-opacity="0.502"/>
<circle cx="5264.00" cy="1840.00" r="32.00" fill="rgb(84,104,139)" fill-opacity="0.502"/>
<polygon points="4405.57,2090.21 4665.68,2010.68 4698.43,2117.79 4438.32,2197.32" fill="rgb(0,0,18)" fill-opacity="0.502"/>
<polygon points="6483.11,3970.49 6819.73,3867.57 7020.89,4525.51 6684.27,4628.43" fill="rgb(0,1,16)" fill-opacity="0.502"/>
<g transform="translate(5600.00 2816.00) rotate(342) scale(304.00 144.00)"><ellipse cx="0" cy="0" rx="1" ry="1" fill="rgb(5,19,56)" fill-opacity="0.502"/></g>
<circle cx="6352.00" cy="1840.00" r="320.00" fill="rgb(0,0,0)" fill-opacity="0.502"/>
<polygon points="5840.00,1328.00 5840.00,320.00 5888.00,320.00 5888.00,1328.00" fill="rgb(2,5,16)" fill-opacity="0.502"/>
<polygon points="6521.78,842.54 6425.18,926.52 6278.22,757.46 6374.82,673.48" fill="rgb(0,0,14)" fill-opacity="0.502"/>
<polygon points="3074.02,2063.72 3213.45,2278.42 2877.98,2496.28 2738.55,2281.58" fill="rgb(33,44,73)" fill-opacity="0.502"/>
<polygon points="1935.62,663.28 2152.72,527.62 2288.38,744.72 2071.28,880.38" fill="rgb(0,2,12)" fill-opacity="0.502"/>
<circle cx="1904.00" cy="1488.00" r="384.00" fill="rgb(0,0,7)" fill-opacity="0.502"/>
<polygon points="5203.40,844.67 5305.15,1007.50 5196.60,1075.33 5094.85,912.50" fill="rgb(21,28,58)" fill-opacity="0.502"/>
<circle cx="4400.00" cy="1568.00" r="64.00" fill="rgb(88,92,135)" fill-opacity="0.502"/>
<polygon points="3887.17,312.32 3777.62,289.04 3840.83,-8.32 3950.38,14.96" fill="rgb(81,16,71)" fill-opacity="0.502"/>
<polygon points="3148.67,1988.67 3330.21,2051.18 3283.33,2187.33 3101.79,2124.82" fill="rgb(81,102,172)" fill-opacity="0.502"/>
<g transform="translate(4304.00 2912.00) rotate(272) scale(160.00 640.00)"><ellipse cx="0" cy="0" rx="1" ry="1" fill="rgb(0,0,19)" fill-opacity="0.502"/></g>
<g transform="translate(2976.00 4592.00) rotate(94) scale(272.00 1440.00)"><ellipse cx="0" cy="0" rx="1" ry="1" fill="rgb(0,0,0)" fill-opacity="0.502"/></g>
<circle cx="5776.00" cy="624.00" r="48.00" fill="rgb(50,71,121)" fill-opacity="0.502"/>
<g transform="translate(5376.00 3232.00) rotate(25) scale(448.00 160.00)"><ellipse cx="0" cy="0" rx="1" ry="1" fill="rgb(0,0,13)" fill-opacity="0.502"/></g>
<circle cx="1408.00" cy="768.00" r="320.00" fill="rgb(9,1,21)" fill-opacity="0.502"/>
<g transform="translate(1664.00 80.00) rotate(188) scale(80.00 528.00)"><ellipse cx="0" cy="0" rx="1" ry="1" fill="rgb(22,3,32)" fill-opacity="0.502"/></g>
<g transform="translate(5776.00 1744.00) rotate(293) scale(368.00 512.00)"><ellipse cx="0" cy="0" rx="1" ry="1" fill="rgb(0,0,4)" fill-opacity="0.502"/></g>
<polygon points="5389.44,420.99 5262.68,438.80 5202.56,11.01 5329.32,-6.80" fill="rgb(0,8,15)" fill-opacity="0.502"/>
<g transform="translate(1696.00 3280.00) rotate(140) scale(128.00 368.00)"><ellipse cx="0" cy="0" rx="1" ry="1" fill="rgb(0,0,2)" fill-opacity="0.502"/></g>
<circle cx="288.00" cy="1296.00" r="816.00" fill="rgb(0,0,0)" fill-opacity="0.502"/>
<circle cx="6352.00" cy="80.00" r="144.00" fill="rgb(0,1,15)" fill-opacity="0.502"/>
<g transform="translate(6864.00 3440.00) rotate(158) scale(96.00 80.00)"><ellipse cx="0" cy="0" rx="1" ry="1" fill="rgb(29,43,76)" fill-opacity="0.502"/></g>
<circle cx="4112.00" cy="1504.00" r="48.00" fill="rgb(82,89,165)" fill-opacity="0.502"/>
<polygon points="5766.51,1136.28 5560.82,1381.42 5401.49,1247.72 5607.18,1002.58" fill="rgb(10,21,50)" fill-opacity="0.502"/>
<polygon points="3173.37,1252.83 3086.23,1387.02 2938.63,1291.17 3025.77,1156.98" fill="rgb(20,41,92)" fill-opacity="0.502"/>
<circle cx="4352.00" cy="1664.00" r="80.00" fill="rgb(19,21,36)" fill-opacity="0.502"/>
<polygon points="1835.79,2855.41 2043.28,2840.90 2052.21,2968.59 1844.72,2983.10" fill="rgb(7,4,25)" fill-opacity="0.502"/>
<circle cx="5616.00" cy="144.00" r="128.00" fill="rgb(6,14,40)" fill-opacity="0.502"/>
<circle cx="3024.00" cy="1968.00" r="128.00" fill="rgb(4,5,24)" fill-opacity="0.502"/>
<polygon points="4946.98,1547.73 5042.05,1561.09 4973.02,2052.27 4877.95,2038.91" fill="rgb(0,0,15)" fill-opacity="0.502"/>
<polygon points="6876.55,163.82 6989.09,428.92 6915.45,460.18 6802.91,195.08" fill="rgb(0,0,4)" fill-opacity="0.502"/>
<polygon points="4143.76,1422.79 3798.23,1355.62 3856.24,1057.21 4201.77,1124.38" fill="rgb(0,2,20)" fill-opacity="0.502"/>
<g transform="translate(3248.00 1392.00) rotate(191) scale(80.00 240.00)"><ellipse cx="0" cy="0" rx="1" ry="1" fill="rgb(1,2,19)" fill-opacity="0.502"/></g>
<g transform="translate(8176.00 3232.00) rotate(38) scale(896.00 1376.00)"><ellipse cx="0" cy="0" rx="1" ry="1" fill="rgb(0,0,0)" fill-opacity="0.502"/></g>
<g transform="translate(2224.00 2368.00) rotate(176) scale(512.00 416.00)"><ellipse cx="0" cy="0" rx="1" ry="1" fill="rgb(0,0,6)" fill-opacity="0.502"/></g>
<polygon points="6311.83,1056.42 6296.19,608.69 6328.17,607.58 6343.81,1055.31" fill="rgb(36,54,88)" fill-opacity="0.502"/>
<polygon points="3853.62,483.49 3746.61,579.85 3682.38,508.51 3789.39,412.15" fill="rgb(14,0,7)" fill-opacity="0.502"/>
<g transform="translate(4816.00 704.00) rotate(78) scale(544.00 352.00)"><ellipse cx="0" cy="0" rx="1" ry="1" fill="rgb(1,0,10)" fill-opacity="0.502"/></g>
<polygon points="5136.51,-36.23 5199.49,36.23 5199.49,36.23 5136.51,-36.23" fill="rgb(141,198,255)" fill-opacity="0.502"/>
<circle cx="6160.00" cy="544.00" r="64.00" fill="rgb(22,39,71)" fill-opacity="0.502"/>
<polygon points="3016.72,1148.04 3121.28,1107.90 3207.28,1331.96 3102.72,1372.10" fill="rgb(19,31,77)" fill-opacity="0.502"/>
<polygon points="4142.64,1489.80 4189.22,1501.41 4065.36,1998.20 4018.78,1986.59" fill="rgb(56,74,125)" fill-opacity="0.502"/>
<polygon points="3967.22,1553.36 4008.78,1529.36 4048.78,1598.64 4007.22,1622.64" fill="rgb(125,131,142)" fill-opacity="0.502"/>
<circle cx="2832.00" cy="1264.00" r="176.00" fill="rgb(1,3,25)" fill-opacity="0.502"/>
<polygon points="6775.65,2725.84 6785.66,2789.06 6248.35,2874.16 6238.34,2810.94" fill="rgb(3,20,70)" fill-opacity="0.502"/>
<circle cx="5888.00" cy="2800.00" r="128.00" fill="rgb(7,25,78)" fill-opacity="0.502"/>
<g transform="translate(592.00 3120.00) rotate(20) scale(544.00 496.00)"><ellipse cx="0" cy="0" rx="1" ry="1" fill="rgb(0,0,0)" fill-opacity="0.502"/></g>
<polygon points="2103.60,944.33 2135.67,1310.93 1944.40,1327.67 1912.33,961.07" fill="rgb(4,8,22)" fill-opacity="0.502"/>
<g transform="translate(4784.00 1696.00) rotate(130) scale(48.00 80.00)"><ellipse cx="0" cy="0" rx="1" ry="1" fill="rgb(0,0,0)" fill-opacity="0.502"/></g>
<polygon points="6666.26,3307.04 6718.68,3270.33 6773.74,3348.96 6721.32,3385.67" fill="rgb(25,42,69)" fill-opacity="0.502"/>
<polygon points="4375.71,1029.85 4563.57,1151.85 4328.29,1514.15 4140.43,1392.15" fill="rgb(16,16,37)" fill-opacity="0.502"/>
<circle cx="3184.00" cy="592.00" r="96.00" fill="rgb(0,0,6)" fill-opacity="0.502"/>
<circle cx="2432.00" cy="1712.00" r="160.00" fill="rgb(1,0,17)" fill-opacity="0.502"/>
<g transform="translate(6928.00 656.00) rotate(31) scale(48.00 80.00)"><ellipse cx="0" cy="0" rx="1" ry="1" fill="rgb(0,0,0)" fill-opacity="0.502"/></g>
<polygon points="6583.99,3326.07 6067.06,2922.19 6136.01,2833.93 6652.94,3237.81" fill="rgb(0,0,15)" fill-opacity="0.502"/>
<circle cx="6064.00" cy="208.00" r="80.00" fill="rgb(0,1,11)" fill-opacity="0.502"/>
<polygon points="1848.00,488.00 1848.00,920.00 1752.00,920.00 1752.00,488.00" fill="rgb(0,0,8)" fill-opacity="0.502"/>
<polygon points="1377.59,2758.63 1106.73,2896.65 1070.41,2825.37 1341.27,2687.35" fill="rgb(11,11,45)" fill-opacity="0.502"/>
<g transform="translate(1520.00 3936.00) rotate(124) scale(288.00 496.00)"><ellipse cx="0" cy="0" rx="1" ry="1" fill="rgb(0,0,5)" fill-opacity="0.502"/></g>
<polygon points="5216.00,2864.00 5984.00,2864.00 5984.00,2928.00 5216.00,2928.00" fill="rgb(2,15,52)" fill-opacity="0.502"/>
<circle cx="4752.00" cy="176.00" r="400.00" fill="rgb(1,1,15)" fill-opacity="0.502"/>
<circle cx="5712.00" cy="1200.00" r="48.00" fill="rgb(0,3,1)" fill-opacity="0.502"/>
<g transform="translate(4320.00 1840.00) rotate(175) scale(544.00 80.00)"><ellipse cx="0" cy="0" rx="1" ry="1" fill="rgb(63,73,111)" fill-opacity="0.502"/></g>
<polygon points="5217.71,1238.67 5283.52,974.75 5454.29,1017.33 5388.48,1281.25" fill="rgb(0,0,7)" fill-opacity="0.502"/>
<polygon points="6275.43,3215.88 5980.81,3531.83 5676.57,3248.12 5971.19,2932.17" fill="rgb(0,0,11)" fill-opacity="0.502"/>
<circle cx="3376.00" cy="848.00" r="128.00" fill="rgb(13,26,71)" fill-opacity="0.502"/>
<g transform="translate(2784.00 2512.00) rotate(306) scale(64.00 96.00)"><ellipse cx="0" cy="0" rx="1" ry="1" fill="rgb(19,27,46)" fill-opacity="0.502"/></g>
<circle cx="3680.00" cy="2304.00" r="144.00" fill="rgb(3,1,12)" fill-opacity="0.502"/>
<polygon points="1148.45,3207.49 1140.64,3095.76 1587.55,3064.51 1595.36,3176.24" fill="rgb(0,0,0)" fill-opacity="0.502"/>
<g transform="translate(4336.00 1648.00) rotate(224) scale(160.00 80.00)"><ellipse cx="0" cy="0" rx="1" ry="1" fill="rgb(22,24,46)" fill-opacity="0.502"/></g>
<circle cx="2960.00" cy="608.00" r="64.00" fill="rgb(29,57,139)" fill-opacity="0.502"/>
<g transform="translate(4368.00 992.00) rotate(307) scale(208.00 96.00)"><ellipse cx="0" cy="0" rx="1" ry="1" fill="rgb(1,0,16)" fill-opacity="0.502"/></g>
<circle cx="2992.00" cy="2352.00" r="96.00" fill="rgb(48,60,88)" fill-opacity="0.502"/>
<polygon points="4175.64,606.22 4039.64,841.78 3776.36,689.78 3912.36,454.22" fill="rgb(36,2,37)" fill-opacity="0.502"/>
<polygon points="4113.02,1221.54 4173.21,1386.93 3646.98,1578.46 3586.79,1413.07" fill="rgb(2,1,16)" fill-opacity="0.502"/>
<g transform="translate(3104.00 160.00) rotate(173) scale(32.00 176.00)"><ellipse cx="0" cy="0" rx="1" ry="1" fill="rgb(9,28,81)" fill-opacity="0.502"/></g>
<polygon points="2232.44,1929.95 2231.60,1881.96 2455.56,1878.05 2456.40,1926.04" fill="rgb(157,13,86)" fill-opacity="0.502"/>
<g transform="translate(6544.00 304.00) rotate(156) scale(368.00 48.00)"><ellipse cx="0" cy="0" rx="1" ry="1" fill="rgb(7,11,32)" fill-opacity="0.502"/></g>
<polygon points="2829.61,2641.16 2716.94,2853.07 2434.39,2702.84 2547.06,2490.93" fill="rgb(0,0,3)" fill-opacity="0.502"/>
<circle cx="4224.00" cy="1744.00" r="96.00" fill="rgb(46,47,74)" fill-opacity="0.502"/>
<g transform="translate(5632.00 544.00) rotate(318) scale(112.00 144.00)"><ellipse cx="0" cy="0" rx="1" ry="1" fill="rgb(11,19,51)" fill-opacity="0.502"/></g>
<polygon points="3156.14,533.87 3131.42,609.96 2811.86,506.13 2836.58,430.04" fill="rgb(0,3,14)" fill-opacity="0.502"/>
<circle cx="6032.00" cy="2144.00" r="384.00" fill="rgb(0,0,4)" fill-opacity="0.502"/>
<circle cx="1776.00" cy="2064.00" r="512.00" fill="rgb(0,0,6)" fill-opacity="0.502"/>
<g transform="translate(4944.00 304.00) rotate(103) scale(672.00 144.00)"><ellipse cx="0" cy="0" rx="1" ry="1" fill="rgb(3,3,12)" fill-opacity="0.502"/></g>
<circle cx="5664.00" cy="320.00" r="80.00" fill="rgb(5,10,39)" fill-opacity="0.502"/>
<g transform="translate(3008.00 2144.00) rotate(281) scale(16.00 80.00)"><ellipse cx="0" cy="0" rx="1" ry="1" fill="rgb(1,18,34)" fill-opacity="0.502"/></g>
<g transform="translate(1392.00 1904.00) rotate(115) scale(240.00 112.00)"><ellipse cx="0" cy="0" rx="1" ry="1" fill="rgb(5,0,21)" fill-opacity="0.502"/></g>
<polygon points="2349.44,1375.82 2365.28,1378.05 2338.56,1568.18 2322.72,1565.95" fill="rgb(47,20,99)" fill-opacity="0.502"/>
<polygon points="1627.24,3446.00 1425.91,3544.19 1348.76,3386.00 1550.09,3287.81" fill="rgb(6,7,38)" fill-opacity="0.502"/>
<polygon points="3337.90,1858.48 3764.58,1790.90 3782.10,1901.52 3355.42,1969.10" fill="rgb(79,108,182)" fill-opacity="0.502"/>
<circle cx="6944.00" cy="3824.00" r="176.00" fill="rgb(9,15,26)" fill-opacity="0.502"/>
<circle cx="4960.00" cy="4560.00" r="560.00" fill="rgb(0,0,0)" fill-opacity="0.502"/>
<g transform="translate(6000.00 832.00) rotate(268) scale(480.00 16.00)"><ellipse cx="0" cy="0" rx="1" ry="1" fill="rgb(40,68,101)" fill-opacity="0.502"/></g>
<polygon points="5346.30,1920.45 5227.62,1968.40 5149.70,1775.55 5268.38,1727.60" fill="rgb(12,16,46)" fill-opacity="0.502"/>
<polygon points="2952.05,412.48 2894.05,439.53 2839.95,323.52 2897.95,296.47" fill="rgb(30,47,104)" fill-opacity="0.502"/>
<circle cx="5056.00" cy="3744.00" r="368.00" fill="rgb(0,0,5)" fill-opacity="0.502"/>
<circle cx="5440.00" cy="0.00" r="48.00" fill="rgb(54,96,173)" fill-opacity="0.502"/>
<polygon points="3330.77,1093.92 3667.78,646.68 3757.23,714.08 3420.22,1161.32" fill="rgb(9,16,46)" fill-opacity="0.502"/>
<polygon points="2261.45,1954.01 1866.80,2129.72 1658.55,1661.99 2053.20,1486.28" fill="rgb(0,0,5)" fill-opacity="0.502"/>
<g transform="translate(2336.00 896.00) rotate(201) scale(400.00 112.00)"><ellipse cx="0" cy="0" rx="1" ry="1" fill="rgb(5,8,28)" fill-opacity="0.502"/></g>
<polygon points="1176.94,1789.01 1069.35,1437.09 1207.06,1394.99 1314.65,1746.91" fill="rgb(1,0,18)" fill-opacity="0.502"/>
<g transform="translate(3136.00 784.00) rotate(301) scale(80.00 112.00)"><ellipse cx="0" cy="0" rx="1" ry="1" fill="rgb(0,0,7)" fill-opacity="0.502"/></g>
<circle cx="2624.00" cy="0.00" r="128.00" fill="rgb(25,57,143)" fill-opacity="0.502"/>
<polygon points="3998.01,1661.12 3760.34,1694.52 3697.99,1250.88 3935.66,1217.48" fill="rgb(0,1,15)" fill-opacity="0.502"/>
<polygon points="4517.02,2541.83 4848.88,2489.26 4938.98,3058.17 4607.12,3110.74" fill="rgb(1,3,27)" fill-opacity="0.502"/>
<polygon points="6621.73,2608.51 6630.63,2545.14 7074.27,2607.49 7065.37,2670.86" fill="rgb(15,51,139)" fill-opacity="0.502"/>
<polygon points="4197.95,2654.75 4483.80,2689.85 4474.05,2769.25 4188.20,2734.15" fill="rgb(10,23,77)" fill-opacity="0.502"/>
<circle cx="2672.00" cy="848.00" r="64.00" fill="rgb(35,54,113)" fill-opacity="0.502"/>
<circle cx="6224.00" cy="4592.00" r="320.00" fill="rgb(0,0,0)" fill-opacity="0.502"/>
<g transform="translate(4784.00 2496.00) rotate(103) scale(80.00 64.00)"><ellipse cx="0" cy="0" rx="1" ry="1" fill="rgb(0,10,33)" fill-opacity="0.502"/></g>
<polygon points="2558.17,1367.73 2195.64,1536.78 2161.83,1464.27 2524.36,1295.22" fill="rgb(1,0,8)" fill-opacity="0.502"/>
<circle cx="3424.00" cy="1168.00" r="80.00" fill="rgb(11,23,58)" fill-opacity="0.502"/>
<polygon points="3586.40,102.95 3682.25,-44.66 3789.60,25.05 3693.75,172.66" fill="rgb(0,4,22)" fill-opacity="0.502"/>
<circle cx="2544.00" cy="1488.00" r="144.00" fill="rgb(0,0,1)" fill-opacity="0.502"/>
<circle cx="5024.00" cy="496.00" r="128.00" fill="rgb(8,6,13)" fill-opacity="0.502"/>
<polygon points="3035.68,265.31 2815.80,308.05 2788.32,166.69 3008.20,123.95" fill="rgb(0,6,29)" fill-opacity="0.502"/>
<polygon points="4879.83,2570.10 5085.11,2748.55 4896.17,2965.90 4690.89,2787.45" fill="rgb(0,2,22)" fill-opacity="0.502"/>
<g transform="translate(6944.00 960.00) rotate(25) scale(48.00 320.00)"><ellipse cx="0" cy="0" rx="1" ry="1" fill="rgb(12,16,35)" fill-opacity="0.502"/></g>
<polygon points="3229.85,3009.17 2876.10,2907.73 2898.15,2830.83 3251.90,2932.27" fill="rgb(7,5,40)" fill-opacity="0.502"/>
<circle cx="7344.00" cy="2496.00" r="272.00" fill="rgb(0,0,0)" fill-opacity="0.502"/>
<g transform="translate(2832.00 3984.00) rotate(172) scale(1376.00 288.00)"><ellipse cx="0" cy="0" rx="1" ry="1" fill="rgb(0,0,6)" fill-opacity="0.502"/></g>
<g transform="translate(400.00 4256.00) rotate(112) scale(544.00 1200.00)"><ellipse cx="0" cy="0" rx="1" ry="1" fill="rgb(0,0,0)" fill-opacity="0.502"/></g>
<polygon points="5829.92,131.55 5799.98,272.41 5706.08,252.45 5736.02,111.59" fill="rgb(48,62,98)" fill-opacity="0.502"/>
<circle cx="5056.00" cy="1728.00" r="48.00" fill="rgb(49,70,138)" fill-opacity="0.502"/>
<g transform="translate(4464.00 80.00) rotate(185) scale(32.00 240.00)"><ellipse cx="0" cy="0" rx="1" ry="1" fill="rgb(6,12,37)" fill-opacity="0.502"/></g>
<g transform="translate(2848.00 2528.00) rotate(320) scale(176.00 32.00)"><ellipse cx="0" cy="0" rx="1" ry="1" fill="rgb(12,19,35)" fill-opacity="0.502"/></g>
<circle cx="5648.00" cy="1008.00" r="128.00" fill="rgb(8,17,50)" fill-opacity="0.502"/>
<g transform="translate(6048.00 528.00) rotate(180) scale(32.00 736.00)"><ellipse cx="0" cy="0" rx="1" ry="1" fill="rgb(0,0,0)" fill-opacity="0.502"/></g>
<g transform="translate(6928.00 1216.00) rotate(55) scale(208.00 96.00)"><ellipse cx="0" cy="0" rx="1" ry="1" fill="rgb(12,21,42)" fill-opacity="0.502"/></g>
<polygon points="5085.16,3776.83 5523.67,3581.60 5666.84,3903.17 5228.33,4098.40" fill="rgb(0,0,6)" fill-opacity="0.502"/>
<polygon points="6544.00,3888.00 6640.00,3888.00 6640.00,4304.00 6544.00,4304.00" fill="rgb(10,8,25)" fill-opacity="0.502"/>
<circle cx="5424.00" cy="176.00" r="64.00" fill="rgb(43,56,126)" fill-opacity="0.502"/>
<circle cx="5568.00" cy="2192.00" r="64.00" fill="rgb(16,22,61)" fill-opacity="0.502"/>
<g transform="translate(3424.00 384.00) rotate(55) scale(288.00 80.00)"><ellipse cx="0" cy="0" rx="1" ry="1" fill="rgb(0,3,24)" fill-opacity="0.502"/></g>
<polygon points="4720.54,1629.40 4690.60,1488.54 4831.46,1458.60 4861.40,1599.46" fill="rgb(20,38,99)" fill-opacity="0.502"/>
<circle cx="4720.00" cy="3408.00" r="48.00" fill="rgb(5,0,29)" fill-opacity="0.502"/>
<g transform="translate(7408.00 2928.00) rotate(116) scale(368.00 368.00)"><ellipse cx="0" cy="0" rx="1" ry="1" fill="rgb(0,0,0)" fill-opacity="0.502"/></g>
<g transform="translate(7776.00 4304.00) rotate(44) scale(576.00 800.00)"><ellipse cx="0" cy="0" rx="1" ry="1" fill="rgb(0,0,0)" fill-opacity="0.502"/></g>
<circle cx="7008.00" cy="1072.00" r="48.00" fill="rgb(13,41,68)" fill-opacity="0.502"/>
<g transform="translate(2800.00 768.00) rotate(309) scale(64.00 48.00)"><ellipse cx="0" cy="0" rx="1" ry="1" fill="rgb(0,0,10)" fill-opacity="0.502"/></g>
<polygon points="2544.29,1043.94 2522.24,967.04 2783.71,892.06 2805.76,968.96" fill="rgb(8,14,49)" fill-opacity="0.502"/>
<circle cx="5184.00" cy="816.00" r="64.00" fill="rgb(22,40,72)" fill-opacity="0.502"/>
<polygon points="6710.44,1730.01 6916.13,1975.14 6793.56,2077.99 6587.87,1832.86" fill="rgb(0,0,0)" fill-opacity="0.502"/>
<polygon points="4431.51,267.32 4557.47,412.22 4400.49,548.68 4274.53,403.78" fill="rgb(0,0,17)" fill-opacity="0.502"/>
<circle cx="3344.00" cy="2000.00" r="96.00" fill="rgb(74,98,164)" fill-opacity="0.502"/>
<circle cx="4064.00" cy="2096.00" r="128.00" fill="rgb(7,12,33)" fill-opacity="0.502"/>
<circle cx="3040.00" cy="2176.00" r="128.00" fill="rgb(31,41,75)" fill-opacity="0.502"/>
<g transform="translate(5424.00 0.00) rotate(44) scale(16.00 288.00)"><ellipse cx="0" cy="0" rx="1" ry="1" fill="rgb(0,13,52)" fill-opacity="0.502"/></g>
<g transform="translate(5216.00 2880.00) rotate(157) scale(432.00 32.00)"><ellipse cx="0" cy="0" rx="1" ry="1" fill="rgb(3,8,44)" fill-opacity="0.502"/></g>
<circle cx="4560.00" cy="1872.00" r="128.00" fill="rgb(59,71,106)" fill-opacity="0.502"/>
<polygon points="3714.45,226.59 3266.26,346.68 3245.55,269.41 3693.74,149.32" fill="rgb(1,5,32)" fill-opacity="0.502"/>
<g transform="translate(5376.00 2192.00) rotate(51) scale(352.00 112.00)"><ellipse cx="0" cy="0" rx="1" ry="1" fill="rgb(0,0,3)" fill-opacity="0.502"/></g>
<polygon points="2822.43,1991.20 2797.21,1971.49 2905.57,1832.80 2930.79,1852.51" fill="rgb(28,27,47)" fill-opacity="0.502"/>
<polygon points="3432.92,1319.09 3360.93,1630.89 3127.08,1576.91 3199.07,1265.11" fill="rgb(5,5,21)" fill-opacity="0.502"/>
<polygon points="5658.68,401.82 5706.61,399.30 5749.32,1214.18 5701.39,1216.70" fill="rgb(0,0,16)" fill-opacity="0.502"/>
<polygon points="5520.00,608.00 5536.00,608.00 5536.00,1184.00 5520.00,1184.00" fill="rgb(0,0,0)" fill-opacity="0.502"/>
<circle cx="2256.00" cy="0.00" r="144.00" fill="rgb(33,68,161)" fill-opacity="0.502"/>
<polygon points="2504.60,2253.90 2237.85,1977.67 2295.40,1922.10 2562.15,2198.33" fill="rgb(5,1,31)" fill-opacity="0.502"/>
<circle cx="3872.00" cy="1856.00" r="160.00" fill="rgb(65,83,133)" fill-opacity="0.502"/>
<polygon points="4705.75,2352.65 4724.46,2413.86 4510.25,2479.35 4491.54,2418.14" fill="rgb(16,40,113)" fill-opacity="0.502"/>
<circle cx="2800.00" cy="608.00" r="80.00" fill="rgb(23,46,112)" fill-opacity="0.502"/>
<g transform="translate(4736.00 752.00) rotate(186) scale(64.00 944.00)"><ellipse cx="0" cy="0" rx="1" ry="1" fill="rgb(0,0,7)" fill-opacity="0.502"/></g>
<circle cx="4768.00" cy="2128.00" r="48.00" fill="rgb(36,50,103)" fill-opacity="0.502"/>
<g transform="translate(3488.00 1632.00) rotate(280) scale(128.00 128.00)"><ellipse cx="0" cy="0" rx="1" ry="1" fill="rgb(2,1,15)" fill-opacity="0.502"/></g>
<polygon points="1570.39,2775.05 1427.46,2792.60 1421.61,2744.95 1564.54,2727.40" fill="rgb(62,85,175)" fill-opacity="0.502"/>
<polygon points="4701.99,1895.47 4864.00,1826.70 4914.01,1944.53 4752.00,2013.30" fill="rgb(9,23,59)" fill-opacity="0.502"/>
<polygon points="3865.84,3101.25 4205.25,2761.84 4454.16,3010.75 4114.75,3350.16" fill="rgb(0,0,17)" fill-opacity="0.502"/>
<polygon points="6960.00,3712.00 6544.00,3712.00 6544.00,3568.00 6960.00,3568.00" fill="rgb(4,11,20)" fill-opacity="0.502"/>
<polygon points="6832.14,2513.60 5949.75,2669.19 5935.86,2590.40 6818.25,2434.81" fill="rgb(6,14,50)" fill-opacity="0.502"/>
<circle cx="3872.00" cy="2240.00" r="144.00" fill="rgb(0,0,7)" fill-opacity="0.502"/>
<circle cx="3760.00" cy="2624.00" r="160.00" fill="rgb(7,11,38)" fill-opacity="0.502"/>
<circle cx="6800.00" cy="0.00" r="32.00" fill="rgb(38,48,55)" fill-opacity="0.502"/>
<polygon points="5536.37,2817.80 5182.89,2967.84 5151.63,2894.20 5505.11,2744.16" fill="rgb(6,15,56)" fill-opacity="0.502"/>
<polygon points="6940.86,1278.72 7191.38,1650.13 6979.14,1793.28 6728.62,1421.87" fill="rgb(0,0,0)" fill-opacity="0.502"/>
<polygon points="5476.59,1103.03 5528.65,1219.96 5499.41,1232.97 5447.35,1116.04" fill="rgb(42,57,94)" fill-opacity="0.502"/>
<g transform="translate(1504.00 1952.00) rotate(89) scale(192.00 32.00)"><ellipse cx="0" cy="0" rx="1" ry="1" fill="rgb(5,0,18)" fill-opacity="0.502"/></g>
<polygon points="1281.85,477.33 1085.43,266.70 1214.15,146.67 1410.57,357.30" fill="rgb(3,0,15)" fill-opacity="0.502"/>
<circle cx="2432.00" cy="3280.00" r="112.00" fill="rgb(6,4,24)" fill-opacity="0.502"/>
<polygon points="3394.29,598.00 3466.21,776.02 3421.71,794.00 3349.79,615.98" fill="rgb(0,5,27)" fill-opacity="0.502"/>
<polygon points="3783.19,1378.19 3632.84,1323.47 3736.81,1037.81 3887.16,1092.53" fill="rgb(9,12,35)" fill-opacity="0.502"/>
<circle cx="4112.00" cy="2272.00" r="176.00" fill="rgb(0,0,1)" fill-opacity="0.502"/>
<polygon points="3024.79,1004.29 3194.32,1094.43 3119.21,1235.71 2949.68,1145.57" fill="rgb(13,20,52)" fill-opacity="0.502"/>
<circle cx="1904.00" cy="3840.00" r="448.00" fill="rgb(0,0,6)" fill-opacity="0.502"/>
<circle cx="1616.00" cy="3328.00" r="64.00" fill="rgb(2,0,24)" fill-opacity="0.502"/>
<circle cx="6864.00" cy="2736.00" r="64.00" fill="rgb(3,26,84)" fill-opacity="0.502"/>
<circle cx="3552.00" cy="2496.00" r="96.00" fill="rgb(20,29,47)" fill-opacity="0.502"/>
<polygon points="3801.77,1812.14 3825.00,1905.29 3654.23,1947.86 3631.00,1854.71" fill="rgb(74,111,183)" fill-opacity="0.502"/>
<g transform="translate(2592.00 704.00) rotate(201) scale(48.00 176.00)"><ellipse cx="0" cy="0" rx="1" ry="1" fill="rgb(0,0,24)" fill-opacity="0.502"/></g>
<circle cx="4208.00" cy="2464.00" r="32.00" fill="rgb(32,46,114)" fill-opacity="0.502"/>
<circle cx="4032.00" cy="1776.00" r="112.00" fill="rgb(47,60,91)" fill-opacity="0.502"/>
<polygon points="4848.00,1744.00 5200.00,1744.00 5200.00,1792.00 4848.00,1792.00" fill="rgb(18,27,58)" fill-opacity="0.502"/>
<circle cx="4032.00" cy="800.00" r="128.00" fill="rgb(33,0,31)" fill-opacity="0.502"/>
<polygon points="6239.09,222.68 6272.43,411.76 6240.91,417.32 6207.57,228.24" fill="rgb(0,1,8)" fill-opacity="0.502"/>
<g transform="translate(2464.00 2224.00) rotate(30) scale(144.00 416.00)"><ellipse cx="0" cy="0" rx="1" ry="1" fill="rgb(0,0,9)" fill-opacity="0.502"/></g>
<polygon points="3622.58,676.52 2968.25,889.13 2953.42,843.48 3607.75,630.87" fill="rgb(1,4,17)" fill-opacity="0.502"/>
<circle cx="5776.00" cy="2608.00" r="144.00" fill="rgb(3,4,29)" fill-opacity="0.502"/>
<circle cx="2512.00" cy="256.00" r="96.00" fill="rgb(0,6,35)" fill-opacity="0.502"/>
<polygon points="3658.85,595.21 3807.20,535.27 3861.15,668.79 3712.80,728.73" fill="rgb(9,3,26)" fill-opacity="0.502"/>
<g transform="translate(2368.00 368.00) rotate(190) scale(80.00 112.00)"><ellipse cx="0" cy="0" rx="1" ry="1" fill="rgb(19,41,102)" fill-opacity="0.502"/></g>
<g transform="translate(4912.00 1344.00) rotate(181) scale(16.00 240.00)"><ellipse cx="0" cy="0" rx="1" ry="1" fill="rgb(20,21,57)" fill-opacity="0.502"/></g>
<g transform="translate(6096.00 2752.00) rotate(259) scale(48.00 384.00)"><ellipse cx="0" cy="0" rx="1" ry="1" fill="rgb(11,36,105)" fill-opacity="0.502"/></g>
<g transform="translate(2400.00 2960.00) rotate(355) scale(512.00 64.00)"><ellipse cx="0" cy="0" rx="1" ry="1" fill="rgb(0,0,17)" fill-opacity="0.502"/></g>
<polygon points="1406.15,2663.77 1511.31,2465.99 1793.85,2616.23 1688.69,2814.01" fill="rgb(0,0,8)" fill-opacity="0.502"/>
<polygon points="5823.52,1654.12 5870.33,1697.76 5728.48,1849.88 5681.67,1806.24" fill="rgb(14,14,16)" fill-opacity="0.502"/>
<circle cx="6144.00" cy="640.00" r="64.00" fill="rgb(16,37,73)" fill-opacity="0.502"/>
<polygon points="4867.97,3225.57 4774.43,3203.97 4796.03,3110.43 4889.57,3132.03" fill="rgb(0,0,0)" fill-opacity="0.502"/>
<polygon points="3866.23,423.30 3774.45,292.23 3813.77,264.70 3905.55,395.77" fill="rgb(60,12,48)" fill-opacity="0.502"/>
<polygon points="3407.01,2622.32 3789.53,2505.37 3840.99,2673.68 3458.47,2790.63" fill="rgb(0,1,28)" fill-opacity="0.502"/>
<g transform="translate(6352.00 1152.00) rotate(3) scale(48.00 128.00)"><ellipse cx="0" cy="0" rx="1" ry="1" fill="rgb(22,41,73)" fill-opacity="0.502"/></g>
<g transform="translate(2736.00 3024.00) rotate(39) scale(416.00 64.00)"><ellipse cx="0" cy="0" rx="1" ry="1" fill="rgb(0,0,14)" fill-opacity="0.502"/></g>
<g transform="translate(3232.00 3344.00) rotate(58) scale(336.00 208.00)"><ellipse cx="0" cy="0" rx="1" ry="1" fill="rgb(0,0,13)" fill-opacity="0.502"/></g>
<circle cx="5280.00" cy="1680.00" r="144.00" fill="rgb(0,0,10)" fill-opacity="0.502"/>
<circle cx="7056.00" cy="3280.00" r="48.00" fill="rgb(24,26,35)" fill-opacity="0.502"/>
<g transform="translate(4880.00 1024.00) rotate(65) scale(752.00 48.00)"><ellipse cx="0" cy="0" rx="1" ry="1" fill="rgb(0,0,9)" fill-opacity="0.502"/></g>
<g transform="translate(2736.00 352.00) rotate(342) scale(208.00 32.00)"><ellipse cx="0" cy="0" rx="1" ry="1" fill="rgb(20,36,93)" fill-opacity="0.502"/></g>
<polygon points="2484.10,3146.58 2536.58,3206.95 2427.90,3301.42 2375.42,3241.05" fill="rgb(2,0,21)" fill-opacity="0.502"/>
</g>
</svg>