<?xml version="1.0" standalone="no"?>
<svg xmlns="http://www.w3.org/2000/svg" width="8192" height="4608" viewBox="0 0 8192 4608" style="overflow:hidden">
<defs>
<clipPath id="c"><rect x="0" y="0" width="8192" height="4608"/></clipPath>
</defs>
<rect width="8192" height="4608" fill="rgb(39,29,29)"/>
<g clip-path="url(#c)">
<circle cx="6240.00" cy="2432.00" r="1024.00" fill="rgb(161,154,148)" fill-opacity="0.502"/>
<circle cx="4320.00" cy="2816.00" r="384.00" fill="rgb(194,187,145)" fill-opacity="0.502"/>
<circle cx="4256.00" cy="2176.00" r="336.00" fill="rgb(167,161,157)" fill-opacity="0.502"/>
<g transform="translate(3872.00 880.00) rotate(258) scale(512.00 2944.00)"><ellipse cx="0" cy="0" rx="1" ry="1" fill="rgb(143,87,86)" fill-opacity="0.502"/></g>
<circle cx="2000.00" cy="4336.00" r="2448.00" fill="rgb(0,0,0)" fill-opacity="0.502"/>
<circle cx="0.00" cy="1168.00" r="1296.00" fill="rgb(0,0,0)" fill-opacity="0.502"/>
<circle cx="8176.00" cy="2448.00" r="1136.00" fill="rgb(0,0,0)" fill-opacity="0.502"/>
<g transform="translate(6528.00 1632.00) rotate(277) scale(1584.00 544.00)"><ellipse cx="0" cy="0" rx="1" ry="1" fill="rgb(121,113,139)" fill-opacity="0.502"/></g>
<circle cx="5312.00" cy="2896.00" r="768.00" fill="rgb(26,18,24)" fill-opacity="0.502"/>
<g transform="translate(6656.00 2800.00) rotate(168) scale(144.00 928.00)"><ellipse cx="0" cy="0" rx="1" ry="1" fill="rgb(14,0,0)" fill-opacity="0.502"/></g>
<circle cx="5328.00" cy="4592.00" r="864.00" fill="rgb(154,53,18)" fill-opacity="0.502"/>
<g transform="translate(7712.00 1616.00) rotate(91) scale(8032.00 608.00)"><ellipse cx="0" cy="0" rx="1" ry="1" fill="rgb(0,0,0)" fill-opacity="0.502"/></g>
<circle cx="2240.00" cy="0.00" r="704.00" fill="rgb(0,0,0)" fill-opacity="0.502"/>
<g transform="translate(1792.00 1664.00) rotate(24) scale(752.00 656.00)"><ellipse cx="0" cy="0" rx="1" ry="1" fill="rgb(126,89,80)" fill-opacity="0.502"/></g>
<circle cx="5856.00" cy="1312.00" r="528.00" fill="rgb(74,62,107)" fill-opacity="0.502"/>
<polygon points="6181.50,3257.10 5972.75,2352.88 6362.50,2262.90 6571.25,3167.12" fill="rgb(199,211,202)" fill-opacity="0.502"/>
<g transform="translate(4480.00 3200.00) rotate(304) scale(128.00 336.00)"><ellipse cx="0" cy="0" rx="1" ry="1" fill="rgb(191,171,118)" fill-opacity="0.502"/></g>
<circle cx="3248.00" cy="2224.00" r="816.00" fill="rgb(0,0,0)" fill-opacity="0.502"/>
<circle cx="320.00" cy="96.00" r="1232.00" fill="rgb(0,0,0)" fill-opacity="0.502"/>
<g transform="translate(5648.00 3104.00) rotate(234) scale(384.00 304.00)"><ellipse cx="0" cy="0" rx="1" ry="1" fill="rgb(110,82,83)" fill-opacity="0.502"/></g>
<circle cx="6480.00" cy="400.00" r="624.00" fill="rgb(60,22,54)" fill-opacity="0.502"/>
<g transform="translate(5168.00 2240.00) rotate(184) scale(400.00 464.00)"><ellipse cx="0" cy="0" rx="1" ry="1" fill="rgb(30,33,52)" fill-opacity="0.502"/></g>
<circle cx="7760.00" cy="3872.00" r="800.00" fill="rgb(0,0,0)" fill-opacity="0.502"/>
<g transform="translate(6032.00 2000.00) rotate(336) scale(592.00 304.00)"><ellipse cx="0" cy="0" rx="1" ry="1" fill="rgb(195,152,91)" fill-opacity="0.502"/></g>
<g transform="translate(6480.00 4368.00) rotate(15) scale(624.00 432.00)"><ellipse cx="0" cy="0" rx="1" ry="1" fill="rgb(139,49,18)" fill-opacity="0.502"/></g>
<polygon points="4608.46,1248.02 4811.99,1375.20 4591.54,1727.98 4388.01,1600.80" fill="rgb(137,103,89)" fill-opacity="0.502"/>
<circle cx="1600.00" cy="992.00" r="512.00" fill="rgb(62,57,74)" fill-opacity="0.502"/>
<g transform="translate(6800.00 1952.00) rotate(144) scale(224.00 384.00)"><ellipse cx="0" cy="0" rx="1" ry="1" fill="rgb(186,207,193)" fill-opacity="0.502"/></g>
<circle cx="5056.00" cy="2080.00" r="112.00" fill="rgb(252,227,228)" fill-opacity="0.502"/>
<circle cx="3232.00" cy="0.00" r="416.00" fill="rgb(0,0,0)" fill-opacity="0.502"/>
<g transform="translate(864.00 3680.00) rotate(133) scale(1408.00 4592.00)"><ellipse cx="0" cy="0" rx="1" ry="1" fill="rgb(0,0,0)" fill-opacity="0.502"/></g>
<polygon points="6364.76,3417.47 6389.86,3130.57 7075.24,3190.53 7050.14,3477.43" fill="rgb(250,191,151)" fill-opacity="0.502"/>
<circle cx="1456.00" cy="2032.00" r="384.00" fill="rgb(105,71,69)" fill-opacity="0.502"/>
<circle cx="5280.00" cy="864.00" r="272.00" fill="rgb(0,0,0)" fill-opacity="0.502"/>
<g transform="translate(7984.00 480.00) rotate(216) scale(752.00 1168.00)"><ellipse cx="0" cy="0" rx="1" ry="1" fill="rgb(0,0,0)" fill-opacity="0.502"/></g>
<g transform="translate(5920.00 3696.00) rotate(360) scale(2160.00 224.00)"><ellipse cx="0" cy="0" rx="1" ry="1" fill="rgb(0,0,0)" fill-opacity="0.502"/></g>
<polygon points="6532.32,2846.38 6508.03,2383.02 6763.68,2369.62 6787.97,2832.98" fill="rgb(0,0,0)" fill-opacity="0.502"/>
<g transform="translate(4576.00 4256.00) rotate(67) scale(352.00 528.00)"><ellipse cx="0" cy="0" rx="1" ry="1" fill="rgb(113,43,23)" fill-opacity="0.502"/></g>
<circle cx="3648.00" cy="3248.00" r="432.00" fill="rgb(0,0,0)" fill-opacity="0.502"/>
<circle cx="2048.00" cy="2144.00" r="352.00" fill="rgb(47,35,51)" fill-opacity="0.502"/>
<circle cx="2224.00" cy="736.00" r="272.00" fill="rgb(51,46,76)" fill-opacity="0.502"/>
<polygon points="5770.32,2705.29 5927.89,2677.51 6005.68,3118.71 5848.11,3146.49" fill="rgb(134,123,161)" fill-opacity="0.502"/>
<circle cx="2752.00" cy="1104.00" r="336.00" fill="rgb(134,94,66)" fill-opacity="0.502"/>
<circle cx="1552.00" cy="160.00" r="464.00" fill="rgb(0,0,0)" fill-opacity="0.502"/>
<g transform="translate(3200.00 3024.00) rotate(21) scale(736.00 1408.00)"><ellipse cx="0" cy="0" rx="1" ry="1" fill="rgb(0,10,4)" fill-opacity="0.502"/></g>
<circle cx="0.00" cy="3360.00" r="1520.00" fill="rgb(0,0,0)" fill-opacity="0.502"/>
<polygon points="5832.34,1805.01 5909.76,2115.51 5847.66,2130.99 5770.24,1820.49" fill="rgb(58,0,0)" fill-opacity="0.502"/>
<g transform="translate(6112.00 1488.00) rotate(185) scale(832.00 160.00)"><ellipse cx="0" cy="0" rx="1" ry="1" fill="rgb(56,58,94)" fill-opacity="0.502"/></g>
<polygon points="6900.75,3021.65 6586.63,3082.71 6507.25,2674.35 6821.37,2613.29" fill="rgb(0,0,0)" fill-opacity="0.502"/>
<circle cx="7600.00" cy="336.00" r="544.00" fill="rgb(0,0,0)" fill-opacity="0.502"/>
<circle cx="416.00" cy="1472.00" r="704.00" fill="rgb(0,0,0)" fill-opacity="0.502"/>
<circle cx="2496.00" cy="3248.00" r="576.00" fill="rgb(11,30,12)" fill-opacity="0.502"/>
<polygon points="7106.52,2346.46 7008.33,2547.79 6749.48,2421.54 6847.67,2220.21" fill="rgb(197,225,223)" fill-opacity="0.502"/>
<polygon points="5608.96,2757.93 5483.93,2463.37 5911.04,2282.07 6036.07,2576.63" fill="rgb(0,0,0)" fill-opacity="0.502"/>
<circle cx="6992.00" cy="3120.00" r="96.00" fill="rgb(228,219,209)" fill-opacity="0.502"/>
<g transform="translate(6688.00 3184.00) rotate(59) scale(64.00 384.00)"><ellipse cx="0" cy="0" rx="1" ry="1" fill="rgb(113,78,65)" fill-opacity="0.502"/></g>
<polygon points="5816.00,4104.00 5816.00,3944.00 6344.00,3944.00 6344.00,4104.00" fill="rgb(136,60,34)" fill-opacity="0.502"/>
<g transform="translate(4336.00 2592.00) rotate(268) scale(592.00 208.00)"><ellipse cx="0" cy="0" rx="1" ry="1" fill="rgb(152,166,140)" fill-opacity="0.502"/></g>
<polygon points="4265.45,1816.38 4436.23,1773.80 4486.55,1975.62 4315.77,2018.20" fill="rgb(0,0,0)" fill-opacity="0.502"/>
<circle cx="6688.00" cy="1200.00" r="400.00" fill="rgb(77,71,127)" fill-opacity="0.502"/>
<g transform="translate(1840.00 1536.00) rotate(330) scale(848.00 352.00)"><ellipse cx="0" cy="0" rx="1" ry="1" fill="rgb(129,86,58)" fill-opacity="0.502"/></g>
<polygon points="5584.67,2210.19 5549.81,2608.67 5151.33,2573.81 5186.19,2175.33" fill="rgb(0,0,6)" fill-opacity="0.502"/>
<circle cx="6992.00" cy="1776.00" r="96.00" fill="rgb(193,233,224)" fill-opacity="0.502"/>
<g transform="translate(5696.00 2192.00) rotate(0) scale(128.00 192.00)"><ellipse cx="0" cy="0" rx="1" ry="1" fill="rgb(240,197,110)" fill-opacity="0.502"/></g>
<polygon points="4545.14,2163.01 4481.61,2155.21 4510.86,1916.99 4574.39,1924.79" fill="rgb(172,187,208)" fill-opacity="0.502"/>
<polygon points="6231.04,1900.40 6488.22,1811.85 6680.96,2371.60 6423.78,2460.15" fill="rgb(51,16,0)" fill-opacity="0.502"/>
<g transform="translate(3840.00 656.00) rotate(0) scale(896.00 384.00)"><ellipse cx="0" cy="0" rx="1" ry="1" fill="rgb(115,72,59)" fill-opacity="0.502"/></g>
<polygon points="5579.57,2071.02 5466.90,1859.12 5636.43,1768.98 5749.10,1980.88" fill="rgb(255,218,105)" fill-opacity="0.502"/>
<polygon points="4529.35,2237.72 4787.16,2076.63 4990.65,2402.28 4732.84,2563.37" fill="rgb(0,0,0)" fill-opacity="0.502"/>
<g transform="translate(7280.00 1968.00) rotate(276) scale(1024.00 160.00)"><ellipse cx="0" cy="0" rx="1" ry="1" fill="rgb(0,0,0)" fill-opacity="0.502"/></g>
<circle cx="4672.00" cy="1104.00" r="336.00" fill="rgb(76,58,81)" fill-opacity="0.502"/>
<circle cx="3488.00" cy="4288.00" r="432.00" fill="rgb(3,0,0)" fill-opacity="0.502"/>
<circle cx="4160.00" cy="3216.00" r="96.00" fill="rgb(201,110,64)" fill-opacity="0.502"/>
<g transform="translate(4576.00 3616.00) rotate(9) scale(1328.00 224.00)"><ellipse cx="0" cy="0" rx="1" ry="1" fill="rgb(1,6,6)" fill-opacity="0.502"/></g>
<g transform="translate(2432.00 32.00) rotate(173) scale(2960.00 448.00)"><ellipse cx="0" cy="0" rx="1" ry="1" fill="rgb(0,0,0)" fill-opacity="0.502"/></g>
<g transform="translate(6000.00 640.00) rotate(344) scale(576.00 272.00)"><ellipse cx="0" cy="0" rx="1" ry="1" fill="rgb(92,40,59)" fill-opacity="0.502"/></g>
<circle cx="7856.00" cy="1696.00" r="784.00" fill="rgb(0,0,0)" fill-opacity="0.502"/>
<polygon points="5896.87,1998.78 6244.53,1943.72 6327.13,2465.22 5979.47,2520.28" fill="rgb(170,190,182)" fill-opacity="0.502"/>
<polygon points="1347.62,2823.20 1537.29,2062.49 2220.38,2232.80 2030.71,2993.51" fill="rgb(4,3,8)" fill-opacity="0.502"/>
<g transform="translate(1552.00 2224.00) rotate(343) scale(544.00 144.00)"><ellipse cx="0" cy="0" rx="1" ry="1" fill="rgb(51,44,72)" fill-opacity="0.502"/></g>
<circle cx="6832.00" cy="416.00" r="256.00" fill="rgb(96,66,97)" fill-opacity="0.502"/>
<g transform="translate(2768.00 1536.00) rotate(162) scale(224.00 112.00)"><ellipse cx="0" cy="0" rx="1" ry="1" fill="rgb(0,0,0)" fill-opacity="0.502"/></g>
<circle cx="640.00" cy="1184.00" r="464.00" fill="rgb(0,0,0)" fill-opacity="0.502"/>
<polygon points="7072.00,3456.00 6880.00,3456.00 6880.00,1536.00 7072.00,1536.00" fill="rgb(165,174,179)" fill-opacity="0.502"/>
<polygon points="4048.00,2016.00 2592.00,2016.00 2592.00,1440.00 4048.00,1440.00" fill="rgb(0,0,0)" fill-opacity="0.502"/>
<circle cx="4784.00" cy="2048.00" r="224.00" fill="rgb(0,0,8)" fill-opacity="0.502"/>
<polygon points="5563.22,2919.00 5740.53,2692.05 5828.78,2761.00 5651.47,2987.95" fill="rgb(0,0,0)" fill-opacity="0.502"/>
<polygon points="3985.40,2600.91 3956.41,2492.73 4574.60,2327.09 4603.59,2435.27" fill="rgb(131,101,97)" fill-opacity="0.502"/>
<circle cx="4880.00" cy="3296.00" r="192.00" fill="rgb(99,66,48)" fill-opacity="0.502"/>
<circle cx="6896.00" cy="3408.00" r="128.00" fill="rgb(185,102,57)" fill-opacity="0.502"/>
<circle cx="7600.00" cy="2880.00" r="528.00" fill="rgb(0,0,0)" fill-opacity="0.502"/>
<g transform="translate(1536.00 1104.00) rotate(345) scale(464.00 192.00)"><ellipse cx="0" cy="0" rx="1" ry="1" fill="rgb(57,47,62)" fill-opacity="0.502"/></g>
<g transform="translate(4656.00 1728.00) rotate(188) scale(304.00 192.00)"><ellipse cx="0" cy="0" rx="1" ry="1" fill="rgb(5,13,27)" fill-opacity="0.502"/></g>
<circle cx="3088.00" cy="3744.00" r="128.00" fill="rgb(84,59,53)" fill-opacity="0.502"/>
<g transform="translate(1232.00 2224.00) rotate(270) scale(192.00 128.00)"><ellipse cx="0" cy="0" rx="1" ry="1" fill="rgb(76,53,63)" fill-opacity="0.502"/></g>
<polygon points="2925.92,2206.15 2621.62,3267.38 2114.08,3121.85 2418.38,2060.62" fill="rgb(0,32,8)" fill-opacity="0.502"/>
<circle cx="5472.00" cy="2112.00" r="80.00" fill="rgb(12,16,43)" fill-opacity="0.502"/>
<circle cx="6528.00" cy="1952.00" r="160.00" fill="rgb(160,109,67)" fill-opacity="0.502"/>
<circle cx="4368.00" cy="608.00" r="416.00" fill="rgb(111,67,62)" fill-opacity="0.502"/>
<polygon points="4503.74,1040.96 4570.27,1353.97 3944.26,1487.04 3877.73,1174.03" fill="rgb(47,47,92)" fill-opacity="0.502"/>
<polygon points="6000.00,3344.00 6480.00,3344.00 6480.00,3376.00 6000.00,3376.00" fill="rgb(0,0,2)" fill-opacity="0.502"/>
<polygon points="4647.57,1455.85 4610.14,1578.25 4472.43,1536.15 4509.86,1413.75" fill="rgb(198,148,77)" fill-opacity="0.502"/>
<polygon points="4307.41,2387.91 4149.95,2569.04 3932.59,2380.09 4090.05,2198.96" fill="rgb(139,83,67)" fill-opacity="0.502"/>
<circle cx="6160.00" cy="1840.00" r="96.00" fill="rgb(90,43,1)" fill-opacity="0.502"/>
<polygon points="6448.90,3294.91 6507.01,3180.86 6735.10,3297.09 6676.99,3411.14" fill="rgb(223,177,129)" fill-opacity="0.502"/>
<g transform="translate(4752.00 2736.00) rotate(126) scale(176.00 224.00)"><ellipse cx="0" cy="0" rx="1" ry="1" fill="rgb(0,0,9)" fill-opacity="0.502"/></g>
<g transform="translate(5776.00 0.00) rotate(86) scale(144.00 1920.00)"><ellipse cx="0" cy="0" rx="1" ry="1" fill="rgb(43,12,0)" fill-opacity="0.502"/></g>
<g transform="translate(3264.00 1040.00) rotate(282) scale(384.00 496.00)"><ellipse cx="0" cy="0" rx="1" ry="1" fill="rgb(118,78,56)" fill-opacity="0.502"/></g>
<polygon points="3596.86,2326.58 3763.14,2230.58 4051.14,2729.42 3884.86,2825.42" fill="rgb(0,0,3)" fill-opacity="0.502"/>
<circle cx="2816.00" cy="3184.00" r="448.00" fill="rgb(0,12,2)" fill-opacity="0.502"/>
<circle cx="5968.00" cy="1344.00" r="320.00" fill="rgb(64,58,89)" fill-opacity="0.502"/>
<circle cx="5520.00" cy="1632.00" r="160.00" fill="rgb(70,65,107)" fill-opacity="0.502"/>
<circle cx="6688.00" cy="3344.00" r="96.00" fill="rgb(233,160,104)" fill-opacity="0.502"/>
<g transform="translate(7440.00 4000.00) rotate(177) scale(352.00 1424.00)"><ellipse cx="0" cy="0" rx="1" ry="1" fill="rgb(0,0,0)" fill-opacity="0.502"/></g>
<g transform="translate(3776.00 3696.00) rotate(182) scale(1712.00 32.00)"><ellipse cx="0" cy="0" rx="1" ry="1" fill="rgb(126,96,84)" fill-opacity="0.502"/></g>
<circle cx="5680.00" cy="3216.00" r="160.00" fill="rgb(3,13,37)" fill-opacity="0.502"/>
<g transform="translate(4992.00 1104.00) rotate(246) scale(256.00 208.00)"><ellipse cx="0" cy="0" rx="1" ry="1" fill="rgb(89,53,35)" fill-opacity="0.502"/></g>
<circle cx="4176.00" cy="1760.00" r="128.00" fill="rgb(140,79,53)" fill-opacity="0.502"/>
<g transform="translate(3984.00 4592.00) rotate(204) scale(224.00 800.00)"><ellipse cx="0" cy="0" rx="1" ry="1" fill="rgb(46,23,11)" fill-opacity="0.502"/></g>
<g transform="translate(5056.00 3008.00) rotate(293) scale(464.00 80.00)"><ellipse cx="0" cy="0" rx="1" ry="1" fill="rgb(87,76,75)" fill-opacity="0.502"/></g>
<g transform="translate(4144.00 1904.00) rotate(21) scale(112.00 256.00)"><ellipse cx="0" cy="0" rx="1" ry="1" fill="rgb(114,65,52)" fill-opacity="0.502"/></g>
<polygon points="5947.29,3047.31 5840.16,3225.60 5332.71,2920.69 5439.84,2742.40" fill="rgb(144,100,80)" fill-opacity="0.502"/>
<circle cx="2064.00" cy="3456.00" r="80.00" fill="rgb(102,76,63)" fill-opacity="0.502"/>
<circle cx="4928.00" cy="512.00" r="288.00" fill="rgb(110,59,68)" fill-opacity="0.502"/>
<circle cx="6864.00" cy="4144.00" r="224.00" fill="rgb(99,39,19)" fill-opacity="0.502"/>
<g transform="translate(320.00 752.00) rotate(178) scale(784.00 3600.00)"><ellipse cx="0" cy="0" rx="1" ry="1" fill="rgb(0,0,0)" fill-opacity="0.502"/></g>
<circle cx="1360.00" cy="848.00" r="288.00" fill="rgb(49,48,69)" fill-opacity="0.502"/>
<circle cx="7792.00" cy="1152.00" r="720.00" fill="rgb(0,0,0)" fill-opacity="0.502"/>
<g transform="translate(6544.00 864.00) rotate(75) scale(144.00 432.00)"><ellipse cx="0" cy="0" rx="1" ry="1" fill="rgb(38,35,72)" fill-opacity="0.502"/></g>
<polygon points="5354.47,479.88 5486.99,974.43 5301.53,1024.12 5169.01,529.57" fill="rgb(19,4,11)" fill-opacity="0.502"/>
<circle cx="4464.00" cy="1840.00" r="128.00" fill="rgb(14,17,31)" fill-opacity="0.502"/>
<circle cx="6672.00" cy="3584.00" r="160.00" fill="rgb(0,0,0)" fill-opacity="0.502"/>
<circle cx="3648.00" cy="2576.00" r="384.00" fill="rgb(0,5,7)" fill-opacity="0.502"/>
<g transform="translate(2784.00 656.00) rotate(255) scale(160.00 1024.00)"><ellipse cx="0" cy="0" rx="1" ry="1" fill="rgb(62,48,68)" fill-opacity="0.502"/></g>
<g transform="translate(5200.00 4240.00) rotate(283) scale(320.00 736.00)"><ellipse cx="0" cy="0" rx="1" ry="1" fill="rgb(114,46,26)" fill-opacity="0.502"/></g>
<circle cx="3744.00" cy="832.00" r="416.00" fill="rgb(110,71,51)" fill-opacity="0.502"/>
<g transform="translate(5152.00 3312.00) rotate(25) scale(224.00 240.00)"><ellipse cx="0" cy="0" rx="1" ry="1" fill="rgb(10,6,6)" fill-opacity="0.502"/></g>
<circle cx="4640.00" cy="3104.00" r="112.00" fill="rgb(2,0,8)" fill-opacity="0.502"/>
<g transform="translate(5520.00 912.00) rotate(62) scale(320.00 96.00)"><ellipse cx="0" cy="0" rx="1" ry="1" fill="rgb(46,35,73)" fill-opacity="0.502"/></g>
<g transform="translate(7872.00 3312.00) rotate(346) scale(640.00 1968.00)"><ellipse cx="0" cy="0" rx="1" ry="1" fill="rgb(0,0,0)" fill-opacity="0.502"/></g>
<circle cx="5856.00" cy="2656.00" r="48.00" fill="rgb(218,208,186)" fill-opacity="0.502"/>
<polygon points="5268.67,1240.12 5458.20,1555.55 5211.33,1703.88 5021.80,1388.45" fill="rgb(2,2,5)" fill-opacity="0.502"/>
<polygon points="6850.00,3993.34 6668.08,3892.50 6862.00,3542.66 7043.92,3643.50" fill="rgb(0,0,0)" fill-opacity="0.502"/>
<polygon points="5661.58,2079.42 5498.76,1977.68 5634.42,1760.58 5797.24,1862.32" fill="rgb(196,156,104)" fill-opacity="0.502"/>
<g transform="translate(5872.00 3248.00) rotate(353) scale(256.00 176.00)"><ellipse cx="0" cy="0" rx="1" ry="1" fill="rgb(66,53,66)" fill-opacity="0.502"/></g>
<g transform="translate(6368.00 1824.00) rotate(287) scale(64.00 192.00)"><ellipse cx="0" cy="0" rx="1" ry="1" fill="rgb(219,145,79)" fill-opacity="0.502"/></g>
<polygon points="5021.68,1893.92 5272.20,1522.51 5378.32,1594.08 5127.80,1965.49" fill="rgb(0,0,0)" fill-opacity="0.502"/>
<circle cx="4496.00" cy="3200.00" r="96.00" fill="rgb(163,161,140)" fill-opacity="0.502"/>
<polygon points="6565.92,1905.51 6617.38,2073.82 6602.08,2078.49 6550.62,1910.18" fill="rgb(43,0,0)" fill-opacity="0.502"/>
<g transform="translate(6272.00 3616.00) rotate(141) scale(208.00 208.00)"><ellipse cx="0" cy="0" rx="1" ry="1" fill="rgb(0,0,3)" fill-opacity="0.502"/></g>
<circle cx="4336.00" cy="2944.00" r="160.00" fill="rgb(170,185,105)" fill-opacity="0.502"/>
<polygon points="5291.36,2065.97 5317.03,1698.87 5476.64,1710.03 5450.97,2077.13" fill="rgb(46,42,80)" fill-opacity="0.502"/>
<circle cx="5776.00" cy="528.00" r="416.00" fill="rgb(89,47,66)" fill-opacity="0.502"/>
<circle cx="3648.00" cy="1808.00" r="384.00" fill="rgb(0,0,3)" fill-opacity="0.502"/>
<g transform="translate(6064.00 2112.00) rotate(336) scale(112.00 368.00)"><ellipse cx="0" cy="0" rx="1" ry="1" fill="rgb(167,176,174)" fill-opacity="0.502"/></g>
<g transform="translate(4512.00 2880.00) rotate(358) scale(16.00 240.00)"><ellipse cx="0" cy="0" rx="1" ry="1" fill="rgb(29,8,24)" fill-opacity="0.502"/></g>
<polygon points="2118.87,1227.28 2626.74,1422.23 2489.13,1780.72 1981.26,1585.77" fill="rgb(121,82,65)" fill-opacity="0.502"/>
<circle cx="6112.00" cy="4480.00" r="544.00" fill="rgb(99,43,25)" fill-opacity="0.502"/>
<circle cx="4880.00" cy="1232.00" r="160.00" fill="rgb(113,77,69)" fill-opacity="0.502"/>
<polygon points="2150.38,3421.98 2071.37,3409.47 2281.62,2082.02 2360.63,2094.53" fill="rgb(105,103,76)" fill-opacity="0.502"/>
<circle cx="6560.00" cy="2352.00" r="176.00" fill="rgb(5,10,5)" fill-opacity="0.502"/>
<g transform="translate(3168.00 4112.00) rotate(181) scale(768.00 432.00)"><ellipse cx="0" cy="0" rx="1" ry="1" fill="rgb(8,2,5)" fill-opacity="0.502"/></g>
<polygon points="1560.05,4322.58 2181.00,3632.94 2727.95,4125.42 2107.00,4815.06" fill="rgb(1,0,5)" fill-opacity="0.502"/>
<polygon points="2193.55,2603.41 2086.66,3363.93 1294.45,3252.59 1401.34,2492.07" fill="rgb(8,3,2)" fill-opacity="0.502"/>
<g transform="translate(5728.00 1600.00) rotate(334) scale(112.00 240.00)"><ellipse cx="0" cy="0" rx="1" ry="1" fill="rgb(75,63,72)" fill-opacity="0.502"/></g>
<circle cx="5728.00" cy="3600.00" r="192.00" fill="rgb(0,0,2)" fill-opacity="0.502"/>
<polygon points="7030.75,1681.83 6060.10,1579.81 6105.25,1150.17 7075.90,1252.19" fill="rgb(83,81,114)" fill-opacity="0.502"/>
<g transform="translate(3264.00 1008.00) rotate(122) scale(464.00 352.00)"><ellipse cx="0" cy="0" rx="1" ry="1" fill="rgb(113,74,59)" fill-opacity="0.502"/></g>
<circle cx="1008.00" cy="4336.00" r="720.00" fill="rgb(0,0,1)" fill-opacity="0.502"/>
<circle cx="1840.00" cy="752.00" r="272.00" fill="rgb(43,43,64)" fill-opacity="0.502"/>
<polygon points="4802.18,2895.83 4558.36,2321.44 4749.82,2240.17 4993.64,2814.56" fill="rgb(0,0,3)" fill-opacity="0.502"/>
<g transform="translate(4464.00 4240.00) rotate(360) scale(240.00 368.00)"><ellipse cx="0" cy="0" rx="1" ry="1" fill="rgb(80,33,18)" fill-opacity="0.502"/></g>
<g transform="translate(3104.00 1824.00) rotate(33) scale(544.00 320.00)"><ellipse cx="0" cy="0" rx="1" ry="1" fill="rgb(0,3,4)" fill-opacity="0.502"/></g>
<polygon points="6582.12,3260.86 6543.23,3040.26 6889.88,2979.14 6928.77,3199.74" fill="rgb(95,51,33)" fill-opacity="0.502"/>
<g transform="translate(3808.00 3280.00) rotate(292) scale(448.00 144.00)"><ellipse cx="0" cy="0" rx="1" ry="1" fill="rgb(0,0,3)" fill-opacity="0.502"/></g>
<polygon points="5260.29,3226.97 5485.82,3144.89 5507.71,3205.03 5282.18,3287.11" fill="rgb(0,0,0)" fill-opacity="0.502"/>
<g transform="translate(5120.00 2992.00) rotate(175) scale(288.00 128.00)"><ellipse cx="0" cy="0" rx="1" ry="1" fill="rgb(22,21,21)" fill-opacity="0.502"/></g>
<g transform="translate(5152.00 2688.00) rotate(167) scale(80.00 112.00)"><ellipse cx="0" cy="0" rx="1" ry="1" fill="rgb(98,102,128)" fill-opacity="0.502"/></g>
<g transform="translate(1856.00 3456.00) rotate(312) scale(256.00 176.00)"><ellipse cx="0" cy="0" rx="1" ry="1" fill="rgb(3,0,1)" fill-opacity="0.502"/></g>
<g transform="translate(6816.00 128.00) rotate(0) scale(272.00 96.00)"><ellipse cx="0" cy="0" rx="1" ry="1" fill="rgb(82,52,55)" fill-opacity="0.502"/></g>
<circle cx="6896.00" cy="2640.00" r="80.00" fill="rgb(138,160,192)" fill-opacity="0.502"/>
<polygon points="4197.92,1676.15 4628.13,1502.33 4682.08,1635.85 4251.87,1809.67" fill="rgb(72,58,51)" fill-opacity="0.502"/>
<g transform="translate(2304.00 2128.00) rotate(106) scale(304.00 16.00)"><ellipse cx="0" cy="0" rx="1" ry="1" fill="rgb(149,127,136)" fill-opacity="0.502"/></g>
<g transform="translate(2624.00 1280.00) rotate(319) scale(176.00 96.00)"><ellipse cx="0" cy="0" rx="1" ry="1" fill="rgb(130,88,74)" fill-opacity="0.502"/></g>
<polygon points="5803.88,4155.94 5116.30,4131.93 5124.12,3908.06 5811.70,3932.07" fill="rgb(140,62,33)" fill-opacity="0.502"/>
<polygon points="6367.27,2267.55 6172.26,2579.63 5968.73,2452.45 6163.74,2140.37" fill="rgb(158,161,156)" fill-opacity="0.502"/>
<polygon points="1463.66,430.29 1492.61,636.27 1112.34,689.71 1083.39,483.73" fill="rgb(27,25,32)" fill-opacity="0.502"/>
<g transform="translate(4400.00 1248.00) rotate(237) scale(160.00 320.00)"><ellipse cx="0" cy="0" rx="1" ry="1" fill="rgb(53,47,75)" fill-opacity="0.502"/></g>
<g transform="translate(2496.00 2768.00) rotate(132) scale(400.00 240.00)"><ellipse cx="0" cy="0" rx="1" ry="1" fill="rgb(0,22,8)" fill-opacity="0.502"/></g>
<polygon points="4127.21,2192.66 4095.33,2189.87 4128.79,1807.34 4160.67,1810.13" fill="rgb(21,0,0)" fill-opacity="0.502"/>
<circle cx="6240.00" cy="3120.00" r="176.00" fill="rgb(150,152,150)" fill-opacity="0.502"/>
<circle cx="6832.00" cy="4160.00" r="224.00" fill="rgb(88,37,22)" fill-opacity="0.502"/>
<circle cx="1200.00" cy="2064.00" r="96.00" fill="rgb(101,71,51)" fill-opacity="0.502"/>
<polygon points="4701.80,3650.35 4160.88,3795.29 4082.20,3501.65 4623.12,3356.71" fill="rgb(0,0,0)" fill-opacity="0.502"/>
<circle cx="1952.00" cy="1520.00" r="272.00" fill="rgb(125,83,66)" fill-opacity="0.502"/>
<polygon points="2593.61,1823.20 2545.66,1704.52 3198.39,1440.80 3246.34,1559.48" fill="rgb(6,6,2)" fill-opacity="0.502"/>
<g transform="translate(2672.00 0.00) rotate(137) scale(544.00 576.00)"><ellipse cx="0" cy="0" rx="1" ry="1" fill="rgb(0,0,7)" fill-opacity="0.502"/></g>
<circle cx="2240.00" cy="1952.00" r="176.00" fill="rgb(43,33,62)" fill-opacity="0.502"/>
<circle cx="6080.00" cy="3648.00" r="224.00" fill="rgb(6,10,11)" fill-opacity="0.502"/>
<circle cx="7376.00" cy="160.00" r="304.00" fill="rgb(0,0,0)" fill-opacity="0.502"/>
<circle cx="6928.00" cy="752.00" r="160.00" fill="rgb(63,60,104)" fill-opacity="0.502"/>
<polygon points="4185.55,3255.60 4092.47,3087.67 4134.45,3064.40 4227.53,3232.33" fill="rgb(248,159,110)" fill-opacity="0.502"/>
<polygon points="2844.11,1145.27 3202.68,1228.06 3155.89,1430.73 2797.32,1347.94" fill="rgb(131,84,73)" fill-opacity="0.502"/>
<circle cx="4896.00" cy="4576.00" r="368.00" fill="rgb(102,45,31)" fill-opacity="0.502"/>
<polygon points="6168.27,88.04 6649.53,208.04 6583.73,471.96 6102.47,351.96" fill="rgb(61,31,49)" fill-opacity="0.502"/>
<circle cx="4800.00" cy="1648.00" r="160.00" fill="rgb(2,5,7)" fill-opacity="0.502"/>
<polygon points="4885.08,2086.82 4707.09,2634.63 4554.92,2585.18 4732.91,2037.37" fill="rgb(0,0,2)" fill-opacity="0.502"/>
<polygon points="4360.45,1395.68 4417.75,1562.09 4039.55,1692.32 3982.25,1525.91" fill="rgb(0,0,0)" fill-opacity="0.502"/>
<g transform="translate(3936.00 112.00) rotate(333) scale(432.00 128.00)"><ellipse cx="0" cy="0" rx="1" ry="1" fill="rgb(22,10,1)" fill-opacity="0.502"/></g>
<polygon points="5795.00,3376.88 5952.06,3407.41 5949.00,3423.12 5791.94,3392.59" fill="rgb(255,255,255)" fill-opacity="0.502"/>
<circle cx="4976.00" cy="3104.00" r="160.00" fill="rgb(83,59,52)" fill-opacity="0.502"/>
<polygon points="4284.18,4114.14 3795.72,4200.27 3731.82,3837.86 4220.28,3751.73" fill="rgb(17,11,0)" fill-opacity="0.502"/>
<g transform="translate(6304.00 1984.00) rotate(225) scale(384.00 48.00)"><ellipse cx="0" cy="0" rx="1" ry="1" fill="rgb(69,36,15)" fill-opacity="0.502"/></g>
<polygon points="6009.26,1545.88 6078.31,1612.57 6022.74,1670.12 5953.69,1603.43" fill="rgb(0,0,0)" fill-opacity="0.502"/>
<circle cx="7680.00" cy="4208.00" r="608.00" fill="rgb(0,0,0)" fill-opacity="0.502"/>
<polygon points="4512.97,3153.54 4422.46,3063.03 4479.03,3006.46 4569.54,3096.97" fill="rgb(88,90,76)" fill-opacity="0.502"/>
<circle cx="4608.00" cy="1664.00" r="128.00" fill="rgb(55,55,76)" fill-opacity="0.502"/>
<g transform="translate(5744.00 3696.00) rotate(118) scale(192.00 368.00)"><ellipse cx="0" cy="0" rx="1" ry="1" fill="rgb(4,6,6)" fill-opacity="0.502"/></g>
<circle cx="5808.00" cy="2176.00" r="128.00" fill="rgb(88,51,61)" fill-opacity="0.502"/>
<circle cx="4400.00" cy="2320.00" r="160.00" fill="rgb(127,139,154)" fill-opacity="0.502"/>
<g transform="translate(6736.00 2640.00) rotate(347) scale(80.00 400.00)"><ellipse cx="0" cy="0" rx="1" ry="1" fill="rgb(0,6,3)" fill-opacity="0.502"/></g>
<circle cx="7008.00" cy="3424.00" r="96.00" fill="rgb(169,84,41)" fill-opacity="0.502"/>
<polygon points="5811.54,2272.93 5938.69,2340.53 5788.46,2623.07 5661.31,2555.47" fill="rgb(0,0,0)" fill-opacity="0.502"/>
<g transform="translate(6560.00 3824.00) rotate(331) scale(176.00 128.00)"><ellipse cx="0" cy="0" rx="1" ry="1" fill="rgb(1,2,0)" fill-opacity="0.502"/></g>
<circle cx="2672.00" cy="2048.00" r="240.00" fill="rgb(0,5,4)" fill-opacity="0.502"/>
<polygon points="5093.65,1134.82 5148.71,787.15 5338.35,817.18 5283.29,1164.85" fill="rgb(17,3,0)" fill-opacity="0.502"/>
<polygon points="6956.56,3336.88 6732.50,3250.87 6755.44,3191.12 6979.50,3277.13" fill="rgb(186,198,180)" fill-opacity="0.502"/>
<g transform="translate(5968.00 640.00) rotate(263) scale(224.00 384.00)"><ellipse cx="0" cy="0" rx="1" ry="1" fill="rgb(92,44,52)" fill-opacity="0.502"/></g>
<circle cx="2320.00" cy="2192.00" r="48.00" fill="rgb(194,148,139)" fill-opacity="0.502"/>
<g transform="translate(5040.00 2288.00) rotate(281) scale(144.00 48.00)"><ellipse cx="0" cy="0" rx="1" ry="1" fill="rgb(115,109,112)" fill-opacity="0.502"/></g>
<circle cx="6176.00" cy="1152.00" r="240.00" fill="rgb(73,64,103)" fill-opacity="0.502"/>
<polygon points="3060.09,732.02 2989.92,961.54 2683.91,867.98 2754.08,638.46" fill="rgb(91,57,51)" fill-opacity="0.502"/>
<polygon points="2998.68,2121.32 2499.72,1867.08 2681.32,1510.68 3180.28,1764.92" fill="rgb(0,6,5)" fill-opacity="0.502"/>
<circle cx="1888.00" cy="2544.00" r="272.00" fill="rgb(6,3,0)" fill-opacity="0.502"/>
<circle cx="5312.00" cy="2304.00" r="256.00" fill="rgb(21,18,34)" fill-opacity="0.502"/>
<g transform="translate(2192.00 720.00) rotate(78) scale(96.00 992.00)"><ellipse cx="0" cy="0" rx="1" ry="1" fill="rgb(47,44,66)" fill-opacity="0.502"/></g>
<polygon points="4881.23,131.50 4878.71,275.48 4478.77,268.50 4481.29,124.52" fill="rgb(87,46,32)" fill-opacity="0.502"/>
<polygon points="4763.75,3052.75 4655.39,2914.06 4756.25,2835.25 4864.61,2973.94" fill="rgb(73,68,80)" fill-opacity="0.502"/>
<polygon points="5867.96,2385.34 5897.90,2526.19 5444.04,2622.66 5414.10,2481.81" fill="rgb(0,0,0)" fill-opacity="0.502"/>
<polygon points="3989.38,1250.31 4006.93,1393.24 3514.62,1453.69 3497.07,1310.76" fill="rgb(48,38,66)" fill-opacity="0.502"/>
<circle cx="6160.00" cy="3392.00" r="32.00" fill="rgb(255,242,221)" fill-opacity="0.502"/>
<g transform="translate(2176.00 1056.00) rotate(70) scale(96.00 1120.00)"><ellipse cx="0" cy="0" rx="1" ry="1" fill="rgb(95,63,51)" fill-opacity="0.502"/></g>
<polygon points="6739.15,2589.83 6569.97,2638.34 6428.85,2146.17 6598.03,2097.66" fill="rgb(0,0,0)" fill-opacity="0.502"/>
<g transform="translate(2448.00 3904.00) rotate(196) scale(512.00 240.00)"><ellipse cx="0" cy="0" rx="1" ry="1" fill="rgb(6,0,5)" fill-opacity="0.502"/></g>
<polygon points="6856.00,2792.00 6856.00,2248.00 7064.00,2248.00 7064.00,2792.00" fill="rgb(150,165,176)" fill-opacity="0.502"/>
<polygon points="3728.73,1992.72 3567.63,1793.77 4015.27,1431.28 4176.37,1630.23" fill="rgb(0,0,2)" fill-opacity="0.502"/>
<polygon points="6677.88,1121.68 6699.09,818.42 7098.12,846.32 7076.91,1149.58" fill="rgb(67,57,97)" fill-opacity="0.502"/>
<polygon points="6881.66,2766.07 6708.61,2233.48 6830.34,2193.93 7003.39,2726.52" fill="rgb(142,156,153)" fill-opacity="0.502"/>
<g transform="translate(6464.00 3632.00) rotate(255) scale(224.00 176.00)"><ellipse cx="0" cy="0" rx="1" ry="1" fill="rgb(0,4,10)" fill-opacity="0.502"/></g>
<circle cx="1600.00" cy="3200.00" r="512.00" fill="rgb(8,5,6)" fill-opacity="0.502"/>
<g transform="translate(3968.00 960.00) rotate(324) scale(672.00 128.00)"><ellipse cx="0" cy="0" rx="1" ry="1" fill="rgb(114,75,57)" fill-opacity="0.502"/></g>
<circle cx="6400.00" cy="3136.00" r="144.00" fill="rgb(148,156,167)" fill-opacity="0.502"/>
<circle cx="5200.00" cy="3568.00" r="176.00" fill="rgb(0,0,2)" fill-opacity="0.502"/>
<polygon points="5864.81,2306.74 5815.82,1958.17 5879.19,1949.26 5928.18,2297.83" fill="rgb(43,0,0)" fill-opacity="0.502"/>
<polygon points="6484.52,2722.71 6475.58,2466.87 6635.48,2461.29 6644.42,2717.13" fill="rgb(5,1,2)" fill-opacity="0.502"/>
<g transform="translate(5936.00 3232.00) rotate(50) scale(32.00 128.00)"><ellipse cx="0" cy="0" rx="1" ry="1" fill="rgb(195,159,121)" fill-opacity="0.502"/></g>
<polygon points="4875.60,2098.32 5221.13,2031.15 5236.40,2109.68 4890.87,2176.85" fill="rgb(174,156,159)" fill-opacity="0.502"/>
<polygon points="5969.90,2618.26 5314.00,2629.71 5310.10,2405.74 5966.00,2394.29" fill="rgb(5,2,11)" fill-opacity="0.502"/>
<g transform="translate(6976.00 2848.00) rotate(260) scale(288.00 96.00)"><ellipse cx="0" cy="0" rx="1" ry="1" fill="rgb(138,146,161)" fill-opacity="0.502"/></g>
<polygon points="4240.02,1508.87 4220.52,1667.68 3759.98,1611.13 3779.48,1452.32" fill="rgb(0,0,0)" fill-opacity="0.502"/>
<circle cx="7744.00" cy="528.00" r="672.00" fill="rgb(0,0,0)" fill-opacity="0.502"/>
<polygon points="2112.13,3578.16 2077.52,3684.68 2031.87,3669.84 2066.48,3563.32" fill="rgb(125,99,90)" fill-opacity="0.502"/>
<circle cx="6448.00" cy="1728.00" r="112.00" fill="rgb(164,157,143)" fill-opacity="0.502"/>
<polygon points="4177.22,2903.70 4198.06,2964.21 4046.78,3016.30 4025.94,2955.79" fill="rgb(138,51,50)" fill-opacity="0.502"/>
<polygon points="4303.08,1998.66 4268.67,2088.28 4208.92,2065.34 4243.33,1975.72" fill="rgb(198,233,211)" fill-opacity="0.502"/>
<circle cx="3920.00" cy="4208.00" r="256.00" fill="rgb(29,18,10)" fill-opacity="0.502"/>
<polygon points="5006.26,2587.65 4746.15,2667.18 4577.74,2116.35 4837.85,2036.82" fill="rgb(0,0,3)" fill-opacity="0.502"/>
<polygon points="2384.00,3920.00 3456.00,3920.00 3456.00,4592.00 2384.00,4592.00" fill="rgb(3,1,6)" fill-opacity="0.502"/>
<g transform="translate(4592.00 1824.00) rotate(274) scale(128.00 320.00)"><ellipse cx="0" cy="0" rx="1" ry="1" fill="rgb(14,15,22)" fill-opacity="0.502"/></g>
<g transform="translate(1488.00 4160.00) rotate(0) scale(400.00 784.00)"><ellipse cx="0" cy="0" rx="1" ry="1" fill="rgb(5,2,6)" fill-opacity="0.502"/></g>
<circle cx="4384.00" cy="3312.00" r="64.00" fill="rgb(14,23,6)" fill-opacity="0.502"/>
<g transform="translate(3680.00 3008.00) rotate(84) scale(672.00 320.00)"><ellipse cx="0" cy="0" rx="1" ry="1" fill="rgb(0,5,7)" fill-opacity="0.502"/></g>
<circle cx="6112.00" cy="1632.00" r="48.00" fill="rgb(0,0,0)" fill-opacity="0.502"/>
<polygon points="2224.30,3268.56 2415.61,3504.82 2303.70,3595.44 2112.39,3359.18" fill="rgb(0,7,3)" fill-opacity="0.502"/>
<circle cx="5040.00" cy="2448.00" r="64.00" fill="rgb(89,88,93)" fill-opacity="0.502"/>
<polygon points="5267.50,1799.99 5419.67,1750.55 5612.50,2344.01 5460.33,2393.45" fill="rgb(45,42,56)" fill-opacity="0.502"/>
<polygon points="4958.86,946.61 5204.94,1017.17 5121.14,1309.39 4875.06,1238.83" fill="rgb(63,35,23)" fill-opacity="0.502"/>
<circle cx="5792.00" cy="2016.00" r="64.00" fill="rgb(255,172,142)" fill-opacity="0.502"/>
<circle cx="4144.00" cy="2800.00" r="80.00" fill="rgb(59,43,69)" fill-opacity="0.502"/>
<circle cx="6336.00" cy="0.00" r="160.00" fill="rgb(11,3,0)" fill-opacity="0.502"/>
<g transform="translate(3328.00 3136.00) rotate(284) scale(528.00 464.00)"><ellipse cx="0" cy="0" rx="1" ry="1" fill="rgb(0,8,6)" fill-opacity="0.502"/></g>
<polygon points="3272.45,949.72 3134.44,678.85 3975.55,250.28 4113.56,521.15" fill="rgb(97,58,51)" fill-opacity="0.502"/>
<g transform="translate(6640.00 3312.00) rotate(299) scale(80.00 80.00)"><ellipse cx="0" cy="0" rx="1" ry="1" fill="rgb(205,159,109)" fill-opacity="0.502"/></g>
<g transform="translate(4192.00 3584.00) rotate(269) scale(112.00 688.00)"><ellipse cx="0" cy="0" rx="1" ry="1" fill="rgb(0,0,0)" fill-opacity="0.502"/></g>
<circle cx="6624.00" cy="4176.00" r="240.00" fill="rgb(98,43,24)" fill-opacity="0.502"/>
<polygon points="1108.34,1569.35 1378.31,1536.20 1403.66,1742.65 1133.69,1775.80" fill="rgb(122,89,73)" fill-opacity="0.502"/>
<circle cx="5728.00" cy="2144.00" r="96.00" fill="rgb(204,175,129)" fill-opacity="0.502"/>
<g transform="translate(5792.00 2720.00) rotate(41) scale(128.00 48.00)"><ellipse cx="0" cy="0" rx="1" ry="1" fill="rgb(107,109,125)" fill-opacity="0.502"/></g>
<polygon points="5303.49,2652.96 5191.54,2715.02 5160.51,2659.04 5272.46,2596.98" fill="rgb(112,111,136)" fill-opacity="0.502"/>
<circle cx="2560.00" cy="2640.00" r="352.00" fill="rgb(1,24,9)" fill-opacity="0.502"/>
<g transform="translate(4480.00 1216.00) rotate(43) scale(96.00 352.00)"><ellipse cx="0" cy="0" rx="1" ry="1" fill="rgb(60,52,81)" fill-opacity="0.502"/></g>
<g transform="translate(4784.00 1392.00) rotate(151) scale(224.00 16.00)"><ellipse cx="0" cy="0" rx="1" ry="1" fill="rgb(207,155,140)" fill-opacity="0.502"/></g>
<g transform="translate(2544.00 1504.00) rotate(248) scale(64.00 64.00)"><ellipse cx="0" cy="0" rx="1" ry="1" fill="rgb(127,98,87)" fill-opacity="0.502"/></g>
<g transform="translate(6128.00 4576.00) rotate(227) scale(464.00 448.00)"><ellipse cx="0" cy="0" rx="1" ry="1" fill="rgb(95,40,22)" fill-opacity="0.502"/></g>
<polygon points="5087.39,2588.41 5122.25,2189.94 5552.61,2227.59 5517.75,2626.06" fill="rgb(11,10,22)" fill-opacity="0.502"/>
<circle cx="5360.00" cy="336.00" r="176.00" fill="rgb(93,50,70)" fill-opacity="0.502"/>
<polygon points="5600.48,504.21 5756.77,136.00 6095.52,279.79 5939.23,648.00" fill="rgb(88,50,75)" fill-opacity="0.502"/>
<g transform="translate(3344.00 1616.00) rotate(170) scale(448.00 176.00)"><ellipse cx="0" cy="0" rx="1" ry="1" fill="rgb(0,5,6)" fill-opacity="0.502"/></g>
<g transform="translate(4800.00 2208.00) rotate(273) scale(672.00 144.00)"><ellipse cx="0" cy="0" rx="1" ry="1" fill="rgb(4,5,9)" fill-opacity="0.502"/></g>
<polygon points="4305.33,1527.94 4532.25,1449.80 4542.67,1480.06 4315.75,1558.20" fill="rgb(0,0,0)" fill-opacity="0.502"/>
<circle cx="6160.00" cy="2528.00" r="176.00" fill="rgb(151,157,158)" fill-opacity="0.502"/>
<circle cx="5424.00" cy="1728.00" r="112.00" fill="rgb(70,64,103)" fill-opacity="0.502"/>
<polygon points="6629.75,2687.16 6855.28,2769.24 6762.25,3024.84 6536.72,2942.76" fill="rgb(0,0,2)" fill-opacity="0.502"/>
<circle cx="2288.00" cy="1440.00" r="320.00" fill="rgb(113,76,62)" fill-opacity="0.502"/>
<polygon points="6699.11,3287.82 6714.59,3225.73 6900.89,3272.18 6885.41,3334.27" fill="rgb(172,178,160)" fill-opacity="0.502"/>
<polygon points="3645.78,4305.70 3410.22,4169.70 3666.22,3726.30 3901.78,3862.30" fill="rgb(5,5,0)" fill-opacity="0.502"/>
<g transform="translate(6592.00 4016.00) rotate(349) scale(256.00 32.00)"><ellipse cx="0" cy="0" rx="1" ry="1" fill="rgb(121,55,33)" fill-opacity="0.502"/></g>
<circle cx="4144.00" cy="2544.00" r="128.00" fill="rgb(139,97,81)" fill-opacity="0.502"/>
<circle cx="5600.00" cy="1536.00" r="208.00" fill="rgb(66,60,91)" fill-opacity="0.502"/>
<circle cx="2592.00" cy="2304.00" r="32.00" fill="rgb(92,156,26)" fill-opacity="0.502"/>
<polygon points="5510.89,2977.21 5684.22,3007.77 5673.11,3070.79 5499.78,3040.23" fill="rgb(255,194,129)" fill-opacity="0.502"/>
<g transform="translate(7424.00 2128.00) rotate(150) scale(288.00 448.00)"><ellipse cx="0" cy="0" rx="1" ry="1" fill="rgb(0,0,0)" fill-opacity="0.502"/></g>
<polygon points="4895.08,2666.86 4940.46,2651.24 4976.92,2757.14 4931.54,2772.76" fill="rgb(73,76,71)" fill-opacity="0.502"/>
<polygon points="2926.54,3671.84 2015.79,3624.11 2017.46,3592.16 2928.21,3639.89" fill="rgb(177,130,103)" fill-opacity="0.502"/>
<circle cx="6384.00" cy="2240.00" r="64.00" fill="rgb(121,87,67)" fill-opacity="0.502"/>
<polygon points="6585.44,3743.45 6616.31,3851.11 6262.56,3952.55 6231.69,3844.89" fill="rgb(11,8,2)" fill-opacity="0.502"/>
<g transform="translate(2736.00 1232.00) rotate(287) scale(160.00 384.00)"><ellipse cx="0" cy="0" rx="1" ry="1" fill="rgb(120,81,67)" fill-opacity="0.502"/></g>
<polygon points="5199.97,3371.43 5173.94,3429.90 4560.03,3156.57 4586.06,3098.10" fill="rgb(77,48,39)" fill-opacity="0.502"/>
<g transform="translate(1408.00 1616.00) rotate(221) scale(272.00 336.00)"><ellipse cx="0" cy="0" rx="1" ry="1" fill="rgb(113,79,63)" fill-opacity="0.502"/></g>
<polygon points="4887.03,1026.91 4853.09,992.97 4920.97,925.09 4954.91,959.03" fill="rgb(0,0,9)" fill-opacity="0.502"/>
<polygon points="2321.97,3650.92 2683.20,3721.14 2558.03,4365.08 2196.80,4294.86" fill="rgb(5,2,5)" fill-opacity="0.502"/>
<polygon points="6899.67,3210.70 6770.25,3147.58 6812.33,3061.30 6941.75,3124.42" fill="rgb(127,72,47)" fill-opacity="0.502"/>
<polygon points="6416.02,1687.55 6379.43,1859.70 6175.98,1816.45 6212.57,1644.30" fill="rgb(203,158,100)" fill-opacity="0.502"/>
<g transform="translate(4768.00 608.00) rotate(167) scale(192.00 224.00)"><ellipse cx="0" cy="0" rx="1" ry="1" fill="rgb(108,68,70)" fill-opacity="0.502"/></g>
<polygon points="4171.21,4206.93 4258.82,4760.04 4100.79,4785.07 4013.18,4231.96" fill="rgb(59,27,20)" fill-opacity="0.502"/>
<g transform="translate(4912.00 3536.00) rotate(88) scale(32.00 16.00)"><ellipse cx="0" cy="0" rx="1" ry="1" fill="rgb(181,255,90)" fill-opacity="0.502"/></g>
<circle cx="4352.00" cy="2704.00" r="144.00" fill="rgb(147,170,124)" fill-opacity="0.502"/>
<polygon points="5599.60,3007.01 5494.75,2933.59 5632.40,2736.99 5737.25,2810.41" fill="rgb(61,10,0)" fill-opacity="0.502"/>
<g transform="translate(6736.00 3824.00) rotate(103) scale(112.00 480.00)"><ellipse cx="0" cy="0" rx="1" ry="1" fill="rgb(6,7,6)" fill-opacity="0.502"/></g>
<polygon points="4278.93,1806.30 4022.93,2249.70 4009.07,2241.70 4265.07,1798.30" fill="rgb(150,116,97)" fill-opacity="0.502"/>
<g transform="translate(5920.00 3776.00) rotate(181) scale(1104.00 16.00)"><ellipse cx="0" cy="0" rx="1" ry="1" fill="rgb(86,70,68)" fill-opacity="0.502"/></g>
<circle cx="416.00" cy="368.00" r="720.00" fill="rgb(0,0,0)" fill-opacity="0.502"/>
<g transform="translate(1552.00 80.00) rotate(115) scale(368.00 736.00)"><ellipse cx="0" cy="0" rx="1" ry="1" fill="rgb(8,6,8)" fill-opacity="0.502"/></g>
<g transform="translate(4432.00 400.00) rotate(286) scale(128.00 224.00)"><ellipse cx="0" cy="0" rx="1" ry="1" fill="rgb(101,63,74)" fill-opacity="0.502"/></g>
<circle cx="3616.00" cy="1920.00" r="416.00" fill="rgb(0,4,6)" fill-opacity="0.502"/>
<g transform="translate(3088.00 2592.00) rotate(62) scale(448.00 384.00)"><ellipse cx="0" cy="0" rx="1" ry="1" fill="rgb(2,12,8)" fill-opacity="0.502"/></g>
<circle cx="6016.00" cy="1040.00" r="160.00" fill="rgb(64,52,90)" fill-opacity="0.502"/>
<polygon points="2705.41,737.94 2702.62,577.97 2926.59,574.06 2929.38,734.03" fill="rgb(78,57,75)" fill-opacity="0.502"/>
<polygon points="3293.15,3829.36 3514.85,3701.36 3554.85,3770.64 3333.15,3898.64" fill="rgb(62,51,42)" fill-opacity="0.502"/>
<polygon points="2400.00,3680.00 2880.00,3680.00 2880.00,3840.00 2400.00,3840.00" fill="rgb(5,1,4)" fill-opacity="0.502"/>
<polygon points="2037.29,320.17 2452.67,487.99 2410.71,591.83 1995.33,424.01" fill="rgb(8,5,13)" fill-opacity="0.502"/>
<circle cx="5456.00" cy="2336.00" r="144.00" fill="rgb(40,36,49)" fill-opacity="0.502"/>
<circle cx="2528.00" cy="1568.00" r="32.00" fill="rgb(158,124,139)" fill-opacity="0.502"/>
<circle cx="6032.00" cy="3168.00" r="80.00" fill="rgb(35,2,0)" fill-opacity="0.502"/>
<polygon points="5093.39,2484.65 5082.78,2180.84 5354.61,2171.35 5365.22,2475.16" fill="rgb(4,2,12)" fill-opacity="0.502"/>
<circle cx="6192.00" cy="2816.00" r="160.00" fill="rgb(144,153,153)" fill-opacity="0.502"/>
<polygon points="4108.01,3290.15 4473.21,3408.81 4403.99,3621.85 4038.79,3503.19" fill="rgb(0,1,1)" fill-opacity="0.502"/>
<g transform="translate(6768.00 4576.00) rotate(122) scale(512.00 192.00)"><ellipse cx="0" cy="0" rx="1" ry="1" fill="rgb(78,31,16)" fill-opacity="0.502"/></g>
<polygon points="4593.91,1393.72 4564.36,1355.89 4766.09,1198.28 4795.64,1236.11" fill="rgb(4,0,2)" fill-opacity="0.502"/>
<circle cx="6928.00" cy="1952.00" r="144.00" fill="rgb(151,167,169)" fill-opacity="0.502"/>
<polygon points="7080.00,1896.00 7080.00,2616.00 6984.00,2616.00 6984.00,1896.00" fill="rgb(171,183,182)" fill-opacity="0.502"/>
<polygon points="5944.00,1672.00 5944.00,1720.00 5784.00,1720.00 5784.00,1672.00" fill="rgb(237,197,129)" fill-opacity="0.502"/>
<polygon points="6959.81,2119.24 6812.73,2242.66 6576.19,1960.76 6723.27,1837.34" fill="rgb(151,167,161)" fill-opacity="0.502"/>
<circle cx="5168.00" cy="2080.00" r="32.00" fill="rgb(255,255,255)" fill-opacity="0.502"/>
<polygon points="1615.12,1966.53 1793.47,2127.12 1632.88,2305.47 1454.53,2144.88" fill="rgb(57,40,52)" fill-opacity="0.502"/>
<circle cx="1440.00" cy="2096.00" r="112.00" fill="rgb(67,45,33)" fill-opacity="0.502"/>
<polygon points="6770.23,2413.11 6671.34,2108.78 6701.77,2098.89 6800.66,2403.22" fill="rgb(161,163,143)" fill-opacity="0.502"/>
<g transform="translate(4512.00 80.00) rotate(326) scale(224.00 112.00)"><ellipse cx="0" cy="0" rx="1" ry="1" fill="rgb(55,26,11)" fill-opacity="0.502"/></g>
<g transform="translate(6352.00 3392.00) rotate(95) scale(16.00 240.00)"><ellipse cx="0" cy="0" rx="1" ry="1" fill="rgb(201,176,188)" fill-opacity="0.502"/></g>
<g transform="translate(1552.00 2528.00) rotate(263) scale(160.00 656.00)"><ellipse cx="0" cy="0" rx="1" ry="1" fill="rgb(11,7,4)" fill-opacity="0.502"/></g>
<polygon points="6749.12,1375.19 6333.85,1494.27 6258.88,1232.81 6674.15,1113.73" fill="rgb(90,79,117)" fill-opacity="0.502"/>
<polygon points="4681.31,3157.62 4807.36,3179.84 4790.69,3274.38 4664.64,3252.16" fill="rgb(171,120,85)" fill-opacity="0.502"/>
<circle cx="4400.00" cy="2064.00" r="64.00" fill="rgb(36,44,93)" fill-opacity="0.502"/>
<polygon points="5895.95,3357.65 5917.84,3297.51 6008.05,3330.35 5986.16,3390.49" fill="rgb(11,0,0)" fill-opacity="0.502"/>
<g transform="translate(4912.00 3264.00) rotate(170) scale(304.00 48.00)"><ellipse cx="0" cy="0" rx="1" ry="1" fill="rgb(33,9,10)" fill-opacity="0.502"/></g>
<circle cx="2784.00" cy="1968.00" r="304.00" fill="rgb(0,7,6)" fill-opacity="0.502"/>
<polygon points="1939.13,1985.92 1862.82,1863.80 2364.87,1550.08 2441.18,1672.20" fill="rgb(106,61,49)" fill-opacity="0.502"/>
<circle cx="896.00" cy="2000.00" r="208.00" fill="rgb(0,0,0)" fill-opacity="0.502"/>
<g transform="translate(1728.00 1968.00) rotate(334) scale(336.00 64.00)"><ellipse cx="0" cy="0" rx="1" ry="1" fill="rgb(97,60,44)" fill-opacity="0.502"/></g>
<polygon points="2147.42,2331.12 2321.24,1900.91 2380.58,1924.88 2206.76,2355.09" fill="rgb(26,11,21)" fill-opacity="0.502"/>
<polygon points="5175.25,1874.57 5018.27,1738.11 5112.75,1629.43 5269.73,1765.89" fill="rgb(0,0,4)" fill-opacity="0.502"/>
<polygon points="7033.43,4357.51 6799.40,4575.75 6406.57,4154.49 6640.60,3936.25" fill="rgb(90,38,22)" fill-opacity="0.502"/>
<polygon points="2456.00,2984.00 2456.00,2920.00 2696.00,2920.00 2696.00,2984.00" fill="rgb(10,48,23)" fill-opacity="0.502"/>
<polygon points="7000.60,1735.01 7012.30,1830.29 6599.40,1880.99 6587.70,1785.71" fill="rgb(132,143,149)" fill-opacity="0.502"/>
<circle cx="592.00" cy="1728.00" r="512.00" fill="rgb(0,0,0)" fill-opacity="0.502"/>
<polygon points="5283.36,2334.76 5148.92,2386.36 5068.64,2177.24 5203.08,2125.64" fill="rgb(9,3,10)" fill-opacity="0.502"/>
<polygon points="5117.28,2821.02 5138.49,3124.28 5042.72,3130.98 5021.51,2827.72" fill="rgb(104,86,81)" fill-opacity="0.502"/>
<g transform="translate(3744.00 4576.00) rotate(287) scale(368.00 192.00)"><ellipse cx="0" cy="0" rx="1" ry="1" fill="rgb(16,10,0)" fill-opacity="0.502"/></g>
<circle cx="2032.00" cy="1520.00" r="224.00" fill="rgb(125,84,65)" fill-opacity="0.502"/>
<circle cx="2272.00" cy="2272.00" r="64.00" fill="rgb(190,131,104)" fill-opacity="0.502"/>
<g transform="translate(4672.00 976.00) rotate(320) scale(256.00 144.00)"><ellipse cx="0" cy="0" rx="1" ry="1" fill="rgb(70,53,83)" fill-opacity="0.502"/></g>
<polygon points="4433.18,1872.72 4489.31,1689.11 4718.82,1759.28 4662.69,1942.89" fill="rgb(29,30,51)" fill-opacity="0.502"/>
<polygon points="5420.52,1085.32 5656.43,1250.51 5555.48,1394.68 5319.57,1229.49" fill="rgb(49,49,80)" fill-opacity="0.502"/>
<circle cx="8080.00" cy="2896.00" r="992.00" fill="rgb(0,0,0)" fill-opacity="0.502"/>
<g transform="translate(2192.00 1216.00) rotate(234) scale(224.00 48.00)"><ellipse cx="0" cy="0" rx="1" ry="1" fill="rgb(93,66,56)" fill-opacity="0.502"/></g>
<polygon points="3086.06,529.24 3042.41,482.44 3217.94,318.76 3261.59,365.56" fill="rgb(49,48,63)" fill-opacity="0.502"/>
<circle cx="4336.00" cy="2192.00" r="96.00" fill="rgb(140,151,173)" fill-opacity="0.502"/>
<polygon points="6222.76,1655.24 5807.01,1640.72 5809.24,1576.76 6224.99,1591.28" fill="rgb(0,0,0)" fill-opacity="0.502"/>
<polygon points="5759.61,1755.81 5837.86,1739.18 5904.39,2052.19 5826.14,2068.82" fill="rgb(73,0,0)" fill-opacity="0.502"/>
<polygon points="7327.64,3193.76 7295.57,3560.36 7088.36,3542.24 7120.43,3175.64" fill="rgb(0,0,0)" fill-opacity="0.502"/>
<circle cx="5168.00" cy="4592.00" r="496.00" fill="rgb(104,44,26)" fill-opacity="0.502"/>
<g transform="translate(3728.00 2368.00) rotate(190) scale(208.00 496.00)"><ellipse cx="0" cy="0" rx="1" ry="1" fill="rgb(1,5,6)" fill-opacity="0.502"/></g>
<g transform="translate(7312.00 1280.00) rotate(265) scale(304.00 240.00)"><ellipse cx="0" cy="0" rx="1" ry="1" fill="rgb(0,0,0)" fill-opacity="0.502"/></g>
<g transform="translate(3424.00 0.00) rotate(76) scale(224.00 1616.00)"><ellipse cx="0" cy="0" rx="1" ry="1" fill="rgb(3,0,1)" fill-opacity="0.502"/></g>
<g transform="translate(5824.00 3344.00) rotate(251) scale(32.00 224.00)"><ellipse cx="0" cy="0" rx="1" ry="1" fill="rgb(121,94,104)" fill-opacity="0.502"/></g>
<g transform="translate(0.00 2304.00) rotate(349) scale(1120.00 960.00)"><ellipse cx="0" cy="0" rx="1" ry="1" fill="rgb(0,0,0)" fill-opacity="0.502"/></g>
<polygon points="1260.93,2339.42 1239.48,2164.73 1827.07,2092.58 1848.52,2267.27" fill="rgb(43,36,56)" fill-opacity="0.502"/>
<polygon points="4966.54,2060.96 5124.15,2262.69 4985.46,2371.04 4827.85,2169.31" fill="rgb(67,63,77)" fill-opacity="0.502"/>
<polygon points="2754.17,2412.97 2625.45,2292.94 2701.83,2211.03 2830.55,2331.06" fill="rgb(25,55,11)" fill-opacity="0.502"/>
<g transform="translate(2192.00 2016.00) rotate(317) scale(352.00 64.00)"><ellipse cx="0" cy="0" rx="1" ry="1" fill="rgb(44,36,62)" fill-opacity="0.502"/></g>
<g transform="translate(4432.00 2544.00) rotate(22) scale(96.00 240.00)"><ellipse cx="0" cy="0" rx="1" ry="1" fill="rgb(134,139,122)" fill-opacity="0.502"/></g>
<polygon points="5832.00,2040.00 5832.00,2296.00 5656.00,2296.00 5656.00,2040.00" fill="rgb(192,152,106)" fill-opacity="0.502"/>
<g transform="translate(1472.00 800.00) rotate(178) scale(368.00 224.00)"><ellipse cx="0" cy="0" rx="1" ry="1" fill="rgb(48,46,60)" fill-opacity="0.502"/></g>
<g transform="translate(6240.00 2208.00) rotate(313) scale(64.00 96.00)"><ellipse cx="0" cy="0" rx="1" ry="1" fill="rgb(178,186,178)" fill-opacity="0.502"/></g>
<polygon points="4486.93,2487.43 4379.87,2606.34 4249.07,2488.57 4356.13,2369.66" fill="rgb(126,159,145)" fill-opacity="0.502"/>
<polygon points="6494.22,371.40 6386.33,638.43 5985.78,476.60 6093.67,209.57" fill="rgb(74,42,62)" fill-opacity="0.502"/>
<g transform="translate(6320.00 2800.00) rotate(360) scale(112.00 512.00)"><ellipse cx="0" cy="0" rx="1" ry="1" fill="rgb(161,161,163)" fill-opacity="0.502"/></g>
<g transform="translate(6768.00 1696.00) rotate(188) scale(304.00 32.00)"><ellipse cx="0" cy="0" rx="1" ry="1" fill="rgb(172,186,193)" fill-opacity="0.502"/></g>
</g>
</svg>