<?xml version="1.0" standalone="no"?>
<svg xmlns="http://www.w3.org/2000/svg" width="8192" height="4608" viewBox="0 0 8192 4608" style="overflow:hidden">
<defs>
<clipPath id="c"><rect x="0" y="0" width="8192" height="4608"/></clipPath>
</defs>
<rect width="8192" height="4608" fill="rgb(41,42,40)"/>
<g clip-path="url(#c)">
<g transform="translate(5136.00 1088.00) rotate(9) scale(1920.00 1728.00)"><ellipse cx="0" cy="0" rx="1" ry="1" fill="rgb(245,255,204)" fill-opacity="0.502"/></g>
<circle cx="4496.00" cy="2512.00" r="320.00" fill="rgb(255,255,255)" fill-opacity="0.502"/>
<circle cx="1344.00" cy="2640.00" r="2688.00" fill="rgb(0,0,0)" fill-opacity="0.502"/>
<g transform="translate(6544.00 1232.00) rotate(357) scale(608.00 240.00)"><ellipse cx="0" cy="0" rx="1" ry="1" fill="rgb(0,97,83)" fill-opacity="0.502"/></g>
<g transform="translate(6976.00 4048.00) rotate(53) scale(2112.00 4592.00)"><ellipse cx="0" cy="0" rx="1" ry="1" fill="rgb(0,0,0)" fill-opacity="0.502"/></g>
<polygon points="4064.00,0.00 6256.00,0.00 6256.00,1232.00 4064.00,1232.00" fill="rgb(197,223,165)" fill-opacity="0.502"/>
<g transform="translate(6464.00 1984.00) rotate(216) scale(736.00 368.00)"><ellipse cx="0" cy="0" rx="1" ry="1" fill="rgb(238,232,193)" fill-opacity="0.502"/></g>
<g transform="translate(5152.00 2624.00) rotate(191) scale(512.00 192.00)"><ellipse cx="0" cy="0" rx="1" ry="1" fill="rgb(255,255,255)" fill-opacity="0.502"/></g>
<g transform="translate(5264.00 2176.00) rotate(360) scale(720.00 208.00)"><ellipse cx="0" cy="0" rx="1" ry="1" fill="rgb(0,0,0)" fill-opacity="0.502"/></g>
<g transform="translate(3472.00 1744.00) rotate(267) scale(272.00 592.00)"><ellipse cx="0" cy="0" rx="1" ry="1" fill="rgb(242,237,191)" fill-opacity="0.502"/></g>
<g transform="translate(6336.00 4096.00) rotate(269) scale(1360.00 4592.00)"><ellipse cx="0" cy="0" rx="1" ry="1" fill="rgb(0,0,5)" fill-opacity="0.502"/></g>
<circle cx="7600.00" cy="656.00" r="768.00" fill="rgb(0,0,0)" fill-opacity="0.502"/>
<polygon points="4331.17,2113.16 4602.48,2547.36 4276.83,2750.84 4005.52,2316.64" fill="rgb(255,255,221)" fill-opacity="0.502"/>
<circle cx="4816.00" cy="1408.00" r="176.00" fill="rgb(0,0,0)" fill-opacity="0.502"/>
<circle cx="3264.00" cy="672.00" r="512.00" fill="rgb(115,124,71)" fill-opacity="0.502"/>
<circle cx="3808.00" cy="1312.00" r="224.00" fill="rgb(0,0,0)" fill-opacity="0.502"/>
<circle cx="5520.00" cy="1648.00" r="400.00" fill="rgb(255,255,217)" fill-opacity="0.502"/>
<polygon points="5577.86,2218.57 3948.09,2133.16 3958.14,1941.43 5587.91,2026.84" fill="rgb(0,0,0)" fill-opacity="0.502"/>
<g transform="translate(4288.00 1408.00) rotate(1) scale(800.00 112.00)"><ellipse cx="0" cy="0" rx="1" ry="1" fill="rgb(0,0,0)" fill-opacity="0.502"/></g>
<polygon points="4167.93,1497.52 5463.14,1542.75 5448.07,1974.48 4152.86,1929.25" fill="rgb(255,255,221)" fill-opacity="0.502"/>
<circle cx="6672.00" cy="80.00" r="256.00" fill="rgb(0,33,57)" fill-opacity="0.502"/>
<polygon points="5357.28,1951.75 5422.77,1737.54 6386.72,2032.25 6321.23,2246.46" fill="rgb(255,255,239)" fill-opacity="0.502"/>
<g transform="translate(7920.00 1568.00) rotate(2) scale(832.00 3936.00)"><ellipse cx="0" cy="0" rx="1" ry="1" fill="rgb(0,0,0)" fill-opacity="0.502"/></g>
<g transform="translate(928.00 1680.00) rotate(145) scale(2064.00 2000.00)"><ellipse cx="0" cy="0" rx="1" ry="1" fill="rgb(0,0,2)" fill-opacity="0.502"/></g>
<polygon points="3774.88,2619.32 3646.40,2802.81 3489.12,2692.68 3617.60,2509.19" fill="rgb(225,201,188)" fill-opacity="0.502"/>
<circle cx="4112.00" cy="896.00" r="400.00" fill="rgb(217,185,112)" fill-opacity="0.502"/>
<polygon points="7022.85,544.36 7138.87,1141.19 5521.15,1455.64 5405.13,858.81" fill="rgb(66,151,121)" fill-opacity="0.502"/>
<circle cx="3760.00" cy="2752.00" r="96.00" fill="rgb(253,230,213)" fill-opacity="0.502"/>
<g transform="translate(5920.00 2416.00) rotate(108) scale(272.00 976.00)"><ellipse cx="0" cy="0" rx="1" ry="1" fill="rgb(0,0,0)" fill-opacity="0.502"/></g>
<polygon points="2980.06,2785.03 2741.08,2387.30 2987.94,2238.97 3226.92,2636.70" fill="rgb(255,151,127)" fill-opacity="0.502"/>
<circle cx="4384.00" cy="432.00" r="528.00" fill="rgb(214,143,137)" fill-opacity="0.502"/>
<circle cx="1584.00" cy="1712.00" r="320.00" fill="rgb(54,56,64)" fill-opacity="0.502"/>
<circle cx="4784.00" cy="2560.00" r="256.00" fill="rgb(255,255,231)" fill-opacity="0.502"/>
<circle cx="2032.00" cy="4544.00" r="2112.00" fill="rgb(0,0,11)" fill-opacity="0.502"/>
<g transform="translate(16.00 1856.00) rotate(88) scale(5280.00 1152.00)"><ellipse cx="0" cy="0" rx="1" ry="1" fill="rgb(0,0,0)" fill-opacity="0.502"/></g>
<circle cx="5936.00" cy="3040.00" r="400.00" fill="rgb(0,0,20)" fill-opacity="0.502"/>
<circle cx="5536.00" cy="272.00" r="720.00" fill="rgb(171,219,175)" fill-opacity="0.502"/>
<circle cx="6672.00" cy="2448.00" r="96.00" fill="rgb(240,255,230)" fill-opacity="0.502"/>
<polygon points="3407.80,2177.64 3512.65,2104.23 3696.20,2366.36 3591.35,2439.77" fill="rgb(210,187,178)" fill-opacity="0.502"/>
<g transform="translate(6816.00 1856.00) rotate(140) scale(368.00 208.00)"><ellipse cx="0" cy="0" rx="1" ry="1" fill="rgb(71,76,54)" fill-opacity="0.502"/></g>
<polygon points="1133.52,774.92 1200.21,705.87 1522.48,1017.08 1455.79,1086.13" fill="rgb(176,134,121)" fill-opacity="0.502"/>
<circle cx="4016.00" cy="1792.00" r="208.00" fill="rgb(204,209,169)" fill-opacity="0.502"/>
<g transform="translate(5840.00 1264.00) rotate(260) scale(96.00 624.00)"><ellipse cx="0" cy="0" rx="1" ry="1" fill="rgb(66,132,104)" fill-opacity="0.502"/></g>
<circle cx="3536.00" cy="112.00" r="368.00" fill="rgb(113,61,51)" fill-opacity="0.502"/>
<g transform="translate(2880.00 2304.00) rotate(33) scale(128.00 304.00)"><ellipse cx="0" cy="0" rx="1" ry="1" fill="rgb(156,76,62)" fill-opacity="0.502"/></g>
<circle cx="2320.00" cy="384.00" r="592.00" fill="rgb(0,0,17)" fill-opacity="0.502"/>
<g transform="translate(3296.00 512.00) rotate(356) scale(448.00 288.00)"><ellipse cx="0" cy="0" rx="1" ry="1" fill="rgb(141,109,91)" fill-opacity="0.502"/></g>
<polygon points="6153.40,1940.57 5773.36,2109.78 5558.60,1627.43 5938.64,1458.22" fill="rgb(242,238,191)" fill-opacity="0.502"/>
<polygon points="6670.34,1387.72 6740.42,945.24 6961.66,980.28 6891.58,1422.76" fill="rgb(0,59,61)" fill-opacity="0.502"/>
<polygon points="5199.60,-33.30 5369.30,136.40 5120.40,385.30 4950.70,215.60" fill="rgb(105,143,112)" fill-opacity="0.502"/>
<polygon points="3120.21,1462.97 3136.96,1223.55 3615.79,1257.03 3599.04,1496.45" fill="rgb(0,0,0)" fill-opacity="0.502"/>
<g transform="translate(5664.00 2400.00) rotate(191) scale(432.00 160.00)"><ellipse cx="0" cy="0" rx="1" ry="1" fill="rgb(0,0,0)" fill-opacity="0.502"/></g>
<circle cx="7504.00" cy="432.00" r="432.00" fill="rgb(0,0,0)" fill-opacity="0.502"/>
<g transform="translate(5680.00 480.00) rotate(341) scale(576.00 208.00)"><ellipse cx="0" cy="0" rx="1" ry="1" fill="rgb(207,240,187)" fill-opacity="0.502"/></g>
<circle cx="4560.00" cy="3264.00" r="496.00" fill="rgb(0,0,12)" fill-opacity="0.502"/>
<g transform="translate(6656.00 2848.00) rotate(189) scale(448.00 336.00)"><ellipse cx="0" cy="0" rx="1" ry="1" fill="rgb(35,7,20)" fill-opacity="0.502"/></g>
<g transform="translate(7616.00 1552.00) rotate(178) scale(528.00 2416.00)"><ellipse cx="0" cy="0" rx="1" ry="1" fill="rgb(0,0,0)" fill-opacity="0.502"/></g>
<circle cx="6000.00" cy="3904.00" r="1168.00" fill="rgb(0,0,21)" fill-opacity="0.502"/>
<polygon points="6864.98,653.04 6597.33,355.78 6847.02,130.96 7114.67,428.22" fill="rgb(95,182,146)" fill-opacity="0.502"/>
<circle cx="4240.00" cy="3312.00" r="560.00" fill="rgb(0,0,15)" fill-opacity="0.502"/>
<circle cx="3168.00" cy="1056.00" r="256.00" fill="rgb(0,78,28)" fill-opacity="0.502"/>
<circle cx="2240.00" cy="3696.00" r="1184.00" fill="rgb(0,0,21)" fill-opacity="0.502"/>
<circle cx="3568.00" cy="1104.00" r="160.00" fill="rgb(67,143,38)" fill-opacity="0.502"/>
<polygon points="6935.24,340.50 6886.74,801.96 6520.76,763.50 6569.26,302.04" fill="rgb(154,210,164)" fill-opacity="0.502"/>
<circle cx="4640.00" cy="992.00" r="336.00" fill="rgb(195,191,109)" fill-opacity="0.502"/>
<circle cx="3728.00" cy="3344.00" r="528.00" fill="rgb(0,0,17)" fill-opacity="0.502"/>
<circle cx="4560.00" cy="3984.00" r="1216.00" fill="rgb(0,0,18)" fill-opacity="0.502"/>
<circle cx="8048.00" cy="352.00" r="976.00" fill="rgb(0,0,0)" fill-opacity="0.502"/>
<polygon points="6429.32,2273.77 6553.77,2149.32 6802.68,2398.23 6678.23,2522.68" fill="rgb(202,244,199)" fill-opacity="0.502"/>
<polygon points="4140.83,1653.45 2909.58,1610.45 2915.17,1450.55 4146.42,1493.55" fill="rgb(178,141,137)" fill-opacity="0.502"/>
<circle cx="0.00" cy="3408.00" r="1216.00" fill="rgb(0,0,0)" fill-opacity="0.502"/>
<polygon points="6415.81,23.29 6534.89,438.56 6304.19,504.71 6185.11,89.44" fill="rgb(79,161,125)" fill-opacity="0.502"/>
<polygon points="3632.71,2717.81 3576.28,2795.47 3343.29,2626.19 3399.72,2548.53" fill="rgb(0,0,0)" fill-opacity="0.502"/>
<polygon points="2575.35,2335.70 2813.56,2306.45 2848.65,2592.30 2610.44,2621.55" fill="rgb(119,44,35)" fill-opacity="0.502"/>
<polygon points="7103.58,2700.66 6927.69,2706.80 6896.42,1811.34 7072.31,1805.20" fill="rgb(61,45,36)" fill-opacity="0.502"/>
<circle cx="5440.00" cy="992.00" r="304.00" fill="rgb(163,210,165)" fill-opacity="0.502"/>
<g transform="translate(4400.00 768.00) rotate(342) scale(208.00 208.00)"><ellipse cx="0" cy="0" rx="1" ry="1" fill="rgb(214,177,160)" fill-opacity="0.502"/></g>
<g transform="translate(6944.00 48.00) rotate(264) scale(144.00 464.00)"><ellipse cx="0" cy="0" rx="1" ry="1" fill="rgb(0,16,37)" fill-opacity="0.502"/></g>
<polygon points="3885.05,2236.42 4037.81,2072.60 4306.95,2323.58 4154.19,2487.40" fill="rgb(213,215,182)" fill-opacity="0.502"/>
<circle cx="4512.00" cy="2592.00" r="192.00" fill="rgb(251,255,220)" fill-opacity="0.502"/>
<g transform="translate(2208.00 1392.00) rotate(213) scale(800.00 576.00)"><ellipse cx="0" cy="0" rx="1" ry="1" fill="rgb(0,0,22)" fill-opacity="0.502"/></g>
<g transform="translate(3312.00 2576.00) rotate(330) scale(80.00 672.00)"><ellipse cx="0" cy="0" rx="1" ry="1" fill="rgb(8,0,8)" fill-opacity="0.502"/></g>
<circle cx="1696.00" cy="1840.00" r="160.00" fill="rgb(67,80,61)" fill-opacity="0.502"/>
<g transform="translate(5536.00 16.00) rotate(196) scale(352.00 192.00)"><ellipse cx="0" cy="0" rx="1" ry="1" fill="rgb(116,174,140)" fill-opacity="0.502"/></g>
<circle cx="5664.00" cy="2352.00" r="272.00" fill="rgb(0,0,7)" fill-opacity="0.502"/>
<circle cx="6368.00" cy="2224.00" r="64.00" fill="rgb(255,255,255)" fill-opacity="0.502"/>
<circle cx="496.00" cy="1456.00" r="880.00" fill="rgb(0,0,0)" fill-opacity="0.502"/>
<polygon points="2880.00,1872.00 3584.00,1872.00 3584.00,1984.00 2880.00,1984.00" fill="rgb(161,188,151)" fill-opacity="0.502"/>
<g transform="translate(3024.00 1040.00) rotate(20) scale(384.00 160.00)"><ellipse cx="0" cy="0" rx="1" ry="1" fill="rgb(16,70,39)" fill-opacity="0.502"/></g>
<g transform="translate(2320.00 0.00) rotate(157) scale(1728.00 384.00)"><ellipse cx="0" cy="0" rx="1" ry="1" fill="rgb(0,0,14)" fill-opacity="0.502"/></g>
<g transform="translate(4176.00 1392.00) rotate(182) scale(880.00 96.00)"><ellipse cx="0" cy="0" rx="1" ry="1" fill="rgb(0,0,0)" fill-opacity="0.502"/></g>
<polygon points="4823.04,1474.72 4918.94,1237.36 5096.96,1309.28 5001.06,1546.64" fill="rgb(57,0,1)" fill-opacity="0.502"/>
<g transform="translate(5376.00 1824.00) rotate(19) scale(832.00 144.00)"><ellipse cx="0" cy="0" rx="1" ry="1" fill="rgb(233,243,191)" fill-opacity="0.502"/></g>
<polygon points="6431.52,1674.85 6449.38,1419.48 6816.48,1445.15 6798.62,1700.52" fill="rgb(212,193,163)" fill-opacity="0.502"/>
<g transform="translate(6992.00 992.00) rotate(354) scale(80.00 496.00)"><ellipse cx="0" cy="0" rx="1" ry="1" fill="rgb(108,117,97)" fill-opacity="0.502"/></g>
<g transform="translate(4688.00 2080.00) rotate(86) scale(128.00 432.00)"><ellipse cx="0" cy="0" rx="1" ry="1" fill="rgb(55,0,0)" fill-opacity="0.502"/></g>
<polygon points="5185.64,2044.33 5949.54,2220.69 5870.36,2563.67 5106.46,2387.31" fill="rgb(0,0,11)" fill-opacity="0.502"/>
<polygon points="4009.49,1130.64 4159.72,848.10 4470.51,1013.36 4320.28,1295.90" fill="rgb(179,224,77)" fill-opacity="0.502"/>
<polygon points="3954.79,-40.66 4318.63,161.02 3853.21,1000.66 3489.37,798.98" fill="rgb(171,132,114)" fill-opacity="0.502"/>
<circle cx="6160.00" cy="1648.00" r="272.00" fill="rgb(214,183,157)" fill-opacity="0.502"/>
<circle cx="6768.00" cy="3200.00" r="352.00" fill="rgb(0,0,15)" fill-opacity="0.502"/>
<g transform="translate(3584.00 896.00) rotate(32) scale(640.00 80.00)"><ellipse cx="0" cy="0" rx="1" ry="1" fill="rgb(157,172,93)" fill-opacity="0.502"/></g>
<g transform="translate(4912.00 2128.00) rotate(132) scale(128.00 256.00)"><ellipse cx="0" cy="0" rx="1" ry="1" fill="rgb(42,0,0)" fill-opacity="0.502"/></g>
<polygon points="3640.33,2400.24 3312.24,2728.33 3255.67,2671.76 3583.76,2343.67" fill="rgb(7,0,5)" fill-opacity="0.502"/>
<circle cx="5120.00" cy="1488.00" r="112.00" fill="rgb(241,202,178)" fill-opacity="0.502"/>
<circle cx="1664.00" cy="2512.00" r="576.00" fill="rgb(0,0,20)" fill-opacity="0.502"/>
<polygon points="5106.89,2795.30 5117.77,2587.58 5597.11,2612.70 5586.23,2820.42" fill="rgb(255,255,251)" fill-opacity="0.502"/>
<circle cx="4768.00" cy="240.00" r="304.00" fill="rgb(199,169,140)" fill-opacity="0.502"/>
<g transform="translate(3264.00 224.00) rotate(256) scale(176.00 512.00)"><ellipse cx="0" cy="0" rx="1" ry="1" fill="rgb(71,57,47)" fill-opacity="0.502"/></g>
<polygon points="6535.14,2165.14 6446.22,2257.21 6008.86,1834.86 6097.78,1742.79" fill="rgb(179,220,168)" fill-opacity="0.502"/>
<polygon points="4633.07,2033.24 3983.97,1859.31 4070.93,1534.76 4720.03,1708.69" fill="rgb(212,219,172)" fill-opacity="0.502"/>
<g transform="translate(5936.00 496.00) rotate(267) scale(304.00 48.00)"><ellipse cx="0" cy="0" rx="1" ry="1" fill="rgb(111,158,107)" fill-opacity="0.502"/></g>
<polygon points="5018.40,2591.88 5068.72,2390.06 5301.60,2448.12 5251.28,2649.94" fill="rgb(255,255,239)" fill-opacity="0.502"/>
<circle cx="4080.00" cy="1584.00" r="96.00" fill="rgb(216,191,179)" fill-opacity="0.502"/>
<g transform="translate(3904.00 2400.00) rotate(333) scale(112.00 448.00)"><ellipse cx="0" cy="0" rx="1" ry="1" fill="rgb(0,0,0)" fill-opacity="0.502"/></g>
<polygon points="4264.18,2611.85 4502.87,2636.94 4487.82,2780.15 4249.13,2755.06" fill="rgb(255,255,224)" fill-opacity="0.502"/>
<circle cx="6224.00" cy="2528.00" r="288.00" fill="rgb(26,13,22)" fill-opacity="0.502"/>
<polygon points="5157.94,1454.71 5714.87,1396.18 5770.06,1921.29 5213.13,1979.82" fill="rgb(225,216,174)" fill-opacity="0.502"/>
<circle cx="6480.00" cy="1264.00" r="128.00" fill="rgb(6,78,75)" fill-opacity="0.502"/>
<polygon points="1666.08,1393.83 1661.89,1633.80 1453.92,1630.17 1458.11,1390.20" fill="rgb(0,0,7)" fill-opacity="0.502"/>
<polygon points="3250.10,2788.05 3101.75,2847.99 2957.90,2491.95 3106.25,2432.01" fill="rgb(198,134,124)" fill-opacity="0.502"/>
<g transform="translate(7840.00 2176.00) rotate(294) scale(784.00 752.00)"><ellipse cx="0" cy="0" rx="1" ry="1" fill="rgb(0,0,0)" fill-opacity="0.502"/></g>
<g transform="translate(1616.00 240.00) rotate(169) scale(464.00 896.00)"><ellipse cx="0" cy="0" rx="1" ry="1" fill="rgb(0,0,17)" fill-opacity="0.502"/></g>
<g transform="translate(5024.00 896.00) rotate(70) scale(272.00 112.00)"><ellipse cx="0" cy="0" rx="1" ry="1" fill="rgb(114,157,123)" fill-opacity="0.502"/></g>
<polygon points="6795.50,849.37 6933.04,525.36 7124.50,606.63 6986.96,930.64" fill="rgb(19,75,63)" fill-opacity="0.502"/>
<polygon points="5777.28,2790.51 5609.28,3081.49 5470.72,3001.49 5638.72,2710.51" fill="rgb(16,18,25)" fill-opacity="0.502"/>
<polygon points="4729.32,1069.99 4742.72,302.10 4966.68,306.01 4953.28,1073.90" fill="rgb(203,176,154)" fill-opacity="0.502"/>
<polygon points="4022.78,2116.36 4025.29,1972.38 4441.22,1979.64 4438.71,2123.62" fill="rgb(13,0,0)" fill-opacity="0.502"/>
<polygon points="3946.02,2219.87 3942.11,2107.94 4165.98,2100.13 4169.89,2212.06" fill="rgb(245,235,205)" fill-opacity="0.502"/>
<circle cx="4864.00" cy="1808.00" r="144.00" fill="rgb(230,241,184)" fill-opacity="0.502"/>
<polygon points="2784.00,752.00 3056.00,752.00 3056.00,880.00 2784.00,880.00" fill="rgb(104,143,98)" fill-opacity="0.502"/>
<g transform="translate(2400.00 2048.00) rotate(227) scale(384.00 624.00)"><ellipse cx="0" cy="0" rx="1" ry="1" fill="rgb(2,0,19)" fill-opacity="0.502"/></g>
<g transform="translate(6048.00 1136.00) rotate(19) scale(192.00 272.00)"><ellipse cx="0" cy="0" rx="1" ry="1" fill="rgb(73,140,109)" fill-opacity="0.502"/></g>
<circle cx="6656.00" cy="1024.00" r="128.00" fill="rgb(102,175,143)" fill-opacity="0.502"/>
<circle cx="6928.00" cy="464.00" r="80.00" fill="rgb(4,62,35)" fill-opacity="0.502"/>
<g transform="translate(528.00 144.00) rotate(86) scale(1136.00 640.00)"><ellipse cx="0" cy="0" rx="1" ry="1" fill="rgb(0,0,0)" fill-opacity="0.502"/></g>
<circle cx="4464.00" cy="1088.00" r="224.00" fill="rgb(193,217,98)" fill-opacity="0.502"/>
<circle cx="7952.00" cy="3920.00" r="1008.00" fill="rgb(0,0,0)" fill-opacity="0.502"/>
<circle cx="1328.00" cy="1792.00" r="208.00" fill="rgb(35,36,51)" fill-opacity="0.502"/>
<g transform="translate(5504.00 3984.00) rotate(360) scale(1248.00 96.00)"><ellipse cx="0" cy="0" rx="1" ry="1" fill="rgb(14,12,26)" fill-opacity="0.502"/></g>
<polygon points="5556.84,2366.36 5767.92,2064.92 6043.16,2257.64 5832.08,2559.08" fill="rgb(0,0,12)" fill-opacity="0.502"/>
<polygon points="4386.73,2507.82 4578.45,2212.61 5021.27,2500.18 4829.55,2795.39" fill="rgb(239,255,214)" fill-opacity="0.502"/>
<polygon points="6915.83,1929.09 6788.53,1942.47 6780.17,1862.91 6907.47,1849.53" fill="rgb(199,241,196)" fill-opacity="0.502"/>
<polygon points="7000.00,1336.00 7000.00,984.00 7080.00,984.00 7080.00,1336.00" fill="rgb(190,169,146)" fill-opacity="0.502"/>
<polygon points="3588.85,1983.45 3612.55,1712.48 3979.15,1744.55 3955.45,2015.52" fill="rgb(181,205,158)" fill-opacity="0.502"/>
<g transform="translate(4656.00 816.00) rotate(80) scale(272.00 96.00)"><ellipse cx="0" cy="0" rx="1" ry="1" fill="rgb(177,138,118)" fill-opacity="0.502"/></g>
<polygon points="3841.07,3000.71 3697.07,2751.29 3710.93,2743.29 3854.93,2992.71" fill="rgb(0,0,0)" fill-opacity="0.502"/>
<polygon points="5483.10,2702.78 5023.62,2767.35 4996.90,2577.22 5456.38,2512.65" fill="rgb(246,255,220)" fill-opacity="0.502"/>
<polygon points="1295.71,1349.95 1022.79,1035.99 1264.29,826.05 1537.21,1140.01" fill="rgb(4,1,19)" fill-opacity="0.502"/>
<circle cx="2512.00" cy="2464.00" r="144.00" fill="rgb(44,20,23)" fill-opacity="0.502"/>
<g transform="translate(7008.00 592.00) rotate(94) scale(320.00 80.00)"><ellipse cx="0" cy="0" rx="1" ry="1" fill="rgb(51,81,73)" fill-opacity="0.502"/></g>
<polygon points="5712.76,2500.56 6368.36,2523.46 6367.24,2555.44 5711.64,2532.54" fill="rgb(134,131,143)" fill-opacity="0.502"/>
<polygon points="2915.15,659.19 2764.68,866.30 2492.85,668.81 2643.32,461.70" fill="rgb(6,29,19)" fill-opacity="0.502"/>
<polygon points="5098.46,656.67 5044.27,439.32 5525.54,319.33 5579.73,536.68" fill="rgb(192,197,150)" fill-opacity="0.502"/>
<g transform="translate(5728.00 1216.00) rotate(160) scale(240.00 272.00)"><ellipse cx="0" cy="0" rx="1" ry="1" fill="rgb(121,163,127)" fill-opacity="0.502"/></g>
<polygon points="4598.44,2739.74 4374.58,2731.93 4393.56,2188.26 4617.42,2196.07" fill="rgb(238,255,212)" fill-opacity="0.502"/>
<circle cx="3024.00" cy="1584.00" r="144.00" fill="rgb(86,73,60)" fill-opacity="0.502"/>
<circle cx="6592.00" cy="1968.00" r="160.00" fill="rgb(99,75,58)" fill-opacity="0.502"/>
<circle cx="6656.00" cy="2688.00" r="176.00" fill="rgb(80,29,15)" fill-opacity="0.502"/>
<polygon points="6210.98,939.48 6189.21,524.05 6333.02,516.52 6354.79,931.95" fill="rgb(145,193,147)" fill-opacity="0.502"/>
<circle cx="5856.00" cy="2352.00" r="240.00" fill="rgb(0,0,9)" fill-opacity="0.502"/>
<circle cx="4336.00" cy="672.00" r="320.00" fill="rgb(209,173,150)" fill-opacity="0.502"/>
<g transform="translate(3440.00 2096.00) rotate(184) scale(464.00 96.00)"><ellipse cx="0" cy="0" rx="1" ry="1" fill="rgb(31,0,1)" fill-opacity="0.502"/></g>
<polygon points="2958.36,1702.90 2868.15,1735.73 2769.64,1465.10 2859.85,1432.27" fill="rgb(8,5,22)" fill-opacity="0.502"/>
<circle cx="6592.00" cy="1856.00" r="48.00" fill="rgb(146,219,175)" fill-opacity="0.502"/>
<g transform="translate(4832.00 1664.00) rotate(182) scale(464.00 144.00)"><ellipse cx="0" cy="0" rx="1" ry="1" fill="rgb(236,216,185)" fill-opacity="0.502"/></g>
<circle cx="528.00" cy="4288.00" r="640.00" fill="rgb(0,0,0)" fill-opacity="0.502"/>
<g transform="translate(3536.00 2672.00) rotate(246) scale(240.00 48.00)"><ellipse cx="0" cy="0" rx="1" ry="1" fill="rgb(38,20,24)" fill-opacity="0.502"/></g>
<polygon points="6832.82,1969.72 7091.51,2053.77 6943.18,2510.28 6684.49,2426.23" fill="rgb(117,109,98)" fill-opacity="0.502"/>
<circle cx="6336.00" cy="2400.00" r="112.00" fill="rgb(0,0,0)" fill-opacity="0.502"/>
<polygon points="5299.09,2649.25 5414.19,2538.11 5580.91,2710.75 5465.81,2821.89" fill="rgb(241,255,218)" fill-opacity="0.502"/>
<polygon points="5472.00,832.00 5136.00,832.00 5136.00,752.00 5472.00,752.00" fill="rgb(211,252,210)" fill-opacity="0.502"/>
<circle cx="4000.00" cy="1056.00" r="240.00" fill="rgb(171,186,109)" fill-opacity="0.502"/>
<circle cx="3776.00" cy="2784.00" r="48.00" fill="rgb(241,233,216)" fill-opacity="0.502"/>
<circle cx="3344.00" cy="2512.00" r="192.00" fill="rgb(25,9,16)" fill-opacity="0.502"/>
<circle cx="2992.00" cy="192.00" r="128.00" fill="rgb(33,24,27)" fill-opacity="0.502"/>
<polygon points="6582.72,663.48 6654.71,577.68 6777.28,680.52 6705.29,766.32" fill="rgb(184,238,208)" fill-opacity="0.502"/>
<g transform="translate(5312.00 1728.00) rotate(328) scale(416.00 96.00)"><ellipse cx="0" cy="0" rx="1" ry="1" fill="rgb(230,229,185)" fill-opacity="0.502"/></g>
<circle cx="7616.00" cy="96.00" r="576.00" fill="rgb(0,0,0)" fill-opacity="0.502"/>
<circle cx="5088.00" cy="1328.00" r="80.00" fill="rgb(80,63,26)" fill-opacity="0.502"/>
<circle cx="1792.00" cy="4032.00" r="768.00" fill="rgb(0,0,17)" fill-opacity="0.502"/>
<circle cx="4736.00" cy="2192.00" r="112.00" fill="rgb(93,19,8)" fill-opacity="0.502"/>
<g transform="translate(6656.00 2624.00) rotate(98) scale(96.00 352.00)"><ellipse cx="0" cy="0" rx="1" ry="1" fill="rgb(67,23,13)" fill-opacity="0.502"/></g>
<g transform="translate(5808.00 1616.00) rotate(15) scale(752.00 144.00)"><ellipse cx="0" cy="0" rx="1" ry="1" fill="rgb(226,199,173)" fill-opacity="0.502"/></g>
<g transform="translate(3280.00 1792.00) rotate(67) scale(128.00 400.00)"><ellipse cx="0" cy="0" rx="1" ry="1" fill="rgb(147,152,115)" fill-opacity="0.502"/></g>
<circle cx="3760.00" cy="1568.00" r="80.00" fill="rgb(196,175,163)" fill-opacity="0.502"/>
<circle cx="1344.00" cy="864.00" r="48.00" fill="rgb(254,206,179)" fill-opacity="0.502"/>
<polygon points="3413.39,1747.10 2967.09,1708.05 2986.61,1484.90 3432.91,1523.95" fill="rgb(118,100,80)" fill-opacity="0.502"/>
<g transform="translate(5168.00 3376.00) rotate(209) scale(464.00 608.00)"><ellipse cx="0" cy="0" rx="1" ry="1" fill="rgb(0,0,15)" fill-opacity="0.502"/></g>
<polygon points="7037.88,1067.23 6716.70,1423.94 6562.12,1284.77 6883.30,928.06" fill="rgb(26,91,85)" fill-opacity="0.502"/>
<g transform="translate(4864.00 80.00) rotate(233) scale(144.00 288.00)"><ellipse cx="0" cy="0" rx="1" ry="1" fill="rgb(161,159,128)" fill-opacity="0.502"/></g>
<g transform="translate(7312.00 2528.00) rotate(89) scale(4848.00 208.00)"><ellipse cx="0" cy="0" rx="1" ry="1" fill="rgb(0,0,0)" fill-opacity="0.502"/></g>
<g transform="translate(5376.00 1040.00) rotate(269) scale(240.00 240.00)"><ellipse cx="0" cy="0" rx="1" ry="1" fill="rgb(162,205,159)" fill-opacity="0.502"/></g>
<polygon points="4515.76,4357.76 2823.57,4779.67 2444.24,3258.24 4136.43,2836.33" fill="rgb(0,0,16)" fill-opacity="0.502"/>
<g transform="translate(6128.00 0.00) rotate(161) scale(288.00 208.00)"><ellipse cx="0" cy="0" rx="1" ry="1" fill="rgb(153,196,148)" fill-opacity="0.502"/></g>
<polygon points="5207.19,147.38 5301.62,332.71 5144.81,412.62 5050.38,227.29" fill="rgb(111,151,113)" fill-opacity="0.502"/>
<circle cx="6384.00" cy="1568.00" r="160.00" fill="rgb(192,160,138)" fill-opacity="0.502"/>
<circle cx="4304.00" cy="2400.00" r="240.00" fill="rgb(214,239,193)" fill-opacity="0.502"/>
<circle cx="5728.00" cy="320.00" r="112.00" fill="rgb(245,255,235)" fill-opacity="0.502"/>
<g transform="translate(6352.00 464.00) rotate(12) scale(96.00 64.00)"><ellipse cx="0" cy="0" rx="1" ry="1" fill="rgb(13,83,43)" fill-opacity="0.502"/></g>
<polygon points="5697.96,2686.81 5690.76,2717.99 5566.04,2689.19 5573.24,2658.01" fill="rgb(255,255,255)" fill-opacity="0.502"/>
<polygon points="4660.98,737.38 5095.19,466.07 5163.02,574.62 4728.81,845.93" fill="rgb(190,184,151)" fill-opacity="0.502"/>
<g transform="translate(7232.00 112.00) rotate(146) scale(384.00 64.00)"><ellipse cx="0" cy="0" rx="1" ry="1" fill="rgb(0,8,13)" fill-opacity="0.502"/></g>
<circle cx="3408.00" cy="1392.00" r="112.00" fill="rgb(2,0,0)" fill-opacity="0.502"/>
<circle cx="3440.00" cy="3040.00" r="272.00" fill="rgb(0,0,18)" fill-opacity="0.502"/>
<g transform="translate(6352.00 3088.00) rotate(162) scale(288.00 384.00)"><ellipse cx="0" cy="0" rx="1" ry="1" fill="rgb(0,0,14)" fill-opacity="0.502"/></g>
<polygon points="3591.86,2627.79 3740.21,2567.86 3800.14,2716.21 3651.79,2776.14" fill="rgb(194,182,170)" fill-opacity="0.502"/>
<circle cx="6800.00" cy="112.00" r="224.00" fill="rgb(19,52,69)" fill-opacity="0.502"/>
<polygon points="5277.36,2201.82 5116.77,2380.18 4914.64,2198.18 5075.23,2019.82" fill="rgb(39,6,5)" fill-opacity="0.502"/>
<g transform="translate(5280.00 1808.00) rotate(121) scale(112.00 368.00)"><ellipse cx="0" cy="0" rx="1" ry="1" fill="rgb(218,234,183)" fill-opacity="0.502"/></g>
<circle cx="4144.00" cy="0.00" r="288.00" fill="rgb(162,128,111)" fill-opacity="0.502"/>
<polygon points="7232.77,1724.42 7172.35,1799.03 6911.23,1587.58 6971.65,1512.97" fill="rgb(6,5,7)" fill-opacity="0.502"/>
<polygon points="6954.50,1420.06 7001.46,1430.04 6981.50,1523.94 6934.54,1513.96" fill="rgb(255,255,255)" fill-opacity="0.502"/>
<circle cx="4272.00" cy="1760.00" r="224.00" fill="rgb(199,198,166)" fill-opacity="0.502"/>
<circle cx="6272.00" cy="3360.00" r="576.00" fill="rgb(0,0,16)" fill-opacity="0.502"/>
<polygon points="4786.49,2316.87 4805.20,2255.67 4973.51,2307.13 4954.80,2368.33" fill="rgb(89,0,0)" fill-opacity="0.502"/>
<circle cx="5632.00" cy="2768.00" r="32.00" fill="rgb(0,0,0)" fill-opacity="0.502"/>
<circle cx="6432.00" cy="944.00" r="224.00" fill="rgb(85,155,120)" fill-opacity="0.502"/>
<polygon points="6208.00,560.00 6800.00,560.00 6800.00,736.00 6208.00,736.00" fill="rgb(161,209,165)" fill-opacity="0.502"/>
<g transform="translate(4800.00 4352.00) rotate(273) scale(352.00 2384.00)"><ellipse cx="0" cy="0" rx="1" ry="1" fill="rgb(0,0,16)" fill-opacity="0.502"/></g>
<polygon points="4996.41,679.36 5154.85,701.63 5083.59,1208.64 4925.15,1186.37" fill="rgb(120,164,124)" fill-opacity="0.502"/>
<circle cx="2704.00" cy="1120.00" r="160.00" fill="rgb(7,13,19)" fill-opacity="0.502"/>
<g transform="translate(3056.00 3136.00) rotate(87) scale(320.00 976.00)"><ellipse cx="0" cy="0" rx="1" ry="1" fill="rgb(0,0,15)" fill-opacity="0.502"/></g>
<g transform="translate(4096.00 768.00) rotate(331) scale(304.00 160.00)"><ellipse cx="0" cy="0" rx="1" ry="1" fill="rgb(196,166,144)" fill-opacity="0.502"/></g>
<polygon points="5616.47,699.55 5599.72,379.99 5743.53,372.45 5760.28,692.01" fill="rgb(225,254,201)" fill-opacity="0.502"/>
<circle cx="3136.00" cy="2752.00" r="64.00" fill="rgb(170,106,100)" fill-opacity="0.502"/>
<g transform="translate(1056.00 1856.00) rotate(109) scale(960.00 224.00)"><ellipse cx="0" cy="0" rx="1" ry="1" fill="rgb(0,0,8)" fill-opacity="0.502"/></g>
<polygon points="6873.80,320.97 6869.89,432.90 6358.20,415.03 6362.11,303.10" fill="rgb(181,239,202)" fill-opacity="0.502"/>
<circle cx="2016.00" cy="480.00" r="736.00" fill="rgb(0,0,16)" fill-opacity="0.502"/>
<polygon points="4616.91,326.60 4425.11,801.32 4247.09,729.40 4438.89,254.68" fill="rgb(216,181,156)" fill-opacity="0.502"/>
<g transform="translate(3840.00 1824.00) rotate(305) scale(208.00 144.00)"><ellipse cx="0" cy="0" rx="1" ry="1" fill="rgb(176,180,142)" fill-opacity="0.502"/></g>
<circle cx="7984.00" cy="1856.00" r="896.00" fill="rgb(0,0,0)" fill-opacity="0.502"/>
<polygon points="5225.02,2140.14 5434.72,1993.31 5654.98,2307.86 5445.28,2454.69" fill="rgb(0,0,13)" fill-opacity="0.502"/>
<polygon points="3563.26,237.36 3556.56,429.25 3252.74,418.64 3259.44,226.75" fill="rgb(124,95,77)" fill-opacity="0.502"/>
<polygon points="1088.00,1952.00 2416.00,1952.00 2416.00,3680.00 1088.00,3680.00" fill="rgb(2,0,17)" fill-opacity="0.502"/>
<g transform="translate(3216.00 1360.00) rotate(50) scale(128.00 128.00)"><ellipse cx="0" cy="0" rx="1" ry="1" fill="rgb(8,0,0)" fill-opacity="0.502"/></g>
<circle cx="7776.00" cy="1024.00" r="688.00" fill="rgb(0,0,0)" fill-opacity="0.502"/>
<polygon points="4456.92,3956.33 4471.94,3928.07 4599.08,3995.67 4584.06,4023.93" fill="rgb(58,58,69)" fill-opacity="0.502"/>
<circle cx="288.00" cy="592.00" r="816.00" fill="rgb(0,0,0)" fill-opacity="0.502"/>
<circle cx="5920.00" cy="816.00" r="128.00" fill="rgb(127,178,137)" fill-opacity="0.502"/>
<circle cx="4464.00" cy="3840.00" r="16.00" fill="rgb(148,155,151)" fill-opacity="0.502"/>
<polygon points="6665.62,2442.12 6241.80,2216.77 6294.38,2117.88 6718.20,2343.23" fill="rgb(209,238,198)" fill-opacity="0.502"/>
<circle cx="5904.00" cy="672.00" r="112.00" fill="rgb(171,219,176)" fill-opacity="0.502"/>
<polygon points="5359.61,192.81 5565.59,163.86 5632.39,639.19 5426.41,668.14" fill="rgb(177,209,149)" fill-opacity="0.502"/>
<polygon points="5905.33,2587.87 5198.97,2212.29 5326.67,1972.13 6033.03,2347.71" fill="rgb(1,0,14)" fill-opacity="0.502"/>
<polygon points="3165.67,859.82 3235.39,752.47 3906.33,1188.18 3836.61,1295.53" fill="rgb(64,126,39)" fill-opacity="0.502"/>
<polygon points="3211.80,2847.43 3237.15,2640.98 3364.20,2656.57 3338.85,2863.02" fill="rgb(24,13,40)" fill-opacity="0.502"/>
<polygon points="3827.23,304.80 3986.28,825.03 3756.77,895.20 3597.72,374.97" fill="rgb(166,136,118)" fill-opacity="0.502"/>
<circle cx="4800.00" cy="4384.00" r="512.00" fill="rgb(0,0,16)" fill-opacity="0.502"/>
<g transform="translate(4656.00 2992.00) rotate(212) scale(368.00 144.00)"><ellipse cx="0" cy="0" rx="1" ry="1" fill="rgb(0,2,15)" fill-opacity="0.502"/></g>
<circle cx="6448.00" cy="1952.00" r="64.00" fill="rgb(73,50,25)" fill-opacity="0.502"/>
<g transform="translate(7024.00 784.00) rotate(8) scale(48.00 304.00)"><ellipse cx="0" cy="0" rx="1" ry="1" fill="rgb(111,122,106)" fill-opacity="0.502"/></g>
<circle cx="2848.00" cy="496.00" r="128.00" fill="rgb(61,92,49)" fill-opacity="0.502"/>
<polygon points="1369.01,1300.90 1453.65,1417.39 1142.99,1643.10 1058.35,1526.61" fill="rgb(11,4,32)" fill-opacity="0.502"/>
<polygon points="1949.94,1209.98 2611.29,1020.34 2770.06,1574.02 2108.71,1763.66" fill="rgb(0,0,16)" fill-opacity="0.502"/>
<polygon points="6310.54,382.94 6274.75,436.00 6009.46,257.06 6045.25,204.00" fill="rgb(211,255,235)" fill-opacity="0.502"/>
<g transform="translate(3152.00 1328.00) rotate(347) scale(256.00 48.00)"><ellipse cx="0" cy="0" rx="1" ry="1" fill="rgb(2,0,6)" fill-opacity="0.502"/></g>
<polygon points="6396.86,1163.75 6303.09,1436.06 5955.14,1316.25 6048.91,1043.94" fill="rgb(57,122,105)" fill-opacity="0.502"/>
<circle cx="3568.00" cy="0.00" r="48.00" fill="rgb(163,131,112)" fill-opacity="0.502"/>
<circle cx="6144.00" cy="2288.00" r="80.00" fill="rgb(0,0,0)" fill-opacity="0.502"/>
<circle cx="6512.00" cy="224.00" r="96.00" fill="rgb(48,78,76)" fill-opacity="0.502"/>
<g transform="translate(5600.00 1296.00) rotate(345) scale(432.00 64.00)"><ellipse cx="0" cy="0" rx="1" ry="1" fill="rgb(103,161,121)" fill-opacity="0.502"/></g>
<polygon points="4586.13,1147.63 4047.82,993.27 4069.87,916.37 4608.18,1070.73" fill="rgb(213,240,102)" fill-opacity="0.502"/>
<g transform="translate(6688.00 1600.00) rotate(192) scale(96.00 80.00)"><ellipse cx="0" cy="0" rx="1" ry="1" fill="rgb(217,223,193)" fill-opacity="0.502"/></g>
<polygon points="6313.57,1839.36 6405.31,1600.36 6614.43,1680.64 6522.69,1919.64" fill="rgb(213,208,184)" fill-opacity="0.502"/>
<g transform="translate(6720.00 3168.00) rotate(148) scale(272.00 352.00)"><ellipse cx="0" cy="0" rx="1" ry="1" fill="rgb(0,0,17)" fill-opacity="0.502"/></g>
<polygon points="6234.43,2091.50 6143.81,2203.41 5621.57,1780.50 5712.19,1668.59" fill="rgb(220,248,198)" fill-opacity="0.502"/>
<circle cx="3872.00" cy="2064.00" r="64.00" fill="rgb(10,0,0)" fill-opacity="0.502"/>
<polygon points="2687.65,2314.11 2443.13,1977.56 2624.35,1845.89 2868.87,2182.44" fill="rgb(9,4,20)" fill-opacity="0.502"/>
<polygon points="6482.46,1751.58 6702.51,1591.70 6749.54,1656.42 6529.49,1816.30" fill="rgb(255,255,253)" fill-opacity="0.502"/>
<circle cx="4976.00" cy="1280.00" r="32.00" fill="rgb(4,0,0)" fill-opacity="0.502"/>
<polygon points="3616.65,1112.32 3482.95,1271.66 3311.35,1127.68 3445.05,968.34" fill="rgb(74,136,71)" fill-opacity="0.502"/>
<polygon points="4224.19,81.63 4157.90,621.57 3903.81,590.37 3970.10,50.43" fill="rgb(183,152,130)" fill-opacity="0.502"/>
<polygon points="4908.27,2724.17 4782.30,2579.27 5011.73,2379.83 5137.70,2524.73" fill="rgb(235,255,217)" fill-opacity="0.502"/>
<circle cx="4720.00" cy="2624.00" r="160.00" fill="rgb(235,255,213)" fill-opacity="0.502"/>
<g transform="translate(5456.00 672.00) rotate(90) scale(32.00 448.00)"><ellipse cx="0" cy="0" rx="1" ry="1" fill="rgb(204,250,209)" fill-opacity="0.502"/></g>
<polygon points="3600.58,4.71 3259.03,89.87 3247.42,43.29 3588.97,-41.87" fill="rgb(100,96,84)" fill-opacity="0.502"/>
<polygon points="3181.71,538.23 3870.33,391.86 3890.29,485.77 3201.67,632.14" fill="rgb(162,130,112)" fill-opacity="0.502"/>
<g transform="translate(5696.00 2512.00) rotate(17) scale(160.00 144.00)"><ellipse cx="0" cy="0" rx="1" ry="1" fill="rgb(0,0,12)" fill-opacity="0.502"/></g>
<g transform="translate(2720.00 1728.00) rotate(77) scale(240.00 224.00)"><ellipse cx="0" cy="0" rx="1" ry="1" fill="rgb(2,0,15)" fill-opacity="0.502"/></g>
<circle cx="6976.00" cy="1952.00" r="64.00" fill="rgb(0,0,0)" fill-opacity="0.502"/>
<polygon points="6871.59,1123.01 6710.49,1321.96 6536.41,1180.99 6697.51,982.04" fill="rgb(68,132,121)" fill-opacity="0.502"/>
<circle cx="1680.00" cy="2128.00" r="192.00" fill="rgb(20,12,13)" fill-opacity="0.502"/>
<circle cx="6592.00" cy="2176.00" r="112.00" fill="rgb(148,162,132)" fill-opacity="0.502"/>
<circle cx="5920.00" cy="2576.00" r="48.00" fill="rgb(146,145,156)" fill-opacity="0.502"/>
<polygon points="6752.11,2278.37 6723.16,2072.39 7055.89,2025.63 7084.84,2231.61" fill="rgb(109,97,89)" fill-opacity="0.502"/>
<polygon points="6995.46,849.86 6915.90,841.50 7004.54,-1.86 7084.10,6.50" fill="rgb(0,40,42)" fill-opacity="0.502"/>
<g transform="translate(5216.00 0.00) rotate(92) scale(112.00 224.00)"><ellipse cx="0" cy="0" rx="1" ry="1" fill="rgb(139,194,166)" fill-opacity="0.502"/></g>
<polygon points="6817.71,910.03 6602.39,971.77 6558.29,817.97 6773.61,756.23" fill="rgb(119,182,155)" fill-opacity="0.502"/>
<circle cx="4704.00" cy="1952.00" r="32.00" fill="rgb(0,0,0)" fill-opacity="0.502"/>
<polygon points="6402.32,399.44 6437.39,471.35 6221.68,576.56 6186.61,504.65" fill="rgb(55,105,69)" fill-opacity="0.502"/>
<circle cx="4768.00" cy="0.00" r="96.00" fill="rgb(202,190,157)" fill-opacity="0.502"/>
<g transform="translate(3216.00 576.00) rotate(249) scale(80.00 224.00)"><ellipse cx="0" cy="0" rx="1" ry="1" fill="rgb(145,116,98)" fill-opacity="0.502"/></g>
<circle cx="2976.00" cy="2256.00" r="48.00" fill="rgb(213,149,125)" fill-opacity="0.502"/>
<circle cx="3904.00" cy="224.00" r="128.00" fill="rgb(143,113,89)" fill-opacity="0.502"/>
<polygon points="7078.72,1621.50 7081.23,1765.48 6793.28,1770.50 6790.77,1626.52" fill="rgb(88,104,80)" fill-opacity="0.502"/>
<circle cx="3936.00" cy="1616.00" r="128.00" fill="rgb(197,169,152)" fill-opacity="0.502"/>
<polygon points="4704.00,2544.00 5424.00,2544.00 5424.00,2784.00 4704.00,2784.00" fill="rgb(236,255,216)" fill-opacity="0.502"/>
<polygon points="4719.84,2121.99 4968.86,1947.62 5088.16,2118.01 4839.14,2292.38" fill="rgb(54,20,16)" fill-opacity="0.502"/>
<circle cx="576.00" cy="2256.00" r="592.00" fill="rgb(0,0,0)" fill-opacity="0.502"/>
<polygon points="6850.43,1111.81 6806.85,1178.90 6605.57,1048.19 6649.15,981.10" fill="rgb(96,164,142)" fill-opacity="0.502"/>
<g transform="translate(3056.00 944.00) rotate(353) scale(256.00 96.00)"><ellipse cx="0" cy="0" rx="1" ry="1" fill="rgb(7,61,20)" fill-opacity="0.502"/></g>
<circle cx="4272.00" cy="2272.00" r="144.00" fill="rgb(229,242,206)" fill-opacity="0.502"/>
<polygon points="6094.22,1956.53 6016.30,2149.38 5793.78,2059.47 5871.70,1866.62" fill="rgb(236,251,220)" fill-opacity="0.502"/>
<circle cx="6160.00" cy="1440.00" r="80.00" fill="rgb(123,154,122)" fill-opacity="0.502"/>
<polygon points="5162.62,1832.11 6067.83,1720.96 6085.38,1863.89 5180.17,1975.04" fill="rgb(210,229,173)" fill-opacity="0.502"/>
<circle cx="5840.00" cy="2352.00" r="240.00" fill="rgb(0,0,12)" fill-opacity="0.502"/>
<g transform="translate(6592.00 0.00) rotate(16) scale(80.00 160.00)"><ellipse cx="0" cy="0" rx="1" ry="1" fill="rgb(0,61,61)" fill-opacity="0.502"/></g>
<polygon points="7003.64,1128.67 6996.38,712.73 7076.36,711.33 7083.62,1127.27" fill="rgb(137,131,112)" fill-opacity="0.502"/>
<g transform="translate(1648.00 1872.00) rotate(271) scale(80.00 240.00)"><ellipse cx="0" cy="0" rx="1" ry="1" fill="rgb(73,79,67)" fill-opacity="0.502"/></g>
<polygon points="3108.02,1214.80 3161.96,1081.28 3339.98,1153.20 3286.04,1286.72" fill="rgb(50,83,75)" fill-opacity="0.502"/>
<circle cx="7248.00" cy="3088.00" r="240.00" fill="rgb(0,0,0)" fill-opacity="0.502"/>
<circle cx="5296.00" cy="3248.00" r="448.00" fill="rgb(0,0,16)" fill-opacity="0.502"/>
<polygon points="5828.46,1790.05 5168.80,1661.83 5211.54,1441.95 5871.20,1570.17" fill="rgb(235,215,185)" fill-opacity="0.502"/>
<polygon points="4678.33,768.44 4828.56,1050.98 4729.67,1103.56 4579.44,821.02" fill="rgb(161,144,98)" fill-opacity="0.502"/>
<circle cx="1296.00" cy="864.00" r="96.00" fill="rgb(113,87,77)" fill-opacity="0.502"/>
<circle cx="3664.00" cy="1168.00" r="80.00" fill="rgb(20,56,12)" fill-opacity="0.502"/>
<circle cx="6896.00" cy="1472.00" r="64.00" fill="rgb(248,255,249)" fill-opacity="0.502"/>
<polygon points="3151.85,1939.52 3171.92,1748.57 3856.15,1820.48 3836.08,2011.43" fill="rgb(157,183,142)" fill-opacity="0.502"/>
<g transform="translate(3120.00 1344.00) rotate(185) scale(1328.00 112.00)"><ellipse cx="0" cy="0" rx="1" ry="1" fill="rgb(9,0,7)" fill-opacity="0.502"/></g>
<circle cx="8064.00" cy="4496.00" r="1040.00" fill="rgb(0,0,0)" fill-opacity="0.502"/>
<polygon points="6239.45,1854.88 6240.57,1790.89 6368.55,1793.12 6367.43,1857.11" fill="rgb(160,173,113)" fill-opacity="0.502"/>
<polygon points="3390.53,1997.81 3029.69,1866.47 3073.47,1746.19 3434.31,1877.53" fill="rgb(140,160,124)" fill-opacity="0.502"/>
<circle cx="2560.00" cy="2848.00" r="304.00" fill="rgb(3,0,15)" fill-opacity="0.502"/>
<g transform="translate(656.00 4080.00) rotate(182) scale(448.00 2048.00)"><ellipse cx="0" cy="0" rx="1" ry="1" fill="rgb(0,0,0)" fill-opacity="0.502"/></g>
<polygon points="3876.37,449.57 4121.19,524.41 4027.63,830.43 3782.81,755.59" fill="rgb(180,150,132)" fill-opacity="0.502"/>
<circle cx="6608.00" cy="464.00" r="80.00" fill="rgb(169,109,78)" fill-opacity="0.502"/>
<polygon points="2248.38,2361.45 2450.20,2411.77 2407.62,2582.55 2205.80,2532.23" fill="rgb(21,14,21)" fill-opacity="0.502"/>
<circle cx="6128.00" cy="2384.00" r="144.00" fill="rgb(0,0,11)" fill-opacity="0.502"/>
<polygon points="5512.81,2544.53 5496.06,2224.97 6135.19,2191.47 6151.94,2511.03" fill="rgb(1,0,15)" fill-opacity="0.502"/>
<circle cx="5648.00" cy="3888.00" r="112.00" fill="rgb(23,16,25)" fill-opacity="0.502"/>
<polygon points="4715.79,309.69 4938.31,219.79 5028.21,442.31 4805.69,532.21" fill="rgb(216,198,164)" fill-opacity="0.502"/>
<circle cx="1184.00" cy="1776.00" r="96.00" fill="rgb(13,25,43)" fill-opacity="0.502"/>
<g transform="translate(5968.00 2784.00) rotate(359) scale(384.00 112.00)"><ellipse cx="0" cy="0" rx="1" ry="1" fill="rgb(20,14,15)" fill-opacity="0.502"/></g>
<g transform="translate(2704.00 832.00) rotate(357) scale(96.00 576.00)"><ellipse cx="0" cy="0" rx="1" ry="1" fill="rgb(12,23,22)" fill-opacity="0.502"/></g>
<polygon points="6018.25,207.40 6223.09,243.52 6189.75,432.60 5984.91,396.48" fill="rgb(227,255,231)" fill-opacity="0.502"/>
<polygon points="1039.64,1203.68 1511.36,1050.41 1600.36,1324.32 1128.64,1477.59" fill="rgb(4,4,22)" fill-opacity="0.502"/>
<g transform="translate(4688.00 2528.00) rotate(266) scale(176.00 464.00)"><ellipse cx="0" cy="0" rx="1" ry="1" fill="rgb(231,253,210)" fill-opacity="0.502"/></g>
<circle cx="2848.00" cy="2624.00" r="96.00" fill="rgb(87,31,23)" fill-opacity="0.502"/>
<polygon points="5817.69,1071.30 5772.62,986.54 6182.31,768.70 6227.38,853.46" fill="rgb(93,150,108)" fill-opacity="0.502"/>
<circle cx="4672.00" cy="1136.00" r="176.00" fill="rgb(168,207,106)" fill-opacity="0.502"/>
<g transform="translate(912.00 832.00) rotate(250) scale(496.00 192.00)"><ellipse cx="0" cy="0" rx="1" ry="1" fill="rgb(0,0,0)" fill-opacity="0.502"/></g>
<g transform="translate(656.00 1552.00) rotate(89) scale(4000.00 448.00)"><ellipse cx="0" cy="0" rx="1" ry="1" fill="rgb(0,0,0)" fill-opacity="0.502"/></g>
<circle cx="5712.00" cy="1952.00" r="112.00" fill="rgb(227,252,216)" fill-opacity="0.502"/>
<polygon points="5401.91,1264.69 5269.35,1320.95 5238.09,1247.31 5370.65,1191.05" fill="rgb(155,227,178)" fill-opacity="0.502"/>
<circle cx="6832.00" cy="240.00" r="48.00" fill="rgb(113,148,146)" fill-opacity="0.502"/>
<polygon points="2035.42,1498.90 1956.31,1742.37 1484.58,1589.10 1563.69,1345.63" fill="rgb(14,12,24)" fill-opacity="0.502"/>
<polygon points="4434.76,2420.53 4480.32,2250.53 5021.24,2395.47 4975.68,2565.47" fill="rgb(242,255,220)" fill-opacity="0.502"/>
<polygon points="4594.96,2075.28 4588.26,2171.04 4269.04,2148.72 4275.74,2052.96" fill="rgb(29,0,0)" fill-opacity="0.502"/>
<g transform="translate(2512.00 1088.00) rotate(265) scale(480.00 192.00)"><ellipse cx="0" cy="0" rx="1" ry="1" fill="rgb(0,2,19)" fill-opacity="0.502"/></g>
<g transform="translate(6880.00 48.00) rotate(329) scale(176.00 128.00)"><ellipse cx="0" cy="0" rx="1" ry="1" fill="rgb(0,26,50)" fill-opacity="0.502"/></g>
<polygon points="5284.83,981.66 5413.30,1124.34 5211.17,1306.34 5082.70,1163.66" fill="rgb(163,208,162)" fill-opacity="0.502"/>
<g transform="translate(6960.00 2528.00) rotate(360) scale(128.00 48.00)"><ellipse cx="0" cy="0" rx="1" ry="1" fill="rgb(31,2,0)" fill-opacity="0.502"/></g>
<circle cx="3488.00" cy="640.00" r="80.00" fill="rgb(107,78,58)" fill-opacity="0.502"/>
<g transform="translate(2288.00 2064.00) rotate(14) scale(368.00 336.00)"><ellipse cx="0" cy="0" rx="1" ry="1" fill="rgb(1,0,16)" fill-opacity="0.502"/></g>
<polygon points="6826.41,2861.34 6762.30,2531.51 7013.59,2482.66 7077.70,2812.49" fill="rgb(54,13,5)" fill-opacity="0.502"/>
<circle cx="5584.00" cy="880.00" r="32.00" fill="rgb(112,144,88)" fill-opacity="0.502"/>
<circle cx="7024.00" cy="1408.00" r="64.00" fill="rgb(202,202,159)" fill-opacity="0.502"/>
<polygon points="2125.45,726.50 2288.02,1378.54 1682.55,1529.50 1519.98,877.46" fill="rgb(0,0,16)" fill-opacity="0.502"/>
<polygon points="5058.48,2442.64 5566.03,2588.18 5517.52,2757.36 5009.97,2611.82" fill="rgb(229,255,213)" fill-opacity="0.502"/>
<polygon points="2957.52,1834.38 2759.70,1898.66 2690.48,1685.62 2888.30,1621.34" fill="rgb(4,4,16)" fill-opacity="0.502"/>
<polygon points="3404.86,805.40 3378.40,897.68 2963.14,778.60 2989.60,686.32" fill="rgb(62,123,60)" fill-opacity="0.502"/>
<polygon points="1477.65,989.85 1260.45,598.02 1498.35,466.15 1715.55,857.98" fill="rgb(1,0,14)" fill-opacity="0.502"/>
<circle cx="3024.00" cy="2464.00" r="80.00" fill="rgb(184,119,103)" fill-opacity="0.502"/>
<circle cx="0.00" cy="2832.00" r="1104.00" fill="rgb(0,0,0)" fill-opacity="0.502"/>
<polygon points="3058.12,2280.21 3304.64,2165.25 3581.88,2759.79 3335.36,2874.75" fill="rgb(19,6,14)" fill-opacity="0.502"/>
<g transform="translate(2864.00 1232.00) rotate(11) scale(48.00 176.00)"><ellipse cx="0" cy="0" rx="1" ry="1" fill="rgb(22,28,26)" fill-opacity="0.502"/></g>
<circle cx="6576.00" cy="1552.00" r="112.00" fill="rgb(161,145,117)" fill-opacity="0.502"/>
<polygon points="1444.90,2262.31 1161.19,1958.07 1243.10,1881.69 1526.81,2185.93" fill="rgb(14,12,23)" fill-opacity="0.502"/>
<polygon points="4056.74,1018.48 4729.98,1224.31 4711.26,1285.52 4038.02,1079.69" fill="rgb(151,197,76)" fill-opacity="0.502"/>
<circle cx="3424.00" cy="1616.00" r="144.00" fill="rgb(149,127,108)" fill-opacity="0.502"/>
<g transform="translate(6624.00 800.00) rotate(87) scale(48.00 432.00)"><ellipse cx="0" cy="0" rx="1" ry="1" fill="rgb(58,111,86)" fill-opacity="0.502"/></g>
<g transform="translate(3040.00 3200.00) rotate(14) scale(144.00 400.00)"><ellipse cx="0" cy="0" rx="1" ry="1" fill="rgb(0,0,16)" fill-opacity="0.502"/></g>
<polygon points="3777.00,1074.22 3600.27,1149.24 3519.00,957.78 3695.73,882.76" fill="rgb(136,166,67)" fill-opacity="0.502"/>
<polygon points="4125.61,2395.32 4279.41,2351.22 4354.39,2612.68 4200.59,2656.78" fill="rgb(196,212,173)" fill-opacity="0.502"/>
<g transform="translate(4240.00 1808.00) rotate(177) scale(416.00 176.00)"><ellipse cx="0" cy="0" rx="1" ry="1" fill="rgb(193,205,163)" fill-opacity="0.502"/></g>
<polygon points="4311.11,1935.79 4321.91,1889.02 4664.89,1968.21 4654.09,2014.98" fill="rgb(211,235,200)" fill-opacity="0.502"/>
<polygon points="4350.94,1616.48 4787.45,1717.26 4737.06,1935.52 4300.55,1834.74" fill="rgb(215,227,174)" fill-opacity="0.502"/>
<circle cx="4800.00" cy="1472.00" r="64.00" fill="rgb(16,0,0)" fill-opacity="0.502"/>
<g transform="translate(5872.00 144.00) rotate(179) scale(16.00 512.00)"><ellipse cx="0" cy="0" rx="1" ry="1" fill="rgb(136,181,127)" fill-opacity="0.502"/></g>
<circle cx="4000.00" cy="2816.00" r="16.00" fill="rgb(197,192,223)" fill-opacity="0.502"/>
<g transform="translate(4176.00 1360.00) rotate(97) scale(48.00 688.00)"><ellipse cx="0" cy="0" rx="1" ry="1" fill="rgb(18,0,0)" fill-opacity="0.502"/></g>
<polygon points="4976.36,337.72 4805.58,295.15 4863.64,62.28 5034.42,104.85" fill="rgb(183,179,148)" fill-opacity="0.502"/>
<circle cx="4656.00" cy="1408.00" r="112.00" fill="rgb(33,1,3)" fill-opacity="0.502"/>
<g transform="translate(3968.00 2656.00) rotate(90) scale(144.00 144.00)"><ellipse cx="0" cy="0" rx="1" ry="1" fill="rgb(3,0,12)" fill-opacity="0.502"/></g>
<g transform="translate(3936.00 1184.00) rotate(237) scale(48.00 160.00)"><ellipse cx="0" cy="0" rx="1" ry="1" fill="rgb(170,155,102)" fill-opacity="0.502"/></g>
<g transform="translate(7472.00 2544.00) rotate(150) scale(416.00 368.00)"><ellipse cx="0" cy="0" rx="1" ry="1" fill="rgb(0,0,0)" fill-opacity="0.502"/></g>
<polygon points="5095.90,1969.19 5292.57,2036.91 5256.10,2142.81 5059.43,2075.09" fill="rgb(53,8,0)" fill-opacity="0.502"/>
<circle cx="6736.00" cy="4432.00" r="336.00" fill="rgb(0,0,16)" fill-opacity="0.502"/>
<g transform="translate(4208.00 1728.00) rotate(335) scale(144.00 240.00)"><ellipse cx="0" cy="0" rx="1" ry="1" fill="rgb(202,193,165)" fill-opacity="0.502"/></g>
<g transform="translate(5232.00 864.00) rotate(91) scale(48.00 320.00)"><ellipse cx="0" cy="0" rx="1" ry="1" fill="rgb(155,195,146)" fill-opacity="0.502"/></g>
<g transform="translate(3952.00 0.00) rotate(192) scale(128.00 48.00)"><ellipse cx="0" cy="0" rx="1" ry="1" fill="rgb(101,67,53)" fill-opacity="0.502"/></g>
<g transform="translate(5680.00 3120.00) rotate(139) scale(224.00 304.00)"><ellipse cx="0" cy="0" rx="1" ry="1" fill="rgb(0,0,16)" fill-opacity="0.502"/></g>
<polygon points="4801.04,2402.75 4806.05,2371.14 5374.96,2461.25 5369.95,2492.86" fill="rgb(241,255,224)" fill-opacity="0.502"/>
<polygon points="6887.58,3499.70 7182.34,4031.46 7000.42,4132.30 6705.66,3600.54" fill="rgb(1,1,19)" fill-opacity="0.502"/>
<circle cx="3776.00" cy="1648.00" r="176.00" fill="rgb(180,157,135)" fill-opacity="0.502"/>
<circle cx="1856.00" cy="1728.00" r="64.00" fill="rgb(60,73,69)" fill-opacity="0.502"/>
<polygon points="5503.46,-141.16 6300.32,148.88 6256.54,269.16 5459.68,-20.88" fill="rgb(157,192,149)" fill-opacity="0.502"/>
<polygon points="5973.33,1163.64 6228.36,1141.33 6250.67,1396.36 5995.64,1418.67" fill="rgb(69,138,116)" fill-opacity="0.502"/>
<circle cx="3024.00" cy="1456.00" r="16.00" fill="rgb(0,0,5)" fill-opacity="0.502"/>
<polygon points="4800.00,1264.00 5024.00,1264.00 5024.00,1504.00 4800.00,1504.00" fill="rgb(53,27,18)" fill-opacity="0.502"/>
<circle cx="6768.00" cy="1584.00" r="48.00" fill="rgb(255,255,237)" fill-opacity="0.502"/>
<polygon points="7956.51,1928.21 7200.18,2061.58 7083.49,1399.79 7839.82,1266.42" fill="rgb(0,0,0)" fill-opacity="0.502"/>
<g transform="translate(6240.00 3056.00) rotate(146) scale(256.00 368.00)"><ellipse cx="0" cy="0" rx="1" ry="1" fill="rgb(0,0,15)" fill-opacity="0.502"/></g>
<polygon points="4432.36,2779.24 4329.15,2510.37 4687.64,2372.76 4790.85,2641.63" fill="rgb(233,249,210)" fill-opacity="0.502"/>
<polygon points="3281.18,1103.49 3117.35,950.72 3182.82,880.51 3346.65,1033.28" fill="rgb(0,56,13)" fill-opacity="0.502"/>
<polygon points="6237.91,1833.33 6211.15,1578.74 6402.09,1558.67 6428.85,1813.26" fill="rgb(205,178,156)" fill-opacity="0.502"/>
<g transform="translate(7504.00 272.00) rotate(213) scale(432.00 256.00)"><ellipse cx="0" cy="0" rx="1" ry="1" fill="rgb(0,0,0)" fill-opacity="0.502"/></g>
</g>
</svg>