<?xml version="1.0" standalone="no"?>
<svg xmlns="http://www.w3.org/2000/svg" width="8192" height="4608" viewBox="0 0 8192 4608" style="overflow:hidden">
<defs>
<clipPath id="c"><rect x="0" y="0" width="8192" height="4608"/></clipPath>
</defs>
<rect width="8192" height="4608" fill="rgb(22,6,5)"/>
<g clip-path="url(#c)">
<circle cx="4464.00" cy="2304.00" r="704.00" fill="rgb(237,92,65)" fill-opacity="0.502"/>
<g transform="translate(4848.00 496.00) rotate(271) scale(480.00 688.00)"><ellipse cx="0" cy="0" rx="1" ry="1" fill="rgb(223,78,53)" fill-opacity="0.502"/></g>
<circle cx="4208.00" cy="2800.00" r="384.00" fill="rgb(165,57,41)" fill-opacity="0.502"/>
<circle cx="1424.00" cy="4192.00" r="416.00" fill="rgb(255,145,97)" fill-opacity="0.502"/>
<circle cx="1344.00" cy="3600.00" r="320.00" fill="rgb(232,87,56)" fill-opacity="0.502"/>
<circle cx="1712.00" cy="1024.00" r="2464.00" fill="rgb(1,0,0)" fill-opacity="0.502"/>
<g transform="translate(5504.00 1552.00) rotate(197) scale(352.00 176.00)"><ellipse cx="0" cy="0" rx="1" ry="1" fill="rgb(114,34,23)" fill-opacity="0.502"/></g>
<g transform="translate(4048.00 1616.00) rotate(360) scale(208.00 192.00)"><ellipse cx="0" cy="0" rx="1" ry="1" fill="rgb(255,119,91)" fill-opacity="0.502"/></g>
<circle cx="4768.00" cy="1888.00" r="288.00" fill="rgb(235,108,81)" fill-opacity="0.502"/>
<g transform="translate(7280.00 2448.00) rotate(94) scale(4736.00 1600.00)"><ellipse cx="0" cy="0" rx="1" ry="1" fill="rgb(0,0,0)" fill-opacity="0.502"/></g>
<g transform="translate(5472.00 688.00) rotate(151) scale(336.00 448.00)"><ellipse cx="0" cy="0" rx="1" ry="1" fill="rgb(86,17,11)" fill-opacity="0.502"/></g>
<circle cx="1312.00" cy="3216.00" r="240.00" fill="rgb(194,64,45)" fill-opacity="0.502"/>
<g transform="translate(1408.00 4512.00) rotate(170) scale(288.00 624.00)"><ellipse cx="0" cy="0" rx="1" ry="1" fill="rgb(255,134,89)" fill-opacity="0.502"/></g>
<polygon points="6424.44,1454.11 6439.52,2317.98 6215.56,2321.89 6200.48,1458.02" fill="rgb(132,51,42)" fill-opacity="0.502"/>
<circle cx="4928.00" cy="2960.00" r="432.00" fill="rgb(19,1,2)" fill-opacity="0.502"/>
<circle cx="3552.00" cy="2160.00" r="464.00" fill="rgb(17,0,0)" fill-opacity="0.502"/>
<circle cx="544.00" cy="4144.00" r="576.00" fill="rgb(0,0,0)" fill-opacity="0.502"/>
<polygon points="4416.01,977.66 4067.99,815.38 4351.99,206.34 4700.01,368.62" fill="rgb(199,80,57)" fill-opacity="0.502"/>
<circle cx="3968.00" cy="4160.00" r="960.00" fill="rgb(2,0,0)" fill-opacity="0.502"/>
<circle cx="5504.00" cy="3664.00" r="256.00" fill="rgb(88,43,37)" fill-opacity="0.502"/>
<circle cx="2000.00" cy="4208.00" r="368.00" fill="rgb(0,0,0)" fill-opacity="0.502"/>
<circle cx="672.00" cy="4256.00" r="432.00" fill="rgb(0,0,0)" fill-opacity="0.502"/>
<polygon points="1569.95,3795.89 1253.06,3840.43 1086.05,2652.11 1402.94,2607.57" fill="rgb(148,50,35)" fill-opacity="0.502"/>
<g transform="translate(5216.00 176.00) rotate(44) scale(1008.00 192.00)"><ellipse cx="0" cy="0" rx="1" ry="1" fill="rgb(56,10,6)" fill-opacity="0.502"/></g>
<circle cx="2576.00" cy="4224.00" r="944.00" fill="rgb(2,0,0)" fill-opacity="0.502"/>
<g transform="translate(4624.00 1584.00) rotate(3) scale(320.00 128.00)"><ellipse cx="0" cy="0" rx="1" ry="1" fill="rgb(0,0,0)" fill-opacity="0.502"/></g>
<polygon points="1600.00,4608.00 1104.00,4608.00 1104.00,4352.00 1600.00,4352.00" fill="rgb(255,141,97)" fill-opacity="0.502"/>
<g transform="translate(4656.00 2144.00) rotate(271) scale(432.00 192.00)"><ellipse cx="0" cy="0" rx="1" ry="1" fill="rgb(213,91,64)" fill-opacity="0.502"/></g>
<circle cx="7472.00" cy="3184.00" r="1456.00" fill="rgb(0,0,0)" fill-opacity="0.502"/>
<circle cx="5472.00" cy="4320.00" r="224.00" fill="rgb(49,46,46)" fill-opacity="0.502"/>
<polygon points="4080.21,2055.37 4344.21,2512.63 4191.79,2600.63 3927.79,2143.37" fill="rgb(191,92,71)" fill-opacity="0.502"/>
<circle cx="3712.00" cy="1328.00" r="304.00" fill="rgb(11,0,0)" fill-opacity="0.502"/>
<g transform="translate(432.00 3328.00) rotate(1) scale(688.00 4592.00)"><ellipse cx="0" cy="0" rx="1" ry="1" fill="rgb(0,0,0)" fill-opacity="0.502"/></g>
<g transform="translate(5616.00 2240.00) rotate(305) scale(672.00 464.00)"><ellipse cx="0" cy="0" rx="1" ry="1" fill="rgb(4,0,0)" fill-opacity="0.502"/></g>
<g transform="translate(7520.00 1280.00) rotate(260) scale(5296.00 1184.00)"><ellipse cx="0" cy="0" rx="1" ry="1" fill="rgb(0,0,0)" fill-opacity="0.502"/></g>
<polygon points="4355.48,2693.85 4437.76,2791.90 3996.52,3162.15 3914.24,3064.10" fill="rgb(195,75,53)" fill-opacity="0.502"/>
<g transform="translate(4112.00 1472.00) rotate(235) scale(128.00 96.00)"><ellipse cx="0" cy="0" rx="1" ry="1" fill="rgb(203,93,77)" fill-opacity="0.502"/></g>
<circle cx="1456.00" cy="4112.00" r="224.00" fill="rgb(231,85,57)" fill-opacity="0.502"/>
<polygon points="4174.35,2663.48 3962.44,2550.81 4097.65,2296.52 4309.56,2409.19" fill="rgb(207,108,93)" fill-opacity="0.502"/>
<circle cx="4560.00" cy="1056.00" r="256.00" fill="rgb(0,0,0)" fill-opacity="0.502"/>
<g transform="translate(4784.00 288.00) rotate(148) scale(352.00 592.00)"><ellipse cx="0" cy="0" rx="1" ry="1" fill="rgb(149,50,34)" fill-opacity="0.502"/></g>
<circle cx="5008.00" cy="3232.00" r="480.00" fill="rgb(5,0,0)" fill-opacity="0.502"/>
<circle cx="0.00" cy="1088.00" r="1200.00" fill="rgb(0,0,0)" fill-opacity="0.502"/>
<g transform="translate(432.00 3568.00) rotate(31) scale(640.00 752.00)"><ellipse cx="0" cy="0" rx="1" ry="1" fill="rgb(0,0,0)" fill-opacity="0.502"/></g>
<circle cx="5920.00" cy="0.00" r="336.00" fill="rgb(0,0,0)" fill-opacity="0.502"/>
<g transform="translate(3872.00 2896.00) rotate(119) scale(272.00 80.00)"><ellipse cx="0" cy="0" rx="1" ry="1" fill="rgb(0,0,0)" fill-opacity="0.502"/></g>
<polygon points="4645.23,1143.06 4861.23,768.94 5290.77,1016.94 5074.77,1391.06" fill="rgb(10,6,6)" fill-opacity="0.502"/>
<polygon points="5564.18,762.47 5494.51,1041.91 5059.82,933.53 5129.49,654.09" fill="rgb(126,38,26)" fill-opacity="0.502"/>
<circle cx="4512.00" cy="2016.00" r="208.00" fill="rgb(206,89,63)" fill-opacity="0.502"/>
<g transform="translate(1376.00 3744.00) rotate(250) scale(192.00 320.00)"><ellipse cx="0" cy="0" rx="1" ry="1" fill="rgb(175,69,46)" fill-opacity="0.502"/></g>
<circle cx="1872.00" cy="3344.00" r="368.00" fill="rgb(0,0,0)" fill-opacity="0.502"/>
<circle cx="1792.00" cy="3104.00" r="320.00" fill="rgb(5,0,0)" fill-opacity="0.502"/>
<circle cx="5760.00" cy="2832.00" r="512.00" fill="rgb(1,0,0)" fill-opacity="0.502"/>
<g transform="translate(3744.00 496.00) rotate(153) scale(512.00 320.00)"><ellipse cx="0" cy="0" rx="1" ry="1" fill="rgb(13,0,0)" fill-opacity="0.502"/></g>
<g transform="translate(4960.00 4512.00) rotate(298) scale(512.00 496.00)"><ellipse cx="0" cy="0" rx="1" ry="1" fill="rgb(17,10,10)" fill-opacity="0.502"/></g>
<polygon points="4166.49,1609.09 3932.46,1827.33 3801.51,1686.91 4035.54,1468.67" fill="rgb(219,92,64)" fill-opacity="0.502"/>
<polygon points="3778.99,1618.51 4057.34,1309.37 4093.01,1341.49 3814.66,1650.63" fill="rgb(0,0,0)" fill-opacity="0.502"/>
<polygon points="4414.54,2489.28 4876.00,2537.78 4817.46,3094.72 4356.00,3046.22" fill="rgb(103,32,23)" fill-opacity="0.502"/>
<g transform="translate(5712.00 3872.00) rotate(63) scale(320.00 160.00)"><ellipse cx="0" cy="0" rx="1" ry="1" fill="rgb(0,0,0)" fill-opacity="0.502"/></g>
<g transform="translate(5504.00 4432.00) rotate(278) scale(400.00 32.00)"><ellipse cx="0" cy="0" rx="1" ry="1" fill="rgb(93,88,91)" fill-opacity="0.502"/></g>
<polygon points="4804.68,994.81 4795.47,819.05 4907.32,813.19 4916.53,988.95" fill="rgb(133,69,63)" fill-opacity="0.502"/>
<g transform="translate(4192.00 2816.00) rotate(189) scale(208.00 416.00)"><ellipse cx="0" cy="0" rx="1" ry="1" fill="rgb(156,54,37)" fill-opacity="0.502"/></g>
<polygon points="4180.30,3105.00 4460.10,3552.77 4283.70,3663.00 4003.90,3215.23" fill="rgb(28,12,13)" fill-opacity="0.502"/>
<g transform="translate(5072.00 2720.00) rotate(121) scale(400.00 208.00)"><ellipse cx="0" cy="0" rx="1" ry="1" fill="rgb(47,11,10)" fill-opacity="0.502"/></g>
<g transform="translate(4832.00 2160.00) rotate(23) scale(128.00 672.00)"><ellipse cx="0" cy="0" rx="1" ry="1" fill="rgb(174,62,40)" fill-opacity="0.502"/></g>
<circle cx="3312.00" cy="3984.00" r="544.00" fill="rgb(24,4,0)" fill-opacity="0.502"/>
<circle cx="4560.00" cy="576.00" r="256.00" fill="rgb(185,80,55)" fill-opacity="0.502"/>
<g transform="translate(2224.00 2720.00) rotate(59) scale(1232.00 768.00)"><ellipse cx="0" cy="0" rx="1" ry="1" fill="rgb(4,0,0)" fill-opacity="0.502"/></g>
<polygon points="6268.22,1401.63 6201.96,1648.91 5923.78,1574.37 5990.04,1327.09" fill="rgb(4,0,0)" fill-opacity="0.502"/>
<g transform="translate(3056.00 1280.00) rotate(75) scale(1744.00 704.00)"><ellipse cx="0" cy="0" rx="1" ry="1" fill="rgb(16,0,0)" fill-opacity="0.502"/></g>
<polygon points="4408.46,1010.47 4912.24,1289.72 4679.54,1709.53 4175.76,1430.28" fill="rgb(0,0,0)" fill-opacity="0.502"/>
<circle cx="5984.00" cy="4016.00" r="448.00" fill="rgb(4,0,0)" fill-opacity="0.502"/>
<g transform="translate(3552.00 2960.00) rotate(26) scale(368.00 416.00)"><ellipse cx="0" cy="0" rx="1" ry="1" fill="rgb(13,0,0)" fill-opacity="0.502"/></g>
<circle cx="4928.00" cy="1760.00" r="112.00" fill="rgb(223,108,83)" fill-opacity="0.502"/>
<circle cx="5328.00" cy="1440.00" r="80.00" fill="rgb(189,81,52)" fill-opacity="0.502"/>
<polygon points="5516.58,3819.23 5568.48,4086.24 5411.42,4116.77 5359.52,3849.76" fill="rgb(77,77,81)" fill-opacity="0.502"/>
<g transform="translate(7984.00 992.00) rotate(90) scale(6816.00 912.00)"><ellipse cx="0" cy="0" rx="1" ry="1" fill="rgb(0,0,0)" fill-opacity="0.502"/></g>
<polygon points="1291.87,4699.66 1156.21,4255.93 1508.13,4148.34 1643.79,4592.07" fill="rgb(247,117,80)" fill-opacity="0.502"/>
<g transform="translate(3936.00 1920.00) rotate(239) scale(80.00 272.00)"><ellipse cx="0" cy="0" rx="1" ry="1" fill="rgb(0,0,0)" fill-opacity="0.502"/></g>
<g transform="translate(3888.00 2832.00) rotate(226) scale(80.00 192.00)"><ellipse cx="0" cy="0" rx="1" ry="1" fill="rgb(4,0,0)" fill-opacity="0.502"/></g>
<circle cx="1488.00" cy="816.00" r="480.00" fill="rgb(13,1,12)" fill-opacity="0.502"/>
<g transform="translate(1280.00 2608.00) rotate(154) scale(144.00 240.00)"><ellipse cx="0" cy="0" rx="1" ry="1" fill="rgb(55,16,18)" fill-opacity="0.502"/></g>
<circle cx="6240.00" cy="2752.00" r="464.00" fill="rgb(5,0,0)" fill-opacity="0.502"/>
<polygon points="4669.23,2558.29 4903.51,2032.09 5122.77,2129.71 4888.49,2655.91" fill="rgb(146,46,28)" fill-opacity="0.502"/>
<circle cx="6368.00" cy="2112.00" r="128.00" fill="rgb(159,70,55)" fill-opacity="0.502"/>
<polygon points="1785.85,4325.91 1659.89,4181.00 2022.15,3866.09 2148.11,4011.00" fill="rgb(0,0,0)" fill-opacity="0.502"/>
<g transform="translate(1536.00 288.00) rotate(278) scale(1584.00 304.00)"><ellipse cx="0" cy="0" rx="1" ry="1" fill="rgb(13,2,12)" fill-opacity="0.502"/></g>
<circle cx="5328.00" cy="1696.00" r="208.00" fill="rgb(0,0,0)" fill-opacity="0.502"/>
<polygon points="1727.91,4452.85 1607.01,3468.24 2528.09,3355.15 2648.99,4339.76" fill="rgb(6,0,0)" fill-opacity="0.502"/>
<polygon points="4933.49,3974.87 4883.05,3935.47 5050.51,3721.13 5100.95,3760.53" fill="rgb(100,56,52)" fill-opacity="0.502"/>
<circle cx="4992.00" cy="4480.00" r="448.00" fill="rgb(19,9,9)" fill-opacity="0.502"/>
<polygon points="3821.42,2186.70 4219.28,1815.69 4306.58,1909.30 3908.72,2280.31" fill="rgb(141,56,36)" fill-opacity="0.502"/>
<g transform="translate(4240.00 816.00) rotate(167) scale(128.00 96.00)"><ellipse cx="0" cy="0" rx="1" ry="1" fill="rgb(185,70,47)" fill-opacity="0.502"/></g>
<g transform="translate(4864.00 80.00) rotate(36) scale(704.00 160.00)"><ellipse cx="0" cy="0" rx="1" ry="1" fill="rgb(97,23,15)" fill-opacity="0.502"/></g>
<circle cx="2048.00" cy="896.00" r="576.00" fill="rgb(15,0,0)" fill-opacity="0.502"/>
<g transform="translate(432.00 2720.00) rotate(240) scale(576.00 704.00)"><ellipse cx="0" cy="0" rx="1" ry="1" fill="rgb(0,0,0)" fill-opacity="0.502"/></g>
<polygon points="5849.80,962.17 5435.46,562.05 5702.20,285.83 6116.54,685.95" fill="rgb(29,5,3)" fill-opacity="0.502"/>
<g transform="translate(4352.00 240.00) rotate(294) scale(528.00 64.00)"><ellipse cx="0" cy="0" rx="1" ry="1" fill="rgb(112,37,29)" fill-opacity="0.502"/></g>
<g transform="translate(5056.00 2320.00) rotate(210) scale(128.00 112.00)"><ellipse cx="0" cy="0" rx="1" ry="1" fill="rgb(132,40,28)" fill-opacity="0.502"/></g>
<g transform="translate(1264.00 4592.00) rotate(127) scale(144.00 160.00)"><ellipse cx="0" cy="0" rx="1" ry="1" fill="rgb(255,136,94)" fill-opacity="0.502"/></g>
<circle cx="2224.00" cy="4592.00" r="576.00" fill="rgb(8,0,0)" fill-opacity="0.502"/>
<circle cx="4656.00" cy="3552.00" r="352.00" fill="rgb(0,0,0)" fill-opacity="0.502"/>
<g transform="translate(3344.00 3552.00) rotate(278) scale(1184.00 400.00)"><ellipse cx="0" cy="0" rx="1" ry="1" fill="rgb(19,4,0)" fill-opacity="0.502"/></g>
<circle cx="4384.00" cy="1136.00" r="256.00" fill="rgb(2,0,0)" fill-opacity="0.502"/>
<g transform="translate(1440.00 3904.00) rotate(135) scale(368.00 96.00)"><ellipse cx="0" cy="0" rx="1" ry="1" fill="rgb(183,71,46)" fill-opacity="0.502"/></g>
<polygon points="5517.49,1393.04 5822.96,1698.51 5698.51,1822.96 5393.04,1517.49" fill="rgb(91,18,14)" fill-opacity="0.502"/>
<circle cx="5088.00" cy="1184.00" r="256.00" fill="rgb(0,0,0)" fill-opacity="0.502"/>
<g transform="translate(4176.00 2064.00) rotate(31) scale(48.00 528.00)"><ellipse cx="0" cy="0" rx="1" ry="1" fill="rgb(80,14,5)" fill-opacity="0.502"/></g>
<circle cx="4608.00" cy="4000.00" r="32.00" fill="rgb(145,145,167)" fill-opacity="0.502"/>
<g transform="translate(5600.00 1504.00) rotate(215) scale(224.00 112.00)"><ellipse cx="0" cy="0" rx="1" ry="1" fill="rgb(95,24,19)" fill-opacity="0.502"/></g>
<circle cx="6704.00" cy="2320.00" r="384.00" fill="rgb(11,0,0)" fill-opacity="0.502"/>
<g transform="translate(3952.00 0.00) rotate(355) scale(496.00 192.00)"><ellipse cx="0" cy="0" rx="1" ry="1" fill="rgb(8,0,0)" fill-opacity="0.502"/></g>
<g transform="translate(5520.00 1200.00) rotate(106) scale(128.00 608.00)"><ellipse cx="0" cy="0" rx="1" ry="1" fill="rgb(0,0,0)" fill-opacity="0.502"/></g>
<circle cx="5184.00" cy="1184.00" r="224.00" fill="rgb(6,0,0)" fill-opacity="0.502"/>
<circle cx="5328.00" cy="1872.00" r="304.00" fill="rgb(7,0,0)" fill-opacity="0.502"/>
<circle cx="464.00" cy="3680.00" r="640.00" fill="rgb(0,0,0)" fill-opacity="0.502"/>
<circle cx="4608.00" cy="3088.00" r="224.00" fill="rgb(31,9,10)" fill-opacity="0.502"/>
<g transform="translate(6480.00 4512.00) rotate(16) scale(880.00 1056.00)"><ellipse cx="0" cy="0" rx="1" ry="1" fill="rgb(4,0,0)" fill-opacity="0.502"/></g>
<circle cx="544.00" cy="352.00" r="624.00" fill="rgb(0,0,0)" fill-opacity="0.502"/>
<g transform="translate(1648.00 2976.00) rotate(107) scale(272.00 112.00)"><ellipse cx="0" cy="0" rx="1" ry="1" fill="rgb(7,0,0)" fill-opacity="0.502"/></g>
<circle cx="2512.00" cy="4160.00" r="432.00" fill="rgb(4,0,0)" fill-opacity="0.502"/>
<g transform="translate(6624.00 1584.00) rotate(216) scale(208.00 448.00)"><ellipse cx="0" cy="0" rx="1" ry="1" fill="rgb(4,0,0)" fill-opacity="0.502"/></g>
<polygon points="4857.67,939.31 5056.64,805.10 5110.33,884.69 4911.36,1018.90" fill="rgb(57,18,7)" fill-opacity="0.502"/>
<circle cx="352.00" cy="1824.00" r="784.00" fill="rgb(0,0,0)" fill-opacity="0.502"/>
<g transform="translate(4976.00 4256.00) rotate(172) scale(16.00 416.00)"><ellipse cx="0" cy="0" rx="1" ry="1" fill="rgb(80,75,81)" fill-opacity="0.502"/></g>
<polygon points="892.77,3929.45 561.73,3438.66 787.23,3286.55 1118.27,3777.34" fill="rgb(0,0,0)" fill-opacity="0.502"/>
<circle cx="1648.00" cy="3792.00" r="64.00" fill="rgb(12,0,0)" fill-opacity="0.502"/>
<circle cx="4240.00" cy="1984.00" r="80.00" fill="rgb(223,110,77)" fill-opacity="0.502"/>
<g transform="translate(4112.00 1408.00) rotate(109) scale(112.00 32.00)"><ellipse cx="0" cy="0" rx="1" ry="1" fill="rgb(209,109,98)" fill-opacity="0.502"/></g>
<polygon points="3946.81,4380.96 3484.62,3767.61 4085.19,3315.04 4547.38,3928.39" fill="rgb(7,0,0)" fill-opacity="0.502"/>
<circle cx="3520.00" cy="1200.00" r="544.00" fill="rgb(15,0,0)" fill-opacity="0.502"/>
<g transform="translate(6192.00 240.00) rotate(250) scale(1600.00 352.00)"><ellipse cx="0" cy="0" rx="1" ry="1" fill="rgb(8,0,0)" fill-opacity="0.502"/></g>
<circle cx="5168.00" cy="0.00" r="224.00" fill="rgb(75,16,16)" fill-opacity="0.502"/>
<polygon points="5793.27,987.13 5730.75,1134.41 5406.73,996.87 5469.25,849.59" fill="rgb(81,22,20)" fill-opacity="0.502"/>
<polygon points="4619.24,584.40 4652.82,757.17 4228.76,839.60 4195.18,666.83" fill="rgb(186,79,53)" fill-opacity="0.502"/>
<polygon points="4310.13,576.22 4239.57,330.14 4777.87,175.78 4848.43,421.86" fill="rgb(153,54,38)" fill-opacity="0.502"/>
<g transform="translate(5264.00 4064.00) rotate(204) scale(80.00 256.00)"><ellipse cx="0" cy="0" rx="1" ry="1" fill="rgb(10,4,0)" fill-opacity="0.502"/></g>
<polygon points="4390.86,1845.70 4277.84,1785.61 4473.14,1418.30 4586.16,1478.39" fill="rgb(19,0,3)" fill-opacity="0.502"/>
<polygon points="5659.69,1854.15 5668.34,1358.22 5876.31,1361.85 5867.66,1857.78" fill="rgb(46,8,4)" fill-opacity="0.502"/>
<circle cx="5856.00" cy="4192.00" r="304.00" fill="rgb(9,1,0)" fill-opacity="0.502"/>
<circle cx="3552.00" cy="928.00" r="576.00" fill="rgb(14,0,0)" fill-opacity="0.502"/>
<g transform="translate(4096.00 256.00) rotate(348) scale(144.00 208.00)"><ellipse cx="0" cy="0" rx="1" ry="1" fill="rgb(4,0,0)" fill-opacity="0.502"/></g>
<g transform="translate(800.00 4288.00) rotate(182) scale(304.00 1200.00)"><ellipse cx="0" cy="0" rx="1" ry="1" fill="rgb(0,0,0)" fill-opacity="0.502"/></g>
<circle cx="4176.00" cy="1664.00" r="128.00" fill="rgb(177,63,50)" fill-opacity="0.502"/>
<circle cx="6528.00" cy="3152.00" r="816.00" fill="rgb(5,0,0)" fill-opacity="0.502"/>
<circle cx="688.00" cy="912.00" r="448.00" fill="rgb(0,0,0)" fill-opacity="0.502"/>
<polygon points="4998.87,726.18 4631.37,745.44 4617.13,473.82 4984.63,454.56" fill="rgb(166,65,44)" fill-opacity="0.502"/>
<circle cx="1248.00" cy="4000.00" r="160.00" fill="rgb(199,79,51)" fill-opacity="0.502"/>
<polygon points="4879.63,3267.72 4347.55,3527.23 4256.37,3340.28 4788.45,3080.77" fill="rgb(5,0,0)" fill-opacity="0.502"/>
<polygon points="5969.95,1640.53 6332.70,1978.80 5918.05,2423.47 5555.30,2085.20" fill="rgb(6,0,0)" fill-opacity="0.502"/>
<polygon points="5018.64,2811.43 4832.12,2660.39 5013.36,2436.57 5199.88,2587.61" fill="rgb(66,18,22)" fill-opacity="0.502"/>
<polygon points="1662.59,4209.05 1609.37,4459.46 1249.41,4382.95 1302.63,4132.54" fill="rgb(223,103,72)" fill-opacity="0.502"/>
<polygon points="4464.08,3794.89 4680.46,4258.92 4143.92,4509.11 3927.54,4045.08" fill="rgb(5,0,0)" fill-opacity="0.502"/>
<polygon points="4567.45,847.07 4329.79,813.66 4376.55,480.93 4614.21,514.34" fill="rgb(175,76,53)" fill-opacity="0.502"/>
<polygon points="3449.26,2333.02 3471.49,2206.96 4038.74,2306.98 4016.51,2433.04" fill="rgb(3,0,0)" fill-opacity="0.502"/>
<polygon points="4902.04,3970.94 4730.02,4419.06 4505.96,4333.06 4677.98,3884.94" fill="rgb(5,0,0)" fill-opacity="0.502"/>
<circle cx="5600.00" cy="3504.00" r="128.00" fill="rgb(139,53,36)" fill-opacity="0.502"/>
<circle cx="3648.00" cy="2336.00" r="240.00" fill="rgb(16,1,0)" fill-opacity="0.502"/>
<polygon points="166.50,4646.10 -234.77,4354.56 329.50,3577.90 730.77,3869.44" fill="rgb(0,0,0)" fill-opacity="0.502"/>
<polygon points="5499.77,2892.97 5243.45,2289.12 6068.23,1939.03 6324.55,2542.88" fill="rgb(5,0,0)" fill-opacity="0.502"/>
<circle cx="1504.00" cy="3408.00" r="64.00" fill="rgb(152,55,34)" fill-opacity="0.502"/>
<polygon points="6120.92,1824.09 6248.10,1620.56 6343.08,1679.91 6215.90,1883.44" fill="rgb(95,29,24)" fill-opacity="0.502"/>
<circle cx="384.00" cy="3184.00" r="720.00" fill="rgb(0,0,0)" fill-opacity="0.502"/>
<circle cx="1296.00" cy="3024.00" r="208.00" fill="rgb(88,24,17)" fill-opacity="0.502"/>
<g transform="translate(2112.00 1520.00) rotate(282) scale(144.00 288.00)"><ellipse cx="0" cy="0" rx="1" ry="1" fill="rgb(6,0,0)" fill-opacity="0.502"/></g>
<polygon points="5135.08,3746.59 5541.38,3462.09 5568.92,3501.41 5162.62,3785.91" fill="rgb(160,78,74)" fill-opacity="0.502"/>
<polygon points="3386.54,2506.55 2803.46,1704.01 3269.46,1365.45 3852.54,2167.99" fill="rgb(17,1,0)" fill-opacity="0.502"/>
<g transform="translate(1696.00 2912.00) rotate(303) scale(288.00 160.00)"><ellipse cx="0" cy="0" rx="1" ry="1" fill="rgb(7,0,0)" fill-opacity="0.502"/></g>
<polygon points="4039.37,2601.75 4101.89,2454.47 4440.63,2598.25 4378.11,2745.53" fill="rgb(192,74,56)" fill-opacity="0.502"/>
<g transform="translate(4704.00 2704.00) rotate(128) scale(256.00 16.00)"><ellipse cx="0" cy="0" rx="1" ry="1" fill="rgb(126,43,33)" fill-opacity="0.502"/></g>
<polygon points="2656.30,2053.28 2323.57,2006.52 2383.70,1578.72 2716.43,1625.48" fill="rgb(4,0,0)" fill-opacity="0.502"/>
<polygon points="4485.90,3489.77 4474.73,3169.97 5498.10,3134.23 5509.27,3454.03" fill="rgb(5,0,0)" fill-opacity="0.502"/>
<g transform="translate(3968.00 1840.00) rotate(354) scale(464.00 16.00)"><ellipse cx="0" cy="0" rx="1" ry="1" fill="rgb(23,0,0)" fill-opacity="0.502"/></g>
<polygon points="5449.56,723.97 5344.35,508.26 5574.44,396.03 5679.65,611.74" fill="rgb(61,17,13)" fill-opacity="0.502"/>
<polygon points="4938.57,1339.96 5040.46,1592.15 4773.43,1700.04 4671.54,1447.85" fill="rgb(0,0,0)" fill-opacity="0.502"/>
<polygon points="4063.12,2431.08 4009.45,2465.94 3904.88,2304.92 3958.55,2270.06" fill="rgb(40,2,7)" fill-opacity="0.502"/>
<circle cx="1872.00" cy="3376.00" r="336.00" fill="rgb(8,0,0)" fill-opacity="0.502"/>
<g transform="translate(4192.00 2384.00) rotate(287) scale(16.00 128.00)"><ellipse cx="0" cy="0" rx="1" ry="1" fill="rgb(255,203,181)" fill-opacity="0.502"/></g>
<circle cx="3184.00" cy="3696.00" r="400.00" fill="rgb(18,5,2)" fill-opacity="0.502"/>
<polygon points="1260.48,4503.30 1165.42,4516.66 1107.52,4104.70 1202.58,4091.34" fill="rgb(217,102,62)" fill-opacity="0.502"/>
<g transform="translate(1312.00 528.00) rotate(53) scale(288.00 176.00)"><ellipse cx="0" cy="0" rx="1" ry="1" fill="rgb(12,3,12)" fill-opacity="0.502"/></g>
<g transform="translate(5024.00 1920.00) rotate(271) scale(336.00 48.00)"><ellipse cx="0" cy="0" rx="1" ry="1" fill="rgb(157,54,37)" fill-opacity="0.502"/></g>
<circle cx="5712.00" cy="2720.00" r="480.00" fill="rgb(6,0,0)" fill-opacity="0.502"/>
<polygon points="5855.64,3994.71 5582.91,3619.33 5712.36,3525.29 5985.09,3900.67" fill="rgb(3,0,0)" fill-opacity="0.502"/>
<circle cx="4432.00" cy="1440.00" r="240.00" fill="rgb(5,0,0)" fill-opacity="0.502"/>
<polygon points="5054.56,3749.87 4442.53,3562.75 4545.44,3226.13 5157.47,3413.25" fill="rgb(6,0,0)" fill-opacity="0.502"/>
<circle cx="3840.00" cy="4592.00" r="336.00" fill="rgb(6,0,0)" fill-opacity="0.502"/>
<circle cx="4224.00" cy="672.00" r="96.00" fill="rgb(160,57,44)" fill-opacity="0.502"/>
<circle cx="2192.00" cy="128.00" r="352.00" fill="rgb(14,0,0)" fill-opacity="0.502"/>
<polygon points="5656.25,919.58 5528.47,1015.87 5287.75,696.42 5415.53,600.13" fill="rgb(85,17,11)" fill-opacity="0.502"/>
<polygon points="5432.00,392.00 5432.00,152.00 5624.00,152.00 5624.00,392.00" fill="rgb(39,6,5)" fill-opacity="0.502"/>
<circle cx="4720.00" cy="832.00" r="80.00" fill="rgb(93,33,22)" fill-opacity="0.502"/>
<polygon points="5325.05,3799.96 4626.44,3974.14 4610.95,3912.04 5309.56,3737.86" fill="rgb(21,6,2)" fill-opacity="0.502"/>
<circle cx="4368.00" cy="2304.00" r="96.00" fill="rgb(51,0,0)" fill-opacity="0.502"/>
<polygon points="1639.51,4174.97 1688.31,4732.84 1640.49,4737.03 1591.69,4179.16" fill="rgb(213,89,59)" fill-opacity="0.502"/>
<polygon points="1654.12,4475.29 1749.59,4485.32 1737.88,4596.71 1642.41,4586.68" fill="rgb(138,40,10)" fill-opacity="0.502"/>
<circle cx="1184.00" cy="3904.00" r="96.00" fill="rgb(180,72,53)" fill-opacity="0.502"/>
<g transform="translate(5168.00 464.00) rotate(324) scale(112.00 272.00)"><ellipse cx="0" cy="0" rx="1" ry="1" fill="rgb(118,35,24)" fill-opacity="0.502"/></g>
<circle cx="4656.00" cy="2496.00" r="144.00" fill="rgb(156,62,40)" fill-opacity="0.502"/>
<polygon points="4179.02,3196.05 4416.43,2816.12 4524.98,2883.95 4287.57,3263.88" fill="rgb(91,33,24)" fill-opacity="0.502"/>
<circle cx="1696.00" cy="3856.00" r="80.00" fill="rgb(3,0,0)" fill-opacity="0.502"/>
<polygon points="1744.98,4607.85 1728.98,4608.13 1727.02,4496.15 1743.02,4495.87" fill="rgb(121,50,31)" fill-opacity="0.502"/>
<g transform="translate(3312.00 2080.00) rotate(268) scale(352.00 576.00)"><ellipse cx="0" cy="0" rx="1" ry="1" fill="rgb(16,2,0)" fill-opacity="0.502"/></g>
<circle cx="5152.00" cy="2096.00" r="64.00" fill="rgb(33,0,0)" fill-opacity="0.502"/>
<polygon points="4077.25,3062.61 3952.07,2896.49 4258.75,2665.39 4383.93,2831.51" fill="rgb(170,68,50)" fill-opacity="0.502"/>
<circle cx="1408.00" cy="3488.00" r="144.00" fill="rgb(150,55,31)" fill-opacity="0.502"/>
<circle cx="3616.00" cy="240.00" r="608.00" fill="rgb(14,0,0)" fill-opacity="0.502"/>
<polygon points="3762.08,4361.91 3523.87,4332.66 3677.92,3078.09 3916.13,3107.34" fill="rgb(16,0,0)" fill-opacity="0.502"/>
<polygon points="4147.25,2017.96 3958.30,2213.62 3900.75,2158.04 4089.70,1962.38" fill="rgb(113,31,13)" fill-opacity="0.502"/>
<polygon points="5319.45,19.20 5412.99,-2.39 5560.55,636.80 5467.01,658.39" fill="rgb(55,13,11)" fill-opacity="0.502"/>
<circle cx="4384.00" cy="2400.00" r="96.00" fill="rgb(71,9,4)" fill-opacity="0.502"/>
<circle cx="4768.00" cy="2912.00" r="144.00" fill="rgb(47,13,13)" fill-opacity="0.502"/>
<polygon points="4720.52,104.19 5044.12,339.31 4959.48,455.81 4635.88,220.69" fill="rgb(136,48,36)" fill-opacity="0.502"/>
<g transform="translate(1344.00 3328.00) rotate(307) scale(208.00 176.00)"><ellipse cx="0" cy="0" rx="1" ry="1" fill="rgb(128,45,31)" fill-opacity="0.502"/></g>
<g transform="translate(1296.00 1312.00) rotate(311) scale(304.00 176.00)"><ellipse cx="0" cy="0" rx="1" ry="1" fill="rgb(14,3,12)" fill-opacity="0.502"/></g>
<circle cx="1984.00" cy="3952.00" r="320.00" fill="rgb(7,0,0)" fill-opacity="0.502"/>
<circle cx="4704.00" cy="352.00" r="160.00" fill="rgb(150,56,39)" fill-opacity="0.502"/>
<g transform="translate(6304.00 2208.00) rotate(231) scale(80.00 96.00)"><ellipse cx="0" cy="0" rx="1" ry="1" fill="rgb(143,80,73)" fill-opacity="0.502"/></g>
<polygon points="3811.25,2592.82 3951.18,2515.25 4028.75,2655.18 3888.82,2732.75" fill="rgb(179,70,54)" fill-opacity="0.502"/>
<circle cx="2560.00" cy="4464.00" r="368.00" fill="rgb(6,0,0)" fill-opacity="0.502"/>
<polygon points="5622.21,870.66 5513.54,843.56 5625.79,393.34 5734.46,420.44" fill="rgb(46,9,3)" fill-opacity="0.502"/>
<circle cx="4272.00" cy="3504.00" r="64.00" fill="rgb(66,63,64)" fill-opacity="0.502"/>
<g transform="translate(2896.00 1248.00) rotate(195) scale(240.00 496.00)"><ellipse cx="0" cy="0" rx="1" ry="1" fill="rgb(16,0,0)" fill-opacity="0.502"/></g>
<circle cx="5456.00" cy="4144.00" r="48.00" fill="rgb(100,80,75)" fill-opacity="0.502"/>
<g transform="translate(4608.00 32.00) rotate(83) scale(96.00 240.00)"><ellipse cx="0" cy="0" rx="1" ry="1" fill="rgb(102,22,11)" fill-opacity="0.502"/></g>
<circle cx="4624.00" cy="1056.00" r="160.00" fill="rgb(5,0,0)" fill-opacity="0.502"/>
<g transform="translate(6720.00 1600.00) rotate(49) scale(160.00 528.00)"><ellipse cx="0" cy="0" rx="1" ry="1" fill="rgb(3,0,0)" fill-opacity="0.502"/></g>
<circle cx="5456.00" cy="4240.00" r="48.00" fill="rgb(92,85,82)" fill-opacity="0.502"/>
<polygon points="6278.61,2321.28 6808.67,2198.91 7161.39,3726.72 6631.33,3849.09" fill="rgb(5,0,0)" fill-opacity="0.502"/>
<circle cx="4160.00" cy="1168.00" r="32.00" fill="rgb(163,166,142)" fill-opacity="0.502"/>
<polygon points="6296.75,1975.31 6056.69,2232.75 5799.25,1992.69 6039.31,1735.25" fill="rgb(7,0,0)" fill-opacity="0.502"/>
<polygon points="1664.49,4385.67 1261.93,4647.10 1183.51,4526.33 1586.07,4264.90" fill="rgb(243,123,85)" fill-opacity="0.502"/>
<polygon points="4512.27,4377.78 4568.82,4111.73 4975.73,4198.22 4919.18,4464.27" fill="rgb(12,5,4)" fill-opacity="0.502"/>
<polygon points="1253.61,1198.03 1097.42,847.23 1594.39,625.97 1750.58,976.77" fill="rgb(11,3,11)" fill-opacity="0.502"/>
<polygon points="4919.99,1062.22 4819.87,1694.34 4488.01,1641.78 4588.13,1009.66" fill="rgb(7,1,0)" fill-opacity="0.502"/>
<polygon points="4046.81,2863.75 3831.10,2758.54 3873.19,2672.25 4088.90,2777.46" fill="rgb(42,9,1)" fill-opacity="0.502"/>
<g transform="translate(5072.00 848.00) rotate(205) scale(352.00 64.00)"><ellipse cx="0" cy="0" rx="1" ry="1" fill="rgb(112,39,24)" fill-opacity="0.502"/></g>
<circle cx="5200.00" cy="1456.00" r="48.00" fill="rgb(222,126,108)" fill-opacity="0.502"/>
<polygon points="5453.97,3493.34 5600.94,4539.07 5490.03,4554.66 5343.06,3508.93" fill="rgb(75,55,55)" fill-opacity="0.502"/>
<circle cx="1184.00" cy="3360.00" r="96.00" fill="rgb(122,46,38)" fill-opacity="0.502"/>
<polygon points="5086.59,3435.68 4882.81,3940.07 4289.41,3700.32 4493.19,3195.93" fill="rgb(7,0,0)" fill-opacity="0.502"/>
<circle cx="5440.00" cy="1392.00" r="64.00" fill="rgb(141,63,59)" fill-opacity="0.502"/>
<circle cx="400.00" cy="4240.00" r="688.00" fill="rgb(0,0,0)" fill-opacity="0.502"/>
<polygon points="4493.95,342.39 4785.96,702.99 4674.05,793.61 4382.04,433.01" fill="rgb(169,69,46)" fill-opacity="0.502"/>
<polygon points="1096.01,4122.62 1220.12,3898.72 1527.99,4069.38 1403.88,4293.28" fill="rgb(200,89,57)" fill-opacity="0.502"/>
<polygon points="4225.14,2234.09 4240.73,2123.18 4430.86,2149.91 4415.27,2260.82" fill="rgb(96,22,7)" fill-opacity="0.502"/>
<polygon points="5495.57,3624.36 5042.46,3826.10 5016.43,3767.64 5469.54,3565.90" fill="rgb(126,61,54)" fill-opacity="0.502"/>
<polygon points="4045.10,2802.33 3959.45,2707.20 4018.90,2653.67 4104.55,2748.80" fill="rgb(110,23,12)" fill-opacity="0.502"/>
<circle cx="1264.00" cy="272.00" r="176.00" fill="rgb(12,1,13)" fill-opacity="0.502"/>
<polygon points="5257.56,3730.01 5380.13,3832.86 5174.44,4077.99 5051.87,3975.14" fill="rgb(12,4,1)" fill-opacity="0.502"/>
<polygon points="1107.45,1702.17 1605.89,1016.12 1916.55,1241.83 1418.11,1927.88" fill="rgb(16,0,7)" fill-opacity="0.502"/>
<circle cx="4800.00" cy="1792.00" r="112.00" fill="rgb(219,112,88)" fill-opacity="0.502"/>
<circle cx="1456.00" cy="4048.00" r="208.00" fill="rgb(205,88,58)" fill-opacity="0.502"/>
<polygon points="3119.50,2347.15 3323.03,2474.33 3136.50,2772.85 2932.97,2645.67" fill="rgb(3,0,0)" fill-opacity="0.502"/>
<polygon points="2860.85,2082.75 3047.02,2418.60 2739.15,2589.25 2552.98,2253.40" fill="rgb(17,1,0)" fill-opacity="0.502"/>
<polygon points="4584.38,4296.04 4724.94,4401.96 4551.62,4631.96 4411.06,4526.04" fill="rgb(20,11,12)" fill-opacity="0.502"/>
<circle cx="4320.00" cy="128.00" r="48.00" fill="rgb(73,32,37)" fill-opacity="0.502"/>
<circle cx="608.00" cy="224.00" r="496.00" fill="rgb(0,0,0)" fill-opacity="0.502"/>
<polygon points="1379.74,2230.77 1482.86,2715.93 1420.26,2729.23 1317.14,2244.07" fill="rgb(7,0,0)" fill-opacity="0.502"/>
<g transform="translate(2080.00 4464.00) rotate(292) scale(80.00 448.00)"><ellipse cx="0" cy="0" rx="1" ry="1" fill="rgb(6,0,0)" fill-opacity="0.502"/></g>
<g transform="translate(5888.00 3968.00) rotate(329) scale(320.00 432.00)"><ellipse cx="0" cy="0" rx="1" ry="1" fill="rgb(8,1,0)" fill-opacity="0.502"/></g>
<circle cx="4928.00" cy="2160.00" r="144.00" fill="rgb(160,59,38)" fill-opacity="0.502"/>
<g transform="translate(4048.00 3504.00) rotate(250) scale(288.00 192.00)"><ellipse cx="0" cy="0" rx="1" ry="1" fill="rgb(9,0,0)" fill-opacity="0.502"/></g>
<g transform="translate(4976.00 16.00) rotate(108) scale(112.00 240.00)"><ellipse cx="0" cy="0" rx="1" ry="1" fill="rgb(85,20,15)" fill-opacity="0.502"/></g>
<circle cx="4832.00" cy="1024.00" r="64.00" fill="rgb(70,57,56)" fill-opacity="0.502"/>
<polygon points="4261.84,2034.18 4392.35,1973.32 4426.16,2045.82 4295.65,2106.68" fill="rgb(205,93,62)" fill-opacity="0.502"/>
<polygon points="4303.51,1264.38 3881.83,946.62 3968.49,831.62 4390.17,1149.38" fill="rgb(4,0,0)" fill-opacity="0.502"/>
<g transform="translate(3760.00 992.00) rotate(324) scale(128.00 496.00)"><ellipse cx="0" cy="0" rx="1" ry="1" fill="rgb(11,0,0)" fill-opacity="0.502"/></g>
<polygon points="6458.30,2026.43 6353.06,2064.74 6325.70,1989.57 6430.94,1951.26" fill="rgb(153,79,71)" fill-opacity="0.502"/>
<g transform="translate(3824.00 592.00) rotate(161) scale(272.00 384.00)"><ellipse cx="0" cy="0" rx="1" ry="1" fill="rgb(13,0,0)" fill-opacity="0.502"/></g>
<polygon points="4376.62,2171.06 4510.81,2083.92 4615.38,2244.94 4481.19,2332.08" fill="rgb(169,70,53)" fill-opacity="0.502"/>
<g transform="translate(5760.00 976.00) rotate(210) scale(144.00 128.00)"><ellipse cx="0" cy="0" rx="1" ry="1" fill="rgb(45,10,7)" fill-opacity="0.502"/></g>
<g transform="translate(3616.00 768.00) rotate(91) scale(304.00 480.00)"><ellipse cx="0" cy="0" rx="1" ry="1" fill="rgb(15,0,0)" fill-opacity="0.502"/></g>
<polygon points="1399.48,2704.12 1350.73,3101.13 1112.52,3071.88 1161.27,2674.87" fill="rgb(86,24,19)" fill-opacity="0.502"/>
<g transform="translate(4000.00 2304.00) rotate(70) scale(48.00 128.00)"><ellipse cx="0" cy="0" rx="1" ry="1" fill="rgb(42,0,1)" fill-opacity="0.502"/></g>
<polygon points="5427.33,4229.09 5346.81,4348.48 4988.67,4106.91 5069.19,3987.52" fill="rgb(12,4,1)" fill-opacity="0.502"/>
<g transform="translate(4928.00 3232.00) rotate(280) scale(272.00 48.00)"><ellipse cx="0" cy="0" rx="1" ry="1" fill="rgb(9,0,0)" fill-opacity="0.502"/></g>
<circle cx="4096.00" cy="2192.00" r="48.00" fill="rgb(227,103,89)" fill-opacity="0.502"/>
<circle cx="2640.00" cy="3024.00" r="400.00" fill="rgb(4,0,0)" fill-opacity="0.502"/>
<polygon points="1611.27,3776.70 1564.69,3995.81 1204.73,3919.30 1251.31,3700.19" fill="rgb(181,71,47)" fill-opacity="0.502"/>
<polygon points="6198.95,1524.74 5930.19,997.27 6201.05,859.26 6469.81,1386.73" fill="rgb(7,0,0)" fill-opacity="0.502"/>
<circle cx="6000.00" cy="3968.00" r="464.00" fill="rgb(7,1,0)" fill-opacity="0.502"/>
<circle cx="4304.00" cy="3152.00" r="48.00" fill="rgb(50,12,18)" fill-opacity="0.502"/>
<polygon points="6347.19,2320.55 6311.91,2197.50 6388.81,2175.45 6424.09,2298.50" fill="rgb(42,8,0)" fill-opacity="0.502"/>
<polygon points="3946.15,1647.43 4259.16,1713.97 4245.85,1776.57 3932.84,1710.03" fill="rgb(237,109,89)" fill-opacity="0.502"/>
<g transform="translate(3360.00 4336.00) rotate(47) scale(256.00 320.00)"><ellipse cx="0" cy="0" rx="1" ry="1" fill="rgb(17,3,0)" fill-opacity="0.502"/></g>
<circle cx="1280.00" cy="3568.00" r="192.00" fill="rgb(153,58,38)" fill-opacity="0.502"/>
<g transform="translate(6752.00 1280.00) rotate(318) scale(448.00 160.00)"><ellipse cx="0" cy="0" rx="1" ry="1" fill="rgb(5,0,0)" fill-opacity="0.502"/></g>
<g transform="translate(7664.00 1296.00) rotate(93) scale(3728.00 560.00)"><ellipse cx="0" cy="0" rx="1" ry="1" fill="rgb(0,0,0)" fill-opacity="0.502"/></g>
<polygon points="5436.80,832.86 5458.25,1007.54 5331.20,1023.14 5309.75,848.46" fill="rgb(107,30,25)" fill-opacity="0.502"/>
<circle cx="4992.00" cy="1072.00" r="144.00" fill="rgb(4,0,0)" fill-opacity="0.502"/>
<polygon points="4613.27,2816.64 4444.23,2454.12 4458.73,2447.36 4627.77,2809.88" fill="rgb(80,9,7)" fill-opacity="0.502"/>
<circle cx="3856.00" cy="0.00" r="448.00" fill="rgb(11,0,0)" fill-opacity="0.502"/>
<polygon points="5363.24,2778.58 4978.58,3163.24 4876.76,3061.42 5261.42,2676.76" fill="rgb(12,4,2)" fill-opacity="0.502"/>
<circle cx="4640.00" cy="2160.00" r="112.00" fill="rgb(198,85,63)" fill-opacity="0.502"/>
<circle cx="1296.00" cy="3008.00" r="96.00" fill="rgb(108,30,18)" fill-opacity="0.502"/>
<circle cx="4848.00" cy="2768.00" r="112.00" fill="rgb(56,15,14)" fill-opacity="0.502"/>
<polygon points="6237.49,1539.31 6339.31,1437.49 6418.51,1516.69 6316.69,1618.51" fill="rgb(163,67,61)" fill-opacity="0.502"/>
<g transform="translate(4800.00 2512.00) rotate(166) scale(192.00 80.00)"><ellipse cx="0" cy="0" rx="1" ry="1" fill="rgb(135,43,28)" fill-opacity="0.502"/></g>
<polygon points="5484.82,1362.38 5503.57,1406.57 5091.18,1581.62 5072.43,1537.43" fill="rgb(144,55,36)" fill-opacity="0.502"/>
<g transform="translate(6528.00 1408.00) rotate(21) scale(192.00 176.00)"><ellipse cx="0" cy="0" rx="1" ry="1" fill="rgb(7,0,0)" fill-opacity="0.502"/></g>
<polygon points="4837.88,953.25 4865.87,968.76 4858.12,982.75 4830.13,967.24" fill="rgb(255,255,255)" fill-opacity="0.502"/>
<circle cx="5696.00" cy="1472.00" r="96.00" fill="rgb(65,12,13)" fill-opacity="0.502"/>
<polygon points="6220.46,2130.16 5900.71,1690.05 5939.54,1661.84 6259.29,2101.95" fill="rgb(9,0,0)" fill-opacity="0.502"/>
<circle cx="3680.00" cy="320.00" r="528.00" fill="rgb(13,0,0)" fill-opacity="0.502"/>
<polygon points="4513.76,3125.70 4575.88,2893.88 4622.24,2906.30 4560.12,3138.12" fill="rgb(77,33,26)" fill-opacity="0.502"/>
<polygon points="5082.85,525.30 5257.29,638.58 5109.15,866.70 4934.71,753.42" fill="rgb(138,47,32)" fill-opacity="0.502"/>
<g transform="translate(4064.00 2528.00) rotate(223) scale(32.00 80.00)"><ellipse cx="0" cy="0" rx="1" ry="1" fill="rgb(221,103,102)" fill-opacity="0.502"/></g>
<g transform="translate(3360.00 736.00) rotate(31) scale(416.00 928.00)"><ellipse cx="0" cy="0" rx="1" ry="1" fill="rgb(15,0,0)" fill-opacity="0.502"/></g>
<polygon points="1110.81,2433.66 1145.67,2035.18 1273.19,2046.34 1238.33,2444.82" fill="rgb(25,6,11)" fill-opacity="0.502"/>
<g transform="translate(4064.00 32.00) rotate(198) scale(240.00 336.00)"><ellipse cx="0" cy="0" rx="1" ry="1" fill="rgb(8,0,0)" fill-opacity="0.502"/></g>
<polygon points="3888.90,2687.22 3860.91,2702.73 3791.10,2576.78 3819.09,2561.27" fill="rgb(150,76,80)" fill-opacity="0.502"/>
<g transform="translate(4096.00 3120.00) rotate(261) scale(64.00 176.00)"><ellipse cx="0" cy="0" rx="1" ry="1" fill="rgb(113,40,24)" fill-opacity="0.502"/></g>
<polygon points="5439.24,4264.69 5456.76,4375.31 5456.76,4375.31 5439.24,4264.69" fill="rgb(169,156,167)" fill-opacity="0.502"/>
<polygon points="1630.83,2272.25 1546.87,2225.71 1601.17,2127.75 1685.13,2174.29" fill="rgb(20,13,12)" fill-opacity="0.502"/>
<circle cx="1232.00" cy="2560.00" r="80.00" fill="rgb(58,19,20)" fill-opacity="0.502"/>
<g transform="translate(64.00 848.00) rotate(344) scale(240.00 352.00)"><ellipse cx="0" cy="0" rx="1" ry="1" fill="rgb(0,0,0)" fill-opacity="0.502"/></g>
<polygon points="4197.28,4337.78 3892.95,4238.90 4090.72,3630.22 4395.05,3729.10" fill="rgb(10,0,0)" fill-opacity="0.502"/>
<circle cx="1232.00" cy="2640.00" r="128.00" fill="rgb(54,15,15)" fill-opacity="0.502"/>
<g transform="translate(4384.00 160.00) rotate(127) scale(224.00 64.00)"><ellipse cx="0" cy="0" rx="1" ry="1" fill="rgb(106,33,27)" fill-opacity="0.502"/></g>
<circle cx="1424.00" cy="4224.00" r="144.00" fill="rgb(220,104,72)" fill-opacity="0.502"/>
<circle cx="4832.00" cy="4496.00" r="176.00" fill="rgb(18,8,7)" fill-opacity="0.502"/>
<circle cx="5680.00" cy="2240.00" r="416.00" fill="rgb(5,0,0)" fill-opacity="0.502"/>
<g transform="translate(4880.00 4336.00) rotate(233) scale(144.00 80.00)"><ellipse cx="0" cy="0" rx="1" ry="1" fill="rgb(15,8,8)" fill-opacity="0.502"/></g>
<circle cx="4336.00" cy="1008.00" r="128.00" fill="rgb(1,0,0)" fill-opacity="0.502"/>
<circle cx="4336.00" cy="1792.00" r="96.00" fill="rgb(81,8,2)" fill-opacity="0.502"/>
<circle cx="3456.00" cy="1440.00" r="432.00" fill="rgb(15,0,0)" fill-opacity="0.502"/>
<polygon points="4188.33,2385.72 4170.35,2430.23 4051.67,2382.28 4069.65,2337.77" fill="rgb(243,188,153)" fill-opacity="0.502"/>
<polygon points="4473.77,1836.85 4416.00,1760.18 4518.23,1683.15 4576.00,1759.82" fill="rgb(211,100,92)" fill-opacity="0.502"/>
<circle cx="5248.00" cy="1440.00" r="48.00" fill="rgb(170,94,73)" fill-opacity="0.502"/>
<circle cx="4144.00" cy="2208.00" r="16.00" fill="rgb(249,136,147)" fill-opacity="0.502"/>
<polygon points="5023.56,1770.01 5091.17,1642.87 5232.44,1717.99 5164.83,1845.13" fill="rgb(43,1,0)" fill-opacity="0.502"/>
<polygon points="5200.48,2355.30 5185.02,2359.44 5023.52,1756.70 5038.98,1752.56" fill="rgb(76,11,3)" fill-opacity="0.502"/>
<circle cx="5216.00" cy="4080.00" r="192.00" fill="rgb(15,6,3)" fill-opacity="0.502"/>
<circle cx="2192.00" cy="4032.00" r="512.00" fill="rgb(7,0,0)" fill-opacity="0.502"/>
<circle cx="4288.00" cy="2688.00" r="144.00" fill="rgb(169,65,42)" fill-opacity="0.502"/>
<polygon points="5205.48,1831.54 5144.48,1737.61 5466.52,1528.46 5527.52,1622.39" fill="rgb(5,0,0)" fill-opacity="0.502"/>
<circle cx="4432.00" cy="256.00" r="96.00" fill="rgb(142,44,33)" fill-opacity="0.502"/>
<polygon points="3419.01,2009.14 3834.99,1739.00 3956.99,1926.86 3541.01,2197.00" fill="rgb(17,2,1)" fill-opacity="0.502"/>
<g transform="translate(4336.00 2512.00) rotate(350) scale(16.00 240.00)"><ellipse cx="0" cy="0" rx="1" ry="1" fill="rgb(163,62,49)" fill-opacity="0.502"/></g>
<polygon points="5077.51,4727.50 5364.52,4209.72 5434.49,4248.50 5147.48,4766.28" fill="rgb(18,5,1)" fill-opacity="0.502"/>
<g transform="translate(3600.00 3472.00) rotate(85) scale(640.00 160.00)"><ellipse cx="0" cy="0" rx="1" ry="1" fill="rgb(17,3,0)" fill-opacity="0.502"/></g>
<polygon points="4075.06,2332.95 4069.20,2221.10 4260.94,2211.05 4266.80,2322.90" fill="rgb(130,41,23)" fill-opacity="0.502"/>
<circle cx="3056.00" cy="3648.00" r="208.00" fill="rgb(19,5,2)" fill-opacity="0.502"/>
<g transform="translate(5872.00 160.00) rotate(212) scale(1024.00 96.00)"><ellipse cx="0" cy="0" rx="1" ry="1" fill="rgb(8,0,0)" fill-opacity="0.502"/></g>
<circle cx="4880.00" cy="1344.00" r="272.00" fill="rgb(8,1,0)" fill-opacity="0.502"/>
<circle cx="5392.00" cy="1456.00" r="80.00" fill="rgb(141,41,25)" fill-opacity="0.502"/>
<circle cx="1136.00" cy="2192.00" r="64.00" fill="rgb(25,13,18)" fill-opacity="0.502"/>
<g transform="translate(2080.00 3824.00) rotate(277) scale(80.00 464.00)"><ellipse cx="0" cy="0" rx="1" ry="1" fill="rgb(6,0,0)" fill-opacity="0.502"/></g>
<g transform="translate(3664.00 480.00) rotate(190) scale(272.00 880.00)"><ellipse cx="0" cy="0" rx="1" ry="1" fill="rgb(14,0,0)" fill-opacity="0.502"/></g>
<circle cx="5280.00" cy="3472.00" r="112.00" fill="rgb(4,0,0)" fill-opacity="0.502"/>
<circle cx="6768.00" cy="1600.00" r="384.00" fill="rgb(5,0,0)" fill-opacity="0.502"/>
<circle cx="6112.00" cy="1664.00" r="96.00" fill="rgb(13,0,0)" fill-opacity="0.502"/>
<polygon points="5280.07,1520.70 5528.76,1722.09 5407.93,1871.30 5159.24,1669.91" fill="rgb(4,0,0)" fill-opacity="0.502"/>
<circle cx="5040.00" cy="2432.00" r="32.00" fill="rgb(80,25,13)" fill-opacity="0.502"/>
<circle cx="4672.00" cy="1808.00" r="112.00" fill="rgb(220,110,90)" fill-opacity="0.502"/>
<circle cx="2192.00" cy="3040.00" r="704.00" fill="rgb(6,0,0)" fill-opacity="0.502"/>
<circle cx="4560.00" cy="928.00" r="80.00" fill="rgb(10,0,0)" fill-opacity="0.502"/>
<polygon points="5907.85,1194.05 5836.71,1389.51 5596.15,1301.95 5667.29,1106.49" fill="rgb(4,0,0)" fill-opacity="0.502"/>
<polygon points="4776.84,2617.95 4556.78,2777.83 4519.16,2726.05 4739.22,2566.17" fill="rgb(136,48,34)" fill-opacity="0.502"/>
<g transform="translate(5920.00 3984.00) rotate(175) scale(368.00 512.00)"><ellipse cx="0" cy="0" rx="1" ry="1" fill="rgb(7,1,0)" fill-opacity="0.502"/></g>
<g transform="translate(3536.00 2416.00) rotate(301) scale(240.00 304.00)"><ellipse cx="0" cy="0" rx="1" ry="1" fill="rgb(17,2,0)" fill-opacity="0.502"/></g>
<polygon points="4553.19,2518.29 4535.64,2375.36 4646.81,2361.71 4664.36,2504.64" fill="rgb(174,81,64)" fill-opacity="0.502"/>
<polygon points="1396.65,1365.37 1522.96,1778.49 1339.35,1834.63 1213.04,1421.51" fill="rgb(16,3,9)" fill-opacity="0.502"/>
<g transform="translate(5056.00 3456.00) rotate(248) scale(288.00 240.00)"><ellipse cx="0" cy="0" rx="1" ry="1" fill="rgb(7,0,0)" fill-opacity="0.502"/></g>
<polygon points="4312.49,939.69 4223.48,975.65 4199.51,916.31 4288.52,880.35" fill="rgb(0,0,0)" fill-opacity="0.502"/>
<circle cx="4672.00" cy="1072.00" r="176.00" fill="rgb(12,6,4)" fill-opacity="0.502"/>
<g transform="translate(6016.00 3040.00) rotate(111) scale(384.00 608.00)"><ellipse cx="0" cy="0" rx="1" ry="1" fill="rgb(5,0,0)" fill-opacity="0.502"/></g>
<circle cx="1504.00" cy="4560.00" r="96.00" fill="rgb(255,137,93)" fill-opacity="0.502"/>
<circle cx="960.00" cy="3504.00" r="144.00" fill="rgb(3,0,0)" fill-opacity="0.502"/>
<circle cx="2112.00" cy="4480.00" r="384.00" fill="rgb(8,0,0)" fill-opacity="0.502"/>
<g transform="translate(2432.00 1904.00) rotate(163) scale(176.00 560.00)"><ellipse cx="0" cy="0" rx="1" ry="1" fill="rgb(8,0,0)" fill-opacity="0.502"/></g>
<g transform="translate(4784.00 4352.00) rotate(341) scale(192.00 128.00)"><ellipse cx="0" cy="0" rx="1" ry="1" fill="rgb(17,7,7)" fill-opacity="0.502"/></g>
<polygon points="5813.28,1160.88 5934.91,763.05 6026.72,791.12 5905.09,1188.95" fill="rgb(20,3,1)" fill-opacity="0.502"/>
<polygon points="667.80,2121.08 661.10,1993.25 1316.20,1958.92 1322.90,2086.75" fill="rgb(1,0,0)" fill-opacity="0.502"/>
<circle cx="1248.00" cy="3824.00" r="144.00" fill="rgb(175,70,47)" fill-opacity="0.502"/>
<circle cx="4576.00" cy="1376.00" r="336.00" fill="rgb(7,0,0)" fill-opacity="0.502"/>
<polygon points="5130.55,2069.32 5194.19,2062.63 5269.45,2778.68 5205.81,2785.37" fill="rgb(39,8,5)" fill-opacity="0.502"/>
<g transform="translate(4048.00 2544.00) rotate(197) scale(192.00 80.00)"><ellipse cx="0" cy="0" rx="1" ry="1" fill="rgb(186,71,55)" fill-opacity="0.502"/></g>
<circle cx="4448.00" cy="128.00" r="64.00" fill="rgb(134,39,27)" fill-opacity="0.502"/>
<polygon points="4218.60,2543.82 4148.89,2436.47 4229.40,2384.18 4299.11,2491.53" fill="rgb(133,37,24)" fill-opacity="0.502"/>
<g transform="translate(3584.00 2848.00) rotate(250) scale(64.00 432.00)"><ellipse cx="0" cy="0" rx="1" ry="1" fill="rgb(14,1,0)" fill-opacity="0.502"/></g>
<g transform="translate(1312.00 3984.00) rotate(155) scale(224.00 80.00)"><ellipse cx="0" cy="0" rx="1" ry="1" fill="rgb(191,78,50)" fill-opacity="0.502"/></g>
<circle cx="3296.00" cy="1536.00" r="544.00" fill="rgb(16,0,0)" fill-opacity="0.502"/>
<polygon points="3645.23,4408.37 3741.09,4260.77 3794.77,4295.63 3698.91,4443.23" fill="rgb(17,0,0)" fill-opacity="0.502"/>
<polygon points="5370.88,526.59 5128.09,343.64 5205.12,241.41 5447.91,424.36" fill="rgb(100,28,21)" fill-opacity="0.502"/>
<polygon points="1706.14,4475.49 1783.81,4419.06 1877.86,4548.51 1800.19,4604.94" fill="rgb(26,0,0)" fill-opacity="0.502"/>
<g transform="translate(5584.00 3504.00) rotate(261) scale(80.00 128.00)"><ellipse cx="0" cy="0" rx="1" ry="1" fill="rgb(122,50,34)" fill-opacity="0.502"/></g>
<polygon points="3921.22,3077.45 4228.83,3165.65 4206.78,3242.55 3899.17,3154.35" fill="rgb(80,27,17)" fill-opacity="0.502"/>
<circle cx="528.00" cy="2288.00" r="576.00" fill="rgb(0,0,0)" fill-opacity="0.502"/>
<polygon points="5010.77,4638.14 5037.23,4545.86 5037.23,4545.86 5010.77,4638.14" fill="rgb(139,121,99)" fill-opacity="0.502"/>
<circle cx="4464.00" cy="1072.00" r="192.00" fill="rgb(7,0,0)" fill-opacity="0.502"/>
<circle cx="4800.00" cy="816.00" r="80.00" fill="rgb(99,24,7)" fill-opacity="0.502"/>
<polygon points="4621.61,3227.69 4558.98,3134.83 4930.39,2884.31 4993.02,2977.17" fill="rgb(29,10,10)" fill-opacity="0.502"/>
<polygon points="4004.20,3034.75 4047.03,3082.31 3963.80,3157.25 3920.97,3109.69" fill="rgb(135,49,30)" fill-opacity="0.502"/>
<g transform="translate(6016.00 1296.00) rotate(27) scale(368.00 64.00)"><ellipse cx="0" cy="0" rx="1" ry="1" fill="rgb(8,0,0)" fill-opacity="0.502"/></g>
<g transform="translate(4976.00 2752.00) rotate(315) scale(80.00 96.00)"><ellipse cx="0" cy="0" rx="1" ry="1" fill="rgb(40,12,12)" fill-opacity="0.502"/></g>
<polygon points="3691.95,3121.95 3160.63,2660.08 3444.05,2334.05 3975.37,2795.92" fill="rgb(15,2,0)" fill-opacity="0.502"/>
<polygon points="6339.50,46.75 6941.58,-37.87 7068.50,865.25 6466.42,949.87" fill="rgb(6,0,0)" fill-opacity="0.502"/>
<polygon points="4378.64,4121.49 4543.90,4432.28 4261.36,4582.51 4096.10,4271.72" fill="rgb(6,1,0)" fill-opacity="0.502"/>
<circle cx="5008.00" cy="1648.00" r="64.00" fill="rgb(172,87,75)" fill-opacity="0.502"/>
<g transform="translate(4416.00 1232.00) rotate(207) scale(208.00 352.00)"><ellipse cx="0" cy="0" rx="1" ry="1" fill="rgb(7,0,0)" fill-opacity="0.502"/></g>
<polygon points="2839.30,3847.23 2281.43,3896.04 2264.70,3704.77 2822.57,3655.96" fill="rgb(6,0,0)" fill-opacity="0.502"/>
<polygon points="1639.68,4072.04 1653.33,4183.21 1256.32,4231.96 1242.67,4120.79" fill="rgb(211,96,64)" fill-opacity="0.502"/>
<circle cx="5360.00" cy="880.00" r="96.00" fill="rgb(102,23,13)" fill-opacity="0.502"/>
<polygon points="1320.00,392.00 1320.00,1384.00 1272.00,1384.00 1272.00,392.00" fill="rgb(13,6,21)" fill-opacity="0.502"/>
<polygon points="3098.50,4262.07 3496.40,4584.28 3365.50,4745.93 2967.60,4423.72" fill="rgb(18,3,0)" fill-opacity="0.502"/>
<polygon points="5498.40,4453.32 5909.60,4730.68 5909.60,4730.68 5498.40,4453.32" fill="rgb(0,0,0)" fill-opacity="0.502"/>
</g>
</svg>