<?xml version="1.0" standalone="no"?>
<svg xmlns="http://www.w3.org/2000/svg" width="8192" height="4608" viewBox="0 0 8192 4608" style="overflow:hidden">
<defs>
<clipPath id="c"><rect x="0" y="0" width="8192" height="4608"/></clipPath>
</defs>
<rect width="8192" height="4608" fill="rgb(65,40,27)"/>
<g clip-path="url(#c)">
<circle cx="5600.00" cy="3008.00" r="1472.00" fill="rgb(237,185,123)" fill-opacity="0.502"/>
<g transform="translate(3008.00 3776.00) rotate(3) scale(1936.00 656.00)"><ellipse cx="0" cy="0" rx="1" ry="1" fill="rgb(249,141,90)" fill-opacity="0.502"/></g>
<polygon points="2734.74,1230.13 1856.89,1168.74 1889.26,705.87 2767.11,767.26" fill="rgb(215,255,255)" fill-opacity="0.502"/>
<circle cx="8016.00" cy="1136.00" r="1984.00" fill="rgb(0,0,0)" fill-opacity="0.502"/>
<circle cx="4480.00" cy="3168.00" r="352.00" fill="rgb(57,0,0)" fill-opacity="0.502"/>
<circle cx="0.00" cy="1952.00" r="2112.00" fill="rgb(0,0,0)" fill-opacity="0.502"/>
<g transform="translate(5936.00 3104.00) rotate(195) scale(416.00 208.00)"><ellipse cx="0" cy="0" rx="1" ry="1" fill="rgb(255,255,255)" fill-opacity="0.502"/></g>
<circle cx="3520.00" cy="672.00" r="912.00" fill="rgb(0,0,0)" fill-opacity="0.502"/>
<g transform="translate(5024.00 1648.00) rotate(308) scale(192.00 224.00)"><ellipse cx="0" cy="0" rx="1" ry="1" fill="rgb(248,217,198)" fill-opacity="0.502"/></g>
<circle cx="4864.00" cy="2528.00" r="480.00" fill="rgb(253,208,148)" fill-opacity="0.502"/>
<circle cx="7856.00" cy="3840.00" r="848.00" fill="rgb(0,0,0)" fill-opacity="0.502"/>
<circle cx="5968.00" cy="1088.00" r="656.00" fill="rgb(95,21,6)" fill-opacity="0.502"/>
<circle cx="6608.00" cy="3552.00" r="496.00" fill="rgb(228,111,66)" fill-opacity="0.502"/>
<g transform="translate(5184.00 1984.00) rotate(286) scale(128.00 2960.00)"><ellipse cx="0" cy="0" rx="1" ry="1" fill="rgb(0,0,0)" fill-opacity="0.502"/></g>
<g transform="translate(352.00 3712.00) rotate(360) scale(752.00 4592.00)"><ellipse cx="0" cy="0" rx="1" ry="1" fill="rgb(0,0,0)" fill-opacity="0.502"/></g>
<g transform="translate(1776.00 2032.00) rotate(355) scale(704.00 576.00)"><ellipse cx="0" cy="0" rx="1" ry="1" fill="rgb(104,4,2)" fill-opacity="0.502"/></g>
<circle cx="3568.00" cy="2208.00" r="832.00" fill="rgb(1,0,0)" fill-opacity="0.502"/>
<circle cx="2272.00" cy="320.00" r="432.00" fill="rgb(0,0,2)" fill-opacity="0.502"/>
<circle cx="8176.00" cy="1216.00" r="1504.00" fill="rgb(0,0,0)" fill-opacity="0.502"/>
<circle cx="5264.00" cy="0.00" r="1056.00" fill="rgb(0,0,0)" fill-opacity="0.502"/>
<g transform="translate(4128.00 3920.00) rotate(207) scale(1856.00 672.00)"><ellipse cx="0" cy="0" rx="1" ry="1" fill="rgb(172,92,55)" fill-opacity="0.502"/></g>
<g transform="translate(4848.00 2208.00) rotate(181) scale(480.00 96.00)"><ellipse cx="0" cy="0" rx="1" ry="1" fill="rgb(242,255,232)" fill-opacity="0.502"/></g>
<circle cx="1360.00" cy="368.00" r="656.00" fill="rgb(0,0,2)" fill-opacity="0.502"/>
<circle cx="5808.00" cy="2784.00" r="496.00" fill="rgb(203,252,158)" fill-opacity="0.502"/>
<circle cx="6496.00" cy="2864.00" r="336.00" fill="rgb(118,208,73)" fill-opacity="0.502"/>
<g transform="translate(5712.00 4528.00) rotate(168) scale(1424.00 512.00)"><ellipse cx="0" cy="0" rx="1" ry="1" fill="rgb(82,16,0)" fill-opacity="0.502"/></g>
<circle cx="2768.00" cy="400.00" r="464.00" fill="rgb(0,0,5)" fill-opacity="0.502"/>
<polygon points="7080.00,1944.00 7080.00,2408.00 6664.00,2408.00 6664.00,1944.00" fill="rgb(176,95,64)" fill-opacity="0.502"/>
<polygon points="6187.02,3039.79 5353.87,2668.85 5444.98,2464.21 6278.13,2835.15" fill="rgb(50,157,0)" fill-opacity="0.502"/>
<circle cx="5200.00" cy="3216.00" r="144.00" fill="rgb(0,0,0)" fill-opacity="0.502"/>
<g transform="translate(1856.00 3136.00) rotate(166) scale(800.00 384.00)"><ellipse cx="0" cy="0" rx="1" ry="1" fill="rgb(116,48,28)" fill-opacity="0.502"/></g>
<circle cx="6288.00" cy="2592.00" r="112.00" fill="rgb(255,255,255)" fill-opacity="0.502"/>
<polygon points="5285.87,2393.00 5343.20,2193.06 5866.13,2343.00 5808.80,2542.94" fill="rgb(255,255,255)" fill-opacity="0.502"/>
<g transform="translate(2912.00 4368.00) rotate(185) scale(1824.00 240.00)"><ellipse cx="0" cy="0" rx="1" ry="1" fill="rgb(109,39,16)" fill-opacity="0.502"/></g>
<g transform="translate(5104.00 2032.00) rotate(102) scale(96.00 1952.00)"><ellipse cx="0" cy="0" rx="1" ry="1" fill="rgb(0,1,0)" fill-opacity="0.502"/></g>
<polygon points="8192.53,4582.50 7120.70,4601.21 7087.47,2697.50 8159.30,2678.79" fill="rgb(0,0,0)" fill-opacity="0.502"/>
<polygon points="4256.00,560.00 4736.00,560.00 4736.00,1312.00 4256.00,1312.00" fill="rgb(110,10,0)" fill-opacity="0.502"/>
<circle cx="5536.00" cy="1136.00" r="592.00" fill="rgb(116,44,25)" fill-opacity="0.502"/>
<g transform="translate(4240.00 240.00) rotate(269) scale(496.00 4592.00)"><ellipse cx="0" cy="0" rx="1" ry="1" fill="rgb(0,0,5)" fill-opacity="0.502"/></g>
<circle cx="3760.00" cy="3728.00" r="448.00" fill="rgb(205,137,99)" fill-opacity="0.502"/>
<g transform="translate(6880.00 3824.00) rotate(241) scale(224.00 208.00)"><ellipse cx="0" cy="0" rx="1" ry="1" fill="rgb(216,135,91)" fill-opacity="0.502"/></g>
<g transform="translate(0.00 3680.00) rotate(220) scale(1264.00 848.00)"><ellipse cx="0" cy="0" rx="1" ry="1" fill="rgb(0,0,0)" fill-opacity="0.502"/></g>
<g transform="translate(4960.00 3216.00) rotate(252) scale(128.00 288.00)"><ellipse cx="0" cy="0" rx="1" ry="1" fill="rgb(0,0,0)" fill-opacity="0.502"/></g>
<circle cx="5760.00" cy="3696.00" r="384.00" fill="rgb(232,134,96)" fill-opacity="0.502"/>
<circle cx="5488.00" cy="1776.00" r="176.00" fill="rgb(255,207,173)" fill-opacity="0.502"/>
<g transform="translate(1936.00 976.00) rotate(93) scale(272.00 96.00)"><ellipse cx="0" cy="0" rx="1" ry="1" fill="rgb(190,251,196)" fill-opacity="0.502"/></g>
<g transform="translate(4816.00 4304.00) rotate(28) scale(384.00 368.00)"><ellipse cx="0" cy="0" rx="1" ry="1" fill="rgb(147,69,36)" fill-opacity="0.502"/></g>
<circle cx="6912.00" cy="2800.00" r="176.00" fill="rgb(240,201,130)" fill-opacity="0.502"/>
<circle cx="7792.00" cy="3232.00" r="720.00" fill="rgb(0,0,0)" fill-opacity="0.502"/>
<circle cx="4848.00" cy="3680.00" r="400.00" fill="rgb(205,123,88)" fill-opacity="0.502"/>
<g transform="translate(896.00 1008.00) rotate(100) scale(592.00 960.00)"><ellipse cx="0" cy="0" rx="1" ry="1" fill="rgb(0,0,1)" fill-opacity="0.502"/></g>
<polygon points="5346.66,1158.72 5641.28,1474.66 5325.34,1769.28 5030.72,1453.34" fill="rgb(168,106,66)" fill-opacity="0.502"/>
<circle cx="3056.00" cy="2256.00" r="576.00" fill="rgb(20,0,0)" fill-opacity="0.502"/>
<polygon points="6372.70,2797.96 6300.78,2619.94 6523.30,2530.04 6595.22,2708.06" fill="rgb(255,242,225)" fill-opacity="0.502"/>
<circle cx="2656.00" cy="1664.00" r="208.00" fill="rgb(205,103,67)" fill-opacity="0.502"/>
<g transform="translate(3488.00 864.00) rotate(84) scale(880.00 704.00)"><ellipse cx="0" cy="0" rx="1" ry="1" fill="rgb(0,0,11)" fill-opacity="0.502"/></g>
<g transform="translate(4096.00 2896.00) rotate(41) scale(160.00 224.00)"><ellipse cx="0" cy="0" rx="1" ry="1" fill="rgb(57,0,0)" fill-opacity="0.502"/></g>
<circle cx="2128.00" cy="2400.00" r="544.00" fill="rgb(64,10,5)" fill-opacity="0.502"/>
<g transform="translate(5408.00 3664.00) rotate(3) scale(1696.00 80.00)"><ellipse cx="0" cy="0" rx="1" ry="1" fill="rgb(228,161,124)" fill-opacity="0.502"/></g>
<circle cx="2912.00" cy="3712.00" r="416.00" fill="rgb(188,123,85)" fill-opacity="0.502"/>
<circle cx="2144.00" cy="1088.00" r="256.00" fill="rgb(122,179,139)" fill-opacity="0.502"/>
<circle cx="7696.00" cy="4592.00" r="816.00" fill="rgb(0,0,0)" fill-opacity="0.502"/>
<g transform="translate(256.00 3648.00) rotate(184) scale(816.00 4256.00)"><ellipse cx="0" cy="0" rx="1" ry="1" fill="rgb(0,0,0)" fill-opacity="0.502"/></g>
<circle cx="8064.00" cy="1584.00" r="1056.00" fill="rgb(0,0,0)" fill-opacity="0.502"/>
<polygon points="2598.73,4131.10 1126.95,4156.79 1113.27,3372.90 2585.05,3347.21" fill="rgb(168,104,71)" fill-opacity="0.502"/>
<g transform="translate(5200.00 2496.00) rotate(358) scale(80.00 160.00)"><ellipse cx="0" cy="0" rx="1" ry="1" fill="rgb(115,144,0)" fill-opacity="0.502"/></g>
<g transform="translate(6336.00 2032.00) rotate(30) scale(400.00 128.00)"><ellipse cx="0" cy="0" rx="1" ry="1" fill="rgb(219,162,134)" fill-opacity="0.502"/></g>
<polygon points="2473.74,757.45 2469.56,837.34 1958.26,810.55 1962.44,730.66" fill="rgb(255,255,255)" fill-opacity="0.502"/>
<polygon points="6760.00,2680.00 6760.00,2440.00 6984.00,2440.00 6984.00,2680.00" fill="rgb(0,9,0)" fill-opacity="0.502"/>
<circle cx="1232.00" cy="4592.00" r="288.00" fill="rgb(20,0,0)" fill-opacity="0.502"/>
<g transform="translate(6448.00 3024.00) rotate(128) scale(144.00 336.00)"><ellipse cx="0" cy="0" rx="1" ry="1" fill="rgb(62,105,6)" fill-opacity="0.502"/></g>
<polygon points="4099.03,1442.17 4219.06,1313.45 4300.97,1389.83 4180.94,1518.55" fill="rgb(255,255,233)" fill-opacity="0.502"/>
<circle cx="6912.00" cy="3136.00" r="208.00" fill="rgb(191,81,36)" fill-opacity="0.502"/>
<circle cx="7520.00" cy="2560.00" r="496.00" fill="rgb(0,0,0)" fill-opacity="0.502"/>
<circle cx="6704.00" cy="1200.00" r="384.00" fill="rgb(78,27,11)" fill-opacity="0.502"/>
<g transform="translate(5472.00 704.00) rotate(93) scale(192.00 1200.00)"><ellipse cx="0" cy="0" rx="1" ry="1" fill="rgb(68,15,3)" fill-opacity="0.502"/></g>
<circle cx="3760.00" cy="2688.00" r="480.00" fill="rgb(62,7,0)" fill-opacity="0.502"/>
<g transform="translate(1552.00 4208.00) rotate(97) scale(160.00 432.00)"><ellipse cx="0" cy="0" rx="1" ry="1" fill="rgb(111,51,31)" fill-opacity="0.502"/></g>
<g transform="translate(4432.00 3728.00) rotate(322) scale(544.00 336.00)"><ellipse cx="0" cy="0" rx="1" ry="1" fill="rgb(187,117,79)" fill-opacity="0.502"/></g>
<g transform="translate(5424.00 2928.00) rotate(186) scale(432.00 208.00)"><ellipse cx="0" cy="0" rx="1" ry="1" fill="rgb(249,157,137)" fill-opacity="0.502"/></g>
<polygon points="2305.36,741.72 2202.45,1078.34 2110.64,1050.28 2213.55,713.66" fill="rgb(43,17,11)" fill-opacity="0.502"/>
<polygon points="4427.06,1680.86 4331.06,1847.14 3956.94,1631.14 4052.94,1464.86" fill="rgb(120,62,47)" fill-opacity="0.502"/>
<circle cx="5920.00" cy="3104.00" r="208.00" fill="rgb(255,235,255)" fill-opacity="0.502"/>
<g transform="translate(3632.00 1888.00) rotate(314) scale(448.00 608.00)"><ellipse cx="0" cy="0" rx="1" ry="1" fill="rgb(6,1,7)" fill-opacity="0.502"/></g>
<circle cx="1776.00" cy="304.00" r="464.00" fill="rgb(0,0,18)" fill-opacity="0.502"/>
<circle cx="1584.00" cy="2416.00" r="496.00" fill="rgb(85,24,15)" fill-opacity="0.502"/>
<polygon points="4725.27,2847.71 4762.10,3374.43 4506.73,3392.29 4469.90,2865.57" fill="rgb(23,0,3)" fill-opacity="0.502"/>
<circle cx="5520.00" cy="3392.00" r="224.00" fill="rgb(143,69,45)" fill-opacity="0.502"/>
<g transform="translate(5520.00 4048.00) rotate(268) scale(144.00 1584.00)"><ellipse cx="0" cy="0" rx="1" ry="1" fill="rgb(151,75,38)" fill-opacity="0.502"/></g>
<polygon points="5997.41,1330.82 5821.60,1707.85 5618.59,1613.18 5794.40,1236.15" fill="rgb(0,3,0)" fill-opacity="0.502"/>
<polygon points="3048.58,1482.70 2451.80,2039.21 2375.42,1957.30 2972.20,1400.79" fill="rgb(148,71,49)" fill-opacity="0.502"/>
<circle cx="6016.00" cy="4592.00" r="432.00" fill="rgb(69,29,11)" fill-opacity="0.502"/>
<circle cx="6944.00" cy="1792.00" r="160.00" fill="rgb(103,35,19)" fill-opacity="0.502"/>
<g transform="translate(5920.00 3152.00) rotate(25) scale(368.00 128.00)"><ellipse cx="0" cy="0" rx="1" ry="1" fill="rgb(255,255,255)" fill-opacity="0.502"/></g>
<polygon points="4514.13,2424.51 4401.11,2364.42 4573.87,2039.49 4686.89,2099.58" fill="rgb(252,255,255)" fill-opacity="0.502"/>
<circle cx="2896.00" cy="3008.00" r="352.00" fill="rgb(102,42,21)" fill-opacity="0.502"/>
<g transform="translate(4448.00 1504.00) rotate(185) scale(192.00 288.00)"><ellipse cx="0" cy="0" rx="1" ry="1" fill="rgb(0,0,6)" fill-opacity="0.502"/></g>
<circle cx="6624.00" cy="3344.00" r="224.00" fill="rgb(174,62,29)" fill-opacity="0.502"/>
<g transform="translate(2608.00 3184.00) rotate(85) scale(176.00 1488.00)"><ellipse cx="0" cy="0" rx="1" ry="1" fill="rgb(117,60,33)" fill-opacity="0.502"/></g>
<circle cx="2512.00" cy="2208.00" r="224.00" fill="rgb(21,2,4)" fill-opacity="0.502"/>
<g transform="translate(5232.00 3552.00) rotate(76) scale(256.00 416.00)"><ellipse cx="0" cy="0" rx="1" ry="1" fill="rgb(209,129,92)" fill-opacity="0.502"/></g>
<g transform="translate(2608.00 944.00) rotate(114) scale(96.00 208.00)"><ellipse cx="0" cy="0" rx="1" ry="1" fill="rgb(241,255,255)" fill-opacity="0.502"/></g>
<g transform="translate(4672.00 2096.00) rotate(148) scale(80.00 48.00)"><ellipse cx="0" cy="0" rx="1" ry="1" fill="rgb(255,255,255)" fill-opacity="0.502"/></g>
<g transform="translate(4784.00 2528.00) rotate(261) scale(336.00 272.00)"><ellipse cx="0" cy="0" rx="1" ry="1" fill="rgb(199,125,67)" fill-opacity="0.502"/></g>
<circle cx="7440.00" cy="4352.00" r="384.00" fill="rgb(0,0,0)" fill-opacity="0.502"/>
<circle cx="2176.00" cy="1664.00" r="320.00" fill="rgb(44,0,0)" fill-opacity="0.502"/>
<polygon points="5186.02,3077.90 5296.15,2382.57 5469.98,2410.10 5359.85,3105.43" fill="rgb(227,138,77)" fill-opacity="0.502"/>
<g transform="translate(5920.00 2480.00) rotate(106) scale(80.00 1232.00)"><ellipse cx="0" cy="0" rx="1" ry="1" fill="rgb(255,255,255)" fill-opacity="0.502"/></g>
<polygon points="5969.30,2989.45 5341.96,2797.66 5374.70,2690.55 6002.04,2882.34" fill="rgb(205,152,92)" fill-opacity="0.502"/>
<circle cx="5648.00" cy="848.00" r="320.00" fill="rgb(98,18,4)" fill-opacity="0.502"/>
<g transform="translate(6224.00 2432.00) rotate(287) scale(64.00 1184.00)"><ellipse cx="0" cy="0" rx="1" ry="1" fill="rgb(15,88,0)" fill-opacity="0.502"/></g>
<circle cx="6624.00" cy="112.00" r="608.00" fill="rgb(0,3,9)" fill-opacity="0.502"/>
<g transform="translate(2928.00 2592.00) rotate(14) scale(688.00 320.00)"><ellipse cx="0" cy="0" rx="1" ry="1" fill="rgb(56,9,2)" fill-opacity="0.502"/></g>
<g transform="translate(6720.00 4544.00) rotate(75) scale(208.00 416.00)"><ellipse cx="0" cy="0" rx="1" ry="1" fill="rgb(23,13,6)" fill-opacity="0.502"/></g>
<circle cx="4336.00" cy="2912.00" r="128.00" fill="rgb(194,124,99)" fill-opacity="0.502"/>
<polygon points="1919.20,1033.40 1989.76,787.32 2112.80,822.60 2042.24,1068.68" fill="rgb(225,255,255)" fill-opacity="0.502"/>
<polygon points="4160.00,1312.00 4224.00,1312.00 4224.00,1488.00 4160.00,1488.00" fill="rgb(255,255,230)" fill-opacity="0.502"/>
<circle cx="7328.00" cy="3152.00" r="256.00" fill="rgb(0,0,0)" fill-opacity="0.502"/>
<g transform="translate(6048.00 1584.00) rotate(119) scale(96.00 448.00)"><ellipse cx="0" cy="0" rx="1" ry="1" fill="rgb(135,72,39)" fill-opacity="0.502"/></g>
<g transform="translate(6224.00 4320.00) rotate(254) scale(192.00 928.00)"><ellipse cx="0" cy="0" rx="1" ry="1" fill="rgb(89,37,19)" fill-opacity="0.502"/></g>
<g transform="translate(4896.00 96.00) rotate(182) scale(1312.00 432.00)"><ellipse cx="0" cy="0" rx="1" ry="1" fill="rgb(0,1,9)" fill-opacity="0.502"/></g>
<circle cx="4784.00" cy="1200.00" r="384.00" fill="rgb(71,24,16)" fill-opacity="0.502"/>
<polygon points="5625.66,2892.21 5612.43,2938.35 5366.34,2867.79 5379.57,2821.65" fill="rgb(71,0,0)" fill-opacity="0.502"/>
<polygon points="3562.65,4105.31 3795.64,3936.03 4021.35,4246.69 3788.36,4415.97" fill="rgb(140,72,37)" fill-opacity="0.502"/>
<g transform="translate(4496.00 1952.00) rotate(263) scale(144.00 32.00)"><ellipse cx="0" cy="0" rx="1" ry="1" fill="rgb(191,156,120)" fill-opacity="0.502"/></g>
<g transform="translate(2000.00 3104.00) rotate(149) scale(528.00 208.00)"><ellipse cx="0" cy="0" rx="1" ry="1" fill="rgb(93,42,26)" fill-opacity="0.502"/></g>
<circle cx="5840.00" cy="2624.00" r="32.00" fill="rgb(255,255,255)" fill-opacity="0.502"/>
<polygon points="6016.67,2785.68 6180.35,2961.20 6063.33,3070.32 5899.65,2894.80" fill="rgb(165,90,47)" fill-opacity="0.502"/>
<g transform="translate(5152.00 3232.00) rotate(360) scale(448.00 96.00)"><ellipse cx="0" cy="0" rx="1" ry="1" fill="rgb(8,0,0)" fill-opacity="0.502"/></g>
<circle cx="416.00" cy="2048.00" r="688.00" fill="rgb(0,0,0)" fill-opacity="0.502"/>
<circle cx="5280.00" cy="1488.00" r="192.00" fill="rgb(135,86,57)" fill-opacity="0.502"/>
<polygon points="7762.17,3532.77 7585.06,4047.13 7085.83,3875.23 7262.94,3360.87" fill="rgb(0,0,0)" fill-opacity="0.502"/>
<g transform="translate(6736.00 2864.00) rotate(281) scale(48.00 80.00)"><ellipse cx="0" cy="0" rx="1" ry="1" fill="rgb(14,228,6)" fill-opacity="0.502"/></g>
<circle cx="2560.00" cy="1472.00" r="64.00" fill="rgb(213,115,73)" fill-opacity="0.502"/>
<circle cx="512.00" cy="4208.00" r="592.00" fill="rgb(0,0,0)" fill-opacity="0.502"/>
<circle cx="5904.00" cy="1888.00" r="160.00" fill="rgb(225,185,164)" fill-opacity="0.502"/>
<circle cx="1344.00" cy="2960.00" r="240.00" fill="rgb(67,27,17)" fill-opacity="0.502"/>
<g transform="translate(4880.00 1696.00) rotate(162) scale(128.00 128.00)"><ellipse cx="0" cy="0" rx="1" ry="1" fill="rgb(233,206,178)" fill-opacity="0.502"/></g>
<g transform="translate(7952.00 944.00) rotate(274) scale(3760.00 832.00)"><ellipse cx="0" cy="0" rx="1" ry="1" fill="rgb(0,0,0)" fill-opacity="0.502"/></g>
<g transform="translate(3968.00 704.00) rotate(287) scale(480.00 320.00)"><ellipse cx="0" cy="0" rx="1" ry="1" fill="rgb(0,1,10)" fill-opacity="0.502"/></g>
<circle cx="2224.00" cy="784.00" r="48.00" fill="rgb(255,255,255)" fill-opacity="0.502"/>
<polygon points="6748.26,1761.19 6423.34,1933.95 6355.74,1806.81 6680.66,1634.05" fill="rgb(1,0,0)" fill-opacity="0.502"/>
<polygon points="3270.46,4008.36 2949.27,3651.65 3353.54,3287.64 3674.73,3644.35" fill="rgb(193,126,88)" fill-opacity="0.502"/>
<polygon points="5619.20,2761.93 5539.80,2771.68 5500.80,2454.07 5580.20,2444.32" fill="rgb(61,226,25)" fill-opacity="0.502"/>
<polygon points="1535.32,1217.64 1853.56,1184.20 1888.68,1518.36 1570.44,1551.80" fill="rgb(0,0,16)" fill-opacity="0.502"/>
<g transform="translate(2608.00 3536.00) rotate(153) scale(656.00 208.00)"><ellipse cx="0" cy="0" rx="1" ry="1" fill="rgb(173,109,74)" fill-opacity="0.502"/></g>
<polygon points="4962.82,1547.14 5160.60,1441.97 5213.18,1540.86 5015.40,1646.03" fill="rgb(235,206,182)" fill-opacity="0.502"/>
<circle cx="2304.00" cy="1536.00" r="208.00" fill="rgb(15,0,11)" fill-opacity="0.502"/>
<g transform="translate(7120.00 2432.00) rotate(294) scale(32.00 768.00)"><ellipse cx="0" cy="0" rx="1" ry="1" fill="rgb(5,3,0)" fill-opacity="0.502"/></g>
<circle cx="6832.00" cy="3424.00" r="256.00" fill="rgb(206,112,67)" fill-opacity="0.502"/>
<circle cx="3104.00" cy="1088.00" r="352.00" fill="rgb(3,6,13)" fill-opacity="0.502"/>
<polygon points="5036.45,1777.31 4637.97,1742.45 4643.55,1678.69 5042.03,1713.55" fill="rgb(66,37,21)" fill-opacity="0.502"/>
<circle cx="4064.00" cy="1456.00" r="128.00" fill="rgb(99,19,15)" fill-opacity="0.502"/>
<polygon points="1264.00,2096.00 1792.00,2096.00 1792.00,2272.00 1264.00,2272.00" fill="rgb(125,43,34)" fill-opacity="0.502"/>
<g transform="translate(2832.00 1824.00) rotate(215) scale(112.00 176.00)"><ellipse cx="0" cy="0" rx="1" ry="1" fill="rgb(8,6,0)" fill-opacity="0.502"/></g>
<polygon points="4961.71,1022.87 5616.81,1057.20 5614.29,1105.13 4959.19,1070.80" fill="rgb(144,96,85)" fill-opacity="0.502"/>
<polygon points="5799.82,1227.65 5937.53,1269.75 5928.18,1300.35 5790.47,1258.25" fill="rgb(255,255,255)" fill-opacity="0.502"/>
<circle cx="2256.00" cy="4544.00" r="352.00" fill="rgb(87,34,15)" fill-opacity="0.502"/>
<circle cx="2224.00" cy="1776.00" r="256.00" fill="rgb(84,8,6)" fill-opacity="0.502"/>
<polygon points="6202.99,3018.65 6301.05,2936.37 6661.01,3365.35 6562.95,3447.63" fill="rgb(198,78,48)" fill-opacity="0.502"/>
<g transform="translate(3040.00 4096.00) rotate(10) scale(384.00 128.00)"><ellipse cx="0" cy="0" rx="1" ry="1" fill="rgb(155,80,43)" fill-opacity="0.502"/></g>
<g transform="translate(2608.00 2240.00) rotate(284) scale(80.00 928.00)"><ellipse cx="0" cy="0" rx="1" ry="1" fill="rgb(28,5,6)" fill-opacity="0.502"/></g>
<polygon points="4827.78,3713.00 3863.80,3865.68 3796.22,3439.00 4760.20,3286.32" fill="rgb(196,123,87)" fill-opacity="0.502"/>
<polygon points="3355.73,3294.77 3430.27,3016.58 3940.27,3153.23 3865.73,3431.42" fill="rgb(141,75,40)" fill-opacity="0.502"/>
<circle cx="4624.00" cy="1200.00" r="128.00" fill="rgb(182,56,30)" fill-opacity="0.502"/>
<circle cx="7632.00" cy="624.00" r="576.00" fill="rgb(0,0,0)" fill-opacity="0.502"/>
<polygon points="5348.03,1879.05 5163.46,1826.13 5211.97,1656.95 5396.54,1709.87" fill="rgb(255,244,213)" fill-opacity="0.502"/>
<circle cx="6112.00" cy="1040.00" r="272.00" fill="rgb(78,20,8)" fill-opacity="0.502"/>
<g transform="translate(2224.00 1184.00) rotate(68) scale(64.00 224.00)"><ellipse cx="0" cy="0" rx="1" ry="1" fill="rgb(176,243,185)" fill-opacity="0.502"/></g>
<polygon points="5563.00,1262.59 5264.59,1320.59 5173.00,849.41 5471.41,791.41" fill="rgb(85,24,13)" fill-opacity="0.502"/>
<polygon points="6761.75,3008.13 6630.96,3125.90 6438.25,2911.87 6569.04,2794.10" fill="rgb(1,188,0)" fill-opacity="0.502"/>
<polygon points="6401.97,3025.12 6286.88,2913.97 6398.03,2798.88 6513.12,2910.03" fill="rgb(39,205,36)" fill-opacity="0.502"/>
<polygon points="5797.62,1565.68 5761.03,1393.53 6058.38,1330.32 6094.97,1502.47" fill="rgb(23,10,3)" fill-opacity="0.502"/>
<circle cx="1392.00" cy="1072.00" r="400.00" fill="rgb(0,0,19)" fill-opacity="0.502"/>
<polygon points="5157.37,1612.27 5190.21,1522.06 5370.63,1587.73 5337.79,1677.94" fill="rgb(0,0,0)" fill-opacity="0.502"/>
<polygon points="5317.98,1511.82 5391.46,1427.29 5802.02,1784.18 5728.54,1868.71" fill="rgb(138,62,34)" fill-opacity="0.502"/>
<polygon points="6969.39,1710.35 6594.93,1361.17 6758.61,1185.65 7133.07,1534.83" fill="rgb(63,19,7)" fill-opacity="0.502"/>
<polygon points="4576.09,2859.71 4237.98,2565.80 4447.91,2324.29 4786.02,2618.20" fill="rgb(181,109,90)" fill-opacity="0.502"/>
<polygon points="4585.03,3226.22 4539.16,3106.72 4822.97,2997.78 4868.84,3117.28" fill="rgb(40,13,5)" fill-opacity="0.502"/>
<g transform="translate(1296.00 3984.00) rotate(326) scale(112.00 304.00)"><ellipse cx="0" cy="0" rx="1" ry="1" fill="rgb(133,72,52)" fill-opacity="0.502"/></g>
<polygon points="5737.63,2930.71 5655.34,2980.15 5622.37,2925.29 5704.66,2875.85" fill="rgb(129,51,34)" fill-opacity="0.502"/>
<circle cx="4304.00" cy="4256.00" r="176.00" fill="rgb(154,82,46)" fill-opacity="0.502"/>
<circle cx="2000.00" cy="1152.00" r="144.00" fill="rgb(102,139,103)" fill-opacity="0.502"/>
<polygon points="3050.45,3799.50 1884.44,4005.10 1845.55,3784.50 3011.56,3578.90" fill="rgb(187,119,82)" fill-opacity="0.502"/>
<g transform="translate(5984.00 2000.00) rotate(283) scale(64.00 496.00)"><ellipse cx="0" cy="0" rx="1" ry="1" fill="rgb(220,204,171)" fill-opacity="0.502"/></g>
<circle cx="2800.00" cy="400.00" r="464.00" fill="rgb(0,1,12)" fill-opacity="0.502"/>
<polygon points="1384.95,3399.00 1594.57,3848.53 1319.05,3977.00 1109.43,3527.47" fill="rgb(151,93,62)" fill-opacity="0.502"/>
<circle cx="4640.00" cy="1952.00" r="64.00" fill="rgb(164,173,93)" fill-opacity="0.502"/>
<circle cx="6944.00" cy="4112.00" r="160.00" fill="rgb(93,35,12)" fill-opacity="0.502"/>
<g transform="translate(5552.00 1184.00) rotate(223) scale(48.00 16.00)"><ellipse cx="0" cy="0" rx="1" ry="1" fill="rgb(216,231,206)" fill-opacity="0.502"/></g>
<polygon points="7003.71,3248.35 6434.65,3085.17 6452.29,3023.65 7021.35,3186.83" fill="rgb(221,161,110)" fill-opacity="0.502"/>
<polygon points="4749.75,1890.00 4685.99,1884.42 4722.25,1470.00 4786.01,1475.58" fill="rgb(93,75,67)" fill-opacity="0.502"/>
<g transform="translate(5088.00 1184.00) rotate(183) scale(336.00 96.00)"><ellipse cx="0" cy="0" rx="1" ry="1" fill="rgb(45,12,5)" fill-opacity="0.502"/></g>
<g transform="translate(5344.00 1424.00) rotate(290) scale(80.00 256.00)"><ellipse cx="0" cy="0" rx="1" ry="1" fill="rgb(211,117,61)" fill-opacity="0.502"/></g>
<g transform="translate(5024.00 3328.00) rotate(267) scale(48.00 896.00)"><ellipse cx="0" cy="0" rx="1" ry="1" fill="rgb(150,74,45)" fill-opacity="0.502"/></g>
<polygon points="5328.12,1355.22 5613.79,1251.25 5695.88,1476.78 5410.21,1580.75" fill="rgb(164,68,22)" fill-opacity="0.502"/>
<polygon points="7021.11,2274.23 7011.22,2304.66 6706.89,2205.77 6716.78,2175.34" fill="rgb(255,255,213)" fill-opacity="0.502"/>
<circle cx="4224.00" cy="3696.00" r="224.00" fill="rgb(199,131,93)" fill-opacity="0.502"/>
<polygon points="1664.22,1521.36 1647.46,2001.07 1119.78,1982.64 1136.54,1502.93" fill="rgb(88,10,7)" fill-opacity="0.502"/>
<polygon points="2151.97,1403.85 1823.31,1473.71 1800.03,1364.15 2128.69,1294.29" fill="rgb(27,0,0)" fill-opacity="0.502"/>
<polygon points="5479.85,3790.65 5444.80,4011.90 5176.15,3969.35 5211.20,3748.10" fill="rgb(195,113,76)" fill-opacity="0.502"/>
<polygon points="2135.47,4707.70 1106.54,4470.15 1160.53,4236.30 2189.46,4473.85" fill="rgb(64,21,12)" fill-opacity="0.502"/>
<polygon points="4598.74,670.49 5142.00,642.02 5161.26,1009.51 4618.00,1037.98" fill="rgb(34,8,0)" fill-opacity="0.502"/>
<g transform="translate(4464.00 2128.00) rotate(328) scale(48.00 80.00)"><ellipse cx="0" cy="0" rx="1" ry="1" fill="rgb(100,108,26)" fill-opacity="0.502"/></g>
<circle cx="4784.00" cy="2800.00" r="112.00" fill="rgb(248,177,167)" fill-opacity="0.502"/>
<polygon points="6468.88,3488.11 6675.07,3400.59 6875.12,3871.89 6668.93,3959.41" fill="rgb(169,107,69)" fill-opacity="0.502"/>
<circle cx="2256.00" cy="416.00" r="288.00" fill="rgb(0,1,18)" fill-opacity="0.502"/>
<g transform="translate(5984.00 1456.00) rotate(300) scale(16.00 560.00)"><ellipse cx="0" cy="0" rx="1" ry="1" fill="rgb(65,29,13)" fill-opacity="0.502"/></g>
<polygon points="6533.58,2077.49 6498.51,2005.58 6570.42,1970.51 6605.49,2042.42" fill="rgb(92,24,0)" fill-opacity="0.502"/>
<g transform="translate(6832.00 2176.00) rotate(18) scale(288.00 32.00)"><ellipse cx="0" cy="0" rx="1" ry="1" fill="rgb(177,142,99)" fill-opacity="0.502"/></g>
<polygon points="4132.22,3058.77 4204.13,2374.54 4267.78,2381.23 4195.87,3065.46" fill="rgb(35,0,0)" fill-opacity="0.502"/>
<circle cx="6976.00" cy="3568.00" r="96.00" fill="rgb(255,176,135)" fill-opacity="0.502"/>
<circle cx="192.00" cy="3184.00" r="928.00" fill="rgb(0,0,0)" fill-opacity="0.502"/>
<polygon points="2529.44,1069.51 2673.35,1074.54 2670.56,1154.49 2526.65,1149.46" fill="rgb(0,0,0)" fill-opacity="0.502"/>
<g transform="translate(6608.00 2416.00) rotate(198) scale(1936.00 112.00)"><ellipse cx="0" cy="0" rx="1" ry="1" fill="rgb(0,0,0)" fill-opacity="0.502"/></g>
<g transform="translate(6144.00 2016.00) rotate(205) scale(256.00 112.00)"><ellipse cx="0" cy="0" rx="1" ry="1" fill="rgb(157,119,95)" fill-opacity="0.502"/></g>
<g transform="translate(6208.00 2512.00) rotate(218) scale(176.00 64.00)"><ellipse cx="0" cy="0" rx="1" ry="1" fill="rgb(255,255,217)" fill-opacity="0.502"/></g>
<circle cx="6880.00" cy="2976.00" r="112.00" fill="rgb(255,86,39)" fill-opacity="0.502"/>
<circle cx="1520.00" cy="576.00" r="352.00" fill="rgb(10,5,16)" fill-opacity="0.502"/>
<circle cx="2336.00" cy="2560.00" r="336.00" fill="rgb(71,18,9)" fill-opacity="0.502"/>
<circle cx="2416.00" cy="992.00" r="64.00" fill="rgb(12,49,6)" fill-opacity="0.502"/>
<polygon points="4211.12,2372.38 4294.47,2130.32 4460.88,2187.62 4377.53,2429.68" fill="rgb(97,56,39)" fill-opacity="0.502"/>
<polygon points="1869.17,2775.26 1105.38,2694.98 1138.83,2376.74 1902.62,2457.02" fill="rgb(47,10,4)" fill-opacity="0.502"/>
<circle cx="5248.00" cy="1392.00" r="160.00" fill="rgb(171,102,57)" fill-opacity="0.502"/>
<g transform="translate(3344.00 720.00) rotate(126) scale(384.00 592.00)"><ellipse cx="0" cy="0" rx="1" ry="1" fill="rgb(1,2,8)" fill-opacity="0.502"/></g>
<polygon points="4434.11,1279.02 4260.79,1309.58 4221.89,1088.98 4395.21,1058.42" fill="rgb(140,37,21)" fill-opacity="0.502"/>
<polygon points="2215.09,876.67 2263.39,918.65 2168.91,1027.33 2120.61,985.35" fill="rgb(0,0,0)" fill-opacity="0.502"/>
<circle cx="288.00" cy="496.00" r="976.00" fill="rgb(0,0,0)" fill-opacity="0.502"/>
<circle cx="5056.00" cy="2432.00" r="64.00" fill="rgb(255,233,228)" fill-opacity="0.502"/>
<polygon points="3057.37,1978.77 3069.93,2218.44 2558.63,2245.23 2546.07,2005.56" fill="rgb(0,3,9)" fill-opacity="0.502"/>
<polygon points="6224.00,4272.00 5600.00,4272.00 5600.00,3984.00 6224.00,3984.00" fill="rgb(138,69,35)" fill-opacity="0.502"/>
<circle cx="4608.00" cy="1600.00" r="112.00" fill="rgb(0,1,8)" fill-opacity="0.502"/>
<g transform="translate(7904.00 3056.00) rotate(306) scale(960.00 736.00)"><ellipse cx="0" cy="0" rx="1" ry="1" fill="rgb(0,0,0)" fill-opacity="0.502"/></g>
<g transform="translate(1952.00 2944.00) rotate(69) scale(144.00 560.00)"><ellipse cx="0" cy="0" rx="1" ry="1" fill="rgb(79,34,20)" fill-opacity="0.502"/></g>
<polygon points="2561.39,1071.87 2194.79,1103.95 2190.61,1056.13 2557.21,1024.05" fill="rgb(227,255,228)" fill-opacity="0.502"/>
<circle cx="4960.00" cy="2768.00" r="112.00" fill="rgb(180,72,43)" fill-opacity="0.502"/>
<g transform="translate(864.00 4448.00) rotate(318) scale(208.00 320.00)"><ellipse cx="0" cy="0" rx="1" ry="1" fill="rgb(0,0,0)" fill-opacity="0.502"/></g>
<circle cx="5968.00" cy="2496.00" r="96.00" fill="rgb(255,255,252)" fill-opacity="0.502"/>
<g transform="translate(3488.00 1200.00) rotate(172) scale(400.00 32.00)"><ellipse cx="0" cy="0" rx="1" ry="1" fill="rgb(46,32,27)" fill-opacity="0.502"/></g>
<polygon points="4832.82,1651.29 4850.34,1540.67 5103.18,1580.71 5085.66,1691.33" fill="rgb(255,253,223)" fill-opacity="0.502"/>
<g transform="translate(3072.00 192.00) rotate(165) scale(896.00 672.00)"><ellipse cx="0" cy="0" rx="1" ry="1" fill="rgb(4,4,12)" fill-opacity="0.502"/></g>
<circle cx="4848.00" cy="1728.00" r="64.00" fill="rgb(150,113,90)" fill-opacity="0.502"/>
<g transform="translate(4480.00 3152.00) rotate(298) scale(192.00 64.00)"><ellipse cx="0" cy="0" rx="1" ry="1" fill="rgb(38,16,10)" fill-opacity="0.502"/></g>
<g transform="translate(3552.00 1456.00) rotate(219) scale(480.00 464.00)"><ellipse cx="0" cy="0" rx="1" ry="1" fill="rgb(15,7,10)" fill-opacity="0.502"/></g>
<g transform="translate(3920.00 48.00) rotate(81) scale(320.00 64.00)"><ellipse cx="0" cy="0" rx="1" ry="1" fill="rgb(28,14,22)" fill-opacity="0.502"/></g>
<polygon points="1993.37,2186.04 1653.96,1846.63 2038.63,1461.96 2378.04,1801.37" fill="rgb(79,7,5)" fill-opacity="0.502"/>
<circle cx="6640.00" cy="3360.00" r="144.00" fill="rgb(178,66,25)" fill-opacity="0.502"/>
<polygon points="5919.29,1285.37 5923.43,1269.92 6000.71,1290.63 5996.57,1306.08" fill="rgb(255,255,255)" fill-opacity="0.502"/>
<polygon points="5594.57,4273.00 5682.13,4513.56 5381.43,4623.00 5293.87,4382.44" fill="rgb(90,34,16)" fill-opacity="0.502"/>
<circle cx="2176.00" cy="896.00" r="64.00" fill="rgb(0,0,0)" fill-opacity="0.502"/>
<polygon points="4495.96,1208.88 4737.53,1567.02 4512.04,1719.12 4270.47,1360.98" fill="rgb(19,15,16)" fill-opacity="0.502"/>
<circle cx="4096.00" cy="3168.00" r="160.00" fill="rgb(119,32,11)" fill-opacity="0.502"/>
<polygon points="3152.71,1192.47 3282.14,1129.34 3359.29,1287.53 3229.86,1350.66" fill="rgb(50,50,47)" fill-opacity="0.502"/>
<g transform="translate(6224.00 3856.00) rotate(359) scale(864.00 80.00)"><ellipse cx="0" cy="0" rx="1" ry="1" fill="rgb(186,115,79)" fill-opacity="0.502"/></g>
<polygon points="5015.46,2976.46 5102.75,3070.07 5032.54,3135.54 4945.25,3041.93" fill="rgb(25,0,0)" fill-opacity="0.502"/>
<circle cx="2736.00" cy="4368.00" r="176.00" fill="rgb(108,49,29)" fill-opacity="0.502"/>
<polygon points="5521.21,2074.82 4929.30,2085.15 4926.79,1941.18 5518.70,1930.85" fill="rgb(0,0,0)" fill-opacity="0.502"/>
<polygon points="2415.83,2312.70 2400.20,1864.97 2448.17,1863.30 2463.80,2311.03" fill="rgb(41,6,8)" fill-opacity="0.502"/>
<g transform="translate(4416.00 2208.00) rotate(37) scale(16.00 80.00)"><ellipse cx="0" cy="0" rx="1" ry="1" fill="rgb(217,228,112)" fill-opacity="0.502"/></g>
<polygon points="4742.81,1223.13 4990.09,1156.87 5081.19,1496.87 4833.91,1563.13" fill="rgb(56,31,30)" fill-opacity="0.502"/>
<polygon points="1642.33,2096.71 2033.86,2279.28 1925.67,2511.29 1534.14,2328.72" fill="rgb(90,24,18)" fill-opacity="0.502"/>
<polygon points="6461.01,1816.32 6449.40,1862.90 5874.99,1719.68 5886.60,1673.10" fill="rgb(28,0,0)" fill-opacity="0.502"/>
<polygon points="6443.61,1628.20 6379.33,1826.02 5892.39,1667.80 5956.67,1469.98" fill="rgb(140,77,44)" fill-opacity="0.502"/>
<circle cx="2528.00" cy="1808.00" r="64.00" fill="rgb(234,127,102)" fill-opacity="0.502"/>
<polygon points="2196.95,3137.74 2246.96,2854.12 3019.05,2990.26 2969.04,3273.88" fill="rgb(123,63,37)" fill-opacity="0.502"/>
<polygon points="5114.54,1193.24 5447.27,1240.00 5429.46,1366.76 5096.73,1320.00" fill="rgb(134,47,8)" fill-opacity="0.502"/>
<circle cx="2320.00" cy="880.00" r="80.00" fill="rgb(199,255,214)" fill-opacity="0.502"/>
<circle cx="6928.00" cy="2048.00" r="128.00" fill="rgb(136,24,0)" fill-opacity="0.502"/>
<polygon points="5511.89,1170.08 5108.24,1069.44 5112.11,1053.92 5515.76,1154.56" fill="rgb(255,255,255)" fill-opacity="0.502"/>
<polygon points="4529.31,2632.04 4887.88,2714.83 4862.69,2823.96 4504.12,2741.17" fill="rgb(246,165,130)" fill-opacity="0.502"/>
<circle cx="6384.00" cy="1440.00" r="224.00" fill="rgb(55,34,22)" fill-opacity="0.502"/>
<polygon points="3470.43,3643.84 3840.99,3364.60 4033.57,3620.16 3663.01,3899.40" fill="rgb(200,129,93)" fill-opacity="0.502"/>
<polygon points="2314.85,1136.98 2340.20,1343.43 2213.15,1359.02 2187.80,1152.57" fill="rgb(150,204,163)" fill-opacity="0.502"/>
<polygon points="6011.04,2860.88 5451.29,2668.15 5492.96,2547.12 6052.71,2739.85" fill="rgb(51,233,44)" fill-opacity="0.502"/>
<polygon points="5108.09,2108.46 5129.98,2168.60 5099.91,2179.54 5078.02,2119.40" fill="rgb(135,255,144)" fill-opacity="0.502"/>
<polygon points="4953.39,2956.02 4968.99,2828.98 5286.61,2867.98 5271.01,2995.02" fill="rgb(254,176,127)" fill-opacity="0.502"/>
<circle cx="6576.00" cy="1504.00" r="48.00" fill="rgb(216,162,141)" fill-opacity="0.502"/>
<circle cx="4960.00" cy="1264.00" r="144.00" fill="rgb(29,12,11)" fill-opacity="0.502"/>
<polygon points="4483.84,777.84 4701.70,1113.31 4460.16,1270.16 4242.30,934.69" fill="rgb(97,15,6)" fill-opacity="0.502"/>
<polygon points="5229.45,2846.43 5706.24,2983.15 5666.55,3121.57 5189.76,2984.85" fill="rgb(250,196,170)" fill-opacity="0.502"/>
<g transform="translate(1408.00 128.00) rotate(12) scale(192.00 816.00)"><ellipse cx="0" cy="0" rx="1" ry="1" fill="rgb(11,3,17)" fill-opacity="0.502"/></g>
<polygon points="3781.16,443.32 4129.13,-35.62 4426.84,180.68 4078.87,659.62" fill="rgb(7,5,14)" fill-opacity="0.502"/>
<circle cx="7664.00" cy="4592.00" r="608.00" fill="rgb(0,0,0)" fill-opacity="0.502"/>
<polygon points="6998.04,2401.64 6991.79,2416.37 6873.96,2366.36 6880.21,2351.63" fill="rgb(255,236,205)" fill-opacity="0.502"/>
<circle cx="5264.00" cy="2720.00" r="144.00" fill="rgb(159,123,70)" fill-opacity="0.502"/>
<g transform="translate(5632.00 928.00) rotate(240) scale(224.00 272.00)"><ellipse cx="0" cy="0" rx="1" ry="1" fill="rgb(93,21,6)" fill-opacity="0.502"/></g>
<polygon points="4289.89,4175.93 4250.99,3955.33 5086.11,3808.07 5125.01,4028.67" fill="rgb(171,101,62)" fill-opacity="0.502"/>
<circle cx="7040.00" cy="2400.00" r="64.00" fill="rgb(92,72,59)" fill-opacity="0.502"/>
<g transform="translate(3488.00 3488.00) rotate(34) scale(144.00 224.00)"><ellipse cx="0" cy="0" rx="1" ry="1" fill="rgb(180,111,76)" fill-opacity="0.502"/></g>
<circle cx="3552.00" cy="4048.00" r="144.00" fill="rgb(162,92,56)" fill-opacity="0.502"/>
<g transform="translate(6240.00 1296.00) rotate(26) scale(512.00 48.00)"><ellipse cx="0" cy="0" rx="1" ry="1" fill="rgb(75,19,9)" fill-opacity="0.502"/></g>
<g transform="translate(5008.00 4208.00) rotate(163) scale(736.00 128.00)"><ellipse cx="0" cy="0" rx="1" ry="1" fill="rgb(144,72,38)" fill-opacity="0.502"/></g>
<g transform="translate(5888.00 2464.00) rotate(351) scale(64.00 80.00)"><ellipse cx="0" cy="0" rx="1" ry="1" fill="rgb(255,255,255)" fill-opacity="0.502"/></g>
<circle cx="5664.00" cy="1904.00" r="96.00" fill="rgb(229,216,190)" fill-opacity="0.502"/>
<circle cx="5232.00" cy="2384.00" r="48.00" fill="rgb(93,255,22)" fill-opacity="0.502"/>
<polygon points="2405.14,1559.61 2254.28,1468.97 2410.86,1208.39 2561.72,1299.03" fill="rgb(0,0,4)" fill-opacity="0.502"/>
<circle cx="6224.00" cy="0.00" r="528.00" fill="rgb(0,6,10)" fill-opacity="0.502"/>
<g transform="translate(6800.00 2048.00) rotate(296) scale(80.00 320.00)"><ellipse cx="0" cy="0" rx="1" ry="1" fill="rgb(124,41,19)" fill-opacity="0.502"/></g>
<polygon points="4430.78,2388.56 3891.48,2841.09 3665.22,2571.44 4204.52,2118.91" fill="rgb(46,9,2)" fill-opacity="0.502"/>
<polygon points="4056.21,1270.37 4043.79,1316.73 3703.79,1225.63 3716.21,1179.27" fill="rgb(144,27,30)" fill-opacity="0.502"/>
<polygon points="5567.43,3096.61 5019.62,2918.61 5024.57,2903.39 5572.38,3081.39" fill="rgb(255,255,220)" fill-opacity="0.502"/>
<g transform="translate(6672.00 1168.00) rotate(300) scale(336.00 368.00)"><ellipse cx="0" cy="0" rx="1" ry="1" fill="rgb(53,16,5)" fill-opacity="0.502"/></g>
<circle cx="752.00" cy="2528.00" r="368.00" fill="rgb(0,0,0)" fill-opacity="0.502"/>
<polygon points="4929.40,2526.93 4805.76,2493.80 4830.60,2401.07 4954.24,2434.20" fill="rgb(56,227,23)" fill-opacity="0.502"/>
<polygon points="5707.39,1527.27 5699.03,1606.83 5412.61,1576.73 5420.97,1497.17" fill="rgb(28,11,9)" fill-opacity="0.502"/>
<g transform="translate(4544.00 2272.00) rotate(119) scale(240.00 64.00)"><ellipse cx="0" cy="0" rx="1" ry="1" fill="rgb(240,255,227)" fill-opacity="0.502"/></g>
<polygon points="2489.22,1190.13 2204.77,1145.08 2214.78,1081.87 2499.23,1126.92" fill="rgb(202,255,218)" fill-opacity="0.502"/>
<polygon points="3417.07,2977.24 3434.62,2834.31 3926.93,2894.76 3909.38,3037.69" fill="rgb(76,27,9)" fill-opacity="0.502"/>
<polygon points="2691.96,891.53 2685.27,827.88 2908.04,804.47 2914.73,868.12" fill="rgb(0,2,3)" fill-opacity="0.502"/>
<g transform="translate(4064.00 4032.00) rotate(272) scale(112.00 432.00)"><ellipse cx="0" cy="0" rx="1" ry="1" fill="rgb(173,101,62)" fill-opacity="0.502"/></g>
<polygon points="5075.59,1986.96 4970.27,2085.16 4828.41,1933.04 4933.73,1834.84" fill="rgb(0,0,5)" fill-opacity="0.502"/>
<g transform="translate(5152.00 2240.00) rotate(202) scale(512.00 32.00)"><ellipse cx="0" cy="0" rx="1" ry="1" fill="rgb(255,255,245)" fill-opacity="0.502"/></g>
<polygon points="5851.15,2937.14 5895.65,2800.19 6260.85,2918.86 6216.35,3055.81" fill="rgb(147,92,40)" fill-opacity="0.502"/>
<polygon points="6995.62,3734.88 7026.80,3727.68 7084.38,3977.12 7053.20,3984.32" fill="rgb(207,119,70)" fill-opacity="0.502"/>
<circle cx="4288.00" cy="2688.00" r="64.00" fill="rgb(115,52,53)" fill-opacity="0.502"/>
<polygon points="2700.19,1427.78 2640.31,1709.49 2483.81,1676.22 2543.69,1394.51" fill="rgb(184,98,67)" fill-opacity="0.502"/>
<g transform="translate(4912.00 1776.00) rotate(92) scale(48.00 128.00)"><ellipse cx="0" cy="0" rx="1" ry="1" fill="rgb(249,214,185)" fill-opacity="0.502"/></g>
<circle cx="5040.00" cy="2112.00" r="32.00" fill="rgb(138,255,120)" fill-opacity="0.502"/>
<polygon points="6534.80,2575.43 6388.89,2477.01 6505.20,2304.57 6651.11,2402.99" fill="rgb(0,20,2)" fill-opacity="0.502"/>
<polygon points="6437.22,529.18 6483.79,748.29 6170.78,814.82 6124.21,595.71" fill="rgb(48,22,14)" fill-opacity="0.502"/>
<polygon points="6350.56,1506.77 6190.65,1501.18 6193.44,1421.23 6353.35,1426.82" fill="rgb(0,0,0)" fill-opacity="0.502"/>
<circle cx="4544.00" cy="2448.00" r="80.00" fill="rgb(182,103,76)" fill-opacity="0.502"/>
<circle cx="4000.00" cy="3312.00" r="128.00" fill="rgb(156,79,47)" fill-opacity="0.502"/>
<g transform="translate(5088.00 2880.00) rotate(133) scale(352.00 16.00)"><ellipse cx="0" cy="0" rx="1" ry="1" fill="rgb(243,173,127)" fill-opacity="0.502"/></g>
<g transform="translate(4576.00 2976.00) rotate(344) scale(96.00 160.00)"><ellipse cx="0" cy="0" rx="1" ry="1" fill="rgb(41,17,15)" fill-opacity="0.502"/></g>
<polygon points="5080.00,3224.00 5080.00,3288.00 4392.00,3288.00 4392.00,3224.00" fill="rgb(13,0,0)" fill-opacity="0.502"/>
<polygon points="6590.17,4616.91 6078.48,4599.04 6081.83,4503.09 6593.52,4520.96" fill="rgb(41,22,9)" fill-opacity="0.502"/>
<polygon points="3352.37,4511.70 3337.03,4336.37 3703.63,4304.30 3718.97,4479.63" fill="rgb(120,52,24)" fill-opacity="0.502"/>
<circle cx="2656.00" cy="4144.00" r="128.00" fill="rgb(147,78,46)" fill-opacity="0.502"/>
<circle cx="3600.00" cy="2544.00" r="320.00" fill="rgb(39,8,0)" fill-opacity="0.502"/>
<circle cx="4816.00" cy="1440.00" r="64.00" fill="rgb(144,92,56)" fill-opacity="0.502"/>
<g transform="translate(7552.00 2304.00) rotate(176) scale(448.00 1888.00)"><ellipse cx="0" cy="0" rx="1" ry="1" fill="rgb(0,0,0)" fill-opacity="0.502"/></g>
<polygon points="4796.57,1723.82 4321.66,2020.57 4211.43,1844.18 4686.34,1547.43" fill="rgb(34,21,25)" fill-opacity="0.502"/>
<g transform="translate(560.00 2320.00) rotate(164) scale(480.00 1040.00)"><ellipse cx="0" cy="0" rx="1" ry="1" fill="rgb(0,0,0)" fill-opacity="0.502"/></g>
<g transform="translate(2512.00 1840.00) rotate(92) scale(208.00 16.00)"><ellipse cx="0" cy="0" rx="1" ry="1" fill="rgb(225,131,115)" fill-opacity="0.502"/></g>
<circle cx="4224.00" cy="2176.00" r="64.00" fill="rgb(118,89,95)" fill-opacity="0.502"/>
<circle cx="608.00" cy="4416.00" r="496.00" fill="rgb(0,0,0)" fill-opacity="0.502"/>
<polygon points="2083.04,2161.24 2774.65,1909.51 2812.96,2014.76 2121.35,2266.49" fill="rgb(27,10,5)" fill-opacity="0.502"/>
<g transform="translate(6848.00 800.00) rotate(92) scale(160.00 224.00)"><ellipse cx="0" cy="0" rx="1" ry="1" fill="rgb(32,14,2)" fill-opacity="0.502"/></g>
<circle cx="2704.00" cy="1104.00" r="64.00" fill="rgb(134,216,133)" fill-opacity="0.502"/>
<g transform="translate(3216.00 1920.00) rotate(270) scale(320.00 480.00)"><ellipse cx="0" cy="0" rx="1" ry="1" fill="rgb(11,7,8)" fill-opacity="0.502"/></g>
<polygon points="2420.66,931.64 2440.01,1009.26 2331.34,1036.36 2311.99,958.74" fill="rgb(0,15,4)" fill-opacity="0.502"/>
<circle cx="4352.00" cy="3024.00" r="96.00" fill="rgb(166,105,76)" fill-opacity="0.502"/>
<circle cx="2320.00" cy="784.00" r="64.00" fill="rgb(234,255,231)" fill-opacity="0.502"/>
<g transform="translate(4944.00 4576.00) rotate(308) scale(400.00 176.00)"><ellipse cx="0" cy="0" rx="1" ry="1" fill="rgb(114,51,24)" fill-opacity="0.502"/></g>
<g transform="translate(2368.00 1696.00) rotate(34) scale(112.00 160.00)"><ellipse cx="0" cy="0" rx="1" ry="1" fill="rgb(70,7,6)" fill-opacity="0.502"/></g>
<polygon points="5317.30,3746.65 5322.88,3586.74 5626.70,3597.35 5621.12,3757.26" fill="rgb(235,167,133)" fill-opacity="0.502"/>
<polygon points="5199.08,2596.45 4943.24,2587.52 4944.92,2539.55 5200.76,2548.48" fill="rgb(44,75,0)" fill-opacity="0.502"/>
<polygon points="7075.38,3439.86 7083.74,3519.42 6924.62,3536.14 6916.26,3456.58" fill="rgb(243,132,87)" fill-opacity="0.502"/>
<circle cx="3856.00" cy="1936.00" r="304.00" fill="rgb(14,5,10)" fill-opacity="0.502"/>
<circle cx="6144.00" cy="3136.00" r="96.00" fill="rgb(252,255,255)" fill-opacity="0.502"/>
<polygon points="6965.74,4635.74 6738.82,4557.60 6874.26,4164.26 7101.18,4242.40" fill="rgb(45,21,10)" fill-opacity="0.502"/>
<polygon points="4454.74,2092.52 4460.59,2044.88 4905.26,2099.48 4899.41,2147.12" fill="rgb(252,246,218)" fill-opacity="0.502"/>
<polygon points="5557.20,2051.32 5619.83,1958.47 5818.80,2092.68 5756.17,2185.53" fill="rgb(0,0,1)" fill-opacity="0.502"/>
<polygon points="2288.00,1728.00 2048.00,1728.00 2048.00,1696.00 2288.00,1696.00" fill="rgb(0,3,3)" fill-opacity="0.502"/>
<circle cx="6032.00" cy="3152.00" r="144.00" fill="rgb(248,249,252)" fill-opacity="0.502"/>
<polygon points="4955.12,2758.21 4931.83,2867.77 4884.88,2857.79 4908.17,2748.23" fill="rgb(145,19,0)" fill-opacity="0.502"/>
<polygon points="4193.50,4247.15 4139.55,4380.66 3694.50,4200.85 3748.45,4067.34" fill="rgb(147,78,40)" fill-opacity="0.502"/>
<circle cx="2112.00" cy="144.00" r="544.00" fill="rgb(3,2,15)" fill-opacity="0.502"/>
<polygon points="6516.73,2764.23 6070.43,2803.28 6059.27,2675.77 6505.57,2636.72" fill="rgb(221,199,115)" fill-opacity="0.502"/>
<g transform="translate(1888.00 2656.00) rotate(73) scale(128.00 736.00)"><ellipse cx="0" cy="0" rx="1" ry="1" fill="rgb(58,19,9)" fill-opacity="0.502"/></g>
<g transform="translate(3472.00 3952.00) rotate(279) scale(96.00 752.00)"><ellipse cx="0" cy="0" rx="1" ry="1" fill="rgb(175,104,68)" fill-opacity="0.502"/></g>
<polygon points="6523.76,3035.41 6532.05,3004.50 6980.24,3124.59 6971.95,3155.50" fill="rgb(39,30,0)" fill-opacity="0.502"/>
<polygon points="6616.50,2847.12 6586.56,2987.97 6007.50,2864.88 6037.44,2724.03" fill="rgb(69,204,36)" fill-opacity="0.502"/>
<polygon points="4828.28,1083.60 4683.00,1368.72 4611.72,1332.40 4757.00,1047.28" fill="rgb(146,49,31)" fill-opacity="0.502"/>
<polygon points="4495.53,3226.34 5679.35,3205.67 5680.47,3269.66 4496.65,3290.33" fill="rgb(8,0,0)" fill-opacity="0.502"/>
<circle cx="2544.00" cy="3200.00" r="160.00" fill="rgb(129,67,40)" fill-opacity="0.502"/>
<circle cx="4944.00" cy="2320.00" r="64.00" fill="rgb(100,243,12)" fill-opacity="0.502"/>
<g transform="translate(3344.00 3648.00) rotate(50) scale(144.00 208.00)"><ellipse cx="0" cy="0" rx="1" ry="1" fill="rgb(197,126,89)" fill-opacity="0.502"/></g>
<polygon points="7613.00,3765.75 7331.88,3977.59 7043.00,3594.25 7324.12,3382.41" fill="rgb(1,0,0)" fill-opacity="0.502"/>
<circle cx="4240.00" cy="2848.00" r="16.00" fill="rgb(245,203,223)" fill-opacity="0.502"/>
<circle cx="1520.00" cy="112.00" r="112.00" fill="rgb(40,7,10)" fill-opacity="0.502"/>
<polygon points="6212.16,2341.51 6157.89,2375.43 5979.84,2090.49 6034.11,2056.57" fill="rgb(2,0,9)" fill-opacity="0.502"/>
<circle cx="6480.00" cy="2768.00" r="80.00" fill="rgb(169,159,38)" fill-opacity="0.502"/>
<g transform="translate(5840.00 3664.00) rotate(274) scale(32.00 432.00)"><ellipse cx="0" cy="0" rx="1" ry="1" fill="rgb(255,207,168)" fill-opacity="0.502"/></g>
<circle cx="4768.00" cy="2352.00" r="112.00" fill="rgb(254,161,99)" fill-opacity="0.502"/>
<g transform="translate(4752.00 1584.00) rotate(140) scale(32.00 48.00)"><ellipse cx="0" cy="0" rx="1" ry="1" fill="rgb(219,176,134)" fill-opacity="0.502"/></g>
<circle cx="3232.00" cy="4560.00" r="224.00" fill="rgb(95,40,19)" fill-opacity="0.502"/>
<g transform="translate(656.00 1328.00) rotate(190) scale(496.00 880.00)"><ellipse cx="0" cy="0" rx="1" ry="1" fill="rgb(0,0,0)" fill-opacity="0.502"/></g>
<polygon points="5747.27,3405.60 4310.78,3506.05 4300.73,3362.40 5737.22,3261.95" fill="rgb(167,93,59)" fill-opacity="0.502"/>
<polygon points="1792.00,4528.00 3344.00,4528.00 3344.00,4592.00 1792.00,4592.00" fill="rgb(69,28,14)" fill-opacity="0.502"/>
<polygon points="5969.48,1794.21 5980.43,1764.14 6446.52,1933.79 6435.57,1963.86" fill="rgb(243,191,166)" fill-opacity="0.502"/>
<polygon points="2476.33,3492.55 2485.23,3429.18 2643.67,3451.45 2634.77,3514.82" fill="rgb(192,127,92)" fill-opacity="0.502"/>
<circle cx="2528.00" cy="1920.00" r="64.00" fill="rgb(210,106,80)" fill-opacity="0.502"/>
<circle cx="2384.00" cy="1248.00" r="64.00" fill="rgb(1,10,1)" fill-opacity="0.502"/>
<circle cx="5872.00" cy="3392.00" r="96.00" fill="rgb(156,89,49)" fill-opacity="0.502"/>
<circle cx="5424.00" cy="1808.00" r="112.00" fill="rgb(224,192,154)" fill-opacity="0.502"/>
<polygon points="4364.18,4615.58 3822.25,4568.17 3827.82,4504.42 4369.75,4551.83" fill="rgb(69,31,12)" fill-opacity="0.502"/>
<g transform="translate(5280.00 2752.00) rotate(18) scale(560.00 16.00)"><ellipse cx="0" cy="0" rx="1" ry="1" fill="rgb(230,216,177)" fill-opacity="0.502"/></g>
<polygon points="4638.24,2663.41 4412.20,2543.23 4449.76,2472.59 4675.80,2592.77" fill="rgb(152,78,36)" fill-opacity="0.502"/>
<polygon points="5615.19,2554.58 5625.08,2524.15 6096.81,2677.42 6086.92,2707.85" fill="rgb(255,255,212)" fill-opacity="0.502"/>
<circle cx="5024.00" cy="2848.00" r="80.00" fill="rgb(239,183,138)" fill-opacity="0.502"/>
<polygon points="4814.02,2993.36 4734.07,2990.57 4737.98,2878.64 4817.93,2881.43" fill="rgb(252,240,224)" fill-opacity="0.502"/>
<polygon points="4207.91,2815.64 4361.97,2611.19 4528.09,2736.36 4374.03,2940.81" fill="rgb(161,93,71)" fill-opacity="0.502"/>
<g transform="translate(1248.00 64.00) rotate(105) scale(256.00 208.00)"><ellipse cx="0" cy="0" rx="1" ry="1" fill="rgb(0,0,13)" fill-opacity="0.502"/></g>
<polygon points="1762.56,1679.23 1755.87,1742.88 1469.44,1712.77 1476.13,1649.12" fill="rgb(9,2,0)" fill-opacity="0.502"/>
<circle cx="3408.00" cy="3376.00" r="128.00" fill="rgb(164,100,60)" fill-opacity="0.502"/>
<polygon points="4388.90,3281.83 4343.01,3347.36 4107.10,3182.17 4152.99,3116.64" fill="rgb(102,29,6)" fill-opacity="0.502"/>
<g transform="translate(7872.00 1120.00) rotate(357) scale(800.00 2480.00)"><ellipse cx="0" cy="0" rx="1" ry="1" fill="rgb(0,0,0)" fill-opacity="0.502"/></g>
<polygon points="5856.00,3712.00 7008.00,3712.00 7008.00,3824.00 5856.00,3824.00" fill="rgb(206,138,98)" fill-opacity="0.502"/>
<circle cx="1648.00" cy="1856.00" r="160.00" fill="rgb(93,10,2)" fill-opacity="0.502"/>
<polygon points="5455.86,2677.85 5945.49,2827.55 5936.14,2858.15 5446.51,2708.45" fill="rgb(51,81,0)" fill-opacity="0.502"/>
<polygon points="5400.18,2231.78 5337.82,2246.17 5319.82,2168.22 5382.18,2153.83" fill="rgb(69,247,40)" fill-opacity="0.502"/>
<circle cx="2512.00" cy="1264.00" r="80.00" fill="rgb(0,0,0)" fill-opacity="0.502"/>
<polygon points="6084.74,1384.31 6042.64,1246.60 6379.26,1143.69 6421.36,1281.40" fill="rgb(76,34,27)" fill-opacity="0.502"/>
<polygon points="6373.92,1881.86 6623.61,2106.69 6570.08,2166.14 6320.39,1941.31" fill="rgb(160,107,75)" fill-opacity="0.502"/>
<g transform="translate(3600.00 736.00) rotate(97) scale(448.00 656.00)"><ellipse cx="0" cy="0" rx="1" ry="1" fill="rgb(3,3,9)" fill-opacity="0.502"/></g>
<g transform="translate(6464.00 4256.00) rotate(347) scale(640.00 112.00)"><ellipse cx="0" cy="0" rx="1" ry="1" fill="rgb(87,40,19)" fill-opacity="0.502"/></g>
</g>
</svg>