<?xml version="1.0" standalone="no"?>
<svg xmlns="http://www.w3.org/2000/svg" width="8192" height="4608" viewBox="0 0 8192 4608" style="overflow:hidden">
<defs>
<clipPath id="c"><rect x="0" y="0" width="8192" height="4608"/></clipPath>
</defs>
<rect width="8192" height="4608" fill="rgb(45,30,30)"/>
<g clip-path="url(#c)">
<g transform="translate(5744.00 2240.00) rotate(170) scale(1392.00 1232.00)"><ellipse cx="0" cy="0" rx="1" ry="1" fill="rgb(254,157,126)" fill-opacity="0.502"/></g>
<circle cx="3872.00" cy="1696.00" r="592.00" fill="rgb(204,145,124)" fill-opacity="0.502"/>
<polygon points="3622.55,2218.11 4063.83,2562.88 3561.45,3205.89 3120.17,2861.12" fill="rgb(221,124,106)" fill-opacity="0.502"/>
<g transform="translate(4528.00 2288.00) rotate(181) scale(288.00 1072.00)"><ellipse cx="0" cy="0" rx="1" ry="1" fill="rgb(97,51,44)" fill-opacity="0.502"/></g>
<circle cx="5552.00" cy="1792.00" r="576.00" fill="rgb(210,179,162)" fill-opacity="0.502"/>
<circle cx="2032.00" cy="1536.00" r="736.00" fill="rgb(142,144,116)" fill-opacity="0.502"/>
<circle cx="96.00" cy="3504.00" r="2560.00" fill="rgb(0,0,0)" fill-opacity="0.502"/>
<circle cx="8176.00" cy="1152.00" r="1312.00" fill="rgb(0,0,0)" fill-opacity="0.502"/>
<g transform="translate(256.00 2400.00) rotate(4) scale(800.00 4544.00)"><ellipse cx="0" cy="0" rx="1" ry="1" fill="rgb(0,0,0)" fill-opacity="0.502"/></g>
<circle cx="6496.00" cy="3024.00" r="624.00" fill="rgb(138,51,34)" fill-opacity="0.502"/>
<circle cx="4064.00" cy="1584.00" r="304.00" fill="rgb(252,198,177)" fill-opacity="0.502"/>
<circle cx="2080.00" cy="656.00" r="208.00" fill="rgb(255,255,248)" fill-opacity="0.502"/>
<circle cx="5872.00" cy="4400.00" r="1008.00" fill="rgb(0,0,2)" fill-opacity="0.502"/>
<circle cx="6672.00" cy="1888.00" r="256.00" fill="rgb(255,255,255)" fill-opacity="0.502"/>
<g transform="translate(8144.00 2976.00) rotate(269) scale(8176.00 1056.00)"><ellipse cx="0" cy="0" rx="1" ry="1" fill="rgb(0,0,0)" fill-opacity="0.502"/></g>
<circle cx="2128.00" cy="2000.00" r="416.00" fill="rgb(143,118,85)" fill-opacity="0.502"/>
<g transform="translate(1376.00 1760.00) rotate(359) scale(304.00 816.00)"><ellipse cx="0" cy="0" rx="1" ry="1" fill="rgb(119,91,86)" fill-opacity="0.502"/></g>
<g transform="translate(1600.00 544.00) rotate(91) scale(64.00 528.00)"><ellipse cx="0" cy="0" rx="1" ry="1" fill="rgb(255,255,255)" fill-opacity="0.502"/></g>
<g transform="translate(4816.00 0.00) rotate(173) scale(2288.00 1280.00)"><ellipse cx="0" cy="0" rx="1" ry="1" fill="rgb(0,0,9)" fill-opacity="0.502"/></g>
<circle cx="3792.00" cy="4592.00" r="1456.00" fill="rgb(0,0,7)" fill-opacity="0.502"/>
<g transform="translate(1280.00 4016.00) rotate(43) scale(176.00 160.00)"><ellipse cx="0" cy="0" rx="1" ry="1" fill="rgb(255,255,237)" fill-opacity="0.502"/></g>
<polygon points="6654.23,2883.28 6641.38,3251.06 6001.77,3228.72 6014.62,2860.94" fill="rgb(0,0,0)" fill-opacity="0.502"/>
<g transform="translate(6656.00 1312.00) rotate(288) scale(112.00 752.00)"><ellipse cx="0" cy="0" rx="1" ry="1" fill="rgb(27,6,5)" fill-opacity="0.502"/></g>
<g transform="translate(3056.00 3504.00) rotate(292) scale(544.00 1600.00)"><ellipse cx="0" cy="0" rx="1" ry="1" fill="rgb(0,0,20)" fill-opacity="0.502"/></g>
<polygon points="3532.94,1609.00 3504.51,1879.51 3043.06,1831.00 3071.49,1560.49" fill="rgb(255,214,191)" fill-opacity="0.502"/>
<g transform="translate(3904.00 2032.00) rotate(89) scale(128.00 976.00)"><ellipse cx="0" cy="0" rx="1" ry="1" fill="rgb(13,0,0)" fill-opacity="0.502"/></g>
<polygon points="7087.37,2491.69 7072.57,3339.57 6656.63,3332.31 6671.43,2484.43" fill="rgb(238,127,99)" fill-opacity="0.502"/>
<circle cx="4192.00" cy="2768.00" r="560.00" fill="rgb(101,37,29)" fill-opacity="0.502"/>
<circle cx="7680.00" cy="4144.00" r="992.00" fill="rgb(0,0,0)" fill-opacity="0.502"/>
<circle cx="2096.00" cy="1056.00" r="208.00" fill="rgb(178,219,178)" fill-opacity="0.502"/>
<g transform="translate(6224.00 1424.00) rotate(109) scale(224.00 576.00)"><ellipse cx="0" cy="0" rx="1" ry="1" fill="rgb(95,59,44)" fill-opacity="0.502"/></g>
<circle cx="1552.00" cy="2768.00" r="400.00" fill="rgb(80,42,40)" fill-opacity="0.502"/>
<g transform="translate(5216.00 2976.00) rotate(170) scale(656.00 448.00)"><ellipse cx="0" cy="0" rx="1" ry="1" fill="rgb(203,78,46)" fill-opacity="0.502"/></g>
<circle cx="5952.00" cy="1824.00" r="240.00" fill="rgb(255,251,237)" fill-opacity="0.502"/>
<g transform="translate(2384.00 160.00) rotate(227) scale(240.00 464.00)"><ellipse cx="0" cy="0" rx="1" ry="1" fill="rgb(0,0,0)" fill-opacity="0.502"/></g>
<circle cx="1392.00" cy="160.00" r="336.00" fill="rgb(0,0,5)" fill-opacity="0.502"/>
<g transform="translate(5376.00 2272.00) rotate(82) scale(352.00 704.00)"><ellipse cx="0" cy="0" rx="1" ry="1" fill="rgb(148,90,74)" fill-opacity="0.502"/></g>
<g transform="translate(4288.00 1440.00) rotate(0) scale(544.00 96.00)"><ellipse cx="0" cy="0" rx="1" ry="1" fill="rgb(255,229,208)" fill-opacity="0.502"/></g>
<g transform="translate(6912.00 1648.00) rotate(354) scale(192.00 272.00)"><ellipse cx="0" cy="0" rx="1" ry="1" fill="rgb(227,139,113)" fill-opacity="0.502"/></g>
<g transform="translate(3472.00 2720.00) rotate(157) scale(192.00 176.00)"><ellipse cx="0" cy="0" rx="1" ry="1" fill="rgb(229,182,164)" fill-opacity="0.502"/></g>
<circle cx="5888.00" cy="4240.00" r="784.00" fill="rgb(0,0,16)" fill-opacity="0.502"/>
<g transform="translate(2720.00 1248.00) rotate(2) scale(352.00 144.00)"><ellipse cx="0" cy="0" rx="1" ry="1" fill="rgb(205,214,179)" fill-opacity="0.502"/></g>
<circle cx="256.00" cy="688.00" r="848.00" fill="rgb(0,0,0)" fill-opacity="0.502"/>
<circle cx="3216.00" cy="1184.00" r="480.00" fill="rgb(34,35,29)" fill-opacity="0.502"/>
<circle cx="2432.00" cy="848.00" r="256.00" fill="rgb(0,0,27)" fill-opacity="0.502"/>
<g transform="translate(2448.00 544.00) rotate(139) scale(144.00 112.00)"><ellipse cx="0" cy="0" rx="1" ry="1" fill="rgb(222,207,167)" fill-opacity="0.502"/></g>
<polygon points="3744.00,1632.00 3744.00,1728.00 3232.00,1728.00 3232.00,1632.00" fill="rgb(255,246,217)" fill-opacity="0.502"/>
<circle cx="2480.00" cy="304.00" r="240.00" fill="rgb(0,0,6)" fill-opacity="0.502"/>
<polygon points="2841.36,596.19 2838.01,660.10 2374.64,635.81 2377.99,571.90" fill="rgb(255,255,255)" fill-opacity="0.502"/>
<g transform="translate(1408.00 2592.00) rotate(179) scale(64.00 432.00)"><ellipse cx="0" cy="0" rx="1" ry="1" fill="rgb(148,78,65)" fill-opacity="0.502"/></g>
<polygon points="1166.02,1309.42 2701.79,1282.61 2705.98,1522.58 1170.21,1549.39" fill="rgb(0,0,0)" fill-opacity="0.502"/>
<polygon points="1100.19,1184.73 1382.74,1034.50 1427.81,1119.27 1145.26,1269.50" fill="rgb(200,232,226)" fill-opacity="0.502"/>
<g transform="translate(4400.00 1824.00) rotate(52) scale(288.00 112.00)"><ellipse cx="0" cy="0" rx="1" ry="1" fill="rgb(50,13,7)" fill-opacity="0.502"/></g>
<circle cx="7680.00" cy="2656.00" r="608.00" fill="rgb(0,0,0)" fill-opacity="0.502"/>
<circle cx="5104.00" cy="2064.00" r="400.00" fill="rgb(183,148,133)" fill-opacity="0.502"/>
<circle cx="2384.00" cy="1712.00" r="176.00" fill="rgb(197,251,192)" fill-opacity="0.502"/>
<g transform="translate(4080.00 1344.00) rotate(346) scale(128.00 176.00)"><ellipse cx="0" cy="0" rx="1" ry="1" fill="rgb(90,35,29)" fill-opacity="0.502"/></g>
<polygon points="6320.00,3248.00 7072.00,3248.00 7072.00,3648.00 6320.00,3648.00" fill="rgb(150,57,38)" fill-opacity="0.502"/>
<g transform="translate(4992.00 3664.00) rotate(76) scale(256.00 336.00)"><ellipse cx="0" cy="0" rx="1" ry="1" fill="rgb(0,0,7)" fill-opacity="0.502"/></g>
<polygon points="4508.05,1293.19 3675.63,1454.99 3635.95,1250.81 4468.37,1089.01" fill="rgb(97,66,55)" fill-opacity="0.502"/>
<g transform="translate(6464.00 880.00) rotate(150) scale(384.00 176.00)"><ellipse cx="0" cy="0" rx="1" ry="1" fill="rgb(135,56,45)" fill-opacity="0.502"/></g>
<circle cx="3488.00" cy="832.00" r="144.00" fill="rgb(125,107,103)" fill-opacity="0.502"/>
<polygon points="2541.31,535.22 945.21,423.61 978.69,-55.22 2574.79,56.39" fill="rgb(0,0,10)" fill-opacity="0.502"/>
<g transform="translate(2688.00 2272.00) rotate(194) scale(384.00 624.00)"><ellipse cx="0" cy="0" rx="1" ry="1" fill="rgb(50,7,19)" fill-opacity="0.502"/></g>
<g transform="translate(4912.00 3936.00) rotate(275) scale(480.00 3952.00)"><ellipse cx="0" cy="0" rx="1" ry="1" fill="rgb(0,0,14)" fill-opacity="0.502"/></g>
<g transform="translate(4000.00 2656.00) rotate(59) scale(768.00 320.00)"><ellipse cx="0" cy="0" rx="1" ry="1" fill="rgb(81,33,29)" fill-opacity="0.502"/></g>
<polygon points="4797.05,1830.91 5250.10,1501.75 5362.95,1657.09 4909.90,1986.25" fill="rgb(255,255,255)" fill-opacity="0.502"/>
<g transform="translate(7680.00 3360.00) rotate(268) scale(4736.00 576.00)"><ellipse cx="0" cy="0" rx="1" ry="1" fill="rgb(0,0,0)" fill-opacity="0.502"/></g>
<polygon points="4108.11,1436.54 4099.73,1676.39 3843.89,1667.46 3852.27,1427.61" fill="rgb(255,240,220)" fill-opacity="0.502"/>
<circle cx="3440.00" cy="208.00" r="624.00" fill="rgb(0,0,12)" fill-opacity="0.502"/>
<circle cx="3008.00" cy="880.00" r="288.00" fill="rgb(0,0,10)" fill-opacity="0.502"/>
<circle cx="5840.00" cy="48.00" r="896.00" fill="rgb(0,0,15)" fill-opacity="0.502"/>
<circle cx="7136.00" cy="400.00" r="496.00" fill="rgb(0,0,3)" fill-opacity="0.502"/>
<g transform="translate(6672.00 2560.00) rotate(174) scale(176.00 464.00)"><ellipse cx="0" cy="0" rx="1" ry="1" fill="rgb(191,116,95)" fill-opacity="0.502"/></g>
<polygon points="5680.00,2464.00 5168.00,2464.00 5168.00,1664.00 5680.00,1664.00" fill="rgb(137,77,60)" fill-opacity="0.502"/>
<circle cx="3136.00" cy="2784.00" r="128.00" fill="rgb(212,126,103)" fill-opacity="0.502"/>
<g transform="translate(6144.00 2256.00) rotate(353) scale(480.00 288.00)"><ellipse cx="0" cy="0" rx="1" ry="1" fill="rgb(143,104,92)" fill-opacity="0.502"/></g>
<circle cx="4368.00" cy="2688.00" r="336.00" fill="rgb(65,25,20)" fill-opacity="0.502"/>
<circle cx="5584.00" cy="3120.00" r="384.00" fill="rgb(177,71,47)" fill-opacity="0.502"/>
<circle cx="512.00" cy="4128.00" r="592.00" fill="rgb(0,0,0)" fill-opacity="0.502"/>
<circle cx="2144.00" cy="2960.00" r="576.00" fill="rgb(5,9,30)" fill-opacity="0.502"/>
<g transform="translate(928.00 528.00) rotate(319) scale(96.00 912.00)"><ellipse cx="0" cy="0" rx="1" ry="1" fill="rgb(0,0,5)" fill-opacity="0.502"/></g>
<circle cx="4736.00" cy="1392.00" r="144.00" fill="rgb(228,195,165)" fill-opacity="0.502"/>
<g transform="translate(4128.00 2448.00) rotate(173) scale(432.00 304.00)"><ellipse cx="0" cy="0" rx="1" ry="1" fill="rgb(121,57,48)" fill-opacity="0.502"/></g>
<g transform="translate(1024.00 2560.00) rotate(302) scale(256.00 384.00)"><ellipse cx="0" cy="0" rx="1" ry="1" fill="rgb(0,0,0)" fill-opacity="0.502"/></g>
<circle cx="4384.00" cy="2912.00" r="192.00" fill="rgb(19,15,20)" fill-opacity="0.502"/>
<g transform="translate(992.00 1584.00) rotate(302) scale(240.00 368.00)"><ellipse cx="0" cy="0" rx="1" ry="1" fill="rgb(0,0,0)" fill-opacity="0.502"/></g>
<circle cx="4176.00" cy="352.00" r="592.00" fill="rgb(0,0,14)" fill-opacity="0.502"/>
<g transform="translate(2848.00 1472.00) rotate(342) scale(176.00 240.00)"><ellipse cx="0" cy="0" rx="1" ry="1" fill="rgb(73,44,54)" fill-opacity="0.502"/></g>
<g transform="translate(5168.00 944.00) rotate(101) scale(336.00 400.00)"><ellipse cx="0" cy="0" rx="1" ry="1" fill="rgb(33,23,30)" fill-opacity="0.502"/></g>
<polygon points="6048.68,2835.02 6496.80,3007.04 6399.32,3260.98 5951.20,3088.96" fill="rgb(0,0,0)" fill-opacity="0.502"/>
<polygon points="1682.78,1502.20 1482.09,2025.01 1213.22,1921.80 1413.91,1398.99" fill="rgb(158,127,108)" fill-opacity="0.502"/>
<circle cx="2528.00" cy="2400.00" r="208.00" fill="rgb(109,45,31)" fill-opacity="0.502"/>
<circle cx="6672.00" cy="1888.00" r="176.00" fill="rgb(255,255,249)" fill-opacity="0.502"/>
<circle cx="6016.00" cy="1056.00" r="112.00" fill="rgb(184,123,113)" fill-opacity="0.502"/>
<circle cx="6416.00" cy="1104.00" r="256.00" fill="rgb(44,12,9)" fill-opacity="0.502"/>
<g transform="translate(1952.00 4528.00) rotate(5) scale(2624.00 336.00)"><ellipse cx="0" cy="0" rx="1" ry="1" fill="rgb(0,0,9)" fill-opacity="0.502"/></g>
<g transform="translate(368.00 2880.00) rotate(2) scale(736.00 4192.00)"><ellipse cx="0" cy="0" rx="1" ry="1" fill="rgb(0,0,0)" fill-opacity="0.502"/></g>
<polygon points="3801.04,1858.19 3770.17,1750.53 4246.96,1613.81 4277.83,1721.47" fill="rgb(148,72,53)" fill-opacity="0.502"/>
<circle cx="2608.00" cy="1264.00" r="48.00" fill="rgb(255,255,255)" fill-opacity="0.502"/>
<polygon points="5677.21,1120.29 5645.21,1175.71 5298.79,975.71 5330.79,920.29" fill="rgb(101,81,85)" fill-opacity="0.502"/>
<g transform="translate(1296.00 3376.00) rotate(272) scale(80.00 176.00)"><ellipse cx="0" cy="0" rx="1" ry="1" fill="rgb(151,158,168)" fill-opacity="0.502"/></g>
<polygon points="1496.65,2775.96 1165.03,2999.63 1111.35,2920.04 1442.97,2696.37" fill="rgb(156,89,81)" fill-opacity="0.502"/>
<circle cx="2416.00" cy="1776.00" r="64.00" fill="rgb(255,255,255)" fill-opacity="0.502"/>
<g transform="translate(5088.00 1392.00) rotate(285) scale(128.00 256.00)"><ellipse cx="0" cy="0" rx="1" ry="1" fill="rgb(117,58,45)" fill-opacity="0.502"/></g>
<circle cx="3488.00" cy="1808.00" r="96.00" fill="rgb(84,12,0)" fill-opacity="0.502"/>
<polygon points="1589.33,4132.49 1111.15,4090.66 1130.67,3867.51 1608.85,3909.34" fill="rgb(228,164,137)" fill-opacity="0.502"/>
<polygon points="1328.69,1635.28 1592.61,1569.47 1631.31,1724.72 1367.39,1790.53" fill="rgb(175,161,135)" fill-opacity="0.502"/>
<g transform="translate(6240.00 1520.00) rotate(280) scale(272.00 352.00)"><ellipse cx="0" cy="0" rx="1" ry="1" fill="rgb(126,85,72)" fill-opacity="0.502"/></g>
<circle cx="2800.00" cy="2288.00" r="112.00" fill="rgb(179,71,65)" fill-opacity="0.502"/>
<g transform="translate(1296.00 544.00) rotate(276) scale(32.00 192.00)"><ellipse cx="0" cy="0" rx="1" ry="1" fill="rgb(255,255,255)" fill-opacity="0.502"/></g>
<circle cx="1712.00" cy="1392.00" r="208.00" fill="rgb(48,13,17)" fill-opacity="0.502"/>
<polygon points="4163.55,1851.77 3650.33,1590.28 3708.45,1476.23 4221.67,1737.72" fill="rgb(225,169,149)" fill-opacity="0.502"/>
<g transform="translate(2688.00 2656.00) rotate(235) scale(192.00 688.00)"><ellipse cx="0" cy="0" rx="1" ry="1" fill="rgb(8,2,28)" fill-opacity="0.502"/></g>
<g transform="translate(2608.00 864.00) rotate(186) scale(368.00 224.00)"><ellipse cx="0" cy="0" rx="1" ry="1" fill="rgb(0,0,11)" fill-opacity="0.502"/></g>
<circle cx="6656.00" cy="1600.00" r="192.00" fill="rgb(190,131,110)" fill-opacity="0.502"/>
<polygon points="2560.00,3456.00 2560.00,3104.00 3232.00,3104.00 3232.00,3456.00" fill="rgb(0,0,16)" fill-opacity="0.502"/>
<polygon points="5564.45,1397.75 5786.78,1190.42 5939.55,1354.25 5717.22,1561.58" fill="rgb(137,51,24)" fill-opacity="0.502"/>
<circle cx="4848.00" cy="1280.00" r="48.00" fill="rgb(255,183,157)" fill-opacity="0.502"/>
<circle cx="1712.00" cy="816.00" r="224.00" fill="rgb(7,0,13)" fill-opacity="0.502"/>
<polygon points="3623.00,1889.56 3625.23,1825.60 3993.00,1838.44 3990.77,1902.40" fill="rgb(229,203,184)" fill-opacity="0.502"/>
<g transform="translate(5584.00 2128.00) rotate(102) scale(96.00 336.00)"><ellipse cx="0" cy="0" rx="1" ry="1" fill="rgb(71,48,39)" fill-opacity="0.502"/></g>
<polygon points="6410.58,824.05 6381.53,767.02 6709.42,599.95 6738.47,656.98" fill="rgb(159,139,138)" fill-opacity="0.502"/>
<g transform="translate(3024.00 64.00) rotate(89) scale(336.00 1808.00)"><ellipse cx="0" cy="0" rx="1" ry="1" fill="rgb(0,0,17)" fill-opacity="0.502"/></g>
<polygon points="4456.21,1746.12 5050.75,2023.36 4935.79,2269.88 4341.25,1992.64" fill="rgb(61,41,39)" fill-opacity="0.502"/>
<circle cx="1840.00" cy="1952.00" r="160.00" fill="rgb(34,18,2)" fill-opacity="0.502"/>
<polygon points="6376.20,760.29 6406.25,816.80 5911.80,1079.71 5881.75,1023.20" fill="rgb(180,157,154)" fill-opacity="0.502"/>
<g transform="translate(5392.00 2672.00) rotate(359) scale(624.00 304.00)"><ellipse cx="0" cy="0" rx="1" ry="1" fill="rgb(170,76,50)" fill-opacity="0.502"/></g>
<g transform="translate(3424.00 2496.00) rotate(359) scale(288.00 112.00)"><ellipse cx="0" cy="0" rx="1" ry="1" fill="rgb(95,63,65)" fill-opacity="0.502"/></g>
<polygon points="6557.96,2781.01 6262.75,2589.30 6498.04,2226.99 6793.25,2418.70" fill="rgb(198,124,105)" fill-opacity="0.502"/>
<circle cx="1216.00" cy="2304.00" r="112.00" fill="rgb(200,127,119)" fill-opacity="0.502"/>
<circle cx="4928.00" cy="704.00" r="416.00" fill="rgb(1,3,16)" fill-opacity="0.502"/>
<polygon points="5855.05,2556.49 6682.49,2469.52 6720.95,2835.51 5893.51,2922.48" fill="rgb(125,48,31)" fill-opacity="0.502"/>
<circle cx="3888.00" cy="3104.00" r="224.00" fill="rgb(101,50,39)" fill-opacity="0.502"/>
<polygon points="2348.45,530.04 2337.30,657.55 1747.55,605.96 1758.70,478.45" fill="rgb(255,255,213)" fill-opacity="0.502"/>
<circle cx="7696.00" cy="3088.00" r="608.00" fill="rgb(0,0,0)" fill-opacity="0.502"/>
<g transform="translate(5408.00 1408.00) rotate(177) scale(144.00 192.00)"><ellipse cx="0" cy="0" rx="1" ry="1" fill="rgb(255,235,217)" fill-opacity="0.502"/></g>
<polygon points="2460.05,1951.51 2483.49,2398.90 2147.95,2416.49 2124.51,1969.10" fill="rgb(108,42,32)" fill-opacity="0.502"/>
<g transform="translate(4704.00 3056.00) rotate(201) scale(144.00 320.00)"><ellipse cx="0" cy="0" rx="1" ry="1" fill="rgb(191,107,87)" fill-opacity="0.502"/></g>
<circle cx="7120.00" cy="1088.00" r="384.00" fill="rgb(5,1,5)" fill-opacity="0.502"/>
<circle cx="3456.00" cy="1408.00" r="256.00" fill="rgb(53,38,29)" fill-opacity="0.502"/>
<g transform="translate(5376.00 3136.00) rotate(278) scale(368.00 256.00)"><ellipse cx="0" cy="0" rx="1" ry="1" fill="rgb(173,85,63)" fill-opacity="0.502"/></g>
<g transform="translate(4352.00 1504.00) rotate(307) scale(96.00 112.00)"><ellipse cx="0" cy="0" rx="1" ry="1" fill="rgb(255,249,230)" fill-opacity="0.502"/></g>
<polygon points="3606.57,2759.97 3415.30,2743.24 3433.43,2536.03 3624.70,2552.76" fill="rgb(222,176,162)" fill-opacity="0.502"/>
<polygon points="6584.83,1542.18 6272.75,1737.19 6103.17,1465.82 6415.25,1270.81" fill="rgb(84,61,53)" fill-opacity="0.502"/>
<polygon points="1302.57,586.50 1553.55,855.64 1401.43,997.50 1150.45,728.36" fill="rgb(0,0,12)" fill-opacity="0.502"/>
<g transform="translate(3760.00 4336.00) rotate(95) scale(80.00 832.00)"><ellipse cx="0" cy="0" rx="1" ry="1" fill="rgb(82,38,34)" fill-opacity="0.502"/></g>
<g transform="translate(5968.00 1872.00) rotate(300) scale(112.00 304.00)"><ellipse cx="0" cy="0" rx="1" ry="1" fill="rgb(255,245,234)" fill-opacity="0.502"/></g>
<circle cx="784.00" cy="3440.00" r="464.00" fill="rgb(0,0,0)" fill-opacity="0.502"/>
<polygon points="1931.21,2749.27 1604.84,2617.41 1652.79,2498.73 1979.16,2630.59" fill="rgb(116,67,62)" fill-opacity="0.502"/>
<g transform="translate(6336.00 880.00) rotate(311) scale(464.00 96.00)"><ellipse cx="0" cy="0" rx="1" ry="1" fill="rgb(63,28,26)" fill-opacity="0.502"/></g>
<polygon points="3026.34,2672.37 3474.46,2844.38 3405.66,3023.63 2957.54,2851.62" fill="rgb(146,80,60)" fill-opacity="0.502"/>
<polygon points="1744.00,1360.00 2848.00,1360.00 2848.00,1392.00 1744.00,1392.00" fill="rgb(255,216,220)" fill-opacity="0.502"/>
<circle cx="6752.00" cy="4192.00" r="576.00" fill="rgb(0,0,13)" fill-opacity="0.502"/>
<g transform="translate(6464.00 1808.00) rotate(241) scale(96.00 672.00)"><ellipse cx="0" cy="0" rx="1" ry="1" fill="rgb(196,141,124)" fill-opacity="0.502"/></g>
<circle cx="7984.00" cy="912.00" r="928.00" fill="rgb(0,0,0)" fill-opacity="0.502"/>
<g transform="translate(1312.00 4496.00) rotate(132) scale(336.00 352.00)"><ellipse cx="0" cy="0" rx="1" ry="1" fill="rgb(0,0,17)" fill-opacity="0.502"/></g>
<circle cx="3280.00" cy="2000.00" r="176.00" fill="rgb(21,6,14)" fill-opacity="0.502"/>
<polygon points="1572.52,1986.35 1777.16,2077.46 1627.48,2413.65 1422.84,2322.54" fill="rgb(15,0,0)" fill-opacity="0.502"/>
<circle cx="5568.00" cy="1248.00" r="80.00" fill="rgb(255,255,249)" fill-opacity="0.502"/>
<polygon points="4109.93,2049.69 4781.38,1505.96 4882.07,1630.31 4210.62,2174.04" fill="rgb(37,9,7)" fill-opacity="0.502"/>
<circle cx="6208.00" cy="656.00" r="208.00" fill="rgb(4,4,19)" fill-opacity="0.502"/>
<g transform="translate(5264.00 1488.00) rotate(255) scale(32.00 256.00)"><ellipse cx="0" cy="0" rx="1" ry="1" fill="rgb(130,79,64)" fill-opacity="0.502"/></g>
<polygon points="5792.91,1641.71 5761.94,1517.51 5855.09,1494.29 5886.06,1618.49" fill="rgb(255,255,255)" fill-opacity="0.502"/>
<polygon points="4936.74,1119.43 5028.55,1091.36 5047.26,1152.57 4955.45,1180.64" fill="rgb(255,211,196)" fill-opacity="0.502"/>
<polygon points="1673.81,1070.62 1484.18,1040.59 1494.19,977.38 1683.82,1007.41" fill="rgb(255,255,255)" fill-opacity="0.502"/>
<polygon points="5736.98,1128.50 6041.50,986.50 6055.02,1015.50 5750.50,1157.50" fill="rgb(255,255,255)" fill-opacity="0.502"/>
<polygon points="2738.16,1241.25 2308.53,1286.40 2301.84,1222.75 2731.47,1177.60" fill="rgb(255,255,255)" fill-opacity="0.502"/>
<polygon points="2975.18,2392.15 2996.63,2217.46 3504.82,2279.85 3483.37,2454.54" fill="rgb(10,3,14)" fill-opacity="0.502"/>
<g transform="translate(4864.00 3888.00) rotate(112) scale(464.00 896.00)"><ellipse cx="0" cy="0" rx="1" ry="1" fill="rgb(0,0,16)" fill-opacity="0.502"/></g>
<g transform="translate(1728.00 3696.00) rotate(140) scale(336.00 368.00)"><ellipse cx="0" cy="0" rx="1" ry="1" fill="rgb(1,19,31)" fill-opacity="0.502"/></g>
<polygon points="3698.28,2551.00 4221.14,2477.52 4285.72,2937.00 3762.86,3010.48" fill="rgb(73,21,14)" fill-opacity="0.502"/>
<polygon points="6041.53,3200.97 5929.26,2833.75 5990.47,2815.03 6102.74,3182.25" fill="rgb(0,0,0)" fill-opacity="0.502"/>
<circle cx="1440.00" cy="1248.00" r="64.00" fill="rgb(255,255,255)" fill-opacity="0.502"/>
<g transform="translate(6592.00 256.00) rotate(107) scale(528.00 192.00)"><ellipse cx="0" cy="0" rx="1" ry="1" fill="rgb(0,0,16)" fill-opacity="0.502"/></g>
<circle cx="1376.00" cy="976.00" r="64.00" fill="rgb(114,135,144)" fill-opacity="0.502"/>
<g transform="translate(6336.00 1392.00) rotate(12) scale(768.00 32.00)"><ellipse cx="0" cy="0" rx="1" ry="1" fill="rgb(219,134,116)" fill-opacity="0.502"/></g>
<circle cx="4544.00" cy="1248.00" r="160.00" fill="rgb(77,39,32)" fill-opacity="0.502"/>
<polygon points="3358.30,1146.26 3145.26,1215.48 3105.70,1093.74 3318.74,1024.52" fill="rgb(60,136,27)" fill-opacity="0.502"/>
<g transform="translate(5200.00 2160.00) rotate(273) scale(320.00 96.00)"><ellipse cx="0" cy="0" rx="1" ry="1" fill="rgb(200,152,135)" fill-opacity="0.502"/></g>
<polygon points="1464.09,1793.52 1706.14,1710.17 1799.91,1982.48 1557.86,2065.83" fill="rgb(131,97,70)" fill-opacity="0.502"/>
<circle cx="5472.00" cy="1328.00" r="96.00" fill="rgb(255,255,238)" fill-opacity="0.502"/>
<polygon points="1855.69,1681.70 1977.32,2079.52 1824.31,2126.30 1702.68,1728.48" fill="rgb(44,23,9)" fill-opacity="0.502"/>
<circle cx="2080.00" cy="4144.00" r="80.00" fill="rgb(112,47,38)" fill-opacity="0.502"/>
<circle cx="4560.00" cy="3216.00" r="128.00" fill="rgb(142,63,49)" fill-opacity="0.502"/>
<polygon points="4591.94,2385.78 4610.34,2210.74 5024.06,2254.22 5005.66,2429.26" fill="rgb(243,200,181)" fill-opacity="0.502"/>
<polygon points="5348.27,2221.10 5339.05,2396.86 4843.73,2370.90 4852.95,2195.14" fill="rgb(227,174,150)" fill-opacity="0.502"/>
<polygon points="2642.28,3708.66 2836.08,3252.09 2909.72,3283.34 2715.92,3739.91" fill="rgb(39,17,29)" fill-opacity="0.502"/>
<polygon points="5110.11,1105.86 5266.61,1072.59 5289.89,1182.14 5133.39,1215.41" fill="rgb(148,93,77)" fill-opacity="0.502"/>
<circle cx="6960.00" cy="208.00" r="192.00" fill="rgb(0,0,16)" fill-opacity="0.502"/>
<polygon points="1769.15,96.15 1990.85,-31.85 2230.85,383.85 2009.15,511.85" fill="rgb(0,0,15)" fill-opacity="0.502"/>
<g transform="translate(6688.00 3264.00) rotate(132) scale(96.00 128.00)"><ellipse cx="0" cy="0" rx="1" ry="1" fill="rgb(155,77,59)" fill-opacity="0.502"/></g>
<circle cx="6912.00" cy="2864.00" r="176.00" fill="rgb(209,114,91)" fill-opacity="0.502"/>
<g transform="translate(7696.00 4160.00) rotate(249) scale(864.00 624.00)"><ellipse cx="0" cy="0" rx="1" ry="1" fill="rgb(0,0,0)" fill-opacity="0.502"/></g>
<circle cx="2144.00" cy="1792.00" r="256.00" fill="rgb(109,160,111)" fill-opacity="0.502"/>
<g transform="translate(4864.00 0.00) rotate(108) scale(256.00 64.00)"><ellipse cx="0" cy="0" rx="1" ry="1" fill="rgb(158,120,125)" fill-opacity="0.502"/></g>
<circle cx="688.00" cy="336.00" r="432.00" fill="rgb(0,0,0)" fill-opacity="0.502"/>
<polygon points="5359.29,1975.34 5343.66,2198.79 4912.71,2168.66 4928.34,1945.21" fill="rgb(114,74,59)" fill-opacity="0.502"/>
<g transform="translate(2960.00 2016.00) rotate(194) scale(400.00 208.00)"><ellipse cx="0" cy="0" rx="1" ry="1" fill="rgb(29,13,16)" fill-opacity="0.502"/></g>
<polygon points="7063.08,3351.76 6970.05,3607.36 6488.92,3432.24 6581.95,3176.64" fill="rgb(136,51,32)" fill-opacity="0.502"/>
<polygon points="6370.23,2859.23 6541.00,2816.65 6637.77,3204.77 6467.00,3247.35" fill="rgb(27,17,18)" fill-opacity="0.502"/>
<g transform="translate(4912.00 928.00) rotate(240) scale(192.00 528.00)"><ellipse cx="0" cy="0" rx="1" ry="1" fill="rgb(13,9,19)" fill-opacity="0.502"/></g>
<circle cx="5456.00" cy="0.00" r="624.00" fill="rgb(0,0,15)" fill-opacity="0.502"/>
<g transform="translate(5008.00 1552.00) rotate(57) scale(64.00 272.00)"><ellipse cx="0" cy="0" rx="1" ry="1" fill="rgb(92,58,38)" fill-opacity="0.502"/></g>
<polygon points="3131.82,1696.15 3434.15,1664.37 3444.18,1759.85 3141.85,1791.63" fill="rgb(255,255,255)" fill-opacity="0.502"/>
<g transform="translate(5056.00 2464.00) rotate(189) scale(496.00 32.00)"><ellipse cx="0" cy="0" rx="1" ry="1" fill="rgb(108,28,15)" fill-opacity="0.502"/></g>
<g transform="translate(1408.00 2432.00) rotate(9) scale(256.00 96.00)"><ellipse cx="0" cy="0" rx="1" ry="1" fill="rgb(35,6,5)" fill-opacity="0.502"/></g>
<g transform="translate(5936.00 1184.00) rotate(128) scale(208.00 80.00)"><ellipse cx="0" cy="0" rx="1" ry="1" fill="rgb(83,25,18)" fill-opacity="0.502"/></g>
<polygon points="1436.37,3427.20 1446.13,3315.63 2099.63,3372.80 2089.87,3484.37" fill="rgb(33,64,60)" fill-opacity="0.502"/>
<circle cx="1632.00" cy="4112.00" r="128.00" fill="rgb(80,28,21)" fill-opacity="0.502"/>
<polygon points="6423.63,2857.10 6438.90,2935.63 6360.37,2950.90 6345.10,2872.37" fill="rgb(233,122,107)" fill-opacity="0.502"/>
<polygon points="3229.41,2546.68 3926.65,2264.97 3986.59,2413.32 3289.35,2695.03" fill="rgb(103,54,53)" fill-opacity="0.502"/>
<polygon points="1449.78,3651.05 1235.08,3790.48 1078.22,3548.95 1292.92,3409.52" fill="rgb(0,0,24)" fill-opacity="0.502"/>
<polygon points="2780.99,766.23 3222.23,324.99 3539.01,641.77 3097.77,1083.01" fill="rgb(0,0,16)" fill-opacity="0.502"/>
<g transform="translate(4272.00 3184.00) rotate(28) scale(16.00 208.00)"><ellipse cx="0" cy="0" rx="1" ry="1" fill="rgb(255,220,223)" fill-opacity="0.502"/></g>
<polygon points="6574.57,2292.32 6078.64,2283.66 6081.43,2123.68 6577.36,2132.34" fill="rgb(65,40,26)" fill-opacity="0.502"/>
<polygon points="3908.41,2054.20 3597.91,2131.62 3547.59,1929.80 3858.09,1852.38" fill="rgb(21,0,1)" fill-opacity="0.502"/>
<g transform="translate(3664.00 1216.00) rotate(323) scale(112.00 48.00)"><ellipse cx="0" cy="0" rx="1" ry="1" fill="rgb(101,113,96)" fill-opacity="0.502"/></g>
<polygon points="3771.68,2840.70 3636.48,3094.99 3396.32,2967.30 3531.52,2713.01" fill="rgb(192,123,106)" fill-opacity="0.502"/>
<polygon points="1907.52,1283.46 1900.54,883.52 2300.48,876.54 2307.46,1276.48" fill="rgb(146,164,138)" fill-opacity="0.502"/>
<polygon points="4435.43,3460.49 4190.91,3123.94 4268.57,3067.51 4513.09,3404.06" fill="rgb(28,9,17)" fill-opacity="0.502"/>
<circle cx="1920.00" cy="688.00" r="80.00" fill="rgb(0,0,0)" fill-opacity="0.502"/>
<circle cx="1120.00" cy="848.00" r="272.00" fill="rgb(0,1,15)" fill-opacity="0.502"/>
<polygon points="1337.24,1003.22 1351.23,1010.97 1110.76,1444.78 1096.77,1437.03" fill="rgb(131,147,149)" fill-opacity="0.502"/>
<polygon points="6218.52,1240.07 6268.21,1425.53 6005.48,1495.93 5955.79,1310.47" fill="rgb(157,96,81)" fill-opacity="0.502"/>
<circle cx="6592.00" cy="1888.00" r="144.00" fill="rgb(255,255,239)" fill-opacity="0.502"/>
<circle cx="2848.00" cy="2112.00" r="80.00" fill="rgb(145,61,61)" fill-opacity="0.502"/>
<polygon points="1439.60,1053.34 1440.44,1005.35 1744.40,1010.66 1743.56,1058.65" fill="rgb(235,241,221)" fill-opacity="0.502"/>
<polygon points="1801.38,4011.19 1929.85,4153.87 1846.62,4228.81 1718.15,4086.13" fill="rgb(112,49,49)" fill-opacity="0.502"/>
<polygon points="5243.85,3120.18 5548.14,2467.63 5780.15,2575.82 5475.86,3228.37" fill="rgb(183,91,64)" fill-opacity="0.502"/>
<g transform="translate(3760.00 1008.00) rotate(322) scale(80.00 432.00)"><ellipse cx="0" cy="0" rx="1" ry="1" fill="rgb(53,50,38)" fill-opacity="0.502"/></g>
<circle cx="5584.00" cy="976.00" r="192.00" fill="rgb(3,1,7)" fill-opacity="0.502"/>
<g transform="translate(4272.00 1296.00) rotate(184) scale(576.00 96.00)"><ellipse cx="0" cy="0" rx="1" ry="1" fill="rgb(112,70,60)" fill-opacity="0.502"/></g>
<circle cx="3056.00" cy="1552.00" r="48.00" fill="rgb(221,177,153)" fill-opacity="0.502"/>
<polygon points="6571.12,2871.38 6788.47,2682.43 7092.88,3032.62 6875.53,3221.57" fill="rgb(185,91,71)" fill-opacity="0.502"/>
<g transform="translate(2544.00 624.00) rotate(93) scale(32.00 384.00)"><ellipse cx="0" cy="0" rx="1" ry="1" fill="rgb(255,255,255)" fill-opacity="0.502"/></g>
<circle cx="368.00" cy="1792.00" r="800.00" fill="rgb(0,0,0)" fill-opacity="0.502"/>
<g transform="translate(6576.00 2384.00) rotate(360) scale(208.00 96.00)"><ellipse cx="0" cy="0" rx="1" ry="1" fill="rgb(218,183,166)" fill-opacity="0.502"/></g>
<g transform="translate(1984.00 1408.00) rotate(273) scale(144.00 416.00)"><ellipse cx="0" cy="0" rx="1" ry="1" fill="rgb(23,8,19)" fill-opacity="0.502"/></g>
<polygon points="6518.69,2347.27 6479.13,2469.01 6281.31,2404.73 6320.87,2282.99" fill="rgb(149,99,85)" fill-opacity="0.502"/>
<polygon points="3732.76,887.42 3985.96,1131.94 3819.24,1304.58 3566.04,1060.06" fill="rgb(26,32,19)" fill-opacity="0.502"/>
<circle cx="6432.00" cy="2832.00" r="64.00" fill="rgb(6,0,0)" fill-opacity="0.502"/>
<circle cx="4384.00" cy="4528.00" r="144.00" fill="rgb(0,0,13)" fill-opacity="0.502"/>
<polygon points="6320.78,3590.63 6335.29,3383.14 6367.22,3385.37 6352.71,3592.86" fill="rgb(160,111,118)" fill-opacity="0.502"/>
<g transform="translate(5808.00 3072.00) rotate(84) scale(416.00 160.00)"><ellipse cx="0" cy="0" rx="1" ry="1" fill="rgb(170,70,48)" fill-opacity="0.502"/></g>
<g transform="translate(6464.00 1984.00) rotate(68) scale(224.00 64.00)"><ellipse cx="0" cy="0" rx="1" ry="1" fill="rgb(205,159,136)" fill-opacity="0.502"/></g>
<g transform="translate(2144.00 2560.00) rotate(210) scale(592.00 128.00)"><ellipse cx="0" cy="0" rx="1" ry="1" fill="rgb(7,0,25)" fill-opacity="0.502"/></g>
<polygon points="4630.62,1535.20 4599.37,1461.56 4761.38,1392.80 4792.63,1466.44" fill="rgb(255,251,224)" fill-opacity="0.502"/>
<polygon points="1985.56,3233.66 1963.81,3440.52 1486.44,3390.34 1508.19,3183.48" fill="rgb(0,4,11)" fill-opacity="0.502"/>
<circle cx="4864.00" cy="1856.00" r="96.00" fill="rgb(255,255,255)" fill-opacity="0.502"/>
<polygon points="1642.97,1009.35 1292.89,972.55 1333.03,590.65 1683.11,627.45" fill="rgb(0,0,14)" fill-opacity="0.502"/>
<polygon points="6613.46,1135.26 6517.56,1372.62 6250.54,1264.74 6346.44,1027.38" fill="rgb(21,14,14)" fill-opacity="0.502"/>
<polygon points="5103.56,1871.15 5277.40,1843.61 5312.44,2064.85 5138.60,2092.39" fill="rgb(206,155,139)" fill-opacity="0.502"/>
<polygon points="3212.73,1844.70 2850.29,2108.02 2803.27,2043.30 3165.71,1779.98" fill="rgb(83,39,33)" fill-opacity="0.502"/>
<polygon points="6716.93,1398.40 6576.07,1368.46 6739.07,601.60 6879.93,631.54" fill="rgb(56,12,5)" fill-opacity="0.502"/>
<circle cx="1264.00" cy="4080.00" r="80.00" fill="rgb(255,202,189)" fill-opacity="0.502"/>
<g transform="translate(2496.00 800.00) rotate(74) scale(96.00 368.00)"><ellipse cx="0" cy="0" rx="1" ry="1" fill="rgb(0,0,14)" fill-opacity="0.502"/></g>
<circle cx="6864.00" cy="1344.00" r="80.00" fill="rgb(39,17,22)" fill-opacity="0.502"/>
<polygon points="3549.07,1224.23 3554.66,1384.13 3106.93,1399.77 3101.34,1239.87" fill="rgb(7,11,10)" fill-opacity="0.502"/>
<polygon points="2489.12,2179.04 2420.07,2112.35 2886.88,1628.96 2955.93,1695.65" fill="rgb(0,0,0)" fill-opacity="0.502"/>
<polygon points="2550.19,1523.22 2646.48,1651.00 2569.81,1708.78 2473.52,1581.00" fill="rgb(166,239,189)" fill-opacity="0.502"/>
<g transform="translate(5312.00 3744.00) rotate(237) scale(160.00 448.00)"><ellipse cx="0" cy="0" rx="1" ry="1" fill="rgb(0,1,14)" fill-opacity="0.502"/></g>
<polygon points="2493.96,1866.92 2421.51,1929.91 2306.04,1797.08 2378.49,1734.09" fill="rgb(255,236,235)" fill-opacity="0.502"/>
<g transform="translate(5360.00 2768.00) rotate(173) scale(160.00 528.00)"><ellipse cx="0" cy="0" rx="1" ry="1" fill="rgb(164,78,55)" fill-opacity="0.502"/></g>
<g transform="translate(1760.00 2880.00) rotate(220) scale(368.00 160.00)"><ellipse cx="0" cy="0" rx="1" ry="1" fill="rgb(13,6,9)" fill-opacity="0.502"/></g>
<polygon points="2932.72,1599.33 2126.77,1471.68 2139.28,1392.67 2945.23,1520.32" fill="rgb(0,0,21)" fill-opacity="0.502"/>
<polygon points="3040.69,1710.44 3076.36,1678.32 3151.31,1761.56 3115.64,1793.68" fill="rgb(255,249,248)" fill-opacity="0.502"/>
<polygon points="1984.97,847.89 2050.80,938.50 1999.03,976.11 1933.20,885.50" fill="rgb(0,0,0)" fill-opacity="0.502"/>
<circle cx="2192.00" cy="112.00" r="400.00" fill="rgb(1,0,17)" fill-opacity="0.502"/>
<polygon points="3454.05,938.50 3458.24,858.61 3665.95,869.50 3661.76,949.39" fill="rgb(175,144,125)" fill-opacity="0.502"/>
<g transform="translate(3808.00 1616.00) rotate(6) scale(112.00 128.00)"><ellipse cx="0" cy="0" rx="1" ry="1" fill="rgb(224,162,141)" fill-opacity="0.502"/></g>
<circle cx="3536.00" cy="2176.00" r="160.00" fill="rgb(107,63,50)" fill-opacity="0.502"/>
<polygon points="6618.28,626.82 6666.01,621.80 6677.72,733.18 6629.99,738.20" fill="rgb(250,226,206)" fill-opacity="0.502"/>
<circle cx="6336.00" cy="2544.00" r="112.00" fill="rgb(190,101,85)" fill-opacity="0.502"/>
<circle cx="2640.00" cy="896.00" r="208.00" fill="rgb(0,0,14)" fill-opacity="0.502"/>
<g transform="translate(6688.00 2768.00) rotate(329) scale(160.00 320.00)"><ellipse cx="0" cy="0" rx="1" ry="1" fill="rgb(181,91,69)" fill-opacity="0.502"/></g>
<polygon points="4785.32,221.57 4755.28,165.06 4910.68,82.43 4940.72,138.94" fill="rgb(255,214,201)" fill-opacity="0.502"/>
<polygon points="3745.57,2955.29 3601.57,3204.71 3518.43,3156.71 3662.43,2907.29" fill="rgb(172,102,97)" fill-opacity="0.502"/>
<polygon points="4033.19,2972.00 4168.50,2922.75 4206.81,3028.00 4071.50,3077.25" fill="rgb(162,103,79)" fill-opacity="0.502"/>
<polygon points="5073.35,782.82 5055.83,672.20 5150.65,657.18 5168.17,767.80" fill="rgb(202,164,164)" fill-opacity="0.502"/>
<g transform="translate(2720.00 3488.00) rotate(203) scale(96.00 32.00)"><ellipse cx="0" cy="0" rx="1" ry="1" fill="rgb(165,61,86)" fill-opacity="0.502"/></g>
<g transform="translate(2624.00 3472.00) rotate(168) scale(80.00 624.00)"><ellipse cx="0" cy="0" rx="1" ry="1" fill="rgb(0,3,16)" fill-opacity="0.502"/></g>
<circle cx="6128.00" cy="4160.00" r="608.00" fill="rgb(0,2,18)" fill-opacity="0.502"/>
<g transform="translate(3920.00 2912.00) rotate(298) scale(480.00 112.00)"><ellipse cx="0" cy="0" rx="1" ry="1" fill="rgb(68,29,25)" fill-opacity="0.502"/></g>
<circle cx="416.00" cy="2928.00" r="688.00" fill="rgb(0,0,0)" fill-opacity="0.502"/>
<polygon points="2335.85,3410.09 2582.68,3704.25 2080.15,4125.91 1833.32,3831.75" fill="rgb(0,0,18)" fill-opacity="0.502"/>
<g transform="translate(4672.00 656.00) rotate(12) scale(400.00 464.00)"><ellipse cx="0" cy="0" rx="1" ry="1" fill="rgb(9,6,16)" fill-opacity="0.502"/></g>
<polygon points="3600.00,1872.00 3600.00,1872.00 3120.00,1872.00 3120.00,1872.00" fill="rgb(145,111,112)" fill-opacity="0.502"/>
<g transform="translate(2080.00 2208.00) rotate(177) scale(288.00 96.00)"><ellipse cx="0" cy="0" rx="1" ry="1" fill="rgb(170,80,75)" fill-opacity="0.502"/></g>
<circle cx="1280.00" cy="1376.00" r="128.00" fill="rgb(0,0,19)" fill-opacity="0.502"/>
<g transform="translate(5040.00 4592.00) rotate(346) scale(688.00 272.00)"><ellipse cx="0" cy="0" rx="1" ry="1" fill="rgb(4,3,16)" fill-opacity="0.502"/></g>
<g transform="translate(6384.00 896.00) rotate(250) scale(80.00 352.00)"><ellipse cx="0" cy="0" rx="1" ry="1" fill="rgb(149,65,53)" fill-opacity="0.502"/></g>
<circle cx="2016.00" cy="4160.00" r="96.00" fill="rgb(78,31,28)" fill-opacity="0.502"/>
<circle cx="4608.00" cy="1600.00" r="112.00" fill="rgb(52,28,1)" fill-opacity="0.502"/>
<circle cx="4384.00" cy="1056.00" r="112.00" fill="rgb(44,32,31)" fill-opacity="0.502"/>
<g transform="translate(5840.00 2432.00) rotate(336) scale(304.00 128.00)"><ellipse cx="0" cy="0" rx="1" ry="1" fill="rgb(195,119,103)" fill-opacity="0.502"/></g>
<g transform="translate(4992.00 864.00) rotate(345) scale(400.00 96.00)"><ellipse cx="0" cy="0" rx="1" ry="1" fill="rgb(3,2,12)" fill-opacity="0.502"/></g>
<g transform="translate(464.00 368.00) rotate(176) scale(640.00 1488.00)"><ellipse cx="0" cy="0" rx="1" ry="1" fill="rgb(0,0,0)" fill-opacity="0.502"/></g>
<polygon points="3520.00,870.08 3482.57,747.68 4064.00,569.92 4101.43,692.32" fill="rgb(14,4,11)" fill-opacity="0.502"/>
<g transform="translate(2880.00 4592.00) rotate(147) scale(480.00 272.00)"><ellipse cx="0" cy="0" rx="1" ry="1" fill="rgb(0,0,19)" fill-opacity="0.502"/></g>
<circle cx="3536.00" cy="688.00" r="48.00" fill="rgb(199,186,194)" fill-opacity="0.502"/>
<circle cx="7472.00" cy="2128.00" r="400.00" fill="rgb(0,0,0)" fill-opacity="0.502"/>
<circle cx="6608.00" cy="864.00" r="176.00" fill="rgb(86,22,13)" fill-opacity="0.502"/>
<circle cx="1904.00" cy="1632.00" r="80.00" fill="rgb(120,173,132)" fill-opacity="0.502"/>
<g transform="translate(3344.00 1600.00) rotate(276) scale(48.00 272.00)"><ellipse cx="0" cy="0" rx="1" ry="1" fill="rgb(171,68,49)" fill-opacity="0.502"/></g>
<g transform="translate(1712.00 4480.00) rotate(272) scale(320.00 736.00)"><ellipse cx="0" cy="0" rx="1" ry="1" fill="rgb(0,0,19)" fill-opacity="0.502"/></g>
<g transform="translate(1488.00 1104.00) rotate(74) scale(48.00 160.00)"><ellipse cx="0" cy="0" rx="1" ry="1" fill="rgb(3,17,15)" fill-opacity="0.502"/></g>
<circle cx="7872.00" cy="80.00" r="816.00" fill="rgb(0,0,0)" fill-opacity="0.502"/>
<circle cx="4912.00" cy="16.00" r="144.00" fill="rgb(0,0,0)" fill-opacity="0.502"/>
<circle cx="2064.00" cy="3024.00" r="176.00" fill="rgb(26,19,28)" fill-opacity="0.502"/>
<g transform="translate(3776.00 432.00) rotate(182) scale(880.00 272.00)"><ellipse cx="0" cy="0" rx="1" ry="1" fill="rgb(4,2,16)" fill-opacity="0.502"/></g>
<polygon points="5174.66,1581.81 5209.73,1509.91 5497.34,1650.19 5462.27,1722.09" fill="rgb(255,237,220)" fill-opacity="0.502"/>
<polygon points="2819.82,2856.78 2961.67,2704.66 3020.18,2759.22 2878.33,2911.34" fill="rgb(104,45,69)" fill-opacity="0.502"/>
<circle cx="2672.00" cy="1632.00" r="48.00" fill="rgb(255,255,242)" fill-opacity="0.502"/>
<polygon points="4304.01,1316.23 4355.43,1377.52 3999.99,1675.77 3948.57,1614.48" fill="rgb(255,208,184)" fill-opacity="0.502"/>
<circle cx="6208.00" cy="1120.00" r="112.00" fill="rgb(9,5,6)" fill-opacity="0.502"/>
<circle cx="5056.00" cy="2928.00" r="400.00" fill="rgb(183,92,67)" fill-opacity="0.502"/>
<g transform="translate(6640.00 4304.00) rotate(20) scale(448.00 720.00)"><ellipse cx="0" cy="0" rx="1" ry="1" fill="rgb(0,1,17)" fill-opacity="0.502"/></g>
<circle cx="4512.00" cy="2160.00" r="192.00" fill="rgb(99,68,65)" fill-opacity="0.502"/>
<circle cx="6208.00" cy="3072.00" r="144.00" fill="rgb(0,0,4)" fill-opacity="0.502"/>
<circle cx="4000.00" cy="4096.00" r="48.00" fill="rgb(86,77,71)" fill-opacity="0.502"/>
<circle cx="6608.00" cy="3216.00" r="64.00" fill="rgb(165,112,103)" fill-opacity="0.502"/>
<circle cx="4800.00" cy="3856.00" r="496.00" fill="rgb(0,2,15)" fill-opacity="0.502"/>
<polygon points="1920.96,1215.90 2073.50,916.52 2159.04,960.10 2006.50,1259.48" fill="rgb(207,214,165)" fill-opacity="0.502"/>
<polygon points="3874.81,565.81 3885.15,1157.72 3629.19,1162.19 3618.85,570.28" fill="rgb(28,25,22)" fill-opacity="0.502"/>
<polygon points="3212.35,1707.23 3259.37,1642.51 3427.65,1764.77 3380.63,1829.49" fill="rgb(255,248,237)" fill-opacity="0.502"/>
<polygon points="2860.67,1442.46 2855.19,1427.43 2915.33,1405.54 2920.81,1420.57" fill="rgb(255,175,173)" fill-opacity="0.502"/>
<polygon points="3579.95,2135.55 4035.43,2224.09 3956.05,2632.45 3500.57,2543.91" fill="rgb(105,48,41)" fill-opacity="0.502"/>
<polygon points="6348.02,878.14 5794.34,719.38 5811.98,657.86 6365.66,816.62" fill="rgb(3,3,11)" fill-opacity="0.502"/>
<circle cx="2080.00" cy="704.00" r="144.00" fill="rgb(242,255,204)" fill-opacity="0.502"/>
<polygon points="2974.37,961.38 3469.16,926.78 3473.63,990.62 2978.84,1025.22" fill="rgb(0,0,7)" fill-opacity="0.502"/>
<g transform="translate(4624.00 2624.00) rotate(236) scale(144.00 112.00)"><ellipse cx="0" cy="0" rx="1" ry="1" fill="rgb(52,12,8)" fill-opacity="0.502"/></g>
<polygon points="4052.36,3310.26 4027.64,3269.11 4219.64,3153.74 4244.36,3194.89" fill="rgb(0,0,0)" fill-opacity="0.502"/>
<g transform="translate(3984.00 1856.00) rotate(320) scale(96.00 176.00)"><ellipse cx="0" cy="0" rx="1" ry="1" fill="rgb(149,84,66)" fill-opacity="0.502"/></g>
<circle cx="3232.00" cy="2752.00" r="64.00" fill="rgb(221,164,152)" fill-opacity="0.502"/>
<polygon points="3344.59,1744.26 3377.32,1779.36 3295.41,1855.74 3262.68,1820.64" fill="rgb(224,181,189)" fill-opacity="0.502"/>
<g transform="translate(3536.00 3248.00) rotate(276) scale(64.00 256.00)"><ellipse cx="0" cy="0" rx="1" ry="1" fill="rgb(56,34,24)" fill-opacity="0.502"/></g>
<polygon points="2315.49,2501.23 2348.03,2428.14 2596.51,2538.77 2563.97,2611.86" fill="rgb(77,75,71)" fill-opacity="0.502"/>
<polygon points="2960.20,1287.37 2886.66,1225.66 2927.80,1176.63 3001.34,1238.34" fill="rgb(245,229,220)" fill-opacity="0.502"/>
<g transform="translate(6800.00 432.00) rotate(52) scale(336.00 144.00)"><ellipse cx="0" cy="0" rx="1" ry="1" fill="rgb(4,1,14)" fill-opacity="0.502"/></g>
<circle cx="4400.00" cy="3136.00" r="80.00" fill="rgb(0,0,4)" fill-opacity="0.502"/>
<g transform="translate(2160.00 3312.00) rotate(97) scale(144.00 320.00)"><ellipse cx="0" cy="0" rx="1" ry="1" fill="rgb(0,2,15)" fill-opacity="0.502"/></g>
<polygon points="2753.08,1395.81 2828.19,1537.08 2686.92,1612.19 2611.81,1470.92" fill="rgb(0,3,47)" fill-opacity="0.502"/>
<polygon points="6732.19,2223.30 6649.91,2125.25 6931.81,1888.70 7014.09,1986.75" fill="rgb(213,131,97)" fill-opacity="0.502"/>
<circle cx="6976.00" cy="2256.00" r="80.00" fill="rgb(73,26,13)" fill-opacity="0.502"/>
<polygon points="1031.88,2241.60 1289.27,2025.63 1320.12,2062.40 1062.73,2278.37" fill="rgb(15,0,0)" fill-opacity="0.502"/>
<g transform="translate(2944.00 3360.00) rotate(101) scale(160.00 768.00)"><ellipse cx="0" cy="0" rx="1" ry="1" fill="rgb(2,2,18)" fill-opacity="0.502"/></g>
<polygon points="4450.04,2594.66 4339.92,2751.94 4221.96,2669.34 4332.08,2512.06" fill="rgb(179,90,77)" fill-opacity="0.502"/>
<polygon points="5743.32,2899.69 5448.56,3431.45 5168.68,3276.31 5463.44,2744.55" fill="rgb(175,78,54)" fill-opacity="0.502"/>
<g transform="translate(3392.00 784.00) rotate(92) scale(16.00 288.00)"><ellipse cx="0" cy="0" rx="1" ry="1" fill="rgb(0,0,0)" fill-opacity="0.502"/></g>
<polygon points="1343.93,2369.63 1327.74,2833.35 784.07,2814.37 800.26,2350.65" fill="rgb(9,1,2)" fill-opacity="0.502"/>
<polygon points="3565.02,2050.18 3282.18,2333.02 3202.98,2253.82 3485.82,1970.98" fill="rgb(72,44,48)" fill-opacity="0.502"/>
<circle cx="2128.00" cy="2080.00" r="144.00" fill="rgb(66,50,41)" fill-opacity="0.502"/>
<polygon points="2693.93,444.02 2573.90,572.74 2410.07,419.98 2530.10,291.26" fill="rgb(64,14,10)" fill-opacity="0.502"/>
<polygon points="5960.80,1501.98 6110.84,1148.51 6199.20,1186.02 6049.16,1539.49" fill="rgb(86,34,21)" fill-opacity="0.502"/>
<polygon points="1844.64,714.41 1597.77,862.74 1515.36,725.59 1762.23,577.26" fill="rgb(46,31,29)" fill-opacity="0.502"/>
<polygon points="2219.28,2094.52 2228.77,1822.69 2308.72,1825.48 2299.23,2097.31" fill="rgb(68,70,48)" fill-opacity="0.502"/>
<g transform="translate(1456.00 2480.00) rotate(103) scale(128.00 48.00)"><ellipse cx="0" cy="0" rx="1" ry="1" fill="rgb(206,141,126)" fill-opacity="0.502"/></g>
<polygon points="3017.18,1129.50 3077.70,1150.34 3030.82,1286.50 2970.30,1265.66" fill="rgb(158,138,127)" fill-opacity="0.502"/>
<g transform="translate(5984.00 2592.00) rotate(187) scale(272.00 96.00)"><ellipse cx="0" cy="0" rx="1" ry="1" fill="rgb(134,55,36)" fill-opacity="0.502"/></g>
<g transform="translate(1488.00 4224.00) rotate(241) scale(192.00 32.00)"><ellipse cx="0" cy="0" rx="1" ry="1" fill="rgb(36,19,20)" fill-opacity="0.502"/></g>
<polygon points="1881.66,1012.81 1928.20,1096.78 1606.34,1275.19 1559.80,1191.22" fill="rgb(144,152,113)" fill-opacity="0.502"/>
<circle cx="1920.00" cy="912.00" r="48.00" fill="rgb(222,246,242)" fill-opacity="0.502"/>
<polygon points="3746.83,3223.98 4082.55,2952.11 4173.17,3064.02 3837.45,3335.89" fill="rgb(123,60,46)" fill-opacity="0.502"/>
<circle cx="2592.00" cy="2304.00" r="80.00" fill="rgb(155,66,58)" fill-opacity="0.502"/>
<polygon points="4912.63,1244.82 5347.66,1447.68 5327.37,1491.18 4892.34,1288.32" fill="rgb(130,63,57)" fill-opacity="0.502"/>
<g transform="translate(2752.00 400.00) rotate(59) scale(224.00 112.00)"><ellipse cx="0" cy="0" rx="1" ry="1" fill="rgb(48,14,14)" fill-opacity="0.502"/></g>
<polygon points="6607.34,908.35 6563.56,788.07 6608.66,771.65 6652.44,891.93" fill="rgb(210,114,107)" fill-opacity="0.502"/>
<g transform="translate(6496.00 1680.00) rotate(342) scale(448.00 64.00)"><ellipse cx="0" cy="0" rx="1" ry="1" fill="rgb(163,118,96)" fill-opacity="0.502"/></g>
<polygon points="2501.53,1069.50 2435.61,1179.22 2394.47,1154.50 2460.39,1044.78" fill="rgb(0,2,0)" fill-opacity="0.502"/>
<polygon points="2420.02,2336.03 2765.56,2403.20 2731.98,2575.97 2386.44,2508.80" fill="rgb(50,3,0)" fill-opacity="0.502"/>
<circle cx="1232.00" cy="1776.00" r="112.00" fill="rgb(30,15,16)" fill-opacity="0.502"/>
<polygon points="1539.35,4115.12 1554.37,4020.30 2012.65,4092.88 1997.63,4187.70" fill="rgb(99,47,40)" fill-opacity="0.502"/>
<circle cx="2992.00" cy="0.00" r="480.00" fill="rgb(0,0,16)" fill-opacity="0.502"/>
<circle cx="1264.00" cy="1936.00" r="112.00" fill="rgb(120,89,91)" fill-opacity="0.502"/>
<polygon points="6193.41,3408.46 6309.91,3493.10 6046.59,3855.54 5930.09,3770.90" fill="rgb(0,0,11)" fill-opacity="0.502"/>
<circle cx="1456.00" cy="3120.00" r="32.00" fill="rgb(255,255,255)" fill-opacity="0.502"/>
<circle cx="1568.00" cy="1440.00" r="32.00" fill="rgb(253,195,189)" fill-opacity="0.502"/>
<circle cx="2448.00" cy="1200.00" r="32.00" fill="rgb(255,255,255)" fill-opacity="0.502"/>
<circle cx="2464.00" cy="2704.00" r="160.00" fill="rgb(3,4,46)" fill-opacity="0.502"/>
<polygon points="6311.45,2503.45 6381.42,2464.67 6536.55,2744.55 6466.58,2783.33" fill="rgb(178,91,69)" fill-opacity="0.502"/>
<polygon points="4573.89,398.20 4657.80,605.89 4450.11,689.80 4366.20,482.11" fill="rgb(24,18,17)" fill-opacity="0.502"/>
<polygon points="1171.34,3666.56 1264.37,3410.96 1820.66,3613.44 1727.63,3869.04" fill="rgb(0,0,16)" fill-opacity="0.502"/>
<polygon points="5907.66,2221.93 5851.40,2089.38 6396.34,1858.07 6452.60,1990.62" fill="rgb(153,117,104)" fill-opacity="0.502"/>
<polygon points="6132.25,2504.26 6447.45,2750.52 6427.75,2775.74 6112.55,2529.48" fill="rgb(39,0,0)" fill-opacity="0.502"/>
<polygon points="6844.30,1102.47 6914.27,1063.69 7123.70,1441.53 7053.73,1480.31" fill="rgb(36,19,30)" fill-opacity="0.502"/>
<polygon points="1571.88,444.06 1123.94,451.88 1116.12,3.94 1564.06,-3.88" fill="rgb(1,1,20)" fill-opacity="0.502"/>
<circle cx="1424.00" cy="3008.00" r="112.00" fill="rgb(53,19,8)" fill-opacity="0.502"/>
<polygon points="5505.12,1867.02 5402.90,1789.99 5662.88,1444.98 5765.10,1522.01" fill="rgb(176,108,84)" fill-opacity="0.502"/>
<polygon points="1973.49,629.61 2031.03,685.18 1786.51,938.39 1728.97,882.82" fill="rgb(0,0,0)" fill-opacity="0.502"/>
<polygon points="7084.19,2524.98 6597.25,2683.19 6547.81,2531.02 7034.75,2372.81" fill="rgb(166,81,58)" fill-opacity="0.502"/>
<circle cx="1328.00" cy="2896.00" r="64.00" fill="rgb(172,84,74)" fill-opacity="0.502"/>
<circle cx="4992.00" cy="1872.00" r="80.00" fill="rgb(255,255,255)" fill-opacity="0.502"/>
<g transform="translate(4624.00 2496.00) rotate(360) scale(320.00 80.00)"><ellipse cx="0" cy="0" rx="1" ry="1" fill="rgb(148,56,42)" fill-opacity="0.502"/></g>
<circle cx="4192.00" cy="3120.00" r="80.00" fill="rgb(11,0,0)" fill-opacity="0.502"/>
<polygon points="2617.39,1939.21 2652.50,1971.95 2390.61,2252.79 2355.50,2220.05" fill="rgb(7,0,0)" fill-opacity="0.502"/>
<polygon points="3272.99,1119.56 3270.75,1183.52 2839.01,1168.44 2841.25,1104.48" fill="rgb(11,26,0)" fill-opacity="0.502"/>
<g transform="translate(3056.00 832.00) rotate(277) scale(336.00 224.00)"><ellipse cx="0" cy="0" rx="1" ry="1" fill="rgb(2,0,17)" fill-opacity="0.502"/></g>
<polygon points="3044.12,1614.50 3101.64,1642.56 2715.88,2433.50 2658.36,2405.44" fill="rgb(84,41,36)" fill-opacity="0.502"/>
<polygon points="2166.26,1864.95 1897.88,1690.66 1993.74,1543.05 2262.12,1717.34" fill="rgb(123,160,113)" fill-opacity="0.502"/>
<g transform="translate(6192.00 1808.00) rotate(69) scale(208.00 80.00)"><ellipse cx="0" cy="0" rx="1" ry="1" fill="rgb(178,125,106)" fill-opacity="0.502"/></g>
<circle cx="5104.00" cy="1824.00" r="64.00" fill="rgb(255,255,251)" fill-opacity="0.502"/>
<polygon points="5522.36,1519.91 5609.50,1654.09 5421.64,1776.09 5334.50,1641.91" fill="rgb(224,149,132)" fill-opacity="0.502"/>
<g transform="translate(4128.00 2976.00) rotate(72) scale(16.00 336.00)"><ellipse cx="0" cy="0" rx="1" ry="1" fill="rgb(98,68,65)" fill-opacity="0.502"/></g>
<g transform="translate(3760.00 624.00) rotate(118) scale(176.00 256.00)"><ellipse cx="0" cy="0" rx="1" ry="1" fill="rgb(9,3,15)" fill-opacity="0.502"/></g>
<polygon points="2391.68,524.81 2284.67,428.45 2552.32,131.19 2659.33,227.55" fill="rgb(11,5,14)" fill-opacity="0.502"/>
<polygon points="6688.00,2336.00 7056.00,2336.00 7056.00,2368.00 6688.00,2368.00" fill="rgb(252,186,165)" fill-opacity="0.502"/>
<g transform="translate(960.00 4512.00) rotate(97) scale(480.00 144.00)"><ellipse cx="0" cy="0" rx="1" ry="1" fill="rgb(0,0,0)" fill-opacity="0.502"/></g>
</g>
</svg>