<?xml version="1.0" standalone="no"?>
<svg xmlns="http://www.w3.org/2000/svg" width="8192" height="4608" viewBox="0 0 8192 4608" style="overflow:hidden">
<defs>
<clipPath id="c"><rect x="0" y="0" width="8192" height="4608"/></clipPath>
</defs>
<rect width="8192" height="4608" fill="rgb(14,39,74)"/>
<g clip-path="url(#c)">
<circle cx="2368.00" cy="2272.00" r="1264.00" fill="rgb(33,130,255)" fill-opacity="0.502"/>
<circle cx="6384.00" cy="3040.00" r="816.00" fill="rgb(28,155,255)" fill-opacity="0.502"/>
<circle cx="5728.00" cy="1520.00" r="1264.00" fill="rgb(44,142,242)" fill-opacity="0.502"/>
<polygon points="6368.00,4192.00 6368.00,3328.00 7072.00,3328.00 7072.00,4192.00" fill="rgb(10,159,255)" fill-opacity="0.502"/>
<g transform="translate(7680.00 2528.00) rotate(179) scale(608.00 4592.00)"><ellipse cx="0" cy="0" rx="1" ry="1" fill="rgb(0,0,0)" fill-opacity="0.502"/></g>
<g transform="translate(544.00 2720.00) rotate(171) scale(816.00 4576.00)"><ellipse cx="0" cy="0" rx="1" ry="1" fill="rgb(0,0,0)" fill-opacity="0.502"/></g>
<g transform="translate(4272.00 3280.00) rotate(167) scale(624.00 3440.00)"><ellipse cx="0" cy="0" rx="1" ry="1" fill="rgb(40,0,0)" fill-opacity="0.502"/></g>
<g transform="translate(4640.00 3680.00) rotate(39) scale(1504.00 1216.00)"><ellipse cx="0" cy="0" rx="1" ry="1" fill="rgb(10,0,0)" fill-opacity="0.502"/></g>
<circle cx="3136.00" cy="1120.00" r="400.00" fill="rgb(41,152,255)" fill-opacity="0.502"/>
<circle cx="6560.00" cy="4128.00" r="560.00" fill="rgb(10,104,245)" fill-opacity="0.502"/>
<g transform="translate(1488.00 1456.00) rotate(172) scale(384.00 288.00)"><ellipse cx="0" cy="0" rx="1" ry="1" fill="rgb(31,120,255)" fill-opacity="0.502"/></g>
<circle cx="2320.00" cy="3840.00" r="784.00" fill="rgb(14,93,237)" fill-opacity="0.502"/>
<polygon points="0.00,0.00 5840.00,0.00 5840.00,544.00 0.00,544.00" fill="rgb(0,0,0)" fill-opacity="0.502"/>
<circle cx="1456.00" cy="496.00" r="688.00" fill="rgb(4,0,0)" fill-opacity="0.502"/>
<g transform="translate(3744.00 2016.00) rotate(252) scale(656.00 304.00)"><ellipse cx="0" cy="0" rx="1" ry="1" fill="rgb(168,59,28)" fill-opacity="0.502"/></g>
<circle cx="80.00" cy="3216.00" r="1392.00" fill="rgb(0,0,0)" fill-opacity="0.502"/>
<circle cx="3344.00" cy="4048.00" r="400.00" fill="rgb(16,0,0)" fill-opacity="0.502"/>
<g transform="translate(4592.00 912.00) rotate(94) scale(336.00 640.00)"><ellipse cx="0" cy="0" rx="1" ry="1" fill="rgb(34,116,227)" fill-opacity="0.502"/></g>
<circle cx="3456.00" cy="4384.00" r="448.00" fill="rgb(24,0,0)" fill-opacity="0.502"/>
<g transform="translate(7856.00 2352.00) rotate(164) scale(720.00 3456.00)"><ellipse cx="0" cy="0" rx="1" ry="1" fill="rgb(0,0,0)" fill-opacity="0.502"/></g>
<g transform="translate(176.00 1648.00) rotate(76) scale(7280.00 880.00)"><ellipse cx="0" cy="0" rx="1" ry="1" fill="rgb(0,0,0)" fill-opacity="0.502"/></g>
<g transform="translate(6784.00 2480.00) rotate(35) scale(256.00 352.00)"><ellipse cx="0" cy="0" rx="1" ry="1" fill="rgb(36,162,255)" fill-opacity="0.502"/></g>
<circle cx="5136.00" cy="3568.00" r="768.00" fill="rgb(7,0,0)" fill-opacity="0.502"/>
<circle cx="7888.00" cy="4320.00" r="832.00" fill="rgb(0,0,0)" fill-opacity="0.502"/>
<circle cx="6304.00" cy="640.00" r="480.00" fill="rgb(43,125,204)" fill-opacity="0.502"/>
<circle cx="3456.00" cy="3760.00" r="432.00" fill="rgb(18,2,0)" fill-opacity="0.502"/>
<circle cx="2240.00" cy="2928.00" r="912.00" fill="rgb(19,88,201)" fill-opacity="0.502"/>
<circle cx="2352.00" cy="1472.00" r="416.00" fill="rgb(28,123,249)" fill-opacity="0.502"/>
<circle cx="4656.00" cy="1120.00" r="400.00" fill="rgb(24,74,146)" fill-opacity="0.502"/>
<g transform="translate(2848.00 4448.00) rotate(287) scale(368.00 128.00)"><ellipse cx="0" cy="0" rx="1" ry="1" fill="rgb(13,105,255)" fill-opacity="0.502"/></g>
<polygon points="4806.96,2550.33 4790.33,2472.08 5385.04,2345.67 5401.67,2423.92" fill="rgb(0,0,0)" fill-opacity="0.502"/>
<circle cx="2848.00" cy="496.00" r="400.00" fill="rgb(7,0,0)" fill-opacity="0.502"/>
<circle cx="1872.00" cy="4448.00" r="176.00" fill="rgb(7,85,214)" fill-opacity="0.502"/>
<g transform="translate(4480.00 976.00) rotate(176) scale(240.00 400.00)"><ellipse cx="0" cy="0" rx="1" ry="1" fill="rgb(36,115,214)" fill-opacity="0.502"/></g>
<polygon points="6106.21,2326.25 6228.32,2954.49 6149.79,2969.75 6027.68,2341.51" fill="rgb(0,0,0)" fill-opacity="0.502"/>
<circle cx="2096.00" cy="368.00" r="672.00" fill="rgb(10,0,0)" fill-opacity="0.502"/>
<circle cx="6320.00" cy="3760.00" r="384.00" fill="rgb(18,107,218)" fill-opacity="0.502"/>
<polygon points="6272.00,3104.00 6272.00,2496.00 7072.00,2496.00 7072.00,3104.00" fill="rgb(26,133,248)" fill-opacity="0.502"/>
<circle cx="1424.00" cy="1680.00" r="336.00" fill="rgb(24,99,224)" fill-opacity="0.502"/>
<g transform="translate(5392.00 1840.00) rotate(323) scale(368.00 448.00)"><ellipse cx="0" cy="0" rx="1" ry="1" fill="rgb(33,123,214)" fill-opacity="0.502"/></g>
<circle cx="7584.00" cy="3104.00" r="512.00" fill="rgb(0,0,0)" fill-opacity="0.502"/>
<polygon points="1272.10,3151.98 1249.87,3025.93 1895.90,2912.02 1918.13,3038.07" fill="rgb(0,0,0)" fill-opacity="0.502"/>
<g transform="translate(5936.00 4528.00) rotate(300) scale(352.00 144.00)"><ellipse cx="0" cy="0" rx="1" ry="1" fill="rgb(4,0,0)" fill-opacity="0.502"/></g>
<circle cx="3264.00" cy="1024.00" r="320.00" fill="rgb(30,117,221)" fill-opacity="0.502"/>
<polygon points="2260.56,2821.46 2189.45,2008.56 2715.44,1962.54 2786.55,2775.44" fill="rgb(24,132,255)" fill-opacity="0.502"/>
<circle cx="3472.00" cy="3312.00" r="336.00" fill="rgb(4,0,0)" fill-opacity="0.502"/>
<polygon points="6978.82,2011.76 6096.43,2167.35 5949.18,1332.24 6831.57,1176.65" fill="rgb(46,141,210)" fill-opacity="0.502"/>
<g transform="translate(5712.00 2624.00) rotate(25) scale(320.00 304.00)"><ellipse cx="0" cy="0" rx="1" ry="1" fill="rgb(29,123,221)" fill-opacity="0.502"/></g>
<circle cx="5712.00" cy="1424.00" r="352.00" fill="rgb(28,64,113)" fill-opacity="0.502"/>
<circle cx="3824.00" cy="2288.00" r="304.00" fill="rgb(152,65,55)" fill-opacity="0.502"/>
<g transform="translate(6432.00 4592.00) rotate(262) scale(1776.00 48.00)"><ellipse cx="0" cy="0" rx="1" ry="1" fill="rgb(6,0,0)" fill-opacity="0.502"/></g>
<polygon points="2398.48,2883.08 2259.05,3097.78 2017.52,2940.92 2156.95,2726.22" fill="rgb(0,0,10)" fill-opacity="0.502"/>
<g transform="translate(3312.00 2432.00) rotate(222) scale(304.00 208.00)"><ellipse cx="0" cy="0" rx="1" ry="1" fill="rgb(37,153,253)" fill-opacity="0.502"/></g>
<g transform="translate(5792.00 4144.00) rotate(77) scale(1328.00 240.00)"><ellipse cx="0" cy="0" rx="1" ry="1" fill="rgb(3,0,0)" fill-opacity="0.502"/></g>
<circle cx="8080.00" cy="1136.00" r="1216.00" fill="rgb(0,0,0)" fill-opacity="0.502"/>
<g transform="translate(5856.00 1968.00) rotate(47) scale(528.00 336.00)"><ellipse cx="0" cy="0" rx="1" ry="1" fill="rgb(31,86,139)" fill-opacity="0.502"/></g>
<g transform="translate(6304.00 528.00) rotate(134) scale(480.00 272.00)"><ellipse cx="0" cy="0" rx="1" ry="1" fill="rgb(34,104,177)" fill-opacity="0.502"/></g>
<g transform="translate(4976.00 2032.00) rotate(97) scale(352.00 512.00)"><ellipse cx="0" cy="0" rx="1" ry="1" fill="rgb(26,103,195)" fill-opacity="0.502"/></g>
<circle cx="5024.00" cy="624.00" r="256.00" fill="rgb(36,107,201)" fill-opacity="0.502"/>
<g transform="translate(5680.00 624.00) rotate(171) scale(928.00 288.00)"><ellipse cx="0" cy="0" rx="1" ry="1" fill="rgb(36,96,165)" fill-opacity="0.502"/></g>
<g transform="translate(5408.00 4192.00) rotate(317) scale(576.00 848.00)"><ellipse cx="0" cy="0" rx="1" ry="1" fill="rgb(6,0,0)" fill-opacity="0.502"/></g>
<circle cx="6624.00" cy="4592.00" r="480.00" fill="rgb(10,84,190)" fill-opacity="0.502"/>
<g transform="translate(592.00 1104.00) rotate(274) scale(8176.00 544.00)"><ellipse cx="0" cy="0" rx="1" ry="1" fill="rgb(0,0,0)" fill-opacity="0.502"/></g>
<g transform="translate(4080.00 0.00) rotate(100) scale(352.00 1600.00)"><ellipse cx="0" cy="0" rx="1" ry="1" fill="rgb(6,0,0)" fill-opacity="0.502"/></g>
<g transform="translate(3728.00 4192.00) rotate(252) scale(320.00 240.00)"><ellipse cx="0" cy="0" rx="1" ry="1" fill="rgb(63,36,30)" fill-opacity="0.502"/></g>
<circle cx="4944.00" cy="4592.00" r="928.00" fill="rgb(6,0,0)" fill-opacity="0.502"/>
<polygon points="4048.80,607.89 2848.38,885.03 2751.20,464.11 3951.62,186.97" fill="rgb(3,3,27)" fill-opacity="0.502"/>
<circle cx="7552.00" cy="2704.00" r="480.00" fill="rgb(0,0,0)" fill-opacity="0.502"/>
<circle cx="4960.00" cy="1888.00" r="112.00" fill="rgb(12,12,47)" fill-opacity="0.502"/>
<g transform="translate(2288.00 3344.00) rotate(348) scale(32.00 4592.00)"><ellipse cx="0" cy="0" rx="1" ry="1" fill="rgb(0,0,0)" fill-opacity="0.502"/></g>
<polygon points="3193.84,3444.13 2813.35,3786.72 2310.16,3227.87 2690.65,2885.28" fill="rgb(41,120,244)" fill-opacity="0.502"/>
<circle cx="1216.00" cy="592.00" r="640.00" fill="rgb(6,0,0)" fill-opacity="0.502"/>
<polygon points="3806.65,2100.90 3651.51,1821.02 4001.35,1627.10 4156.49,1906.98" fill="rgb(0,0,0)" fill-opacity="0.502"/>
<polygon points="3436.38,1312.54 3800.86,846.04 4355.62,1279.46 3991.14,1745.96" fill="rgb(3,0,0)" fill-opacity="0.502"/>
<polygon points="5055.58,1947.55 5151.33,2628.86 5040.42,2644.45 4944.67,1963.14" fill="rgb(5,0,0)" fill-opacity="0.502"/>
<g transform="translate(6768.00 3584.00) rotate(36) scale(304.00 352.00)"><ellipse cx="0" cy="0" rx="1" ry="1" fill="rgb(16,129,255)" fill-opacity="0.502"/></g>
<g transform="translate(6016.00 3776.00) rotate(341) scale(48.00 432.00)"><ellipse cx="0" cy="0" rx="1" ry="1" fill="rgb(36,139,255)" fill-opacity="0.502"/></g>
<g transform="translate(3056.00 2752.00) rotate(325) scale(144.00 112.00)"><ellipse cx="0" cy="0" rx="1" ry="1" fill="rgb(1,0,0)" fill-opacity="0.502"/></g>
<polygon points="6937.75,4118.86 7069.30,4177.43 7030.25,4265.14 6898.70,4206.57" fill="rgb(0,0,0)" fill-opacity="0.502"/>
<g transform="translate(5040.00 1408.00) rotate(0) scale(288.00 64.00)"><ellipse cx="0" cy="0" rx="1" ry="1" fill="rgb(0,0,0)" fill-opacity="0.502"/></g>
<circle cx="7872.00" cy="384.00" r="912.00" fill="rgb(0,0,0)" fill-opacity="0.502"/>
<polygon points="5409.14,2333.09 6638.18,2116.37 6654.86,2210.91 5425.82,2427.63" fill="rgb(0,0,0)" fill-opacity="0.502"/>
<circle cx="3408.00" cy="2016.00" r="128.00" fill="rgb(0,0,0)" fill-opacity="0.502"/>
<g transform="translate(4272.00 2176.00) rotate(91) scale(880.00 176.00)"><ellipse cx="0" cy="0" rx="1" ry="1" fill="rgb(9,0,0)" fill-opacity="0.502"/></g>
<g transform="translate(7680.00 3904.00) rotate(9) scale(576.00 1136.00)"><ellipse cx="0" cy="0" rx="1" ry="1" fill="rgb(0,0,0)" fill-opacity="0.502"/></g>
<polygon points="6434.95,3302.95 6926.12,3233.92 7053.05,4137.05 6561.88,4206.08" fill="rgb(14,123,247)" fill-opacity="0.502"/>
<g transform="translate(4144.00 1680.00) rotate(222) scale(208.00 352.00)"><ellipse cx="0" cy="0" rx="1" ry="1" fill="rgb(7,0,0)" fill-opacity="0.502"/></g>
<g transform="translate(2352.00 0.00) rotate(177) scale(2512.00 432.00)"><ellipse cx="0" cy="0" rx="1" ry="1" fill="rgb(7,0,0)" fill-opacity="0.502"/></g>
<circle cx="4880.00" cy="2672.00" r="256.00" fill="rgb(11,0,0)" fill-opacity="0.502"/>
<polygon points="3391.80,1798.21 3630.88,1819.13 3600.20,2169.79 3361.12,2148.87" fill="rgb(0,0,0)" fill-opacity="0.502"/>
<circle cx="2560.00" cy="1872.00" r="64.00" fill="rgb(0,0,3)" fill-opacity="0.502"/>
<circle cx="3184.00" cy="4592.00" r="256.00" fill="rgb(0,0,0)" fill-opacity="0.502"/>
<polygon points="3977.85,693.91 4311.35,652.96 4358.15,1034.09 4024.65,1075.04" fill="rgb(34,112,208)" fill-opacity="0.502"/>
<polygon points="2625.78,4179.19 2592.33,3860.95 2974.22,3820.81 3007.67,4139.05" fill="rgb(25,108,249)" fill-opacity="0.502"/>
<circle cx="4960.00" cy="3216.00" r="624.00" fill="rgb(13,2,0)" fill-opacity="0.502"/>
<g transform="translate(2432.00 1200.00) rotate(160) scale(544.00 224.00)"><ellipse cx="0" cy="0" rx="1" ry="1" fill="rgb(30,97,196)" fill-opacity="0.502"/></g>
<circle cx="6640.00" cy="2688.00" r="480.00" fill="rgb(28,121,213)" fill-opacity="0.502"/>
<polygon points="5789.00,1043.37 5700.47,587.89 5779.00,572.63 5867.53,1028.11" fill="rgb(2,0,0)" fill-opacity="0.502"/>
<g transform="translate(5952.00 1216.00) rotate(259) scale(48.00 2224.00)"><ellipse cx="0" cy="0" rx="1" ry="1" fill="rgb(0,0,0)" fill-opacity="0.502"/></g>
<circle cx="2880.00" cy="1808.00" r="128.00" fill="rgb(12,14,41)" fill-opacity="0.502"/>
<circle cx="1792.00" cy="3408.00" r="320.00" fill="rgb(13,74,192)" fill-opacity="0.502"/>
<polygon points="3129.36,3232.82 3048.07,2906.80 3094.64,2895.18 3175.93,3221.20" fill="rgb(0,0,0)" fill-opacity="0.502"/>
<polygon points="6957.04,4649.54 6728.94,4533.32 6866.96,4262.46 7095.06,4378.68" fill="rgb(7,118,255)" fill-opacity="0.502"/>
<polygon points="5475.50,2306.23 5115.54,2382.74 4972.50,1709.77 5332.46,1633.26" fill="rgb(35,126,218)" fill-opacity="0.502"/>
<circle cx="4144.00" cy="576.00" r="96.00" fill="rgb(6,0,6)" fill-opacity="0.502"/>
<polygon points="5986.89,3386.60 6174.70,3346.68 6301.11,3941.40 6113.30,3981.32" fill="rgb(22,138,255)" fill-opacity="0.502"/>
<polygon points="5926.43,3346.11 5929.78,3250.17 6265.57,3261.89 6262.22,3357.83" fill="rgb(0,0,4)" fill-opacity="0.502"/>
<polygon points="3564.54,1836.23 3430.84,1676.89 3651.46,1491.77 3785.16,1651.11" fill="rgb(216,98,83)" fill-opacity="0.502"/>
<g transform="translate(4752.00 928.00) rotate(78) scale(1744.00 64.00)"><ellipse cx="0" cy="0" rx="1" ry="1" fill="rgb(0,0,29)" fill-opacity="0.502"/></g>
<g transform="translate(3392.00 4592.00) rotate(258) scale(1072.00 304.00)"><ellipse cx="0" cy="0" rx="1" ry="1" fill="rgb(0,0,0)" fill-opacity="0.502"/></g>
<polygon points="5685.69,1799.95 5416.05,1573.69 5642.31,1304.05 5911.95,1530.31" fill="rgb(40,116,192)" fill-opacity="0.502"/>
<polygon points="1976.62,2051.55 2096.09,2729.10 1623.38,2812.45 1503.91,2134.90" fill="rgb(23,108,240)" fill-opacity="0.502"/>
<polygon points="2874.20,1817.57 2996.57,2347.63 2949.80,2358.43 2827.43,1828.37" fill="rgb(0,0,10)" fill-opacity="0.502"/>
<polygon points="5943.01,2955.29 6136.99,3067.29 5992.99,3316.71 5799.01,3204.71" fill="rgb(28,145,255)" fill-opacity="0.502"/>
<circle cx="2000.00" cy="2992.00" r="64.00" fill="rgb(1,0,0)" fill-opacity="0.502"/>
<g transform="translate(2784.00 1344.00) rotate(259) scale(496.00 48.00)"><ellipse cx="0" cy="0" rx="1" ry="1" fill="rgb(6,3,49)" fill-opacity="0.502"/></g>
<g transform="translate(5664.00 32.00) rotate(182) scale(832.00 192.00)"><ellipse cx="0" cy="0" rx="1" ry="1" fill="rgb(4,0,11)" fill-opacity="0.502"/></g>
<circle cx="5136.00" cy="1056.00" r="272.00" fill="rgb(32,118,213)" fill-opacity="0.502"/>
<circle cx="1152.00" cy="4096.00" r="480.00" fill="rgb(11,0,0)" fill-opacity="0.502"/>
<g transform="translate(2208.00 1952.00) rotate(259) scale(48.00 1312.00)"><ellipse cx="0" cy="0" rx="1" ry="1" fill="rgb(0,0,0)" fill-opacity="0.502"/></g>
<circle cx="7728.00" cy="2704.00" r="656.00" fill="rgb(0,0,0)" fill-opacity="0.502"/>
<g transform="translate(4368.00 2320.00) rotate(354) scale(128.00 480.00)"><ellipse cx="0" cy="0" rx="1" ry="1" fill="rgb(0,0,0)" fill-opacity="0.502"/></g>
<circle cx="1808.00" cy="1888.00" r="112.00" fill="rgb(17,122,255)" fill-opacity="0.502"/>
<circle cx="2048.00" cy="4304.00" r="368.00" fill="rgb(8,71,178)" fill-opacity="0.502"/>
<g transform="translate(4864.00 576.00) rotate(229) scale(64.00 96.00)"><ellipse cx="0" cy="0" rx="1" ry="1" fill="rgb(47,125,216)" fill-opacity="0.502"/></g>
<g transform="translate(416.00 1360.00) rotate(239) scale(992.00 560.00)"><ellipse cx="0" cy="0" rx="1" ry="1" fill="rgb(0,0,0)" fill-opacity="0.502"/></g>
<polygon points="3098.33,3181.70 3558.87,3125.16 3605.67,3506.30 3145.13,3562.84" fill="rgb(3,0,0)" fill-opacity="0.502"/>
<circle cx="4112.00" cy="3584.00" r="528.00" fill="rgb(34,20,14)" fill-opacity="0.502"/>
<circle cx="4544.00" cy="784.00" r="160.00" fill="rgb(27,98,191)" fill-opacity="0.502"/>
<circle cx="3088.00" cy="2352.00" r="384.00" fill="rgb(33,107,195)" fill-opacity="0.502"/>
<polygon points="3069.93,2440.81 3040.98,2646.78 2930.07,2631.19 2959.02,2425.22" fill="rgb(7,9,55)" fill-opacity="0.502"/>
<circle cx="5344.00" cy="768.00" r="368.00" fill="rgb(36,101,179)" fill-opacity="0.502"/>
<polygon points="2514.77,1874.15 2849.49,1903.43 2813.23,2317.85 2478.51,2288.57" fill="rgb(27,124,234)" fill-opacity="0.502"/>
<circle cx="3824.00" cy="1584.00" r="160.00" fill="rgb(125,35,29)" fill-opacity="0.502"/>
<g transform="translate(4640.00 1904.00) rotate(111) scale(304.00 160.00)"><ellipse cx="0" cy="0" rx="1" ry="1" fill="rgb(40,126,218)" fill-opacity="0.502"/></g>
<polygon points="4232.51,1109.12 4261.79,1443.84 3815.49,1482.88 3786.21,1148.16" fill="rgb(0,0,0)" fill-opacity="0.502"/>
<polygon points="5158.10,2586.43 5280.10,2398.57 5561.90,2581.57 5439.90,2769.43" fill="rgb(35,138,240)" fill-opacity="0.502"/>
<g transform="translate(6496.00 752.00) rotate(312) scale(208.00 368.00)"><ellipse cx="0" cy="0" rx="1" ry="1" fill="rgb(36,116,188)" fill-opacity="0.502"/></g>
<polygon points="6493.34,2690.39 6425.76,2263.71 6994.66,2173.61 7062.24,2600.29" fill="rgb(36,136,220)" fill-opacity="0.502"/>
<polygon points="5002.87,1411.68 5418.80,1404.41 5429.13,1996.32 5013.20,2003.59" fill="rgb(30,107,201)" fill-opacity="0.502"/>
<polygon points="1845.19,2600.37 1987.75,2527.74 2154.81,2855.63 2012.25,2928.26" fill="rgb(18,108,236)" fill-opacity="0.502"/>
<polygon points="2720.00,2816.00 2720.00,2880.00 2528.00,2880.00 2528.00,2816.00" fill="rgb(0,0,0)" fill-opacity="0.502"/>
<circle cx="4400.00" cy="4592.00" r="528.00" fill="rgb(6,0,0)" fill-opacity="0.502"/>
<g transform="translate(7792.00 1744.00) rotate(185) scale(704.00 2096.00)"><ellipse cx="0" cy="0" rx="1" ry="1" fill="rgb(0,0,0)" fill-opacity="0.502"/></g>
<circle cx="7360.00" cy="4464.00" r="288.00" fill="rgb(0,0,0)" fill-opacity="0.502"/>
<polygon points="2752.00,2752.00 3056.00,2752.00 3056.00,2848.00 2752.00,2848.00" fill="rgb(0,0,7)" fill-opacity="0.502"/>
<polygon points="3530.52,1177.42 3659.96,1271.47 3509.48,1478.58 3380.04,1384.53" fill="rgb(0,0,0)" fill-opacity="0.502"/>
<g transform="translate(1600.00 1616.00) rotate(341) scale(288.00 416.00)"><ellipse cx="0" cy="0" rx="1" ry="1" fill="rgb(24,98,212)" fill-opacity="0.502"/></g>
<circle cx="7584.00" cy="3312.00" r="512.00" fill="rgb(0,0,0)" fill-opacity="0.502"/>
<polygon points="3163.56,3356.93 2915.07,3467.56 2804.44,3219.07 3052.93,3108.44" fill="rgb(60,103,205)" fill-opacity="0.502"/>
<polygon points="2632.00,1000.00 2632.00,1240.00 2248.00,1240.00 2248.00,1000.00" fill="rgb(30,117,212)" fill-opacity="0.502"/>
<g transform="translate(1424.00 1600.00) rotate(56) scale(432.00 256.00)"><ellipse cx="0" cy="0" rx="1" ry="1" fill="rgb(26,96,203)" fill-opacity="0.502"/></g>
<polygon points="3454.19,2975.54 4067.02,2461.31 4673.81,3184.46 4060.98,3698.69" fill="rgb(19,9,6)" fill-opacity="0.502"/>
<circle cx="3760.00" cy="528.00" r="272.00" fill="rgb(0,0,5)" fill-opacity="0.502"/>
<g transform="translate(3200.00 896.00) rotate(167) scale(320.00 16.00)"><ellipse cx="0" cy="0" rx="1" ry="1" fill="rgb(97,235,255)" fill-opacity="0.502"/></g>
<polygon points="2875.65,4125.66 2884.31,4621.59 2612.35,4626.34 2603.69,4130.41" fill="rgb(4,81,206)" fill-opacity="0.502"/>
<circle cx="3904.00" cy="3840.00" r="288.00" fill="rgb(37,22,25)" fill-opacity="0.502"/>
<polygon points="5740.23,452.40 5947.34,301.93 6003.77,379.60 5796.66,530.07" fill="rgb(49,112,178)" fill-opacity="0.502"/>
<g transform="translate(5888.00 2240.00) rotate(350) scale(1168.00 16.00)"><ellipse cx="0" cy="0" rx="1" ry="1" fill="rgb(72,182,253)" fill-opacity="0.502"/></g>
<circle cx="4304.00" cy="960.00" r="208.00" fill="rgb(29,96,185)" fill-opacity="0.502"/>
<polygon points="3239.04,2757.76 3241.00,2645.77 3496.96,2650.24 3495.00,2762.23" fill="rgb(0,0,0)" fill-opacity="0.502"/>
<g transform="translate(4608.00 2448.00) rotate(301) scale(112.00 464.00)"><ellipse cx="0" cy="0" rx="1" ry="1" fill="rgb(3,0,0)" fill-opacity="0.502"/></g>
<circle cx="4912.00" cy="160.00" r="336.00" fill="rgb(7,7,31)" fill-opacity="0.502"/>
<polygon points="2964.93,1900.58 3244.37,1830.91 3403.07,2467.42 3123.63,2537.09" fill="rgb(32,128,227)" fill-opacity="0.502"/>
<polygon points="1225.61,2281.15 1651.04,2206.14 1734.39,2678.85 1308.96,2753.86" fill="rgb(23,86,200)" fill-opacity="0.502"/>
<circle cx="6720.00" cy="4480.00" r="192.00" fill="rgb(10,104,237)" fill-opacity="0.502"/>
<circle cx="6400.00" cy="4272.00" r="112.00" fill="rgb(10,1,0)" fill-opacity="0.502"/>
<circle cx="1680.00" cy="1264.00" r="144.00" fill="rgb(32,99,212)" fill-opacity="0.502"/>
<polygon points="6528.00,4192.00 6880.00,4192.00 6880.00,4288.00 6528.00,4288.00" fill="rgb(0,1,10)" fill-opacity="0.502"/>
<g transform="translate(3056.00 1392.00) rotate(238) scale(368.00 240.00)"><ellipse cx="0" cy="0" rx="1" ry="1" fill="rgb(36,119,213)" fill-opacity="0.502"/></g>
<polygon points="5226.56,438.27 5588.97,374.37 5733.44,1193.73 5371.03,1257.63" fill="rgb(39,102,169)" fill-opacity="0.502"/>
<circle cx="5648.00" cy="1824.00" r="272.00" fill="rgb(39,115,181)" fill-opacity="0.502"/>
<g transform="translate(1600.00 2416.00) rotate(206) scale(384.00 160.00)"><ellipse cx="0" cy="0" rx="1" ry="1" fill="rgb(18,92,204)" fill-opacity="0.502"/></g>
<g transform="translate(2304.00 2912.00) rotate(260) scale(48.00 1472.00)"><ellipse cx="0" cy="0" rx="1" ry="1" fill="rgb(0,0,13)" fill-opacity="0.502"/></g>
<polygon points="3750.80,4086.00 4055.14,4184.88 3961.20,4474.00 3656.86,4375.12" fill="rgb(68,36,33)" fill-opacity="0.502"/>
<circle cx="2528.00" cy="1728.00" r="128.00" fill="rgb(23,130,239)" fill-opacity="0.502"/>
<polygon points="6872.54,4736.22 7070.32,4407.06 7111.46,4431.78 6913.68,4760.94" fill="rgb(8,111,255)" fill-opacity="0.502"/>
<polygon points="3489.85,757.30 2867.37,713.77 2894.15,330.70 3516.63,374.23" fill="rgb(16,25,56)" fill-opacity="0.502"/>
<g transform="translate(3984.00 2144.00) rotate(157) scale(256.00 144.00)"><ellipse cx="0" cy="0" rx="1" ry="1" fill="rgb(137,49,33)" fill-opacity="0.502"/></g>
<g transform="translate(1744.00 752.00) rotate(235) scale(400.00 224.00)"><ellipse cx="0" cy="0" rx="1" ry="1" fill="rgb(7,6,30)" fill-opacity="0.502"/></g>
<circle cx="6928.00" cy="976.00" r="128.00" fill="rgb(2,18,72)" fill-opacity="0.502"/>
<g transform="translate(3616.00 3120.00) rotate(164) scale(416.00 240.00)"><ellipse cx="0" cy="0" rx="1" ry="1" fill="rgb(8,1,1)" fill-opacity="0.502"/></g>
<g transform="translate(4416.00 3024.00) rotate(291) scale(320.00 624.00)"><ellipse cx="0" cy="0" rx="1" ry="1" fill="rgb(24,14,13)" fill-opacity="0.502"/></g>
<polygon points="7108.78,461.92 6827.66,673.76 6683.22,482.08 6964.34,270.24" fill="rgb(0,1,39)" fill-opacity="0.502"/>
<g transform="translate(6080.00 1392.00) rotate(216) scale(96.00 176.00)"><ellipse cx="0" cy="0" rx="1" ry="1" fill="rgb(43,129,199)" fill-opacity="0.502"/></g>
<g transform="translate(4320.00 352.00) rotate(321) scale(352.00 256.00)"><ellipse cx="0" cy="0" rx="1" ry="1" fill="rgb(11,5,26)" fill-opacity="0.502"/></g>
<circle cx="7008.00" cy="3760.00" r="80.00" fill="rgb(18,125,255)" fill-opacity="0.502"/>
<circle cx="5744.00" cy="0.00" r="336.00" fill="rgb(7,4,22)" fill-opacity="0.502"/>
<g transform="translate(4864.00 1088.00) rotate(92) scale(16.00 144.00)"><ellipse cx="0" cy="0" rx="1" ry="1" fill="rgb(0,16,71)" fill-opacity="0.502"/></g>
<g transform="translate(5664.00 3344.00) rotate(180) scale(272.00 80.00)"><ellipse cx="0" cy="0" rx="1" ry="1" fill="rgb(1,0,0)" fill-opacity="0.502"/></g>
<polygon points="5334.82,1151.90 5274.37,659.60 5433.18,640.10 5493.63,1132.40" fill="rgb(24,66,133)" fill-opacity="0.502"/>
<polygon points="5858.53,1838.65 5973.48,2085.16 5741.47,2193.35 5626.52,1946.84" fill="rgb(37,124,197)" fill-opacity="0.502"/>
<circle cx="3680.00" cy="928.00" r="160.00" fill="rgb(0,0,14)" fill-opacity="0.502"/>
<circle cx="5648.00" cy="2736.00" r="176.00" fill="rgb(30,124,211)" fill-opacity="0.502"/>
<circle cx="2976.00" cy="1680.00" r="80.00" fill="rgb(34,132,243)" fill-opacity="0.502"/>
<circle cx="5584.00" cy="1120.00" r="112.00" fill="rgb(45,123,195)" fill-opacity="0.502"/>
<polygon points="4658.06,2235.98 4470.51,2677.82 4013.94,2484.02 4201.49,2042.18" fill="rgb(13,1,0)" fill-opacity="0.502"/>
<polygon points="1268.51,4072.51 1666.23,4311.48 1435.49,4695.49 1037.77,4456.52" fill="rgb(18,0,3)" fill-opacity="0.502"/>
<polygon points="1710.16,3846.60 1785.40,3950.16 1681.84,4025.40 1606.60,3921.84" fill="rgb(10,7,15)" fill-opacity="0.502"/>
<circle cx="5312.00" cy="3424.00" r="512.00" fill="rgb(6,0,0)" fill-opacity="0.502"/>
<polygon points="3525.68,2133.97 4183.61,1932.82 4202.32,1994.03 3544.39,2195.18" fill="rgb(149,72,73)" fill-opacity="0.502"/>
<polygon points="7983.49,3870.76 7704.24,4374.54 7088.51,4033.24 7367.76,3529.46" fill="rgb(0,0,0)" fill-opacity="0.502"/>
<g transform="translate(2256.00 3872.00) rotate(261) scale(48.00 1040.00)"><ellipse cx="0" cy="0" rx="1" ry="1" fill="rgb(0,0,0)" fill-opacity="0.502"/></g>
<circle cx="6416.00" cy="3024.00" r="208.00" fill="rgb(22,112,217)" fill-opacity="0.502"/>
<circle cx="464.00" cy="4288.00" r="704.00" fill="rgb(0,0,0)" fill-opacity="0.502"/>
<g transform="translate(6832.00 2592.00) rotate(171) scale(16.00 624.00)"><ellipse cx="0" cy="0" rx="1" ry="1" fill="rgb(1,51,154)" fill-opacity="0.502"/></g>
<circle cx="6432.00" cy="1328.00" r="160.00" fill="rgb(41,133,202)" fill-opacity="0.502"/>
<g transform="translate(2976.00 2384.00) rotate(259) scale(1504.00 32.00)"><ellipse cx="0" cy="0" rx="1" ry="1" fill="rgb(1,10,53)" fill-opacity="0.502"/></g>
<g transform="translate(1760.00 2752.00) rotate(201) scale(272.00 160.00)"><ellipse cx="0" cy="0" rx="1" ry="1" fill="rgb(19,91,218)" fill-opacity="0.502"/></g>
<polygon points="6552.62,2637.38 6745.83,2805.34 6567.38,3010.62 6374.17,2842.66" fill="rgb(20,94,183)" fill-opacity="0.502"/>
<circle cx="6464.00" cy="336.00" r="208.00" fill="rgb(36,98,178)" fill-opacity="0.502"/>
<circle cx="2896.00" cy="3008.00" r="144.00" fill="rgb(43,121,234)" fill-opacity="0.502"/>
<polygon points="4744.62,2410.51 4611.13,1999.65 4839.38,1925.49 4972.87,2336.35" fill="rgb(39,132,225)" fill-opacity="0.502"/>
<polygon points="2057.31,1071.79 1834.98,864.46 2118.69,560.21 2341.02,767.54" fill="rgb(10,9,38)" fill-opacity="0.502"/>
<g transform="translate(6112.00 2240.00) rotate(24) scale(112.00 32.00)"><ellipse cx="0" cy="0" rx="1" ry="1" fill="rgb(0,0,13)" fill-opacity="0.502"/></g>
<g transform="translate(5824.00 2800.00) rotate(188) scale(288.00 96.00)"><ellipse cx="0" cy="0" rx="1" ry="1" fill="rgb(40,127,220)" fill-opacity="0.502"/></g>
<circle cx="3408.00" cy="2848.00" r="64.00" fill="rgb(78,190,255)" fill-opacity="0.502"/>
<polygon points="3256.75,2669.38 3017.99,2508.33 3143.25,2322.62 3382.01,2483.67" fill="rgb(33,113,206)" fill-opacity="0.502"/>
<circle cx="3968.00" cy="2784.00" r="80.00" fill="rgb(130,72,74)" fill-opacity="0.502"/>
<polygon points="5789.38,2425.65 6006.61,2589.34 5746.62,2934.35 5529.39,2770.66" fill="rgb(25,104,189)" fill-opacity="0.502"/>
<circle cx="6208.00" cy="4304.00" r="80.00" fill="rgb(3,4,17)" fill-opacity="0.502"/>
<g transform="translate(6288.00 1776.00) rotate(142) scale(304.00 176.00)"><ellipse cx="0" cy="0" rx="1" ry="1" fill="rgb(37,110,173)" fill-opacity="0.502"/></g>
<g transform="translate(3920.00 960.00) rotate(37) scale(96.00 112.00)"><ellipse cx="0" cy="0" rx="1" ry="1" fill="rgb(16,38,80)" fill-opacity="0.502"/></g>
<g transform="translate(3712.00 2384.00) rotate(142) scale(144.00 304.00)"><ellipse cx="0" cy="0" rx="1" ry="1" fill="rgb(144,67,61)" fill-opacity="0.502"/></g>
<g transform="translate(1136.00 3216.00) rotate(128) scale(272.00 320.00)"><ellipse cx="0" cy="0" rx="1" ry="1" fill="rgb(7,1,2)" fill-opacity="0.502"/></g>
<g transform="translate(1472.00 880.00) rotate(240) scale(304.00 336.00)"><ellipse cx="0" cy="0" rx="1" ry="1" fill="rgb(8,9,34)" fill-opacity="0.502"/></g>
<polygon points="2932.89,1192.19 2793.79,1229.46 2715.11,935.81 2854.21,898.54" fill="rgb(43,88,157)" fill-opacity="0.502"/>
<g transform="translate(6944.00 4304.00) rotate(185) scale(176.00 32.00)"><ellipse cx="0" cy="0" rx="1" ry="1" fill="rgb(18,119,252)" fill-opacity="0.502"/></g>
<g transform="translate(2432.00 3184.00) rotate(249) scale(256.00 144.00)"><ellipse cx="0" cy="0" rx="1" ry="1" fill="rgb(16,100,212)" fill-opacity="0.502"/></g>
<g transform="translate(6096.00 3584.00) rotate(151) scale(80.00 240.00)"><ellipse cx="0" cy="0" rx="1" ry="1" fill="rgb(20,124,235)" fill-opacity="0.502"/></g>
<polygon points="5891.07,1664.25 5884.93,1312.31 5916.93,1311.75 5923.07,1663.69" fill="rgb(0,0,4)" fill-opacity="0.502"/>
<circle cx="1328.00" cy="4592.00" r="384.00" fill="rgb(14,0,2)" fill-opacity="0.502"/>
<circle cx="2736.00" cy="2944.00" r="80.00" fill="rgb(20,132,239)" fill-opacity="0.502"/>
<circle cx="3600.00" cy="2592.00" r="48.00" fill="rgb(66,177,255)" fill-opacity="0.502"/>
<polygon points="3000.72,670.84 3334.15,325.56 3495.28,481.16 3161.85,826.44" fill="rgb(13,17,45)" fill-opacity="0.502"/>
<polygon points="6999.46,4497.90 7070.10,4535.46 7032.54,4606.10 6961.90,4568.54" fill="rgb(3,109,255)" fill-opacity="0.502"/>
<circle cx="7280.00" cy="3168.00" r="224.00" fill="rgb(0,0,0)" fill-opacity="0.502"/>
<circle cx="5520.00" cy="4304.00" r="544.00" fill="rgb(8,0,0)" fill-opacity="0.502"/>
<polygon points="2449.83,3598.61 2459.81,3551.66 3070.17,3681.39 3060.19,3728.34" fill="rgb(19,108,240)" fill-opacity="0.502"/>
<polygon points="5939.66,1544.42 6043.46,2078.42 5996.34,2087.58 5892.54,1553.58" fill="rgb(0,0,0)" fill-opacity="0.502"/>
<g transform="translate(2704.00 528.00) rotate(197) scale(272.00 416.00)"><ellipse cx="0" cy="0" rx="1" ry="1" fill="rgb(7,6,23)" fill-opacity="0.502"/></g>
<polygon points="3343.74,768.97 3485.09,741.50 3552.26,1087.03 3410.91,1114.50" fill="rgb(34,121,226)" fill-opacity="0.502"/>
<g transform="translate(3536.00 2032.00) rotate(291) scale(144.00 64.00)"><ellipse cx="0" cy="0" rx="1" ry="1" fill="rgb(0,0,0)" fill-opacity="0.502"/></g>
<circle cx="5952.00" cy="1008.00" r="96.00" fill="rgb(53,137,190)" fill-opacity="0.502"/>
<g transform="translate(3440.00 1968.00) rotate(342) scale(144.00 96.00)"><ellipse cx="0" cy="0" rx="1" ry="1" fill="rgb(0,0,0)" fill-opacity="0.502"/></g>
<polygon points="6048.99,2073.28 6108.32,1890.67 6367.01,1974.72 6307.68,2157.33" fill="rgb(42,127,202)" fill-opacity="0.502"/>
<polygon points="4701.53,1393.02 4477.63,1268.90 4578.47,1086.98 4802.37,1211.10" fill="rgb(31,116,215)" fill-opacity="0.502"/>
<g transform="translate(3120.00 976.00) rotate(13) scale(304.00 96.00)"><ellipse cx="0" cy="0" rx="1" ry="1" fill="rgb(36,113,205)" fill-opacity="0.502"/></g>
<g transform="translate(2672.00 1856.00) rotate(258) scale(32.00 912.00)"><ellipse cx="0" cy="0" rx="1" ry="1" fill="rgb(4,0,13)" fill-opacity="0.502"/></g>
<polygon points="2413.83,1192.69 2653.39,1379.85 2338.17,1783.31 2098.61,1596.15" fill="rgb(24,114,225)" fill-opacity="0.502"/>
<g transform="translate(4368.00 3696.00) rotate(92) scale(32.00 384.00)"><ellipse cx="0" cy="0" rx="1" ry="1" fill="rgb(91,74,69)" fill-opacity="0.502"/></g>
<polygon points="2297.51,4505.06 2091.79,4628.67 1910.49,4326.94 2116.21,4203.33" fill="rgb(7,59,142)" fill-opacity="0.502"/>
<g transform="translate(512.00 2672.00) rotate(89) scale(1648.00 704.00)"><ellipse cx="0" cy="0" rx="1" ry="1" fill="rgb(0,0,0)" fill-opacity="0.502"/></g>
<polygon points="2224.53,2860.17 2207.79,2620.76 2335.47,2611.83 2352.21,2851.24" fill="rgb(29,106,221)" fill-opacity="0.502"/>
<polygon points="6080.00,4000.00 6304.00,4000.00 6304.00,4256.00 6080.00,4256.00" fill="rgb(22,118,245)" fill-opacity="0.502"/>
<g transform="translate(5136.00 768.00) rotate(235) scale(336.00 208.00)"><ellipse cx="0" cy="0" rx="1" ry="1" fill="rgb(30,106,196)" fill-opacity="0.502"/></g>
<polygon points="5157.12,837.18 5223.92,1312.51 4922.88,1354.82 4856.08,879.49" fill="rgb(34,108,196)" fill-opacity="0.502"/>
<circle cx="5616.00" cy="1056.00" r="160.00" fill="rgb(42,113,184)" fill-opacity="0.502"/>
<polygon points="1170.08,4349.46 1677.10,4420.72 1645.92,4642.54 1138.90,4571.28" fill="rgb(16,3,7)" fill-opacity="0.502"/>
<circle cx="2544.00" cy="720.00" r="224.00" fill="rgb(7,11,36)" fill-opacity="0.502"/>
<g transform="translate(4912.00 2960.00) rotate(318) scale(432.00 464.00)"><ellipse cx="0" cy="0" rx="1" ry="1" fill="rgb(11,3,2)" fill-opacity="0.502"/></g>
<g transform="translate(3424.00 1472.00) rotate(280) scale(160.00 48.00)"><ellipse cx="0" cy="0" rx="1" ry="1" fill="rgb(30,0,0)" fill-opacity="0.502"/></g>
<polygon points="1034.92,257.98 3037.61,-241.35 3173.08,302.02 1170.39,801.35" fill="rgb(10,0,2)" fill-opacity="0.502"/>
<polygon points="2976.72,3225.13 3292.78,3175.07 3295.28,3190.87 2979.22,3240.93" fill="rgb(0,1,64)" fill-opacity="0.502"/>
<circle cx="2192.00" cy="1840.00" r="80.00" fill="rgb(20,118,243)" fill-opacity="0.502"/>
<polygon points="2351.90,3072.12 2985.67,2983.05 3088.10,3711.88 2454.33,3800.95" fill="rgb(28,101,218)" fill-opacity="0.502"/>
<circle cx="400.00" cy="672.00" r="816.00" fill="rgb(0,0,0)" fill-opacity="0.502"/>
<polygon points="3647.84,976.13 3507.28,870.21 3536.16,831.87 3676.72,937.79" fill="rgb(0,4,26)" fill-opacity="0.502"/>
<circle cx="3648.00" cy="4592.00" r="256.00" fill="rgb(25,4,0)" fill-opacity="0.502"/>
<polygon points="6544.26,754.47 6716.41,717.88 6719.74,733.53 6547.59,770.12" fill="rgb(141,255,255)" fill-opacity="0.502"/>
<g transform="translate(6976.00 912.00) rotate(179) scale(96.00 976.00)"><ellipse cx="0" cy="0" rx="1" ry="1" fill="rgb(1,12,52)" fill-opacity="0.502"/></g>
<polygon points="6959.95,2159.41 5948.56,2319.60 5936.05,2240.59 6947.44,2080.40" fill="rgb(0,0,39)" fill-opacity="0.502"/>
<circle cx="4736.00" cy="3664.00" r="144.00" fill="rgb(12,6,0)" fill-opacity="0.502"/>
<polygon points="3004.77,4192.83 2981.37,4002.26 3267.23,3967.17 3290.63,4157.74" fill="rgb(0,0,0)" fill-opacity="0.502"/>
<circle cx="2448.00" cy="2128.00" r="192.00" fill="rgb(22,116,230)" fill-opacity="0.502"/>
<g transform="translate(6720.00 3648.00) rotate(246) scale(272.00 384.00)"><ellipse cx="0" cy="0" rx="1" ry="1" fill="rgb(14,118,230)" fill-opacity="0.502"/></g>
<circle cx="3168.00" cy="1440.00" r="192.00" fill="rgb(27,117,215)" fill-opacity="0.502"/>
<g transform="translate(3552.00 4032.00) rotate(187) scale(352.00 48.00)"><ellipse cx="0" cy="0" rx="1" ry="1" fill="rgb(1,0,0)" fill-opacity="0.502"/></g>
<g transform="translate(5008.00 784.00) rotate(62) scale(320.00 128.00)"><ellipse cx="0" cy="0" rx="1" ry="1" fill="rgb(28,98,192)" fill-opacity="0.502"/></g>
<circle cx="4608.00" cy="1088.00" r="144.00" fill="rgb(31,107,198)" fill-opacity="0.502"/>
<polygon points="6590.75,2370.09 6525.97,2650.71 6401.25,2621.91 6466.03,2341.29" fill="rgb(28,100,194)" fill-opacity="0.502"/>
<circle cx="2720.00" cy="2544.00" r="256.00" fill="rgb(31,114,222)" fill-opacity="0.502"/>
<g transform="translate(3856.00 1216.00) rotate(329) scale(112.00 624.00)"><ellipse cx="0" cy="0" rx="1" ry="1" fill="rgb(7,0,3)" fill-opacity="0.502"/></g>
<circle cx="3904.00" cy="3888.00" r="128.00" fill="rgb(18,1,4)" fill-opacity="0.502"/>
<polygon points="2731.42,2868.05 2830.31,3172.39 2708.58,3211.95 2609.69,2907.61" fill="rgb(22,126,244)" fill-opacity="0.502"/>
<polygon points="3697.92,3073.22 4114.08,2698.51 4478.08,3102.78 4061.92,3477.49" fill="rgb(13,6,7)" fill-opacity="0.502"/>
<polygon points="1179.82,2543.57 1273.73,2523.61 1380.18,3024.43 1286.27,3044.39" fill="rgb(13,10,22)" fill-opacity="0.502"/>
<polygon points="2387.73,1174.75 2384.68,1159.04 2620.27,1113.25 2623.32,1128.96" fill="rgb(0,0,57)" fill-opacity="0.502"/>
<circle cx="3856.00" cy="3664.00" r="80.00" fill="rgb(62,43,55)" fill-opacity="0.502"/>
<polygon points="2092.85,3479.69 2272.10,3548.50 2163.15,3832.31 1983.90,3763.50" fill="rgb(11,82,210)" fill-opacity="0.502"/>
<g transform="translate(3456.00 1072.00) rotate(348) scale(2544.00 16.00)"><ellipse cx="0" cy="0" rx="1" ry="1" fill="rgb(0,3,89)" fill-opacity="0.502"/></g>
<polygon points="6254.07,3236.38 7220.57,3100.55 7233.93,3195.62 6267.43,3331.45" fill="rgb(0,0,3)" fill-opacity="0.502"/>
<polygon points="6186.05,4365.11 6320.49,4416.71 6245.95,4610.89 6111.51,4559.29" fill="rgb(20,100,210)" fill-opacity="0.502"/>
<polygon points="5880.00,2584.00 5880.00,2344.00 5976.00,2344.00 5976.00,2584.00" fill="rgb(36,127,215)" fill-opacity="0.502"/>
<circle cx="4320.00" cy="192.00" r="432.00" fill="rgb(8,6,20)" fill-opacity="0.502"/>
<g transform="translate(7216.00 4256.00) rotate(286) scale(352.00 80.00)"><ellipse cx="0" cy="0" rx="1" ry="1" fill="rgb(0,0,0)" fill-opacity="0.502"/></g>
<circle cx="4720.00" cy="1376.00" r="32.00" fill="rgb(71,209,255)" fill-opacity="0.502"/>
<circle cx="6368.00" cy="3392.00" r="96.00" fill="rgb(33,144,246)" fill-opacity="0.502"/>
<polygon points="5651.40,1683.41 5656.96,1714.92 5420.60,1756.59 5415.04,1725.08" fill="rgb(0,0,43)" fill-opacity="0.502"/>
<circle cx="1344.00" cy="1888.00" r="208.00" fill="rgb(23,90,196)" fill-opacity="0.502"/>
<polygon points="7009.63,1922.98 6937.71,2101.00 6878.37,2077.02 6950.29,1899.00" fill="rgb(39,136,233)" fill-opacity="0.502"/>
<g transform="translate(2208.00 2128.00) rotate(124) scale(176.00 112.00)"><ellipse cx="0" cy="0" rx="1" ry="1" fill="rgb(29,107,212)" fill-opacity="0.502"/></g>
<polygon points="6573.51,4240.98 6430.34,4562.55 6386.49,4543.02 6529.66,4221.45" fill="rgb(17,28,45)" fill-opacity="0.502"/>
<g transform="translate(3840.00 1856.00) rotate(349) scale(624.00 48.00)"><ellipse cx="0" cy="0" rx="1" ry="1" fill="rgb(0,0,0)" fill-opacity="0.502"/></g>
<circle cx="7152.00" cy="0.00" r="528.00" fill="rgb(0,0,7)" fill-opacity="0.502"/>
<circle cx="6016.00" cy="3200.00" r="80.00" fill="rgb(27,149,254)" fill-opacity="0.502"/>
<g transform="translate(1536.00 96.00) rotate(302) scale(592.00 336.00)"><ellipse cx="0" cy="0" rx="1" ry="1" fill="rgb(14,1,4)" fill-opacity="0.502"/></g>
<circle cx="6256.00" cy="1424.00" r="64.00" fill="rgb(20,64,137)" fill-opacity="0.502"/>
<polygon points="2018.68,3919.43 1971.88,3963.08 1917.32,3904.57 1964.12,3860.92" fill="rgb(0,0,0)" fill-opacity="0.502"/>
<g transform="translate(2496.00 4480.00) rotate(168) scale(16.00 1936.00)"><ellipse cx="0" cy="0" rx="1" ry="1" fill="rgb(0,0,42)" fill-opacity="0.502"/></g>
<circle cx="3296.00" cy="3664.00" r="240.00" fill="rgb(11,4,4)" fill-opacity="0.502"/>
<g transform="translate(7280.00 3792.00) rotate(250) scale(480.00 96.00)"><ellipse cx="0" cy="0" rx="1" ry="1" fill="rgb(0,0,0)" fill-opacity="0.502"/></g>
<circle cx="6016.00" cy="2160.00" r="64.00" fill="rgb(0,11,43)" fill-opacity="0.502"/>
<circle cx="4720.00" cy="3184.00" r="320.00" fill="rgb(17,10,10)" fill-opacity="0.502"/>
<circle cx="5952.00" cy="224.00" r="80.00" fill="rgb(15,23,69)" fill-opacity="0.502"/>
<circle cx="6352.00" cy="928.00" r="32.00" fill="rgb(104,218,255)" fill-opacity="0.502"/>
<polygon points="3063.17,4244.94 3007.04,4428.55 2792.83,4363.06 2848.96,4179.45" fill="rgb(19,83,201)" fill-opacity="0.502"/>
<polygon points="4478.50,1293.90 4516.80,1188.65 4817.50,1298.10 4779.20,1403.35" fill="rgb(30,106,210)" fill-opacity="0.502"/>
<g transform="translate(2048.00 3248.00) rotate(175) scale(144.00 256.00)"><ellipse cx="0" cy="0" rx="1" ry="1" fill="rgb(17,93,215)" fill-opacity="0.502"/></g>
<circle cx="1536.00" cy="1856.00" r="192.00" fill="rgb(24,103,218)" fill-opacity="0.502"/>
<polygon points="2844.20,1249.13 2940.06,1396.73 2899.80,1422.87 2803.94,1275.27" fill="rgb(34,80,154)" fill-opacity="0.502"/>
<g transform="translate(3888.00 3168.00) rotate(29) scale(176.00 448.00)"><ellipse cx="0" cy="0" rx="1" ry="1" fill="rgb(19,12,13)" fill-opacity="0.502"/></g>
<circle cx="7696.00" cy="1872.00" r="592.00" fill="rgb(0,0,0)" fill-opacity="0.502"/>
<g transform="translate(1248.00 3648.00) rotate(278) scale(480.00 208.00)"><ellipse cx="0" cy="0" rx="1" ry="1" fill="rgb(10,6,14)" fill-opacity="0.502"/></g>
<circle cx="4720.00" cy="2000.00" r="224.00" fill="rgb(26,102,196)" fill-opacity="0.502"/>
<polygon points="4675.83,290.23 4808.35,784.78 4700.17,813.77 4567.65,319.22" fill="rgb(5,13,35)" fill-opacity="0.502"/>
<polygon points="4797.83,1474.80 4952.66,2095.79 4642.17,2173.20 4487.34,1552.21" fill="rgb(30,110,207)" fill-opacity="0.502"/>
<circle cx="2272.00" cy="4096.00" r="112.00" fill="rgb(11,81,202)" fill-opacity="0.502"/>
<circle cx="7568.00" cy="4304.00" r="496.00" fill="rgb(0,0,0)" fill-opacity="0.502"/>
<g transform="translate(4864.00 4016.00) rotate(160) scale(336.00 368.00)"><ellipse cx="0" cy="0" rx="1" ry="1" fill="rgb(10,1,0)" fill-opacity="0.502"/></g>
<polygon points="3770.34,1547.37 3765.60,1819.33 3381.66,1812.63 3386.40,1540.67" fill="rgb(160,72,59)" fill-opacity="0.502"/>
<g transform="translate(2576.00 3136.00) rotate(206) scale(208.00 208.00)"><ellipse cx="0" cy="0" rx="1" ry="1" fill="rgb(21,108,232)" fill-opacity="0.502"/></g>
<circle cx="5296.00" cy="2400.00" r="64.00" fill="rgb(0,0,31)" fill-opacity="0.502"/>
<polygon points="6443.79,4214.77 6424.34,4104.47 6692.21,4057.23 6711.66,4167.53" fill="rgb(19,124,248)" fill-opacity="0.502"/>
<polygon points="1880.60,3568.26 1829.38,3932.68 1623.40,3903.74 1674.62,3539.32" fill="rgb(11,70,178)" fill-opacity="0.502"/>
<polygon points="4446.26,1598.98 4560.86,1931.81 4545.74,1937.02 4431.14,1604.19" fill="rgb(53,75,105)" fill-opacity="0.502"/>
<circle cx="5632.00" cy="1968.00" r="32.00" fill="rgb(0,0,56)" fill-opacity="0.502"/>
<circle cx="4032.00" cy="2288.00" r="144.00" fill="rgb(94,32,18)" fill-opacity="0.502"/>
<polygon points="5295.69,2061.51 5528.56,2003.44 5536.31,2034.49 5303.44,2092.56" fill="rgb(72,216,255)" fill-opacity="0.502"/>
<polygon points="2646.41,1814.50 2611.57,1674.78 2937.59,1593.50 2972.43,1733.22" fill="rgb(40,105,207)" fill-opacity="0.502"/>
<g transform="translate(6048.00 400.00) rotate(349) scale(1312.00 16.00)"><ellipse cx="0" cy="0" rx="1" ry="1" fill="rgb(0,0,46)" fill-opacity="0.502"/></g>
<g transform="translate(1440.00 1792.00) rotate(211) scale(336.00 176.00)"><ellipse cx="0" cy="0" rx="1" ry="1" fill="rgb(23,94,201)" fill-opacity="0.502"/></g>
<circle cx="6528.00" cy="272.00" r="96.00" fill="rgb(51,131,208)" fill-opacity="0.502"/>
<g transform="translate(3952.00 2672.00) rotate(302) scale(192.00 32.00)"><ellipse cx="0" cy="0" rx="1" ry="1" fill="rgb(80,26,26)" fill-opacity="0.502"/></g>
<polygon points="3669.06,1910.47 3823.64,1771.29 3994.94,1961.53 3840.36,2100.71" fill="rgb(0,0,0)" fill-opacity="0.502"/>
<circle cx="6864.00" cy="304.00" r="208.00" fill="rgb(3,11,43)" fill-opacity="0.502"/>
<polygon points="3647.88,2577.86 3509.19,2686.21 3184.12,2270.14 3322.81,2161.79" fill="rgb(32,131,219)" fill-opacity="0.502"/>
<circle cx="5712.00" cy="1424.00" r="128.00" fill="rgb(43,120,198)" fill-opacity="0.502"/>
<circle cx="2960.00" cy="1888.00" r="64.00" fill="rgb(70,140,215)" fill-opacity="0.502"/>
<polygon points="2470.72,2487.23 2548.52,2567.79 2249.28,2856.77 2171.48,2776.21" fill="rgb(19,97,215)" fill-opacity="0.502"/>
<g transform="translate(4464.00 2352.00) rotate(104) scale(160.00 272.00)"><ellipse cx="0" cy="0" rx="1" ry="1" fill="rgb(1,0,0)" fill-opacity="0.502"/></g>
<circle cx="6640.00" cy="2976.00" r="96.00" fill="rgb(27,147,251)" fill-opacity="0.502"/>
<polygon points="2688.84,3760.10 3600.28,3791.92 3599.16,3823.90 2687.72,3792.08" fill="rgb(6,0,0)" fill-opacity="0.502"/>
<polygon points="3475.28,4027.50 3245.09,3805.21 3500.72,3540.50 3730.91,3762.79" fill="rgb(24,16,15)" fill-opacity="0.502"/>
<circle cx="4528.00" cy="2128.00" r="64.00" fill="rgb(52,117,169)" fill-opacity="0.502"/>
<circle cx="5456.00" cy="2512.00" r="96.00" fill="rgb(34,139,234)" fill-opacity="0.502"/>
<polygon points="3711.31,4525.99 3976.42,4413.46 4032.69,4546.01 3767.58,4658.54" fill="rgb(27,8,0)" fill-opacity="0.502"/>
<polygon points="3603.92,4629.43 2984.58,4553.38 3004.08,4394.57 3623.42,4470.62" fill="rgb(5,0,0)" fill-opacity="0.502"/>
<polygon points="6750.05,3555.20 6677.13,3343.40 7009.95,3228.80 7082.87,3440.60" fill="rgb(16,141,253)" fill-opacity="0.502"/>
<polygon points="2830.39,4534.52 2691.97,4494.83 2881.61,3833.48 3020.03,3873.17" fill="rgb(19,88,202)" fill-opacity="0.502"/>
<polygon points="1716.99,803.13 1792.10,944.40 1227.01,1244.87 1151.90,1103.60" fill="rgb(7,11,35)" fill-opacity="0.502"/>
<circle cx="4640.00" cy="4576.00" r="560.00" fill="rgb(5,0,0)" fill-opacity="0.502"/>
<g transform="translate(6624.00 2384.00) rotate(332) scale(464.00 96.00)"><ellipse cx="0" cy="0" rx="1" ry="1" fill="rgb(31,125,210)" fill-opacity="0.502"/></g>
<polygon points="3788.99,1987.60 3898.71,2053.53 3635.01,2492.40 3525.29,2426.47" fill="rgb(94,35,30)" fill-opacity="0.502"/>
<polygon points="4043.64,1536.85 4467.53,1725.58 4324.36,2047.15 3900.47,1858.42" fill="rgb(13,1,0)" fill-opacity="0.502"/>
<polygon points="2581.26,2576.74 2281.88,2629.53 2170.74,1999.26 2470.12,1946.47" fill="rgb(23,104,219)" fill-opacity="0.502"/>
<g transform="translate(6880.00 4592.00) rotate(122) scale(336.00 128.00)"><ellipse cx="0" cy="0" rx="1" ry="1" fill="rgb(8,96,228)" fill-opacity="0.502"/></g>
<circle cx="2656.00" cy="4032.00" r="192.00" fill="rgb(13,84,207)" fill-opacity="0.502"/>
<g transform="translate(2256.00 752.00) rotate(16) scale(224.00 272.00)"><ellipse cx="0" cy="0" rx="1" ry="1" fill="rgb(8,10,32)" fill-opacity="0.502"/></g>
<circle cx="3616.00" cy="4288.00" r="128.00" fill="rgb(46,24,26)" fill-opacity="0.502"/>
<polygon points="6215.37,2264.36 6434.80,2396.21 6360.63,2519.64 6141.20,2387.79" fill="rgb(42,140,208)" fill-opacity="0.502"/>
<g transform="translate(4464.00 3904.00) rotate(115) scale(64.00 464.00)"><ellipse cx="0" cy="0" rx="1" ry="1" fill="rgb(8,0,0)" fill-opacity="0.502"/></g>
<polygon points="3749.88,2486.24 3713.66,2454.74 3850.12,2297.76 3886.34,2329.26" fill="rgb(239,132,109)" fill-opacity="0.502"/>
<g transform="translate(5584.00 2992.00) rotate(0) scale(240.00 48.00)"><ellipse cx="0" cy="0" rx="1" ry="1" fill="rgb(6,2,4)" fill-opacity="0.502"/></g>
<g transform="translate(5568.00 4368.00) rotate(83) scale(1088.00 512.00)"><ellipse cx="0" cy="0" rx="1" ry="1" fill="rgb(7,0,0)" fill-opacity="0.502"/></g>
<polygon points="5009.13,487.91 5099.90,456.65 5198.87,744.09 5108.10,775.35" fill="rgb(45,139,231)" fill-opacity="0.502"/>
<polygon points="5819.33,2026.61 5822.11,2042.37 5396.67,2117.39 5393.89,2101.63" fill="rgb(108,255,255)" fill-opacity="0.502"/>
<circle cx="5472.00" cy="3264.00" r="304.00" fill="rgb(5,0,0)" fill-opacity="0.502"/>
<polygon points="3493.61,706.31 3493.61,706.31 3546.39,1005.69 3546.39,1005.69" fill="rgb(0,19,116)" fill-opacity="0.502"/>
<circle cx="2288.00" cy="1296.00" r="288.00" fill="rgb(28,111,215)" fill-opacity="0.502"/>
<polygon points="6460.02,1738.64 6362.78,1187.15 6803.98,1109.36 6901.22,1660.85" fill="rgb(44,130,200)" fill-opacity="0.502"/>
<g transform="translate(1232.00 1856.00) rotate(177) scale(80.00 240.00)"><ellipse cx="0" cy="0" rx="1" ry="1" fill="rgb(28,85,165)" fill-opacity="0.502"/></g>
<circle cx="3872.00" cy="48.00" r="352.00" fill="rgb(6,0,2)" fill-opacity="0.502"/>
<polygon points="6391.84,2869.40 6185.64,2781.88 6248.16,2634.60 6454.36,2722.12" fill="rgb(40,144,220)" fill-opacity="0.502"/>
<polygon points="6762.26,3696.65 6862.05,4166.16 6517.74,4239.35 6417.95,3769.84" fill="rgb(8,105,229)" fill-opacity="0.502"/>
<g transform="translate(1872.00 2080.00) rotate(344) scale(96.00 16.00)"><ellipse cx="0" cy="0" rx="1" ry="1" fill="rgb(80,162,247)" fill-opacity="0.502"/></g>
<circle cx="6672.00" cy="560.00" r="64.00" fill="rgb(60,144,221)" fill-opacity="0.502"/>
<circle cx="6784.00" cy="3040.00" r="112.00" fill="rgb(21,145,255)" fill-opacity="0.502"/>
<circle cx="5232.00" cy="2240.00" r="144.00" fill="rgb(25,104,203)" fill-opacity="0.502"/>
<circle cx="4448.00" cy="1568.00" r="16.00" fill="rgb(149,214,255)" fill-opacity="0.502"/>
<circle cx="2320.00" cy="3040.00" r="96.00" fill="rgb(24,102,197)" fill-opacity="0.502"/>
<polygon points="6937.78,775.03 6736.50,644.32 6806.22,536.97 7007.50,667.68" fill="rgb(1,8,44)" fill-opacity="0.502"/>
<g transform="translate(4400.00 704.00) rotate(152) scale(320.00 48.00)"><ellipse cx="0" cy="0" rx="1" ry="1" fill="rgb(32,94,173)" fill-opacity="0.502"/></g>
<polygon points="6638.33,1636.82 6510.81,1625.66 6545.67,1227.18 6673.19,1238.34" fill="rgb(23,93,176)" fill-opacity="0.502"/>
<polygon points="4859.62,3708.33 4952.77,3685.10 4964.38,3731.67 4871.23,3754.90" fill="rgb(35,24,27)" fill-opacity="0.502"/>
<circle cx="3200.00" cy="1904.00" r="112.00" fill="rgb(43,134,232)" fill-opacity="0.502"/>
<polygon points="3450.56,953.51 3555.73,1151.29 3301.44,1286.49 3196.27,1088.71" fill="rgb(36,136,224)" fill-opacity="0.502"/>
<polygon points="4359.72,797.72 4439.10,1206.07 4376.28,1218.28 4296.90,809.93" fill="rgb(13,61,145)" fill-opacity="0.502"/>
<polygon points="3562.51,4294.52 3378.86,4196.87 3461.49,4041.48 3645.14,4139.13" fill="rgb(36,18,19)" fill-opacity="0.502"/>
<g transform="translate(5728.00 592.00) rotate(169) scale(32.00 3024.00)"><ellipse cx="0" cy="0" rx="1" ry="1" fill="rgb(0,0,33)" fill-opacity="0.502"/></g>
<polygon points="3264.37,1908.64 3122.14,1931.16 3119.63,1915.36 3261.86,1892.84" fill="rgb(0,0,105)" fill-opacity="0.502"/>
<polygon points="3604.84,2773.40 3688.01,3164.66 3547.16,3194.60 3463.99,2803.34" fill="rgb(4,3,2)" fill-opacity="0.502"/>
<polygon points="4379.19,2255.64 4374.78,2240.26 4820.81,2112.36 4825.22,2127.74" fill="rgb(0,13,59)" fill-opacity="0.502"/>
<circle cx="7984.00" cy="3776.00" r="912.00" fill="rgb(0,0,0)" fill-opacity="0.502"/>
<polygon points="6413.03,3411.44 6456.79,3514.54 6338.97,3564.56 6295.21,3461.46" fill="rgb(23,120,226)" fill-opacity="0.502"/>
<polygon points="3092.47,837.29 2798.55,499.18 2955.53,362.71 3249.45,700.82" fill="rgb(16,19,48)" fill-opacity="0.502"/>
<polygon points="2559.21,1512.49 2637.46,1495.86 2640.79,1511.51 2562.54,1528.14" fill="rgb(0,0,90)" fill-opacity="0.502"/>
<polygon points="3067.35,4329.13 2924.96,4432.58 2708.65,4134.87 2851.04,4031.42" fill="rgb(14,82,197)" fill-opacity="0.502"/>
</g>
</svg>