<?xml version="1.0" standalone="no"?>
<svg xmlns="http://www.w3.org/2000/svg" width="8192" height="4608" viewBox="0 0 8192 4608" style="overflow:hidden">
<defs>
<clipPath id="c"><rect x="0" y="0" width="8192" height="4608"/></clipPath>
</defs>
<rect width="8192" height="4608" fill="rgb(14,33,63)"/>
<g clip-path="url(#c)">
<g transform="translate(6656.00 3824.00) rotate(354) scale(416.00 4592.00)"><ellipse cx="0" cy="0" rx="1" ry="1" fill="rgb(35,157,255)" fill-opacity="0.502"/></g>
<circle cx="2624.00" cy="2000.00" r="1328.00" fill="rgb(38,129,250)" fill-opacity="0.502"/>
<g transform="translate(8064.00 1616.00) rotate(87) scale(8176.00 1152.00)"><ellipse cx="0" cy="0" rx="1" ry="1" fill="rgb(0,0,0)" fill-opacity="0.502"/></g>
<g transform="translate(5408.00 608.00) rotate(177) scale(720.00 416.00)"><ellipse cx="0" cy="0" rx="1" ry="1" fill="rgb(52,139,219)" fill-opacity="0.502"/></g>
<circle cx="5536.00" cy="1504.00" r="528.00" fill="rgb(52,140,224)" fill-opacity="0.502"/>
<circle cx="4832.00" cy="3376.00" r="1408.00" fill="rgb(8,0,0)" fill-opacity="0.502"/>
<g transform="translate(2560.00 3936.00) rotate(0) scale(768.00 1424.00)"><ellipse cx="0" cy="0" rx="1" ry="1" fill="rgb(18,81,205)" fill-opacity="0.502"/></g>
<circle cx="0.00" cy="2944.00" r="1792.00" fill="rgb(0,0,0)" fill-opacity="0.502"/>
<g transform="translate(3312.00 832.00) rotate(204) scale(384.00 288.00)"><ellipse cx="0" cy="0" rx="1" ry="1" fill="rgb(50,152,243)" fill-opacity="0.502"/></g>
<circle cx="4176.00" cy="1472.00" r="528.00" fill="rgb(129,25,0)" fill-opacity="0.502"/>
<circle cx="320.00" cy="0.00" r="1504.00" fill="rgb(0,0,0)" fill-opacity="0.502"/>
<g transform="translate(6064.00 2144.00) rotate(181) scale(400.00 176.00)"><ellipse cx="0" cy="0" rx="1" ry="1" fill="rgb(51,140,210)" fill-opacity="0.502"/></g>
<circle cx="5104.00" cy="4176.00" r="1264.00" fill="rgb(5,0,0)" fill-opacity="0.502"/>
<circle cx="576.00" cy="3776.00" r="1200.00" fill="rgb(0,0,0)" fill-opacity="0.502"/>
<circle cx="2000.00" cy="2976.00" r="464.00" fill="rgb(17,63,160)" fill-opacity="0.502"/>
<g transform="translate(7680.00 2272.00) rotate(1) scale(624.00 4576.00)"><ellipse cx="0" cy="0" rx="1" ry="1" fill="rgb(0,0,0)" fill-opacity="0.502"/></g>
<circle cx="3760.00" cy="0.00" r="544.00" fill="rgb(2,0,0)" fill-opacity="0.502"/>
<circle cx="0.00" cy="1392.00" r="1296.00" fill="rgb(0,0,0)" fill-opacity="0.502"/>
<g transform="translate(5648.00 1008.00) rotate(202) scale(704.00 944.00)"><ellipse cx="0" cy="0" rx="1" ry="1" fill="rgb(38,95,151)" fill-opacity="0.502"/></g>
<circle cx="2032.00" cy="0.00" r="800.00" fill="rgb(5,0,0)" fill-opacity="0.502"/>
<circle cx="1648.00" cy="1248.00" r="400.00" fill="rgb(36,110,220)" fill-opacity="0.502"/>
<circle cx="4560.00" cy="2464.00" r="816.00" fill="rgb(36,3,0)" fill-opacity="0.502"/>
<circle cx="560.00" cy="496.00" r="832.00" fill="rgb(0,0,0)" fill-opacity="0.502"/>
<g transform="translate(2624.00 176.00) rotate(157) scale(960.00 464.00)"><ellipse cx="0" cy="0" rx="1" ry="1" fill="rgb(7,0,6)" fill-opacity="0.502"/></g>
<polygon points="6214.49,2888.38 7094.36,2903.74 7081.51,3639.62 6201.64,3624.26" fill="rgb(10,121,255)" fill-opacity="0.502"/>
<g transform="translate(1456.00 4400.00) rotate(296) scale(448.00 480.00)"><ellipse cx="0" cy="0" rx="1" ry="1" fill="rgb(18,0,0)" fill-opacity="0.502"/></g>
<g transform="translate(2464.00 1216.00) rotate(184) scale(320.00 320.00)"><ellipse cx="0" cy="0" rx="1" ry="1" fill="rgb(31,117,224)" fill-opacity="0.502"/></g>
<g transform="translate(2672.00 2464.00) rotate(261) scale(64.00 1296.00)"><ellipse cx="0" cy="0" rx="1" ry="1" fill="rgb(0,0,0)" fill-opacity="0.502"/></g>
<g transform="translate(4576.00 1056.00) rotate(248) scale(480.00 336.00)"><ellipse cx="0" cy="0" rx="1" ry="1" fill="rgb(20,0,0)" fill-opacity="0.502"/></g>
<circle cx="2528.00" cy="4368.00" r="272.00" fill="rgb(5,20,44)" fill-opacity="0.502"/>
<g transform="translate(4736.00 576.00) rotate(100) scale(128.00 720.00)"><ellipse cx="0" cy="0" rx="1" ry="1" fill="rgb(35,101,178)" fill-opacity="0.502"/></g>
<g transform="translate(2592.00 2096.00) rotate(251) scale(352.00 320.00)"><ellipse cx="0" cy="0" rx="1" ry="1" fill="rgb(24,116,237)" fill-opacity="0.502"/></g>
<circle cx="6256.00" cy="1440.00" r="512.00" fill="rgb(47,106,149)" fill-opacity="0.502"/>
<g transform="translate(3536.00 1664.00) rotate(92) scale(640.00 224.00)"><ellipse cx="0" cy="0" rx="1" ry="1" fill="rgb(33,133,204)" fill-opacity="0.502"/></g>
<g transform="translate(4464.00 0.00) rotate(86) scale(320.00 1936.00)"><ellipse cx="0" cy="0" rx="1" ry="1" fill="rgb(6,0,10)" fill-opacity="0.502"/></g>
<circle cx="1536.00" cy="1104.00" r="304.00" fill="rgb(32,92,169)" fill-opacity="0.502"/>
<circle cx="2928.00" cy="3776.00" r="384.00" fill="rgb(15,95,229)" fill-opacity="0.502"/>
<g transform="translate(3824.00 3568.00) rotate(198) scale(448.00 736.00)"><ellipse cx="0" cy="0" rx="1" ry="1" fill="rgb(7,0,0)" fill-opacity="0.502"/></g>
<circle cx="1008.00" cy="2320.00" r="464.00" fill="rgb(1,0,0)" fill-opacity="0.502"/>
<g transform="translate(3520.00 4528.00) rotate(225) scale(352.00 320.00)"><ellipse cx="0" cy="0" rx="1" ry="1" fill="rgb(15,68,181)" fill-opacity="0.502"/></g>
<polygon points="3969.95,561.75 4126.25,929.95 3758.05,1086.25 3601.75,718.05" fill="rgb(5,0,0)" fill-opacity="0.502"/>
<circle cx="5888.00" cy="4592.00" r="512.00" fill="rgb(4,0,0)" fill-opacity="0.502"/>
<polygon points="4192.82,938.97 4294.71,1191.16 3983.18,1317.03 3881.29,1064.84" fill="rgb(204,84,63)" fill-opacity="0.502"/>
<polygon points="1749.60,3896.95 1629.36,3041.36 1930.40,2999.05 2050.64,3854.64" fill="rgb(22,70,172)" fill-opacity="0.502"/>
<circle cx="4704.00" cy="720.00" r="160.00" fill="rgb(9,0,0)" fill-opacity="0.502"/>
<circle cx="6864.00" cy="4064.00" r="240.00" fill="rgb(0,85,255)" fill-opacity="0.502"/>
<polygon points="6341.63,1936.93 6849.82,1874.53 6906.37,2335.07 6398.18,2397.47" fill="rgb(45,136,215)" fill-opacity="0.502"/>
<circle cx="6704.00" cy="4352.00" r="368.00" fill="rgb(0,69,210)" fill-opacity="0.502"/>
<circle cx="5456.00" cy="2720.00" r="512.00" fill="rgb(4,0,0)" fill-opacity="0.502"/>
<circle cx="624.00" cy="3984.00" r="1136.00" fill="rgb(4,0,0)" fill-opacity="0.502"/>
<g transform="translate(5728.00 384.00) rotate(0) scale(96.00 736.00)"><ellipse cx="0" cy="0" rx="1" ry="1" fill="rgb(21,33,64)" fill-opacity="0.502"/></g>
<circle cx="7520.00" cy="2976.00" r="528.00" fill="rgb(0,0,0)" fill-opacity="0.502"/>
<polygon points="3547.53,3157.37 3282.50,3096.18 3444.47,2394.63 3709.50,2455.82" fill="rgb(41,140,233)" fill-opacity="0.502"/>
<circle cx="1472.00" cy="576.00" r="336.00" fill="rgb(8,0,10)" fill-opacity="0.502"/>
<g transform="translate(4160.00 1760.00) rotate(45) scale(160.00 368.00)"><ellipse cx="0" cy="0" rx="1" ry="1" fill="rgb(189,75,53)" fill-opacity="0.502"/></g>
<polygon points="6576.00,2544.00 6576.00,2784.00 6080.00,2784.00 6080.00,2544.00" fill="rgb(35,128,225)" fill-opacity="0.502"/>
<circle cx="1712.00" cy="2256.00" r="304.00" fill="rgb(27,90,210)" fill-opacity="0.502"/>
<polygon points="6359.88,4400.47 5071.32,4721.74 4568.12,2703.53 5856.68,2382.26" fill="rgb(9,0,0)" fill-opacity="0.502"/>
<g transform="translate(3280.00 960.00) rotate(29) scale(288.00 496.00)"><ellipse cx="0" cy="0" rx="1" ry="1" fill="rgb(41,118,191)" fill-opacity="0.502"/></g>
<circle cx="208.00" cy="2496.00" r="1280.00" fill="rgb(0,0,0)" fill-opacity="0.502"/>
<circle cx="3808.00" cy="1376.00" r="128.00" fill="rgb(0,0,0)" fill-opacity="0.502"/>
<circle cx="8176.00" cy="1424.00" r="1168.00" fill="rgb(0,0,0)" fill-opacity="0.502"/>
<g transform="translate(4624.00 1872.00) rotate(146) scale(384.00 304.00)"><ellipse cx="0" cy="0" rx="1" ry="1" fill="rgb(25,4,0)" fill-opacity="0.502"/></g>
<polygon points="4913.37,2987.29 4832.10,3178.75 4478.63,3028.71 4559.90,2837.25" fill="rgb(70,43,38)" fill-opacity="0.502"/>
<g transform="translate(7904.00 4096.00) rotate(9) scale(816.00 1344.00)"><ellipse cx="0" cy="0" rx="1" ry="1" fill="rgb(0,0,0)" fill-opacity="0.502"/></g>
<circle cx="3840.00" cy="3776.00" r="544.00" fill="rgb(4,0,0)" fill-opacity="0.502"/>
<polygon points="6048.00,1984.00 6144.00,1984.00 6144.00,2512.00 6048.00,2512.00" fill="rgb(49,144,202)" fill-opacity="0.502"/>
<g transform="translate(2000.00 1024.00) rotate(79) scale(4928.00 32.00)"><ellipse cx="0" cy="0" rx="1" ry="1" fill="rgb(0,0,0)" fill-opacity="0.502"/></g>
<circle cx="3216.00" cy="1712.00" r="224.00" fill="rgb(38,127,198)" fill-opacity="0.502"/>
<circle cx="7808.00" cy="2160.00" r="736.00" fill="rgb(0,0,0)" fill-opacity="0.502"/>
<circle cx="5184.00" cy="2320.00" r="400.00" fill="rgb(9,0,0)" fill-opacity="0.502"/>
<g transform="translate(6544.00 3200.00) rotate(26) scale(432.00 256.00)"><ellipse cx="0" cy="0" rx="1" ry="1" fill="rgb(20,114,228)" fill-opacity="0.502"/></g>
<circle cx="1056.00" cy="1760.00" r="352.00" fill="rgb(4,0,1)" fill-opacity="0.502"/>
<polygon points="4421.48,652.42 4837.41,659.68 4826.52,1283.58 4410.59,1276.32" fill="rgb(7,0,0)" fill-opacity="0.502"/>
<g transform="translate(2064.00 4320.00) rotate(174) scale(3120.00 48.00)"><ellipse cx="0" cy="0" rx="1" ry="1" fill="rgb(2,0,0)" fill-opacity="0.502"/></g>
<polygon points="3640.18,2712.64 4074.64,2385.25 4199.82,2551.36 3765.36,2878.75" fill="rgb(0,0,0)" fill-opacity="0.502"/>
<g transform="translate(1472.00 1824.00) rotate(350) scale(96.00 816.00)"><ellipse cx="0" cy="0" rx="1" ry="1" fill="rgb(34,80,155)" fill-opacity="0.502"/></g>
<g transform="translate(6912.00 400.00) rotate(263) scale(1136.00 288.00)"><ellipse cx="0" cy="0" rx="1" ry="1" fill="rgb(0,0,24)" fill-opacity="0.502"/></g>
<polygon points="4875.76,522.13 4011.93,690.05 3972.24,485.87 4836.07,317.95" fill="rgb(46,109,184)" fill-opacity="0.502"/>
<circle cx="4512.00" cy="4048.00" r="752.00" fill="rgb(7,0,0)" fill-opacity="0.502"/>
<circle cx="2176.00" cy="1632.00" r="64.00" fill="rgb(4,0,0)" fill-opacity="0.502"/>
<circle cx="4096.00" cy="2320.00" r="256.00" fill="rgb(0,0,0)" fill-opacity="0.502"/>
<polygon points="2996.36,1672.60 2782.03,1505.14 2939.64,1303.40 3153.97,1470.86" fill="rgb(13,19,39)" fill-opacity="0.502"/>
<polygon points="6835.80,3712.31 6596.09,4182.76 6268.20,4015.69 6507.91,3545.24" fill="rgb(1,55,162)" fill-opacity="0.502"/>
<g transform="translate(1840.00 2816.00) rotate(345) scale(288.00 176.00)"><ellipse cx="0" cy="0" rx="1" ry="1" fill="rgb(22,83,188)" fill-opacity="0.502"/></g>
<circle cx="1424.00" cy="4336.00" r="416.00" fill="rgb(18,0,0)" fill-opacity="0.502"/>
<g transform="translate(1872.00 624.00) rotate(155) scale(656.00 144.00)"><ellipse cx="0" cy="0" rx="1" ry="1" fill="rgb(8,11,36)" fill-opacity="0.502"/></g>
<circle cx="2832.00" cy="2800.00" r="320.00" fill="rgb(43,110,215)" fill-opacity="0.502"/>
<circle cx="6128.00" cy="432.00" r="400.00" fill="rgb(45,106,158)" fill-opacity="0.502"/>
<polygon points="1249.43,940.38 1665.36,947.64 1662.57,1107.62 1246.64,1100.36" fill="rgb(41,111,189)" fill-opacity="0.502"/>
<circle cx="6416.00" cy="1232.00" r="304.00" fill="rgb(48,122,176)" fill-opacity="0.502"/>
<polygon points="4054.43,650.66 3771.89,800.90 3561.57,405.34 3844.11,255.10" fill="rgb(5,0,13)" fill-opacity="0.502"/>
<polygon points="3254.28,1951.32 3447.00,2226.55 3289.72,2336.68 3097.00,2061.45" fill="rgb(37,133,201)" fill-opacity="0.502"/>
<circle cx="4320.00" cy="816.00" r="240.00" fill="rgb(10,0,0)" fill-opacity="0.502"/>
<polygon points="4981.52,3153.49 4017.54,3306.17 3962.48,2958.51 4926.46,2805.83" fill="rgb(43,24,23)" fill-opacity="0.502"/>
<circle cx="5200.00" cy="1616.00" r="240.00" fill="rgb(38,121,202)" fill-opacity="0.502"/>
<polygon points="3365.16,4018.05 3005.21,4094.56 2858.84,3405.95 3218.79,3329.44" fill="rgb(25,85,195)" fill-opacity="0.502"/>
<g transform="translate(5776.00 992.00) rotate(170) scale(32.00 1904.00)"><ellipse cx="0" cy="0" rx="1" ry="1" fill="rgb(0,0,13)" fill-opacity="0.502"/></g>
<circle cx="512.00" cy="608.00" r="800.00" fill="rgb(0,0,0)" fill-opacity="0.502"/>
<g transform="translate(6128.00 2384.00) rotate(300) scale(144.00 448.00)"><ellipse cx="0" cy="0" rx="1" ry="1" fill="rgb(33,105,173)" fill-opacity="0.502"/></g>
<polygon points="5984.53,2887.57 6998.56,2745.05 7007.47,2808.43 5993.44,2950.95" fill="rgb(0,0,0)" fill-opacity="0.502"/>
<circle cx="8016.00" cy="496.00" r="960.00" fill="rgb(0,0,0)" fill-opacity="0.502"/>
<circle cx="2128.00" cy="3824.00" r="352.00" fill="rgb(8,65,170)" fill-opacity="0.502"/>
<g transform="translate(6624.00 3184.00) rotate(248) scale(304.00 416.00)"><ellipse cx="0" cy="0" rx="1" ry="1" fill="rgb(18,116,225)" fill-opacity="0.502"/></g>
<g transform="translate(3184.00 2848.00) rotate(170) scale(16.00 3632.00)"><ellipse cx="0" cy="0" rx="1" ry="1" fill="rgb(0,0,0)" fill-opacity="0.502"/></g>
<circle cx="1888.00" cy="0.00" r="464.00" fill="rgb(12,0,0)" fill-opacity="0.502"/>
<circle cx="6576.00" cy="3456.00" r="304.00" fill="rgb(10,99,222)" fill-opacity="0.502"/>
<circle cx="4368.00" cy="2160.00" r="80.00" fill="rgb(160,80,67)" fill-opacity="0.502"/>
<g transform="translate(2592.00 2016.00) rotate(20) scale(304.00 464.00)"><ellipse cx="0" cy="0" rx="1" ry="1" fill="rgb(27,105,205)" fill-opacity="0.502"/></g>
<g transform="translate(2992.00 464.00) rotate(350) scale(928.00 144.00)"><ellipse cx="0" cy="0" rx="1" ry="1" fill="rgb(8,14,42)" fill-opacity="0.502"/></g>
<polygon points="4240.00,1744.00 3888.00,1744.00 3888.00,1568.00 4240.00,1568.00" fill="rgb(170,77,65)" fill-opacity="0.502"/>
<g transform="translate(3184.00 4576.00) rotate(274) scale(352.00 240.00)"><ellipse cx="0" cy="0" rx="1" ry="1" fill="rgb(7,73,184)" fill-opacity="0.502"/></g>
<polygon points="4724.50,670.07 4627.50,614.07 4731.50,433.93 4828.50,489.93" fill="rgb(12,16,65)" fill-opacity="0.502"/>
<circle cx="1952.00" cy="2288.00" r="256.00" fill="rgb(21,87,198)" fill-opacity="0.502"/>
<polygon points="6976.02,3776.23 6072.89,3903.15 6063.98,3839.77 6967.11,3712.85" fill="rgb(0,0,0)" fill-opacity="0.502"/>
<g transform="translate(3568.00 1392.00) rotate(0) scale(304.00 48.00)"><ellipse cx="0" cy="0" rx="1" ry="1" fill="rgb(0,0,12)" fill-opacity="0.502"/></g>
<g transform="translate(272.00 1936.00) rotate(124) scale(1312.00 864.00)"><ellipse cx="0" cy="0" rx="1" ry="1" fill="rgb(0,0,0)" fill-opacity="0.502"/></g>
<g transform="translate(1312.00 1840.00) rotate(74) scale(64.00 848.00)"><ellipse cx="0" cy="0" rx="1" ry="1" fill="rgb(3,0,6)" fill-opacity="0.502"/></g>
<circle cx="6160.00" cy="912.00" r="112.00" fill="rgb(10,29,82)" fill-opacity="0.502"/>
<circle cx="6816.00" cy="2608.00" r="128.00" fill="rgb(32,150,255)" fill-opacity="0.502"/>
<circle cx="5248.00" cy="624.00" r="432.00" fill="rgb(34,99,165)" fill-opacity="0.502"/>
<circle cx="4592.00" cy="2128.00" r="176.00" fill="rgb(61,34,31)" fill-opacity="0.502"/>
<circle cx="1984.00" cy="3504.00" r="112.00" fill="rgb(10,15,49)" fill-opacity="0.502"/>
<circle cx="6704.00" cy="3360.00" r="352.00" fill="rgb(16,115,225)" fill-opacity="0.502"/>
<circle cx="6368.00" cy="128.00" r="192.00" fill="rgb(39,83,139)" fill-opacity="0.502"/>
<polygon points="5259.07,1031.63 5700.26,953.83 5716.93,1048.37 5275.74,1126.17" fill="rgb(0,0,0)" fill-opacity="0.502"/>
<circle cx="384.00" cy="3920.00" r="896.00" fill="rgb(0,0,0)" fill-opacity="0.502"/>
<polygon points="3341.39,740.44 3675.16,1062.76 3330.61,1419.56 2996.84,1097.24" fill="rgb(34,111,185)" fill-opacity="0.502"/>
<polygon points="2854.99,652.39 3053.90,591.58 3241.01,1203.61 3042.10,1264.42" fill="rgb(40,103,170)" fill-opacity="0.502"/>
<circle cx="3408.00" cy="3376.00" r="80.00" fill="rgb(64,108,194)" fill-opacity="0.502"/>
<g transform="translate(3360.00 256.00) rotate(231) scale(208.00 224.00)"><ellipse cx="0" cy="0" rx="1" ry="1" fill="rgb(15,28,57)" fill-opacity="0.502"/></g>
<circle cx="4672.00" cy="624.00" r="64.00" fill="rgb(58,112,187)" fill-opacity="0.502"/>
<g transform="translate(3312.00 3088.00) rotate(247) scale(160.00 64.00)"><ellipse cx="0" cy="0" rx="1" ry="1" fill="rgb(37,83,150)" fill-opacity="0.502"/></g>
<circle cx="3744.00" cy="3520.00" r="336.00" fill="rgb(6,0,0)" fill-opacity="0.502"/>
<polygon points="6493.39,800.64 6947.25,897.11 6930.61,975.36 6476.75,878.89" fill="rgb(2,3,42)" fill-opacity="0.502"/>
<circle cx="2400.00" cy="4544.00" r="208.00" fill="rgb(7,61,155)" fill-opacity="0.502"/>
<circle cx="1968.00" cy="3040.00" r="336.00" fill="rgb(18,71,177)" fill-opacity="0.502"/>
<g transform="translate(4080.00 336.00) rotate(266) scale(96.00 496.00)"><ellipse cx="0" cy="0" rx="1" ry="1" fill="rgb(5,0,15)" fill-opacity="0.502"/></g>
<polygon points="3825.55,4271.29 3837.83,4446.86 3582.45,4464.71 3570.17,4289.14" fill="rgb(22,89,211)" fill-opacity="0.502"/>
<circle cx="5392.00" cy="3680.00" r="848.00" fill="rgb(6,0,0)" fill-opacity="0.502"/>
<polygon points="5539.87,2025.86 5533.18,1962.21 5724.13,1942.14 5730.82,2005.79" fill="rgb(0,0,0)" fill-opacity="0.502"/>
<circle cx="6560.00" cy="4128.00" r="272.00" fill="rgb(12,91,204)" fill-opacity="0.502"/>
<circle cx="4512.00" cy="4464.00" r="672.00" fill="rgb(5,0,0)" fill-opacity="0.502"/>
<circle cx="1744.00" cy="2032.00" r="304.00" fill="rgb(26,87,187)" fill-opacity="0.502"/>
<g transform="translate(6176.00 320.00) rotate(101) scale(256.00 464.00)"><ellipse cx="0" cy="0" rx="1" ry="1" fill="rgb(39,97,152)" fill-opacity="0.502"/></g>
<polygon points="3012.72,2161.91 2908.06,1417.23 2987.28,1406.09 3091.94,2150.77" fill="rgb(8,23,80)" fill-opacity="0.502"/>
<polygon points="5329.52,1150.95 5416.48,1475.50 5246.48,1521.05 5159.52,1196.50" fill="rgb(38,122,207)" fill-opacity="0.502"/>
<circle cx="6096.00" cy="1216.00" r="240.00" fill="rgb(42,115,168)" fill-opacity="0.502"/>
<circle cx="704.00" cy="256.00" r="720.00" fill="rgb(2,0,0)" fill-opacity="0.502"/>
<circle cx="1888.00" cy="896.00" r="80.00" fill="rgb(49,118,224)" fill-opacity="0.502"/>
<circle cx="1296.00" cy="3056.00" r="320.00" fill="rgb(12,0,10)" fill-opacity="0.502"/>
<g transform="translate(6208.00 704.00) rotate(167) scale(448.00 176.00)"><ellipse cx="0" cy="0" rx="1" ry="1" fill="rgb(42,115,173)" fill-opacity="0.502"/></g>
<circle cx="7344.00" cy="3280.00" r="304.00" fill="rgb(0,0,0)" fill-opacity="0.502"/>
<g transform="translate(4288.00 1440.00) rotate(274) scale(112.00 560.00)"><ellipse cx="0" cy="0" rx="1" ry="1" fill="rgb(21,11,5)" fill-opacity="0.502"/></g>
<polygon points="2599.99,3019.60 2862.11,2836.06 3064.01,3124.40 2801.89,3307.94" fill="rgb(75,104,194)" fill-opacity="0.502"/>
<polygon points="3382.99,1368.99 3396.88,1447.78 3129.01,1495.01 3115.12,1416.22" fill="rgb(0,0,0)" fill-opacity="0.502"/>
<circle cx="4960.00" cy="976.00" r="96.00" fill="rgb(56,132,204)" fill-opacity="0.502"/>
<circle cx="2160.00" cy="3456.00" r="80.00" fill="rgb(8,4,19)" fill-opacity="0.502"/>
<g transform="translate(2096.00 2736.00) rotate(66) scale(128.00 160.00)"><ellipse cx="0" cy="0" rx="1" ry="1" fill="rgb(20,94,202)" fill-opacity="0.502"/></g>
<polygon points="3992.36,2227.46 3811.07,1925.74 3879.64,1884.54 4060.93,2186.26" fill="rgb(0,0,0)" fill-opacity="0.502"/>
<polygon points="4592.88,1365.45 4423.24,899.36 4799.12,762.55 4968.76,1228.64" fill="rgb(8,0,0)" fill-opacity="0.502"/>
<circle cx="6432.00" cy="3648.00" r="128.00" fill="rgb(9,86,210)" fill-opacity="0.502"/>
<polygon points="3385.51,2815.78 3235.16,2761.06 3366.49,2400.22 3516.84,2454.94" fill="rgb(41,126,208)" fill-opacity="0.502"/>
<polygon points="4952.67,1437.82 5031.78,1194.35 5351.33,1298.18 5272.22,1541.65" fill="rgb(32,110,189)" fill-opacity="0.502"/>
<polygon points="2769.77,1567.37 2709.36,1492.77 2734.23,1472.63 2794.64,1547.23" fill="rgb(0,0,0)" fill-opacity="0.502"/>
<polygon points="3812.32,1668.35 3744.70,1813.36 3483.68,1691.65 3551.30,1546.64" fill="rgb(30,127,209)" fill-opacity="0.502"/>
<g transform="translate(3952.00 2608.00) rotate(72) scale(256.00 256.00)"><ellipse cx="0" cy="0" rx="1" ry="1" fill="rgb(5,1,0)" fill-opacity="0.502"/></g>
<g transform="translate(4624.00 2672.00) rotate(173) scale(640.00 304.00)"><ellipse cx="0" cy="0" rx="1" ry="1" fill="rgb(23,12,11)" fill-opacity="0.502"/></g>
<polygon points="4850.08,289.39 5212.49,353.29 5181.92,526.61 4819.51,462.71" fill="rgb(27,105,190)" fill-opacity="0.502"/>
<polygon points="6378.81,4436.38 6320.83,4652.75 6197.19,4619.62 6255.17,4403.25" fill="rgb(8,0,0)" fill-opacity="0.502"/>
<g transform="translate(7504.00 704.00) rotate(272) scale(4480.00 416.00)"><ellipse cx="0" cy="0" rx="1" ry="1" fill="rgb(0,0,0)" fill-opacity="0.502"/></g>
<polygon points="1803.77,2201.78 1656.39,1935.90 2020.23,1734.22 2167.61,2000.10" fill="rgb(25,94,198)" fill-opacity="0.502"/>
<polygon points="4545.26,889.29 4354.31,869.22 4382.74,598.71 4573.69,618.78" fill="rgb(0,0,0)" fill-opacity="0.502"/>
<polygon points="5507.70,477.93 5466.75,811.42 5260.30,786.07 5301.25,452.58" fill="rgb(32,67,119)" fill-opacity="0.502"/>
<circle cx="5040.00" cy="2352.00" r="480.00" fill="rgb(14,5,5)" fill-opacity="0.502"/>
<g transform="translate(4016.00 80.00) rotate(338) scale(496.00 384.00)"><ellipse cx="0" cy="0" rx="1" ry="1" fill="rgb(8,1,13)" fill-opacity="0.502"/></g>
<polygon points="3874.56,1279.81 3885.73,960.00 4349.44,976.19 4338.27,1296.00" fill="rgb(145,55,46)" fill-opacity="0.502"/>
<polygon points="5538.79,2425.57 5265.99,2133.03 5453.21,1958.43 5726.01,2250.97" fill="rgb(5,0,0)" fill-opacity="0.502"/>
<circle cx="2416.00" cy="3376.00" r="112.00" fill="rgb(12,8,29)" fill-opacity="0.502"/>
<g transform="translate(2240.00 3584.00) rotate(212) scale(160.00 112.00)"><ellipse cx="0" cy="0" rx="1" ry="1" fill="rgb(20,73,185)" fill-opacity="0.502"/></g>
<polygon points="1250.91,3312.34 1853.65,3473.84 1837.09,3535.66 1234.35,3374.16" fill="rgb(11,0,4)" fill-opacity="0.502"/>
<polygon points="6247.98,2011.63 6140.96,1915.27 6248.02,1796.37 6355.04,1892.73" fill="rgb(2,19,57)" fill-opacity="0.502"/>
<polygon points="3634.70,899.55 3977.89,611.58 4173.30,844.45 3830.11,1132.42" fill="rgb(11,3,18)" fill-opacity="0.502"/>
<circle cx="6144.00" cy="2976.00" r="48.00" fill="rgb(57,122,190)" fill-opacity="0.502"/>
<circle cx="6592.00" cy="1840.00" r="48.00" fill="rgb(0,0,0)" fill-opacity="0.502"/>
<polygon points="3852.91,2118.75 3737.81,2229.89 3571.09,2057.25 3686.19,1946.11" fill="rgb(38,144,209)" fill-opacity="0.502"/>
<circle cx="1728.00" cy="1360.00" r="320.00" fill="rgb(26,87,182)" fill-opacity="0.502"/>
<polygon points="3823.91,1778.75 3807.72,2242.47 3200.09,2221.25 3216.28,1757.53" fill="rgb(32,119,191)" fill-opacity="0.502"/>
<polygon points="2513.96,628.31 2494.70,260.81 2974.04,235.69 2993.30,603.19" fill="rgb(9,14,36)" fill-opacity="0.502"/>
<g transform="translate(6992.00 1776.00) rotate(137) scale(208.00 144.00)"><ellipse cx="0" cy="0" rx="1" ry="1" fill="rgb(0,9,48)" fill-opacity="0.502"/></g>
<polygon points="3860.74,1372.77 3946.54,2071.53 3851.26,2083.23 3765.46,1384.47" fill="rgb(0,0,0)" fill-opacity="0.502"/>
<g transform="translate(3024.00 3312.00) rotate(352) scale(1664.00 48.00)"><ellipse cx="0" cy="0" rx="1" ry="1" fill="rgb(4,0,0)" fill-opacity="0.502"/></g>
<g transform="translate(5856.00 976.00) rotate(351) scale(1504.00 48.00)"><ellipse cx="0" cy="0" rx="1" ry="1" fill="rgb(0,0,18)" fill-opacity="0.502"/></g>
<g transform="translate(1936.00 1664.00) rotate(350) scale(2064.00 48.00)"><ellipse cx="0" cy="0" rx="1" ry="1" fill="rgb(0,0,11)" fill-opacity="0.502"/></g>
<polygon points="4786.36,1329.28 4781.62,1601.24 4637.64,1598.72 4642.38,1326.76" fill="rgb(111,67,61)" fill-opacity="0.502"/>
<circle cx="4704.00" cy="1824.00" r="256.00" fill="rgb(14,1,0)" fill-opacity="0.502"/>
<g transform="translate(4592.00 1936.00) rotate(217) scale(48.00 288.00)"><ellipse cx="0" cy="0" rx="1" ry="1" fill="rgb(114,55,55)" fill-opacity="0.502"/></g>
<circle cx="4560.00" cy="2928.00" r="416.00" fill="rgb(33,17,18)" fill-opacity="0.502"/>
<circle cx="6032.00" cy="2976.00" r="96.00" fill="rgb(2,0,0)" fill-opacity="0.502"/>
<g transform="translate(6928.00 1152.00) rotate(24) scale(208.00 176.00)"><ellipse cx="0" cy="0" rx="1" ry="1" fill="rgb(0,18,58)" fill-opacity="0.502"/></g>
<circle cx="7792.00" cy="4368.00" r="720.00" fill="rgb(0,0,0)" fill-opacity="0.502"/>
<polygon points="2480.68,2303.69 2361.61,1691.16 2911.32,1584.31 3030.39,2196.84" fill="rgb(30,110,201)" fill-opacity="0.502"/>
<g transform="translate(1504.00 4208.00) rotate(77) scale(1184.00 304.00)"><ellipse cx="0" cy="0" rx="1" ry="1" fill="rgb(17,0,2)" fill-opacity="0.502"/></g>
<polygon points="6724.93,2560.65 6757.33,2700.96 6539.07,2751.35 6506.67,2611.04" fill="rgb(29,134,235)" fill-opacity="0.502"/>
<circle cx="6032.00" cy="2560.00" r="112.00" fill="rgb(41,64,85)" fill-opacity="0.502"/>
<polygon points="6631.74,2891.43 6964.47,2844.67 7080.26,3668.57 6747.53,3715.33" fill="rgb(18,128,237)" fill-opacity="0.502"/>
<circle cx="6192.00" cy="1696.00" r="192.00" fill="rgb(47,122,177)" fill-opacity="0.502"/>
<circle cx="5904.00" cy="896.00" r="32.00" fill="rgb(96,244,255)" fill-opacity="0.502"/>
<circle cx="5152.00" cy="960.00" r="96.00" fill="rgb(39,128,216)" fill-opacity="0.502"/>
<g transform="translate(2288.00 0.00) rotate(82) scale(240.00 1360.00)"><ellipse cx="0" cy="0" rx="1" ry="1" fill="rgb(11,0,0)" fill-opacity="0.502"/></g>
<g transform="translate(2560.00 848.00) rotate(145) scale(272.00 128.00)"><ellipse cx="0" cy="0" rx="1" ry="1" fill="rgb(33,111,195)" fill-opacity="0.502"/></g>
<g transform="translate(4432.00 1376.00) rotate(92) scale(352.00 80.00)"><ellipse cx="0" cy="0" rx="1" ry="1" fill="rgb(93,27,23)" fill-opacity="0.502"/></g>
<circle cx="6592.00" cy="4368.00" r="80.00" fill="rgb(9,55,143)" fill-opacity="0.502"/>
<g transform="translate(2304.00 1264.00) rotate(261) scale(304.00 160.00)"><ellipse cx="0" cy="0" rx="1" ry="1" fill="rgb(32,89,181)" fill-opacity="0.502"/></g>
<g transform="translate(5808.00 2272.00) rotate(67) scale(80.00 16.00)"><ellipse cx="0" cy="0" rx="1" ry="1" fill="rgb(87,178,217)" fill-opacity="0.502"/></g>
<circle cx="6864.00" cy="800.00" r="208.00" fill="rgb(2,15,51)" fill-opacity="0.502"/>
<circle cx="4192.00" cy="1456.00" r="112.00" fill="rgb(0,0,0)" fill-opacity="0.502"/>
<g transform="translate(4320.00 832.00) rotate(330) scale(304.00 192.00)"><ellipse cx="0" cy="0" rx="1" ry="1" fill="rgb(14,0,0)" fill-opacity="0.502"/></g>
<polygon points="1376.42,1985.82 1416.11,1781.64 1871.58,1870.18 1831.89,2074.36" fill="rgb(30,82,173)" fill-opacity="0.502"/>
<polygon points="1690.81,868.07 1478.84,528.85 1845.19,299.93 2057.16,639.15" fill="rgb(10,13,37)" fill-opacity="0.502"/>
<polygon points="1240.45,2356.54 1511.83,2526.12 1223.55,2987.46 952.17,2817.88" fill="rgb(10,2,20)" fill-opacity="0.502"/>
<polygon points="2504.15,1600.91 2672.95,1998.56 2407.85,2111.09 2239.05,1713.44" fill="rgb(20,93,198)" fill-opacity="0.502"/>
<circle cx="4400.00" cy="3696.00" r="464.00" fill="rgb(10,0,0)" fill-opacity="0.502"/>
<circle cx="4672.00" cy="112.00" r="240.00" fill="rgb(5,4,23)" fill-opacity="0.502"/>
<polygon points="2455.41,857.68 2655.36,800.35 2840.59,1446.32 2640.64,1503.65" fill="rgb(33,115,201)" fill-opacity="0.502"/>
<g transform="translate(5952.00 4400.00) rotate(287) scale(544.00 352.00)"><ellipse cx="0" cy="0" rx="1" ry="1" fill="rgb(5,0,0)" fill-opacity="0.502"/></g>
<polygon points="4681.39,487.34 4381.13,534.89 4358.61,392.66 4658.87,345.11" fill="rgb(29,105,190)" fill-opacity="0.502"/>
<polygon points="3692.23,1227.39 3362.41,1291.50 3267.77,804.61 3597.59,740.50" fill="rgb(39,116,194)" fill-opacity="0.502"/>
<circle cx="1920.00" cy="3184.00" r="240.00" fill="rgb(18,64,163)" fill-opacity="0.502"/>
<polygon points="3572.88,3111.78 3305.01,3159.01 3291.12,3080.22 3558.99,3032.99" fill="rgb(55,120,221)" fill-opacity="0.502"/>
<polygon points="6595.62,2515.78 6199.51,2571.45 6188.38,2492.22 6584.49,2436.55" fill="rgb(0,2,91)" fill-opacity="0.502"/>
<polygon points="7007.79,190.73 7199.59,665.45 6784.21,833.27 6592.41,358.55" fill="rgb(2,9,39)" fill-opacity="0.502"/>
<polygon points="6825.22,3718.96 6628.55,3651.24 6758.78,3273.04 6955.45,3340.76" fill="rgb(9,99,213)" fill-opacity="0.502"/>
<g transform="translate(2016.00 960.00) rotate(157) scale(48.00 96.00)"><ellipse cx="0" cy="0" rx="1" ry="1" fill="rgb(6,25,64)" fill-opacity="0.502"/></g>
<circle cx="5376.00" cy="1072.00" r="80.00" fill="rgb(11,8,57)" fill-opacity="0.502"/>
<g transform="translate(6800.00 80.00) rotate(15) scale(256.00 224.00)"><ellipse cx="0" cy="0" rx="1" ry="1" fill="rgb(3,4,29)" fill-opacity="0.502"/></g>
<g transform="translate(1296.00 3120.00) rotate(77) scale(720.00 96.00)"><ellipse cx="0" cy="0" rx="1" ry="1" fill="rgb(11,7,25)" fill-opacity="0.502"/></g>
<polygon points="4822.16,1674.98 4346.98,2150.16 4233.84,2037.02 4709.02,1561.84" fill="rgb(4,0,0)" fill-opacity="0.502"/>
<g transform="translate(5712.00 1712.00) rotate(169) scale(128.00 240.00)"><ellipse cx="0" cy="0" rx="1" ry="1" fill="rgb(48,122,176)" fill-opacity="0.502"/></g>
<polygon points="6822.73,1661.90 7061.42,1636.82 7113.27,2130.10 6874.58,2155.18" fill="rgb(0,14,56)" fill-opacity="0.502"/>
<circle cx="1728.00" cy="2304.00" r="288.00" fill="rgb(23,77,168)" fill-opacity="0.502"/>
<circle cx="4336.00" cy="1584.00" r="112.00" fill="rgb(162,63,43)" fill-opacity="0.502"/>
<circle cx="7952.00" cy="3360.00" r="848.00" fill="rgb(0,0,0)" fill-opacity="0.502"/>
<polygon points="2599.12,2922.69 2633.98,2524.21 2920.88,2549.31 2886.02,2947.79" fill="rgb(17,101,210)" fill-opacity="0.502"/>
<circle cx="2816.00" cy="2320.00" r="96.00" fill="rgb(35,104,205)" fill-opacity="0.502"/>
<circle cx="6560.00" cy="1296.00" r="16.00" fill="rgb(216,255,255)" fill-opacity="0.502"/>
<polygon points="4010.03,2862.75 3939.78,3531.07 3541.97,3489.25 3612.22,2820.93" fill="rgb(8,0,0)" fill-opacity="0.502"/>
<circle cx="3840.00" cy="3696.00" r="512.00" fill="rgb(6,0,0)" fill-opacity="0.502"/>
<circle cx="3664.00" cy="1424.00" r="64.00" fill="rgb(56,123,202)" fill-opacity="0.502"/>
<circle cx="272.00" cy="2704.00" r="832.00" fill="rgb(0,0,0)" fill-opacity="0.502"/>
<g transform="translate(3168.00 1088.00) rotate(201) scale(192.00 368.00)"><ellipse cx="0" cy="0" rx="1" ry="1" fill="rgb(38,108,176)" fill-opacity="0.502"/></g>
<circle cx="3776.00" cy="1200.00" r="96.00" fill="rgb(0,1,35)" fill-opacity="0.502"/>
<polygon points="3673.23,1067.87 3593.13,562.17 3782.77,532.13 3862.87,1037.83" fill="rgb(0,0,20)" fill-opacity="0.502"/>
<circle cx="1888.00" cy="2016.00" r="256.00" fill="rgb(26,92,192)" fill-opacity="0.502"/>
<g transform="translate(4800.00 0.00) rotate(8) scale(48.00 592.00)"><ellipse cx="0" cy="0" rx="1" ry="1" fill="rgb(6,5,19)" fill-opacity="0.502"/></g>
<polygon points="3493.25,191.88 3164.14,584.10 2906.75,368.12 3235.86,-24.10" fill="rgb(13,19,42)" fill-opacity="0.502"/>
<circle cx="7008.00" cy="4288.00" r="80.00" fill="rgb(0,87,219)" fill-opacity="0.502"/>
<g transform="translate(3488.00 2848.00) rotate(270) scale(208.00 112.00)"><ellipse cx="0" cy="0" rx="1" ry="1" fill="rgb(31,110,199)" fill-opacity="0.502"/></g>
<polygon points="6384.00,1824.00 6816.00,1824.00 6816.00,1872.00 6384.00,1872.00" fill="rgb(0,0,23)" fill-opacity="0.502"/>
<polygon points="4503.87,2126.10 4791.48,2266.38 4616.13,2625.90 4328.52,2485.62" fill="rgb(18,12,17)" fill-opacity="0.502"/>
<g transform="translate(2880.00 1136.00) rotate(261) scale(544.00 32.00)"><ellipse cx="0" cy="0" rx="1" ry="1" fill="rgb(0,10,71)" fill-opacity="0.502"/></g>
<polygon points="3481.99,1565.30 3515.26,1408.80 3750.01,1458.70 3716.74,1615.20" fill="rgb(45,130,207)" fill-opacity="0.502"/>
<polygon points="4194.36,1797.33 3887.94,1540.21 3949.64,1466.67 4256.06,1723.79" fill="rgb(161,77,70)" fill-opacity="0.502"/>
<circle cx="512.00" cy="4240.00" r="624.00" fill="rgb(0,0,0)" fill-opacity="0.502"/>
<polygon points="4876.02,669.34 5006.81,787.10 4963.98,834.66 4833.19,716.90" fill="rgb(54,135,193)" fill-opacity="0.502"/>
<polygon points="1677.93,3423.28 1806.40,3280.60 1842.07,3312.72 1713.60,3455.40" fill="rgb(33,79,173)" fill-opacity="0.502"/>
<g transform="translate(2272.00 3280.00) rotate(291) scale(96.00 112.00)"><ellipse cx="0" cy="0" rx="1" ry="1" fill="rgb(28,84,204)" fill-opacity="0.502"/></g>
<g transform="translate(3824.00 16.00) rotate(8) scale(176.00 640.00)"><ellipse cx="0" cy="0" rx="1" ry="1" fill="rgb(5,0,2)" fill-opacity="0.502"/></g>
<polygon points="2692.15,4500.36 2654.73,4377.95 3067.85,4251.64 3105.27,4374.05" fill="rgb(11,75,166)" fill-opacity="0.502"/>
<circle cx="4256.00" cy="192.00" r="240.00" fill="rgb(10,13,40)" fill-opacity="0.502"/>
<circle cx="1200.00" cy="1008.00" r="48.00" fill="rgb(63,65,82)" fill-opacity="0.502"/>
<polygon points="4800.04,2144.03 4815.09,2287.24 4655.96,2303.97 4640.91,2160.76" fill="rgb(56,38,46)" fill-opacity="0.502"/>
<circle cx="7760.00" cy="528.00" r="656.00" fill="rgb(0,0,0)" fill-opacity="0.502"/>
<g transform="translate(5504.00 2640.00) rotate(108) scale(464.00 384.00)"><ellipse cx="0" cy="0" rx="1" ry="1" fill="rgb(7,0,0)" fill-opacity="0.502"/></g>
<g transform="translate(704.00 1440.00) rotate(210) scale(432.00 704.00)"><ellipse cx="0" cy="0" rx="1" ry="1" fill="rgb(0,0,0)" fill-opacity="0.502"/></g>
<polygon points="4502.08,1411.94 4279.30,1435.36 4265.92,1308.06 4488.70,1284.64" fill="rgb(0,0,0)" fill-opacity="0.502"/>
<polygon points="4192.78,2028.09 3991.87,2081.92 3855.22,1571.91 4056.13,1518.08" fill="rgb(125,49,45)" fill-opacity="0.502"/>
<g transform="translate(1920.00 3680.00) rotate(316) scale(208.00 176.00)"><ellipse cx="0" cy="0" rx="1" ry="1" fill="rgb(17,69,166)" fill-opacity="0.502"/></g>
<circle cx="4784.00" cy="336.00" r="32.00" fill="rgb(104,186,221)" fill-opacity="0.502"/>
<circle cx="2320.00" cy="864.00" r="128.00" fill="rgb(36,102,188)" fill-opacity="0.502"/>
<g transform="translate(3248.00 784.00) rotate(141) scale(416.00 160.00)"><ellipse cx="0" cy="0" rx="1" ry="1" fill="rgb(39,108,181)" fill-opacity="0.502"/></g>
<polygon points="6622.39,3500.57 6336.72,3604.55 6161.61,3123.43 6447.28,3019.45" fill="rgb(20,95,202)" fill-opacity="0.502"/>
<polygon points="2214.97,2236.35 2157.42,2180.78 2313.03,2019.65 2370.58,2075.22" fill="rgb(19,39,112)" fill-opacity="0.502"/>
<circle cx="5280.00" cy="4064.00" r="1008.00" fill="rgb(7,0,0)" fill-opacity="0.502"/>
<polygon points="8206.39,2765.04 7151.03,2801.89 7089.61,1042.96 8144.97,1006.11" fill="rgb(0,0,0)" fill-opacity="0.502"/>
<g transform="translate(6624.00 4480.00) rotate(265) scale(432.00 16.00)"><ellipse cx="0" cy="0" rx="1" ry="1" fill="rgb(0,30,119)" fill-opacity="0.502"/></g>
<circle cx="6992.00" cy="3728.00" r="64.00" fill="rgb(0,0,38)" fill-opacity="0.502"/>
<g transform="translate(5168.00 2832.00) rotate(181) scale(64.00 416.00)"><ellipse cx="0" cy="0" rx="1" ry="1" fill="rgb(17,8,13)" fill-opacity="0.502"/></g>
<polygon points="1977.63,2594.71 1895.34,2644.15 1862.37,2589.29 1944.66,2539.85" fill="rgb(0,0,0)" fill-opacity="0.502"/>
<circle cx="5456.00" cy="752.00" r="240.00" fill="rgb(45,100,156)" fill-opacity="0.502"/>
<polygon points="4401.96,2211.25 4346.38,2153.70 4542.04,1964.75 4597.62,2022.30" fill="rgb(145,77,73)" fill-opacity="0.502"/>
<g transform="translate(4288.00 2672.00) rotate(358) scale(160.00 96.00)"><ellipse cx="0" cy="0" rx="1" ry="1" fill="rgb(35,26,29)" fill-opacity="0.502"/></g>
<g transform="translate(2384.00 2496.00) rotate(176) scale(224.00 64.00)"><ellipse cx="0" cy="0" rx="1" ry="1" fill="rgb(0,5,51)" fill-opacity="0.502"/></g>
<polygon points="3281.26,2606.33 3176.02,2568.02 3230.74,2417.67 3335.98,2455.98" fill="rgb(43,130,195)" fill-opacity="0.502"/>
<g transform="translate(2576.00 3200.00) rotate(25) scale(128.00 144.00)"><ellipse cx="0" cy="0" rx="1" ry="1" fill="rgb(50,93,170)" fill-opacity="0.502"/></g>
<polygon points="6978.14,787.78 6878.69,-22.13 6989.86,-35.78 7089.31,774.13" fill="rgb(8,18,51)" fill-opacity="0.502"/>
<polygon points="3623.94,2771.35 3796.10,2734.75 3816.06,2828.65 3643.90,2865.25" fill="rgb(0,0,0)" fill-opacity="0.502"/>
<g transform="translate(1424.00 1472.00) rotate(187) scale(96.00 256.00)"><ellipse cx="0" cy="0" rx="1" ry="1" fill="rgb(34,87,156)" fill-opacity="0.502"/></g>
<g transform="translate(6832.00 4544.00) rotate(17) scale(96.00 800.00)"><ellipse cx="0" cy="0" rx="1" ry="1" fill="rgb(3,90,212)" fill-opacity="0.502"/></g>
<polygon points="5301.65,1936.06 5629.65,1367.94 5754.35,1439.94 5426.35,2008.06" fill="rgb(40,112,171)" fill-opacity="0.502"/>
<polygon points="6770.43,3214.99 7113.02,3595.48 7053.57,3649.01 6710.98,3268.52" fill="rgb(13,118,228)" fill-opacity="0.502"/>
<circle cx="5040.00" cy="1344.00" r="128.00" fill="rgb(34,100,171)" fill-opacity="0.502"/>
<polygon points="6186.67,1938.16 6605.84,2042.67 6501.33,2461.84 6082.16,2357.33" fill="rgb(32,117,183)" fill-opacity="0.502"/>
<circle cx="5952.00" cy="1136.00" r="32.00" fill="rgb(100,225,255)" fill-opacity="0.502"/>
<polygon points="6917.96,4255.11 7092.55,4442.33 7034.04,4496.89 6859.45,4309.67" fill="rgb(3,67,186)" fill-opacity="0.502"/>
<polygon points="2624.00,896.00 2800.00,896.00 2800.00,1392.00 2624.00,1392.00" fill="rgb(38,99,175)" fill-opacity="0.502"/>
<g transform="translate(4496.00 2544.00) rotate(93) scale(368.00 272.00)"><ellipse cx="0" cy="0" rx="1" ry="1" fill="rgb(17,7,10)" fill-opacity="0.502"/></g>
<circle cx="5456.00" cy="528.00" r="16.00" fill="rgb(173,255,255)" fill-opacity="0.502"/>
<g transform="translate(5792.00 3184.00) rotate(299) scale(448.00 304.00)"><ellipse cx="0" cy="0" rx="1" ry="1" fill="rgb(5,0,1)" fill-opacity="0.502"/></g>
<circle cx="2992.00" cy="3120.00" r="160.00" fill="rgb(55,95,191)" fill-opacity="0.502"/>
<circle cx="6384.00" cy="3616.00" r="160.00" fill="rgb(15,94,207)" fill-opacity="0.502"/>
<circle cx="3952.00" cy="720.00" r="112.00" fill="rgb(27,51,92)" fill-opacity="0.502"/>
<polygon points="6894.68,3636.37 6847.73,3646.35 6721.32,3051.63 6768.27,3041.65" fill="rgb(13,79,192)" fill-opacity="0.502"/>
<g transform="translate(3376.00 3152.00) rotate(311) scale(96.00 48.00)"><ellipse cx="0" cy="0" rx="1" ry="1" fill="rgb(39,112,211)" fill-opacity="0.502"/></g>
<g transform="translate(2720.00 832.00) rotate(79) scale(16.00 3104.00)"><ellipse cx="0" cy="0" rx="1" ry="1" fill="rgb(0,4,59)" fill-opacity="0.502"/></g>
<g transform="translate(528.00 1200.00) rotate(150) scale(592.00 768.00)"><ellipse cx="0" cy="0" rx="1" ry="1" fill="rgb(0,0,0)" fill-opacity="0.502"/></g>
<circle cx="3040.00" cy="1552.00" r="48.00" fill="rgb(91,168,215)" fill-opacity="0.502"/>
<circle cx="6368.00" cy="1328.00" r="32.00" fill="rgb(112,220,255)" fill-opacity="0.502"/>
<circle cx="3760.00" cy="2368.00" r="48.00" fill="rgb(53,141,184)" fill-opacity="0.502"/>
<polygon points="2539.74,4096.32 2506.47,4252.82 2068.26,4159.68 2101.53,4003.18" fill="rgb(9,60,150)" fill-opacity="0.502"/>
<g transform="translate(2816.00 2512.00) rotate(351) scale(1088.00 16.00)"><ellipse cx="0" cy="0" rx="1" ry="1" fill="rgb(90,181,230)" fill-opacity="0.502"/></g>
<g transform="translate(6912.00 1664.00) rotate(157) scale(80.00 368.00)"><ellipse cx="0" cy="0" rx="1" ry="1" fill="rgb(0,12,52)" fill-opacity="0.502"/></g>
<circle cx="2864.00" cy="656.00" r="32.00" fill="rgb(104,164,200)" fill-opacity="0.502"/>
<circle cx="2256.00" cy="912.00" r="160.00" fill="rgb(34,104,185)" fill-opacity="0.502"/>
<polygon points="2158.84,2521.98 2016.62,2499.46 2049.16,2294.02 2191.38,2316.54" fill="rgb(23,97,209)" fill-opacity="0.502"/>
<polygon points="2553.63,3829.65 2613.75,4257.44 2550.37,4266.35 2490.25,3838.56" fill="rgb(0,0,20)" fill-opacity="0.502"/>
<circle cx="3408.00" cy="384.00" r="144.00" fill="rgb(11,23,60)" fill-opacity="0.502"/>
<circle cx="2704.00" cy="4096.00" r="96.00" fill="rgb(12,64,162)" fill-opacity="0.502"/>
<circle cx="2560.00" cy="2768.00" r="176.00" fill="rgb(22,95,202)" fill-opacity="0.502"/>
<circle cx="7584.00" cy="4592.00" r="496.00" fill="rgb(0,0,0)" fill-opacity="0.502"/>
<polygon points="3102.31,2983.84 2531.92,3064.00 2529.69,3048.16 3100.08,2968.00" fill="rgb(0,0,94)" fill-opacity="0.502"/>
<polygon points="6686.22,1438.73 6779.99,1711.04 6401.78,1841.27 6308.01,1568.96" fill="rgb(39,128,182)" fill-opacity="0.502"/>
<g transform="translate(6240.00 1152.00) rotate(159) scale(160.00 208.00)"><ellipse cx="0" cy="0" rx="1" ry="1" fill="rgb(35,105,162)" fill-opacity="0.502"/></g>
<circle cx="96.00" cy="832.00" r="1104.00" fill="rgb(0,0,0)" fill-opacity="0.502"/>
<circle cx="4080.00" cy="3072.00" r="224.00" fill="rgb(31,18,21)" fill-opacity="0.502"/>
<circle cx="2832.00" cy="1440.00" r="32.00" fill="rgb(99,195,255)" fill-opacity="0.502"/>
<circle cx="5872.00" cy="400.00" r="16.00" fill="rgb(200,255,255)" fill-opacity="0.502"/>
<g transform="translate(6144.00 704.00) rotate(81) scale(16.00 1264.00)"><ellipse cx="0" cy="0" rx="1" ry="1" fill="rgb(0,0,49)" fill-opacity="0.502"/></g>
<circle cx="6080.00" cy="1920.00" r="48.00" fill="rgb(0,0,0)" fill-opacity="0.502"/>
<polygon points="4234.75,2918.68 4626.96,3247.78 4565.25,3321.32 4173.04,2992.22" fill="rgb(47,32,35)" fill-opacity="0.502"/>
<circle cx="3088.00" cy="1936.00" r="16.00" fill="rgb(187,255,255)" fill-opacity="0.502"/>
<circle cx="6304.00" cy="3200.00" r="144.00" fill="rgb(20,109,204)" fill-opacity="0.502"/>
<circle cx="6256.00" cy="464.00" r="16.00" fill="rgb(121,255,255)" fill-opacity="0.502"/>
<g transform="translate(2784.00 3712.00) rotate(162) scale(240.00 320.00)"><ellipse cx="0" cy="0" rx="1" ry="1" fill="rgb(14,77,182)" fill-opacity="0.502"/></g>
<circle cx="6080.00" cy="4592.00" r="288.00" fill="rgb(6,0,0)" fill-opacity="0.502"/>
<polygon points="3104.25,2480.04 3007.96,2352.25 3135.75,2255.96 3232.04,2383.75" fill="rgb(7,9,37)" fill-opacity="0.502"/>
<g transform="translate(6672.00 2048.00) rotate(310) scale(240.00 80.00)"><ellipse cx="0" cy="0" rx="1" ry="1" fill="rgb(39,113,186)" fill-opacity="0.502"/></g>
<g transform="translate(1424.00 560.00) rotate(202) scale(144.00 416.00)"><ellipse cx="0" cy="0" rx="1" ry="1" fill="rgb(8,3,14)" fill-opacity="0.502"/></g>
<g transform="translate(2128.00 3632.00) rotate(202) scale(160.00 144.00)"><ellipse cx="0" cy="0" rx="1" ry="1" fill="rgb(15,62,161)" fill-opacity="0.502"/></g>
<circle cx="7600.00" cy="656.00" r="528.00" fill="rgb(0,0,0)" fill-opacity="0.502"/>
<circle cx="4848.00" cy="608.00" r="16.00" fill="rgb(0,0,0)" fill-opacity="0.502"/>
<polygon points="1746.83,3414.85 1667.60,3425.99 1565.17,2697.15 1644.40,2686.01" fill="rgb(34,73,133)" fill-opacity="0.502"/>
<polygon points="5120.29,1844.21 5036.33,1797.67 5183.71,1531.79 5267.67,1578.33" fill="rgb(39,98,169)" fill-opacity="0.502"/>
<polygon points="2526.37,2461.24 2336.74,2491.27 2241.63,1890.76 2431.26,1860.73" fill="rgb(26,89,190)" fill-opacity="0.502"/>
<circle cx="784.00" cy="3120.00" r="384.00" fill="rgb(0,0,0)" fill-opacity="0.502"/>
<circle cx="6720.00" cy="2400.00" r="32.00" fill="rgb(109,226,255)" fill-opacity="0.502"/>
<circle cx="3504.00" cy="2432.00" r="16.00" fill="rgb(0,0,0)" fill-opacity="0.502"/>
<polygon points="3880.36,1327.49 3865.31,1184.28 4167.64,1152.51 4182.69,1295.72" fill="rgb(182,93,75)" fill-opacity="0.502"/>
<polygon points="6122.70,2612.06 6119.65,2596.36 6245.30,2571.94 6248.35,2587.64" fill="rgb(128,255,255)" fill-opacity="0.502"/>
<circle cx="4016.00" cy="1840.00" r="48.00" fill="rgb(226,135,114)" fill-opacity="0.502"/>
<polygon points="6817.72,2425.64 6723.67,2296.19 6814.28,2230.36 6908.33,2359.81" fill="rgb(38,139,212)" fill-opacity="0.502"/>
<polygon points="6208.26,1885.62 5936.30,1890.37 5935.74,1858.38 6207.70,1853.63" fill="rgb(118,221,255)" fill-opacity="0.502"/>
<polygon points="2719.92,895.19 2563.41,928.46 2560.08,912.81 2716.59,879.54" fill="rgb(0,0,27)" fill-opacity="0.502"/>
<polygon points="6612.29,2508.35 6674.11,2524.92 6603.71,2787.65 6541.89,2771.08" fill="rgb(31,131,231)" fill-opacity="0.502"/>
<polygon points="6034.08,3635.06 6069.36,3512.02 6253.92,3564.94 6218.64,3687.98" fill="rgb(10,10,16)" fill-opacity="0.502"/>
<g transform="translate(5280.00 1232.00) rotate(74) scale(48.00 368.00)"><ellipse cx="0" cy="0" rx="1" ry="1" fill="rgb(36,88,165)" fill-opacity="0.502"/></g>
<g transform="translate(4976.00 1904.00) rotate(30) scale(640.00 96.00)"><ellipse cx="0" cy="0" rx="1" ry="1" fill="rgb(9,0,0)" fill-opacity="0.502"/></g>
<circle cx="4672.00" cy="3408.00" r="160.00" fill="rgb(20,11,5)" fill-opacity="0.502"/>
<polygon points="6522.36,1497.74 6520.13,1481.89 6773.64,1446.26 6775.87,1462.11" fill="rgb(137,255,255)" fill-opacity="0.502"/>
<g transform="translate(6432.00 2096.00) rotate(135) scale(64.00 208.00)"><ellipse cx="0" cy="0" rx="1" ry="1" fill="rgb(43,125,188)" fill-opacity="0.502"/></g>
<circle cx="4176.00" cy="608.00" r="80.00" fill="rgb(40,109,178)" fill-opacity="0.502"/>
<polygon points="6031.18,2226.64 6332.92,2189.60 6336.82,2221.36 6035.08,2258.40" fill="rgb(91,209,255)" fill-opacity="0.502"/>
<polygon points="2493.08,1535.51 2417.44,1509.47 2578.92,1040.49 2654.56,1066.53" fill="rgb(24,107,218)" fill-opacity="0.502"/>
<circle cx="5168.00" cy="784.00" r="80.00" fill="rgb(32,125,206)" fill-opacity="0.502"/>
<g transform="translate(3776.00 560.00) rotate(260) scale(480.00 96.00)"><ellipse cx="0" cy="0" rx="1" ry="1" fill="rgb(5,0,13)" fill-opacity="0.502"/></g>
<g transform="translate(6464.00 1312.00) rotate(353) scale(64.00 368.00)"><ellipse cx="0" cy="0" rx="1" ry="1" fill="rgb(30,91,150)" fill-opacity="0.502"/></g>
<g transform="translate(2160.00 3968.00) rotate(136) scale(416.00 224.00)"><ellipse cx="0" cy="0" rx="1" ry="1" fill="rgb(11,61,151)" fill-opacity="0.502"/></g>
<g transform="translate(6320.00 2224.00) rotate(209) scale(48.00 80.00)"><ellipse cx="0" cy="0" rx="1" ry="1" fill="rgb(16,69,151)" fill-opacity="0.502"/></g>
<g transform="translate(2480.00 3008.00) rotate(75) scale(320.00 64.00)"><ellipse cx="0" cy="0" rx="1" ry="1" fill="rgb(30,85,160)" fill-opacity="0.502"/></g>
<polygon points="2642.67,1265.45 2680.49,1295.00 2493.33,1534.55 2455.51,1505.00" fill="rgb(32,130,238)" fill-opacity="0.502"/>
<g transform="translate(5616.00 1648.00) rotate(115) scale(144.00 128.00)"><ellipse cx="0" cy="0" rx="1" ry="1" fill="rgb(33,81,134)" fill-opacity="0.502"/></g>
<polygon points="6570.75,1149.30 5527.75,1314.50 5525.25,1298.70 6568.25,1133.50" fill="rgb(0,0,26)" fill-opacity="0.502"/>
<g transform="translate(3632.00 1776.00) rotate(305) scale(192.00 144.00)"><ellipse cx="0" cy="0" rx="1" ry="1" fill="rgb(33,118,188)" fill-opacity="0.502"/></g>
<g transform="translate(1184.00 2000.00) rotate(92) scale(768.00 128.00)"><ellipse cx="0" cy="0" rx="1" ry="1" fill="rgb(9,2,17)" fill-opacity="0.502"/></g>
<g transform="translate(1424.00 688.00) rotate(78) scale(208.00 112.00)"><ellipse cx="0" cy="0" rx="1" ry="1" fill="rgb(6,9,24)" fill-opacity="0.502"/></g>
<g transform="translate(4032.00 2272.00) rotate(312) scale(496.00 80.00)"><ellipse cx="0" cy="0" rx="1" ry="1" fill="rgb(3,0,0)" fill-opacity="0.502"/></g>
<polygon points="6845.65,4520.09 6894.90,4384.77 7090.35,4455.91 7041.10,4591.23" fill="rgb(0,72,183)" fill-opacity="0.502"/>
<g transform="translate(2864.00 3440.00) rotate(260) scale(64.00 352.00)"><ellipse cx="0" cy="0" rx="1" ry="1" fill="rgb(40,96,198)" fill-opacity="0.502"/></g>
<circle cx="3648.00" cy="1392.00" r="80.00" fill="rgb(16,36,97)" fill-opacity="0.502"/>
<circle cx="6528.00" cy="4416.00" r="80.00" fill="rgb(6,87,207)" fill-opacity="0.502"/>
<polygon points="3032.51,1655.69 3098.44,1492.50 3543.49,1672.31 3477.56,1835.50" fill="rgb(33,115,192)" fill-opacity="0.502"/>
<g transform="translate(1328.00 2928.00) rotate(76) scale(656.00 256.00)"><ellipse cx="0" cy="0" rx="1" ry="1" fill="rgb(8,2,12)" fill-opacity="0.502"/></g>
<polygon points="4876.57,876.63 5012.25,791.84 5139.43,995.37 5003.75,1080.16" fill="rgb(32,98,170)" fill-opacity="0.502"/>
<circle cx="5184.00" cy="1440.00" r="112.00" fill="rgb(25,84,153)" fill-opacity="0.502"/>
<polygon points="6941.04,2644.91 6956.74,2641.85 7026.96,3003.09 7011.26,3006.15" fill="rgb(0,49,136)" fill-opacity="0.502"/>
<g transform="translate(4192.00 4592.00) rotate(270) scale(576.00 320.00)"><ellipse cx="0" cy="0" rx="1" ry="1" fill="rgb(6,0,0)" fill-opacity="0.502"/></g>
<polygon points="3682.99,3228.58 3531.70,3110.37 3709.01,2883.42 3860.30,3001.63" fill="rgb(2,0,0)" fill-opacity="0.502"/>
<polygon points="4775.50,1865.58 4671.95,1940.81 4568.50,1798.42 4672.05,1723.19" fill="rgb(52,16,18)" fill-opacity="0.502"/>
<polygon points="1320.67,552.08 1038.73,203.92 1399.33,-88.08 1681.27,260.08" fill="rgb(11,0,3)" fill-opacity="0.502"/>
<polygon points="5871.96,239.75 5979.63,208.87 5984.04,224.25 5876.37,255.13" fill="rgb(0,0,0)" fill-opacity="0.502"/>
<polygon points="3366.87,4244.79 3200.15,4417.44 3177.13,4395.21 3343.85,4222.56" fill="rgb(26,75,186)" fill-opacity="0.502"/>
<polygon points="5605.80,174.46 5559.35,360.76 5466.20,337.54 5512.65,151.24" fill="rgb(34,102,148)" fill-opacity="0.502"/>
<g transform="translate(4192.00 1312.00) rotate(295) scale(32.00 48.00)"><ellipse cx="0" cy="0" rx="1" ry="1" fill="rgb(111,61,64)" fill-opacity="0.502"/></g>
<circle cx="5360.00" cy="1888.00" r="80.00" fill="rgb(32,133,213)" fill-opacity="0.502"/>
<polygon points="4695.31,3193.38 4975.15,3074.60 5112.69,3398.62 4832.85,3517.40" fill="rgb(16,6,1)" fill-opacity="0.502"/>
<polygon points="4839.42,1573.18 4840.82,1557.24 4904.58,1562.82 4903.18,1578.76" fill="rgb(131,176,232)" fill-opacity="0.502"/>
<circle cx="3680.00" cy="1424.00" r="16.00" fill="rgb(119,221,255)" fill-opacity="0.502"/>
<circle cx="3456.00" cy="2656.00" r="208.00" fill="rgb(34,115,195)" fill-opacity="0.502"/>
</g>
</svg>