<?xml version="1.0" standalone="no"?>
<svg xmlns="http://www.w3.org/2000/svg" width="8192" height="4608" viewBox="0 0 8192 4608" style="overflow:hidden">
<defs>
<clipPath id="c"><rect x="0" y="0" width="8192" height="4608"/></clipPath>
</defs>
<rect width="8192" height="4608" fill="rgb(18,22,47)"/>
<g clip-path="url(#c)">
<circle cx="3984.00" cy="2672.00" r="1520.00" fill="rgb(78,90,187)" fill-opacity="0.502"/>
<circle cx="3792.00" cy="0.00" r="1776.00" fill="rgb(0,0,2)" fill-opacity="0.502"/>
<circle cx="1504.00" cy="2304.00" r="400.00" fill="rgb(113,167,255)" fill-opacity="0.502"/>
<circle cx="1872.00" cy="3216.00" r="784.00" fill="rgb(43,59,182)" fill-opacity="0.502"/>
<circle cx="3072.00" cy="2160.00" r="256.00" fill="rgb(175,234,255)" fill-opacity="0.502"/>
<circle cx="8176.00" cy="2288.00" r="2368.00" fill="rgb(0,0,0)" fill-opacity="0.502"/>
<circle cx="5376.00" cy="2208.00" r="496.00" fill="rgb(116,157,255)" fill-opacity="0.502"/>
<g transform="translate(4320.00 2592.00) rotate(342) scale(624.00 288.00)"><ellipse cx="0" cy="0" rx="1" ry="1" fill="rgb(168,138,112)" fill-opacity="0.502"/></g>
<g transform="translate(2560.00 2112.00) rotate(321) scale(272.00 256.00)"><ellipse cx="0" cy="0" rx="1" ry="1" fill="rgb(160,237,255)" fill-opacity="0.502"/></g>
<circle cx="736.00" cy="816.00" r="1376.00" fill="rgb(0,0,0)" fill-opacity="0.502"/>
<polygon points="2020.31,3041.60 5507.78,3102.47 5499.69,3566.40 2012.22,3505.53" fill="rgb(43,66,211)" fill-opacity="0.502"/>
<circle cx="8176.00" cy="3056.00" r="1968.00" fill="rgb(0,0,0)" fill-opacity="0.502"/>
<g transform="translate(5632.00 2816.00) rotate(25) scale(256.00 528.00)"><ellipse cx="0" cy="0" rx="1" ry="1" fill="rgb(0,0,0)" fill-opacity="0.502"/></g>
<circle cx="4048.00" cy="4336.00" r="864.00" fill="rgb(13,5,12)" fill-opacity="0.502"/>
<circle cx="0.00" cy="3408.00" r="1168.00" fill="rgb(0,0,0)" fill-opacity="0.502"/>
<circle cx="3648.00" cy="2608.00" r="416.00" fill="rgb(70,30,11)" fill-opacity="0.502"/>
<g transform="translate(2288.00 2592.00) rotate(254) scale(256.00 816.00)"><ellipse cx="0" cy="0" rx="1" ry="1" fill="rgb(32,31,17)" fill-opacity="0.502"/></g>
<g transform="translate(5712.00 2128.00) rotate(27) scale(320.00 208.00)"><ellipse cx="0" cy="0" rx="1" ry="1" fill="rgb(77,108,255)" fill-opacity="0.502"/></g>
<polygon points="5289.49,2743.61 4578.56,2553.12 4694.51,2120.39 5405.44,2310.88" fill="rgb(141,174,254)" fill-opacity="0.502"/>
<g transform="translate(352.00 2144.00) rotate(268) scale(3456.00 752.00)"><ellipse cx="0" cy="0" rx="1" ry="1" fill="rgb(0,0,0)" fill-opacity="0.502"/></g>
<g transform="translate(3136.00 1616.00) rotate(63) scale(368.00 320.00)"><ellipse cx="0" cy="0" rx="1" ry="1" fill="rgb(0,8,110)" fill-opacity="0.502"/></g>
<g transform="translate(1888.00 2096.00) rotate(358) scale(832.00 80.00)"><ellipse cx="0" cy="0" rx="1" ry="1" fill="rgb(113,164,240)" fill-opacity="0.502"/></g>
<g transform="translate(2496.00 2656.00) rotate(8) scale(672.00 432.00)"><ellipse cx="0" cy="0" rx="1" ry="1" fill="rgb(41,35,61)" fill-opacity="0.502"/></g>
<g transform="translate(6208.00 784.00) rotate(254) scale(992.00 1600.00)"><ellipse cx="0" cy="0" rx="1" ry="1" fill="rgb(0,6,5)" fill-opacity="0.502"/></g>
<g transform="translate(6096.00 3440.00) rotate(216) scale(336.00 224.00)"><ellipse cx="0" cy="0" rx="1" ry="1" fill="rgb(43,55,135)" fill-opacity="0.502"/></g>
<g transform="translate(1920.00 4368.00) rotate(168) scale(832.00 656.00)"><ellipse cx="0" cy="0" rx="1" ry="1" fill="rgb(18,38,58)" fill-opacity="0.502"/></g>
<circle cx="4032.00" cy="1760.00" r="288.00" fill="rgb(0,48,238)" fill-opacity="0.502"/>
<polygon points="1104.00,3824.00 1104.00,3312.00 1648.00,3312.00 1648.00,3824.00" fill="rgb(33,49,170)" fill-opacity="0.502"/>
<g transform="translate(7776.00 1312.00) rotate(271) scale(6240.00 688.00)"><ellipse cx="0" cy="0" rx="1" ry="1" fill="rgb(0,0,0)" fill-opacity="0.502"/></g>
<circle cx="2816.00" cy="2064.00" r="256.00" fill="rgb(95,157,255)" fill-opacity="0.502"/>
<g transform="translate(4608.00 1792.00) rotate(360) scale(784.00 224.00)"><ellipse cx="0" cy="0" rx="1" ry="1" fill="rgb(0,28,166)" fill-opacity="0.502"/></g>
<g transform="translate(3664.00 1296.00) rotate(97) scale(1504.00 160.00)"><ellipse cx="0" cy="0" rx="1" ry="1" fill="rgb(0,1,10)" fill-opacity="0.502"/></g>
<g transform="translate(5312.00 3440.00) rotate(254) scale(448.00 128.00)"><ellipse cx="0" cy="0" rx="1" ry="1" fill="rgb(43,48,171)" fill-opacity="0.502"/></g>
<g transform="translate(5088.00 2144.00) rotate(82) scale(192.00 480.00)"><ellipse cx="0" cy="0" rx="1" ry="1" fill="rgb(94,115,220)" fill-opacity="0.502"/></g>
<circle cx="1504.00" cy="2368.00" r="304.00" fill="rgb(88,124,240)" fill-opacity="0.502"/>
<circle cx="3360.00" cy="4128.00" r="496.00" fill="rgb(13,21,46)" fill-opacity="0.502"/>
<g transform="translate(4320.00 2304.00) rotate(176) scale(288.00 480.00)"><ellipse cx="0" cy="0" rx="1" ry="1" fill="rgb(81,93,53)" fill-opacity="0.502"/></g>
<circle cx="640.00" cy="4384.00" r="464.00" fill="rgb(0,0,0)" fill-opacity="0.502"/>
<circle cx="1440.00" cy="2704.00" r="176.00" fill="rgb(1,8,7)" fill-opacity="0.502"/>
<circle cx="2448.00" cy="1280.00" r="608.00" fill="rgb(2,8,24)" fill-opacity="0.502"/>
<polygon points="3211.89,3323.05 2682.46,3834.31 2260.11,3396.95 2789.54,2885.69" fill="rgb(41,67,172)" fill-opacity="0.502"/>
<g transform="translate(1344.00 1936.00) rotate(117) scale(384.00 208.00)"><ellipse cx="0" cy="0" rx="1" ry="1" fill="rgb(10,28,106)" fill-opacity="0.502"/></g>
<circle cx="4704.00" cy="1120.00" r="448.00" fill="rgb(5,11,20)" fill-opacity="0.502"/>
<g transform="translate(4736.00 2576.00) rotate(38) scale(96.00 544.00)"><ellipse cx="0" cy="0" rx="1" ry="1" fill="rgb(73,65,97)" fill-opacity="0.502"/></g>
<g transform="translate(4112.00 1328.00) rotate(178) scale(1104.00 160.00)"><ellipse cx="0" cy="0" rx="1" ry="1" fill="rgb(2,9,16)" fill-opacity="0.502"/></g>
<circle cx="6432.00" cy="4272.00" r="672.00" fill="rgb(18,11,19)" fill-opacity="0.502"/>
<circle cx="1984.00" cy="2256.00" r="256.00" fill="rgb(30,37,52)" fill-opacity="0.502"/>
<g transform="translate(4224.00 3136.00) rotate(260) scale(192.00 1056.00)"><ellipse cx="0" cy="0" rx="1" ry="1" fill="rgb(62,75,204)" fill-opacity="0.502"/></g>
<g transform="translate(4048.00 3312.00) rotate(213) scale(608.00 320.00)"><ellipse cx="0" cy="0" rx="1" ry="1" fill="rgb(54,59,151)" fill-opacity="0.502"/></g>
<circle cx="528.00" cy="2128.00" r="576.00" fill="rgb(0,0,0)" fill-opacity="0.502"/>
<polygon points="5514.69,2342.64 5452.76,2591.03 5173.31,2521.36 5235.24,2272.97" fill="rgb(134,167,255)" fill-opacity="0.502"/>
<circle cx="4448.00" cy="4128.00" r="496.00" fill="rgb(24,16,34)" fill-opacity="0.502"/>
<g transform="translate(6640.00 2288.00) rotate(359) scale(448.00 2336.00)"><ellipse cx="0" cy="0" rx="1" ry="1" fill="rgb(10,18,33)" fill-opacity="0.502"/></g>
<polygon points="3325.63,2682.73 2732.23,2922.48 2594.37,2581.27 3187.77,2341.52" fill="rgb(52,25,18)" fill-opacity="0.502"/>
<circle cx="416.00" cy="3344.00" r="688.00" fill="rgb(0,0,0)" fill-opacity="0.502"/>
<polygon points="2335.78,2087.49 2629.95,1840.66 2784.22,2024.51 2490.05,2271.34" fill="rgb(135,205,255)" fill-opacity="0.502"/>
<circle cx="1488.00" cy="3264.00" r="400.00" fill="rgb(38,50,172)" fill-opacity="0.502"/>
<polygon points="5681.31,2039.42 5197.20,2206.12 5134.69,2024.58 5618.80,1857.88" fill="rgb(107,159,255)" fill-opacity="0.502"/>
<circle cx="336.00" cy="688.00" r="928.00" fill="rgb(0,0,0)" fill-opacity="0.502"/>
<circle cx="5712.00" cy="4480.00" r="512.00" fill="rgb(18,8,24)" fill-opacity="0.502"/>
<polygon points="2245.28,2070.78 2474.61,2870.55 2074.72,2985.22 1845.39,2185.45" fill="rgb(46,57,88)" fill-opacity="0.502"/>
<polygon points="1497.55,2693.51 1868.47,2594.12 1926.45,2810.49 1555.53,2909.88" fill="rgb(0,0,7)" fill-opacity="0.502"/>
<g transform="translate(4544.00 2480.00) rotate(13) scale(752.00 64.00)"><ellipse cx="0" cy="0" rx="1" ry="1" fill="rgb(132,148,198)" fill-opacity="0.502"/></g>
<polygon points="1470.27,2277.99 1549.37,2521.46 1153.73,2650.01 1074.63,2406.54" fill="rgb(83,123,255)" fill-opacity="0.502"/>
<circle cx="3840.00" cy="1968.00" r="192.00" fill="rgb(17,52,227)" fill-opacity="0.502"/>
<circle cx="4384.00" cy="2112.00" r="224.00" fill="rgb(27,49,22)" fill-opacity="0.502"/>
<circle cx="2000.00" cy="3264.00" r="368.00" fill="rgb(34,44,153)" fill-opacity="0.502"/>
<circle cx="2848.00" cy="4096.00" r="448.00" fill="rgb(19,30,60)" fill-opacity="0.502"/>
<g transform="translate(5632.00 2672.00) rotate(30) scale(160.00 352.00)"><ellipse cx="0" cy="0" rx="1" ry="1" fill="rgb(0,1,13)" fill-opacity="0.502"/></g>
<polygon points="1402.77,3975.56 1414.50,3751.87 2341.23,3800.44 2329.50,4024.13" fill="rgb(9,11,37)" fill-opacity="0.502"/>
<polygon points="4278.75,2523.47 4439.34,2345.11 4665.25,2548.53 4504.66,2726.89" fill="rgb(131,100,70)" fill-opacity="0.502"/>
<g transform="translate(5184.00 1536.00) rotate(114) scale(352.00 112.00)"><ellipse cx="0" cy="0" rx="1" ry="1" fill="rgb(3,10,33)" fill-opacity="0.502"/></g>
<g transform="translate(4032.00 2720.00) rotate(202) scale(416.00 176.00)"><ellipse cx="0" cy="0" rx="1" ry="1" fill="rgb(129,97,127)" fill-opacity="0.502"/></g>
<polygon points="1182.98,1157.65 1790.61,1178.87 1761.02,2026.35 1153.39,2005.13" fill="rgb(10,14,40)" fill-opacity="0.502"/>
<circle cx="2864.00" cy="1984.00" r="112.00" fill="rgb(29,72,169)" fill-opacity="0.502"/>
<circle cx="5744.00" cy="1824.00" r="112.00" fill="rgb(0,2,21)" fill-opacity="0.502"/>
<g transform="translate(3264.00 3312.00) rotate(3) scale(928.00 304.00)"><ellipse cx="0" cy="0" rx="1" ry="1" fill="rgb(45,64,172)" fill-opacity="0.502"/></g>
<g transform="translate(6064.00 1888.00) rotate(7) scale(80.00 1232.00)"><ellipse cx="0" cy="0" rx="1" ry="1" fill="rgb(9,15,28)" fill-opacity="0.502"/></g>
<g transform="translate(5040.00 3312.00) rotate(85) scale(256.00 80.00)"><ellipse cx="0" cy="0" rx="1" ry="1" fill="rgb(82,112,253)" fill-opacity="0.502"/></g>
<g transform="translate(4144.00 4208.00) rotate(1) scale(816.00 416.00)"><ellipse cx="0" cy="0" rx="1" ry="1" fill="rgb(21,18,32)" fill-opacity="0.502"/></g>
<g transform="translate(2080.00 2224.00) rotate(91) scale(304.00 112.00)"><ellipse cx="0" cy="0" rx="1" ry="1" fill="rgb(7,7,14)" fill-opacity="0.502"/></g>
<circle cx="2400.00" cy="2288.00" r="112.00" fill="rgb(16,24,54)" fill-opacity="0.502"/>
<g transform="translate(4736.00 3616.00) rotate(208) scale(368.00 224.00)"><ellipse cx="0" cy="0" rx="1" ry="1" fill="rgb(43,38,102)" fill-opacity="0.502"/></g>
<circle cx="5168.00" cy="2528.00" r="208.00" fill="rgb(129,168,255)" fill-opacity="0.502"/>
<g transform="translate(768.00 2704.00) rotate(314) scale(464.00 144.00)"><ellipse cx="0" cy="0" rx="1" ry="1" fill="rgb(0,0,0)" fill-opacity="0.502"/></g>
<circle cx="1312.00" cy="2816.00" r="144.00" fill="rgb(14,15,13)" fill-opacity="0.502"/>
<polygon points="4252.75,1452.99 4454.65,1741.34 4035.25,2035.01 3833.35,1746.66" fill="rgb(17,44,180)" fill-opacity="0.502"/>
<circle cx="4032.00" cy="1216.00" r="304.00" fill="rgb(6,12,26)" fill-opacity="0.502"/>
<circle cx="4256.00" cy="2464.00" r="128.00" fill="rgb(148,159,228)" fill-opacity="0.502"/>
<g transform="translate(4096.00 2112.00) rotate(232) scale(80.00 384.00)"><ellipse cx="0" cy="0" rx="1" ry="1" fill="rgb(83,101,66)" fill-opacity="0.502"/></g>
<g transform="translate(2080.00 2608.00) rotate(147) scale(112.00 592.00)"><ellipse cx="0" cy="0" rx="1" ry="1" fill="rgb(53,63,102)" fill-opacity="0.502"/></g>
<polygon points="2309.87,1849.66 2542.73,1411.72 2698.13,1494.34 2465.27,1932.28" fill="rgb(6,9,35)" fill-opacity="0.502"/>
<polygon points="4857.74,3849.13 5084.00,3579.48 5574.26,3990.87 5348.00,4260.52" fill="rgb(25,14,61)" fill-opacity="0.502"/>
<g transform="translate(3040.00 3584.00) rotate(271) scale(160.00 1936.00)"><ellipse cx="0" cy="0" rx="1" ry="1" fill="rgb(33,43,125)" fill-opacity="0.502"/></g>
<circle cx="544.00" cy="4144.00" r="560.00" fill="rgb(0,0,0)" fill-opacity="0.502"/>
<polygon points="3456.90,2498.40 3425.12,2196.07 3791.10,2157.60 3822.88,2459.93" fill="rgb(13,6,5)" fill-opacity="0.502"/>
<circle cx="7840.00" cy="704.00" r="784.00" fill="rgb(0,0,0)" fill-opacity="0.502"/>
<g transform="translate(3280.00 2720.00) rotate(31) scale(336.00 288.00)"><ellipse cx="0" cy="0" rx="1" ry="1" fill="rgb(60,31,50)" fill-opacity="0.502"/></g>
<circle cx="3184.00" cy="1728.00" r="240.00" fill="rgb(2,27,143)" fill-opacity="0.502"/>
<circle cx="640.00" cy="2112.00" r="448.00" fill="rgb(0,0,0)" fill-opacity="0.502"/>
<g transform="translate(1280.00 3056.00) rotate(177) scale(176.00 64.00)"><ellipse cx="0" cy="0" rx="1" ry="1" fill="rgb(69,92,237)" fill-opacity="0.502"/></g>
<polygon points="4306.00,2720.91 4180.04,2576.01 4494.00,2303.09 4619.96,2447.99" fill="rgb(106,88,71)" fill-opacity="0.502"/>
<g transform="translate(4672.00 2544.00) rotate(295) scale(176.00 64.00)"><ellipse cx="0" cy="0" rx="1" ry="1" fill="rgb(218,220,224)" fill-opacity="0.502"/></g>
<circle cx="3136.00" cy="1184.00" r="288.00" fill="rgb(9,17,46)" fill-opacity="0.502"/>
<g transform="translate(3536.00 1568.00) rotate(278) scale(544.00 144.00)"><ellipse cx="0" cy="0" rx="1" ry="1" fill="rgb(0,7,29)" fill-opacity="0.502"/></g>
<g transform="translate(5520.00 1744.00) rotate(301) scale(48.00 560.00)"><ellipse cx="0" cy="0" rx="1" ry="1" fill="rgb(2,21,42)" fill-opacity="0.502"/></g>
<polygon points="4125.52,2354.61 4083.71,1956.80 4306.48,1933.39 4348.29,2331.20" fill="rgb(33,47,40)" fill-opacity="0.502"/>
<circle cx="4832.00" cy="880.00" r="672.00" fill="rgb(8,13,24)" fill-opacity="0.502"/>
<circle cx="2304.00" cy="3040.00" r="320.00" fill="rgb(42,45,136)" fill-opacity="0.502"/>
<circle cx="6624.00" cy="2528.00" r="96.00" fill="rgb(47,60,168)" fill-opacity="0.502"/>
<polygon points="1656.86,4539.95 1298.30,4622.73 1111.14,3812.05 1469.70,3729.27" fill="rgb(24,39,79)" fill-opacity="0.502"/>
<circle cx="4864.00" cy="4592.00" r="720.00" fill="rgb(28,16,38)" fill-opacity="0.502"/>
<polygon points="3454.45,2071.36 3404.44,2354.99 3073.55,2296.64 3123.56,2013.01" fill="rgb(139,190,255)" fill-opacity="0.502"/>
<g transform="translate(1872.00 672.00) rotate(333) scale(768.00 800.00)"><ellipse cx="0" cy="0" rx="1" ry="1" fill="rgb(7,12,25)" fill-opacity="0.502"/></g>
<g transform="translate(2720.00 2544.00) rotate(121) scale(320.00 112.00)"><ellipse cx="0" cy="0" rx="1" ry="1" fill="rgb(15,21,38)" fill-opacity="0.502"/></g>
<polygon points="5390.75,1877.19 5189.42,1975.38 5105.25,1802.81 5306.58,1704.62" fill="rgb(83,103,218)" fill-opacity="0.502"/>
<g transform="translate(4544.00 2752.00) rotate(329) scale(112.00 80.00)"><ellipse cx="0" cy="0" rx="1" ry="1" fill="rgb(37,5,1)" fill-opacity="0.502"/></g>
<circle cx="4912.00" cy="2576.00" r="64.00" fill="rgb(18,22,51)" fill-opacity="0.502"/>
<circle cx="6160.00" cy="496.00" r="944.00" fill="rgb(7,11,19)" fill-opacity="0.502"/>
<circle cx="6576.00" cy="4560.00" r="528.00" fill="rgb(18,12,15)" fill-opacity="0.502"/>
<polygon points="2492.16,1914.13 2530.47,2019.37 2259.84,2117.87 2221.53,2012.63" fill="rgb(150,201,250)" fill-opacity="0.502"/>
<polygon points="5433.00,3708.61 5200.12,3904.01 5015.00,3683.39 5247.88,3487.99" fill="rgb(38,32,86)" fill-opacity="0.502"/>
<polygon points="6693.85,1294.63 6880.02,1630.48 6586.15,1793.37 6399.98,1457.52" fill="rgb(14,24,58)" fill-opacity="0.502"/>
<polygon points="4113.00,3140.29 3803.71,3009.00 3935.00,2699.71 4244.29,2831.00" fill="rgb(96,75,144)" fill-opacity="0.502"/>
<polygon points="4884.19,3030.70 4974.70,2940.19 5483.81,3449.30 5393.30,3539.81" fill="rgb(40,54,174)" fill-opacity="0.502"/>
<circle cx="704.00" cy="2864.00" r="400.00" fill="rgb(0,0,0)" fill-opacity="0.502"/>
<polygon points="3104.00,2320.00 3264.00,2320.00 3264.00,2544.00 3104.00,2544.00" fill="rgb(142,124,93)" fill-opacity="0.502"/>
<polygon points="2537.90,1778.93 2383.64,1962.78 2310.10,1901.07 2464.36,1717.22" fill="rgb(12,14,37)" fill-opacity="0.502"/>
<circle cx="5792.00" cy="2640.00" r="256.00" fill="rgb(8,14,21)" fill-opacity="0.502"/>
<circle cx="1184.00" cy="2112.00" r="80.00" fill="rgb(34,104,255)" fill-opacity="0.502"/>
<polygon points="4976.00,2848.00 4784.00,2848.00 4784.00,2160.00 4976.00,2160.00" fill="rgb(52,54,88)" fill-opacity="0.502"/>
<g transform="translate(4800.00 1808.00) rotate(203) scale(416.00 240.00)"><ellipse cx="0" cy="0" rx="1" ry="1" fill="rgb(11,28,158)" fill-opacity="0.502"/></g>
<circle cx="6048.00" cy="3568.00" r="240.00" fill="rgb(31,35,97)" fill-opacity="0.502"/>
<circle cx="1248.00" cy="2384.00" r="144.00" fill="rgb(73,106,249)" fill-opacity="0.502"/>
<g transform="translate(4800.00 3568.00) rotate(328) scale(192.00 96.00)"><ellipse cx="0" cy="0" rx="1" ry="1" fill="rgb(72,78,160)" fill-opacity="0.502"/></g>
<circle cx="2832.00" cy="1664.00" r="176.00" fill="rgb(2,8,42)" fill-opacity="0.502"/>
<polygon points="3462.48,3319.08 2655.19,3520.36 2585.52,3240.92 3392.81,3039.64" fill="rgb(49,78,195)" fill-opacity="0.502"/>
<g transform="translate(1936.00 3104.00) rotate(183) scale(512.00 176.00)"><ellipse cx="0" cy="0" rx="1" ry="1" fill="rgb(46,53,153)" fill-opacity="0.502"/></g>
<g transform="translate(7712.00 4080.00) rotate(314) scale(656.00 640.00)"><ellipse cx="0" cy="0" rx="1" ry="1" fill="rgb(0,0,0)" fill-opacity="0.502"/></g>
<g transform="translate(2144.00 2592.00) rotate(250) scale(64.00 128.00)"><ellipse cx="0" cy="0" rx="1" ry="1" fill="rgb(107,128,47)" fill-opacity="0.502"/></g>
<polygon points="5421.21,3815.51 5678.32,3509.10 6082.79,3848.49 5825.68,4154.90" fill="rgb(10,10,39)" fill-opacity="0.502"/>
<polygon points="3244.21,2362.06 3222.16,2438.96 2883.79,2341.94 2905.84,2265.04" fill="rgb(169,144,91)" fill-opacity="0.502"/>
<circle cx="1840.00" cy="2048.00" r="48.00" fill="rgb(255,255,255)" fill-opacity="0.502"/>
<g transform="translate(5408.00 1648.00) rotate(193) scale(416.00 80.00)"><ellipse cx="0" cy="0" rx="1" ry="1" fill="rgb(15,35,54)" fill-opacity="0.502"/></g>
<circle cx="4464.00" cy="2832.00" r="96.00" fill="rgb(60,24,29)" fill-opacity="0.502"/>
<circle cx="320.00" cy="2480.00" r="784.00" fill="rgb(0,0,0)" fill-opacity="0.502"/>
<polygon points="5135.92,1655.29 4991.92,1904.71 4784.08,1784.71 4928.08,1535.29" fill="rgb(5,15,96)" fill-opacity="0.502"/>
<circle cx="2336.00" cy="4128.00" r="448.00" fill="rgb(20,31,57)" fill-opacity="0.502"/>
<circle cx="608.00" cy="256.00" r="528.00" fill="rgb(0,0,0)" fill-opacity="0.502"/>
<circle cx="1872.00" cy="2432.00" r="112.00" fill="rgb(83,120,216)" fill-opacity="0.502"/>
<g transform="translate(4720.00 2784.00) rotate(98) scale(64.00 320.00)"><ellipse cx="0" cy="0" rx="1" ry="1" fill="rgb(41,29,36)" fill-opacity="0.502"/></g>
<g transform="translate(3696.00 624.00) rotate(184) scale(464.00 896.00)"><ellipse cx="0" cy="0" rx="1" ry="1" fill="rgb(7,12,22)" fill-opacity="0.502"/></g>
<circle cx="7824.00" cy="336.00" r="768.00" fill="rgb(0,0,0)" fill-opacity="0.502"/>
<circle cx="6096.00" cy="3792.00" r="208.00" fill="rgb(34,18,58)" fill-opacity="0.502"/>
<circle cx="1328.00" cy="3568.00" r="240.00" fill="rgb(32,45,138)" fill-opacity="0.502"/>
<circle cx="672.00" cy="1392.00" r="464.00" fill="rgb(0,0,0)" fill-opacity="0.502"/>
<polygon points="5506.40,1819.43 5820.03,1979.24 5725.60,2164.57 5411.97,2004.76" fill="rgb(91,136,255)" fill-opacity="0.502"/>
<polygon points="3256.22,1996.47 3457.90,1632.63 3751.78,1795.53 3550.10,2159.37" fill="rgb(0,7,61)" fill-opacity="0.502"/>
<polygon points="4327.00,2905.06 4159.04,2711.86 4473.00,2438.94 4640.96,2632.14" fill="rgb(121,97,86)" fill-opacity="0.502"/>
<circle cx="5536.00" cy="3216.00" r="160.00" fill="rgb(0,6,22)" fill-opacity="0.502"/>
<circle cx="1776.00" cy="1504.00" r="512.00" fill="rgb(11,15,35)" fill-opacity="0.502"/>
<g transform="translate(3888.00 2512.00) rotate(82) scale(448.00 16.00)"><ellipse cx="0" cy="0" rx="1" ry="1" fill="rgb(171,140,134)" fill-opacity="0.502"/></g>
<polygon points="4599.20,2236.77 4735.97,2126.01 4856.80,2275.23 4720.03,2385.99" fill="rgb(178,192,232)" fill-opacity="0.502"/>
<polygon points="4771.49,3421.92 4228.23,3393.45 4252.51,2930.08 4795.77,2958.55" fill="rgb(52,66,182)" fill-opacity="0.502"/>
<circle cx="1200.00" cy="2752.00" r="176.00" fill="rgb(23,26,53)" fill-opacity="0.502"/>
<circle cx="1632.00" cy="2160.00" r="128.00" fill="rgb(165,207,244)" fill-opacity="0.502"/>
<circle cx="5664.00" cy="3488.00" r="144.00" fill="rgb(0,5,14)" fill-opacity="0.502"/>
<circle cx="1712.00" cy="2304.00" r="112.00" fill="rgb(32,38,70)" fill-opacity="0.502"/>
<g transform="translate(2880.00 2720.00) rotate(214) scale(240.00 192.00)"><ellipse cx="0" cy="0" rx="1" ry="1" fill="rgb(24,21,48)" fill-opacity="0.502"/></g>
<circle cx="5456.00" cy="2352.00" r="112.00" fill="rgb(104,134,255)" fill-opacity="0.502"/>
<polygon points="5616.00,2176.00 6176.00,2176.00 6176.00,2192.00 5616.00,2192.00" fill="rgb(0,0,35)" fill-opacity="0.502"/>
<g transform="translate(7728.00 2512.00) rotate(0) scale(656.00 3952.00)"><ellipse cx="0" cy="0" rx="1" ry="1" fill="rgb(0,0,0)" fill-opacity="0.502"/></g>
<circle cx="4704.00" cy="2320.00" r="64.00" fill="rgb(219,242,255)" fill-opacity="0.502"/>
<circle cx="3376.00" cy="2368.00" r="64.00" fill="rgb(0,0,17)" fill-opacity="0.502"/>
<g transform="translate(3328.00 2800.00) rotate(5) scale(592.00 96.00)"><ellipse cx="0" cy="0" rx="1" ry="1" fill="rgb(32,18,54)" fill-opacity="0.502"/></g>
<circle cx="2672.00" cy="3376.00" r="256.00" fill="rgb(35,64,167)" fill-opacity="0.502"/>
<circle cx="2448.00" cy="2896.00" r="192.00" fill="rgb(44,36,96)" fill-opacity="0.502"/>
<circle cx="3264.00" cy="4080.00" r="256.00" fill="rgb(18,25,49)" fill-opacity="0.502"/>
<g transform="translate(3984.00 3616.00) rotate(352) scale(976.00 80.00)"><ellipse cx="0" cy="0" rx="1" ry="1" fill="rgb(32,34,88)" fill-opacity="0.502"/></g>
<g transform="translate(6064.00 1424.00) rotate(132) scale(368.00 496.00)"><ellipse cx="0" cy="0" rx="1" ry="1" fill="rgb(9,14,24)" fill-opacity="0.502"/></g>
<polygon points="5092.08,2446.01 4902.96,2298.25 4971.92,2209.99 5161.04,2357.75" fill="rgb(111,161,251)" fill-opacity="0.502"/>
<g transform="translate(1648.00 2464.00) rotate(72) scale(80.00 144.00)"><ellipse cx="0" cy="0" rx="1" ry="1" fill="rgb(101,155,255)" fill-opacity="0.502"/></g>
<circle cx="1184.00" cy="2672.00" r="112.00" fill="rgb(36,42,84)" fill-opacity="0.502"/>
<g transform="translate(3824.00 1728.00) rotate(185) scale(112.00 240.00)"><ellipse cx="0" cy="0" rx="1" ry="1" fill="rgb(15,46,163)" fill-opacity="0.502"/></g>
<circle cx="2000.00" cy="3488.00" r="240.00" fill="rgb(19,32,138)" fill-opacity="0.502"/>
<g transform="translate(1664.00 4496.00) rotate(91) scale(288.00 560.00)"><ellipse cx="0" cy="0" rx="1" ry="1" fill="rgb(20,42,65)" fill-opacity="0.502"/></g>
<g transform="translate(2192.00 3392.00) rotate(198) scale(400.00 192.00)"><ellipse cx="0" cy="0" rx="1" ry="1" fill="rgb(28,46,153)" fill-opacity="0.502"/></g>
<circle cx="4992.00" cy="1040.00" r="512.00" fill="rgb(8,12,23)" fill-opacity="0.502"/>
<polygon points="5991.92,2380.93 5891.26,2430.02 5800.08,2243.07 5900.74,2193.98" fill="rgb(30,33,142)" fill-opacity="0.502"/>
<polygon points="2272.78,1911.22 2296.78,1952.78 2255.22,1976.78 2231.22,1935.22" fill="rgb(134,105,98)" fill-opacity="0.502"/>
<g transform="translate(5584.00 1600.00) rotate(284) scale(96.00 336.00)"><ellipse cx="0" cy="0" rx="1" ry="1" fill="rgb(15,30,42)" fill-opacity="0.502"/></g>
<polygon points="6629.67,2534.39 6855.70,2414.21 6938.33,2569.61 6712.30,2689.79" fill="rgb(2,10,18)" fill-opacity="0.502"/>
<polygon points="3325.73,1622.95 2989.11,1725.86 2914.27,1481.05 3250.89,1378.14" fill="rgb(11,22,98)" fill-opacity="0.502"/>
<circle cx="3888.00" cy="2416.00" r="96.00" fill="rgb(42,14,0)" fill-opacity="0.502"/>
<polygon points="1183.95,2756.73 1006.64,2983.68 704.05,2747.27 881.36,2520.32" fill="rgb(0,0,0)" fill-opacity="0.502"/>
<circle cx="5040.00" cy="592.00" r="864.00" fill="rgb(7,12,22)" fill-opacity="0.502"/>
<circle cx="400.00" cy="3632.00" r="704.00" fill="rgb(0,0,0)" fill-opacity="0.502"/>
<polygon points="5962.75,3404.50 5839.71,3439.78 5813.25,3347.50 5936.29,3312.22" fill="rgb(54,73,233)" fill-opacity="0.502"/>
<circle cx="5648.00" cy="2944.00" r="288.00" fill="rgb(7,13,22)" fill-opacity="0.502"/>
<polygon points="3938.84,2234.71 3965.98,2217.76 4093.16,2421.29 4066.02,2438.24" fill="rgb(182,196,238)" fill-opacity="0.502"/>
<polygon points="2138.87,2120.16 2240.37,2072.82 2389.13,2391.84 2287.63,2439.18" fill="rgb(11,17,35)" fill-opacity="0.502"/>
<polygon points="2482.20,1958.40 3435.05,2075.39 3405.80,2313.60 2452.95,2196.61" fill="rgb(114,163,255)" fill-opacity="0.502"/>
<polygon points="1895.79,2562.39 1592.95,2588.88 1576.21,2397.61 1879.05,2371.12" fill="rgb(77,122,255)" fill-opacity="0.502"/>
<g transform="translate(2752.00 3792.00) rotate(273) scale(64.00 928.00)"><ellipse cx="0" cy="0" rx="1" ry="1" fill="rgb(23,26,78)" fill-opacity="0.502"/></g>
<polygon points="1972.86,2420.38 2121.21,2360.44 2187.14,2523.62 2038.79,2583.56" fill="rgb(8,14,17)" fill-opacity="0.502"/>
<polygon points="3249.76,2956.77 3230.50,2589.28 3422.24,2579.23 3441.50,2946.72" fill="rgb(76,56,87)" fill-opacity="0.502"/>
<polygon points="1687.64,2625.18 1751.92,2823.00 1432.36,2926.82 1368.08,2729.00" fill="rgb(5,18,31)" fill-opacity="0.502"/>
<polygon points="3745.18,1826.38 3814.99,1700.43 4206.82,1917.62 4137.01,2043.57" fill="rgb(24,55,201)" fill-opacity="0.502"/>
<circle cx="1424.00" cy="2096.00" r="96.00" fill="rgb(34,91,237)" fill-opacity="0.502"/>
<g transform="translate(4480.00 1744.00) rotate(215) scale(384.00 160.00)"><ellipse cx="0" cy="0" rx="1" ry="1" fill="rgb(13,38,169)" fill-opacity="0.502"/></g>
<polygon points="6208.31,3311.75 6068.59,3276.92 6095.69,3168.25 6235.41,3203.08" fill="rgb(79,89,86)" fill-opacity="0.502"/>
<polygon points="4093.38,3091.22 4013.82,3082.85 4050.62,2732.78 4130.18,2741.15" fill="rgb(46,36,119)" fill-opacity="0.502"/>
<g transform="translate(5056.00 3440.00) rotate(180) scale(112.00 144.00)"><ellipse cx="0" cy="0" rx="1" ry="1" fill="rgb(78,100,231)" fill-opacity="0.502"/></g>
<circle cx="2112.00" cy="592.00" r="640.00" fill="rgb(7,11,23)" fill-opacity="0.502"/>
<circle cx="2080.00" cy="1840.00" r="208.00" fill="rgb(30,31,44)" fill-opacity="0.502"/>
<circle cx="5296.00" cy="2848.00" r="48.00" fill="rgb(98,104,255)" fill-opacity="0.502"/>
<g transform="translate(256.00 4368.00) rotate(5) scale(848.00 1632.00)"><ellipse cx="0" cy="0" rx="1" ry="1" fill="rgb(0,0,0)" fill-opacity="0.502"/></g>
<polygon points="2383.35,3804.87 2432.19,4056.17 1552.65,4227.13 1503.81,3975.83" fill="rgb(17,24,46)" fill-opacity="0.502"/>
<g transform="translate(4128.00 3088.00) rotate(25) scale(160.00 160.00)"><ellipse cx="0" cy="0" rx="1" ry="1" fill="rgb(64,81,190)" fill-opacity="0.502"/></g>
<polygon points="5022.34,2522.83 5096.51,2399.40 5425.66,2597.17 5351.49,2720.60" fill="rgb(127,156,252)" fill-opacity="0.502"/>
<circle cx="2576.00" cy="2368.00" r="160.00" fill="rgb(64,68,79)" fill-opacity="0.502"/>
<g transform="translate(3584.00 3456.00) rotate(86) scale(80.00 1408.00)"><ellipse cx="0" cy="0" rx="1" ry="1" fill="rgb(41,53,148)" fill-opacity="0.502"/></g>
<circle cx="1568.00" cy="2112.00" r="48.00" fill="rgb(246,255,255)" fill-opacity="0.502"/>
<circle cx="2832.00" cy="2096.00" r="96.00" fill="rgb(44,68,179)" fill-opacity="0.502"/>
<g transform="translate(2624.00 1344.00) rotate(299) scale(624.00 336.00)"><ellipse cx="0" cy="0" rx="1" ry="1" fill="rgb(8,13,31)" fill-opacity="0.502"/></g>
<polygon points="1826.40,2535.98 1941.32,2220.24 2061.60,2264.02 1946.68,2579.76" fill="rgb(65,76,90)" fill-opacity="0.502"/>
<polygon points="4145.47,2044.70 4311.93,1894.81 4654.53,2275.30 4488.07,2425.19" fill="rgb(44,58,49)" fill-opacity="0.502"/>
<circle cx="416.00" cy="1232.00" r="688.00" fill="rgb(0,0,0)" fill-opacity="0.502"/>
<circle cx="3728.00" cy="2112.00" r="48.00" fill="rgb(99,111,255)" fill-opacity="0.502"/>
<circle cx="2944.00" cy="2944.00" r="48.00" fill="rgb(108,67,167)" fill-opacity="0.502"/>
<circle cx="4016.00" cy="4192.00" r="384.00" fill="rgb(17,18,31)" fill-opacity="0.502"/>
<circle cx="4640.00" cy="4592.00" r="304.00" fill="rgb(33,19,27)" fill-opacity="0.502"/>
<circle cx="656.00" cy="672.00" r="464.00" fill="rgb(0,0,0)" fill-opacity="0.502"/>
<g transform="translate(2400.00 2400.00) rotate(277) scale(160.00 176.00)"><ellipse cx="0" cy="0" rx="1" ry="1" fill="rgb(20,25,57)" fill-opacity="0.502"/></g>
<g transform="translate(2096.00 2064.00) rotate(320) scale(480.00 48.00)"><ellipse cx="0" cy="0" rx="1" ry="1" fill="rgb(23,24,40)" fill-opacity="0.502"/></g>
<polygon points="2010.72,2892.56 2046.71,2736.66 2405.28,2819.44 2369.29,2975.34" fill="rgb(28,32,97)" fill-opacity="0.502"/>
<circle cx="5280.00" cy="2208.00" r="80.00" fill="rgb(30,38,154)" fill-opacity="0.502"/>
<polygon points="1277.48,1982.60 1218.13,1887.62 1394.52,1777.40 1453.87,1872.38" fill="rgb(27,40,117)" fill-opacity="0.502"/>
<g transform="translate(6000.00 2912.00) rotate(31) scale(576.00 208.00)"><ellipse cx="0" cy="0" rx="1" ry="1" fill="rgb(7,12,21)" fill-opacity="0.502"/></g>
<polygon points="4178.62,2424.59 4148.42,2461.89 4061.38,2391.41 4091.58,2354.11" fill="rgb(129,185,255)" fill-opacity="0.502"/>
<g transform="translate(4224.00 2976.00) rotate(263) scale(32.00 1168.00)"><ellipse cx="0" cy="0" rx="1" ry="1" fill="rgb(95,85,175)" fill-opacity="0.502"/></g>
<polygon points="1474.92,2960.47 1496.81,3020.61 1181.08,3135.53 1159.19,3075.39" fill="rgb(53,75,195)" fill-opacity="0.502"/>
<circle cx="6432.00" cy="4592.00" r="192.00" fill="rgb(41,17,16)" fill-opacity="0.502"/>
<g transform="translate(3056.00 4592.00) rotate(100) scale(224.00 544.00)"><ellipse cx="0" cy="0" rx="1" ry="1" fill="rgb(19,28,38)" fill-opacity="0.502"/></g>
<circle cx="336.00" cy="1984.00" r="768.00" fill="rgb(0,0,0)" fill-opacity="0.502"/>
<polygon points="5510.35,3346.33 5457.92,3383.04 5081.65,2845.67 5134.08,2808.96" fill="rgb(17,30,107)" fill-opacity="0.502"/>
<circle cx="3728.00" cy="2640.00" r="128.00" fill="rgb(125,99,82)" fill-opacity="0.502"/>
<polygon points="4960.84,3403.21 4689.88,3379.51 4719.16,3044.79 4990.12,3068.49" fill="rgb(34,52,171)" fill-opacity="0.502"/>
<g transform="translate(4992.00 4288.00) rotate(134) scale(192.00 208.00)"><ellipse cx="0" cy="0" rx="1" ry="1" fill="rgb(28,17,54)" fill-opacity="0.502"/></g>
<g transform="translate(6032.00 3072.00) rotate(281) scale(320.00 64.00)"><ellipse cx="0" cy="0" rx="1" ry="1" fill="rgb(4,10,22)" fill-opacity="0.502"/></g>
<polygon points="2976.73,2627.28 3173.57,2335.46 3359.27,2460.72 3162.43,2752.54" fill="rgb(71,49,52)" fill-opacity="0.502"/>
<g transform="translate(5760.00 4288.00) rotate(129) scale(944.00 112.00)"><ellipse cx="0" cy="0" rx="1" ry="1" fill="rgb(29,20,43)" fill-opacity="0.502"/></g>
<g transform="translate(1504.00 2224.00) rotate(276) scale(144.00 96.00)"><ellipse cx="0" cy="0" rx="1" ry="1" fill="rgb(128,163,240)" fill-opacity="0.502"/></g>
<circle cx="3136.00" cy="2112.00" r="128.00" fill="rgb(139,197,255)" fill-opacity="0.502"/>
<circle cx="3232.00" cy="1952.00" r="64.00" fill="rgb(0,0,134)" fill-opacity="0.502"/>
<g transform="translate(4064.00 3712.00) rotate(1) scale(688.00 80.00)"><ellipse cx="0" cy="0" rx="1" ry="1" fill="rgb(33,32,74)" fill-opacity="0.502"/></g>
<g transform="translate(592.00 304.00) rotate(327) scale(544.00 448.00)"><ellipse cx="0" cy="0" rx="1" ry="1" fill="rgb(0,0,0)" fill-opacity="0.502"/></g>
<g transform="translate(3824.00 2144.00) rotate(309) scale(16.00 48.00)"><ellipse cx="0" cy="0" rx="1" ry="1" fill="rgb(187,187,220)" fill-opacity="0.502"/></g>
<g transform="translate(2704.00 3008.00) rotate(277) scale(112.00 512.00)"><ellipse cx="0" cy="0" rx="1" ry="1" fill="rgb(59,49,124)" fill-opacity="0.502"/></g>
<circle cx="2592.00" cy="784.00" r="464.00" fill="rgb(7,12,23)" fill-opacity="0.502"/>
<polygon points="5262.45,4462.12 5131.66,4344.35 5281.55,4177.88 5412.34,4295.65" fill="rgb(27,17,63)" fill-opacity="0.502"/>
<g transform="translate(2480.00 2000.00) rotate(338) scale(192.00 80.00)"><ellipse cx="0" cy="0" rx="1" ry="1" fill="rgb(137,197,244)" fill-opacity="0.502"/></g>
<circle cx="6176.00" cy="2192.00" r="224.00" fill="rgb(5,11,20)" fill-opacity="0.502"/>
<circle cx="6896.00" cy="400.00" r="192.00" fill="rgb(9,14,27)" fill-opacity="0.502"/>
<circle cx="5440.00" cy="2224.00" r="80.00" fill="rgb(30,45,152)" fill-opacity="0.502"/>
<polygon points="5349.67,1812.60 5290.22,1759.07 5322.33,1723.40 5381.78,1776.93" fill="rgb(131,173,255)" fill-opacity="0.502"/>
<polygon points="5796.78,2403.57 6531.77,2365.05 6555.22,2812.43 5820.23,2850.95" fill="rgb(7,12,22)" fill-opacity="0.502"/>
<polygon points="4755.07,2820.44 5003.56,2931.07 4892.93,3179.56 4644.44,3068.93" fill="rgb(67,69,180)" fill-opacity="0.502"/>
<g transform="translate(96.00 592.00) rotate(172) scale(1008.00 1360.00)"><ellipse cx="0" cy="0" rx="1" ry="1" fill="rgb(0,0,0)" fill-opacity="0.502"/></g>
<circle cx="576.00" cy="4480.00" r="528.00" fill="rgb(0,0,0)" fill-opacity="0.502"/>
<polygon points="1259.34,1593.29 1252.64,1977.23 1108.66,1974.71 1115.36,1590.77" fill="rgb(13,13,30)" fill-opacity="0.502"/>
<polygon points="1105.42,2319.56 1311.40,2290.62 1342.58,2512.44 1136.60,2541.38" fill="rgb(82,119,249)" fill-opacity="0.502"/>
<g transform="translate(5312.00 2240.00) rotate(193) scale(400.00 48.00)"><ellipse cx="0" cy="0" rx="1" ry="1" fill="rgb(61,83,199)" fill-opacity="0.502"/></g>
<polygon points="1939.72,2963.05 1954.55,2917.40 2076.28,2956.95 2061.45,3002.60" fill="rgb(90,118,240)" fill-opacity="0.502"/>
<circle cx="7824.00" cy="2656.00" r="752.00" fill="rgb(0,0,0)" fill-opacity="0.502"/>
<circle cx="4224.00" cy="1568.00" r="144.00" fill="rgb(17,31,113)" fill-opacity="0.502"/>
<polygon points="3611.13,2728.77 3501.18,2707.40 3540.87,2503.23 3650.82,2524.60" fill="rgb(81,72,57)" fill-opacity="0.502"/>
<g transform="translate(3312.00 2992.00) rotate(273) scale(80.00 800.00)"><ellipse cx="0" cy="0" rx="1" ry="1" fill="rgb(74,47,122)" fill-opacity="0.502"/></g>
<polygon points="5192.20,3858.55 4744.08,4030.57 4663.80,3821.45 5111.92,3649.43" fill="rgb(24,18,66)" fill-opacity="0.502"/>
<polygon points="6552.00,1784.00 6552.00,1368.00 6952.00,1368.00 6952.00,1784.00" fill="rgb(11,19,46)" fill-opacity="0.502"/>
<circle cx="2832.00" cy="3248.00" r="208.00" fill="rgb(48,77,182)" fill-opacity="0.502"/>
<polygon points="1544.32,3234.38 2354.23,3134.93 2375.68,3309.62 1565.77,3409.07" fill="rgb(37,54,168)" fill-opacity="0.502"/>
<circle cx="3136.00" cy="2144.00" r="160.00" fill="rgb(132,180,250)" fill-opacity="0.502"/>
<g transform="translate(5536.00 4160.00) rotate(28) scale(96.00 272.00)"><ellipse cx="0" cy="0" rx="1" ry="1" fill="rgb(2,9,19)" fill-opacity="0.502"/></g>
<polygon points="3360.00,2928.00 3280.00,2928.00 3280.00,2688.00 3360.00,2688.00" fill="rgb(19,2,35)" fill-opacity="0.502"/>
<polygon points="5250.93,1360.54 5325.62,1389.21 5165.07,1807.46 5090.38,1778.79" fill="rgb(3,8,20)" fill-opacity="0.502"/>
<g transform="translate(1840.00 1792.00) rotate(135) scale(256.00 160.00)"><ellipse cx="0" cy="0" rx="1" ry="1" fill="rgb(23,26,39)" fill-opacity="0.502"/></g>
<polygon points="6858.86,1445.74 6537.00,1624.15 6405.14,1386.26 6727.00,1207.85" fill="rgb(7,15,28)" fill-opacity="0.502"/>
<circle cx="3136.00" cy="3680.00" r="128.00" fill="rgb(28,41,132)" fill-opacity="0.502"/>
<circle cx="4096.00" cy="2896.00" r="48.00" fill="rgb(8,0,48)" fill-opacity="0.502"/>
<g transform="translate(4752.00 2944.00) rotate(79) scale(64.00 384.00)"><ellipse cx="0" cy="0" rx="1" ry="1" fill="rgb(88,89,192)" fill-opacity="0.502"/></g>
<polygon points="4805.08,3243.13 4580.63,2782.95 4666.92,2740.87 4891.37,3201.05" fill="rgb(62,70,169)" fill-opacity="0.502"/>
<polygon points="3723.65,3436.92 3657.98,3256.50 4244.35,3043.08 4310.02,3223.50" fill="rgb(43,66,189)" fill-opacity="0.502"/>
<g transform="translate(3200.00 1232.00) rotate(185) scale(272.00 192.00)"><ellipse cx="0" cy="0" rx="1" ry="1" fill="rgb(8,14,43)" fill-opacity="0.502"/></g>
<polygon points="5103.38,2863.30 5087.78,2990.35 4976.62,2976.70 4992.22,2849.65" fill="rgb(81,103,217)" fill-opacity="0.502"/>
<polygon points="4245.65,2492.50 4189.65,2395.50 4314.35,2323.50 4370.35,2420.50" fill="rgb(140,175,255)" fill-opacity="0.502"/>
<circle cx="4608.00" cy="2176.00" r="32.00" fill="rgb(211,214,234)" fill-opacity="0.502"/>
<circle cx="4912.00" cy="2144.00" r="176.00" fill="rgb(89,99,191)" fill-opacity="0.502"/>
<polygon points="4991.80,2857.18 4692.42,2804.39 4720.20,2646.82 5019.58,2699.61" fill="rgb(32,36,32)" fill-opacity="0.502"/>
<circle cx="1824.00" cy="2880.00" r="64.00" fill="rgb(0,0,0)" fill-opacity="0.502"/>
<circle cx="3328.00" cy="4032.00" r="192.00" fill="rgb(19,25,51)" fill-opacity="0.502"/>
<polygon points="3391.15,3325.95 3242.80,3385.89 3200.85,3282.05 3349.20,3222.11" fill="rgb(59,80,234)" fill-opacity="0.502"/>
<g transform="translate(3904.00 1072.00) rotate(38) scale(304.00 480.00)"><ellipse cx="0" cy="0" rx="1" ry="1" fill="rgb(7,12,26)" fill-opacity="0.502"/></g>
<circle cx="1760.00" cy="3120.00" r="96.00" fill="rgb(26,26,104)" fill-opacity="0.502"/>
<polygon points="6592.01,2643.95 6945.31,2251.57 7087.99,2380.05 6734.69,2772.43" fill="rgb(7,13,26)" fill-opacity="0.502"/>
<polygon points="3182.14,2703.91 3261.67,2964.02 3169.86,2992.09 3090.33,2731.98" fill="rgb(41,14,69)" fill-opacity="0.502"/>
<g transform="translate(5984.00 4592.00) rotate(203) scale(144.00 288.00)"><ellipse cx="0" cy="0" rx="1" ry="1" fill="rgb(4,10,19)" fill-opacity="0.502"/></g>
<polygon points="6195.42,3253.86 6272.45,3151.64 6668.58,3450.14 6591.55,3552.36" fill="rgb(9,14,24)" fill-opacity="0.502"/>
<circle cx="3936.00" cy="2128.00" r="32.00" fill="rgb(151,177,255)" fill-opacity="0.502"/>
<polygon points="1965.93,2014.17 1969.83,2045.93 1938.07,2049.83 1934.17,2018.07" fill="rgb(227,255,255)" fill-opacity="0.502"/>
<polygon points="5202.44,1987.20 5547.98,1920.03 5581.56,2092.80 5236.02,2159.97" fill="rgb(105,148,255)" fill-opacity="0.502"/>
<g transform="translate(6112.00 1744.00) rotate(124) scale(192.00 1184.00)"><ellipse cx="0" cy="0" rx="1" ry="1" fill="rgb(6,12,22)" fill-opacity="0.502"/></g>
<polygon points="4450.55,3015.76 4433.91,3094.01 3917.45,2984.24 3934.09,2905.99" fill="rgb(90,83,164)" fill-opacity="0.502"/>
<g transform="translate(1680.00 1664.00) rotate(157) scale(368.00 112.00)"><ellipse cx="0" cy="0" rx="1" ry="1" fill="rgb(7,12,40)" fill-opacity="0.502"/></g>
<g transform="translate(1888.00 2752.00) rotate(76) scale(192.00 112.00)"><ellipse cx="0" cy="0" rx="1" ry="1" fill="rgb(0,13,31)" fill-opacity="0.502"/></g>
<circle cx="3664.00" cy="384.00" r="400.00" fill="rgb(7,10,21)" fill-opacity="0.502"/>
<g transform="translate(1392.00 2208.00) rotate(164) scale(80.00 48.00)"><ellipse cx="0" cy="0" rx="1" ry="1" fill="rgb(36,42,68)" fill-opacity="0.502"/></g>
<polygon points="6128.82,1174.51 6099.15,1186.50 6063.18,1097.49 6092.85,1085.50" fill="rgb(77,94,87)" fill-opacity="0.502"/>
<circle cx="4720.00" cy="3616.00" r="48.00" fill="rgb(99,112,241)" fill-opacity="0.502"/>
<polygon points="5292.37,2245.67 5482.33,2364.37 5363.63,2554.33 5173.67,2435.63" fill="rgb(120,155,254)" fill-opacity="0.502"/>
<g transform="translate(3968.00 2000.00) rotate(162) scale(288.00 80.00)"><ellipse cx="0" cy="0" rx="1" ry="1" fill="rgb(25,55,198)" fill-opacity="0.502"/></g>
<polygon points="2860.69,3266.47 3386.89,3500.75 3315.31,3661.53 2789.11,3427.25" fill="rgb(39,60,160)" fill-opacity="0.502"/>
<g transform="translate(4240.00 4592.00) rotate(146) scale(176.00 144.00)"><ellipse cx="0" cy="0" rx="1" ry="1" fill="rgb(39,29,27)" fill-opacity="0.502"/></g>
<circle cx="1456.00" cy="3664.00" r="144.00" fill="rgb(29,38,124)" fill-opacity="0.502"/>
<circle cx="6624.00" cy="2480.00" r="80.00" fill="rgb(39,46,122)" fill-opacity="0.502"/>
<polygon points="5259.65,2671.19 5469.56,2554.84 5508.35,2624.81 5298.44,2741.16" fill="rgb(57,66,188)" fill-opacity="0.502"/>
<g transform="translate(6672.00 944.00) rotate(350) scale(432.00 400.00)"><ellipse cx="0" cy="0" rx="1" ry="1" fill="rgb(7,12,21)" fill-opacity="0.502"/></g>
<g transform="translate(6720.00 3904.00) rotate(127) scale(368.00 416.00)"><ellipse cx="0" cy="0" rx="1" ry="1" fill="rgb(6,13,23)" fill-opacity="0.502"/></g>
<circle cx="4640.00" cy="2688.00" r="48.00" fill="rgb(194,169,164)" fill-opacity="0.502"/>
<circle cx="1792.00" cy="2064.00" r="48.00" fill="rgb(196,255,255)" fill-opacity="0.502"/>
<circle cx="3232.00" cy="2320.00" r="48.00" fill="rgb(129,158,255)" fill-opacity="0.502"/>
<g transform="translate(4336.00 3200.00) rotate(75) scale(144.00 832.00)"><ellipse cx="0" cy="0" rx="1" ry="1" fill="rgb(47,64,176)" fill-opacity="0.502"/></g>
<polygon points="5384.27,3185.50 5276.39,2918.47 5335.73,2894.50 5443.61,3161.53" fill="rgb(3,13,47)" fill-opacity="0.502"/>
<polygon points="2256.00,2976.00 2976.00,2976.00 2976.00,3040.00 2256.00,3040.00" fill="rgb(27,21,89)" fill-opacity="0.502"/>
<circle cx="3776.00" cy="2848.00" r="64.00" fill="rgb(32,1,0)" fill-opacity="0.502"/>
<polygon points="5661.08,1963.22 4968.97,2161.68 4946.92,2084.78 5639.03,1886.32" fill="rgb(106,152,255)" fill-opacity="0.502"/>
<polygon points="7152.00,4592.00 4688.00,4592.00 4688.00,4592.00 7152.00,4592.00" fill="rgb(21,15,0)" fill-opacity="0.502"/>
<polygon points="4960.75,3316.14 4859.97,3752.66 4735.25,3723.86 4836.03,3287.34" fill="rgb(45,52,139)" fill-opacity="0.502"/>
<polygon points="2391.25,2243.40 2511.53,2199.62 2664.75,2620.60 2544.47,2664.38" fill="rgb(36,38,60)" fill-opacity="0.502"/>
<g transform="translate(3568.00 2096.00) rotate(322) scale(176.00 48.00)"><ellipse cx="0" cy="0" rx="1" ry="1" fill="rgb(0,13,69)" fill-opacity="0.502"/></g>
<g transform="translate(2608.00 2016.00) rotate(220) scale(96.00 256.00)"><ellipse cx="0" cy="0" rx="1" ry="1" fill="rgb(111,175,238)" fill-opacity="0.502"/></g>
<polygon points="2176.00,2304.00 2192.00,2304.00 2192.00,2704.00 2176.00,2704.00" fill="rgb(128,143,145)" fill-opacity="0.502"/>
<g transform="translate(4256.00 3488.00) rotate(0) scale(272.00 96.00)"><ellipse cx="0" cy="0" rx="1" ry="1" fill="rgb(44,48,124)" fill-opacity="0.502"/></g>
<polygon points="6039.53,1984.12 5753.67,1949.02 5800.47,1567.88 6086.33,1602.98" fill="rgb(8,13,27)" fill-opacity="0.502"/>
<g transform="translate(2192.00 4176.00) rotate(148) scale(288.00 64.00)"><ellipse cx="0" cy="0" rx="1" ry="1" fill="rgb(23,38,65)" fill-opacity="0.502"/></g>
<circle cx="2128.00" cy="3536.00" r="176.00" fill="rgb(23,32,121)" fill-opacity="0.502"/>
<g transform="translate(4160.00 2784.00) rotate(170) scale(32.00 48.00)"><ellipse cx="0" cy="0" rx="1" ry="1" fill="rgb(186,189,211)" fill-opacity="0.502"/></g>
<polygon points="1378.64,2419.26 1425.21,2200.15 1597.36,2236.74 1550.79,2455.85" fill="rgb(114,152,238)" fill-opacity="0.502"/>
<polygon points="1568.00,2960.00 1968.00,2960.00 1968.00,3008.00 1568.00,3008.00" fill="rgb(70,95,230)" fill-opacity="0.502"/>
<polygon points="4619.48,2154.21 4165.63,1997.94 4212.52,1861.79 4666.37,2018.06" fill="rgb(43,71,69)" fill-opacity="0.502"/>
<g transform="translate(1952.00 1856.00) rotate(5) scale(448.00 160.00)"><ellipse cx="0" cy="0" rx="1" ry="1" fill="rgb(26,28,45)" fill-opacity="0.502"/></g>
<polygon points="4081.92,3016.46 4039.54,2993.92 4062.08,2951.54 4104.46,2974.08" fill="rgb(139,150,254)" fill-opacity="0.502"/>
<polygon points="5188.63,3692.84 5284.63,3635.15 5515.37,4019.16 5419.37,4076.85" fill="rgb(22,19,82)" fill-opacity="0.502"/>
<polygon points="4669.27,1947.21 4550.59,1995.16 4418.73,1668.79 4537.41,1620.84" fill="rgb(19,45,189)" fill-opacity="0.502"/>
<polygon points="3802.15,2182.05 3756.28,2301.55 3621.85,2249.95 3667.72,2130.45" fill="rgb(87,39,22)" fill-opacity="0.502"/>
<circle cx="1776.00" cy="3472.00" r="144.00" fill="rgb(26,40,151)" fill-opacity="0.502"/>
<polygon points="1557.53,2231.81 1646.54,2195.84 1706.47,2344.19 1617.46,2380.16" fill="rgb(31,45,120)" fill-opacity="0.502"/>
<polygon points="4754.17,1419.16 4427.80,1551.02 4397.83,1476.84 4724.20,1344.98" fill="rgb(2,11,20)" fill-opacity="0.502"/>
<polygon points="5231.95,2816.03 5302.59,2853.59 5280.05,2895.97 5209.41,2858.41" fill="rgb(120,153,255)" fill-opacity="0.502"/>
<circle cx="4976.00" cy="3776.00" r="112.00" fill="rgb(26,20,60)" fill-opacity="0.502"/>
<polygon points="4777.50,2935.08 4967.46,3053.78 4950.50,3080.92 4760.54,2962.22" fill="rgb(42,46,131)" fill-opacity="0.502"/>
<polygon points="2408.22,2215.05 3041.53,1946.22 3047.78,1960.95 2414.47,2229.78" fill="rgb(25,65,142)" fill-opacity="0.502"/>
<circle cx="4832.00" cy="448.00" r="720.00" fill="rgb(8,12,23)" fill-opacity="0.502"/>
<g transform="translate(3232.00 2608.00) rotate(355) scale(16.00 320.00)"><ellipse cx="0" cy="0" rx="1" ry="1" fill="rgb(114,96,113)" fill-opacity="0.502"/></g>
<g transform="translate(1264.00 864.00) rotate(358) scale(160.00 720.00)"><ellipse cx="0" cy="0" rx="1" ry="1" fill="rgb(9,10,26)" fill-opacity="0.502"/></g>
<circle cx="4176.00" cy="2512.00" r="48.00" fill="rgb(175,160,128)" fill-opacity="0.502"/>
<circle cx="5840.00" cy="2096.00" r="80.00" fill="rgb(82,106,255)" fill-opacity="0.502"/>
<g transform="translate(6752.00 2592.00) rotate(271) scale(192.00 96.00)"><ellipse cx="0" cy="0" rx="1" ry="1" fill="rgb(5,13,24)" fill-opacity="0.502"/></g>
<polygon points="1285.62,2246.71 1158.47,2314.31 1098.38,2201.29 1225.53,2133.69" fill="rgb(39,35,70)" fill-opacity="0.502"/>
<polygon points="4656.65,2500.26 4671.70,2357.05 4735.35,2363.74 4720.30,2506.95" fill="rgb(193,228,255)" fill-opacity="0.502"/>
<g transform="translate(6224.00 4096.00) rotate(2) scale(128.00 192.00)"><ellipse cx="0" cy="0" rx="1" ry="1" fill="rgb(31,16,36)" fill-opacity="0.502"/></g>
<polygon points="7534.20,4615.23 7118.45,4600.71 7121.80,4504.77 7537.55,4519.29" fill="rgb(0,0,0)" fill-opacity="0.502"/>
<g transform="translate(4576.00 3984.00) rotate(75) scale(240.00 160.00)"><ellipse cx="0" cy="0" rx="1" ry="1" fill="rgb(19,18,42)" fill-opacity="0.502"/></g>
<circle cx="1392.00" cy="1408.00" r="304.00" fill="rgb(5,11,32)" fill-opacity="0.502"/>
<circle cx="3280.00" cy="3136.00" r="128.00" fill="rgb(53,66,186)" fill-opacity="0.502"/>
<circle cx="2592.00" cy="1968.00" r="112.00" fill="rgb(147,203,248)" fill-opacity="0.502"/>
<g transform="translate(4144.00 2272.00) rotate(358) scale(80.00 96.00)"><ellipse cx="0" cy="0" rx="1" ry="1" fill="rgb(71,68,16)" fill-opacity="0.502"/></g>
<circle cx="6976.00" cy="4448.00" r="96.00" fill="rgb(28,18,24)" fill-opacity="0.502"/>
<g transform="translate(5360.00 2896.00) rotate(15) scale(48.00 176.00)"><ellipse cx="0" cy="0" rx="1" ry="1" fill="rgb(24,27,97)" fill-opacity="0.502"/></g>
<circle cx="1296.00" cy="2112.00" r="64.00" fill="rgb(27,112,255)" fill-opacity="0.502"/>
<g transform="translate(3600.00 3456.00) rotate(176) scale(160.00 96.00)"><ellipse cx="0" cy="0" rx="1" ry="1" fill="rgb(48,54,140)" fill-opacity="0.502"/></g>
<g transform="translate(2000.00 1488.00) rotate(139) scale(448.00 368.00)"><ellipse cx="0" cy="0" rx="1" ry="1" fill="rgb(7,12,34)" fill-opacity="0.502"/></g>
<circle cx="3504.00" cy="3216.00" r="176.00" fill="rgb(46,62,183)" fill-opacity="0.502"/>
<circle cx="5104.00" cy="2192.00" r="64.00" fill="rgb(42,50,159)" fill-opacity="0.502"/>
<polygon points="1952.77,2262.48 1967.28,1846.73 2047.23,1849.52 2032.72,2265.27" fill="rgb(44,42,77)" fill-opacity="0.502"/>
<g transform="translate(2592.00 2592.00) rotate(77) scale(64.00 528.00)"><ellipse cx="0" cy="0" rx="1" ry="1" fill="rgb(33,31,54)" fill-opacity="0.502"/></g>
<g transform="translate(7632.00 1632.00) rotate(166) scale(480.00 1072.00)"><ellipse cx="0" cy="0" rx="1" ry="1" fill="rgb(0,0,0)" fill-opacity="0.502"/></g>
<polygon points="3313.11,2040.22 3222.34,2008.96 3310.89,1751.78 3401.66,1783.04" fill="rgb(16,28,141)" fill-opacity="0.502"/>
<polygon points="2707.06,3236.39 2438.41,3193.84 2460.94,3051.61 2729.59,3094.16" fill="rgb(48,73,167)" fill-opacity="0.502"/>
<circle cx="1328.00" cy="3152.00" r="80.00" fill="rgb(29,22,116)" fill-opacity="0.502"/>
<g transform="translate(2768.00 2496.00) rotate(298) scale(240.00 80.00)"><ellipse cx="0" cy="0" rx="1" ry="1" fill="rgb(20,19,29)" fill-opacity="0.502"/></g>
<g transform="translate(2432.00 2400.00) rotate(315) scale(64.00 688.00)"><ellipse cx="0" cy="0" rx="1" ry="1" fill="rgb(23,26,48)" fill-opacity="0.502"/></g>
<g transform="translate(4864.00 2368.00) rotate(70) scale(112.00 96.00)"><ellipse cx="0" cy="0" rx="1" ry="1" fill="rgb(51,52,107)" fill-opacity="0.502"/></g>
<polygon points="1116.65,3835.55 1196.03,3558.71 1411.35,3620.45 1331.97,3897.29" fill="rgb(32,42,120)" fill-opacity="0.502"/>
<polygon points="3882.35,2952.25 3854.92,2935.76 4085.65,2551.75 4113.08,2568.24" fill="rgb(141,108,151)" fill-opacity="0.502"/>
<polygon points="1456.00,2112.00 1152.00,2112.00 1152.00,2080.00 1456.00,2080.00" fill="rgb(25,99,255)" fill-opacity="0.502"/>
<g transform="translate(3792.00 4096.00) rotate(229) scale(256.00 288.00)"><ellipse cx="0" cy="0" rx="1" ry="1" fill="rgb(17,19,38)" fill-opacity="0.502"/></g>
<circle cx="6720.00" cy="3248.00" r="384.00" fill="rgb(8,14,22)" fill-opacity="0.502"/>
<polygon points="4633.06,3683.06 4615.54,3572.44 4662.94,3564.94 4680.46,3675.56" fill="rgb(115,116,204)" fill-opacity="0.502"/>
<g transform="translate(1472.00 3136.00) rotate(349) scale(368.00 48.00)"><ellipse cx="0" cy="0" rx="1" ry="1" fill="rgb(24,22,105)" fill-opacity="0.502"/></g>
<circle cx="5344.00" cy="3504.00" r="112.00" fill="rgb(74,80,174)" fill-opacity="0.502"/>
<g transform="translate(3584.00 1744.00) rotate(70) scale(256.00 48.00)"><ellipse cx="0" cy="0" rx="1" ry="1" fill="rgb(8,15,23)" fill-opacity="0.502"/></g>
<g transform="translate(1968.00 3072.00) rotate(260) scale(48.00 336.00)"><ellipse cx="0" cy="0" rx="1" ry="1" fill="rgb(30,24,102)" fill-opacity="0.502"/></g>
<circle cx="1696.00" cy="320.00" r="608.00" fill="rgb(8,10,23)" fill-opacity="0.502"/>
<polygon points="1228.66,4249.09 1099.23,4185.96 1155.34,4070.91 1284.77,4134.04" fill="rgb(37,53,68)" fill-opacity="0.502"/>
<polygon points="1214.61,4005.18 1202.33,3829.61 1585.39,3802.82 1597.67,3978.39" fill="rgb(8,16,71)" fill-opacity="0.502"/>
<circle cx="4320.00" cy="1872.00" r="80.00" fill="rgb(45,88,83)" fill-opacity="0.502"/>
<polygon points="4249.76,2548.67 4040.64,2628.95 4006.24,2539.33 4215.36,2459.05" fill="rgb(145,130,146)" fill-opacity="0.502"/>
</g>
</svg>