<?xml version="1.0" standalone="no"?>
<svg xmlns="http://www.w3.org/2000/svg" width="8192" height="4608" viewBox="0 0 8192 4608" style="overflow:hidden">
<defs>
<clipPath id="c"><rect x="0" y="0" width="8192" height="4608"/></clipPath>
</defs>
<rect width="8192" height="4608" fill="rgb(19,23,50)"/>
<g clip-path="url(#c)">
<g transform="translate(5136.00 2368.00) rotate(0) scale(928.00 640.00)"><ellipse cx="0" cy="0" rx="1" ry="1" fill="rgb(138,167,255)" fill-opacity="0.502"/></g>
<g transform="translate(3520.00 3264.00) rotate(91) scale(512.00 2480.00)"><ellipse cx="0" cy="0" rx="1" ry="1" fill="rgb(69,80,228)" fill-opacity="0.502"/></g>
<circle cx="3216.00" cy="2160.00" r="800.00" fill="rgb(85,101,170)" fill-opacity="0.502"/>
<circle cx="2832.00" cy="2080.00" r="320.00" fill="rgb(154,229,255)" fill-opacity="0.502"/>
<circle cx="0.00" cy="768.00" r="1920.00" fill="rgb(0,0,0)" fill-opacity="0.502"/>
<circle cx="5488.00" cy="2368.00" r="496.00" fill="rgb(109,149,255)" fill-opacity="0.502"/>
<circle cx="4064.00" cy="2544.00" r="576.00" fill="rgb(94,63,58)" fill-opacity="0.502"/>
<g transform="translate(1504.00 2304.00) rotate(56) scale(400.00 416.00)"><ellipse cx="0" cy="0" rx="1" ry="1" fill="rgb(111,164,255)" fill-opacity="0.502"/></g>
<g transform="translate(528.00 3984.00) rotate(1) scale(576.00 4592.00)"><ellipse cx="0" cy="0" rx="1" ry="1" fill="rgb(0,0,0)" fill-opacity="0.502"/></g>
<circle cx="8176.00" cy="2032.00" r="2160.00" fill="rgb(0,0,0)" fill-opacity="0.502"/>
<circle cx="2816.00" cy="2640.00" r="384.00" fill="rgb(34,12,12)" fill-opacity="0.502"/>
<circle cx="3056.00" cy="1072.00" r="800.00" fill="rgb(0,0,18)" fill-opacity="0.502"/>
<circle cx="5104.00" cy="0.00" r="1600.00" fill="rgb(0,0,0)" fill-opacity="0.502"/>
<circle cx="4352.00" cy="1744.00" r="576.00" fill="rgb(0,20,94)" fill-opacity="0.502"/>
<g transform="translate(7904.00 2640.00) rotate(275) scale(8112.00 1072.00)"><ellipse cx="0" cy="0" rx="1" ry="1" fill="rgb(0,0,0)" fill-opacity="0.502"/></g>
<g transform="translate(3344.00 2720.00) rotate(19) scale(416.00 304.00)"><ellipse cx="0" cy="0" rx="1" ry="1" fill="rgb(71,31,32)" fill-opacity="0.502"/></g>
<g transform="translate(5872.00 2288.00) rotate(340) scale(384.00 240.00)"><ellipse cx="0" cy="0" rx="1" ry="1" fill="rgb(84,115,255)" fill-opacity="0.502"/></g>
<g transform="translate(1424.00 3024.00) rotate(84) scale(112.00 320.00)"><ellipse cx="0" cy="0" rx="1" ry="1" fill="rgb(52,71,217)" fill-opacity="0.502"/></g>
<g transform="translate(3136.00 2144.00) rotate(21) scale(352.00 208.00)"><ellipse cx="0" cy="0" rx="1" ry="1" fill="rgb(143,198,255)" fill-opacity="0.502"/></g>
<circle cx="1744.00" cy="2320.00" r="304.00" fill="rgb(110,147,226)" fill-opacity="0.502"/>
<circle cx="4816.00" cy="1840.00" r="352.00" fill="rgb(16,33,177)" fill-opacity="0.502"/>
<g transform="translate(2560.00 2080.00) rotate(267) scale(160.00 320.00)"><ellipse cx="0" cy="0" rx="1" ry="1" fill="rgb(155,232,255)" fill-opacity="0.502"/></g>
<g transform="translate(4960.00 3088.00) rotate(270) scale(416.00 848.00)"><ellipse cx="0" cy="0" rx="1" ry="1" fill="rgb(48,58,155)" fill-opacity="0.502"/></g>
<circle cx="224.00" cy="3520.00" r="896.00" fill="rgb(0,0,0)" fill-opacity="0.502"/>
<circle cx="8176.00" cy="3648.00" r="1280.00" fill="rgb(0,0,0)" fill-opacity="0.502"/>
<circle cx="1568.00" cy="3488.00" r="480.00" fill="rgb(25,39,162)" fill-opacity="0.502"/>
<circle cx="3056.00" cy="3264.00" r="368.00" fill="rgb(52,77,193)" fill-opacity="0.502"/>
<circle cx="4448.00" cy="2592.00" r="320.00" fill="rgb(134,119,101)" fill-opacity="0.502"/>
<circle cx="6384.00" cy="4368.00" r="704.00" fill="rgb(16,6,11)" fill-opacity="0.502"/>
<circle cx="6000.00" cy="3008.00" r="352.00" fill="rgb(2,4,9)" fill-opacity="0.502"/>
<polygon points="1704.99,2320.92 1946.57,1962.77 2119.01,2079.08 1877.43,2437.23" fill="rgb(46,52,71)" fill-opacity="0.502"/>
<circle cx="2048.00" cy="0.00" r="1536.00" fill="rgb(1,4,12)" fill-opacity="0.502"/>
<polygon points="4552.00,1976.00 4552.00,2344.00 4072.00,2344.00 4072.00,1976.00" fill="rgb(18,35,0)" fill-opacity="0.502"/>
<g transform="translate(3760.00 2384.00) rotate(178) scale(432.00 128.00)"><ellipse cx="0" cy="0" rx="1" ry="1" fill="rgb(7,0,6)" fill-opacity="0.502"/></g>
<g transform="translate(4112.00 1120.00) rotate(195) scale(912.00 416.00)"><ellipse cx="0" cy="0" rx="1" ry="1" fill="rgb(6,10,11)" fill-opacity="0.502"/></g>
<g transform="translate(4016.00 4048.00) rotate(85) scale(528.00 848.00)"><ellipse cx="0" cy="0" rx="1" ry="1" fill="rgb(22,16,32)" fill-opacity="0.502"/></g>
<circle cx="6528.00" cy="3344.00" r="240.00" fill="rgb(19,34,133)" fill-opacity="0.502"/>
<polygon points="1476.07,2409.35 1192.35,2713.59 1051.93,2582.65 1335.65,2278.41" fill="rgb(77,114,255)" fill-opacity="0.502"/>
<circle cx="3760.00" cy="1840.00" r="320.00" fill="rgb(0,39,216)" fill-opacity="0.502"/>
<polygon points="5671.29,3876.99 4399.85,3200.95 4632.71,2763.01 5904.15,3439.05" fill="rgb(54,66,187)" fill-opacity="0.502"/>
<circle cx="3136.00" cy="1728.00" r="240.00" fill="rgb(0,13,158)" fill-opacity="0.502"/>
<polygon points="2258.22,2308.16 2782.82,2890.78 2461.78,3179.84 1937.18,2597.22" fill="rgb(59,61,99)" fill-opacity="0.502"/>
<polygon points="4048.00,2528.00 4048.00,2736.00 3200.00,2736.00 3200.00,2528.00" fill="rgb(132,100,98)" fill-opacity="0.502"/>
<circle cx="5248.00" cy="2464.00" r="224.00" fill="rgb(150,190,255)" fill-opacity="0.502"/>
<circle cx="5600.00" cy="3808.00" r="336.00" fill="rgb(36,21,91)" fill-opacity="0.502"/>
<polygon points="3024.96,2245.77 3408.97,2476.51 3343.04,2586.23 2959.03,2355.49" fill="rgb(141,119,76)" fill-opacity="0.502"/>
<circle cx="1584.00" cy="1584.00" r="464.00" fill="rgb(9,13,44)" fill-opacity="0.502"/>
<g transform="translate(4992.00 2304.00) rotate(292) scale(256.00 368.00)"><ellipse cx="0" cy="0" rx="1" ry="1" fill="rgb(117,131,207)" fill-opacity="0.502"/></g>
<g transform="translate(2912.00 2656.00) rotate(204) scale(688.00 304.00)"><ellipse cx="0" cy="0" rx="1" ry="1" fill="rgb(38,27,56)" fill-opacity="0.502"/></g>
<circle cx="7792.00" cy="496.00" r="1184.00" fill="rgb(0,0,0)" fill-opacity="0.502"/>
<circle cx="0.00" cy="1216.00" r="1248.00" fill="rgb(0,0,0)" fill-opacity="0.502"/>
<circle cx="384.00" cy="4032.00" r="720.00" fill="rgb(0,0,0)" fill-opacity="0.502"/>
<g transform="translate(4976.00 1728.00) rotate(229) scale(288.00 224.00)"><ellipse cx="0" cy="0" rx="1" ry="1" fill="rgb(1,12,114)" fill-opacity="0.502"/></g>
<circle cx="3968.00" cy="3232.00" r="336.00" fill="rgb(60,74,194)" fill-opacity="0.502"/>
<g transform="translate(2736.00 3968.00) rotate(349) scale(848.00 368.00)"><ellipse cx="0" cy="0" rx="1" ry="1" fill="rgb(19,33,70)" fill-opacity="0.502"/></g>
<g transform="translate(4704.00 1760.00) rotate(193) scale(368.00 208.00)"><ellipse cx="0" cy="0" rx="1" ry="1" fill="rgb(15,37,180)" fill-opacity="0.502"/></g>
<circle cx="4976.00" cy="4592.00" r="720.00" fill="rgb(31,12,33)" fill-opacity="0.502"/>
<circle cx="3376.00" cy="3248.00" r="256.00" fill="rgb(53,74,205)" fill-opacity="0.502"/>
<g transform="translate(6752.00 736.00) rotate(84) scale(1440.00 320.00)"><ellipse cx="0" cy="0" rx="1" ry="1" fill="rgb(8,16,29)" fill-opacity="0.502"/></g>
<circle cx="3376.00" cy="1872.00" r="176.00" fill="rgb(0,0,46)" fill-opacity="0.502"/>
<polygon points="1691.52,2810.83 1303.15,2959.91 1188.48,2661.17 1576.85,2512.09" fill="rgb(11,15,45)" fill-opacity="0.502"/>
<polygon points="4987.70,2578.08 5039.60,2845.08 4788.30,2893.92 4736.40,2626.92" fill="rgb(41,25,0)" fill-opacity="0.502"/>
<circle cx="1616.00" cy="4288.00" r="528.00" fill="rgb(19,40,64)" fill-opacity="0.502"/>
<circle cx="6192.00" cy="3328.00" r="272.00" fill="rgb(3,7,15)" fill-opacity="0.502"/>
<polygon points="1104.00,3216.00 2672.00,3216.00 2672.00,3728.00 1104.00,3728.00" fill="rgb(27,45,153)" fill-opacity="0.502"/>
<polygon points="4690.93,2180.76 4786.57,2172.39 4813.07,2475.24 4717.43,2483.61" fill="rgb(242,255,255)" fill-opacity="0.502"/>
<g transform="translate(368.00 2656.00) rotate(148) scale(704.00 848.00)"><ellipse cx="0" cy="0" rx="1" ry="1" fill="rgb(0,0,0)" fill-opacity="0.502"/></g>
<circle cx="5472.00" cy="3056.00" r="176.00" fill="rgb(17,16,38)" fill-opacity="0.502"/>
<polygon points="2904.00,1832.00 2904.00,2328.00 2712.00,2328.00 2712.00,1832.00" fill="rgb(129,192,250)" fill-opacity="0.502"/>
<g transform="translate(2704.00 1456.00) rotate(118) scale(448.00 288.00)"><ellipse cx="0" cy="0" rx="1" ry="1" fill="rgb(2,11,54)" fill-opacity="0.502"/></g>
<g transform="translate(6032.00 1520.00) rotate(308) scale(496.00 384.00)"><ellipse cx="0" cy="0" rx="1" ry="1" fill="rgb(5,15,26)" fill-opacity="0.502"/></g>
<circle cx="8176.00" cy="2192.00" r="1152.00" fill="rgb(0,0,0)" fill-opacity="0.502"/>
<circle cx="7712.00" cy="4288.00" r="656.00" fill="rgb(0,0,0)" fill-opacity="0.502"/>
<polygon points="2820.36,2903.97 3182.85,3351.61 2747.64,3704.03 2385.15,3256.39" fill="rgb(41,69,175)" fill-opacity="0.502"/>
<g transform="translate(5264.00 3984.00) rotate(107) scale(400.00 512.00)"><ellipse cx="0" cy="0" rx="1" ry="1" fill="rgb(29,21,69)" fill-opacity="0.502"/></g>
<g transform="translate(4464.00 3168.00) rotate(140) scale(272.00 240.00)"><ellipse cx="0" cy="0" rx="1" ry="1" fill="rgb(59,76,194)" fill-opacity="0.502"/></g>
<g transform="translate(3968.00 2240.00) rotate(313) scale(128.00 128.00)"><ellipse cx="0" cy="0" rx="1" ry="1" fill="rgb(118,96,107)" fill-opacity="0.502"/></g>
<circle cx="4544.00" cy="2768.00" r="144.00" fill="rgb(51,25,22)" fill-opacity="0.502"/>
<polygon points="3691.97,2009.82 3667.13,2102.55 3188.03,1974.18 3212.87,1881.45" fill="rgb(0,7,88)" fill-opacity="0.502"/>
<g transform="translate(1376.00 2112.00) rotate(182) scale(288.00 64.00)"><ellipse cx="0" cy="0" rx="1" ry="1" fill="rgb(59,134,255)" fill-opacity="0.502"/></g>
<polygon points="3098.08,2128.10 3061.49,2300.25 2325.92,2143.90 2362.51,1971.75" fill="rgb(120,178,255)" fill-opacity="0.502"/>
<g transform="translate(1920.00 2880.00) rotate(178) scale(256.00 64.00)"><ellipse cx="0" cy="0" rx="1" ry="1" fill="rgb(0,0,0)" fill-opacity="0.502"/></g>
<polygon points="6746.28,3729.36 6409.66,3626.45 6437.72,3534.64 6774.34,3637.55" fill="rgb(132,160,117)" fill-opacity="0.502"/>
<circle cx="2416.00" cy="1312.00" r="592.00" fill="rgb(7,13,38)" fill-opacity="0.502"/>
<g transform="translate(4560.00 2176.00) rotate(5) scale(112.00 224.00)"><ellipse cx="0" cy="0" rx="1" ry="1" fill="rgb(70,76,39)" fill-opacity="0.502"/></g>
<g transform="translate(1376.00 2480.00) rotate(356) scale(272.00 96.00)"><ellipse cx="0" cy="0" rx="1" ry="1" fill="rgb(87,129,255)" fill-opacity="0.502"/></g>
<circle cx="1632.00" cy="2144.00" r="112.00" fill="rgb(179,221,255)" fill-opacity="0.502"/>
<g transform="translate(1504.00 1344.00) rotate(196) scale(400.00 736.00)"><ellipse cx="0" cy="0" rx="1" ry="1" fill="rgb(10,14,40)" fill-opacity="0.502"/></g>
<g transform="translate(2336.00 2832.00) rotate(65) scale(224.00 192.00)"><ellipse cx="0" cy="0" rx="1" ry="1" fill="rgb(35,32,98)" fill-opacity="0.502"/></g>
<polygon points="3936.87,2822.09 3857.49,3098.93 3519.13,3001.91 3598.51,2725.07" fill="rgb(59,25,69)" fill-opacity="0.502"/>
<polygon points="4951.04,2999.95 5282.93,2631.35 5496.96,2824.05 5165.07,3192.65" fill="rgb(46,59,144)" fill-opacity="0.502"/>
<circle cx="3216.00" cy="2176.00" r="176.00" fill="rgb(141,192,255)" fill-opacity="0.502"/>
<polygon points="4778.86,2442.59 4920.72,2290.47 5061.14,2421.41 4919.28,2573.53" fill="rgb(43,37,79)" fill-opacity="0.502"/>
<polygon points="2321.80,2188.81 1645.07,2382.86 1614.20,2275.19 2290.93,2081.14" fill="rgb(26,28,45)" fill-opacity="0.502"/>
<polygon points="5326.00,1682.10 5705.96,2000.92 5346.00,2429.90 4966.04,2111.08" fill="rgb(75,103,232)" fill-opacity="0.502"/>
<polygon points="5776.00,2976.00 5408.00,2976.00 5408.00,2848.00 5776.00,2848.00" fill="rgb(41,62,192)" fill-opacity="0.502"/>
<g transform="translate(5376.00 2528.00) rotate(347) scale(384.00 192.00)"><ellipse cx="0" cy="0" rx="1" ry="1" fill="rgb(132,170,255)" fill-opacity="0.502"/></g>
<polygon points="1535.46,3888.35 1959.34,3699.62 2128.54,4079.65 1704.66,4268.38" fill="rgb(12,15,44)" fill-opacity="0.502"/>
<g transform="translate(240.00 1216.00) rotate(249) scale(1664.00 704.00)"><ellipse cx="0" cy="0" rx="1" ry="1" fill="rgb(0,0,0)" fill-opacity="0.502"/></g>
<g transform="translate(240.00 4528.00) rotate(5) scale(864.00 1680.00)"><ellipse cx="0" cy="0" rx="1" ry="1" fill="rgb(0,0,0)" fill-opacity="0.502"/></g>
<polygon points="6776.08,1638.72 6983.92,1518.72 7063.92,1657.28 6856.08,1777.28" fill="rgb(21,30,84)" fill-opacity="0.502"/>
<circle cx="5600.00" cy="3312.00" r="192.00" fill="rgb(34,56,176)" fill-opacity="0.502"/>
<polygon points="4799.32,1781.03 4922.97,1503.32 5200.68,1626.97 5077.03,1904.68" fill="rgb(11,19,91)" fill-opacity="0.502"/>
<g transform="translate(4304.00 1072.00) rotate(106) scale(400.00 1040.00)"><ellipse cx="0" cy="0" rx="1" ry="1" fill="rgb(7,12,21)" fill-opacity="0.502"/></g>
<circle cx="5840.00" cy="2256.00" r="288.00" fill="rgb(72,100,229)" fill-opacity="0.502"/>
<g transform="translate(4032.00 3536.00) rotate(176) scale(960.00 112.00)"><ellipse cx="0" cy="0" rx="1" ry="1" fill="rgb(39,46,116)" fill-opacity="0.502"/></g>
<circle cx="5440.00" cy="448.00" r="1168.00" fill="rgb(6,12,19)" fill-opacity="0.502"/>
<circle cx="3392.00" cy="1056.00" r="512.00" fill="rgb(6,12,31)" fill-opacity="0.502"/>
<g transform="translate(4688.00 3760.00) rotate(188) scale(384.00 64.00)"><ellipse cx="0" cy="0" rx="1" ry="1" fill="rgb(45,37,101)" fill-opacity="0.502"/></g>
<polygon points="2416.90,3696.57 2224.57,3888.90 1919.10,3583.43 2111.43,3391.10" fill="rgb(20,25,101)" fill-opacity="0.502"/>
<circle cx="1888.00" cy="384.00" r="800.00" fill="rgb(8,11,23)" fill-opacity="0.502"/>
<polygon points="2035.60,2601.68 2246.09,2525.07 2284.40,2630.32 2073.91,2706.93" fill="rgb(123,145,69)" fill-opacity="0.502"/>
<polygon points="5728.00,2192.00 4944.00,2192.00 4944.00,2160.00 5728.00,2160.00" fill="rgb(0,0,104)" fill-opacity="0.502"/>
<polygon points="4280.00,2392.00 4280.00,2824.00 4184.00,2824.00 4184.00,2392.00" fill="rgb(115,123,172)" fill-opacity="0.502"/>
<polygon points="3204.40,1330.80 3339.63,1620.82 2875.60,1837.20 2740.37,1547.18" fill="rgb(3,21,100)" fill-opacity="0.502"/>
<circle cx="6128.00" cy="2224.00" r="144.00" fill="rgb(74,88,217)" fill-opacity="0.502"/>
<g transform="translate(6112.00 3872.00) rotate(91) scale(368.00 224.00)"><ellipse cx="0" cy="0" rx="1" ry="1" fill="rgb(5,11,25)" fill-opacity="0.502"/></g>
<polygon points="1763.15,2224.19 1440.88,2535.40 1340.85,2431.81 1663.12,2120.60" fill="rgb(96,138,244)" fill-opacity="0.502"/>
<g transform="translate(7744.00 1456.00) rotate(92) scale(5664.00 624.00)"><ellipse cx="0" cy="0" rx="1" ry="1" fill="rgb(0,0,0)" fill-opacity="0.502"/></g>
<polygon points="3280.83,1693.59 3314.41,1520.83 3487.17,1554.41 3453.59,1727.17" fill="rgb(0,7,50)" fill-opacity="0.502"/>
<polygon points="1953.56,2126.76 1813.25,2094.37 1838.44,1985.24 1978.75,2017.63" fill="rgb(214,255,255)" fill-opacity="0.502"/>
<polygon points="5660.57,2275.79 5957.26,2395.67 5795.43,2796.21 5498.74,2676.33" fill="rgb(115,144,255)" fill-opacity="0.502"/>
<circle cx="592.00" cy="3152.00" r="496.00" fill="rgb(0,0,0)" fill-opacity="0.502"/>
<polygon points="4256.00,2352.00 4384.00,2352.00 4384.00,2480.00 4256.00,2480.00" fill="rgb(135,172,255)" fill-opacity="0.502"/>
<circle cx="4064.00" cy="4544.00" r="608.00" fill="rgb(20,16,25)" fill-opacity="0.502"/>
<circle cx="6272.00" cy="1216.00" r="32.00" fill="rgb(141,139,108)" fill-opacity="0.502"/>
<circle cx="768.00" cy="240.00" r="368.00" fill="rgb(0,0,0)" fill-opacity="0.502"/>
<g transform="translate(6176.00 2608.00) rotate(166) scale(288.00 224.00)"><ellipse cx="0" cy="0" rx="1" ry="1" fill="rgb(0,4,20)" fill-opacity="0.502"/></g>
<circle cx="2480.00" cy="2368.00" r="192.00" fill="rgb(33,43,63)" fill-opacity="0.502"/>
<polygon points="1483.69,3862.55 2003.66,4552.57 1620.31,4841.45 1100.34,4151.43" fill="rgb(23,41,65)" fill-opacity="0.502"/>
<circle cx="5600.00" cy="1648.00" r="208.00" fill="rgb(8,30,48)" fill-opacity="0.502"/>
<g transform="translate(6912.00 3328.00) rotate(2) scale(176.00 1648.00)"><ellipse cx="0" cy="0" rx="1" ry="1" fill="rgb(11,18,28)" fill-opacity="0.502"/></g>
<circle cx="3968.00" cy="2688.00" r="176.00" fill="rgb(115,77,93)" fill-opacity="0.502"/>
<polygon points="6019.71,2432.15 5779.71,2847.85 5724.29,2815.85 5964.29,2400.15" fill="rgb(62,54,187)" fill-opacity="0.502"/>
<polygon points="5416.00,3480.73 5542.76,3498.54 5496.00,3831.27 5369.24,3813.46" fill="rgb(59,63,169)" fill-opacity="0.502"/>
<g transform="translate(5072.00 3328.00) rotate(85) scale(240.00 80.00)"><ellipse cx="0" cy="0" rx="1" ry="1" fill="rgb(83,118,255)" fill-opacity="0.502"/></g>
<circle cx="1248.00" cy="2688.00" r="160.00" fill="rgb(34,39,89)" fill-opacity="0.502"/>
<polygon points="4810.44,2495.42 4716.66,2716.34 4613.56,2672.58 4707.34,2451.66" fill="rgb(217,210,215)" fill-opacity="0.502"/>
<g transform="translate(4080.00 2560.00) rotate(45) scale(160.00 64.00)"><ellipse cx="0" cy="0" rx="1" ry="1" fill="rgb(28,5,43)" fill-opacity="0.502"/></g>
<g transform="translate(3696.00 96.00) rotate(328) scale(1440.00 992.00)"><ellipse cx="0" cy="0" rx="1" ry="1" fill="rgb(8,11,22)" fill-opacity="0.502"/></g>
<polygon points="4719.80,4175.24 5047.19,3740.78 5392.20,4000.76 5064.81,4435.22" fill="rgb(18,14,36)" fill-opacity="0.502"/>
<circle cx="5408.00" cy="2768.00" r="128.00" fill="rgb(52,65,157)" fill-opacity="0.502"/>
<g transform="translate(3168.00 3520.00) rotate(360) scale(624.00 144.00)"><ellipse cx="0" cy="0" rx="1" ry="1" fill="rgb(36,53,145)" fill-opacity="0.502"/></g>
<g transform="translate(2688.00 4320.00) rotate(159) scale(864.00 224.00)"><ellipse cx="0" cy="0" rx="1" ry="1" fill="rgb(17,33,52)" fill-opacity="0.502"/></g>
<circle cx="4848.00" cy="2768.00" r="128.00" fill="rgb(41,37,45)" fill-opacity="0.502"/>
<polygon points="2333.64,2100.49 2611.38,1859.06 2674.36,1931.51 2396.62,2172.94" fill="rgb(147,204,255)" fill-opacity="0.502"/>
<polygon points="2947.73,2038.05 2896.31,1976.77 3276.27,1657.95 3327.69,1719.23" fill="rgb(24,54,175)" fill-opacity="0.502"/>
<polygon points="5712.00,2976.00 5712.00,3136.00 5424.00,3136.00 5424.00,2976.00" fill="rgb(20,14,12)" fill-opacity="0.502"/>
<g transform="translate(3552.00 3744.00) rotate(360) scale(576.00 128.00)"><ellipse cx="0" cy="0" rx="1" ry="1" fill="rgb(27,30,88)" fill-opacity="0.502"/></g>
<circle cx="5024.00" cy="2960.00" r="112.00" fill="rgb(88,97,216)" fill-opacity="0.502"/>
<polygon points="1329.24,2977.83 1326.73,3121.80 1118.76,3118.17 1121.27,2974.20" fill="rgb(57,77,217)" fill-opacity="0.502"/>
<g transform="translate(4176.00 2080.00) rotate(142) scale(336.00 96.00)"><ellipse cx="0" cy="0" rx="1" ry="1" fill="rgb(23,28,34)" fill-opacity="0.502"/></g>
<polygon points="4153.35,2909.18 4150.56,3069.15 3558.65,3058.82 3561.44,2898.85" fill="rgb(97,70,142)" fill-opacity="0.502"/>
<polygon points="1102.58,2017.57 1411.11,1649.87 1521.42,1742.43 1212.89,2110.13" fill="rgb(22,31,101)" fill-opacity="0.502"/>
<g transform="translate(6464.00 4592.00) rotate(348) scale(656.00 288.00)"><ellipse cx="0" cy="0" rx="1" ry="1" fill="rgb(21,12,16)" fill-opacity="0.502"/></g>
<circle cx="1424.00" cy="2576.00" r="48.00" fill="rgb(99,121,255)" fill-opacity="0.502"/>
<polygon points="5283.45,3162.74 4846.94,3263.52 4796.55,3045.26 5233.06,2944.48" fill="rgb(33,51,164)" fill-opacity="0.502"/>
<circle cx="6544.00" cy="2640.00" r="480.00" fill="rgb(6,13,25)" fill-opacity="0.502"/>
<circle cx="1568.00" cy="304.00" r="480.00" fill="rgb(9,10,24)" fill-opacity="0.502"/>
<circle cx="4144.00" cy="1808.00" r="144.00" fill="rgb(7,5,12)" fill-opacity="0.502"/>
<polygon points="3209.94,3162.12 2036.16,2912.63 2086.06,2677.88 3259.84,2927.37" fill="rgb(52,42,112)" fill-opacity="0.502"/>
<polygon points="4377.19,2148.23 4494.33,1885.13 4742.81,1995.77 4625.67,2258.87" fill="rgb(53,73,76)" fill-opacity="0.502"/>
<circle cx="4288.00" cy="1200.00" r="432.00" fill="rgb(8,11,23)" fill-opacity="0.502"/>
<circle cx="2400.00" cy="1712.00" r="224.00" fill="rgb(9,13,41)" fill-opacity="0.502"/>
<g transform="translate(880.00 2256.00) rotate(58) scale(416.00 48.00)"><ellipse cx="0" cy="0" rx="1" ry="1" fill="rgb(0,0,0)" fill-opacity="0.502"/></g>
<g transform="translate(3792.00 2048.00) rotate(181) scale(144.00 112.00)"><ellipse cx="0" cy="0" rx="1" ry="1" fill="rgb(35,72,241)" fill-opacity="0.502"/></g>
<circle cx="2528.00" cy="4096.00" r="416.00" fill="rgb(21,30,57)" fill-opacity="0.502"/>
<polygon points="3613.68,2009.15 3459.74,2094.48 2994.32,1254.85 3148.26,1169.52" fill="rgb(3,14,60)" fill-opacity="0.502"/>
<polygon points="4598.77,1211.85 4743.21,1020.18 5433.23,1540.15 5288.79,1731.82" fill="rgb(10,15,27)" fill-opacity="0.502"/>
<g transform="translate(6144.00 2192.00) rotate(2) scale(800.00 16.00)"><ellipse cx="0" cy="0" rx="1" ry="1" fill="rgb(0,0,42)" fill-opacity="0.502"/></g>
<circle cx="5248.00" cy="2080.00" r="80.00" fill="rgb(141,190,255)" fill-opacity="0.502"/>
<circle cx="4736.00" cy="3648.00" r="64.00" fill="rgb(126,129,226)" fill-opacity="0.502"/>
<circle cx="4176.00" cy="3168.00" r="224.00" fill="rgb(55,72,187)" fill-opacity="0.502"/>
<circle cx="4720.00" cy="2496.00" r="80.00" fill="rgb(186,201,232)" fill-opacity="0.502"/>
<circle cx="2928.00" cy="3216.00" r="176.00" fill="rgb(54,82,193)" fill-opacity="0.502"/>
<circle cx="3584.00" cy="1616.00" r="144.00" fill="rgb(4,33,142)" fill-opacity="0.502"/>
<circle cx="4080.00" cy="2384.00" r="64.00" fill="rgb(34,52,160)" fill-opacity="0.502"/>
<g transform="translate(2336.00 3728.00) rotate(183) scale(528.00 96.00)"><ellipse cx="0" cy="0" rx="1" ry="1" fill="rgb(29,32,98)" fill-opacity="0.502"/></g>
<circle cx="4624.00" cy="4592.00" r="272.00" fill="rgb(34,18,25)" fill-opacity="0.502"/>
<circle cx="4896.00" cy="2608.00" r="80.00" fill="rgb(106,111,156)" fill-opacity="0.502"/>
<circle cx="5600.00" cy="2016.00" r="160.00" fill="rgb(98,142,255)" fill-opacity="0.502"/>
<circle cx="4688.00" cy="2176.00" r="64.00" fill="rgb(140,152,235)" fill-opacity="0.502"/>
<g transform="translate(2880.00 1184.00) rotate(9) scale(880.00 240.00)"><ellipse cx="0" cy="0" rx="1" ry="1" fill="rgb(8,13,35)" fill-opacity="0.502"/></g>
<polygon points="4367.66,2286.36 4643.88,2019.61 4688.34,2065.64 4412.12,2332.39" fill="rgb(36,48,28)" fill-opacity="0.502"/>
<polygon points="5264.55,3422.65 5233.35,3168.55 5487.45,3137.35 5518.65,3391.45" fill="rgb(22,43,174)" fill-opacity="0.502"/>
<g transform="translate(2336.00 3232.00) rotate(254) scale(144.00 336.00)"><ellipse cx="0" cy="0" rx="1" ry="1" fill="rgb(35,53,168)" fill-opacity="0.502"/></g>
<circle cx="3792.00" cy="3296.00" r="192.00" fill="rgb(44,66,185)" fill-opacity="0.502"/>
<circle cx="4368.00" cy="2592.00" r="144.00" fill="rgb(132,100,71)" fill-opacity="0.502"/>
<g transform="translate(1728.00 1648.00) rotate(104) scale(368.00 464.00)"><ellipse cx="0" cy="0" rx="1" ry="1" fill="rgb(14,17,36)" fill-opacity="0.502"/></g>
<g transform="translate(2976.00 2592.00) rotate(239) scale(368.00 112.00)"><ellipse cx="0" cy="0" rx="1" ry="1" fill="rgb(28,23,39)" fill-opacity="0.502"/></g>
<circle cx="4832.00" cy="2304.00" r="32.00" fill="rgb(46,27,49)" fill-opacity="0.502"/>
<circle cx="6368.00" cy="1744.00" r="416.00" fill="rgb(6,13,25)" fill-opacity="0.502"/>
<g transform="translate(5552.00 2240.00) rotate(271) scale(16.00 624.00)"><ellipse cx="0" cy="0" rx="1" ry="1" fill="rgb(17,34,106)" fill-opacity="0.502"/></g>
<g transform="translate(2688.00 1600.00) rotate(223) scale(160.00 416.00)"><ellipse cx="0" cy="0" rx="1" ry="1" fill="rgb(9,18,59)" fill-opacity="0.502"/></g>
<g transform="translate(512.00 2528.00) rotate(49) scale(464.00 672.00)"><ellipse cx="0" cy="0" rx="1" ry="1" fill="rgb(0,0,0)" fill-opacity="0.502"/></g>
<circle cx="3808.00" cy="3744.00" r="112.00" fill="rgb(32,28,52)" fill-opacity="0.502"/>
<g transform="translate(3024.00 2016.00) rotate(114) scale(112.00 400.00)"><ellipse cx="0" cy="0" rx="1" ry="1" fill="rgb(121,176,253)" fill-opacity="0.502"/></g>
<polygon points="3348.68,3633.10 3257.50,3820.05 3099.32,3742.90 3190.50,3555.95" fill="rgb(32,42,131)" fill-opacity="0.502"/>
<polygon points="1344.12,4091.03 1272.22,4126.10 1103.88,3780.97 1175.78,3745.90" fill="rgb(31,35,107)" fill-opacity="0.502"/>
<g transform="translate(4560.00 2240.00) rotate(170) scale(64.00 272.00)"><ellipse cx="0" cy="0" rx="1" ry="1" fill="rgb(60,63,57)" fill-opacity="0.502"/></g>
<polygon points="3090.80,1604.95 3352.38,1840.48 3213.20,1995.05 2951.62,1759.52" fill="rgb(9,30,146)" fill-opacity="0.502"/>
<polygon points="4087.44,1620.02 4426.59,1077.27 4616.56,1195.98 4277.41,1738.73" fill="rgb(8,11,22)" fill-opacity="0.502"/>
<circle cx="6128.00" cy="1680.00" r="384.00" fill="rgb(9,13,31)" fill-opacity="0.502"/>
<polygon points="6655.82,3685.84 6745.73,3908.37 6256.18,4106.16 6166.27,3883.63" fill="rgb(25,15,42)" fill-opacity="0.502"/>
<g transform="translate(80.00 752.00) rotate(289) scale(1280.00 1008.00)"><ellipse cx="0" cy="0" rx="1" ry="1" fill="rgb(0,0,0)" fill-opacity="0.502"/></g>
<polygon points="3856.84,1975.79 3488.64,1819.49 3551.16,1672.21 3919.36,1828.51" fill="rgb(14,54,194)" fill-opacity="0.502"/>
<g transform="translate(6576.00 3152.00) rotate(210) scale(144.00 48.00)"><ellipse cx="0" cy="0" rx="1" ry="1" fill="rgb(33,65,197)" fill-opacity="0.502"/></g>
<circle cx="912.00" cy="1504.00" r="224.00" fill="rgb(0,0,0)" fill-opacity="0.502"/>
<polygon points="1386.24,2590.84 1123.51,2520.44 1189.76,2273.16 1452.49,2343.56" fill="rgb(78,113,255)" fill-opacity="0.502"/>
<polygon points="2315.20,2741.43 2609.36,2988.26 2516.80,3098.57 2222.64,2851.74" fill="rgb(34,31,99)" fill-opacity="0.502"/>
<circle cx="3328.00" cy="4240.00" r="352.00" fill="rgb(16,21,42)" fill-opacity="0.502"/>
<polygon points="5103.97,3609.72 4820.55,3935.76 4736.03,3862.28 5019.45,3536.24" fill="rgb(51,44,115)" fill-opacity="0.502"/>
<circle cx="1440.00" cy="2096.00" r="112.00" fill="rgb(23,62,210)" fill-opacity="0.502"/>
<polygon points="3724.10,2909.44 3716.29,2797.72 3875.90,2786.56 3883.71,2898.28" fill="rgb(11,0,0)" fill-opacity="0.502"/>
<polygon points="4748.89,2542.83 5045.10,2611.22 5027.11,2689.17 4730.90,2620.78" fill="rgb(89,91,140)" fill-opacity="0.502"/>
<polygon points="5441.47,3893.15 5368.06,3788.30 5918.53,3402.85 5991.94,3507.70" fill="rgb(33,31,105)" fill-opacity="0.502"/>
<circle cx="3024.00" cy="2240.00" r="144.00" fill="rgb(130,155,207)" fill-opacity="0.502"/>
<circle cx="4608.00" cy="2976.00" r="80.00" fill="rgb(102,93,190)" fill-opacity="0.502"/>
<g transform="translate(4928.00 2464.00) rotate(78) scale(352.00 80.00)"><ellipse cx="0" cy="0" rx="1" ry="1" fill="rgb(67,66,116)" fill-opacity="0.502"/></g>
<polygon points="2800.43,2157.40 2761.65,2087.44 2943.57,1986.60 2982.35,2056.56" fill="rgb(51,90,157)" fill-opacity="0.502"/>
<circle cx="7616.00" cy="176.00" r="560.00" fill="rgb(0,0,0)" fill-opacity="0.502"/>
<polygon points="2034.26,2573.79 2014.17,2286.49 2189.74,2274.21 2209.83,2561.51" fill="rgb(18,24,22)" fill-opacity="0.502"/>
<circle cx="5136.00" cy="2080.00" r="48.00" fill="rgb(145,190,255)" fill-opacity="0.502"/>
<g transform="translate(6576.00 2832.00) rotate(2) scale(208.00 288.00)"><ellipse cx="0" cy="0" rx="1" ry="1" fill="rgb(6,12,26)" fill-opacity="0.502"/></g>
<g transform="translate(5328.00 1520.00) rotate(39) scale(96.00 336.00)"><ellipse cx="0" cy="0" rx="1" ry="1" fill="rgb(9,18,32)" fill-opacity="0.502"/></g>
<polygon points="1464.34,1755.36 1574.47,1912.63 1351.66,2068.64 1241.53,1911.37" fill="rgb(20,24,84)" fill-opacity="0.502"/>
<polygon points="5393.79,3351.72 5504.96,3338.07 5534.21,3576.28 5423.04,3589.93" fill="rgb(67,83,199)" fill-opacity="0.502"/>
<polygon points="5789.42,2703.79 4995.38,2606.30 5026.58,2352.21 5820.62,2449.70" fill="rgb(124,160,253)" fill-opacity="0.502"/>
<polygon points="2472.85,2145.22 2613.16,2112.83 2631.15,2190.78 2490.84,2223.17" fill="rgb(71,125,222)" fill-opacity="0.502"/>
<circle cx="688.00" cy="3296.00" r="416.00" fill="rgb(0,0,0)" fill-opacity="0.502"/>
<circle cx="1312.00" cy="3664.00" r="224.00" fill="rgb(38,47,136)" fill-opacity="0.502"/>
<polygon points="1911.50,3270.56 1644.47,3378.45 1608.50,3289.44 1875.53,3181.55" fill="rgb(48,63,173)" fill-opacity="0.502"/>
<polygon points="1828.18,2928.29 2130.51,2960.06 2123.82,3023.71 1821.49,2991.94" fill="rgb(75,97,231)" fill-opacity="0.502"/>
<circle cx="6128.00" cy="2320.00" r="64.00" fill="rgb(108,129,255)" fill-opacity="0.502"/>
<g transform="translate(688.00 2656.00) rotate(31) scale(448.00 336.00)"><ellipse cx="0" cy="0" rx="1" ry="1" fill="rgb(0,0,0)" fill-opacity="0.502"/></g>
<polygon points="4545.37,2996.23 4097.98,3019.68 4094.63,2955.77 4542.02,2932.32" fill="rgb(114,102,218)" fill-opacity="0.502"/>
<g transform="translate(1824.00 3104.00) rotate(82) scale(48.00 752.00)"><ellipse cx="0" cy="0" rx="1" ry="1" fill="rgb(27,19,100)" fill-opacity="0.502"/></g>
<polygon points="1514.60,2952.13 1481.45,2682.16 2021.40,2615.87 2054.55,2885.84" fill="rgb(3,13,27)" fill-opacity="0.502"/>
<polygon points="2796.63,2375.25 2645.77,2465.90 2563.37,2328.75 2714.23,2238.10" fill="rgb(84,93,87)" fill-opacity="0.502"/>
<polygon points="4435.95,3608.50 4745.04,3691.32 4716.05,3799.50 4406.96,3716.68" fill="rgb(40,34,82)" fill-opacity="0.502"/>
<polygon points="1970.53,2543.08 1989.24,2481.87 2509.47,2640.92 2490.76,2702.13" fill="rgb(67,74,83)" fill-opacity="0.502"/>
<circle cx="2720.00" cy="1984.00" r="96.00" fill="rgb(160,243,255)" fill-opacity="0.502"/>
<polygon points="5023.74,3955.07 5066.93,4142.14 4864.26,4188.93 4821.07,4001.86" fill="rgb(11,11,24)" fill-opacity="0.502"/>
<g transform="translate(2112.00 4416.00) rotate(231) scale(240.00 368.00)"><ellipse cx="0" cy="0" rx="1" ry="1" fill="rgb(20,40,59)" fill-opacity="0.502"/></g>
<g transform="translate(1600.00 3824.00) rotate(260) scale(48.00 528.00)"><ellipse cx="0" cy="0" rx="1" ry="1" fill="rgb(9,14,67)" fill-opacity="0.502"/></g>
<g transform="translate(4720.00 2352.00) rotate(288) scale(272.00 32.00)"><ellipse cx="0" cy="0" rx="1" ry="1" fill="rgb(180,192,221)" fill-opacity="0.502"/></g>
<circle cx="1168.00" cy="2208.00" r="80.00" fill="rgb(18,13,84)" fill-opacity="0.502"/>
<g transform="translate(1760.00 2480.00) rotate(329) scale(176.00 80.00)"><ellipse cx="0" cy="0" rx="1" ry="1" fill="rgb(75,121,255)" fill-opacity="0.502"/></g>
<polygon points="3003.34,2038.89 3053.36,1921.06 3524.66,2121.11 3474.64,2238.94" fill="rgb(115,150,255)" fill-opacity="0.502"/>
<g transform="translate(1776.00 1760.00) rotate(134) scale(176.00 320.00)"><ellipse cx="0" cy="0" rx="1" ry="1" fill="rgb(21,22,41)" fill-opacity="0.502"/></g>
<circle cx="1696.00" cy="2128.00" r="96.00" fill="rgb(171,225,252)" fill-opacity="0.502"/>
<polygon points="5669.26,1830.06 5206.21,2007.81 5194.74,1977.94 5657.79,1800.19" fill="rgb(3,8,90)" fill-opacity="0.502"/>
<g transform="translate(6128.00 2752.00) rotate(102) scale(352.00 240.00)"><ellipse cx="0" cy="0" rx="1" ry="1" fill="rgb(7,11,22)" fill-opacity="0.502"/></g>
<circle cx="6512.00" cy="2464.00" r="352.00" fill="rgb(6,12,22)" fill-opacity="0.502"/>
<polygon points="3450.28,2975.92 3117.72,2783.92 3237.72,2576.08 3570.28,2768.08" fill="rgb(65,38,80)" fill-opacity="0.502"/>
<circle cx="560.00" cy="4368.00" r="528.00" fill="rgb(0,0,0)" fill-opacity="0.502"/>
<polygon points="1132.06,2975.71 1207.04,2714.24 1283.94,2736.29 1208.96,2997.76" fill="rgb(27,21,65)" fill-opacity="0.502"/>
<polygon points="1906.26,3555.60 1981.23,3294.14 2365.74,3404.40 2290.77,3665.86" fill="rgb(21,37,138)" fill-opacity="0.502"/>
<circle cx="5728.00" cy="1744.00" r="160.00" fill="rgb(10,29,55)" fill-opacity="0.502"/>
<polygon points="5846.22,1448.01 5706.79,1662.71 5129.78,1287.99 5269.21,1073.29" fill="rgb(6,11,22)" fill-opacity="0.502"/>
<g transform="translate(6224.00 1904.00) rotate(56) scale(192.00 224.00)"><ellipse cx="0" cy="0" rx="1" ry="1" fill="rgb(6,13,28)" fill-opacity="0.502"/></g>
<polygon points="3513.14,2906.64 3510.91,2778.66 3814.86,2773.36 3817.09,2901.34" fill="rgb(23,6,38)" fill-opacity="0.502"/>
<circle cx="5088.00" cy="3424.00" r="80.00" fill="rgb(94,117,255)" fill-opacity="0.502"/>
<circle cx="2096.00" cy="2720.00" r="96.00" fill="rgb(58,74,95)" fill-opacity="0.502"/>
<circle cx="4752.00" cy="1184.00" r="368.00" fill="rgb(7,11,22)" fill-opacity="0.502"/>
<g transform="translate(1344.00 928.00) rotate(94) scale(544.00 240.00)"><ellipse cx="0" cy="0" rx="1" ry="1" fill="rgb(9,12,30)" fill-opacity="0.502"/></g>
<g transform="translate(4144.00 2016.00) rotate(272) scale(368.00 96.00)"><ellipse cx="0" cy="0" rx="1" ry="1" fill="rgb(2,5,32)" fill-opacity="0.502"/></g>
<polygon points="1540.75,2206.32 1701.86,2405.27 1627.25,2465.68 1466.14,2266.73" fill="rgb(120,168,255)" fill-opacity="0.502"/>
<circle cx="6912.00" cy="3344.00" r="176.00" fill="rgb(8,14,26)" fill-opacity="0.502"/>
<polygon points="2240.00,2928.00 3440.00,2928.00 3440.00,2960.00 2240.00,2960.00" fill="rgb(91,68,140)" fill-opacity="0.502"/>
<polygon points="3615.43,2141.97 3269.62,2016.10 3280.57,1986.03 3626.38,2111.90" fill="rgb(0,0,138)" fill-opacity="0.502"/>
<g transform="translate(6544.00 4592.00) rotate(342) scale(112.00 560.00)"><ellipse cx="0" cy="0" rx="1" ry="1" fill="rgb(5,9,20)" fill-opacity="0.502"/></g>
<polygon points="6720.06,3625.65 5959.22,3378.44 5983.94,3302.35 6744.78,3549.56" fill="rgb(7,16,36)" fill-opacity="0.502"/>
<polygon points="5794.24,4001.14 5908.12,4283.00 5581.76,4414.86 5467.88,4133.00" fill="rgb(26,15,46)" fill-opacity="0.502"/>
<polygon points="4521.87,2391.59 4670.63,2710.61 4598.13,2744.41 4449.37,2425.39" fill="rgb(122,109,80)" fill-opacity="0.502"/>
<g transform="translate(3264.00 2560.00) rotate(126) scale(128.00 176.00)"><ellipse cx="0" cy="0" rx="1" ry="1" fill="rgb(83,61,56)" fill-opacity="0.502"/></g>
<circle cx="4816.00" cy="3024.00" r="176.00" fill="rgb(73,71,177)" fill-opacity="0.502"/>
<polygon points="1846.61,1863.14 1160.28,1815.15 1209.39,1112.86 1895.72,1160.85" fill="rgb(5,10,35)" fill-opacity="0.502"/>
<polygon points="1642.84,3625.75 1128.37,3506.97 1157.16,3382.25 1671.63,3501.03" fill="rgb(34,46,155)" fill-opacity="0.502"/>
<g transform="translate(5744.00 2400.00) rotate(76) scale(64.00 384.00)"><ellipse cx="0" cy="0" rx="1" ry="1" fill="rgb(109,141,245)" fill-opacity="0.502"/></g>
<circle cx="2288.00" cy="2048.00" r="64.00" fill="rgb(119,147,179)" fill-opacity="0.502"/>
<polygon points="1425.50,3871.79 1438.06,4111.46 1118.50,4128.21 1105.94,3888.54" fill="rgb(26,27,60)" fill-opacity="0.502"/>
<circle cx="144.00" cy="3248.00" r="960.00" fill="rgb(0,0,0)" fill-opacity="0.502"/>
<circle cx="5008.00" cy="2784.00" r="80.00" fill="rgb(40,27,49)" fill-opacity="0.502"/>
<g transform="translate(4784.00 3392.00) rotate(15) scale(208.00 80.00)"><ellipse cx="0" cy="0" rx="1" ry="1" fill="rgb(30,42,140)" fill-opacity="0.502"/></g>
<circle cx="3920.00" cy="1568.00" r="96.00" fill="rgb(13,40,147)" fill-opacity="0.502"/>
<g transform="translate(3760.00 4560.00) rotate(21) scale(416.00 208.00)"><ellipse cx="0" cy="0" rx="1" ry="1" fill="rgb(12,15,27)" fill-opacity="0.502"/></g>
<g transform="translate(3152.00 528.00) rotate(46) scale(448.00 592.00)"><ellipse cx="0" cy="0" rx="1" ry="1" fill="rgb(8,11,24)" fill-opacity="0.502"/></g>
<g transform="translate(400.00 160.00) rotate(55) scale(944.00 544.00)"><ellipse cx="0" cy="0" rx="1" ry="1" fill="rgb(0,0,0)" fill-opacity="0.502"/></g>
<polygon points="4831.89,4443.01 5224.54,4519.34 5200.11,4644.99 4807.46,4568.66" fill="rgb(22,11,16)" fill-opacity="0.502"/>
<g transform="translate(7456.00 2896.00) rotate(87) scale(3024.00 336.00)"><ellipse cx="0" cy="0" rx="1" ry="1" fill="rgb(0,0,0)" fill-opacity="0.502"/></g>
<g transform="translate(5408.00 2064.00) rotate(180) scale(256.00 96.00)"><ellipse cx="0" cy="0" rx="1" ry="1" fill="rgb(114,155,255)" fill-opacity="0.502"/></g>
<polygon points="4098.44,4468.31 4770.03,4491.77 4765.56,4619.69 4093.97,4596.23" fill="rgb(38,25,30)" fill-opacity="0.502"/>
<g transform="translate(4752.00 1760.00) rotate(278) scale(224.00 464.00)"><ellipse cx="0" cy="0" rx="1" ry="1" fill="rgb(16,34,152)" fill-opacity="0.502"/></g>
<g transform="translate(6464.00 464.00) rotate(190) scale(640.00 736.00)"><ellipse cx="0" cy="0" rx="1" ry="1" fill="rgb(8,13,21)" fill-opacity="0.502"/></g>
<polygon points="6897.35,1660.49 6864.81,1455.05 7038.65,1427.51 7071.19,1632.95" fill="rgb(13,19,56)" fill-opacity="0.502"/>
<g transform="translate(5616.00 2704.00) rotate(177) scale(16.00 192.00)"><ellipse cx="0" cy="0" rx="1" ry="1" fill="rgb(118,152,255)" fill-opacity="0.502"/></g>
<polygon points="4374.57,2284.88 4248.92,2309.30 4105.43,1571.12 4231.08,1546.70" fill="rgb(11,21,28)" fill-opacity="0.502"/>
<circle cx="1936.00" cy="1488.00" r="192.00" fill="rgb(5,10,31)" fill-opacity="0.502"/>
<circle cx="4000.00" cy="2800.00" r="80.00" fill="rgb(144,104,133)" fill-opacity="0.502"/>
<polygon points="3028.23,2569.19 3138.87,2817.67 2875.77,2934.81 2765.13,2686.33" fill="rgb(31,23,42)" fill-opacity="0.502"/>
<circle cx="3776.00" cy="1760.00" r="272.00" fill="rgb(13,45,166)" fill-opacity="0.502"/>
<circle cx="4768.00" cy="2208.00" r="64.00" fill="rgb(118,139,235)" fill-opacity="0.502"/>
<circle cx="5936.00" cy="1680.00" r="240.00" fill="rgb(10,16,38)" fill-opacity="0.502"/>
<polygon points="5328.44,2866.65 5327.60,2818.66 5631.56,2813.35 5632.40,2861.34" fill="rgb(85,116,255)" fill-opacity="0.502"/>
<polygon points="4795.11,4225.41 5090.32,4033.70 5316.89,4382.59 5021.68,4574.30" fill="rgb(29,18,50)" fill-opacity="0.502"/>
<polygon points="2849.34,3576.80 2860.48,3656.02 2638.66,3687.20 2627.52,3607.98" fill="rgb(29,41,115)" fill-opacity="0.502"/>
<g transform="translate(7888.00 2016.00) rotate(247) scale(512.00 624.00)"><ellipse cx="0" cy="0" rx="1" ry="1" fill="rgb(0,0,0)" fill-opacity="0.502"/></g>
<polygon points="6970.27,1075.53 7036.07,1339.45 6197.73,1548.47 6131.93,1284.55" fill="rgb(8,13,20)" fill-opacity="0.502"/>
<circle cx="5328.00" cy="1808.00" r="96.00" fill="rgb(70,98,219)" fill-opacity="0.502"/>
<g transform="translate(1552.00 2944.00) rotate(355) scale(240.00 32.00)"><ellipse cx="0" cy="0" rx="1" ry="1" fill="rgb(26,33,125)" fill-opacity="0.502"/></g>
<g transform="translate(3008.00 1552.00) rotate(332) scale(288.00 112.00)"><ellipse cx="0" cy="0" rx="1" ry="1" fill="rgb(11,22,91)" fill-opacity="0.502"/></g>
<polygon points="6572.38,2392.82 6291.70,1474.77 6643.62,1367.18 6924.30,2285.23" fill="rgb(6,11,18)" fill-opacity="0.502"/>
<g transform="translate(3712.00 2288.00) rotate(304) scale(160.00 128.00)"><ellipse cx="0" cy="0" rx="1" ry="1" fill="rgb(44,13,5)" fill-opacity="0.502"/></g>
<polygon points="1670.15,4359.74 1331.88,4722.50 1097.85,4504.26 1436.12,4141.50" fill="rgb(18,40,67)" fill-opacity="0.502"/>
<circle cx="1904.00" cy="1856.00" r="160.00" fill="rgb(35,34,46)" fill-opacity="0.502"/>
<polygon points="4552.11,2824.82 4895.09,2904.00 4887.89,2935.18 4544.91,2856.00" fill="rgb(119,105,169)" fill-opacity="0.502"/>
<polygon points="1608.59,2166.42 1650.58,2118.12 1783.41,2233.58 1741.42,2281.88" fill="rgb(101,125,220)" fill-opacity="0.502"/>
<g transform="translate(5648.00 4592.00) rotate(282) scale(128.00 240.00)"><ellipse cx="0" cy="0" rx="1" ry="1" fill="rgb(32,12,24)" fill-opacity="0.502"/></g>
<polygon points="4496.00,3488.00 4896.00,3488.00 4896.00,3584.00 4496.00,3584.00" fill="rgb(41,44,94)" fill-opacity="0.502"/>
<circle cx="4560.00" cy="4032.00" r="256.00" fill="rgb(22,18,40)" fill-opacity="0.502"/>
<circle cx="3152.00" cy="2384.00" r="96.00" fill="rgb(125,100,64)" fill-opacity="0.502"/>
<g transform="translate(4464.00 4144.00) rotate(136) scale(160.00 368.00)"><ellipse cx="0" cy="0" rx="1" ry="1" fill="rgb(21,18,35)" fill-opacity="0.502"/></g>
<g transform="translate(5984.00 3040.00) rotate(346) scale(368.00 96.00)"><ellipse cx="0" cy="0" rx="1" ry="1" fill="rgb(11,13,20)" fill-opacity="0.502"/></g>
<g transform="translate(5696.00 2128.00) rotate(90) scale(32.00 480.00)"><ellipse cx="0" cy="0" rx="1" ry="1" fill="rgb(119,152,255)" fill-opacity="0.502"/></g>
<polygon points="6201.89,4555.04 6046.64,4516.33 6182.11,3972.96 6337.36,4011.67" fill="rgb(26,16,33)" fill-opacity="0.502"/>
<circle cx="5456.00" cy="1568.00" r="144.00" fill="rgb(19,35,43)" fill-opacity="0.502"/>
<polygon points="1716.40,2742.58 1092.80,2886.55 1067.60,2777.42 1691.20,2633.45" fill="rgb(11,17,37)" fill-opacity="0.502"/>
<polygon points="4624.85,1806.97 4467.79,1837.50 4431.15,1649.03 4588.21,1618.50" fill="rgb(20,47,196)" fill-opacity="0.502"/>
<polygon points="4711.61,2898.78 4697.21,2836.42 4728.39,2829.22 4742.79,2891.58" fill="rgb(164,154,215)" fill-opacity="0.502"/>
<polygon points="5253.24,2815.53 5264.37,2736.31 5834.76,2816.47 5823.63,2895.69" fill="rgb(53,56,111)" fill-opacity="0.502"/>
<circle cx="6256.00" cy="1056.00" r="48.00" fill="rgb(56,65,41)" fill-opacity="0.502"/>
<polygon points="6491.10,2990.57 6102.71,3437.36 5812.90,3185.43 6201.29,2738.64" fill="rgb(8,12,21)" fill-opacity="0.502"/>
<g transform="translate(6144.00 3760.00) rotate(153) scale(160.00 368.00)"><ellipse cx="0" cy="0" rx="1" ry="1" fill="rgb(9,14,29)" fill-opacity="0.502"/></g>
<polygon points="5029.65,3126.89 4989.96,3265.31 4682.35,3177.11 4722.04,3038.69" fill="rgb(33,59,184)" fill-opacity="0.502"/>
<g transform="translate(3952.00 3424.00) rotate(266) scale(64.00 864.00)"><ellipse cx="0" cy="0" rx="1" ry="1" fill="rgb(44,55,153)" fill-opacity="0.502"/></g>
<polygon points="4634.51,3054.44 4598.05,2948.54 4885.49,2849.56 4921.95,2955.46" fill="rgb(89,77,171)" fill-opacity="0.502"/>
<circle cx="2352.00" cy="2640.00" r="128.00" fill="rgb(44,48,66)" fill-opacity="0.502"/>
<polygon points="4318.16,1855.71 4257.29,1835.93 4385.84,1440.29 4446.71,1460.07" fill="rgb(11,21,79)" fill-opacity="0.502"/>
<polygon points="5874.16,3290.70 5893.61,3180.40 6397.84,3269.30 6378.39,3379.60" fill="rgb(8,11,25)" fill-opacity="0.502"/>
<polygon points="5874.49,3470.23 5604.51,3503.38 5565.51,3185.77 5835.49,3152.62" fill="rgb(44,56,167)" fill-opacity="0.502"/>
<polygon points="3992.00,2120.00 3992.00,1752.00 4088.00,1752.00 4088.00,2120.00" fill="rgb(9,12,102)" fill-opacity="0.502"/>
<g transform="translate(5488.00 4320.00) rotate(242) scale(112.00 288.00)"><ellipse cx="0" cy="0" rx="1" ry="1" fill="rgb(32,17,57)" fill-opacity="0.502"/></g>
<g transform="translate(4368.00 3600.00) rotate(114) scale(80.00 336.00)"><ellipse cx="0" cy="0" rx="1" ry="1" fill="rgb(45,46,100)" fill-opacity="0.502"/></g>
<circle cx="2096.00" cy="3952.00" r="240.00" fill="rgb(17,23,51)" fill-opacity="0.502"/>
<g transform="translate(2496.00 64.00) rotate(258) scale(368.00 624.00)"><ellipse cx="0" cy="0" rx="1" ry="1" fill="rgb(7,8,22)" fill-opacity="0.502"/></g>
<circle cx="640.00" cy="1360.00" r="464.00" fill="rgb(0,0,0)" fill-opacity="0.502"/>
<polygon points="3292.08,3075.27 3067.26,3324.97 2995.92,3260.73 3220.74,3011.03" fill="rgb(60,81,185)" fill-opacity="0.502"/>
<circle cx="2256.00" cy="2384.00" r="48.00" fill="rgb(109,122,132)" fill-opacity="0.502"/>
<polygon points="4490.31,1824.10 4517.10,2207.16 4277.69,2223.90 4250.90,1840.84" fill="rgb(39,65,51)" fill-opacity="0.502"/>
<circle cx="3936.00" cy="2208.00" r="96.00" fill="rgb(136,113,134)" fill-opacity="0.502"/>
<polygon points="4528.94,1412.26 4674.85,1510.68 4639.06,1563.74 4493.15,1465.32" fill="rgb(2,14,15)" fill-opacity="0.502"/>
<circle cx="3616.00" cy="2208.00" r="96.00" fill="rgb(110,56,35)" fill-opacity="0.502"/>
<g transform="translate(2976.00 4592.00) rotate(316) scale(256.00 240.00)"><ellipse cx="0" cy="0" rx="1" ry="1" fill="rgb(19,29,40)" fill-opacity="0.502"/></g>
<g transform="translate(2160.00 2192.00) rotate(282) scale(64.00 384.00)"><ellipse cx="0" cy="0" rx="1" ry="1" fill="rgb(34,43,70)" fill-opacity="0.502"/></g>
<polygon points="6808.00,3832.00 6808.00,3400.00 7096.00,3400.00 7096.00,3832.00" fill="rgb(8,14,24)" fill-opacity="0.502"/>
<g transform="translate(7936.00 1040.00) rotate(334) scale(688.00 1344.00)"><ellipse cx="0" cy="0" rx="1" ry="1" fill="rgb(0,0,0)" fill-opacity="0.502"/></g>
<g transform="translate(3872.00 1968.00) rotate(151) scale(96.00 208.00)"><ellipse cx="0" cy="0" rx="1" ry="1" fill="rgb(20,45,206)" fill-opacity="0.502"/></g>
<g transform="translate(4064.00 4048.00) rotate(223) scale(176.00 416.00)"><ellipse cx="0" cy="0" rx="1" ry="1" fill="rgb(19,20,39)" fill-opacity="0.502"/></g>
<polygon points="3584.34,1854.27 3545.64,1699.02 3871.66,1617.73 3910.36,1772.98" fill="rgb(18,60,168)" fill-opacity="0.502"/>
<circle cx="4320.00" cy="2768.00" r="144.00" fill="rgb(117,100,99)" fill-opacity="0.502"/>
<polygon points="1889.80,2306.79 1770.42,2226.27 1806.20,2173.21 1925.58,2253.73" fill="rgb(0,16,54)" fill-opacity="0.502"/>
<polygon points="4405.94,1734.30 4342.82,1863.73 4314.06,1849.70 4377.18,1720.27" fill="rgb(22,52,177)" fill-opacity="0.502"/>
<circle cx="1872.00" cy="2752.00" r="176.00" fill="rgb(6,14,30)" fill-opacity="0.502"/>
<g transform="translate(5264.00 3088.00) rotate(343) scale(64.00 288.00)"><ellipse cx="0" cy="0" rx="1" ry="1" fill="rgb(33,49,141)" fill-opacity="0.502"/></g>
<g transform="translate(6784.00 4544.00) rotate(116) scale(160.00 192.00)"><ellipse cx="0" cy="0" rx="1" ry="1" fill="rgb(32,16,19)" fill-opacity="0.502"/></g>
<circle cx="3632.00" cy="2416.00" r="112.00" fill="rgb(9,0,8)" fill-opacity="0.502"/>
<g transform="translate(2480.00 2496.00) rotate(231) scale(544.00 80.00)"><ellipse cx="0" cy="0" rx="1" ry="1" fill="rgb(18,21,47)" fill-opacity="0.502"/></g>
<circle cx="4080.00" cy="2736.00" r="96.00" fill="rgb(53,23,87)" fill-opacity="0.502"/>
<circle cx="1328.00" cy="4096.00" r="96.00" fill="rgb(38,48,58)" fill-opacity="0.502"/>
<polygon points="5828.88,3631.39 5718.65,3807.79 5515.12,3680.61 5625.35,3504.21" fill="rgb(28,26,92)" fill-opacity="0.502"/>
<g transform="translate(4224.00 3664.00) rotate(115) scale(160.00 144.00)"><ellipse cx="0" cy="0" rx="1" ry="1" fill="rgb(43,45,90)" fill-opacity="0.502"/></g>
<polygon points="5909.57,2106.34 5729.15,2172.01 5674.43,2021.66 5854.85,1955.99" fill="rgb(86,130,255)" fill-opacity="0.502"/>
<polygon points="1208.00,3032.00 1208.00,3128.00 1128.00,3128.00 1128.00,3032.00" fill="rgb(60,74,211)" fill-opacity="0.502"/>
<circle cx="3232.00" cy="3280.00" r="144.00" fill="rgb(50,75,205)" fill-opacity="0.502"/>
<g transform="translate(6624.00 3552.00) rotate(275) scale(48.00 288.00)"><ellipse cx="0" cy="0" rx="1" ry="1" fill="rgb(9,23,46)" fill-opacity="0.502"/></g>
<circle cx="1264.00" cy="2400.00" r="128.00" fill="rgb(76,109,244)" fill-opacity="0.502"/>
<circle cx="2720.00" cy="3264.00" r="160.00" fill="rgb(40,76,185)" fill-opacity="0.502"/>
<g transform="translate(4192.00 3200.00) rotate(359) scale(1200.00 112.00)"><ellipse cx="0" cy="0" rx="1" ry="1" fill="rgb(45,65,183)" fill-opacity="0.502"/></g>
<circle cx="3024.00" cy="2320.00" r="80.00" fill="rgb(163,151,129)" fill-opacity="0.502"/>
<circle cx="3056.00" cy="2496.00" r="128.00" fill="rgb(49,31,41)" fill-opacity="0.502"/>
<polygon points="3424.19,2919.58 3439.82,2471.86 3455.81,2472.42 3440.18,2920.14" fill="rgb(179,169,181)" fill-opacity="0.502"/>
<g transform="translate(4016.00 1792.00) rotate(180) scale(32.00 384.00)"><ellipse cx="0" cy="0" rx="1" ry="1" fill="rgb(12,18,103)" fill-opacity="0.502"/></g>
<polygon points="5464.62,2574.01 5522.62,2546.97 5671.38,2865.99 5613.38,2893.03" fill="rgb(87,126,235)" fill-opacity="0.502"/>
<polygon points="2072.00,3831.31 1895.26,3906.33 1864.00,3832.69 2040.74,3757.67" fill="rgb(8,18,65)" fill-opacity="0.502"/>
<g transform="translate(5920.00 3056.00) rotate(251) scale(288.00 128.00)"><ellipse cx="0" cy="0" rx="1" ry="1" fill="rgb(12,12,27)" fill-opacity="0.502"/></g>
<circle cx="1904.00" cy="2416.00" r="64.00" fill="rgb(43,73,201)" fill-opacity="0.502"/>
<polygon points="224.00,1824.00 224.00,800.00 1088.00,800.00 1088.00,1824.00" fill="rgb(0,0,0)" fill-opacity="0.502"/>
<polygon points="2332.65,2622.88 2613.49,2361.00 2755.35,2513.12 2474.51,2775.00" fill="rgb(39,41,70)" fill-opacity="0.502"/>
<polygon points="1389.39,4026.70 1991.47,3942.08 2002.61,4021.30 1400.53,4105.92" fill="rgb(38,44,60)" fill-opacity="0.502"/>
<g transform="translate(2048.00 3568.00) rotate(82) scale(144.00 400.00)"><ellipse cx="0" cy="0" rx="1" ry="1" fill="rgb(26,37,129)" fill-opacity="0.502"/></g>
<polygon points="4922.38,2817.66 5086.69,2754.59 5109.62,2814.34 4945.31,2877.41" fill="rgb(28,12,56)" fill-opacity="0.502"/>
<polygon points="3044.91,3489.88 3049.93,3585.74 2203.09,3630.12 2198.07,3534.26" fill="rgb(35,52,141)" fill-opacity="0.502"/>
<g transform="translate(1296.00 1920.00) rotate(52) scale(64.00 224.00)"><ellipse cx="0" cy="0" rx="1" ry="1" fill="rgb(25,32,87)" fill-opacity="0.502"/></g>
<polygon points="3462.07,2114.09 3448.68,2305.62 2937.93,2269.91 2951.32,2078.38" fill="rgb(113,163,255)" fill-opacity="0.502"/>
<circle cx="4240.00" cy="2832.00" r="80.00" fill="rgb(128,119,132)" fill-opacity="0.502"/>
<polygon points="4160.00,2928.00 4096.00,2928.00 4096.00,2528.00 4160.00,2528.00" fill="rgb(34,14,81)" fill-opacity="0.502"/>
<circle cx="3392.00" cy="2448.00" r="80.00" fill="rgb(0,18,41)" fill-opacity="0.502"/>
<g transform="translate(1808.00 2096.00) rotate(68) scale(16.00 256.00)"><ellipse cx="0" cy="0" rx="1" ry="1" fill="rgb(148,199,238)" fill-opacity="0.502"/></g>
<circle cx="3184.00" cy="2112.00" r="128.00" fill="rgb(133,190,246)" fill-opacity="0.502"/>
<g transform="translate(3968.00 1296.00) rotate(50) scale(224.00 176.00)"><ellipse cx="0" cy="0" rx="1" ry="1" fill="rgb(7,12,21)" fill-opacity="0.502"/></g>
<circle cx="4992.00" cy="1712.00" r="176.00" fill="rgb(11,21,107)" fill-opacity="0.502"/>
<circle cx="640.00" cy="3696.00" r="464.00" fill="rgb(0,0,0)" fill-opacity="0.502"/>
<circle cx="2400.00" cy="528.00" r="624.00" fill="rgb(7,12,25)" fill-opacity="0.502"/>
<circle cx="3264.00" cy="2272.00" r="64.00" fill="rgb(142,182,255)" fill-opacity="0.502"/>
<circle cx="3104.00" cy="4112.00" r="320.00" fill="rgb(19,26,55)" fill-opacity="0.502"/>
<circle cx="5232.00" cy="2480.00" r="160.00" fill="rgb(135,171,251)" fill-opacity="0.502"/>
<circle cx="3232.00" cy="2816.00" r="32.00" fill="rgb(0,0,24)" fill-opacity="0.502"/>
</g>
</svg>