<?xml version="1.0" standalone="no"?>
<svg xmlns="http://www.w3.org/2000/svg" width="8192" height="4608" viewBox="0 0 8192 4608" style="overflow:hidden">
<defs>
<clipPath id="c"><rect x="0" y="0" width="8192" height="4608"/></clipPath>
</defs>
<rect width="8192" height="4608" fill="rgb(34,62,96)"/>
<g clip-path="url(#c)">
<g transform="translate(528.00 1728.00) rotate(90) scale(8176.00 576.00)"><ellipse cx="0" cy="0" rx="1" ry="1" fill="rgb(0,0,0)" fill-opacity="0.502"/></g>
<circle cx="2976.00" cy="2400.00" r="1984.00" fill="rgb(110,167,255)" fill-opacity="0.502"/>
<circle cx="1920.00" cy="784.00" r="912.00" fill="rgb(133,212,255)" fill-opacity="0.502"/>
<circle cx="8176.00" cy="1744.00" r="2864.00" fill="rgb(0,0,0)" fill-opacity="0.502"/>
<circle cx="3888.00" cy="3344.00" r="1280.00" fill="rgb(80,145,255)" fill-opacity="0.502"/>
<circle cx="4704.00" cy="1936.00" r="656.00" fill="rgb(0,0,11)" fill-opacity="0.502"/>
<circle cx="1776.00" cy="1952.00" r="720.00" fill="rgb(171,236,255)" fill-opacity="0.502"/>
<circle cx="1184.00" cy="3504.00" r="464.00" fill="rgb(0,0,0)" fill-opacity="0.502"/>
<circle cx="5920.00" cy="4048.00" r="1104.00" fill="rgb(13,110,121)" fill-opacity="0.502"/>
<g transform="translate(2992.00 1008.00) rotate(0) scale(816.00 608.00)"><ellipse cx="0" cy="0" rx="1" ry="1" fill="rgb(0,0,68)" fill-opacity="0.502"/></g>
<g transform="translate(7936.00 2544.00) rotate(262) scale(8160.00 1120.00)"><ellipse cx="0" cy="0" rx="1" ry="1" fill="rgb(0,0,0)" fill-opacity="0.502"/></g>
<g transform="translate(4752.00 736.00) rotate(78) scale(1184.00 528.00)"><ellipse cx="0" cy="0" rx="1" ry="1" fill="rgb(0,2,0)" fill-opacity="0.502"/></g>
<g transform="translate(480.00 3136.00) rotate(357) scale(688.00 4592.00)"><ellipse cx="0" cy="0" rx="1" ry="1" fill="rgb(0,0,0)" fill-opacity="0.502"/></g>
<g transform="translate(4720.00 2816.00) rotate(269) scale(240.00 448.00)"><ellipse cx="0" cy="0" rx="1" ry="1" fill="rgb(211,255,255)" fill-opacity="0.502"/></g>
<g transform="translate(4656.00 3440.00) rotate(285) scale(256.00 336.00)"><ellipse cx="0" cy="0" rx="1" ry="1" fill="rgb(0,162,46)" fill-opacity="0.502"/></g>
<circle cx="3584.00" cy="176.00" r="544.00" fill="rgb(21,38,0)" fill-opacity="0.502"/>
<polygon points="2708.80,3165.00 2683.11,4636.77 2123.20,4627.00 2148.89,3155.23" fill="rgb(0,11,33)" fill-opacity="0.502"/>
<polygon points="1992.21,3880.97 2057.88,4061.39 1591.79,4231.03 1526.12,4050.61" fill="rgb(123,175,255)" fill-opacity="0.502"/>
<g transform="translate(1440.00 960.00) rotate(191) scale(288.00 976.00)"><ellipse cx="0" cy="0" rx="1" ry="1" fill="rgb(154,219,255)" fill-opacity="0.502"/></g>
<g transform="translate(1568.00 240.00) rotate(203) scale(448.00 560.00)"><ellipse cx="0" cy="0" rx="1" ry="1" fill="rgb(85,141,255)" fill-opacity="0.502"/></g>
<circle cx="5552.00" cy="3536.00" r="416.00" fill="rgb(40,174,151)" fill-opacity="0.502"/>
<g transform="translate(5856.00 3392.00) rotate(277) scale(112.00 1104.00)"><ellipse cx="0" cy="0" rx="1" ry="1" fill="rgb(105,125,255)" fill-opacity="0.502"/></g>
<g transform="translate(2464.00 2800.00) rotate(2) scale(224.00 624.00)"><ellipse cx="0" cy="0" rx="1" ry="1" fill="rgb(0,45,77)" fill-opacity="0.502"/></g>
<polygon points="1312.00,2384.00 1312.00,3136.00 1104.00,3136.00 1104.00,2384.00" fill="rgb(162,205,240)" fill-opacity="0.502"/>
<circle cx="3232.00" cy="976.00" r="432.00" fill="rgb(0,21,58)" fill-opacity="0.502"/>
<polygon points="5586.94,4650.76 4699.87,4327.89 4957.06,3621.24 5844.13,3944.11" fill="rgb(2,59,51)" fill-opacity="0.502"/>
<circle cx="3488.00" cy="3872.00" r="816.00" fill="rgb(73,115,246)" fill-opacity="0.502"/>
<g transform="translate(2416.00 1456.00) rotate(213) scale(320.00 672.00)"><ellipse cx="0" cy="0" rx="1" ry="1" fill="rgb(54,117,239)" fill-opacity="0.502"/></g>
<polygon points="5574.72,4050.95 5627.71,3445.27 6265.28,3501.05 6212.29,4106.73" fill="rgb(0,107,35)" fill-opacity="0.502"/>
<circle cx="4992.00" cy="0.00" r="1040.00" fill="rgb(11,24,6)" fill-opacity="0.502"/>
<circle cx="2208.00" cy="368.00" r="496.00" fill="rgb(64,126,255)" fill-opacity="0.502"/>
<g transform="translate(3584.00 1856.00) rotate(198) scale(464.00 384.00)"><ellipse cx="0" cy="0" rx="1" ry="1" fill="rgb(132,170,255)" fill-opacity="0.502"/></g>
<g transform="translate(1872.00 944.00) rotate(40) scale(240.00 592.00)"><ellipse cx="0" cy="0" rx="1" ry="1" fill="rgb(154,221,255)" fill-opacity="0.502"/></g>
<circle cx="2528.00" cy="4448.00" r="304.00" fill="rgb(0,0,16)" fill-opacity="0.502"/>
<polygon points="3141.67,1787.79 2808.85,1673.19 2970.33,1204.21 3303.15,1318.81" fill="rgb(0,0,28)" fill-opacity="0.502"/>
<g transform="translate(7712.00 2080.00) rotate(180) scale(656.00 4592.00)"><ellipse cx="0" cy="0" rx="1" ry="1" fill="rgb(0,0,0)" fill-opacity="0.502"/></g>
<g transform="translate(5056.00 3648.00) rotate(101) scale(192.00 736.00)"><ellipse cx="0" cy="0" rx="1" ry="1" fill="rgb(8,221,126)" fill-opacity="0.502"/></g>
<g transform="translate(5936.00 1456.00) rotate(241) scale(1008.00 384.00)"><ellipse cx="0" cy="0" rx="1" ry="1" fill="rgb(22,69,89)" fill-opacity="0.502"/></g>
<g transform="translate(4048.00 2752.00) rotate(353) scale(304.00 976.00)"><ellipse cx="0" cy="0" rx="1" ry="1" fill="rgb(97,146,255)" fill-opacity="0.502"/></g>
<circle cx="864.00" cy="944.00" r="256.00" fill="rgb(0,0,0)" fill-opacity="0.502"/>
<circle cx="1616.00" cy="896.00" r="528.00" fill="rgb(136,198,255)" fill-opacity="0.502"/>
<g transform="translate(4832.00 1632.00) rotate(351) scale(864.00 336.00)"><ellipse cx="0" cy="0" rx="1" ry="1" fill="rgb(7,47,93)" fill-opacity="0.502"/></g>
<circle cx="624.00" cy="480.00" r="496.00" fill="rgb(0,0,0)" fill-opacity="0.502"/>
<circle cx="5488.00" cy="2896.00" r="368.00" fill="rgb(6,57,118)" fill-opacity="0.502"/>
<g transform="translate(1696.00 336.00) rotate(127) scale(176.00 528.00)"><ellipse cx="0" cy="0" rx="1" ry="1" fill="rgb(51,102,237)" fill-opacity="0.502"/></g>
<circle cx="4112.00" cy="1136.00" r="224.00" fill="rgb(213,168,255)" fill-opacity="0.502"/>
<circle cx="352.00" cy="2512.00" r="752.00" fill="rgb(0,0,0)" fill-opacity="0.502"/>
<g transform="translate(960.00 3920.00) rotate(76) scale(8176.00 352.00)"><ellipse cx="0" cy="0" rx="1" ry="1" fill="rgb(0,0,0)" fill-opacity="0.502"/></g>
<circle cx="6608.00" cy="352.00" r="688.00" fill="rgb(0,0,0)" fill-opacity="0.502"/>
<circle cx="2416.00" cy="1344.00" r="144.00" fill="rgb(3,37,72)" fill-opacity="0.502"/>
<polygon points="4891.21,3188.85 4331.30,3179.07 4340.79,2635.15 4900.70,2644.93" fill="rgb(168,224,255)" fill-opacity="0.502"/>
<g transform="translate(3232.00 1904.00) rotate(213) scale(208.00 496.00)"><ellipse cx="0" cy="0" rx="1" ry="1" fill="rgb(89,147,255)" fill-opacity="0.502"/></g>
<g transform="translate(2368.00 3568.00) rotate(92) scale(576.00 128.00)"><ellipse cx="0" cy="0" rx="1" ry="1" fill="rgb(72,121,214)" fill-opacity="0.502"/></g>
<g transform="translate(1440.00 1648.00) rotate(254) scale(592.00 304.00)"><ellipse cx="0" cy="0" rx="1" ry="1" fill="rgb(152,212,255)" fill-opacity="0.502"/></g>
<g transform="translate(3264.00 2048.00) rotate(185) scale(320.00 400.00)"><ellipse cx="0" cy="0" rx="1" ry="1" fill="rgb(75,123,250)" fill-opacity="0.502"/></g>
<circle cx="352.00" cy="3856.00" r="1152.00" fill="rgb(0,0,0)" fill-opacity="0.502"/>
<circle cx="2128.00" cy="4272.00" r="192.00" fill="rgb(61,97,150)" fill-opacity="0.502"/>
<circle cx="752.00" cy="912.00" r="352.00" fill="rgb(0,0,0)" fill-opacity="0.502"/>
<circle cx="4480.00" cy="4560.00" r="416.00" fill="rgb(46,77,171)" fill-opacity="0.502"/>
<circle cx="6608.00" cy="4432.00" r="512.00" fill="rgb(21,39,106)" fill-opacity="0.502"/>
<circle cx="4912.00" cy="2384.00" r="256.00" fill="rgb(0,24,48)" fill-opacity="0.502"/>
<g transform="translate(3248.00 3456.00) rotate(360) scale(128.00 896.00)"><ellipse cx="0" cy="0" rx="1" ry="1" fill="rgb(124,170,255)" fill-opacity="0.502"/></g>
<circle cx="4528.00" cy="1904.00" r="432.00" fill="rgb(1,39,76)" fill-opacity="0.502"/>
<circle cx="2192.00" cy="2032.00" r="320.00" fill="rgb(127,187,255)" fill-opacity="0.502"/>
<circle cx="3024.00" cy="4000.00" r="416.00" fill="rgb(51,94,190)" fill-opacity="0.502"/>
<polygon points="6053.58,3592.71 6115.69,3360.89 6378.42,3431.29 6316.31,3663.11" fill="rgb(0,39,42)" fill-opacity="0.502"/>
<circle cx="624.00" cy="1872.00" r="496.00" fill="rgb(0,0,0)" fill-opacity="0.502"/>
<g transform="translate(1280.00 2464.00) rotate(88) scale(624.00 176.00)"><ellipse cx="0" cy="0" rx="1" ry="1" fill="rgb(134,175,218)" fill-opacity="0.502"/></g>
<polygon points="4933.18,3422.46 4344.42,3360.58 4362.82,3185.54 4951.58,3247.42" fill="rgb(0,0,34)" fill-opacity="0.502"/>
<polygon points="2497.46,1520.13 2582.10,1636.63 2478.54,1711.87 2393.90,1595.37" fill="rgb(0,13,58)" fill-opacity="0.502"/>
<polygon points="3999.50,2015.50 4273.05,2237.02 4192.50,2336.50 3918.95,2114.98" fill="rgb(157,200,253)" fill-opacity="0.502"/>
<circle cx="5472.00" cy="2320.00" r="512.00" fill="rgb(3,45,70)" fill-opacity="0.502"/>
<circle cx="1888.00" cy="2736.00" r="384.00" fill="rgb(135,178,232)" fill-opacity="0.502"/>
<circle cx="5504.00" cy="640.00" r="544.00" fill="rgb(28,52,36)" fill-opacity="0.502"/>
<circle cx="2576.00" cy="208.00" r="176.00" fill="rgb(0,38,174)" fill-opacity="0.502"/>
<polygon points="6928.99,4141.83 6844.46,4215.30 6687.01,4034.17 6771.54,3960.70" fill="rgb(94,128,252)" fill-opacity="0.502"/>
<g transform="translate(3472.00 144.00) rotate(11) scale(512.00 192.00)"><ellipse cx="0" cy="0" rx="1" ry="1" fill="rgb(69,98,52)" fill-opacity="0.502"/></g>
<polygon points="3820.93,4075.29 3976.33,4157.91 3811.07,4468.71 3655.67,4386.09" fill="rgb(129,179,255)" fill-opacity="0.502"/>
<circle cx="1360.00" cy="3296.00" r="272.00" fill="rgb(17,28,23)" fill-opacity="0.502"/>
<polygon points="2991.36,-186.46 3557.78,685.75 3168.64,938.46 2602.22,66.25" fill="rgb(0,34,67)" fill-opacity="0.502"/>
<polygon points="4663.17,3740.60 4721.23,3973.47 4472.83,4035.40 4414.77,3802.53" fill="rgb(169,208,255)" fill-opacity="0.502"/>
<g transform="translate(2528.00 2624.00) rotate(107) scale(368.00 176.00)"><ellipse cx="0" cy="0" rx="1" ry="1" fill="rgb(0,56,74)" fill-opacity="0.502"/></g>
<polygon points="2822.03,773.78 2356.29,657.66 2425.97,378.22 2891.71,494.34" fill="rgb(99,172,255)" fill-opacity="0.502"/>
<circle cx="5872.00" cy="3360.00" r="96.00" fill="rgb(149,183,255)" fill-opacity="0.502"/>
<circle cx="6752.00" cy="2496.00" r="336.00" fill="rgb(0,32,79)" fill-opacity="0.502"/>
<g transform="translate(1568.00 4512.00) rotate(57) scale(192.00 336.00)"><ellipse cx="0" cy="0" rx="1" ry="1" fill="rgb(0,7,48)" fill-opacity="0.502"/></g>
<g transform="translate(6400.00 3936.00) rotate(349) scale(448.00 192.00)"><ellipse cx="0" cy="0" rx="1" ry="1" fill="rgb(0,52,16)" fill-opacity="0.502"/></g>
<g transform="translate(6432.00 1696.00) rotate(215) scale(544.00 336.00)"><ellipse cx="0" cy="0" rx="1" ry="1" fill="rgb(10,53,100)" fill-opacity="0.502"/></g>
<circle cx="6288.00" cy="2704.00" r="384.00" fill="rgb(5,43,32)" fill-opacity="0.502"/>
<polygon points="4146.32,3995.69 4317.50,4207.07 4093.68,4388.31 3922.50,4176.93" fill="rgb(109,154,255)" fill-opacity="0.502"/>
<circle cx="2912.00" cy="3104.00" r="192.00" fill="rgb(7,50,153)" fill-opacity="0.502"/>
<polygon points="2097.86,2807.40 2177.24,2530.55 2254.14,2552.60 2174.76,2829.45" fill="rgb(189,250,255)" fill-opacity="0.502"/>
<g transform="translate(5504.00 3856.00) rotate(54) scale(176.00 208.00)"><ellipse cx="0" cy="0" rx="1" ry="1" fill="rgb(0,104,31)" fill-opacity="0.502"/></g>
<polygon points="4231.92,627.88 4293.80,1216.64 3880.08,1260.12 3818.20,671.36" fill="rgb(133,136,239)" fill-opacity="0.502"/>
<circle cx="1376.00" cy="448.00" r="288.00" fill="rgb(120,174,255)" fill-opacity="0.502"/>
<g transform="translate(3584.00 2528.00) rotate(1) scale(16.00 432.00)"><ellipse cx="0" cy="0" rx="1" ry="1" fill="rgb(0,0,50)" fill-opacity="0.502"/></g>
<circle cx="1792.00" cy="3168.00" r="160.00" fill="rgb(138,184,253)" fill-opacity="0.502"/>
<polygon points="4026.01,716.17 3960.21,980.09 3509.99,867.83 3575.79,603.91" fill="rgb(44,86,191)" fill-opacity="0.502"/>
<g transform="translate(2544.00 3600.00) rotate(181) scale(64.00 688.00)"><ellipse cx="0" cy="0" rx="1" ry="1" fill="rgb(0,0,11)" fill-opacity="0.502"/></g>
<circle cx="2960.00" cy="3680.00" r="160.00" fill="rgb(3,55,145)" fill-opacity="0.502"/>
<circle cx="4624.00" cy="3664.00" r="144.00" fill="rgb(68,222,254)" fill-opacity="0.502"/>
<polygon points="5505.74,2947.23 5455.57,2469.86 5694.26,2444.77 5744.43,2922.14" fill="rgb(33,90,138)" fill-opacity="0.502"/>
<polygon points="5085.58,3800.98 5057.69,4119.76 4866.42,4103.02 4894.31,3784.24" fill="rgb(0,0,17)" fill-opacity="0.502"/>
<circle cx="8176.00" cy="1920.00" r="1280.00" fill="rgb(0,0,0)" fill-opacity="0.502"/>
<g transform="translate(5248.00 3136.00) rotate(175) scale(480.00 64.00)"><ellipse cx="0" cy="0" rx="1" ry="1" fill="rgb(0,38,88)" fill-opacity="0.502"/></g>
<circle cx="2080.00" cy="3088.00" r="256.00" fill="rgb(83,139,146)" fill-opacity="0.502"/>
<g transform="translate(4208.00 480.00) rotate(89) scale(176.00 928.00)"><ellipse cx="0" cy="0" rx="1" ry="1" fill="rgb(0,0,20)" fill-opacity="0.502"/></g>
<g transform="translate(880.00 2256.00) rotate(124) scale(288.00 192.00)"><ellipse cx="0" cy="0" rx="1" ry="1" fill="rgb(0,0,0)" fill-opacity="0.502"/></g>
<g transform="translate(3920.00 1472.00) rotate(356) scale(416.00 144.00)"><ellipse cx="0" cy="0" rx="1" ry="1" fill="rgb(142,90,183)" fill-opacity="0.502"/></g>
<polygon points="4336.48,3972.54 4742.30,4197.49 4703.52,4267.46 4297.70,4042.51" fill="rgb(0,14,68)" fill-opacity="0.502"/>
<circle cx="2608.00" cy="1616.00" r="240.00" fill="rgb(59,118,218)" fill-opacity="0.502"/>
<circle cx="5408.00" cy="4592.00" r="544.00" fill="rgb(26,63,107)" fill-opacity="0.502"/>
<circle cx="7856.00" cy="3920.00" r="800.00" fill="rgb(0,0,0)" fill-opacity="0.502"/>
<circle cx="5600.00" cy="1936.00" r="416.00" fill="rgb(3,18,42)" fill-opacity="0.502"/>
<circle cx="1600.00" cy="1872.00" r="336.00" fill="rgb(147,208,255)" fill-opacity="0.502"/>
<polygon points="2877.49,2712.52 2449.33,1907.27 2802.51,1719.48 3230.67,2524.73" fill="rgb(39,85,209)" fill-opacity="0.502"/>
<polygon points="4497.03,1623.78 4269.27,1060.05 4654.97,904.22 4882.73,1467.95" fill="rgb(5,46,68)" fill-opacity="0.502"/>
<polygon points="3035.18,4721.11 2786.96,4273.30 3108.82,4094.89 3357.04,4542.70" fill="rgb(29,72,153)" fill-opacity="0.502"/>
<g transform="translate(3536.00 3952.00) rotate(308) scale(432.00 448.00)"><ellipse cx="0" cy="0" rx="1" ry="1" fill="rgb(85,131,249)" fill-opacity="0.502"/></g>
<polygon points="4688.00,2624.00 5104.00,2624.00 5104.00,2944.00 4688.00,2944.00" fill="rgb(135,194,255)" fill-opacity="0.502"/>
<g transform="translate(5312.00 2240.00) rotate(184) scale(288.00 576.00)"><ellipse cx="0" cy="0" rx="1" ry="1" fill="rgb(7,39,62)" fill-opacity="0.502"/></g>
<circle cx="6096.00" cy="3616.00" r="176.00" fill="rgb(19,127,134)" fill-opacity="0.502"/>
<polygon points="3788.25,2015.37 3493.04,2207.08 3379.75,2032.63 3674.96,1840.92" fill="rgb(113,169,255)" fill-opacity="0.502"/>
<g transform="translate(1520.00 3408.00) rotate(99) scale(720.00 48.00)"><ellipse cx="0" cy="0" rx="1" ry="1" fill="rgb(0,18,37)" fill-opacity="0.502"/></g>
<circle cx="3936.00" cy="3168.00" r="400.00" fill="rgb(61,112,231)" fill-opacity="0.502"/>
<g transform="translate(4288.00 3088.00) rotate(331) scale(160.00 176.00)"><ellipse cx="0" cy="0" rx="1" ry="1" fill="rgb(133,188,249)" fill-opacity="0.502"/></g>
<g transform="translate(7936.00 1264.00) rotate(360) scale(864.00 4592.00)"><ellipse cx="0" cy="0" rx="1" ry="1" fill="rgb(0,0,0)" fill-opacity="0.502"/></g>
<circle cx="2688.00" cy="3280.00" r="128.00" fill="rgb(45,79,130)" fill-opacity="0.502"/>
<circle cx="496.00" cy="400.00" r="608.00" fill="rgb(0,0,0)" fill-opacity="0.502"/>
<circle cx="1664.00" cy="144.00" r="336.00" fill="rgb(64,117,239)" fill-opacity="0.502"/>
<circle cx="3712.00" cy="1008.00" r="224.00" fill="rgb(19,55,143)" fill-opacity="0.502"/>
<polygon points="5772.10,2986.95 7067.95,3192.20 7027.90,3445.05 5732.05,3239.80" fill="rgb(15,25,103)" fill-opacity="0.502"/>
<polygon points="2800.00,1600.00 2704.00,1600.00 2704.00,400.00 2800.00,400.00" fill="rgb(70,138,255)" fill-opacity="0.502"/>
<polygon points="1001.70,1851.74 -50.28,1759.70 54.30,564.26 1106.28,656.30" fill="rgb(0,0,0)" fill-opacity="0.502"/>
<circle cx="1632.00" cy="1296.00" r="464.00" fill="rgb(141,208,253)" fill-opacity="0.502"/>
<g transform="translate(3984.00 2608.00) rotate(321) scale(192.00 128.00)"><ellipse cx="0" cy="0" rx="1" ry="1" fill="rgb(129,185,255)" fill-opacity="0.502"/></g>
<circle cx="1456.00" cy="2432.00" r="288.00" fill="rgb(114,154,206)" fill-opacity="0.502"/>
<circle cx="3520.00" cy="1616.00" r="128.00" fill="rgb(196,255,254)" fill-opacity="0.502"/>
<polygon points="4916.92,3911.81 5135.60,4122.98 4891.08,4376.19 4672.40,4165.02" fill="rgb(20,16,82)" fill-opacity="0.502"/>
<polygon points="2030.99,3725.24 1967.15,3729.71 1937.01,3298.76 2000.85,3294.29" fill="rgb(17,58,51)" fill-opacity="0.502"/>
<polygon points="4018.12,1139.53 4234.49,1081.55 4333.88,1452.47 4117.51,1510.45" fill="rgb(172,155,239)" fill-opacity="0.502"/>
<polygon points="7033.37,4577.97 7103.93,4331.88 7334.63,4398.03 7264.07,4644.12" fill="rgb(0,0,0)" fill-opacity="0.502"/>
<g transform="translate(4032.00 800.00) rotate(32) scale(240.00 144.00)"><ellipse cx="0" cy="0" rx="1" ry="1" fill="rgb(126,143,243)" fill-opacity="0.502"/></g>
<polygon points="3273.96,2223.47 2968.43,1895.82 3062.04,1808.53 3367.57,2136.18" fill="rgb(127,169,255)" fill-opacity="0.502"/>
<g transform="translate(160.00 3712.00) rotate(95) scale(2400.00 928.00)"><ellipse cx="0" cy="0" rx="1" ry="1" fill="rgb(0,0,0)" fill-opacity="0.502"/></g>
<polygon points="4319.91,4092.64 4352.28,3629.77 4432.09,3635.36 4399.72,4098.23" fill="rgb(0,20,6)" fill-opacity="0.502"/>
<polygon points="6679.92,1365.63 5728.34,838.16 5992.08,362.37 6943.66,889.84" fill="rgb(9,28,31)" fill-opacity="0.502"/>
<g transform="translate(3584.00 1648.00) rotate(118) scale(80.00 320.00)"><ellipse cx="0" cy="0" rx="1" ry="1" fill="rgb(184,244,255)" fill-opacity="0.502"/></g>
<polygon points="6958.53,4151.67 6674.91,4101.66 6705.47,3928.33 6989.09,3978.34" fill="rgb(73,104,198)" fill-opacity="0.502"/>
<g transform="translate(3824.00 96.00) rotate(18) scale(192.00 336.00)"><ellipse cx="0" cy="0" rx="1" ry="1" fill="rgb(72,92,37)" fill-opacity="0.502"/></g>
<circle cx="1344.00" cy="3760.00" r="288.00" fill="rgb(12,19,37)" fill-opacity="0.502"/>
<circle cx="2384.00" cy="0.00" r="288.00" fill="rgb(27,85,228)" fill-opacity="0.502"/>
<g transform="translate(3184.00 1200.00) rotate(90) scale(320.00 368.00)"><ellipse cx="0" cy="0" rx="1" ry="1" fill="rgb(0,32,76)" fill-opacity="0.502"/></g>
<polygon points="3400.38,1143.86 3652.30,1433.67 3543.62,1528.14 3291.70,1238.33" fill="rgb(4,15,54)" fill-opacity="0.502"/>
<circle cx="4192.00" cy="4592.00" r="368.00" fill="rgb(63,99,198)" fill-opacity="0.502"/>
<polygon points="4589.02,2761.94 4441.94,2909.02 4226.98,2694.06 4374.06,2546.98" fill="rgb(161,213,255)" fill-opacity="0.502"/>
<g transform="translate(1392.00 864.00) rotate(73) scale(448.00 272.00)"><ellipse cx="0" cy="0" rx="1" ry="1" fill="rgb(131,189,253)" fill-opacity="0.502"/></g>
<circle cx="3200.00" cy="3984.00" r="160.00" fill="rgb(129,179,255)" fill-opacity="0.502"/>
<circle cx="1136.00" cy="160.00" r="48.00" fill="rgb(98,167,255)" fill-opacity="0.502"/>
<polygon points="1446.25,3139.95 1635.33,3173.29 1529.75,3772.05 1340.67,3738.71" fill="rgb(6,21,37)" fill-opacity="0.502"/>
<circle cx="4064.00" cy="2864.00" r="176.00" fill="rgb(53,104,231)" fill-opacity="0.502"/>
<polygon points="4006.76,1831.40 3817.23,1515.97 4009.24,1400.60 4198.77,1716.03" fill="rgb(46,42,121)" fill-opacity="0.502"/>
<g transform="translate(3280.00 2608.00) rotate(305) scale(352.00 160.00)"><ellipse cx="0" cy="0" rx="1" ry="1" fill="rgb(106,155,255)" fill-opacity="0.502"/></g>
<g transform="translate(3040.00 1440.00) rotate(113) scale(400.00 192.00)"><ellipse cx="0" cy="0" rx="1" ry="1" fill="rgb(0,25,73)" fill-opacity="0.502"/></g>
<polygon points="2197.04,2866.94 2169.26,3024.51 2058.96,3005.06 2086.74,2847.49" fill="rgb(188,235,255)" fill-opacity="0.502"/>
<circle cx="2160.00" cy="384.00" r="112.00" fill="rgb(0,52,165)" fill-opacity="0.502"/>
<g transform="translate(3584.00 1248.00) rotate(24) scale(272.00 80.00)"><ellipse cx="0" cy="0" rx="1" ry="1" fill="rgb(24,39,95)" fill-opacity="0.502"/></g>
<g transform="translate(5152.00 1456.00) rotate(68) scale(144.00 1056.00)"><ellipse cx="0" cy="0" rx="1" ry="1" fill="rgb(24,58,88)" fill-opacity="0.502"/></g>
<g transform="translate(7312.00 4592.00) rotate(169) scale(208.00 512.00)"><ellipse cx="0" cy="0" rx="1" ry="1" fill="rgb(0,0,0)" fill-opacity="0.502"/></g>
<circle cx="1504.00" cy="4224.00" r="144.00" fill="rgb(54,92,214)" fill-opacity="0.502"/>
<circle cx="3392.00" cy="192.00" r="80.00" fill="rgb(193,217,158)" fill-opacity="0.502"/>
<polygon points="3186.24,612.39 2906.36,767.53 2797.76,571.61 3077.64,416.47" fill="rgb(0,8,64)" fill-opacity="0.502"/>
<polygon points="2324.85,1495.91 2143.25,1852.31 1915.15,1736.09 2096.75,1379.69" fill="rgb(62,119,236)" fill-opacity="0.502"/>
<polygon points="2659.20,1145.79 2588.71,1232.83 2476.80,1142.21 2547.29,1055.17" fill="rgb(163,222,255)" fill-opacity="0.502"/>
<g transform="translate(3440.00 3120.00) rotate(158) scale(176.00 464.00)"><ellipse cx="0" cy="0" rx="1" ry="1" fill="rgb(100,144,255)" fill-opacity="0.502"/></g>
<polygon points="4278.61,3639.34 4301.13,3497.11 4601.39,3544.66 4578.87,3686.89" fill="rgb(72,253,248)" fill-opacity="0.502"/>
<g transform="translate(5008.00 816.00) rotate(127) scale(160.00 416.00)"><ellipse cx="0" cy="0" rx="1" ry="1" fill="rgb(2,9,17)" fill-opacity="0.502"/></g>
<polygon points="4197.90,1678.42 4061.13,1567.66 4202.10,1393.58 4338.87,1504.34" fill="rgb(76,93,196)" fill-opacity="0.502"/>
<circle cx="1680.00" cy="48.00" r="112.00" fill="rgb(139,202,255)" fill-opacity="0.502"/>
<polygon points="6925.11,3451.36 7140.43,3513.10 6994.89,4020.64 6779.57,3958.90" fill="rgb(4,56,66)" fill-opacity="0.502"/>
<polygon points="1697.97,4179.07 1546.69,4126.98 1630.03,3884.93 1781.31,3937.02" fill="rgb(93,143,255)" fill-opacity="0.502"/>
<polygon points="5195.50,3325.54 5379.65,3503.37 5268.50,3618.46 5084.35,3440.63" fill="rgb(0,110,41)" fill-opacity="0.502"/>
<polygon points="2288.00,1024.00 2288.00,688.00 2688.00,688.00 2688.00,1024.00" fill="rgb(13,65,154)" fill-opacity="0.502"/>
<g transform="translate(5984.00 2672.00) rotate(111) scale(272.00 144.00)"><ellipse cx="0" cy="0" rx="1" ry="1" fill="rgb(0,16,25)" fill-opacity="0.502"/></g>
<polygon points="1391.28,1246.89 1344.39,2141.67 1104.72,2129.11 1151.61,1234.33" fill="rgb(148,207,255)" fill-opacity="0.502"/>
<circle cx="6128.00" cy="1616.00" r="224.00" fill="rgb(29,67,111)" fill-opacity="0.502"/>
<polygon points="2297.61,4743.52 2088.46,4421.48 2182.39,4360.48 2391.54,4682.52" fill="rgb(60,85,115)" fill-opacity="0.502"/>
<polygon points="1887.57,423.70 2046.96,409.76 2080.43,792.30 1921.04,806.24" fill="rgb(83,143,213)" fill-opacity="0.502"/>
<polygon points="2842.09,284.50 3177.27,261.06 3221.91,899.50 2886.73,922.94" fill="rgb(0,31,80)" fill-opacity="0.502"/>
<polygon points="3713.57,3925.45 3829.52,3492.72 4030.43,3546.55 3914.48,3979.28" fill="rgb(118,168,255)" fill-opacity="0.502"/>
<circle cx="2544.00" cy="4128.00" r="128.00" fill="rgb(0,3,24)" fill-opacity="0.502"/>
<g transform="translate(3456.00 32.00) rotate(77) scale(64.00 256.00)"><ellipse cx="0" cy="0" rx="1" ry="1" fill="rgb(0,0,24)" fill-opacity="0.502"/></g>
<g transform="translate(2112.00 3664.00) rotate(158) scale(224.00 64.00)"><ellipse cx="0" cy="0" rx="1" ry="1" fill="rgb(48,76,51)" fill-opacity="0.502"/></g>
<circle cx="2768.00" cy="224.00" r="176.00" fill="rgb(0,42,113)" fill-opacity="0.502"/>
<circle cx="5440.00" cy="272.00" r="432.00" fill="rgb(31,55,43)" fill-opacity="0.502"/>
<circle cx="2656.00" cy="640.00" r="80.00" fill="rgb(4,53,168)" fill-opacity="0.502"/>
<polygon points="3842.68,1929.12 3279.65,1746.18 3309.32,1654.88 3872.35,1837.82" fill="rgb(9,58,203)" fill-opacity="0.502"/>
<g transform="translate(2032.00 2288.00) rotate(163) scale(240.00 384.00)"><ellipse cx="0" cy="0" rx="1" ry="1" fill="rgb(127,177,252)" fill-opacity="0.502"/></g>
<g transform="translate(1728.00 624.00) rotate(15) scale(240.00 112.00)"><ellipse cx="0" cy="0" rx="1" ry="1" fill="rgb(135,202,253)" fill-opacity="0.502"/></g>
<circle cx="1968.00" cy="1216.00" r="224.00" fill="rgb(151,220,255)" fill-opacity="0.502"/>
<g transform="translate(2832.00 4128.00) rotate(324) scale(224.00 80.00)"><ellipse cx="0" cy="0" rx="1" ry="1" fill="rgb(77,120,245)" fill-opacity="0.502"/></g>
<polygon points="6508.47,4647.12 5895.94,4528.06 5987.53,4056.88 6600.06,4175.94" fill="rgb(25,66,120)" fill-opacity="0.502"/>
<polygon points="5538.80,3561.55 5690.93,3419.70 6029.20,3782.45 5877.07,3924.30" fill="rgb(5,130,82)" fill-opacity="0.502"/>
<g transform="translate(2912.00 2192.00) rotate(264) scale(112.00 192.00)"><ellipse cx="0" cy="0" rx="1" ry="1" fill="rgb(93,141,253)" fill-opacity="0.502"/></g>
<circle cx="4912.00" cy="3376.00" r="80.00" fill="rgb(0,25,6)" fill-opacity="0.502"/>
<circle cx="6752.00" cy="2864.00" r="320.00" fill="rgb(0,13,50)" fill-opacity="0.502"/>
<circle cx="5024.00" cy="1040.00" r="160.00" fill="rgb(43,77,33)" fill-opacity="0.502"/>
<g transform="translate(4464.00 2176.00) rotate(54) scale(512.00 208.00)"><ellipse cx="0" cy="0" rx="1" ry="1" fill="rgb(5,40,86)" fill-opacity="0.502"/></g>
<polygon points="4004.22,3311.63 4176.37,3348.22 4139.78,3520.37 3967.63,3483.78" fill="rgb(9,57,180)" fill-opacity="0.502"/>
<g transform="translate(3568.00 4064.00) rotate(14) scale(160.00 192.00)"><ellipse cx="0" cy="0" rx="1" ry="1" fill="rgb(37,82,203)" fill-opacity="0.502"/></g>
<g transform="translate(5136.00 2080.00) rotate(126) scale(608.00 320.00)"><ellipse cx="0" cy="0" rx="1" ry="1" fill="rgb(6,34,57)" fill-opacity="0.502"/></g>
<polygon points="2013.04,4019.59 1914.84,3914.27 2066.96,3772.41 2165.16,3877.73" fill="rgb(133,172,255)" fill-opacity="0.502"/>
<polygon points="5910.40,781.42 6340.76,819.07 6329.60,946.58 5899.24,908.93" fill="rgb(48,68,36)" fill-opacity="0.502"/>
<circle cx="1360.00" cy="2384.00" r="112.00" fill="rgb(107,133,126)" fill-opacity="0.502"/>
<polygon points="5366.08,3654.84 5426.94,3785.35 5049.92,3961.16 4989.06,3830.65" fill="rgb(4,133,57)" fill-opacity="0.502"/>
<circle cx="1776.00" cy="2144.00" r="240.00" fill="rgb(127,174,238)" fill-opacity="0.502"/>
<polygon points="3248.50,1457.49 2818.14,1419.83 2879.50,718.51 3309.86,756.17" fill="rgb(0,38,91)" fill-opacity="0.502"/>
<polygon points="5033.05,2817.63 5098.53,2747.42 5238.95,2878.37 5173.47,2948.58" fill="rgb(163,223,255)" fill-opacity="0.502"/>
<polygon points="1844.83,2549.01 1893.93,2649.67 1563.17,2810.99 1514.07,2710.33" fill="rgb(121,167,242)" fill-opacity="0.502"/>
<polygon points="2547.50,660.14 2212.32,683.58 2204.50,571.86 2539.68,548.42" fill="rgb(163,230,255)" fill-opacity="0.502"/>
<g transform="translate(3648.00 2896.00) rotate(74) scale(144.00 224.00)"><ellipse cx="0" cy="0" rx="1" ry="1" fill="rgb(31,71,200)" fill-opacity="0.502"/></g>
<polygon points="2233.41,2651.06 2360.16,2668.88 2246.59,3476.94 2119.84,3459.12" fill="rgb(22,97,71)" fill-opacity="0.502"/>
<circle cx="4544.00" cy="4032.00" r="96.00" fill="rgb(138,184,255)" fill-opacity="0.502"/>
<polygon points="6187.66,3644.19 6349.30,3513.29 6500.34,3699.81 6338.70,3830.71" fill="rgb(12,132,127)" fill-opacity="0.502"/>
<polygon points="3048.00,4504.00 3048.00,4616.00 2952.00,4616.00 2952.00,4504.00" fill="rgb(85,119,235)" fill-opacity="0.502"/>
<g transform="translate(4448.00 4160.00) rotate(50) scale(480.00 32.00)"><ellipse cx="0" cy="0" rx="1" ry="1" fill="rgb(19,50,127)" fill-opacity="0.502"/></g>
<circle cx="1920.00" cy="240.00" r="144.00" fill="rgb(29,78,197)" fill-opacity="0.502"/>
<polygon points="4163.90,3886.59 4224.77,3866.81 4284.10,4049.41 4223.23,4069.19" fill="rgb(69,104,228)" fill-opacity="0.502"/>
<circle cx="5424.00" cy="3008.00" r="240.00" fill="rgb(10,46,88)" fill-opacity="0.502"/>
<g transform="translate(4864.00 480.00) rotate(267) scale(512.00 192.00)"><ellipse cx="0" cy="0" rx="1" ry="1" fill="rgb(0,0,17)" fill-opacity="0.502"/></g>
<circle cx="2064.00" cy="16.00" r="192.00" fill="rgb(98,157,255)" fill-opacity="0.502"/>
<g transform="translate(4224.00 592.00) rotate(77) scale(80.00 128.00)"><ellipse cx="0" cy="0" rx="1" ry="1" fill="rgb(0,20,29)" fill-opacity="0.502"/></g>
<g transform="translate(3360.00 2752.00) rotate(231) scale(288.00 80.00)"><ellipse cx="0" cy="0" rx="1" ry="1" fill="rgb(116,166,255)" fill-opacity="0.502"/></g>
<polygon points="6738.23,3691.54 6730.43,3755.06 6285.77,3700.46 6293.57,3636.94" fill="rgb(27,143,255)" fill-opacity="0.502"/>
<polygon points="5473.03,439.04 5730.42,223.06 5966.97,504.96 5709.58,720.94" fill="rgb(8,44,69)" fill-opacity="0.502"/>
<polygon points="1412.11,2352.22 1428.03,2353.89 1387.89,2735.78 1371.97,2734.11" fill="rgb(185,228,240)" fill-opacity="0.502"/>
<circle cx="5984.00" cy="3888.00" r="192.00" fill="rgb(0,89,38)" fill-opacity="0.502"/>
<polygon points="2711.53,2794.80 2782.67,2599.34 3128.47,2725.20 3057.33,2920.66" fill="rgb(78,120,255)" fill-opacity="0.502"/>
<polygon points="1900.20,2760.31 1891.82,2600.53 1907.80,2599.69 1916.18,2759.47" fill="rgb(12,17,59)" fill-opacity="0.502"/>
<circle cx="2288.00" cy="448.00" r="80.00" fill="rgb(11,69,168)" fill-opacity="0.502"/>
<g transform="translate(720.00 592.00) rotate(132) scale(288.00 448.00)"><ellipse cx="0" cy="0" rx="1" ry="1" fill="rgb(0,0,0)" fill-opacity="0.502"/></g>
<polygon points="1190.45,154.41 1393.46,249.08 1305.55,437.59 1102.54,342.92" fill="rgb(133,189,255)" fill-opacity="0.502"/>
<polygon points="4588.15,3304.50 4600.57,3258.14 5187.85,3415.50 5175.43,3461.86" fill="rgb(0,4,11)" fill-opacity="0.502"/>
<g transform="translate(1472.00 3584.00) rotate(88) scale(544.00 144.00)"><ellipse cx="0" cy="0" rx="1" ry="1" fill="rgb(13,28,50)" fill-opacity="0.502"/></g>
<polygon points="4752.00,1616.00 4336.00,1616.00 4336.00,944.00 4752.00,944.00" fill="rgb(13,45,68)" fill-opacity="0.502"/>
<g transform="translate(3808.00 944.00) rotate(154) scale(224.00 80.00)"><ellipse cx="0" cy="0" rx="1" ry="1" fill="rgb(5,45,131)" fill-opacity="0.502"/></g>
<g transform="translate(6944.00 1792.00) rotate(181) scale(176.00 768.00)"><ellipse cx="0" cy="0" rx="1" ry="1" fill="rgb(0,16,46)" fill-opacity="0.502"/></g>
<polygon points="3069.41,1134.79 3028.28,1085.77 3138.59,993.21 3179.72,1042.23" fill="rgb(27,63,183)" fill-opacity="0.502"/>
<circle cx="848.00" cy="176.00" r="256.00" fill="rgb(0,0,0)" fill-opacity="0.502"/>
<circle cx="3728.00" cy="832.00" r="64.00" fill="rgb(150,186,255)" fill-opacity="0.502"/>
<polygon points="6014.68,2251.35 6207.54,2173.43 6417.32,2692.65 6224.46,2770.57" fill="rgb(32,81,40)" fill-opacity="0.502"/>
<g transform="translate(2720.00 4544.00) rotate(278) scale(160.00 192.00)"><ellipse cx="0" cy="0" rx="1" ry="1" fill="rgb(0,0,16)" fill-opacity="0.502"/></g>
<polygon points="3347.88,4385.56 3677.70,4449.67 3644.12,4622.44 3314.30,4558.33" fill="rgb(42,88,200)" fill-opacity="0.502"/>
<polygon points="1655.77,3947.80 1672.51,3708.39 1784.23,3716.20 1767.49,3955.61" fill="rgb(6,35,146)" fill-opacity="0.502"/>
<polygon points="5035.30,3576.94 5026.94,3656.51 4708.70,3623.06 4717.06,3543.49" fill="rgb(70,237,255)" fill-opacity="0.502"/>
<polygon points="4566.44,3040.35 4987.70,2647.52 5129.56,2799.65 4708.30,3192.48" fill="rgb(153,207,255)" fill-opacity="0.502"/>
<g transform="translate(2112.00 1472.00) rotate(88) scale(192.00 48.00)"><ellipse cx="0" cy="0" rx="1" ry="1" fill="rgb(39,101,209)" fill-opacity="0.502"/></g>
<circle cx="2624.00" cy="3872.00" r="112.00" fill="rgb(2,13,28)" fill-opacity="0.502"/>
<circle cx="4400.00" cy="2416.00" r="128.00" fill="rgb(0,11,51)" fill-opacity="0.502"/>
<polygon points="2598.95,659.89 2646.77,655.70 2729.05,1596.11 2681.23,1600.30" fill="rgb(2,53,121)" fill-opacity="0.502"/>
<polygon points="3686.12,1916.17 3239.82,1955.22 3225.88,1795.83 3672.18,1756.78" fill="rgb(57,111,240)" fill-opacity="0.502"/>
<circle cx="592.00" cy="0.00" r="512.00" fill="rgb(0,0,0)" fill-opacity="0.502"/>
<g transform="translate(4368.00 3872.00) rotate(13) scale(48.00 240.00)"><ellipse cx="0" cy="0" rx="1" ry="1" fill="rgb(0,44,74)" fill-opacity="0.502"/></g>
<polygon points="1826.03,2848.07 1810.07,2846.95 1837.97,2447.93 1853.93,2449.05" fill="rgb(34,61,130)" fill-opacity="0.502"/>
<circle cx="4912.00" cy="3792.00" r="80.00" fill="rgb(8,0,78)" fill-opacity="0.502"/>
<g transform="translate(5264.00 288.00) rotate(247) scale(816.00 208.00)"><ellipse cx="0" cy="0" rx="1" ry="1" fill="rgb(38,55,34)" fill-opacity="0.502"/></g>
<g transform="translate(6304.00 1104.00) rotate(348) scale(240.00 208.00)"><ellipse cx="0" cy="0" rx="1" ry="1" fill="rgb(0,22,29)" fill-opacity="0.502"/></g>
<circle cx="4144.00" cy="112.00" r="176.00" fill="rgb(14,27,22)" fill-opacity="0.502"/>
<g transform="translate(3088.00 3264.00) rotate(92) scale(48.00 336.00)"><ellipse cx="0" cy="0" rx="1" ry="1" fill="rgb(109,156,255)" fill-opacity="0.502"/></g>
<polygon points="5304.00,1592.00 5304.00,1864.00 5112.00,1864.00 5112.00,1592.00" fill="rgb(24,58,100)" fill-opacity="0.502"/>
<circle cx="6336.00" cy="144.00" r="336.00" fill="rgb(0,0,11)" fill-opacity="0.502"/>
<polygon points="1144.00,3144.00 1144.00,3352.00 1112.00,3352.00 1112.00,3144.00" fill="rgb(214,214,186)" fill-opacity="0.502"/>
<g transform="translate(4272.00 3376.00) rotate(246) scale(144.00 64.00)"><ellipse cx="0" cy="0" rx="1" ry="1" fill="rgb(57,114,227)" fill-opacity="0.502"/></g>
<polygon points="4803.66,1896.72 4864.85,1631.69 5036.34,1671.28 4975.15,1936.31" fill="rgb(0,4,26)" fill-opacity="0.502"/>
<g transform="translate(3680.00 3824.00) rotate(187) scale(64.00 528.00)"><ellipse cx="0" cy="0" rx="1" ry="1" fill="rgb(34,80,199)" fill-opacity="0.502"/></g>
<polygon points="3095.36,4353.98 3038.02,4503.36 2888.64,4446.02 2945.98,4296.64" fill="rgb(97,138,242)" fill-opacity="0.502"/>
<circle cx="3168.00" cy="4496.00" r="144.00" fill="rgb(9,55,136)" fill-opacity="0.502"/>
<polygon points="3376.00,3824.00 3376.00,3552.00 3456.00,3552.00 3456.00,3824.00" fill="rgb(21,59,181)" fill-opacity="0.502"/>
<g transform="translate(5536.00 1824.00) rotate(63) scale(272.00 192.00)"><ellipse cx="0" cy="0" rx="1" ry="1" fill="rgb(2,9,33)" fill-opacity="0.502"/></g>
<polygon points="1492.27,419.90 1390.83,66.15 1467.73,44.10 1569.17,397.85" fill="rgb(35,83,233)" fill-opacity="0.502"/>
<polygon points="4247.22,1584.06 3919.22,1015.94 3960.78,991.94 4288.78,1560.06" fill="rgb(148,172,249)" fill-opacity="0.502"/>
<g transform="translate(2560.00 432.00) rotate(109) scale(48.00 272.00)"><ellipse cx="0" cy="0" rx="1" ry="1" fill="rgb(170,234,255)" fill-opacity="0.502"/></g>
<g transform="translate(1296.00 1968.00) rotate(111) scale(496.00 80.00)"><ellipse cx="0" cy="0" rx="1" ry="1" fill="rgb(142,195,244)" fill-opacity="0.502"/></g>
<circle cx="7536.00" cy="224.00" r="784.00" fill="rgb(0,0,0)" fill-opacity="0.502"/>
<circle cx="672.00" cy="1392.00" r="432.00" fill="rgb(0,0,0)" fill-opacity="0.502"/>
<g transform="translate(2384.00 3408.00) rotate(281) scale(480.00 64.00)"><ellipse cx="0" cy="0" rx="1" ry="1" fill="rgb(63,108,209)" fill-opacity="0.502"/></g>
<circle cx="1344.00" cy="576.00" r="256.00" fill="rgb(124,182,252)" fill-opacity="0.502"/>
<polygon points="4981.45,3210.52 4927.47,2976.67 5114.55,2933.48 5168.53,3167.33" fill="rgb(1,70,129)" fill-opacity="0.502"/>
<polygon points="3966.10,4488.20 4103.80,4446.10 4145.90,4583.80 4008.20,4625.90" fill="rgb(126,164,255)" fill-opacity="0.502"/>
<polygon points="7082.10,4146.09 6973.91,4378.10 6741.90,4269.91 6850.09,4037.90" fill="rgb(16,47,117)" fill-opacity="0.502"/>
<circle cx="7040.00" cy="3888.00" r="112.00" fill="rgb(0,22,4)" fill-opacity="0.502"/>
<g transform="translate(4720.00 0.00) rotate(285) scale(640.00 16.00)"><ellipse cx="0" cy="0" rx="1" ry="1" fill="rgb(135,142,122)" fill-opacity="0.502"/></g>
<polygon points="5092.79,3394.85 5152.73,3543.20 5019.21,3597.15 4959.27,3448.80" fill="rgb(0,185,41)" fill-opacity="0.502"/>
<polygon points="3961.93,4606.89 3823.51,4567.20 3894.07,4321.11 4032.49,4360.80" fill="rgb(1,57,169)" fill-opacity="0.502"/>
<polygon points="1806.60,3252.77 1759.84,3585.50 1601.40,3563.23 1648.16,3230.50" fill="rgb(106,150,255)" fill-opacity="0.502"/>
<polygon points="3514.85,348.36 3666.85,611.64 3445.15,739.64 3293.15,476.36" fill="rgb(0,13,37)" fill-opacity="0.502"/>
<polygon points="4851.18,3285.25 4868.70,3174.63 5500.82,3274.75 5483.30,3385.37" fill="rgb(81,161,239)" fill-opacity="0.502"/>
<circle cx="4656.00" cy="2912.00" r="288.00" fill="rgb(150,202,255)" fill-opacity="0.502"/>
<polygon points="4836.44,3680.13 4843.14,3807.96 4539.56,3823.87 4532.86,3696.04" fill="rgb(79,106,217)" fill-opacity="0.502"/>
<polygon points="2006.12,3309.81 2057.97,2816.52 2073.88,2818.19 2022.03,3311.48" fill="rgb(0,0,47)" fill-opacity="0.502"/>
<polygon points="2984.00,2593.71 2814.29,2424.00 2984.00,2254.29 3153.71,2424.00" fill="rgb(26,77,178)" fill-opacity="0.502"/>
<g transform="translate(2544.00 3808.00) rotate(163) scale(48.00 288.00)"><ellipse cx="0" cy="0" rx="1" ry="1" fill="rgb(0,0,26)" fill-opacity="0.502"/></g>
<circle cx="2576.00" cy="1776.00" r="128.00" fill="rgb(107,170,255)" fill-opacity="0.502"/>
<g transform="translate(3248.00 1520.00) rotate(47) scale(32.00 304.00)"><ellipse cx="0" cy="0" rx="1" ry="1" fill="rgb(0,0,19)" fill-opacity="0.502"/></g>
<polygon points="4320.86,3677.94 4384.61,3683.52 4351.14,4066.06 4287.39,4060.48" fill="rgb(0,23,63)" fill-opacity="0.502"/>
<g transform="translate(3456.00 1632.00) rotate(133) scale(112.00 208.00)"><ellipse cx="0" cy="0" rx="1" ry="1" fill="rgb(128,188,239)" fill-opacity="0.502"/></g>
<g transform="translate(2608.00 1184.00) rotate(99) scale(32.00 240.00)"><ellipse cx="0" cy="0" rx="1" ry="1" fill="rgb(121,185,255)" fill-opacity="0.502"/></g>
<polygon points="6202.10,3632.60 6215.48,3505.30 6501.90,3535.40 6488.52,3662.70" fill="rgb(0,53,8)" fill-opacity="0.502"/>
<circle cx="4704.00" cy="752.00" r="208.00" fill="rgb(0,0,20)" fill-opacity="0.502"/>
<circle cx="4672.00" cy="1872.00" r="96.00" fill="rgb(45,88,133)" fill-opacity="0.502"/>
<g transform="translate(1376.00 2768.00) rotate(312) scale(400.00 48.00)"><ellipse cx="0" cy="0" rx="1" ry="1" fill="rgb(118,165,212)" fill-opacity="0.502"/></g>
<polygon points="2512.11,3756.58 2478.66,4074.83 2255.89,4051.42 2289.34,3733.17" fill="rgb(50,88,164)" fill-opacity="0.502"/>
<circle cx="5920.00" cy="2992.00" r="64.00" fill="rgb(107,137,113)" fill-opacity="0.502"/>
<polygon points="2440.85,872.31 2195.71,1078.00 2103.15,967.69 2348.29,762.00" fill="rgb(0,52,132)" fill-opacity="0.502"/>
<polygon points="1911.04,4179.37 1799.87,4165.72 1912.96,3244.63 2024.13,3258.28" fill="rgb(30,75,130)" fill-opacity="0.502"/>
<polygon points="5990.52,3314.36 5993.87,3266.48 6153.48,3277.64 6150.13,3325.52" fill="rgb(140,174,255)" fill-opacity="0.502"/>
<g transform="translate(1616.00 1776.00) rotate(101) scale(240.00 336.00)"><ellipse cx="0" cy="0" rx="1" ry="1" fill="rgb(142,208,247)" fill-opacity="0.502"/></g>
<polygon points="2543.89,2025.35 2604.70,1826.44 2880.11,1910.65 2819.30,2109.56" fill="rgb(39,69,150)" fill-opacity="0.502"/>
<circle cx="3568.00" cy="4272.00" r="144.00" fill="rgb(72,124,247)" fill-opacity="0.502"/>
<g transform="translate(3488.00 3008.00) rotate(7) scale(144.00 112.00)"><ellipse cx="0" cy="0" rx="1" ry="1" fill="rgb(63,105,233)" fill-opacity="0.502"/></g>
<circle cx="5344.00" cy="1248.00" r="128.00" fill="rgb(46,75,52)" fill-opacity="0.502"/>
<polygon points="2973.49,1935.04 3227.00,1970.67 3202.51,2144.96 2949.00,2109.33" fill="rgb(83,124,240)" fill-opacity="0.502"/>
<polygon points="2344.36,2942.46 2453.48,2825.44 2839.64,3185.54 2730.52,3302.56" fill="rgb(28,59,122)" fill-opacity="0.502"/>
<polygon points="2027.16,4396.32 1788.48,4371.24 1796.84,4291.68 2035.52,4316.76" fill="rgb(52,101,156)" fill-opacity="0.502"/>
<g transform="translate(5440.00 944.00) rotate(106) scale(368.00 96.00)"><ellipse cx="0" cy="0" rx="1" ry="1" fill="rgb(40,66,48)" fill-opacity="0.502"/></g>
<polygon points="2207.91,2190.59 2302.45,2207.26 2144.09,3105.41 2049.55,3088.74" fill="rgb(164,216,255)" fill-opacity="0.502"/>
<circle cx="5792.00" cy="2384.00" r="272.00" fill="rgb(17,53,74)" fill-opacity="0.502"/>
<circle cx="5424.00" cy="3520.00" r="80.00" fill="rgb(0,116,10)" fill-opacity="0.502"/>
<polygon points="6476.38,3523.78 6487.51,3444.55 6883.62,3500.22 6872.49,3579.45" fill="rgb(124,181,255)" fill-opacity="0.502"/>
<polygon points="1104.56,3174.75 1151.47,1831.57 1199.44,1833.25 1152.53,3176.43" fill="rgb(150,199,254)" fill-opacity="0.502"/>
<polygon points="6332.56,3730.52 5342.98,3661.32 5347.44,3597.48 6337.02,3666.68" fill="rgb(41,163,255)" fill-opacity="0.502"/>
<g transform="translate(1328.00 3024.00) rotate(80) scale(48.00 96.00)"><ellipse cx="0" cy="0" rx="1" ry="1" fill="rgb(112,157,220)" fill-opacity="0.502"/></g>
<polygon points="6378.24,3559.93 6371.54,3655.69 5461.76,3592.07 5468.46,3496.31" fill="rgb(1,123,25)" fill-opacity="0.502"/>
<polygon points="2623.43,3594.10 2983.39,3517.59 3056.57,3861.90 2696.61,3938.41" fill="rgb(40,82,175)" fill-opacity="0.502"/>
<g transform="translate(240.00 3856.00) rotate(155) scale(976.00 720.00)"><ellipse cx="0" cy="0" rx="1" ry="1" fill="rgb(0,0,0)" fill-opacity="0.502"/></g>
<polygon points="1807.47,1443.03 1823.17,1446.08 1728.53,1932.97 1712.83,1929.92" fill="rgb(30,88,185)" fill-opacity="0.502"/>
<g transform="translate(1648.00 272.00) rotate(60) scale(160.00 112.00)"><ellipse cx="0" cy="0" rx="1" ry="1" fill="rgb(96,157,255)" fill-opacity="0.502"/></g>
<circle cx="6784.00" cy="2544.00" r="272.00" fill="rgb(3,31,69)" fill-opacity="0.502"/>
<polygon points="2153.68,4325.23 2012.61,4131.07 2310.32,3914.77 2451.39,4108.93" fill="rgb(42,73,116)" fill-opacity="0.502"/>
<circle cx="6448.00" cy="3200.00" r="48.00" fill="rgb(176,215,250)" fill-opacity="0.502"/>
<g transform="translate(4976.00 1248.00) rotate(273) scale(96.00 160.00)"><ellipse cx="0" cy="0" rx="1" ry="1" fill="rgb(27,65,74)" fill-opacity="0.502"/></g>
<circle cx="4208.00" cy="1744.00" r="176.00" fill="rgb(9,41,77)" fill-opacity="0.502"/>
<polygon points="5888.00,0.00 6080.00,0.00 6080.00,672.00 5888.00,672.00" fill="rgb(0,11,30)" fill-opacity="0.502"/>
<g transform="translate(5184.00 2128.00) rotate(231) scale(224.00 48.00)"><ellipse cx="0" cy="0" rx="1" ry="1" fill="rgb(27,71,91)" fill-opacity="0.502"/></g>
<polygon points="6670.80,2342.91 6434.44,2384.58 6337.20,1833.09 6573.56,1791.42" fill="rgb(14,46,43)" fill-opacity="0.502"/>
<polygon points="1574.45,1100.82 1593.43,1644.48 1401.55,1651.18 1382.57,1107.52" fill="rgb(126,187,236)" fill-opacity="0.502"/>
<polygon points="6495.07,1981.57 6554.42,2076.55 6160.93,2322.43 6101.58,2227.45" fill="rgb(36,81,101)" fill-opacity="0.502"/>
<polygon points="2721.57,1082.48 2750.86,747.76 2862.43,757.52 2833.14,1092.24" fill="rgb(37,98,255)" fill-opacity="0.502"/>
<polygon points="1637.14,2073.43 1990.62,2223.47 1946.86,2326.57 1593.38,2176.53" fill="rgb(158,201,255)" fill-opacity="0.502"/>
<circle cx="1328.00" cy="4256.00" r="128.00" fill="rgb(24,44,87)" fill-opacity="0.502"/>
<g transform="translate(5552.00 2800.00) rotate(238) scale(128.00 336.00)"><ellipse cx="0" cy="0" rx="1" ry="1" fill="rgb(24,71,108)" fill-opacity="0.502"/></g>
<circle cx="880.00" cy="1104.00" r="224.00" fill="rgb(0,0,0)" fill-opacity="0.502"/>
<g transform="translate(2368.00 1008.00) rotate(39) scale(144.00 80.00)"><ellipse cx="0" cy="0" rx="1" ry="1" fill="rgb(15,49,94)" fill-opacity="0.502"/></g>
<polygon points="4177.18,4422.02 4222.23,4706.47 4174.82,4713.98 4129.77,4429.53" fill="rgb(0,0,0)" fill-opacity="0.502"/>
<g transform="translate(5200.00 4416.00) rotate(56) scale(304.00 400.00)"><ellipse cx="0" cy="0" rx="1" ry="1" fill="rgb(21,69,92)" fill-opacity="0.502"/></g>
<polygon points="4149.49,4199.15 4118.31,4420.97 3690.51,4360.85 3721.69,4139.03" fill="rgb(98,147,255)" fill-opacity="0.502"/>
<circle cx="5408.00" cy="2032.00" r="128.00" fill="rgb(17,54,78)" fill-opacity="0.502"/>
<polygon points="3678.77,1474.68 3983.86,1680.47 3921.23,1773.32 3616.14,1567.53" fill="rgb(178,132,223)" fill-opacity="0.502"/>
<g transform="translate(3648.00 3776.00) rotate(299) scale(128.00 160.00)"><ellipse cx="0" cy="0" rx="1" ry="1" fill="rgb(102,147,255)" fill-opacity="0.502"/></g>
<polygon points="1625.14,2282.47 1950.07,2455.24 1814.86,2709.53 1489.93,2536.76" fill="rgb(118,168,239)" fill-opacity="0.502"/>
<circle cx="832.00" cy="2608.00" r="272.00" fill="rgb(0,0,0)" fill-opacity="0.502"/>
<polygon points="1996.55,390.84 2068.54,476.64 1443.45,1001.16 1371.46,915.36" fill="rgb(129,192,252)" fill-opacity="0.502"/>
<circle cx="3632.00" cy="2224.00" r="96.00" fill="rgb(18,63,197)" fill-opacity="0.502"/>
<g transform="translate(800.00 1936.00) rotate(209) scale(304.00 304.00)"><ellipse cx="0" cy="0" rx="1" ry="1" fill="rgb(0,0,0)" fill-opacity="0.502"/></g>
<circle cx="3840.00" cy="2576.00" r="160.00" fill="rgb(121,176,255)" fill-opacity="0.502"/>
<polygon points="1552.87,3374.53 1637.03,3547.10 1263.13,3729.47 1178.97,3556.90" fill="rgb(10,21,31)" fill-opacity="0.502"/>
<circle cx="4624.00" cy="2384.00" r="176.00" fill="rgb(13,57,93)" fill-opacity="0.502"/>
<circle cx="2368.00" cy="3152.00" r="112.00" fill="rgb(84,135,216)" fill-opacity="0.502"/>
<g transform="translate(3840.00 2672.00) rotate(240) scale(272.00 64.00)"><ellipse cx="0" cy="0" rx="1" ry="1" fill="rgb(89,143,251)" fill-opacity="0.502"/></g>
<circle cx="6768.00" cy="1024.00" r="272.00" fill="rgb(0,9,24)" fill-opacity="0.502"/>
<polygon points="3256.18,2084.57 3330.34,2312.82 3223.82,2347.43 3149.66,2119.18" fill="rgb(125,176,255)" fill-opacity="0.502"/>
<circle cx="5904.00" cy="4368.00" r="304.00" fill="rgb(24,69,114)" fill-opacity="0.502"/>
<polygon points="4275.40,4453.20 4335.49,4566.22 4236.60,4618.80 4176.51,4505.78" fill="rgb(151,143,219)" fill-opacity="0.502"/>
<circle cx="3744.00" cy="768.00" r="80.00" fill="rgb(106,141,249)" fill-opacity="0.502"/>
<polygon points="1668.01,421.57 1775.07,302.66 2107.99,602.43 2000.93,721.34" fill="rgb(72,124,219)" fill-opacity="0.502"/>
<g transform="translate(1328.00 2192.00) rotate(347) scale(32.00 192.00)"><ellipse cx="0" cy="0" rx="1" ry="1" fill="rgb(147,177,196)" fill-opacity="0.502"/></g>
<g transform="translate(5168.00 4000.00) rotate(282) scale(128.00 272.00)"><ellipse cx="0" cy="0" rx="1" ry="1" fill="rgb(0,47,35)" fill-opacity="0.502"/></g>
<g transform="translate(5936.00 1360.00) rotate(77) scale(48.00 480.00)"><ellipse cx="0" cy="0" rx="1" ry="1" fill="rgb(21,52,67)" fill-opacity="0.502"/></g>
<polygon points="2582.19,1082.73 2518.66,1090.53 2473.81,725.27 2537.34,717.47" fill="rgb(74,122,251)" fill-opacity="0.502"/>
<circle cx="752.00" cy="2272.00" r="352.00" fill="rgb(0,0,0)" fill-opacity="0.502"/>
<polygon points="2418.78,4135.51 2622.31,4262.69 2461.22,4520.49 2257.69,4393.31" fill="rgb(0,8,29)" fill-opacity="0.502"/>
<polygon points="2371.89,2456.65 2284.59,2363.03 2460.11,2199.35 2547.41,2292.97" fill="rgb(0,62,112)" fill-opacity="0.502"/>
<circle cx="2768.00" cy="4592.00" r="144.00" fill="rgb(0,5,19)" fill-opacity="0.502"/>
<polygon points="3593.28,1416.98 3728.97,1332.19 3830.72,1495.02 3695.03,1579.81" fill="rgb(147,119,181)" fill-opacity="0.502"/>
<polygon points="4219.72,2328.05 4075.58,2097.38 4116.28,2071.95 4260.42,2302.62" fill="rgb(169,210,255)" fill-opacity="0.502"/>
<g transform="translate(3440.00 1760.00) rotate(143) scale(48.00 128.00)"><ellipse cx="0" cy="0" rx="1" ry="1" fill="rgb(23,81,193)" fill-opacity="0.502"/></g>
<circle cx="4448.00" cy="2608.00" r="64.00" fill="rgb(176,218,255)" fill-opacity="0.502"/>
<g transform="translate(1840.00 3952.00) rotate(95) scale(64.00 64.00)"><ellipse cx="0" cy="0" rx="1" ry="1" fill="rgb(122,170,255)" fill-opacity="0.502"/></g>
<circle cx="3424.00" cy="3984.00" r="112.00" fill="rgb(99,147,255)" fill-opacity="0.502"/>
<polygon points="1135.44,1019.24 1423.27,1029.29 1392.56,1908.76 1104.73,1898.71" fill="rgb(143,202,252)" fill-opacity="0.502"/>
<circle cx="6400.00" cy="1424.00" r="208.00" fill="rgb(10,42,76)" fill-opacity="0.502"/>
<g transform="translate(3920.00 1376.00) rotate(143) scale(144.00 176.00)"><ellipse cx="0" cy="0" rx="1" ry="1" fill="rgb(104,92,164)" fill-opacity="0.502"/></g>
<polygon points="1963.38,4156.03 1994.64,4229.67 1508.62,4435.97 1477.36,4362.33" fill="rgb(0,18,44)" fill-opacity="0.502"/>
<polygon points="1914.21,3135.70 1898.30,3134.02 1941.79,2720.30 1957.70,2721.98" fill="rgb(247,255,255)" fill-opacity="0.502"/>
<g transform="translate(5120.00 1872.00) rotate(107) scale(80.00 128.00)"><ellipse cx="0" cy="0" rx="1" ry="1" fill="rgb(1,24,46)" fill-opacity="0.502"/></g>
<g transform="translate(1216.00 688.00) rotate(171) scale(80.00 512.00)"><ellipse cx="0" cy="0" rx="1" ry="1" fill="rgb(126,178,255)" fill-opacity="0.502"/></g>
<g transform="translate(2080.00 1776.00) rotate(206) scale(80.00 464.00)"><ellipse cx="0" cy="0" rx="1" ry="1" fill="rgb(85,142,239)" fill-opacity="0.502"/></g>
<circle cx="2432.00" cy="2208.00" r="48.00" fill="rgb(135,195,255)" fill-opacity="0.502"/>
<polygon points="4608.99,4527.43 4415.01,4639.43 4351.01,4528.57 4544.99,4416.57" fill="rgb(22,96,188)" fill-opacity="0.502"/>
<circle cx="4240.00" cy="2592.00" r="112.00" fill="rgb(141,188,255)" fill-opacity="0.502"/>
<circle cx="4560.00" cy="3888.00" r="176.00" fill="rgb(112,151,238)" fill-opacity="0.502"/>
<polygon points="6400.00,3728.00 6400.00,3936.00 5680.00,3936.00 5680.00,3728.00" fill="rgb(0,101,44)" fill-opacity="0.502"/>
<circle cx="5664.00" cy="256.00" r="112.00" fill="rgb(25,62,70)" fill-opacity="0.502"/>
<polygon points="6661.29,4526.85 6328.47,4641.45 6234.71,4369.15 6567.53,4254.55" fill="rgb(21,57,97)" fill-opacity="0.502"/>
<circle cx="3728.00" cy="3440.00" r="96.00" fill="rgb(18,60,170)" fill-opacity="0.502"/>
<g transform="translate(7312.00 3248.00) rotate(360) scale(224.00 1392.00)"><ellipse cx="0" cy="0" rx="1" ry="1" fill="rgb(0,0,0)" fill-opacity="0.502"/></g>
<circle cx="3952.00" cy="3088.00" r="112.00" fill="rgb(104,163,255)" fill-opacity="0.502"/>
<g transform="translate(4176.00 3632.00) rotate(297) scale(192.00 128.00)"><ellipse cx="0" cy="0" rx="1" ry="1" fill="rgb(92,138,232)" fill-opacity="0.502"/></g>
</g>
</svg>