<?xml version="1.0" standalone="no"?>
<svg xmlns="http://www.w3.org/2000/svg" width="8192" height="4608" viewBox="0 0 8192 4608" style="overflow:hidden">
<defs>
<clipPath id="c"><rect x="0" y="0" width="8192" height="4608"/></clipPath>
</defs>
<rect width="8192" height="4608" fill="rgb(18,34,88)"/>
<g clip-path="url(#c)">
<circle cx="3760.00" cy="2336.00" r="1760.00" fill="rgb(73,121,248)" fill-opacity="0.502"/>
<circle cx="2832.00" cy="1840.00" r="640.00" fill="rgb(128,209,255)" fill-opacity="0.502"/>
<g transform="translate(1456.00 2192.00) rotate(13) scale(352.00 608.00)"><ellipse cx="0" cy="0" rx="1" ry="1" fill="rgb(71,124,252)" fill-opacity="0.502"/></g>
<circle cx="0.00" cy="1312.00" r="1616.00" fill="rgb(0,0,0)" fill-opacity="0.502"/>
<circle cx="8176.00" cy="640.00" r="2656.00" fill="rgb(0,0,0)" fill-opacity="0.502"/>
<circle cx="1888.00" cy="1408.00" r="736.00" fill="rgb(0,40,194)" fill-opacity="0.502"/>
<circle cx="8176.00" cy="4336.00" r="1584.00" fill="rgb(0,0,0)" fill-opacity="0.502"/>
<circle cx="4112.00" cy="2608.00" r="528.00" fill="rgb(139,128,111)" fill-opacity="0.502"/>
<g transform="translate(5392.00 2480.00) rotate(103) scale(528.00 640.00)"><ellipse cx="0" cy="0" rx="1" ry="1" fill="rgb(150,202,255)" fill-opacity="0.502"/></g>
<circle cx="4800.00" cy="432.00" r="1328.00" fill="rgb(0,0,38)" fill-opacity="0.502"/>
<g transform="translate(3872.00 4320.00) rotate(352) scale(928.00 720.00)"><ellipse cx="0" cy="0" rx="1" ry="1" fill="rgb(2,3,34)" fill-opacity="0.502"/></g>
<g transform="translate(6528.00 2480.00) rotate(192) scale(384.00 1360.00)"><ellipse cx="0" cy="0" rx="1" ry="1" fill="rgb(24,57,172)" fill-opacity="0.502"/></g>
<circle cx="0.00" cy="3632.00" r="1200.00" fill="rgb(0,0,0)" fill-opacity="0.502"/>
<circle cx="1840.00" cy="3312.00" r="752.00" fill="rgb(31,62,199)" fill-opacity="0.502"/>
<circle cx="8176.00" cy="1216.00" r="1280.00" fill="rgb(0,0,0)" fill-opacity="0.502"/>
<circle cx="3632.00" cy="1728.00" r="560.00" fill="rgb(0,60,248)" fill-opacity="0.502"/>
<g transform="translate(0.00 1664.00) rotate(269) scale(8176.00 1104.00)"><ellipse cx="0" cy="0" rx="1" ry="1" fill="rgb(0,0,0)" fill-opacity="0.502"/></g>
<circle cx="2848.00" cy="800.00" r="464.00" fill="rgb(0,62,206)" fill-opacity="0.502"/>
<g transform="translate(1376.00 2336.00) rotate(123) scale(288.00 288.00)"><ellipse cx="0" cy="0" rx="1" ry="1" fill="rgb(106,166,255)" fill-opacity="0.502"/></g>
<circle cx="5408.00" cy="3312.00" r="592.00" fill="rgb(53,84,210)" fill-opacity="0.502"/>
<g transform="translate(3968.00 1184.00) rotate(131) scale(400.00 1392.00)"><ellipse cx="0" cy="0" rx="1" ry="1" fill="rgb(0,22,153)" fill-opacity="0.502"/></g>
<polygon points="3112.13,1592.92 2751.87,1800.92 2519.87,1399.08 2880.13,1191.08" fill="rgb(242,255,255)" fill-opacity="0.502"/>
<g transform="translate(7728.00 2528.00) rotate(269) scale(6096.00 672.00)"><ellipse cx="0" cy="0" rx="1" ry="1" fill="rgb(0,0,0)" fill-opacity="0.502"/></g>
<circle cx="6192.00" cy="4592.00" r="752.00" fill="rgb(24,0,13)" fill-opacity="0.502"/>
<circle cx="2272.00" cy="1360.00" r="368.00" fill="rgb(15,98,236)" fill-opacity="0.502"/>
<polygon points="6750.70,2827.45 7134.70,3492.55 6497.30,3860.55 6113.30,3195.45" fill="rgb(24,56,195)" fill-opacity="0.502"/>
<g transform="translate(2736.00 2768.00) rotate(175) scale(1216.00 352.00)"><ellipse cx="0" cy="0" rx="1" ry="1" fill="rgb(52,46,84)" fill-opacity="0.502"/></g>
<g transform="translate(4304.00 1824.00) rotate(9) scale(1040.00 192.00)"><ellipse cx="0" cy="0" rx="1" ry="1" fill="rgb(4,70,227)" fill-opacity="0.502"/></g>
<circle cx="5584.00" cy="2592.00" r="288.00" fill="rgb(136,184,255)" fill-opacity="0.502"/>
<circle cx="1920.00" cy="3360.00" r="464.00" fill="rgb(27,58,194)" fill-opacity="0.502"/>
<circle cx="96.00" cy="1200.00" r="1024.00" fill="rgb(0,0,0)" fill-opacity="0.502"/>
<g transform="translate(1824.00 2448.00) rotate(55) scale(368.00 240.00)"><ellipse cx="0" cy="0" rx="1" ry="1" fill="rgb(54,104,159)" fill-opacity="0.502"/></g>
<g transform="translate(1712.00 240.00) rotate(289) scale(1088.00 544.00)"><ellipse cx="0" cy="0" rx="1" ry="1" fill="rgb(0,0,72)" fill-opacity="0.502"/></g>
<g transform="translate(4560.00 2528.00) rotate(99) scale(272.00 80.00)"><ellipse cx="0" cy="0" rx="1" ry="1" fill="rgb(240,255,255)" fill-opacity="0.502"/></g>
<polygon points="4735.66,1839.68 4689.61,960.89 5616.34,912.32 5662.39,1791.11" fill="rgb(0,6,68)" fill-opacity="0.502"/>
<g transform="translate(3296.00 1888.00) rotate(271) scale(224.00 512.00)"><ellipse cx="0" cy="0" rx="1" ry="1" fill="rgb(9,79,250)" fill-opacity="0.502"/></g>
<circle cx="4112.00" cy="3392.00" r="448.00" fill="rgb(43,68,204)" fill-opacity="0.502"/>
<g transform="translate(5616.00 3392.00) rotate(0) scale(1456.00 160.00)"><ellipse cx="0" cy="0" rx="1" ry="1" fill="rgb(41,77,217)" fill-opacity="0.502"/></g>
<g transform="translate(496.00 3936.00) rotate(182) scale(608.00 2784.00)"><ellipse cx="0" cy="0" rx="1" ry="1" fill="rgb(0,0,0)" fill-opacity="0.502"/></g>
<circle cx="2752.00" cy="3408.00" r="432.00" fill="rgb(34,69,207)" fill-opacity="0.502"/>
<circle cx="5904.00" cy="1520.00" r="576.00" fill="rgb(2,25,82)" fill-opacity="0.502"/>
<circle cx="2416.00" cy="0.00" r="784.00" fill="rgb(0,3,97)" fill-opacity="0.502"/>
<circle cx="1872.00" cy="4144.00" r="448.00" fill="rgb(6,27,63)" fill-opacity="0.502"/>
<polygon points="4841.84,2451.11 5317.17,2384.31 5366.16,2732.89 4890.83,2799.69" fill="rgb(158,203,255)" fill-opacity="0.502"/>
<circle cx="4784.00" cy="480.00" r="880.00" fill="rgb(0,3,52)" fill-opacity="0.502"/>
<polygon points="3147.29,2510.66 2149.53,2280.31 2228.71,1937.34 3226.47,2167.69" fill="rgb(166,238,255)" fill-opacity="0.502"/>
<g transform="translate(1888.00 2160.00) rotate(142) scale(160.00 1296.00)"><ellipse cx="0" cy="0" rx="1" ry="1" fill="rgb(13,37,121)" fill-opacity="0.502"/></g>
<g transform="translate(3984.00 2288.00) rotate(315) scale(480.00 144.00)"><ellipse cx="0" cy="0" rx="1" ry="1" fill="rgb(38,86,103)" fill-opacity="0.502"/></g>
<circle cx="7872.00" cy="3760.00" r="864.00" fill="rgb(0,0,0)" fill-opacity="0.502"/>
<polygon points="3942.16,2193.76 4024.44,3134.17 3657.84,3166.24 3575.56,2225.83" fill="rgb(118,99,140)" fill-opacity="0.502"/>
<circle cx="3840.00" cy="688.00" r="512.00" fill="rgb(0,20,113)" fill-opacity="0.502"/>
<g transform="translate(2080.00 880.00) rotate(28) scale(288.00 560.00)"><ellipse cx="0" cy="0" rx="1" ry="1" fill="rgb(0,27,147)" fill-opacity="0.502"/></g>
<circle cx="5808.00" cy="2320.00" r="224.00" fill="rgb(83,110,255)" fill-opacity="0.502"/>
<polygon points="6478.07,2774.64 6039.66,3424.61 5601.93,3129.36 6040.34,2479.39" fill="rgb(26,31,77)" fill-opacity="0.502"/>
<polygon points="2491.47,4056.77 3043.92,3523.27 3588.53,4087.23 3036.08,4620.73" fill="rgb(10,31,89)" fill-opacity="0.502"/>
<g transform="translate(832.00 144.00) rotate(315) scale(8176.00 560.00)"><ellipse cx="0" cy="0" rx="1" ry="1" fill="rgb(0,0,0)" fill-opacity="0.502"/></g>
<g transform="translate(4576.00 2848.00) rotate(182) scale(784.00 64.00)"><ellipse cx="0" cy="0" rx="1" ry="1" fill="rgb(59,49,84)" fill-opacity="0.502"/></g>
<g transform="translate(6912.00 1328.00) rotate(360) scale(80.00 336.00)"><ellipse cx="0" cy="0" rx="1" ry="1" fill="rgb(33,121,192)" fill-opacity="0.502"/></g>
<circle cx="1312.00" cy="3712.00" r="240.00" fill="rgb(32,60,190)" fill-opacity="0.502"/>
<circle cx="6112.00" cy="560.00" r="976.00" fill="rgb(0,9,29)" fill-opacity="0.502"/>
<circle cx="2928.00" cy="1136.00" r="144.00" fill="rgb(91,161,254)" fill-opacity="0.502"/>
<g transform="translate(2160.00 1728.00) rotate(149) scale(272.00 320.00)"><ellipse cx="0" cy="0" rx="1" ry="1" fill="rgb(0,49,168)" fill-opacity="0.502"/></g>
<g transform="translate(6432.00 3280.00) rotate(141) scale(720.00 288.00)"><ellipse cx="0" cy="0" rx="1" ry="1" fill="rgb(24,50,152)" fill-opacity="0.502"/></g>
<g transform="translate(5152.00 4464.00) rotate(273) scale(416.00 768.00)"><ellipse cx="0" cy="0" rx="1" ry="1" fill="rgb(19,7,60)" fill-opacity="0.502"/></g>
<g transform="translate(1408.00 1696.00) rotate(272) scale(448.00 320.00)"><ellipse cx="0" cy="0" rx="1" ry="1" fill="rgb(0,18,124)" fill-opacity="0.502"/></g>
<g transform="translate(6352.00 1920.00) rotate(121) scale(448.00 848.00)"><ellipse cx="0" cy="0" rx="1" ry="1" fill="rgb(3,19,85)" fill-opacity="0.502"/></g>
<polygon points="6769.07,2634.27 6113.17,2645.71 6110.93,2517.73 6766.83,2506.29" fill="rgb(108,129,255)" fill-opacity="0.502"/>
<polygon points="4556.19,1728.24 4745.13,1532.58 4963.81,1743.76 4774.87,1939.42" fill="rgb(1,46,189)" fill-opacity="0.502"/>
<circle cx="7632.00" cy="336.00" r="912.00" fill="rgb(0,0,0)" fill-opacity="0.502"/>
<circle cx="5648.00" cy="4032.00" r="384.00" fill="rgb(30,16,92)" fill-opacity="0.502"/>
<circle cx="3456.00" cy="2704.00" r="144.00" fill="rgb(155,118,103)" fill-opacity="0.502"/>
<circle cx="5520.00" cy="2208.00" r="224.00" fill="rgb(64,106,255)" fill-opacity="0.502"/>
<circle cx="4208.00" cy="2192.00" r="240.00" fill="rgb(9,72,103)" fill-opacity="0.502"/>
<polygon points="3838.06,2388.48 4314.48,2446.98 4257.94,2907.52 3781.52,2849.02" fill="rgb(133,136,166)" fill-opacity="0.502"/>
<g transform="translate(7248.00 2400.00) rotate(54) scale(560.00 528.00)"><ellipse cx="0" cy="0" rx="1" ry="1" fill="rgb(0,0,1)" fill-opacity="0.502"/></g>
<g transform="translate(3312.00 1248.00) rotate(46) scale(464.00 208.00)"><ellipse cx="0" cy="0" rx="1" ry="1" fill="rgb(0,78,212)" fill-opacity="0.502"/></g>
<circle cx="5760.00" cy="2816.00" r="80.00" fill="rgb(157,198,255)" fill-opacity="0.502"/>
<circle cx="7744.00" cy="4240.00" r="800.00" fill="rgb(0,0,0)" fill-opacity="0.502"/>
<g transform="translate(1488.00 2416.00) rotate(55) scale(272.00 432.00)"><ellipse cx="0" cy="0" rx="1" ry="1" fill="rgb(87,134,224)" fill-opacity="0.502"/></g>
<circle cx="3504.00" cy="2384.00" r="176.00" fill="rgb(37,31,62)" fill-opacity="0.502"/>
<circle cx="1504.00" cy="2880.00" r="176.00" fill="rgb(0,0,34)" fill-opacity="0.502"/>
<circle cx="5504.00" cy="1504.00" r="432.00" fill="rgb(2,24,75)" fill-opacity="0.502"/>
<circle cx="7904.00" cy="2224.00" r="848.00" fill="rgb(0,0,0)" fill-opacity="0.502"/>
<circle cx="3872.00" cy="4384.00" r="528.00" fill="rgb(9,16,49)" fill-opacity="0.502"/>
<g transform="translate(336.00 3136.00) rotate(19) scale(688.00 1264.00)"><ellipse cx="0" cy="0" rx="1" ry="1" fill="rgb(0,0,0)" fill-opacity="0.502"/></g>
<circle cx="6384.00" cy="1968.00" r="240.00" fill="rgb(19,42,150)" fill-opacity="0.502"/>
<g transform="translate(1664.00 3248.00) rotate(272) scale(272.00 576.00)"><ellipse cx="0" cy="0" rx="1" ry="1" fill="rgb(36,62,195)" fill-opacity="0.502"/></g>
<g transform="translate(6464.00 3712.00) rotate(189) scale(496.00 48.00)"><ellipse cx="0" cy="0" rx="1" ry="1" fill="rgb(103,150,105)" fill-opacity="0.502"/></g>
<g transform="translate(6512.00 3888.00) rotate(125) scale(112.00 144.00)"><ellipse cx="0" cy="0" rx="1" ry="1" fill="rgb(3,0,44)" fill-opacity="0.502"/></g>
<circle cx="3392.00" cy="0.00" r="432.00" fill="rgb(0,7,80)" fill-opacity="0.502"/>
<g transform="translate(6832.00 3136.00) rotate(28) scale(272.00 176.00)"><ellipse cx="0" cy="0" rx="1" ry="1" fill="rgb(4,19,120)" fill-opacity="0.502"/></g>
<polygon points="5087.79,3357.20 2621.37,3616.43 2576.21,3186.80 5042.63,2927.57" fill="rgb(49,80,223)" fill-opacity="0.502"/>
<g transform="translate(1152.00 3616.00) rotate(272) scale(416.00 32.00)"><ellipse cx="0" cy="0" rx="1" ry="1" fill="rgb(35,61,200)" fill-opacity="0.502"/></g>
<circle cx="6528.00" cy="4592.00" r="544.00" fill="rgb(18,4,27)" fill-opacity="0.502"/>
<g transform="translate(1840.00 2272.00) rotate(329) scale(304.00 160.00)"><ellipse cx="0" cy="0" rx="1" ry="1" fill="rgb(27,54,120)" fill-opacity="0.502"/></g>
<g transform="translate(2752.00 2656.00) rotate(71) scale(320.00 160.00)"><ellipse cx="0" cy="0" rx="1" ry="1" fill="rgb(17,37,112)" fill-opacity="0.502"/></g>
<polygon points="4571.33,2161.75 4945.49,2075.37 5060.67,2574.25 4686.51,2660.63" fill="rgb(95,124,216)" fill-opacity="0.502"/>
<g transform="translate(3920.00 2768.00) rotate(278) scale(208.00 432.00)"><ellipse cx="0" cy="0" rx="1" ry="1" fill="rgb(124,97,113)" fill-opacity="0.502"/></g>
<polygon points="3923.86,2692.34 4035.59,2684.52 4060.14,3035.66 3948.41,3043.48" fill="rgb(47,49,164)" fill-opacity="0.502"/>
<polygon points="2882.89,1318.78 2972.80,1541.31 2765.11,1625.22 2675.20,1402.69" fill="rgb(255,255,255)" fill-opacity="0.502"/>
<polygon points="3934.08,911.79 3953.63,1471.45 3473.92,1488.21 3454.37,928.55" fill="rgb(0,44,160)" fill-opacity="0.502"/>
<g transform="translate(4160.00 3936.00) rotate(159) scale(384.00 432.00)"><ellipse cx="0" cy="0" rx="1" ry="1" fill="rgb(18,33,83)" fill-opacity="0.502"/></g>
<g transform="translate(4640.00 1296.00) rotate(326) scale(272.00 384.00)"><ellipse cx="0" cy="0" rx="1" ry="1" fill="rgb(0,17,95)" fill-opacity="0.502"/></g>
<polygon points="6768.00,3424.00 7056.00,3424.00 7056.00,3840.00 6768.00,3840.00" fill="rgb(11,22,104)" fill-opacity="0.502"/>
<circle cx="1664.00" cy="4416.00" r="592.00" fill="rgb(12,34,70)" fill-opacity="0.502"/>
<g transform="translate(2432.00 4448.00) rotate(69) scale(448.00 1136.00)"><ellipse cx="0" cy="0" rx="1" ry="1" fill="rgb(13,36,77)" fill-opacity="0.502"/></g>
<polygon points="6092.75,1368.78 5873.32,1236.93 5939.25,1127.22 6158.68,1259.07" fill="rgb(74,97,58)" fill-opacity="0.502"/>
<circle cx="2816.00" cy="2864.00" r="272.00" fill="rgb(35,36,114)" fill-opacity="0.502"/>
<polygon points="4638.24,2194.06 4451.29,2102.88 4689.76,1613.94 4876.71,1705.12" fill="rgb(1,39,187)" fill-opacity="0.502"/>
<polygon points="1622.16,2105.84 1637.43,2184.37 1401.84,2230.16 1386.57,2151.63" fill="rgb(212,255,255)" fill-opacity="0.502"/>
<polygon points="2208.00,656.00 2880.00,656.00 2880.00,1056.00 2208.00,1056.00" fill="rgb(0,51,177)" fill-opacity="0.502"/>
<circle cx="6320.00" cy="944.00" r="192.00" fill="rgb(12,29,68)" fill-opacity="0.502"/>
<circle cx="4736.00" cy="2480.00" r="112.00" fill="rgb(46,63,127)" fill-opacity="0.502"/>
<circle cx="3536.00" cy="3008.00" r="192.00" fill="rgb(47,31,104)" fill-opacity="0.502"/>
<circle cx="5344.00" cy="3152.00" r="192.00" fill="rgb(9,35,101)" fill-opacity="0.502"/>
<polygon points="5073.90,3642.99 4923.55,3697.71 4814.10,3397.01 4964.45,3342.29" fill="rgb(95,126,255)" fill-opacity="0.502"/>
<g transform="translate(624.00 4304.00) rotate(244) scale(640.00 448.00)"><ellipse cx="0" cy="0" rx="1" ry="1" fill="rgb(0,0,0)" fill-opacity="0.502"/></g>
<polygon points="3742.85,2901.68 2941.05,2625.60 2993.15,2474.32 3794.95,2750.40" fill="rgb(121,105,113)" fill-opacity="0.502"/>
<g transform="translate(4800.00 3776.00) rotate(175) scale(208.00 208.00)"><ellipse cx="0" cy="0" rx="1" ry="1" fill="rgb(50,53,152)" fill-opacity="0.502"/></g>
<g transform="translate(3120.00 1584.00) rotate(267) scale(272.00 112.00)"><ellipse cx="0" cy="0" rx="1" ry="1" fill="rgb(94,144,255)" fill-opacity="0.502"/></g>
<g transform="translate(6096.00 2864.00) rotate(114) scale(288.00 224.00)"><ellipse cx="0" cy="0" rx="1" ry="1" fill="rgb(8,17,78)" fill-opacity="0.502"/></g>
<polygon points="4069.40,3710.08 1560.84,3841.55 1546.60,3569.92 4055.16,3438.45" fill="rgb(26,54,166)" fill-opacity="0.502"/>
<circle cx="6080.00" cy="3344.00" r="80.00" fill="rgb(119,139,96)" fill-opacity="0.502"/>
<polygon points="3184.00,1888.00 3920.00,1888.00 3920.00,2160.00 3184.00,2160.00" fill="rgb(8,75,242)" fill-opacity="0.502"/>
<circle cx="5168.00" cy="1936.00" r="144.00" fill="rgb(92,118,213)" fill-opacity="0.502"/>
<circle cx="5840.00" cy="3296.00" r="112.00" fill="rgb(82,117,150)" fill-opacity="0.502"/>
<polygon points="6736.00,1136.00 6736.00,1680.00 6544.00,1680.00 6544.00,1136.00" fill="rgb(0,6,6)" fill-opacity="0.502"/>
<polygon points="2017.43,1481.47 2432.81,1313.64 2654.57,1862.53 2239.19,2030.36" fill="rgb(7,75,209)" fill-opacity="0.502"/>
<circle cx="7584.00" cy="1408.00" r="640.00" fill="rgb(0,0,0)" fill-opacity="0.502"/>
<polygon points="6914.38,1782.39 6739.05,1767.05 6797.62,1097.61 6972.95,1112.95" fill="rgb(34,108,166)" fill-opacity="0.502"/>
<g transform="translate(5744.00 1936.00) rotate(210) scale(496.00 128.00)"><ellipse cx="0" cy="0" rx="1" ry="1" fill="rgb(8,23,68)" fill-opacity="0.502"/></g>
<circle cx="7648.00" cy="3056.00" r="576.00" fill="rgb(0,0,0)" fill-opacity="0.502"/>
<circle cx="5408.00" cy="2240.00" r="288.00" fill="rgb(82,123,241)" fill-opacity="0.502"/>
<circle cx="2304.00" cy="2928.00" r="320.00" fill="rgb(34,53,148)" fill-opacity="0.502"/>
<polygon points="6784.00,2864.00 6784.00,2368.00 7056.00,2368.00 7056.00,2864.00" fill="rgb(0,10,79)" fill-opacity="0.502"/>
<circle cx="5600.00" cy="2592.00" r="256.00" fill="rgb(121,165,255)" fill-opacity="0.502"/>
<polygon points="3247.56,2385.58 3217.03,2228.52 3248.44,2222.42 3278.97,2379.48" fill="rgb(250,255,255)" fill-opacity="0.502"/>
<polygon points="1876.51,2994.52 1108.98,3021.32 1099.49,2749.48 1867.02,2722.68" fill="rgb(0,12,55)" fill-opacity="0.502"/>
<polygon points="2510.91,2253.76 2371.73,2099.19 2657.09,1842.24 2796.27,1996.81" fill="rgb(162,251,255)" fill-opacity="0.502"/>
<circle cx="1504.00" cy="672.00" r="400.00" fill="rgb(0,10,84)" fill-opacity="0.502"/>
<circle cx="2432.00" cy="0.00" r="384.00" fill="rgb(0,7,64)" fill-opacity="0.502"/>
<polygon points="1957.80,2163.61 1775.44,1789.71 2106.20,1628.39 2288.56,2002.29" fill="rgb(16,51,138)" fill-opacity="0.502"/>
<circle cx="6304.00" cy="2320.00" r="176.00" fill="rgb(4,11,60)" fill-opacity="0.502"/>
<polygon points="1775.85,2064.20 1515.74,2143.72 1408.15,1791.80 1668.26,1712.28" fill="rgb(17,36,103)" fill-opacity="0.502"/>
<g transform="translate(2720.00 1264.00) rotate(166) scale(272.00 112.00)"><ellipse cx="0" cy="0" rx="1" ry="1" fill="rgb(113,162,252)" fill-opacity="0.502"/></g>
<g transform="translate(2576.00 1664.00) rotate(238) scale(304.00 128.00)"><ellipse cx="0" cy="0" rx="1" ry="1" fill="rgb(70,124,255)" fill-opacity="0.502"/></g>
<circle cx="288.00" cy="144.00" r="848.00" fill="rgb(0,0,0)" fill-opacity="0.502"/>
<circle cx="6688.00" cy="352.00" r="416.00" fill="rgb(0,3,21)" fill-opacity="0.502"/>
<circle cx="5632.00" cy="1744.00" r="272.00" fill="rgb(5,26,85)" fill-opacity="0.502"/>
<g transform="translate(2640.00 3552.00) rotate(285) scale(128.00 592.00)"><ellipse cx="0" cy="0" rx="1" ry="1" fill="rgb(30,71,188)" fill-opacity="0.502"/></g>
<circle cx="704.00" cy="1280.00" r="400.00" fill="rgb(0,0,0)" fill-opacity="0.502"/>
<g transform="translate(1648.00 112.00) rotate(328) scale(624.00 256.00)"><ellipse cx="0" cy="0" rx="1" ry="1" fill="rgb(0,6,55)" fill-opacity="0.502"/></g>
<circle cx="4256.00" cy="1184.00" r="336.00" fill="rgb(0,23,120)" fill-opacity="0.502"/>
<g transform="translate(3088.00 3008.00) rotate(285) scale(96.00 320.00)"><ellipse cx="0" cy="0" rx="1" ry="1" fill="rgb(45,35,108)" fill-opacity="0.502"/></g>
<polygon points="1443.87,2424.68 1219.04,2674.38 1100.13,2567.32 1324.96,2317.62" fill="rgb(111,164,255)" fill-opacity="0.502"/>
<circle cx="224.00" cy="2304.00" r="880.00" fill="rgb(0,0,0)" fill-opacity="0.502"/>
<g transform="translate(1248.00 2112.00) rotate(285) scale(224.00 128.00)"><ellipse cx="0" cy="0" rx="1" ry="1" fill="rgb(15,52,197)" fill-opacity="0.502"/></g>
<polygon points="5524.98,2947.84 5570.54,2845.53 5819.02,2956.16 5773.46,3058.47" fill="rgb(58,54,103)" fill-opacity="0.502"/>
<polygon points="1488.00,1344.00 2048.00,1344.00 2048.00,1552.00 1488.00,1552.00" fill="rgb(0,43,179)" fill-opacity="0.502"/>
<polygon points="6668.65,4374.17 6471.63,4122.00 6963.35,3737.83 7160.37,3990.00" fill="rgb(4,8,52)" fill-opacity="0.502"/>
<polygon points="6044.93,2245.89 6089.11,2264.64 5939.07,2618.11 5894.89,2599.36" fill="rgb(135,157,244)" fill-opacity="0.502"/>
<polygon points="2080.00,3728.00 3344.00,3728.00 3344.00,3920.00 2080.00,3920.00" fill="rgb(18,39,125)" fill-opacity="0.502"/>
<polygon points="1345.66,3646.03 1121.69,3649.94 1118.34,3457.97 1342.31,3454.06" fill="rgb(41,74,198)" fill-opacity="0.502"/>
<circle cx="7600.00" cy="4176.00" r="560.00" fill="rgb(0,0,0)" fill-opacity="0.502"/>
<g transform="translate(5408.00 1792.00) rotate(359) scale(192.00 112.00)"><ellipse cx="0" cy="0" rx="1" ry="1" fill="rgb(12,53,103)" fill-opacity="0.502"/></g>
<g transform="translate(6096.00 3904.00) rotate(79) scale(192.00 384.00)"><ellipse cx="0" cy="0" rx="1" ry="1" fill="rgb(21,13,75)" fill-opacity="0.502"/></g>
<polygon points="3804.55,4461.54 3738.25,3921.60 4643.45,3810.46 4709.75,4350.40" fill="rgb(11,19,60)" fill-opacity="0.502"/>
<polygon points="5534.98,2116.86 5746.15,2335.54 5585.02,2491.14 5373.85,2272.46" fill="rgb(62,88,199)" fill-opacity="0.502"/>
<g transform="translate(4592.00 2320.00) rotate(138) scale(96.00 112.00)"><ellipse cx="0" cy="0" rx="1" ry="1" fill="rgb(163,187,244)" fill-opacity="0.502"/></g>
<circle cx="4640.00" cy="48.00" r="368.00" fill="rgb(0,6,34)" fill-opacity="0.502"/>
<g transform="translate(2480.00 2416.00) rotate(249) scale(208.00 80.00)"><ellipse cx="0" cy="0" rx="1" ry="1" fill="rgb(69,113,165)" fill-opacity="0.502"/></g>
<polygon points="4701.47,3376.89 4759.05,3626.33 4322.53,3727.11 4264.95,3477.67" fill="rgb(29,52,134)" fill-opacity="0.502"/>
<circle cx="3152.00" cy="2256.00" r="128.00" fill="rgb(160,222,255)" fill-opacity="0.502"/>
<g transform="translate(4192.00 640.00) rotate(33) scale(1472.00 240.00)"><ellipse cx="0" cy="0" rx="1" ry="1" fill="rgb(0,14,80)" fill-opacity="0.502"/></g>
<polygon points="2002.57,3098.86 1157.80,3172.77 1149.43,3077.14 1994.20,3003.23" fill="rgb(58,92,244)" fill-opacity="0.502"/>
<circle cx="1328.00" cy="1056.00" r="240.00" fill="rgb(0,15,104)" fill-opacity="0.502"/>
<polygon points="1977.69,3641.99 1215.52,4013.72 1110.31,3798.01 1872.48,3426.28" fill="rgb(13,36,147)" fill-opacity="0.502"/>
<polygon points="4898.76,3154.41 5110.55,3081.48 5277.24,3565.59 5065.45,3638.52" fill="rgb(24,60,192)" fill-opacity="0.502"/>
<circle cx="6864.00" cy="2096.00" r="240.00" fill="rgb(1,16,74)" fill-opacity="0.502"/>
<circle cx="640.00" cy="3792.00" r="464.00" fill="rgb(0,0,0)" fill-opacity="0.502"/>
<circle cx="4064.00" cy="2560.00" r="144.00" fill="rgb(131,162,211)" fill-opacity="0.502"/>
<polygon points="3301.33,1597.19 3859.97,1636.25 3818.67,2226.81 3260.03,2187.75" fill="rgb(17,86,236)" fill-opacity="0.502"/>
<circle cx="4176.00" cy="3664.00" r="192.00" fill="rgb(39,65,148)" fill-opacity="0.502"/>
<polygon points="3866.57,2635.94 3705.98,2457.59 3765.43,2404.06 3926.02,2582.41" fill="rgb(29,34,77)" fill-opacity="0.502"/>
<g transform="translate(1280.00 2000.00) rotate(355) scale(192.00 112.00)"><ellipse cx="0" cy="0" rx="1" ry="1" fill="rgb(22,32,111)" fill-opacity="0.502"/></g>
<polygon points="3616.00,2608.00 4496.00,2608.00 4496.00,2736.00 3616.00,2736.00" fill="rgb(144,125,112)" fill-opacity="0.502"/>
<polygon points="5597.20,3914.88 5469.50,4155.04 4946.80,3877.12 5074.50,3636.96" fill="rgb(25,28,110)" fill-opacity="0.502"/>
<polygon points="1427.47,2798.60 1282.98,2648.97 1340.53,2593.40 1485.02,2743.03" fill="rgb(11,21,89)" fill-opacity="0.502"/>
<g transform="translate(1504.00 3936.00) rotate(81) scale(96.00 400.00)"><ellipse cx="0" cy="0" rx="1" ry="1" fill="rgb(1,10,103)" fill-opacity="0.502"/></g>
<polygon points="5166.52,3062.85 5950.40,3049.17 5953.48,3225.15 5169.60,3238.83" fill="rgb(25,33,78)" fill-opacity="0.502"/>
<circle cx="1728.00" cy="1040.00" r="240.00" fill="rgb(0,24,119)" fill-opacity="0.502"/>
<g transform="translate(4432.00 1744.00) rotate(357) scale(336.00 112.00)"><ellipse cx="0" cy="0" rx="1" ry="1" fill="rgb(5,62,214)" fill-opacity="0.502"/></g>
<polygon points="4487.58,2259.92 5106.16,1997.35 5112.42,2012.08 4493.84,2274.65" fill="rgb(213,249,255)" fill-opacity="0.502"/>
<polygon points="3464.54,2837.54 3391.61,3049.34 3255.46,3002.46 3328.39,2790.66" fill="rgb(20,12,74)" fill-opacity="0.502"/>
<g transform="translate(2448.00 2240.00) rotate(27) scale(480.00 48.00)"><ellipse cx="0" cy="0" rx="1" ry="1" fill="rgb(127,198,237)" fill-opacity="0.502"/></g>
<polygon points="2501.15,1612.99 2590.18,1255.92 2698.85,1283.01 2609.82,1640.08" fill="rgb(128,174,255)" fill-opacity="0.502"/>
<circle cx="4368.00" cy="2912.00" r="112.00" fill="rgb(39,18,80)" fill-opacity="0.502"/>
<polygon points="4325.03,3642.42 4717.25,3971.53 4634.97,4069.58 4242.75,3740.47" fill="rgb(31,46,115)" fill-opacity="0.502"/>
<circle cx="7712.00" cy="3360.00" r="640.00" fill="rgb(0,0,0)" fill-opacity="0.502"/>
<circle cx="5856.00" cy="3696.00" r="160.00" fill="rgb(38,60,118)" fill-opacity="0.502"/>
<polygon points="4315.60,3090.18 4497.61,2888.05 4628.40,3005.82 4446.39,3207.95" fill="rgb(91,94,214)" fill-opacity="0.502"/>
<polygon points="2558.20,68.53 2836.06,356.26 2513.80,667.47 2235.94,379.74" fill="rgb(0,18,104)" fill-opacity="0.502"/>
<polygon points="3229.73,2659.47 3277.47,2654.46 3314.27,3004.53 3266.53,3009.54" fill="rgb(114,106,159)" fill-opacity="0.502"/>
<polygon points="5340.99,1547.91 5361.91,1786.99 5075.01,1812.09 5054.09,1573.01" fill="rgb(14,46,108)" fill-opacity="0.502"/>
<g transform="translate(7664.00 672.00) rotate(88) scale(8032.00 576.00)"><ellipse cx="0" cy="0" rx="1" ry="1" fill="rgb(0,0,0)" fill-opacity="0.502"/></g>
<polygon points="2268.13,2014.31 2365.74,2233.56 2131.87,2337.69 2034.26,2118.44" fill="rgb(118,189,231)" fill-opacity="0.502"/>
<circle cx="5024.00" cy="2560.00" r="208.00" fill="rgb(135,183,255)" fill-opacity="0.502"/>
<circle cx="3312.00" cy="880.00" r="208.00" fill="rgb(0,50,157)" fill-opacity="0.502"/>
<circle cx="6384.00" cy="2592.00" r="96.00" fill="rgb(89,115,235)" fill-opacity="0.502"/>
<circle cx="5392.00" cy="0.00" r="288.00" fill="rgb(0,6,23)" fill-opacity="0.502"/>
<polygon points="6000.35,1251.88 5832.40,1445.09 5711.65,1340.12 5879.60,1146.91" fill="rgb(39,64,56)" fill-opacity="0.502"/>
<g transform="translate(2720.00 2832.00) rotate(284) scale(48.00 640.00)"><ellipse cx="0" cy="0" rx="1" ry="1" fill="rgb(20,36,109)" fill-opacity="0.502"/></g>
<circle cx="5056.00" cy="2288.00" r="64.00" fill="rgb(38,32,189)" fill-opacity="0.502"/>
<circle cx="1776.00" cy="3312.00" r="224.00" fill="rgb(29,52,164)" fill-opacity="0.502"/>
<circle cx="2016.00" cy="2272.00" r="112.00" fill="rgb(3,34,111)" fill-opacity="0.502"/>
<g transform="translate(384.00 4400.00) rotate(63) scale(688.00 736.00)"><ellipse cx="0" cy="0" rx="1" ry="1" fill="rgb(0,0,0)" fill-opacity="0.502"/></g>
<circle cx="7072.00" cy="1680.00" r="160.00" fill="rgb(0,6,39)" fill-opacity="0.502"/>
<polygon points="2336.00,1152.00 2528.00,1152.00 2528.00,1584.00 2336.00,1584.00" fill="rgb(37,111,235)" fill-opacity="0.502"/>
<g transform="translate(1968.00 4592.00) rotate(49) scale(240.00 864.00)"><ellipse cx="0" cy="0" rx="1" ry="1" fill="rgb(16,44,86)" fill-opacity="0.502"/></g>
<circle cx="6928.00" cy="1936.00" r="144.00" fill="rgb(2,16,77)" fill-opacity="0.502"/>
<g transform="translate(3056.00 2560.00) rotate(154) scale(176.00 112.00)"><ellipse cx="0" cy="0" rx="1" ry="1" fill="rgb(62,81,118)" fill-opacity="0.502"/></g>
<g transform="translate(6400.00 3328.00) rotate(180) scale(160.00 160.00)"><ellipse cx="0" cy="0" rx="1" ry="1" fill="rgb(24,72,220)" fill-opacity="0.502"/></g>
<polygon points="4162.87,2181.99 4472.16,2313.27 4397.13,2490.01 4087.84,2358.73" fill="rgb(24,57,90)" fill-opacity="0.502"/>
<g transform="translate(2944.00 2208.00) rotate(255) scale(144.00 176.00)"><ellipse cx="0" cy="0" rx="1" ry="1" fill="rgb(141,200,255)" fill-opacity="0.502"/></g>
<circle cx="1424.00" cy="3472.00" r="112.00" fill="rgb(36,72,204)" fill-opacity="0.502"/>
<polygon points="2793.12,1861.14 2807.62,1653.65 3110.88,1674.86 3096.38,1882.35" fill="rgb(72,116,244)" fill-opacity="0.502"/>
<polygon points="3480.62,2634.38 3389.51,2429.75 3623.38,2325.62 3714.49,2530.25" fill="rgb(8,15,105)" fill-opacity="0.502"/>
<polygon points="2582.49,3621.57 2450.19,3160.17 2665.51,3098.43 2797.81,3559.83" fill="rgb(41,84,207)" fill-opacity="0.502"/>
<polygon points="5042.53,3206.49 4931.91,3188.97 4989.47,2825.51 5100.09,2843.03" fill="rgb(26,62,157)" fill-opacity="0.502"/>
<polygon points="4579.23,2946.07 4572.81,2578.12 4812.77,2573.93 4819.19,2941.88" fill="rgb(60,77,126)" fill-opacity="0.502"/>
<g transform="translate(5488.00 1232.00) rotate(355) scale(288.00 480.00)"><ellipse cx="0" cy="0" rx="1" ry="1" fill="rgb(0,9,61)" fill-opacity="0.502"/></g>
<g transform="translate(7024.00 1376.00) rotate(88) scale(640.00 48.00)"><ellipse cx="0" cy="0" rx="1" ry="1" fill="rgb(0,17,55)" fill-opacity="0.502"/></g>
<g transform="translate(6688.00 2224.00) rotate(355) scale(80.00 336.00)"><ellipse cx="0" cy="0" rx="1" ry="1" fill="rgb(14,30,126)" fill-opacity="0.502"/></g>
<polygon points="5673.03,2068.85 5537.37,2512.57 5414.97,2475.15 5550.63,2031.43" fill="rgb(92,137,248)" fill-opacity="0.502"/>
<g transform="translate(720.00 1744.00) rotate(154) scale(416.00 320.00)"><ellipse cx="0" cy="0" rx="1" ry="1" fill="rgb(0,0,0)" fill-opacity="0.502"/></g>
<circle cx="3168.00" cy="2000.00" r="128.00" fill="rgb(8,63,215)" fill-opacity="0.502"/>
<polygon points="4085.35,1949.83 4188.45,1993.60 3994.65,2450.17 3891.55,2406.40" fill="rgb(46,99,108)" fill-opacity="0.502"/>
<polygon points="6715.80,3422.87 6690.71,3661.56 6420.20,3633.13 6445.29,3394.44" fill="rgb(0,11,132)" fill-opacity="0.502"/>
<circle cx="2832.00" cy="1472.00" r="128.00" fill="rgb(235,255,255)" fill-opacity="0.502"/>
<g transform="translate(2544.00 672.00) rotate(175) scale(416.00 160.00)"><ellipse cx="0" cy="0" rx="1" ry="1" fill="rgb(0,29,140)" fill-opacity="0.502"/></g>
<circle cx="2464.00" cy="4592.00" r="336.00" fill="rgb(10,33,66)" fill-opacity="0.502"/>
<circle cx="4672.00" cy="2672.00" r="64.00" fill="rgb(153,157,235)" fill-opacity="0.502"/>
<polygon points="4553.25,1815.93 4400.64,2060.17 3830.75,1704.07 3983.36,1459.83" fill="rgb(8,62,207)" fill-opacity="0.502"/>
<circle cx="5312.00" cy="2304.00" r="80.00" fill="rgb(41,57,173)" fill-opacity="0.502"/>
<circle cx="6096.00" cy="4240.00" r="320.00" fill="rgb(21,11,46)" fill-opacity="0.502"/>
<g transform="translate(2032.00 2720.00) rotate(270) scale(128.00 208.00)"><ellipse cx="0" cy="0" rx="1" ry="1" fill="rgb(70,109,128)" fill-opacity="0.502"/></g>
<polygon points="6016.37,3064.16 5936.99,2787.32 6367.63,2663.84 6447.01,2940.68" fill="rgb(11,18,76)" fill-opacity="0.502"/>
<g transform="translate(4144.00 2480.00) rotate(97) scale(80.00 64.00)"><ellipse cx="0" cy="0" rx="1" ry="1" fill="rgb(140,198,255)" fill-opacity="0.502"/></g>
<circle cx="6432.00" cy="2160.00" r="160.00" fill="rgb(9,28,116)" fill-opacity="0.502"/>
<polygon points="1920.96,2243.84 1822.07,2296.42 1807.04,2268.16 1905.93,2215.58" fill="rgb(171,221,243)" fill-opacity="0.502"/>
<circle cx="1328.00" cy="2368.00" r="80.00" fill="rgb(159,213,255)" fill-opacity="0.502"/>
<polygon points="3853.55,2044.33 3858.58,1900.41 4066.45,1907.67 4061.42,2051.59" fill="rgb(11,74,250)" fill-opacity="0.502"/>
<polygon points="2136.95,2095.12 1534.21,1933.61 1559.05,1840.88 2161.79,2002.39" fill="rgb(26,46,119)" fill-opacity="0.502"/>
<g transform="translate(5984.00 2656.00) rotate(78) scale(80.00 160.00)"><ellipse cx="0" cy="0" rx="1" ry="1" fill="rgb(2,32,87)" fill-opacity="0.502"/></g>
<circle cx="3984.00" cy="2720.00" r="80.00" fill="rgb(90,80,213)" fill-opacity="0.502"/>
<polygon points="6045.70,3603.32 5975.99,3495.97 6338.30,3260.68 6408.01,3368.03" fill="rgb(11,30,159)" fill-opacity="0.502"/>
<polygon points="2783.48,2005.63 2832.51,2046.77 2688.52,2218.37 2639.49,2177.23" fill="rgb(62,116,223)" fill-opacity="0.502"/>
<circle cx="432.00" cy="656.00" r="704.00" fill="rgb(0,0,0)" fill-opacity="0.502"/>
<circle cx="4240.00" cy="2688.00" r="160.00" fill="rgb(118,112,86)" fill-opacity="0.502"/>
<polygon points="2174.13,3039.53 1936.47,3006.13 1969.87,2768.47 2207.53,2801.87" fill="rgb(22,41,148)" fill-opacity="0.502"/>
<g transform="translate(2032.00 1712.00) rotate(127) scale(112.00 448.00)"><ellipse cx="0" cy="0" rx="1" ry="1" fill="rgb(0,46,165)" fill-opacity="0.502"/></g>
<polygon points="4948.24,3020.68 4678.89,3058.54 4667.76,2979.32 4937.11,2941.46" fill="rgb(118,132,255)" fill-opacity="0.502"/>
<polygon points="4177.00,1585.99 3800.05,1512.72 3855.00,1230.01 4231.95,1303.28" fill="rgb(2,45,151)" fill-opacity="0.502"/>
<circle cx="2768.00" cy="1104.00" r="112.00" fill="rgb(31,98,214)" fill-opacity="0.502"/>
<circle cx="4496.00" cy="3728.00" r="32.00" fill="rgb(159,159,255)" fill-opacity="0.502"/>
<polygon points="5594.15,3071.63 5291.82,3039.85 5301.85,2944.37 5604.18,2976.15" fill="rgb(20,71,206)" fill-opacity="0.502"/>
<polygon points="5408.39,3828.20 5232.63,3818.99 5263.61,3227.80 5439.37,3237.01" fill="rgb(43,74,206)" fill-opacity="0.502"/>
<circle cx="3088.00" cy="576.00" r="192.00" fill="rgb(0,58,143)" fill-opacity="0.502"/>
<circle cx="2832.00" cy="2416.00" r="80.00" fill="rgb(169,165,137)" fill-opacity="0.502"/>
<g transform="translate(1376.00 1760.00) rotate(144) scale(256.00 256.00)"><ellipse cx="0" cy="0" rx="1" ry="1" fill="rgb(0,21,111)" fill-opacity="0.502"/></g>
<polygon points="4795.74,1988.15 4721.57,1759.90 4980.26,1675.85 5054.43,1904.10" fill="rgb(0,22,136)" fill-opacity="0.502"/>
<polygon points="1903.09,815.55 1735.63,601.22 2176.91,256.45 2344.37,470.78" fill="rgb(0,15,111)" fill-opacity="0.502"/>
<g transform="translate(5680.00 3872.00) rotate(105) scale(160.00 160.00)"><ellipse cx="0" cy="0" rx="1" ry="1" fill="rgb(32,21,109)" fill-opacity="0.502"/></g>
<g transform="translate(3152.00 1264.00) rotate(235) scale(432.00 80.00)"><ellipse cx="0" cy="0" rx="1" ry="1" fill="rgb(39,104,235)" fill-opacity="0.502"/></g>
<circle cx="6208.00" cy="1744.00" r="176.00" fill="rgb(6,27,114)" fill-opacity="0.502"/>
<polygon points="6139.34,4428.88 5805.57,4751.20 5716.66,4659.12 6050.43,4336.80" fill="rgb(13,6,33)" fill-opacity="0.502"/>
<polygon points="5777.38,2351.19 5762.36,2256.37 6062.62,2208.81 6077.64,2303.63" fill="rgb(41,43,185)" fill-opacity="0.502"/>
<polygon points="4886.90,793.73 3702.94,266.60 3833.10,-25.73 5017.06,501.40" fill="rgb(0,12,59)" fill-opacity="0.502"/>
<polygon points="3177.95,118.90 3827.80,464.43 3670.05,761.10 3020.20,415.57" fill="rgb(0,26,110)" fill-opacity="0.502"/>
<circle cx="2416.00" cy="4080.00" r="256.00" fill="rgb(18,41,97)" fill-opacity="0.502"/>
<polygon points="5110.71,2258.65 5154.36,2211.84 5353.29,2397.35 5309.64,2444.16" fill="rgb(53,75,191)" fill-opacity="0.502"/>
<g transform="translate(624.00 3168.00) rotate(269) scale(4176.00 480.00)"><ellipse cx="0" cy="0" rx="1" ry="1" fill="rgb(0,0,0)" fill-opacity="0.502"/></g>
<polygon points="3449.11,1948.27 3146.27,1921.78 3190.89,1411.73 3493.73,1438.22" fill="rgb(28,102,241)" fill-opacity="0.502"/>
<polygon points="6268.44,3146.22 6663.09,3321.93 6643.56,3365.78 6248.91,3190.07" fill="rgb(90,151,255)" fill-opacity="0.502"/>
<g transform="translate(4992.00 4000.00) rotate(302) scale(304.00 192.00)"><ellipse cx="0" cy="0" rx="1" ry="1" fill="rgb(14,17,76)" fill-opacity="0.502"/></g>
<g transform="translate(6000.00 496.00) rotate(236) scale(416.00 560.00)"><ellipse cx="0" cy="0" rx="1" ry="1" fill="rgb(0,7,41)" fill-opacity="0.502"/></g>
<circle cx="5632.00" cy="4384.00" r="288.00" fill="rgb(22,15,58)" fill-opacity="0.502"/>
<g transform="translate(2176.00 2608.00) rotate(16) scale(48.00 352.00)"><ellipse cx="0" cy="0" rx="1" ry="1" fill="rgb(12,44,134)" fill-opacity="0.502"/></g>
<polygon points="1102.36,2166.31 1235.01,2076.84 1297.64,2169.69 1164.99,2259.16" fill="rgb(24,99,255)" fill-opacity="0.502"/>
<circle cx="1536.00" cy="1952.00" r="176.00" fill="rgb(19,39,122)" fill-opacity="0.502"/>
<polygon points="1673.60,51.55 2130.17,245.35 2086.40,348.45 1629.83,154.65" fill="rgb(0,11,106)" fill-opacity="0.502"/>
<polygon points="6833.91,1238.33 6863.16,1000.12 7006.09,1017.67 6976.84,1255.88" fill="rgb(7,50,113)" fill-opacity="0.502"/>
<g transform="translate(4640.00 3312.00) rotate(288) scale(144.00 176.00)"><ellipse cx="0" cy="0" rx="1" ry="1" fill="rgb(30,68,211)" fill-opacity="0.502"/></g>
<g transform="translate(6256.00 960.00) rotate(18) scale(48.00 432.00)"><ellipse cx="0" cy="0" rx="1" ry="1" fill="rgb(8,19,59)" fill-opacity="0.502"/></g>
<g transform="translate(2288.00 2464.00) rotate(308) scale(96.00 608.00)"><ellipse cx="0" cy="0" rx="1" ry="1" fill="rgb(19,51,132)" fill-opacity="0.502"/></g>
<g transform="translate(6032.00 1200.00) rotate(31) scale(16.00 64.00)"><ellipse cx="0" cy="0" rx="1" ry="1" fill="rgb(75,103,73)" fill-opacity="0.502"/></g>
<g transform="translate(5344.00 2512.00) rotate(250) scale(160.00 224.00)"><ellipse cx="0" cy="0" rx="1" ry="1" fill="rgb(126,168,255)" fill-opacity="0.502"/></g>
<polygon points="4786.18,3891.32 4478.31,3720.67 4493.82,3692.68 4801.69,3863.33" fill="rgb(108,113,232)" fill-opacity="0.502"/>
<polygon points="5841.04,1552.73 5775.37,1372.30 6030.96,1279.27 6096.63,1459.70" fill="rgb(1,17,48)" fill-opacity="0.502"/>
<g transform="translate(6736.00 3088.00) rotate(348) scale(320.00 160.00)"><ellipse cx="0" cy="0" rx="1" ry="1" fill="rgb(13,36,131)" fill-opacity="0.502"/></g>
<g transform="translate(3600.00 3120.00) rotate(357) scale(272.00 128.00)"><ellipse cx="0" cy="0" rx="1" ry="1" fill="rgb(66,78,172)" fill-opacity="0.502"/></g>
<polygon points="1523.94,2716.90 1397.86,2618.40 1516.06,2467.10 1642.14,2565.60" fill="rgb(89,154,255)" fill-opacity="0.502"/>
<polygon points="2884.41,2950.37 3038.67,3134.22 2891.59,3257.63 2737.33,3073.78" fill="rgb(60,67,160)" fill-opacity="0.502"/>
<polygon points="6086.99,1408.71 6303.29,1110.99 6601.01,1327.29 6384.71,1625.01" fill="rgb(6,24,50)" fill-opacity="0.502"/>
<circle cx="2608.00" cy="2288.00" r="64.00" fill="rgb(164,255,255)" fill-opacity="0.502"/>
<polygon points="3124.71,1000.99 2875.29,856.99 2987.29,663.01 3236.71,807.01" fill="rgb(9,79,191)" fill-opacity="0.502"/>
<circle cx="7472.00" cy="1728.00" r="400.00" fill="rgb(0,0,0)" fill-opacity="0.502"/>
<g transform="translate(2512.00 2992.00) rotate(213) scale(288.00 64.00)"><ellipse cx="0" cy="0" rx="1" ry="1" fill="rgb(47,66,158)" fill-opacity="0.502"/></g>
<g transform="translate(6240.00 2560.00) rotate(337) scale(112.00 64.00)"><ellipse cx="0" cy="0" rx="1" ry="1" fill="rgb(101,126,242)" fill-opacity="0.502"/></g>
<circle cx="4560.00" cy="2432.00" r="64.00" fill="rgb(218,255,255)" fill-opacity="0.502"/>
<g transform="translate(2608.00 1040.00) rotate(47) scale(160.00 176.00)"><ellipse cx="0" cy="0" rx="1" ry="1" fill="rgb(11,81,201)" fill-opacity="0.502"/></g>
<polygon points="1570.94,2281.43 1626.00,2202.79 1757.06,2294.57 1702.00,2373.21" fill="rgb(4,38,120)" fill-opacity="0.502"/>
<polygon points="2486.56,1930.49 2276.62,1688.98 2409.44,1573.51 2619.38,1815.02" fill="rgb(7,77,207)" fill-opacity="0.502"/>
<polygon points="5642.02,3152.00 5799.00,3015.54 5861.98,3088.00 5705.00,3224.46" fill="rgb(49,63,144)" fill-opacity="0.502"/>
<polygon points="1545.01,4283.90 1543.06,4171.92 1990.99,4164.10 1992.94,4276.08" fill="rgb(0,12,53)" fill-opacity="0.502"/>
<polygon points="4460.50,3011.59 4406.23,2977.67 4499.50,2828.41 4553.77,2862.33" fill="rgb(39,55,151)" fill-opacity="0.502"/>
<circle cx="1216.00" cy="3264.00" r="64.00" fill="rgb(15,16,133)" fill-opacity="0.502"/>
<g transform="translate(3856.00 4224.00) rotate(208) scale(528.00 192.00)"><ellipse cx="0" cy="0" rx="1" ry="1" fill="rgb(11,19,56)" fill-opacity="0.502"/></g>
<polygon points="3429.57,2231.50 3485.57,2328.50 3402.43,2376.50 3346.43,2279.50" fill="rgb(131,125,96)" fill-opacity="0.502"/>
<circle cx="5488.00" cy="2784.00" r="144.00" fill="rgb(117,162,241)" fill-opacity="0.502"/>
<circle cx="6608.00" cy="2640.00" r="64.00" fill="rgb(0,20,92)" fill-opacity="0.502"/>
<polygon points="2450.51,3423.76 1523.07,3456.14 1517.49,3296.24 2444.93,3263.86" fill="rgb(28,66,197)" fill-opacity="0.502"/>
<polygon points="2366.75,2624.97 2385.72,2353.63 2577.25,2367.03 2558.28,2638.37" fill="rgb(54,86,148)" fill-opacity="0.502"/>
<polygon points="3072.00,3200.00 3952.00,3200.00 3952.00,3504.00 3072.00,3504.00" fill="rgb(36,73,215)" fill-opacity="0.502"/>
<polygon points="7102.83,3335.60 7038.11,3382.62 6737.17,2968.40 6801.89,2921.38" fill="rgb(22,32,133)" fill-opacity="0.502"/>
<g transform="translate(4752.00 1984.00) rotate(177) scale(80.00 160.00)"><ellipse cx="0" cy="0" rx="1" ry="1" fill="rgb(14,45,190)" fill-opacity="0.502"/></g>
<polygon points="6942.52,3772.62 6702.97,3585.46 6801.48,3459.38 7041.03,3646.54" fill="rgb(9,23,111)" fill-opacity="0.502"/>
<polygon points="1188.27,1963.80 1102.47,1265.05 1467.73,1220.20 1553.53,1918.95" fill="rgb(0,21,119)" fill-opacity="0.502"/>
<circle cx="6608.00" cy="2928.00" r="192.00" fill="rgb(34,43,155)" fill-opacity="0.502"/>
<circle cx="1712.00" cy="2528.00" r="112.00" fill="rgb(65,123,231)" fill-opacity="0.502"/>
<g transform="translate(5136.00 1584.00) rotate(6) scale(48.00 16.00)"><ellipse cx="0" cy="0" rx="1" ry="1" fill="rgb(154,169,213)" fill-opacity="0.502"/></g>
<polygon points="2977.64,3420.49 2577.71,3427.48 2574.36,3235.51 2974.29,3228.52" fill="rgb(48,93,220)" fill-opacity="0.502"/>
<circle cx="4592.00" cy="4032.00" r="144.00" fill="rgb(15,21,77)" fill-opacity="0.502"/>
<polygon points="1870.27,2872.94 1887.82,3015.86 1633.73,3047.06 1616.18,2904.14" fill="rgb(0,10,74)" fill-opacity="0.502"/>
<circle cx="2080.00" cy="2528.00" r="80.00" fill="rgb(75,116,161)" fill-opacity="0.502"/>
<polygon points="3424.00,176.00 1904.00,176.00 1904.00,0.00 3424.00,-0.00" fill="rgb(0,9,65)" fill-opacity="0.502"/>
<polygon points="5813.94,3359.57 5946.58,3449.04 5866.06,3568.43 5733.42,3478.96" fill="rgb(49,90,218)" fill-opacity="0.502"/>
<circle cx="6768.00" cy="720.00" r="320.00" fill="rgb(0,9,26)" fill-opacity="0.502"/>
<g transform="translate(5008.00 1360.00) rotate(203) scale(288.00 224.00)"><ellipse cx="0" cy="0" rx="1" ry="1" fill="rgb(0,15,80)" fill-opacity="0.502"/></g>
<polygon points="4851.74,2209.52 4836.23,2237.51 4780.26,2206.48 4795.77,2178.49" fill="rgb(193,236,255)" fill-opacity="0.502"/>
<circle cx="3424.00" cy="1168.00" r="176.00" fill="rgb(0,53,183)" fill-opacity="0.502"/>
<polygon points="4613.47,3468.53 4085.63,3600.14 4058.53,3491.47 4586.37,3359.86" fill="rgb(32,65,185)" fill-opacity="0.502"/>
<circle cx="5632.00" cy="928.00" r="288.00" fill="rgb(0,7,49)" fill-opacity="0.502"/>
<circle cx="5936.00" cy="3344.00" r="80.00" fill="rgb(94,121,139)" fill-opacity="0.502"/>
<polygon points="3299.39,2601.39 3261.05,2630.28 3116.61,2438.61 3154.95,2409.72" fill="rgb(0,59,146)" fill-opacity="0.502"/>
<polygon points="5322.30,3865.66 5053.88,4008.38 4933.70,3782.34 5202.12,3639.62" fill="rgb(27,38,111)" fill-opacity="0.502"/>
<circle cx="1216.00" cy="2416.00" r="64.00" fill="rgb(22,58,202)" fill-opacity="0.502"/>
<polygon points="3401.52,3660.71 4014.06,3541.64 4038.48,3667.29 3425.94,3786.36" fill="rgb(37,56,140)" fill-opacity="0.502"/>
<g transform="translate(6176.00 896.00) rotate(5) scale(48.00 512.00)"><ellipse cx="0" cy="0" rx="1" ry="1" fill="rgb(1,10,35)" fill-opacity="0.502"/></g>
<polygon points="4760.29,2700.69 4630.85,2606.64 4743.71,2451.31 4873.15,2545.36" fill="rgb(58,90,167)" fill-opacity="0.502"/>
<polygon points="5776.00,3680.00 5776.00,3568.00 6112.00,3568.00 6112.00,3680.00" fill="rgb(45,81,135)" fill-opacity="0.502"/>
<g transform="translate(5376.00 2112.00) rotate(265) scale(144.00 240.00)"><ellipse cx="0" cy="0" rx="1" ry="1" fill="rgb(103,162,255)" fill-opacity="0.502"/></g>
<circle cx="3792.00" cy="2336.00" r="128.00" fill="rgb(125,143,157)" fill-opacity="0.502"/>
<g transform="translate(1568.00 3776.00) rotate(54) scale(128.00 128.00)"><ellipse cx="0" cy="0" rx="1" ry="1" fill="rgb(20,41,151)" fill-opacity="0.502"/></g>
<g transform="translate(3504.00 3024.00) rotate(72) scale(64.00 288.00)"><ellipse cx="0" cy="0" rx="1" ry="1" fill="rgb(49,45,120)" fill-opacity="0.502"/></g>
<polygon points="3529.57,2493.38 3433.22,2600.39 3302.43,2482.62 3398.78,2375.61" fill="rgb(0,11,104)" fill-opacity="0.502"/>
<g transform="translate(6528.00 4592.00) rotate(137) scale(352.00 192.00)"><ellipse cx="0" cy="0" rx="1" ry="1" fill="rgb(26,9,18)" fill-opacity="0.502"/></g>
<g transform="translate(3488.00 720.00) rotate(35) scale(704.00 112.00)"><ellipse cx="0" cy="0" rx="1" ry="1" fill="rgb(0,32,127)" fill-opacity="0.502"/></g>
<circle cx="4144.00" cy="2880.00" r="160.00" fill="rgb(114,105,135)" fill-opacity="0.502"/>
<polygon points="1294.16,2619.73 1405.73,2629.49 1377.84,2948.27 1266.27,2938.51" fill="rgb(7,23,81)" fill-opacity="0.502"/>
<polygon points="1814.30,695.85 1888.68,536.34 2265.70,712.15 2191.32,871.66" fill="rgb(0,17,109)" fill-opacity="0.502"/>
<g transform="translate(6336.00 2336.00) rotate(351) scale(272.00 160.00)"><ellipse cx="0" cy="0" rx="1" ry="1" fill="rgb(10,18,76)" fill-opacity="0.502"/></g>
<polygon points="3336.88,3667.02 3732.51,3538.47 3767.12,3644.98 3371.49,3773.53" fill="rgb(36,56,152)" fill-opacity="0.502"/>
<circle cx="3040.00" cy="1904.00" r="144.00" fill="rgb(21,82,239)" fill-opacity="0.502"/>
<polygon points="6125.91,2494.39 6088.64,2355.30 6274.09,2305.61 6311.36,2444.70" fill="rgb(3,9,44)" fill-opacity="0.502"/>
<g transform="translate(1888.00 4048.00) rotate(75) scale(112.00 368.00)"><ellipse cx="0" cy="0" rx="1" ry="1" fill="rgb(19,27,75)" fill-opacity="0.502"/></g>
<polygon points="6324.41,2243.10 6267.08,2043.16 6651.59,1932.90 6708.92,2132.84" fill="rgb(13,35,128)" fill-opacity="0.502"/>
<circle cx="4448.00" cy="2416.00" r="64.00" fill="rgb(58,66,98)" fill-opacity="0.502"/>
<circle cx="4000.00" cy="4592.00" r="176.00" fill="rgb(7,12,37)" fill-opacity="0.502"/>
<polygon points="4144.00,2528.00 3936.00,2528.00 3936.00,2464.00 4144.00,2464.00" fill="rgb(123,198,255)" fill-opacity="0.502"/>
<polygon points="6658.10,3048.14 6210.37,3063.78 6205.90,2935.86 6653.63,2920.22" fill="rgb(28,35,151)" fill-opacity="0.502"/>
<g transform="translate(4768.00 4384.00) rotate(328) scale(128.00 592.00)"><ellipse cx="0" cy="0" rx="1" ry="1" fill="rgb(15,18,66)" fill-opacity="0.502"/></g>
<g transform="translate(4144.00 816.00) rotate(305) scale(176.00 496.00)"><ellipse cx="0" cy="0" rx="1" ry="1" fill="rgb(0,17,103)" fill-opacity="0.502"/></g>
<polygon points="4369.94,1641.65 4229.14,1116.19 4430.06,1062.35 4570.86,1587.81" fill="rgb(0,22,108)" fill-opacity="0.502"/>
<g transform="translate(5152.00 3120.00) rotate(76) scale(80.00 16.00)"><ellipse cx="0" cy="0" rx="1" ry="1" fill="rgb(92,120,184)" fill-opacity="0.502"/></g>
<polygon points="3801.06,1701.59 3340.68,1257.01 3462.94,1130.41 3923.32,1574.99" fill="rgb(0,64,187)" fill-opacity="0.502"/>
<polygon points="5414.77,3464.06 5277.62,3381.66 5401.23,3175.94 5538.38,3258.34" fill="rgb(29,69,183)" fill-opacity="0.502"/>
<g transform="translate(5376.00 3504.00) rotate(173) scale(480.00 32.00)"><ellipse cx="0" cy="0" rx="1" ry="1" fill="rgb(59,95,239)" fill-opacity="0.502"/></g>
<g transform="translate(1328.00 4384.00) rotate(152) scale(160.00 368.00)"><ellipse cx="0" cy="0" rx="1" ry="1" fill="rgb(19,42,74)" fill-opacity="0.502"/></g>
<polygon points="3074.24,2591.87 3537.11,2624.24 3533.76,2672.13 3070.89,2639.76" fill="rgb(143,131,156)" fill-opacity="0.502"/>
<polygon points="1193.03,2561.06 1337.02,2732.66 1238.97,2814.94 1094.98,2643.34" fill="rgb(67,102,222)" fill-opacity="0.502"/>
<polygon points="5140.06,1911.24 5327.14,1868.05 5355.94,1992.76 5168.86,2035.95" fill="rgb(28,54,165)" fill-opacity="0.502"/>
<g transform="translate(3072.00 2720.00) rotate(130) scale(112.00 192.00)"><ellipse cx="0" cy="0" rx="1" ry="1" fill="rgb(71,54,108)" fill-opacity="0.502"/></g>
<g transform="translate(5952.00 2400.00) rotate(82) scale(224.00 16.00)"><ellipse cx="0" cy="0" rx="1" ry="1" fill="rgb(120,162,248)" fill-opacity="0.502"/></g>
<g transform="translate(6960.00 2896.00) rotate(314) scale(80.00 144.00)"><ellipse cx="0" cy="0" rx="1" ry="1" fill="rgb(0,12,102)" fill-opacity="0.502"/></g>
<g transform="translate(4800.00 2464.00) rotate(131) scale(304.00 16.00)"><ellipse cx="0" cy="0" rx="1" ry="1" fill="rgb(73,99,192)" fill-opacity="0.502"/></g>
<polygon points="6541.78,1640.96 6495.01,1651.76 6466.22,1527.04 6512.99,1516.24" fill="rgb(88,146,223)" fill-opacity="0.502"/>
<circle cx="6528.00" cy="3632.00" r="64.00" fill="rgb(0,17,72)" fill-opacity="0.502"/>
<g transform="translate(2752.00 3648.00) rotate(95) scale(96.00 576.00)"><ellipse cx="0" cy="0" rx="1" ry="1" fill="rgb(31,64,167)" fill-opacity="0.502"/></g>
<circle cx="6192.00" cy="3328.00" r="64.00" fill="rgb(72,80,80)" fill-opacity="0.502"/>
<polygon points="4315.98,1784.07 4665.83,1977.99 4596.02,2103.93 4246.17,1910.01" fill="rgb(6,56,228)" fill-opacity="0.502"/>
<polygon points="6187.19,3723.24 6095.39,3695.17 6132.81,3572.76 6224.61,3600.83" fill="rgb(25,52,97)" fill-opacity="0.502"/>
<circle cx="5952.00" cy="3072.00" r="192.00" fill="rgb(16,25,88)" fill-opacity="0.502"/>
<g transform="translate(5536.00 4272.00) rotate(236) scale(144.00 752.00)"><ellipse cx="0" cy="0" rx="1" ry="1" fill="rgb(24,16,72)" fill-opacity="0.502"/></g>
<polygon points="3725.57,2380.41 3693.96,2385.42 3666.43,2211.59 3698.04,2206.58" fill="rgb(236,250,255)" fill-opacity="0.502"/>
<circle cx="5792.00" cy="2880.00" r="64.00" fill="rgb(171,180,232)" fill-opacity="0.502"/>
<circle cx="5520.00" cy="3792.00" r="192.00" fill="rgb(29,36,121)" fill-opacity="0.502"/>
<g transform="translate(4368.00 112.00) rotate(175) scale(208.00 160.00)"><ellipse cx="0" cy="0" rx="1" ry="1" fill="rgb(0,7,44)" fill-opacity="0.502"/></g>
<polygon points="7083.69,4423.24 6291.48,4534.58 6260.31,4312.76 7052.52,4201.42" fill="rgb(17,9,31)" fill-opacity="0.502"/>
<circle cx="5872.00" cy="2496.00" r="96.00" fill="rgb(148,192,255)" fill-opacity="0.502"/>
<circle cx="1920.00" cy="2480.00" r="112.00" fill="rgb(2,26,96)" fill-opacity="0.502"/>
<circle cx="6656.00" cy="1616.00" r="112.00" fill="rgb(2,23,57)" fill-opacity="0.502"/>
<polygon points="5842.29,2318.64 5825.72,2380.46 5485.71,2289.36 5502.28,2227.54" fill="rgb(37,47,165)" fill-opacity="0.502"/>
<circle cx="4000.00" cy="2368.00" r="96.00" fill="rgb(42,77,73)" fill-opacity="0.502"/>
<g transform="translate(6736.00 4048.00) rotate(61) scale(224.00 368.00)"><ellipse cx="0" cy="0" rx="1" ry="1" fill="rgb(8,10,49)" fill-opacity="0.502"/></g>
<g transform="translate(4752.00 2352.00) rotate(129) scale(32.00 176.00)"><ellipse cx="0" cy="0" rx="1" ry="1" fill="rgb(83,109,207)" fill-opacity="0.502"/></g>
<polygon points="2065.78,1236.75 2464.26,890.35 2590.22,1035.25 2191.74,1381.65" fill="rgb(1,65,193)" fill-opacity="0.502"/>
<circle cx="4144.00" cy="2016.00" r="128.00" fill="rgb(43,98,149)" fill-opacity="0.502"/>
</g>
</svg>