<?xml version="1.0" standalone="no"?>
<svg xmlns="http://www.w3.org/2000/svg" width="8192" height="4608" viewBox="0 0 8192 4608" style="overflow:hidden">
<defs>
<clipPath id="c"><rect x="0" y="0" width="8192" height="4608"/></clipPath>
</defs>
<rect width="8192" height="4608" fill="rgb(25,41,96)"/>
<g clip-path="url(#c)">
<g transform="translate(4928.00 2848.00) rotate(151) scale(1568.00 832.00)"><ellipse cx="0" cy="0" rx="1" ry="1" fill="rgb(127,160,249)" fill-opacity="0.502"/></g>
<g transform="translate(0.00 2144.00) rotate(0) scale(1152.00 4592.00)"><ellipse cx="0" cy="0" rx="1" ry="1" fill="rgb(0,0,0)" fill-opacity="0.502"/></g>
<circle cx="8176.00" cy="1456.00" r="2048.00" fill="rgb(0,0,0)" fill-opacity="0.502"/>
<g transform="translate(3280.00 1280.00) rotate(293) scale(1088.00 1312.00)"><ellipse cx="0" cy="0" rx="1" ry="1" fill="rgb(44,133,255)" fill-opacity="0.502"/></g>
<circle cx="2784.00" cy="3232.00" r="1728.00" fill="rgb(68,94,184)" fill-opacity="0.502"/>
<circle cx="7520.00" cy="4288.00" r="1184.00" fill="rgb(0,0,0)" fill-opacity="0.502"/>
<circle cx="5680.00" cy="2320.00" r="528.00" fill="rgb(128,185,255)" fill-opacity="0.502"/>
<g transform="translate(7856.00 2816.00) rotate(179) scale(768.00 4592.00)"><ellipse cx="0" cy="0" rx="1" ry="1" fill="rgb(0,0,0)" fill-opacity="0.502"/></g>
<circle cx="3040.00" cy="2016.00" r="304.00" fill="rgb(174,255,255)" fill-opacity="0.502"/>
<circle cx="1888.00" cy="4592.00" r="672.00" fill="rgb(77,179,255)" fill-opacity="0.502"/>
<g transform="translate(3584.00 4480.00) rotate(248) scale(496.00 560.00)"><ellipse cx="0" cy="0" rx="1" ry="1" fill="rgb(10,0,0)" fill-opacity="0.502"/></g>
<circle cx="3024.00" cy="960.00" r="320.00" fill="rgb(241,255,255)" fill-opacity="0.502"/>
<circle cx="0.00" cy="992.00" r="1456.00" fill="rgb(0,0,0)" fill-opacity="0.502"/>
<circle cx="5744.00" cy="416.00" r="1200.00" fill="rgb(0,0,34)" fill-opacity="0.502"/>
<circle cx="4336.00" cy="1280.00" r="928.00" fill="rgb(0,37,179)" fill-opacity="0.502"/>
<circle cx="0.00" cy="3472.00" r="1168.00" fill="rgb(0,0,0)" fill-opacity="0.502"/>
<g transform="translate(6672.00 2384.00) rotate(83) scale(1264.00 416.00)"><ellipse cx="0" cy="0" rx="1" ry="1" fill="rgb(27,53,163)" fill-opacity="0.502"/></g>
<circle cx="3424.00" cy="3856.00" r="288.00" fill="rgb(255,83,56)" fill-opacity="0.502"/>
<circle cx="1856.00" cy="1184.00" r="800.00" fill="rgb(0,18,154)" fill-opacity="0.502"/>
<polygon points="1131.60,1991.44 1979.47,1976.64 1988.40,2488.56 1140.53,2503.36" fill="rgb(90,158,255)" fill-opacity="0.502"/>
<polygon points="3799.34,3044.26 3292.93,2555.22 3848.66,1979.74 4355.07,2468.78" fill="rgb(99,60,63)" fill-opacity="0.502"/>
<circle cx="3216.00" cy="0.00" r="752.00" fill="rgb(0,42,200)" fill-opacity="0.502"/>
<circle cx="3312.00" cy="1504.00" r="416.00" fill="rgb(8,93,255)" fill-opacity="0.502"/>
<g transform="translate(4480.00 2384.00) rotate(158) scale(560.00 496.00)"><ellipse cx="0" cy="0" rx="1" ry="1" fill="rgb(129,129,109)" fill-opacity="0.502"/></g>
<g transform="translate(1568.00 2752.00) rotate(174) scale(784.00 128.00)"><ellipse cx="0" cy="0" rx="1" ry="1" fill="rgb(0,0,15)" fill-opacity="0.502"/></g>
<circle cx="4768.00" cy="640.00" r="848.00" fill="rgb(0,6,83)" fill-opacity="0.502"/>
<circle cx="1648.00" cy="3360.00" r="560.00" fill="rgb(20,51,200)" fill-opacity="0.502"/>
<g transform="translate(5344.00 4416.00) rotate(186) scale(1008.00 496.00)"><ellipse cx="0" cy="0" rx="1" ry="1" fill="rgb(39,0,35)" fill-opacity="0.502"/></g>
<circle cx="4288.00" cy="3728.00" r="560.00" fill="rgb(37,89,122)" fill-opacity="0.502"/>
<circle cx="672.00" cy="2448.00" r="432.00" fill="rgb(0,0,0)" fill-opacity="0.502"/>
<g transform="translate(4736.00 3856.00) rotate(360) scale(416.00 256.00)"><ellipse cx="0" cy="0" rx="1" ry="1" fill="rgb(55,41,50)" fill-opacity="0.502"/></g>
<circle cx="5792.00" cy="3232.00" r="528.00" fill="rgb(41,63,169)" fill-opacity="0.502"/>
<g transform="translate(2768.00 3216.00) rotate(184) scale(1680.00 336.00)"><ellipse cx="0" cy="0" rx="1" ry="1" fill="rgb(36,62,206)" fill-opacity="0.502"/></g>
<circle cx="1824.00" cy="160.00" r="704.00" fill="rgb(0,4,111)" fill-opacity="0.502"/>
<g transform="translate(2432.00 3744.00) rotate(295) scale(400.00 688.00)"><ellipse cx="0" cy="0" rx="1" ry="1" fill="rgb(7,16,78)" fill-opacity="0.502"/></g>
<g transform="translate(3408.00 2112.00) rotate(132) scale(176.00 192.00)"><ellipse cx="0" cy="0" rx="1" ry="1" fill="rgb(207,255,255)" fill-opacity="0.502"/></g>
<g transform="translate(624.00 1584.00) rotate(178) scale(464.00 4592.00)"><ellipse cx="0" cy="0" rx="1" ry="1" fill="rgb(0,0,0)" fill-opacity="0.502"/></g>
<polygon points="6000.58,2424.58 6180.39,1979.53 6447.42,2087.42 6267.61,2532.47" fill="rgb(113,153,255)" fill-opacity="0.502"/>
<g transform="translate(6432.00 1216.00) rotate(131) scale(832.00 592.00)"><ellipse cx="0" cy="0" rx="1" ry="1" fill="rgb(0,15,51)" fill-opacity="0.502"/></g>
<circle cx="2944.00" cy="2736.00" r="544.00" fill="rgb(43,49,122)" fill-opacity="0.502"/>
<circle cx="3232.00" cy="4592.00" r="448.00" fill="rgb(0,3,35)" fill-opacity="0.502"/>
<circle cx="2624.00" cy="1984.00" r="160.00" fill="rgb(167,255,255)" fill-opacity="0.502"/>
<g transform="translate(4080.00 3952.00) rotate(284) scale(208.00 224.00)"><ellipse cx="0" cy="0" rx="1" ry="1" fill="rgb(5,238,255)" fill-opacity="0.502"/></g>
<circle cx="2992.00" cy="3248.00" r="416.00" fill="rgb(43,80,202)" fill-opacity="0.502"/>
<circle cx="2752.00" cy="4032.00" r="304.00" fill="rgb(29,43,58)" fill-opacity="0.502"/>
<circle cx="5600.00" cy="3136.00" r="496.00" fill="rgb(46,73,173)" fill-opacity="0.502"/>
<polygon points="3678.91,727.89 3632.04,1398.25 3201.09,1368.11 3247.96,697.75" fill="rgb(38,118,255)" fill-opacity="0.502"/>
<circle cx="3408.00" cy="3888.00" r="224.00" fill="rgb(255,87,83)" fill-opacity="0.502"/>
<polygon points="5203.04,1846.08 5469.79,1569.86 5676.96,1769.92 5410.21,2046.14" fill="rgb(59,113,255)" fill-opacity="0.502"/>
<circle cx="2560.00" cy="992.00" r="288.00" fill="rgb(18,106,255)" fill-opacity="0.502"/>
<circle cx="7664.00" cy="4032.00" r="720.00" fill="rgb(0,0,0)" fill-opacity="0.502"/>
<g transform="translate(4000.00 1744.00) rotate(245) scale(352.00 368.00)"><ellipse cx="0" cy="0" rx="1" ry="1" fill="rgb(14,86,255)" fill-opacity="0.502"/></g>
<g transform="translate(7872.00 1120.00) rotate(90) scale(8176.00 800.00)"><ellipse cx="0" cy="0" rx="1" ry="1" fill="rgb(0,0,0)" fill-opacity="0.502"/></g>
<circle cx="4912.00" cy="1744.00" r="320.00" fill="rgb(9,59,223)" fill-opacity="0.502"/>
<circle cx="3024.00" cy="832.00" r="272.00" fill="rgb(180,221,255)" fill-opacity="0.502"/>
<g transform="translate(3952.00 272.00) rotate(116) scale(432.00 624.00)"><ellipse cx="0" cy="0" rx="1" ry="1" fill="rgb(0,19,134)" fill-opacity="0.502"/></g>
<circle cx="4048.00" cy="1024.00" r="448.00" fill="rgb(0,51,174)" fill-opacity="0.502"/>
<circle cx="5440.00" cy="2400.00" r="224.00" fill="rgb(162,211,255)" fill-opacity="0.502"/>
<circle cx="5840.00" cy="144.00" r="768.00" fill="rgb(0,0,28)" fill-opacity="0.502"/>
<g transform="translate(6176.00 2896.00) rotate(76) scale(160.00 656.00)"><ellipse cx="0" cy="0" rx="1" ry="1" fill="rgb(25,13,57)" fill-opacity="0.502"/></g>
<circle cx="2528.00" cy="4480.00" r="208.00" fill="rgb(87,171,255)" fill-opacity="0.502"/>
<circle cx="6352.00" cy="2608.00" r="192.00" fill="rgb(7,16,43)" fill-opacity="0.502"/>
<circle cx="6544.00" cy="4224.00" r="592.00" fill="rgb(23,2,42)" fill-opacity="0.502"/>
<circle cx="5888.00" cy="4304.00" r="304.00" fill="rgb(17,18,108)" fill-opacity="0.502"/>
<polygon points="3156.06,3906.06 2796.10,3829.55 2875.94,3453.94 3235.90,3530.45" fill="rgb(35,31,80)" fill-opacity="0.502"/>
<circle cx="2576.00" cy="384.00" r="464.00" fill="rgb(0,54,188)" fill-opacity="0.502"/>
<polygon points="5168.00,3104.00 6480.00,3104.00 6480.00,3424.00 5168.00,3424.00" fill="rgb(59,95,207)" fill-opacity="0.502"/>
<circle cx="2272.00" cy="1520.00" r="464.00" fill="rgb(0,36,143)" fill-opacity="0.502"/>
<g transform="translate(3936.00 3552.00) rotate(358) scale(928.00 144.00)"><ellipse cx="0" cy="0" rx="1" ry="1" fill="rgb(52,48,104)" fill-opacity="0.502"/></g>
<g transform="translate(5040.00 2288.00) rotate(330) scale(240.00 256.00)"><ellipse cx="0" cy="0" rx="1" ry="1" fill="rgb(142,171,221)" fill-opacity="0.502"/></g>
<circle cx="1424.00" cy="288.00" r="400.00" fill="rgb(0,4,57)" fill-opacity="0.502"/>
<circle cx="352.00" cy="1152.00" r="752.00" fill="rgb(0,0,0)" fill-opacity="0.502"/>
<g transform="translate(2192.00 3344.00) rotate(8) scale(976.00 304.00)"><ellipse cx="0" cy="0" rx="1" ry="1" fill="rgb(27,53,174)" fill-opacity="0.502"/></g>
<circle cx="6768.00" cy="1840.00" r="320.00" fill="rgb(8,33,118)" fill-opacity="0.502"/>
<circle cx="3072.00" cy="2624.00" r="368.00" fill="rgb(45,40,93)" fill-opacity="0.502"/>
<polygon points="6534.24,2514.78 6523.08,2355.17 7065.76,2317.22 7076.92,2476.83" fill="rgb(108,137,255)" fill-opacity="0.502"/>
<circle cx="4640.00" cy="2176.00" r="176.00" fill="rgb(12,59,69)" fill-opacity="0.502"/>
<circle cx="2192.00" cy="4448.00" r="352.00" fill="rgb(78,151,240)" fill-opacity="0.502"/>
<polygon points="4285.56,2398.68 4430.46,2272.72 4514.44,2369.32 4369.54,2495.28" fill="rgb(166,193,255)" fill-opacity="0.502"/>
<g transform="translate(2752.00 1376.00) rotate(212) scale(1088.00 208.00)"><ellipse cx="0" cy="0" rx="1" ry="1" fill="rgb(3,71,210)" fill-opacity="0.502"/></g>
<g transform="translate(5056.00 2704.00) rotate(182) scale(624.00 64.00)"><ellipse cx="0" cy="0" rx="1" ry="1" fill="rgb(49,48,67)" fill-opacity="0.502"/></g>
<g transform="translate(4160.00 4400.00) rotate(75) scale(192.00 864.00)"><ellipse cx="0" cy="0" rx="1" ry="1" fill="rgb(30,20,27)" fill-opacity="0.502"/></g>
<circle cx="416.00" cy="4080.00" r="688.00" fill="rgb(0,0,0)" fill-opacity="0.502"/>
<polygon points="6827.32,2585.55 7107.20,2740.69 6804.68,3286.45 6524.80,3131.31" fill="rgb(29,57,189)" fill-opacity="0.502"/>
<circle cx="4656.00" cy="1648.00" r="192.00" fill="rgb(15,72,231)" fill-opacity="0.502"/>
<circle cx="5504.00" cy="1984.00" r="320.00" fill="rgb(71,116,231)" fill-opacity="0.502"/>
<g transform="translate(3344.00 2352.00) rotate(29) scale(256.00 80.00)"><ellipse cx="0" cy="0" rx="1" ry="1" fill="rgb(143,138,89)" fill-opacity="0.502"/></g>
<circle cx="3280.00" cy="640.00" r="208.00" fill="rgb(32,106,243)" fill-opacity="0.502"/>
<circle cx="7744.00" cy="1920.00" r="672.00" fill="rgb(0,0,0)" fill-opacity="0.502"/>
<circle cx="4464.00" cy="4336.00" r="272.00" fill="rgb(63,55,72)" fill-opacity="0.502"/>
<circle cx="1952.00" cy="2384.00" r="160.00" fill="rgb(72,127,249)" fill-opacity="0.502"/>
<g transform="translate(208.00 2928.00) rotate(0) scale(896.00 4592.00)"><ellipse cx="0" cy="0" rx="1" ry="1" fill="rgb(0,0,0)" fill-opacity="0.502"/></g>
<polygon points="7067.66,3650.55 6615.55,3546.17 6644.34,3421.45 7096.45,3525.83" fill="rgb(97,135,125)" fill-opacity="0.502"/>
<polygon points="2849.16,1788.51 2999.20,2141.98 2910.84,2179.49 2760.80,1826.02" fill="rgb(196,255,255)" fill-opacity="0.502"/>
<circle cx="2032.00" cy="912.00" r="368.00" fill="rgb(0,41,154)" fill-opacity="0.502"/>
<polygon points="1912.72,3874.02 1417.15,4581.77 1063.28,4333.98 1558.85,3626.23" fill="rgb(54,116,176)" fill-opacity="0.502"/>
<circle cx="5424.00" cy="3872.00" r="368.00" fill="rgb(39,47,96)" fill-opacity="0.502"/>
<g transform="translate(6928.00 4592.00) rotate(207) scale(336.00 352.00)"><ellipse cx="0" cy="0" rx="1" ry="1" fill="rgb(16,3,1)" fill-opacity="0.502"/></g>
<g transform="translate(6384.00 1136.00) rotate(348) scale(320.00 208.00)"><ellipse cx="0" cy="0" rx="1" ry="1" fill="rgb(27,41,47)" fill-opacity="0.502"/></g>
<polygon points="4432.50,4083.76 5543.33,4444.69 5439.50,4764.24 4328.67,4403.31" fill="rgb(34,9,37)" fill-opacity="0.502"/>
<polygon points="5079.17,3736.84 5302.32,3258.31 5432.83,3319.16 5209.68,3797.69" fill="rgb(83,117,218)" fill-opacity="0.502"/>
<circle cx="2288.00" cy="3904.00" r="240.00" fill="rgb(14,23,68)" fill-opacity="0.502"/>
<g transform="translate(1360.00 1472.00) rotate(20) scale(192.00 576.00)"><ellipse cx="0" cy="0" rx="1" ry="1" fill="rgb(0,24,118)" fill-opacity="0.502"/></g>
<g transform="translate(2528.00 128.00) rotate(166) scale(976.00 224.00)"><ellipse cx="0" cy="0" rx="1" ry="1" fill="rgb(0,22,134)" fill-opacity="0.502"/></g>
<circle cx="2240.00" cy="2128.00" r="192.00" fill="rgb(0,20,90)" fill-opacity="0.502"/>
<g transform="translate(4480.00 3072.00) rotate(0) scale(992.00 256.00)"><ellipse cx="0" cy="0" rx="1" ry="1" fill="rgb(59,79,203)" fill-opacity="0.502"/></g>
<circle cx="4336.00" cy="3408.00" r="160.00" fill="rgb(92,109,142)" fill-opacity="0.502"/>
<polygon points="2765.80,465.32 2964.71,526.14 2754.20,1214.68 2555.29,1153.86" fill="rgb(68,131,255)" fill-opacity="0.502"/>
<g transform="translate(5104.00 1856.00) rotate(349) scale(352.00 96.00)"><ellipse cx="0" cy="0" rx="1" ry="1" fill="rgb(7,42,193)" fill-opacity="0.502"/></g>
<g transform="translate(4848.00 2528.00) rotate(88) scale(112.00 64.00)"><ellipse cx="0" cy="0" rx="1" ry="1" fill="rgb(248,244,219)" fill-opacity="0.502"/></g>
<polygon points="3330.89,3796.36 3383.37,3856.73 3021.11,4171.64 2968.63,4111.27" fill="rgb(191,210,236)" fill-opacity="0.502"/>
<circle cx="5872.00" cy="2448.00" r="320.00" fill="rgb(127,169,255)" fill-opacity="0.502"/>
<g transform="translate(3264.00 3168.00) rotate(172) scale(480.00 208.00)"><ellipse cx="0" cy="0" rx="1" ry="1" fill="rgb(52,89,222)" fill-opacity="0.502"/></g>
<g transform="translate(3520.00 1712.00) rotate(204) scale(592.00 256.00)"><ellipse cx="0" cy="0" rx="1" ry="1" fill="rgb(10,72,223)" fill-opacity="0.502"/></g>
<polygon points="3260.60,1054.30 3145.13,1187.13 2867.40,945.70 2982.87,812.87" fill="rgb(248,255,255)" fill-opacity="0.502"/>
<circle cx="5424.00" cy="1088.00" r="576.00" fill="rgb(0,14,72)" fill-opacity="0.502"/>
<g transform="translate(1456.00 2400.00) rotate(346) scale(384.00 160.00)"><ellipse cx="0" cy="0" rx="1" ry="1" fill="rgb(86,134,255)" fill-opacity="0.502"/></g>
<g transform="translate(3744.00 2768.00) rotate(182) scale(352.00 80.00)"><ellipse cx="0" cy="0" rx="1" ry="1" fill="rgb(16,7,86)" fill-opacity="0.502"/></g>
<g transform="translate(4080.00 0.00) rotate(123) scale(224.00 1296.00)"><ellipse cx="0" cy="0" rx="1" ry="1" fill="rgb(0,13,88)" fill-opacity="0.502"/></g>
<g transform="translate(1792.00 3872.00) rotate(118) scale(80.00 624.00)"><ellipse cx="0" cy="0" rx="1" ry="1" fill="rgb(58,107,196)" fill-opacity="0.502"/></g>
<polygon points="2645.55,1824.18 2991.08,1891.35 2954.45,2079.82 2608.92,2012.65" fill="rgb(154,244,255)" fill-opacity="0.502"/>
<polygon points="2749.00,1411.96 2772.71,1140.99 3219.00,1180.04 3195.29,1451.01" fill="rgb(77,138,253)" fill-opacity="0.502"/>
<circle cx="1472.00" cy="624.00" r="384.00" fill="rgb(0,17,92)" fill-opacity="0.502"/>
<circle cx="5984.00" cy="2112.00" r="208.00" fill="rgb(57,93,230)" fill-opacity="0.502"/>
<circle cx="7696.00" cy="512.00" r="720.00" fill="rgb(0,0,0)" fill-opacity="0.502"/>
<polygon points="4353.41,4384.90 4465.63,4614.99 4350.59,4671.10 4238.37,4441.01" fill="rgb(153,179,132)" fill-opacity="0.502"/>
<circle cx="6256.00" cy="1056.00" r="64.00" fill="rgb(106,128,64)" fill-opacity="0.502"/>
<circle cx="4480.00" cy="2032.00" r="256.00" fill="rgb(29,89,96)" fill-opacity="0.502"/>
<g transform="translate(6352.00 3168.00) rotate(275) scale(48.00 256.00)"><ellipse cx="0" cy="0" rx="1" ry="1" fill="rgb(107,128,99)" fill-opacity="0.502"/></g>
<circle cx="3824.00" cy="2288.00" r="176.00" fill="rgb(15,7,72)" fill-opacity="0.502"/>
<circle cx="1216.00" cy="2192.00" r="112.00" fill="rgb(5,8,87)" fill-opacity="0.502"/>
<g transform="translate(4176.00 3856.00) rotate(103) scale(128.00 176.00)"><ellipse cx="0" cy="0" rx="1" ry="1" fill="rgb(23,220,255)" fill-opacity="0.502"/></g>
<polygon points="3474.37,1494.10 3551.30,762.13 3853.63,793.90 3776.70,1525.87" fill="rgb(0,81,213)" fill-opacity="0.502"/>
<g transform="translate(2896.00 592.00) rotate(245) scale(144.00 416.00)"><ellipse cx="0" cy="0" rx="1" ry="1" fill="rgb(35,114,231)" fill-opacity="0.502"/></g>
<polygon points="2173.06,2263.63 1937.47,2309.43 1906.94,2152.37 2142.53,2106.57" fill="rgb(7,27,73)" fill-opacity="0.502"/>
<circle cx="4560.00" cy="2560.00" r="192.00" fill="rgb(144,120,101)" fill-opacity="0.502"/>
<polygon points="1611.50,2327.06 1827.50,1952.94 1924.50,2008.94 1708.50,2383.06" fill="rgb(159,204,255)" fill-opacity="0.502"/>
<polygon points="3654.02,3713.72 3834.44,3648.05 4025.98,4174.28 3845.56,4239.95" fill="rgb(61,39,97)" fill-opacity="0.502"/>
<g transform="translate(1456.00 2096.00) rotate(242) scale(192.00 240.00)"><ellipse cx="0" cy="0" rx="1" ry="1" fill="rgb(20,61,200)" fill-opacity="0.502"/></g>
<g transform="translate(3024.00 4240.00) rotate(168) scale(64.00 288.00)"><ellipse cx="0" cy="0" rx="1" ry="1" fill="rgb(33,81,129)" fill-opacity="0.502"/></g>
<polygon points="5972.29,1875.60 5979.55,2083.47 5723.71,2092.40 5716.45,1884.53" fill="rgb(108,166,255)" fill-opacity="0.502"/>
<polygon points="6700.29,2360.22 6197.12,1891.01 6371.71,1703.78 6874.88,2172.99" fill="rgb(0,4,46)" fill-opacity="0.502"/>
<g transform="translate(1456.00 4544.00) rotate(45) scale(352.00 352.00)"><ellipse cx="0" cy="0" rx="1" ry="1" fill="rgb(40,97,168)" fill-opacity="0.502"/></g>
<circle cx="2208.00" cy="1776.00" r="256.00" fill="rgb(17,41,114)" fill-opacity="0.502"/>
<g transform="translate(6176.00 3776.00) rotate(346) scale(480.00 256.00)"><ellipse cx="0" cy="0" rx="1" ry="1" fill="rgb(33,23,75)" fill-opacity="0.502"/></g>
<g transform="translate(7664.00 1392.00) rotate(150) scale(496.00 768.00)"><ellipse cx="0" cy="0" rx="1" ry="1" fill="rgb(0,0,0)" fill-opacity="0.502"/></g>
<g transform="translate(3440.00 4128.00) rotate(271) scale(48.00 400.00)"><ellipse cx="0" cy="0" rx="1" ry="1" fill="rgb(85,132,122)" fill-opacity="0.502"/></g>
<polygon points="4896.00,4608.00 4496.00,4608.00 4496.00,4416.00 4896.00,4416.00" fill="rgb(24,3,30)" fill-opacity="0.502"/>
<circle cx="1616.00" cy="1600.00" r="352.00" fill="rgb(3,24,98)" fill-opacity="0.502"/>
<polygon points="3233.14,3725.22 3553.09,3730.80 3550.86,3858.78 3230.91,3853.20" fill="rgb(255,17,5)" fill-opacity="0.502"/>
<circle cx="3728.00" cy="4480.00" r="304.00" fill="rgb(0,0,27)" fill-opacity="0.502"/>
<polygon points="3931.53,2445.65 3924.27,2653.52 3604.47,2642.35 3611.73,2434.48" fill="rgb(153,136,129)" fill-opacity="0.502"/>
<circle cx="3328.00" cy="2080.00" r="176.00" fill="rgb(141,214,255)" fill-opacity="0.502"/>
<g transform="translate(2368.00 1616.00) rotate(186) scale(496.00 272.00)"><ellipse cx="0" cy="0" rx="1" ry="1" fill="rgb(0,43,150)" fill-opacity="0.502"/></g>
<polygon points="4032.54,3694.88 4208.25,4089.53 4047.46,4161.12 3871.75,3766.47" fill="rgb(15,171,255)" fill-opacity="0.502"/>
<polygon points="6587.49,1015.45 6630.97,601.73 7076.51,648.55 7033.03,1062.27" fill="rgb(11,30,59)" fill-opacity="0.502"/>
<g transform="translate(1792.00 4224.00) rotate(263) scale(400.00 288.00)"><ellipse cx="0" cy="0" rx="1" ry="1" fill="rgb(60,127,214)" fill-opacity="0.502"/></g>
<circle cx="1248.00" cy="3664.00" r="160.00" fill="rgb(33,58,159)" fill-opacity="0.502"/>
<g transform="translate(2560.00 2576.00) rotate(98) scale(336.00 464.00)"><ellipse cx="0" cy="0" rx="1" ry="1" fill="rgb(33,55,121)" fill-opacity="0.502"/></g>
<g transform="translate(6720.00 3376.00) rotate(283) scale(128.00 384.00)"><ellipse cx="0" cy="0" rx="1" ry="1" fill="rgb(1,18,125)" fill-opacity="0.502"/></g>
<g transform="translate(6496.00 2400.00) rotate(300) scale(64.00 64.00)"><ellipse cx="0" cy="0" rx="1" ry="1" fill="rgb(125,148,255)" fill-opacity="0.502"/></g>
<g transform="translate(4384.00 4000.00) rotate(11) scale(208.00 80.00)"><ellipse cx="0" cy="0" rx="1" ry="1" fill="rgb(51,87,179)" fill-opacity="0.502"/></g>
<g transform="translate(3296.00 3488.00) rotate(113) scale(128.00 368.00)"><ellipse cx="0" cy="0" rx="1" ry="1" fill="rgb(41,55,168)" fill-opacity="0.502"/></g>
<polygon points="3996.81,3979.27 3214.72,3924.58 3219.19,3860.73 4001.28,3915.42" fill="rgb(184,190,255)" fill-opacity="0.502"/>
<circle cx="7760.00" cy="2784.00" r="688.00" fill="rgb(0,0,0)" fill-opacity="0.502"/>
<circle cx="1216.00" cy="3024.00" r="128.00" fill="rgb(64,109,255)" fill-opacity="0.502"/>
<g transform="translate(4064.00 416.00) rotate(130) scale(176.00 896.00)"><ellipse cx="0" cy="0" rx="1" ry="1" fill="rgb(0,28,133)" fill-opacity="0.502"/></g>
<polygon points="5114.62,2419.23 4899.89,2100.88 5125.38,1948.77 5340.11,2267.12" fill="rgb(83,115,195)" fill-opacity="0.502"/>
<g transform="translate(4880.00 4080.00) rotate(325) scale(272.00 400.00)"><ellipse cx="0" cy="0" rx="1" ry="1" fill="rgb(55,37,58)" fill-opacity="0.502"/></g>
<polygon points="6334.07,2368.21 6153.93,2472.21 6065.93,2319.79 6246.07,2215.79" fill="rgb(154,198,252)" fill-opacity="0.502"/>
<circle cx="2304.00" cy="2528.00" r="96.00" fill="rgb(107,146,101)" fill-opacity="0.502"/>
<circle cx="3312.00" cy="96.00" r="192.00" fill="rgb(0,54,171)" fill-opacity="0.502"/>
<g transform="translate(3072.00 4416.00) rotate(120) scale(128.00 48.00)"><ellipse cx="0" cy="0" rx="1" ry="1" fill="rgb(28,99,180)" fill-opacity="0.502"/></g>
<polygon points="6780.07,3095.04 6794.60,3066.53 6979.93,3160.96 6965.40,3189.47" fill="rgb(111,157,255)" fill-opacity="0.502"/>
<g transform="translate(224.00 3184.00) rotate(154) scale(896.00 832.00)"><ellipse cx="0" cy="0" rx="1" ry="1" fill="rgb(0,0,0)" fill-opacity="0.502"/></g>
<circle cx="6304.00" cy="1776.00" r="240.00" fill="rgb(0,11,68)" fill-opacity="0.502"/>
<polygon points="3773.28,2306.72 3693.28,2445.28 3554.72,2365.28 3634.72,2226.72" fill="rgb(0,12,92)" fill-opacity="0.502"/>
<polygon points="2742.05,730.96 2959.57,629.53 3033.95,789.04 2816.43,890.47" fill="rgb(136,171,242)" fill-opacity="0.502"/>
<polygon points="1330.95,3851.39 1455.97,4214.47 1229.05,4292.61 1104.03,3929.53" fill="rgb(48,89,127)" fill-opacity="0.502"/>
<g transform="translate(1824.00 1792.00) rotate(275) scale(128.00 560.00)"><ellipse cx="0" cy="0" rx="1" ry="1" fill="rgb(27,41,103)" fill-opacity="0.502"/></g>
<polygon points="3867.78,2139.32 3998.57,2021.56 4084.22,2116.68 3953.43,2234.44" fill="rgb(134,139,132)" fill-opacity="0.502"/>
<circle cx="2144.00" cy="2784.00" r="96.00" fill="rgb(0,0,58)" fill-opacity="0.502"/>
<polygon points="4570.57,1779.48 4872.02,1990.56 4789.43,2108.52 4487.98,1897.44" fill="rgb(37,88,103)" fill-opacity="0.502"/>
<polygon points="2250.39,2841.76 2316.54,2611.06 2885.61,2774.24 2819.46,3004.94" fill="rgb(40,53,152)" fill-opacity="0.502"/>
<g transform="translate(3616.00 704.00) rotate(53) scale(528.00 192.00)"><ellipse cx="0" cy="0" rx="1" ry="1" fill="rgb(0,65,198)" fill-opacity="0.502"/></g>
<polygon points="3034.62,1734.05 3234.06,1963.48 3125.38,2057.95 2925.94,1828.52" fill="rgb(117,186,247)" fill-opacity="0.502"/>
<polygon points="4768.00,1472.00 4768.00,1296.00 5136.00,1296.00 5136.00,1472.00" fill="rgb(0,13,76)" fill-opacity="0.502"/>
<g transform="translate(1536.00 1072.00) rotate(165) scale(432.00 272.00)"><ellipse cx="0" cy="0" rx="1" ry="1" fill="rgb(0,30,134)" fill-opacity="0.502"/></g>
<polygon points="5226.76,3876.71 4747.00,3429.32 4965.24,3195.29 5445.00,3642.68" fill="rgb(67,89,127)" fill-opacity="0.502"/>
<circle cx="6048.00" cy="3120.00" r="128.00" fill="rgb(68,90,152)" fill-opacity="0.502"/>
<circle cx="4240.00" cy="1728.00" r="256.00" fill="rgb(13,67,226)" fill-opacity="0.502"/>
<polygon points="1279.06,1402.45 1516.47,1782.37 1312.94,1909.55 1075.53,1529.63" fill="rgb(0,12,81)" fill-opacity="0.502"/>
<circle cx="2960.00" cy="992.00" r="176.00" fill="rgb(210,239,255)" fill-opacity="0.502"/>
<circle cx="4192.00" cy="3600.00" r="160.00" fill="rgb(56,60,85)" fill-opacity="0.502"/>
<polygon points="5576.00,2200.00 5576.00,2104.00 5944.00,2104.00 5944.00,2200.00" fill="rgb(21,50,166)" fill-opacity="0.502"/>
<g transform="translate(512.00 1296.00) rotate(110) scale(2720.00 288.00)"><ellipse cx="0" cy="0" rx="1" ry="1" fill="rgb(0,0,0)" fill-opacity="0.502"/></g>
<circle cx="2832.00" cy="2272.00" r="96.00" fill="rgb(73,117,135)" fill-opacity="0.502"/>
<polygon points="5924.08,2848.99 5903.38,2926.26 5547.92,2831.01 5568.62,2753.74" fill="rgb(37,83,214)" fill-opacity="0.502"/>
<g transform="translate(5744.00 1504.00) rotate(80) scale(160.00 336.00)"><ellipse cx="0" cy="0" rx="1" ry="1" fill="rgb(3,35,82)" fill-opacity="0.502"/></g>
<polygon points="3741.40,3843.28 3613.58,3836.58 3618.60,3740.72 3746.42,3747.42" fill="rgb(113,0,0)" fill-opacity="0.502"/>
<polygon points="6383.58,3183.98 6217.47,3058.80 6400.42,2816.02 6566.53,2941.20" fill="rgb(14,17,58)" fill-opacity="0.502"/>
<g transform="translate(4080.00 2896.00) rotate(235) scale(80.00 304.00)"><ellipse cx="0" cy="0" rx="1" ry="1" fill="rgb(73,55,125)" fill-opacity="0.502"/></g>
<circle cx="2800.00" cy="1552.00" r="176.00" fill="rgb(23,92,209)" fill-opacity="0.502"/>
<polygon points="4645.34,1036.27 4241.59,1469.23 4042.66,1283.73 4446.41,850.77" fill="rgb(0,29,126)" fill-opacity="0.502"/>
<polygon points="5148.51,3034.77 5372.32,3216.02 5251.49,3365.23 5027.68,3183.98" fill="rgb(83,121,229)" fill-opacity="0.502"/>
<g transform="translate(6480.00 2752.00) rotate(242) scale(112.00 624.00)"><ellipse cx="0" cy="0" rx="1" ry="1" fill="rgb(25,27,92)" fill-opacity="0.502"/></g>
<polygon points="3443.45,1955.13 3693.82,2061.41 3612.55,2252.87 3362.18,2146.59" fill="rgb(162,221,255)" fill-opacity="0.502"/>
<circle cx="5968.00" cy="2560.00" r="208.00" fill="rgb(130,169,244)" fill-opacity="0.502"/>
<polygon points="4524.38,3568.51 4674.06,3232.32 4995.62,3375.49 4845.94,3711.68" fill="rgb(85,95,125)" fill-opacity="0.502"/>
<g transform="translate(1536.00 2976.00) rotate(260) scale(48.00 400.00)"><ellipse cx="0" cy="0" rx="1" ry="1" fill="rgb(58,100,250)" fill-opacity="0.502"/></g>
<circle cx="1968.00" cy="3312.00" r="368.00" fill="rgb(31,52,165)" fill-opacity="0.502"/>
<polygon points="5086.95,2718.46 4915.47,2678.87 5009.05,2273.54 5180.53,2313.13" fill="rgb(67,86,110)" fill-opacity="0.502"/>
<circle cx="6528.00" cy="160.00" r="576.00" fill="rgb(0,10,34)" fill-opacity="0.502"/>
<g transform="translate(1920.00 1216.00) rotate(89) scale(448.00 192.00)"><ellipse cx="0" cy="0" rx="1" ry="1" fill="rgb(0,32,143)" fill-opacity="0.502"/></g>
<polygon points="2784.00,4483.14 2784.00,4483.14 2880.00,4316.86 2880.00,4316.86" fill="rgb(255,255,255)" fill-opacity="0.502"/>
<g transform="translate(1808.00 48.00) rotate(273) scale(192.00 656.00)"><ellipse cx="0" cy="0" rx="1" ry="1" fill="rgb(0,11,88)" fill-opacity="0.502"/></g>
<circle cx="5840.00" cy="2352.00" r="224.00" fill="rgb(119,162,248)" fill-opacity="0.502"/>
<circle cx="5136.00" cy="1696.00" r="208.00" fill="rgb(0,31,175)" fill-opacity="0.502"/>
<polygon points="4350.69,2291.48 4222.88,3016.30 4065.31,2988.52 4193.12,2263.70" fill="rgb(118,110,170)" fill-opacity="0.502"/>
<g transform="translate(3744.00 4080.00) rotate(318) scale(80.00 176.00)"><ellipse cx="0" cy="0" rx="1" ry="1" fill="rgb(107,41,27)" fill-opacity="0.502"/></g>
<g transform="translate(1328.00 240.00) rotate(276) scale(288.00 224.00)"><ellipse cx="0" cy="0" rx="1" ry="1" fill="rgb(0,9,61)" fill-opacity="0.502"/></g>
<polygon points="2309.26,2477.50 1910.77,2131.10 1994.74,2034.50 2393.23,2380.90" fill="rgb(22,50,110)" fill-opacity="0.502"/>
<circle cx="2672.00" cy="384.00" r="240.00" fill="rgb(0,55,179)" fill-opacity="0.502"/>
<g transform="translate(5664.00 1936.00) rotate(49) scale(80.00 208.00)"><ellipse cx="0" cy="0" rx="1" ry="1" fill="rgb(113,167,255)" fill-opacity="0.502"/></g>
<g transform="translate(2304.00 4240.00) rotate(12) scale(240.00 48.00)"><ellipse cx="0" cy="0" rx="1" ry="1" fill="rgb(101,167,251)" fill-opacity="0.502"/></g>
<g transform="translate(5072.00 0.00) rotate(195) scale(304.00 688.00)"><ellipse cx="0" cy="0" rx="1" ry="1" fill="rgb(0,12,65)" fill-opacity="0.502"/></g>
<g transform="translate(2752.00 1104.00) rotate(285) scale(128.00 160.00)"><ellipse cx="0" cy="0" rx="1" ry="1" fill="rgb(52,103,241)" fill-opacity="0.502"/></g>
<polygon points="760.00,4680.00 760.00,3624.00 1096.00,3624.00 1096.00,4680.00" fill="rgb(0,0,0)" fill-opacity="0.502"/>
<polygon points="1888.36,2760.93 1941.58,2510.52 2207.64,2567.07 2154.42,2817.48" fill="rgb(13,0,55)" fill-opacity="0.502"/>
<circle cx="5360.00" cy="2416.00" r="208.00" fill="rgb(143,191,252)" fill-opacity="0.502"/>
<polygon points="5017.04,2130.95 4912.86,2433.51 4806.96,2397.05 4911.14,2094.49" fill="rgb(236,255,255)" fill-opacity="0.502"/>
<polygon points="5024.00,2592.00 5024.00,2512.00 5168.00,2512.00 5168.00,2592.00" fill="rgb(130,151,170)" fill-opacity="0.502"/>
<circle cx="3936.00" cy="3952.00" r="112.00" fill="rgb(9,89,216)" fill-opacity="0.502"/>
<circle cx="2080.00" cy="464.00" r="160.00" fill="rgb(0,37,154)" fill-opacity="0.502"/>
<polygon points="5451.17,3728.76 6227.91,4026.93 6164.83,4191.24 5388.09,3893.07" fill="rgb(31,33,78)" fill-opacity="0.502"/>
<g transform="translate(2544.00 1312.00) rotate(113) scale(224.00 288.00)"><ellipse cx="0" cy="0" rx="1" ry="1" fill="rgb(5,69,199)" fill-opacity="0.502"/></g>
<circle cx="1248.00" cy="1968.00" r="160.00" fill="rgb(31,76,225)" fill-opacity="0.502"/>
<polygon points="4069.51,3601.71 4056.96,3745.16 3658.49,3710.29 3671.04,3566.84" fill="rgb(18,27,91)" fill-opacity="0.502"/>
<g transform="translate(2384.00 880.00) rotate(295) scale(304.00 144.00)"><ellipse cx="0" cy="0" rx="1" ry="1" fill="rgb(1,72,201)" fill-opacity="0.502"/></g>
<polygon points="3719.51,2007.71 4283.09,2402.33 4200.49,2520.29 3636.91,2125.67" fill="rgb(66,68,93)" fill-opacity="0.502"/>
<circle cx="2112.00" cy="4048.00" r="112.00" fill="rgb(35,61,132)" fill-opacity="0.502"/>
<g transform="translate(5280.00 2016.00) rotate(87) scale(80.00 224.00)"><ellipse cx="0" cy="0" rx="1" ry="1" fill="rgb(131,181,243)" fill-opacity="0.502"/></g>
<polygon points="6456.00,1560.00 6456.00,920.00 7048.00,920.00 7048.00,1560.00" fill="rgb(0,12,54)" fill-opacity="0.502"/>
<circle cx="3216.00" cy="2192.00" r="128.00" fill="rgb(144,182,212)" fill-opacity="0.502"/>
<g transform="translate(4480.00 4272.00) rotate(163) scale(144.00 272.00)"><ellipse cx="0" cy="0" rx="1" ry="1" fill="rgb(30,31,72)" fill-opacity="0.502"/></g>
<circle cx="7024.00" cy="2272.00" r="48.00" fill="rgb(74,115,223)" fill-opacity="0.502"/>
<polygon points="3428.24,1107.86 3319.65,1303.77 3067.76,1164.14 3176.35,968.23" fill="rgb(106,163,253)" fill-opacity="0.502"/>
<polygon points="6802.20,2658.96 6717.41,2523.27 6893.80,2413.04 6978.59,2548.73" fill="rgb(19,51,156)" fill-opacity="0.502"/>
<circle cx="5328.00" cy="3392.00" r="96.00" fill="rgb(101,126,255)" fill-opacity="0.502"/>
<g transform="translate(3360.00 2768.00) rotate(294) scale(160.00 368.00)"><ellipse cx="0" cy="0" rx="1" ry="1" fill="rgb(51,43,111)" fill-opacity="0.502"/></g>
<polygon points="3329.87,4040.37 3393.77,3677.96 3630.13,3719.63 3566.23,4082.04" fill="rgb(255,72,73)" fill-opacity="0.502"/>
<circle cx="3392.00" cy="2496.00" r="176.00" fill="rgb(77,62,104)" fill-opacity="0.502"/>
<circle cx="6832.00" cy="1904.00" r="272.00" fill="rgb(16,39,120)" fill-opacity="0.502"/>
<g transform="translate(720.00 1088.00) rotate(89) scale(3488.00 384.00)"><ellipse cx="0" cy="0" rx="1" ry="1" fill="rgb(0,0,0)" fill-opacity="0.502"/></g>
<circle cx="6400.00" cy="4592.00" r="368.00" fill="rgb(9,8,40)" fill-opacity="0.502"/>
<circle cx="2720.00" cy="4176.00" r="192.00" fill="rgb(21,42,74)" fill-opacity="0.502"/>
<circle cx="2432.00" cy="3792.00" r="160.00" fill="rgb(18,25,74)" fill-opacity="0.502"/>
<circle cx="3792.00" cy="3824.00" r="64.00" fill="rgb(35,0,12)" fill-opacity="0.502"/>
<g transform="translate(4784.00 2752.00) rotate(143) scale(128.00 80.00)"><ellipse cx="0" cy="0" rx="1" ry="1" fill="rgb(53,38,102)" fill-opacity="0.502"/></g>
<polygon points="2709.71,4386.31 2491.03,4175.13 3002.29,3645.69 3220.97,3856.87" fill="rgb(28,42,80)" fill-opacity="0.502"/>
<polygon points="2138.34,2471.16 2028.39,2449.79 2101.66,2072.84 2211.61,2094.21" fill="rgb(67,111,187)" fill-opacity="0.502"/>
<circle cx="6544.00" cy="3904.00" r="368.00" fill="rgb(26,16,57)" fill-opacity="0.502"/>
<circle cx="2336.00" cy="1328.00" r="176.00" fill="rgb(0,45,166)" fill-opacity="0.502"/>
<polygon points="4002.05,767.83 4220.31,818.22 4061.95,1504.17 3843.69,1453.78" fill="rgb(0,51,167)" fill-opacity="0.502"/>
<g transform="translate(5584.00 4128.00) rotate(205) scale(112.00 272.00)"><ellipse cx="0" cy="0" rx="1" ry="1" fill="rgb(31,16,65)" fill-opacity="0.502"/></g>
<g transform="translate(1856.00 2096.00) rotate(150) scale(48.00 96.00)"><ellipse cx="0" cy="0" rx="1" ry="1" fill="rgb(163,202,255)" fill-opacity="0.502"/></g>
<g transform="translate(4688.00 3808.00) rotate(177) scale(352.00 128.00)"><ellipse cx="0" cy="0" rx="1" ry="1" fill="rgb(39,47,67)" fill-opacity="0.502"/></g>
<g transform="translate(1728.00 2512.00) rotate(288) scale(64.00 64.00)"><ellipse cx="0" cy="0" rx="1" ry="1" fill="rgb(0,8,96)" fill-opacity="0.502"/></g>
<g transform="translate(3408.00 4592.00) rotate(36) scale(336.00 432.00)"><ellipse cx="0" cy="0" rx="1" ry="1" fill="rgb(0,8,47)" fill-opacity="0.502"/></g>
<polygon points="5312.57,2914.22 5330.39,2787.47 5631.43,2829.78 5613.61,2956.53" fill="rgb(20,58,142)" fill-opacity="0.502"/>
<g transform="translate(7632.00 3120.00) rotate(134) scale(592.00 496.00)"><ellipse cx="0" cy="0" rx="1" ry="1" fill="rgb(0,0,0)" fill-opacity="0.502"/></g>
<polygon points="6500.64,2351.17 6397.43,2082.30 6651.36,1984.83 6754.57,2253.70" fill="rgb(8,20,68)" fill-opacity="0.502"/>
<g transform="translate(5952.00 784.00) rotate(140) scale(496.00 320.00)"><ellipse cx="0" cy="0" rx="1" ry="1" fill="rgb(0,7,48)" fill-opacity="0.502"/></g>
<g transform="translate(6000.00 2816.00) rotate(201) scale(144.00 96.00)"><ellipse cx="0" cy="0" rx="1" ry="1" fill="rgb(60,57,127)" fill-opacity="0.502"/></g>
<polygon points="2774.64,2174.30 2740.83,2101.80 3161.36,1905.70 3195.17,1978.20" fill="rgb(81,146,221)" fill-opacity="0.502"/>
<circle cx="2384.00" cy="2208.00" r="96.00" fill="rgb(0,14,99)" fill-opacity="0.502"/>
<circle cx="4112.00" cy="2176.00" r="128.00" fill="rgb(142,150,134)" fill-opacity="0.502"/>
<circle cx="5600.00" cy="2432.00" r="160.00" fill="rgb(144,189,248)" fill-opacity="0.502"/>
<circle cx="7552.00" cy="4336.00" r="496.00" fill="rgb(0,0,0)" fill-opacity="0.502"/>
<polygon points="1824.75,2333.55 1801.82,2273.80 2175.25,2130.45 2198.18,2190.20" fill="rgb(9,29,80)" fill-opacity="0.502"/>
<g transform="translate(5344.00 4144.00) rotate(118) scale(208.00 384.00)"><ellipse cx="0" cy="0" rx="1" ry="1" fill="rgb(30,17,78)" fill-opacity="0.502"/></g>
<polygon points="5658.73,311.98 5707.57,563.27 5189.27,664.02 5140.43,412.73" fill="rgb(0,11,62)" fill-opacity="0.502"/>
<polygon points="7072.00,3280.00 6800.00,3280.00 6800.00,3136.00 7072.00,3136.00" fill="rgb(40,68,226)" fill-opacity="0.502"/>
<g transform="translate(7792.00 672.00) rotate(322) scale(512.00 1008.00)"><ellipse cx="0" cy="0" rx="1" ry="1" fill="rgb(0,0,0)" fill-opacity="0.502"/></g>
<polygon points="6955.29,3501.96 6964.78,3230.13 7076.71,3234.04 7067.22,3505.87" fill="rgb(18,42,171)" fill-opacity="0.502"/>
<circle cx="2448.00" cy="4464.00" r="224.00" fill="rgb(76,144,224)" fill-opacity="0.502"/>
<g transform="translate(6224.00 1552.00) rotate(48) scale(336.00 400.00)"><ellipse cx="0" cy="0" rx="1" ry="1" fill="rgb(1,17,71)" fill-opacity="0.502"/></g>
<polygon points="3064.70,761.29 3195.42,962.57 2967.30,1110.71 2836.58,909.43" fill="rgb(230,254,255)" fill-opacity="0.502"/>
<polygon points="6165.43,2084.69 6170.45,2228.61 5978.57,2235.31 5973.55,2091.39" fill="rgb(31,52,165)" fill-opacity="0.502"/>
<circle cx="3712.00" cy="3424.00" r="192.00" fill="rgb(41,66,164)" fill-opacity="0.502"/>
<circle cx="3968.00" cy="4592.00" r="320.00" fill="rgb(0,2,33)" fill-opacity="0.502"/>
<g transform="translate(2960.00 2144.00) rotate(182) scale(112.00 64.00)"><ellipse cx="0" cy="0" rx="1" ry="1" fill="rgb(166,246,255)" fill-opacity="0.502"/></g>
<circle cx="1488.00" cy="2736.00" r="176.00" fill="rgb(15,25,79)" fill-opacity="0.502"/>
<polygon points="3836.85,2276.03 3976.57,2241.20 4019.15,2411.97 3879.43,2446.80" fill="rgb(17,11,82)" fill-opacity="0.502"/>
<polygon points="5180.72,2812.20 5084.95,2818.90 5059.28,2451.80 5155.05,2445.10" fill="rgb(78,92,118)" fill-opacity="0.502"/>
<g transform="translate(3536.00 2720.00) rotate(168) scale(80.00 256.00)"><ellipse cx="0" cy="0" rx="1" ry="1" fill="rgb(84,70,133)" fill-opacity="0.502"/></g>
<g transform="translate(1360.00 1632.00) rotate(82) scale(352.00 240.00)"><ellipse cx="0" cy="0" rx="1" ry="1" fill="rgb(4,19,99)" fill-opacity="0.502"/></g>
<g transform="translate(192.00 384.00) rotate(300) scale(784.00 960.00)"><ellipse cx="0" cy="0" rx="1" ry="1" fill="rgb(0,0,0)" fill-opacity="0.502"/></g>
<polygon points="4886.86,2720.50 4676.92,2478.99 4713.14,2447.50 4923.08,2689.01" fill="rgb(160,148,134)" fill-opacity="0.502"/>
<polygon points="4233.45,4698.70 4296.65,4401.34 4390.55,4421.30 4327.35,4718.66" fill="rgb(123,130,102)" fill-opacity="0.502"/>
<circle cx="3920.00" cy="2160.00" r="80.00" fill="rgb(50,55,84)" fill-opacity="0.502"/>
<polygon points="1418.78,4404.46 1470.23,4572.77 1317.22,4619.54 1265.77,4451.23" fill="rgb(12,59,113)" fill-opacity="0.502"/>
<circle cx="1952.00" cy="3712.00" r="176.00" fill="rgb(7,23,114)" fill-opacity="0.502"/>
<circle cx="6000.00" cy="2272.00" r="144.00" fill="rgb(107,146,240)" fill-opacity="0.502"/>
<polygon points="2768.00,4512.00 3632.00,4512.00 3632.00,4592.00 2768.00,4592.00" fill="rgb(0,2,33)" fill-opacity="0.502"/>
<circle cx="3104.00" cy="688.00" r="80.00" fill="rgb(138,190,233)" fill-opacity="0.502"/>
<polygon points="1245.49,2686.35 1222.95,2643.97 1618.51,2433.65 1641.05,2476.03" fill="rgb(97,131,218)" fill-opacity="0.502"/>
<polygon points="2832.62,1180.54 2974.84,1158.02 3007.38,1363.46 2865.16,1385.98" fill="rgb(101,165,237)" fill-opacity="0.502"/>
<polygon points="6475.83,3222.56 6594.53,3412.52 6228.17,3641.44 6109.47,3451.48" fill="rgb(31,57,126)" fill-opacity="0.502"/>
<circle cx="7536.00" cy="3920.00" r="464.00" fill="rgb(0,0,0)" fill-opacity="0.502"/>
<polygon points="4714.92,2050.31 5037.90,2142.93 5029.08,2173.69 4706.10,2081.07" fill="rgb(147,159,243)" fill-opacity="0.502"/>
<polygon points="2253.10,4412.36 1857.46,4283.81 1906.90,4131.64 2302.54,4260.19" fill="rgb(79,150,238)" fill-opacity="0.502"/>
<g transform="translate(3072.00 2912.00) rotate(2) scale(320.00 80.00)"><ellipse cx="0" cy="0" rx="1" ry="1" fill="rgb(66,74,160)" fill-opacity="0.502"/></g>
<g transform="translate(1504.00 4080.00) rotate(90) scale(144.00 112.00)"><ellipse cx="0" cy="0" rx="1" ry="1" fill="rgb(48,97,152)" fill-opacity="0.502"/></g>
<polygon points="5841.77,3116.38 5783.76,3414.79 5438.23,3347.62 5496.24,3049.21" fill="rgb(26,61,184)" fill-opacity="0.502"/>
<g transform="translate(2832.00 3216.00) rotate(199) scale(416.00 128.00)"><ellipse cx="0" cy="0" rx="1" ry="1" fill="rgb(33,75,200)" fill-opacity="0.502"/></g>
<circle cx="5504.00" cy="2160.00" r="80.00" fill="rgb(43,69,172)" fill-opacity="0.502"/>
<polygon points="1904.07,1376.05 2018.99,1691.78 1567.93,1855.95 1453.01,1540.22" fill="rgb(3,24,120)" fill-opacity="0.502"/>
<g transform="translate(2848.00 1952.00) rotate(6) scale(96.00 192.00)"><ellipse cx="0" cy="0" rx="1" ry="1" fill="rgb(155,232,253)" fill-opacity="0.502"/></g>
<polygon points="6384.00,1136.00 6432.00,1136.00 6432.00,1200.00 6384.00,1200.00" fill="rgb(99,110,86)" fill-opacity="0.502"/>
<circle cx="3632.00" cy="4000.00" r="64.00" fill="rgb(221,38,28)" fill-opacity="0.502"/>
<circle cx="3488.00" cy="976.00" r="176.00" fill="rgb(30,106,249)" fill-opacity="0.502"/>
<g transform="translate(5664.00 1648.00) rotate(151) scale(112.00 112.00)"><ellipse cx="0" cy="0" rx="1" ry="1" fill="rgb(10,57,98)" fill-opacity="0.502"/></g>
<polygon points="3817.22,1439.47 3778.75,1805.46 3046.78,1728.53 3085.25,1362.54" fill="rgb(15,84,219)" fill-opacity="0.502"/>
<polygon points="5607.40,2913.97 5805.18,3019.14 5752.60,3118.03 5554.82,3012.86" fill="rgb(53,39,61)" fill-opacity="0.502"/>
<circle cx="6752.00" cy="2880.00" r="144.00" fill="rgb(12,25,123)" fill-opacity="0.502"/>
<polygon points="4416.59,3698.43 4355.53,3384.31 4575.41,3341.57 4636.47,3655.69" fill="rgb(77,93,118)" fill-opacity="0.502"/>
<polygon points="5362.60,2922.84 4692.56,3264.24 4605.40,3093.16 5275.44,2751.76" fill="rgb(70,93,208)" fill-opacity="0.502"/>
<circle cx="5680.00" cy="2672.00" r="96.00" fill="rgb(47,86,194)" fill-opacity="0.502"/>
<g transform="translate(4400.00 2096.00) rotate(245) scale(176.00 224.00)"><ellipse cx="0" cy="0" rx="1" ry="1" fill="rgb(39,78,91)" fill-opacity="0.502"/></g>
<polygon points="4217.56,3113.90 4109.97,3465.82 3574.44,3302.10 3682.03,2950.18" fill="rgb(46,77,201)" fill-opacity="0.502"/>
<g transform="translate(5024.00 2560.00) rotate(192) scale(48.00 16.00)"><ellipse cx="0" cy="0" rx="1" ry="1" fill="rgb(158,191,218)" fill-opacity="0.502"/></g>
<polygon points="2688.49,2501.90 2446.14,2378.41 2511.51,2250.10 2753.86,2373.59" fill="rgb(0,31,113)" fill-opacity="0.502"/>
<polygon points="4614.43,1738.33 4347.40,1846.22 4185.57,1445.67 4452.60,1337.78" fill="rgb(10,62,202)" fill-opacity="0.502"/>
<circle cx="6880.00" cy="3872.00" r="224.00" fill="rgb(17,11,61)" fill-opacity="0.502"/>
<circle cx="3312.00" cy="880.00" r="96.00" fill="rgb(84,119,255)" fill-opacity="0.502"/>
<g transform="translate(7728.00 3728.00) rotate(299) scale(784.00 592.00)"><ellipse cx="0" cy="0" rx="1" ry="1" fill="rgb(0,0,0)" fill-opacity="0.502"/></g>
<polygon points="1400.00,2104.00 1400.00,2008.00 1768.00,2008.00 1768.00,2104.00" fill="rgb(35,118,255)" fill-opacity="0.502"/>
<polygon points="1124.53,3152.37 2696.72,3345.41 2667.47,3583.63 1095.28,3390.59" fill="rgb(28,52,174)" fill-opacity="0.502"/>
<circle cx="1808.00" cy="3504.00" r="224.00" fill="rgb(34,58,158)" fill-opacity="0.502"/>
<polygon points="5647.37,2908.02 6334.95,2884.01 6336.63,2931.98 5649.05,2955.99" fill="rgb(4,24,106)" fill-opacity="0.502"/>
<circle cx="2512.00" cy="1056.00" r="176.00" fill="rgb(9,87,221)" fill-opacity="0.502"/>
<polygon points="3233.18,2231.65 3106.75,2211.62 3166.82,1832.35 3293.25,1852.38" fill="rgb(124,184,247)" fill-opacity="0.502"/>
<circle cx="1424.00" cy="3344.00" r="288.00" fill="rgb(25,48,166)" fill-opacity="0.502"/>
<polygon points="5413.93,1395.97 5544.88,1536.39 5498.07,1580.03 5367.12,1439.61" fill="rgb(64,102,137)" fill-opacity="0.502"/>
<g transform="translate(6928.00 3296.00) rotate(152) scale(128.00 80.00)"><ellipse cx="0" cy="0" rx="1" ry="1" fill="rgb(0,22,126)" fill-opacity="0.502"/></g>
<polygon points="4432.00,2272.00 4528.00,2272.00 4528.00,2368.00 4432.00,2368.00" fill="rgb(171,210,255)" fill-opacity="0.502"/>
<polygon points="1826.25,2589.22 1935.81,2565.93 1965.75,2706.78 1856.19,2730.07" fill="rgb(92,0,40)" fill-opacity="0.502"/>
<g transform="translate(2528.00 4048.00) rotate(138) scale(160.00 336.00)"><ellipse cx="0" cy="0" rx="1" ry="1" fill="rgb(22,39,80)" fill-opacity="0.502"/></g>
<polygon points="2071.37,495.79 2528.63,231.79 2616.63,384.21 2159.37,648.21" fill="rgb(0,43,170)" fill-opacity="0.502"/>
<polygon points="4806.06,3123.82 4125.29,3358.23 4041.94,3116.18 4722.71,2881.77" fill="rgb(62,91,208)" fill-opacity="0.502"/>
<g transform="translate(2016.00 2832.00) rotate(32) scale(80.00 48.00)"><ellipse cx="0" cy="0" rx="1" ry="1" fill="rgb(0,0,67)" fill-opacity="0.502"/></g>
<g transform="translate(1808.00 2208.00) rotate(177) scale(32.00 128.00)"><ellipse cx="0" cy="0" rx="1" ry="1" fill="rgb(30,68,203)" fill-opacity="0.502"/></g>
<g transform="translate(2208.00 1136.00) rotate(289) scale(176.00 304.00)"><ellipse cx="0" cy="0" rx="1" ry="1" fill="rgb(0,51,173)" fill-opacity="0.502"/></g>
<circle cx="5856.00" cy="4208.00" r="208.00" fill="rgb(26,21,102)" fill-opacity="0.502"/>
<polygon points="6544.26,3049.22 6176.76,3029.96 6207.74,2438.78 6575.24,2458.04" fill="rgb(20,27,77)" fill-opacity="0.502"/>
<polygon points="2851.84,1519.71 2474.12,778.40 2588.16,720.29 2965.88,1461.60" fill="rgb(36,105,235)" fill-opacity="0.502"/>
<polygon points="6326.87,4175.08 6881.13,3855.08 7113.13,4256.92 6558.87,4576.92" fill="rgb(22,11,35)" fill-opacity="0.502"/>
<polygon points="4189.25,2880.72 4135.26,2646.87 4306.75,2607.28 4360.74,2841.13" fill="rgb(70,42,128)" fill-opacity="0.502"/>
<polygon points="2390.86,2984.83 2548.31,2803.70 2681.14,2919.17 2523.69,3100.30" fill="rgb(36,48,133)" fill-opacity="0.502"/>
<polygon points="5075.40,2900.33 4470.27,3108.69 4428.60,2987.67 5033.73,2779.31" fill="rgb(86,96,200)" fill-opacity="0.502"/>
<g transform="translate(1952.00 3056.00) rotate(81) scale(48.00 864.00)"><ellipse cx="0" cy="0" rx="1" ry="1" fill="rgb(23,34,132)" fill-opacity="0.502"/></g>
<circle cx="1232.00" cy="3904.00" r="144.00" fill="rgb(29,58,116)" fill-opacity="0.502"/>
<g transform="translate(4048.00 4240.00) rotate(106) scale(48.00 560.00)"><ellipse cx="0" cy="0" rx="1" ry="1" fill="rgb(59,54,64)" fill-opacity="0.502"/></g>
<g transform="translate(4720.00 2304.00) rotate(356) scale(128.00 160.00)"><ellipse cx="0" cy="0" rx="1" ry="1" fill="rgb(71,85,94)" fill-opacity="0.502"/></g>
<polygon points="5508.77,2588.06 5535.61,2548.26 5867.23,2771.94 5840.39,2811.74" fill="rgb(98,145,244)" fill-opacity="0.502"/>
<polygon points="5690.65,3461.12 5615.41,3357.57 5861.35,3178.88 5936.59,3282.43" fill="rgb(59,86,223)" fill-opacity="0.502"/>
<g transform="translate(7024.00 1632.00) rotate(177) scale(64.00 128.00)"><ellipse cx="0" cy="0" rx="1" ry="1" fill="rgb(23,41,108)" fill-opacity="0.502"/></g>
<circle cx="3504.00" cy="2400.00" r="48.00" fill="rgb(0,47,119)" fill-opacity="0.502"/>
<circle cx="1824.00" cy="2032.00" r="64.00" fill="rgb(205,249,255)" fill-opacity="0.502"/>
<polygon points="4193.36,4205.68 4039.56,4161.58 4158.64,3746.32 4312.44,3790.42" fill="rgb(25,222,255)" fill-opacity="0.502"/>
<g transform="translate(3184.00 4000.00) rotate(97) scale(96.00 48.00)"><ellipse cx="0" cy="0" rx="1" ry="1" fill="rgb(175,186,226)" fill-opacity="0.502"/></g>
<circle cx="5744.00" cy="1200.00" r="288.00" fill="rgb(0,10,58)" fill-opacity="0.502"/>
<g transform="translate(1552.00 224.00) rotate(176) scale(112.00 176.00)"><ellipse cx="0" cy="0" rx="1" ry="1" fill="rgb(0,12,103)" fill-opacity="0.502"/></g>
<polygon points="2785.54,1837.89 2840.27,1988.24 2494.46,2114.11 2439.73,1963.76" fill="rgb(134,207,240)" fill-opacity="0.502"/>
<polygon points="6434.30,2396.46 6378.32,2365.43 6525.70,2099.54 6581.68,2130.57" fill="rgb(1,9,55)" fill-opacity="0.502"/>
<polygon points="5062.17,3539.38 4909.41,3375.56 5049.83,3244.62 5202.59,3408.44" fill="rgb(90,108,117)" fill-opacity="0.502"/>
<polygon points="4303.69,2084.05 3839.76,2075.95 3840.31,2043.95 4304.24,2052.05" fill="rgb(145,171,243)" fill-opacity="0.502"/>
<polygon points="1841.72,2340.52 1547.85,2503.42 1470.28,2363.48 1764.15,2200.58" fill="rgb(92,147,247)" fill-opacity="0.502"/>
<polygon points="3287.10,2386.24 3119.27,2801.62 2792.90,2669.76 2960.73,2254.38" fill="rgb(27,34,100)" fill-opacity="0.502"/>
<polygon points="4505.99,2389.96 4189.10,2345.42 4198.01,2282.04 4514.90,2326.58" fill="rgb(143,196,255)" fill-opacity="0.502"/>
<circle cx="2400.00" cy="4560.00" r="304.00" fill="rgb(75,144,224)" fill-opacity="0.502"/>
<polygon points="1416.88,2125.72 1326.97,2348.24 1223.12,2306.28 1313.03,2083.76" fill="rgb(32,40,116)" fill-opacity="0.502"/>
<polygon points="3044.67,3721.12 2615.04,3766.27 2603.33,3654.88 3032.96,3609.73" fill="rgb(34,48,115)" fill-opacity="0.502"/>
<polygon points="4342.13,3327.73 4387.68,3157.73 4665.87,3232.27 4620.32,3402.27" fill="rgb(83,101,176)" fill-opacity="0.502"/>
<polygon points="3600.00,2528.00 3616.00,2528.00 3616.00,2784.00 3600.00,2784.00" fill="rgb(195,189,242)" fill-opacity="0.502"/>
<polygon points="5596.93,2984.13 6283.26,2936.14 6291.07,3047.87 5604.74,3095.86" fill="rgb(46,43,77)" fill-opacity="0.502"/>
<polygon points="6374.00,2216.24 6982.01,2075.87 7018.00,2231.76 6409.99,2372.13" fill="rgb(5,15,71)" fill-opacity="0.502"/>
<polygon points="6956.00,3598.57 7022.32,3553.84 7076.00,3633.43 7009.68,3678.16" fill="rgb(97,125,144)" fill-opacity="0.502"/>
<polygon points="4314.88,2316.26 4270.15,2249.94 4469.12,2115.74 4513.85,2182.06" fill="rgb(21,45,65)" fill-opacity="0.502"/>
<polygon points="4211.49,2476.73 4186.40,2715.41 3804.51,2675.27 3829.60,2436.59" fill="rgb(142,105,110)" fill-opacity="0.502"/>
<circle cx="5904.00" cy="3520.00" r="160.00" fill="rgb(47,59,118)" fill-opacity="0.502"/>
<g transform="translate(7744.00 2448.00) rotate(257) scale(480.00 672.00)"><ellipse cx="0" cy="0" rx="1" ry="1" fill="rgb(0,0,0)" fill-opacity="0.502"/></g>
<circle cx="5536.00" cy="3616.00" r="144.00" fill="rgb(51,67,100)" fill-opacity="0.502"/>
<polygon points="5544.48,3169.66 5812.89,3026.94 5895.52,3182.34 5627.11,3325.06" fill="rgb(32,70,172)" fill-opacity="0.502"/>
<circle cx="1264.00" cy="4128.00" r="176.00" fill="rgb(52,92,140)" fill-opacity="0.502"/>
<circle cx="48.00" cy="2352.00" r="1056.00" fill="rgb(0,0,0)" fill-opacity="0.502"/>
<circle cx="4080.00" cy="2224.00" r="48.00" fill="rgb(23,25,36)" fill-opacity="0.502"/>
<polygon points="3791.06,3037.97 3659.99,2946.20 3760.94,2802.03 3892.01,2893.80" fill="rgb(58,55,130)" fill-opacity="0.502"/>
<g transform="translate(4784.00 480.00) rotate(133) scale(96.00 784.00)"><ellipse cx="0" cy="0" rx="1" ry="1" fill="rgb(0,16,88)" fill-opacity="0.502"/></g>
<circle cx="4304.00" cy="4384.00" r="80.00" fill="rgb(65,75,66)" fill-opacity="0.502"/>
<polygon points="4274.50,4399.40 4242.52,4400.51 4237.50,4256.60 4269.48,4255.49" fill="rgb(137,146,125)" fill-opacity="0.502"/>
<circle cx="6096.00" cy="80.00" r="464.00" fill="rgb(0,6,36)" fill-opacity="0.502"/>
<g transform="translate(4704.00 2048.00) rotate(156) scale(320.00 48.00)"><ellipse cx="0" cy="0" rx="1" ry="1" fill="rgb(26,60,91)" fill-opacity="0.502"/></g>
<g transform="translate(4064.00 1872.00) rotate(348) scale(288.00 176.00)"><ellipse cx="0" cy="0" rx="1" ry="1" fill="rgb(19,70,240)" fill-opacity="0.502"/></g>
<polygon points="6474.59,2121.91 6468.34,2136.64 6085.41,1974.09 6091.66,1959.36" fill="rgb(132,173,255)" fill-opacity="0.502"/>
<circle cx="4320.00" cy="3648.00" r="128.00" fill="rgb(48,59,95)" fill-opacity="0.502"/>
<g transform="translate(6688.00 80.00) rotate(273) scale(48.00 64.00)"><ellipse cx="0" cy="0" rx="1" ry="1" fill="rgb(47,71,96)" fill-opacity="0.502"/></g>
</g>
</svg>