<?xml version="1.0" standalone="no"?>
<svg xmlns="http://www.w3.org/2000/svg" width="8192" height="4608" viewBox="0 0 8192 4608" style="overflow:hidden">
<defs>
<clipPath id="c"><rect x="0" y="0" width="8192" height="4608"/></clipPath>
</defs>
<rect width="8192" height="4608" fill="rgb(33,50,104)"/>
<g clip-path="url(#c)">
<circle cx="0.00" cy="1600.00" r="1696.00" fill="rgb(0,0,0)" fill-opacity="0.502"/>
<circle cx="3632.00" cy="2704.00" r="2560.00" fill="rgb(80,119,224)" fill-opacity="0.502"/>
<circle cx="8176.00" cy="1088.00" r="2240.00" fill="rgb(0,0,0)" fill-opacity="0.502"/>
<g transform="translate(7728.00 3296.00) rotate(89) scale(5952.00 656.00)"><ellipse cx="0" cy="0" rx="1" ry="1" fill="rgb(0,0,0)" fill-opacity="0.502"/></g>
<g transform="translate(3136.00 4544.00) rotate(358) scale(1136.00 352.00)"><ellipse cx="0" cy="0" rx="1" ry="1" fill="rgb(36,0,0)" fill-opacity="0.502"/></g>
<g transform="translate(3264.00 784.00) rotate(307) scale(960.00 1472.00)"><ellipse cx="0" cy="0" rx="1" ry="1" fill="rgb(0,84,252)" fill-opacity="0.502"/></g>
<polygon points="6541.94,565.81 4960.82,1892.52 4066.06,826.19 5647.18,-500.52" fill="rgb(0,0,62)" fill-opacity="0.502"/>
<circle cx="0.00" cy="3600.00" r="1344.00" fill="rgb(0,0,0)" fill-opacity="0.502"/>
<g transform="translate(5792.00 2144.00) rotate(91) scale(448.00 656.00)"><ellipse cx="0" cy="0" rx="1" ry="1" fill="rgb(155,198,255)" fill-opacity="0.502"/></g>
<circle cx="3104.00" cy="656.00" r="320.00" fill="rgb(255,255,255)" fill-opacity="0.502"/>
<circle cx="3136.00" cy="3952.00" r="352.00" fill="rgb(225,255,255)" fill-opacity="0.502"/>
<circle cx="0.00" cy="896.00" r="1392.00" fill="rgb(0,0,0)" fill-opacity="0.502"/>
<circle cx="3024.00" cy="1872.00" r="288.00" fill="rgb(184,255,255)" fill-opacity="0.502"/>
<g transform="translate(1984.00 4208.00) rotate(334) scale(768.00 240.00)"><ellipse cx="0" cy="0" rx="1" ry="1" fill="rgb(142,201,231)" fill-opacity="0.502"/></g>
<polygon points="4932.76,3470.14 4922.99,4030.06 3307.24,4001.86 3317.01,3441.94" fill="rgb(168,246,255)" fill-opacity="0.502"/>
<circle cx="1872.00" cy="1040.00" r="816.00" fill="rgb(0,9,140)" fill-opacity="0.502"/>
<g transform="translate(224.00 3824.00) rotate(275) scale(4512.00 800.00)"><ellipse cx="0" cy="0" rx="1" ry="1" fill="rgb(0,0,0)" fill-opacity="0.502"/></g>
<circle cx="7936.00" cy="3856.00" r="992.00" fill="rgb(0,0,0)" fill-opacity="0.502"/>
<circle cx="3008.00" cy="3296.00" r="464.00" fill="rgb(63,0,69)" fill-opacity="0.502"/>
<circle cx="2128.00" cy="3344.00" r="480.00" fill="rgb(0,2,125)" fill-opacity="0.502"/>
<circle cx="4624.00" cy="640.00" r="864.00" fill="rgb(0,13,133)" fill-opacity="0.502"/>
<circle cx="3776.00" cy="2400.00" r="496.00" fill="rgb(96,60,73)" fill-opacity="0.502"/>
<circle cx="4928.00" cy="1568.00" r="288.00" fill="rgb(0,56,245)" fill-opacity="0.502"/>
<g transform="translate(3408.00 3488.00) rotate(159) scale(432.00 128.00)"><ellipse cx="0" cy="0" rx="1" ry="1" fill="rgb(163,0,35)" fill-opacity="0.502"/></g>
<g transform="translate(6528.00 4224.00) rotate(101) scale(928.00 560.00)"><ellipse cx="0" cy="0" rx="1" ry="1" fill="rgb(68,71,56)" fill-opacity="0.502"/></g>
<circle cx="5856.00" cy="1168.00" r="464.00" fill="rgb(0,2,43)" fill-opacity="0.502"/>
<polygon points="4927.49,1882.36 5053.54,1904.58 4928.51,2613.64 4802.46,2591.42" fill="rgb(244,246,231)" fill-opacity="0.502"/>
<g transform="translate(3088.00 1904.00) rotate(99) scale(208.00 624.00)"><ellipse cx="0" cy="0" rx="1" ry="1" fill="rgb(164,237,255)" fill-opacity="0.502"/></g>
<circle cx="1648.00" cy="0.00" r="576.00" fill="rgb(0,0,89)" fill-opacity="0.502"/>
<circle cx="1536.00" cy="1376.00" r="480.00" fill="rgb(0,17,105)" fill-opacity="0.502"/>
<g transform="translate(2304.00 2432.00) rotate(77) scale(208.00 1200.00)"><ellipse cx="0" cy="0" rx="1" ry="1" fill="rgb(41,35,48)" fill-opacity="0.502"/></g>
<g transform="translate(6880.00 2496.00) rotate(0) scale(224.00 1120.00)"><ellipse cx="0" cy="0" rx="1" ry="1" fill="rgb(33,56,182)" fill-opacity="0.502"/></g>
<circle cx="1968.00" cy="4048.00" r="304.00" fill="rgb(157,190,207)" fill-opacity="0.502"/>
<circle cx="3584.00" cy="3120.00" r="368.00" fill="rgb(76,64,186)" fill-opacity="0.502"/>
<circle cx="416.00" cy="4000.00" r="720.00" fill="rgb(0,0,0)" fill-opacity="0.502"/>
<circle cx="2224.00" cy="1984.00" r="272.00" fill="rgb(0,11,75)" fill-opacity="0.502"/>
<g transform="translate(5792.00 160.00) rotate(81) scale(1424.00 1104.00)"><ellipse cx="0" cy="0" rx="1" ry="1" fill="rgb(0,7,52)" fill-opacity="0.502"/></g>
<circle cx="4432.00" cy="2240.00" r="448.00" fill="rgb(125,113,80)" fill-opacity="0.502"/>
<g transform="translate(3072.00 672.00) rotate(226) scale(432.00 368.00)"><ellipse cx="0" cy="0" rx="1" ry="1" fill="rgb(126,179,255)" fill-opacity="0.502"/></g>
<circle cx="3888.00" cy="4416.00" r="432.00" fill="rgb(77,72,73)" fill-opacity="0.502"/>
<circle cx="3680.00" cy="560.00" r="416.00" fill="rgb(0,78,229)" fill-opacity="0.502"/>
<g transform="translate(5744.00 4176.00) rotate(333) scale(608.00 464.00)"><ellipse cx="0" cy="0" rx="1" ry="1" fill="rgb(61,86,97)" fill-opacity="0.502"/></g>
<circle cx="6000.00" cy="3168.00" r="528.00" fill="rgb(42,55,137)" fill-opacity="0.502"/>
<circle cx="1424.00" cy="3408.00" r="400.00" fill="rgb(20,32,149)" fill-opacity="0.502"/>
<circle cx="1456.00" cy="2048.00" r="416.00" fill="rgb(67,109,227)" fill-opacity="0.502"/>
<g transform="translate(3104.00 3856.00) rotate(346) scale(1024.00 144.00)"><ellipse cx="0" cy="0" rx="1" ry="1" fill="rgb(217,255,255)" fill-opacity="0.502"/></g>
<circle cx="8176.00" cy="992.00" r="1296.00" fill="rgb(0,0,0)" fill-opacity="0.502"/>
<polygon points="3796.87,2673.97 5597.99,2831.55 5563.13,3230.03 3762.01,3072.45" fill="rgb(65,87,230)" fill-opacity="0.502"/>
<circle cx="6592.00" cy="2288.00" r="128.00" fill="rgb(105,129,255)" fill-opacity="0.502"/>
<circle cx="2368.00" cy="2848.00" r="240.00" fill="rgb(80,129,255)" fill-opacity="0.502"/>
<g transform="translate(4304.00 384.00) rotate(25) scale(784.00 416.00)"><ellipse cx="0" cy="0" rx="1" ry="1" fill="rgb(0,33,157)" fill-opacity="0.502"/></g>
<polygon points="5218.73,3446.86 5260.02,4037.42 4749.27,4073.14 4707.98,3482.58" fill="rgb(84,156,231)" fill-opacity="0.502"/>
<g transform="translate(4880.00 2512.00) rotate(360) scale(464.00 176.00)"><ellipse cx="0" cy="0" rx="1" ry="1" fill="rgb(126,103,84)" fill-opacity="0.502"/></g>
<circle cx="7696.00" cy="3920.00" r="640.00" fill="rgb(0,0,0)" fill-opacity="0.502"/>
<circle cx="2528.00" cy="800.00" r="304.00" fill="rgb(11,99,245)" fill-opacity="0.502"/>
<g transform="translate(1504.00 4448.00) rotate(243) scale(560.00 352.00)"><ellipse cx="0" cy="0" rx="1" ry="1" fill="rgb(30,98,164)" fill-opacity="0.502"/></g>
<g transform="translate(3408.00 1376.00) rotate(289) scale(352.00 1088.00)"><ellipse cx="0" cy="0" rx="1" ry="1" fill="rgb(2,72,216)" fill-opacity="0.502"/></g>
<g transform="translate(3296.00 4400.00) rotate(263) scale(288.00 320.00)"><ellipse cx="0" cy="0" rx="1" ry="1" fill="rgb(11,13,69)" fill-opacity="0.502"/></g>
<polygon points="1778.95,3670.34 1498.77,4136.64 1101.05,3897.66 1381.23,3431.36" fill="rgb(34,55,97)" fill-opacity="0.502"/>
<polygon points="6338.92,1849.04 6186.27,2634.35 5181.08,2438.96 5333.73,1653.65" fill="rgb(111,148,255)" fill-opacity="0.502"/>
<g transform="translate(2432.00 2464.00) rotate(308) scale(80.00 480.00)"><ellipse cx="0" cy="0" rx="1" ry="1" fill="rgb(152,112,169)" fill-opacity="0.502"/></g>
<polygon points="2711.40,4409.77 2409.52,4672.19 2136.60,4358.23 2438.48,4095.81" fill="rgb(1,0,32)" fill-opacity="0.502"/>
<g transform="translate(7184.00 4544.00) rotate(54) scale(224.00 208.00)"><ellipse cx="0" cy="0" rx="1" ry="1" fill="rgb(6,0,0)" fill-opacity="0.502"/></g>
<polygon points="4256.00,4432.00 5152.00,4432.00 5152.00,4592.00 4256.00,4592.00" fill="rgb(111,179,224)" fill-opacity="0.502"/>
<g transform="translate(7936.00 3152.00) rotate(167) scale(784.00 1712.00)"><ellipse cx="0" cy="0" rx="1" ry="1" fill="rgb(0,0,0)" fill-opacity="0.502"/></g>
<polygon points="2752.43,1734.44 1124.40,1848.28 1087.57,1321.56 2715.60,1207.72" fill="rgb(0,25,110)" fill-opacity="0.502"/>
<circle cx="512.00" cy="2048.00" r="608.00" fill="rgb(0,0,0)" fill-opacity="0.502"/>
<g transform="translate(4352.00 1440.00) rotate(183) scale(480.00 192.00)"><ellipse cx="0" cy="0" rx="1" ry="1" fill="rgb(11,70,229)" fill-opacity="0.502"/></g>
<polygon points="3534.82,2755.89 3510.32,2581.60 4033.18,2508.11 4057.68,2682.40" fill="rgb(30,15,85)" fill-opacity="0.502"/>
<circle cx="2752.00" cy="3120.00" r="240.00" fill="rgb(0,0,100)" fill-opacity="0.502"/>
<circle cx="3072.00" cy="3040.00" r="112.00" fill="rgb(249,44,62)" fill-opacity="0.502"/>
<circle cx="3136.00" cy="2464.00" r="224.00" fill="rgb(23,6,73)" fill-opacity="0.502"/>
<polygon points="3140.76,446.20 3265.80,740.76 2971.24,865.80 2846.20,571.24" fill="rgb(255,255,255)" fill-opacity="0.502"/>
<circle cx="1664.00" cy="960.00" r="560.00" fill="rgb(0,29,137)" fill-opacity="0.502"/>
<polygon points="4766.49,1690.79 4719.67,2136.33 4385.51,2101.21 4432.33,1655.67" fill="rgb(1,58,53)" fill-opacity="0.502"/>
<circle cx="5392.00" cy="3200.00" r="160.00" fill="rgb(77,108,255)" fill-opacity="0.502"/>
<g transform="translate(448.00 912.00) rotate(88) scale(5968.00 624.00)"><ellipse cx="0" cy="0" rx="1" ry="1" fill="rgb(0,0,0)" fill-opacity="0.502"/></g>
<g transform="translate(3792.00 2208.00) rotate(268) scale(96.00 288.00)"><ellipse cx="0" cy="0" rx="1" ry="1" fill="rgb(0,0,66)" fill-opacity="0.502"/></g>
<g transform="translate(2128.00 480.00) rotate(301) scale(704.00 240.00)"><ellipse cx="0" cy="0" rx="1" ry="1" fill="rgb(0,43,168)" fill-opacity="0.502"/></g>
<polygon points="3666.82,2093.12 3191.49,2159.92 3149.18,1858.88 3624.51,1792.08" fill="rgb(161,208,255)" fill-opacity="0.502"/>
<polygon points="3106.62,1994.92 2988.66,1912.32 3181.38,1637.08 3299.34,1719.68" fill="rgb(62,120,208)" fill-opacity="0.502"/>
<g transform="translate(4144.00 3776.00) rotate(281) scale(320.00 656.00)"><ellipse cx="0" cy="0" rx="1" ry="1" fill="rgb(109,181,253)" fill-opacity="0.502"/></g>
<circle cx="3056.00" cy="3552.00" r="160.00" fill="rgb(150,22,53)" fill-opacity="0.502"/>
<circle cx="1248.00" cy="2832.00" r="160.00" fill="rgb(171,175,184)" fill-opacity="0.502"/>
<polygon points="4508.14,2115.48 4558.53,2333.73 4355.86,2380.52 4305.47,2162.27" fill="rgb(165,191,248)" fill-opacity="0.502"/>
<g transform="translate(5936.00 3680.00) rotate(271) scale(208.00 592.00)"><ellipse cx="0" cy="0" rx="1" ry="1" fill="rgb(70,117,159)" fill-opacity="0.502"/></g>
<g transform="translate(1824.00 4560.00) rotate(211) scale(176.00 496.00)"><ellipse cx="0" cy="0" rx="1" ry="1" fill="rgb(51,139,247)" fill-opacity="0.502"/></g>
<circle cx="6752.00" cy="1584.00" r="352.00" fill="rgb(6,29,113)" fill-opacity="0.502"/>
<polygon points="5355.06,2576.87 5674.08,2428.11 5876.94,2863.13 5557.92,3011.89" fill="rgb(30,43,110)" fill-opacity="0.502"/>
<circle cx="1360.00" cy="2272.00" r="128.00" fill="rgb(117,167,255)" fill-opacity="0.502"/>
<g transform="translate(1840.00 2224.00) rotate(41) scale(224.00 96.00)"><ellipse cx="0" cy="0" rx="1" ry="1" fill="rgb(115,182,255)" fill-opacity="0.502"/></g>
<g transform="translate(6240.00 2736.00) rotate(257) scale(160.00 592.00)"><ellipse cx="0" cy="0" rx="1" ry="1" fill="rgb(24,11,57)" fill-opacity="0.502"/></g>
<polygon points="3033.65,142.94 3239.37,19.33 3478.35,417.06 3272.63,540.67" fill="rgb(41,107,239)" fill-opacity="0.502"/>
<g transform="translate(3664.00 3760.00) rotate(181) scale(544.00 128.00)"><ellipse cx="0" cy="0" rx="1" ry="1" fill="rgb(150,233,255)" fill-opacity="0.502"/></g>
<circle cx="7808.00" cy="736.00" r="768.00" fill="rgb(0,0,0)" fill-opacity="0.502"/>
<polygon points="1367.19,2727.94 1812.74,2681.11 1832.81,2872.06 1387.26,2918.89" fill="rgb(184,180,176)" fill-opacity="0.502"/>
<g transform="translate(1296.00 272.00) rotate(0) scale(208.00 528.00)"><ellipse cx="0" cy="0" rx="1" ry="1" fill="rgb(0,5,73)" fill-opacity="0.502"/></g>
<circle cx="1200.00" cy="2624.00" r="144.00" fill="rgb(46,36,6)" fill-opacity="0.502"/>
<g transform="translate(3008.00 3216.00) rotate(161) scale(256.00 112.00)"><ellipse cx="0" cy="0" rx="1" ry="1" fill="rgb(0,25,107)" fill-opacity="0.502"/></g>
<g transform="translate(1360.00 4224.00) rotate(196) scale(224.00 496.00)"><ellipse cx="0" cy="0" rx="1" ry="1" fill="rgb(38,75,116)" fill-opacity="0.502"/></g>
<g transform="translate(5520.00 4352.00) rotate(225) scale(144.00 176.00)"><ellipse cx="0" cy="0" rx="1" ry="1" fill="rgb(45,28,24)" fill-opacity="0.502"/></g>
<g transform="translate(5712.00 3104.00) rotate(1) scale(640.00 176.00)"><ellipse cx="0" cy="0" rx="1" ry="1" fill="rgb(49,82,221)" fill-opacity="0.502"/></g>
<g transform="translate(2896.00 2272.00) rotate(16) scale(464.00 256.00)"><ellipse cx="0" cy="0" rx="1" ry="1" fill="rgb(31,42,112)" fill-opacity="0.502"/></g>
<circle cx="2592.00" cy="1360.00" r="320.00" fill="rgb(0,55,175)" fill-opacity="0.502"/>
<polygon points="4359.64,3711.49 4057.31,3679.72 4072.36,3536.51 4374.69,3568.28" fill="rgb(31,48,105)" fill-opacity="0.502"/>
<circle cx="5200.00" cy="1920.00" r="208.00" fill="rgb(94,117,214)" fill-opacity="0.502"/>
<polygon points="2600.38,3518.74 2807.49,3669.21 2647.62,3889.26 2440.51,3738.79" fill="rgb(56,2,72)" fill-opacity="0.502"/>
<circle cx="4896.00" cy="4496.00" r="320.00" fill="rgb(91,133,172)" fill-opacity="0.502"/>
<polygon points="3500.44,3055.28 3360.72,3020.44 3395.56,2880.72 3535.28,2915.56" fill="rgb(255,36,43)" fill-opacity="0.502"/>
<polygon points="6170.13,2464.38 5226.70,2431.43 5237.87,2111.62 6181.30,2144.57" fill="rgb(149,193,255)" fill-opacity="0.502"/>
<g transform="translate(4720.00 368.00) rotate(164) scale(320.00 1040.00)"><ellipse cx="0" cy="0" rx="1" ry="1" fill="rgb(0,18,106)" fill-opacity="0.502"/></g>
<g transform="translate(5792.00 1984.00) rotate(360) scale(704.00 64.00)"><ellipse cx="0" cy="0" rx="1" ry="1" fill="rgb(22,25,160)" fill-opacity="0.502"/></g>
<circle cx="1440.00" cy="3392.00" r="352.00" fill="rgb(30,49,160)" fill-opacity="0.502"/>
<circle cx="2592.00" cy="3424.00" r="192.00" fill="rgb(15,38,182)" fill-opacity="0.502"/>
<g transform="translate(1440.00 1920.00) rotate(215) scale(416.00 80.00)"><ellipse cx="0" cy="0" rx="1" ry="1" fill="rgb(42,86,215)" fill-opacity="0.502"/></g>
<circle cx="3264.00" cy="4592.00" r="256.00" fill="rgb(28,0,6)" fill-opacity="0.502"/>
<circle cx="3984.00" cy="848.00" r="416.00" fill="rgb(0,67,197)" fill-opacity="0.502"/>
<polygon points="3764.34,2484.54 3814.73,2266.28 4235.66,2363.46 4185.27,2581.72" fill="rgb(158,122,123)" fill-opacity="0.502"/>
<polygon points="3075.02,134.72 3098.73,405.68 2508.98,457.28 2485.27,186.32" fill="rgb(26,92,230)" fill-opacity="0.502"/>
<g transform="translate(6496.00 112.00) rotate(337) scale(784.00 528.00)"><ellipse cx="0" cy="0" rx="1" ry="1" fill="rgb(0,2,29)" fill-opacity="0.502"/></g>
<g transform="translate(4896.00 2320.00) rotate(232) scale(112.00 128.00)"><ellipse cx="0" cy="0" rx="1" ry="1" fill="rgb(193,212,218)" fill-opacity="0.502"/></g>
<polygon points="2399.24,2107.30 2632.65,2349.00 2160.76,2804.70 1927.35,2563.00" fill="rgb(11,41,93)" fill-opacity="0.502"/>
<polygon points="6422.80,2209.71 6401.43,2099.77 6841.20,2014.29 6862.57,2124.23" fill="rgb(0,0,35)" fill-opacity="0.502"/>
<g transform="translate(3328.00 2624.00) rotate(88) scale(192.00 160.00)"><ellipse cx="0" cy="0" rx="1" ry="1" fill="rgb(25,18,99)" fill-opacity="0.502"/></g>
<polygon points="2610.47,2853.47 2427.48,2571.67 2749.53,2362.53 2932.52,2644.33" fill="rgb(175,120,209)" fill-opacity="0.502"/>
<g transform="translate(6368.00 2048.00) rotate(300) scale(144.00 48.00)"><ellipse cx="0" cy="0" rx="1" ry="1" fill="rgb(135,145,255)" fill-opacity="0.502"/></g>
<polygon points="1924.79,2445.03 1614.44,2017.87 1899.21,1810.97 2209.56,2238.13" fill="rgb(93,137,230)" fill-opacity="0.502"/>
<polygon points="3492.00,534.57 3734.79,717.52 3340.00,1241.43 3097.21,1058.48" fill="rgb(45,123,255)" fill-opacity="0.502"/>
<circle cx="2240.00" cy="2944.00" r="128.00" fill="rgb(66,129,255)" fill-opacity="0.502"/>
<circle cx="4016.00" cy="4544.00" r="144.00" fill="rgb(163,161,117)" fill-opacity="0.502"/>
<g transform="translate(6464.00 4256.00) rotate(126) scale(384.00 272.00)"><ellipse cx="0" cy="0" rx="1" ry="1" fill="rgb(40,33,43)" fill-opacity="0.502"/></g>
<circle cx="2976.00" cy="4240.00" r="128.00" fill="rgb(24,91,187)" fill-opacity="0.502"/>
<circle cx="7888.00" cy="2384.00" r="816.00" fill="rgb(0,0,0)" fill-opacity="0.502"/>
<polygon points="7057.48,2178.63 7068.63,2306.14 6574.52,2349.37 6563.37,2221.86" fill="rgb(111,131,255)" fill-opacity="0.502"/>
<g transform="translate(2080.00 3920.00) rotate(23) scale(176.00 112.00)"><ellipse cx="0" cy="0" rx="1" ry="1" fill="rgb(207,204,194)" fill-opacity="0.502"/></g>
<polygon points="6971.25,2963.32 6925.37,3082.82 6596.75,2956.68 6642.63,2837.18" fill="rgb(57,95,255)" fill-opacity="0.502"/>
<circle cx="6912.00" cy="3456.00" r="176.00" fill="rgb(51,73,55)" fill-opacity="0.502"/>
<circle cx="6592.00" cy="896.00" r="512.00" fill="rgb(6,18,48)" fill-opacity="0.502"/>
<circle cx="3760.00" cy="4224.00" r="272.00" fill="rgb(33,42,107)" fill-opacity="0.502"/>
<g transform="translate(3408.00 4096.00) rotate(286) scale(192.00 144.00)"><ellipse cx="0" cy="0" rx="1" ry="1" fill="rgb(26,110,219)" fill-opacity="0.502"/></g>
<polygon points="2784.38,4128.32 2726.38,3829.90 3087.62,3759.68 3145.62,4058.10" fill="rgb(227,250,245)" fill-opacity="0.502"/>
<g transform="translate(4688.00 4128.00) rotate(183) scale(1136.00 64.00)"><ellipse cx="0" cy="0" rx="1" ry="1" fill="rgb(50,75,100)" fill-opacity="0.502"/></g>
<g transform="translate(3888.00 3184.00) rotate(238) scale(288.00 288.00)"><ellipse cx="0" cy="0" rx="1" ry="1" fill="rgb(44,58,154)" fill-opacity="0.502"/></g>
<polygon points="1516.03,2076.95 1170.50,2144.11 1139.97,1987.05 1485.50,1919.89" fill="rgb(34,21,48)" fill-opacity="0.502"/>
<polygon points="1726.04,3980.77 1662.91,3851.34 1777.96,3795.23 1841.09,3924.66" fill="rgb(249,255,221)" fill-opacity="0.502"/>
<polygon points="6383.48,2956.40 6187.01,2313.77 6416.52,2243.60 6612.99,2886.23" fill="rgb(6,9,61)" fill-opacity="0.502"/>
<g transform="translate(5184.00 1552.00) rotate(17) scale(192.00 176.00)"><ellipse cx="0" cy="0" rx="1" ry="1" fill="rgb(0,24,177)" fill-opacity="0.502"/></g>
<g transform="translate(4432.00 4128.00) rotate(158) scale(144.00 144.00)"><ellipse cx="0" cy="0" rx="1" ry="1" fill="rgb(111,165,221)" fill-opacity="0.502"/></g>
<polygon points="2754.61,2969.90 2614.52,2736.75 2765.39,2646.10 2905.48,2879.25" fill="rgb(0,44,229)" fill-opacity="0.502"/>
<g transform="translate(4960.00 2144.00) rotate(254) scale(128.00 48.00)"><ellipse cx="0" cy="0" rx="1" ry="1" fill="rgb(227,255,255)" fill-opacity="0.502"/></g>
<polygon points="3047.48,1159.67 2859.68,1199.59 2776.52,808.33 2964.32,768.41" fill="rgb(95,143,249)" fill-opacity="0.502"/>
<circle cx="4624.00" cy="4416.00" r="96.00" fill="rgb(36,55,65)" fill-opacity="0.502"/>
<g transform="translate(4336.00 3296.00) rotate(349) scale(416.00 176.00)"><ellipse cx="0" cy="0" rx="1" ry="1" fill="rgb(58,67,119)" fill-opacity="0.502"/></g>
<circle cx="5520.00" cy="1648.00" r="144.00" fill="rgb(81,127,236)" fill-opacity="0.502"/>
<polygon points="2416.00,4352.00 3088.00,4352.00 3088.00,4592.00 2416.00,4592.00" fill="rgb(40,13,25)" fill-opacity="0.502"/>
<circle cx="4400.00" cy="4320.00" r="96.00" fill="rgb(65,69,36)" fill-opacity="0.502"/>
<g transform="translate(3824.00 2992.00) rotate(293) scale(144.00 336.00)"><ellipse cx="0" cy="0" rx="1" ry="1" fill="rgb(49,79,213)" fill-opacity="0.502"/></g>
<g transform="translate(1760.00 4528.00) rotate(54) scale(128.00 704.00)"><ellipse cx="0" cy="0" rx="1" ry="1" fill="rgb(67,131,221)" fill-opacity="0.502"/></g>
<polygon points="1667.59,4059.22 1123.67,4068.72 1116.41,3652.78 1660.33,3643.28" fill="rgb(42,58,101)" fill-opacity="0.502"/>
<circle cx="6144.00" cy="1264.00" r="496.00" fill="rgb(3,21,65)" fill-opacity="0.502"/>
<g transform="translate(1584.00 2592.00) rotate(265) scale(144.00 272.00)"><ellipse cx="0" cy="0" rx="1" ry="1" fill="rgb(29,33,31)" fill-opacity="0.502"/></g>
<circle cx="1216.00" cy="2912.00" r="112.00" fill="rgb(105,133,255)" fill-opacity="0.502"/>
<circle cx="2272.00" cy="3440.00" r="400.00" fill="rgb(16,25,116)" fill-opacity="0.502"/>
<circle cx="1856.00" cy="3616.00" r="224.00" fill="rgb(41,85,169)" fill-opacity="0.502"/>
<polygon points="3107.03,4154.95 3285.05,4083.03 3356.97,4261.05 3178.95,4332.97" fill="rgb(48,119,226)" fill-opacity="0.502"/>
<g transform="translate(816.00 4480.00) rotate(181) scale(288.00 2592.00)"><ellipse cx="0" cy="0" rx="1" ry="1" fill="rgb(0,0,0)" fill-opacity="0.502"/></g>
<g transform="translate(2784.00 2448.00) rotate(345) scale(480.00 32.00)"><ellipse cx="0" cy="0" rx="1" ry="1" fill="rgb(45,19,87)" fill-opacity="0.502"/></g>
<g transform="translate(7424.00 4528.00) rotate(259) scale(960.00 288.00)"><ellipse cx="0" cy="0" rx="1" ry="1" fill="rgb(0,0,0)" fill-opacity="0.502"/></g>
<circle cx="5664.00" cy="4544.00" r="144.00" fill="rgb(89,134,199)" fill-opacity="0.502"/>
<g transform="translate(2464.00 3904.00) rotate(0) scale(192.00 80.00)"><ellipse cx="0" cy="0" rx="1" ry="1" fill="rgb(232,218,208)" fill-opacity="0.502"/></g>
<polygon points="6975.73,2145.77 6494.60,1970.65 6560.27,1790.23 7041.40,1965.35" fill="rgb(0,9,56)" fill-opacity="0.502"/>
<circle cx="4720.00" cy="3856.00" r="224.00" fill="rgb(73,132,221)" fill-opacity="0.502"/>
<g transform="translate(2864.00 1872.00) rotate(288) scale(160.00 304.00)"><ellipse cx="0" cy="0" rx="1" ry="1" fill="rgb(136,216,255)" fill-opacity="0.502"/></g>
<polygon points="6629.99,2330.25 6848.22,2564.28 6778.01,2629.75 6559.78,2395.72" fill="rgb(23,14,40)" fill-opacity="0.502"/>
<g transform="translate(2240.00 928.00) rotate(172) scale(240.00 464.00)"><ellipse cx="0" cy="0" rx="1" ry="1" fill="rgb(0,53,182)" fill-opacity="0.502"/></g>
<polygon points="3064.60,2340.93 2980.68,2548.62 1927.40,2123.07 2011.32,1915.38" fill="rgb(30,43,110)" fill-opacity="0.502"/>
<g transform="translate(6768.00 3216.00) rotate(189) scale(352.00 128.00)"><ellipse cx="0" cy="0" rx="1" ry="1" fill="rgb(0,10,118)" fill-opacity="0.502"/></g>
<g transform="translate(1488.00 1568.00) rotate(298) scale(272.00 336.00)"><ellipse cx="0" cy="0" rx="1" ry="1" fill="rgb(7,16,91)" fill-opacity="0.502"/></g>
<g transform="translate(1840.00 1904.00) rotate(319) scale(128.00 48.00)"><ellipse cx="0" cy="0" rx="1" ry="1" fill="rgb(168,216,255)" fill-opacity="0.502"/></g>
<circle cx="2560.00" cy="2816.00" r="144.00" fill="rgb(59,103,255)" fill-opacity="0.502"/>
<g transform="translate(2112.00 1904.00) rotate(46) scale(48.00 400.00)"><ellipse cx="0" cy="0" rx="1" ry="1" fill="rgb(29,36,104)" fill-opacity="0.502"/></g>
<g transform="translate(4784.00 2800.00) rotate(345) scale(560.00 96.00)"><ellipse cx="0" cy="0" rx="1" ry="1" fill="rgb(95,101,210)" fill-opacity="0.502"/></g>
<circle cx="2016.00" cy="16.00" r="352.00" fill="rgb(0,26,128)" fill-opacity="0.502"/>
<g transform="translate(1664.00 3152.00) rotate(178) scale(560.00 240.00)"><ellipse cx="0" cy="0" rx="1" ry="1" fill="rgb(25,28,134)" fill-opacity="0.502"/></g>
<circle cx="7536.00" cy="3296.00" r="448.00" fill="rgb(0,0,0)" fill-opacity="0.502"/>
<circle cx="6304.00" cy="1568.00" r="288.00" fill="rgb(0,8,71)" fill-opacity="0.502"/>
<circle cx="3824.00" cy="2160.00" r="144.00" fill="rgb(14,7,84)" fill-opacity="0.502"/>
<g transform="translate(3088.00 688.00) rotate(22) scale(144.00 144.00)"><ellipse cx="0" cy="0" rx="1" ry="1" fill="rgb(243,255,255)" fill-opacity="0.502"/></g>
<polygon points="2574.46,3862.05 2745.95,3822.46 2785.54,3993.95 2614.05,4033.54" fill="rgb(74,138,232)" fill-opacity="0.502"/>
<polygon points="4945.24,1848.76 5360.99,1863.28 5358.76,1927.24 4943.01,1912.72" fill="rgb(129,166,243)" fill-opacity="0.502"/>
<g transform="translate(6032.00 3968.00) rotate(176) scale(256.00 384.00)"><ellipse cx="0" cy="0" rx="1" ry="1" fill="rgb(51,68,103)" fill-opacity="0.502"/></g>
<polygon points="2247.34,4361.48 2014.63,4781.30 1944.66,4742.52 2177.37,4322.70" fill="rgb(6,0,46)" fill-opacity="0.502"/>
<circle cx="4096.00" cy="3552.00" r="80.00" fill="rgb(163,220,255)" fill-opacity="0.502"/>
<circle cx="1584.00" cy="2256.00" r="128.00" fill="rgb(95,163,255)" fill-opacity="0.502"/>
<polygon points="2296.00,3864.00 2296.00,4424.00 2200.00,4424.00 2200.00,3864.00" fill="rgb(62,83,135)" fill-opacity="0.502"/>
<g transform="translate(3568.00 4592.00) rotate(156) scale(208.00 48.00)"><ellipse cx="0" cy="0" rx="1" ry="1" fill="rgb(150,129,95)" fill-opacity="0.502"/></g>
<polygon points="3082.13,3391.14 3557.46,3457.95 3541.87,3568.86 3066.54,3502.05" fill="rgb(185,13,42)" fill-opacity="0.502"/>
<polygon points="4999.85,2428.15 5095.49,2436.52 5080.15,2611.85 4984.51,2603.48" fill="rgb(5,27,16)" fill-opacity="0.502"/>
<polygon points="3270.61,3981.20 3100.23,4100.50 2953.39,3890.80 3123.77,3771.50" fill="rgb(251,255,255)" fill-opacity="0.502"/>
<circle cx="2112.00" cy="2592.00" r="144.00" fill="rgb(0,0,59)" fill-opacity="0.502"/>
<circle cx="2608.00" cy="2608.00" r="96.00" fill="rgb(255,117,156)" fill-opacity="0.502"/>
<polygon points="5457.94,3681.41 5454.03,3905.38 5294.06,3902.59 5297.97,3678.62" fill="rgb(14,52,70)" fill-opacity="0.502"/>
<g transform="translate(704.00 112.00) rotate(272) scale(7728.00 448.00)"><ellipse cx="0" cy="0" rx="1" ry="1" fill="rgb(0,0,0)" fill-opacity="0.502"/></g>
<polygon points="2643.83,3537.70 2852.96,3457.43 2956.17,3726.30 2747.04,3806.57" fill="rgb(46,24,87)" fill-opacity="0.502"/>
<g transform="translate(1504.00 208.00) rotate(291) scale(784.00 304.00)"><ellipse cx="0" cy="0" rx="1" ry="1" fill="rgb(0,16,96)" fill-opacity="0.502"/></g>
<circle cx="2480.00" cy="3472.00" r="144.00" fill="rgb(54,60,212)" fill-opacity="0.502"/>
<g transform="translate(1648.00 2448.00) rotate(199) scale(256.00 64.00)"><ellipse cx="0" cy="0" rx="1" ry="1" fill="rgb(25,47,87)" fill-opacity="0.502"/></g>
<g transform="translate(7744.00 4288.00) rotate(304) scale(752.00 608.00)"><ellipse cx="0" cy="0" rx="1" ry="1" fill="rgb(0,0,0)" fill-opacity="0.502"/></g>
<polygon points="6680.00,1944.00 6680.00,1432.00 7080.00,1432.00 7080.00,1944.00" fill="rgb(24,45,117)" fill-opacity="0.502"/>
<polygon points="4248.56,4155.17 4333.16,4345.18 4055.44,4468.83 3970.84,4278.82" fill="rgb(67,53,32)" fill-opacity="0.502"/>
<g transform="translate(4272.00 3536.00) rotate(93) scale(48.00 704.00)"><ellipse cx="0" cy="0" rx="1" ry="1" fill="rgb(146,209,255)" fill-opacity="0.502"/></g>
<circle cx="5600.00" cy="3728.00" r="208.00" fill="rgb(69,130,191)" fill-opacity="0.502"/>
<g transform="translate(3808.00 1680.00) rotate(193) scale(560.00 224.00)"><ellipse cx="0" cy="0" rx="1" ry="1" fill="rgb(18,69,228)" fill-opacity="0.502"/></g>
<polygon points="3053.93,2907.12 3078.93,2765.31 3394.07,2820.88 3369.07,2962.69" fill="rgb(110,157,255)" fill-opacity="0.502"/>
<circle cx="6256.00" cy="2160.00" r="128.00" fill="rgb(145,180,255)" fill-opacity="0.502"/>
<g transform="translate(1408.00 4032.00) rotate(167) scale(336.00 112.00)"><ellipse cx="0" cy="0" rx="1" ry="1" fill="rgb(52,86,112)" fill-opacity="0.502"/></g>
<circle cx="5664.00" cy="2576.00" r="160.00" fill="rgb(50,93,207)" fill-opacity="0.502"/>
<circle cx="5008.00" cy="3696.00" r="192.00" fill="rgb(83,148,216)" fill-opacity="0.502"/>
<polygon points="2110.31,1048.54 2439.46,1246.31 2241.69,1575.46 1912.54,1377.69" fill="rgb(0,36,146)" fill-opacity="0.502"/>
<polygon points="4859.02,2429.25 4395.38,2553.48 4324.98,2290.75 4788.62,2166.52" fill="rgb(136,117,97)" fill-opacity="0.502"/>
<circle cx="3472.00" cy="0.00" r="304.00" fill="rgb(0,60,205)" fill-opacity="0.502"/>
<g transform="translate(4848.00 3328.00) rotate(180) scale(400.00 176.00)"><ellipse cx="0" cy="0" rx="1" ry="1" fill="rgb(63,79,146)" fill-opacity="0.502"/></g>
<g transform="translate(3664.00 896.00) rotate(309) scale(496.00 144.00)"><ellipse cx="0" cy="0" rx="1" ry="1" fill="rgb(9,87,228)" fill-opacity="0.502"/></g>
<polygon points="3007.01,3171.79 2984.74,3330.23 2144.99,3212.21 2167.26,3053.77" fill="rgb(0,7,81)" fill-opacity="0.502"/>
<g transform="translate(6320.00 976.00) rotate(33) scale(192.00 160.00)"><ellipse cx="0" cy="0" rx="1" ry="1" fill="rgb(43,52,26)" fill-opacity="0.502"/></g>
<g transform="translate(6032.00 2224.00) rotate(276) scale(176.00 240.00)"><ellipse cx="0" cy="0" rx="1" ry="1" fill="rgb(113,153,254)" fill-opacity="0.502"/></g>
<polygon points="1855.65,1928.70 1836.94,1867.50 2112.35,1783.30 2131.06,1844.50" fill="rgb(125,177,255)" fill-opacity="0.502"/>
<polygon points="4411.30,2877.87 4725.85,2657.62 5028.70,3090.13 4714.15,3310.38" fill="rgb(63,92,205)" fill-opacity="0.502"/>
<g transform="translate(5248.00 1120.00) rotate(311) scale(240.00 496.00)"><ellipse cx="0" cy="0" rx="1" ry="1" fill="rgb(0,20,86)" fill-opacity="0.502"/></g>
<polygon points="6620.94,4013.61 6235.23,3857.77 6403.06,3442.39 6788.77,3598.23" fill="rgb(56,77,93)" fill-opacity="0.502"/>
<polygon points="6634.04,2851.81 6562.90,2656.36 7013.96,2492.19 7085.10,2687.64" fill="rgb(29,38,158)" fill-opacity="0.502"/>
<g transform="translate(2272.00 1696.00) rotate(264) scale(176.00 288.00)"><ellipse cx="0" cy="0" rx="1" ry="1" fill="rgb(21,35,112)" fill-opacity="0.502"/></g>
<polygon points="2761.27,1885.83 2958.11,2177.65 2838.73,2258.17 2641.89,1966.35" fill="rgb(67,110,154)" fill-opacity="0.502"/>
<polygon points="1424.49,2771.36 1314.19,2790.81 1247.51,2412.64 1357.81,2393.19" fill="rgb(107,106,89)" fill-opacity="0.502"/>
<circle cx="7664.00" cy="1152.00" r="624.00" fill="rgb(0,0,0)" fill-opacity="0.502"/>
<polygon points="3552.68,3085.48 3264.72,3090.51 3263.32,3010.52 3551.28,3005.49" fill="rgb(153,117,229)" fill-opacity="0.502"/>
<polygon points="2694.23,4011.07 2863.28,4373.59 2761.77,4420.93 2592.72,4058.41" fill="rgb(22,65,118)" fill-opacity="0.502"/>
<polygon points="3842.18,3607.86 3300.03,4031.44 3181.82,3880.14 3723.97,3456.56" fill="rgb(170,245,255)" fill-opacity="0.502"/>
<polygon points="2125.87,2856.02 2112.22,2967.18 1858.13,2935.98 1871.78,2824.82" fill="rgb(17,0,81)" fill-opacity="0.502"/>
<polygon points="1526.99,2052.75 1719.70,2266.78 1577.01,2395.25 1384.30,2181.22" fill="rgb(86,138,255)" fill-opacity="0.502"/>
<circle cx="2048.00" cy="3248.00" r="208.00" fill="rgb(4,14,118)" fill-opacity="0.502"/>
<g transform="translate(3296.00 2144.00) rotate(22) scale(240.00 80.00)"><ellipse cx="0" cy="0" rx="1" ry="1" fill="rgb(137,141,124)" fill-opacity="0.502"/></g>
<circle cx="2400.00" cy="3696.00" r="144.00" fill="rgb(44,22,74)" fill-opacity="0.502"/>
<polygon points="2080.00,3376.00 2848.00,3376.00 2848.00,3488.00 2080.00,3488.00" fill="rgb(35,54,196)" fill-opacity="0.502"/>
<circle cx="5216.00" cy="3472.00" r="160.00" fill="rgb(60,94,208)" fill-opacity="0.502"/>
<circle cx="2112.00" cy="2208.00" r="80.00" fill="rgb(48,120,255)" fill-opacity="0.502"/>
<polygon points="3646.97,1994.33 3685.80,1966.12 3761.03,2069.67 3722.20,2097.88" fill="rgb(41,32,96)" fill-opacity="0.502"/>
<polygon points="4360.27,278.55 4667.22,415.21 4263.73,1321.45 3956.78,1184.79" fill="rgb(0,41,155)" fill-opacity="0.502"/>
<g transform="translate(3280.00 2336.00) rotate(289) scale(160.00 208.00)"><ellipse cx="0" cy="0" rx="1" ry="1" fill="rgb(53,45,87)" fill-opacity="0.502"/></g>
<circle cx="2368.00" cy="480.00" r="176.00" fill="rgb(0,70,202)" fill-opacity="0.502"/>
<polygon points="2465.31,2457.98 2356.63,2430.89 2414.69,2198.02 2523.37,2225.11" fill="rgb(114,148,149)" fill-opacity="0.502"/>
<g transform="translate(5920.00 1776.00) rotate(126) scale(64.00 288.00)"><ellipse cx="0" cy="0" rx="1" ry="1" fill="rgb(93,139,255)" fill-opacity="0.502"/></g>
<polygon points="4303.78,4653.05 4459.79,4430.24 4512.22,4466.95 4356.21,4689.76" fill="rgb(121,195,255)" fill-opacity="0.502"/>
<polygon points="1826.06,2751.86 1683.68,2648.41 1805.94,2480.14 1948.32,2583.59" fill="rgb(0,29,70)" fill-opacity="0.502"/>
<circle cx="5888.00" cy="464.00" r="368.00" fill="rgb(0,8,61)" fill-opacity="0.502"/>
<polygon points="4674.69,2434.01 5030.15,2529.26 5005.31,2621.99 4649.85,2526.74" fill="rgb(65,61,97)" fill-opacity="0.502"/>
<polygon points="2150.73,1915.58 2281.63,1753.93 2729.27,2116.42 2598.37,2278.07" fill="rgb(5,26,98)" fill-opacity="0.502"/>
<polygon points="2119.65,1713.18 1740.38,1773.25 1720.35,1646.82 2099.62,1586.75" fill="rgb(42,50,80)" fill-opacity="0.502"/>
<polygon points="2817.15,1470.85 2945.15,1249.15 3166.85,1377.15 3038.85,1598.85" fill="rgb(9,64,161)" fill-opacity="0.502"/>
<polygon points="3400.17,4578.71 3567.99,4163.33 3671.83,4205.29 3504.01,4620.67" fill="rgb(48,13,28)" fill-opacity="0.502"/>
<polygon points="2073.06,4232.35 2007.56,4446.56 1670.94,4343.65 1736.44,4129.44" fill="rgb(49,125,208)" fill-opacity="0.502"/>
<g transform="translate(3760.00 4400.00) rotate(50) scale(32.00 96.00)"><ellipse cx="0" cy="0" rx="1" ry="1" fill="rgb(74,80,227)" fill-opacity="0.502"/></g>
<polygon points="2496.00,2672.00 2496.00,2624.00 3024.00,2624.00 3024.00,2672.00" fill="rgb(225,190,255)" fill-opacity="0.502"/>
<polygon points="6013.73,2511.59 5871.88,2663.71 5778.27,2576.41 5920.12,2424.29" fill="rgb(114,156,237)" fill-opacity="0.502"/>
<polygon points="1711.87,1983.15 1664.85,2047.87 1600.13,2000.85 1647.15,1936.13" fill="rgb(24,4,64)" fill-opacity="0.502"/>
<g transform="translate(2288.00 2816.00) rotate(110) scale(64.00 272.00)"><ellipse cx="0" cy="0" rx="1" ry="1" fill="rgb(63,103,237)" fill-opacity="0.502"/></g>
<g transform="translate(4784.00 1856.00) rotate(90) scale(80.00 240.00)"><ellipse cx="0" cy="0" rx="1" ry="1" fill="rgb(32,69,98)" fill-opacity="0.502"/></g>
<g transform="translate(2752.00 128.00) rotate(246) scale(96.00 400.00)"><ellipse cx="0" cy="0" rx="1" ry="1" fill="rgb(1,62,201)" fill-opacity="0.502"/></g>
<circle cx="4256.00" cy="2176.00" r="64.00" fill="rgb(142,194,255)" fill-opacity="0.502"/>
<circle cx="6240.00" cy="4240.00" r="96.00" fill="rgb(66,93,112)" fill-opacity="0.502"/>
<polygon points="4412.20,2378.12 4543.54,2738.96 4227.80,2853.88 4096.46,2493.04" fill="rgb(112,84,158)" fill-opacity="0.502"/>
<polygon points="5092.37,1356.04 5230.07,1313.94 5323.63,1619.96 5185.93,1662.06" fill="rgb(4,38,175)" fill-opacity="0.502"/>
<circle cx="5312.00" cy="3056.00" r="64.00" fill="rgb(125,154,255)" fill-opacity="0.502"/>
<circle cx="2496.00" cy="4272.00" r="144.00" fill="rgb(21,26,83)" fill-opacity="0.502"/>
<polygon points="4930.20,4201.88 4854.97,4098.33 4893.80,4070.12 4969.03,4173.67" fill="rgb(0,14,47)" fill-opacity="0.502"/>
<polygon points="6944.87,3843.62 6655.75,3749.67 6799.13,3308.38 7088.25,3402.33" fill="rgb(55,73,89)" fill-opacity="0.502"/>
<circle cx="3280.00" cy="704.00" r="112.00" fill="rgb(142,191,255)" fill-opacity="0.502"/>
<g transform="translate(1536.00 3072.00) rotate(174) scale(416.00 64.00)"><ellipse cx="0" cy="0" rx="1" ry="1" fill="rgb(56,69,178)" fill-opacity="0.502"/></g>
<polygon points="5408.96,3756.16 5510.47,3708.83 5551.04,3795.84 5449.53,3843.17" fill="rgb(9,34,47)" fill-opacity="0.502"/>
<circle cx="448.00" cy="3264.00" r="656.00" fill="rgb(0,0,0)" fill-opacity="0.502"/>
<g transform="translate(6896.00 1152.00) rotate(174) scale(224.00 272.00)"><ellipse cx="0" cy="0" rx="1" ry="1" fill="rgb(0,6,47)" fill-opacity="0.502"/></g>
<circle cx="3904.00" cy="1152.00" r="192.00" fill="rgb(0,61,179)" fill-opacity="0.502"/>
<polygon points="4926.39,4454.45 5168.05,4156.03 5441.61,4377.55 5199.95,4675.97" fill="rgb(80,112,149)" fill-opacity="0.502"/>
<circle cx="2256.00" cy="4144.00" r="80.00" fill="rgb(139,189,243)" fill-opacity="0.502"/>
<polygon points="6110.90,3070.04 6113.13,2942.06 6337.10,2945.96 6334.87,3073.94" fill="rgb(95,121,164)" fill-opacity="0.502"/>
<g transform="translate(1696.00 976.00) rotate(97) scale(784.00 144.00)"><ellipse cx="0" cy="0" rx="1" ry="1" fill="rgb(0,25,127)" fill-opacity="0.502"/></g>
<polygon points="4025.31,4175.79 3802.98,3968.46 4086.69,3664.21 4309.02,3871.54" fill="rgb(102,166,239)" fill-opacity="0.502"/>
<g transform="translate(7648.00 2480.00) rotate(345) scale(480.00 1328.00)"><ellipse cx="0" cy="0" rx="1" ry="1" fill="rgb(0,0,0)" fill-opacity="0.502"/></g>
<g transform="translate(3200.00 1952.00) rotate(176) scale(512.00 96.00)"><ellipse cx="0" cy="0" rx="1" ry="1" fill="rgb(135,193,249)" fill-opacity="0.502"/></g>
<g transform="translate(6784.00 4560.00) rotate(144) scale(336.00 224.00)"><ellipse cx="0" cy="0" rx="1" ry="1" fill="rgb(70,68,73)" fill-opacity="0.502"/></g>
<circle cx="1232.00" cy="1904.00" r="64.00" fill="rgb(35,131,255)" fill-opacity="0.502"/>
<polygon points="2412.30,3723.69 2231.17,3881.14 2115.70,3748.31 2296.83,3590.86" fill="rgb(20,32,69)" fill-opacity="0.502"/>
<circle cx="7520.00" cy="80.00" r="464.00" fill="rgb(0,0,0)" fill-opacity="0.502"/>
<circle cx="4384.00" cy="1952.00" r="176.00" fill="rgb(30,72,72)" fill-opacity="0.502"/>
<circle cx="2384.00" cy="4432.00" r="208.00" fill="rgb(26,19,60)" fill-opacity="0.502"/>
<circle cx="5280.00" cy="640.00" r="400.00" fill="rgb(0,15,91)" fill-opacity="0.502"/>
<polygon points="1587.84,2863.71 1392.38,2792.57 1436.16,2672.29 1631.62,2743.43" fill="rgb(178,183,165)" fill-opacity="0.502"/>
<g transform="translate(3120.00 1488.00) rotate(321) scale(80.00 256.00)"><ellipse cx="0" cy="0" rx="1" ry="1" fill="rgb(2,63,191)" fill-opacity="0.502"/></g>
<circle cx="4544.00" cy="3696.00" r="240.00" fill="rgb(97,168,254)" fill-opacity="0.502"/>
<circle cx="1712.00" cy="1904.00" r="96.00" fill="rgb(25,83,239)" fill-opacity="0.502"/>
<circle cx="1168.00" cy="1728.00" r="80.00" fill="rgb(74,125,255)" fill-opacity="0.502"/>
<polygon points="6383.50,4098.18 6228.17,4211.04 6096.50,4029.82 6251.83,3916.96" fill="rgb(35,43,60)" fill-opacity="0.502"/>
<polygon points="6363.56,4285.77 6573.50,4527.27 6404.44,4674.23 6194.50,4432.73" fill="rgb(37,24,38)" fill-opacity="0.502"/>
<polygon points="4008.80,2295.92 3992.08,2136.80 4151.20,2120.08 4167.92,2279.20" fill="rgb(44,33,67)" fill-opacity="0.502"/>
<circle cx="1424.00" cy="1904.00" r="80.00" fill="rgb(28,116,255)" fill-opacity="0.502"/>
<circle cx="3440.00" cy="3472.00" r="144.00" fill="rgb(149,22,64)" fill-opacity="0.502"/>
<circle cx="3872.00" cy="3248.00" r="240.00" fill="rgb(57,63,145)" fill-opacity="0.502"/>
<circle cx="3312.00" cy="3200.00" r="144.00" fill="rgb(15,77,189)" fill-opacity="0.502"/>
<polygon points="5567.04,966.31 5469.80,1517.81 5264.96,1481.69 5362.20,930.19" fill="rgb(5,21,79)" fill-opacity="0.502"/>
<g transform="translate(3952.00 112.00) rotate(224) scale(976.00 144.00)"><ellipse cx="0" cy="0" rx="1" ry="1" fill="rgb(0,37,163)" fill-opacity="0.502"/></g>
<polygon points="3140.26,2794.84 2888.10,2991.85 2779.74,2853.16 3031.90,2656.15" fill="rgb(0,24,174)" fill-opacity="0.502"/>
<g transform="translate(4944.00 3792.00) rotate(268) scale(288.00 288.00)"><ellipse cx="0" cy="0" rx="1" ry="1" fill="rgb(85,143,210)" fill-opacity="0.502"/></g>
<polygon points="5512.91,4372.59 5792.79,4217.45 5847.09,4315.41 5567.21,4470.55" fill="rgb(39,28,40)" fill-opacity="0.502"/>
<circle cx="5152.00" cy="2144.00" r="64.00" fill="rgb(57,62,79)" fill-opacity="0.502"/>
<circle cx="2016.00" cy="2080.00" r="80.00" fill="rgb(4,1,36)" fill-opacity="0.502"/>
<g transform="translate(1792.00 4096.00) rotate(45) scale(32.00 272.00)"><ellipse cx="0" cy="0" rx="1" ry="1" fill="rgb(66,105,159)" fill-opacity="0.502"/></g>
<g transform="translate(1664.00 2432.00) rotate(175) scale(320.00 32.00)"><ellipse cx="0" cy="0" rx="1" ry="1" fill="rgb(94,117,202)" fill-opacity="0.502"/></g>
<g transform="translate(6208.00 1376.00) rotate(170) scale(480.00 352.00)"><ellipse cx="0" cy="0" rx="1" ry="1" fill="rgb(1,17,68)" fill-opacity="0.502"/></g>
<polygon points="2547.25,907.81 2657.16,342.39 2892.75,388.19 2782.84,953.61" fill="rgb(61,118,249)" fill-opacity="0.502"/>
<g transform="translate(5248.00 2736.00) rotate(109) scale(112.00 112.00)"><ellipse cx="0" cy="0" rx="1" ry="1" fill="rgb(102,109,214)" fill-opacity="0.502"/></g>
<polygon points="2196.98,3680.76 2184.46,3759.78 1979.02,3727.24 1991.54,3648.22" fill="rgb(0,11,55)" fill-opacity="0.502"/>
<polygon points="4826.74,2228.53 4867.87,2179.50 5125.26,2395.47 5084.13,2444.50" fill="rgb(158,186,220)" fill-opacity="0.502"/>
<polygon points="1518.96,4637.88 1228.94,4502.64 1425.04,4082.12 1715.06,4217.36" fill="rgb(33,89,162)" fill-opacity="0.502"/>
<polygon points="2394.10,3807.54 2529.30,4061.83 2373.90,4144.46 2238.70,3890.17" fill="rgb(203,200,192)" fill-opacity="0.502"/>
<g transform="translate(3696.00 1520.00) rotate(8) scale(336.00 352.00)"><ellipse cx="0" cy="0" rx="1" ry="1" fill="rgb(8,75,210)" fill-opacity="0.502"/></g>
<polygon points="4312.69,4609.42 4264.80,4606.07 4279.31,4398.58 4327.20,4401.93" fill="rgb(134,185,252)" fill-opacity="0.502"/>
<polygon points="4300.57,2100.69 4028.73,2091.20 4035.43,1899.31 4307.27,1908.80" fill="rgb(136,145,145)" fill-opacity="0.502"/>
<g transform="translate(2912.00 1216.00) rotate(220) scale(1008.00 112.00)"><ellipse cx="0" cy="0" rx="1" ry="1" fill="rgb(9,76,209)" fill-opacity="0.502"/></g>
<polygon points="4717.65,4494.59 4387.82,4430.47 4418.35,4273.41 4748.18,4337.53" fill="rgb(57,75,96)" fill-opacity="0.502"/>
<circle cx="6960.00" cy="3568.00" r="128.00" fill="rgb(27,40,72)" fill-opacity="0.502"/>
<polygon points="5759.74,2580.13 5864.71,2700.89 5792.26,2763.87 5687.29,2643.11" fill="rgb(45,83,229)" fill-opacity="0.502"/>
<g transform="translate(1728.00 4112.00) rotate(191) scale(32.00 144.00)"><ellipse cx="0" cy="0" rx="1" ry="1" fill="rgb(197,234,253)" fill-opacity="0.502"/></g>
<circle cx="6624.00" cy="816.00" r="256.00" fill="rgb(2,7,44)" fill-opacity="0.502"/>
<polygon points="2784.00,2528.00 2544.00,2528.00 2544.00,2000.00 2784.00,2000.00" fill="rgb(39,48,116)" fill-opacity="0.502"/>
<circle cx="7552.00" cy="3184.00" r="480.00" fill="rgb(0,0,0)" fill-opacity="0.502"/>
<g transform="translate(4512.00 1776.00) rotate(270) scale(144.00 144.00)"><ellipse cx="0" cy="0" rx="1" ry="1" fill="rgb(45,99,119)" fill-opacity="0.502"/></g>
<circle cx="3760.00" cy="400.00" r="144.00" fill="rgb(0,70,205)" fill-opacity="0.502"/>
<g transform="translate(1728.00 4288.00) rotate(51) scale(128.00 208.00)"><ellipse cx="0" cy="0" rx="1" ry="1" fill="rgb(47,112,187)" fill-opacity="0.502"/></g>
<g transform="translate(1584.00 3456.00) rotate(360) scale(480.00 112.00)"><ellipse cx="0" cy="0" rx="1" ry="1" fill="rgb(41,66,168)" fill-opacity="0.502"/></g>
<circle cx="2768.00" cy="3168.00" r="208.00" fill="rgb(2,21,100)" fill-opacity="0.502"/>
<circle cx="144.00" cy="4336.00" r="960.00" fill="rgb(0,0,0)" fill-opacity="0.502"/>
<polygon points="2291.21,3589.00 2860.28,3425.82 2908.79,3595.00 2339.72,3758.18" fill="rgb(47,34,124)" fill-opacity="0.502"/>
<g transform="translate(2800.00 1392.00) rotate(303) scale(208.00 272.00)"><ellipse cx="0" cy="0" rx="1" ry="1" fill="rgb(11,64,174)" fill-opacity="0.502"/></g>
<circle cx="3552.00" cy="3808.00" r="144.00" fill="rgb(149,228,255)" fill-opacity="0.502"/>
<g transform="translate(6160.00 3344.00) rotate(178) scale(272.00 144.00)"><ellipse cx="0" cy="0" rx="1" ry="1" fill="rgb(38,47,112)" fill-opacity="0.502"/></g>
<polygon points="2835.59,1635.94 2997.24,1766.84 2876.41,1916.06 2714.76,1785.16" fill="rgb(171,243,252)" fill-opacity="0.502"/>
<circle cx="6496.00" cy="3440.00" r="112.00" fill="rgb(16,17,62)" fill-opacity="0.502"/>
<polygon points="3520.54,2941.62 3248.58,2946.37 3247.46,2882.38 3519.42,2877.63" fill="rgb(78,0,65)" fill-opacity="0.502"/>
<polygon points="2554.59,2755.72 2428.73,3101.53 2293.41,3052.28 2419.27,2706.47" fill="rgb(57,106,255)" fill-opacity="0.502"/>
<polygon points="903.55,1665.57 904.67,1633.59 1272.45,1646.43 1271.33,1678.41" fill="rgb(12,3,15)" fill-opacity="0.502"/>
<polygon points="2957.47,4321.41 3045.02,4561.97 2834.53,4638.59 2746.98,4398.03" fill="rgb(56,20,40)" fill-opacity="0.502"/>
<g transform="translate(2176.00 4592.00) rotate(217) scale(64.00 256.00)"><ellipse cx="0" cy="0" rx="1" ry="1" fill="rgb(63,75,108)" fill-opacity="0.502"/></g>
<circle cx="5424.00" cy="3808.00" r="80.00" fill="rgb(17,47,67)" fill-opacity="0.502"/>
<polygon points="6438.83,3175.77 6368.69,3319.58 6009.17,3144.23 6079.31,3000.42" fill="rgb(40,64,187)" fill-opacity="0.502"/>
<g transform="translate(6912.00 688.00) rotate(218) scale(192.00 160.00)"><ellipse cx="0" cy="0" rx="1" ry="1" fill="rgb(10,28,57)" fill-opacity="0.502"/></g>
<polygon points="5329.92,4602.87 5901.25,4394.92 5934.08,4485.13 5362.75,4693.08" fill="rgb(80,113,166)" fill-opacity="0.502"/>
<polygon points="3149.09,814.11 3214.16,960.28 2994.91,1057.89 2929.84,911.72" fill="rgb(118,169,240)" fill-opacity="0.502"/>
<circle cx="6480.00" cy="2432.00" r="144.00" fill="rgb(23,25,70)" fill-opacity="0.502"/>
<circle cx="5520.00" cy="2640.00" r="48.00" fill="rgb(132,165,255)" fill-opacity="0.502"/>
<polygon points="6466.00,3074.48 6462.09,2962.55 6606.00,2957.52 6609.91,3069.45" fill="rgb(119,126,90)" fill-opacity="0.502"/>
<circle cx="5392.00" cy="3232.00" r="112.00" fill="rgb(87,119,246)" fill-opacity="0.502"/>
<circle cx="6752.00" cy="2336.00" r="48.00" fill="rgb(119,128,248)" fill-opacity="0.502"/>
<circle cx="6256.00" cy="2768.00" r="176.00" fill="rgb(35,30,89)" fill-opacity="0.502"/>
<g transform="translate(3248.00 3280.00) rotate(75) scale(64.00 752.00)"><ellipse cx="0" cy="0" rx="1" ry="1" fill="rgb(30,57,168)" fill-opacity="0.502"/></g>
<polygon points="3525.22,4535.46 3515.45,4423.88 3690.78,4408.54 3700.55,4520.12" fill="rgb(116,80,70)" fill-opacity="0.502"/>
<g transform="translate(4416.00 2592.00) rotate(182) scale(32.00 64.00)"><ellipse cx="0" cy="0" rx="1" ry="1" fill="rgb(198,200,202)" fill-opacity="0.502"/></g>
<g transform="translate(1216.00 3632.00) rotate(259) scale(128.00 112.00)"><ellipse cx="0" cy="0" rx="1" ry="1" fill="rgb(44,56,144)" fill-opacity="0.502"/></g>
<polygon points="3437.42,644.62 3075.38,282.58 3154.58,203.38 3516.62,565.42" fill="rgb(72,118,247)" fill-opacity="0.502"/>
<polygon points="7070.08,3018.91 7053.66,3064.01 6737.92,2949.09 6754.34,2903.99" fill="rgb(94,133,255)" fill-opacity="0.502"/>
<polygon points="2845.67,3790.15 2765.12,3690.68 2914.33,3569.85 2994.88,3669.32" fill="rgb(62,30,83)" fill-opacity="0.502"/>
<circle cx="4816.00" cy="1616.00" r="160.00" fill="rgb(9,56,222)" fill-opacity="0.502"/>
<polygon points="1816.63,2695.87 1910.16,2717.46 1863.37,2920.13 1769.84,2898.54" fill="rgb(114,110,166)" fill-opacity="0.502"/>
<g transform="translate(2320.00 144.00) rotate(46) scale(80.00 528.00)"><ellipse cx="0" cy="0" rx="1" ry="1" fill="rgb(1,41,154)" fill-opacity="0.502"/></g>
<g transform="translate(4144.00 4160.00) rotate(132) scale(256.00 48.00)"><ellipse cx="0" cy="0" rx="1" ry="1" fill="rgb(41,56,85)" fill-opacity="0.502"/></g>
<circle cx="2896.00" cy="4000.00" r="112.00" fill="rgb(145,189,221)" fill-opacity="0.502"/>
<polygon points="4709.47,4270.45 4899.49,4185.85 4938.53,4273.55 4748.51,4358.15" fill="rgb(121,171,232)" fill-opacity="0.502"/>
<circle cx="2912.00" cy="1200.00" r="96.00" fill="rgb(42,111,230)" fill-opacity="0.502"/>
<polygon points="3082.87,3984.90 3020.76,3753.08 3237.13,3695.10 3299.24,3926.92" fill="rgb(217,255,255)" fill-opacity="0.502"/>
<g transform="translate(1840.00 3520.00) rotate(191) scale(352.00 80.00)"><ellipse cx="0" cy="0" rx="1" ry="1" fill="rgb(39,76,174)" fill-opacity="0.502"/></g>
<g transform="translate(320.00 1248.00) rotate(0) scale(784.00 4592.00)"><ellipse cx="0" cy="0" rx="1" ry="1" fill="rgb(0,0,0)" fill-opacity="0.502"/></g>
<circle cx="5424.00" cy="2240.00" r="224.00" fill="rgb(143,181,250)" fill-opacity="0.502"/>
<g transform="translate(3904.00 4080.00) rotate(159) scale(160.00 96.00)"><ellipse cx="0" cy="0" rx="1" ry="1" fill="rgb(57,95,148)" fill-opacity="0.502"/></g>
<polygon points="4149.11,2734.45 4135.73,2861.75 3562.89,2801.55 3576.27,2674.25" fill="rgb(65,61,130)" fill-opacity="0.502"/>
<polygon points="6563.48,2008.52 6995.22,2023.60 6988.52,2215.48 6556.78,2200.40" fill="rgb(8,12,59)" fill-opacity="0.502"/>
<circle cx="1760.00" cy="2064.00" r="80.00" fill="rgb(170,200,255)" fill-opacity="0.502"/>
<polygon points="6462.03,3387.36 6447.01,3482.18 6209.97,3444.64 6224.99,3349.82" fill="rgb(13,12,78)" fill-opacity="0.502"/>
<circle cx="7776.00" cy="352.00" r="704.00" fill="rgb(0,0,0)" fill-opacity="0.502"/>
<polygon points="4390.26,4377.86 4631.83,4019.72 4777.74,4118.14 4536.17,4476.28" fill="rgb(53,74,103)" fill-opacity="0.502"/>
<circle cx="5104.00" cy="2192.00" r="112.00" fill="rgb(86,88,112)" fill-opacity="0.502"/>
<circle cx="2496.00" cy="1680.00" r="96.00" fill="rgb(4,20,119)" fill-opacity="0.502"/>
<circle cx="5440.00" cy="1312.00" r="64.00" fill="rgb(65,85,124)" fill-opacity="0.502"/>
<circle cx="6800.00" cy="3040.00" r="80.00" fill="rgb(13,39,175)" fill-opacity="0.502"/>
<polygon points="3150.15,4329.85 2743.24,4243.36 2769.85,4118.15 3176.76,4204.64" fill="rgb(44,103,188)" fill-opacity="0.502"/>
<polygon points="6246.04,1657.75 5894.25,1670.04 5881.96,1318.25 6233.75,1305.96" fill="rgb(5,21,74)" fill-opacity="0.502"/>
<polygon points="1846.47,4325.06 2036.71,4496.36 1897.53,4650.94 1707.29,4479.64" fill="rgb(83,153,231)" fill-opacity="0.502"/>
<circle cx="3344.00" cy="1792.00" r="48.00" fill="rgb(184,237,255)" fill-opacity="0.502"/>
<polygon points="6198.48,2499.92 6219.52,2456.78 6521.52,2604.08 6500.48,2647.22" fill="rgb(24,21,65)" fill-opacity="0.502"/>
<polygon points="3706.18,4658.69 3985.98,4210.92 4053.82,4253.31 3774.02,4701.08" fill="rgb(28,15,45)" fill-opacity="0.502"/>
<polygon points="2441.41,2240.48 2383.73,2144.48 2438.59,2111.52 2496.27,2207.52" fill="rgb(102,126,200)" fill-opacity="0.502"/>
<polygon points="1680.80,2827.52 1168.88,2836.46 1167.20,2740.48 1679.12,2731.54" fill="rgb(160,176,160)" fill-opacity="0.502"/>
<polygon points="6842.48,4495.77 6749.21,4645.02 6613.52,4560.23 6706.79,4410.98" fill="rgb(63,86,100)" fill-opacity="0.502"/>
<polygon points="4393.31,3711.58 4090.98,3679.80 4102.69,3568.42 4405.02,3600.20" fill="rgb(40,68,128)" fill-opacity="0.502"/>
<circle cx="5136.00" cy="2400.00" r="112.00" fill="rgb(107,116,127)" fill-opacity="0.502"/>
<polygon points="5550.73,4375.55 5332.47,4325.17 5361.27,4200.45 5579.53,4250.83" fill="rgb(38,29,39)" fill-opacity="0.502"/>
<polygon points="3101.58,3393.30 3717.90,3295.68 3730.42,3374.70 3114.10,3472.32" fill="rgb(133,57,142)" fill-opacity="0.502"/>
<g transform="translate(5584.00 880.00) rotate(102) scale(400.00 256.00)"><ellipse cx="0" cy="0" rx="1" ry="1" fill="rgb(0,12,69)" fill-opacity="0.502"/></g>
<polygon points="3230.51,2931.83 3385.75,2893.12 3393.49,2924.17 3238.25,2962.88" fill="rgb(35,0,57)" fill-opacity="0.502"/>
<g transform="translate(1216.00 2240.00) rotate(267) scale(80.00 112.00)"><ellipse cx="0" cy="0" rx="1" ry="1" fill="rgb(90,132,255)" fill-opacity="0.502"/></g>
</g>
</svg>