<?xml version="1.0" standalone="no"?>
<svg xmlns="http://www.w3.org/2000/svg" width="8192" height="4608" viewBox="0 0 8192 4608" style="overflow:hidden">
<defs>
<clipPath id="c"><rect x="0" y="0" width="8192" height="4608"/></clipPath>
</defs>
<rect width="8192" height="4608" fill="rgb(61,43,35)"/>
<g clip-path="url(#c)">
<circle cx="6048.00" cy="2864.00" r="1168.00" fill="rgb(255,255,252)" fill-opacity="0.502"/>
<g transform="translate(4976.00 3216.00) rotate(215) scale(768.00 496.00)"><ellipse cx="0" cy="0" rx="1" ry="1" fill="rgb(0,0,8)" fill-opacity="0.502"/></g>
<circle cx="240.00" cy="2272.00" r="2384.00" fill="rgb(0,0,0)" fill-opacity="0.502"/>
<circle cx="6384.00" cy="4016.00" r="720.00" fill="rgb(222,190,160)" fill-opacity="0.502"/>
<polygon points="5964.72,2768.10 4111.27,2670.96 4147.28,1983.90 6000.73,2081.04" fill="rgb(255,255,255)" fill-opacity="0.502"/>
<circle cx="6672.00" cy="2064.00" r="432.00" fill="rgb(255,231,187)" fill-opacity="0.502"/>
<polygon points="7088.00,816.00 8176.00,816.00 8176.00,4592.00 7088.00,4592.00" fill="rgb(0,0,0)" fill-opacity="0.502"/>
<g transform="translate(3232.00 3232.00) rotate(355) scale(1632.00 656.00)"><ellipse cx="0" cy="0" rx="1" ry="1" fill="rgb(0,0,0)" fill-opacity="0.502"/></g>
<polygon points="6992.00,1184.00 6992.00,0.00 8176.00,-0.00 8176.00,1184.00" fill="rgb(0,0,0)" fill-opacity="0.502"/>
<g transform="translate(4544.00 2464.00) rotate(218) scale(288.00 336.00)"><ellipse cx="0" cy="0" rx="1" ry="1" fill="rgb(209,243,255)" fill-opacity="0.502"/></g>
<circle cx="5328.00" cy="3792.00" r="592.00" fill="rgb(134,88,59)" fill-opacity="0.502"/>
<g transform="translate(1472.00 2496.00) rotate(328) scale(352.00 416.00)"><ellipse cx="0" cy="0" rx="1" ry="1" fill="rgb(147,103,73)" fill-opacity="0.502"/></g>
<g transform="translate(6624.00 3168.00) rotate(60) scale(624.00 400.00)"><ellipse cx="0" cy="0" rx="1" ry="1" fill="rgb(244,233,222)" fill-opacity="0.502"/></g>
<circle cx="4704.00" cy="3952.00" r="304.00" fill="rgb(209,154,118)" fill-opacity="0.502"/>
<circle cx="7584.00" cy="2848.00" r="528.00" fill="rgb(0,0,0)" fill-opacity="0.502"/>
<g transform="translate(208.00 2544.00) rotate(360) scale(912.00 4592.00)"><ellipse cx="0" cy="0" rx="1" ry="1" fill="rgb(0,0,0)" fill-opacity="0.502"/></g>
<polygon points="6520.32,4853.40 6456.70,3943.62 6871.68,3914.60 6935.30,4824.38" fill="rgb(215,233,235)" fill-opacity="0.502"/>
<polygon points="6167.04,2002.77 1759.32,1539.50 1944.96,-226.77 6352.68,236.50" fill="rgb(101,33,0)" fill-opacity="0.502"/>
<g transform="translate(6368.00 3776.00) rotate(89) scale(144.00 976.00)"><ellipse cx="0" cy="0" rx="1" ry="1" fill="rgb(89,25,0)" fill-opacity="0.502"/></g>
<g transform="translate(7696.00 1840.00) rotate(271) scale(5520.00 608.00)"><ellipse cx="0" cy="0" rx="1" ry="1" fill="rgb(0,0,0)" fill-opacity="0.502"/></g>
<polygon points="5938.85,2662.04 6071.91,3288.06 5837.15,3337.96 5704.09,2711.94" fill="rgb(255,255,255)" fill-opacity="0.502"/>
<polygon points="2680.00,3880.00 2680.00,4216.00 2296.00,4216.00 2296.00,3880.00" fill="rgb(255,204,162)" fill-opacity="0.502"/>
<g transform="translate(2016.00 2528.00) rotate(145) scale(224.00 224.00)"><ellipse cx="0" cy="0" rx="1" ry="1" fill="rgb(133,92,63)" fill-opacity="0.502"/></g>
<circle cx="3424.00" cy="3216.00" r="848.00" fill="rgb(0,0,4)" fill-opacity="0.502"/>
<g transform="translate(4976.00 3264.00) rotate(77) scale(688.00 304.00)"><ellipse cx="0" cy="0" rx="1" ry="1" fill="rgb(0,1,20)" fill-opacity="0.502"/></g>
<circle cx="5552.00" cy="2512.00" r="416.00" fill="rgb(218,242,255)" fill-opacity="0.502"/>
<circle cx="4272.00" cy="1872.00" r="272.00" fill="rgb(60,31,5)" fill-opacity="0.502"/>
<g transform="translate(5600.00 3376.00) rotate(0) scale(224.00 368.00)"><ellipse cx="0" cy="0" rx="1" ry="1" fill="rgb(187,132,103)" fill-opacity="0.502"/></g>
<g transform="translate(2112.00 4080.00) rotate(298) scale(208.00 272.00)"><ellipse cx="0" cy="0" rx="1" ry="1" fill="rgb(247,169,127)" fill-opacity="0.502"/></g>
<g transform="translate(1696.00 4096.00) rotate(187) scale(352.00 224.00)"><ellipse cx="0" cy="0" rx="1" ry="1" fill="rgb(140,87,58)" fill-opacity="0.502"/></g>
<circle cx="0.00" cy="1168.00" r="1216.00" fill="rgb(0,0,0)" fill-opacity="0.502"/>
<polygon points="4368.00,3952.00 6608.00,3952.00 6608.00,4048.00 4368.00,4048.00" fill="rgb(253,212,181)" fill-opacity="0.502"/>
<circle cx="6864.00" cy="1840.00" r="256.00" fill="rgb(255,180,149)" fill-opacity="0.502"/>
<g transform="translate(2800.00 2608.00) rotate(101) scale(240.00 464.00)"><ellipse cx="0" cy="0" rx="1" ry="1" fill="rgb(124,73,47)" fill-opacity="0.502"/></g>
<circle cx="6496.00" cy="2384.00" r="288.00" fill="rgb(255,213,192)" fill-opacity="0.502"/>
<circle cx="2016.00" cy="320.00" r="928.00" fill="rgb(54,30,14)" fill-opacity="0.502"/>
<circle cx="4176.00" cy="3984.00" r="288.00" fill="rgb(156,118,89)" fill-opacity="0.502"/>
<g transform="translate(2672.00 4592.00) rotate(89) scale(256.00 2928.00)"><ellipse cx="0" cy="0" rx="1" ry="1" fill="rgb(0,0,0)" fill-opacity="0.502"/></g>
<polygon points="5991.17,4385.73 4233.58,4477.84 4216.83,4158.27 5974.42,4066.16" fill="rgb(52,28,9)" fill-opacity="0.502"/>
<g transform="translate(416.00 3040.00) rotate(94) scale(4912.00 624.00)"><ellipse cx="0" cy="0" rx="1" ry="1" fill="rgb(0,0,0)" fill-opacity="0.502"/></g>
<polygon points="6171.42,2205.95 6272.17,2724.25 6036.58,2770.05 5935.83,2251.75" fill="rgb(50,74,108)" fill-opacity="0.502"/>
<g transform="translate(4656.00 2736.00) rotate(181) scale(464.00 144.00)"><ellipse cx="0" cy="0" rx="1" ry="1" fill="rgb(0,49,166)" fill-opacity="0.502"/></g>
<g transform="translate(5664.00 640.00) rotate(110) scale(1168.00 1456.00)"><ellipse cx="0" cy="0" rx="1" ry="1" fill="rgb(91,36,10)" fill-opacity="0.502"/></g>
<circle cx="7680.00" cy="3920.00" r="608.00" fill="rgb(0,0,0)" fill-opacity="0.502"/>
<g transform="translate(4880.00 2384.00) rotate(0) scale(672.00 208.00)"><ellipse cx="0" cy="0" rx="1" ry="1" fill="rgb(222,236,255)" fill-opacity="0.502"/></g>
<g transform="translate(3328.00 2128.00) rotate(48) scale(400.00 736.00)"><ellipse cx="0" cy="0" rx="1" ry="1" fill="rgb(60,23,3)" fill-opacity="0.502"/></g>
<polygon points="5370.88,4263.51 5259.72,4277.16 5205.12,3832.49 5316.28,3818.84" fill="rgb(0,0,0)" fill-opacity="0.502"/>
<circle cx="5456.00" cy="3968.00" r="112.00" fill="rgb(255,231,207)" fill-opacity="0.502"/>
<circle cx="7776.00" cy="624.00" r="720.00" fill="rgb(0,0,0)" fill-opacity="0.502"/>
<circle cx="7680.00" cy="1840.00" r="608.00" fill="rgb(0,0,0)" fill-opacity="0.502"/>
<g transform="translate(6368.00 3808.00) rotate(336) scale(224.00 128.00)"><ellipse cx="0" cy="0" rx="1" ry="1" fill="rgb(117,57,18)" fill-opacity="0.502"/></g>
<circle cx="5968.00" cy="3520.00" r="160.00" fill="rgb(255,255,255)" fill-opacity="0.502"/>
<circle cx="2576.00" cy="3296.00" r="544.00" fill="rgb(3,2,3)" fill-opacity="0.502"/>
<g transform="translate(4864.00 2416.00) rotate(350) scale(64.00 416.00)"><ellipse cx="0" cy="0" rx="1" ry="1" fill="rgb(43,75,152)" fill-opacity="0.502"/></g>
<g transform="translate(6624.00 1520.00) rotate(264) scale(176.00 480.00)"><ellipse cx="0" cy="0" rx="1" ry="1" fill="rgb(60,35,18)" fill-opacity="0.502"/></g>
<g transform="translate(6016.00 2144.00) rotate(21) scale(112.00 128.00)"><ellipse cx="0" cy="0" rx="1" ry="1" fill="rgb(28,41,80)" fill-opacity="0.502"/></g>
<polygon points="5269.92,1652.00 5423.15,1231.02 6250.08,1532.00 6096.85,1952.98" fill="rgb(44,36,24)" fill-opacity="0.502"/>
<circle cx="6192.00" cy="3040.00" r="176.00" fill="rgb(91,83,58)" fill-opacity="0.502"/>
<g transform="translate(4656.00 1520.00) rotate(251) scale(512.00 1152.00)"><ellipse cx="0" cy="0" rx="1" ry="1" fill="rgb(80,42,20)" fill-opacity="0.502"/></g>
<g transform="translate(6288.00 3648.00) rotate(335) scale(144.00 384.00)"><ellipse cx="0" cy="0" rx="1" ry="1" fill="rgb(139,82,50)" fill-opacity="0.502"/></g>
<circle cx="5744.00" cy="2000.00" r="144.00" fill="rgb(230,202,180)" fill-opacity="0.502"/>
<polygon points="5930.41,4306.44 6146.77,4248.46 6229.59,4557.56 6013.23,4615.54" fill="rgb(158,179,159)" fill-opacity="0.502"/>
<circle cx="6560.00" cy="3440.00" r="256.00" fill="rgb(243,248,249)" fill-opacity="0.502"/>
<polygon points="1648.00,2624.00 1648.00,2464.00 1936.00,2464.00 1936.00,2624.00" fill="rgb(0,0,0)" fill-opacity="0.502"/>
<circle cx="6816.00" cy="2640.00" r="272.00" fill="rgb(194,139,100)" fill-opacity="0.502"/>
<g transform="translate(6976.00 3328.00) rotate(168) scale(80.00 352.00)"><ellipse cx="0" cy="0" rx="1" ry="1" fill="rgb(255,255,243)" fill-opacity="0.502"/></g>
<polygon points="1648.00,2288.00 1648.00,2432.00 1280.00,2432.00 1280.00,2288.00" fill="rgb(190,137,110)" fill-opacity="0.502"/>
<circle cx="1472.00" cy="3360.00" r="128.00" fill="rgb(228,163,135)" fill-opacity="0.502"/>
<g transform="translate(4992.00 3296.00) rotate(37) scale(416.00 272.00)"><ellipse cx="0" cy="0" rx="1" ry="1" fill="rgb(1,6,5)" fill-opacity="0.502"/></g>
<polygon points="2058.80,4171.40 2023.70,3885.55 2357.20,3844.60 2392.30,4130.45" fill="rgb(210,163,139)" fill-opacity="0.502"/>
<g transform="translate(5920.00 3408.00) rotate(195) scale(80.00 96.00)"><ellipse cx="0" cy="0" rx="1" ry="1" fill="rgb(255,255,254)" fill-opacity="0.502"/></g>
<g transform="translate(1536.00 2736.00) rotate(196) scale(80.00 208.00)"><ellipse cx="0" cy="0" rx="1" ry="1" fill="rgb(200,150,119)" fill-opacity="0.502"/></g>
<circle cx="3824.00" cy="2592.00" r="368.00" fill="rgb(19,22,30)" fill-opacity="0.502"/>
<polygon points="5647.69,1855.89 5743.98,1983.67 5552.31,2128.11 5456.02,2000.33" fill="rgb(178,139,108)" fill-opacity="0.502"/>
<g transform="translate(4096.00 2224.00) rotate(123) scale(128.00 160.00)"><ellipse cx="0" cy="0" rx="1" ry="1" fill="rgb(213,168,134)" fill-opacity="0.502"/></g>
<polygon points="1279.52,2972.39 1022.57,2687.02 1248.48,2483.61 1505.43,2768.98" fill="rgb(32,21,10)" fill-opacity="0.502"/>
<g transform="translate(2096.00 1792.00) rotate(7) scale(848.00 464.00)"><ellipse cx="0" cy="0" rx="1" ry="1" fill="rgb(22,12,7)" fill-opacity="0.502"/></g>
<g transform="translate(4480.00 880.00) rotate(259) scale(592.00 1632.00)"><ellipse cx="0" cy="0" rx="1" ry="1" fill="rgb(101,45,17)" fill-opacity="0.502"/></g>
<circle cx="4512.00" cy="2864.00" r="208.00" fill="rgb(17,32,71)" fill-opacity="0.502"/>
<g transform="translate(5776.00 2384.00) rotate(209) scale(176.00 128.00)"><ellipse cx="0" cy="0" rx="1" ry="1" fill="rgb(254,255,255)" fill-opacity="0.502"/></g>
<g transform="translate(3392.00 3584.00) rotate(52) scale(432.00 640.00)"><ellipse cx="0" cy="0" rx="1" ry="1" fill="rgb(0,2,6)" fill-opacity="0.502"/></g>
<g transform="translate(5600.00 3376.00) rotate(230) scale(192.00 112.00)"><ellipse cx="0" cy="0" rx="1" ry="1" fill="rgb(222,167,139)" fill-opacity="0.502"/></g>
<polygon points="5490.42,3607.18 5548.99,3738.73 5373.58,3816.82 5315.01,3685.27" fill="rgb(35,0,0)" fill-opacity="0.502"/>
<circle cx="5776.00" cy="2848.00" r="240.00" fill="rgb(234,243,255)" fill-opacity="0.502"/>
<polygon points="2504.40,4251.24 2586.83,3827.18 2759.60,3860.76 2677.17,4284.82" fill="rgb(143,80,53)" fill-opacity="0.502"/>
<polygon points="4312.74,3851.58 3724.42,3263.26 4007.26,2980.42 4595.58,3568.74" fill="rgb(0,4,10)" fill-opacity="0.502"/>
<g transform="translate(608.00 3424.00) rotate(179) scale(496.00 4528.00)"><ellipse cx="0" cy="0" rx="1" ry="1" fill="rgb(0,0,0)" fill-opacity="0.502"/></g>
<circle cx="7424.00" cy="1792.00" r="352.00" fill="rgb(0,0,0)" fill-opacity="0.502"/>
<g transform="translate(5584.00 4544.00) rotate(244) scale(560.00 320.00)"><ellipse cx="0" cy="0" rx="1" ry="1" fill="rgb(74,49,31)" fill-opacity="0.502"/></g>
<polygon points="7072.00,2384.00 7024.00,2384.00 7024.00,1568.00 7072.00,1568.00" fill="rgb(255,222,194)" fill-opacity="0.502"/>
<circle cx="6160.00" cy="2864.00" r="144.00" fill="rgb(78,84,80)" fill-opacity="0.502"/>
<polygon points="6947.80,3839.48 7080.63,3954.94 6860.20,4208.52 6727.37,4093.06" fill="rgb(188,147,119)" fill-opacity="0.502"/>
<circle cx="5184.00" cy="2080.00" r="160.00" fill="rgb(195,177,156)" fill-opacity="0.502"/>
<circle cx="1824.00" cy="4416.00" r="272.00" fill="rgb(32,15,5)" fill-opacity="0.502"/>
<circle cx="2224.00" cy="1552.00" r="368.00" fill="rgb(59,32,16)" fill-opacity="0.502"/>
<polygon points="1474.74,3879.26 2087.27,3998.33 2029.26,4296.74 1416.73,4177.67" fill="rgb(125,81,56)" fill-opacity="0.502"/>
<circle cx="5168.00" cy="1792.00" r="176.00" fill="rgb(28,38,31)" fill-opacity="0.502"/>
<circle cx="7728.00" cy="4160.00" r="656.00" fill="rgb(0,0,0)" fill-opacity="0.502"/>
<polygon points="4976.00,2160.00 5728.00,2160.00 5728.00,2624.00 4976.00,2624.00" fill="rgb(200,215,242)" fill-opacity="0.502"/>
<polygon points="6516.63,2870.21 6523.34,3254.16 6315.37,3257.79 6308.66,2873.84" fill="rgb(236,235,237)" fill-opacity="0.502"/>
<polygon points="7039.43,3618.71 7056.18,3858.13 6896.57,3869.29 6879.82,3629.87" fill="rgb(134,89,59)" fill-opacity="0.502"/>
<g transform="translate(6784.00 2144.00) rotate(157) scale(192.00 496.00)"><ellipse cx="0" cy="0" rx="1" ry="1" fill="rgb(208,158,135)" fill-opacity="0.502"/></g>
<circle cx="6704.00" cy="336.00" r="384.00" fill="rgb(71,27,5)" fill-opacity="0.502"/>
<polygon points="6646.29,4093.96 6783.10,4469.84 6617.71,4530.04 6480.90,4154.16" fill="rgb(196,231,255)" fill-opacity="0.502"/>
<circle cx="6240.00" cy="3296.00" r="128.00" fill="rgb(147,104,76)" fill-opacity="0.502"/>
<circle cx="4112.00" cy="3904.00" r="208.00" fill="rgb(150,118,98)" fill-opacity="0.502"/>
<polygon points="4793.73,2559.11 4269.67,2623.46 4246.27,2432.89 4770.33,2368.54" fill="rgb(255,255,255)" fill-opacity="0.502"/>
<circle cx="1840.00" cy="4128.00" r="144.00" fill="rgb(63,34,16)" fill-opacity="0.502"/>
<circle cx="1680.00" cy="2928.00" r="160.00" fill="rgb(1,0,0)" fill-opacity="0.502"/>
<circle cx="4336.00" cy="3904.00" r="112.00" fill="rgb(0,0,0)" fill-opacity="0.502"/>
<g transform="translate(1584.00 752.00) rotate(84) scale(384.00 496.00)"><ellipse cx="0" cy="0" rx="1" ry="1" fill="rgb(61,33,17)" fill-opacity="0.502"/></g>
<circle cx="2496.00" cy="960.00" r="480.00" fill="rgb(82,41,19)" fill-opacity="0.502"/>
<circle cx="1248.00" cy="2704.00" r="176.00" fill="rgb(47,32,21)" fill-opacity="0.502"/>
<g transform="translate(4896.00 3888.00) rotate(39) scale(256.00 272.00)"><ellipse cx="0" cy="0" rx="1" ry="1" fill="rgb(170,117,82)" fill-opacity="0.502"/></g>
<circle cx="6880.00" cy="3040.00" r="208.00" fill="rgb(200,188,171)" fill-opacity="0.502"/>
<circle cx="6544.00" cy="1136.00" r="544.00" fill="rgb(70,31,12)" fill-opacity="0.502"/>
<circle cx="1856.00" cy="0.00" r="720.00" fill="rgb(47,26,15)" fill-opacity="0.502"/>
<polygon points="2144.00,3840.00 1248.00,3840.00 1248.00,3632.00 2144.00,3632.00" fill="rgb(0,0,3)" fill-opacity="0.502"/>
<polygon points="6428.91,2269.57 6337.32,2740.75 6243.09,2722.43 6334.68,2251.25" fill="rgb(250,241,236)" fill-opacity="0.502"/>
<circle cx="3808.00" cy="4144.00" r="112.00" fill="rgb(117,88,72)" fill-opacity="0.502"/>
<circle cx="4800.00" cy="3248.00" r="448.00" fill="rgb(9,13,19)" fill-opacity="0.502"/>
<circle cx="4816.00" cy="1824.00" r="224.00" fill="rgb(51,44,28)" fill-opacity="0.502"/>
<g transform="translate(2896.00 1808.00) rotate(25) scale(432.00 288.00)"><ellipse cx="0" cy="0" rx="1" ry="1" fill="rgb(64,26,9)" fill-opacity="0.502"/></g>
<g transform="translate(4480.00 4032.00) rotate(265) scale(32.00 736.00)"><ellipse cx="0" cy="0" rx="1" ry="1" fill="rgb(224,195,168)" fill-opacity="0.502"/></g>
<g transform="translate(7536.00 1504.00) rotate(218) scale(544.00 432.00)"><ellipse cx="0" cy="0" rx="1" ry="1" fill="rgb(0,0,0)" fill-opacity="0.502"/></g>
<g transform="translate(7968.00 3136.00) rotate(225) scale(880.00 896.00)"><ellipse cx="0" cy="0" rx="1" ry="1" fill="rgb(0,0,0)" fill-opacity="0.502"/></g>
<circle cx="3664.00" cy="2944.00" r="528.00" fill="rgb(5,7,10)" fill-opacity="0.502"/>
<polygon points="5744.08,2958.98 5946.75,2912.19 6079.92,3489.02 5877.25,3535.81" fill="rgb(240,241,232)" fill-opacity="0.502"/>
<polygon points="6452.10,4147.95 5926.63,4007.15 5963.90,3868.05 6489.37,4008.85" fill="rgb(240,198,168)" fill-opacity="0.502"/>
<g transform="translate(6624.00 2656.00) rotate(206) scale(176.00 304.00)"><ellipse cx="0" cy="0" rx="1" ry="1" fill="rgb(206,159,132)" fill-opacity="0.502"/></g>
<polygon points="2049.16,2567.49 2015.71,2249.24 2174.84,2232.51 2208.29,2550.76" fill="rgb(167,115,90)" fill-opacity="0.502"/>
<polygon points="6093.03,1794.24 6397.55,1652.24 6498.97,1869.76 6194.45,2011.76" fill="rgb(250,187,150)" fill-opacity="0.502"/>
<circle cx="6048.00" cy="2064.00" r="128.00" fill="rgb(87,76,59)" fill-opacity="0.502"/>
<polygon points="2212.72,4430.00 2082.00,4228.72 2283.28,4098.00 2414.00,4299.28" fill="rgb(88,38,15)" fill-opacity="0.502"/>
<circle cx="7696.00" cy="192.00" r="656.00" fill="rgb(0,0,0)" fill-opacity="0.502"/>
<polygon points="6855.01,2147.02 6537.39,2108.02 6552.99,1980.98 6870.61,2019.98" fill="rgb(166,114,87)" fill-opacity="0.502"/>
<polygon points="6304.00,3328.00 6048.00,3328.00 6048.00,2928.00 6304.00,2928.00" fill="rgb(134,116,94)" fill-opacity="0.502"/>
<g transform="translate(5072.00 4320.00) rotate(12) scale(576.00 80.00)"><ellipse cx="0" cy="0" rx="1" ry="1" fill="rgb(57,36,23)" fill-opacity="0.502"/></g>
<polygon points="7076.69,2678.73 7149.96,2301.79 7291.31,2329.27 7218.04,2706.21" fill="rgb(0,0,0)" fill-opacity="0.502"/>
<circle cx="4064.00" cy="1744.00" r="416.00" fill="rgb(71,39,20)" fill-opacity="0.502"/>
<polygon points="4608.16,2058.99 4635.95,2216.56 4383.84,2261.01 4356.05,2103.44" fill="rgb(212,181,144)" fill-opacity="0.502"/>
<g transform="translate(6848.00 4416.00) rotate(183) scale(240.00 512.00)"><ellipse cx="0" cy="0" rx="1" ry="1" fill="rgb(166,157,143)" fill-opacity="0.502"/></g>
<g transform="translate(2640.00 4528.00) rotate(250) scale(336.00 528.00)"><ellipse cx="0" cy="0" rx="1" ry="1" fill="rgb(34,17,4)" fill-opacity="0.502"/></g>
<circle cx="4336.00" cy="3184.00" r="304.00" fill="rgb(2,5,14)" fill-opacity="0.502"/>
<circle cx="5920.00" cy="400.00" r="784.00" fill="rgb(90,38,15)" fill-opacity="0.502"/>
<polygon points="6444.71,4581.44 6301.79,4598.99 6243.29,4122.56 6386.21,4105.01" fill="rgb(90,84,63)" fill-opacity="0.502"/>
<g transform="translate(5872.00 4592.00) rotate(274) scale(240.00 128.00)"><ellipse cx="0" cy="0" rx="1" ry="1" fill="rgb(116,99,80)" fill-opacity="0.502"/></g>
<circle cx="6704.00" cy="2928.00" r="80.00" fill="rgb(123,129,135)" fill-opacity="0.502"/>
<g transform="translate(2368.00 4000.00) rotate(177) scale(1072.00 32.00)"><ellipse cx="0" cy="0" rx="1" ry="1" fill="rgb(41,12,0)" fill-opacity="0.502"/></g>
<polygon points="6260.51,3699.50 6094.10,3642.20 6203.49,3324.50 6369.90,3381.80" fill="rgb(157,113,83)" fill-opacity="0.502"/>
<circle cx="1184.00" cy="1888.00" r="96.00" fill="rgb(156,105,72)" fill-opacity="0.502"/>
<polygon points="3837.94,2395.82 3991.27,2280.27 4386.06,2804.18 4232.73,2919.73" fill="rgb(44,54,74)" fill-opacity="0.502"/>
<g transform="translate(2720.00 2448.00) rotate(242) scale(80.00 176.00)"><ellipse cx="0" cy="0" rx="1" ry="1" fill="rgb(152,101,80)" fill-opacity="0.502"/></g>
<polygon points="3731.72,2288.40 3799.60,2356.28 3788.28,2367.60 3720.40,2299.72" fill="rgb(179,167,151)" fill-opacity="0.502"/>
<circle cx="1456.00" cy="3264.00" r="80.00" fill="rgb(209,161,127)" fill-opacity="0.502"/>
<polygon points="1379.29,2672.32 1332.17,2663.16 1420.71,2207.68 1467.83,2216.84" fill="rgb(6,0,2)" fill-opacity="0.502"/>
<circle cx="1440.00" cy="3536.00" r="80.00" fill="rgb(116,85,82)" fill-opacity="0.502"/>
<g transform="translate(2592.00 256.00) rotate(335) scale(1232.00 448.00)"><ellipse cx="0" cy="0" rx="1" ry="1" fill="rgb(61,32,17)" fill-opacity="0.502"/></g>
<g transform="translate(5456.00 2624.00) rotate(73) scale(352.00 80.00)"><ellipse cx="0" cy="0" rx="1" ry="1" fill="rgb(246,250,252)" fill-opacity="0.502"/></g>
<circle cx="1280.00" cy="1136.00" r="208.00" fill="rgb(42,23,10)" fill-opacity="0.502"/>
<circle cx="2464.00" cy="3904.00" r="64.00" fill="rgb(255,238,219)" fill-opacity="0.502"/>
<polygon points="5148.61,2793.71 5255.62,2697.36 5555.39,3030.29 5448.38,3126.64" fill="rgb(101,93,95)" fill-opacity="0.502"/>
<circle cx="736.00" cy="0.00" r="512.00" fill="rgb(0,0,0)" fill-opacity="0.502"/>
<polygon points="6398.77,3142.38 6522.38,2936.66 6577.23,2969.62 6453.62,3175.34" fill="rgb(255,255,255)" fill-opacity="0.502"/>
<circle cx="6688.00" cy="4416.00" r="112.00" fill="rgb(201,230,244)" fill-opacity="0.502"/>
<g transform="translate(6704.00 1872.00) rotate(329) scale(448.00 112.00)"><ellipse cx="0" cy="0" rx="1" ry="1" fill="rgb(240,179,151)" fill-opacity="0.502"/></g>
<polygon points="1651.74,1114.77 2177.94,1349.05 2028.26,1685.23 1502.06,1450.95" fill="rgb(41,24,15)" fill-opacity="0.502"/>
<circle cx="5680.00" cy="3184.00" r="112.00" fill="rgb(63,47,28)" fill-opacity="0.502"/>
<g transform="translate(1200.00 4288.00) rotate(291) scale(400.00 224.00)"><ellipse cx="0" cy="0" rx="1" ry="1" fill="rgb(6,7,5)" fill-opacity="0.502"/></g>
<circle cx="5968.00" cy="1984.00" r="80.00" fill="rgb(69,56,47)" fill-opacity="0.502"/>
<circle cx="7856.00" cy="2560.00" r="784.00" fill="rgb(0,0,0)" fill-opacity="0.502"/>
<circle cx="1920.00" cy="3264.00" r="400.00" fill="rgb(8,6,6)" fill-opacity="0.502"/>
<g transform="translate(3904.00 2480.00) rotate(74) scale(352.00 96.00)"><ellipse cx="0" cy="0" rx="1" ry="1" fill="rgb(44,32,26)" fill-opacity="0.502"/></g>
<circle cx="1504.00" cy="1888.00" r="272.00" fill="rgb(0,0,8)" fill-opacity="0.502"/>
<g transform="translate(2512.00 2144.00) rotate(266) scale(320.00 112.00)"><ellipse cx="0" cy="0" rx="1" ry="1" fill="rgb(8,6,14)" fill-opacity="0.502"/></g>
<polygon points="3005.32,1839.31 3450.94,2151.33 3074.68,2688.69 2629.06,2376.67" fill="rgb(71,36,18)" fill-opacity="0.502"/>
<circle cx="6240.00" cy="1488.00" r="272.00" fill="rgb(67,40,25)" fill-opacity="0.502"/>
<g transform="translate(5408.00 3216.00) rotate(109) scale(192.00 144.00)"><ellipse cx="0" cy="0" rx="1" ry="1" fill="rgb(149,107,83)" fill-opacity="0.502"/></g>
<g transform="translate(2944.00 3488.00) rotate(27) scale(1136.00 288.00)"><ellipse cx="0" cy="0" rx="1" ry="1" fill="rgb(8,8,10)" fill-opacity="0.502"/></g>
<polygon points="2188.12,2265.27 1941.26,2413.60 1619.88,1878.73 1866.74,1730.40" fill="rgb(11,11,8)" fill-opacity="0.502"/>
<polygon points="5322.90,1907.44 5275.67,1639.57 5701.10,1564.56 5748.33,1832.43" fill="rgb(35,37,29)" fill-opacity="0.502"/>
<circle cx="1680.00" cy="2384.00" r="64.00" fill="rgb(197,143,104)" fill-opacity="0.502"/>
<g transform="translate(4560.00 816.00) rotate(319) scale(1456.00 704.00)"><ellipse cx="0" cy="0" rx="1" ry="1" fill="rgb(93,41,17)" fill-opacity="0.502"/></g>
<g transform="translate(6384.00 2528.00) rotate(274) scale(336.00 112.00)"><ellipse cx="0" cy="0" rx="1" ry="1" fill="rgb(245,216,203)" fill-opacity="0.502"/></g>
<polygon points="4336.00,4368.00 3008.00,4368.00 3008.00,4128.00 4336.00,4128.00" fill="rgb(75,40,18)" fill-opacity="0.502"/>
<polygon points="1264.00,1392.00 1264.00,1808.00 1104.00,1808.00 1104.00,1392.00" fill="rgb(62,38,26)" fill-opacity="0.502"/>
<polygon points="3986.84,3745.49 4225.06,3774.74 4221.16,3806.51 3982.94,3777.26" fill="rgb(255,255,245)" fill-opacity="0.502"/>
<circle cx="5264.00" cy="3696.00" r="112.00" fill="rgb(6,9,0)" fill-opacity="0.502"/>
<polygon points="5491.01,2206.89 5662.31,2016.64 5804.99,2145.11 5633.69,2335.36" fill="rgb(162,187,232)" fill-opacity="0.502"/>
<polygon points="3215.90,3807.06 3277.95,3919.01 2928.10,4112.94 2866.05,4000.99" fill="rgb(0,2,2)" fill-opacity="0.502"/>
<circle cx="3744.00" cy="2032.00" r="256.00" fill="rgb(40,27,19)" fill-opacity="0.502"/>
<polygon points="6420.65,2361.11 6584.47,2513.88 6475.35,2630.89 6311.53,2478.12" fill="rgb(230,170,139)" fill-opacity="0.502"/>
<g transform="translate(3456.00 1776.00) rotate(171) scale(720.00 240.00)"><ellipse cx="0" cy="0" rx="1" ry="1" fill="rgb(72,35,17)" fill-opacity="0.502"/></g>
<g transform="translate(7136.00 0.00) rotate(72) scale(144.00 320.00)"><ellipse cx="0" cy="0" rx="1" ry="1" fill="rgb(11,4,0)" fill-opacity="0.502"/></g>
<polygon points="5733.80,4284.45 6045.89,4089.44 6122.20,4211.55 5810.11,4406.56" fill="rgb(76,52,31)" fill-opacity="0.502"/>
<polygon points="5389.21,1569.76 5335.77,1189.50 5842.79,1118.24 5896.23,1498.50" fill="rgb(88,38,15)" fill-opacity="0.502"/>
<polygon points="4744.39,3812.72 5010.28,3665.34 5095.61,3819.28 4829.72,3966.66" fill="rgb(116,57,21)" fill-opacity="0.502"/>
<circle cx="2432.00" cy="4080.00" r="80.00" fill="rgb(255,233,204)" fill-opacity="0.502"/>
<polygon points="5953.06,2373.52 6000.59,2366.84 6062.94,2810.48 6015.41,2817.16" fill="rgb(67,98,221)" fill-opacity="0.502"/>
<polygon points="6505.30,2413.84 6920.68,2581.66 6902.70,2626.16 6487.32,2458.34" fill="rgb(205,178,146)" fill-opacity="0.502"/>
<polygon points="6818.56,1994.23 6240.32,2182.11 6141.44,1877.77 6719.68,1689.89" fill="rgb(231,182,156)" fill-opacity="0.502"/>
<circle cx="3936.00" cy="3152.00" r="480.00" fill="rgb(6,7,12)" fill-opacity="0.502"/>
<polygon points="6770.22,3488.54 6631.04,3643.11 6333.78,3375.46 6472.96,3220.89" fill="rgb(249,251,250)" fill-opacity="0.502"/>
<polygon points="4522.58,4004.31 4494.51,3912.50 4693.42,3851.69 4721.49,3943.50" fill="rgb(87,49,24)" fill-opacity="0.502"/>
<circle cx="6912.00" cy="3328.00" r="112.00" fill="rgb(255,255,255)" fill-opacity="0.502"/>
<g transform="translate(6896.00 4512.00) rotate(45) scale(64.00 224.00)"><ellipse cx="0" cy="0" rx="1" ry="1" fill="rgb(118,113,91)" fill-opacity="0.502"/></g>
<circle cx="2144.00" cy="2624.00" r="112.00" fill="rgb(39,37,22)" fill-opacity="0.502"/>
<circle cx="2064.00" cy="4096.00" r="80.00" fill="rgb(251,196,150)" fill-opacity="0.502"/>
<polygon points="4941.57,2201.89 5148.78,2183.76 5186.43,2614.11 4979.22,2632.24" fill="rgb(251,255,255)" fill-opacity="0.502"/>
<polygon points="5609.15,2627.27 5555.16,2861.12 5414.85,2828.73 5468.84,2594.88" fill="rgb(249,253,255)" fill-opacity="0.502"/>
<circle cx="7920.00" cy="960.00" r="848.00" fill="rgb(0,0,0)" fill-opacity="0.502"/>
<circle cx="7584.00" cy="4464.00" r="512.00" fill="rgb(0,0,0)" fill-opacity="0.502"/>
<g transform="translate(5984.00 3600.00) rotate(183) scale(112.00 128.00)"><ellipse cx="0" cy="0" rx="1" ry="1" fill="rgb(255,255,255)" fill-opacity="0.502"/></g>
<g transform="translate(2128.00 3904.00) rotate(320) scale(64.00 16.00)"><ellipse cx="0" cy="0" rx="1" ry="1" fill="rgb(255,213,200)" fill-opacity="0.502"/></g>
<polygon points="1104.00,3168.00 1200.00,3168.00 1200.00,3696.00 1104.00,3696.00" fill="rgb(98,67,40)" fill-opacity="0.502"/>
<g transform="translate(2320.00 3408.00) rotate(25) scale(480.00 448.00)"><ellipse cx="0" cy="0" rx="1" ry="1" fill="rgb(9,7,7)" fill-opacity="0.502"/></g>
<polygon points="1272.74,2912.72 1394.37,3310.54 1287.26,3343.28 1165.63,2945.46" fill="rgb(7,6,5)" fill-opacity="0.502"/>
<polygon points="3922.94,3960.64 3934.64,3849.25 4221.06,3879.36 4209.36,3990.75" fill="rgb(105,48,27)" fill-opacity="0.502"/>
<g transform="translate(6064.00 1712.00) rotate(163) scale(576.00 96.00)"><ellipse cx="0" cy="0" rx="1" ry="1" fill="rgb(83,60,38)" fill-opacity="0.502"/></g>
<circle cx="3280.00" cy="4592.00" r="224.00" fill="rgb(7,4,0)" fill-opacity="0.502"/>
<polygon points="6179.54,4815.44 6016.38,4313.28 6092.46,4288.56 6255.62,4790.72" fill="rgb(164,168,148)" fill-opacity="0.502"/>
<polygon points="1996.52,2401.02 2029.86,2366.49 2179.48,2510.98 2146.14,2545.51" fill="rgb(211,141,110)" fill-opacity="0.502"/>
<g transform="translate(2704.00 1808.00) rotate(100) scale(128.00 992.00)"><ellipse cx="0" cy="0" rx="1" ry="1" fill="rgb(54,28,15)" fill-opacity="0.502"/></g>
<polygon points="6879.71,1673.37 6762.57,1410.27 7040.29,1286.63 7157.43,1549.73" fill="rgb(64,38,22)" fill-opacity="0.502"/>
<g transform="translate(1280.00 3520.00) rotate(287) scale(352.00 48.00)"><ellipse cx="0" cy="0" rx="1" ry="1" fill="rgb(12,8,10)" fill-opacity="0.502"/></g>
<polygon points="5983.50,1840.82 6141.94,1818.55 6304.50,2975.18 6146.06,2997.45" fill="rgb(114,107,85)" fill-opacity="0.502"/>
<polygon points="6411.22,4249.75 6548.84,4608.24 6324.78,4694.25 6187.16,4335.76" fill="rgb(110,107,86)" fill-opacity="0.502"/>
<circle cx="4512.00" cy="848.00" r="448.00" fill="rgb(99,43,17)" fill-opacity="0.502"/>
<polygon points="2256.00,3856.00 2272.00,3856.00 2272.00,4224.00 2256.00,4224.00" fill="rgb(6,0,0)" fill-opacity="0.502"/>
<polygon points="6963.57,4317.99 6809.77,4273.89 6924.43,3874.01 7078.23,3918.11" fill="rgb(178,143,116)" fill-opacity="0.502"/>
<circle cx="3312.00" cy="2592.00" r="144.00" fill="rgb(5,8,6)" fill-opacity="0.502"/>
<polygon points="1240.00,2664.00 1240.00,2952.00 1128.00,2952.00 1128.00,2664.00" fill="rgb(111,71,46)" fill-opacity="0.502"/>
<polygon points="1934.81,2520.37 1756.36,2315.09 1889.19,2199.63 2067.64,2404.91" fill="rgb(82,43,19)" fill-opacity="0.502"/>
<g transform="translate(5936.00 2800.00) rotate(258) scale(384.00 48.00)"><ellipse cx="0" cy="0" rx="1" ry="1" fill="rgb(218,233,250)" fill-opacity="0.502"/></g>
<circle cx="4352.00" cy="2400.00" r="160.00" fill="rgb(243,241,251)" fill-opacity="0.502"/>
<polygon points="6142.27,3712.35 6125.60,3806.89 5857.73,3759.65 5874.40,3665.11" fill="rgb(138,94,63)" fill-opacity="0.502"/>
<circle cx="1200.00" cy="2288.00" r="128.00" fill="rgb(118,73,48)" fill-opacity="0.502"/>
<polygon points="5239.93,2865.88 5192.52,2858.37 5240.07,2558.12 5287.48,2565.63" fill="rgb(65,88,158)" fill-opacity="0.502"/>
<circle cx="2240.00" cy="4592.00" r="288.00" fill="rgb(17,17,10)" fill-opacity="0.502"/>
<circle cx="5968.00" cy="1760.00" r="176.00" fill="rgb(61,40,25)" fill-opacity="0.502"/>
<circle cx="1568.00" cy="3600.00" r="144.00" fill="rgb(0,0,0)" fill-opacity="0.502"/>
<g transform="translate(5616.00 3936.00) rotate(2) scale(192.00 48.00)"><ellipse cx="0" cy="0" rx="1" ry="1" fill="rgb(255,255,238)" fill-opacity="0.502"/></g>
<polygon points="3996.88,4012.91 4203.32,3987.56 4211.12,4051.09 4004.68,4076.44" fill="rgb(199,185,159)" fill-opacity="0.502"/>
<polygon points="1485.04,2788.76 1506.49,2963.44 1442.96,2971.24 1421.51,2796.56" fill="rgb(163,127,102)" fill-opacity="0.502"/>
<g transform="translate(3520.00 2352.00) rotate(305) scale(512.00 80.00)"><ellipse cx="0" cy="0" rx="1" ry="1" fill="rgb(15,12,8)" fill-opacity="0.502"/></g>
<polygon points="6736.00,3808.00 6736.00,3520.00 6800.00,3520.00 6800.00,3808.00" fill="rgb(135,109,87)" fill-opacity="0.502"/>
<g transform="translate(4688.00 3744.00) rotate(357) scale(256.00 16.00)"><ellipse cx="0" cy="0" rx="1" ry="1" fill="rgb(255,255,255)" fill-opacity="0.502"/></g>
<circle cx="2144.00" cy="3040.00" r="320.00" fill="rgb(13,8,4)" fill-opacity="0.502"/>
<polygon points="5912.06,4441.60 6401.95,4519.19 6391.94,4582.40 5902.05,4504.81" fill="rgb(110,107,83)" fill-opacity="0.502"/>
<g transform="translate(1552.00 1664.00) rotate(322) scale(160.00 240.00)"><ellipse cx="0" cy="0" rx="1" ry="1" fill="rgb(0,2,8)" fill-opacity="0.502"/></g>
<circle cx="5440.00" cy="3840.00" r="80.00" fill="rgb(120,55,31)" fill-opacity="0.502"/>
<polygon points="4824.36,2751.03 4473.70,2720.36 4487.64,2560.97 4838.30,2591.64" fill="rgb(39,88,220)" fill-opacity="0.502"/>
<circle cx="5488.00" cy="3200.00" r="48.00" fill="rgb(224,182,156)" fill-opacity="0.502"/>
<g transform="translate(2576.00 4112.00) rotate(155) scale(160.00 64.00)"><ellipse cx="0" cy="0" rx="1" ry="1" fill="rgb(209,145,118)" fill-opacity="0.502"/></g>
<polygon points="3580.30,4183.84 3512.68,4038.83 3715.70,3944.16 3783.32,4089.17" fill="rgb(90,67,48)" fill-opacity="0.502"/>
<circle cx="5824.00" cy="3584.00" r="64.00" fill="rgb(146,139,134)" fill-opacity="0.502"/>
<circle cx="2544.00" cy="4256.00" r="128.00" fill="rgb(97,44,19)" fill-opacity="0.502"/>
<circle cx="4032.00" cy="2416.00" r="112.00" fill="rgb(58,61,73)" fill-opacity="0.502"/>
<polygon points="4992.73,2883.61 4644.70,3045.90 4543.27,2828.39 4891.30,2666.10" fill="rgb(24,35,57)" fill-opacity="0.502"/>
<polygon points="3986.72,4050.72 4125.28,4130.72 4045.28,4269.28 3906.72,4189.28" fill="rgb(109,67,45)" fill-opacity="0.502"/>
<g transform="translate(1872.00 2560.00) rotate(285) scale(48.00 496.00)"><ellipse cx="0" cy="0" rx="1" ry="1" fill="rgb(3,2,0)" fill-opacity="0.502"/></g>
<circle cx="5136.00" cy="2688.00" r="80.00" fill="rgb(187,205,244)" fill-opacity="0.502"/>
<polygon points="5240.00,2920.00 5240.00,3368.00 5064.00,3368.00 5064.00,2920.00" fill="rgb(30,27,17)" fill-opacity="0.502"/>
<circle cx="2560.00" cy="4528.00" r="256.00" fill="rgb(20,16,9)" fill-opacity="0.502"/>
<g transform="translate(6704.00 752.00) rotate(128) scale(512.00 256.00)"><ellipse cx="0" cy="0" rx="1" ry="1" fill="rgb(75,32,13)" fill-opacity="0.502"/></g>
<polygon points="1864.32,4124.70 1778.31,3900.64 1927.68,3843.30 2013.69,4067.36" fill="rgb(134,85,55)" fill-opacity="0.502"/>
<polygon points="6561.60,3951.65 6374.37,3777.06 6494.40,3648.35 6681.63,3822.94" fill="rgb(138,84,47)" fill-opacity="0.502"/>
<polygon points="2671.94,2867.61 2754.34,2730.46 2864.06,2796.39 2781.66,2933.54" fill="rgb(39,21,12)" fill-opacity="0.502"/>
<circle cx="6880.00" cy="2976.00" r="96.00" fill="rgb(252,244,234)" fill-opacity="0.502"/>
<polygon points="5637.59,2765.19 5621.67,2766.86 5546.41,2050.81 5562.33,2049.14" fill="rgb(29,36,118)" fill-opacity="0.502"/>
<polygon points="6703.07,3558.98 6769.87,3083.66 6864.93,3097.02 6798.13,3572.34" fill="rgb(186,180,170)" fill-opacity="0.502"/>
<polygon points="5901.95,4000.18 6010.31,4138.87 5922.05,4207.82 5813.69,4069.13" fill="rgb(146,90,61)" fill-opacity="0.502"/>
<circle cx="1744.00" cy="2608.00" r="96.00" fill="rgb(22,21,8)" fill-opacity="0.502"/>
<polygon points="2677.38,2680.63 2605.47,2645.56 2682.62,2487.37 2754.53,2522.44" fill="rgb(201,134,110)" fill-opacity="0.502"/>
<polygon points="4946.86,2559.88 4909.20,2129.52 4925.14,2128.12 4962.80,2558.48" fill="rgb(82,95,96)" fill-opacity="0.502"/>
<g transform="translate(4496.00 2400.00) rotate(170) scale(384.00 16.00)"><ellipse cx="0" cy="0" rx="1" ry="1" fill="rgb(135,149,215)" fill-opacity="0.502"/></g>
<circle cx="240.00" cy="336.00" r="864.00" fill="rgb(0,0,0)" fill-opacity="0.502"/>
<g transform="translate(192.00 3696.00) rotate(299) scale(896.00 928.00)"><ellipse cx="0" cy="0" rx="1" ry="1" fill="rgb(0,0,0)" fill-opacity="0.502"/></g>
<circle cx="2912.00" cy="1088.00" r="512.00" fill="rgb(84,41,17)" fill-opacity="0.502"/>
<polygon points="7017.12,2215.42 7001.42,2218.47 6854.88,1464.58 6870.58,1461.53" fill="rgb(73,22,0)" fill-opacity="0.502"/>
<g transform="translate(1936.00 1392.00) rotate(110) scale(240.00 416.00)"><ellipse cx="0" cy="0" rx="1" ry="1" fill="rgb(44,24,13)" fill-opacity="0.502"/></g>
<g transform="translate(1760.00 1904.00) rotate(50) scale(320.00 96.00)"><ellipse cx="0" cy="0" rx="1" ry="1" fill="rgb(2,4,7)" fill-opacity="0.502"/></g>
<polygon points="2322.10,2235.30 2041.48,2300.09 1965.90,1972.70 2246.52,1907.91" fill="rgb(41,31,21)" fill-opacity="0.502"/>
<polygon points="5911.74,3866.14 5896.09,3869.47 5816.26,3493.86 5831.91,3490.53" fill="rgb(119,106,89)" fill-opacity="0.502"/>
<polygon points="4710.33,1889.91 4727.88,2032.84 4489.67,2062.09 4472.12,1919.16" fill="rgb(74,67,48)" fill-opacity="0.502"/>
<polygon points="4782.25,2351.45 4779.47,2335.69 5409.75,2224.55 5412.53,2240.31" fill="rgb(41,60,179)" fill-opacity="0.502"/>
<circle cx="5424.00" cy="2656.00" r="160.00" fill="rgb(223,231,249)" fill-opacity="0.502"/>
<polygon points="4429.87,3480.81 4465.58,3991.56 4242.13,4007.19 4206.42,3496.44" fill="rgb(35,26,20)" fill-opacity="0.502"/>
<polygon points="5600.60,4715.26 4859.31,4460.02 4911.40,4308.74 5652.69,4563.98" fill="rgb(32,18,12)" fill-opacity="0.502"/>
<polygon points="1822.88,4466.38 1789.62,4622.88 1633.12,4589.62 1666.38,4433.12" fill="rgb(5,10,6)" fill-opacity="0.502"/>
<polygon points="6810.44,3152.78 6824.84,3090.42 6949.56,3119.22 6935.16,3181.58" fill="rgb(145,123,96)" fill-opacity="0.502"/>
<circle cx="6912.00" cy="3952.00" r="48.00" fill="rgb(255,212,201)" fill-opacity="0.502"/>
<g transform="translate(3232.00 2128.00) rotate(216) scale(336.00 352.00)"><ellipse cx="0" cy="0" rx="1" ry="1" fill="rgb(67,34,17)" fill-opacity="0.502"/></g>
<g transform="translate(1984.00 3216.00) rotate(247) scale(448.00 432.00)"><ellipse cx="0" cy="0" rx="1" ry="1" fill="rgb(10,8,7)" fill-opacity="0.502"/></g>
<circle cx="4784.00" cy="1536.00" r="208.00" fill="rgb(83,40,17)" fill-opacity="0.502"/>
<polygon points="1756.07,3426.81 1874.86,3706.64 1491.93,3869.19 1373.14,3589.36" fill="rgb(6,4,7)" fill-opacity="0.502"/>
<polygon points="7025.48,1450.08 7047.71,1576.13 6606.52,1653.92 6584.29,1527.87" fill="rgb(101,64,42)" fill-opacity="0.502"/>
<polygon points="6315.11,2290.64 6967.51,2222.07 6980.89,2349.36 6328.49,2417.93" fill="rgb(242,224,205)" fill-opacity="0.502"/>
<polygon points="5712.00,3584.00 5712.00,3712.00 5584.00,3712.00 5584.00,3584.00" fill="rgb(224,191,173)" fill-opacity="0.502"/>
<g transform="translate(3760.00 2528.00) rotate(339) scale(240.00 112.00)"><ellipse cx="0" cy="0" rx="1" ry="1" fill="rgb(8,7,11)" fill-opacity="0.502"/></g>
<g transform="translate(1280.00 0.00) rotate(271) scale(944.00 176.00)"><ellipse cx="0" cy="0" rx="1" ry="1" fill="rgb(37,25,17)" fill-opacity="0.502"/></g>
<g transform="translate(7216.00 16.00) rotate(95) scale(704.00 112.00)"><ellipse cx="0" cy="0" rx="1" ry="1" fill="rgb(0,0,0)" fill-opacity="0.502"/></g>
<g transform="translate(5024.00 2832.00) rotate(197) scale(304.00 64.00)"><ellipse cx="0" cy="0" rx="1" ry="1" fill="rgb(24,47,69)" fill-opacity="0.502"/></g>
<polygon points="1616.00,4592.00 928.00,4592.00 928.00,4480.00 1616.00,4480.00" fill="rgb(2,0,0)" fill-opacity="0.502"/>
<polygon points="4590.73,2249.04 4701.64,2233.45 4737.27,2486.96 4626.36,2502.55" fill="rgb(255,255,255)" fill-opacity="0.502"/>
<polygon points="1669.90,4004.40 1511.46,4026.67 1498.10,3931.60 1656.54,3909.33" fill="rgb(206,149,117)" fill-opacity="0.502"/>
<circle cx="4208.00" cy="3344.00" r="384.00" fill="rgb(8,9,12)" fill-opacity="0.502"/>
<polygon points="4789.62,2647.53 4843.61,2413.68 4890.38,2424.47 4836.39,2658.32" fill="rgb(69,114,243)" fill-opacity="0.502"/>
<polygon points="4698.04,3962.76 4710.31,3787.19 4853.96,3797.24 4841.69,3972.81" fill="rgb(114,77,46)" fill-opacity="0.502"/>
<polygon points="6219.88,2163.16 6292.12,2572.84 6292.12,2572.84 6219.88,2163.16" fill="rgb(255,255,255)" fill-opacity="0.502"/>
<circle cx="5872.00" cy="3216.00" r="32.00" fill="rgb(126,126,120)" fill-opacity="0.502"/>
<circle cx="3168.00" cy="3296.00" r="480.00" fill="rgb(4,7,9)" fill-opacity="0.502"/>
<circle cx="5824.00" cy="1648.00" r="128.00" fill="rgb(29,24,18)" fill-opacity="0.502"/>
<g transform="translate(4976.00 2032.00) rotate(34) scale(112.00 80.00)"><ellipse cx="0" cy="0" rx="1" ry="1" fill="rgb(172,133,102)" fill-opacity="0.502"/></g>
<circle cx="272.00" cy="2304.00" r="832.00" fill="rgb(0,0,0)" fill-opacity="0.502"/>
<circle cx="2496.00" cy="2656.00" r="128.00" fill="rgb(98,70,58)" fill-opacity="0.502"/>
<polygon points="3523.44,1986.23 3341.12,1456.74 3628.56,1357.77 3810.88,1887.26" fill="rgb(80,39,18)" fill-opacity="0.502"/>
<g transform="translate(6624.00 4272.00) rotate(215) scale(96.00 128.00)"><ellipse cx="0" cy="0" rx="1" ry="1" fill="rgb(188,210,224)" fill-opacity="0.502"/></g>
<g transform="translate(8160.00 2624.00) rotate(51) scale(1440.00 736.00)"><ellipse cx="0" cy="0" rx="1" ry="1" fill="rgb(0,0,0)" fill-opacity="0.502"/></g>
<g transform="translate(3040.00 2256.00) rotate(266) scale(384.00 336.00)"><ellipse cx="0" cy="0" rx="1" ry="1" fill="rgb(65,34,18)" fill-opacity="0.502"/></g>
<polygon points="3587.24,4092.65 2925.89,3903.01 2956.76,3795.35 3618.11,3984.99" fill="rgb(13,10,8)" fill-opacity="0.502"/>
<circle cx="2704.00" cy="4224.00" r="128.00" fill="rgb(104,54,31)" fill-opacity="0.502"/>
<polygon points="6700.71,4191.19 6541.20,4116.81 6595.29,4000.81 6754.80,4075.19" fill="rgb(149,155,162)" fill-opacity="0.502"/>
<polygon points="4832.73,2110.32 4503.57,1912.55 4767.27,1473.68 5096.43,1671.45" fill="rgb(62,41,23)" fill-opacity="0.502"/>
<circle cx="6896.00" cy="3008.00" r="112.00" fill="rgb(241,230,216)" fill-opacity="0.502"/>
<polygon points="4464.00,4288.00 4464.00,4416.00 3984.00,4416.00 3984.00,4288.00" fill="rgb(54,33,17)" fill-opacity="0.502"/>
<circle cx="5152.00" cy="2096.00" r="96.00" fill="rgb(164,147,128)" fill-opacity="0.502"/>
<circle cx="2048.00" cy="2688.00" r="48.00" fill="rgb(163,142,109)" fill-opacity="0.502"/>
<circle cx="1984.00" cy="1152.00" r="144.00" fill="rgb(63,34,21)" fill-opacity="0.502"/>
<polygon points="7499.75,2743.67 7302.74,3284.94 7092.25,3208.33 7289.26,2667.06" fill="rgb(0,0,0)" fill-opacity="0.502"/>
<circle cx="5936.00" cy="3936.00" r="48.00" fill="rgb(255,244,224)" fill-opacity="0.502"/>
<g transform="translate(2944.00 4592.00) rotate(297) scale(176.00 160.00)"><ellipse cx="0" cy="0" rx="1" ry="1" fill="rgb(6,5,5)" fill-opacity="0.502"/></g>
<polygon points="5040.00,4592.00 3136.00,4592.00 3136.00,4464.00 5040.00,4464.00" fill="rgb(12,8,2)" fill-opacity="0.502"/>
<circle cx="7840.00" cy="4448.00" r="752.00" fill="rgb(0,0,0)" fill-opacity="0.502"/>
<polygon points="5877.48,4204.69 5842.44,4425.93 5194.52,4323.31 5229.56,4102.07" fill="rgb(63,42,26)" fill-opacity="0.502"/>
<polygon points="5184.00,4064.00 4800.00,4064.00 4800.00,3984.00 5184.00,3984.00" fill="rgb(237,197,169)" fill-opacity="0.502"/>
<circle cx="4752.00" cy="1536.00" r="208.00" fill="rgb(86,40,16)" fill-opacity="0.502"/>
<g transform="translate(2032.00 720.00) rotate(211) scale(256.00 304.00)"><ellipse cx="0" cy="0" rx="1" ry="1" fill="rgb(68,36,19)" fill-opacity="0.502"/></g>
<circle cx="1520.00" cy="2640.00" r="112.00" fill="rgb(185,140,112)" fill-opacity="0.502"/>
<circle cx="7536.00" cy="3392.00" r="448.00" fill="rgb(0,0,0)" fill-opacity="0.502"/>
<circle cx="1520.00" cy="3216.00" r="64.00" fill="rgb(143,99,76)" fill-opacity="0.502"/>
<circle cx="5856.00" cy="2128.00" r="96.00" fill="rgb(151,192,255)" fill-opacity="0.502"/>
<g transform="translate(2256.00 2272.00) rotate(278) scale(304.00 48.00)"><ellipse cx="0" cy="0" rx="1" ry="1" fill="rgb(28,21,15)" fill-opacity="0.502"/></g>
<g transform="translate(4640.00 2704.00) rotate(352) scale(1312.00 16.00)"><ellipse cx="0" cy="0" rx="1" ry="1" fill="rgb(38,56,121)" fill-opacity="0.502"/></g>
<circle cx="7920.00" cy="1456.00" r="848.00" fill="rgb(0,0,0)" fill-opacity="0.502"/>
<g transform="translate(6880.00 3424.00) rotate(138) scale(80.00 240.00)"><ellipse cx="0" cy="0" rx="1" ry="1" fill="rgb(236,232,221)" fill-opacity="0.502"/></g>
<g transform="translate(3744.00 3056.00) rotate(204) scale(528.00 384.00)"><ellipse cx="0" cy="0" rx="1" ry="1" fill="rgb(5,6,8)" fill-opacity="0.502"/></g>
<circle cx="5040.00" cy="3744.00" r="64.00" fill="rgb(203,154,120)" fill-opacity="0.502"/>
<g transform="translate(4368.00 0.00) rotate(197) scale(288.00 400.00)"><ellipse cx="0" cy="0" rx="1" ry="1" fill="rgb(83,40,16)" fill-opacity="0.502"/></g>
<polygon points="3935.28,3839.11 3971.87,3666.95 4112.72,3696.89 4076.13,3869.05" fill="rgb(125,103,89)" fill-opacity="0.502"/>
<g transform="translate(3856.00 1616.00) rotate(314) scale(288.00 304.00)"><ellipse cx="0" cy="0" rx="1" ry="1" fill="rgb(83,41,18)" fill-opacity="0.502"/></g>
<polygon points="6645.82,4633.91 6792.65,4424.21 6858.18,4470.09 6711.35,4679.79" fill="rgb(152,177,176)" fill-opacity="0.502"/>
<polygon points="4237.49,2688.38 4148.61,2397.66 4194.51,2383.62 4283.39,2674.34" fill="rgb(85,108,177)" fill-opacity="0.502"/>
<polygon points="6375.35,3566.34 6219.95,3648.97 6024.65,3281.66 6180.05,3199.03" fill="rgb(162,120,91)" fill-opacity="0.502"/>
<polygon points="6684.68,2701.32 6782.73,2783.60 6659.32,2930.68 6561.27,2848.40" fill="rgb(160,132,119)" fill-opacity="0.502"/>
<circle cx="1456.00" cy="3408.00" r="96.00" fill="rgb(173,126,105)" fill-opacity="0.502"/>
<circle cx="1808.00" cy="0.00" r="448.00" fill="rgb(49,27,15)" fill-opacity="0.502"/>
<g transform="translate(6816.00 1248.00) rotate(109) scale(240.00 272.00)"><ellipse cx="0" cy="0" rx="1" ry="1" fill="rgb(57,27,12)" fill-opacity="0.502"/></g>
<g transform="translate(848.00 4032.00) rotate(244) scale(464.00 176.00)"><ellipse cx="0" cy="0" rx="1" ry="1" fill="rgb(0,0,0)" fill-opacity="0.502"/></g>
<g transform="translate(5536.00 2000.00) rotate(189) scale(320.00 48.00)"><ellipse cx="0" cy="0" rx="1" ry="1" fill="rgb(192,156,126)" fill-opacity="0.502"/></g>
<polygon points="7007.63,2186.95 6960.80,1741.41 7040.37,1733.05 7087.20,2178.59" fill="rgb(255,205,169)" fill-opacity="0.502"/>
<circle cx="6720.00" cy="3104.00" r="80.00" fill="rgb(144,139,122)" fill-opacity="0.502"/>
<polygon points="2344.71,2533.88 2404.65,2682.23 2167.29,2778.12 2107.35,2629.77" fill="rgb(59,48,34)" fill-opacity="0.502"/>
<g transform="translate(6384.00 2960.00) rotate(288) scale(112.00 16.00)"><ellipse cx="0" cy="0" rx="1" ry="1" fill="rgb(157,146,143)" fill-opacity="0.502"/></g>
<g transform="translate(1696.00 4176.00) rotate(174) scale(256.00 48.00)"><ellipse cx="0" cy="0" rx="1" ry="1" fill="rgb(144,95,76)" fill-opacity="0.502"/></g>
<circle cx="5680.00" cy="2560.00" r="80.00" fill="rgb(231,236,255)" fill-opacity="0.502"/>
<g transform="translate(4368.00 1920.00) rotate(194) scale(256.00 160.00)"><ellipse cx="0" cy="0" rx="1" ry="1" fill="rgb(58,48,34)" fill-opacity="0.502"/></g>
<polygon points="1692.52,2799.10 1673.07,2688.80 2035.48,2624.90 2054.93,2735.20" fill="rgb(120,87,65)" fill-opacity="0.502"/>
<polygon points="4272.99,3962.86 4287.49,3969.62 4159.01,4245.14 4144.51,4238.38" fill="rgb(148,120,92)" fill-opacity="0.502"/>
<polygon points="4401.09,2005.60 3970.87,2179.41 3934.91,2090.40 4365.13,1916.59" fill="rgb(69,54,37)" fill-opacity="0.502"/>
<g transform="translate(2096.00 96.00) rotate(91) scale(480.00 160.00)"><ellipse cx="0" cy="0" rx="1" ry="1" fill="rgb(55,31,17)" fill-opacity="0.502"/></g>
<polygon points="4829.02,3573.44 4971.41,3676.89 4914.98,3754.56 4772.59,3651.11" fill="rgb(63,42,25)" fill-opacity="0.502"/>
<polygon points="5724.15,4274.60 5808.35,4550.01 5731.85,4573.40 5647.65,4297.99" fill="rgb(83,55,40)" fill-opacity="0.502"/>
<circle cx="5776.00" cy="2688.00" r="128.00" fill="rgb(254,255,253)" fill-opacity="0.502"/>
<circle cx="5264.00" cy="768.00" r="416.00" fill="rgb(97,41,16)" fill-opacity="0.502"/>
<circle cx="3872.00" cy="3008.00" r="336.00" fill="rgb(8,8,12)" fill-opacity="0.502"/>
<polygon points="6912.00,4592.00 6864.00,4592.00 6864.00,4176.00 6912.00,4176.00" fill="rgb(130,124,104)" fill-opacity="0.502"/>
<polygon points="6350.59,3959.52 7020.95,3912.64 7025.41,3976.48 6355.05,4023.36" fill="rgb(255,196,162)" fill-opacity="0.502"/>
<g transform="translate(6016.00 2896.00) rotate(179) scale(128.00 32.00)"><ellipse cx="0" cy="0" rx="1" ry="1" fill="rgb(90,109,138)" fill-opacity="0.502"/></g>
<polygon points="1133.69,2499.93 1289.02,2387.07 1458.31,2620.07 1302.98,2732.93" fill="rgb(47,28,13)" fill-opacity="0.502"/>
<circle cx="1328.00" cy="2800.00" r="80.00" fill="rgb(0,0,4)" fill-opacity="0.502"/>
<polygon points="6672.38,3002.79 6632.24,3107.35 6303.62,2981.21 6343.76,2876.65" fill="rgb(220,218,224)" fill-opacity="0.502"/>
<polygon points="4734.89,1680.88 5031.10,1749.27 4977.11,1983.12 4680.90,1914.73" fill="rgb(42,35,22)" fill-opacity="0.502"/>
<g transform="translate(6448.00 2288.00) rotate(236) scale(144.00 160.00)"><ellipse cx="0" cy="0" rx="1" ry="1" fill="rgb(255,223,198)" fill-opacity="0.502"/></g>
<circle cx="5408.00" cy="3344.00" r="80.00" fill="rgb(75,42,37)" fill-opacity="0.502"/>
<polygon points="6645.39,2636.39 6685.09,2497.97 6746.61,2515.61 6706.91,2654.03" fill="rgb(233,212,188)" fill-opacity="0.502"/>
<g transform="translate(5984.00 1232.00) rotate(27) scale(288.00 256.00)"><ellipse cx="0" cy="0" rx="1" ry="1" fill="rgb(80,37,17)" fill-opacity="0.502"/></g>
<circle cx="1584.00" cy="3664.00" r="208.00" fill="rgb(11,7,8)" fill-opacity="0.502"/>
<polygon points="4910.60,3208.18 4564.79,3082.31 4641.40,2871.82 4987.21,2997.69" fill="rgb(10,13,24)" fill-opacity="0.502"/>
<polygon points="3672.54,4298.32 3959.84,4278.23 3975.46,4501.68 3688.16,4521.77" fill="rgb(36,20,14)" fill-opacity="0.502"/>
<g transform="translate(5728.00 2096.00) rotate(325) scale(80.00 64.00)"><ellipse cx="0" cy="0" rx="1" ry="1" fill="rgb(232,250,249)" fill-opacity="0.502"/></g>
<polygon points="2848.00,3824.00 2848.00,4208.00 2720.00,4208.00 2720.00,3824.00" fill="rgb(85,48,30)" fill-opacity="0.502"/>
<g transform="translate(4288.00 2208.00) rotate(156) scale(256.00 80.00)"><ellipse cx="0" cy="0" rx="1" ry="1" fill="rgb(198,169,150)" fill-opacity="0.502"/></g>
<circle cx="5376.00" cy="2016.00" r="112.00" fill="rgb(184,144,115)" fill-opacity="0.502"/>
<circle cx="6768.00" cy="3408.00" r="80.00" fill="rgb(189,190,179)" fill-opacity="0.502"/>
<circle cx="2800.00" cy="320.00" r="416.00" fill="rgb(65,33,16)" fill-opacity="0.502"/>
<polygon points="5182.50,1905.74 5792.87,1776.01 5809.50,1854.26 5199.13,1983.99" fill="rgb(116,89,64)" fill-opacity="0.502"/>
<circle cx="1584.00" cy="4144.00" r="80.00" fill="rgb(183,135,110)" fill-opacity="0.502"/>
<circle cx="1584.00" cy="2832.00" r="32.00" fill="rgb(230,188,170)" fill-opacity="0.502"/>
<polygon points="4444.83,4076.55 4453.19,3996.99 4819.17,4035.45 4810.81,4115.01" fill="rgb(170,117,95)" fill-opacity="0.502"/>
<circle cx="4480.00" cy="3728.00" r="64.00" fill="rgb(177,164,148)" fill-opacity="0.502"/>
<g transform="translate(6480.00 352.00) rotate(59) scale(496.00 336.00)"><ellipse cx="0" cy="0" rx="1" ry="1" fill="rgb(78,35,15)" fill-opacity="0.502"/></g>
<polygon points="1714.93,4455.77 1709.34,4295.87 2157.07,4280.23 2162.66,4440.13" fill="rgb(50,29,21)" fill-opacity="0.502"/>
<g transform="translate(6432.00 2976.00) rotate(241) scale(32.00 112.00)"><ellipse cx="0" cy="0" rx="1" ry="1" fill="rgb(178,152,139)" fill-opacity="0.502"/></g>
<g transform="translate(3472.00 2960.00) rotate(128) scale(432.00 272.00)"><ellipse cx="0" cy="0" rx="1" ry="1" fill="rgb(6,6,9)" fill-opacity="0.502"/></g>
<g transform="translate(4192.00 2800.00) rotate(113) scale(80.00 432.00)"><ellipse cx="0" cy="0" rx="1" ry="1" fill="rgb(28,27,42)" fill-opacity="0.502"/></g>
<g transform="translate(1376.00 496.00) rotate(316) scale(160.00 160.00)"><ellipse cx="0" cy="0" rx="1" ry="1" fill="rgb(56,31,16)" fill-opacity="0.502"/></g>
<circle cx="5600.00" cy="3040.00" r="64.00" fill="rgb(144,97,62)" fill-opacity="0.502"/>
</g>
</svg>