<?xml version="1.0" standalone="no"?>
<svg xmlns="http://www.w3.org/2000/svg" width="8192" height="4608" viewBox="0 0 8192 4608" style="overflow:hidden">
<defs>
<clipPath id="c"><rect x="0" y="0" width="8192" height="4608"/></clipPath>
</defs>
<rect width="8192" height="4608" fill="rgb(55,97,156)"/>
<g clip-path="url(#c)">
<circle cx="8176.00" cy="3040.00" r="1568.00" fill="rgb(0,0,0)" fill-opacity="0.502"/>
<g transform="translate(4912.00 3120.00) rotate(183) scale(2192.00 4592.00)"><ellipse cx="0" cy="0" rx="1" ry="1" fill="rgb(145,237,255)" fill-opacity="0.502"/></g>
<circle cx="0.00" cy="2304.00" r="2416.00" fill="rgb(0,0,0)" fill-opacity="0.502"/>
<circle cx="2576.00" cy="2384.00" r="1408.00" fill="rgb(43,98,255)" fill-opacity="0.502"/>
<circle cx="8176.00" cy="1008.00" r="1280.00" fill="rgb(0,0,0)" fill-opacity="0.502"/>
<circle cx="4688.00" cy="3312.00" r="1248.00" fill="rgb(219,255,255)" fill-opacity="0.502"/>
<circle cx="0.00" cy="3776.00" r="1824.00" fill="rgb(0,0,0)" fill-opacity="0.502"/>
<circle cx="544.00" cy="640.00" r="1616.00" fill="rgb(0,0,0)" fill-opacity="0.502"/>
<g transform="translate(3488.00 1328.00) rotate(285) scale(864.00 2096.00)"><ellipse cx="0" cy="0" rx="1" ry="1" fill="rgb(11,69,247)" fill-opacity="0.502"/></g>
<circle cx="1680.00" cy="2560.00" r="640.00" fill="rgb(55,117,255)" fill-opacity="0.502"/>
<circle cx="7984.00" cy="624.00" r="976.00" fill="rgb(0,0,0)" fill-opacity="0.502"/>
<circle cx="5408.00" cy="2896.00" r="832.00" fill="rgb(209,255,255)" fill-opacity="0.502"/>
<g transform="translate(6032.00 992.00) rotate(180) scale(1088.00 1376.00)"><ellipse cx="0" cy="0" rx="1" ry="1" fill="rgb(55,151,255)" fill-opacity="0.502"/></g>
<g transform="translate(7680.00 3104.00) rotate(89) scale(5376.00 592.00)"><ellipse cx="0" cy="0" rx="1" ry="1" fill="rgb(0,0,0)" fill-opacity="0.502"/></g>
<circle cx="2112.00" cy="592.00" r="880.00" fill="rgb(0,13,126)" fill-opacity="0.502"/>
<circle cx="4176.00" cy="144.00" r="1088.00" fill="rgb(85,141,255)" fill-opacity="0.502"/>
<g transform="translate(3728.00 2736.00) rotate(165) scale(944.00 528.00)"><ellipse cx="0" cy="0" rx="1" ry="1" fill="rgb(176,245,255)" fill-opacity="0.502"/></g>
<g transform="translate(6544.00 4064.00) rotate(5) scale(528.00 2096.00)"><ellipse cx="0" cy="0" rx="1" ry="1" fill="rgb(51,134,250)" fill-opacity="0.502"/></g>
<g transform="translate(5312.00 1744.00) rotate(119) scale(624.00 416.00)"><ellipse cx="0" cy="0" rx="1" ry="1" fill="rgb(99,187,255)" fill-opacity="0.502"/></g>
<polygon points="2855.52,2367.07 2106.39,2301.52 2184.48,1408.93 2933.61,1474.48" fill="rgb(90,150,255)" fill-opacity="0.502"/>
<circle cx="544.00" cy="1024.00" r="1200.00" fill="rgb(0,0,0)" fill-opacity="0.502"/>
<g transform="translate(4064.00 4128.00) rotate(359) scale(1712.00 528.00)"><ellipse cx="0" cy="0" rx="1" ry="1" fill="rgb(114,182,255)" fill-opacity="0.502"/></g>
<circle cx="0.00" cy="3424.00" r="1328.00" fill="rgb(0,0,0)" fill-opacity="0.502"/>
<circle cx="7600.00" cy="4192.00" r="544.00" fill="rgb(0,0,0)" fill-opacity="0.502"/>
<circle cx="1776.00" cy="3936.00" r="672.00" fill="rgb(0,23,130)" fill-opacity="0.502"/>
<polygon points="5854.22,3132.30 5697.87,2396.73 6417.78,2243.70 6574.13,2979.27" fill="rgb(200,255,255)" fill-opacity="0.502"/>
<circle cx="4032.00" cy="1360.00" r="448.00" fill="rgb(16,68,255)" fill-opacity="0.502"/>
<g transform="translate(5872.00 3952.00) rotate(93) scale(256.00 512.00)"><ellipse cx="0" cy="0" rx="1" ry="1" fill="rgb(73,133,211)" fill-opacity="0.502"/></g>
<circle cx="848.00" cy="4400.00" r="480.00" fill="rgb(0,0,0)" fill-opacity="0.502"/>
<g transform="translate(6800.00 1328.00) rotate(180) scale(288.00 1968.00)"><ellipse cx="0" cy="0" rx="1" ry="1" fill="rgb(76,166,228)" fill-opacity="0.502"/></g>
<circle cx="2352.00" cy="2784.00" r="544.00" fill="rgb(30,88,255)" fill-opacity="0.502"/>
<circle cx="6352.00" cy="144.00" r="304.00" fill="rgb(0,49,117)" fill-opacity="0.502"/>
<g transform="translate(7840.00 2736.00) rotate(166) scale(672.00 1584.00)"><ellipse cx="0" cy="0" rx="1" ry="1" fill="rgb(0,0,0)" fill-opacity="0.502"/></g>
<circle cx="1664.00" cy="1824.00" r="208.00" fill="rgb(0,0,30)" fill-opacity="0.502"/>
<circle cx="2880.00" cy="128.00" r="496.00" fill="rgb(0,63,200)" fill-opacity="0.502"/>
<g transform="translate(3328.00 2912.00) rotate(228) scale(704.00 512.00)"><ellipse cx="0" cy="0" rx="1" ry="1" fill="rgb(114,171,255)" fill-opacity="0.502"/></g>
<g transform="translate(5264.00 1840.00) rotate(319) scale(432.00 512.00)"><ellipse cx="0" cy="0" rx="1" ry="1" fill="rgb(91,169,253)" fill-opacity="0.502"/></g>
<g transform="translate(4416.00 0.00) rotate(264) scale(400.00 336.00)"><ellipse cx="0" cy="0" rx="1" ry="1" fill="rgb(204,251,255)" fill-opacity="0.502"/></g>
<circle cx="1552.00" cy="688.00" r="464.00" fill="rgb(0,18,118)" fill-opacity="0.502"/>
<g transform="translate(4720.00 3008.00) rotate(186) scale(800.00 736.00)"><ellipse cx="0" cy="0" rx="1" ry="1" fill="rgb(207,255,255)" fill-opacity="0.502"/></g>
<g transform="translate(6480.00 3648.00) rotate(49) scale(704.00 528.00)"><ellipse cx="0" cy="0" rx="1" ry="1" fill="rgb(45,128,209)" fill-opacity="0.502"/></g>
<polygon points="1113.77,2742.06 1801.66,2730.05 1814.23,3449.94 1126.34,3461.95" fill="rgb(7,37,133)" fill-opacity="0.502"/>
<circle cx="3664.00" cy="256.00" r="368.00" fill="rgb(41,111,255)" fill-opacity="0.502"/>
<g transform="translate(4608.00 864.00) rotate(52) scale(208.00 272.00)"><ellipse cx="0" cy="0" rx="1" ry="1" fill="rgb(148,199,255)" fill-opacity="0.502"/></g>
<circle cx="3248.00" cy="1856.00" r="448.00" fill="rgb(5,58,207)" fill-opacity="0.502"/>
<g transform="translate(5488.00 4512.00) rotate(222) scale(128.00 240.00)"><ellipse cx="0" cy="0" rx="1" ry="1" fill="rgb(0,18,143)" fill-opacity="0.502"/></g>
<polygon points="1104.00,2464.00 1104.00,1952.00 1840.00,1952.00 1840.00,2464.00" fill="rgb(82,138,255)" fill-opacity="0.502"/>
<g transform="translate(2848.00 3408.00) rotate(183) scale(720.00 144.00)"><ellipse cx="0" cy="0" rx="1" ry="1" fill="rgb(32,64,226)" fill-opacity="0.502"/></g>
<circle cx="3904.00" cy="1952.00" r="352.00" fill="rgb(78,159,252)" fill-opacity="0.502"/>
<circle cx="1408.00" cy="1520.00" r="512.00" fill="rgb(0,0,56)" fill-opacity="0.502"/>
<g transform="translate(2688.00 3792.00) rotate(131) scale(688.00 192.00)"><ellipse cx="0" cy="0" rx="1" ry="1" fill="rgb(61,113,239)" fill-opacity="0.502"/></g>
<g transform="translate(1664.00 4048.00) rotate(333) scale(576.00 368.00)"><ellipse cx="0" cy="0" rx="1" ry="1" fill="rgb(4,26,92)" fill-opacity="0.502"/></g>
<circle cx="3136.00" cy="768.00" r="464.00" fill="rgb(66,139,240)" fill-opacity="0.502"/>
<g transform="translate(544.00 2272.00) rotate(89) scale(8176.00 544.00)"><ellipse cx="0" cy="0" rx="1" ry="1" fill="rgb(0,0,0)" fill-opacity="0.502"/></g>
<g transform="translate(5248.00 272.00) rotate(44) scale(400.00 336.00)"><ellipse cx="0" cy="0" rx="1" ry="1" fill="rgb(27,82,252)" fill-opacity="0.502"/></g>
<g transform="translate(3376.00 4000.00) rotate(42) scale(432.00 704.00)"><ellipse cx="0" cy="0" rx="1" ry="1" fill="rgb(125,179,255)" fill-opacity="0.502"/></g>
<circle cx="7856.00" cy="896.00" r="784.00" fill="rgb(0,0,0)" fill-opacity="0.502"/>
<circle cx="8064.00" cy="3424.00" r="992.00" fill="rgb(0,0,0)" fill-opacity="0.502"/>
<polygon points="4410.69,1720.27 4193.49,1328.44 4613.31,1095.73 4830.51,1487.56" fill="rgb(9,61,255)" fill-opacity="0.502"/>
<circle cx="7808.00" cy="4384.00" r="736.00" fill="rgb(0,0,0)" fill-opacity="0.502"/>
<circle cx="7552.00" cy="2352.00" r="464.00" fill="rgb(0,0,0)" fill-opacity="0.502"/>
<circle cx="4816.00" cy="2128.00" r="176.00" fill="rgb(5,66,216)" fill-opacity="0.502"/>
<g transform="translate(4384.00 3952.00) rotate(2) scale(1120.00 464.00)"><ellipse cx="0" cy="0" rx="1" ry="1" fill="rgb(138,206,255)" fill-opacity="0.502"/></g>
<g transform="translate(2400.00 1936.00) rotate(232) scale(256.00 768.00)"><ellipse cx="0" cy="0" rx="1" ry="1" fill="rgb(71,126,255)" fill-opacity="0.502"/></g>
<polygon points="2560.00,3424.00 1520.00,3424.00 1520.00,3264.00 2560.00,3264.00" fill="rgb(13,45,183)" fill-opacity="0.502"/>
<g transform="translate(4464.00 1936.00) rotate(243) scale(336.00 208.00)"><ellipse cx="0" cy="0" rx="1" ry="1" fill="rgb(84,175,255)" fill-opacity="0.502"/></g>
<polygon points="2660.71,4419.16 3061.25,4580.99 3019.29,4684.84 2618.75,4523.01" fill="rgb(0,36,167)" fill-opacity="0.502"/>
<circle cx="6112.00" cy="784.00" r="544.00" fill="rgb(92,181,235)" fill-opacity="0.502"/>
<polygon points="2502.69,910.94 2749.91,1322.38 1913.31,1825.06 1666.09,1413.62" fill="rgb(0,41,159)" fill-opacity="0.502"/>
<g transform="translate(4080.00 656.00) rotate(158) scale(928.00 288.00)"><ellipse cx="0" cy="0" rx="1" ry="1" fill="rgb(95,158,255)" fill-opacity="0.502"/></g>
<polygon points="5737.29,2241.62 6727.81,2860.57 6566.71,3118.38 5576.19,2499.43" fill="rgb(182,254,255)" fill-opacity="0.502"/>
<circle cx="4704.00" cy="2928.00" r="624.00" fill="rgb(203,255,255)" fill-opacity="0.502"/>
<g transform="translate(5696.00 3824.00) rotate(63) scale(208.00 464.00)"><ellipse cx="0" cy="0" rx="1" ry="1" fill="rgb(109,174,240)" fill-opacity="0.502"/></g>
<circle cx="6000.00" cy="0.00" r="144.00" fill="rgb(0,36,140)" fill-opacity="0.502"/>
<g transform="translate(2752.00 736.00) rotate(15) scale(416.00 384.00)"><ellipse cx="0" cy="0" rx="1" ry="1" fill="rgb(12,69,200)" fill-opacity="0.502"/></g>
<circle cx="6224.00" cy="1616.00" r="320.00" fill="rgb(34,117,209)" fill-opacity="0.502"/>
<circle cx="3472.00" cy="1472.00" r="352.00" fill="rgb(4,52,218)" fill-opacity="0.502"/>
<g transform="translate(2192.00 4592.00) rotate(28) scale(1040.00 304.00)"><ellipse cx="0" cy="0" rx="1" ry="1" fill="rgb(14,50,136)" fill-opacity="0.502"/></g>
<polygon points="2642.45,3251.37 2622.36,2964.07 2957.55,2940.63 2977.64,3227.93" fill="rgb(113,169,255)" fill-opacity="0.502"/>
<circle cx="3408.00" cy="624.00" r="288.00" fill="rgb(83,167,246)" fill-opacity="0.502"/>
<circle cx="5552.00" cy="2768.00" r="480.00" fill="rgb(191,255,255)" fill-opacity="0.502"/>
<polygon points="3751.96,2904.47 3563.49,2867.83 3768.04,1815.53 3956.51,1852.17" fill="rgb(137,211,253)" fill-opacity="0.502"/>
<circle cx="2400.00" cy="1184.00" r="192.00" fill="rgb(0,20,104)" fill-opacity="0.502"/>
<circle cx="7632.00" cy="160.00" r="560.00" fill="rgb(0,0,0)" fill-opacity="0.502"/>
<circle cx="2224.00" cy="3024.00" r="208.00" fill="rgb(62,112,255)" fill-opacity="0.502"/>
<g transform="translate(5376.00 144.00) rotate(214) scale(1584.00 128.00)"><ellipse cx="0" cy="0" rx="1" ry="1" fill="rgb(111,187,254)" fill-opacity="0.502"/></g>
<circle cx="4416.00" cy="4528.00" r="528.00" fill="rgb(131,197,255)" fill-opacity="0.502"/>
<polygon points="4811.18,920.01 5221.51,587.73 5412.82,823.99 5002.49,1156.27" fill="rgb(142,196,255)" fill-opacity="0.502"/>
<polygon points="2054.60,1267.34 2334.04,1337.02 2233.40,1740.66 1953.96,1670.98" fill="rgb(26,83,252)" fill-opacity="0.502"/>
<polygon points="4636.90,3382.24 3857.20,3464.19 3827.10,3177.76 4606.80,3095.81" fill="rgb(187,255,255)" fill-opacity="0.502"/>
<g transform="translate(6352.00 80.00) rotate(317) scale(112.00 320.00)"><ellipse cx="0" cy="0" rx="1" ry="1" fill="rgb(0,47,119)" fill-opacity="0.502"/></g>
<g transform="translate(6656.00 2144.00) rotate(19) scale(416.00 528.00)"><ellipse cx="0" cy="0" rx="1" ry="1" fill="rgb(72,156,241)" fill-opacity="0.502"/></g>
<circle cx="416.00" cy="2448.00" r="688.00" fill="rgb(0,0,0)" fill-opacity="0.502"/>
<circle cx="1088.00" cy="3648.00" r="384.00" fill="rgb(0,0,13)" fill-opacity="0.502"/>
<polygon points="1696.00,2032.00 1696.00,1760.00 2128.00,1760.00 2128.00,2032.00" fill="rgb(0,15,156)" fill-opacity="0.502"/>
<polygon points="5661.12,644.67 4787.68,537.42 4818.88,283.33 5692.32,390.58" fill="rgb(19,77,234)" fill-opacity="0.502"/>
<g transform="translate(5456.00 1760.00) rotate(264) scale(144.00 352.00)"><ellipse cx="0" cy="0" rx="1" ry="1" fill="rgb(110,204,255)" fill-opacity="0.502"/></g>
<g transform="translate(2192.00 0.00) rotate(287) scale(384.00 544.00)"><ellipse cx="0" cy="0" rx="1" ry="1" fill="rgb(0,31,135)" fill-opacity="0.502"/></g>
<polygon points="4073.77,2857.66 3888.26,3056.58 3654.23,2838.34 3839.74,2639.42" fill="rgb(110,192,251)" fill-opacity="0.502"/>
<g transform="translate(1184.00 0.00) rotate(182) scale(368.00 192.00)"><ellipse cx="0" cy="0" rx="1" ry="1" fill="rgb(0,0,4)" fill-opacity="0.502"/></g>
<g transform="translate(3712.00 4592.00) rotate(324) scale(224.00 400.00)"><ellipse cx="0" cy="0" rx="1" ry="1" fill="rgb(49,114,255)" fill-opacity="0.502"/></g>
<circle cx="1712.00" cy="2368.00" r="256.00" fill="rgb(85,140,255)" fill-opacity="0.502"/>
<polygon points="6301.41,2338.80 6257.89,2961.28 5970.59,2941.20 6014.11,2318.72" fill="rgb(175,250,255)" fill-opacity="0.502"/>
<g transform="translate(3360.00 2608.00) rotate(112) scale(272.00 448.00)"><ellipse cx="0" cy="0" rx="1" ry="1" fill="rgb(144,202,255)" fill-opacity="0.502"/></g>
<g transform="translate(7408.00 1376.00) rotate(149) scale(320.00 320.00)"><ellipse cx="0" cy="0" rx="1" ry="1" fill="rgb(0,0,0)" fill-opacity="0.502"/></g>
<g transform="translate(6448.00 3504.00) rotate(294) scale(320.00 480.00)"><ellipse cx="0" cy="0" rx="1" ry="1" fill="rgb(40,130,200)" fill-opacity="0.502"/></g>
<g transform="translate(6048.00 4176.00) rotate(39) scale(448.00 512.00)"><ellipse cx="0" cy="0" rx="1" ry="1" fill="rgb(87,143,218)" fill-opacity="0.502"/></g>
<polygon points="4211.15,2303.00 3926.38,2096.10 4076.85,1889.00 4361.62,2095.90" fill="rgb(6,77,224)" fill-opacity="0.502"/>
<circle cx="2320.00" cy="2576.00" r="272.00" fill="rgb(3,61,212)" fill-opacity="0.502"/>
<g transform="translate(2928.00 4176.00) rotate(266) scale(208.00 640.00)"><ellipse cx="0" cy="0" rx="1" ry="1" fill="rgb(117,178,255)" fill-opacity="0.502"/></g>
<polygon points="7072.00,1776.00 6896.00,1776.00 6896.00,768.00 7072.00,768.00" fill="rgb(93,179,227)" fill-opacity="0.502"/>
<polygon points="4992.00,128.00 5296.00,128.00 5296.00,416.00 4992.00,416.00" fill="rgb(15,68,248)" fill-opacity="0.502"/>
<polygon points="6880.00,4592.00 6496.00,4592.00 6496.00,4432.00 6880.00,4432.00" fill="rgb(26,56,198)" fill-opacity="0.502"/>
<polygon points="6688.18,1420.88 6671.99,957.17 6959.82,947.12 6976.01,1410.83" fill="rgb(43,132,188)" fill-opacity="0.502"/>
<circle cx="1488.00" cy="2784.00" r="272.00" fill="rgb(23,68,134)" fill-opacity="0.502"/>
<polygon points="1565.82,2083.46 1536.54,2418.19 1106.18,2380.54 1135.46,2045.81" fill="rgb(85,141,255)" fill-opacity="0.502"/>
<polygon points="4607.75,1372.17 4665.31,1008.70 5392.25,1123.83 5334.69,1487.30" fill="rgb(46,109,249)" fill-opacity="0.502"/>
<circle cx="7568.00" cy="3056.00" r="512.00" fill="rgb(0,0,0)" fill-opacity="0.502"/>
<polygon points="5742.95,1447.32 6254.64,1465.19 6225.05,2312.68 5713.36,2294.81" fill="rgb(64,146,238)" fill-opacity="0.502"/>
<g transform="translate(6080.00 288.00) rotate(321) scale(144.00 432.00)"><ellipse cx="0" cy="0" rx="1" ry="1" fill="rgb(53,131,206)" fill-opacity="0.502"/></g>
<circle cx="2560.00" cy="1984.00" r="432.00" fill="rgb(67,122,255)" fill-opacity="0.502"/>
<circle cx="400.00" cy="832.00" r="816.00" fill="rgb(0,0,0)" fill-opacity="0.502"/>
<g transform="translate(6800.00 4288.00) rotate(20) scale(256.00 464.00)"><ellipse cx="0" cy="0" rx="1" ry="1" fill="rgb(83,139,237)" fill-opacity="0.502"/></g>
<polygon points="5509.93,4341.32 5651.74,4366.33 5610.07,4602.68 5468.26,4577.67" fill="rgb(0,68,160)" fill-opacity="0.502"/>
<circle cx="304.00" cy="3776.00" r="800.00" fill="rgb(0,0,0)" fill-opacity="0.502"/>
<g transform="translate(6544.00 2112.00) rotate(117) scale(352.00 160.00)"><ellipse cx="0" cy="0" rx="1" ry="1" fill="rgb(86,172,239)" fill-opacity="0.502"/></g>
<g transform="translate(5280.00 4240.00) rotate(215) scale(256.00 368.00)"><ellipse cx="0" cy="0" rx="1" ry="1" fill="rgb(106,171,247)" fill-opacity="0.502"/></g>
<g transform="translate(1040.00 1536.00) rotate(90) scale(128.00 320.00)"><ellipse cx="0" cy="0" rx="1" ry="1" fill="rgb(0,0,0)" fill-opacity="0.502"/></g>
<g transform="translate(5568.00 1024.00) rotate(258) scale(368.00 368.00)"><ellipse cx="0" cy="0" rx="1" ry="1" fill="rgb(95,172,250)" fill-opacity="0.502"/></g>
<polygon points="3935.43,2045.39 3649.01,2015.28 3712.57,1410.61 3998.99,1440.72" fill="rgb(68,137,252)" fill-opacity="0.502"/>
<circle cx="3296.00" cy="1616.00" r="368.00" fill="rgb(14,68,212)" fill-opacity="0.502"/>
<polygon points="5338.30,1065.73 6167.76,889.42 6197.70,1030.27 5368.24,1206.58" fill="rgb(51,131,228)" fill-opacity="0.502"/>
<circle cx="7840.00" cy="1728.00" r="768.00" fill="rgb(0,0,0)" fill-opacity="0.502"/>
<circle cx="6896.00" cy="336.00" r="192.00" fill="rgb(78,169,217)" fill-opacity="0.502"/>
<polygon points="2740.82,3550.78 1946.78,3648.27 1931.18,3521.22 2725.22,3423.73" fill="rgb(67,109,252)" fill-opacity="0.502"/>
<g transform="translate(1168.00 768.00) rotate(270) scale(624.00 80.00)"><ellipse cx="0" cy="0" rx="1" ry="1" fill="rgb(0,1,59)" fill-opacity="0.502"/></g>
<polygon points="5963.11,3043.55 5940.77,3683.16 5748.89,3676.45 5771.23,3036.84" fill="rgb(140,221,255)" fill-opacity="0.502"/>
<polygon points="6652.12,2700.34 6659.94,2252.40 7075.88,2259.66 7068.06,2707.60" fill="rgb(61,136,222)" fill-opacity="0.502"/>
<polygon points="4119.98,3759.35 4476.78,3414.80 4888.02,3840.65 4531.22,4185.20" fill="rgb(152,222,254)" fill-opacity="0.502"/>
<polygon points="6223.36,936.46 6718.93,228.71 6928.64,375.54 6433.07,1083.29" fill="rgb(109,199,232)" fill-opacity="0.502"/>
<polygon points="3634.63,2173.06 3644.39,2284.63 3389.37,2306.94 3379.61,2195.37" fill="rgb(0,63,217)" fill-opacity="0.502"/>
<polygon points="4757.88,1555.20 4979.35,1849.10 4762.12,2012.80 4540.65,1718.90" fill="rgb(60,139,255)" fill-opacity="0.502"/>
<polygon points="2871.07,2436.01 2747.99,3015.07 2168.93,2891.99 2292.01,2312.93" fill="rgb(20,79,225)" fill-opacity="0.502"/>
<g transform="translate(1424.00 2896.00) rotate(343) scale(320.00 304.00)"><ellipse cx="0" cy="0" rx="1" ry="1" fill="rgb(22,62,140)" fill-opacity="0.502"/></g>
<circle cx="7520.00" cy="4496.00" r="448.00" fill="rgb(0,0,0)" fill-opacity="0.502"/>
<g transform="translate(3392.00 3552.00) rotate(290) scale(400.00 176.00)"><ellipse cx="0" cy="0" rx="1" ry="1" fill="rgb(96,154,251)" fill-opacity="0.502"/></g>
<g transform="translate(4176.00 2480.00) rotate(332) scale(288.00 176.00)"><ellipse cx="0" cy="0" rx="1" ry="1" fill="rgb(190,255,255)" fill-opacity="0.502"/></g>
<polygon points="6422.85,2450.02 6799.11,2987.38 6681.15,3069.98 6304.89,2532.62" fill="rgb(119,184,254)" fill-opacity="0.502"/>
<circle cx="2736.00" cy="0.00" r="480.00" fill="rgb(3,50,167)" fill-opacity="0.502"/>
<polygon points="1856.00,2384.00 2032.00,2384.00 2032.00,3360.00 1856.00,3360.00" fill="rgb(46,90,246)" fill-opacity="0.502"/>
<g transform="translate(4432.00 0.00) rotate(239) scale(192.00 208.00)"><ellipse cx="0" cy="0" rx="1" ry="1" fill="rgb(195,253,255)" fill-opacity="0.502"/></g>
<polygon points="1729.32,3457.94 1710.34,4001.61 1150.68,3982.06 1169.66,3438.39" fill="rgb(3,12,70)" fill-opacity="0.502"/>
<g transform="translate(3840.00 272.00) rotate(183) scale(176.00 448.00)"><ellipse cx="0" cy="0" rx="1" ry="1" fill="rgb(53,104,255)" fill-opacity="0.502"/></g>
<g transform="translate(3184.00 752.00) rotate(288) scale(624.00 128.00)"><ellipse cx="0" cy="0" rx="1" ry="1" fill="rgb(63,126,235)" fill-opacity="0.502"/></g>
<g transform="translate(5248.00 800.00) rotate(28) scale(304.00 176.00)"><ellipse cx="0" cy="0" rx="1" ry="1" fill="rgb(110,182,252)" fill-opacity="0.502"/></g>
<polygon points="3128.82,469.82 2518.82,1058.89 2263.18,794.18 2873.18,205.11" fill="rgb(17,70,192)" fill-opacity="0.502"/>
<circle cx="5408.00" cy="3296.00" r="416.00" fill="rgb(186,255,255)" fill-opacity="0.502"/>
<polygon points="6556.74,4214.92 6661.31,4375.94 6339.26,4585.08 6234.69,4424.06" fill="rgb(113,165,249)" fill-opacity="0.502"/>
<polygon points="2111.78,4822.76 2177.01,4202.18 2320.22,4217.24 2254.99,4837.82" fill="rgb(25,71,164)" fill-opacity="0.502"/>
<polygon points="3536.00,912.00 3760.00,912.00 3760.00,1712.00 3536.00,1712.00" fill="rgb(29,82,246)" fill-opacity="0.502"/>
<g transform="translate(7200.00 0.00) rotate(17) scale(336.00 176.00)"><ellipse cx="0" cy="0" rx="1" ry="1" fill="rgb(0,0,6)" fill-opacity="0.502"/></g>
<circle cx="7552.00" cy="1104.00" r="496.00" fill="rgb(0,0,0)" fill-opacity="0.502"/>
<polygon points="6099.54,4293.97 6092.56,3894.03 6780.46,3882.03 6787.44,4281.97" fill="rgb(58,123,199)" fill-opacity="0.502"/>
<circle cx="7376.00" cy="3728.00" r="304.00" fill="rgb(0,0,0)" fill-opacity="0.502"/>
<polygon points="2148.70,4328.96 2859.84,4441.60 2827.30,4647.04 2116.16,4534.40" fill="rgb(30,75,175)" fill-opacity="0.502"/>
<g transform="translate(1520.00 368.00) rotate(78) scale(1120.00 240.00)"><ellipse cx="0" cy="0" rx="1" ry="1" fill="rgb(1,15,98)" fill-opacity="0.502"/></g>
<circle cx="4928.00" cy="0.00" r="112.00" fill="rgb(123,166,255)" fill-opacity="0.502"/>
<circle cx="4352.00" cy="336.00" r="224.00" fill="rgb(137,190,255)" fill-opacity="0.502"/>
<polygon points="5616.00,4416.00 6416.00,4416.00 6416.00,4592.00 5616.00,4592.00" fill="rgb(99,158,246)" fill-opacity="0.502"/>
<circle cx="2464.00" cy="3616.00" r="192.00" fill="rgb(50,91,224)" fill-opacity="0.502"/>
<circle cx="7904.00" cy="320.00" r="832.00" fill="rgb(0,0,0)" fill-opacity="0.502"/>
<g transform="translate(6992.00 208.00) rotate(89) scale(560.00 96.00)"><ellipse cx="0" cy="0" rx="1" ry="1" fill="rgb(30,111,177)" fill-opacity="0.502"/></g>
<g transform="translate(1296.00 2032.00) rotate(263) scale(32.00 192.00)"><ellipse cx="0" cy="0" rx="1" ry="1" fill="rgb(34,92,255)" fill-opacity="0.502"/></g>
<polygon points="2154.32,1566.47 2396.38,1483.12 2453.68,1649.53 2211.62,1732.88" fill="rgb(81,132,255)" fill-opacity="0.502"/>
<circle cx="3200.00" cy="2048.00" r="272.00" fill="rgb(13,70,211)" fill-opacity="0.502"/>
<g transform="translate(784.00 2192.00) rotate(360) scale(320.00 4592.00)"><ellipse cx="0" cy="0" rx="1" ry="1" fill="rgb(0,0,0)" fill-opacity="0.502"/></g>
<g transform="translate(432.00 1632.00) rotate(233) scale(688.00 704.00)"><ellipse cx="0" cy="0" rx="1" ry="1" fill="rgb(0,0,0)" fill-opacity="0.502"/></g>
<g transform="translate(1760.00 1040.00) rotate(151) scale(176.00 368.00)"><ellipse cx="0" cy="0" rx="1" ry="1" fill="rgb(1,24,112)" fill-opacity="0.502"/></g>
<polygon points="6930.60,1221.06 6306.98,1242.84 6301.40,1082.94 6925.02,1061.16" fill="rgb(49,141,180)" fill-opacity="0.502"/>
<circle cx="4224.00" cy="1392.00" r="352.00" fill="rgb(27,81,245)" fill-opacity="0.502"/>
<g transform="translate(4528.00 2752.00) rotate(165) scale(320.00 496.00)"><ellipse cx="0" cy="0" rx="1" ry="1" fill="rgb(199,255,253)" fill-opacity="0.502"/></g>
<g transform="translate(2400.00 1056.00) rotate(37) scale(528.00 352.00)"><ellipse cx="0" cy="0" rx="1" ry="1" fill="rgb(6,46,161)" fill-opacity="0.502"/></g>
<circle cx="3456.00" cy="1296.00" r="192.00" fill="rgb(4,43,222)" fill-opacity="0.502"/>
<circle cx="2496.00" cy="736.00" r="240.00" fill="rgb(20,72,195)" fill-opacity="0.502"/>
<g transform="translate(7296.00 2656.00) rotate(280) scale(496.00 192.00)"><ellipse cx="0" cy="0" rx="1" ry="1" fill="rgb(0,0,0)" fill-opacity="0.502"/></g>
<circle cx="1520.00" cy="3120.00" r="176.00" fill="rgb(7,27,96)" fill-opacity="0.502"/>
<g transform="translate(7824.00 3104.00) rotate(270) scale(6368.00 736.00)"><ellipse cx="0" cy="0" rx="1" ry="1" fill="rgb(0,0,0)" fill-opacity="0.502"/></g>
<g transform="translate(2320.00 1120.00) rotate(264) scale(128.00 224.00)"><ellipse cx="0" cy="0" rx="1" ry="1" fill="rgb(0,20,109)" fill-opacity="0.502"/></g>
<circle cx="5600.00" cy="1264.00" r="112.00" fill="rgb(127,213,255)" fill-opacity="0.502"/>
<g transform="translate(6688.00 3376.00) rotate(36) scale(448.00 304.00)"><ellipse cx="0" cy="0" rx="1" ry="1" fill="rgb(51,138,216)" fill-opacity="0.502"/></g>
<g transform="translate(6816.00 640.00) rotate(111) scale(480.00 112.00)"><ellipse cx="0" cy="0" rx="1" ry="1" fill="rgb(86,171,214)" fill-opacity="0.502"/></g>
<g transform="translate(4992.00 1984.00) rotate(217) scale(448.00 128.00)"><ellipse cx="0" cy="0" rx="1" ry="1" fill="rgb(69,133,240)" fill-opacity="0.502"/></g>
<polygon points="5093.42,328.67 4911.05,702.57 4666.58,583.33 4848.95,209.43" fill="rgb(67,114,255)" fill-opacity="0.502"/>
<g transform="translate(1552.00 1632.00) rotate(253) scale(400.00 176.00)"><ellipse cx="0" cy="0" rx="1" ry="1" fill="rgb(0,0,42)" fill-opacity="0.502"/></g>
<g transform="translate(4176.00 688.00) rotate(206) scale(336.00 304.00)"><ellipse cx="0" cy="0" rx="1" ry="1" fill="rgb(88,151,253)" fill-opacity="0.502"/></g>
<circle cx="5856.00" cy="1888.00" r="144.00" fill="rgb(27,120,204)" fill-opacity="0.502"/>
<g transform="translate(2048.00 1728.00) rotate(337) scale(96.00 384.00)"><ellipse cx="0" cy="0" rx="1" ry="1" fill="rgb(6,63,200)" fill-opacity="0.502"/></g>
<polygon points="6010.08,1395.98 6028.07,1318.03 6261.92,1372.02 6243.93,1449.97" fill="rgb(0,41,142)" fill-opacity="0.502"/>
<g transform="translate(6976.00 4480.00) rotate(12) scale(80.00 320.00)"><ellipse cx="0" cy="0" rx="1" ry="1" fill="rgb(88,149,242)" fill-opacity="0.502"/></g>
<polygon points="4065.04,957.49 4189.49,833.04 4494.96,1138.51 4370.51,1262.96" fill="rgb(57,114,252)" fill-opacity="0.502"/>
<polygon points="5397.45,1514.51 5469.43,1826.31 4970.55,1941.49 4898.57,1629.69" fill="rgb(109,195,255)" fill-opacity="0.502"/>
<g transform="translate(6912.00 3520.00) rotate(257) scale(656.00 96.00)"><ellipse cx="0" cy="0" rx="1" ry="1" fill="rgb(72,145,232)" fill-opacity="0.502"/></g>
<polygon points="5853.41,3278.41 5708.14,2993.29 6178.59,2753.59 6323.86,3038.71" fill="rgb(157,232,254)" fill-opacity="0.502"/>
<polygon points="4863.24,3325.60 5157.11,3488.49 5040.76,3698.40 4746.89,3535.51" fill="rgb(182,254,255)" fill-opacity="0.502"/>
<circle cx="2512.00" cy="1968.00" r="416.00" fill="rgb(67,122,255)" fill-opacity="0.502"/>
<circle cx="6208.00" cy="352.00" r="224.00" fill="rgb(57,142,205)" fill-opacity="0.502"/>
<g transform="translate(3232.00 960.00) rotate(25) scale(96.00 352.00)"><ellipse cx="0" cy="0" rx="1" ry="1" fill="rgb(82,141,244)" fill-opacity="0.502"/></g>
<polygon points="6135.05,1193.38 6239.61,1153.24 6296.95,1302.62 6192.39,1342.76" fill="rgb(138,232,248)" fill-opacity="0.502"/>
<circle cx="6720.00" cy="96.00" r="176.00" fill="rgb(52,136,199)" fill-opacity="0.502"/>
<g transform="translate(3488.00 2784.00) rotate(75) scale(400.00 448.00)"><ellipse cx="0" cy="0" rx="1" ry="1" fill="rgb(134,195,252)" fill-opacity="0.502"/></g>
<polygon points="2196.92,872.00 2344.00,724.92 2491.08,872.00 2344.00,1019.08" fill="rgb(27,69,199)" fill-opacity="0.502"/>
<polygon points="2515.46,3962.10 2311.28,4001.79 2268.54,3781.90 2472.72,3742.21" fill="rgb(19,69,154)" fill-opacity="0.502"/>
<g transform="translate(2288.00 3024.00) rotate(85) scale(160.00 496.00)"><ellipse cx="0" cy="0" rx="1" ry="1" fill="rgb(51,104,255)" fill-opacity="0.502"/></g>
<polygon points="3571.92,3560.07 3815.92,3935.79 3212.08,4327.93 2968.08,3952.21" fill="rgb(135,189,255)" fill-opacity="0.502"/>
<g transform="translate(2000.00 2192.00) rotate(91) scale(96.00 816.00)"><ellipse cx="0" cy="0" rx="1" ry="1" fill="rgb(81,138,255)" fill-opacity="0.502"/></g>
<polygon points="2920.04,1185.23 3241.90,1006.82 3303.96,1118.77 2982.10,1297.18" fill="rgb(113,155,255)" fill-opacity="0.502"/>
<g transform="translate(2736.00 3216.00) rotate(191) scale(848.00 32.00)"><ellipse cx="0" cy="0" rx="1" ry="1" fill="rgb(81,126,255)" fill-opacity="0.502"/></g>
<g transform="translate(4112.00 1856.00) rotate(35) scale(80.00 368.00)"><ellipse cx="0" cy="0" rx="1" ry="1" fill="rgb(50,128,250)" fill-opacity="0.502"/></g>
<polygon points="2382.26,211.71 1921.90,723.00 1505.74,348.29 1966.10,-163.00" fill="rgb(0,32,120)" fill-opacity="0.502"/>
<circle cx="1264.00" cy="4592.00" r="208.00" fill="rgb(0,0,26)" fill-opacity="0.502"/>
<polygon points="2955.88,2486.69 3069.93,2544.81 2772.12,3129.31 2658.07,3071.19" fill="rgb(85,144,252)" fill-opacity="0.502"/>
<g transform="translate(4784.00 912.00) rotate(178) scale(368.00 96.00)"><ellipse cx="0" cy="0" rx="1" ry="1" fill="rgb(135,186,255)" fill-opacity="0.502"/></g>
<polygon points="3196.20,1017.43 2652.54,998.44 2659.80,790.57 3203.46,809.56" fill="rgb(17,72,210)" fill-opacity="0.502"/>
<g transform="translate(5216.00 2768.00) rotate(176) scale(720.00 480.00)"><ellipse cx="0" cy="0" rx="1" ry="1" fill="rgb(198,253,251)" fill-opacity="0.502"/></g>
<polygon points="3644.28,677.41 3693.53,812.73 3347.72,938.59 3298.47,803.27" fill="rgb(108,188,255)" fill-opacity="0.502"/>
<circle cx="4080.00" cy="176.00" r="160.00" fill="rgb(116,165,255)" fill-opacity="0.502"/>
<g transform="translate(1440.00 2864.00) rotate(215) scale(384.00 208.00)"><ellipse cx="0" cy="0" rx="1" ry="1" fill="rgb(25,68,150)" fill-opacity="0.502"/></g>
<circle cx="5728.00" cy="336.00" r="208.00" fill="rgb(90,164,244)" fill-opacity="0.502"/>
<polygon points="6711.47,4433.46 6755.57,4587.26 6632.53,4622.54 6588.43,4468.74" fill="rgb(2,40,184)" fill-opacity="0.502"/>
<g transform="translate(5616.00 0.00) rotate(28) scale(208.00 192.00)"><ellipse cx="0" cy="0" rx="1" ry="1" fill="rgb(58,132,231)" fill-opacity="0.502"/></g>
<circle cx="4896.00" cy="1312.00" r="112.00" fill="rgb(83,146,255)" fill-opacity="0.502"/>
<circle cx="6064.00" cy="2016.00" r="160.00" fill="rgb(77,153,255)" fill-opacity="0.502"/>
<polygon points="5287.34,1200.41 5348.19,1330.92 4840.66,1567.59 4779.81,1437.08" fill="rgb(31,108,234)" fill-opacity="0.502"/>
<g transform="translate(6016.00 1616.00) rotate(338) scale(176.00 128.00)"><ellipse cx="0" cy="0" rx="1" ry="1" fill="rgb(85,172,249)" fill-opacity="0.502"/></g>
<polygon points="1792.38,3476.21 1664.87,3465.05 1727.62,2747.79 1855.13,2758.95" fill="rgb(17,54,187)" fill-opacity="0.502"/>
<g transform="translate(1120.00 4592.00) rotate(10) scale(288.00 112.00)"><ellipse cx="0" cy="0" rx="1" ry="1" fill="rgb(0,0,0)" fill-opacity="0.502"/></g>
<circle cx="0.00" cy="3536.00" r="1104.00" fill="rgb(0,0,0)" fill-opacity="0.502"/>
<polygon points="1677.39,4799.57 1219.09,4308.10 1394.61,4144.43 1852.91,4635.90" fill="rgb(10,30,100)" fill-opacity="0.502"/>
<circle cx="5504.00" cy="528.00" r="96.00" fill="rgb(2,80,191)" fill-opacity="0.502"/>
<circle cx="1200.00" cy="3136.00" r="112.00" fill="rgb(12,33,121)" fill-opacity="0.502"/>
<polygon points="2038.69,587.75 2225.22,289.24 2537.31,484.25 2350.78,782.76" fill="rgb(4,51,157)" fill-opacity="0.502"/>
<circle cx="5040.00" cy="2096.00" r="208.00" fill="rgb(80,140,242)" fill-opacity="0.502"/>
<g transform="translate(6096.00 1776.00) rotate(3) scale(240.00 96.00)"><ellipse cx="0" cy="0" rx="1" ry="1" fill="rgb(32,119,194)" fill-opacity="0.502"/></g>
<g transform="translate(3920.00 2464.00) rotate(56) scale(176.00 192.00)"><ellipse cx="0" cy="0" rx="1" ry="1" fill="rgb(171,245,252)" fill-opacity="0.502"/></g>
<circle cx="6736.00" cy="3328.00" r="240.00" fill="rgb(42,130,206)" fill-opacity="0.502"/>
<g transform="translate(3328.00 4592.00) rotate(300) scale(192.00 288.00)"><ellipse cx="0" cy="0" rx="1" ry="1" fill="rgb(104,163,254)" fill-opacity="0.502"/></g>
<circle cx="1808.00" cy="3904.00" r="272.00" fill="rgb(5,23,86)" fill-opacity="0.502"/>
<g transform="translate(4720.00 320.00) rotate(115) scale(848.00 112.00)"><ellipse cx="0" cy="0" rx="1" ry="1" fill="rgb(104,153,255)" fill-opacity="0.502"/></g>
<g transform="translate(1392.00 1808.00) rotate(246) scale(160.00 304.00)"><ellipse cx="0" cy="0" rx="1" ry="1" fill="rgb(0,1,64)" fill-opacity="0.502"/></g>
<g transform="translate(4144.00 4416.00) rotate(230) scale(384.00 288.00)"><ellipse cx="0" cy="0" rx="1" ry="1" fill="rgb(129,193,255)" fill-opacity="0.502"/></g>
<polygon points="2936.60,231.25 3300.61,-173.02 3431.40,-55.25 3067.39,349.02" fill="rgb(14,68,199)" fill-opacity="0.502"/>
<polygon points="4642.70,1949.77 4846.88,1989.46 4813.30,2162.23 4609.12,2122.54" fill="rgb(11,69,207)" fill-opacity="0.502"/>
<g transform="translate(1856.00 2656.00) rotate(26) scale(640.00 64.00)"><ellipse cx="0" cy="0" rx="1" ry="1" fill="rgb(50,102,243)" fill-opacity="0.502"/></g>
<polygon points="4280.34,1890.18 4297.06,1731.06 4551.66,1757.82 4534.94,1916.94" fill="rgb(104,201,255)" fill-opacity="0.502"/>
<circle cx="1904.00" cy="3328.00" r="160.00" fill="rgb(12,42,169)" fill-opacity="0.502"/>
<g transform="translate(5936.00 2496.00) rotate(70) scale(224.00 128.00)"><ellipse cx="0" cy="0" rx="1" ry="1" fill="rgb(190,254,253)" fill-opacity="0.502"/></g>
<circle cx="5520.00" cy="784.00" r="128.00" fill="rgb(111,195,245)" fill-opacity="0.502"/>
<circle cx="4976.00" cy="4272.00" r="304.00" fill="rgb(127,192,253)" fill-opacity="0.502"/>
<circle cx="5776.00" cy="1008.00" r="176.00" fill="rgb(65,146,234)" fill-opacity="0.502"/>
<circle cx="2112.00" cy="2432.00" r="128.00" fill="rgb(12,68,212)" fill-opacity="0.502"/>
<circle cx="5024.00" cy="880.00" r="224.00" fill="rgb(114,173,253)" fill-opacity="0.502"/>
<g transform="translate(1264.00 112.00) rotate(103) scale(288.00 160.00)"><ellipse cx="0" cy="0" rx="1" ry="1" fill="rgb(0,0,31)" fill-opacity="0.502"/></g>
<g transform="translate(2832.00 2528.00) rotate(88) scale(368.00 48.00)"><ellipse cx="0" cy="0" rx="1" ry="1" fill="rgb(73,130,248)" fill-opacity="0.502"/></g>
<circle cx="6000.00" cy="1200.00" r="128.00" fill="rgb(94,200,240)" fill-opacity="0.502"/>
<polygon points="6485.00,1828.11 6170.09,1465.85 6315.00,1339.89 6629.91,1702.15" fill="rgb(38,118,196)" fill-opacity="0.502"/>
<polygon points="5652.15,1485.78 5788.15,1250.22 6203.85,1490.22 6067.85,1725.78" fill="rgb(76,166,251)" fill-opacity="0.502"/>
<polygon points="6240.00,352.00 6608.00,352.00 6608.00,448.00 6240.00,448.00" fill="rgb(36,128,168)" fill-opacity="0.502"/>
<circle cx="1888.00" cy="1776.00" r="160.00" fill="rgb(0,21,112)" fill-opacity="0.502"/>
<polygon points="5744.44,4173.53 5545.49,4334.63 5263.56,3986.47 5462.51,3825.37" fill="rgb(113,180,235)" fill-opacity="0.502"/>
<g transform="translate(1808.00 624.00) rotate(271) scale(144.00 400.00)"><ellipse cx="0" cy="0" rx="1" ry="1" fill="rgb(4,28,115)" fill-opacity="0.502"/></g>
<g transform="translate(2896.00 0.00) rotate(359) scale(272.00 272.00)"><ellipse cx="0" cy="0" rx="1" ry="1" fill="rgb(7,52,176)" fill-opacity="0.502"/></g>
<polygon points="7088.07,1686.60 6751.45,1789.51 6671.93,1529.40 7008.55,1426.49" fill="rgb(104,183,251)" fill-opacity="0.502"/>
<g transform="translate(3360.00 896.00) rotate(330) scale(64.00 240.00)"><ellipse cx="0" cy="0" rx="1" ry="1" fill="rgb(85,158,250)" fill-opacity="0.502"/></g>
<circle cx="2800.00" cy="4096.00" r="208.00" fill="rgb(102,160,253)" fill-opacity="0.502"/>
<polygon points="6707.02,1768.05 6530.28,1843.07 6348.98,1415.95 6525.72,1340.93" fill="rgb(59,144,217)" fill-opacity="0.502"/>
<polygon points="3461.73,2633.94 3721.94,2373.73 3914.27,2566.06 3654.06,2826.27" fill="rgb(143,213,248)" fill-opacity="0.502"/>
<g transform="translate(3040.00 3536.00) rotate(72) scale(112.00 416.00)"><ellipse cx="0" cy="0" rx="1" ry="1" fill="rgb(56,104,239)" fill-opacity="0.502"/></g>
<polygon points="3788.76,1280.40 3992.40,1076.76 4275.24,1359.60 4071.60,1563.24" fill="rgb(20,70,244)" fill-opacity="0.502"/>
<circle cx="5648.00" cy="2096.00" r="224.00" fill="rgb(97,169,245)" fill-opacity="0.502"/>
<g transform="translate(4080.00 3584.00) rotate(35) scale(608.00 96.00)"><ellipse cx="0" cy="0" rx="1" ry="1" fill="rgb(145,210,255)" fill-opacity="0.502"/></g>
<g transform="translate(5984.00 4048.00) rotate(258) scale(272.00 256.00)"><ellipse cx="0" cy="0" rx="1" ry="1" fill="rgb(84,145,203)" fill-opacity="0.502"/></g>
<polygon points="5866.45,3558.24 5708.84,3759.97 5557.55,3641.76 5715.16,3440.03" fill="rgb(167,227,255)" fill-opacity="0.502"/>
<circle cx="4064.00" cy="2176.00" r="112.00" fill="rgb(48,118,233)" fill-opacity="0.502"/>
<polygon points="4469.24,3487.81 4341.59,2681.85 5210.76,2544.19 5338.41,3350.15" fill="rgb(202,253,252)" fill-opacity="0.502"/>
<polygon points="3182.13,1971.64 3155.64,1668.80 3617.87,1628.36 3644.36,1931.20" fill="rgb(25,86,221)" fill-opacity="0.502"/>
<polygon points="6439.26,316.69 6378.21,2.57 6456.74,-12.69 6517.79,301.43" fill="rgb(0,50,119)" fill-opacity="0.502"/>
<circle cx="2592.00" cy="3328.00" r="64.00" fill="rgb(7,34,160)" fill-opacity="0.502"/>
<circle cx="5776.00" cy="2944.00" r="256.00" fill="rgb(179,244,250)" fill-opacity="0.502"/>
<circle cx="2736.00" cy="1696.00" r="224.00" fill="rgb(77,128,255)" fill-opacity="0.502"/>
<polygon points="3270.86,1916.87 3060.21,2330.30 2889.14,2243.13 3099.79,1829.70" fill="rgb(12,66,211)" fill-opacity="0.502"/>
<g transform="translate(5696.00 2096.00) rotate(358) scale(240.00 64.00)"><ellipse cx="0" cy="0" rx="1" ry="1" fill="rgb(118,189,255)" fill-opacity="0.502"/></g>
<circle cx="3728.00" cy="960.00" r="128.00" fill="rgb(62,132,255)" fill-opacity="0.502"/>
<g transform="translate(5584.00 1264.00) rotate(276) scale(96.00 352.00)"><ellipse cx="0" cy="0" rx="1" ry="1" fill="rgb(105,192,254)" fill-opacity="0.502"/></g>
<polygon points="6826.68,4405.52 6412.96,4362.04 6421.32,4282.48 6835.04,4325.96" fill="rgb(122,185,251)" fill-opacity="0.502"/>
<polygon points="3863.04,4317.20 3845.83,4362.01 3576.96,4258.80 3594.17,4213.99" fill="rgb(86,152,247)" fill-opacity="0.502"/>
<g transform="translate(5888.00 448.00) rotate(146) scale(208.00 400.00)"><ellipse cx="0" cy="0" rx="1" ry="1" fill="rgb(88,167,242)" fill-opacity="0.502"/></g>
<circle cx="1824.00" cy="3584.00" r="192.00" fill="rgb(12,40,116)" fill-opacity="0.502"/>
<polygon points="4811.00,1707.08 4741.19,1581.14 5189.00,1332.92 5258.81,1458.86" fill="rgb(78,152,250)" fill-opacity="0.502"/>
<g transform="translate(5856.00 1872.00) rotate(35) scale(64.00 176.00)"><ellipse cx="0" cy="0" rx="1" ry="1" fill="rgb(27,118,199)" fill-opacity="0.502"/></g>
<g transform="translate(3712.00 3504.00) rotate(288) scale(144.00 192.00)"><ellipse cx="0" cy="0" rx="1" ry="1" fill="rgb(124,183,255)" fill-opacity="0.502"/></g>
<g transform="translate(5296.00 400.00) rotate(71) scale(176.00 128.00)"><ellipse cx="0" cy="0" rx="1" ry="1" fill="rgb(13,80,233)" fill-opacity="0.502"/></g>
<circle cx="5344.00" cy="1376.00" r="112.00" fill="rgb(53,141,217)" fill-opacity="0.502"/>
<g transform="translate(5664.00 1680.00) rotate(170) scale(144.00 272.00)"><ellipse cx="0" cy="0" rx="1" ry="1" fill="rgb(77,174,248)" fill-opacity="0.502"/></g>
<g transform="translate(912.00 4336.00) rotate(84) scale(240.00 320.00)"><ellipse cx="0" cy="0" rx="1" ry="1" fill="rgb(0,0,2)" fill-opacity="0.502"/></g>
<circle cx="448.00" cy="112.00" r="688.00" fill="rgb(0,0,0)" fill-opacity="0.502"/>
<g transform="translate(4416.00 2816.00) rotate(338) scale(400.00 528.00)"><ellipse cx="0" cy="0" rx="1" ry="1" fill="rgb(194,254,253)" fill-opacity="0.502"/></g>
<circle cx="4224.00" cy="3680.00" r="256.00" fill="rgb(150,210,252)" fill-opacity="0.502"/>
<g transform="translate(7008.00 4032.00) rotate(268) scale(272.00 80.00)"><ellipse cx="0" cy="0" rx="1" ry="1" fill="rgb(97,162,251)" fill-opacity="0.502"/></g>
<circle cx="4912.00" cy="176.00" r="112.00" fill="rgb(64,108,254)" fill-opacity="0.502"/>
<g transform="translate(2224.00 176.00) rotate(163) scale(224.00 224.00)"><ellipse cx="0" cy="0" rx="1" ry="1" fill="rgb(2,35,131)" fill-opacity="0.502"/></g>
<g transform="translate(6672.00 816.00) rotate(279) scale(400.00 128.00)"><ellipse cx="0" cy="0" rx="1" ry="1" fill="rgb(89,177,222)" fill-opacity="0.502"/></g>
<polygon points="1792.00,2048.00 1792.00,1888.00 2144.00,1888.00 2144.00,2048.00" fill="rgb(0,57,210)" fill-opacity="0.502"/>
<circle cx="4976.00" cy="3776.00" r="176.00" fill="rgb(151,221,253)" fill-opacity="0.502"/>
<polygon points="5820.08,4521.54 5693.83,4262.69 5923.92,4150.46 6050.17,4409.31" fill="rgb(97,164,231)" fill-opacity="0.502"/>
<polygon points="4907.43,2035.48 4881.39,2111.12 4548.57,1996.52 4574.61,1920.88" fill="rgb(31,90,227)" fill-opacity="0.502"/>
<polygon points="2432.62,3777.12 2542.88,3392.62 2927.38,3502.88 2817.12,3887.38" fill="rgb(56,99,229)" fill-opacity="0.502"/>
<g transform="translate(1536.00 1552.00) rotate(15) scale(160.00 304.00)"><ellipse cx="0" cy="0" rx="1" ry="1" fill="rgb(1,0,34)" fill-opacity="0.502"/></g>
<circle cx="6224.00" cy="2720.00" r="208.00" fill="rgb(169,238,249)" fill-opacity="0.502"/>
<polygon points="6781.09,4638.03 6741.39,4499.61 6802.91,4481.97 6842.61,4620.39" fill="rgb(19,71,174)" fill-opacity="0.502"/>
<polygon points="2582.19,3108.77 2248.67,2953.24 2329.81,2779.23 2663.33,2934.76" fill="rgb(29,89,239)" fill-opacity="0.502"/>
<polygon points="5500.46,4605.82 5378.05,4568.39 5443.54,4354.18 5565.95,4391.61" fill="rgb(0,66,146)" fill-opacity="0.502"/>
<circle cx="4752.00" cy="2816.00" r="336.00" fill="rgb(207,252,249)" fill-opacity="0.502"/>
<g transform="translate(6480.00 560.00) rotate(254) scale(64.00 176.00)"><ellipse cx="0" cy="0" rx="1" ry="1" fill="rgb(121,215,255)" fill-opacity="0.502"/></g>
<polygon points="6191.56,2696.43 5617.76,2646.23 5648.44,2295.57 6222.24,2345.77" fill="rgb(187,251,252)" fill-opacity="0.502"/>
<g transform="translate(2208.00 4576.00) rotate(67) scale(288.00 224.00)"><ellipse cx="0" cy="0" rx="1" ry="1" fill="rgb(23,63,150)" fill-opacity="0.502"/></g>
<circle cx="1648.00" cy="3360.00" r="64.00" fill="rgb(38,74,205)" fill-opacity="0.502"/>
<circle cx="4560.00" cy="1776.00" r="96.00" fill="rgb(77,174,255)" fill-opacity="0.502"/>
<circle cx="3632.00" cy="1712.00" r="96.00" fill="rgb(45,124,235)" fill-opacity="0.502"/>
<polygon points="3855.27,1332.45 4141.58,1756.92 4048.73,1819.55 3762.42,1395.08" fill="rgb(46,108,246)" fill-opacity="0.502"/>
<polygon points="2214.12,2595.12 2275.31,2330.09 2633.88,2412.88 2572.69,2677.91" fill="rgb(12,64,208)" fill-opacity="0.502"/>
<polygon points="7101.71,3133.62 6867.86,3187.61 6738.29,2626.38 6972.14,2572.39" fill="rgb(64,126,226)" fill-opacity="0.502"/>
<polygon points="6623.68,4608.21 6535.31,4570.70 6560.32,4511.79 6648.69,4549.30" fill="rgb(6,54,201)" fill-opacity="0.502"/>
<polygon points="5889.57,3799.31 5919.61,3609.67 6014.43,3624.69 5984.39,3814.33" fill="rgb(113,175,255)" fill-opacity="0.502"/>
<polygon points="2996.80,3597.01 3172.69,3603.15 3163.20,3874.99 2987.31,3868.85" fill="rgb(85,143,251)" fill-opacity="0.502"/>
<circle cx="6896.00" cy="848.00" r="160.00" fill="rgb(70,167,198)" fill-opacity="0.502"/>
<polygon points="3875.09,3236.63 3606.68,3093.91 3756.91,2811.37 4025.32,2954.09" fill="rgb(119,198,246)" fill-opacity="0.502"/>
<polygon points="5840.82,594.24 5839.14,690.23 5583.18,685.76 5584.86,589.77" fill="rgb(38,130,194)" fill-opacity="0.502"/>
<polygon points="6587.15,2691.01 6292.99,2396.85 6756.85,1932.99 7051.01,2227.15" fill="rgb(75,157,232)" fill-opacity="0.502"/>
<circle cx="4592.00" cy="768.00" r="160.00" fill="rgb(124,180,247)" fill-opacity="0.502"/>
<circle cx="2480.00" cy="96.00" r="208.00" fill="rgb(5,49,144)" fill-opacity="0.502"/>
<g transform="translate(4384.00 672.00) rotate(138) scale(64.00 288.00)"><ellipse cx="0" cy="0" rx="1" ry="1" fill="rgb(94,150,247)" fill-opacity="0.502"/></g>
<g transform="translate(6592.00 1392.00) rotate(40) scale(192.00 224.00)"><ellipse cx="0" cy="0" rx="1" ry="1" fill="rgb(69,155,226)" fill-opacity="0.502"/></g>
<polygon points="1208.15,3448.63 1156.54,3314.19 1559.85,3159.37 1611.46,3293.81" fill="rgb(0,0,56)" fill-opacity="0.502"/>
<polygon points="3014.26,415.68 2997.63,337.43 3529.74,224.32 3546.37,302.57" fill="rgb(66,149,233)" fill-opacity="0.502"/>
<polygon points="5919.81,1259.97 5667.78,1089.97 5936.19,692.03 6188.22,862.03" fill="rgb(69,155,232)" fill-opacity="0.502"/>
<polygon points="2154.57,2612.39 2181.07,2915.24 2085.43,2923.61 2058.93,2620.76" fill="rgb(38,89,245)" fill-opacity="0.502"/>
<polygon points="2900.68,1349.70 3008.03,1279.99 3243.32,1642.30 3135.97,1712.01" fill="rgb(14,66,204)" fill-opacity="0.502"/>
<circle cx="1296.00" cy="464.00" r="192.00" fill="rgb(3,8,68)" fill-opacity="0.502"/>
<polygon points="4845.12,2155.21 4777.52,2282.35 4706.88,2244.79 4774.48,2117.65" fill="rgb(0,57,194)" fill-opacity="0.502"/>
<g transform="translate(2320.00 3648.00) rotate(19) scale(400.00 80.00)"><ellipse cx="0" cy="0" rx="1" ry="1" fill="rgb(41,87,203)" fill-opacity="0.502"/></g>
<g transform="translate(6272.00 784.00) rotate(309) scale(80.00 416.00)"><ellipse cx="0" cy="0" rx="1" ry="1" fill="rgb(115,196,255)" fill-opacity="0.502"/></g>
<g transform="translate(1168.00 2608.00) rotate(189) scale(48.00 256.00)"><ellipse cx="0" cy="0" rx="1" ry="1" fill="rgb(28,81,189)" fill-opacity="0.502"/></g>
<circle cx="3552.00" cy="128.00" r="128.00" fill="rgb(79,162,250)" fill-opacity="0.502"/>
<g transform="translate(6592.00 3888.00) rotate(270) scale(320.00 240.00)"><ellipse cx="0" cy="0" rx="1" ry="1" fill="rgb(48,126,210)" fill-opacity="0.502"/></g>
<polygon points="2230.85,1217.76 1874.06,1562.31 1785.15,1470.24 2141.94,1125.69" fill="rgb(12,58,162)" fill-opacity="0.502"/>
<polygon points="6872.50,3025.70 6775.50,3081.70 6519.50,2638.30 6616.50,2582.30" fill="rgb(88,146,242)" fill-opacity="0.502"/>
<polygon points="4310.52,1916.02 4406.38,1768.41 4473.48,1811.98 4377.62,1959.59" fill="rgb(100,184,255)" fill-opacity="0.502"/>
<g transform="translate(2896.00 3040.00) rotate(50) scale(128.00 256.00)"><ellipse cx="0" cy="0" rx="1" ry="1" fill="rgb(116,172,255)" fill-opacity="0.502"/></g>
<circle cx="7744.00" cy="4592.00" r="656.00" fill="rgb(0,0,0)" fill-opacity="0.502"/>
<polygon points="3908.89,3130.48 4798.21,3239.67 4763.11,3525.52 3873.79,3416.33" fill="rgb(185,255,255)" fill-opacity="0.502"/>
<polygon points="1187.70,1979.07 1535.65,2098.88 1452.30,2340.93 1104.35,2221.12" fill="rgb(68,122,255)" fill-opacity="0.502"/>
<polygon points="3887.07,349.29 3952.15,203.12 4112.93,274.71 4047.85,420.88" fill="rgb(76,131,255)" fill-opacity="0.502"/>
<polygon points="3290.99,3520.68 3443.60,3276.44 3525.01,3327.32 3372.40,3571.56" fill="rgb(78,128,246)" fill-opacity="0.502"/>
<polygon points="4968.38,1170.29 4632.91,1388.15 4519.62,1213.71 4855.09,995.85" fill="rgb(38,90,251)" fill-opacity="0.502"/>
<circle cx="6208.00" cy="3408.00" r="176.00" fill="rgb(52,135,185)" fill-opacity="0.502"/>
<circle cx="4288.00" cy="2224.00" r="80.00" fill="rgb(52,134,234)" fill-opacity="0.502"/>
<polygon points="3697.55,3047.27 3442.59,3212.84 3294.45,2984.73 3549.41,2819.16" fill="rgb(123,178,251)" fill-opacity="0.502"/>
<g transform="translate(3184.00 2944.00) rotate(31) scale(176.00 240.00)"><ellipse cx="0" cy="0" rx="1" ry="1" fill="rgb(137,188,255)" fill-opacity="0.502"/></g>
<polygon points="4256.90,1433.03 5056.78,1446.99 5055.10,1542.97 4255.22,1529.01" fill="rgb(19,81,247)" fill-opacity="0.502"/>
<g transform="translate(2160.00 1936.00) rotate(105) scale(208.00 64.00)"><ellipse cx="0" cy="0" rx="1" ry="1" fill="rgb(28,85,244)" fill-opacity="0.502"/></g>
<polygon points="5358.35,337.80 5432.51,461.23 5377.65,494.20 5303.49,370.77" fill="rgb(3,70,205)" fill-opacity="0.502"/>
<polygon points="2293.84,1481.40 2257.13,1428.97 2506.16,1254.60 2542.87,1307.03" fill="rgb(2,46,170)" fill-opacity="0.502"/>
<g transform="translate(1680.00 4416.00) rotate(169) scale(160.00 416.00)"><ellipse cx="0" cy="0" rx="1" ry="1" fill="rgb(18,47,117)" fill-opacity="0.502"/></g>
<polygon points="5166.83,557.60 5187.54,634.87 4801.17,738.40 4780.46,661.13" fill="rgb(82,167,250)" fill-opacity="0.502"/>
<polygon points="4872.66,2151.94 5253.79,2105.14 5271.34,2248.06 4890.21,2294.86" fill="rgb(82,149,243)" fill-opacity="0.502"/>
<circle cx="2256.00" cy="3392.00" r="80.00" fill="rgb(0,32,138)" fill-opacity="0.502"/>
<polygon points="3393.39,2271.85 3466.87,2794.71 3086.61,2848.15 3013.13,2325.29" fill="rgb(127,186,254)" fill-opacity="0.502"/>
<polygon points="6756.86,3031.58 6126.59,3142.72 6107.14,3032.42 6737.41,2921.28" fill="rgb(114,184,245)" fill-opacity="0.502"/>
<polygon points="4409.26,2128.52 4622.30,2197.74 4582.74,2319.48 4369.70,2250.26" fill="rgb(110,188,250)" fill-opacity="0.502"/>
<g transform="translate(6992.00 2048.00) rotate(1) scale(80.00 208.00)"><ellipse cx="0" cy="0" rx="1" ry="1" fill="rgb(92,160,247)" fill-opacity="0.502"/></g>
<polygon points="6458.46,1151.28 6236.64,1120.10 6245.54,1056.72 6467.36,1087.90" fill="rgb(34,126,151)" fill-opacity="0.502"/>
<g transform="translate(4816.00 480.00) rotate(85) scale(160.00 144.00)"><ellipse cx="0" cy="0" rx="1" ry="1" fill="rgb(70,122,251)" fill-opacity="0.502"/></g>
<polygon points="3017.70,4509.25 2877.99,3851.93 3222.30,3778.75 3362.01,4436.07" fill="rgb(120,179,255)" fill-opacity="0.502"/>
<polygon points="6297.32,2096.00 6079.40,1668.32 6150.68,1632.00 6368.60,2059.68" fill="rgb(44,125,216)" fill-opacity="0.502"/>
<circle cx="4160.00" cy="2048.00" r="128.00" fill="rgb(19,84,223)" fill-opacity="0.502"/>
<polygon points="6352.00,2976.00 6352.00,2592.00 6448.00,2592.00 6448.00,2976.00" fill="rgb(148,222,255)" fill-opacity="0.502"/>
<polygon points="2856.83,4421.93 3227.49,4610.79 3191.17,4682.07 2820.51,4493.21" fill="rgb(78,129,229)" fill-opacity="0.502"/>
<g transform="translate(2144.00 4368.00) rotate(21) scale(32.00 704.00)"><ellipse cx="0" cy="0" rx="1" ry="1" fill="rgb(29,71,150)" fill-opacity="0.502"/></g>
<g transform="translate(4048.00 3856.00) rotate(150) scale(176.00 496.00)"><ellipse cx="0" cy="0" rx="1" ry="1" fill="rgb(142,203,253)" fill-opacity="0.502"/></g>
<circle cx="6944.00" cy="128.00" r="80.00" fill="rgb(0,55,117)" fill-opacity="0.502"/>
<circle cx="3744.00" cy="528.00" r="144.00" fill="rgb(45,112,240)" fill-opacity="0.502"/>
<polygon points="1895.30,785.42 2306.18,720.35 2328.70,862.58 1917.82,927.65" fill="rgb(15,59,179)" fill-opacity="0.502"/>
<polygon points="1146.69,1968.79 1094.21,2029.17 949.31,1903.21 1001.79,1842.83" fill="rgb(0,2,12)" fill-opacity="0.502"/>
<polygon points="5022.68,4599.19 5374.60,4491.60 5393.32,4552.81 5041.40,4660.40" fill="rgb(48,118,220)" fill-opacity="0.502"/>
<circle cx="2704.00" cy="3488.00" r="112.00" fill="rgb(70,106,255)" fill-opacity="0.502"/>
<polygon points="4684.82,1750.58 4721.14,1679.30 4835.18,1737.42 4798.86,1808.70" fill="rgb(6,83,217)" fill-opacity="0.502"/>
<g transform="translate(6864.00 304.00) rotate(81) scale(80.00 96.00)"><ellipse cx="0" cy="0" rx="1" ry="1" fill="rgb(101,180,249)" fill-opacity="0.502"/></g>
<circle cx="6000.00" cy="0.00" r="112.00" fill="rgb(7,66,162)" fill-opacity="0.502"/>
<g transform="translate(5280.00 3376.00) rotate(76) scale(240.00 464.00)"><ellipse cx="0" cy="0" rx="1" ry="1" fill="rgb(190,253,254)" fill-opacity="0.502"/></g>
<polygon points="6923.24,4810.40 6838.63,4208.32 7028.76,4181.60 7113.37,4783.68" fill="rgb(77,137,230)" fill-opacity="0.502"/>
<polygon points="3777.41,4754.84 3621.58,4369.13 3710.59,4333.16 3866.42,4718.87" fill="rgb(48,113,241)" fill-opacity="0.502"/>
<g transform="translate(944.00 1072.00) rotate(14) scale(352.00 112.00)"><ellipse cx="0" cy="0" rx="1" ry="1" fill="rgb(0,0,2)" fill-opacity="0.502"/></g>
<polygon points="3641.14,2721.75 3307.62,2877.27 3158.86,2558.25 3492.38,2402.73" fill="rgb(139,195,253)" fill-opacity="0.502"/>
<circle cx="2784.00" cy="1040.00" r="64.00" fill="rgb(38,88,224)" fill-opacity="0.502"/>
<polygon points="2253.74,4261.18 2189.50,4169.43 2530.26,3930.82 2594.50,4022.57" fill="rgb(62,118,191)" fill-opacity="0.502"/>
<circle cx="6928.00" cy="3744.00" r="144.00" fill="rgb(61,141,223)" fill-opacity="0.502"/>
<circle cx="5120.00" cy="1296.00" r="64.00" fill="rgb(2,73,186)" fill-opacity="0.502"/>
<circle cx="272.00" cy="2320.00" r="816.00" fill="rgb(0,0,0)" fill-opacity="0.502"/>
</g>
</svg>