<?xml version="1.0" standalone="no"?>
<svg xmlns="http://www.w3.org/2000/svg" width="8192" height="4608" viewBox="0 0 8192 4608" style="overflow:hidden">
<defs>
<clipPath id="c"><rect x="0" y="0" width="8192" height="4608"/></clipPath>
</defs>
<rect width="8192" height="4608" fill="rgb(14,23,36)"/>
<g clip-path="url(#c)">
<g transform="translate(1872.00 3904.00) rotate(179) scale(784.00 1024.00)"><ellipse cx="0" cy="0" rx="1" ry="1" fill="rgb(122,224,255)" fill-opacity="0.502"/></g>
<circle cx="4288.00" cy="992.00" r="320.00" fill="rgb(36,100,189)" fill-opacity="0.502"/>
<polygon points="1135.47,1440.59 1219.18,243.51 2304.53,319.41 2220.82,1516.49" fill="rgb(127,180,236)" fill-opacity="0.502"/>
<g transform="translate(7184.00 2880.00) rotate(177) scale(1456.00 4592.00)"><ellipse cx="0" cy="0" rx="1" ry="1" fill="rgb(0,0,0)" fill-opacity="0.502"/></g>
<polygon points="2528.55,3355.42 2337.98,3378.81 2047.45,1012.58 2238.02,989.19" fill="rgb(148,216,255)" fill-opacity="0.502"/>
<circle cx="2736.00" cy="1792.00" r="304.00" fill="rgb(60,112,204)" fill-opacity="0.502"/>
<g transform="translate(2176.00 4320.00) rotate(262) scale(1312.00 496.00)"><ellipse cx="0" cy="0" rx="1" ry="1" fill="rgb(85,150,233)" fill-opacity="0.502"/></g>
<polygon points="3957.83,3163.74 3754.30,3290.92 3610.17,3060.26 3813.70,2933.08" fill="rgb(187,210,255)" fill-opacity="0.502"/>
<circle cx="3456.00" cy="1600.00" r="192.00" fill="rgb(62,140,255)" fill-opacity="0.502"/>
<circle cx="4208.00" cy="3920.00" r="848.00" fill="rgb(0,0,0)" fill-opacity="0.502"/>
<circle cx="3072.00" cy="2608.00" r="640.00" fill="rgb(0,0,0)" fill-opacity="0.502"/>
<g transform="translate(4224.00 560.00) rotate(94) scale(240.00 1968.00)"><ellipse cx="0" cy="0" rx="1" ry="1" fill="rgb(71,106,168)" fill-opacity="0.502"/></g>
<g transform="translate(256.00 3568.00) rotate(360) scale(848.00 4592.00)"><ellipse cx="0" cy="0" rx="1" ry="1" fill="rgb(0,0,0)" fill-opacity="0.502"/></g>
<circle cx="7312.00" cy="4096.00" r="1824.00" fill="rgb(0,0,0)" fill-opacity="0.502"/>
<circle cx="5456.00" cy="2624.00" r="624.00" fill="rgb(41,63,102)" fill-opacity="0.502"/>
<circle cx="3424.00" cy="992.00" r="528.00" fill="rgb(0,0,0)" fill-opacity="0.502"/>
<polygon points="5308.42,1928.29 5403.06,2415.18 4947.58,2503.71 4852.94,2016.82" fill="rgb(115,144,178)" fill-opacity="0.502"/>
<g transform="translate(3136.00 3856.00) rotate(259) scale(1888.00 512.00)"><ellipse cx="0" cy="0" rx="1" ry="1" fill="rgb(0,0,0)" fill-opacity="0.502"/></g>
<circle cx="7120.00" cy="352.00" r="1472.00" fill="rgb(0,0,0)" fill-opacity="0.502"/>
<g transform="translate(4240.00 1536.00) rotate(52) scale(496.00 176.00)"><ellipse cx="0" cy="0" rx="1" ry="1" fill="rgb(78,109,162)" fill-opacity="0.502"/></g>
<circle cx="4992.00" cy="1632.00" r="320.00" fill="rgb(60,98,146)" fill-opacity="0.502"/>
<circle cx="5248.00" cy="3888.00" r="208.00" fill="rgb(49,125,187)" fill-opacity="0.502"/>
<circle cx="1584.00" cy="2576.00" r="560.00" fill="rgb(0,0,12)" fill-opacity="0.502"/>
<circle cx="5280.00" cy="816.00" r="512.00" fill="rgb(42,76,121)" fill-opacity="0.502"/>
<g transform="translate(5232.00 4240.00) rotate(85) scale(544.00 128.00)"><ellipse cx="0" cy="0" rx="1" ry="1" fill="rgb(38,115,167)" fill-opacity="0.502"/></g>
<g transform="translate(3936.00 1280.00) rotate(332) scale(1056.00 144.00)"><ellipse cx="0" cy="0" rx="1" ry="1" fill="rgb(29,85,168)" fill-opacity="0.502"/></g>
<g transform="translate(4608.00 4240.00) rotate(209) scale(480.00 560.00)"><ellipse cx="0" cy="0" rx="1" ry="1" fill="rgb(0,0,0)" fill-opacity="0.502"/></g>
<g transform="translate(2576.00 848.00) rotate(122) scale(352.00 400.00)"><ellipse cx="0" cy="0" rx="1" ry="1" fill="rgb(0,0,0)" fill-opacity="0.502"/></g>
<circle cx="5760.00" cy="2112.00" r="384.00" fill="rgb(0,0,0)" fill-opacity="0.502"/>
<g transform="translate(4144.00 656.00) rotate(354) scale(976.00 144.00)"><ellipse cx="0" cy="0" rx="1" ry="1" fill="rgb(0,0,0)" fill-opacity="0.502"/></g>
<circle cx="416.00" cy="2320.00" r="1040.00" fill="rgb(0,0,0)" fill-opacity="0.502"/>
<g transform="translate(368.00 3136.00) rotate(94) scale(3840.00 704.00)"><ellipse cx="0" cy="0" rx="1" ry="1" fill="rgb(0,0,0)" fill-opacity="0.502"/></g>
<g transform="translate(1664.00 3552.00) rotate(210) scale(624.00 400.00)"><ellipse cx="0" cy="0" rx="1" ry="1" fill="rgb(79,140,208)" fill-opacity="0.502"/></g>
<g transform="translate(4304.00 2384.00) rotate(75) scale(112.00 160.00)"><ellipse cx="0" cy="0" rx="1" ry="1" fill="rgb(188,202,222)" fill-opacity="0.502"/></g>
<g transform="translate(2656.00 384.00) rotate(180) scale(1744.00 96.00)"><ellipse cx="0" cy="0" rx="1" ry="1" fill="rgb(155,214,255)" fill-opacity="0.502"/></g>
<g transform="translate(4752.00 3040.00) rotate(348) scale(400.00 816.00)"><ellipse cx="0" cy="0" rx="1" ry="1" fill="rgb(0,0,0)" fill-opacity="0.502"/></g>
<g transform="translate(2224.00 4288.00) rotate(65) scale(592.00 432.00)"><ellipse cx="0" cy="0" rx="1" ry="1" fill="rgb(71,131,181)" fill-opacity="0.502"/></g>
<g transform="translate(5616.00 752.00) rotate(118) scale(208.00 464.00)"><ellipse cx="0" cy="0" rx="1" ry="1" fill="rgb(11,28,60)" fill-opacity="0.502"/></g>
<g transform="translate(2320.00 3280.00) rotate(5) scale(144.00 768.00)"><ellipse cx="0" cy="0" rx="1" ry="1" fill="rgb(98,156,216)" fill-opacity="0.502"/></g>
<circle cx="3488.00" cy="2128.00" r="416.00" fill="rgb(0,0,2)" fill-opacity="0.502"/>
<circle cx="1424.00" cy="64.00" r="288.00" fill="rgb(0,0,0)" fill-opacity="0.502"/>
<circle cx="4208.00" cy="2800.00" r="288.00" fill="rgb(0,0,0)" fill-opacity="0.502"/>
<g transform="translate(5856.00 2864.00) rotate(1) scale(288.00 432.00)"><ellipse cx="0" cy="0" rx="1" ry="1" fill="rgb(21,63,115)" fill-opacity="0.502"/></g>
<circle cx="3120.00" cy="3680.00" r="544.00" fill="rgb(0,0,0)" fill-opacity="0.502"/>
<circle cx="1696.00" cy="1744.00" r="352.00" fill="rgb(0,0,27)" fill-opacity="0.502"/>
<g transform="translate(1792.00 1872.00) rotate(125) scale(496.00 400.00)"><ellipse cx="0" cy="0" rx="1" ry="1" fill="rgb(0,2,44)" fill-opacity="0.502"/></g>
<g transform="translate(3616.00 1008.00) rotate(130) scale(592.00 416.00)"><ellipse cx="0" cy="0" rx="1" ry="1" fill="rgb(0,0,17)" fill-opacity="0.502"/></g>
<polygon points="2354.62,4570.73 1155.35,4612.61 1117.38,3525.27 2316.65,3483.39" fill="rgb(60,122,182)" fill-opacity="0.502"/>
<g transform="translate(768.00 592.00) rotate(231) scale(112.00 448.00)"><ellipse cx="0" cy="0" rx="1" ry="1" fill="rgb(0,0,0)" fill-opacity="0.502"/></g>
<g transform="translate(1376.00 976.00) rotate(97) scale(688.00 272.00)"><ellipse cx="0" cy="0" rx="1" ry="1" fill="rgb(73,98,126)" fill-opacity="0.502"/></g>
<g transform="translate(4576.00 1664.00) rotate(271) scale(128.00 368.00)"><ellipse cx="0" cy="0" rx="1" ry="1" fill="rgb(113,134,170)" fill-opacity="0.502"/></g>
<circle cx="5280.00" cy="32.00" r="336.00" fill="rgb(0,0,0)" fill-opacity="0.502"/>
<polygon points="3771.76,1648.23 4028.71,1097.20 4420.24,1279.77 4163.29,1830.80" fill="rgb(0,24,60)" fill-opacity="0.502"/>
<polygon points="2240.62,758.05 2130.36,1142.56 1807.38,1049.95 1917.64,665.44" fill="rgb(95,129,167)" fill-opacity="0.502"/>
<polygon points="6819.74,2265.93 6911.42,1745.95 7116.26,1782.07 7024.58,2302.05" fill="rgb(45,79,181)" fill-opacity="0.502"/>
<polygon points="5684.26,3041.72 6015.03,3162.11 5675.74,4094.28 5344.97,3973.89" fill="rgb(4,18,39)" fill-opacity="0.502"/>
<circle cx="4256.00" cy="4224.00" r="832.00" fill="rgb(0,0,0)" fill-opacity="0.502"/>
<circle cx="3376.00" cy="64.00" r="272.00" fill="rgb(0,0,0)" fill-opacity="0.502"/>
<g transform="translate(5488.00 1456.00) rotate(59) scale(256.00 256.00)"><ellipse cx="0" cy="0" rx="1" ry="1" fill="rgb(0,0,0)" fill-opacity="0.502"/></g>
<g transform="translate(7120.00 2720.00) rotate(336) scale(1024.00 656.00)"><ellipse cx="0" cy="0" rx="1" ry="1" fill="rgb(0,0,0)" fill-opacity="0.502"/></g>
<g transform="translate(2960.00 944.00) rotate(61) scale(496.00 400.00)"><ellipse cx="0" cy="0" rx="1" ry="1" fill="rgb(0,0,0)" fill-opacity="0.502"/></g>
<polygon points="3945.43,3191.90 3770.10,3207.24 3750.57,2984.10 3925.90,2968.76" fill="rgb(157,166,203)" fill-opacity="0.502"/>
<circle cx="656.00" cy="176.00" r="480.00" fill="rgb(0,0,0)" fill-opacity="0.502"/>
<circle cx="3456.00" cy="2864.00" r="272.00" fill="rgb(0,4,21)" fill-opacity="0.502"/>
<g transform="translate(6080.00 1536.00) rotate(78) scale(880.00 48.00)"><ellipse cx="0" cy="0" rx="1" ry="1" fill="rgb(52,86,143)" fill-opacity="0.502"/></g>
<polygon points="4321.44,2855.86 4522.13,2333.05 5134.56,2568.14 4933.87,3090.95" fill="rgb(0,0,0)" fill-opacity="0.502"/>
<circle cx="3872.00" cy="48.00" r="288.00" fill="rgb(0,0,0)" fill-opacity="0.502"/>
<g transform="translate(1600.00 48.00) rotate(187) scale(1104.00 240.00)"><ellipse cx="0" cy="0" rx="1" ry="1" fill="rgb(0,0,0)" fill-opacity="0.502"/></g>
<g transform="translate(5248.00 2064.00) rotate(342) scale(144.00 1296.00)"><ellipse cx="0" cy="0" rx="1" ry="1" fill="rgb(34,53,88)" fill-opacity="0.502"/></g>
<polygon points="1784.00,504.00 1784.00,584.00 1080.00,584.00 1080.00,504.00" fill="rgb(0,0,0)" fill-opacity="0.502"/>
<circle cx="2032.00" cy="2704.00" r="320.00" fill="rgb(3,13,68)" fill-opacity="0.502"/>
<circle cx="1728.00" cy="2864.00" r="208.00" fill="rgb(0,0,21)" fill-opacity="0.502"/>
<circle cx="4976.00" cy="3456.00" r="288.00" fill="rgb(0,0,0)" fill-opacity="0.502"/>
<circle cx="4880.00" cy="416.00" r="80.00" fill="rgb(146,226,255)" fill-opacity="0.502"/>
<g transform="translate(2320.00 3328.00) rotate(354) scale(224.00 448.00)"><ellipse cx="0" cy="0" rx="1" ry="1" fill="rgb(95,151,210)" fill-opacity="0.502"/></g>
<g transform="translate(5232.00 1184.00) rotate(197) scale(96.00 208.00)"><ellipse cx="0" cy="0" rx="1" ry="1" fill="rgb(75,107,134)" fill-opacity="0.502"/></g>
<circle cx="6928.00" cy="912.00" r="944.00" fill="rgb(0,0,0)" fill-opacity="0.502"/>
<circle cx="4752.00" cy="3008.00" r="432.00" fill="rgb(3,0,0)" fill-opacity="0.502"/>
<g transform="translate(7856.00 1776.00) rotate(294) scale(752.00 784.00)"><ellipse cx="0" cy="0" rx="1" ry="1" fill="rgb(0,0,0)" fill-opacity="0.502"/></g>
<g transform="translate(5680.00 1568.00) rotate(299) scale(336.00 416.00)"><ellipse cx="0" cy="0" rx="1" ry="1" fill="rgb(0,0,0)" fill-opacity="0.502"/></g>
<circle cx="3040.00" cy="3440.00" r="496.00" fill="rgb(0,0,0)" fill-opacity="0.502"/>
<circle cx="1248.00" cy="3312.00" r="208.00" fill="rgb(71,129,184)" fill-opacity="0.502"/>
<polygon points="1520.63,1454.40 1499.26,1564.34 1279.37,1521.60 1300.74,1411.66" fill="rgb(0,0,0)" fill-opacity="0.502"/>
<polygon points="3606.10,1671.30 3035.71,1751.46 3017.90,1624.70 3588.29,1544.54" fill="rgb(89,163,255)" fill-opacity="0.502"/>
<g transform="translate(2320.00 672.00) rotate(147) scale(80.00 240.00)"><ellipse cx="0" cy="0" rx="1" ry="1" fill="rgb(0,0,0)" fill-opacity="0.502"/></g>
<polygon points="3982.15,2091.11 3854.25,1645.09 4161.85,1556.89 4289.75,2002.91" fill="rgb(0,0,0)" fill-opacity="0.502"/>
<polygon points="5646.64,1225.25 5576.42,864.02 5953.36,790.75 6023.58,1151.98" fill="rgb(27,47,75)" fill-opacity="0.502"/>
<circle cx="2592.00" cy="1472.00" r="224.00" fill="rgb(32,50,89)" fill-opacity="0.502"/>
<circle cx="3056.00" cy="80.00" r="256.00" fill="rgb(0,0,0)" fill-opacity="0.502"/>
<circle cx="6912.00" cy="4560.00" r="1440.00" fill="rgb(0,0,0)" fill-opacity="0.502"/>
<circle cx="5280.00" cy="656.00" r="320.00" fill="rgb(43,77,117)" fill-opacity="0.502"/>
<circle cx="2064.00" cy="2288.00" r="208.00" fill="rgb(9,22,74)" fill-opacity="0.502"/>
<g transform="translate(4432.00 416.00) rotate(180) scale(1296.00 80.00)"><ellipse cx="0" cy="0" rx="1" ry="1" fill="rgb(134,194,255)" fill-opacity="0.502"/></g>
<g transform="translate(5664.00 1856.00) rotate(354) scale(304.00 656.00)"><ellipse cx="0" cy="0" rx="1" ry="1" fill="rgb(0,0,0)" fill-opacity="0.502"/></g>
<polygon points="4513.30,1689.17 4415.82,1943.10 4206.70,1862.83 4304.18,1608.90" fill="rgb(138,139,160)" fill-opacity="0.502"/>
<polygon points="2064.00,0.00 5296.00,-0.00 5296.00,304.00 2064.00,304.00" fill="rgb(0,0,0)" fill-opacity="0.502"/>
<circle cx="1856.00" cy="3568.00" r="512.00" fill="rgb(81,138,189)" fill-opacity="0.502"/>
<polygon points="1282.93,1137.24 1360.73,1217.81 1165.07,1406.76 1087.27,1326.19" fill="rgb(143,164,193)" fill-opacity="0.502"/>
<polygon points="4893.60,2363.93 4994.44,2182.01 5106.40,2244.07 5005.56,2425.99" fill="rgb(193,240,255)" fill-opacity="0.502"/>
<polygon points="5443.44,332.64 5798.91,427.89 5612.56,1123.36 5257.09,1028.11" fill="rgb(22,47,85)" fill-opacity="0.502"/>
<circle cx="4464.00" cy="2656.00" r="48.00" fill="rgb(122,122,115)" fill-opacity="0.502"/>
<g transform="translate(2976.00 704.00) rotate(76) scale(192.00 496.00)"><ellipse cx="0" cy="0" rx="1" ry="1" fill="rgb(7,10,43)" fill-opacity="0.502"/></g>
<g transform="translate(5120.00 112.00) rotate(91) scale(240.00 4576.00)"><ellipse cx="0" cy="0" rx="1" ry="1" fill="rgb(0,0,0)" fill-opacity="0.502"/></g>
<polygon points="5973.73,3097.54 6071.38,2913.88 6170.27,2966.46 6072.62,3150.12" fill="rgb(66,99,118)" fill-opacity="0.502"/>
<g transform="translate(640.00 3264.00) rotate(177) scale(464.00 1440.00)"><ellipse cx="0" cy="0" rx="1" ry="1" fill="rgb(0,0,0)" fill-opacity="0.502"/></g>
<polygon points="2985.69,4846.75 2614.08,3926.99 3222.31,3681.25 3593.92,4601.01" fill="rgb(0,0,0)" fill-opacity="0.502"/>
<circle cx="1984.00" cy="1216.00" r="240.00" fill="rgb(59,107,149)" fill-opacity="0.502"/>
<circle cx="2544.00" cy="992.00" r="320.00" fill="rgb(0,0,0)" fill-opacity="0.502"/>
<g transform="translate(528.00 688.00) rotate(89) scale(8064.00 560.00)"><ellipse cx="0" cy="0" rx="1" ry="1" fill="rgb(0,0,0)" fill-opacity="0.502"/></g>
<g transform="translate(3520.00 608.00) rotate(172) scale(656.00 112.00)"><ellipse cx="0" cy="0" rx="1" ry="1" fill="rgb(16,23,72)" fill-opacity="0.502"/></g>
<circle cx="1424.00" cy="2624.00" r="496.00" fill="rgb(0,0,18)" fill-opacity="0.502"/>
<circle cx="2640.00" cy="1792.00" r="240.00" fill="rgb(64,96,151)" fill-opacity="0.502"/>
<polygon points="5946.09,2484.38 5996.41,2686.20 5685.91,2763.62 5635.59,2561.80" fill="rgb(41,90,157)" fill-opacity="0.502"/>
<g transform="translate(4528.00 1168.00) rotate(306) scale(448.00 80.00)"><ellipse cx="0" cy="0" rx="1" ry="1" fill="rgb(0,7,13)" fill-opacity="0.502"/></g>
<circle cx="5552.00" cy="0.00" r="368.00" fill="rgb(0,0,0)" fill-opacity="0.502"/>
<polygon points="4360.29,1961.50 4375.36,2249.10 4119.71,2262.50 4104.64,1974.90" fill="rgb(0,0,0)" fill-opacity="0.502"/>
<circle cx="5424.00" cy="3168.00" r="256.00" fill="rgb(31,40,66)" fill-opacity="0.502"/>
<g transform="translate(1568.00 4528.00) rotate(311) scale(288.00 544.00)"><ellipse cx="0" cy="0" rx="1" ry="1" fill="rgb(47,107,164)" fill-opacity="0.502"/></g>
<polygon points="4239.64,2400.45 4364.36,2371.65 4400.36,2527.55 4275.64,2556.35" fill="rgb(119,136,159)" fill-opacity="0.502"/>
<circle cx="7456.00" cy="3216.00" r="1216.00" fill="rgb(0,0,0)" fill-opacity="0.502"/>
<g transform="translate(4112.00 3472.00) rotate(303) scale(1472.00 208.00)"><ellipse cx="0" cy="0" rx="1" ry="1" fill="rgb(0,0,0)" fill-opacity="0.502"/></g>
<circle cx="3040.00" cy="4320.00" r="384.00" fill="rgb(0,0,0)" fill-opacity="0.502"/>
<polygon points="1736.12,817.49 1813.92,898.05 1767.88,942.51 1690.08,861.95" fill="rgb(0,0,0)" fill-opacity="0.502"/>
<polygon points="2385.73,1433.87 3089.62,1446.16 3086.27,1638.13 2382.38,1625.84" fill="rgb(4,16,42)" fill-opacity="0.502"/>
<g transform="translate(6256.00 432.00) rotate(295) scale(528.00 496.00)"><ellipse cx="0" cy="0" rx="1" ry="1" fill="rgb(0,0,0)" fill-opacity="0.502"/></g>
<g transform="translate(2800.00 0.00) rotate(97) scale(320.00 400.00)"><ellipse cx="0" cy="0" rx="1" ry="1" fill="rgb(0,0,0)" fill-opacity="0.502"/></g>
<polygon points="1369.10,1565.89 1366.59,1613.83 1142.90,1602.11 1145.41,1554.17" fill="rgb(211,207,223)" fill-opacity="0.502"/>
<polygon points="2510.30,2086.14 2460.61,1900.68 2769.70,1817.86 2819.39,2003.32" fill="rgb(63,101,159)" fill-opacity="0.502"/>
<circle cx="1776.00" cy="2224.00" r="320.00" fill="rgb(0,0,33)" fill-opacity="0.502"/>
<polygon points="3925.44,1369.16 3700.09,1792.98 3530.56,1702.84 3755.91,1279.02" fill="rgb(7,52,132)" fill-opacity="0.502"/>
<polygon points="2824.44,1279.77 2778.42,753.78 3527.56,688.23 3573.58,1214.22" fill="rgb(0,0,0)" fill-opacity="0.502"/>
<circle cx="4000.00" cy="3040.00" r="48.00" fill="rgb(176,168,172)" fill-opacity="0.502"/>
<g transform="translate(4496.00 3824.00) rotate(189) scale(576.00 1056.00)"><ellipse cx="0" cy="0" rx="1" ry="1" fill="rgb(1,0,0)" fill-opacity="0.502"/></g>
<polygon points="2091.14,1027.36 2122.40,1118.13 1940.86,1180.64 1909.60,1089.87" fill="rgb(8,37,60)" fill-opacity="0.502"/>
<polygon points="2105.06,2841.33 2117.34,3016.91 1462.94,3062.67 1450.66,2887.09" fill="rgb(0,3,41)" fill-opacity="0.502"/>
<circle cx="4656.00" cy="1840.00" r="128.00" fill="rgb(0,0,6)" fill-opacity="0.502"/>
<circle cx="2336.00" cy="4576.00" r="368.00" fill="rgb(74,135,185)" fill-opacity="0.502"/>
<polygon points="2253.56,865.70 2192.38,600.67 2722.44,478.30 2783.62,743.33" fill="rgb(2,3,29)" fill-opacity="0.502"/>
<g transform="translate(6208.00 2656.00) rotate(316) scale(400.00 96.00)"><ellipse cx="0" cy="0" rx="1" ry="1" fill="rgb(2,0,2)" fill-opacity="0.502"/></g>
<circle cx="2256.00" cy="1712.00" r="64.00" fill="rgb(118,183,245)" fill-opacity="0.502"/>
<g transform="translate(1424.00 1312.00) rotate(195) scale(336.00 96.00)"><ellipse cx="0" cy="0" rx="1" ry="1" fill="rgb(104,137,167)" fill-opacity="0.502"/></g>
<polygon points="2438.65,3356.94 2485.23,3345.32 2601.35,3811.06 2554.77,3822.68" fill="rgb(141,187,255)" fill-opacity="0.502"/>
<g transform="translate(5312.00 4320.00) rotate(85) scale(624.00 128.00)"><ellipse cx="0" cy="0" rx="1" ry="1" fill="rgb(21,83,127)" fill-opacity="0.502"/></g>
<polygon points="5235.14,2522.93 5151.34,2230.71 5212.86,2213.07 5296.66,2505.29" fill="rgb(0,0,0)" fill-opacity="0.502"/>
<circle cx="7776.00" cy="1296.00" r="864.00" fill="rgb(0,0,0)" fill-opacity="0.502"/>
<polygon points="2286.18,1629.61 2057.93,1703.77 1889.82,1186.39 2118.07,1112.23" fill="rgb(76,122,161)" fill-opacity="0.502"/>
<polygon points="4208.31,1136.33 4223.95,688.60 4655.69,703.67 4640.05,1151.40" fill="rgb(33,82,142)" fill-opacity="0.502"/>
<g transform="translate(4016.00 1280.00) rotate(118) scale(320.00 192.00)"><ellipse cx="0" cy="0" rx="1" ry="1" fill="rgb(18,64,125)" fill-opacity="0.502"/></g>
<polygon points="6451.50,2207.39 6639.39,1928.83 7196.50,2304.61 7008.61,2583.17" fill="rgb(0,0,0)" fill-opacity="0.502"/>
<g transform="translate(3856.00 1904.00) rotate(135) scale(416.00 272.00)"><ellipse cx="0" cy="0" rx="1" ry="1" fill="rgb(0,4,25)" fill-opacity="0.502"/></g>
<polygon points="2305.12,544.34 1409.67,575.61 1406.88,495.66 2302.33,464.39" fill="rgb(0,0,0)" fill-opacity="0.502"/>
<polygon points="4804.50,2929.39 5058.43,3026.86 5035.50,3086.61 4781.57,2989.14" fill="rgb(56,56,52)" fill-opacity="0.502"/>
<g transform="translate(2064.00 928.00) rotate(0) scale(176.00 144.00)"><ellipse cx="0" cy="0" rx="1" ry="1" fill="rgb(104,140,181)" fill-opacity="0.502"/></g>
<circle cx="3520.00" cy="2224.00" r="192.00" fill="rgb(7,18,42)" fill-opacity="0.502"/>
<polygon points="3397.11,3165.14 3887.01,3242.74 3786.89,3874.86 3296.99,3797.26" fill="rgb(2,9,20)" fill-opacity="0.502"/>
<g transform="translate(4256.00 2848.00) rotate(20) scale(272.00 288.00)"><ellipse cx="0" cy="0" rx="1" ry="1" fill="rgb(0,0,0)" fill-opacity="0.502"/></g>
<circle cx="6640.00" cy="1520.00" r="464.00" fill="rgb(0,0,0)" fill-opacity="0.502"/>
<polygon points="1246.73,941.08 1366.76,812.36 1425.27,866.92 1305.24,995.64" fill="rgb(0,0,12)" fill-opacity="0.502"/>
<g transform="translate(6128.00 2368.00) rotate(72) scale(192.00 128.00)"><ellipse cx="0" cy="0" rx="1" ry="1" fill="rgb(13,32,73)" fill-opacity="0.502"/></g>
<polygon points="2984.06,1779.13 2940.87,1592.06 3127.94,1548.87 3171.13,1735.94" fill="rgb(24,67,145)" fill-opacity="0.502"/>
<g transform="translate(3696.00 3536.00) rotate(109) scale(320.00 32.00)"><ellipse cx="0" cy="0" rx="1" ry="1" fill="rgb(27,47,71)" fill-opacity="0.502"/></g>
<g transform="translate(2656.00 608.00) rotate(276) scale(128.00 384.00)"><ellipse cx="0" cy="0" rx="1" ry="1" fill="rgb(5,8,43)" fill-opacity="0.502"/></g>
<polygon points="4382.55,1960.68 4772.30,1870.70 4977.45,2759.32 4587.70,2849.30" fill="rgb(0,0,0)" fill-opacity="0.502"/>
<polygon points="2016.10,909.22 1894.39,648.21 2111.90,546.78 2233.61,807.79" fill="rgb(102,130,166)" fill-opacity="0.502"/>
<polygon points="5986.14,2490.47 5544.85,2145.70 5741.86,1893.53 6183.15,2238.30" fill="rgb(0,0,10)" fill-opacity="0.502"/>
<circle cx="2192.00" cy="4496.00" r="496.00" fill="rgb(71,131,181)" fill-opacity="0.502"/>
<circle cx="4192.00" cy="624.00" r="144.00" fill="rgb(0,0,33)" fill-opacity="0.502"/>
<circle cx="1216.00" cy="48.00" r="256.00" fill="rgb(0,0,0)" fill-opacity="0.502"/>
<polygon points="1105.46,3864.11 1463.61,3622.54 1982.54,4391.89 1624.39,4633.46" fill="rgb(61,122,177)" fill-opacity="0.502"/>
<g transform="translate(1632.00 1808.00) rotate(79) scale(384.00 320.00)"><ellipse cx="0" cy="0" rx="1" ry="1" fill="rgb(0,0,24)" fill-opacity="0.502"/></g>
<circle cx="2064.00" cy="2000.00" r="176.00" fill="rgb(17,34,75)" fill-opacity="0.502"/>
<circle cx="4832.00" cy="592.00" r="128.00" fill="rgb(0,0,6)" fill-opacity="0.502"/>
<polygon points="4896.00,576.00 4896.00,496.00 5232.00,496.00 5232.00,576.00" fill="rgb(0,0,3)" fill-opacity="0.502"/>
<g transform="translate(3648.00 2688.00) rotate(149) scale(128.00 288.00)"><ellipse cx="0" cy="0" rx="1" ry="1" fill="rgb(0,0,0)" fill-opacity="0.502"/></g>
<g transform="translate(1088.00 1632.00) rotate(188) scale(144.00 176.00)"><ellipse cx="0" cy="0" rx="1" ry="1" fill="rgb(14,15,19)" fill-opacity="0.502"/></g>
<g transform="translate(5216.00 2928.00) rotate(349) scale(32.00 912.00)"><ellipse cx="0" cy="0" rx="1" ry="1" fill="rgb(125,139,177)" fill-opacity="0.502"/></g>
<circle cx="6528.00" cy="1776.00" r="336.00" fill="rgb(0,0,0)" fill-opacity="0.502"/>
<g transform="translate(5312.00 2992.00) rotate(79) scale(1792.00 80.00)"><ellipse cx="0" cy="0" rx="1" ry="1" fill="rgb(0,0,25)" fill-opacity="0.502"/></g>
<circle cx="5888.00" cy="4320.00" r="432.00" fill="rgb(0,0,0)" fill-opacity="0.502"/>
<circle cx="464.00" cy="496.00" r="640.00" fill="rgb(0,0,0)" fill-opacity="0.502"/>
<circle cx="2736.00" cy="2416.00" r="304.00" fill="rgb(0,0,0)" fill-opacity="0.502"/>
<g transform="translate(4912.00 1280.00) rotate(169) scale(32.00 656.00)"><ellipse cx="0" cy="0" rx="1" ry="1" fill="rgb(87,118,161)" fill-opacity="0.502"/></g>
<polygon points="3760.00,1520.00 3760.00,1584.00 3408.00,1584.00 3408.00,1520.00" fill="rgb(64,125,228)" fill-opacity="0.502"/>
<g transform="translate(5424.00 2704.00) rotate(349) scale(16.00 1408.00)"><ellipse cx="0" cy="0" rx="1" ry="1" fill="rgb(108,135,158)" fill-opacity="0.502"/></g>
<polygon points="2472.36,3012.72 2377.08,3024.42 2199.64,1579.28 2294.92,1567.58" fill="rgb(144,195,255)" fill-opacity="0.502"/>
<circle cx="1008.00" cy="2112.00" r="384.00" fill="rgb(0,0,2)" fill-opacity="0.502"/>
<polygon points="6841.45,2037.93 6855.40,1878.54 7078.55,1898.07 7064.60,2057.46" fill="rgb(89,162,255)" fill-opacity="0.502"/>
<g transform="translate(4448.00 560.00) rotate(272) scale(80.00 496.00)"><ellipse cx="0" cy="0" rx="1" ry="1" fill="rgb(0,0,6)" fill-opacity="0.502"/></g>
<g transform="translate(5872.00 3856.00) rotate(115) scale(384.00 528.00)"><ellipse cx="0" cy="0" rx="1" ry="1" fill="rgb(1,3,8)" fill-opacity="0.502"/></g>
<circle cx="6496.00" cy="2256.00" r="256.00" fill="rgb(11,0,1)" fill-opacity="0.502"/>
<circle cx="1568.00" cy="2176.00" r="512.00" fill="rgb(0,0,28)" fill-opacity="0.502"/>
<polygon points="6005.14,2612.66 5964.87,2562.93 6250.86,2331.34 6291.13,2381.07" fill="rgb(20,60,122)" fill-opacity="0.502"/>
<g transform="translate(3952.00 1168.00) rotate(300) scale(576.00 80.00)"><ellipse cx="0" cy="0" rx="1" ry="1" fill="rgb(6,37,82)" fill-opacity="0.502"/></g>
<g transform="translate(3168.00 3888.00) rotate(51) scale(848.00 368.00)"><ellipse cx="0" cy="0" rx="1" ry="1" fill="rgb(0,0,0)" fill-opacity="0.502"/></g>
<polygon points="5078.87,1782.44 4922.52,1046.87 4985.13,1033.56 5141.48,1769.13" fill="rgb(0,0,13)" fill-opacity="0.502"/>
<circle cx="5024.00" cy="2688.00" r="112.00" fill="rgb(0,0,0)" fill-opacity="0.502"/>
<g transform="translate(5792.00 128.00) rotate(355) scale(240.00 320.00)"><ellipse cx="0" cy="0" rx="1" ry="1" fill="rgb(0,0,0)" fill-opacity="0.502"/></g>
<polygon points="4839.22,4340.88 5014.62,4262.79 5144.78,4555.12 4969.38,4633.21" fill="rgb(0,0,0)" fill-opacity="0.502"/>
<circle cx="2016.00" cy="3552.00" r="480.00" fill="rgb(79,139,192)" fill-opacity="0.502"/>
<polygon points="4693.44,325.25 4698.46,469.16 4538.56,474.75 4533.54,330.84" fill="rgb(111,163,227)" fill-opacity="0.502"/>
<polygon points="4987.33,2329.76 4907.05,2120.64 4996.67,2086.24 5076.95,2295.36" fill="rgb(170,221,242)" fill-opacity="0.502"/>
<polygon points="2433.79,4030.45 2447.17,3903.15 2622.21,3921.55 2608.83,4048.85" fill="rgb(105,158,223)" fill-opacity="0.502"/>
<polygon points="5231.25,4923.92 5090.81,4201.45 5200.75,4180.08 5341.19,4902.55" fill="rgb(40,87,116)" fill-opacity="0.502"/>
<circle cx="6080.00" cy="4176.00" r="448.00" fill="rgb(0,0,0)" fill-opacity="0.502"/>
<g transform="translate(5152.00 1312.00) rotate(167) scale(16.00 768.00)"><ellipse cx="0" cy="0" rx="1" ry="1" fill="rgb(117,143,175)" fill-opacity="0.502"/></g>
<g transform="translate(2208.00 2784.00) rotate(190) scale(112.00 256.00)"><ellipse cx="0" cy="0" rx="1" ry="1" fill="rgb(34,65,94)" fill-opacity="0.502"/></g>
<circle cx="3264.00" cy="1904.00" r="192.00" fill="rgb(0,0,0)" fill-opacity="0.502"/>
<circle cx="928.00" cy="2512.00" r="416.00" fill="rgb(0,0,0)" fill-opacity="0.502"/>
<circle cx="5712.00" cy="3280.00" r="256.00" fill="rgb(8,32,58)" fill-opacity="0.502"/>
<polygon points="2125.99,2007.69 2177.84,2500.97 2146.01,2504.31 2094.16,2011.03" fill="rgb(75,118,157)" fill-opacity="0.502"/>
<g transform="translate(1168.00 944.00) rotate(89) scale(544.00 64.00)"><ellipse cx="0" cy="0" rx="1" ry="1" fill="rgb(95,118,145)" fill-opacity="0.502"/></g>
<circle cx="4192.00" cy="2352.00" r="64.00" fill="rgb(115,129,139)" fill-opacity="0.502"/>
<circle cx="3008.00" cy="2304.00" r="304.00" fill="rgb(0,0,0)" fill-opacity="0.502"/>
<g transform="translate(6672.00 1840.00) rotate(325) scale(464.00 208.00)"><ellipse cx="0" cy="0" rx="1" ry="1" fill="rgb(0,0,0)" fill-opacity="0.502"/></g>
<polygon points="5287.61,499.27 5762.94,432.47 5816.39,812.73 5341.06,879.53" fill="rgb(20,39,71)" fill-opacity="0.502"/>
<polygon points="2087.96,2136.63 2118.64,2487.29 1752.04,2519.37 1721.36,2168.71" fill="rgb(0,1,46)" fill-opacity="0.502"/>
<g transform="translate(7984.00 896.00) rotate(340) scale(1344.00 1120.00)"><ellipse cx="0" cy="0" rx="1" ry="1" fill="rgb(0,0,0)" fill-opacity="0.502"/></g>
<circle cx="912.00" cy="2752.00" r="368.00" fill="rgb(0,0,0)" fill-opacity="0.502"/>
<polygon points="2080.71,1907.73 1945.51,1653.44 2143.29,1548.27 2278.49,1802.56" fill="rgb(31,53,88)" fill-opacity="0.502"/>
<circle cx="4448.00" cy="1360.00" r="176.00" fill="rgb(0,0,0)" fill-opacity="0.502"/>
<circle cx="6368.00" cy="384.00" r="512.00" fill="rgb(0,0,0)" fill-opacity="0.502"/>
<polygon points="3296.32,690.59 2528.79,717.39 2527.68,685.41 3295.21,658.61" fill="rgb(69,118,170)" fill-opacity="0.502"/>
<circle cx="4720.00" cy="80.00" r="256.00" fill="rgb(0,0,0)" fill-opacity="0.502"/>
<circle cx="2864.00" cy="2976.00" r="368.00" fill="rgb(0,0,0)" fill-opacity="0.502"/>
<g transform="translate(2496.00 4592.00) rotate(6) scale(176.00 496.00)"><ellipse cx="0" cy="0" rx="1" ry="1" fill="rgb(87,142,197)" fill-opacity="0.502"/></g>
<circle cx="1200.00" cy="384.00" r="96.00" fill="rgb(110,143,202)" fill-opacity="0.502"/>
<g transform="translate(240.00 4176.00) rotate(84) scale(1600.00 864.00)"><ellipse cx="0" cy="0" rx="1" ry="1" fill="rgb(0,0,0)" fill-opacity="0.502"/></g>
<polygon points="2736.98,1359.93 2664.35,1502.50 2479.02,1408.07 2551.65,1265.50" fill="rgb(43,68,114)" fill-opacity="0.502"/>
<g transform="translate(1008.00 1920.00) rotate(0) scale(176.00 304.00)"><ellipse cx="0" cy="0" rx="1" ry="1" fill="rgb(0,0,0)" fill-opacity="0.502"/></g>
<polygon points="4650.39,693.78 5018.59,537.49 5093.61,714.22 4725.41,870.51" fill="rgb(21,38,68)" fill-opacity="0.502"/>
<circle cx="2864.00" cy="4000.00" r="240.00" fill="rgb(0,0,0)" fill-opacity="0.502"/>
<circle cx="7664.00" cy="2976.00" r="1088.00" fill="rgb(0,0,0)" fill-opacity="0.502"/>
<polygon points="2066.45,1114.13 2077.06,1417.95 1277.55,1445.87 1266.94,1142.05" fill="rgb(79,126,165)" fill-opacity="0.502"/>
<circle cx="1184.00" cy="1648.00" r="64.00" fill="rgb(91,101,128)" fill-opacity="0.502"/>
<polygon points="4935.56,3070.35 4464.44,2798.35 4536.44,2673.65 5007.56,2945.65" fill="rgb(0,0,0)" fill-opacity="0.502"/>
<polygon points="5265.01,1198.45 5297.55,993.01 5502.99,1025.55 5470.45,1230.99" fill="rgb(47,81,117)" fill-opacity="0.502"/>
<circle cx="5312.00" cy="784.00" r="176.00" fill="rgb(32,70,117)" fill-opacity="0.502"/>
<circle cx="4672.00" cy="1232.00" r="176.00" fill="rgb(0,0,0)" fill-opacity="0.502"/>
<g transform="translate(4752.00 3168.00) rotate(269) scale(336.00 160.00)"><ellipse cx="0" cy="0" rx="1" ry="1" fill="rgb(11,12,11)" fill-opacity="0.502"/></g>
<polygon points="4641.90,1679.36 4823.15,1455.54 5022.10,1616.64 4840.85,1840.46" fill="rgb(37,91,135)" fill-opacity="0.502"/>
<polygon points="5104.00,2512.00 5104.00,2816.00 4960.00,2816.00 4960.00,2512.00" fill="rgb(0,0,0)" fill-opacity="0.502"/>
<g transform="translate(6128.00 3392.00) rotate(333) scale(112.00 304.00)"><ellipse cx="0" cy="0" rx="1" ry="1" fill="rgb(0,0,0)" fill-opacity="0.502"/></g>
<g transform="translate(2240.00 4592.00) rotate(126) scale(352.00 336.00)"><ellipse cx="0" cy="0" rx="1" ry="1" fill="rgb(61,122,173)" fill-opacity="0.502"/></g>
<polygon points="3854.74,2469.17 3466.47,2658.54 3361.26,2442.83 3749.53,2253.46" fill="rgb(0,0,4)" fill-opacity="0.502"/>
<circle cx="1216.00" cy="976.00" r="112.00" fill="rgb(116,142,168)" fill-opacity="0.502"/>
<polygon points="6817.41,2081.38 6814.62,1921.41 6974.59,1918.62 6977.38,2078.59" fill="rgb(55,105,255)" fill-opacity="0.502"/>
<g transform="translate(3920.00 3072.00) rotate(21) scale(16.00 112.00)"><ellipse cx="0" cy="0" rx="1" ry="1" fill="rgb(142,134,160)" fill-opacity="0.502"/></g>
<circle cx="3424.00" cy="4528.00" r="720.00" fill="rgb(0,0,0)" fill-opacity="0.502"/>
<g transform="translate(1424.00 2768.00) rotate(107) scale(384.00 192.00)"><ellipse cx="0" cy="0" rx="1" ry="1" fill="rgb(0,0,22)" fill-opacity="0.502"/></g>
<circle cx="3360.00" cy="416.00" r="80.00" fill="rgb(131,176,251)" fill-opacity="0.502"/>
<circle cx="7232.00" cy="4080.00" r="1296.00" fill="rgb(0,0,0)" fill-opacity="0.502"/>
<circle cx="2768.00" cy="1376.00" r="64.00" fill="rgb(53,66,121)" fill-opacity="0.502"/>
<polygon points="4397.74,1532.76 4386.02,1756.45 4210.26,1747.24 4221.98,1523.55" fill="rgb(117,126,140)" fill-opacity="0.502"/>
<polygon points="3883.37,2928.71 3938.93,3243.84 3828.63,3263.29 3773.07,2948.16" fill="rgb(121,134,166)" fill-opacity="0.502"/>
<polygon points="1427.97,1950.71 1313.29,1651.97 1612.03,1537.29 1726.71,1836.03" fill="rgb(2,6,42)" fill-opacity="0.502"/>
<polygon points="2067.00,1990.52 2077.05,1702.69 2157.00,1705.48 2146.95,1993.31" fill="rgb(43,65,97)" fill-opacity="0.502"/>
<polygon points="3395.93,970.11 3612.24,672.39 3884.07,869.89 3667.76,1167.61" fill="rgb(0,0,0)" fill-opacity="0.502"/>
<polygon points="3767.48,1127.09 3011.91,1512.08 2808.52,1112.91 3564.09,727.92" fill="rgb(0,0,0)" fill-opacity="0.502"/>
<g transform="translate(3760.00 1488.00) rotate(113) scale(96.00 208.00)"><ellipse cx="0" cy="0" rx="1" ry="1" fill="rgb(10,54,123)" fill-opacity="0.502"/></g>
<circle cx="2976.00" cy="1888.00" r="112.00" fill="rgb(5,47,131)" fill-opacity="0.502"/>
<polygon points="2452.64,2122.86 2747.41,1591.09 2859.36,1653.14 2564.59,2184.91" fill="rgb(55,85,139)" fill-opacity="0.502"/>
<polygon points="805.92,4356.56 1063.10,4268.00 1162.08,4555.44 904.90,4644.00" fill="rgb(0,0,0)" fill-opacity="0.502"/>
<circle cx="5664.00" cy="2688.00" r="176.00" fill="rgb(42,77,119)" fill-opacity="0.502"/>
<circle cx="4288.00" cy="2896.00" r="272.00" fill="rgb(0,0,0)" fill-opacity="0.502"/>
<polygon points="1903.45,545.35 1934.65,799.45 1680.55,830.65 1649.35,576.55" fill="rgb(96,127,158)" fill-opacity="0.502"/>
<polygon points="3388.25,1144.67 3552.16,1272.73 3315.75,1575.33 3151.84,1447.27" fill="rgb(0,7,22)" fill-opacity="0.502"/>
<polygon points="1482.06,3856.67 1262.96,3903.24 1109.94,3183.33 1329.04,3136.76" fill="rgb(71,128,184)" fill-opacity="0.502"/>
<polygon points="5607.59,3470.63 5876.94,3508.48 5832.41,3825.37 5563.06,3787.52" fill="rgb(8,22,35)" fill-opacity="0.502"/>
<g transform="translate(2912.00 1792.00) rotate(180) scale(96.00 128.00)"><ellipse cx="0" cy="0" rx="1" ry="1" fill="rgb(9,66,145)" fill-opacity="0.502"/></g>
<polygon points="4544.30,2373.68 4528.67,2150.22 4927.70,2122.32 4943.33,2345.78" fill="rgb(1,0,0)" fill-opacity="0.502"/>
<polygon points="4486.15,4730.33 4654.94,4332.67 4713.85,4357.67 4545.06,4755.33" fill="rgb(30,30,29)" fill-opacity="0.502"/>
<polygon points="5277.88,1103.12 5233.34,1420.01 5154.12,1408.88 5198.66,1091.99" fill="rgb(55,79,107)" fill-opacity="0.502"/>
<circle cx="5056.00" cy="3328.00" r="176.00" fill="rgb(0,0,0)" fill-opacity="0.502"/>
<g transform="translate(5360.00 3648.00) rotate(218) scale(32.00 112.00)"><ellipse cx="0" cy="0" rx="1" ry="1" fill="rgb(20,33,57)" fill-opacity="0.502"/></g>
<polygon points="5107.20,587.62 5101.62,507.82 5436.80,484.38 5442.38,564.18" fill="rgb(0,0,3)" fill-opacity="0.502"/>
<g transform="translate(6112.00 3136.00) rotate(123) scale(32.00 160.00)"><ellipse cx="0" cy="0" rx="1" ry="1" fill="rgb(58,62,71)" fill-opacity="0.502"/></g>
<circle cx="3552.00" cy="656.00" r="48.00" fill="rgb(48,76,105)" fill-opacity="0.502"/>
<g transform="translate(896.00 1392.00) rotate(359) scale(208.00 944.00)"><ellipse cx="0" cy="0" rx="1" ry="1" fill="rgb(0,0,0)" fill-opacity="0.502"/></g>
<g transform="translate(1296.00 4176.00) rotate(172) scale(192.00 224.00)"><ellipse cx="0" cy="0" rx="1" ry="1" fill="rgb(53,109,165)" fill-opacity="0.502"/></g>
<polygon points="4549.80,1757.81 4750.71,1811.64 4618.20,2306.19 4417.29,2252.36" fill="rgb(0,0,4)" fill-opacity="0.502"/>
<polygon points="4933.75,2298.66 4954.67,2059.58 5066.25,2069.34 5045.33,2308.42" fill="rgb(149,197,225)" fill-opacity="0.502"/>
<circle cx="4704.00" cy="1552.00" r="64.00" fill="rgb(4,17,29)" fill-opacity="0.502"/>
<circle cx="3216.00" cy="1664.00" r="64.00" fill="rgb(95,161,255)" fill-opacity="0.502"/>
<circle cx="1712.00" cy="2000.00" r="368.00" fill="rgb(0,0,32)" fill-opacity="0.502"/>
<polygon points="2586.02,1224.92 2300.82,1265.00 2213.98,647.08 2499.18,607.00" fill="rgb(0,0,5)" fill-opacity="0.502"/>
<polygon points="5154.01,2704.55 5090.80,3001.90 4589.99,2895.45 4653.20,2598.10" fill="rgb(0,0,0)" fill-opacity="0.502"/>
<g transform="translate(1344.00 528.00) rotate(272) scale(48.00 352.00)"><ellipse cx="0" cy="0" rx="1" ry="1" fill="rgb(0,0,7)" fill-opacity="0.502"/></g>
<polygon points="4447.78,825.13 4541.40,912.42 4192.22,1286.87 4098.60,1199.58" fill="rgb(48,95,164)" fill-opacity="0.502"/>
<polygon points="6059.25,202.91 5888.59,510.77 5524.75,309.09 5695.41,1.23" fill="rgb(0,0,0)" fill-opacity="0.502"/>
<polygon points="1776.18,2429.18 1951.58,2351.09 2159.82,2818.82 1984.42,2896.91" fill="rgb(0,0,41)" fill-opacity="0.502"/>
<polygon points="3509.34,1750.91 3514.64,2054.86 3386.66,2057.09 3381.36,1753.14" fill="rgb(0,0,0)" fill-opacity="0.502"/>
<circle cx="3280.00" cy="0.00" r="320.00" fill="rgb(0,0,0)" fill-opacity="0.502"/>
<g transform="translate(1392.00 1968.00) rotate(342) scale(80.00 304.00)"><ellipse cx="0" cy="0" rx="1" ry="1" fill="rgb(0,0,21)" fill-opacity="0.502"/></g>
<g transform="translate(3424.00 3360.00) rotate(227) scale(192.00 288.00)"><ellipse cx="0" cy="0" rx="1" ry="1" fill="rgb(0,0,0)" fill-opacity="0.502"/></g>
<circle cx="1296.00" cy="1120.00" r="48.00" fill="rgb(0,0,1)" fill-opacity="0.502"/>
<g transform="translate(3360.00 2784.00) rotate(244) scale(352.00 80.00)"><ellipse cx="0" cy="0" rx="1" ry="1" fill="rgb(9,22,46)" fill-opacity="0.502"/></g>
<g transform="translate(2496.00 3296.00) rotate(172) scale(32.00 1168.00)"><ellipse cx="0" cy="0" rx="1" ry="1" fill="rgb(142,181,236)" fill-opacity="0.502"/></g>
<polygon points="4351.67,1528.40 4494.88,1513.35 4528.33,1831.60 4385.12,1846.65" fill="rgb(113,120,154)" fill-opacity="0.502"/>
<polygon points="3830.76,2776.97 3892.86,2792.45 3881.24,2839.03 3819.14,2823.55" fill="rgb(126,121,147)" fill-opacity="0.502"/>
<circle cx="4976.00" cy="3040.00" r="48.00" fill="rgb(146,145,136)" fill-opacity="0.502"/>
<polygon points="5198.85,440.72 5186.43,487.09 4769.15,375.28 4781.57,328.91" fill="rgb(74,127,181)" fill-opacity="0.502"/>
<polygon points="3879.93,2097.82 3975.87,2094.47 3992.07,2558.18 3896.13,2561.53" fill="rgb(5,45,76)" fill-opacity="0.502"/>
<polygon points="3918.68,619.07 3852.75,728.78 3633.32,596.93 3699.25,487.22" fill="rgb(8,12,67)" fill-opacity="0.502"/>
<circle cx="1456.00" cy="3904.00" r="352.00" fill="rgb(65,124,177)" fill-opacity="0.502"/>
<g transform="translate(880.00 3328.00) rotate(3) scale(208.00 1872.00)"><ellipse cx="0" cy="0" rx="1" ry="1" fill="rgb(0,0,0)" fill-opacity="0.502"/></g>
<circle cx="2768.00" cy="1904.00" r="144.00" fill="rgb(47,89,158)" fill-opacity="0.502"/>
<circle cx="4064.00" cy="1168.00" r="96.00" fill="rgb(29,76,142)" fill-opacity="0.502"/>
<circle cx="1200.00" cy="1504.00" r="64.00" fill="rgb(0,0,0)" fill-opacity="0.502"/>
<polygon points="5273.52,4519.40 5198.54,4257.93 5398.48,4200.60 5473.46,4462.07" fill="rgb(18,69,103)" fill-opacity="0.502"/>
<polygon points="4922.50,1390.05 4933.39,1597.76 4853.50,1601.95 4842.61,1394.24" fill="rgb(64,125,170)" fill-opacity="0.502"/>
<g transform="translate(3776.00 1248.00) rotate(130) scale(272.00 80.00)"><ellipse cx="0" cy="0" rx="1" ry="1" fill="rgb(7,22,52)" fill-opacity="0.502"/></g>
<g transform="translate(4688.00 2032.00) rotate(58) scale(32.00 352.00)"><ellipse cx="0" cy="0" rx="1" ry="1" fill="rgb(1,7,10)" fill-opacity="0.502"/></g>
<circle cx="2912.00" cy="2976.00" r="400.00" fill="rgb(0,0,0)" fill-opacity="0.502"/>
<circle cx="2336.00" cy="3760.00" r="224.00" fill="rgb(81,142,196)" fill-opacity="0.502"/>
<g transform="translate(5616.00 1664.00) rotate(55) scale(512.00 240.00)"><ellipse cx="0" cy="0" rx="1" ry="1" fill="rgb(0,0,2)" fill-opacity="0.502"/></g>
<circle cx="4544.00" cy="3248.00" r="480.00" fill="rgb(1,1,1)" fill-opacity="0.502"/>
<polygon points="3660.26,3361.91 3652.44,3250.18 3939.74,3230.09 3947.56,3341.82" fill="rgb(0,0,8)" fill-opacity="0.502"/>
<polygon points="4711.58,4503.33 4549.94,4634.23 4328.42,4360.67 4490.06,4229.77" fill="rgb(0,0,0)" fill-opacity="0.502"/>
<polygon points="3968.00,3568.00 5040.00,3568.00 5040.00,4064.00 3968.00,4064.00" fill="rgb(0,0,0)" fill-opacity="0.502"/>
<polygon points="1348.18,3268.52 1276.19,3354.32 1067.82,3179.48 1139.81,3093.68" fill="rgb(78,135,184)" fill-opacity="0.502"/>
<polygon points="4369.83,1379.83 4315.99,1580.74 4254.17,1564.17 4308.01,1363.26" fill="rgb(2,14,20)" fill-opacity="0.502"/>
<circle cx="3120.00" cy="4576.00" r="416.00" fill="rgb(0,0,0)" fill-opacity="0.502"/>
<polygon points="1994.11,3028.27 2213.36,2930.65 2245.89,3003.73 2026.64,3101.35" fill="rgb(50,83,123)" fill-opacity="0.502"/>
<polygon points="4926.64,3372.92 4857.36,3412.92 4625.36,3011.08 4694.64,2971.08" fill="rgb(28,28,28)" fill-opacity="0.502"/>
<g transform="translate(4384.00 0.00) rotate(339) scale(432.00 304.00)"><ellipse cx="0" cy="0" rx="1" ry="1" fill="rgb(0,0,0)" fill-opacity="0.502"/></g>
<g transform="translate(1920.00 32.00) rotate(323) scale(400.00 192.00)"><ellipse cx="0" cy="0" rx="1" ry="1" fill="rgb(0,0,0)" fill-opacity="0.502"/></g>
<g transform="translate(1488.00 384.00) rotate(238) scale(80.00 128.00)"><ellipse cx="0" cy="0" rx="1" ry="1" fill="rgb(106,153,230)" fill-opacity="0.502"/></g>
<circle cx="2832.00" cy="880.00" r="192.00" fill="rgb(0,0,0)" fill-opacity="0.502"/>
<polygon points="4660.94,1947.64 4880.20,2045.26 4763.06,2308.36 4543.80,2210.74" fill="rgb(0,0,0)" fill-opacity="0.502"/>
<polygon points="1851.24,1427.46 2069.08,1837.15 1588.76,2092.54 1370.92,1682.85" fill="rgb(0,1,33)" fill-opacity="0.502"/>
<circle cx="368.00" cy="528.00" r="736.00" fill="rgb(0,0,0)" fill-opacity="0.502"/>
<polygon points="3702.06,1941.15 3689.51,2084.61 3577.94,2074.85 3590.49,1931.39" fill="rgb(8,25,50)" fill-opacity="0.502"/>
<polygon points="5990.50,1225.59 5850.78,1260.43 5769.50,934.41 5909.22,899.57" fill="rgb(6,21,39)" fill-opacity="0.502"/>
<g transform="translate(2560.00 768.00) rotate(298) scale(48.00 384.00)"><ellipse cx="0" cy="0" rx="1" ry="1" fill="rgb(0,0,0)" fill-opacity="0.502"/></g>
<g transform="translate(5552.00 1712.00) rotate(183) scale(208.00 464.00)"><ellipse cx="0" cy="0" rx="1" ry="1" fill="rgb(0,0,8)" fill-opacity="0.502"/></g>
<g transform="translate(272.00 1312.00) rotate(7) scale(800.00 1616.00)"><ellipse cx="0" cy="0" rx="1" ry="1" fill="rgb(0,0,0)" fill-opacity="0.502"/></g>
<g transform="translate(5600.00 2208.00) rotate(261) scale(48.00 176.00)"><ellipse cx="0" cy="0" rx="1" ry="1" fill="rgb(16,32,69)" fill-opacity="0.502"/></g>
<polygon points="5522.84,764.17 5110.89,706.27 5133.16,547.83 5545.11,605.73" fill="rgb(39,67,115)" fill-opacity="0.502"/>
<circle cx="3120.00" cy="384.00" r="80.00" fill="rgb(129,185,255)" fill-opacity="0.502"/>
<polygon points="3661.24,623.67 3696.07,483.95 4130.76,592.33 4095.93,732.05" fill="rgb(3,9,51)" fill-opacity="0.502"/>
<circle cx="3168.00" cy="896.00" r="208.00" fill="rgb(0,0,0)" fill-opacity="0.502"/>
<g transform="translate(944.00 3152.00) rotate(44) scale(144.00 176.00)"><ellipse cx="0" cy="0" rx="1" ry="1" fill="rgb(0,0,0)" fill-opacity="0.502"/></g>
<polygon points="2228.01,1018.24 2116.43,1028.00 2075.99,565.76 2187.57,556.00" fill="rgb(106,132,166)" fill-opacity="0.502"/>
<polygon points="5306.43,2307.79 5389.57,2259.79 5477.57,2412.21 5394.43,2460.21" fill="rgb(91,128,172)" fill-opacity="0.502"/>
<g transform="translate(5072.00 80.00) rotate(106) scale(192.00 832.00)"><ellipse cx="0" cy="0" rx="1" ry="1" fill="rgb(0,0,0)" fill-opacity="0.502"/></g>
<circle cx="4768.00" cy="432.00" r="64.00" fill="rgb(94,160,223)" fill-opacity="0.502"/>
<circle cx="2240.00" cy="1392.00" r="48.00" fill="rgb(117,159,236)" fill-opacity="0.502"/>
<circle cx="1552.00" cy="944.00" r="128.00" fill="rgb(89,138,177)" fill-opacity="0.502"/>
<circle cx="1552.00" cy="448.00" r="32.00" fill="rgb(129,180,246)" fill-opacity="0.502"/>
<polygon points="4968.68,2526.65 4937.80,2418.99 4999.32,2401.35 5030.20,2509.01" fill="rgb(223,251,249)" fill-opacity="0.502"/>
<polygon points="5491.89,3123.67 5455.18,3176.10 5324.11,3084.33 5360.82,3031.90" fill="rgb(0,0,12)" fill-opacity="0.502"/>
<g transform="translate(3488.00 1040.00) rotate(233) scale(176.00 528.00)"><ellipse cx="0" cy="0" rx="1" ry="1" fill="rgb(0,0,0)" fill-opacity="0.502"/></g>
<circle cx="4880.00" cy="1312.00" r="64.00" fill="rgb(18,52,76)" fill-opacity="0.502"/>
<polygon points="2690.15,3379.19 2614.50,3438.29 2525.85,3324.81 2601.50,3265.71" fill="rgb(1,0,3)" fill-opacity="0.502"/>
<g transform="translate(752.00 896.00) rotate(118) scale(48.00 544.00)"><ellipse cx="0" cy="0" rx="1" ry="1" fill="rgb(0,0,1)" fill-opacity="0.502"/></g>
<g transform="translate(5856.00 3520.00) rotate(129) scale(176.00 128.00)"><ellipse cx="0" cy="0" rx="1" ry="1" fill="rgb(0,14,28)" fill-opacity="0.502"/></g>
<polygon points="1425.27,1128.91 1423.04,1064.95 1934.73,1047.09 1936.96,1111.05" fill="rgb(0,0,37)" fill-opacity="0.502"/>
<g transform="translate(4672.00 1680.00) rotate(224) scale(32.00 96.00)"><ellipse cx="0" cy="0" rx="1" ry="1" fill="rgb(23,26,69)" fill-opacity="0.502"/></g>
<circle cx="3888.00" cy="416.00" r="80.00" fill="rgb(120,165,235)" fill-opacity="0.502"/>
<polygon points="4219.71,420.00 4191.04,494.68 3892.29,380.00 3920.96,305.32" fill="rgb(110,162,234)" fill-opacity="0.502"/>
<g transform="translate(4640.00 1328.00) rotate(360) scale(96.00 208.00)"><ellipse cx="0" cy="0" rx="1" ry="1" fill="rgb(0,0,7)" fill-opacity="0.502"/></g>
<polygon points="5136.20,2334.44 5072.09,2004.61 5087.80,2001.56 5151.91,2331.39" fill="rgb(122,160,229)" fill-opacity="0.502"/>
<polygon points="5976.18,803.20 5941.57,696.68 6519.82,508.80 6554.43,615.32" fill="rgb(0,0,0)" fill-opacity="0.502"/>
<g transform="translate(3024.00 3664.00) rotate(61) scale(688.00 384.00)"><ellipse cx="0" cy="0" rx="1" ry="1" fill="rgb(0,0,0)" fill-opacity="0.502"/></g>
<circle cx="4304.00" cy="96.00" r="208.00" fill="rgb(0,0,0)" fill-opacity="0.502"/>
<polygon points="5021.09,2461.34 5097.99,2483.39 4978.91,2898.66 4902.01,2876.61" fill="rgb(0,0,0)" fill-opacity="0.502"/>
<polygon points="4913.41,2013.95 4838.73,2042.62 4798.59,1938.05 4873.27,1909.38" fill="rgb(69,117,156)" fill-opacity="0.502"/>
<g transform="translate(1808.00 2704.00) rotate(287) scale(256.00 352.00)"><ellipse cx="0" cy="0" rx="1" ry="1" fill="rgb(0,0,37)" fill-opacity="0.502"/></g>
<g transform="translate(5472.00 1488.00) rotate(219) scale(48.00 272.00)"><ellipse cx="0" cy="0" rx="1" ry="1" fill="rgb(0,0,1)" fill-opacity="0.502"/></g>
<polygon points="6248.03,797.67 6786.33,952.03 6631.97,1490.33 6093.67,1335.97" fill="rgb(0,0,0)" fill-opacity="0.502"/>
<polygon points="2152.00,2696.00 2152.00,2424.00 2280.00,2424.00 2280.00,2696.00" fill="rgb(40,70,89)" fill-opacity="0.502"/>
<circle cx="4480.00" cy="880.00" r="176.00" fill="rgb(28,72,130)" fill-opacity="0.502"/>
<g transform="translate(5760.00 2928.00) rotate(105) scale(112.00 304.00)"><ellipse cx="0" cy="0" rx="1" ry="1" fill="rgb(11,37,70)" fill-opacity="0.502"/></g>
<g transform="translate(6448.00 1504.00) rotate(26) scale(192.00 400.00)"><ellipse cx="0" cy="0" rx="1" ry="1" fill="rgb(0,0,0)" fill-opacity="0.502"/></g>
<circle cx="3024.00" cy="1344.00" r="192.00" fill="rgb(0,0,13)" fill-opacity="0.502"/>
<g transform="translate(4848.00 2864.00) rotate(130) scale(272.00 192.00)"><ellipse cx="0" cy="0" rx="1" ry="1" fill="rgb(0,0,0)" fill-opacity="0.502"/></g>
<polygon points="3063.82,1711.90 3052.69,1632.68 3512.18,1568.10 3523.31,1647.32" fill="rgb(75,137,254)" fill-opacity="0.502"/>
<polygon points="2178.50,1533.62 2288.44,1512.25 2349.50,1826.38 2239.56,1847.75" fill="rgb(96,143,187)" fill-opacity="0.502"/>
<circle cx="4944.00" cy="4592.00" r="192.00" fill="rgb(0,0,0)" fill-opacity="0.502"/>
<polygon points="4004.26,3293.74 4070.58,3338.47 4043.74,3378.26 3977.42,3333.53" fill="rgb(57,55,53)" fill-opacity="0.502"/>
<polygon points="2705.57,4564.71 2641.68,4612.85 2622.43,4587.29 2686.32,4539.15" fill="rgb(121,161,210)" fill-opacity="0.502"/>
<polygon points="5351.77,3859.93 5305.01,3527.20 5384.23,3516.07 5430.99,3848.80" fill="rgb(38,60,103)" fill-opacity="0.502"/>
<polygon points="1813.33,1230.25 1722.68,1381.11 1530.67,1265.75 1621.32,1114.89" fill="rgb(78,123,170)" fill-opacity="0.502"/>
<polygon points="2230.04,933.83 2265.76,1444.59 2185.96,1450.17 2150.24,939.41" fill="rgb(105,144,194)" fill-opacity="0.502"/>
<circle cx="5632.00" cy="464.00" r="64.00" fill="rgb(96,141,206)" fill-opacity="0.502"/>
<polygon points="4197.45,1790.39 4463.42,2130.81 4362.55,2209.61 4096.58,1869.19" fill="rgb(0,1,14)" fill-opacity="0.502"/>
<circle cx="5984.00" cy="2688.00" r="96.00" fill="rgb(10,48,93)" fill-opacity="0.502"/>
<polygon points="3773.06,3208.58 3680.78,3182.12 3746.94,2951.42 3839.22,2977.88" fill="rgb(121,148,187)" fill-opacity="0.502"/>
<polygon points="2450.22,2184.29 2685.78,2048.29 2717.78,2103.71 2482.22,2239.71" fill="rgb(18,23,29)" fill-opacity="0.502"/>
<polygon points="6049.52,2467.19 6057.26,2498.24 5886.48,2540.81 5878.74,2509.76" fill="rgb(59,101,176)" fill-opacity="0.502"/>
<g transform="translate(4384.00 2032.00) rotate(258) scale(16.00 848.00)"><ellipse cx="0" cy="0" rx="1" ry="1" fill="rgb(2,8,22)" fill-opacity="0.502"/></g>
<g transform="translate(2224.00 4048.00) rotate(254) scale(320.00 272.00)"><ellipse cx="0" cy="0" rx="1" ry="1" fill="rgb(73,134,185)" fill-opacity="0.502"/></g>
<circle cx="5904.00" cy="1888.00" r="208.00" fill="rgb(0,0,1)" fill-opacity="0.502"/>
<circle cx="3392.00" cy="1712.00" r="32.00" fill="rgb(77,127,255)" fill-opacity="0.502"/>
<circle cx="6800.00" cy="2144.00" r="96.00" fill="rgb(0,0,0)" fill-opacity="0.502"/>
<g transform="translate(3648.00 0.00) rotate(94) scale(336.00 448.00)"><ellipse cx="0" cy="0" rx="1" ry="1" fill="rgb(0,0,1)" fill-opacity="0.502"/></g>
<polygon points="5436.43,4240.94 5262.42,4322.09 5059.57,3887.06 5233.58,3805.91" fill="rgb(28,80,121)" fill-opacity="0.502"/>
<circle cx="6624.00" cy="1680.00" r="352.00" fill="rgb(0,0,0)" fill-opacity="0.502"/>
<polygon points="4731.75,1590.90 4608.10,1868.62 4564.25,1849.10 4687.90,1571.38" fill="rgb(29,40,80)" fill-opacity="0.502"/>
<polygon points="3673.17,3076.29 3894.09,3170.07 3862.83,3243.71 3641.91,3149.93" fill="rgb(132,146,173)" fill-opacity="0.502"/>
<polygon points="5621.08,1675.12 6182.57,2393.78 6106.92,2452.88 5545.43,1734.22" fill="rgb(0,0,2)" fill-opacity="0.502"/>
<circle cx="2768.00" cy="2416.00" r="320.00" fill="rgb(0,0,0)" fill-opacity="0.502"/>
<polygon points="5600.97,2490.40 5538.85,2258.58 5647.03,2229.60 5709.15,2461.42" fill="rgb(0,0,5)" fill-opacity="0.502"/>
<polygon points="1108.27,3579.96 1148.71,3117.73 1403.73,3140.04 1363.29,3602.27" fill="rgb(72,129,181)" fill-opacity="0.502"/>
<g transform="translate(3776.00 1504.00) rotate(132) scale(384.00 48.00)"><ellipse cx="0" cy="0" rx="1" ry="1" fill="rgb(8,44,107)" fill-opacity="0.502"/></g>
<g transform="translate(4160.00 1968.00) rotate(163) scale(112.00 272.00)"><ellipse cx="0" cy="0" rx="1" ry="1" fill="rgb(0,1,10)" fill-opacity="0.502"/></g>
<polygon points="1738.80,3099.02 1262.02,3235.74 1253.20,3204.98 1729.98,3068.26" fill="rgb(68,114,169)" fill-opacity="0.502"/>
<polygon points="1250.75,1583.21 1296.79,1538.75 1341.25,1584.79 1295.21,1629.25" fill="rgb(255,255,255)" fill-opacity="0.502"/>
</g>
</svg>