<?xml version="1.0" standalone="no"?>
<svg xmlns="http://www.w3.org/2000/svg" width="8192" height="4608" viewBox="0 0 8192 4608" style="overflow:hidden">
<defs>
<clipPath id="c"><rect x="0" y="0" width="8192" height="4608"/></clipPath>
</defs>
<rect width="8192" height="4608" fill="rgb(25,33,58)"/>
<g clip-path="url(#c)">
<g transform="translate(4400.00 1584.00) rotate(147) scale(560.00 384.00)"><ellipse cx="0" cy="0" rx="1" ry="1" fill="rgb(249,255,255)" fill-opacity="0.502"/></g>
<g transform="translate(2176.00 176.00) rotate(156) scale(1296.00 608.00)"><ellipse cx="0" cy="0" rx="1" ry="1" fill="rgb(188,243,255)" fill-opacity="0.502"/></g>
<circle cx="1712.00" cy="4080.00" r="672.00" fill="rgb(255,255,255)" fill-opacity="0.502"/>
<circle cx="80.00" cy="2192.00" r="1744.00" fill="rgb(0,0,0)" fill-opacity="0.502"/>
<g transform="translate(5968.00 1504.00) rotate(100) scale(1088.00 272.00)"><ellipse cx="0" cy="0" rx="1" ry="1" fill="rgb(155,194,255)" fill-opacity="0.502"/></g>
<g transform="translate(6288.00 3888.00) rotate(81) scale(1120.00 3328.00)"><ellipse cx="0" cy="0" rx="1" ry="1" fill="rgb(0,0,0)" fill-opacity="0.502"/></g>
<circle cx="1680.00" cy="4240.00" r="624.00" fill="rgb(199,255,255)" fill-opacity="0.502"/>
<circle cx="1440.00" cy="480.00" r="384.00" fill="rgb(255,255,255)" fill-opacity="0.502"/>
<g transform="translate(2032.00 688.00) rotate(314) scale(400.00 336.00)"><ellipse cx="0" cy="0" rx="1" ry="1" fill="rgb(0,0,0)" fill-opacity="0.502"/></g>
<g transform="translate(3088.00 112.00) rotate(283) scale(416.00 720.00)"><ellipse cx="0" cy="0" rx="1" ry="1" fill="rgb(21,111,255)" fill-opacity="0.502"/></g>
<polygon points="2600.74,4463.67 2562.03,4618.91 2391.26,4576.33 2429.97,4421.09" fill="rgb(203,255,255)" fill-opacity="0.502"/>
<g transform="translate(2560.00 736.00) rotate(284) scale(288.00 912.00)"><ellipse cx="0" cy="0" rx="1" ry="1" fill="rgb(5,0,7)" fill-opacity="0.502"/></g>
<circle cx="4976.00" cy="2368.00" r="720.00" fill="rgb(89,80,130)" fill-opacity="0.502"/>
<circle cx="448.00" cy="4160.00" r="672.00" fill="rgb(0,0,0)" fill-opacity="0.502"/>
<polygon points="4405.27,2079.30 3768.78,2012.40 3850.73,1232.70 4487.22,1299.60" fill="rgb(119,172,243)" fill-opacity="0.502"/>
<g transform="translate(8000.00 624.00) rotate(274) scale(4624.00 864.00)"><ellipse cx="0" cy="0" rx="1" ry="1" fill="rgb(0,0,0)" fill-opacity="0.502"/></g>
<g transform="translate(3776.00 2544.00) rotate(84) scale(896.00 576.00)"><ellipse cx="0" cy="0" rx="1" ry="1" fill="rgb(62,64,138)" fill-opacity="0.502"/></g>
<g transform="translate(2416.00 1296.00) rotate(272) scale(400.00 848.00)"><ellipse cx="0" cy="0" rx="1" ry="1" fill="rgb(0,0,0)" fill-opacity="0.502"/></g>
<g transform="translate(496.00 752.00) rotate(269) scale(5536.00 608.00)"><ellipse cx="0" cy="0" rx="1" ry="1" fill="rgb(0,0,0)" fill-opacity="0.502"/></g>
<g transform="translate(6752.00 3248.00) rotate(258) scale(176.00 384.00)"><ellipse cx="0" cy="0" rx="1" ry="1" fill="rgb(6,33,198)" fill-opacity="0.502"/></g>
<circle cx="4912.00" cy="4032.00" r="1056.00" fill="rgb(0,0,0)" fill-opacity="0.502"/>
<circle cx="6640.00" cy="2000.00" r="512.00" fill="rgb(5,40,173)" fill-opacity="0.502"/>
<circle cx="6576.00" cy="672.00" r="544.00" fill="rgb(10,34,194)" fill-opacity="0.502"/>
<g transform="translate(1520.00 3216.00) rotate(318) scale(400.00 480.00)"><ellipse cx="0" cy="0" rx="1" ry="1" fill="rgb(0,5,93)" fill-opacity="0.502"/></g>
<circle cx="4544.00" cy="1008.00" r="208.00" fill="rgb(0,0,0)" fill-opacity="0.502"/>
<circle cx="1424.00" cy="160.00" r="368.00" fill="rgb(245,255,255)" fill-opacity="0.502"/>
<circle cx="4816.00" cy="288.00" r="864.00" fill="rgb(0,4,0)" fill-opacity="0.502"/>
<g transform="translate(2224.00 3776.00) rotate(359) scale(176.00 352.00)"><ellipse cx="0" cy="0" rx="1" ry="1" fill="rgb(114,207,255)" fill-opacity="0.502"/></g>
<g transform="translate(5984.00 2960.00) rotate(214) scale(592.00 240.00)"><ellipse cx="0" cy="0" rx="1" ry="1" fill="rgb(20,44,144)" fill-opacity="0.502"/></g>
<circle cx="2032.00" cy="0.00" r="416.00" fill="rgb(50,140,255)" fill-opacity="0.502"/>
<g transform="translate(3504.00 3968.00) rotate(275) scale(496.00 1232.00)"><ellipse cx="0" cy="0" rx="1" ry="1" fill="rgb(0,0,0)" fill-opacity="0.502"/></g>
<circle cx="2112.00" cy="2784.00" r="576.00" fill="rgb(0,0,22)" fill-opacity="0.502"/>
<polygon points="3508.66,1929.66 3709.35,1406.86 4187.34,1590.34 3986.65,2113.14" fill="rgb(40,62,64)" fill-opacity="0.502"/>
<g transform="translate(5856.00 656.00) rotate(334) scale(224.00 224.00)"><ellipse cx="0" cy="0" rx="1" ry="1" fill="rgb(59,90,255)" fill-opacity="0.502"/></g>
<g transform="translate(1632.00 4048.00) rotate(59) scale(448.00 560.00)"><ellipse cx="0" cy="0" rx="1" ry="1" fill="rgb(188,255,255)" fill-opacity="0.502"/></g>
<polygon points="2344.00,3512.00 2344.00,3800.00 2040.00,3800.00 2040.00,3512.00" fill="rgb(170,238,255)" fill-opacity="0.502"/>
<polygon points="3411.97,916.88 4282.03,1322.60 4140.03,1627.12 3269.97,1221.40" fill="rgb(46,94,232)" fill-opacity="0.502"/>
<polygon points="1672.56,964.82 1112.64,955.05 1127.44,107.18 1687.36,116.95" fill="rgb(255,255,255)" fill-opacity="0.502"/>
<circle cx="6400.00" cy="4176.00" r="896.00" fill="rgb(0,0,1)" fill-opacity="0.502"/>
<g transform="translate(7728.00 1040.00) rotate(4) scale(592.00 3648.00)"><ellipse cx="0" cy="0" rx="1" ry="1" fill="rgb(0,0,0)" fill-opacity="0.502"/></g>
<g transform="translate(1584.00 3520.00) rotate(268) scale(160.00 512.00)"><ellipse cx="0" cy="0" rx="1" ry="1" fill="rgb(0,86,234)" fill-opacity="0.502"/></g>
<circle cx="528.00" cy="336.00" r="592.00" fill="rgb(0,0,0)" fill-opacity="0.502"/>
<polygon points="6167.49,1814.19 5690.12,1764.02 5800.51,713.81 6277.88,763.98" fill="rgb(121,156,255)" fill-opacity="0.502"/>
<g transform="translate(6928.00 1168.00) rotate(258) scale(480.00 128.00)"><ellipse cx="0" cy="0" rx="1" ry="1" fill="rgb(27,72,254)" fill-opacity="0.502"/></g>
<g transform="translate(4352.00 1744.00) rotate(138) scale(304.00 144.00)"><ellipse cx="0" cy="0" rx="1" ry="1" fill="rgb(255,255,255)" fill-opacity="0.502"/></g>
<circle cx="1904.00" cy="4240.00" r="352.00" fill="rgb(168,244,255)" fill-opacity="0.502"/>
<g transform="translate(2560.00 4384.00) rotate(307) scale(384.00 320.00)"><ellipse cx="0" cy="0" rx="1" ry="1" fill="rgb(0,0,55)" fill-opacity="0.502"/></g>
<circle cx="3040.00" cy="3232.00" r="240.00" fill="rgb(27,66,216)" fill-opacity="0.502"/>
<polygon points="2869.17,1953.26 3058.54,2341.53 2842.83,2446.74 2653.46,2058.47" fill="rgb(124,48,75)" fill-opacity="0.502"/>
<g transform="translate(2496.00 96.00) rotate(303) scale(368.00 368.00)"><ellipse cx="0" cy="0" rx="1" ry="1" fill="rgb(99,181,255)" fill-opacity="0.502"/></g>
<circle cx="3968.00" cy="2800.00" r="256.00" fill="rgb(59,63,184)" fill-opacity="0.502"/>
<polygon points="3008.00,2416.00 3008.00,1712.00 3968.00,1712.00 3968.00,2416.00" fill="rgb(61,55,64)" fill-opacity="0.502"/>
<polygon points="3142.19,3144.21 3687.84,3018.24 3849.81,3719.79 3304.16,3845.76" fill="rgb(0,0,0)" fill-opacity="0.502"/>
<circle cx="4752.00" cy="2896.00" r="192.00" fill="rgb(36,112,255)" fill-opacity="0.502"/>
<g transform="translate(2704.00 2944.00) rotate(57) scale(400.00 368.00)"><ellipse cx="0" cy="0" rx="1" ry="1" fill="rgb(0,0,33)" fill-opacity="0.502"/></g>
<circle cx="5776.00" cy="3120.00" r="256.00" fill="rgb(0,0,0)" fill-opacity="0.502"/>
<polygon points="7080.00,1576.00 7080.00,1944.00 6888.00,1944.00 6888.00,1576.00" fill="rgb(34,90,255)" fill-opacity="0.502"/>
<circle cx="5904.00" cy="0.00" r="560.00" fill="rgb(0,0,24)" fill-opacity="0.502"/>
<circle cx="2336.00" cy="992.00" r="576.00" fill="rgb(1,0,1)" fill-opacity="0.502"/>
<g transform="translate(6576.00 1424.00) rotate(154) scale(320.00 464.00)"><ellipse cx="0" cy="0" rx="1" ry="1" fill="rgb(0,0,45)" fill-opacity="0.502"/></g>
<circle cx="928.00" cy="2848.00" r="544.00" fill="rgb(0,0,0)" fill-opacity="0.502"/>
<polygon points="7080.72,1838.11 7095.24,2669.98 6871.28,2673.89 6856.76,1842.02" fill="rgb(29,83,217)" fill-opacity="0.502"/>
<polygon points="6682.99,2737.31 5901.97,2668.98 5941.01,2222.69 6722.03,2291.02" fill="rgb(0,0,16)" fill-opacity="0.502"/>
<polygon points="3098.62,1078.89 3126.26,551.61 3765.38,585.11 3737.74,1112.39" fill="rgb(85,112,110)" fill-opacity="0.502"/>
<circle cx="6768.00" cy="2672.00" r="336.00" fill="rgb(0,9,75)" fill-opacity="0.502"/>
<circle cx="3920.00" cy="3312.00" r="160.00" fill="rgb(53,141,255)" fill-opacity="0.502"/>
<polygon points="1297.86,3994.69 1189.67,4023.68 1086.14,3637.31 1194.33,3608.32" fill="rgb(189,255,255)" fill-opacity="0.502"/>
<circle cx="2672.00" cy="4128.00" r="288.00" fill="rgb(0,0,0)" fill-opacity="0.502"/>
<g transform="translate(3728.00 160.00) rotate(148) scale(368.00 192.00)"><ellipse cx="0" cy="0" rx="1" ry="1" fill="rgb(0,0,114)" fill-opacity="0.502"/></g>
<circle cx="5280.00" cy="1664.00" r="400.00" fill="rgb(51,71,66)" fill-opacity="0.502"/>
<polygon points="5200.07,2594.99 5562.47,2531.09 5631.93,2925.01 5269.53,2988.91" fill="rgb(139,26,190)" fill-opacity="0.502"/>
<circle cx="4688.00" cy="1312.00" r="176.00" fill="rgb(213,255,255)" fill-opacity="0.502"/>
<circle cx="7536.00" cy="592.00" r="464.00" fill="rgb(0,0,0)" fill-opacity="0.502"/>
<g transform="translate(7152.00 816.00) rotate(177) scale(400.00 224.00)"><ellipse cx="0" cy="0" rx="1" ry="1" fill="rgb(0,0,19)" fill-opacity="0.502"/></g>
<g transform="translate(6768.00 32.00) rotate(73) scale(208.00 1168.00)"><ellipse cx="0" cy="0" rx="1" ry="1" fill="rgb(0,0,27)" fill-opacity="0.502"/></g>
<g transform="translate(2192.00 3280.00) rotate(61) scale(176.00 560.00)"><ellipse cx="0" cy="0" rx="1" ry="1" fill="rgb(0,13,111)" fill-opacity="0.502"/></g>
<g transform="translate(3008.00 4592.00) rotate(263) scale(288.00 96.00)"><ellipse cx="0" cy="0" rx="1" ry="1" fill="rgb(89,178,255)" fill-opacity="0.502"/></g>
<g transform="translate(1424.00 4416.00) rotate(330) scale(352.00 192.00)"><ellipse cx="0" cy="0" rx="1" ry="1" fill="rgb(203,254,255)" fill-opacity="0.502"/></g>
<circle cx="3472.00" cy="2592.00" r="400.00" fill="rgb(57,50,122)" fill-opacity="0.502"/>
<g transform="translate(4592.00 1120.00) rotate(73) scale(32.00 576.00)"><ellipse cx="0" cy="0" rx="1" ry="1" fill="rgb(7,29,37)" fill-opacity="0.502"/></g>
<polygon points="1476.49,1643.13 1652.06,1655.41 1579.51,2692.87 1403.94,2680.59" fill="rgb(37,43,118)" fill-opacity="0.502"/>
<circle cx="4512.00" cy="2032.00" r="160.00" fill="rgb(57,61,39)" fill-opacity="0.502"/>
<circle cx="6272.00" cy="2080.00" r="240.00" fill="rgb(45,62,175)" fill-opacity="0.502"/>
<g transform="translate(4112.00 736.00) rotate(268) scale(560.00 416.00)"><ellipse cx="0" cy="0" rx="1" ry="1" fill="rgb(6,30,8)" fill-opacity="0.502"/></g>
<g transform="translate(480.00 3760.00) rotate(155) scale(592.00 768.00)"><ellipse cx="0" cy="0" rx="1" ry="1" fill="rgb(0,0,0)" fill-opacity="0.502"/></g>
<g transform="translate(6848.00 704.00) rotate(107) scale(576.00 176.00)"><ellipse cx="0" cy="0" rx="1" ry="1" fill="rgb(20,45,160)" fill-opacity="0.502"/></g>
<polygon points="3416.00,2360.00 3416.00,1560.00 3656.00,1560.00 3656.00,2360.00" fill="rgb(11,9,28)" fill-opacity="0.502"/>
<polygon points="2475.61,4381.26 2717.31,4614.66 2628.39,4706.74 2386.69,4473.34" fill="rgb(132,237,255)" fill-opacity="0.502"/>
<polygon points="5541.61,1923.35 5894.64,1647.53 6042.39,1836.65 5689.36,2112.47" fill="rgb(137,154,202)" fill-opacity="0.502"/>
<g transform="translate(2816.00 3696.00) rotate(299) scale(256.00 432.00)"><ellipse cx="0" cy="0" rx="1" ry="1" fill="rgb(0,0,0)" fill-opacity="0.502"/></g>
<circle cx="5312.00" cy="2624.00" r="112.00" fill="rgb(255,2,9)" fill-opacity="0.502"/>
<polygon points="3298.56,2190.68 3325.35,2701.97 3261.44,2705.32 3234.65,2194.03" fill="rgb(155,168,229)" fill-opacity="0.502"/>
<polygon points="1932.47,355.76 2411.81,380.88 2387.53,844.24 1908.19,819.12" fill="rgb(44,29,39)" fill-opacity="0.502"/>
<circle cx="384.00" cy="1680.00" r="720.00" fill="rgb(0,0,0)" fill-opacity="0.502"/>
<circle cx="3728.00" cy="3888.00" r="496.00" fill="rgb(0,0,0)" fill-opacity="0.502"/>
<circle cx="4224.00" cy="3136.00" r="224.00" fill="rgb(0,0,22)" fill-opacity="0.502"/>
<g transform="translate(6992.00 1904.00) rotate(267) scale(640.00 80.00)"><ellipse cx="0" cy="0" rx="1" ry="1" fill="rgb(38,86,229)" fill-opacity="0.502"/></g>
<polygon points="4968.29,1443.41 4623.52,1884.70 4295.71,1628.59 4640.48,1187.30" fill="rgb(166,221,241)" fill-opacity="0.502"/>
<circle cx="4480.00" cy="4048.00" r="784.00" fill="rgb(0,0,0)" fill-opacity="0.502"/>
<circle cx="1728.00" cy="1024.00" r="128.00" fill="rgb(34,74,173)" fill-opacity="0.502"/>
<polygon points="6894.41,757.99 6206.52,745.98 6209.59,570.01 6897.48,582.02" fill="rgb(0,0,9)" fill-opacity="0.502"/>
<polygon points="2070.22,356.62 1475.68,79.38 1529.78,-36.62 2124.32,240.62" fill="rgb(0,40,169)" fill-opacity="0.502"/>
<polygon points="3534.05,987.09 3263.09,963.39 3297.95,564.91 3568.91,588.61" fill="rgb(0,0,27)" fill-opacity="0.502"/>
<g transform="translate(2576.00 3904.00) rotate(104) scale(96.00 432.00)"><ellipse cx="0" cy="0" rx="1" ry="1" fill="rgb(0,0,91)" fill-opacity="0.502"/></g>
<circle cx="1824.00" cy="304.00" r="112.00" fill="rgb(255,255,255)" fill-opacity="0.502"/>
<circle cx="4320.00" cy="1744.00" r="160.00" fill="rgb(255,255,255)" fill-opacity="0.502"/>
<polygon points="5504.00,1824.00 4896.00,1824.00 4896.00,1648.00 5504.00,1648.00" fill="rgb(0,21,0)" fill-opacity="0.502"/>
<polygon points="6040.93,1650.78 5823.59,1596.59 5959.07,1053.22 6176.41,1107.41" fill="rgb(146,182,255)" fill-opacity="0.502"/>
<g transform="translate(1760.00 4592.00) rotate(183) scale(176.00 16.00)"><ellipse cx="0" cy="0" rx="1" ry="1" fill="rgb(0,0,0)" fill-opacity="0.502"/></g>
<polygon points="3828.90,74.95 4188.42,250.30 4027.10,581.05 3667.58,405.70" fill="rgb(18,37,35)" fill-opacity="0.502"/>
<polygon points="5232.00,3200.00 5456.00,3200.00 5456.00,3712.00 5232.00,3712.00" fill="rgb(2,13,116)" fill-opacity="0.502"/>
<polygon points="5447.23,2923.22 5465.08,2667.85 5592.77,2676.78 5574.92,2932.15" fill="rgb(0,82,222)" fill-opacity="0.502"/>
<polygon points="5354.69,941.88 5502.45,752.75 5893.31,1058.12 5745.55,1247.25" fill="rgb(9,11,20)" fill-opacity="0.502"/>
<circle cx="6912.00" cy="512.00" r="96.00" fill="rgb(55,119,255)" fill-opacity="0.502"/>
<circle cx="7664.00" cy="1920.00" r="592.00" fill="rgb(0,0,0)" fill-opacity="0.502"/>
<polygon points="5882.52,2745.17 6066.18,2647.52 6261.48,3014.83 6077.82,3112.48" fill="rgb(63,134,218)" fill-opacity="0.502"/>
<polygon points="3805.34,3206.97 3757.20,3143.08 4306.66,2729.03 4354.80,2792.92" fill="rgb(59,122,255)" fill-opacity="0.502"/>
<circle cx="2304.00" cy="3872.00" r="144.00" fill="rgb(0,51,255)" fill-opacity="0.502"/>
<polygon points="1267.04,3720.98 1070.63,3510.35 1292.96,3303.02 1489.37,3513.65" fill="rgb(34,111,219)" fill-opacity="0.502"/>
<g transform="translate(2992.00 48.00) rotate(329) scale(352.00 480.00)"><ellipse cx="0" cy="0" rx="1" ry="1" fill="rgb(44,118,233)" fill-opacity="0.502"/></g>
<circle cx="5104.00" cy="2880.00" r="128.00" fill="rgb(0,0,5)" fill-opacity="0.502"/>
<polygon points="1112.00,4680.00 1112.00,4264.00 1384.00,4264.00 1384.00,4680.00" fill="rgb(186,245,255)" fill-opacity="0.502"/>
<polygon points="4857.74,2734.34 5035.05,2507.39 5350.26,2753.66 5172.95,2980.61" fill="rgb(7,10,67)" fill-opacity="0.502"/>
<polygon points="3460.45,534.31 3438.22,408.25 3611.55,377.69 3633.78,503.75" fill="rgb(53,116,255)" fill-opacity="0.502"/>
<circle cx="4816.00" cy="2032.00" r="240.00" fill="rgb(79,91,67)" fill-opacity="0.502"/>
<g transform="translate(5760.00 832.00) rotate(331) scale(80.00 304.00)"><ellipse cx="0" cy="0" rx="1" ry="1" fill="rgb(68,87,167)" fill-opacity="0.502"/></g>
<g transform="translate(4816.00 2864.00) rotate(275) scale(112.00 224.00)"><ellipse cx="0" cy="0" rx="1" ry="1" fill="rgb(53,104,255)" fill-opacity="0.502"/></g>
<circle cx="3472.00" cy="1248.00" r="240.00" fill="rgb(27,59,175)" fill-opacity="0.502"/>
<polygon points="3058.43,1044.25 2644.71,1000.77 2701.57,459.75 3115.29,503.23" fill="rgb(0,13,44)" fill-opacity="0.502"/>
<polygon points="1739.68,2375.85 1420.12,2359.10 1460.32,1592.15 1779.88,1608.90" fill="rgb(37,38,62)" fill-opacity="0.502"/>
<circle cx="6192.00" cy="3424.00" r="384.00" fill="rgb(0,0,50)" fill-opacity="0.502"/>
<g transform="translate(1936.00 3984.00) rotate(323) scale(288.00 432.00)"><ellipse cx="0" cy="0" rx="1" ry="1" fill="rgb(181,242,255)" fill-opacity="0.502"/></g>
<g transform="translate(1824.00 2864.00) rotate(64) scale(448.00 608.00)"><ellipse cx="0" cy="0" rx="1" ry="1" fill="rgb(0,0,30)" fill-opacity="0.502"/></g>
<circle cx="6688.00" cy="960.00" r="112.00" fill="rgb(12,4,34)" fill-opacity="0.502"/>
<polygon points="3431.08,1916.32 2410.98,1827.07 2424.92,1667.68 3445.02,1756.93" fill="rgb(106,100,101)" fill-opacity="0.502"/>
<polygon points="3887.22,3071.67 3953.91,3140.73 3792.78,3296.33 3726.09,3227.27" fill="rgb(107,173,255)" fill-opacity="0.502"/>
<g transform="translate(2848.00 3984.00) rotate(209) scale(320.00 480.00)"><ellipse cx="0" cy="0" rx="1" ry="1" fill="rgb(0,0,0)" fill-opacity="0.502"/></g>
<g transform="translate(2592.00 336.00) rotate(192) scale(576.00 80.00)"><ellipse cx="0" cy="0" rx="1" ry="1" fill="rgb(154,200,254)" fill-opacity="0.502"/></g>
<polygon points="3253.45,915.08 3125.62,908.38 3146.55,508.92 3274.38,515.62" fill="rgb(179,197,164)" fill-opacity="0.502"/>
<circle cx="608.00" cy="4224.00" r="496.00" fill="rgb(0,0,0)" fill-opacity="0.502"/>
<circle cx="7360.00" cy="304.00" r="304.00" fill="rgb(0,0,0)" fill-opacity="0.502"/>
<circle cx="6016.00" cy="784.00" r="224.00" fill="rgb(72,109,236)" fill-opacity="0.502"/>
<g transform="translate(5760.00 3072.00) rotate(281) scale(176.00 336.00)"><ellipse cx="0" cy="0" rx="1" ry="1" fill="rgb(0,0,0)" fill-opacity="0.502"/></g>
<polygon points="4680.92,2730.21 4866.38,2680.52 4887.08,2757.79 4701.62,2807.48" fill="rgb(44,21,38)" fill-opacity="0.502"/>
<circle cx="6800.00" cy="3568.00" r="304.00" fill="rgb(1,3,69)" fill-opacity="0.502"/>
<polygon points="1793.14,3357.63 1905.39,2907.41 2510.86,3058.37 2398.61,3508.59" fill="rgb(5,18,90)" fill-opacity="0.502"/>
<g transform="translate(6304.00 1776.00) rotate(92) scale(304.00 112.00)"><ellipse cx="0" cy="0" rx="1" ry="1" fill="rgb(0,0,33)" fill-opacity="0.502"/></g>
<circle cx="3216.00" cy="1088.00" r="64.00" fill="rgb(141,168,95)" fill-opacity="0.502"/>
<polygon points="2527.32,4087.84 2410.82,4172.48 2128.68,3784.16 2245.18,3699.52" fill="rgb(12,61,227)" fill-opacity="0.502"/>
<circle cx="2272.00" cy="2192.00" r="336.00" fill="rgb(33,31,51)" fill-opacity="0.502"/>
<circle cx="6592.00" cy="4192.00" r="768.00" fill="rgb(0,0,4)" fill-opacity="0.502"/>
<circle cx="7824.00" cy="672.00" r="752.00" fill="rgb(0,0,0)" fill-opacity="0.502"/>
<circle cx="304.00" cy="2640.00" r="992.00" fill="rgb(0,0,0)" fill-opacity="0.502"/>
<polygon points="6160.20,1984.12 6250.34,2153.65 5967.80,2303.88 5877.66,2134.35" fill="rgb(30,32,153)" fill-opacity="0.502"/>
<polygon points="4765.24,1484.80 4718.70,1568.77 4578.76,1491.20 4625.30,1407.23" fill="rgb(29,59,50)" fill-opacity="0.502"/>
<circle cx="6464.00" cy="1728.00" r="80.00" fill="rgb(53,112,255)" fill-opacity="0.502"/>
<circle cx="5872.00" cy="2768.00" r="80.00" fill="rgb(53,142,215)" fill-opacity="0.502"/>
<circle cx="3632.00" cy="1344.00" r="176.00" fill="rgb(2,4,65)" fill-opacity="0.502"/>
<circle cx="5088.00" cy="1008.00" r="272.00" fill="rgb(1,8,0)" fill-opacity="0.502"/>
<polygon points="7008.00,2576.00 6544.00,2576.00 6544.00,2144.00 7008.00,2144.00" fill="rgb(2,32,98)" fill-opacity="0.502"/>
<polygon points="6273.63,258.61 6309.59,347.61 5790.37,557.39 5754.41,468.39" fill="rgb(0,16,197)" fill-opacity="0.502"/>
<g transform="translate(656.00 224.00) rotate(41) scale(464.00 432.00)"><ellipse cx="0" cy="0" rx="1" ry="1" fill="rgb(0,0,0)" fill-opacity="0.502"/></g>
<circle cx="8064.00" cy="3616.00" r="992.00" fill="rgb(0,0,0)" fill-opacity="0.502"/>
<circle cx="1856.00" cy="1344.00" r="320.00" fill="rgb(0,0,3)" fill-opacity="0.502"/>
<polygon points="4296.67,2145.77 3963.14,1990.25 4071.33,1758.23 4404.86,1913.75" fill="rgb(160,183,184)" fill-opacity="0.502"/>
<g transform="translate(4992.00 3296.00) rotate(0) scale(304.00 320.00)"><ellipse cx="0" cy="0" rx="1" ry="1" fill="rgb(0,0,0)" fill-opacity="0.502"/></g>
<circle cx="720.00" cy="688.00" r="384.00" fill="rgb(0,0,0)" fill-opacity="0.502"/>
<polygon points="3507.07,3154.61 3517.12,2866.78 3820.93,2877.39 3810.88,3165.22" fill="rgb(0,0,59)" fill-opacity="0.502"/>
<g transform="translate(6864.00 3200.00) rotate(263) scale(128.00 240.00)"><ellipse cx="0" cy="0" rx="1" ry="1" fill="rgb(19,55,219)" fill-opacity="0.502"/></g>
<g transform="translate(3616.00 176.00) rotate(339) scale(512.00 112.00)"><ellipse cx="0" cy="0" rx="1" ry="1" fill="rgb(0,15,145)" fill-opacity="0.502"/></g>
<circle cx="7760.00" cy="2400.00" r="688.00" fill="rgb(0,0,0)" fill-opacity="0.502"/>
<g transform="translate(1184.00 1360.00) rotate(87) scale(432.00 80.00)"><ellipse cx="0" cy="0" rx="1" ry="1" fill="rgb(11,35,104)" fill-opacity="0.502"/></g>
<circle cx="272.00" cy="3984.00" r="832.00" fill="rgb(0,0,0)" fill-opacity="0.502"/>
<polygon points="4176.93,2047.76 4700.83,2442.56 4383.07,2864.24 3859.17,2469.44" fill="rgb(53,61,89)" fill-opacity="0.502"/>
<g transform="translate(1392.00 240.00) rotate(296) scale(192.00 304.00)"><ellipse cx="0" cy="0" rx="1" ry="1" fill="rgb(248,255,255)" fill-opacity="0.502"/></g>
<polygon points="1953.15,357.24 2059.26,428.82 1790.85,826.76 1684.74,755.18" fill="rgb(0,1,92)" fill-opacity="0.502"/>
<polygon points="2558.36,4357.43 2346.57,4430.36 2273.64,4218.57 2485.43,4145.64" fill="rgb(0,0,17)" fill-opacity="0.502"/>
<circle cx="3520.00" cy="4512.00" r="80.00" fill="rgb(22,49,185)" fill-opacity="0.502"/>
<g transform="translate(4080.00 2336.00) rotate(93) scale(624.00 16.00)"><ellipse cx="0" cy="0" rx="1" ry="1" fill="rgb(208,221,255)" fill-opacity="0.502"/></g>
<circle cx="1888.00" cy="896.00" r="176.00" fill="rgb(0,3,38)" fill-opacity="0.502"/>
<polygon points="5776.00,992.00 5824.00,992.00 5824.00,1392.00 5776.00,1392.00" fill="rgb(0,0,75)" fill-opacity="0.502"/>
<polygon points="5035.65,1349.56 5095.40,1326.63 5204.35,1610.44 5144.60,1633.37" fill="rgb(135,157,180)" fill-opacity="0.502"/>
<g transform="translate(1456.00 1168.00) rotate(252) scale(240.00 208.00)"><ellipse cx="0" cy="0" rx="1" ry="1" fill="rgb(0,4,26)" fill-opacity="0.502"/></g>
<polygon points="1780.22,4623.95 1516.30,4558.15 1531.78,4496.05 1795.70,4561.85" fill="rgb(0,0,139)" fill-opacity="0.502"/>
<polygon points="6502.78,3214.54 6486.06,3373.67 5913.22,3313.46 5929.94,3154.33" fill="rgb(14,24,123)" fill-opacity="0.502"/>
<polygon points="3511.33,982.01 3661.68,1036.73 3464.67,1577.99 3314.32,1523.27" fill="rgb(42,79,211)" fill-opacity="0.502"/>
<polygon points="4657.67,2539.91 4855.61,1965.03 5294.33,2116.09 5096.39,2690.97" fill="rgb(64,58,61)" fill-opacity="0.502"/>
<polygon points="4776.30,2980.20 4831.02,3130.55 4695.70,3179.80 4640.98,3029.45" fill="rgb(16,26,161)" fill-opacity="0.502"/>
<circle cx="1280.00" cy="768.00" r="192.00" fill="rgb(236,255,255)" fill-opacity="0.502"/>
<polygon points="6387.00,834.07 6421.61,727.55 6589.00,781.93 6554.39,888.45" fill="rgb(65,113,255)" fill-opacity="0.502"/>
<g transform="translate(6944.00 2016.00) rotate(193) scale(64.00 448.00)"><ellipse cx="0" cy="0" rx="1" ry="1" fill="rgb(22,71,234)" fill-opacity="0.502"/></g>
<circle cx="3232.00" cy="4448.00" r="224.00" fill="rgb(0,0,5)" fill-opacity="0.502"/>
<polygon points="6716.05,1499.50 6791.64,1172.11 6931.95,1204.50 6856.36,1531.89" fill="rgb(0,0,13)" fill-opacity="0.502"/>
<circle cx="5232.00" cy="1552.00" r="128.00" fill="rgb(23,52,35)" fill-opacity="0.502"/>
<g transform="translate(4480.00 1488.00) rotate(276) scale(96.00 144.00)"><ellipse cx="0" cy="0" rx="1" ry="1" fill="rgb(47,98,194)" fill-opacity="0.502"/></g>
<polygon points="5725.91,2031.79 4511.58,1968.15 4514.09,1920.21 5728.42,1983.85" fill="rgb(167,161,202)" fill-opacity="0.502"/>
<polygon points="2598.23,4602.39 2391.37,4580.65 2409.77,4405.61 2616.63,4427.35" fill="rgb(122,201,255)" fill-opacity="0.502"/>
<circle cx="4496.00" cy="848.00" r="368.00" fill="rgb(6,8,13)" fill-opacity="0.502"/>
<g transform="translate(4224.00 1648.00) rotate(183) scale(48.00 144.00)"><ellipse cx="0" cy="0" rx="1" ry="1" fill="rgb(240,255,255)" fill-opacity="0.502"/></g>
<polygon points="4191.95,1695.69 4049.23,1964.10 3696.05,1776.31 3838.77,1507.90" fill="rgb(46,76,93)" fill-opacity="0.502"/>
<polygon points="1788.96,2340.13 2192.26,2494.94 2003.04,2987.87 1599.74,2833.06" fill="rgb(0,0,0)" fill-opacity="0.502"/>
<polygon points="2607.79,1574.65 2711.77,1288.98 3328.21,1513.35 3224.23,1799.02" fill="rgb(0,0,15)" fill-opacity="0.502"/>
<circle cx="2480.00" cy="4592.00" r="128.00" fill="rgb(124,215,255)" fill-opacity="0.502"/>
<g transform="translate(2240.00 4576.00) rotate(191) scale(32.00 464.00)"><ellipse cx="0" cy="0" rx="1" ry="1" fill="rgb(0,5,196)" fill-opacity="0.502"/></g>
<circle cx="2064.00" cy="64.00" r="192.00" fill="rgb(77,164,255)" fill-opacity="0.502"/>
<polygon points="2423.07,3785.91 2359.69,3794.82 2312.93,3462.09 2376.31,3453.18" fill="rgb(57,8,245)" fill-opacity="0.502"/>
<polygon points="6105.69,1651.59 6266.83,1807.20 6022.31,2060.41 5861.17,1904.80" fill="rgb(80,96,218)" fill-opacity="0.502"/>
<circle cx="3392.00" cy="2880.00" r="240.00" fill="rgb(40,49,144)" fill-opacity="0.502"/>
<g transform="translate(6800.00 672.00) rotate(182) scale(656.00 64.00)"><ellipse cx="0" cy="0" rx="1" ry="1" fill="rgb(0,0,18)" fill-opacity="0.502"/></g>
<g transform="translate(0.00 0.00) rotate(238) scale(1648.00 800.00)"><ellipse cx="0" cy="0" rx="1" ry="1" fill="rgb(0,0,0)" fill-opacity="0.502"/></g>
<polygon points="4960.68,381.90 5691.51,707.29 5535.32,1058.10 4804.49,732.71" fill="rgb(3,13,13)" fill-opacity="0.502"/>
<circle cx="6688.00" cy="1408.00" r="240.00" fill="rgb(4,5,59)" fill-opacity="0.502"/>
<polygon points="4125.56,989.29 4097.13,1259.80 3858.44,1234.71 3886.87,964.20" fill="rgb(9,12,0)" fill-opacity="0.502"/>
<g transform="translate(6544.00 2752.00) rotate(203) scale(656.00 176.00)"><ellipse cx="0" cy="0" rx="1" ry="1" fill="rgb(0,0,24)" fill-opacity="0.502"/></g>
<g transform="translate(2752.00 2416.00) rotate(252) scale(160.00 224.00)"><ellipse cx="0" cy="0" rx="1" ry="1" fill="rgb(52,44,85)" fill-opacity="0.502"/></g>
<polygon points="6349.85,961.44 6295.13,1111.79 5874.15,958.56 5928.87,808.21" fill="rgb(97,132,235)" fill-opacity="0.502"/>
<circle cx="3696.00" cy="2464.00" r="336.00" fill="rgb(42,30,75)" fill-opacity="0.502"/>
<circle cx="2992.00" cy="3392.00" r="112.00" fill="rgb(121,226,255)" fill-opacity="0.502"/>
<polygon points="2113.27,4570.56 1870.92,4447.07 2030.73,4133.44 2273.08,4256.93" fill="rgb(126,211,255)" fill-opacity="0.502"/>
<circle cx="640.00" cy="4368.00" r="464.00" fill="rgb(0,0,0)" fill-opacity="0.502"/>
<circle cx="7824.00" cy="1216.00" r="736.00" fill="rgb(0,0,0)" fill-opacity="0.502"/>
<polygon points="2595.13,3275.30 2621.18,3350.94 2348.87,3444.70 2322.82,3369.06" fill="rgb(45,97,234)" fill-opacity="0.502"/>
<polygon points="1680.00,800.00 1680.00,384.00 1744.00,384.00 1744.00,800.00" fill="rgb(0,42,255)" fill-opacity="0.502"/>
<g transform="translate(3888.00 368.00) rotate(212) scale(208.00 272.00)"><ellipse cx="0" cy="0" rx="1" ry="1" fill="rgb(12,34,39)" fill-opacity="0.502"/></g>
<circle cx="2240.00" cy="3632.00" r="96.00" fill="rgb(196,255,255)" fill-opacity="0.502"/>
<g transform="translate(5296.00 48.00) rotate(316) scale(416.00 384.00)"><ellipse cx="0" cy="0" rx="1" ry="1" fill="rgb(13,28,31)" fill-opacity="0.502"/></g>
<polygon points="1220.61,632.73 1228.97,553.17 1515.39,583.27 1507.03,662.83" fill="rgb(54,97,202)" fill-opacity="0.502"/>
<circle cx="6704.00" cy="1920.00" r="160.00" fill="rgb(0,0,36)" fill-opacity="0.502"/>
<circle cx="5376.00" cy="2576.00" r="96.00" fill="rgb(220,36,98)" fill-opacity="0.502"/>
<polygon points="6514.21,456.55 6479.80,366.93 6957.79,183.45 6992.20,273.07" fill="rgb(65,135,255)" fill-opacity="0.502"/>
<g transform="translate(5136.00 2416.00) rotate(77) scale(176.00 640.00)"><ellipse cx="0" cy="0" rx="1" ry="1" fill="rgb(69,65,94)" fill-opacity="0.502"/></g>
<polygon points="4439.06,3166.22 4303.06,3401.78 3928.94,3185.78 4064.94,2950.22" fill="rgb(0,0,42)" fill-opacity="0.502"/>
<circle cx="5136.00" cy="2944.00" r="96.00" fill="rgb(0,0,0)" fill-opacity="0.502"/>
<g transform="translate(1376.00 3936.00) rotate(35) scale(240.00 320.00)"><ellipse cx="0" cy="0" rx="1" ry="1" fill="rgb(184,245,255)" fill-opacity="0.502"/></g>
<polygon points="6426.83,3690.57 6462.80,3601.56 6789.17,3733.43 6753.20,3822.44" fill="rgb(0,1,147)" fill-opacity="0.502"/>
<polygon points="3676.39,1831.77 3520.38,1608.96 3795.61,1416.23 3951.62,1639.04" fill="rgb(15,31,64)" fill-opacity="0.502"/>
<circle cx="4688.00" cy="2928.00" r="112.00" fill="rgb(42,115,255)" fill-opacity="0.502"/>
<g transform="translate(4880.00 1632.00) rotate(230) scale(48.00 208.00)"><ellipse cx="0" cy="0" rx="1" ry="1" fill="rgb(71,130,137)" fill-opacity="0.502"/></g>
<circle cx="3280.00" cy="1968.00" r="48.00" fill="rgb(193,191,212)" fill-opacity="0.502"/>
<circle cx="3472.00" cy="3664.00" r="400.00" fill="rgb(0,0,10)" fill-opacity="0.502"/>
<circle cx="6928.00" cy="368.00" r="80.00" fill="rgb(0,0,1)" fill-opacity="0.502"/>
<polygon points="6998.57,1021.56 7084.22,1116.68 6953.43,1234.44 6867.78,1139.32" fill="rgb(63,106,255)" fill-opacity="0.502"/>
<polygon points="4313.66,2449.01 4551.33,2482.41 4502.34,2830.99 4264.67,2797.59" fill="rgb(11,31,82)" fill-opacity="0.502"/>
<g transform="translate(2912.00 2752.00) rotate(31) scale(352.00 80.00)"><ellipse cx="0" cy="0" rx="1" ry="1" fill="rgb(0,0,0)" fill-opacity="0.502"/></g>
<polygon points="1183.12,3672.62 1168.87,4488.50 1104.88,4487.38 1119.13,3671.50" fill="rgb(188,237,255)" fill-opacity="0.502"/>
<circle cx="3488.00" cy="16.00" r="144.00" fill="rgb(12,95,236)" fill-opacity="0.502"/>
<g transform="translate(2784.00 3120.00) rotate(94) scale(112.00 608.00)"><ellipse cx="0" cy="0" rx="1" ry="1" fill="rgb(11,11,93)" fill-opacity="0.502"/></g>
<polygon points="3788.49,1961.38 3776.28,2024.20 3603.51,1990.62 3615.72,1927.80" fill="rgb(126,164,213)" fill-opacity="0.502"/>
<g transform="translate(1552.00 2352.00) rotate(98) scale(448.00 112.00)"><ellipse cx="0" cy="0" rx="1" ry="1" fill="rgb(9,17,92)" fill-opacity="0.502"/></g>
<polygon points="5818.08,2557.03 5829.81,2892.83 5653.92,2898.97 5642.19,2563.17" fill="rgb(0,0,35)" fill-opacity="0.502"/>
<circle cx="2256.00" cy="2656.00" r="144.00" fill="rgb(13,13,100)" fill-opacity="0.502"/>
<g transform="translate(1248.00 2288.00) rotate(294) scale(224.00 224.00)"><ellipse cx="0" cy="0" rx="1" ry="1" fill="rgb(0,0,25)" fill-opacity="0.502"/></g>
<circle cx="1296.00" cy="384.00" r="208.00" fill="rgb(246,255,255)" fill-opacity="0.502"/>
<circle cx="2416.00" cy="2640.00" r="160.00" fill="rgb(0,0,4)" fill-opacity="0.502"/>
<polygon points="3600.17,1401.22 3695.15,1460.58 3423.83,1894.78 3328.85,1835.42" fill="rgb(0,0,16)" fill-opacity="0.502"/>
<circle cx="4400.00" cy="2176.00" r="176.00" fill="rgb(45,51,53)" fill-opacity="0.502"/>
<circle cx="4768.00" cy="1600.00" r="64.00" fill="rgb(245,255,255)" fill-opacity="0.502"/>
<polygon points="6401.42,3042.04 6227.59,3069.57 6222.58,3037.96 6396.41,3010.43" fill="rgb(54,135,255)" fill-opacity="0.502"/>
<polygon points="6598.49,726.17 6730.04,784.74 6697.51,857.83 6565.96,799.26" fill="rgb(41,87,255)" fill-opacity="0.502"/>
<circle cx="6512.00" cy="3296.00" r="128.00" fill="rgb(0,2,21)" fill-opacity="0.502"/>
<polygon points="1973.55,1595.18 2049.60,975.83 3002.45,1092.82 2926.40,1712.17" fill="rgb(0,0,2)" fill-opacity="0.502"/>
<g transform="translate(1760.00 4352.00) rotate(87) scale(208.00 256.00)"><ellipse cx="0" cy="0" rx="1" ry="1" fill="rgb(187,238,252)" fill-opacity="0.502"/></g>
<polygon points="6553.71,2377.66 7125.54,2530.88 7030.29,2886.34 6458.46,2733.12" fill="rgb(3,22,78)" fill-opacity="0.502"/>
<polygon points="2907.92,4773.17 2932.21,4309.81 3028.08,4314.83 3003.79,4778.19" fill="rgb(99,187,255)" fill-opacity="0.502"/>
<polygon points="4819.71,1178.18 4574.57,1383.87 4492.29,1285.82 4737.43,1080.13" fill="rgb(182,209,237)" fill-opacity="0.502"/>
<polygon points="3380.40,3344.25 3422.71,3043.21 3739.60,3087.75 3697.29,3388.79" fill="rgb(0,0,13)" fill-opacity="0.502"/>
<circle cx="7600.00" cy="80.00" r="528.00" fill="rgb(0,0,0)" fill-opacity="0.502"/>
<circle cx="2096.00" cy="416.00" r="112.00" fill="rgb(11,15,37)" fill-opacity="0.502"/>
<polygon points="5886.19,2045.27 5841.34,2410.53 5777.81,2402.73 5822.66,2037.47" fill="rgb(189,199,255)" fill-opacity="0.502"/>
<circle cx="4448.00" cy="1280.00" r="96.00" fill="rgb(183,228,255)" fill-opacity="0.502"/>
<g transform="translate(1568.00 688.00) rotate(39) scale(48.00 192.00)"><ellipse cx="0" cy="0" rx="1" ry="1" fill="rgb(241,255,255)" fill-opacity="0.502"/></g>
<circle cx="112.00" cy="2160.00" r="992.00" fill="rgb(0,0,0)" fill-opacity="0.502"/>
<circle cx="1712.00" cy="848.00" r="48.00" fill="rgb(0,39,255)" fill-opacity="0.502"/>
<polygon points="2189.82,3959.52 2373.48,4057.17 2178.18,4424.48 1994.52,4326.83" fill="rgb(157,231,255)" fill-opacity="0.502"/>
<circle cx="2560.00" cy="3344.00" r="80.00" fill="rgb(49,102,228)" fill-opacity="0.502"/>
<circle cx="3824.00" cy="2320.00" r="240.00" fill="rgb(40,32,57)" fill-opacity="0.502"/>
<polygon points="1832.99,3289.93 1894.18,3024.90 2471.01,3158.07 2409.82,3423.10" fill="rgb(0,5,53)" fill-opacity="0.502"/>
<polygon points="5660.61,3189.00 6007.01,2790.51 6067.39,2843.00 5720.99,3241.49" fill="rgb(0,0,16)" fill-opacity="0.502"/>
<g transform="translate(3440.00 1104.00) rotate(151) scale(208.00 64.00)"><ellipse cx="0" cy="0" rx="1" ry="1" fill="rgb(87,136,235)" fill-opacity="0.502"/></g>
<polygon points="6930.30,1561.81 6958.19,1243.03 7085.70,1254.19 7057.81,1572.97" fill="rgb(30,106,255)" fill-opacity="0.502"/>
<g transform="translate(4704.00 2048.00) rotate(271) scale(96.00 288.00)"><ellipse cx="0" cy="0" rx="1" ry="1" fill="rgb(45,52,51)" fill-opacity="0.502"/></g>
<polygon points="3609.46,633.76 3714.31,707.18 3622.54,838.24 3517.69,764.82" fill="rgb(117,141,80)" fill-opacity="0.502"/>
<g transform="translate(1296.00 3408.00) rotate(0) scale(208.00 80.00)"><ellipse cx="0" cy="0" rx="1" ry="1" fill="rgb(32,84,190)" fill-opacity="0.502"/></g>
<circle cx="2016.00" cy="1280.00" r="368.00" fill="rgb(0,0,14)" fill-opacity="0.502"/>
<circle cx="4576.00" cy="3488.00" r="480.00" fill="rgb(0,0,4)" fill-opacity="0.502"/>
<circle cx="2512.00" cy="624.00" r="192.00" fill="rgb(27,12,9)" fill-opacity="0.502"/>
<g transform="translate(2272.00 48.00) rotate(360) scale(800.00 240.00)"><ellipse cx="0" cy="0" rx="1" ry="1" fill="rgb(52,134,221)" fill-opacity="0.502"/></g>
<g transform="translate(3616.00 2560.00) rotate(96) scale(384.00 64.00)"><ellipse cx="0" cy="0" rx="1" ry="1" fill="rgb(68,61,129)" fill-opacity="0.502"/></g>
<polygon points="6752.27,3249.24 6909.08,3169.34 7119.73,3582.76 6962.92,3662.66" fill="rgb(15,30,130)" fill-opacity="0.502"/>
<polygon points="2210.22,4384.57 2252.53,4685.61 2125.78,4703.43 2083.47,4402.39" fill="rgb(100,194,255)" fill-opacity="0.502"/>
<polygon points="1421.28,4375.89 1117.70,4359.98 1122.72,4264.11 1426.30,4280.02" fill="rgb(115,184,232)" fill-opacity="0.502"/>
<circle cx="5600.00" cy="2480.00" r="112.00" fill="rgb(58,56,83)" fill-opacity="0.502"/>
<circle cx="2656.00" cy="1968.00" r="144.00" fill="rgb(35,23,26)" fill-opacity="0.502"/>
<circle cx="3888.00" cy="4528.00" r="336.00" fill="rgb(0,0,4)" fill-opacity="0.502"/>
<polygon points="5833.27,976.33 5649.78,847.84 5750.73,703.67 5934.22,832.16" fill="rgb(24,37,133)" fill-opacity="0.502"/>
<polygon points="4976.32,1196.71 4967.16,1243.83 4511.68,1155.29 4520.84,1108.17" fill="rgb(31,63,93)" fill-opacity="0.502"/>
<g transform="translate(4320.00 1968.00) rotate(319) scale(48.00 64.00)"><ellipse cx="0" cy="0" rx="1" ry="1" fill="rgb(225,239,238)" fill-opacity="0.502"/></g>
<g transform="translate(2656.00 80.00) rotate(62) scale(160.00 400.00)"><ellipse cx="0" cy="0" rx="1" ry="1" fill="rgb(64,149,231)" fill-opacity="0.502"/></g>
<circle cx="5824.00" cy="240.00" r="176.00" fill="rgb(0,0,0)" fill-opacity="0.502"/>
<g transform="translate(1296.00 1408.00) rotate(294) scale(160.00 128.00)"><ellipse cx="0" cy="0" rx="1" ry="1" fill="rgb(0,0,22)" fill-opacity="0.502"/></g>
<polygon points="3935.44,1217.84 4312.46,1393.65 4224.56,1582.16 3847.54,1406.35" fill="rgb(93,147,255)" fill-opacity="0.502"/>
<g transform="translate(1216.00 0.00) rotate(359) scale(112.00 224.00)"><ellipse cx="0" cy="0" rx="1" ry="1" fill="rgb(255,255,255)" fill-opacity="0.502"/></g>
<polygon points="5549.95,2112.49 5549.95,2112.49 5522.05,2511.51 5522.05,2511.51" fill="rgb(233,228,248)" fill-opacity="0.502"/>
<circle cx="2176.00" cy="576.00" r="160.00" fill="rgb(62,45,15)" fill-opacity="0.502"/>
<polygon points="4374.01,1219.13 4518.44,1410.80 4313.99,1564.87 4169.56,1373.20" fill="rgb(87,139,255)" fill-opacity="0.502"/>
<g transform="translate(3952.00 3872.00) rotate(45) scale(448.00 464.00)"><ellipse cx="0" cy="0" rx="1" ry="1" fill="rgb(0,0,3)" fill-opacity="0.502"/></g>
<g transform="translate(1888.00 704.00) rotate(52) scale(112.00 160.00)"><ellipse cx="0" cy="0" rx="1" ry="1" fill="rgb(0,16,46)" fill-opacity="0.502"/></g>
<circle cx="6320.00" cy="784.00" r="64.00" fill="rgb(56,121,255)" fill-opacity="0.502"/>
<circle cx="6768.00" cy="1072.00" r="96.00" fill="rgb(43,95,253)" fill-opacity="0.502"/>
<circle cx="6448.00" cy="1328.00" r="224.00" fill="rgb(8,8,59)" fill-opacity="0.502"/>
<g transform="translate(6480.00 240.00) rotate(67) scale(112.00 912.00)"><ellipse cx="0" cy="0" rx="1" ry="1" fill="rgb(0,0,79)" fill-opacity="0.502"/></g>
<g transform="translate(6560.00 1216.00) rotate(275) scale(224.00 16.00)"><ellipse cx="0" cy="0" rx="1" ry="1" fill="rgb(79,97,235)" fill-opacity="0.502"/></g>
<polygon points="5610.75,2398.09 5512.70,2315.81 5749.25,2033.91 5847.30,2116.19" fill="rgb(73,83,99)" fill-opacity="0.502"/>
<g transform="translate(416.00 4288.00) rotate(103) scale(944.00 672.00)"><ellipse cx="0" cy="0" rx="1" ry="1" fill="rgb(0,0,0)" fill-opacity="0.502"/></g>
<g transform="translate(3456.00 2992.00) rotate(113) scale(144.00 160.00)"><ellipse cx="0" cy="0" rx="1" ry="1" fill="rgb(14,14,73)" fill-opacity="0.502"/></g>
<circle cx="5584.00" cy="2720.00" r="112.00" fill="rgb(13,52,168)" fill-opacity="0.502"/>
<polygon points="1292.61,1695.27 1579.03,1665.17 1587.39,1744.73 1300.97,1774.83" fill="rgb(73,76,104)" fill-opacity="0.502"/>
<circle cx="6160.00" cy="2896.00" r="64.00" fill="rgb(0,0,0)" fill-opacity="0.502"/>
<polygon points="2979.50,278.72 2969.75,358.13 2604.50,313.28 2614.25,233.87" fill="rgb(24,95,197)" fill-opacity="0.502"/>
<circle cx="5264.00" cy="2160.00" r="48.00" fill="rgb(0,0,10)" fill-opacity="0.502"/>
<polygon points="1879.21,1443.47 1580.79,1685.13 1288.79,1324.53 1587.21,1082.87" fill="rgb(0,0,10)" fill-opacity="0.502"/>
<g transform="translate(2688.00 4048.00) rotate(316) scale(608.00 128.00)"><ellipse cx="0" cy="0" rx="1" ry="1" fill="rgb(0,0,9)" fill-opacity="0.502"/></g>
<circle cx="624.00" cy="3648.00" r="480.00" fill="rgb(0,0,0)" fill-opacity="0.502"/>
<polygon points="3841.72,1049.80 3527.76,1322.72 3454.28,1238.20 3768.24,965.28" fill="rgb(6,27,113)" fill-opacity="0.502"/>
<g transform="translate(6336.00 2176.00) rotate(304) scale(144.00 224.00)"><ellipse cx="0" cy="0" rx="1" ry="1" fill="rgb(43,70,168)" fill-opacity="0.502"/></g>
<g transform="translate(4480.00 416.00) rotate(133) scale(160.00 368.00)"><ellipse cx="0" cy="0" rx="1" ry="1" fill="rgb(2,7,8)" fill-opacity="0.502"/></g>
<g transform="translate(1776.00 4048.00) rotate(118) scale(512.00 224.00)"><ellipse cx="0" cy="0" rx="1" ry="1" fill="rgb(186,239,251)" fill-opacity="0.502"/></g>
<polygon points="1101.93,4583.13 1181.04,4339.65 1394.07,4408.87 1314.96,4652.35" fill="rgb(206,254,255)" fill-opacity="0.502"/>
<polygon points="2153.06,1759.73 2150.27,1791.61 1974.94,1776.27 1977.73,1744.39" fill="rgb(175,181,190)" fill-opacity="0.502"/>
<polygon points="2684.07,4759.25 2552.19,4415.69 2611.93,4392.75 2743.81,4736.31" fill="rgb(0,0,169)" fill-opacity="0.502"/>
<circle cx="2736.00" cy="4560.00" r="112.00" fill="rgb(0,0,0)" fill-opacity="0.502"/>
<g transform="translate(6608.00 528.00) rotate(148) scale(384.00 48.00)"><ellipse cx="0" cy="0" rx="1" ry="1" fill="rgb(0,0,23)" fill-opacity="0.502"/></g>
<g transform="translate(1408.00 1056.00) rotate(223) scale(192.00 64.00)"><ellipse cx="0" cy="0" rx="1" ry="1" fill="rgb(0,24,50)" fill-opacity="0.502"/></g>
<g transform="translate(7824.00 3648.00) rotate(0) scale(736.00 4592.00)"><ellipse cx="0" cy="0" rx="1" ry="1" fill="rgb(0,0,0)" fill-opacity="0.502"/></g>
<circle cx="3888.00" cy="2000.00" r="64.00" fill="rgb(135,189,240)" fill-opacity="0.502"/>
<polygon points="4193.54,1642.87 4239.41,1523.38 4702.46,1701.13 4656.59,1820.62" fill="rgb(205,243,247)" fill-opacity="0.502"/>
<circle cx="2992.00" cy="3440.00" r="48.00" fill="rgb(183,255,255)" fill-opacity="0.502"/>
<polygon points="6611.14,321.11 6645.54,410.73 6092.86,622.89 6058.46,533.27" fill="rgb(84,137,255)" fill-opacity="0.502"/>
<circle cx="6048.00" cy="2080.00" r="160.00" fill="rgb(49,57,151)" fill-opacity="0.502"/>
<g transform="translate(5952.00 1840.00) rotate(146) scale(32.00 240.00)"><ellipse cx="0" cy="0" rx="1" ry="1" fill="rgb(136,151,231)" fill-opacity="0.502"/></g>
<g transform="translate(608.00 160.00) rotate(57) scale(464.00 512.00)"><ellipse cx="0" cy="0" rx="1" ry="1" fill="rgb(0,0,0)" fill-opacity="0.502"/></g>
<g transform="translate(4320.00 512.00) rotate(298) scale(512.00 160.00)"><ellipse cx="0" cy="0" rx="1" ry="1" fill="rgb(19,33,32)" fill-opacity="0.502"/></g>
<circle cx="5424.00" cy="1184.00" r="80.00" fill="rgb(109,113,97)" fill-opacity="0.502"/>
<polygon points="5760.00,800.00 5776.00,800.00 5776.00,1232.00 5760.00,1232.00" fill="rgb(175,199,255)" fill-opacity="0.502"/>
<polygon points="3337.08,1714.33 3286.83,2673.02 3222.92,2669.67 3273.17,1710.98" fill="rgb(154,158,185)" fill-opacity="0.502"/>
<polygon points="5687.56,628.81 5940.41,588.76 5960.44,715.19 5707.59,755.24" fill="rgb(112,148,255)" fill-opacity="0.502"/>
<circle cx="3264.00" cy="2800.00" r="96.00" fill="rgb(103,127,230)" fill-opacity="0.502"/>
<g transform="translate(1216.00 976.00) rotate(80) scale(48.00 128.00)"><ellipse cx="0" cy="0" rx="1" ry="1" fill="rgb(26,104,168)" fill-opacity="0.502"/></g>
<polygon points="6429.93,2452.78 6167.50,2754.66 5938.07,2555.22 6200.50,2253.34" fill="rgb(0,0,1)" fill-opacity="0.502"/>
<polygon points="1703.40,4215.93 1177.41,4261.94 1128.60,3704.07 1654.59,3658.06" fill="rgb(181,237,254)" fill-opacity="0.502"/>
<circle cx="5376.00" cy="2928.00" r="64.00" fill="rgb(135,29,254)" fill-opacity="0.502"/>
<g transform="translate(5264.00 4272.00) rotate(347) scale(1344.00 464.00)"><ellipse cx="0" cy="0" rx="1" ry="1" fill="rgb(0,0,3)" fill-opacity="0.502"/></g>
<circle cx="6064.00" cy="2768.00" r="80.00" fill="rgb(103,193,232)" fill-opacity="0.502"/>
<g transform="translate(4992.00 2656.00) rotate(89) scale(128.00 16.00)"><ellipse cx="0" cy="0" rx="1" ry="1" fill="rgb(218,212,255)" fill-opacity="0.502"/></g>
<polygon points="4061.05,3327.07 4019.91,3351.79 3986.95,3296.93 4028.09,3272.21" fill="rgb(254,255,255)" fill-opacity="0.502"/>
<g transform="translate(5648.00 1440.00) rotate(181) scale(48.00 336.00)"><ellipse cx="0" cy="0" rx="1" ry="1" fill="rgb(0,0,17)" fill-opacity="0.502"/></g>
<g transform="translate(1520.00 3008.00) rotate(41) scale(208.00 432.00)"><ellipse cx="0" cy="0" rx="1" ry="1" fill="rgb(0,1,25)" fill-opacity="0.502"/></g>
<g transform="translate(1632.00 2016.00) rotate(182) scale(96.00 272.00)"><ellipse cx="0" cy="0" rx="1" ry="1" fill="rgb(2,3,14)" fill-opacity="0.502"/></g>
<circle cx="7008.00" cy="800.00" r="64.00" fill="rgb(33,75,255)" fill-opacity="0.502"/>
<g transform="translate(6544.00 48.00) rotate(233) scale(96.00 176.00)"><ellipse cx="0" cy="0" rx="1" ry="1" fill="rgb(0,0,0)" fill-opacity="0.502"/></g>
<polygon points="2991.37,3424.76 2977.42,3265.37 3184.63,3247.24 3198.58,3406.63" fill="rgb(10,87,234)" fill-opacity="0.502"/>
<circle cx="2288.00" cy="3760.00" r="48.00" fill="rgb(139,228,255)" fill-opacity="0.502"/>
<polygon points="4932.63,3061.34 5146.66,2868.63 5339.37,3082.66 5125.34,3275.37" fill="rgb(0,0,0)" fill-opacity="0.502"/>
<polygon points="2971.55,522.10 2874.53,860.46 2628.45,789.90 2725.47,451.54" fill="rgb(4,17,44)" fill-opacity="0.502"/>
<polygon points="1228.18,2933.09 1516.00,2923.04 1523.82,3146.91 1236.00,3156.96" fill="rgb(6,14,57)" fill-opacity="0.502"/>
<g transform="translate(2256.00 32.00) rotate(351) scale(416.00 160.00)"><ellipse cx="0" cy="0" rx="1" ry="1" fill="rgb(84,163,242)" fill-opacity="0.502"/></g>
<polygon points="6204.88,1532.81 6480.69,1179.78 6531.12,1219.19 6255.31,1572.22" fill="rgb(0,0,35)" fill-opacity="0.502"/>
<polygon points="6667.80,1853.71 6783.92,2319.45 6644.20,2354.29 6528.08,1888.55" fill="rgb(0,16,68)" fill-opacity="0.502"/>
<circle cx="5984.00" cy="2736.00" r="64.00" fill="rgb(205,230,249)" fill-opacity="0.502"/>
<polygon points="4150.16,1195.38 3933.79,1253.36 3817.84,820.62 4034.21,762.64" fill="rgb(4,20,4)" fill-opacity="0.502"/>
<polygon points="2970.22,1269.91 3103.59,1131.80 3333.78,1354.09 3200.41,1492.20" fill="rgb(0,13,41)" fill-opacity="0.502"/>
<polygon points="5730.13,599.74 5705.12,540.82 6205.87,328.26 6230.88,387.18" fill="rgb(3,25,178)" fill-opacity="0.502"/>
<g transform="translate(2880.00 3840.00) rotate(321) scale(336.00 528.00)"><ellipse cx="0" cy="0" rx="1" ry="1" fill="rgb(0,0,12)" fill-opacity="0.502"/></g>
<polygon points="4235.73,1883.49 4646.06,1551.21 4676.27,1588.51 4265.94,1920.79" fill="rgb(215,236,243)" fill-opacity="0.502"/>
<g transform="translate(5216.00 944.00) rotate(3) scale(176.00 416.00)"><ellipse cx="0" cy="0" rx="1" ry="1" fill="rgb(6,9,16)" fill-opacity="0.502"/></g>
<g transform="translate(2928.00 3728.00) rotate(251) scale(640.00 80.00)"><ellipse cx="0" cy="0" rx="1" ry="1" fill="rgb(0,0,10)" fill-opacity="0.502"/></g>
<polygon points="4026.45,3176.21 4130.63,2873.65 4357.55,2951.79 4253.37,3254.35" fill="rgb(0,0,63)" fill-opacity="0.502"/>
<polygon points="4629.44,325.68 4816.52,368.87 4618.56,1226.32 4431.48,1183.13" fill="rgb(0,0,5)" fill-opacity="0.502"/>
<circle cx="3328.00" cy="448.00" r="64.00" fill="rgb(84,116,255)" fill-opacity="0.502"/>
<polygon points="6809.91,3738.18 6451.41,3600.57 6566.09,3301.82 6924.59,3439.43" fill="rgb(1,1,17)" fill-opacity="0.502"/>
<circle cx="1968.00" cy="4224.00" r="160.00" fill="rgb(160,228,250)" fill-opacity="0.502"/>
<circle cx="5776.00" cy="2720.00" r="80.00" fill="rgb(0,0,7)" fill-opacity="0.502"/>
<g transform="translate(6736.00 1584.00) rotate(90) scale(400.00 144.00)"><ellipse cx="0" cy="0" rx="1" ry="1" fill="rgb(1,3,38)" fill-opacity="0.502"/></g>
<polygon points="2512.00,4048.00 2400.00,4048.00 2400.00,3392.00 2512.00,3392.00" fill="rgb(5,0,65)" fill-opacity="0.502"/>
<g transform="translate(4496.00 2288.00) rotate(94) scale(400.00 16.00)"><ellipse cx="0" cy="0" rx="1" ry="1" fill="rgb(153,155,176)" fill-opacity="0.502"/></g>
<polygon points="7107.35,935.83 6507.52,1107.83 6476.65,1000.17 7076.48,828.17" fill="rgb(3,0,48)" fill-opacity="0.502"/>
<circle cx="3328.00" cy="1024.00" r="80.00" fill="rgb(0,4,30)" fill-opacity="0.502"/>
<circle cx="4960.00" cy="864.00" r="224.00" fill="rgb(15,31,26)" fill-opacity="0.502"/>
<polygon points="4710.54,1875.87 4717.23,1812.22 5401.46,1884.13 5394.77,1947.78" fill="rgb(89,96,119)" fill-opacity="0.502"/>
<circle cx="2240.00" cy="2656.00" r="96.00" fill="rgb(13,17,111)" fill-opacity="0.502"/>
<g transform="translate(6880.00 800.00) rotate(274) scale(32.00 240.00)"><ellipse cx="0" cy="0" rx="1" ry="1" fill="rgb(42,92,255)" fill-opacity="0.502"/></g>
<g transform="translate(2016.00 3904.00) rotate(130) scale(192.00 128.00)"><ellipse cx="0" cy="0" rx="1" ry="1" fill="rgb(206,253,255)" fill-opacity="0.502"/></g>
<polygon points="5915.82,3727.13 5924.20,3247.20 6020.18,3248.87 6011.80,3728.80" fill="rgb(23,41,126)" fill-opacity="0.502"/>
<polygon points="3051.39,1782.08 2843.02,2387.22 2676.61,2329.92 2884.98,1724.78" fill="rgb(86,52,72)" fill-opacity="0.502"/>
<polygon points="3323.20,399.48 3242.68,280.10 3348.80,208.52 3429.32,327.90" fill="rgb(0,0,125)" fill-opacity="0.502"/>
<g transform="translate(3792.00 2736.00) rotate(280) scale(176.00 64.00)"><ellipse cx="0" cy="0" rx="1" ry="1" fill="rgb(70,65,160)" fill-opacity="0.502"/></g>
<circle cx="1856.00" cy="816.00" r="128.00" fill="rgb(4,19,47)" fill-opacity="0.502"/>
<g transform="translate(5120.00 2256.00) rotate(202) scale(64.00 176.00)"><ellipse cx="0" cy="0" rx="1" ry="1" fill="rgb(39,34,34)" fill-opacity="0.502"/></g>
<circle cx="1984.00" cy="3504.00" r="96.00" fill="rgb(0,25,113)" fill-opacity="0.502"/>
<polygon points="6276.15,1239.67 6248.79,1164.50 6699.85,1000.33 6727.21,1075.50" fill="rgb(0,0,45)" fill-opacity="0.502"/>
<polygon points="6672.00,592.00 6672.00,496.00 7056.00,496.00 7056.00,592.00" fill="rgb(56,107,255)" fill-opacity="0.502"/>
<polygon points="3541.12,1098.65 3362.43,1344.59 3258.88,1269.35 3437.57,1023.41" fill="rgb(26,78,169)" fill-opacity="0.502"/>
<g transform="translate(5296.00 32.00) rotate(102) scale(64.00 160.00)"><ellipse cx="0" cy="0" rx="1" ry="1" fill="rgb(33,54,58)" fill-opacity="0.502"/></g>
<polygon points="1551.55,4570.26 1077.46,4645.35 1072.45,4613.74 1546.54,4538.65" fill="rgb(200,253,255)" fill-opacity="0.502"/>
<circle cx="1312.00" cy="3840.00" r="176.00" fill="rgb(198,245,250)" fill-opacity="0.502"/>
<circle cx="5904.00" cy="1024.00" r="64.00" fill="rgb(168,206,251)" fill-opacity="0.502"/>
<polygon points="6586.61,1866.25 6897.36,1566.16 6997.39,1669.75 6686.64,1969.84" fill="rgb(3,12,82)" fill-opacity="0.502"/>
<g transform="translate(1216.00 688.00) rotate(288) scale(304.00 64.00)"><ellipse cx="0" cy="0" rx="1" ry="1" fill="rgb(255,255,255)" fill-opacity="0.502"/></g>
</g>
</svg>