<?xml version="1.0" standalone="no"?>
<svg xmlns="http://www.w3.org/2000/svg" width="8192" height="4608" viewBox="0 0 8192 4608" style="overflow:hidden">
<defs>
<clipPath id="c"><rect x="0" y="0" width="8192" height="4608"/></clipPath>
</defs>
<rect width="8192" height="4608" fill="rgb(65,48,38)"/>
<g clip-path="url(#c)">
<circle cx="4384.00" cy="576.00" r="1488.00" fill="rgb(255,255,223)" fill-opacity="0.502"/>
<polygon points="6456.71,1973.51 6439.39,981.66 7079.29,970.49 7096.61,1962.34" fill="rgb(255,255,255)" fill-opacity="0.502"/>
<circle cx="5584.00" cy="1664.00" r="432.00" fill="rgb(255,255,241)" fill-opacity="0.502"/>
<circle cx="3632.00" cy="416.00" r="512.00" fill="rgb(255,255,229)" fill-opacity="0.502"/>
<g transform="translate(6752.00 544.00) rotate(179) scale(352.00 1488.00)"><ellipse cx="0" cy="0" rx="1" ry="1" fill="rgb(255,255,250)" fill-opacity="0.502"/></g>
<g transform="translate(448.00 2560.00) rotate(74) scale(7360.00 1520.00)"><ellipse cx="0" cy="0" rx="1" ry="1" fill="rgb(0,0,0)" fill-opacity="0.502"/></g>
<g transform="translate(4752.00 416.00) rotate(81) scale(800.00 288.00)"><ellipse cx="0" cy="0" rx="1" ry="1" fill="rgb(255,255,233)" fill-opacity="0.502"/></g>
<g transform="translate(3408.00 1200.00) rotate(218) scale(896.00 576.00)"><ellipse cx="0" cy="0" rx="1" ry="1" fill="rgb(255,168,126)" fill-opacity="0.502"/></g>
<g transform="translate(4496.00 1904.00) rotate(273) scale(256.00 400.00)"><ellipse cx="0" cy="0" rx="1" ry="1" fill="rgb(0,0,0)" fill-opacity="0.502"/></g>
<g transform="translate(5248.00 1584.00) rotate(283) scale(784.00 640.00)"><ellipse cx="0" cy="0" rx="1" ry="1" fill="rgb(248,167,130)" fill-opacity="0.502"/></g>
<circle cx="8176.00" cy="3296.00" r="1824.00" fill="rgb(0,0,0)" fill-opacity="0.502"/>
<g transform="translate(4320.00 688.00) rotate(92) scale(1008.00 160.00)"><ellipse cx="0" cy="0" rx="1" ry="1" fill="rgb(11,0,0)" fill-opacity="0.502"/></g>
<circle cx="2304.00" cy="1008.00" r="976.00" fill="rgb(131,49,12)" fill-opacity="0.502"/>
<g transform="translate(7856.00 832.00) rotate(203) scale(640.00 1280.00)"><ellipse cx="0" cy="0" rx="1" ry="1" fill="rgb(0,0,0)" fill-opacity="0.502"/></g>
<g transform="translate(3680.00 864.00) rotate(244) scale(656.00 416.00)"><ellipse cx="0" cy="0" rx="1" ry="1" fill="rgb(255,232,209)" fill-opacity="0.502"/></g>
<circle cx="8176.00" cy="3248.00" r="1376.00" fill="rgb(0,0,0)" fill-opacity="0.502"/>
<circle cx="368.00" cy="2816.00" r="1808.00" fill="rgb(0,0,0)" fill-opacity="0.502"/>
<circle cx="3456.00" cy="4064.00" r="1104.00" fill="rgb(4,0,0)" fill-opacity="0.502"/>
<circle cx="7760.00" cy="560.00" r="720.00" fill="rgb(0,0,0)" fill-opacity="0.502"/>
<g transform="translate(3136.00 2352.00) rotate(252) scale(352.00 1136.00)"><ellipse cx="0" cy="0" rx="1" ry="1" fill="rgb(0,0,0)" fill-opacity="0.502"/></g>
<g transform="translate(2320.00 3072.00) rotate(283) scale(304.00 160.00)"><ellipse cx="0" cy="0" rx="1" ry="1" fill="rgb(244,218,196)" fill-opacity="0.502"/></g>
<circle cx="4848.00" cy="2928.00" r="672.00" fill="rgb(18,10,3)" fill-opacity="0.502"/>
<g transform="translate(4960.00 224.00) rotate(310) scale(416.00 1024.00)"><ellipse cx="0" cy="0" rx="1" ry="1" fill="rgb(255,186,154)" fill-opacity="0.502"/></g>
<g transform="translate(2944.00 2960.00) rotate(319) scale(240.00 160.00)"><ellipse cx="0" cy="0" rx="1" ry="1" fill="rgb(255,255,249)" fill-opacity="0.502"/></g>
<circle cx="144.00" cy="736.00" r="1472.00" fill="rgb(0,0,0)" fill-opacity="0.502"/>
<circle cx="1904.00" cy="1776.00" r="512.00" fill="rgb(97,41,17)" fill-opacity="0.502"/>
<g transform="translate(4256.00 2352.00) rotate(39) scale(480.00 784.00)"><ellipse cx="0" cy="0" rx="1" ry="1" fill="rgb(37,10,3)" fill-opacity="0.502"/></g>
<polygon points="5017.94,1685.95 4330.05,1673.94 4342.06,986.05 5029.95,998.06" fill="rgb(250,182,149)" fill-opacity="0.502"/>
<circle cx="7568.00" cy="304.00" r="496.00" fill="rgb(0,0,0)" fill-opacity="0.502"/>
<polygon points="5800.23,2328.24 5867.84,2455.39 5415.77,2695.76 5348.16,2568.61" fill="rgb(255,255,255)" fill-opacity="0.502"/>
<g transform="translate(6720.00 3584.00) rotate(274) scale(1648.00 352.00)"><ellipse cx="0" cy="0" rx="1" ry="1" fill="rgb(72,48,29)" fill-opacity="0.502"/></g>
<circle cx="6368.00" cy="2640.00" r="608.00" fill="rgb(12,1,0)" fill-opacity="0.502"/>
<g transform="translate(3344.00 3008.00) rotate(172) scale(288.00 400.00)"><ellipse cx="0" cy="0" rx="1" ry="1" fill="rgb(47,20,3)" fill-opacity="0.502"/></g>
<g transform="translate(3776.00 2400.00) rotate(102) scale(112.00 208.00)"><ellipse cx="0" cy="0" rx="1" ry="1" fill="rgb(255,173,115)" fill-opacity="0.502"/></g>
<circle cx="6096.00" cy="416.00" r="368.00" fill="rgb(0,0,1)" fill-opacity="0.502"/>
<circle cx="6768.00" cy="1632.00" r="352.00" fill="rgb(255,241,208)" fill-opacity="0.502"/>
<circle cx="5344.00" cy="1088.00" r="352.00" fill="rgb(179,103,67)" fill-opacity="0.502"/>
<circle cx="3056.00" cy="368.00" r="432.00" fill="rgb(201,119,83)" fill-opacity="0.502"/>
<circle cx="7712.00" cy="1424.00" r="640.00" fill="rgb(0,0,0)" fill-opacity="0.502"/>
<circle cx="6752.00" cy="3696.00" r="336.00" fill="rgb(81,72,55)" fill-opacity="0.502"/>
<circle cx="4624.00" cy="0.00" r="304.00" fill="rgb(255,235,214)" fill-opacity="0.502"/>
<polygon points="5758.75,262.13 6218.24,197.55 6385.25,1385.87 5925.76,1450.45" fill="rgb(0,0,5)" fill-opacity="0.502"/>
<polygon points="5588.72,1821.03 5376.16,1320.27 5803.28,1138.97 6015.84,1639.73" fill="rgb(255,240,215)" fill-opacity="0.502"/>
<g transform="translate(256.00 2944.00) rotate(1) scale(896.00 4592.00)"><ellipse cx="0" cy="0" rx="1" ry="1" fill="rgb(0,0,0)" fill-opacity="0.502"/></g>
<circle cx="6784.00" cy="1040.00" r="304.00" fill="rgb(255,238,202)" fill-opacity="0.502"/>
<circle cx="5312.00" cy="4592.00" r="848.00" fill="rgb(25,17,6)" fill-opacity="0.502"/>
<g transform="translate(6752.00 224.00) rotate(51) scale(272.00 368.00)"><ellipse cx="0" cy="0" rx="1" ry="1" fill="rgb(255,245,207)" fill-opacity="0.502"/></g>
<circle cx="2624.00" cy="3504.00" r="400.00" fill="rgb(31,18,9)" fill-opacity="0.502"/>
<polygon points="2924.17,3114.50 2799.45,3085.71 2867.83,2789.50 2992.55,2818.29" fill="rgb(255,255,255)" fill-opacity="0.502"/>
<polygon points="4150.25,1069.70 4107.02,575.59 4441.75,546.30 4484.98,1040.41" fill="rgb(0,0,10)" fill-opacity="0.502"/>
<g transform="translate(3872.00 192.00) rotate(92) scale(1248.00 240.00)"><ellipse cx="0" cy="0" rx="1" ry="1" fill="rgb(255,249,228)" fill-opacity="0.502"/></g>
<circle cx="5136.00" cy="1776.00" r="288.00" fill="rgb(255,208,176)" fill-opacity="0.502"/>
<g transform="translate(5792.00 1776.00) rotate(246) scale(224.00 192.00)"><ellipse cx="0" cy="0" rx="1" ry="1" fill="rgb(255,255,236)" fill-opacity="0.502"/></g>
<polygon points="6451.32,2142.81 5189.05,2208.97 5180.68,2049.19 6442.95,1983.03" fill="rgb(12,0,0)" fill-opacity="0.502"/>
<g transform="translate(3728.00 3488.00) rotate(353) scale(320.00 384.00)"><ellipse cx="0" cy="0" rx="1" ry="1" fill="rgb(69,53,40)" fill-opacity="0.502"/></g>
<polygon points="2836.99,151.40 1787.30,1358.93 1099.01,760.60 2148.70,-446.93" fill="rgb(72,32,13)" fill-opacity="0.502"/>
<circle cx="5584.00" cy="2592.00" r="144.00" fill="rgb(255,234,202)" fill-opacity="0.502"/>
<circle cx="2928.00" cy="2272.00" r="496.00" fill="rgb(1,0,0)" fill-opacity="0.502"/>
<g transform="translate(5136.00 1376.00) rotate(295) scale(224.00 512.00)"><ellipse cx="0" cy="0" rx="1" ry="1" fill="rgb(199,136,102)" fill-opacity="0.502"/></g>
<polygon points="2250.13,2825.38 2381.99,2587.48 2661.87,2742.62 2530.01,2980.52" fill="rgb(101,62,82)" fill-opacity="0.502"/>
<polygon points="4689.15,2275.35 4199.25,2197.76 4286.85,1644.65 4776.75,1722.24" fill="rgb(0,0,6)" fill-opacity="0.502"/>
<circle cx="4912.00" cy="2192.00" r="96.00" fill="rgb(255,255,255)" fill-opacity="0.502"/>
<circle cx="3088.00" cy="1328.00" r="464.00" fill="rgb(185,106,69)" fill-opacity="0.502"/>
<circle cx="7680.00" cy="4176.00" r="784.00" fill="rgb(0,0,0)" fill-opacity="0.502"/>
<polygon points="1989.58,2528.38 1622.80,2908.20 1162.42,2463.62 1529.20,2083.80" fill="rgb(63,25,9)" fill-opacity="0.502"/>
<circle cx="7328.00" cy="1696.00" r="256.00" fill="rgb(0,0,0)" fill-opacity="0.502"/>
<polygon points="5531.39,2707.99 5357.31,2848.95 4964.61,2364.01 5138.69,2223.05" fill="rgb(68,40,22)" fill-opacity="0.502"/>
<polygon points="5023.35,790.30 4767.35,1233.70 4448.65,1049.70 4704.65,606.30" fill="rgb(255,229,202)" fill-opacity="0.502"/>
<g transform="translate(8016.00 3088.00) rotate(174) scale(928.00 2608.00)"><ellipse cx="0" cy="0" rx="1" ry="1" fill="rgb(0,0,0)" fill-opacity="0.502"/></g>
<circle cx="2288.00" cy="2352.00" r="304.00" fill="rgb(1,0,0)" fill-opacity="0.502"/>
<circle cx="2192.00" cy="4592.00" r="1168.00" fill="rgb(13,9,1)" fill-opacity="0.502"/>
<polygon points="3351.31,320.07 3562.51,1108.26 3160.69,1215.93 2949.49,427.74" fill="rgb(208,152,122)" fill-opacity="0.502"/>
<g transform="translate(6288.00 1600.00) rotate(3) scale(112.00 1744.00)"><ellipse cx="0" cy="0" rx="1" ry="1" fill="rgb(9,1,17)" fill-opacity="0.502"/></g>
<g transform="translate(4768.00 560.00) rotate(316) scale(224.00 384.00)"><ellipse cx="0" cy="0" rx="1" ry="1" fill="rgb(255,223,200)" fill-opacity="0.502"/></g>
<g transform="translate(6512.00 4256.00) rotate(228) scale(448.00 592.00)"><ellipse cx="0" cy="0" rx="1" ry="1" fill="rgb(39,32,18)" fill-opacity="0.502"/></g>
<polygon points="4167.71,1601.03 4218.03,1802.85 3752.29,1918.97 3701.97,1717.15" fill="rgb(255,255,255)" fill-opacity="0.502"/>
<g transform="translate(6064.00 2944.00) rotate(254) scale(480.00 1312.00)"><ellipse cx="0" cy="0" rx="1" ry="1" fill="rgb(34,22,13)" fill-opacity="0.502"/></g>
<polygon points="3901.13,607.85 3346.87,287.85 3586.87,-127.85 4141.13,192.15" fill="rgb(255,223,200)" fill-opacity="0.502"/>
<circle cx="6736.00" cy="640.00" r="192.00" fill="rgb(180,89,52)" fill-opacity="0.502"/>
<circle cx="4944.00" cy="848.00" r="240.00" fill="rgb(255,203,177)" fill-opacity="0.502"/>
<circle cx="5328.00" cy="0.00" r="496.00" fill="rgb(223,165,135)" fill-opacity="0.502"/>
<g transform="translate(2672.00 656.00) rotate(0) scale(208.00 1232.00)"><ellipse cx="0" cy="0" rx="1" ry="1" fill="rgb(127,60,28)" fill-opacity="0.502"/></g>
<g transform="translate(6640.00 3184.00) rotate(61) scale(304.00 496.00)"><ellipse cx="0" cy="0" rx="1" ry="1" fill="rgb(50,28,17)" fill-opacity="0.502"/></g>
<circle cx="1792.00" cy="1424.00" r="464.00" fill="rgb(82,40,20)" fill-opacity="0.502"/>
<circle cx="2880.00" cy="3296.00" r="192.00" fill="rgb(63,36,22)" fill-opacity="0.502"/>
<circle cx="1712.00" cy="208.00" r="464.00" fill="rgb(66,30,13)" fill-opacity="0.502"/>
<circle cx="352.00" cy="656.00" r="944.00" fill="rgb(0,0,0)" fill-opacity="0.502"/>
<g transform="translate(7616.00 480.00) rotate(254) scale(944.00 480.00)"><ellipse cx="0" cy="0" rx="1" ry="1" fill="rgb(0,0,0)" fill-opacity="0.502"/></g>
<g transform="translate(4624.00 2320.00) rotate(360) scale(192.00 240.00)"><ellipse cx="0" cy="0" rx="1" ry="1" fill="rgb(81,53,37)" fill-opacity="0.502"/></g>
<g transform="translate(400.00 2800.00) rotate(88) scale(5328.00 688.00)"><ellipse cx="0" cy="0" rx="1" ry="1" fill="rgb(0,0,0)" fill-opacity="0.502"/></g>
<circle cx="4912.00" cy="1616.00" r="224.00" fill="rgb(255,243,217)" fill-opacity="0.502"/>
<polygon points="6145.99,3763.83 4754.20,3788.13 4750.01,3548.17 6141.80,3523.87" fill="rgb(107,89,67)" fill-opacity="0.502"/>
<polygon points="6485.43,2053.26 7077.34,2042.93 7098.57,3258.74 6506.66,3269.07" fill="rgb(65,38,23)" fill-opacity="0.502"/>
<polygon points="6710.37,991.64 6671.47,771.04 7049.63,704.36 7088.53,924.96" fill="rgb(255,224,201)" fill-opacity="0.502"/>
<polygon points="4354.70,1286.98 5410.46,964.20 5485.30,1209.02 4429.54,1531.80" fill="rgb(174,104,71)" fill-opacity="0.502"/>
<g transform="translate(4256.00 2704.00) rotate(246) scale(416.00 288.00)"><ellipse cx="0" cy="0" rx="1" ry="1" fill="rgb(67,45,28)" fill-opacity="0.502"/></g>
<g transform="translate(1712.00 1952.00) rotate(239) scale(176.00 288.00)"><ellipse cx="0" cy="0" rx="1" ry="1" fill="rgb(96,44,20)" fill-opacity="0.502"/></g>
<circle cx="6048.00" cy="192.00" r="272.00" fill="rgb(23,11,37)" fill-opacity="0.502"/>
<g transform="translate(1888.00 2560.00) rotate(1) scale(192.00 464.00)"><ellipse cx="0" cy="0" rx="1" ry="1" fill="rgb(12,10,3)" fill-opacity="0.502"/></g>
<polygon points="4620.89,3536.23 4562.92,3319.86 5011.11,3199.77 5069.08,3416.14" fill="rgb(0,1,0)" fill-opacity="0.502"/>
<circle cx="4832.00" cy="256.00" r="272.00" fill="rgb(252,217,193)" fill-opacity="0.502"/>
<circle cx="6592.00" cy="1008.00" r="176.00" fill="rgb(255,216,187)" fill-opacity="0.502"/>
<g transform="translate(5376.00 736.00) rotate(92) scale(1328.00 160.00)"><ellipse cx="0" cy="0" rx="1" ry="1" fill="rgb(187,128,95)" fill-opacity="0.502"/></g>
<circle cx="5344.00" cy="1664.00" r="368.00" fill="rgb(233,176,146)" fill-opacity="0.502"/>
<polygon points="3448.31,3337.30 3832.82,3227.04 3863.69,3334.70 3479.18,3444.96" fill="rgb(174,134,112)" fill-opacity="0.502"/>
<g transform="translate(4032.00 2352.00) rotate(272) scale(16.00 336.00)"><ellipse cx="0" cy="0" rx="1" ry="1" fill="rgb(255,224,160)" fill-opacity="0.502"/></g>
<g transform="translate(6288.00 768.00) rotate(210) scale(160.00 256.00)"><ellipse cx="0" cy="0" rx="1" ry="1" fill="rgb(33,15,27)" fill-opacity="0.502"/></g>
<polygon points="3978.02,3646.85 4541.43,3527.09 4597.98,3793.15 4034.57,3912.91" fill="rgb(82,61,40)" fill-opacity="0.502"/>
<polygon points="6098.44,1739.35 6602.50,2079.33 6253.56,2596.65 5749.50,2256.67" fill="rgb(22,14,9)" fill-opacity="0.502"/>
<polygon points="6371.76,1468.81 6061.10,1694.52 5948.24,1539.19 6258.90,1313.48" fill="rgb(11,0,14)" fill-opacity="0.502"/>
<circle cx="7584.00" cy="2848.00" r="512.00" fill="rgb(0,0,0)" fill-opacity="0.502"/>
<polygon points="4743.66,3099.37 4778.94,2976.33 5240.34,3108.63 5205.06,3231.67" fill="rgb(78,77,71)" fill-opacity="0.502"/>
<circle cx="6096.00" cy="3216.00" r="304.00" fill="rgb(17,12,8)" fill-opacity="0.502"/>
<polygon points="3816.01,2380.52 3778.47,2617.56 3335.99,2547.48 3373.53,2310.44" fill="rgb(121,46,21)" fill-opacity="0.502"/>
<polygon points="3679.19,1896.87 3213.45,1780.75 3232.81,1703.13 3698.55,1819.25" fill="rgb(255,188,144)" fill-opacity="0.502"/>
<polygon points="3451.75,1504.58 3381.56,932.87 3556.25,911.42 3626.44,1483.13" fill="rgb(220,178,150)" fill-opacity="0.502"/>
<g transform="translate(3280.00 2496.00) rotate(238) scale(272.00 144.00)"><ellipse cx="0" cy="0" rx="1" ry="1" fill="rgb(17,11,8)" fill-opacity="0.502"/></g>
<g transform="translate(3984.00 3424.00) rotate(319) scale(416.00 112.00)"><ellipse cx="0" cy="0" rx="1" ry="1" fill="rgb(11,8,4)" fill-opacity="0.502"/></g>
<circle cx="4464.00" cy="2976.00" r="48.00" fill="rgb(255,249,246)" fill-opacity="0.502"/>
<circle cx="3104.00" cy="3376.00" r="304.00" fill="rgb(26,16,10)" fill-opacity="0.502"/>
<g transform="translate(4848.00 2144.00) rotate(220) scale(80.00 96.00)"><ellipse cx="0" cy="0" rx="1" ry="1" fill="rgb(217,195,170)" fill-opacity="0.502"/></g>
<circle cx="6080.00" cy="544.00" r="320.00" fill="rgb(28,13,15)" fill-opacity="0.502"/>
<g transform="translate(2272.00 2912.00) rotate(69) scale(112.00 80.00)"><ellipse cx="0" cy="0" rx="1" ry="1" fill="rgb(205,141,110)" fill-opacity="0.502"/></g>
<g transform="translate(4176.00 2016.00) rotate(348) scale(736.00 192.00)"><ellipse cx="0" cy="0" rx="1" ry="1" fill="rgb(5,0,9)" fill-opacity="0.502"/></g>
<g transform="translate(6752.00 1360.00) rotate(118) scale(272.00 352.00)"><ellipse cx="0" cy="0" rx="1" ry="1" fill="rgb(255,223,201)" fill-opacity="0.502"/></g>
<g transform="translate(2752.00 3728.00) rotate(103) scale(96.00 624.00)"><ellipse cx="0" cy="0" rx="1" ry="1" fill="rgb(53,37,27)" fill-opacity="0.502"/></g>
<g transform="translate(4000.00 2960.00) rotate(337) scale(1120.00 128.00)"><ellipse cx="0" cy="0" rx="1" ry="1" fill="rgb(9,5,0)" fill-opacity="0.502"/></g>
<polygon points="7132.86,605.01 6960.29,689.18 6883.14,530.99 7055.71,446.82" fill="rgb(136,60,22)" fill-opacity="0.502"/>
<polygon points="3309.78,534.48 3498.64,163.82 3698.22,265.52 3509.36,636.18" fill="rgb(247,205,175)" fill-opacity="0.502"/>
<g transform="translate(4608.00 4096.00) rotate(53) scale(256.00 400.00)"><ellipse cx="0" cy="0" rx="1" ry="1" fill="rgb(36,25,15)" fill-opacity="0.502"/></g>
<circle cx="7888.00" cy="2416.00" r="816.00" fill="rgb(0,0,0)" fill-opacity="0.502"/>
<g transform="translate(1584.00 2352.00) rotate(0) scale(64.00 528.00)"><ellipse cx="0" cy="0" rx="1" ry="1" fill="rgb(89,37,19)" fill-opacity="0.502"/></g>
<polygon points="5958.72,1461.50 5961.23,1605.48 5673.28,1610.50 5670.77,1466.52" fill="rgb(255,240,217)" fill-opacity="0.502"/>
<g transform="translate(3232.00 1632.00) rotate(187) scale(304.00 176.00)"><ellipse cx="0" cy="0" rx="1" ry="1" fill="rgb(189,108,69)" fill-opacity="0.502"/></g>
<g transform="translate(5680.00 1840.00) rotate(45) scale(192.00 192.00)"><ellipse cx="0" cy="0" rx="1" ry="1" fill="rgb(255,220,192)" fill-opacity="0.502"/></g>
<circle cx="6192.00" cy="2448.00" r="384.00" fill="rgb(21,13,8)" fill-opacity="0.502"/>
<g transform="translate(4256.00 464.00) rotate(24) scale(144.00 272.00)"><ellipse cx="0" cy="0" rx="1" ry="1" fill="rgb(29,0,20)" fill-opacity="0.502"/></g>
<g transform="translate(4592.00 272.00) rotate(347) scale(144.00 848.00)"><ellipse cx="0" cy="0" rx="1" ry="1" fill="rgb(255,217,193)" fill-opacity="0.502"/></g>
<polygon points="5138.72,1988.35 4920.47,2038.73 4877.28,1851.65 5095.53,1801.27" fill="rgb(255,230,207)" fill-opacity="0.502"/>
<g transform="translate(2528.00 2480.00) rotate(258) scale(496.00 64.00)"><ellipse cx="0" cy="0" rx="1" ry="1" fill="rgb(23,9,8)" fill-opacity="0.502"/></g>
<circle cx="1712.00" cy="3600.00" r="496.00" fill="rgb(23,16,9)" fill-opacity="0.502"/>
<g transform="translate(7632.00 3440.00) rotate(178) scale(544.00 3792.00)"><ellipse cx="0" cy="0" rx="1" ry="1" fill="rgb(0,0,0)" fill-opacity="0.502"/></g>
<g transform="translate(4720.00 1920.00) rotate(146) scale(160.00 192.00)"><ellipse cx="0" cy="0" rx="1" ry="1" fill="rgb(10,0,10)" fill-opacity="0.502"/></g>
<circle cx="6544.00" cy="720.00" r="144.00" fill="rgb(160,88,57)" fill-opacity="0.502"/>
<polygon points="5704.36,2831.03 5353.70,2800.36 5367.64,2640.97 5718.30,2671.64" fill="rgb(149,97,65)" fill-opacity="0.502"/>
<polygon points="2799.35,1846.68 2168.47,1467.62 2448.65,1001.32 3079.53,1380.38" fill="rgb(128,59,27)" fill-opacity="0.502"/>
<polygon points="2657.45,3087.17 2639.64,2960.42 2750.55,2944.83 2768.36,3071.58" fill="rgb(255,222,189)" fill-opacity="0.502"/>
<polygon points="2053.74,2862.09 2356.31,2966.27 2330.26,3041.91 2027.69,2937.73" fill="rgb(47,34,39)" fill-opacity="0.502"/>
<circle cx="3200.00" cy="1936.00" r="160.00" fill="rgb(9,0,2)" fill-opacity="0.502"/>
<polygon points="5697.97,193.12 5582.88,81.97 5694.03,-33.12 5809.12,78.03" fill="rgb(255,229,207)" fill-opacity="0.502"/>
<polygon points="6429.48,450.51 6450.70,-157.12 6754.52,-146.51 6733.30,461.12" fill="rgb(255,216,195)" fill-opacity="0.502"/>
<g transform="translate(6736.00 144.00) rotate(315) scale(176.00 464.00)"><ellipse cx="0" cy="0" rx="1" ry="1" fill="rgb(246,195,171)" fill-opacity="0.502"/></g>
<g transform="translate(3984.00 992.00) rotate(190) scale(96.00 464.00)"><ellipse cx="0" cy="0" rx="1" ry="1" fill="rgb(255,233,212)" fill-opacity="0.502"/></g>
<polygon points="3937.09,1377.27 4020.88,1669.50 3374.91,1854.73 3291.12,1562.50" fill="rgb(216,148,112)" fill-opacity="0.502"/>
<circle cx="6640.00" cy="1776.00" r="224.00" fill="rgb(255,224,199)" fill-opacity="0.502"/>
<polygon points="4042.41,3064.09 3988.89,3573.29 3861.59,3559.91 3915.11,3050.71" fill="rgb(58,49,41)" fill-opacity="0.502"/>
<circle cx="1248.00" cy="2528.00" r="272.00" fill="rgb(21,6,0)" fill-opacity="0.502"/>
<circle cx="2944.00" cy="128.00" r="160.00" fill="rgb(171,99,61)" fill-opacity="0.502"/>
<polygon points="4327.33,2905.68 4444.35,3014.80 4280.67,3190.32 4163.65,3081.20" fill="rgb(113,100,90)" fill-opacity="0.502"/>
<circle cx="4352.00" cy="3280.00" r="256.00" fill="rgb(29,23,17)" fill-opacity="0.502"/>
<circle cx="1056.00" cy="4432.00" r="512.00" fill="rgb(0,0,0)" fill-opacity="0.502"/>
<circle cx="3056.00" cy="2032.00" r="272.00" fill="rgb(14,7,9)" fill-opacity="0.502"/>
<polygon points="5759.70,518.23 5632.65,533.83 5568.30,9.77 5695.35,-5.83" fill="rgb(255,212,185)" fill-opacity="0.502"/>
<circle cx="5072.00" cy="2336.00" r="112.00" fill="rgb(10,1,0)" fill-opacity="0.502"/>
<circle cx="1600.00" cy="912.00" r="288.00" fill="rgb(69,36,16)" fill-opacity="0.502"/>
<g transform="translate(7280.00 1104.00) rotate(332) scale(144.00 304.00)"><ellipse cx="0" cy="0" rx="1" ry="1" fill="rgb(0,0,0)" fill-opacity="0.502"/></g>
<polygon points="5456.00,3520.00 4688.00,3520.00 4688.00,3216.00 5456.00,3216.00" fill="rgb(11,9,2)" fill-opacity="0.502"/>
<circle cx="3808.00" cy="2096.00" r="208.00" fill="rgb(22,12,9)" fill-opacity="0.502"/>
<circle cx="4416.00" cy="672.00" r="112.00" fill="rgb(59,30,28)" fill-opacity="0.502"/>
<circle cx="7744.00" cy="528.00" r="672.00" fill="rgb(0,0,0)" fill-opacity="0.502"/>
<circle cx="5584.00" cy="0.00" r="240.00" fill="rgb(212,174,148)" fill-opacity="0.502"/>
<g transform="translate(6528.00 1168.00) rotate(281) scale(160.00 96.00)"><ellipse cx="0" cy="0" rx="1" ry="1" fill="rgb(255,217,189)" fill-opacity="0.502"/></g>
<circle cx="4976.00" cy="2112.00" r="48.00" fill="rgb(40,8,0)" fill-opacity="0.502"/>
<circle cx="6928.00" cy="1808.00" r="176.00" fill="rgb(255,230,211)" fill-opacity="0.502"/>
<g transform="translate(5216.00 2544.00) rotate(294) scale(224.00 192.00)"><ellipse cx="0" cy="0" rx="1" ry="1" fill="rgb(66,44,29)" fill-opacity="0.502"/></g>
<polygon points="7047.44,3481.18 7063.35,3784.76 6184.56,3830.82 6168.65,3527.24" fill="rgb(91,78,61)" fill-opacity="0.502"/>
<circle cx="5760.00" cy="976.00" r="112.00" fill="rgb(130,38,12)" fill-opacity="0.502"/>
<polygon points="6834.30,2139.04 6463.39,2238.42 6413.70,2052.96 6784.61,1953.58" fill="rgb(66,40,25)" fill-opacity="0.502"/>
<polygon points="6336.00,304.00 6240.00,304.00 6240.00,0.00 6336.00,0.00" fill="rgb(37,48,149)" fill-opacity="0.502"/>
<circle cx="3664.00" cy="3616.00" r="176.00" fill="rgb(33,21,15)" fill-opacity="0.502"/>
<polygon points="5281.34,1199.16 5238.60,979.27 5662.66,896.84 5705.40,1116.73" fill="rgb(167,100,63)" fill-opacity="0.502"/>
<g transform="translate(7056.00 1472.00) rotate(88) scale(512.00 16.00)"><ellipse cx="0" cy="0" rx="1" ry="1" fill="rgb(255,217,205)" fill-opacity="0.502"/></g>
<g transform="translate(4640.00 1648.00) rotate(93) scale(16.00 304.00)"><ellipse cx="0" cy="0" rx="1" ry="1" fill="rgb(255,239,225)" fill-opacity="0.502"/></g>
<polygon points="2238.63,2431.18 2119.39,2186.70 3025.37,1744.82 3144.61,1989.30" fill="rgb(12,4,2)" fill-opacity="0.502"/>
<g transform="translate(3264.00 2128.00) rotate(175) scale(784.00 240.00)"><ellipse cx="0" cy="0" rx="1" ry="1" fill="rgb(21,12,12)" fill-opacity="0.502"/></g>
<polygon points="2382.50,167.02 2799.54,370.43 2273.50,1448.98 1856.46,1245.57" fill="rgb(103,48,24)" fill-opacity="0.502"/>
<circle cx="6096.00" cy="1264.00" r="240.00" fill="rgb(24,10,19)" fill-opacity="0.502"/>
<circle cx="5360.00" cy="96.00" r="192.00" fill="rgb(176,128,100)" fill-opacity="0.502"/>
<polygon points="5744.00,3776.00 6944.00,3776.00 6944.00,4256.00 5744.00,4256.00" fill="rgb(54,43,26)" fill-opacity="0.502"/>
<polygon points="2966.52,2710.52 3115.89,2767.86 3081.48,2857.48 2932.11,2800.14" fill="rgb(249,224,201)" fill-opacity="0.502"/>
<polygon points="3022.26,2814.98 3015.07,2783.80 3217.74,2737.02 3224.93,2768.20" fill="rgb(255,227,210)" fill-opacity="0.502"/>
<polygon points="4718.47,4624.07 3953.39,4557.13 4017.53,3823.93 4782.61,3890.87" fill="rgb(34,24,16)" fill-opacity="0.502"/>
<polygon points="2149.24,2915.97 2303.82,2776.79 2378.76,2860.03 2224.18,2999.21" fill="rgb(213,158,120)" fill-opacity="0.502"/>
<polygon points="4513.67,708.86 4494.95,770.06 4158.33,667.14 4177.05,605.94" fill="rgb(29,18,41)" fill-opacity="0.502"/>
<polygon points="4196.79,-8.32 4249.84,27.47 4187.21,120.32 4134.16,84.53" fill="rgb(45,0,0)" fill-opacity="0.502"/>
<circle cx="3136.00" cy="2896.00" r="128.00" fill="rgb(111,55,23)" fill-opacity="0.502"/>
<circle cx="3312.00" cy="3008.00" r="80.00" fill="rgb(85,53,35)" fill-opacity="0.502"/>
<circle cx="4464.00" cy="3264.00" r="128.00" fill="rgb(64,51,47)" fill-opacity="0.502"/>
<circle cx="5552.00" cy="2192.00" r="176.00" fill="rgb(84,42,13)" fill-opacity="0.502"/>
<g transform="translate(6352.00 64.00) rotate(346) scale(48.00 176.00)"><ellipse cx="0" cy="0" rx="1" ry="1" fill="rgb(20,12,63)" fill-opacity="0.502"/></g>
<g transform="translate(4848.00 1472.00) rotate(340) scale(352.00 96.00)"><ellipse cx="0" cy="0" rx="1" ry="1" fill="rgb(253,210,179)" fill-opacity="0.502"/></g>
<polygon points="4144.00,1296.00 3760.00,1296.00 3760.00,992.00 4144.00,992.00" fill="rgb(255,229,206)" fill-opacity="0.502"/>
<polygon points="3921.75,2555.75 3765.85,2591.74 3726.25,2420.25 3882.15,2384.26" fill="rgb(220,133,87)" fill-opacity="0.502"/>
<polygon points="6000.42,538.34 5876.22,569.30 5775.58,165.66 5899.78,134.70" fill="rgb(23,13,8)" fill-opacity="0.502"/>
<g transform="translate(6800.00 64.00) rotate(227) scale(288.00 288.00)"><ellipse cx="0" cy="0" rx="1" ry="1" fill="rgb(235,202,182)" fill-opacity="0.502"/></g>
<circle cx="5776.00" cy="3056.00" r="48.00" fill="rgb(107,107,108)" fill-opacity="0.502"/>
<polygon points="6238.26,1709.59 6492.18,2059.08 6129.74,2322.41 5875.82,1972.92" fill="rgb(33,19,20)" fill-opacity="0.502"/>
<g transform="translate(3968.00 3184.00) rotate(153) scale(576.00 32.00)"><ellipse cx="0" cy="0" rx="1" ry="1" fill="rgb(142,122,108)" fill-opacity="0.502"/></g>
<g transform="translate(3120.00 2640.00) rotate(178) scale(528.00 128.00)"><ellipse cx="0" cy="0" rx="1" ry="1" fill="rgb(19,10,7)" fill-opacity="0.502"/></g>
<circle cx="2784.00" cy="96.00" r="112.00" fill="rgb(138,76,41)" fill-opacity="0.502"/>
<polygon points="4437.34,1968.06 4605.65,2019.52 4474.66,2447.94 4306.35,2396.48" fill="rgb(29,19,18)" fill-opacity="0.502"/>
<g transform="translate(3328.00 992.00) rotate(72) scale(672.00 80.00)"><ellipse cx="0" cy="0" rx="1" ry="1" fill="rgb(204,150,119)" fill-opacity="0.502"/></g>
<circle cx="4400.00" cy="816.00" r="96.00" fill="rgb(18,2,25)" fill-opacity="0.502"/>
<polygon points="5364.16,2282.94 4751.63,2163.88 4763.84,2101.06 5376.37,2220.12" fill="rgb(255,235,200)" fill-opacity="0.502"/>
<g transform="translate(3936.00 256.00) rotate(307) scale(64.00 288.00)"><ellipse cx="0" cy="0" rx="1" ry="1" fill="rgb(255,221,201)" fill-opacity="0.502"/></g>
<polygon points="6659.13,1658.07 6428.46,1513.93 6860.87,821.93 7091.54,966.07" fill="rgb(255,221,201)" fill-opacity="0.502"/>
<g transform="translate(3360.00 0.00) rotate(85) scale(848.00 144.00)"><ellipse cx="0" cy="0" rx="1" ry="1" fill="rgb(225,177,149)" fill-opacity="0.502"/></g>
<circle cx="6768.00" cy="4592.00" r="224.00" fill="rgb(32,23,17)" fill-opacity="0.502"/>
<circle cx="6720.00" cy="3920.00" r="208.00" fill="rgb(55,44,31)" fill-opacity="0.502"/>
<circle cx="3520.00" cy="2368.00" r="48.00" fill="rgb(199,102,72)" fill-opacity="0.502"/>
<circle cx="8032.00" cy="960.00" r="960.00" fill="rgb(0,0,0)" fill-opacity="0.502"/>
<g transform="translate(304.00 3072.00) rotate(92) scale(3664.00 800.00)"><ellipse cx="0" cy="0" rx="1" ry="1" fill="rgb(0,0,0)" fill-opacity="0.502"/></g>
<polygon points="4775.76,3030.55 4830.06,3128.50 4424.24,3353.45 4369.94,3255.50" fill="rgb(75,70,62)" fill-opacity="0.502"/>
<polygon points="2739.22,3275.65 2540.31,3336.46 2460.78,3076.35 2659.69,3015.54" fill="rgb(18,6,0)" fill-opacity="0.502"/>
<circle cx="4992.00" cy="1200.00" r="192.00" fill="rgb(196,134,103)" fill-opacity="0.502"/>
<polygon points="5675.99,960.70 5393.85,572.37 5588.01,431.30 5870.15,819.63" fill="rgb(229,176,147)" fill-opacity="0.502"/>
<g transform="translate(6336.00 3168.00) rotate(8) scale(256.00 336.00)"><ellipse cx="0" cy="0" rx="1" ry="1" fill="rgb(26,18,14)" fill-opacity="0.502"/></g>
<circle cx="5760.00" cy="1200.00" r="80.00" fill="rgb(255,225,203)" fill-opacity="0.502"/>
<polygon points="4097.77,1948.92 4250.39,1704.68 4318.23,1747.08 4165.61,1991.32" fill="rgb(17,4,7)" fill-opacity="0.502"/>
<g transform="translate(6192.00 1712.00) rotate(91) scale(736.00 208.00)"><ellipse cx="0" cy="0" rx="1" ry="1" fill="rgb(28,17,21)" fill-opacity="0.502"/></g>
<g transform="translate(3328.00 3088.00) rotate(75) scale(128.00 464.00)"><ellipse cx="0" cy="0" rx="1" ry="1" fill="rgb(46,26,16)" fill-opacity="0.502"/></g>
<circle cx="3552.00" cy="4432.00" r="608.00" fill="rgb(23,16,9)" fill-opacity="0.502"/>
<g transform="translate(1968.00 1936.00) rotate(20) scale(368.00 160.00)"><ellipse cx="0" cy="0" rx="1" ry="1" fill="rgb(94,42,18)" fill-opacity="0.502"/></g>
<polygon points="6508.83,3802.19 6514.97,3978.08 6179.17,3989.81 6173.03,3813.92" fill="rgb(73,56,40)" fill-opacity="0.502"/>
<circle cx="5856.00" cy="1808.00" r="144.00" fill="rgb(255,233,210)" fill-opacity="0.502"/>
<circle cx="1264.00" cy="1584.00" r="208.00" fill="rgb(28,16,14)" fill-opacity="0.502"/>
<polygon points="2517.56,2729.51 2955.29,2434.26 3098.44,2646.49 2660.71,2941.74" fill="rgb(23,15,13)" fill-opacity="0.502"/>
<polygon points="3877.71,1051.11 3634.28,529.08 3866.29,420.89 4109.72,942.92" fill="rgb(255,239,214)" fill-opacity="0.502"/>
<circle cx="4240.00" cy="1280.00" r="80.00" fill="rgb(23,0,0)" fill-opacity="0.502"/>
<polygon points="5310.25,2839.69 5238.26,2527.90 5409.75,2488.31 5481.74,2800.10" fill="rgb(78,53,39)" fill-opacity="0.502"/>
<circle cx="4688.00" cy="880.00" r="208.00" fill="rgb(255,222,198)" fill-opacity="0.502"/>
<polygon points="4652.64,1709.69 4595.30,1560.32 4819.36,1474.31 4876.70,1623.68" fill="rgb(255,234,215)" fill-opacity="0.502"/>
<circle cx="3824.00" cy="2720.00" r="192.00" fill="rgb(66,34,11)" fill-opacity="0.502"/>
<g transform="translate(6976.00 480.00) rotate(110) scale(112.00 96.00)"><ellipse cx="0" cy="0" rx="1" ry="1" fill="rgb(174,115,87)" fill-opacity="0.502"/></g>
<polygon points="4142.65,291.60 3610.54,404.71 3537.35,60.40 4069.46,-52.71" fill="rgb(255,225,204)" fill-opacity="0.502"/>
<polygon points="1340.47,3020.60 1074.58,2873.22 1299.53,2467.40 1565.42,2614.78" fill="rgb(23,9,0)" fill-opacity="0.502"/>
<g transform="translate(3792.00 3328.00) rotate(319) scale(256.00 16.00)"><ellipse cx="0" cy="0" rx="1" ry="1" fill="rgb(52,34,24)" fill-opacity="0.502"/></g>
<g transform="translate(2912.00 3216.00) rotate(224) scale(64.00 64.00)"><ellipse cx="0" cy="0" rx="1" ry="1" fill="rgb(163,110,90)" fill-opacity="0.502"/></g>
<polygon points="3480.41,2575.11 3432.10,2533.12 3463.59,2496.89 3511.90,2538.88" fill="rgb(180,136,115)" fill-opacity="0.502"/>
<g transform="translate(5744.00 3424.00) rotate(109) scale(48.00 256.00)"><ellipse cx="0" cy="0" rx="1" ry="1" fill="rgb(21,12,8)" fill-opacity="0.502"/></g>
<polygon points="4267.82,2388.30 3934.33,2347.35 3940.18,2299.70 4273.67,2340.65" fill="rgb(228,109,66)" fill-opacity="0.502"/>
<circle cx="2944.00" cy="1600.00" r="176.00" fill="rgb(166,86,48)" fill-opacity="0.502"/>
<polygon points="3136.00,3616.00 4032.00,3616.00 4032.00,3824.00 3136.00,3824.00" fill="rgb(65,51,36)" fill-opacity="0.502"/>
<g transform="translate(7216.00 4400.00) rotate(180) scale(128.00 1520.00)"><ellipse cx="0" cy="0" rx="1" ry="1" fill="rgb(0,0,0)" fill-opacity="0.502"/></g>
<g transform="translate(1680.00 1200.00) rotate(94) scale(800.00 256.00)"><ellipse cx="0" cy="0" rx="1" ry="1" fill="rgb(75,36,16)" fill-opacity="0.502"/></g>
<polygon points="4988.54,2999.03 4700.94,2983.96 4739.46,2248.97 5027.06,2264.04" fill="rgb(30,17,12)" fill-opacity="0.502"/>
<g transform="translate(4240.00 64.00) rotate(104) scale(272.00 64.00)"><ellipse cx="0" cy="0" rx="1" ry="1" fill="rgb(115,64,45)" fill-opacity="0.502"/></g>
<g transform="translate(6992.00 1888.00) rotate(133) scale(64.00 96.00)"><ellipse cx="0" cy="0" rx="1" ry="1" fill="rgb(255,233,212)" fill-opacity="0.502"/></g>
<polygon points="3085.59,2360.61 3482.61,2311.86 3490.41,2375.39 3093.39,2424.14" fill="rgb(107,70,58)" fill-opacity="0.502"/>
<polygon points="2255.70,-28.44 2541.69,203.15 2048.30,812.44 1762.31,580.85" fill="rgb(85,42,18)" fill-opacity="0.502"/>
<circle cx="4320.00" cy="448.00" r="144.00" fill="rgb(43,21,31)" fill-opacity="0.502"/>
<circle cx="5632.00" cy="672.00" r="144.00" fill="rgb(238,197,169)" fill-opacity="0.502"/>
<circle cx="5376.00" cy="656.00" r="224.00" fill="rgb(201,144,116)" fill-opacity="0.502"/>
<circle cx="4928.00" cy="2736.00" r="320.00" fill="rgb(31,19,14)" fill-opacity="0.502"/>
<g transform="translate(7328.00 144.00) rotate(66) scale(304.00 224.00)"><ellipse cx="0" cy="0" rx="1" ry="1" fill="rgb(0,0,0)" fill-opacity="0.502"/></g>
<circle cx="6752.00" cy="3136.00" r="336.00" fill="rgb(51,29,18)" fill-opacity="0.502"/>
<circle cx="6576.00" cy="464.00" r="144.00" fill="rgb(252,197,168)" fill-opacity="0.502"/>
<circle cx="2512.00" cy="16.00" r="192.00" fill="rgb(103,47,21)" fill-opacity="0.502"/>
<g transform="translate(3888.00 480.00) rotate(63) scale(432.00 80.00)"><ellipse cx="0" cy="0" rx="1" ry="1" fill="rgb(255,238,216)" fill-opacity="0.502"/></g>
<g transform="translate(2384.00 4208.00) rotate(218) scale(608.00 480.00)"><ellipse cx="0" cy="0" rx="1" ry="1" fill="rgb(19,15,6)" fill-opacity="0.502"/></g>
<polygon points="2984.99,695.50 2948.36,883.97 2807.01,856.50 2843.64,668.03" fill="rgb(170,103,64)" fill-opacity="0.502"/>
<polygon points="4950.56,2944.26 4523.45,3125.56 4473.44,3007.74 4900.55,2826.44" fill="rgb(19,14,6)" fill-opacity="0.502"/>
<circle cx="5120.00" cy="832.00" r="128.00" fill="rgb(234,176,147)" fill-opacity="0.502"/>
<g transform="translate(3264.00 1408.00) rotate(340) scale(80.00 480.00)"><ellipse cx="0" cy="0" rx="1" ry="1" fill="rgb(184,117,85)" fill-opacity="0.502"/></g>
<polygon points="4565.58,2619.30 4279.92,2515.33 4378.42,2244.70 4664.08,2348.67" fill="rgb(75,45,29)" fill-opacity="0.502"/>
<polygon points="5862.71,2022.63 5687.38,2037.96 5609.29,1145.37 5784.62,1130.04" fill="rgb(254,217,191)" fill-opacity="0.502"/>
<g transform="translate(6288.00 1312.00) rotate(206) scale(144.00 128.00)"><ellipse cx="0" cy="0" rx="1" ry="1" fill="rgb(26,14,26)" fill-opacity="0.502"/></g>
<g transform="translate(1280.00 2112.00) rotate(267) scale(1568.00 176.00)"><ellipse cx="0" cy="0" rx="1" ry="1" fill="rgb(21,11,7)" fill-opacity="0.502"/></g>
<polygon points="3760.00,112.00 3760.00,752.00 3568.00,752.00 3568.00,112.00" fill="rgb(253,229,205)" fill-opacity="0.502"/>
<polygon points="4155.20,3073.45 4281.81,3195.71 3892.80,3598.55 3766.19,3476.29" fill="rgb(17,11,6)" fill-opacity="0.502"/>
<polygon points="4241.33,1088.42 4116.29,793.86 4366.67,687.58 4491.71,982.14" fill="rgb(37,12,38)" fill-opacity="0.502"/>
<g transform="translate(6688.00 1824.00) rotate(253) scale(128.00 256.00)"><ellipse cx="0" cy="0" rx="1" ry="1" fill="rgb(255,224,202)" fill-opacity="0.502"/></g>
<g transform="translate(6064.00 992.00) rotate(306) scale(256.00 256.00)"><ellipse cx="0" cy="0" rx="1" ry="1" fill="rgb(22,10,15)" fill-opacity="0.502"/></g>
<polygon points="1935.36,2215.21 1822.83,2480.31 1616.64,2392.79 1729.17,2127.69" fill="rgb(3,5,0)" fill-opacity="0.502"/>
<polygon points="4456.27,2258.14 4470.27,2265.90 4423.73,2349.86 4409.73,2342.10" fill="rgb(255,255,254)" fill-opacity="0.502"/>
<polygon points="4696.72,3325.52 4531.15,3580.48 4343.28,3458.48 4508.85,3203.52" fill="rgb(17,9,3)" fill-opacity="0.502"/>
<g transform="translate(2928.00 352.00) rotate(278) scale(352.00 112.00)"><ellipse cx="0" cy="0" rx="1" ry="1" fill="rgb(165,101,70)" fill-opacity="0.502"/></g>
<polygon points="6762.73,1954.79 6606.90,1569.08 6933.27,1437.21 7089.10,1822.92" fill="rgb(255,224,207)" fill-opacity="0.502"/>
<g transform="translate(2352.00 2416.00) rotate(296) scale(128.00 736.00)"><ellipse cx="0" cy="0" rx="1" ry="1" fill="rgb(23,12,10)" fill-opacity="0.502"/></g>
<circle cx="4448.00" cy="1408.00" r="48.00" fill="rgb(106,45,6)" fill-opacity="0.502"/>
<circle cx="3712.00" cy="1408.00" r="128.00" fill="rgb(242,195,171)" fill-opacity="0.502"/>
<circle cx="2864.00" cy="2224.00" r="400.00" fill="rgb(18,11,10)" fill-opacity="0.502"/>
<circle cx="4096.00" cy="1728.00" r="96.00" fill="rgb(255,255,243)" fill-opacity="0.502"/>
<circle cx="4096.00" cy="1344.00" r="96.00" fill="rgb(243,189,164)" fill-opacity="0.502"/>
<polygon points="2373.06,3227.62 2209.15,3355.68 2090.94,3204.38 2254.85,3076.32" fill="rgb(255,241,210)" fill-opacity="0.502"/>
<g transform="translate(5472.00 960.00) rotate(345) scale(368.00 80.00)"><ellipse cx="0" cy="0" rx="1" ry="1" fill="rgb(186,120,87)" fill-opacity="0.502"/></g>
<circle cx="4272.00" cy="1600.00" r="64.00" fill="rgb(10,0,0)" fill-opacity="0.502"/>
<polygon points="5407.40,2029.54 5129.67,1788.11 5360.60,1522.46 5638.33,1763.89" fill="rgb(210,156,124)" fill-opacity="0.502"/>
<circle cx="4512.00" cy="1136.00" r="96.00" fill="rgb(255,213,189)" fill-opacity="0.502"/>
<polygon points="4001.34,2384.67 4109.53,2355.69 4142.66,2479.33 4034.47,2508.31" fill="rgb(47,6,0)" fill-opacity="0.502"/>
<polygon points="4109.72,532.20 4311.00,401.49 4546.28,763.80 4345.00,894.51" fill="rgb(44,31,41)" fill-opacity="0.502"/>
<g transform="translate(6160.00 16.00) rotate(20) scale(112.00 864.00)"><ellipse cx="0" cy="0" rx="1" ry="1" fill="rgb(23,13,17)" fill-opacity="0.502"/></g>
<g transform="translate(4256.00 2048.00) rotate(124) scale(224.00 288.00)"><ellipse cx="0" cy="0" rx="1" ry="1" fill="rgb(17,10,14)" fill-opacity="0.502"/></g>
<polygon points="1099.78,3009.94 1393.94,2715.78 1620.22,2942.06 1326.06,3236.22" fill="rgb(15,5,0)" fill-opacity="0.502"/>
<circle cx="4016.00" cy="2688.00" r="96.00" fill="rgb(102,55,37)" fill-opacity="0.502"/>
<circle cx="6528.00" cy="1040.00" r="128.00" fill="rgb(250,213,190)" fill-opacity="0.502"/>
<g transform="translate(4592.00 4288.00) rotate(213) scale(640.00 400.00)"><ellipse cx="0" cy="0" rx="1" ry="1" fill="rgb(39,28,19)" fill-opacity="0.502"/></g>
<polygon points="5471.02,1140.91 5675.48,1294.97 5376.98,1691.09 5172.52,1537.03" fill="rgb(203,149,116)" fill-opacity="0.502"/>
<circle cx="5632.00" cy="2496.00" r="80.00" fill="rgb(255,255,255)" fill-opacity="0.502"/>
<circle cx="5680.00" cy="336.00" r="80.00" fill="rgb(246,212,191)" fill-opacity="0.502"/>
<polygon points="3708.84,2838.85 3533.51,2823.51 3571.16,2393.15 3746.49,2408.49" fill="rgb(64,27,9)" fill-opacity="0.502"/>
<g transform="translate(5984.00 4224.00) rotate(316) scale(224.00 624.00)"><ellipse cx="0" cy="0" rx="1" ry="1" fill="rgb(48,35,23)" fill-opacity="0.502"/></g>
<polygon points="4790.06,3739.26 4722.34,3542.59 5145.94,3396.74 5213.66,3593.41" fill="rgb(46,30,19)" fill-opacity="0.502"/>
<polygon points="5856.72,2776.05 6249.55,2354.79 6495.28,2583.95 6102.45,3005.21" fill="rgb(17,13,6)" fill-opacity="0.502"/>
<g transform="translate(5888.00 576.00) rotate(196) scale(80.00 176.00)"><ellipse cx="0" cy="0" rx="1" ry="1" fill="rgb(25,11,12)" fill-opacity="0.502"/></g>
<polygon points="6416.00,1952.00 6400.00,1952.00 6400.00,1568.00 6416.00,1568.00" fill="rgb(0,0,0)" fill-opacity="0.502"/>
<circle cx="5312.00" cy="1216.00" r="144.00" fill="rgb(183,114,78)" fill-opacity="0.502"/>
<circle cx="1744.00" cy="3200.00" r="432.00" fill="rgb(23,15,8)" fill-opacity="0.502"/>
<polygon points="2165.02,3282.03 2239.87,3037.22 2346.98,3069.97 2272.13,3314.78" fill="rgb(255,235,204)" fill-opacity="0.502"/>
<polygon points="7971.70,1815.37 7273.16,2171.29 7084.30,1800.63 7782.84,1444.71" fill="rgb(0,0,0)" fill-opacity="0.502"/>
<circle cx="3840.00" cy="2272.00" r="64.00" fill="rgb(24,8,0)" fill-opacity="0.502"/>
<polygon points="3005.67,3829.14 2245.60,3490.74 2434.33,3066.86 3194.40,3405.26" fill="rgb(36,24,17)" fill-opacity="0.502"/>
<circle cx="5728.00" cy="1600.00" r="240.00" fill="rgb(249,216,193)" fill-opacity="0.502"/>
<g transform="translate(2352.00 1568.00) rotate(103) scale(544.00 272.00)"><ellipse cx="0" cy="0" rx="1" ry="1" fill="rgb(107,50,23)" fill-opacity="0.502"/></g>
<circle cx="5120.00" cy="1904.00" r="144.00" fill="rgb(253,191,162)" fill-opacity="0.502"/>
<g transform="translate(3040.00 240.00) rotate(89) scale(848.00 96.00)"><ellipse cx="0" cy="0" rx="1" ry="1" fill="rgb(184,120,87)" fill-opacity="0.502"/></g>
<polygon points="5445.58,2162.37 5450.61,2018.46 5770.42,2029.63 5765.39,2173.54" fill="rgb(60,35,16)" fill-opacity="0.502"/>
<polygon points="5813.19,1896.06 5728.04,1554.52 5898.81,1511.94 5983.96,1853.48" fill="rgb(255,228,206)" fill-opacity="0.502"/>
<g transform="translate(5072.00 4176.00) rotate(199) scale(912.00 224.00)"><ellipse cx="0" cy="0" rx="1" ry="1" fill="rgb(46,32,23)" fill-opacity="0.502"/></g>
<polygon points="7073.68,3117.78 7085.96,3469.56 6494.32,3490.22 6482.04,3138.44" fill="rgb(50,30,18)" fill-opacity="0.502"/>
<polygon points="5336.00,2648.00 5336.00,2776.00 5320.00,2776.00 5320.00,2648.00" fill="rgb(140,112,92)" fill-opacity="0.502"/>
<polygon points="4288.81,1332.82 4334.83,1858.81 4239.19,1867.18 4193.17,1341.19" fill="rgb(25,0,0)" fill-opacity="0.502"/>
<polygon points="4917.59,1153.42 4478.87,1304.48 4442.41,1198.58 4881.13,1047.52" fill="rgb(229,161,132)" fill-opacity="0.502"/>
<circle cx="6752.00" cy="656.00" r="144.00" fill="rgb(157,104,79)" fill-opacity="0.502"/>
<polygon points="4795.79,3181.72 4267.95,3313.33 4260.21,3282.28 4788.05,3150.67" fill="rgb(68,58,52)" fill-opacity="0.502"/>
<g transform="translate(5792.00 2848.00) rotate(11) scale(128.00 432.00)"><ellipse cx="0" cy="0" rx="1" ry="1" fill="rgb(63,44,29)" fill-opacity="0.502"/></g>
<polygon points="2456.32,4048.15 2225.66,3904.01 2615.68,3279.85 2846.34,3423.99" fill="rgb(24,16,10)" fill-opacity="0.502"/>
<polygon points="7089.02,662.89 7053.74,785.93 7022.98,777.11 7058.26,654.07" fill="rgb(238,189,169)" fill-opacity="0.502"/>
<circle cx="6160.00" cy="1680.00" r="176.00" fill="rgb(37,22,27)" fill-opacity="0.502"/>
<polygon points="6586.29,3863.23 6674.84,4120.41 6069.71,4328.77 5981.16,4071.59" fill="rgb(57,46,28)" fill-opacity="0.502"/>
<polygon points="2717.92,3425.37 2838.33,3111.69 2898.08,3134.63 2777.67,3448.31" fill="rgb(52,25,13)" fill-opacity="0.502"/>
<circle cx="6496.00" cy="608.00" r="64.00" fill="rgb(218,153,118)" fill-opacity="0.502"/>
<g transform="translate(4304.00 3472.00) rotate(84) scale(64.00 1184.00)"><ellipse cx="0" cy="0" rx="1" ry="1" fill="rgb(16,7,4)" fill-opacity="0.502"/></g>
<polygon points="5219.93,-1.92 5443.89,1.99 5436.07,449.92 5212.11,446.01" fill="rgb(186,134,105)" fill-opacity="0.502"/>
<polygon points="2247.16,2700.08 2326.75,2646.40 2648.84,3123.92 2569.25,3177.60" fill="rgb(45,33,25)" fill-opacity="0.502"/>
<polygon points="1451.46,2285.33 1634.03,1893.81 1764.54,1954.67 1581.97,2346.19" fill="rgb(78,35,17)" fill-opacity="0.502"/>
<circle cx="7568.00" cy="4240.00" r="496.00" fill="rgb(0,0,0)" fill-opacity="0.502"/>
<polygon points="4397.26,464.39 4459.77,645.93 4338.74,687.61 4276.23,506.07" fill="rgb(71,54,45)" fill-opacity="0.502"/>
<circle cx="5280.00" cy="2304.00" r="48.00" fill="rgb(255,255,228)" fill-opacity="0.502"/>
<g transform="translate(6592.00 1424.00) rotate(92) scale(544.00 144.00)"><ellipse cx="0" cy="0" rx="1" ry="1" fill="rgb(254,220,196)" fill-opacity="0.502"/></g>
<circle cx="6560.00" cy="736.00" r="144.00" fill="rgb(160,111,88)" fill-opacity="0.502"/>
<polygon points="5037.63,2246.71 4926.47,2233.06 4930.37,2201.29 5041.53,2214.94" fill="rgb(255,255,255)" fill-opacity="0.502"/>
<polygon points="3832.65,-49.26 4148.38,65.66 4055.35,321.26 3739.62,206.34" fill="rgb(253,214,194)" fill-opacity="0.502"/>
<polygon points="3168.95,-9.99 3325.46,23.28 3199.05,617.99 3042.54,584.72" fill="rgb(203,145,116)" fill-opacity="0.502"/>
<circle cx="1584.00" cy="160.00" r="224.00" fill="rgb(61,27,13)" fill-opacity="0.502"/>
<polygon points="2229.85,2589.41 2089.06,3114.87 2058.15,3106.59 2198.94,2581.13" fill="rgb(86,67,58)" fill-opacity="0.502"/>
<g transform="translate(1776.00 3136.00) rotate(232) scale(288.00 464.00)"><ellipse cx="0" cy="0" rx="1" ry="1" fill="rgb(18,12,8)" fill-opacity="0.502"/></g>
<g transform="translate(5056.00 448.00) rotate(178) scale(64.00 560.00)"><ellipse cx="0" cy="0" rx="1" ry="1" fill="rgb(238,187,159)" fill-opacity="0.502"/></g>
<circle cx="4384.00" cy="2368.00" r="48.00" fill="rgb(12,0,0)" fill-opacity="0.502"/>
<g transform="translate(3520.00 1984.00) rotate(302) scale(48.00 256.00)"><ellipse cx="0" cy="0" rx="1" ry="1" fill="rgb(13,4,9)" fill-opacity="0.502"/></g>
<polygon points="1635.77,3658.68 2172.52,3310.11 2364.23,3605.32 1827.48,3953.89" fill="rgb(30,19,12)" fill-opacity="0.502"/>
<g transform="translate(2576.00 832.00) rotate(20) scale(144.00 336.00)"><ellipse cx="0" cy="0" rx="1" ry="1" fill="rgb(119,57,28)" fill-opacity="0.502"/></g>
<polygon points="5246.73,2289.01 5300.92,2506.35 4897.27,2606.99 4843.08,2389.65" fill="rgb(51,31,17)" fill-opacity="0.502"/>
<circle cx="4752.00" cy="2032.00" r="112.00" fill="rgb(31,12,22)" fill-opacity="0.502"/>
<polygon points="3799.42,2611.96 3281.50,3112.11 3192.58,3020.04 3710.50,2519.89" fill="rgb(73,44,25)" fill-opacity="0.502"/>
<polygon points="4375.28,508.26 4327.55,513.28 4280.72,67.74 4328.45,62.72" fill="rgb(58,28,44)" fill-opacity="0.502"/>
<polygon points="1691.33,4087.20 1649.52,4485.01 1076.67,4424.80 1118.48,4026.99" fill="rgb(12,9,5)" fill-opacity="0.502"/>
<circle cx="5600.00" cy="240.00" r="160.00" fill="rgb(217,180,156)" fill-opacity="0.502"/>
<polygon points="4525.22,358.74 4316.08,36.69 4530.78,-102.74 4739.92,219.31" fill="rgb(243,206,181)" fill-opacity="0.502"/>
<polygon points="4740.18,3807.73 3812.75,3840.12 3803.82,3584.27 4731.25,3551.88" fill="rgb(69,53,40)" fill-opacity="0.502"/>
<g transform="translate(5520.00 1504.00) rotate(8) scale(64.00 320.00)"><ellipse cx="0" cy="0" rx="1" ry="1" fill="rgb(221,169,140)" fill-opacity="0.502"/></g>
<polygon points="1702.03,2607.89 1797.15,2693.54 1657.97,2848.11 1562.85,2762.46" fill="rgb(99,38,25)" fill-opacity="0.502"/>
<circle cx="3872.00" cy="32.00" r="256.00" fill="rgb(252,221,201)" fill-opacity="0.502"/>
<circle cx="3504.00" cy="2608.00" r="80.00" fill="rgb(22,9,5)" fill-opacity="0.502"/>
<polygon points="2172.44,666.97 2163.51,1178.89 1827.56,1173.03 1836.49,661.11" fill="rgb(90,45,22)" fill-opacity="0.502"/>
<circle cx="4896.00" cy="2096.00" r="48.00" fill="rgb(34,2,0)" fill-opacity="0.502"/>
<polygon points="5803.05,1053.17 5916.97,407.14 6436.95,498.83 6323.03,1144.86" fill="rgb(27,15,21)" fill-opacity="0.502"/>
<polygon points="6416.00,624.00 6416.00,736.00 6080.00,736.00 6080.00,624.00" fill="rgb(21,11,14)" fill-opacity="0.502"/>
<polygon points="3713.45,834.87 4075.86,770.97 4142.55,1149.13 3780.14,1213.03" fill="rgb(253,228,205)" fill-opacity="0.502"/>
<circle cx="6720.00" cy="2768.00" r="144.00" fill="rgb(62,32,21)" fill-opacity="0.502"/>
<circle cx="6752.00" cy="464.00" r="80.00" fill="rgb(230,181,158)" fill-opacity="0.502"/>
<circle cx="2304.00" cy="3680.00" r="352.00" fill="rgb(34,22,15)" fill-opacity="0.502"/>
<g transform="translate(4160.00 1648.00) rotate(166) scale(48.00 80.00)"><ellipse cx="0" cy="0" rx="1" ry="1" fill="rgb(255,212,186)" fill-opacity="0.502"/></g>
<polygon points="6363.55,3520.37 6471.22,3489.49 6484.45,3535.63 6376.78,3566.51" fill="rgb(115,100,81)" fill-opacity="0.502"/>
<polygon points="4088.44,2130.19 3735.26,2317.98 3607.56,2077.81 3960.74,1890.02" fill="rgb(23,13,13)" fill-opacity="0.502"/>
<g transform="translate(7328.00 1840.00) rotate(113) scale(208.00 240.00)"><ellipse cx="0" cy="0" rx="1" ry="1" fill="rgb(0,0,0)" fill-opacity="0.502"/></g>
<polygon points="4943.08,4438.26 4687.43,4424.86 4720.92,3785.74 4976.57,3799.14" fill="rgb(43,29,18)" fill-opacity="0.502"/>
<g transform="translate(5200.00 3696.00) rotate(346) scale(224.00 80.00)"><ellipse cx="0" cy="0" rx="1" ry="1" fill="rgb(113,88,74)" fill-opacity="0.502"/></g>
<circle cx="3424.00" cy="3200.00" r="160.00" fill="rgb(26,17,8)" fill-opacity="0.502"/>
<g transform="translate(2256.00 4304.00) rotate(22) scale(320.00 432.00)"><ellipse cx="0" cy="0" rx="1" ry="1" fill="rgb(18,12,6)" fill-opacity="0.502"/></g>
<polygon points="3952.96,3153.71 3745.85,3304.18 3727.04,3278.29 3934.15,3127.82" fill="rgb(136,123,115)" fill-opacity="0.502"/>
<g transform="translate(1696.00 3568.00) rotate(20) scale(464.00 576.00)"><ellipse cx="0" cy="0" rx="1" ry="1" fill="rgb(18,14,8)" fill-opacity="0.502"/></g>
<polygon points="1916.31,3726.66 2075.65,3860.36 1715.69,4289.34 1556.35,4155.64" fill="rgb(24,18,12)" fill-opacity="0.502"/>
<polygon points="5344.68,2308.35 4711.04,2138.56 4719.32,2107.65 5352.96,2277.44" fill="rgb(255,238,213)" fill-opacity="0.502"/>
<polygon points="5622.17,3019.78 5655.30,3143.42 5129.83,3284.22 5096.70,3160.58" fill="rgb(46,48,41)" fill-opacity="0.502"/>
<polygon points="6621.92,1163.99 6933.71,1092.00 7074.08,1700.01 6762.29,1772.00" fill="rgb(254,225,207)" fill-opacity="0.502"/>
<circle cx="5760.00" cy="2416.00" r="48.00" fill="rgb(255,255,255)" fill-opacity="0.502"/>
<polygon points="2539.47,907.37 2762.62,887.85 2836.53,1732.63 2613.38,1752.15" fill="rgb(127,62,31)" fill-opacity="0.502"/>
<polygon points="7095.64,2259.65 6632.27,2283.93 6616.36,1980.35 7079.73,1956.07" fill="rgb(77,49,31)" fill-opacity="0.502"/>
<circle cx="2400.00" cy="2688.00" r="32.00" fill="rgb(255,213,136)" fill-opacity="0.502"/>
<g transform="translate(3632.00 3936.00) rotate(346) scale(288.00 96.00)"><ellipse cx="0" cy="0" rx="1" ry="1" fill="rgb(29,17,9)" fill-opacity="0.502"/></g>
<polygon points="2412.33,2562.34 1987.87,2848.65 1683.67,2397.66 2108.13,2111.35" fill="rgb(18,11,6)" fill-opacity="0.502"/>
<polygon points="1248.00,2480.00 1248.00,2880.00 1104.00,2880.00 1104.00,2480.00" fill="rgb(35,12,3)" fill-opacity="0.502"/>
<polygon points="3785.72,2771.40 3670.17,2924.74 3606.28,2876.60 3721.83,2723.26" fill="rgb(90,48,30)" fill-opacity="0.502"/>
<circle cx="3328.00" cy="2480.00" r="96.00" fill="rgb(12,8,4)" fill-opacity="0.502"/>
<g transform="translate(1520.00 4592.00) rotate(12) scale(144.00 400.00)"><ellipse cx="0" cy="0" rx="1" ry="1" fill="rgb(18,14,6)" fill-opacity="0.502"/></g>
<g transform="translate(3184.00 2816.00) rotate(60) scale(48.00 304.00)"><ellipse cx="0" cy="0" rx="1" ry="1" fill="rgb(83,39,16)" fill-opacity="0.502"/></g>
<circle cx="3328.00" cy="4000.00" r="160.00" fill="rgb(26,16,13)" fill-opacity="0.502"/>
</g>
</svg>