<?xml version="1.0" standalone="no"?>
<svg xmlns="http://www.w3.org/2000/svg" width="8192" height="4608" viewBox="0 0 8192 4608" style="overflow:hidden">
<defs>
<clipPath id="c"><rect x="0" y="0" width="8192" height="4608"/></clipPath>
</defs>
<rect width="8192" height="4608" fill="rgb(30,45,85)"/>
<g clip-path="url(#c)">
<circle cx="2192.00" cy="4400.00" r="1136.00" fill="rgb(255,255,255)" fill-opacity="0.502"/>
<circle cx="2288.00" cy="4432.00" r="1008.00" fill="rgb(207,255,255)" fill-opacity="0.502"/>
<circle cx="1664.00" cy="1104.00" r="592.00" fill="rgb(122,194,255)" fill-opacity="0.502"/>
<circle cx="8176.00" cy="3504.00" r="1520.00" fill="rgb(0,0,0)" fill-opacity="0.502"/>
<circle cx="6496.00" cy="2272.00" r="624.00" fill="rgb(104,164,255)" fill-opacity="0.502"/>
<circle cx="0.00" cy="2032.00" r="1536.00" fill="rgb(0,0,0)" fill-opacity="0.502"/>
<circle cx="3408.00" cy="64.00" r="1168.00" fill="rgb(0,39,208)" fill-opacity="0.502"/>
<circle cx="8096.00" cy="1024.00" r="1120.00" fill="rgb(0,0,0)" fill-opacity="0.502"/>
<circle cx="6096.00" cy="1856.00" r="992.00" fill="rgb(66,108,255)" fill-opacity="0.502"/>
<g transform="translate(512.00 3280.00) rotate(90) scale(8176.00 592.00)"><ellipse cx="0" cy="0" rx="1" ry="1" fill="rgb(0,0,0)" fill-opacity="0.502"/></g>
<circle cx="5792.00" cy="2096.00" r="288.00" fill="rgb(0,6,51)" fill-opacity="0.502"/>
<circle cx="4624.00" cy="3104.00" r="416.00" fill="rgb(70,127,235)" fill-opacity="0.502"/>
<g transform="translate(1568.00 3056.00) rotate(130) scale(320.00 672.00)"><ellipse cx="0" cy="0" rx="1" ry="1" fill="rgb(44,88,164)" fill-opacity="0.502"/></g>
<circle cx="8176.00" cy="704.00" r="1184.00" fill="rgb(0,0,0)" fill-opacity="0.502"/>
<g transform="translate(3712.00 4208.00) rotate(168) scale(352.00 176.00)"><ellipse cx="0" cy="0" rx="1" ry="1" fill="rgb(186,255,255)" fill-opacity="0.502"/></g>
<g transform="translate(1984.00 1184.00) rotate(158) scale(496.00 320.00)"><ellipse cx="0" cy="0" rx="1" ry="1" fill="rgb(101,157,255)" fill-opacity="0.502"/></g>
<circle cx="5296.00" cy="4432.00" r="1248.00" fill="rgb(0,0,0)" fill-opacity="0.502"/>
<circle cx="4048.00" cy="1136.00" r="336.00" fill="rgb(64,131,36)" fill-opacity="0.502"/>
<circle cx="2704.00" cy="3856.00" r="560.00" fill="rgb(185,249,255)" fill-opacity="0.502"/>
<circle cx="4880.00" cy="0.00" r="656.00" fill="rgb(0,51,197)" fill-opacity="0.502"/>
<circle cx="2784.00" cy="1648.00" r="480.00" fill="rgb(6,0,0)" fill-opacity="0.502"/>
<g transform="translate(1552.00 1040.00) rotate(236) scale(544.00 448.00)"><ellipse cx="0" cy="0" rx="1" ry="1" fill="rgb(88,143,255)" fill-opacity="0.502"/></g>
<circle cx="7504.00" cy="2160.00" r="448.00" fill="rgb(0,0,0)" fill-opacity="0.502"/>
<g transform="translate(2432.00 2976.00) rotate(322) scale(624.00 464.00)"><ellipse cx="0" cy="0" rx="1" ry="1" fill="rgb(0,0,32)" fill-opacity="0.502"/></g>
<g transform="translate(6240.00 368.00) rotate(58) scale(400.00 1152.00)"><ellipse cx="0" cy="0" rx="1" ry="1" fill="rgb(0,0,14)" fill-opacity="0.502"/></g>
<g transform="translate(4976.00 2992.00) rotate(86) scale(432.00 352.00)"><ellipse cx="0" cy="0" rx="1" ry="1" fill="rgb(74,92,185)" fill-opacity="0.502"/></g>
<g transform="translate(6832.00 960.00) rotate(274) scale(576.00 288.00)"><ellipse cx="0" cy="0" rx="1" ry="1" fill="rgb(31,84,255)" fill-opacity="0.502"/></g>
<circle cx="2128.00" cy="416.00" r="448.00" fill="rgb(0,0,46)" fill-opacity="0.502"/>
<circle cx="4560.00" cy="1216.00" r="560.00" fill="rgb(9,40,16)" fill-opacity="0.502"/>
<circle cx="1808.00" cy="1984.00" r="528.00" fill="rgb(20,24,32)" fill-opacity="0.502"/>
<circle cx="336.00" cy="704.00" r="784.00" fill="rgb(0,0,0)" fill-opacity="0.502"/>
<circle cx="8176.00" cy="3600.00" r="1248.00" fill="rgb(0,0,0)" fill-opacity="0.502"/>
<polygon points="7071.95,3303.54 6624.22,3287.90 6656.05,2376.46 7103.78,2392.10" fill="rgb(47,89,255)" fill-opacity="0.502"/>
<circle cx="2992.00" cy="3712.00" r="288.00" fill="rgb(201,252,255)" fill-opacity="0.502"/>
<g transform="translate(1216.00 3792.00) rotate(274) scale(288.00 128.00)"><ellipse cx="0" cy="0" rx="1" ry="1" fill="rgb(204,255,255)" fill-opacity="0.502"/></g>
<g transform="translate(1504.00 624.00) rotate(294) scale(128.00 448.00)"><ellipse cx="0" cy="0" rx="1" ry="1" fill="rgb(61,101,255)" fill-opacity="0.502"/></g>
<g transform="translate(1328.00 2880.00) rotate(232) scale(272.00 192.00)"><ellipse cx="0" cy="0" rx="1" ry="1" fill="rgb(170,227,243)" fill-opacity="0.502"/></g>
<g transform="translate(3504.00 4144.00) rotate(122) scale(432.00 128.00)"><ellipse cx="0" cy="0" rx="1" ry="1" fill="rgb(0,0,41)" fill-opacity="0.502"/></g>
<g transform="translate(5376.00 1904.00) rotate(360) scale(176.00 480.00)"><ellipse cx="0" cy="0" rx="1" ry="1" fill="rgb(196,225,255)" fill-opacity="0.502"/></g>
<circle cx="5008.00" cy="2256.00" r="304.00" fill="rgb(118,125,143)" fill-opacity="0.502"/>
<circle cx="4560.00" cy="2352.00" r="608.00" fill="rgb(78,80,98)" fill-opacity="0.502"/>
<circle cx="7472.00" cy="4544.00" r="944.00" fill="rgb(0,0,0)" fill-opacity="0.502"/>
<circle cx="1536.00" cy="0.00" r="512.00" fill="rgb(0,0,29)" fill-opacity="0.502"/>
<circle cx="1456.00" cy="3872.00" r="368.00" fill="rgb(178,252,255)" fill-opacity="0.502"/>
<polygon points="2410.62,3460.71 2527.69,4574.58 1493.38,4683.29 1376.31,3569.42" fill="rgb(197,252,255)" fill-opacity="0.502"/>
<circle cx="5264.00" cy="640.00" r="432.00" fill="rgb(0,0,105)" fill-opacity="0.502"/>
<g transform="translate(3296.00 1696.00) rotate(108) scale(336.00 896.00)"><ellipse cx="0" cy="0" rx="1" ry="1" fill="rgb(8,3,0)" fill-opacity="0.502"/></g>
<g transform="translate(1888.00 3088.00) rotate(352) scale(592.00 448.00)"><ellipse cx="0" cy="0" rx="1" ry="1" fill="rgb(0,22,84)" fill-opacity="0.502"/></g>
<g transform="translate(3856.00 3664.00) rotate(194) scale(592.00 304.00)"><ellipse cx="0" cy="0" rx="1" ry="1" fill="rgb(0,0,0)" fill-opacity="0.502"/></g>
<circle cx="4160.00" cy="3296.00" r="192.00" fill="rgb(96,169,255)" fill-opacity="0.502"/>
<polygon points="1106.54,4594.77 1167.90,3893.45 1805.46,3949.23 1744.10,4650.55" fill="rgb(117,205,255)" fill-opacity="0.502"/>
<g transform="translate(5856.00 3152.00) rotate(32) scale(496.00 208.00)"><ellipse cx="0" cy="0" rx="1" ry="1" fill="rgb(102,139,237)" fill-opacity="0.502"/></g>
<g transform="translate(2848.00 4160.00) rotate(288) scale(80.00 256.00)"><ellipse cx="0" cy="0" rx="1" ry="1" fill="rgb(0,48,186)" fill-opacity="0.502"/></g>
<circle cx="7616.00" cy="1728.00" r="576.00" fill="rgb(0,0,0)" fill-opacity="0.502"/>
<circle cx="2672.00" cy="480.00" r="432.00" fill="rgb(0,0,94)" fill-opacity="0.502"/>
<g transform="translate(432.00 3760.00) rotate(272) scale(3040.00 672.00)"><ellipse cx="0" cy="0" rx="1" ry="1" fill="rgb(0,0,0)" fill-opacity="0.502"/></g>
<g transform="translate(5776.00 2656.00) rotate(189) scale(304.00 256.00)"><ellipse cx="0" cy="0" rx="1" ry="1" fill="rgb(2,13,41)" fill-opacity="0.502"/></g>
<g transform="translate(1472.00 3008.00) rotate(119) scale(128.00 160.00)"><ellipse cx="0" cy="0" rx="1" ry="1" fill="rgb(150,213,231)" fill-opacity="0.502"/></g>
<g transform="translate(5440.00 0.00) rotate(270) scale(208.00 784.00)"><ellipse cx="0" cy="0" rx="1" ry="1" fill="rgb(8,100,232)" fill-opacity="0.502"/></g>
<g transform="translate(3760.00 2720.00) rotate(188) scale(160.00 1648.00)"><ellipse cx="0" cy="0" rx="1" ry="1" fill="rgb(2,0,16)" fill-opacity="0.502"/></g>
<g transform="translate(5840.00 3408.00) rotate(243) scale(304.00 480.00)"><ellipse cx="0" cy="0" rx="1" ry="1" fill="rgb(9,37,114)" fill-opacity="0.502"/></g>
<circle cx="5328.00" cy="2880.00" r="128.00" fill="rgb(255,105,151)" fill-opacity="0.502"/>
<g transform="translate(3248.00 960.00) rotate(185) scale(544.00 288.00)"><ellipse cx="0" cy="0" rx="1" ry="1" fill="rgb(28,79,225)" fill-opacity="0.502"/></g>
<circle cx="4992.00" cy="4000.00" r="512.00" fill="rgb(0,0,1)" fill-opacity="0.502"/>
<g transform="translate(480.00 4176.00) rotate(225) scale(768.00 448.00)"><ellipse cx="0" cy="0" rx="1" ry="1" fill="rgb(0,0,0)" fill-opacity="0.502"/></g>
<g transform="translate(6576.00 2256.00) rotate(97) scale(512.00 512.00)"><ellipse cx="0" cy="0" rx="1" ry="1" fill="rgb(91,127,255)" fill-opacity="0.502"/></g>
<polygon points="1104.00,2528.00 1344.00,2528.00 1344.00,3120.00 1104.00,3120.00" fill="rgb(128,166,191)" fill-opacity="0.502"/>
<polygon points="1131.88,1440.55 1384.08,1542.44 1348.12,1631.45 1095.92,1529.56" fill="rgb(255,255,232)" fill-opacity="0.502"/>
<g transform="translate(4288.00 816.00) rotate(229) scale(192.00 464.00)"><ellipse cx="0" cy="0" rx="1" ry="1" fill="rgb(77,143,79)" fill-opacity="0.502"/></g>
<polygon points="3601.47,2969.53 3751.35,3135.99 3406.53,3446.47 3256.65,3280.01" fill="rgb(39,54,191)" fill-opacity="0.502"/>
<g transform="translate(3168.00 2400.00) rotate(118) scale(416.00 112.00)"><ellipse cx="0" cy="0" rx="1" ry="1" fill="rgb(13,15,187)" fill-opacity="0.502"/></g>
<polygon points="4428.57,3165.57 4407.12,2990.88 4899.43,2930.43 4920.88,3105.12" fill="rgb(73,162,255)" fill-opacity="0.502"/>
<g transform="translate(6768.00 3040.00) rotate(0) scale(800.00 112.00)"><ellipse cx="0" cy="0" rx="1" ry="1" fill="rgb(0,0,19)" fill-opacity="0.502"/></g>
<circle cx="7712.00" cy="304.00" r="704.00" fill="rgb(0,0,0)" fill-opacity="0.502"/>
<polygon points="4231.90,1800.11 4455.36,1784.48 4472.10,2023.89 4248.64,2039.52" fill="rgb(121,180,255)" fill-opacity="0.502"/>
<g transform="translate(6848.00 4368.00) rotate(173) scale(560.00 288.00)"><ellipse cx="0" cy="0" rx="1" ry="1" fill="rgb(0,0,1)" fill-opacity="0.502"/></g>
<circle cx="1440.00" cy="1168.00" r="368.00" fill="rgb(82,133,252)" fill-opacity="0.502"/>
<circle cx="6800.00" cy="3424.00" r="288.00" fill="rgb(12,44,178)" fill-opacity="0.502"/>
<polygon points="5937.82,4288.30 5910.46,4363.48 5790.18,4319.70 5817.54,4244.52" fill="rgb(135,235,255)" fill-opacity="0.502"/>
<circle cx="2368.00" cy="2624.00" r="512.00" fill="rgb(20,19,30)" fill-opacity="0.502"/>
<g transform="translate(7888.00 2576.00) rotate(117) scale(832.00 800.00)"><ellipse cx="0" cy="0" rx="1" ry="1" fill="rgb(0,0,0)" fill-opacity="0.502"/></g>
<circle cx="6944.00" cy="1344.00" r="160.00" fill="rgb(69,124,255)" fill-opacity="0.502"/>
<g transform="translate(3472.00 2304.00) rotate(165) scale(160.00 304.00)"><ellipse cx="0" cy="0" rx="1" ry="1" fill="rgb(128,122,128)" fill-opacity="0.502"/></g>
<g transform="translate(6352.00 1584.00) rotate(280) scale(112.00 832.00)"><ellipse cx="0" cy="0" rx="1" ry="1" fill="rgb(0,1,114)" fill-opacity="0.502"/></g>
<g transform="translate(5216.00 2096.00) rotate(270) scale(208.00 160.00)"><ellipse cx="0" cy="0" rx="1" ry="1" fill="rgb(156,186,238)" fill-opacity="0.502"/></g>
<g transform="translate(3824.00 1264.00) rotate(10) scale(80.00 336.00)"><ellipse cx="0" cy="0" rx="1" ry="1" fill="rgb(104,183,113)" fill-opacity="0.502"/></g>
<circle cx="3664.00" cy="464.00" r="528.00" fill="rgb(0,17,163)" fill-opacity="0.502"/>
<circle cx="4560.00" cy="2656.00" r="320.00" fill="rgb(59,55,72)" fill-opacity="0.502"/>
<circle cx="512.00" cy="384.00" r="608.00" fill="rgb(0,0,0)" fill-opacity="0.502"/>
<polygon points="4296.89,4162.44 4351.19,4064.48 4519.11,4157.56 4464.81,4255.52" fill="rgb(169,218,255)" fill-opacity="0.502"/>
<polygon points="5792.01,3149.58 5584.84,2949.52 5695.99,2834.42 5903.16,3034.48" fill="rgb(216,245,242)" fill-opacity="0.502"/>
<circle cx="2688.00" cy="1584.00" r="480.00" fill="rgb(18,14,23)" fill-opacity="0.502"/>
<circle cx="5360.00" cy="1488.00" r="240.00" fill="rgb(90,126,233)" fill-opacity="0.502"/>
<polygon points="6692.85,702.37 6656.74,497.53 7019.15,433.63 7055.26,638.47" fill="rgb(25,99,255)" fill-opacity="0.502"/>
<g transform="translate(2640.00 208.00) rotate(280) scale(208.00 800.00)"><ellipse cx="0" cy="0" rx="1" ry="1" fill="rgb(0,13,128)" fill-opacity="0.502"/></g>
<g transform="translate(6464.00 3936.00) rotate(358) scale(112.00 416.00)"><ellipse cx="0" cy="0" rx="1" ry="1" fill="rgb(0,0,0)" fill-opacity="0.502"/></g>
<circle cx="4944.00" cy="1648.00" r="208.00" fill="rgb(0,6,8)" fill-opacity="0.502"/>
<g transform="translate(6672.00 16.00) rotate(199) scale(528.00 432.00)"><ellipse cx="0" cy="0" rx="1" ry="1" fill="rgb(0,0,0)" fill-opacity="0.502"/></g>
<circle cx="4240.00" cy="1392.00" r="368.00" fill="rgb(12,30,30)" fill-opacity="0.502"/>
<g transform="translate(6384.00 832.00) rotate(263) scale(144.00 800.00)"><ellipse cx="0" cy="0" rx="1" ry="1" fill="rgb(0,0,97)" fill-opacity="0.502"/></g>
<polygon points="3686.26,4236.26 3801.22,3989.74 4105.74,4131.74 3990.78,4378.26" fill="rgb(165,243,255)" fill-opacity="0.502"/>
<g transform="translate(4784.00 3280.00) rotate(169) scale(272.00 192.00)"><ellipse cx="0" cy="0" rx="1" ry="1" fill="rgb(0,50,175)" fill-opacity="0.502"/></g>
<polygon points="3256.62,4484.82 2659.13,4714.18 2567.38,4475.18 3164.87,4245.82" fill="rgb(146,240,255)" fill-opacity="0.502"/>
<polygon points="1450.59,80.76 1976.05,-60.04 2133.41,527.24 1607.95,668.04" fill="rgb(0,0,53)" fill-opacity="0.502"/>
<g transform="translate(2544.00 3792.00) rotate(220) scale(432.00 208.00)"><ellipse cx="0" cy="0" rx="1" ry="1" fill="rgb(228,255,255)" fill-opacity="0.502"/></g>
<circle cx="2464.00" cy="2256.00" r="320.00" fill="rgb(65,60,74)" fill-opacity="0.502"/>
<polygon points="1732.28,1888.44 1397.56,1917.73 1355.72,1439.56 1690.44,1410.27" fill="rgb(73,97,73)" fill-opacity="0.502"/>
<g transform="translate(1392.00 768.00) rotate(129) scale(256.00 304.00)"><ellipse cx="0" cy="0" rx="1" ry="1" fill="rgb(84,134,255)" fill-opacity="0.502"/></g>
<circle cx="4352.00" cy="3312.00" r="160.00" fill="rgb(120,200,255)" fill-opacity="0.502"/>
<circle cx="1760.00" cy="1504.00" r="128.00" fill="rgb(90,151,255)" fill-opacity="0.502"/>
<g transform="translate(5856.00 512.00) rotate(360) scale(736.00 240.00)"><ellipse cx="0" cy="0" rx="1" ry="1" fill="rgb(0,0,32)" fill-opacity="0.502"/></g>
<polygon points="2369.07,1146.25 2798.71,1191.41 2766.93,1493.75 2337.29,1448.59" fill="rgb(79,59,41)" fill-opacity="0.502"/>
<g transform="translate(4720.00 1728.00) rotate(223) scale(480.00 192.00)"><ellipse cx="0" cy="0" rx="1" ry="1" fill="rgb(9,24,38)" fill-opacity="0.502"/></g>
<circle cx="4128.00" cy="2944.00" r="304.00" fill="rgb(49,41,114)" fill-opacity="0.502"/>
<g transform="translate(3552.00 3424.00) rotate(225) scale(80.00 496.00)"><ellipse cx="0" cy="0" rx="1" ry="1" fill="rgb(0,4,71)" fill-opacity="0.502"/></g>
<g transform="translate(4384.00 816.00) rotate(360) scale(128.00 224.00)"><ellipse cx="0" cy="0" rx="1" ry="1" fill="rgb(13,47,42)" fill-opacity="0.502"/></g>
<g transform="translate(6096.00 3984.00) rotate(94) scale(288.00 336.00)"><ellipse cx="0" cy="0" rx="1" ry="1" fill="rgb(0,0,1)" fill-opacity="0.502"/></g>
<g transform="translate(2928.00 784.00) rotate(150) scale(544.00 176.00)"><ellipse cx="0" cy="0" rx="1" ry="1" fill="rgb(0,20,157)" fill-opacity="0.502"/></g>
<circle cx="1872.00" cy="2640.00" r="288.00" fill="rgb(1,11,45)" fill-opacity="0.502"/>
<circle cx="3520.00" cy="1568.00" r="224.00" fill="rgb(0,0,0)" fill-opacity="0.502"/>
<g transform="translate(1872.00 1040.00) rotate(104) scale(304.00 480.00)"><ellipse cx="0" cy="0" rx="1" ry="1" fill="rgb(97,148,255)" fill-opacity="0.502"/></g>
<polygon points="2480.87,3937.36 2761.43,3362.14 3279.13,3614.64 2998.57,4189.86" fill="rgb(191,239,255)" fill-opacity="0.502"/>
<circle cx="7424.00" cy="944.00" r="368.00" fill="rgb(0,0,0)" fill-opacity="0.502"/>
<circle cx="5760.00" cy="1856.00" r="208.00" fill="rgb(14,31,89)" fill-opacity="0.502"/>
<polygon points="2294.14,4001.80 2269.14,4060.71 2121.86,3998.20 2146.86,3939.29" fill="rgb(0,0,119)" fill-opacity="0.502"/>
<g transform="translate(7856.00 3472.00) rotate(0) scale(784.00 4592.00)"><ellipse cx="0" cy="0" rx="1" ry="1" fill="rgb(0,0,0)" fill-opacity="0.502"/></g>
<circle cx="2368.00" cy="1040.00" r="144.00" fill="rgb(52,107,245)" fill-opacity="0.502"/>
<circle cx="3456.00" cy="2768.00" r="176.00" fill="rgb(103,96,163)" fill-opacity="0.502"/>
<polygon points="6849.15,453.65 6891.70,722.30 6638.85,762.35 6596.30,493.70" fill="rgb(50,106,255)" fill-opacity="0.502"/>
<polygon points="5161.79,3178.46 5844.66,3094.61 5862.21,3237.54 5179.34,3321.39" fill="rgb(0,4,52)" fill-opacity="0.502"/>
<circle cx="6032.00" cy="4304.00" r="96.00" fill="rgb(55,103,218)" fill-opacity="0.502"/>
<polygon points="6449.57,1798.49 6185.87,2237.36 5966.43,2105.51 6230.13,1666.64" fill="rgb(62,107,255)" fill-opacity="0.502"/>
<g transform="translate(2848.00 3024.00) rotate(35) scale(208.00 512.00)"><ellipse cx="0" cy="0" rx="1" ry="1" fill="rgb(0,0,105)" fill-opacity="0.502"/></g>
<polygon points="3461.62,2321.95 3296.05,2576.91 3242.38,2542.05 3407.95,2287.09" fill="rgb(0,0,14)" fill-opacity="0.502"/>
<polygon points="4146.81,3954.64 4188.64,4432.81 4045.19,4445.36 4003.36,3967.19" fill="rgb(0,5,83)" fill-opacity="0.502"/>
<polygon points="3310.57,3584.03 3328.70,3791.24 3137.43,3807.97 3119.30,3600.76" fill="rgb(18,53,215)" fill-opacity="0.502"/>
<circle cx="3920.00" cy="0.00" r="304.00" fill="rgb(0,77,190)" fill-opacity="0.502"/>
<polygon points="7072.49,1312.74 6137.10,1528.70 6079.51,1279.26 7014.90,1063.30" fill="rgb(67,122,255)" fill-opacity="0.502"/>
<circle cx="4784.00" cy="2112.00" r="224.00" fill="rgb(35,63,46)" fill-opacity="0.502"/>
<circle cx="5360.00" cy="832.00" r="272.00" fill="rgb(0,19,118)" fill-opacity="0.502"/>
<circle cx="1328.00" cy="3792.00" r="224.00" fill="rgb(179,220,255)" fill-opacity="0.502"/>
<polygon points="5225.03,2624.37 5591.63,2592.30 5606.97,2767.63 5240.37,2799.70" fill="rgb(0,0,1)" fill-opacity="0.502"/>
<g transform="translate(4336.00 1968.00) rotate(190) scale(208.00 96.00)"><ellipse cx="0" cy="0" rx="1" ry="1" fill="rgb(85,126,255)" fill-opacity="0.502"/></g>
<polygon points="1634.12,3089.71 1792.30,3166.87 1581.88,3598.29 1423.70,3521.13" fill="rgb(0,13,117)" fill-opacity="0.502"/>
<polygon points="3472.31,4222.26 3404.69,4367.27 3375.69,4353.74 3443.31,4208.73" fill="rgb(227,255,255)" fill-opacity="0.502"/>
<circle cx="1216.00" cy="2560.00" r="128.00" fill="rgb(41,45,101)" fill-opacity="0.502"/>
<circle cx="1984.00" cy="4368.00" r="368.00" fill="rgb(181,238,255)" fill-opacity="0.502"/>
<g transform="translate(1168.00 48.00) rotate(113) scale(256.00 512.00)"><ellipse cx="0" cy="0" rx="1" ry="1" fill="rgb(0,0,15)" fill-opacity="0.502"/></g>
<polygon points="6366.41,1205.37 5784.98,1383.13 5761.59,1306.63 6343.02,1128.87" fill="rgb(0,0,63)" fill-opacity="0.502"/>
<g transform="translate(2880.00 2224.00) rotate(266) scale(192.00 528.00)"><ellipse cx="0" cy="0" rx="1" ry="1" fill="rgb(61,54,68)" fill-opacity="0.502"/></g>
<polygon points="5966.14,3045.51 5642.12,3183.05 5585.86,3050.49 5909.88,2912.95" fill="rgb(172,195,230)" fill-opacity="0.502"/>
<polygon points="1728.00,3248.00 2544.00,3248.00 2544.00,3472.00 1728.00,3472.00" fill="rgb(0,5,152)" fill-opacity="0.502"/>
<g transform="translate(4896.00 864.00) rotate(253) scale(160.00 48.00)"><ellipse cx="0" cy="0" rx="1" ry="1" fill="rgb(73,122,131)" fill-opacity="0.502"/></g>
<g transform="translate(5568.00 2416.00) rotate(95) scale(160.00 368.00)"><ellipse cx="0" cy="0" rx="1" ry="1" fill="rgb(39,55,136)" fill-opacity="0.502"/></g>
<polygon points="3125.39,1202.65 3135.14,1123.25 3738.61,1197.35 3728.86,1276.75" fill="rgb(125,168,254)" fill-opacity="0.502"/>
<polygon points="2969.71,2046.53 1885.85,1951.70 1926.29,1489.47 3010.15,1584.30" fill="rgb(0,0,7)" fill-opacity="0.502"/>
<polygon points="4221.06,2036.49 4167.83,1786.08 4386.94,1739.51 4440.17,1989.92" fill="rgb(102,140,255)" fill-opacity="0.502"/>
<polygon points="2380.12,1137.14 2496.07,1569.87 2387.88,1598.86 2271.93,1166.13" fill="rgb(0,0,42)" fill-opacity="0.502"/>
<g transform="translate(3744.00 4528.00) rotate(266) scale(176.00 368.00)"><ellipse cx="0" cy="0" rx="1" ry="1" fill="rgb(0,0,0)" fill-opacity="0.502"/></g>
<circle cx="5968.00" cy="1712.00" r="176.00" fill="rgb(41,80,192)" fill-opacity="0.502"/>
<polygon points="2009.11,562.01 2310.99,299.58 2646.89,685.99 2345.01,948.42" fill="rgb(0,2,42)" fill-opacity="0.502"/>
<circle cx="4576.00" cy="0.00" r="176.00" fill="rgb(16,105,207)" fill-opacity="0.502"/>
<g transform="translate(6800.00 3200.00) rotate(277) scale(80.00 224.00)"><ellipse cx="0" cy="0" rx="1" ry="1" fill="rgb(31,82,255)" fill-opacity="0.502"/></g>
<polygon points="6825.97,3596.89 7064.65,3571.81 7078.03,3699.11 6839.35,3724.19" fill="rgb(38,72,203)" fill-opacity="0.502"/>
<polygon points="6588.21,1592.32 6598.24,1496.85 7043.79,1543.68 7033.76,1639.15" fill="rgb(0,0,11)" fill-opacity="0.502"/>
<circle cx="768.00" cy="176.00" r="368.00" fill="rgb(0,0,0)" fill-opacity="0.502"/>
<polygon points="5128.71,4325.72 5067.19,4308.08 5111.29,4154.28 5172.81,4171.92" fill="rgb(139,152,189)" fill-opacity="0.502"/>
<polygon points="6372.35,734.02 6734.61,1048.93 6587.65,1217.98 6225.39,903.07" fill="rgb(3,32,140)" fill-opacity="0.502"/>
<g transform="translate(6432.00 2320.00) rotate(244) scale(448.00 464.00)"><ellipse cx="0" cy="0" rx="1" ry="1" fill="rgb(84,123,250)" fill-opacity="0.502"/></g>
<polygon points="6688.24,930.18 6714.28,1005.83 6063.76,1229.82 6037.72,1154.17" fill="rgb(79,122,255)" fill-opacity="0.502"/>
<circle cx="4240.00" cy="3888.00" r="256.00" fill="rgb(0,0,0)" fill-opacity="0.502"/>
<g transform="translate(400.00 3392.00) rotate(87) scale(2144.00 704.00)"><ellipse cx="0" cy="0" rx="1" ry="1" fill="rgb(0,0,0)" fill-opacity="0.502"/></g>
<circle cx="5504.00" cy="4592.00" r="272.00" fill="rgb(0,0,0)" fill-opacity="0.502"/>
<g transform="translate(2960.00 3136.00) rotate(132) scale(240.00 272.00)"><ellipse cx="0" cy="0" rx="1" ry="1" fill="rgb(0,7,86)" fill-opacity="0.502"/></g>
<circle cx="656.00" cy="1056.00" r="464.00" fill="rgb(0,0,0)" fill-opacity="0.502"/>
<g transform="translate(2176.00 1408.00) rotate(328) scale(80.00 144.00)"><ellipse cx="0" cy="0" rx="1" ry="1" fill="rgb(106,146,255)" fill-opacity="0.502"/></g>
<circle cx="4416.00" cy="3728.00" r="272.00" fill="rgb(2,0,8)" fill-opacity="0.502"/>
<circle cx="1536.00" cy="4320.00" r="432.00" fill="rgb(150,213,248)" fill-opacity="0.502"/>
<g transform="translate(6608.00 1776.00) rotate(14) scale(480.00 176.00)"><ellipse cx="0" cy="0" rx="1" ry="1" fill="rgb(31,71,214)" fill-opacity="0.502"/></g>
<g transform="translate(3344.00 4144.00) rotate(299) scale(128.00 64.00)"><ellipse cx="0" cy="0" rx="1" ry="1" fill="rgb(0,0,35)" fill-opacity="0.502"/></g>
<polygon points="4662.24,2055.48 4438.79,2039.86 4457.76,1768.52 4681.21,1784.14" fill="rgb(30,46,102)" fill-opacity="0.502"/>
<circle cx="1856.00" cy="2960.00" r="48.00" fill="rgb(191,217,255)" fill-opacity="0.502"/>
<circle cx="5440.00" cy="1216.00" r="160.00" fill="rgb(35,116,207)" fill-opacity="0.502"/>
<polygon points="4380.33,2818.41 4305.49,3063.22 3907.67,2941.59 3982.51,2696.78" fill="rgb(68,84,137)" fill-opacity="0.502"/>
<circle cx="4000.00" cy="3296.00" r="112.00" fill="rgb(48,129,223)" fill-opacity="0.502"/>
<circle cx="7696.00" cy="1376.00" r="624.00" fill="rgb(0,0,0)" fill-opacity="0.502"/>
<g transform="translate(1248.00 3488.00) rotate(101) scale(96.00 160.00)"><ellipse cx="0" cy="0" rx="1" ry="1" fill="rgb(0,30,179)" fill-opacity="0.502"/></g>
<g transform="translate(4512.00 4512.00) rotate(8) scale(400.00 288.00)"><ellipse cx="0" cy="0" rx="1" ry="1" fill="rgb(0,0,25)" fill-opacity="0.502"/></g>
<g transform="translate(5952.00 3712.00) rotate(170) scale(64.00 256.00)"><ellipse cx="0" cy="0" rx="1" ry="1" fill="rgb(0,3,6)" fill-opacity="0.502"/></g>
<g transform="translate(4864.00 3840.00) rotate(141) scale(128.00 480.00)"><ellipse cx="0" cy="0" rx="1" ry="1" fill="rgb(4,1,11)" fill-opacity="0.502"/></g>
<g transform="translate(1568.00 3792.00) rotate(205) scale(448.00 96.00)"><ellipse cx="0" cy="0" rx="1" ry="1" fill="rgb(240,255,255)" fill-opacity="0.502"/></g>
<g transform="translate(3040.00 3920.00) rotate(180) scale(224.00 240.00)"><ellipse cx="0" cy="0" rx="1" ry="1" fill="rgb(189,245,255)" fill-opacity="0.502"/></g>
<g transform="translate(1296.00 560.00) rotate(339) scale(192.00 208.00)"><ellipse cx="0" cy="0" rx="1" ry="1" fill="rgb(37,73,235)" fill-opacity="0.502"/></g>
<g transform="translate(1952.00 3408.00) rotate(167) scale(576.00 80.00)"><ellipse cx="0" cy="0" rx="1" ry="1" fill="rgb(0,26,151)" fill-opacity="0.502"/></g>
<circle cx="3760.00" cy="4224.00" r="160.00" fill="rgb(163,234,255)" fill-opacity="0.502"/>
<polygon points="5965.50,3059.63 5704.04,2984.65 5730.50,2892.37 5991.96,2967.35" fill="rgb(255,255,254)" fill-opacity="0.502"/>
<polygon points="1341.78,561.77 1934.20,698.54 1826.22,1166.23 1233.80,1029.46" fill="rgb(90,142,253)" fill-opacity="0.502"/>
<circle cx="2000.00" cy="3712.00" r="208.00" fill="rgb(238,255,255)" fill-opacity="0.502"/>
<polygon points="4089.08,1852.97 3770.30,1825.08 3814.92,1315.03 4133.70,1342.92" fill="rgb(23,60,39)" fill-opacity="0.502"/>
<polygon points="4734.84,4020.87 4640.18,4223.89 4321.16,4075.13 4415.82,3872.11" fill="rgb(2,1,20)" fill-opacity="0.502"/>
<g transform="translate(3488.00 3056.00) rotate(100) scale(160.00 768.00)"><ellipse cx="0" cy="0" rx="1" ry="1" fill="rgb(10,11,72)" fill-opacity="0.502"/></g>
<polygon points="6378.05,3490.46 6119.17,3302.37 6485.95,2797.54 6744.83,2985.63" fill="rgb(0,13,80)" fill-opacity="0.502"/>
<polygon points="7072.00,1472.00 6368.00,1472.00 6368.00,1328.00 7072.00,1328.00" fill="rgb(74,113,255)" fill-opacity="0.502"/>
<polygon points="6402.60,1476.44 6394.23,1572.07 5565.40,1499.56 5573.77,1403.93" fill="rgb(0,0,59)" fill-opacity="0.502"/>
<g transform="translate(6304.00 2816.00) rotate(292) scale(96.00 336.00)"><ellipse cx="0" cy="0" rx="1" ry="1" fill="rgb(36,71,212)" fill-opacity="0.502"/></g>
<circle cx="4544.00" cy="304.00" r="208.00" fill="rgb(0,20,133)" fill-opacity="0.502"/>
<g transform="translate(5056.00 2576.00) rotate(212) scale(80.00 336.00)"><ellipse cx="0" cy="0" rx="1" ry="1" fill="rgb(99,90,164)" fill-opacity="0.502"/></g>
<polygon points="5456.00,4256.00 6064.00,4256.00 6064.00,4320.00 5456.00,4320.00" fill="rgb(119,195,255)" fill-opacity="0.502"/>
<g transform="translate(7216.00 144.00) rotate(127) scale(368.00 192.00)"><ellipse cx="0" cy="0" rx="1" ry="1" fill="rgb(0,0,0)" fill-opacity="0.502"/></g>
<circle cx="2624.00" cy="2784.00" r="320.00" fill="rgb(6,10,25)" fill-opacity="0.502"/>
<polygon points="6568.00,4088.00 6568.00,3880.00 6728.00,3880.00 6728.00,4088.00" fill="rgb(5,24,238)" fill-opacity="0.502"/>
<polygon points="3117.58,2947.03 3205.18,2393.93 3426.42,2428.97 3338.82,2982.07" fill="rgb(0,1,49)" fill-opacity="0.502"/>
<circle cx="5584.00" cy="2480.00" r="128.00" fill="rgb(64,99,201)" fill-opacity="0.502"/>
<circle cx="5568.00" cy="1680.00" r="64.00" fill="rgb(126,160,255)" fill-opacity="0.502"/>
<g transform="translate(1984.00 1312.00) rotate(182) scale(288.00 208.00)"><ellipse cx="0" cy="0" rx="1" ry="1" fill="rgb(97,142,255)" fill-opacity="0.502"/></g>
<g transform="translate(1056.00 2512.00) rotate(190) scale(112.00 288.00)"><ellipse cx="0" cy="0" rx="1" ry="1" fill="rgb(0,0,0)" fill-opacity="0.502"/></g>
<g transform="translate(6032.00 2832.00) rotate(73) scale(160.00 128.00)"><ellipse cx="0" cy="0" rx="1" ry="1" fill="rgb(12,18,57)" fill-opacity="0.502"/></g>
<g transform="translate(3632.00 0.00) rotate(91) scale(144.00 784.00)"><ellipse cx="0" cy="0" rx="1" ry="1" fill="rgb(0,74,196)" fill-opacity="0.502"/></g>
<polygon points="6008.80,1863.17 5941.23,2289.86 5783.20,2264.83 5850.77,1838.14" fill="rgb(0,16,53)" fill-opacity="0.502"/>
<circle cx="6848.00" cy="3424.00" r="128.00" fill="rgb(0,0,23)" fill-opacity="0.502"/>
<circle cx="3776.00" cy="1104.00" r="144.00" fill="rgb(95,170,95)" fill-opacity="0.502"/>
<circle cx="4480.00" cy="2336.00" r="176.00" fill="rgb(92,102,87)" fill-opacity="0.502"/>
<g transform="translate(6000.00 4176.00) rotate(64) scale(112.00 112.00)"><ellipse cx="0" cy="0" rx="1" ry="1" fill="rgb(0,0,13)" fill-opacity="0.502"/></g>
<circle cx="2208.00" cy="2176.00" r="208.00" fill="rgb(60,60,91)" fill-opacity="0.502"/>
<circle cx="3664.00" cy="4000.00" r="48.00" fill="rgb(197,241,255)" fill-opacity="0.502"/>
<g transform="translate(1200.00 1392.00) rotate(65) scale(128.00 80.00)"><ellipse cx="0" cy="0" rx="1" ry="1" fill="rgb(80,122,156)" fill-opacity="0.502"/></g>
<g transform="translate(2672.00 2720.00) rotate(125) scale(80.00 448.00)"><ellipse cx="0" cy="0" rx="1" ry="1" fill="rgb(4,8,41)" fill-opacity="0.502"/></g>
<circle cx="2640.00" cy="3216.00" r="224.00" fill="rgb(8,31,108)" fill-opacity="0.502"/>
<g transform="translate(3280.00 688.00) rotate(181) scale(688.00 224.00)"><ellipse cx="0" cy="0" rx="1" ry="1" fill="rgb(0,15,154)" fill-opacity="0.502"/></g>
<polygon points="5347.92,3393.38 5267.64,3602.50 4924.08,3470.62 5004.36,3261.50" fill="rgb(0,4,62)" fill-opacity="0.502"/>
<polygon points="1215.45,262.75 1582.43,519.72 1536.55,585.25 1169.57,328.28" fill="rgb(0,0,105)" fill-opacity="0.502"/>
<g transform="translate(1264.00 2432.00) rotate(58) scale(160.00 64.00)"><ellipse cx="0" cy="0" rx="1" ry="1" fill="rgb(70,85,127)" fill-opacity="0.502"/></g>
<polygon points="3939.38,4413.65 4106.09,4241.01 4140.62,4274.35 3973.91,4446.99" fill="rgb(84,123,192)" fill-opacity="0.502"/>
<circle cx="2688.00" cy="4544.00" r="336.00" fill="rgb(165,230,255)" fill-opacity="0.502"/>
<polygon points="2667.62,952.22 2646.03,1045.76 2100.38,919.78 2121.97,826.24" fill="rgb(22,79,207)" fill-opacity="0.502"/>
<polygon points="5874.10,3284.38 5727.26,3074.68 5805.90,3019.62 5952.74,3229.32" fill="rgb(22,20,83)" fill-opacity="0.502"/>
<circle cx="1296.00" cy="3168.00" r="176.00" fill="rgb(42,94,144)" fill-opacity="0.502"/>
<g transform="translate(4640.00 2528.00) rotate(185) scale(16.00 448.00)"><ellipse cx="0" cy="0" rx="1" ry="1" fill="rgb(0,0,0)" fill-opacity="0.502"/></g>
<polygon points="6661.82,3297.94 6593.94,3365.82 6458.18,3230.06 6526.06,3162.18" fill="rgb(0,0,1)" fill-opacity="0.502"/>
<polygon points="3931.87,1161.73 4379.99,989.71 4420.13,1094.27 3972.01,1266.29" fill="rgb(39,82,77)" fill-opacity="0.502"/>
<polygon points="3757.59,1082.01 3181.94,1061.91 3186.41,933.99 3762.06,954.09" fill="rgb(40,114,231)" fill-opacity="0.502"/>
<g transform="translate(1376.00 4592.00) rotate(34) scale(320.00 96.00)"><ellipse cx="0" cy="0" rx="1" ry="1" fill="rgb(98,177,247)" fill-opacity="0.502"/></g>
<polygon points="5736.70,1505.64 5755.41,1566.84 5495.30,1646.36 5476.59,1585.16" fill="rgb(98,144,255)" fill-opacity="0.502"/>
<polygon points="2174.78,3388.55 2161.94,3020.77 3345.22,2979.45 3358.06,3347.23" fill="rgb(10,23,96)" fill-opacity="0.502"/>
<polygon points="3139.22,1185.42 3148.43,1361.18 2892.78,1374.58 2883.57,1198.82" fill="rgb(1,19,57)" fill-opacity="0.502"/>
<polygon points="4340.40,115.14 4426.78,489.30 3787.60,636.86 3701.22,262.70" fill="rgb(0,19,134)" fill-opacity="0.502"/>
<polygon points="4877.33,2967.03 5277.09,2953.07 5282.67,3112.97 4882.91,3126.93" fill="rgb(135,185,255)" fill-opacity="0.502"/>
<circle cx="7728.00" cy="3440.00" r="656.00" fill="rgb(0,0,0)" fill-opacity="0.502"/>
<polygon points="5249.02,1470.57 5051.20,1406.30 5070.98,1345.43 5268.80,1409.70" fill="rgb(165,196,255)" fill-opacity="0.502"/>
<circle cx="5008.00" cy="2464.00" r="32.00" fill="rgb(188,184,212)" fill-opacity="0.502"/>
<g transform="translate(3920.00 3616.00) rotate(318) scale(192.00 432.00)"><ellipse cx="0" cy="0" rx="1" ry="1" fill="rgb(10,2,18)" fill-opacity="0.502"/></g>
<polygon points="5446.64,3646.95 5558.45,3229.67 5929.36,3329.05 5817.55,3746.33" fill="rgb(24,42,124)" fill-opacity="0.502"/>
<circle cx="656.00" cy="1168.00" r="448.00" fill="rgb(0,0,0)" fill-opacity="0.502"/>
<circle cx="4928.00" cy="496.00" r="240.00" fill="rgb(0,10,116)" fill-opacity="0.502"/>
<polygon points="1103.94,1343.93 1137.40,961.39 1488.06,992.07 1454.60,1374.61" fill="rgb(53,109,249)" fill-opacity="0.502"/>
<circle cx="5120.00" cy="2880.00" r="112.00" fill="rgb(14,0,75)" fill-opacity="0.502"/>
<circle cx="3808.00" cy="2864.00" r="160.00" fill="rgb(18,0,8)" fill-opacity="0.502"/>
<g transform="translate(4480.00 3184.00) rotate(105) scale(96.00 160.00)"><ellipse cx="0" cy="0" rx="1" ry="1" fill="rgb(0,86,210)" fill-opacity="0.502"/></g>
<polygon points="3599.88,3852.06 3764.69,3577.77 3888.12,3651.94 3723.31,3926.23" fill="rgb(59,29,99)" fill-opacity="0.502"/>
<circle cx="5696.00" cy="1232.00" r="128.00" fill="rgb(54,113,233)" fill-opacity="0.502"/>
<circle cx="5888.00" cy="1232.00" r="48.00" fill="rgb(101,144,255)" fill-opacity="0.502"/>
<circle cx="5920.00" cy="1776.00" r="64.00" fill="rgb(71,135,255)" fill-opacity="0.502"/>
<polygon points="3189.55,3532.60 3060.10,3438.56 3370.45,3011.40 3499.90,3105.44" fill="rgb(11,25,138)" fill-opacity="0.502"/>
<g transform="translate(1056.00 2592.00) rotate(233) scale(48.00 224.00)"><ellipse cx="0" cy="0" rx="1" ry="1" fill="rgb(0,0,14)" fill-opacity="0.502"/></g>
<polygon points="4406.96,696.83 4211.30,885.78 4089.04,759.17 4284.70,570.22" fill="rgb(106,171,98)" fill-opacity="0.502"/>
<polygon points="1433.74,4262.98 1235.97,3933.83 1510.26,3769.02 1708.03,4098.17" fill="rgb(132,192,235)" fill-opacity="0.502"/>
<g transform="translate(6432.00 4080.00) rotate(113) scale(112.00 368.00)"><ellipse cx="0" cy="0" rx="1" ry="1" fill="rgb(5,7,33)" fill-opacity="0.502"/></g>
<polygon points="6633.72,878.68 5517.98,976.29 5494.28,705.32 6610.02,607.71" fill="rgb(0,7,77)" fill-opacity="0.502"/>
<circle cx="6816.00" cy="2512.00" r="272.00" fill="rgb(85,123,255)" fill-opacity="0.502"/>
<polygon points="2500.84,3953.65 2571.00,4183.16 1867.16,4398.35 1797.00,4168.84" fill="rgb(209,247,252)" fill-opacity="0.502"/>
<circle cx="7552.00" cy="1712.00" r="480.00" fill="rgb(0,0,0)" fill-opacity="0.502"/>
<polygon points="5828.34,3226.53 6376.15,3404.52 6331.66,3541.47 5783.85,3363.48" fill="rgb(44,118,218)" fill-opacity="0.502"/>
<circle cx="6944.00" cy="560.00" r="144.00" fill="rgb(18,59,235)" fill-opacity="0.502"/>
<g transform="translate(4240.00 3344.00) rotate(182) scale(352.00 80.00)"><ellipse cx="0" cy="0" rx="1" ry="1" fill="rgb(101,183,249)" fill-opacity="0.502"/></g>
<circle cx="3616.00" cy="480.00" r="368.00" fill="rgb(0,26,157)" fill-opacity="0.502"/>
<circle cx="800.00" cy="2784.00" r="304.00" fill="rgb(0,0,0)" fill-opacity="0.502"/>
<g transform="translate(5280.00 1360.00) rotate(1) scale(144.00 32.00)"><ellipse cx="0" cy="0" rx="1" ry="1" fill="rgb(0,0,138)" fill-opacity="0.502"/></g>
<circle cx="6272.00" cy="464.00" r="336.00" fill="rgb(0,3,26)" fill-opacity="0.502"/>
<polygon points="5107.00,2273.02 5181.54,1994.84 5197.00,1998.98 5122.46,2277.16" fill="rgb(19,44,65)" fill-opacity="0.502"/>
<circle cx="640.00" cy="3728.00" r="448.00" fill="rgb(0,0,0)" fill-opacity="0.502"/>
<g transform="translate(4384.00 2496.00) rotate(137) scale(208.00 272.00)"><ellipse cx="0" cy="0" rx="1" ry="1" fill="rgb(72,70,83)" fill-opacity="0.502"/></g>
<circle cx="5168.00" cy="1184.00" r="112.00" fill="rgb(0,0,0)" fill-opacity="0.502"/>
<polygon points="7082.67,1960.66 7060.89,2376.09 6741.33,2359.34 6763.11,1943.91" fill="rgb(73,110,255)" fill-opacity="0.502"/>
<circle cx="3456.00" cy="3888.00" r="160.00" fill="rgb(0,0,0)" fill-opacity="0.502"/>
<polygon points="6183.52,4408.32 6050.97,4352.05 6088.48,4263.68 6221.03,4319.95" fill="rgb(63,101,214)" fill-opacity="0.502"/>
<polygon points="5951.42,3489.09 6044.27,3426.47 6160.58,3598.91 6067.73,3661.53" fill="rgb(0,0,7)" fill-opacity="0.502"/>
<circle cx="1648.00" cy="2272.00" r="208.00" fill="rgb(0,0,40)" fill-opacity="0.502"/>
<polygon points="4891.69,3060.25 5002.00,3152.82 4724.31,3483.75 4614.00,3391.18" fill="rgb(0,44,145)" fill-opacity="0.502"/>
<g transform="translate(592.00 3280.00) rotate(332) scale(432.00 720.00)"><ellipse cx="0" cy="0" rx="1" ry="1" fill="rgb(0,0,0)" fill-opacity="0.502"/></g>
<polygon points="-0.00,0.00 1088.00,-0.00 1088.00,1968.00 0.00,1968.00" fill="rgb(0,0,0)" fill-opacity="0.502"/>
<g transform="translate(5824.00 2416.00) rotate(299) scale(176.00 96.00)"><ellipse cx="0" cy="0" rx="1" ry="1" fill="rgb(0,17,59)" fill-opacity="0.502"/></g>
<polygon points="6623.51,1246.33 7026.07,984.90 7104.49,1105.67 6701.93,1367.10" fill="rgb(48,102,255)" fill-opacity="0.502"/>
<circle cx="5344.00" cy="2992.00" r="64.00" fill="rgb(0,0,54)" fill-opacity="0.502"/>
<polygon points="1920.58,2942.04 1755.20,3002.24 1711.42,2881.96 1876.80,2821.76" fill="rgb(96,139,153)" fill-opacity="0.502"/>
<polygon points="1792.36,3807.68 1522.39,3774.53 1551.64,3536.32 1821.61,3569.47" fill="rgb(246,255,255)" fill-opacity="0.502"/>
<g transform="translate(1648.00 1776.00) rotate(338) scale(144.00 352.00)"><ellipse cx="0" cy="0" rx="1" ry="1" fill="rgb(50,65,60)" fill-opacity="0.502"/></g>
<polygon points="1727.78,395.53 2245.55,682.54 2160.22,836.47 1642.45,549.46" fill="rgb(0,0,39)" fill-opacity="0.502"/>
<circle cx="3408.00" cy="1760.00" r="208.00" fill="rgb(0,2,13)" fill-opacity="0.502"/>
<circle cx="4496.00" cy="896.00" r="224.00" fill="rgb(13,43,47)" fill-opacity="0.502"/>
<polygon points="2286.08,2608.63 2546.19,2688.15 2433.92,3055.37 2173.81,2975.85" fill="rgb(0,4,13)" fill-opacity="0.502"/>
<polygon points="1168.70,3540.96 1217.45,3143.94 1503.30,3179.04 1454.55,3576.06" fill="rgb(0,39,128)" fill-opacity="0.502"/>
<polygon points="6019.37,1164.64 5965.53,963.73 6444.63,835.36 6498.47,1036.27" fill="rgb(0,46,171)" fill-opacity="0.502"/>
<polygon points="3382.81,4647.39 3007.21,4567.56 3017.19,4520.61 3392.79,4600.44" fill="rgb(103,201,255)" fill-opacity="0.502"/>
<polygon points="1486.02,1603.05 1134.07,1596.91 1137.98,1372.95 1489.93,1379.09" fill="rgb(115,142,119)" fill-opacity="0.502"/>
<g transform="translate(2080.00 1344.00) rotate(223) scale(224.00 96.00)"><ellipse cx="0" cy="0" rx="1" ry="1" fill="rgb(85,126,242)" fill-opacity="0.502"/></g>
<circle cx="6768.00" cy="2848.00" r="128.00" fill="rgb(0,44,159)" fill-opacity="0.502"/>
<polygon points="3260.50,3800.20 3043.31,4192.03 2595.50,3943.80 2812.69,3551.97" fill="rgb(197,243,249)" fill-opacity="0.502"/>
<polygon points="4871.17,1968.44 4855.29,1966.49 4872.83,1823.56 4888.71,1825.51" fill="rgb(165,189,255)" fill-opacity="0.502"/>
<polygon points="5399.83,3179.95 5660.05,3440.17 5592.17,3508.05 5331.95,3247.83" fill="rgb(0,0,2)" fill-opacity="0.502"/>
<polygon points="4833.21,2631.68 5008.24,2650.08 4974.79,2968.32 4799.76,2949.92" fill="rgb(39,42,96)" fill-opacity="0.502"/>
<circle cx="3264.00" cy="1312.00" r="64.00" fill="rgb(165,180,153)" fill-opacity="0.502"/>
<circle cx="2816.00" cy="3728.00" r="320.00" fill="rgb(200,245,250)" fill-opacity="0.502"/>
<g transform="translate(6992.00 3840.00) rotate(212) scale(336.00 112.00)"><ellipse cx="0" cy="0" rx="1" ry="1" fill="rgb(1,1,6)" fill-opacity="0.502"/></g>
<circle cx="2192.00" cy="2080.00" r="48.00" fill="rgb(129,126,154)" fill-opacity="0.502"/>
<polygon points="3902.56,4654.37 3635.53,4546.48 3713.44,4353.63 3980.47,4461.52" fill="rgb(0,0,19)" fill-opacity="0.502"/>
<g transform="translate(3136.00 4576.00) rotate(343) scale(176.00 192.00)"><ellipse cx="0" cy="0" rx="1" ry="1" fill="rgb(143,214,255)" fill-opacity="0.502"/></g>
<g transform="translate(5296.00 2384.00) rotate(214) scale(16.00 112.00)"><ellipse cx="0" cy="0" rx="1" ry="1" fill="rgb(0,0,38)" fill-opacity="0.502"/></g>
<circle cx="5136.00" cy="2304.00" r="96.00" fill="rgb(134,151,208)" fill-opacity="0.502"/>
<circle cx="3056.00" cy="2640.00" r="128.00" fill="rgb(9,30,233)" fill-opacity="0.502"/>
<circle cx="6128.00" cy="64.00" r="128.00" fill="rgb(0,33,123)" fill-opacity="0.502"/>
<polygon points="5009.57,914.99 5224.89,976.73 5198.43,1069.01 4983.11,1007.27" fill="rgb(73,146,117)" fill-opacity="0.502"/>
<g transform="translate(4288.00 1888.00) rotate(24) scale(144.00 96.00)"><ellipse cx="0" cy="0" rx="1" ry="1" fill="rgb(94,132,237)" fill-opacity="0.502"/></g>
<g transform="translate(4272.00 4272.00) rotate(101) scale(96.00 272.00)"><ellipse cx="0" cy="0" rx="1" ry="1" fill="rgb(0,0,63)" fill-opacity="0.502"/></g>
<g transform="translate(6352.00 3536.00) rotate(153) scale(32.00 32.00)"><ellipse cx="0" cy="0" rx="1" ry="1" fill="rgb(164,209,247)" fill-opacity="0.502"/></g>
<circle cx="1360.00" cy="672.00" r="32.00" fill="rgb(0,11,121)" fill-opacity="0.502"/>
<g transform="translate(5904.00 4480.00) rotate(47) scale(144.00 144.00)"><ellipse cx="0" cy="0" rx="1" ry="1" fill="rgb(0,0,5)" fill-opacity="0.502"/></g>
<polygon points="5235.02,1668.73 5439.86,1632.61 5500.98,1979.27 5296.14,2015.39" fill="rgb(171,206,255)" fill-opacity="0.502"/>
<polygon points="4954.86,4659.61 4437.48,4491.50 4645.14,3852.39 5162.52,4020.50" fill="rgb(5,6,20)" fill-opacity="0.502"/>
<polygon points="3491.56,4659.03 3322.28,4426.04 3516.44,4284.97 3685.72,4517.96" fill="rgb(0,0,43)" fill-opacity="0.502"/>
<g transform="translate(2368.00 3872.00) rotate(250) scale(320.00 128.00)"><ellipse cx="0" cy="0" rx="1" ry="1" fill="rgb(214,247,252)" fill-opacity="0.502"/></g>
<circle cx="6992.00" cy="752.00" r="96.00" fill="rgb(0,0,34)" fill-opacity="0.502"/>
<circle cx="2544.00" cy="736.00" r="192.00" fill="rgb(0,12,70)" fill-opacity="0.502"/>
<polygon points="4539.86,2335.01 4549.89,2239.54 4868.14,2272.99 4858.11,2368.46" fill="rgb(131,137,162)" fill-opacity="0.502"/>
<polygon points="5526.03,2035.19 5637.87,2029.33 5657.97,2412.81 5546.13,2418.67" fill="rgb(2,26,88)" fill-opacity="0.502"/>
<circle cx="6480.00" cy="1520.00" r="64.00" fill="rgb(0,0,44)" fill-opacity="0.502"/>
<circle cx="4992.00" cy="240.00" r="176.00" fill="rgb(0,46,163)" fill-opacity="0.502"/>
<g transform="translate(1520.00 4224.00) rotate(193) scale(416.00 160.00)"><ellipse cx="0" cy="0" rx="1" ry="1" fill="rgb(167,228,247)" fill-opacity="0.502"/></g>
<polygon points="1369.43,2881.93 1565.55,2497.01 1622.57,2526.07 1426.45,2910.99" fill="rgb(0,1,92)" fill-opacity="0.502"/>
<polygon points="4084.71,1028.34 3970.66,970.23 4043.29,827.66 4157.34,885.77" fill="rgb(132,209,116)" fill-opacity="0.502"/>
<g transform="translate(4656.00 640.00) rotate(308) scale(96.00 208.00)"><ellipse cx="0" cy="0" rx="1" ry="1" fill="rgb(56,112,121)" fill-opacity="0.502"/></g>
<circle cx="7744.00" cy="2192.00" r="672.00" fill="rgb(0,0,0)" fill-opacity="0.502"/>
<g transform="translate(2960.00 2112.00) rotate(83) scale(64.00 128.00)"><ellipse cx="0" cy="0" rx="1" ry="1" fill="rgb(154,138,148)" fill-opacity="0.502"/></g>
<polygon points="1675.09,3057.46 1596.66,2936.69 1636.91,2910.54 1715.34,3031.31" fill="rgb(104,156,195)" fill-opacity="0.502"/>
<circle cx="4784.00" cy="2144.00" r="128.00" fill="rgb(24,52,37)" fill-opacity="0.502"/>
<polygon points="1981.52,308.35 2482.27,520.91 2338.48,859.65 1837.73,647.09" fill="rgb(0,6,46)" fill-opacity="0.502"/>
<polygon points="3442.49,4655.29 3230.53,4316.07 3325.51,4256.71 3537.47,4595.93" fill="rgb(0,0,58)" fill-opacity="0.502"/>
<circle cx="3392.00" cy="2112.00" r="48.00" fill="rgb(222,241,230)" fill-opacity="0.502"/>
<g transform="translate(3824.00 2448.00) rotate(135) scale(208.00 176.00)"><ellipse cx="0" cy="0" rx="1" ry="1" fill="rgb(15,0,8)" fill-opacity="0.502"/></g>
<circle cx="5568.00" cy="3008.00" r="144.00" fill="rgb(81,104,255)" fill-opacity="0.502"/>
<g transform="translate(1024.00 4384.00) rotate(27) scale(32.00 144.00)"><ellipse cx="0" cy="0" rx="1" ry="1" fill="rgb(0,0,0)" fill-opacity="0.502"/></g>
<polygon points="2976.00,944.00 2976.00,1120.00 2736.00,1120.00 2736.00,944.00" fill="rgb(36,92,212)" fill-opacity="0.502"/>
<polygon points="7107.03,2618.05 7034.39,2760.61 6620.97,2549.95 6693.61,2407.39" fill="rgb(88,126,255)" fill-opacity="0.502"/>
<circle cx="1216.00" cy="448.00" r="112.00" fill="rgb(41,78,246)" fill-opacity="0.502"/>
<polygon points="3253.15,3719.50 3474.85,3591.50 3530.85,3688.50 3309.15,3816.50" fill="rgb(0,0,16)" fill-opacity="0.502"/>
<g transform="translate(5440.00 2624.00) rotate(215) scale(272.00 64.00)"><ellipse cx="0" cy="0" rx="1" ry="1" fill="rgb(0,1,18)" fill-opacity="0.502"/></g>
<g transform="translate(4016.00 2880.00) rotate(5) scale(48.00 304.00)"><ellipse cx="0" cy="0" rx="1" ry="1" fill="rgb(100,103,178)" fill-opacity="0.502"/></g>
<g transform="translate(3424.00 3296.00) rotate(359) scale(112.00 32.00)"><ellipse cx="0" cy="0" rx="1" ry="1" fill="rgb(149,210,255)" fill-opacity="0.502"/></g>
<g transform="translate(2976.00 32.00) rotate(359) scale(336.00 192.00)"><ellipse cx="0" cy="0" rx="1" ry="1" fill="rgb(0,34,158)" fill-opacity="0.502"/></g>
<polygon points="2861.72,4215.72 2873.93,4152.90 3282.28,4232.28 3270.07,4295.10" fill="rgb(8,68,175)" fill-opacity="0.502"/>
<polygon points="1857.85,1594.15 1770.88,1918.70 1678.15,1893.85 1765.12,1569.30" fill="rgb(67,111,148)" fill-opacity="0.502"/>
<g transform="translate(6336.00 1328.00) rotate(16) scale(128.00 112.00)"><ellipse cx="0" cy="0" rx="1" ry="1" fill="rgb(70,122,255)" fill-opacity="0.502"/></g>
<g transform="translate(5904.00 1584.00) rotate(273) scale(32.00 688.00)"><ellipse cx="0" cy="0" rx="1" ry="1" fill="rgb(72,112,245)" fill-opacity="0.502"/></g>
<circle cx="272.00" cy="656.00" r="816.00" fill="rgb(0,0,0)" fill-opacity="0.502"/>
<circle cx="5232.00" cy="2304.00" r="32.00" fill="rgb(0,0,57)" fill-opacity="0.502"/>
<g transform="translate(2128.00 64.00) rotate(150) scale(336.00 288.00)"><ellipse cx="0" cy="0" rx="1" ry="1" fill="rgb(0,11,96)" fill-opacity="0.502"/></g>
<g transform="translate(7104.00 1824.00) rotate(21) scale(480.00 32.00)"><ellipse cx="0" cy="0" rx="1" ry="1" fill="rgb(0,2,38)" fill-opacity="0.502"/></g>
<g transform="translate(3920.00 3552.00) rotate(92) scale(112.00 576.00)"><ellipse cx="0" cy="0" rx="1" ry="1" fill="rgb(2,5,20)" fill-opacity="0.502"/></g>
<g transform="translate(4240.00 3824.00) rotate(16) scale(368.00 288.00)"><ellipse cx="0" cy="0" rx="1" ry="1" fill="rgb(5,7,18)" fill-opacity="0.502"/></g>
<circle cx="4592.00" cy="3392.00" r="80.00" fill="rgb(70,160,255)" fill-opacity="0.502"/>
<polygon points="2209.92,1966.95 2257.80,1970.30 2222.08,2481.05 2174.20,2477.70" fill="rgb(105,112,150)" fill-opacity="0.502"/>
<polygon points="5294.35,2941.57 5169.65,2869.57 5217.65,2786.43 5342.35,2858.43" fill="rgb(250,154,130)" fill-opacity="0.502"/>
<g transform="translate(2736.00 2672.00) rotate(204) scale(48.00 160.00)"><ellipse cx="0" cy="0" rx="1" ry="1" fill="rgb(39,41,108)" fill-opacity="0.502"/></g>
<polygon points="2640.26,2417.14 2608.57,2412.68 2639.74,2190.86 2671.43,2195.32" fill="rgb(0,0,0)" fill-opacity="0.502"/>
<polygon points="6737.05,3149.93 6547.42,3119.90 6574.95,2946.07 6764.58,2976.10" fill="rgb(8,6,13)" fill-opacity="0.502"/>
<circle cx="1456.00" cy="64.00" r="384.00" fill="rgb(2,5,50)" fill-opacity="0.502"/>
<g transform="translate(5552.00 224.00) rotate(83) scale(96.00 528.00)"><ellipse cx="0" cy="0" rx="1" ry="1" fill="rgb(0,28,126)" fill-opacity="0.502"/></g>
<circle cx="6208.00" cy="4544.00" r="192.00" fill="rgb(0,6,34)" fill-opacity="0.502"/>
<polygon points="5593.79,1296.83 5630.10,1368.11 5302.21,1535.17 5265.90,1463.89" fill="rgb(114,147,255)" fill-opacity="0.502"/>
<circle cx="6144.00" cy="3792.00" r="288.00" fill="rgb(2,3,34)" fill-opacity="0.502"/>
<circle cx="7344.00" cy="1136.00" r="272.00" fill="rgb(0,0,0)" fill-opacity="0.502"/>
<polygon points="3282.64,2402.05 2973.55,2319.23 3085.36,1901.95 3394.45,1984.77" fill="rgb(21,16,66)" fill-opacity="0.502"/>
<circle cx="2928.00" cy="3552.00" r="176.00" fill="rgb(188,237,254)" fill-opacity="0.502"/>
<circle cx="6528.00" cy="864.00" r="144.00" fill="rgb(5,26,138)" fill-opacity="0.502"/>
<polygon points="3849.27,4583.53 3899.65,4365.28 4086.73,4408.47 4036.35,4626.72" fill="rgb(0,0,7)" fill-opacity="0.502"/>
<polygon points="3757.28,1885.95 3741.44,1888.18 3714.72,1698.05 3730.56,1695.82" fill="rgb(132,144,139)" fill-opacity="0.502"/>
<polygon points="5695.43,2498.09 5619.85,2170.70 5744.57,2141.91 5820.15,2469.30" fill="rgb(51,85,194)" fill-opacity="0.502"/>
<polygon points="3948.16,2599.46 3617.26,2541.11 3747.84,1800.54 4078.74,1858.89" fill="rgb(10,7,22)" fill-opacity="0.502"/>
<polygon points="3303.22,3510.64 3263.22,3441.36 3304.78,3417.36 3344.78,3486.64" fill="rgb(217,26,44)" fill-opacity="0.502"/>
<circle cx="3472.00" cy="3920.00" r="192.00" fill="rgb(1,6,35)" fill-opacity="0.502"/>
<circle cx="5136.00" cy="0.00" r="96.00" fill="rgb(50,132,229)" fill-opacity="0.502"/>
<polygon points="7084.05,2683.48 7027.48,2740.05 6755.95,2468.52 6812.52,2411.95" fill="rgb(82,121,255)" fill-opacity="0.502"/>
<circle cx="7584.00" cy="800.00" r="528.00" fill="rgb(0,0,0)" fill-opacity="0.502"/>
<polygon points="4218.04,3487.58 4200.52,3376.96 4405.96,3344.42 4423.48,3455.04" fill="rgb(4,85,164)" fill-opacity="0.502"/>
<polygon points="1573.92,2364.03 1679.23,2462.24 1450.08,2707.97 1344.77,2609.76" fill="rgb(9,40,127)" fill-opacity="0.502"/>
<polygon points="4726.67,1426.79 4742.16,1364.70 5161.33,1469.21 5145.84,1531.30" fill="rgb(0,15,29)" fill-opacity="0.502"/>
<g transform="translate(6624.00 2848.00) rotate(117) scale(96.00 144.00)"><ellipse cx="0" cy="0" rx="1" ry="1" fill="rgb(0,49,188)" fill-opacity="0.502"/></g>
<circle cx="3664.00" cy="3136.00" r="80.00" fill="rgb(67,77,159)" fill-opacity="0.502"/>
<polygon points="3266.05,4023.65 3229.25,4373.73 3101.95,4360.35 3138.75,4010.27" fill="rgb(164,237,255)" fill-opacity="0.502"/>
<polygon points="3614.30,2137.70 3658.07,2240.79 3569.70,2278.30 3525.93,2175.21" fill="rgb(154,146,150)" fill-opacity="0.502"/>
<polygon points="1619.42,3714.50 1108.12,3741.30 1100.58,3597.50 1611.88,3570.70" fill="rgb(205,255,255)" fill-opacity="0.502"/>
<g transform="translate(3104.00 3920.00) rotate(63) scale(224.00 160.00)"><ellipse cx="0" cy="0" rx="1" ry="1" fill="rgb(177,234,255)" fill-opacity="0.502"/></g>
<polygon points="1799.55,936.27 1129.19,983.15 1112.45,743.73 1782.81,696.85" fill="rgb(99,152,255)" fill-opacity="0.502"/>
<g transform="translate(7040.00 3648.00) rotate(167) scale(16.00 32.00)"><ellipse cx="0" cy="0" rx="1" ry="1" fill="rgb(70,121,255)" fill-opacity="0.502"/></g>
<polygon points="6462.22,3594.42 6128.44,3272.10 6161.78,3237.58 6495.56,3559.90" fill="rgb(0,0,23)" fill-opacity="0.502"/>
<polygon points="1583.54,616.16 1606.81,574.18 2432.46,1031.84 2409.19,1073.82" fill="rgb(13,43,189)" fill-opacity="0.502"/>
<polygon points="4599.38,254.11 4549.93,101.94 4808.62,17.89 4858.07,170.06" fill="rgb(0,65,180)" fill-opacity="0.502"/>
<circle cx="400.00" cy="4368.00" r="704.00" fill="rgb(0,0,0)" fill-opacity="0.502"/>
<polygon points="6003.53,1787.77 6066.51,1715.31 6380.47,1988.23 6317.49,2060.69" fill="rgb(78,112,245)" fill-opacity="0.502"/>
</g>
</svg>