<?xml version="1.0" standalone="no"?>
<svg xmlns="http://www.w3.org/2000/svg" width="8192" height="4608" viewBox="0 0 8192 4608" style="overflow:hidden">
<defs>
<clipPath id="c"><rect x="0" y="0" width="8192" height="4608"/></clipPath>
</defs>
<rect width="8192" height="4608" fill="rgb(60,43,35)"/>
<g clip-path="url(#c)">
<g transform="translate(6160.00 3040.00) rotate(253) scale(1584.00 896.00)"><ellipse cx="0" cy="0" rx="1" ry="1" fill="rgb(255,255,247)" fill-opacity="0.502"/></g>
<g transform="translate(7088.00 1264.00) rotate(165) scale(2256.00 368.00)"><ellipse cx="0" cy="0" rx="1" ry="1" fill="rgb(13,0,0)" fill-opacity="0.502"/></g>
<circle cx="4752.00" cy="2384.00" r="480.00" fill="rgb(255,255,255)" fill-opacity="0.502"/>
<circle cx="6656.00" cy="2128.00" r="464.00" fill="rgb(255,247,212)" fill-opacity="0.502"/>
<circle cx="8080.00" cy="2432.00" r="1040.00" fill="rgb(0,0,0)" fill-opacity="0.502"/>
<polygon points="5965.72,2906.12 4970.13,2748.43 5090.28,1989.88 6085.87,2147.57" fill="rgb(252,255,255)" fill-opacity="0.502"/>
<circle cx="4976.00" cy="3184.00" r="528.00" fill="rgb(0,0,20)" fill-opacity="0.502"/>
<circle cx="0.00" cy="2368.00" r="2704.00" fill="rgb(0,0,0)" fill-opacity="0.502"/>
<circle cx="3472.00" cy="3232.00" r="848.00" fill="rgb(0,0,0)" fill-opacity="0.502"/>
<g transform="translate(5520.00 3872.00) rotate(359) scale(1632.00 288.00)"><ellipse cx="0" cy="0" rx="1" ry="1" fill="rgb(162,105,74)" fill-opacity="0.502"/></g>
<g transform="translate(464.00 2032.00) rotate(270) scale(8144.00 640.00)"><ellipse cx="0" cy="0" rx="1" ry="1" fill="rgb(0,0,0)" fill-opacity="0.502"/></g>
<circle cx="8048.00" cy="3712.00" r="1024.00" fill="rgb(0,0,0)" fill-opacity="0.502"/>
<circle cx="6704.00" cy="3264.00" r="384.00" fill="rgb(255,255,255)" fill-opacity="0.502"/>
<g transform="translate(7792.00 4352.00) rotate(267) scale(5936.00 640.00)"><ellipse cx="0" cy="0" rx="1" ry="1" fill="rgb(0,0,0)" fill-opacity="0.502"/></g>
<g transform="translate(4560.00 1872.00) rotate(262) scale(240.00 2624.00)"><ellipse cx="0" cy="0" rx="1" ry="1" fill="rgb(63,30,10)" fill-opacity="0.502"/></g>
<g transform="translate(1600.00 2576.00) rotate(81) scale(416.00 512.00)"><ellipse cx="0" cy="0" rx="1" ry="1" fill="rgb(145,98,74)" fill-opacity="0.502"/></g>
<polygon points="2867.27,4214.48 1779.43,4233.46 1772.73,3849.52 2860.57,3830.54" fill="rgb(237,161,127)" fill-opacity="0.502"/>
<g transform="translate(4464.00 880.00) rotate(178) scale(2640.00 960.00)"><ellipse cx="0" cy="0" rx="1" ry="1" fill="rgb(108,38,3)" fill-opacity="0.502"/></g>
<g transform="translate(6016.00 4400.00) rotate(290) scale(384.00 528.00)"><ellipse cx="0" cy="0" rx="1" ry="1" fill="rgb(99,73,50)" fill-opacity="0.502"/></g>
<circle cx="3264.00" cy="4592.00" r="656.00" fill="rgb(11,0,0)" fill-opacity="0.502"/>
<circle cx="6688.00" cy="2544.00" r="416.00" fill="rgb(249,194,173)" fill-opacity="0.502"/>
<circle cx="5824.00" cy="2880.00" r="240.00" fill="rgb(255,255,255)" fill-opacity="0.502"/>
<circle cx="2576.00" cy="3296.00" r="544.00" fill="rgb(0,0,0)" fill-opacity="0.502"/>
<g transform="translate(2096.00 4576.00) rotate(62) scale(480.00 400.00)"><ellipse cx="0" cy="0" rx="1" ry="1" fill="rgb(0,0,0)" fill-opacity="0.502"/></g>
<circle cx="7920.00" cy="496.00" r="976.00" fill="rgb(0,0,0)" fill-opacity="0.502"/>
<circle cx="3088.00" cy="2512.00" r="368.00" fill="rgb(105,57,34)" fill-opacity="0.502"/>
<circle cx="4528.00" cy="2432.00" r="352.00" fill="rgb(238,254,255)" fill-opacity="0.502"/>
<circle cx="6480.00" cy="4464.00" r="608.00" fill="rgb(187,170,149)" fill-opacity="0.502"/>
<g transform="translate(5600.00 3728.00) rotate(186) scale(1280.00 112.00)"><ellipse cx="0" cy="0" rx="1" ry="1" fill="rgb(74,41,22)" fill-opacity="0.502"/></g>
<circle cx="5584.00" cy="3920.00" r="112.00" fill="rgb(255,240,217)" fill-opacity="0.502"/>
<circle cx="4464.00" cy="3184.00" r="512.00" fill="rgb(0,1,27)" fill-opacity="0.502"/>
<circle cx="5312.00" cy="3472.00" r="288.00" fill="rgb(22,12,7)" fill-opacity="0.502"/>
<g transform="translate(6128.00 2240.00) rotate(0) scale(160.00 400.00)"><ellipse cx="0" cy="0" rx="1" ry="1" fill="rgb(69,65,87)" fill-opacity="0.502"/></g>
<polygon points="6980.05,1602.77 7154.42,1851.79 6603.95,2237.23 6429.58,1988.21" fill="rgb(255,185,150)" fill-opacity="0.502"/>
<circle cx="4800.00" cy="4592.00" r="496.00" fill="rgb(2,0,0)" fill-opacity="0.502"/>
<circle cx="1760.00" cy="3312.00" r="144.00" fill="rgb(216,156,130)" fill-opacity="0.502"/>
<polygon points="4363.95,2273.35 4006.88,2362.37 3972.05,2222.65 4329.12,2133.63" fill="rgb(243,191,149)" fill-opacity="0.502"/>
<circle cx="5648.00" cy="2512.00" r="352.00" fill="rgb(235,252,255)" fill-opacity="0.502"/>
<circle cx="112.00" cy="2368.00" r="1024.00" fill="rgb(0,0,0)" fill-opacity="0.502"/>
<g transform="translate(5632.00 4352.00) rotate(150) scale(512.00 240.00)"><ellipse cx="0" cy="0" rx="1" ry="1" fill="rgb(40,21,11)" fill-opacity="0.502"/></g>
<g transform="translate(6352.00 4288.00) rotate(87) scale(256.00 128.00)"><ellipse cx="0" cy="0" rx="1" ry="1" fill="rgb(94,72,55)" fill-opacity="0.502"/></g>
<polygon points="4888.19,4226.10 4488.07,3811.76 4775.81,3533.90 5175.93,3948.24" fill="rgb(177,140,115)" fill-opacity="0.502"/>
<polygon points="1154.73,3742.79 1133.51,3135.17 1533.27,3121.21 1554.49,3728.83" fill="rgb(128,88,64)" fill-opacity="0.502"/>
<circle cx="3488.00" cy="3424.00" r="592.00" fill="rgb(0,0,0)" fill-opacity="0.502"/>
<g transform="translate(2240.00 2512.00) rotate(273) scale(272.00 112.00)"><ellipse cx="0" cy="0" rx="1" ry="1" fill="rgb(166,116,93)" fill-opacity="0.502"/></g>
<circle cx="2112.00" cy="608.00" r="992.00" fill="rgb(58,29,14)" fill-opacity="0.502"/>
<circle cx="6800.00" cy="2688.00" r="288.00" fill="rgb(184,144,119)" fill-opacity="0.502"/>
<polygon points="5818.41,3320.61 6066.89,3209.97 6229.59,3575.39 5981.11,3686.03" fill="rgb(255,255,250)" fill-opacity="0.502"/>
<g transform="translate(7632.00 3984.00) rotate(270) scale(8176.00 544.00)"><ellipse cx="0" cy="0" rx="1" ry="1" fill="rgb(0,0,0)" fill-opacity="0.502"/></g>
<g transform="translate(2384.00 1856.00) rotate(261) scale(480.00 672.00)"><ellipse cx="0" cy="0" rx="1" ry="1" fill="rgb(25,13,10)" fill-opacity="0.502"/></g>
<g transform="translate(6640.00 4288.00) rotate(214) scale(160.00 144.00)"><ellipse cx="0" cy="0" rx="1" ry="1" fill="rgb(222,240,238)" fill-opacity="0.502"/></g>
<polygon points="6320.00,2032.00 6560.00,2032.00 6560.00,3104.00 6320.00,3104.00" fill="rgb(255,222,207)" fill-opacity="0.502"/>
<g transform="translate(5632.00 3200.00) rotate(237) scale(416.00 176.00)"><ellipse cx="0" cy="0" rx="1" ry="1" fill="rgb(143,99,79)" fill-opacity="0.502"/></g>
<g transform="translate(6784.00 2000.00) rotate(131) scale(224.00 352.00)"><ellipse cx="0" cy="0" rx="1" ry="1" fill="rgb(233,173,145)" fill-opacity="0.502"/></g>
<g transform="translate(272.00 3248.00) rotate(183) scale(816.00 4000.00)"><ellipse cx="0" cy="0" rx="1" ry="1" fill="rgb(0,0,0)" fill-opacity="0.502"/></g>
<polygon points="7072.00,3232.00 7072.00,3584.00 6464.00,3584.00 6464.00,3232.00" fill="rgb(255,255,245)" fill-opacity="0.502"/>
<circle cx="2384.00" cy="3312.00" r="528.00" fill="rgb(4,1,0)" fill-opacity="0.502"/>
<polygon points="5963.30,4001.21 5943.86,3890.91 6148.70,3854.79 6168.14,3965.09" fill="rgb(255,255,241)" fill-opacity="0.502"/>
<polygon points="1625.90,2240.63 1922.65,2715.54 1814.10,2783.37 1517.35,2308.46" fill="rgb(169,127,111)" fill-opacity="0.502"/>
<polygon points="5448.43,2331.38 5268.62,2776.43 4823.57,2596.62 5003.38,2151.57" fill="rgb(194,215,255)" fill-opacity="0.502"/>
<polygon points="2000.00,2560.00 2352.00,2560.00 2352.00,2656.00 2000.00,2656.00" fill="rgb(0,0,0)" fill-opacity="0.502"/>
<polygon points="4951.56,3685.49 4952.40,3733.48 4664.44,3738.51 4663.60,3690.52" fill="rgb(255,255,255)" fill-opacity="0.502"/>
<polygon points="3932.80,3436.84 4077.74,3977.75 3923.20,4019.16 3778.26,3478.25" fill="rgb(0,0,2)" fill-opacity="0.502"/>
<polygon points="1272.46,2784.55 1305.91,2466.30 1735.54,2511.45 1702.09,2829.70" fill="rgb(47,28,13)" fill-opacity="0.502"/>
<polygon points="4962.26,2039.61 4001.09,2209.09 3917.74,1736.39 4878.91,1566.91" fill="rgb(64,46,31)" fill-opacity="0.502"/>
<g transform="translate(1328.00 1840.00) rotate(174) scale(224.00 240.00)"><ellipse cx="0" cy="0" rx="1" ry="1" fill="rgb(125,82,60)" fill-opacity="0.502"/></g>
<polygon points="1730.19,3903.33 2128.67,3938.19 2093.81,4336.67 1695.33,4301.81" fill="rgb(95,59,39)" fill-opacity="0.502"/>
<polygon points="5081.75,2815.45 4303.60,2911.00 4278.25,2704.55 5056.40,2609.00" fill="rgb(14,69,187)" fill-opacity="0.502"/>
<circle cx="4496.00" cy="3296.00" r="432.00" fill="rgb(2,9,7)" fill-opacity="0.502"/>
<g transform="translate(3776.00 2720.00) rotate(280) scale(560.00 320.00)"><ellipse cx="0" cy="0" rx="1" ry="1" fill="rgb(6,6,9)" fill-opacity="0.502"/></g>
<g transform="translate(3120.00 4512.00) rotate(0) scale(2384.00 192.00)"><ellipse cx="0" cy="0" rx="1" ry="1" fill="rgb(0,0,0)" fill-opacity="0.502"/></g>
<circle cx="1760.00" cy="4096.00" r="80.00" fill="rgb(202,152,125)" fill-opacity="0.502"/>
<g transform="translate(4640.00 2416.00) rotate(254) scale(208.00 288.00)"><ellipse cx="0" cy="0" rx="1" ry="1" fill="rgb(255,255,255)" fill-opacity="0.502"/></g>
<circle cx="2640.00" cy="1120.00" r="416.00" fill="rgb(87,45,23)" fill-opacity="0.502"/>
<g transform="translate(4128.00 4512.00) rotate(206) scale(352.00 288.00)"><ellipse cx="0" cy="0" rx="1" ry="1" fill="rgb(13,6,0)" fill-opacity="0.502"/></g>
<g transform="translate(6720.00 1504.00) rotate(113) scale(192.00 304.00)"><ellipse cx="0" cy="0" rx="1" ry="1" fill="rgb(82,48,31)" fill-opacity="0.502"/></g>
<polygon points="2106.44,2221.64 1480.42,2088.57 1573.56,1650.36 2199.58,1783.43" fill="rgb(0,0,0)" fill-opacity="0.502"/>
<g transform="translate(6496.00 3744.00) rotate(89) scale(128.00 608.00)"><ellipse cx="0" cy="0" rx="1" ry="1" fill="rgb(133,73,44)" fill-opacity="0.502"/></g>
<circle cx="2704.00" cy="2544.00" r="176.00" fill="rgb(150,108,89)" fill-opacity="0.502"/>
<circle cx="3280.00" cy="2032.00" r="480.00" fill="rgb(62,28,13)" fill-opacity="0.502"/>
<circle cx="4976.00" cy="864.00" r="864.00" fill="rgb(100,44,19)" fill-opacity="0.502"/>
<polygon points="2373.75,1713.21 2961.50,2039.01 2682.25,2542.79 2094.50,2216.99" fill="rgb(25,20,20)" fill-opacity="0.502"/>
<circle cx="5968.00" cy="3056.00" r="144.00" fill="rgb(255,255,255)" fill-opacity="0.502"/>
<g transform="translate(5040.00 3104.00) rotate(254) scale(240.00 432.00)"><ellipse cx="0" cy="0" rx="1" ry="1" fill="rgb(7,19,27)" fill-opacity="0.502"/></g>
<polygon points="4966.31,4048.49 4955.15,3920.98 5337.69,3887.51 5348.85,4015.02" fill="rgb(255,250,229)" fill-opacity="0.502"/>
<circle cx="4496.00" cy="3856.00" r="112.00" fill="rgb(0,0,0)" fill-opacity="0.502"/>
<g transform="translate(6800.00 1072.00) rotate(331) scale(256.00 368.00)"><ellipse cx="0" cy="0" rx="1" ry="1" fill="rgb(74,34,16)" fill-opacity="0.502"/></g>
<circle cx="6656.00" cy="4496.00" r="128.00" fill="rgb(206,218,198)" fill-opacity="0.502"/>
<polygon points="7071.56,3881.31 7103.93,4344.18 6896.44,4358.69 6864.07,3895.82" fill="rgb(200,164,140)" fill-opacity="0.502"/>
<g transform="translate(5200.00 4384.00) rotate(1) scale(576.00 368.00)"><ellipse cx="0" cy="0" rx="1" ry="1" fill="rgb(47,31,21)" fill-opacity="0.502"/></g>
<g transform="translate(6688.00 1376.00) rotate(126) scale(416.00 304.00)"><ellipse cx="0" cy="0" rx="1" ry="1" fill="rgb(71,37,23)" fill-opacity="0.502"/></g>
<polygon points="2024.99,1266.02 1206.45,734.45 1799.01,-178.02 2617.55,353.55" fill="rgb(57,31,17)" fill-opacity="0.502"/>
<circle cx="6640.00" cy="272.00" r="448.00" fill="rgb(79,29,7)" fill-opacity="0.502"/>
<circle cx="2368.00" cy="1600.00" r="368.00" fill="rgb(56,28,18)" fill-opacity="0.502"/>
<circle cx="4192.00" cy="3888.00" r="208.00" fill="rgb(149,129,111)" fill-opacity="0.502"/>
<circle cx="3920.00" cy="1056.00" r="544.00" fill="rgb(100,46,21)" fill-opacity="0.502"/>
<g transform="translate(8000.00 0.00) rotate(17) scale(880.00 1408.00)"><ellipse cx="0" cy="0" rx="1" ry="1" fill="rgb(0,0,0)" fill-opacity="0.502"/></g>
<g transform="translate(6208.00 4464.00) rotate(185) scale(352.00 416.00)"><ellipse cx="0" cy="0" rx="1" ry="1" fill="rgb(127,109,91)" fill-opacity="0.502"/></g>
<circle cx="5568.00" cy="3168.00" r="208.00" fill="rgb(141,106,93)" fill-opacity="0.502"/>
<circle cx="528.00" cy="448.00" r="672.00" fill="rgb(0,0,0)" fill-opacity="0.502"/>
<polygon points="5393.86,2967.26 4742.75,2887.31 4766.14,2696.74 5417.25,2776.69" fill="rgb(34,63,112)" fill-opacity="0.502"/>
<g transform="translate(6128.00 1552.00) rotate(288) scale(496.00 176.00)"><ellipse cx="0" cy="0" rx="1" ry="1" fill="rgb(68,37,21)" fill-opacity="0.502"/></g>
<polygon points="6059.64,2534.40 6283.33,2522.68 6324.36,3305.60 6100.67,3317.32" fill="rgb(105,95,83)" fill-opacity="0.502"/>
<g transform="translate(5504.00 1440.00) rotate(330) scale(928.00 400.00)"><ellipse cx="0" cy="0" rx="1" ry="1" fill="rgb(71,39,21)" fill-opacity="0.502"/></g>
<g transform="translate(7760.00 4064.00) rotate(316) scale(704.00 640.00)"><ellipse cx="0" cy="0" rx="1" ry="1" fill="rgb(0,0,0)" fill-opacity="0.502"/></g>
<polygon points="4239.91,4030.90 3623.60,4128.51 3616.09,4081.10 4232.40,3983.49" fill="rgb(181,153,134)" fill-opacity="0.502"/>
<circle cx="512.00" cy="3984.00" r="640.00" fill="rgb(0,0,0)" fill-opacity="0.502"/>
<polygon points="6905.87,2048.43 6901.69,2128.32 6582.13,2111.57 6586.31,2031.68" fill="rgb(160,106,77)" fill-opacity="0.502"/>
<g transform="translate(1856.00 3936.00) rotate(184) scale(208.00 96.00)"><ellipse cx="0" cy="0" rx="1" ry="1" fill="rgb(118,79,67)" fill-opacity="0.502"/></g>
<polygon points="3216.64,-187.21 3734.57,312.94 3423.36,635.21 2905.43,135.06" fill="rgb(60,28,13)" fill-opacity="0.502"/>
<polygon points="5748.38,2695.50 5504.91,2616.39 5707.62,1992.50 5951.09,2071.61" fill="rgb(217,225,250)" fill-opacity="0.502"/>
<g transform="translate(5664.00 3440.00) rotate(79) scale(288.00 64.00)"><ellipse cx="0" cy="0" rx="1" ry="1" fill="rgb(218,151,123)" fill-opacity="0.502"/></g>
<polygon points="6116.28,4023.26 6181.66,4151.56 5739.72,4376.74 5674.34,4248.44" fill="rgb(88,55,37)" fill-opacity="0.502"/>
<circle cx="5808.00" cy="3920.00" r="64.00" fill="rgb(255,255,255)" fill-opacity="0.502"/>
<circle cx="5712.00" cy="688.00" r="880.00" fill="rgb(94,40,16)" fill-opacity="0.502"/>
<g transform="translate(7728.00 1776.00) rotate(122) scale(752.00 592.00)"><ellipse cx="0" cy="0" rx="1" ry="1" fill="rgb(0,0,0)" fill-opacity="0.502"/></g>
<polygon points="6284.99,3642.07 6091.01,3530.07 6195.01,3349.93 6388.99,3461.93" fill="rgb(162,92,56)" fill-opacity="0.502"/>
<circle cx="1328.00" cy="2080.00" r="208.00" fill="rgb(92,59,44)" fill-opacity="0.502"/>
<polygon points="4367.83,4059.53 4355.32,3980.52 4608.17,3940.47 4620.68,4019.48" fill="rgb(226,202,186)" fill-opacity="0.502"/>
<circle cx="4240.00" cy="2560.00" r="128.00" fill="rgb(71,89,124)" fill-opacity="0.502"/>
<circle cx="5120.00" cy="3728.00" r="96.00" fill="rgb(174,120,100)" fill-opacity="0.502"/>
<g transform="translate(1360.00 3808.00) rotate(217) scale(176.00 240.00)"><ellipse cx="0" cy="0" rx="1" ry="1" fill="rgb(67,40,28)" fill-opacity="0.502"/></g>
<g transform="translate(3392.00 3408.00) rotate(343) scale(528.00 544.00)"><ellipse cx="0" cy="0" rx="1" ry="1" fill="rgb(2,4,4)" fill-opacity="0.502"/></g>
<polygon points="1610.31,2346.77 1649.36,2259.07 1941.69,2389.23 1902.64,2476.93" fill="rgb(184,138,113)" fill-opacity="0.502"/>
<polygon points="6663.03,4601.95 6591.11,4423.93 6872.97,4310.05 6944.89,4488.07" fill="rgb(186,185,168)" fill-opacity="0.502"/>
<polygon points="5032.78,2351.53 5025.27,2304.12 5831.22,2176.47 5838.73,2223.88" fill="rgb(111,126,218)" fill-opacity="0.502"/>
<polygon points="6417.16,3475.43 6298.26,3582.49 6094.84,3356.57 6213.74,3249.51" fill="rgb(170,119,89)" fill-opacity="0.502"/>
<circle cx="5488.00" cy="3744.00" r="160.00" fill="rgb(50,26,15)" fill-opacity="0.502"/>
<g transform="translate(1632.00 3152.00) rotate(184) scale(64.00 912.00)"><ellipse cx="0" cy="0" rx="1" ry="1" fill="rgb(0,1,3)" fill-opacity="0.502"/></g>
<polygon points="2717.58,3818.30 2722.32,4090.25 2066.42,4101.70 2061.68,3829.75" fill="rgb(203,154,133)" fill-opacity="0.502"/>
<polygon points="3360.00,4032.00 3904.00,4032.00 3904.00,4256.00 3360.00,4256.00" fill="rgb(99,62,44)" fill-opacity="0.502"/>
<g transform="translate(8128.00 320.00) rotate(242) scale(960.00 1072.00)"><ellipse cx="0" cy="0" rx="1" ry="1" fill="rgb(0,0,0)" fill-opacity="0.502"/></g>
<polygon points="2160.82,3839.14 2125.69,4173.30 1855.18,4144.86 1890.31,3810.70" fill="rgb(69,35,18)" fill-opacity="0.502"/>
<circle cx="7616.00" cy="3200.00" r="544.00" fill="rgb(0,0,0)" fill-opacity="0.502"/>
<g transform="translate(4800.00 3840.00) rotate(85) scale(80.00 848.00)"><ellipse cx="0" cy="0" rx="1" ry="1" fill="rgb(87,46,25)" fill-opacity="0.502"/></g>
<circle cx="3616.00" cy="0.00" r="432.00" fill="rgb(68,33,16)" fill-opacity="0.502"/>
<g transform="translate(1824.00 3600.00) rotate(315) scale(416.00 96.00)"><ellipse cx="0" cy="0" rx="1" ry="1" fill="rgb(5,0,1)" fill-opacity="0.502"/></g>
<circle cx="6128.00" cy="4528.00" r="112.00" fill="rgb(175,165,143)" fill-opacity="0.502"/>
<polygon points="1660.52,2127.07 1711.74,2491.49 1331.48,2544.93 1280.26,2180.51" fill="rgb(130,86,66)" fill-opacity="0.502"/>
<polygon points="6896.33,3671.60 6753.12,3686.65 6719.67,3368.40 6862.88,3353.35" fill="rgb(179,155,140)" fill-opacity="0.502"/>
<g transform="translate(1376.00 2624.00) rotate(237) scale(144.00 304.00)"><ellipse cx="0" cy="0" rx="1" ry="1" fill="rgb(97,66,46)" fill-opacity="0.502"/></g>
<g transform="translate(5024.00 2080.00) rotate(349) scale(944.00 80.00)"><ellipse cx="0" cy="0" rx="1" ry="1" fill="rgb(173,134,106)" fill-opacity="0.502"/></g>
<polygon points="2523.29,4151.19 2469.20,4035.19 2628.71,3960.81 2682.80,4076.81" fill="rgb(255,212,188)" fill-opacity="0.502"/>
<polygon points="5233.46,2983.75 4289.61,3000.22 4286.54,2824.25 5230.39,2807.78" fill="rgb(22,36,58)" fill-opacity="0.502"/>
<circle cx="5152.00" cy="2464.00" r="144.00" fill="rgb(255,255,255)" fill-opacity="0.502"/>
<polygon points="1977.06,2203.16 2210.91,2257.15 2102.94,2724.84 1869.09,2670.85" fill="rgb(44,22,10)" fill-opacity="0.502"/>
<g transform="translate(7792.00 2448.00) rotate(198) scale(688.00 848.00)"><ellipse cx="0" cy="0" rx="1" ry="1" fill="rgb(0,0,0)" fill-opacity="0.502"/></g>
<circle cx="1360.00" cy="1584.00" r="240.00" fill="rgb(38,19,10)" fill-opacity="0.502"/>
<polygon points="5423.54,3933.59 5883.91,4444.88 5824.46,4498.41 5364.09,3987.12" fill="rgb(62,44,34)" fill-opacity="0.502"/>
<polygon points="6667.84,1949.41 6535.97,2187.30 6116.16,1954.59 6248.03,1716.70" fill="rgb(236,174,140)" fill-opacity="0.502"/>
<circle cx="5136.00" cy="3312.00" r="272.00" fill="rgb(8,9,9)" fill-opacity="0.502"/>
<polygon points="6169.26,3888.52 6382.30,3957.74 6342.74,4079.48 6129.70,4010.26" fill="rgb(255,234,210)" fill-opacity="0.502"/>
<g transform="translate(5216.00 832.00) rotate(86) scale(416.00 928.00)"><ellipse cx="0" cy="0" rx="1" ry="1" fill="rgb(100,45,19)" fill-opacity="0.502"/></g>
<g transform="translate(6672.00 4048.00) rotate(29) scale(128.00 176.00)"><ellipse cx="0" cy="0" rx="1" ry="1" fill="rgb(205,193,190)" fill-opacity="0.502"/></g>
<g transform="translate(1168.00 2320.00) rotate(265) scale(336.00 64.00)"><ellipse cx="0" cy="0" rx="1" ry="1" fill="rgb(34,18,11)" fill-opacity="0.502"/></g>
<polygon points="6757.33,2189.73 7090.82,2230.68 7018.67,2818.27 6685.18,2777.32" fill="rgb(204,169,147)" fill-opacity="0.502"/>
<polygon points="1864.00,3880.00 1864.00,4184.00 1704.00,4184.00 1704.00,3880.00" fill="rgb(155,111,94)" fill-opacity="0.502"/>
<polygon points="5111.44,4619.10 5019.69,4380.11 5288.56,4276.90 5380.31,4515.89" fill="rgb(5,8,7)" fill-opacity="0.502"/>
<polygon points="5316.05,1886.71 5282.65,1649.04 5963.95,1553.29 5997.35,1790.96" fill="rgb(28,27,19)" fill-opacity="0.502"/>
<g transform="translate(4368.00 2672.00) rotate(279) scale(48.00 128.00)"><ellipse cx="0" cy="0" rx="1" ry="1" fill="rgb(191,198,246)" fill-opacity="0.502"/></g>
<polygon points="5590.14,3275.73 5595.87,3260.79 6073.86,3444.27 6068.13,3459.21" fill="rgb(255,251,228)" fill-opacity="0.502"/>
<polygon points="5277.89,2803.06 5250.59,2580.73 5314.11,2572.94 5341.41,2795.27" fill="rgb(140,152,192)" fill-opacity="0.502"/>
<g transform="translate(2288.00 4064.00) rotate(353) scale(112.00 80.00)"><ellipse cx="0" cy="0" rx="1" ry="1" fill="rgb(255,196,161)" fill-opacity="0.502"/></g>
<polygon points="2116.55,2512.79 2101.28,2591.32 1771.45,2527.21 1786.72,2448.68" fill="rgb(6,0,0)" fill-opacity="0.502"/>
<g transform="translate(6448.00 1680.00) rotate(253) scale(64.00 464.00)"><ellipse cx="0" cy="0" rx="1" ry="1" fill="rgb(97,65,50)" fill-opacity="0.502"/></g>
<circle cx="4000.00" cy="3200.00" r="464.00" fill="rgb(5,7,8)" fill-opacity="0.502"/>
<circle cx="1744.00" cy="3472.00" r="80.00" fill="rgb(192,149,132)" fill-opacity="0.502"/>
<polygon points="6194.24,71.19 6919.06,-56.61 7085.76,888.81 6360.94,1016.61" fill="rgb(76,34,16)" fill-opacity="0.502"/>
<circle cx="6784.00" cy="560.00" r="304.00" fill="rgb(76,35,17)" fill-opacity="0.502"/>
<circle cx="5744.00" cy="3168.00" r="96.00" fill="rgb(76,60,46)" fill-opacity="0.502"/>
<polygon points="3907.04,3887.58 4009.88,3765.01 4156.96,3888.42 4054.12,4010.99" fill="rgb(18,17,15)" fill-opacity="0.502"/>
<g transform="translate(2080.00 768.00) rotate(195) scale(480.00 240.00)"><ellipse cx="0" cy="0" rx="1" ry="1" fill="rgb(69,38,20)" fill-opacity="0.502"/></g>
<polygon points="4158.93,4161.84 4189.90,4037.65 4609.07,4142.16 4578.10,4266.35" fill="rgb(121,71,39)" fill-opacity="0.502"/>
<polygon points="4847.01,4073.15 5040.99,3961.15 5168.99,4182.85 4975.01,4294.85" fill="rgb(121,71,45)" fill-opacity="0.502"/>
<circle cx="1712.00" cy="32.00" r="400.00" fill="rgb(44,25,14)" fill-opacity="0.502"/>
<polygon points="2791.87,4206.57 2586.18,4451.71 2488.13,4369.43 2693.82,4124.29" fill="rgb(49,16,0)" fill-opacity="0.502"/>
<circle cx="5568.00" cy="2896.00" r="48.00" fill="rgb(221,244,240)" fill-opacity="0.502"/>
<circle cx="3104.00" cy="2336.00" r="240.00" fill="rgb(60,31,14)" fill-opacity="0.502"/>
<g transform="translate(1792.00 2800.00) rotate(281) scale(176.00 64.00)"><ellipse cx="0" cy="0" rx="1" ry="1" fill="rgb(193,149,133)" fill-opacity="0.502"/></g>
<polygon points="5714.48,4283.65 5218.55,4292.31 5213.52,4004.35 5709.45,3995.69" fill="rgb(86,56,42)" fill-opacity="0.502"/>
<circle cx="3744.00" cy="1536.00" r="448.00" fill="rgb(86,42,20)" fill-opacity="0.502"/>
<g transform="translate(2240.00 2464.00) rotate(267) scale(80.00 112.00)"><ellipse cx="0" cy="0" rx="1" ry="1" fill="rgb(210,138,115)" fill-opacity="0.502"/></g>
<circle cx="6000.00" cy="3536.00" r="112.00" fill="rgb(255,255,255)" fill-opacity="0.502"/>
<circle cx="2416.00" cy="4000.00" r="80.00" fill="rgb(95,54,37)" fill-opacity="0.502"/>
<g transform="translate(5888.00 2336.00) rotate(325) scale(80.00 144.00)"><ellipse cx="0" cy="0" rx="1" ry="1" fill="rgb(252,255,255)" fill-opacity="0.502"/></g>
<g transform="translate(1296.00 2848.00) rotate(90) scale(128.00 192.00)"><ellipse cx="0" cy="0" rx="1" ry="1" fill="rgb(74,50,35)" fill-opacity="0.502"/></g>
<circle cx="3312.00" cy="2160.00" r="400.00" fill="rgb(64,35,19)" fill-opacity="0.502"/>
<g transform="translate(1664.00 2368.00) rotate(3) scale(16.00 112.00)"><ellipse cx="0" cy="0" rx="1" ry="1" fill="rgb(210,169,143)" fill-opacity="0.502"/></g>
<polygon points="6470.66,3235.19 6355.11,3081.85 6457.34,3004.81 6572.89,3158.15" fill="rgb(249,255,255)" fill-opacity="0.502"/>
<g transform="translate(6336.00 2272.00) rotate(259) scale(496.00 80.00)"><ellipse cx="0" cy="0" rx="1" ry="1" fill="rgb(234,206,198)" fill-opacity="0.502"/></g>
<g transform="translate(3136.00 1152.00) rotate(39) scale(448.00 544.00)"><ellipse cx="0" cy="0" rx="1" ry="1" fill="rgb(90,43,20)" fill-opacity="0.502"/></g>
<polygon points="1930.32,2786.85 2611.62,2882.60 2533.68,3437.15 1852.38,3341.40" fill="rgb(12,8,6)" fill-opacity="0.502"/>
<g transform="translate(672.00 3408.00) rotate(128) scale(448.00 512.00)"><ellipse cx="0" cy="0" rx="1" ry="1" fill="rgb(0,0,0)" fill-opacity="0.502"/></g>
<circle cx="3104.00" cy="4160.00" r="208.00" fill="rgb(68,39,22)" fill-opacity="0.502"/>
<polygon points="5473.56,3878.61 6928.67,3929.43 6926.44,3993.39 5471.33,3942.57" fill="rgb(255,210,181)" fill-opacity="0.502"/>
<circle cx="6224.00" cy="240.00" r="496.00" fill="rgb(86,39,16)" fill-opacity="0.502"/>
<circle cx="2064.00" cy="2400.00" r="144.00" fill="rgb(79,42,24)" fill-opacity="0.502"/>
<circle cx="6864.00" cy="3744.00" r="160.00" fill="rgb(126,76,48)" fill-opacity="0.502"/>
<g transform="translate(4800.00 3328.00) rotate(118) scale(288.00 416.00)"><ellipse cx="0" cy="0" rx="1" ry="1" fill="rgb(9,9,13)" fill-opacity="0.502"/></g>
<circle cx="6528.00" cy="3536.00" r="112.00" fill="rgb(255,244,227)" fill-opacity="0.502"/>
<circle cx="624.00" cy="1216.00" r="480.00" fill="rgb(0,0,0)" fill-opacity="0.502"/>
<g transform="translate(6064.00 1920.00) rotate(340) scale(128.00 208.00)"><ellipse cx="0" cy="0" rx="1" ry="1" fill="rgb(82,55,32)" fill-opacity="0.502"/></g>
<circle cx="4016.00" cy="4176.00" r="112.00" fill="rgb(91,55,36)" fill-opacity="0.502"/>
<polygon points="4245.02,2401.92 4322.43,2712.41 4042.98,2782.08 3965.57,2471.59" fill="rgb(61,64,70)" fill-opacity="0.502"/>
<circle cx="5520.00" cy="2704.00" r="192.00" fill="rgb(220,225,242)" fill-opacity="0.502"/>
<g transform="translate(4912.00 2416.00) rotate(176) scale(48.00 288.00)"><ellipse cx="0" cy="0" rx="1" ry="1" fill="rgb(66,95,220)" fill-opacity="0.502"/></g>
<g transform="translate(6240.00 1568.00) rotate(349) scale(880.00 64.00)"><ellipse cx="0" cy="0" rx="1" ry="1" fill="rgb(35,22,15)" fill-opacity="0.502"/></g>
<g transform="translate(7552.00 4448.00) rotate(35) scale(512.00 352.00)"><ellipse cx="0" cy="0" rx="1" ry="1" fill="rgb(0,0,0)" fill-opacity="0.502"/></g>
<polygon points="5344.67,2287.40 5630.53,2322.50 5599.33,2576.60 5313.47,2541.50" fill="rgb(244,255,255)" fill-opacity="0.502"/>
<circle cx="2592.00" cy="3888.00" r="48.00" fill="rgb(255,255,248)" fill-opacity="0.502"/>
<polygon points="1785.43,3832.13 1767.01,3480.61 2086.57,3463.87 2104.99,3815.39" fill="rgb(0,0,0)" fill-opacity="0.502"/>
<polygon points="7124.48,4135.08 6928.06,4345.71 6635.52,4072.92 6831.94,3862.29" fill="rgb(164,145,130)" fill-opacity="0.502"/>
<g transform="translate(5360.00 3680.00) rotate(265) scale(240.00 96.00)"><ellipse cx="0" cy="0" rx="1" ry="1" fill="rgb(19,16,12)" fill-opacity="0.502"/></g>
<polygon points="3255.00,2920.16 3063.47,2393.93 3289.00,2311.84 3480.53,2838.07" fill="rgb(66,36,25)" fill-opacity="0.502"/>
<g transform="translate(4192.00 2192.00) rotate(349) scale(176.00 16.00)"><ellipse cx="0" cy="0" rx="1" ry="1" fill="rgb(218,172,145)" fill-opacity="0.502"/></g>
<g transform="translate(3760.00 2208.00) rotate(290) scale(288.00 112.00)"><ellipse cx="0" cy="0" rx="1" ry="1" fill="rgb(27,20,17)" fill-opacity="0.502"/></g>
<g transform="translate(6768.00 3136.00) rotate(287) scale(96.00 112.00)"><ellipse cx="0" cy="0" rx="1" ry="1" fill="rgb(178,155,133)" fill-opacity="0.502"/></g>
<circle cx="4832.00" cy="2592.00" r="48.00" fill="rgb(255,255,255)" fill-opacity="0.502"/>
<polygon points="2544.00,1952.00 2800.00,1952.00 2800.00,2432.00 2544.00,2432.00" fill="rgb(1,0,7)" fill-opacity="0.502"/>
<polygon points="5913.67,3771.94 6188.91,3579.21 6262.33,3684.06 5987.09,3876.79" fill="rgb(154,114,98)" fill-opacity="0.502"/>
<g transform="translate(6688.00 3408.00) rotate(14) scale(400.00 192.00)"><ellipse cx="0" cy="0" rx="1" ry="1" fill="rgb(238,230,222)" fill-opacity="0.502"/></g>
<circle cx="7536.00" cy="4592.00" r="480.00" fill="rgb(0,0,0)" fill-opacity="0.502"/>
<g transform="translate(2608.00 3600.00) rotate(116) scale(256.00 176.00)"><ellipse cx="0" cy="0" rx="1" ry="1" fill="rgb(9,6,3)" fill-opacity="0.502"/></g>
<g transform="translate(4880.00 1840.00) rotate(298) scale(240.00 256.00)"><ellipse cx="0" cy="0" rx="1" ry="1" fill="rgb(55,44,31)" fill-opacity="0.502"/></g>
<circle cx="2784.00" cy="3936.00" r="64.00" fill="rgb(82,35,21)" fill-opacity="0.502"/>
<circle cx="1712.00" cy="1424.00" r="256.00" fill="rgb(23,14,10)" fill-opacity="0.502"/>
<g transform="translate(6864.00 2752.00) rotate(246) scale(416.00 160.00)"><ellipse cx="0" cy="0" rx="1" ry="1" fill="rgb(200,167,146)" fill-opacity="0.502"/></g>
<g transform="translate(2832.00 2432.00) rotate(272) scale(256.00 16.00)"><ellipse cx="0" cy="0" rx="1" ry="1" fill="rgb(209,152,140)" fill-opacity="0.502"/></g>
<g transform="translate(448.00 1488.00) rotate(183) scale(656.00 2032.00)"><ellipse cx="0" cy="0" rx="1" ry="1" fill="rgb(0,0,0)" fill-opacity="0.502"/></g>
<polygon points="6492.91,2929.69 6452.86,2676.84 6595.09,2654.31 6635.14,2907.16" fill="rgb(221,173,147)" fill-opacity="0.502"/>
<circle cx="2800.00" cy="2560.00" r="80.00" fill="rgb(225,152,126)" fill-opacity="0.502"/>
<circle cx="4752.00" cy="3952.00" r="64.00" fill="rgb(237,210,186)" fill-opacity="0.502"/>
<circle cx="6880.00" cy="2816.00" r="208.00" fill="rgb(173,151,131)" fill-opacity="0.502"/>
<polygon points="4421.57,2680.93 4351.40,2451.41 4810.43,2311.07 4880.60,2540.59" fill="rgb(251,253,255)" fill-opacity="0.502"/>
<g transform="translate(4624.00 4208.00) rotate(176) scale(944.00 64.00)"><ellipse cx="0" cy="0" rx="1" ry="1" fill="rgb(64,37,24)" fill-opacity="0.502"/></g>
<polygon points="4091.26,3769.53 4127.22,3680.52 4260.74,3734.47 4224.78,3823.48" fill="rgb(195,186,172)" fill-opacity="0.502"/>
<polygon points="6261.95,2101.26 6448.12,1765.41 6602.05,1850.74 6415.88,2186.59" fill="rgb(233,183,151)" fill-opacity="0.502"/>
<polygon points="5759.89,3366.74 5806.84,3356.76 5840.11,3513.26 5793.16,3523.24" fill="rgb(255,255,245)" fill-opacity="0.502"/>
<g transform="translate(816.00 4368.00) rotate(95) scale(288.00 432.00)"><ellipse cx="0" cy="0" rx="1" ry="1" fill="rgb(0,0,0)" fill-opacity="0.502"/></g>
<circle cx="2832.00" cy="3456.00" r="368.00" fill="rgb(8,6,7)" fill-opacity="0.502"/>
<g transform="translate(6192.00 4288.00) rotate(297) scale(64.00 80.00)"><ellipse cx="0" cy="0" rx="1" ry="1" fill="rgb(185,169,151)" fill-opacity="0.502"/></g>
<polygon points="1578.71,1482.63 1517.65,1796.75 1109.29,1717.37 1170.35,1403.25" fill="rgb(45,27,18)" fill-opacity="0.502"/>
<polygon points="5936.00,4592.00 5808.00,4592.00 5808.00,4288.00 5936.00,4288.00" fill="rgb(96,72,62)" fill-opacity="0.502"/>
<circle cx="2720.00" cy="96.00" r="608.00" fill="rgb(60,31,16)" fill-opacity="0.502"/>
<g transform="translate(4480.00 2896.00) rotate(272) scale(80.00 320.00)"><ellipse cx="0" cy="0" rx="1" ry="1" fill="rgb(24,34,66)" fill-opacity="0.502"/></g>
<polygon points="4378.15,4063.63 4075.82,4031.85 4085.85,3936.37 4388.18,3968.15" fill="rgb(193,165,144)" fill-opacity="0.502"/>
<polygon points="1824.38,2756.92 1713.22,2743.27 1775.62,2235.08 1886.78,2248.73" fill="rgb(160,124,100)" fill-opacity="0.502"/>
<g transform="translate(5200.00 1872.00) rotate(260) scale(112.00 368.00)"><ellipse cx="0" cy="0" rx="1" ry="1" fill="rgb(49,48,40)" fill-opacity="0.502"/></g>
<circle cx="2048.00" cy="2736.00" r="96.00" fill="rgb(101,74,57)" fill-opacity="0.502"/>
<circle cx="4704.00" cy="1424.00" r="384.00" fill="rgb(89,42,18)" fill-opacity="0.502"/>
<g transform="translate(2208.00 4048.00) rotate(138) scale(160.00 32.00)"><ellipse cx="0" cy="0" rx="1" ry="1" fill="rgb(116,63,29)" fill-opacity="0.502"/></g>
<circle cx="5696.00" cy="3920.00" r="64.00" fill="rgb(255,220,196)" fill-opacity="0.502"/>
<circle cx="2320.00" cy="2176.00" r="176.00" fill="rgb(43,33,26)" fill-opacity="0.502"/>
<g transform="translate(5984.00 3312.00) rotate(36) scale(112.00 80.00)"><ellipse cx="0" cy="0" rx="1" ry="1" fill="rgb(252,241,237)" fill-opacity="0.502"/></g>
<circle cx="6320.00" cy="3200.00" r="64.00" fill="rgb(167,137,111)" fill-opacity="0.502"/>
<g transform="translate(1248.00 1888.00) rotate(208) scale(144.00 80.00)"><ellipse cx="0" cy="0" rx="1" ry="1" fill="rgb(137,106,88)" fill-opacity="0.502"/></g>
<polygon points="1998.51,3978.72 2001.30,4058.67 1697.49,4069.28 1694.70,3989.33" fill="rgb(26,13,0)" fill-opacity="0.502"/>
<circle cx="5280.00" cy="3952.00" r="80.00" fill="rgb(249,206,195)" fill-opacity="0.502"/>
<polygon points="3074.27,4149.14 2121.43,4266.14 2109.73,4170.86 3062.57,4053.86" fill="rgb(135,69,40)" fill-opacity="0.502"/>
<circle cx="7440.00" cy="1440.00" r="368.00" fill="rgb(0,0,0)" fill-opacity="0.502"/>
<g transform="translate(6688.00 2448.00) rotate(262) scale(16.00 432.00)"><ellipse cx="0" cy="0" rx="1" ry="1" fill="rgb(145,105,93)" fill-opacity="0.502"/></g>
<polygon points="5943.28,2037.24 5254.66,2183.61 5224.72,2042.76 5913.34,1896.39" fill="rgb(191,153,130)" fill-opacity="0.502"/>
<polygon points="1239.54,2029.18 1517.73,2103.72 1480.46,2242.82 1202.27,2168.28" fill="rgb(37,17,14)" fill-opacity="0.502"/>
<g transform="translate(7552.00 4048.00) rotate(140) scale(496.00 416.00)"><ellipse cx="0" cy="0" rx="1" ry="1" fill="rgb(0,0,0)" fill-opacity="0.502"/></g>
<g transform="translate(5440.00 3968.00) rotate(177) scale(48.00 144.00)"><ellipse cx="0" cy="0" rx="1" ry="1" fill="rgb(14,15,12)" fill-opacity="0.502"/></g>
<g transform="translate(3840.00 2352.00) rotate(281) scale(32.00 128.00)"><ellipse cx="0" cy="0" rx="1" ry="1" fill="rgb(90,78,71)" fill-opacity="0.502"/></g>
<polygon points="6836.38,3373.97 6598.17,3344.72 6619.62,3170.03 6857.83,3199.28" fill="rgb(214,206,193)" fill-opacity="0.502"/>
<polygon points="1668.57,2467.75 1574.67,2487.71 1531.43,2284.25 1625.33,2264.29" fill="rgb(191,138,110)" fill-opacity="0.502"/>
<circle cx="4128.00" cy="2272.00" r="80.00" fill="rgb(219,186,151)" fill-opacity="0.502"/>
<g transform="translate(2848.00 2896.00) rotate(158) scale(176.00 160.00)"><ellipse cx="0" cy="0" rx="1" ry="1" fill="rgb(27,15,10)" fill-opacity="0.502"/></g>
<circle cx="3472.00" cy="2592.00" r="144.00" fill="rgb(18,9,8)" fill-opacity="0.502"/>
<polygon points="7075.60,3525.99 6948.55,3541.59 6876.40,2954.01 7003.45,2938.41" fill="rgb(245,237,222)" fill-opacity="0.502"/>
<circle cx="4800.00" cy="2720.00" r="96.00" fill="rgb(40,87,215)" fill-opacity="0.502"/>
<polygon points="5213.10,2953.42 5222.01,2890.04 5538.90,2934.58 5529.99,2997.96" fill="rgb(46,52,46)" fill-opacity="0.502"/>
<circle cx="2992.00" cy="1904.00" r="240.00" fill="rgb(55,27,15)" fill-opacity="0.502"/>
<polygon points="2294.58,2769.37 2383.60,2412.31 2585.42,2462.63 2496.40,2819.69" fill="rgb(59,43,32)" fill-opacity="0.502"/>
<circle cx="6784.00" cy="2000.00" r="304.00" fill="rgb(219,174,148)" fill-opacity="0.502"/>
<circle cx="6944.00" cy="4080.00" r="128.00" fill="rgb(160,137,118)" fill-opacity="0.502"/>
<g transform="translate(3184.00 224.00) rotate(171) scale(384.00 544.00)"><ellipse cx="0" cy="0" rx="1" ry="1" fill="rgb(71,35,18)" fill-opacity="0.502"/></g>
<polygon points="5037.03,3231.73 4765.71,2797.53 4914.97,2704.27 5186.29,3138.47" fill="rgb(14,25,43)" fill-opacity="0.502"/>
<g transform="translate(6656.00 2304.00) rotate(93) scale(80.00 432.00)"><ellipse cx="0" cy="0" rx="1" ry="1" fill="rgb(237,224,212)" fill-opacity="0.502"/></g>
<circle cx="6272.00" cy="3328.00" r="112.00" fill="rgb(166,123,96)" fill-opacity="0.502"/>
<polygon points="3757.73,4016.19 3778.66,3616.74 4066.27,3631.81 4045.34,4031.26" fill="rgb(24,22,20)" fill-opacity="0.502"/>
<circle cx="2016.00" cy="1760.00" r="48.00" fill="rgb(76,51,50)" fill-opacity="0.502"/>
<circle cx="5136.00" cy="2784.00" r="96.00" fill="rgb(48,72,130)" fill-opacity="0.502"/>
<circle cx="6480.00" cy="3344.00" r="80.00" fill="rgb(255,255,255)" fill-opacity="0.502"/>
<polygon points="6733.78,3741.05 6685.26,3910.23 6562.22,3874.95 6610.74,3705.77" fill="rgb(141,82,52)" fill-opacity="0.502"/>
<polygon points="5330.18,3664.53 5040.37,3412.60 5197.82,3231.47 5487.63,3483.40" fill="rgb(18,15,15)" fill-opacity="0.502"/>
<polygon points="1775.73,3795.67 1793.32,3460.13 2560.27,3500.33 2542.68,3835.87" fill="rgb(14,8,4)" fill-opacity="0.502"/>
<circle cx="4752.00" cy="832.00" r="464.00" fill="rgb(98,45,20)" fill-opacity="0.502"/>
<circle cx="4848.00" cy="4016.00" r="112.00" fill="rgb(195,141,114)" fill-opacity="0.502"/>
<polygon points="4799.02,4671.28 4629.45,4399.90 4832.98,4272.72 5002.55,4544.10" fill="rgb(9,5,4)" fill-opacity="0.502"/>
<polygon points="6579.18,1947.08 7040.51,1658.80 7116.82,1780.92 6655.49,2069.20" fill="rgb(238,185,158)" fill-opacity="0.502"/>
<g transform="translate(5600.00 3072.00) rotate(211) scale(16.00 208.00)"><ellipse cx="0" cy="0" rx="1" ry="1" fill="rgb(157,127,125)" fill-opacity="0.502"/></g>
<circle cx="5200.00" cy="0.00" r="448.00" fill="rgb(84,40,19)" fill-opacity="0.502"/>
<g transform="translate(2400.00 3072.00) rotate(80) scale(320.00 528.00)"><ellipse cx="0" cy="0" rx="1" ry="1" fill="rgb(14,9,6)" fill-opacity="0.502"/></g>
<g transform="translate(1904.00 4288.00) rotate(191) scale(112.00 128.00)"><ellipse cx="0" cy="0" rx="1" ry="1" fill="rgb(42,28,15)" fill-opacity="0.502"/></g>
<polygon points="2144.00,3856.00 2352.00,3856.00 2352.00,3952.00 2144.00,3952.00" fill="rgb(255,218,203)" fill-opacity="0.502"/>
<g transform="translate(1120.00 4000.00) rotate(243) scale(16.00 16.00)"><ellipse cx="0" cy="0" rx="1" ry="1" fill="rgb(111,110,117)" fill-opacity="0.502"/></g>
<polygon points="6690.71,2735.29 6773.49,2376.72 7085.29,2448.71 7002.51,2807.28" fill="rgb(197,149,126)" fill-opacity="0.502"/>
<g transform="translate(1248.00 3520.00) rotate(298) scale(160.00 64.00)"><ellipse cx="0" cy="0" rx="1" ry="1" fill="rgb(136,93,78)" fill-opacity="0.502"/></g>
<polygon points="4227.38,2554.88 4302.49,2413.61 4316.62,2421.12 4241.51,2562.39" fill="rgb(189,200,246)" fill-opacity="0.502"/>
<circle cx="5984.00" cy="2160.00" r="48.00" fill="rgb(62,81,194)" fill-opacity="0.502"/>
<polygon points="5637.55,3552.02 5643.40,3504.38 5770.45,3519.98 5764.60,3567.62" fill="rgb(89,46,22)" fill-opacity="0.502"/>
<polygon points="3229.66,4144.58 3589.18,3969.23 3666.34,4127.42 3306.82,4302.77" fill="rgb(79,49,36)" fill-opacity="0.502"/>
<circle cx="3536.00" cy="432.00" r="240.00" fill="rgb(81,39,19)" fill-opacity="0.502"/>
<polygon points="1570.34,4108.81 1734.51,4559.86 1373.66,4691.19 1209.49,4240.14" fill="rgb(18,12,5)" fill-opacity="0.502"/>
<polygon points="1592.58,1664.73 1842.99,1611.51 1959.42,2159.27 1709.01,2212.49" fill="rgb(2,4,4)" fill-opacity="0.502"/>
<polygon points="6477.82,1525.12 6528.17,1587.29 6242.18,1818.88 6191.83,1756.71" fill="rgb(87,56,43)" fill-opacity="0.502"/>
<circle cx="5936.00" cy="2672.00" r="96.00" fill="rgb(252,255,255)" fill-opacity="0.502"/>
<polygon points="6724.19,4034.28 6777.63,4414.54 6555.81,4445.72 6502.37,4065.46" fill="rgb(198,208,209)" fill-opacity="0.502"/>
<circle cx="4720.00" cy="2272.00" r="144.00" fill="rgb(229,234,235)" fill-opacity="0.502"/>
<polygon points="6647.23,4642.24 6949.30,4269.21 7048.77,4349.76 6746.70,4722.79" fill="rgb(163,148,128)" fill-opacity="0.502"/>
<g transform="translate(1424.00 1200.00) rotate(188) scale(304.00 496.00)"><ellipse cx="0" cy="0" rx="1" ry="1" fill="rgb(44,25,16)" fill-opacity="0.502"/></g>
<polygon points="6230.86,3255.28 6231.97,3271.24 5753.14,3304.72 5752.03,3288.76" fill="rgb(128,109,89)" fill-opacity="0.502"/>
<circle cx="1744.00" cy="3360.00" r="80.00" fill="rgb(195,140,108)" fill-opacity="0.502"/>
<polygon points="5746.94,3620.53 5720.91,3679.00 5677.06,3659.47 5703.09,3601.00" fill="rgb(255,250,228)" fill-opacity="0.502"/>
<g transform="translate(3456.00 2272.00) rotate(81) scale(272.00 208.00)"><ellipse cx="0" cy="0" rx="1" ry="1" fill="rgb(68,38,23)" fill-opacity="0.502"/></g>
<g transform="translate(6304.00 3104.00) rotate(196) scale(32.00 128.00)"><ellipse cx="0" cy="0" rx="1" ry="1" fill="rgb(152,135,104)" fill-opacity="0.502"/></g>
<circle cx="4432.00" cy="3808.00" r="96.00" fill="rgb(11,12,9)" fill-opacity="0.502"/>
<polygon points="3892.60,4030.75 3479.47,4157.05 3451.40,4065.25 3864.53,3938.95" fill="rgb(86,58,47)" fill-opacity="0.502"/>
<polygon points="7112.95,2830.12 7336.92,2834.03 7319.05,3857.88 7095.08,3853.97" fill="rgb(0,0,0)" fill-opacity="0.502"/>
<polygon points="5863.72,3016.45 5722.37,2988.97 5832.28,2423.55 5973.63,2451.03" fill="rgb(232,238,255)" fill-opacity="0.502"/>
<polygon points="5163.85,4119.94 5065.64,4014.62 5124.15,3960.06 5222.36,4065.38" fill="rgb(174,122,93)" fill-opacity="0.502"/>
<polygon points="6682.18,2994.55 6839.45,2884.43 7013.82,3133.45 6856.55,3243.57" fill="rgb(197,183,171)" fill-opacity="0.502"/>
<circle cx="4768.00" cy="2112.00" r="64.00" fill="rgb(222,203,188)" fill-opacity="0.502"/>
<g transform="translate(3856.00 2848.00) rotate(314) scale(128.00 496.00)"><ellipse cx="0" cy="0" rx="1" ry="1" fill="rgb(5,5,7)" fill-opacity="0.502"/></g>
<g transform="translate(5008.00 2000.00) rotate(260) scale(32.00 1072.00)"><ellipse cx="0" cy="0" rx="1" ry="1" fill="rgb(97,74,58)" fill-opacity="0.502"/></g>
<circle cx="1168.00" cy="2048.00" r="96.00" fill="rgb(37,18,10)" fill-opacity="0.502"/>
<polygon points="5748.16,3287.77 5821.64,3372.30 5531.84,3624.23 5458.36,3539.70" fill="rgb(182,118,98)" fill-opacity="0.502"/>
<circle cx="2448.00" cy="4544.00" r="272.00" fill="rgb(18,12,5)" fill-opacity="0.502"/>
<circle cx="4048.00" cy="1088.00" r="496.00" fill="rgb(96,44,20)" fill-opacity="0.502"/>
<g transform="translate(240.00 3808.00) rotate(142) scale(928.00 832.00)"><ellipse cx="0" cy="0" rx="1" ry="1" fill="rgb(0,0,0)" fill-opacity="0.502"/></g>
<g transform="translate(2592.00 2400.00) rotate(153) scale(48.00 496.00)"><ellipse cx="0" cy="0" rx="1" ry="1" fill="rgb(45,32,25)" fill-opacity="0.502"/></g>
<circle cx="2800.00" cy="4064.00" r="80.00" fill="rgb(218,155,128)" fill-opacity="0.502"/>
<polygon points="2414.11,4332.15 2085.49,4458.29 2033.89,4323.85 2362.51,4197.71" fill="rgb(57,29,19)" fill-opacity="0.502"/>
<circle cx="6064.00" cy="3856.00" r="48.00" fill="rgb(255,218,197)" fill-opacity="0.502"/>
<g transform="translate(6272.00 1296.00) rotate(281) scale(192.00 320.00)"><ellipse cx="0" cy="0" rx="1" ry="1" fill="rgb(77,37,18)" fill-opacity="0.502"/></g>
<g transform="translate(6144.00 2864.00) rotate(83) scale(512.00 96.00)"><ellipse cx="0" cy="0" rx="1" ry="1" fill="rgb(110,111,119)" fill-opacity="0.502"/></g>
<g transform="translate(4080.00 3632.00) rotate(282) scale(80.00 304.00)"><ellipse cx="0" cy="0" rx="1" ry="1" fill="rgb(27,23,21)" fill-opacity="0.502"/></g>
<g transform="translate(3904.00 3504.00) rotate(209) scale(192.00 384.00)"><ellipse cx="0" cy="0" rx="1" ry="1" fill="rgb(5,6,5)" fill-opacity="0.502"/></g>
<circle cx="4416.00" cy="2368.00" r="112.00" fill="rgb(239,240,253)" fill-opacity="0.502"/>
<polygon points="2048.48,2311.81 2016.11,1848.94 2255.52,1832.19 2287.89,2295.06" fill="rgb(10,11,13)" fill-opacity="0.502"/>
<polygon points="6135.93,3595.18 6251.39,3462.35 6360.07,3556.82 6244.61,3689.65" fill="rgb(151,96,71)" fill-opacity="0.502"/>
<circle cx="6704.00" cy="2576.00" r="48.00" fill="rgb(250,220,199)" fill-opacity="0.502"/>
<polygon points="1920.96,2820.66 1489.55,2843.27 1487.04,2795.34 1918.45,2772.73" fill="rgb(14,0,0)" fill-opacity="0.502"/>
<polygon points="3746.84,2268.56 4102.28,2566.82 3917.16,2787.44 3561.72,2489.18" fill="rgb(20,16,18)" fill-opacity="0.502"/>
<polygon points="6196.50,1620.65 6012.50,1939.35 5915.50,1883.35 6099.50,1564.65" fill="rgb(52,37,29)" fill-opacity="0.502"/>
<circle cx="4384.00" cy="0.00" r="384.00" fill="rgb(78,37,18)" fill-opacity="0.502"/>
<circle cx="2672.00" cy="2768.00" r="48.00" fill="rgb(103,64,50)" fill-opacity="0.502"/>
<polygon points="5698.76,4405.36 5642.79,4436.38 5309.24,3834.64 5365.21,3803.62" fill="rgb(61,41,27)" fill-opacity="0.502"/>
<circle cx="4672.00" cy="2176.00" r="96.00" fill="rgb(198,186,167)" fill-opacity="0.502"/>
<g transform="translate(3664.00 1776.00) rotate(99) scale(96.00 672.00)"><ellipse cx="0" cy="0" rx="1" ry="1" fill="rgb(73,36,20)" fill-opacity="0.502"/></g>
<polygon points="4924.27,2121.66 4547.25,1945.85 4675.73,1670.34 5052.75,1846.15" fill="rgb(57,45,31)" fill-opacity="0.502"/>
<circle cx="1328.00" cy="2800.00" r="176.00" fill="rgb(76,51,36)" fill-opacity="0.502"/>
<polygon points="7059.61,3076.91 6852.75,3098.65 6844.39,3019.09 7051.25,2997.35" fill="rgb(255,252,244)" fill-opacity="0.502"/>
<circle cx="3312.00" cy="3952.00" r="176.00" fill="rgb(15,11,5)" fill-opacity="0.502"/>
<g transform="translate(816.00 3136.00) rotate(133) scale(320.00 400.00)"><ellipse cx="0" cy="0" rx="1" ry="1" fill="rgb(2,1,1)" fill-opacity="0.502"/></g>
<circle cx="2976.00" cy="3920.00" r="128.00" fill="rgb(82,43,33)" fill-opacity="0.502"/>
<g transform="translate(816.00 96.00) rotate(23) scale(304.00 640.00)"><ellipse cx="0" cy="0" rx="1" ry="1" fill="rgb(0,0,0)" fill-opacity="0.502"/></g>
<g transform="translate(4800.00 3952.00) rotate(80) scale(16.00 192.00)"><ellipse cx="0" cy="0" rx="1" ry="1" fill="rgb(251,228,194)" fill-opacity="0.502"/></g>
<polygon points="5524.44,4352.09 5494.00,4361.98 5355.56,3935.91 5386.00,3926.02" fill="rgb(56,37,29)" fill-opacity="0.502"/>
<g transform="translate(1872.00 384.00) rotate(300) scale(768.00 256.00)"><ellipse cx="0" cy="0" rx="1" ry="1" fill="rgb(54,30,16)" fill-opacity="0.502"/></g>
<polygon points="2400.00,4256.00 4416.00,4256.00 4416.00,4400.00 2400.00,4400.00" fill="rgb(33,20,15)" fill-opacity="0.502"/>
<polygon points="5597.03,3544.61 5469.73,3557.99 5442.97,3303.39 5570.27,3290.01" fill="rgb(92,60,57)" fill-opacity="0.502"/>
<polygon points="5224.00,4648.00 5224.00,4296.00 5464.00,4296.00 5464.00,4648.00" fill="rgb(25,18,12)" fill-opacity="0.502"/>
<circle cx="6896.00" cy="4032.00" r="160.00" fill="rgb(186,155,135)" fill-opacity="0.502"/>
<polygon points="1737.47,1470.10 1937.90,1161.47 2246.53,1361.90 2046.10,1670.53" fill="rgb(41,23,16)" fill-opacity="0.502"/>
<polygon points="6017.26,4549.92 5768.77,4660.55 5742.74,4602.08 5991.23,4491.45" fill="rgb(132,117,101)" fill-opacity="0.502"/>
<circle cx="5104.00" cy="2576.00" r="80.00" fill="rgb(255,255,250)" fill-opacity="0.502"/>
<polygon points="3195.14,4041.57 3028.86,3945.57 3076.86,3862.43 3243.14,3958.43" fill="rgb(0,0,0)" fill-opacity="0.502"/>
<g transform="translate(7392.00 1584.00) rotate(127) scale(448.00 176.00)"><ellipse cx="0" cy="0" rx="1" ry="1" fill="rgb(0,0,0)" fill-opacity="0.502"/></g>
<g transform="translate(5984.00 2992.00) rotate(72) scale(208.00 64.00)"><ellipse cx="0" cy="0" rx="1" ry="1" fill="rgb(228,238,250)" fill-opacity="0.502"/></g>
<polygon points="5940.78,2175.07 5943.28,2190.87 5627.22,2240.93 5624.72,2225.13" fill="rgb(42,63,173)" fill-opacity="0.502"/>
<polygon points="6896.85,3872.13 6943.87,3936.85 6879.15,3983.87 6832.13,3919.15" fill="rgb(255,204,177)" fill-opacity="0.502"/>
<g transform="translate(6704.00 2992.00) rotate(171) scale(48.00 192.00)"><ellipse cx="0" cy="0" rx="1" ry="1" fill="rgb(148,141,140)" fill-opacity="0.502"/></g>
<polygon points="5312.00,2864.00 5312.00,2704.00 5312.00,2704.00 5312.00,2864.00" fill="rgb(34,47,92)" fill-opacity="0.502"/>
<polygon points="6070.50,3219.49 6141.84,3155.25 6409.50,3452.51 6338.16,3516.75" fill="rgb(172,133,104)" fill-opacity="0.502"/>
<circle cx="7520.00" cy="2000.00" r="448.00" fill="rgb(0,0,0)" fill-opacity="0.502"/>
<g transform="translate(2800.00 2640.00) rotate(140) scale(64.00 128.00)"><ellipse cx="0" cy="0" rx="1" ry="1" fill="rgb(147,98,83)" fill-opacity="0.502"/></g>
<g transform="translate(4656.00 2704.00) rotate(126) scale(48.00 64.00)"><ellipse cx="0" cy="0" rx="1" ry="1" fill="rgb(59,111,255)" fill-opacity="0.502"/></g>
<circle cx="4432.00" cy="2576.00" r="112.00" fill="rgb(252,255,255)" fill-opacity="0.502"/>
<polygon points="3919.20,2963.18 3568.05,2987.73 3536.80,2540.82 3887.95,2516.27" fill="rgb(7,6,7)" fill-opacity="0.502"/>
<polygon points="6334.68,1280.19 6308.18,977.35 7057.32,911.81 7083.82,1214.65" fill="rgb(69,31,14)" fill-opacity="0.502"/>
<polygon points="5339.75,4010.04 5347.26,4057.45 5268.25,4069.96 5260.74,4022.55" fill="rgb(166,124,98)" fill-opacity="0.502"/>
<circle cx="5072.00" cy="3248.00" r="336.00" fill="rgb(16,16,20)" fill-opacity="0.502"/>
<g transform="translate(2144.00 2960.00) rotate(27) scale(224.00 144.00)"><ellipse cx="0" cy="0" rx="1" ry="1" fill="rgb(7,6,3)" fill-opacity="0.502"/></g>
<g transform="translate(1408.00 4160.00) rotate(327) scale(96.00 64.00)"><ellipse cx="0" cy="0" rx="1" ry="1" fill="rgb(50,41,36)" fill-opacity="0.502"/></g>
<polygon points="2028.18,1804.12 1981.61,1585.02 2419.82,1491.88 2466.39,1710.98" fill="rgb(50,27,18)" fill-opacity="0.502"/>
<polygon points="4912.32,2146.54 4849.11,2136.53 4911.68,1741.46 4974.89,1751.47" fill="rgb(55,43,32)" fill-opacity="0.502"/>
<polygon points="5844.54,1997.10 5858.67,2004.61 5723.46,2258.90 5709.33,2251.39" fill="rgb(236,237,235)" fill-opacity="0.502"/>
<polygon points="6604.88,2018.78 6558.31,1799.67 7059.12,1693.22 7105.69,1912.33" fill="rgb(226,175,148)" fill-opacity="0.502"/>
<circle cx="5792.00" cy="3904.00" r="80.00" fill="rgb(240,205,185)" fill-opacity="0.502"/>
<polygon points="6040.19,2956.28 5674.21,2994.75 5655.81,2819.72 6021.79,2781.25" fill="rgb(197,204,219)" fill-opacity="0.502"/>
<circle cx="5040.00" cy="2240.00" r="48.00" fill="rgb(255,255,255)" fill-opacity="0.502"/>
<polygon points="4487.43,2759.93 4458.76,2834.61 4264.57,2760.07 4293.24,2685.39" fill="rgb(65,79,130)" fill-opacity="0.502"/>
<g transform="translate(3072.00 2320.00) rotate(249) scale(32.00 560.00)"><ellipse cx="0" cy="0" rx="1" ry="1" fill="rgb(68,36,19)" fill-opacity="0.502"/></g>
<circle cx="8160.00" cy="1808.00" r="1088.00" fill="rgb(0,0,0)" fill-opacity="0.502"/>
<circle cx="1376.00" cy="2000.00" r="112.00" fill="rgb(112,81,62)" fill-opacity="0.502"/>
<g transform="translate(6480.00 1728.00) rotate(171) scale(640.00 32.00)"><ellipse cx="0" cy="0" rx="1" ry="1" fill="rgb(100,57,42)" fill-opacity="0.502"/></g>
<circle cx="1504.00" cy="3280.00" r="64.00" fill="rgb(172,135,114)" fill-opacity="0.502"/>
<polygon points="3970.06,2727.76 3953.43,2649.51 4109.94,2616.24 4126.57,2694.49" fill="rgb(90,80,74)" fill-opacity="0.502"/>
<polygon points="4972.46,4238.28 4561.58,4303.36 4531.54,4113.72 4942.42,4048.64" fill="rgb(72,44,27)" fill-opacity="0.502"/>
<g transform="translate(4064.00 3072.00) rotate(241) scale(384.00 256.00)"><ellipse cx="0" cy="0" rx="1" ry="1" fill="rgb(10,9,14)" fill-opacity="0.502"/></g>
<circle cx="2096.00" cy="1904.00" r="112.00" fill="rgb(4,2,4)" fill-opacity="0.502"/>
<polygon points="3362.95,4471.01 3719.35,4289.41 3821.05,4488.99 3464.65,4670.59" fill="rgb(10,8,3)" fill-opacity="0.502"/>
<circle cx="6944.00" cy="3136.00" r="32.00" fill="rgb(143,110,78)" fill-opacity="0.502"/>
<circle cx="4512.00" cy="1568.00" r="288.00" fill="rgb(85,42,20)" fill-opacity="0.502"/>
</g>
</svg>