<?xml version="1.0" standalone="no"?>
<svg xmlns="http://www.w3.org/2000/svg" width="8192" height="4608" viewBox="0 0 8192 4608" style="overflow:hidden">
<defs>
<clipPath id="c"><rect x="0" y="0" width="8192" height="4608"/></clipPath>
</defs>
<rect width="8192" height="4608" fill="rgb(61,44,36)"/>
<g clip-path="url(#c)">
<polygon points="5357.91,4263.03 5314.35,1767.41 7058.09,1736.97 7101.65,4232.59" fill="rgb(255,255,255)" fill-opacity="0.502"/>
<g transform="translate(5184.00 2384.00) rotate(274) scale(384.00 1216.00)"><ellipse cx="0" cy="0" rx="1" ry="1" fill="rgb(255,255,255)" fill-opacity="0.502"/></g>
<circle cx="6496.00" cy="4560.00" r="592.00" fill="rgb(224,221,202)" fill-opacity="0.502"/>
<circle cx="3424.00" cy="3120.00" r="976.00" fill="rgb(0,0,0)" fill-opacity="0.502"/>
<circle cx="8000.00" cy="3696.00" r="976.00" fill="rgb(0,0,0)" fill-opacity="0.502"/>
<circle cx="160.00" cy="2224.00" r="2432.00" fill="rgb(0,0,0)" fill-opacity="0.502"/>
<g transform="translate(7904.00 1088.00) rotate(184) scale(768.00 4432.00)"><ellipse cx="0" cy="0" rx="1" ry="1" fill="rgb(0,0,0)" fill-opacity="0.502"/></g>
<polygon points="5972.50,2284.36 5856.49,1687.54 6123.50,1635.64 6239.51,2232.46" fill="rgb(43,24,20)" fill-opacity="0.502"/>
<polygon points="4168.43,2190.57 5911.37,2129.71 5927.57,2593.43 4184.63,2654.29" fill="rgb(229,250,255)" fill-opacity="0.502"/>
<circle cx="2256.00" cy="4064.00" r="272.00" fill="rgb(255,189,156)" fill-opacity="0.502"/>
<circle cx="5744.00" cy="2704.00" r="320.00" fill="rgb(244,255,255)" fill-opacity="0.502"/>
<g transform="translate(6656.00 2896.00) rotate(258) scale(848.00 400.00)"><ellipse cx="0" cy="0" rx="1" ry="1" fill="rgb(255,241,222)" fill-opacity="0.502"/></g>
<polygon points="6013.35,4247.58 6018.94,4087.67 6498.65,4104.42 6493.06,4264.33" fill="rgb(84,43,14)" fill-opacity="0.502"/>
<g transform="translate(6096.00 3792.00) rotate(272) scale(128.00 1248.00)"><ellipse cx="0" cy="0" rx="1" ry="1" fill="rgb(99,28,0)" fill-opacity="0.502"/></g>
<circle cx="2240.00" cy="3488.00" r="400.00" fill="rgb(0,0,0)" fill-opacity="0.502"/>
<circle cx="4960.00" cy="592.00" r="1472.00" fill="rgb(109,37,1)" fill-opacity="0.502"/>
<g transform="translate(5488.00 4416.00) rotate(63) scale(304.00 592.00)"><ellipse cx="0" cy="0" rx="1" ry="1" fill="rgb(54,25,4)" fill-opacity="0.502"/></g>
<g transform="translate(6800.00 2048.00) rotate(360) scale(304.00 496.00)"><ellipse cx="0" cy="0" rx="1" ry="1" fill="rgb(255,192,151)" fill-opacity="0.502"/></g>
<g transform="translate(2064.00 2400.00) rotate(102) scale(144.00 1024.00)"><ellipse cx="0" cy="0" rx="1" ry="1" fill="rgb(154,104,77)" fill-opacity="0.502"/></g>
<g transform="translate(6624.00 2192.00) rotate(345) scale(464.00 560.00)"><ellipse cx="0" cy="0" rx="1" ry="1" fill="rgb(229,184,159)" fill-opacity="0.502"/></g>
<g transform="translate(304.00 1760.00) rotate(89) scale(7248.00 800.00)"><ellipse cx="0" cy="0" rx="1" ry="1" fill="rgb(0,0,0)" fill-opacity="0.502"/></g>
<circle cx="8176.00" cy="992.00" r="1280.00" fill="rgb(0,0,0)" fill-opacity="0.502"/>
<circle cx="4832.00" cy="3936.00" r="352.00" fill="rgb(207,154,121)" fill-opacity="0.502"/>
<g transform="translate(5200.00 3424.00) rotate(336) scale(272.00 528.00)"><ellipse cx="0" cy="0" rx="1" ry="1" fill="rgb(17,7,7)" fill-opacity="0.502"/></g>
<circle cx="4720.00" cy="3040.00" r="496.00" fill="rgb(0,1,43)" fill-opacity="0.502"/>
<circle cx="2816.00" cy="672.00" r="1360.00" fill="rgb(81,31,6)" fill-opacity="0.502"/>
<g transform="translate(1648.00 4048.00) rotate(48) scale(192.00 224.00)"><ellipse cx="0" cy="0" rx="1" ry="1" fill="rgb(174,117,85)" fill-opacity="0.502"/></g>
<circle cx="3088.00" cy="4592.00" r="608.00" fill="rgb(27,9,0)" fill-opacity="0.502"/>
<circle cx="1456.00" cy="4592.00" r="368.00" fill="rgb(2,0,0)" fill-opacity="0.502"/>
<polygon points="6717.18,4648.68 6427.37,4396.75 6626.82,4167.32 6916.63,4419.25" fill="rgb(227,253,255)" fill-opacity="0.502"/>
<g transform="translate(5936.00 3328.00) rotate(261) scale(752.00 144.00)"><ellipse cx="0" cy="0" rx="1" ry="1" fill="rgb(254,248,242)" fill-opacity="0.502"/></g>
<circle cx="4192.00" cy="4016.00" r="320.00" fill="rgb(158,118,91)" fill-opacity="0.502"/>
<circle cx="7648.00" cy="2352.00" r="576.00" fill="rgb(0,0,0)" fill-opacity="0.502"/>
<polygon points="1839.49,3890.69 2104.52,3829.51 2176.51,4141.31 1911.48,4202.49" fill="rgb(233,167,137)" fill-opacity="0.502"/>
<circle cx="4512.00" cy="4592.00" r="480.00" fill="rgb(25,8,0)" fill-opacity="0.502"/>
<g transform="translate(1520.00 2560.00) rotate(14) scale(112.00 400.00)"><ellipse cx="0" cy="0" rx="1" ry="1" fill="rgb(196,147,120)" fill-opacity="0.502"/></g>
<circle cx="3808.00" cy="1072.00" r="864.00" fill="rgb(96,44,19)" fill-opacity="0.502"/>
<polygon points="6352.65,3051.41 6066.80,3086.51 5967.35,2276.59 6253.20,2241.49" fill="rgb(56,66,84)" fill-opacity="0.502"/>
<g transform="translate(5264.00 2256.00) rotate(253) scale(336.00 320.00)"><ellipse cx="0" cy="0" rx="1" ry="1" fill="rgb(223,222,233)" fill-opacity="0.502"/></g>
<g transform="translate(3120.00 3424.00) rotate(189) scale(976.00 544.00)"><ellipse cx="0" cy="0" rx="1" ry="1" fill="rgb(0,0,0)" fill-opacity="0.502"/></g>
<circle cx="8144.00" cy="544.00" r="1168.00" fill="rgb(0,0,0)" fill-opacity="0.502"/>
<circle cx="3216.00" cy="2080.00" r="576.00" fill="rgb(62,29,13)" fill-opacity="0.502"/>
<g transform="translate(6720.00 912.00) rotate(11) scale(352.00 800.00)"><ellipse cx="0" cy="0" rx="1" ry="1" fill="rgb(83,25,1)" fill-opacity="0.502"/></g>
<circle cx="4640.00" cy="3920.00" r="272.00" fill="rgb(171,131,105)" fill-opacity="0.502"/>
<g transform="translate(512.00 2864.00) rotate(360) scale(592.00 4592.00)"><ellipse cx="0" cy="0" rx="1" ry="1" fill="rgb(0,0,0)" fill-opacity="0.502"/></g>
<g transform="translate(2448.00 4016.00) rotate(273) scale(176.00 320.00)"><ellipse cx="0" cy="0" rx="1" ry="1" fill="rgb(215,158,133)" fill-opacity="0.502"/></g>
<g transform="translate(4320.00 1872.00) rotate(80) scale(240.00 1968.00)"><ellipse cx="0" cy="0" rx="1" ry="1" fill="rgb(51,35,25)" fill-opacity="0.502"/></g>
<g transform="translate(2176.00 4544.00) rotate(245) scale(288.00 496.00)"><ellipse cx="0" cy="0" rx="1" ry="1" fill="rgb(12,0,0)" fill-opacity="0.502"/></g>
<circle cx="5184.00" cy="2560.00" r="176.00" fill="rgb(229,240,255)" fill-opacity="0.502"/>
<circle cx="7536.00" cy="4144.00" r="480.00" fill="rgb(0,0,0)" fill-opacity="0.502"/>
<polygon points="4439.57,2673.63 4379.48,2786.65 4040.43,2606.37 4100.52,2493.35" fill="rgb(68,96,170)" fill-opacity="0.502"/>
<polygon points="4864.73,2559.26 4260.06,2622.81 4223.27,2272.74 4827.94,2209.19" fill="rgb(246,250,255)" fill-opacity="0.502"/>
<circle cx="4368.00" cy="3888.00" r="128.00" fill="rgb(0,0,0)" fill-opacity="0.502"/>
<polygon points="5603.18,3559.43 5120.11,3245.72 5372.82,2856.57 5855.89,3170.28" fill="rgb(140,83,59)" fill-opacity="0.502"/>
<polygon points="2482.14,2751.39 2660.21,2086.83 3293.86,2256.61 3115.79,2921.17" fill="rgb(101,59,38)" fill-opacity="0.502"/>
<polygon points="7070.47,1596.10 7088.89,1947.62 6625.53,1971.90 6607.11,1620.38" fill="rgb(237,182,152)" fill-opacity="0.502"/>
<g transform="translate(2272.00 2240.00) rotate(89) scale(896.00 96.00)"><ellipse cx="0" cy="0" rx="1" ry="1" fill="rgb(16,11,7)" fill-opacity="0.502"/></g>
<polygon points="6384.00,3232.00 7040.00,3232.00 7040.00,3616.00 6384.00,3616.00" fill="rgb(255,255,255)" fill-opacity="0.502"/>
<g transform="translate(4784.00 3360.00) rotate(360) scale(496.00 368.00)"><ellipse cx="0" cy="0" rx="1" ry="1" fill="rgb(0,0,0)" fill-opacity="0.502"/></g>
<g transform="translate(1744.00 4256.00) rotate(214) scale(128.00 320.00)"><ellipse cx="0" cy="0" rx="1" ry="1" fill="rgb(57,31,15)" fill-opacity="0.502"/></g>
<circle cx="6832.00" cy="2608.00" r="256.00" fill="rgb(180,131,105)" fill-opacity="0.502"/>
<polygon points="1360.28,3179.12 1487.79,3190.28 1455.72,3556.88 1328.21,3545.72" fill="rgb(253,191,168)" fill-opacity="0.502"/>
<circle cx="6592.00" cy="64.00" r="464.00" fill="rgb(77,27,5)" fill-opacity="0.502"/>
<circle cx="5584.00" cy="3456.00" r="288.00" fill="rgb(171,120,97)" fill-opacity="0.502"/>
<polygon points="6098.44,3429.32 6176.23,2988.12 6349.56,3018.68 6271.77,3459.88" fill="rgb(149,106,68)" fill-opacity="0.502"/>
<circle cx="1216.00" cy="2384.00" r="128.00" fill="rgb(170,114,78)" fill-opacity="0.502"/>
<polygon points="4108.14,4079.13 4117.89,3999.72 4387.86,4032.87 4378.11,4112.28" fill="rgb(246,211,197)" fill-opacity="0.502"/>
<circle cx="688.00" cy="4112.00" r="608.00" fill="rgb(0,0,0)" fill-opacity="0.502"/>
<circle cx="3632.00" cy="3136.00" r="688.00" fill="rgb(0,2,6)" fill-opacity="0.502"/>
<circle cx="5792.00" cy="2208.00" r="208.00" fill="rgb(211,229,255)" fill-opacity="0.502"/>
<circle cx="7488.00" cy="2816.00" r="416.00" fill="rgb(0,0,0)" fill-opacity="0.502"/>
<g transform="translate(4048.00 2400.00) rotate(237) scale(480.00 96.00)"><ellipse cx="0" cy="0" rx="1" ry="1" fill="rgb(77,64,69)" fill-opacity="0.502"/></g>
<circle cx="1600.00" cy="1792.00" r="368.00" fill="rgb(0,0,0)" fill-opacity="0.502"/>
<circle cx="5600.00" cy="4416.00" r="384.00" fill="rgb(81,56,40)" fill-opacity="0.502"/>
<g transform="translate(2464.00 2032.00) rotate(83) scale(448.00 144.00)"><ellipse cx="0" cy="0" rx="1" ry="1" fill="rgb(2,2,9)" fill-opacity="0.502"/></g>
<circle cx="6448.00" cy="2224.00" r="224.00" fill="rgb(248,224,210)" fill-opacity="0.502"/>
<circle cx="7904.00" cy="3120.00" r="832.00" fill="rgb(0,0,0)" fill-opacity="0.502"/>
<polygon points="6139.12,1935.39 5481.80,1795.67 5604.88,1216.61 6262.20,1356.33" fill="rgb(61,34,18)" fill-opacity="0.502"/>
<circle cx="6384.00" cy="4512.00" r="176.00" fill="rgb(108,90,71)" fill-opacity="0.502"/>
<g transform="translate(7632.00 1680.00) rotate(3) scale(544.00 1680.00)"><ellipse cx="0" cy="0" rx="1" ry="1" fill="rgb(0,0,0)" fill-opacity="0.502"/></g>
<polygon points="4800.00,2400.00 4800.00,2080.00 4928.00,2080.00 4928.00,2400.00" fill="rgb(59,80,153)" fill-opacity="0.502"/>
<polygon points="6637.85,2956.82 6806.26,3507.65 6546.15,3587.18 6377.74,3036.35" fill="rgb(241,243,246)" fill-opacity="0.502"/>
<polygon points="4754.22,4409.94 4723.02,4155.85 5421.78,4070.06 5452.98,4324.15" fill="rgb(63,36,22)" fill-opacity="0.502"/>
<g transform="translate(1792.00 416.00) rotate(90) scale(1168.00 624.00)"><ellipse cx="0" cy="0" rx="1" ry="1" fill="rgb(49,28,16)" fill-opacity="0.502"/></g>
<polygon points="1618.78,4195.11 1428.21,4218.51 1389.22,3900.89 1579.79,3877.49" fill="rgb(169,124,103)" fill-opacity="0.502"/>
<circle cx="3856.00" cy="4496.00" r="208.00" fill="rgb(3,0,0)" fill-opacity="0.502"/>
<g transform="translate(6912.00 4048.00) rotate(0) scale(176.00 496.00)"><ellipse cx="0" cy="0" rx="1" ry="1" fill="rgb(169,132,105)" fill-opacity="0.502"/></g>
<polygon points="1960.00,3496.00 1960.00,3880.00 1400.00,3880.00 1400.00,3496.00" fill="rgb(0,0,0)" fill-opacity="0.502"/>
<circle cx="1680.00" cy="2688.00" r="112.00" fill="rgb(119,84,65)" fill-opacity="0.502"/>
<circle cx="6800.00" cy="3792.00" r="160.00" fill="rgb(127,70,39)" fill-opacity="0.502"/>
<circle cx="7376.00" cy="4592.00" r="352.00" fill="rgb(0,0,0)" fill-opacity="0.502"/>
<g transform="translate(3968.00 4256.00) rotate(1) scale(1872.00 144.00)"><ellipse cx="0" cy="0" rx="1" ry="1" fill="rgb(85,50,33)" fill-opacity="0.502"/></g>
<circle cx="6976.00" cy="3536.00" r="112.00" fill="rgb(255,250,234)" fill-opacity="0.502"/>
<polygon points="5811.10,3817.09 5845.93,3677.37 6140.90,3750.91 6106.07,3890.63" fill="rgb(92,34,0)" fill-opacity="0.502"/>
<polygon points="2434.82,3094.18 1731.52,3903.23 1357.18,3577.82 2060.48,2768.77" fill="rgb(2,1,2)" fill-opacity="0.502"/>
<circle cx="1984.00" cy="2560.00" r="192.00" fill="rgb(117,80,58)" fill-opacity="0.502"/>
<g transform="translate(4544.00 2128.00) rotate(82) scale(64.00 688.00)"><ellipse cx="0" cy="0" rx="1" ry="1" fill="rgb(206,162,123)" fill-opacity="0.502"/></g>
<circle cx="6880.00" cy="2064.00" r="160.00" fill="rgb(170,136,104)" fill-opacity="0.502"/>
<g transform="translate(2480.00 1008.00) rotate(108) scale(368.00 752.00)"><ellipse cx="0" cy="0" rx="1" ry="1" fill="rgb(86,42,19)" fill-opacity="0.502"/></g>
<circle cx="1888.00" cy="2272.00" r="160.00" fill="rgb(21,11,4)" fill-opacity="0.502"/>
<circle cx="4928.00" cy="608.00" r="1072.00" fill="rgb(95,42,17)" fill-opacity="0.502"/>
<polygon points="5622.26,3759.53 4803.15,3979.01 4761.74,3824.47 5580.85,3604.99" fill="rgb(78,33,9)" fill-opacity="0.502"/>
<g transform="translate(7952.00 4400.00) rotate(0) scale(864.00 4592.00)"><ellipse cx="0" cy="0" rx="1" ry="1" fill="rgb(0,0,0)" fill-opacity="0.502"/></g>
<circle cx="5104.00" cy="4016.00" r="80.00" fill="rgb(255,255,249)" fill-opacity="0.502"/>
<circle cx="6496.00" cy="2016.00" r="304.00" fill="rgb(236,194,169)" fill-opacity="0.502"/>
<polygon points="5514.89,4657.34 4758.55,4523.98 4789.11,4350.66 5545.45,4484.02" fill="rgb(17,12,6)" fill-opacity="0.502"/>
<polygon points="5764.42,4444.87 6126.72,4209.59 6283.58,4451.13 5921.28,4686.41" fill="rgb(154,156,130)" fill-opacity="0.502"/>
<g transform="translate(5840.00 2976.00) rotate(225) scale(272.00 160.00)"><ellipse cx="0" cy="0" rx="1" ry="1" fill="rgb(229,240,251)" fill-opacity="0.502"/></g>
<circle cx="512.00" cy="368.00" r="688.00" fill="rgb(0,0,0)" fill-opacity="0.502"/>
<polygon points="2334.58,2724.12 2430.80,3823.92 1745.42,3883.88 1649.20,2784.08" fill="rgb(7,4,3)" fill-opacity="0.502"/>
<g transform="translate(4416.00 2768.00) rotate(44) scale(128.00 256.00)"><ellipse cx="0" cy="0" rx="1" ry="1" fill="rgb(17,57,134)" fill-opacity="0.502"/></g>
<circle cx="4272.00" cy="3520.00" r="240.00" fill="rgb(0,3,9)" fill-opacity="0.502"/>
<polygon points="5156.76,2097.52 5163.46,1905.64 5531.24,1918.48 5524.54,2110.36" fill="rgb(176,138,105)" fill-opacity="0.502"/>
<g transform="translate(7344.00 0.00) rotate(239) scale(2304.00 400.00)"><ellipse cx="0" cy="0" rx="1" ry="1" fill="rgb(0,0,0)" fill-opacity="0.502"/></g>
<polygon points="5082.94,2395.12 5755.31,2095.76 5957.06,2548.88 5284.69,2848.24" fill="rgb(212,222,244)" fill-opacity="0.502"/>
<polygon points="2709.06,4115.31 2699.00,3539.39 3082.94,3532.69 3093.00,4108.61" fill="rgb(17,8,6)" fill-opacity="0.502"/>
<g transform="translate(6080.00 2464.00) rotate(253) scale(432.00 64.00)"><ellipse cx="0" cy="0" rx="1" ry="1" fill="rgb(81,98,139)" fill-opacity="0.502"/></g>
<circle cx="2624.00" cy="2544.00" r="80.00" fill="rgb(234,171,145)" fill-opacity="0.502"/>
<circle cx="2864.00" cy="3280.00" r="464.00" fill="rgb(3,5,4)" fill-opacity="0.502"/>
<polygon points="6110.06,3628.83 5973.10,3673.33 5809.94,3171.17 5946.90,3126.67" fill="rgb(255,255,255)" fill-opacity="0.502"/>
<polygon points="3632.84,3014.70 4544.67,2770.38 4735.16,3481.30 3823.33,3725.62" fill="rgb(4,6,7)" fill-opacity="0.502"/>
<polygon points="2731.21,2183.31 1701.65,1703.22 1924.79,1224.69 2954.35,1704.78" fill="rgb(37,21,17)" fill-opacity="0.502"/>
<g transform="translate(6832.00 3296.00) rotate(184) scale(80.00 304.00)"><ellipse cx="0" cy="0" rx="1" ry="1" fill="rgb(193,184,170)" fill-opacity="0.502"/></g>
<circle cx="5216.00" cy="2992.00" r="208.00" fill="rgb(59,66,62)" fill-opacity="0.502"/>
<g transform="translate(2560.00 4592.00) rotate(90) scale(160.00 2560.00)"><ellipse cx="0" cy="0" rx="1" ry="1" fill="rgb(3,4,1)" fill-opacity="0.502"/></g>
<polygon points="5003.75,3950.72 5010.73,4030.42 4612.25,4065.28 4605.27,3985.58" fill="rgb(255,240,216)" fill-opacity="0.502"/>
<polygon points="1384.00,2504.00 1384.00,2456.00 1640.00,2456.00 1640.00,2504.00" fill="rgb(0,0,0)" fill-opacity="0.502"/>
<polygon points="2700.43,2798.58 2723.89,2126.99 3251.57,2145.42 3228.11,2817.01" fill="rgb(66,34,16)" fill-opacity="0.502"/>
<polygon points="4539.80,2559.11 4825.65,2594.21 4804.20,2768.89 4518.35,2733.79" fill="rgb(28,91,228)" fill-opacity="0.502"/>
<polygon points="3906.56,2649.80 4004.98,2503.89 4429.44,2790.20 4331.02,2936.11" fill="rgb(35,35,51)" fill-opacity="0.502"/>
<polygon points="3950.86,3880.22 3939.16,3784.93 4209.14,3751.78 4220.84,3847.07" fill="rgb(223,188,169)" fill-opacity="0.502"/>
<polygon points="6864.00,4592.00 6528.00,4592.00 6528.00,3952.00 6864.00,3952.00" fill="rgb(196,199,200)" fill-opacity="0.502"/>
<circle cx="608.00" cy="2448.00" r="496.00" fill="rgb(0,0,0)" fill-opacity="0.502"/>
<circle cx="400.00" cy="3232.00" r="688.00" fill="rgb(0,0,0)" fill-opacity="0.502"/>
<polygon points="6040.48,3991.87 6104.72,3900.12 6327.52,4056.13 6263.28,4147.88" fill="rgb(255,236,202)" fill-opacity="0.502"/>
<g transform="translate(5424.00 2016.00) rotate(253) scale(64.00 512.00)"><ellipse cx="0" cy="0" rx="1" ry="1" fill="rgb(200,159,129)" fill-opacity="0.502"/></g>
<g transform="translate(5440.00 4512.00) rotate(162) scale(448.00 384.00)"><ellipse cx="0" cy="0" rx="1" ry="1" fill="rgb(55,38,28)" fill-opacity="0.502"/></g>
<circle cx="5712.00" cy="3984.00" r="128.00" fill="rgb(255,208,174)" fill-opacity="0.502"/>
<polygon points="1614.91,2752.32 1568.15,3085.05 1473.09,3071.68 1519.85,2738.95" fill="rgb(30,16,10)" fill-opacity="0.502"/>
<circle cx="6560.00" cy="592.00" r="512.00" fill="rgb(79,34,16)" fill-opacity="0.502"/>
<polygon points="5202.83,3634.48 4131.48,3597.07 4157.17,2861.52 5228.52,2898.93" fill="rgb(9,11,14)" fill-opacity="0.502"/>
<g transform="translate(5056.00 2752.00) rotate(189) scale(368.00 48.00)"><ellipse cx="0" cy="0" rx="1" ry="1" fill="rgb(40,82,136)" fill-opacity="0.502"/></g>
<circle cx="1552.00" cy="256.00" r="464.00" fill="rgb(44,27,16)" fill-opacity="0.502"/>
<circle cx="2992.00" cy="0.00" r="704.00" fill="rgb(63,31,15)" fill-opacity="0.502"/>
<circle cx="6736.00" cy="1440.00" r="224.00" fill="rgb(57,34,23)" fill-opacity="0.502"/>
<polygon points="6867.09,1593.18 6184.00,1763.49 6156.91,1654.82 6840.00,1484.51" fill="rgb(113,70,51)" fill-opacity="0.502"/>
<g transform="translate(3792.00 2272.00) rotate(65) scale(80.00 144.00)"><ellipse cx="0" cy="0" rx="1" ry="1" fill="rgb(69,52,55)" fill-opacity="0.502"/></g>
<polygon points="6621.97,4098.83 6804.19,4508.10 6658.03,4573.17 6475.81,4163.90" fill="rgb(203,221,233)" fill-opacity="0.502"/>
<polygon points="1602.59,2627.20 1579.31,2736.76 1485.41,2716.80 1508.69,2607.24" fill="rgb(225,168,159)" fill-opacity="0.502"/>
<g transform="translate(5632.00 3968.00) rotate(181) scale(304.00 64.00)"><ellipse cx="0" cy="0" rx="1" ry="1" fill="rgb(255,236,203)" fill-opacity="0.502"/></g>
<g transform="translate(544.00 1456.00) rotate(201) scale(480.00 1008.00)"><ellipse cx="0" cy="0" rx="1" ry="1" fill="rgb(0,0,0)" fill-opacity="0.502"/></g>
<circle cx="5328.00" cy="3440.00" r="160.00" fill="rgb(71,50,50)" fill-opacity="0.502"/>
<polygon points="2410.14,2693.27 2571.25,2494.32 2645.86,2554.73 2484.75,2753.68" fill="rgb(103,72,60)" fill-opacity="0.502"/>
<circle cx="3760.00" cy="0.00" r="656.00" fill="rgb(78,39,19)" fill-opacity="0.502"/>
<polygon points="4944.82,1981.97 4926.69,2189.18 4799.18,2178.03 4817.31,1970.82" fill="rgb(94,94,75)" fill-opacity="0.502"/>
<g transform="translate(5344.00 1616.00) rotate(203) scale(272.00 256.00)"><ellipse cx="0" cy="0" rx="1" ry="1" fill="rgb(53,34,22)" fill-opacity="0.502"/></g>
<polygon points="4197.91,3940.11 4229.17,4030.88 3866.09,4155.89 3834.83,4065.12" fill="rgb(177,157,132)" fill-opacity="0.502"/>
<g transform="translate(3392.00 1040.00) rotate(161) scale(768.00 592.00)"><ellipse cx="0" cy="0" rx="1" ry="1" fill="rgb(91,43,19)" fill-opacity="0.502"/></g>
<polygon points="3612.10,3785.77 3694.01,3709.39 3955.90,3990.23 3873.99,4066.61" fill="rgb(5,5,3)" fill-opacity="0.502"/>
<g transform="translate(6672.00 3824.00) rotate(169) scale(496.00 96.00)"><ellipse cx="0" cy="0" rx="1" ry="1" fill="rgb(123,68,38)" fill-opacity="0.502"/></g>
<polygon points="6524.59,4322.59 6303.97,4507.72 6211.41,4397.41 6432.03,4212.28" fill="rgb(116,101,81)" fill-opacity="0.502"/>
<circle cx="7328.00" cy="3696.00" r="256.00" fill="rgb(0,0,0)" fill-opacity="0.502"/>
<g transform="translate(4880.00 2496.00) rotate(163) scale(48.00 128.00)"><ellipse cx="0" cy="0" rx="1" ry="1" fill="rgb(46,78,221)" fill-opacity="0.502"/></g>
<g transform="translate(6288.00 3696.00) rotate(148) scale(160.00 208.00)"><ellipse cx="0" cy="0" rx="1" ry="1" fill="rgb(148,80,45)" fill-opacity="0.502"/></g>
<polygon points="3919.70,4102.95 3872.92,4255.96 3536.30,4153.05 3583.08,4000.04" fill="rgb(100,76,60)" fill-opacity="0.502"/>
<g transform="translate(5392.00 2512.00) rotate(237) scale(416.00 272.00)"><ellipse cx="0" cy="0" rx="1" ry="1" fill="rgb(214,221,238)" fill-opacity="0.502"/></g>
<polygon points="2176.21,2418.64 2158.39,2545.40 2015.79,2525.36 2033.61,2398.60" fill="rgb(231,162,142)" fill-opacity="0.502"/>
<g transform="translate(3872.00 2336.00) rotate(354) scale(48.00 432.00)"><ellipse cx="0" cy="0" rx="1" ry="1" fill="rgb(37,23,24)" fill-opacity="0.502"/></g>
<circle cx="6896.00" cy="1168.00" r="192.00" fill="rgb(68,32,16)" fill-opacity="0.502"/>
<polygon points="2842.39,3908.31 2848.24,3955.95 2133.61,4043.69 2127.76,3996.05" fill="rgb(75,31,18)" fill-opacity="0.502"/>
<circle cx="1440.00" cy="592.00" r="352.00" fill="rgb(53,30,18)" fill-opacity="0.502"/>
<circle cx="2480.00" cy="4112.00" r="112.00" fill="rgb(250,188,159)" fill-opacity="0.502"/>
<circle cx="5696.00" cy="3152.00" r="112.00" fill="rgb(82,68,49)" fill-opacity="0.502"/>
<polygon points="4995.00,3815.04 5022.47,3673.69 5101.00,3688.96 5073.53,3830.31" fill="rgb(172,132,107)" fill-opacity="0.502"/>
<circle cx="4416.00" cy="4032.00" r="48.00" fill="rgb(243,209,197)" fill-opacity="0.502"/>
<polygon points="5520.89,3283.58 5583.52,3190.73 5663.11,3244.42 5600.48,3337.27" fill="rgb(243,187,165)" fill-opacity="0.502"/>
<polygon points="6305.35,2784.50 6351.11,2130.10 6542.65,2143.50 6496.89,2797.90" fill="rgb(254,230,217)" fill-opacity="0.502"/>
<circle cx="5536.00" cy="2736.00" r="96.00" fill="rgb(255,255,255)" fill-opacity="0.502"/>
<circle cx="1792.00" cy="1968.00" r="272.00" fill="rgb(5,5,6)" fill-opacity="0.502"/>
<polygon points="5707.31,3300.93 5872.12,3575.22 5652.69,3707.07 5487.88,3432.78" fill="rgb(201,161,142)" fill-opacity="0.502"/>
<g transform="translate(2048.00 4192.00) rotate(137) scale(80.00 144.00)"><ellipse cx="0" cy="0" rx="1" ry="1" fill="rgb(198,130,99)" fill-opacity="0.502"/></g>
<polygon points="4229.01,2461.13 4370.87,2309.01 4522.99,2450.87 4381.13,2602.99" fill="rgb(255,255,255)" fill-opacity="0.502"/>
<polygon points="2312.10,2293.31 1912.65,2314.25 1895.90,1994.69 2295.35,1973.75" fill="rgb(31,25,19)" fill-opacity="0.502"/>
<polygon points="4815.23,2341.36 4742.31,2553.15 4560.77,2490.64 4633.69,2278.85" fill="rgb(255,255,255)" fill-opacity="0.502"/>
<g transform="translate(1264.00 3200.00) rotate(6) scale(80.00 784.00)"><ellipse cx="0" cy="0" rx="1" ry="1" fill="rgb(6,7,7)" fill-opacity="0.502"/></g>
<polygon points="6749.46,2749.51 6830.74,3075.53 6706.54,3106.49 6625.26,2780.47" fill="rgb(143,134,133)" fill-opacity="0.502"/>
<g transform="translate(3104.00 2064.00) rotate(128) scale(368.00 432.00)"><ellipse cx="0" cy="0" rx="1" ry="1" fill="rgb(67,32,16)" fill-opacity="0.502"/></g>
<polygon points="4010.85,2076.46 4290.72,2231.60 4213.15,2371.54 3933.28,2216.40" fill="rgb(185,139,109)" fill-opacity="0.502"/>
<g transform="translate(4208.00 2080.00) rotate(314) scale(96.00 48.00)"><ellipse cx="0" cy="0" rx="1" ry="1" fill="rgb(99,70,53)" fill-opacity="0.502"/></g>
<g transform="translate(4048.00 1712.00) rotate(255) scale(160.00 768.00)"><ellipse cx="0" cy="0" rx="1" ry="1" fill="rgb(82,40,18)" fill-opacity="0.502"/></g>
<circle cx="4864.00" cy="752.00" r="560.00" fill="rgb(99,43,18)" fill-opacity="0.502"/>
<circle cx="7920.00" cy="3776.00" r="848.00" fill="rgb(0,0,0)" fill-opacity="0.502"/>
<polygon points="6337.30,2849.03 6239.32,2151.88 6302.70,2142.97 6400.68,2840.12" fill="rgb(230,243,255)" fill-opacity="0.502"/>
<g transform="translate(4144.00 4432.00) rotate(59) scale(160.00 208.00)"><ellipse cx="0" cy="0" rx="1" ry="1" fill="rgb(36,22,15)" fill-opacity="0.502"/></g>
<g transform="translate(3536.00 2768.00) rotate(256) scale(416.00 272.00)"><ellipse cx="0" cy="0" rx="1" ry="1" fill="rgb(4,5,5)" fill-opacity="0.502"/></g>
<circle cx="2096.00" cy="2352.00" r="64.00" fill="rgb(206,153,133)" fill-opacity="0.502"/>
<circle cx="2720.00" cy="3872.00" r="80.00" fill="rgb(131,87,81)" fill-opacity="0.502"/>
<polygon points="5060.93,1797.62 5355.09,1550.79 5499.07,1722.38 5204.91,1969.21" fill="rgb(43,38,29)" fill-opacity="0.502"/>
<g transform="translate(6976.00 1248.00) rotate(7) scale(80.00 416.00)"><ellipse cx="0" cy="0" rx="1" ry="1" fill="rgb(72,37,22)" fill-opacity="0.502"/></g>
<circle cx="1552.00" cy="4048.00" r="48.00" fill="rgb(20,3,0)" fill-opacity="0.502"/>
<circle cx="1120.00" cy="0.00" r="224.00" fill="rgb(2,4,3)" fill-opacity="0.502"/>
<circle cx="2640.00" cy="2464.00" r="64.00" fill="rgb(239,172,145)" fill-opacity="0.502"/>
<polygon points="5603.37,2847.36 6082.21,2880.84 6076.63,2960.64 5597.79,2927.16" fill="rgb(175,180,203)" fill-opacity="0.502"/>
<g transform="translate(4816.00 2784.00) rotate(8) scale(384.00 96.00)"><ellipse cx="0" cy="0" rx="1" ry="1" fill="rgb(18,49,82)" fill-opacity="0.502"/></g>
<g transform="translate(6528.00 2448.00) rotate(262) scale(16.00 512.00)"><ellipse cx="0" cy="0" rx="1" ry="1" fill="rgb(128,103,83)" fill-opacity="0.502"/></g>
<polygon points="5759.12,3346.22 5631.20,3341.75 5632.88,3293.78 5760.80,3298.25" fill="rgb(255,237,227)" fill-opacity="0.502"/>
<circle cx="5248.00" cy="1232.00" r="400.00" fill="rgb(89,40,17)" fill-opacity="0.502"/>
<polygon points="2177.50,2196.29 2458.12,2131.50 2526.50,2427.71 2245.88,2492.50" fill="rgb(15,11,11)" fill-opacity="0.502"/>
<circle cx="5744.00" cy="2400.00" r="128.00" fill="rgb(255,255,254)" fill-opacity="0.502"/>
<polygon points="6225.71,941.42 6603.96,1236.94 6318.29,1602.58 5940.04,1307.06" fill="rgb(71,31,13)" fill-opacity="0.502"/>
<polygon points="5202.08,3804.37 5106.83,3448.90 5245.92,3411.63 5341.17,3767.10" fill="rgb(9,13,15)" fill-opacity="0.502"/>
<polygon points="2610.86,2564.67 2523.33,2770.86 2317.14,2683.33 2404.67,2477.14" fill="rgb(91,68,55)" fill-opacity="0.502"/>
<circle cx="2000.00" cy="3936.00" r="64.00" fill="rgb(255,230,212)" fill-opacity="0.502"/>
<polygon points="2789.29,1552.49 2640.21,1940.86 2042.71,1711.51 2191.79,1323.14" fill="rgb(48,25,15)" fill-opacity="0.502"/>
<polygon points="2799.02,3807.83 2874.20,3835.19 2720.98,4256.17 2645.80,4228.81" fill="rgb(111,64,46)" fill-opacity="0.502"/>
<circle cx="3632.00" cy="2112.00" r="112.00" fill="rgb(0,1,5)" fill-opacity="0.502"/>
<polygon points="6347.61,1734.27 6450.23,2382.20 6276.39,2409.73 6173.77,1761.80" fill="rgb(230,201,188)" fill-opacity="0.502"/>
<polygon points="6739.48,2440.07 6863.93,2564.52 6524.52,2903.93 6400.07,2779.48" fill="rgb(221,175,155)" fill-opacity="0.502"/>
<polygon points="6250.10,3760.67 6265.15,3617.45 6853.90,3679.33 6838.85,3822.55" fill="rgb(154,105,79)" fill-opacity="0.502"/>
<circle cx="3232.00" cy="1952.00" r="368.00" fill="rgb(64,32,18)" fill-opacity="0.502"/>
<circle cx="1136.00" cy="2736.00" r="64.00" fill="rgb(115,76,61)" fill-opacity="0.502"/>
<circle cx="2736.00" cy="3504.00" r="336.00" fill="rgb(6,5,4)" fill-opacity="0.502"/>
<polygon points="6970.72,3435.74 6800.33,3316.43 6901.28,3172.26 7071.67,3291.57" fill="rgb(255,255,249)" fill-opacity="0.502"/>
<circle cx="1360.00" cy="2336.00" r="112.00" fill="rgb(156,122,102)" fill-opacity="0.502"/>
<g transform="translate(352.00 3248.00) rotate(181) scale(752.00 4304.00)"><ellipse cx="0" cy="0" rx="1" ry="1" fill="rgb(0,0,0)" fill-opacity="0.502"/></g>
<polygon points="6208.00,2352.00 6208.00,2752.00 6096.00,2752.00 6096.00,2352.00" fill="rgb(120,114,82)" fill-opacity="0.502"/>
<circle cx="2640.00" cy="2256.00" r="80.00" fill="rgb(135,118,113)" fill-opacity="0.502"/>
<circle cx="1888.00" cy="3088.00" r="368.00" fill="rgb(10,7,6)" fill-opacity="0.502"/>
<polygon points="1766.85,3599.69 1264.81,3913.41 1129.15,3696.31 1631.19,3382.59" fill="rgb(6,4,3)" fill-opacity="0.502"/>
<circle cx="6960.00" cy="4592.00" r="112.00" fill="rgb(96,90,71)" fill-opacity="0.502"/>
<polygon points="5439.66,2203.73 5787.33,2148.66 5792.34,2180.27 5444.67,2235.34" fill="rgb(41,63,178)" fill-opacity="0.502"/>
<polygon points="5964.32,4064.07 5923.29,4847.00 5635.68,4831.93 5676.71,4049.00" fill="rgb(100,70,52)" fill-opacity="0.502"/>
<g transform="translate(4592.00 1952.00) rotate(267) scale(80.00 592.00)"><ellipse cx="0" cy="0" rx="1" ry="1" fill="rgb(74,67,55)" fill-opacity="0.502"/></g>
<circle cx="6608.00" cy="1296.00" r="384.00" fill="rgb(66,34,19)" fill-opacity="0.502"/>
<g transform="translate(6080.00 4080.00) rotate(277) scale(32.00 480.00)"><ellipse cx="0" cy="0" rx="1" ry="1" fill="rgb(170,115,87)" fill-opacity="0.502"/></g>
<circle cx="4704.00" cy="3728.00" r="64.00" fill="rgb(236,221,205)" fill-opacity="0.502"/>
<circle cx="5232.00" cy="2256.00" r="64.00" fill="rgb(127,140,211)" fill-opacity="0.502"/>
<g transform="translate(2384.00 4224.00) rotate(350) scale(496.00 64.00)"><ellipse cx="0" cy="0" rx="1" ry="1" fill="rgb(130,69,41)" fill-opacity="0.502"/></g>
<polygon points="2130.42,1517.54 1890.36,1774.97 1293.58,1218.46 1533.64,961.03" fill="rgb(35,20,14)" fill-opacity="0.502"/>
<g transform="translate(6992.00 1728.00) rotate(18) scale(80.00 112.00)"><ellipse cx="0" cy="0" rx="1" ry="1" fill="rgb(225,166,140)" fill-opacity="0.502"/></g>
<g transform="translate(2496.00 4336.00) rotate(90) scale(64.00 1280.00)"><ellipse cx="0" cy="0" rx="1" ry="1" fill="rgb(55,33,21)" fill-opacity="0.502"/></g>
<polygon points="6625.44,4053.06 6585.30,4157.62 6286.56,4042.94 6326.70,3938.38" fill="rgb(223,167,133)" fill-opacity="0.502"/>
<polygon points="5714.15,2316.39 5840.24,2217.88 5997.85,2419.61 5871.76,2518.12" fill="rgb(250,255,254)" fill-opacity="0.502"/>
<g transform="translate(6048.00 4048.00) rotate(247) scale(752.00 16.00)"><ellipse cx="0" cy="0" rx="1" ry="1" fill="rgb(149,122,100)" fill-opacity="0.502"/></g>
<polygon points="4994.84,2625.14 4293.52,2686.50 4285.16,2590.86 4986.48,2529.50" fill="rgb(84,120,233)" fill-opacity="0.502"/>
<circle cx="2368.00" cy="2144.00" r="272.00" fill="rgb(17,13,13)" fill-opacity="0.502"/>
<circle cx="3248.00" cy="3168.00" r="384.00" fill="rgb(8,7,6)" fill-opacity="0.502"/>
<circle cx="6032.00" cy="3600.00" r="80.00" fill="rgb(255,255,255)" fill-opacity="0.502"/>
<g transform="translate(3024.00 3984.00) rotate(319) scale(96.00 240.00)"><ellipse cx="0" cy="0" rx="1" ry="1" fill="rgb(9,4,2)" fill-opacity="0.502"/></g>
<circle cx="7552.00" cy="32.00" r="496.00" fill="rgb(0,0,0)" fill-opacity="0.502"/>
<circle cx="1840.00" cy="800.00" r="384.00" fill="rgb(59,33,19)" fill-opacity="0.502"/>
<circle cx="3360.00" cy="3520.00" r="512.00" fill="rgb(6,7,6)" fill-opacity="0.502"/>
<g transform="translate(2416.00 4112.00) rotate(180) scale(96.00 48.00)"><ellipse cx="0" cy="0" rx="1" ry="1" fill="rgb(255,230,216)" fill-opacity="0.502"/></g>
<polygon points="6190.84,3691.37 6117.57,3314.42 6353.16,3268.63 6426.43,3645.58" fill="rgb(178,126,97)" fill-opacity="0.502"/>
<polygon points="1590.28,4463.97 1264.24,4180.55 1337.72,4096.03 1663.76,4379.45" fill="rgb(78,51,36)" fill-opacity="0.502"/>
<circle cx="6080.00" cy="3968.00" r="112.00" fill="rgb(254,207,175)" fill-opacity="0.502"/>
<polygon points="5377.20,3532.10 5260.84,3322.19 5358.80,3267.90 5475.16,3477.81" fill="rgb(116,84,77)" fill-opacity="0.502"/>
<circle cx="1392.00" cy="3392.00" r="112.00" fill="rgb(164,120,102)" fill-opacity="0.502"/>
<g transform="translate(2448.00 3168.00) rotate(137) scale(432.00 384.00)"><ellipse cx="0" cy="0" rx="1" ry="1" fill="rgb(11,8,7)" fill-opacity="0.502"/></g>
<circle cx="6192.00" cy="320.00" r="496.00" fill="rgb(85,38,16)" fill-opacity="0.502"/>
<circle cx="2336.00" cy="192.00" r="464.00" fill="rgb(56,30,17)" fill-opacity="0.502"/>
<polygon points="2521.25,2190.57 2585.17,2193.92 2566.75,2545.43 2502.83,2542.08" fill="rgb(29,18,7)" fill-opacity="0.502"/>
<circle cx="1520.00" cy="4016.00" r="16.00" fill="rgb(237,203,207)" fill-opacity="0.502"/>
<polygon points="6379.30,1729.01 6565.81,1880.04 6404.70,2078.99 6218.19,1927.96" fill="rgb(249,198,170)" fill-opacity="0.502"/>
<circle cx="3456.00" cy="4160.00" r="112.00" fill="rgb(101,67,51)" fill-opacity="0.502"/>
<circle cx="7248.00" cy="1840.00" r="160.00" fill="rgb(0,0,0)" fill-opacity="0.502"/>
<polygon points="6240.21,4377.92 6050.83,4766.20 5935.79,4710.08 6125.17,4321.80" fill="rgb(168,179,155)" fill-opacity="0.502"/>
<g transform="translate(4944.00 1792.00) rotate(160) scale(224.00 112.00)"><ellipse cx="0" cy="0" rx="1" ry="1" fill="rgb(33,30,25)" fill-opacity="0.502"/></g>
<circle cx="4288.00" cy="1920.00" r="192.00" fill="rgb(64,45,28)" fill-opacity="0.502"/>
<g transform="translate(5584.00 1296.00) rotate(138) scale(272.00 272.00)"><ellipse cx="0" cy="0" rx="1" ry="1" fill="rgb(83,39,18)" fill-opacity="0.502"/></g>
<polygon points="6887.68,4186.75 7095.39,4197.64 7080.32,4485.25 6872.61,4474.36" fill="rgb(153,146,134)" fill-opacity="0.502"/>
<g transform="translate(5056.00 2464.00) rotate(183) scale(80.00 176.00)"><ellipse cx="0" cy="0" rx="1" ry="1" fill="rgb(255,255,255)" fill-opacity="0.502"/></g>
<g transform="translate(2272.00 2544.00) rotate(304) scale(208.00 112.00)"><ellipse cx="0" cy="0" rx="1" ry="1" fill="rgb(46,35,27)" fill-opacity="0.502"/></g>
<g transform="translate(7040.00 2720.00) rotate(359) scale(48.00 400.00)"><ellipse cx="0" cy="0" rx="1" ry="1" fill="rgb(199,172,157)" fill-opacity="0.502"/></g>
<circle cx="4144.00" cy="848.00" r="480.00" fill="rgb(95,43,19)" fill-opacity="0.502"/>
<circle cx="1760.00" cy="2576.00" r="176.00" fill="rgb(46,34,20)" fill-opacity="0.502"/>
<circle cx="5376.00" cy="3712.00" r="112.00" fill="rgb(57,30,10)" fill-opacity="0.502"/>
<polygon points="6786.29,3896.52 7073.90,3911.59 7069.71,3991.48 6782.10,3976.41" fill="rgb(255,198,159)" fill-opacity="0.502"/>
<polygon points="5199.90,2707.79 5248.20,2665.80 5584.10,3052.21 5535.80,3094.20" fill="rgb(134,124,123)" fill-opacity="0.502"/>
<polygon points="4280.70,1959.00 4310.67,2033.18 3895.30,2201.00 3865.33,2126.82" fill="rgb(81,54,41)" fill-opacity="0.502"/>
<circle cx="1440.00" cy="4080.00" r="64.00" fill="rgb(17,14,0)" fill-opacity="0.502"/>
<circle cx="6064.00" cy="4176.00" r="96.00" fill="rgb(115,81,58)" fill-opacity="0.502"/>
<g transform="translate(6288.00 4016.00) rotate(358) scale(512.00 64.00)"><ellipse cx="0" cy="0" rx="1" ry="1" fill="rgb(245,192,157)" fill-opacity="0.502"/></g>
<polygon points="5907.94,1608.54 5858.25,1794.00 5580.06,1719.46 5629.75,1534.00" fill="rgb(35,31,22)" fill-opacity="0.502"/>
<g transform="translate(6480.00 3520.00) rotate(319) scale(112.00 144.00)"><ellipse cx="0" cy="0" rx="1" ry="1" fill="rgb(252,237,220)" fill-opacity="0.502"/></g>
<circle cx="7456.00" cy="2064.00" r="384.00" fill="rgb(0,0,0)" fill-opacity="0.502"/>
<polygon points="2322.54,1198.72 1958.70,997.04 2253.46,465.28 2617.30,666.96" fill="rgb(72,38,19)" fill-opacity="0.502"/>
<circle cx="5936.00" cy="2800.00" r="80.00" fill="rgb(227,237,255)" fill-opacity="0.502"/>
<polygon points="6364.39,3349.77 6479.44,3293.66 6563.61,3466.23 6448.56,3522.34" fill="rgb(255,255,255)" fill-opacity="0.502"/>
<polygon points="6553.70,1715.74 6226.31,1640.16 6262.30,1484.26 6589.69,1559.84" fill="rgb(91,56,40)" fill-opacity="0.502"/>
<g transform="translate(2096.00 3088.00) rotate(72) scale(384.00 304.00)"><ellipse cx="0" cy="0" rx="1" ry="1" fill="rgb(12,9,6)" fill-opacity="0.502"/></g>
<circle cx="2192.00" cy="3392.00" r="480.00" fill="rgb(9,7,6)" fill-opacity="0.502"/>
<polygon points="6888.46,3623.98 6668.01,3271.20 6871.54,3144.02 7091.99,3496.80" fill="rgb(229,220,208)" fill-opacity="0.502"/>
<circle cx="5280.00" cy="2592.00" r="48.00" fill="rgb(124,130,208)" fill-opacity="0.502"/>
<circle cx="6688.00" cy="2032.00" r="112.00" fill="rgb(186,133,101)" fill-opacity="0.502"/>
<g transform="translate(3056.00 2160.00) rotate(360) scale(352.00 416.00)"><ellipse cx="0" cy="0" rx="1" ry="1" fill="rgb(64,34,18)" fill-opacity="0.502"/></g>
<g transform="translate(4960.00 3808.00) rotate(164) scale(704.00 32.00)"><ellipse cx="0" cy="0" rx="1" ry="1" fill="rgb(87,47,26)" fill-opacity="0.502"/></g>
<polygon points="4441.32,3956.34 4488.08,3623.61 4630.68,3643.66 4583.92,3976.39" fill="rgb(132,103,82)" fill-opacity="0.502"/>
<circle cx="4256.00" cy="4160.00" r="96.00" fill="rgb(99,60,39)" fill-opacity="0.502"/>
<circle cx="7360.00" cy="672.00" r="304.00" fill="rgb(0,0,0)" fill-opacity="0.502"/>
<polygon points="1714.60,4242.80 1939.43,4492.49 1725.40,4685.20 1500.57,4435.51" fill="rgb(27,18,16)" fill-opacity="0.502"/>
<circle cx="3584.00" cy="2400.00" r="144.00" fill="rgb(25,21,19)" fill-opacity="0.502"/>
<polygon points="1207.55,2136.96 1305.61,2054.68 1480.45,2263.04 1382.39,2345.32" fill="rgb(86,62,42)" fill-opacity="0.502"/>
<g transform="translate(2688.00 2608.00) rotate(168) scale(64.00 16.00)"><ellipse cx="0" cy="0" rx="1" ry="1" fill="rgb(225,174,152)" fill-opacity="0.502"/></g>
<polygon points="4544.00,3664.00 3824.00,3664.00 3824.00,2976.00 4544.00,2976.00" fill="rgb(9,8,12)" fill-opacity="0.502"/>
<circle cx="6304.00" cy="4224.00" r="144.00" fill="rgb(125,105,85)" fill-opacity="0.502"/>
<polygon points="1129.80,1518.50 1225.74,1521.85 1206.20,2081.50 1110.26,2078.15" fill="rgb(94,63,45)" fill-opacity="0.502"/>
<polygon points="4101.16,4111.17 3960.85,4078.78 3978.84,4000.83 4119.15,4033.22" fill="rgb(192,174,143)" fill-opacity="0.502"/>
<polygon points="6592.00,1472.00 7056.00,1472.00 7056.00,1584.00 6592.00,1584.00" fill="rgb(95,63,46)" fill-opacity="0.502"/>
<polygon points="6237.88,3063.91 6051.36,2912.87 6162.12,2776.09 6348.64,2927.13" fill="rgb(145,125,104)" fill-opacity="0.502"/>
<polygon points="3735.01,2655.50 3660.06,2572.27 3992.99,2272.50 4067.94,2355.73" fill="rgb(21,18,23)" fill-opacity="0.502"/>
<polygon points="6558.08,3018.15 6575.89,3144.90 6369.92,3173.85 6352.11,3047.10" fill="rgb(255,255,255)" fill-opacity="0.502"/>
<circle cx="5040.00" cy="3168.00" r="208.00" fill="rgb(23,20,17)" fill-opacity="0.502"/>
<polygon points="6770.20,2243.24 6718.11,2394.52 6445.80,2300.76 6497.89,2149.48" fill="rgb(241,231,220)" fill-opacity="0.502"/>
<polygon points="1086.71,2684.87 1157.11,2422.14 1265.29,2451.13 1194.89,2713.86" fill="rgb(92,55,27)" fill-opacity="0.502"/>
<g transform="translate(3920.00 2608.00) rotate(138) scale(336.00 32.00)"><ellipse cx="0" cy="0" rx="1" ry="1" fill="rgb(35,31,41)" fill-opacity="0.502"/></g>
<circle cx="2384.00" cy="3952.00" r="32.00" fill="rgb(255,255,255)" fill-opacity="0.502"/>
<polygon points="1679.94,1123.07 1659.92,1249.49 1328.06,1196.93 1348.08,1070.51" fill="rgb(17,10,2)" fill-opacity="0.502"/>
<g transform="translate(3536.00 1040.00) rotate(269) scale(272.00 528.00)"><ellipse cx="0" cy="0" rx="1" ry="1" fill="rgb(94,44,19)" fill-opacity="0.502"/></g>
<g transform="translate(3824.00 2896.00) rotate(194) scale(544.00 224.00)"><ellipse cx="0" cy="0" rx="1" ry="1" fill="rgb(6,6,10)" fill-opacity="0.502"/></g>
<polygon points="6648.81,2557.93 6580.98,2449.38 7015.19,2178.07 7083.02,2286.62" fill="rgb(205,188,173)" fill-opacity="0.502"/>
<polygon points="6924.23,2850.63 7088.13,2978.68 6979.77,3117.37 6815.87,2989.32" fill="rgb(243,237,240)" fill-opacity="0.502"/>
<polygon points="1713.26,2631.92 2176.98,2648.12 2174.74,2712.08 1711.02,2695.88" fill="rgb(151,125,104)" fill-opacity="0.502"/>
<polygon points="5971.61,2819.25 5636.84,2710.48 5676.39,2588.75 6011.16,2697.52" fill="rgb(249,255,255)" fill-opacity="0.502"/>
<polygon points="2252.79,3847.67 2275.06,4006.11 2259.21,4008.33 2236.94,3849.89" fill="rgb(0,0,0)" fill-opacity="0.502"/>
<g transform="translate(5136.00 2384.00) rotate(317) scale(96.00 96.00)"><ellipse cx="0" cy="0" rx="1" ry="1" fill="rgb(255,255,255)" fill-opacity="0.502"/></g>
<g transform="translate(5296.00 2352.00) rotate(193) scale(48.00 192.00)"><ellipse cx="0" cy="0" rx="1" ry="1" fill="rgb(179,188,211)" fill-opacity="0.502"/></g>
<polygon points="4761.47,3349.91 5087.50,3633.33 4982.53,3754.09 4656.50,3470.67" fill="rgb(22,19,14)" fill-opacity="0.502"/>
<polygon points="5110.61,3994.49 4926.95,4092.14 4889.39,4021.51 5073.05,3923.86" fill="rgb(248,199,174)" fill-opacity="0.502"/>
<g transform="translate(4080.00 2288.00) rotate(274) scale(48.00 64.00)"><ellipse cx="0" cy="0" rx="1" ry="1" fill="rgb(221,188,161)" fill-opacity="0.502"/></g>
<g transform="translate(6160.00 1536.00) rotate(347) scale(976.00 80.00)"><ellipse cx="0" cy="0" rx="1" ry="1" fill="rgb(37,24,16)" fill-opacity="0.502"/></g>
<g transform="translate(7360.00 4176.00) rotate(25) scale(256.00 336.00)"><ellipse cx="0" cy="0" rx="1" ry="1" fill="rgb(0,0,0)" fill-opacity="0.502"/></g>
<g transform="translate(1536.00 4176.00) rotate(281) scale(64.00 128.00)"><ellipse cx="0" cy="0" rx="1" ry="1" fill="rgb(180,131,110)" fill-opacity="0.502"/></g>
<g transform="translate(1472.00 2320.00) rotate(215) scale(64.00 64.00)"><ellipse cx="0" cy="0" rx="1" ry="1" fill="rgb(197,151,129)" fill-opacity="0.502"/></g>
<polygon points="2128.00,2608.00 1600.00,2608.00 1600.00,2528.00 2128.00,2528.00" fill="rgb(3,3,0)" fill-opacity="0.502"/>
<polygon points="6666.77,3302.74 6550.46,3130.30 6789.23,2969.26 6905.54,3141.70" fill="rgb(182,174,166)" fill-opacity="0.502"/>
<polygon points="6126.88,2304.74 5964.19,1939.32 6081.12,1887.26 6243.81,2252.68" fill="rgb(106,100,82)" fill-opacity="0.502"/>
<g transform="translate(6864.00 4080.00) rotate(94) scale(80.00 224.00)"><ellipse cx="0" cy="0" rx="1" ry="1" fill="rgb(154,138,117)" fill-opacity="0.502"/></g>
<circle cx="6288.00" cy="2080.00" r="64.00" fill="rgb(152,145,149)" fill-opacity="0.502"/>
<circle cx="5888.00" cy="4592.00" r="176.00" fill="rgb(110,100,81)" fill-opacity="0.502"/>
<circle cx="5856.00" cy="2144.00" r="48.00" fill="rgb(112,129,226)" fill-opacity="0.502"/>
<polygon points="4062.80,4489.76 2942.97,4470.22 2945.20,4342.24 4065.03,4361.78" fill="rgb(31,17,14)" fill-opacity="0.502"/>
<polygon points="7081.66,3588.81 7128.20,3672.78 6806.34,3851.19 6759.80,3767.22" fill="rgb(135,90,65)" fill-opacity="0.502"/>
<polygon points="2306.58,2486.25 2356.02,2638.42 2173.42,2697.75 2123.98,2545.58" fill="rgb(34,27,18)" fill-opacity="0.502"/>
<polygon points="2018.47,2592.65 2041.40,2652.40 1533.53,2847.35 1510.60,2787.60" fill="rgb(118,89,65)" fill-opacity="0.502"/>
<polygon points="3174.25,2163.67 3480.26,2070.11 3545.75,2284.33 3239.74,2377.89" fill="rgb(70,40,25)" fill-opacity="0.502"/>
<polygon points="1648.00,1728.00 1120.00,1728.00 1120.00,1504.00 1648.00,1504.00" fill="rgb(7,3,3)" fill-opacity="0.502"/>
<circle cx="5792.00" cy="3760.00" r="144.00" fill="rgb(117,80,59)" fill-opacity="0.502"/>
<circle cx="7024.00" cy="1728.00" r="64.00" fill="rgb(247,199,179)" fill-opacity="0.502"/>
<g transform="translate(6576.00 1744.00) rotate(264) scale(32.00 368.00)"><ellipse cx="0" cy="0" rx="1" ry="1" fill="rgb(243,191,163)" fill-opacity="0.502"/></g>
<polygon points="3200.93,2605.63 3214.33,2797.16 2911.07,2818.37 2897.67,2626.84" fill="rgb(90,53,35)" fill-opacity="0.502"/>
<g transform="translate(3072.00 2224.00) rotate(152) scale(400.00 224.00)"><ellipse cx="0" cy="0" rx="1" ry="1" fill="rgb(69,37,20)" fill-opacity="0.502"/></g>
<g transform="translate(4656.00 2128.00) rotate(47) scale(96.00 128.00)"><ellipse cx="0" cy="0" rx="1" ry="1" fill="rgb(230,204,192)" fill-opacity="0.502"/></g>
<polygon points="6891.12,1804.26 7007.34,1576.16 7092.88,1619.74 6976.66,1847.84" fill="rgb(197,143,118)" fill-opacity="0.502"/>
<circle cx="2064.00" cy="2176.00" r="144.00" fill="rgb(35,26,17)" fill-opacity="0.502"/>
<g transform="translate(7520.00 4576.00) rotate(278) scale(7968.00 416.00)"><ellipse cx="0" cy="0" rx="1" ry="1" fill="rgb(0,0,0)" fill-opacity="0.502"/></g>
<polygon points="5336.77,4123.98 5563.69,4202.12 5527.23,4308.02 5300.31,4229.88" fill="rgb(50,35,20)" fill-opacity="0.502"/>
<circle cx="1424.00" cy="112.00" r="224.00" fill="rgb(40,24,16)" fill-opacity="0.502"/>
<polygon points="5218.68,4683.85 5029.73,4488.19 5133.32,4388.15 5322.27,4583.81" fill="rgb(23,11,2)" fill-opacity="0.502"/>
<circle cx="1872.00" cy="1536.00" r="192.00" fill="rgb(52,27,18)" fill-opacity="0.502"/>
<polygon points="6124.84,1558.98 6230.08,1597.28 6115.16,1913.02 6009.92,1874.72" fill="rgb(91,63,48)" fill-opacity="0.502"/>
<polygon points="5474.95,4015.32 6114.07,4048.81 6109.05,4144.68 5469.93,4111.19" fill="rgb(159,101,74)" fill-opacity="0.502"/>
<polygon points="6229.76,2629.23 6070.15,2618.07 6090.24,2330.77 6249.85,2341.93" fill="rgb(107,111,103)" fill-opacity="0.502"/>
<polygon points="5825.11,4194.66 5756.86,4750.49 5486.89,4717.34 5555.14,4161.51" fill="rgb(64,42,28)" fill-opacity="0.502"/>
<g transform="translate(5808.00 4160.00) rotate(10) scale(288.00 64.00)"><ellipse cx="0" cy="0" rx="1" ry="1" fill="rgb(104,65,42)" fill-opacity="0.502"/></g>
<g transform="translate(4768.00 3856.00) rotate(75) scale(64.00 352.00)"><ellipse cx="0" cy="0" rx="1" ry="1" fill="rgb(128,74,47)" fill-opacity="0.502"/></g>
<polygon points="6685.88,2004.50 6617.50,1708.29 6898.12,1643.50 6966.50,1939.71" fill="rgb(248,200,169)" fill-opacity="0.502"/>
<circle cx="5312.00" cy="3040.00" r="96.00" fill="rgb(142,113,100)" fill-opacity="0.502"/>
<g transform="translate(4832.00 2928.00) rotate(193) scale(304.00 112.00)"><ellipse cx="0" cy="0" rx="1" ry="1" fill="rgb(10,22,36)" fill-opacity="0.502"/></g>
<circle cx="6352.00" cy="2624.00" r="80.00" fill="rgb(255,245,244)" fill-opacity="0.502"/>
<polygon points="6641.44,4134.64 6695.72,4100.73 6958.56,4521.36 6904.28,4555.27" fill="rgb(163,176,182)" fill-opacity="0.502"/>
<polygon points="4899.62,4532.66 5000.46,4350.74 5196.38,4459.34 5095.54,4641.26" fill="rgb(32,22,16)" fill-opacity="0.502"/>
<circle cx="3744.00" cy="2320.00" r="16.00" fill="rgb(255,255,253)" fill-opacity="0.502"/>
<polygon points="6623.59,2073.04 6576.32,2081.37 6512.41,1718.96 6559.68,1710.63" fill="rgb(163,120,94)" fill-opacity="0.502"/>
<polygon points="6313.75,3246.58 6326.31,3006.91 6374.25,3009.42 6361.69,3249.09" fill="rgb(155,145,142)" fill-opacity="0.502"/>
<g transform="translate(4496.00 2656.00) rotate(102) scale(64.00 64.00)"><ellipse cx="0" cy="0" rx="1" ry="1" fill="rgb(50,99,206)" fill-opacity="0.502"/></g>
<circle cx="7408.00" cy="1248.00" r="352.00" fill="rgb(0,0,0)" fill-opacity="0.502"/>
<polygon points="5837.16,3268.65 5803.35,3341.16 5730.84,3307.35 5764.65,3234.84" fill="rgb(76,85,96)" fill-opacity="0.502"/>
<polygon points="1861.17,1938.51 2017.99,2018.41 1930.83,2189.49 1774.01,2109.59" fill="rgb(4,5,11)" fill-opacity="0.502"/>
<circle cx="4752.00" cy="3488.00" r="176.00" fill="rgb(10,12,13)" fill-opacity="0.502"/>
<polygon points="5045.39,3937.95 5208.58,4003.88 5178.61,4078.05 5015.42,4012.12" fill="rgb(246,215,189)" fill-opacity="0.502"/>
<polygon points="5977.72,608.73 5474.26,1230.45 4902.28,767.27 5405.74,145.55" fill="rgb(97,41,16)" fill-opacity="0.502"/>
<polygon points="6247.06,3893.84 6222.19,3913.98 6040.94,3690.16 6065.81,3670.02" fill="rgb(116,68,39)" fill-opacity="0.502"/>
<polygon points="4574.10,1960.11 4246.21,2127.17 4209.90,2055.89 4537.79,1888.83" fill="rgb(88,73,56)" fill-opacity="0.502"/>
<polygon points="6864.00,2864.00 6864.00,2688.00 7040.00,2688.00 7040.00,2864.00" fill="rgb(155,132,110)" fill-opacity="0.502"/>
<polygon points="3887.83,3843.81 4005.60,3713.01 4160.17,3852.19 4042.40,3982.99" fill="rgb(133,90,68)" fill-opacity="0.502"/>
<circle cx="5472.00" cy="2448.00" r="128.00" fill="rgb(250,255,255)" fill-opacity="0.502"/>
<g transform="translate(6944.00 304.00) rotate(178) scale(144.00 336.00)"><ellipse cx="0" cy="0" rx="1" ry="1" fill="rgb(59,30,18)" fill-opacity="0.502"/></g>
<circle cx="4576.00" cy="1840.00" r="208.00" fill="rgb(65,46,33)" fill-opacity="0.502"/>
<g transform="translate(5696.00 3360.00) rotate(287) scale(16.00 160.00)"><ellipse cx="0" cy="0" rx="1" ry="1" fill="rgb(135,79,65)" fill-opacity="0.502"/></g>
<circle cx="3696.00" cy="4272.00" r="144.00" fill="rgb(59,33,23)" fill-opacity="0.502"/>
<circle cx="4368.00" cy="1488.00" r="336.00" fill="rgb(85,41,19)" fill-opacity="0.502"/>
<circle cx="1536.00" cy="2176.00" r="64.00" fill="rgb(129,90,71)" fill-opacity="0.502"/>
<polygon points="6186.76,3772.28 6197.37,3468.46 6405.24,3475.72 6394.63,3779.54" fill="rgb(147,97,71)" fill-opacity="0.502"/>
<g transform="translate(4272.00 4112.00) rotate(254) scale(16.00 192.00)"><ellipse cx="0" cy="0" rx="1" ry="1" fill="rgb(126,86,73)" fill-opacity="0.502"/></g>
<polygon points="4060.98,3619.18 4098.49,3707.55 3907.02,3788.82 3869.51,3700.45" fill="rgb(57,48,31)" fill-opacity="0.502"/>
<polygon points="5481.12,3103.44 5494.77,3214.61 5478.88,3216.56 5465.23,3105.39" fill="rgb(255,240,226)" fill-opacity="0.502"/>
<g transform="translate(4912.00 2336.00) rotate(1) scale(64.00 96.00)"><ellipse cx="0" cy="0" rx="1" ry="1" fill="rgb(125,150,219)" fill-opacity="0.502"/></g>
<polygon points="5512.11,2099.76 5498.07,2053.86 5895.89,1932.24 5909.93,1978.14" fill="rgb(204,173,153)" fill-opacity="0.502"/>
<circle cx="6512.00" cy="2560.00" r="112.00" fill="rgb(255,195,169)" fill-opacity="0.502"/>
<circle cx="1872.00" cy="4160.00" r="112.00" fill="rgb(107,66,42)" fill-opacity="0.502"/>
<g transform="translate(5488.00 1840.00) rotate(346) scale(640.00 48.00)"><ellipse cx="0" cy="0" rx="1" ry="1" fill="rgb(86,66,54)" fill-opacity="0.502"/></g>
<circle cx="5008.00" cy="2688.00" r="64.00" fill="rgb(48,86,170)" fill-opacity="0.502"/>
<circle cx="4144.00" cy="2416.00" r="80.00" fill="rgb(73,88,122)" fill-opacity="0.502"/>
<polygon points="1649.59,4200.62 1884.35,4250.52 1854.41,4391.38 1619.65,4341.48" fill="rgb(60,38,22)" fill-opacity="0.502"/>
<polygon points="1528.46,2400.22 1540.98,2479.24 1335.54,2511.78 1323.02,2432.76" fill="rgb(25,13,0)" fill-opacity="0.502"/>
<polygon points="3922.59,3889.90 3626.31,3433.67 3693.41,3390.10 3989.69,3846.33" fill="rgb(22,18,14)" fill-opacity="0.502"/>
<polygon points="6869.75,4566.49 6609.64,4646.01 6586.25,4569.51 6846.36,4489.99" fill="rgb(147,166,163)" fill-opacity="0.502"/>
</g>
</svg>