<?xml version="1.0" standalone="no"?>
<svg xmlns="http://www.w3.org/2000/svg" width="8192" height="4608" viewBox="0 0 8192 4608" style="overflow:hidden">
<defs>
<clipPath id="c"><rect x="0" y="0" width="8192" height="4608"/></clipPath>
</defs>
<rect width="8192" height="4608" fill="rgb(83,55,41)"/>
<g clip-path="url(#c)">
<circle cx="3904.00" cy="0.00" r="1728.00" fill="rgb(230,143,101)" fill-opacity="0.502"/>
<g transform="translate(400.00 2320.00) rotate(270) scale(8176.00 720.00)"><ellipse cx="0" cy="0" rx="1" ry="1" fill="rgb(0,0,0)" fill-opacity="0.502"/></g>
<g transform="translate(6592.00 704.00) rotate(0) scale(496.00 1232.00)"><ellipse cx="0" cy="0" rx="1" ry="1" fill="rgb(255,234,187)" fill-opacity="0.502"/></g>
<g transform="translate(5632.00 1808.00) rotate(247) scale(848.00 448.00)"><ellipse cx="0" cy="0" rx="1" ry="1" fill="rgb(0,0,0)" fill-opacity="0.502"/></g>
<g transform="translate(7760.00 1360.00) rotate(360) scale(688.00 4592.00)"><ellipse cx="0" cy="0" rx="1" ry="1" fill="rgb(0,0,0)" fill-opacity="0.502"/></g>
<polygon points="3981.56,2136.08 3289.95,2387.81 2994.44,1575.92 3686.05,1324.19" fill="rgb(0,0,0)" fill-opacity="0.502"/>
<g transform="translate(5696.00 32.00) rotate(89) scale(272.00 1424.00)"><ellipse cx="0" cy="0" rx="1" ry="1" fill="rgb(255,204,161)" fill-opacity="0.502"/></g>
<g transform="translate(2144.00 1424.00) rotate(185) scale(1024.00 1008.00)"><ellipse cx="0" cy="0" rx="1" ry="1" fill="rgb(199,125,88)" fill-opacity="0.502"/></g>
<g transform="translate(2512.00 4112.00) rotate(329) scale(464.00 864.00)"><ellipse cx="0" cy="0" rx="1" ry="1" fill="rgb(26,0,0)" fill-opacity="0.502"/></g>
<circle cx="2848.00" cy="2736.00" r="496.00" fill="rgb(201,131,98)" fill-opacity="0.502"/>
<g transform="translate(5856.00 688.00) rotate(346) scale(1280.00 240.00)"><ellipse cx="0" cy="0" rx="1" ry="1" fill="rgb(227,168,135)" fill-opacity="0.502"/></g>
<circle cx="0.00" cy="1600.00" r="1248.00" fill="rgb(0,0,0)" fill-opacity="0.502"/>
<circle cx="4016.00" cy="2768.00" r="544.00" fill="rgb(209,165,147)" fill-opacity="0.502"/>
<circle cx="8176.00" cy="3424.00" r="1184.00" fill="rgb(0,0,0)" fill-opacity="0.502"/>
<g transform="translate(3920.00 224.00) rotate(278) scale(368.00 880.00)"><ellipse cx="0" cy="0" rx="1" ry="1" fill="rgb(232,175,135)" fill-opacity="0.502"/></g>
<g transform="translate(3568.00 1088.00) rotate(37) scale(256.00 432.00)"><ellipse cx="0" cy="0" rx="1" ry="1" fill="rgb(36,10,5)" fill-opacity="0.502"/></g>
<circle cx="5344.00" cy="3840.00" r="704.00" fill="rgb(133,117,113)" fill-opacity="0.502"/>
<circle cx="4784.00" cy="2192.00" r="240.00" fill="rgb(228,227,224)" fill-opacity="0.502"/>
<g transform="translate(3904.00 2560.00) rotate(358) scale(352.00 160.00)"><ellipse cx="0" cy="0" rx="1" ry="1" fill="rgb(255,255,255)" fill-opacity="0.502"/></g>
<circle cx="0.00" cy="3552.00" r="1200.00" fill="rgb(0,0,0)" fill-opacity="0.502"/>
<circle cx="4448.00" cy="2096.00" r="256.00" fill="rgb(93,6,0)" fill-opacity="0.502"/>
<circle cx="4208.00" cy="1392.00" r="512.00" fill="rgb(203,52,13)" fill-opacity="0.502"/>
<g transform="translate(7680.00 3072.00) rotate(90) scale(8176.00 592.00)"><ellipse cx="0" cy="0" rx="1" ry="1" fill="rgb(0,0,0)" fill-opacity="0.502"/></g>
<circle cx="5568.00" cy="1408.00" r="448.00" fill="rgb(0,0,0)" fill-opacity="0.502"/>
<polygon points="4864.40,3992.35 5047.94,3730.22 5375.60,3959.65 5192.06,4221.78" fill="rgb(6,0,0)" fill-opacity="0.502"/>
<circle cx="6544.00" cy="1472.00" r="560.00" fill="rgb(179,118,91)" fill-opacity="0.502"/>
<polygon points="1624.06,2306.42 2346.54,2165.98 2599.94,3469.58 1877.46,3610.02" fill="rgb(65,20,3)" fill-opacity="0.502"/>
<circle cx="5408.00" cy="464.00" r="240.00" fill="rgb(23,11,5)" fill-opacity="0.502"/>
<circle cx="1520.00" cy="3376.00" r="448.00" fill="rgb(131,66,40)" fill-opacity="0.502"/>
<circle cx="400.00" cy="560.00" r="752.00" fill="rgb(0,0,0)" fill-opacity="0.502"/>
<g transform="translate(512.00 3280.00) rotate(91) scale(5376.00 592.00)"><ellipse cx="0" cy="0" rx="1" ry="1" fill="rgb(0,0,0)" fill-opacity="0.502"/></g>
<g transform="translate(3024.00 1104.00) rotate(253) scale(80.00 560.00)"><ellipse cx="0" cy="0" rx="1" ry="1" fill="rgb(0,0,0)" fill-opacity="0.502"/></g>
<g transform="translate(2864.00 2176.00) rotate(187) scale(272.00 480.00)"><ellipse cx="0" cy="0" rx="1" ry="1" fill="rgb(179,125,99)" fill-opacity="0.502"/></g>
<circle cx="4720.00" cy="1104.00" r="208.00" fill="rgb(226,175,141)" fill-opacity="0.502"/>
<circle cx="4992.00" cy="2800.00" r="240.00" fill="rgb(191,184,179)" fill-opacity="0.502"/>
<polygon points="4497.47,3931.31 4203.31,4225.47 3886.53,3908.69 4180.69,3614.53" fill="rgb(207,166,151)" fill-opacity="0.502"/>
<circle cx="4992.00" cy="4416.00" r="192.00" fill="rgb(181,150,138)" fill-opacity="0.502"/>
<circle cx="3008.00" cy="3488.00" r="464.00" fill="rgb(147,95,71)" fill-opacity="0.502"/>
<g transform="translate(3680.00 2848.00) rotate(260) scale(144.00 352.00)"><ellipse cx="0" cy="0" rx="1" ry="1" fill="rgb(21,0,0)" fill-opacity="0.502"/></g>
<g transform="translate(4848.00 1600.00) rotate(217) scale(256.00 176.00)"><ellipse cx="0" cy="0" rx="1" ry="1" fill="rgb(0,0,0)" fill-opacity="0.502"/></g>
<g transform="translate(3152.00 480.00) rotate(1) scale(496.00 496.00)"><ellipse cx="0" cy="0" rx="1" ry="1" fill="rgb(194,138,101)" fill-opacity="0.502"/></g>
<g transform="translate(2160.00 80.00) rotate(150) scale(1216.00 352.00)"><ellipse cx="0" cy="0" rx="1" ry="1" fill="rgb(124,54,24)" fill-opacity="0.502"/></g>
<circle cx="1424.00" cy="2624.00" r="336.00" fill="rgb(154,83,51)" fill-opacity="0.502"/>
<circle cx="6240.00" cy="3376.00" r="608.00" fill="rgb(42,39,33)" fill-opacity="0.502"/>
<g transform="translate(5344.00 3312.00) rotate(218) scale(448.00 192.00)"><ellipse cx="0" cy="0" rx="1" ry="1" fill="rgb(160,140,133)" fill-opacity="0.502"/></g>
<circle cx="7712.00" cy="1296.00" r="640.00" fill="rgb(0,0,0)" fill-opacity="0.502"/>
<g transform="translate(2192.00 4160.00) rotate(1) scale(208.00 784.00)"><ellipse cx="0" cy="0" rx="1" ry="1" fill="rgb(17,0,0)" fill-opacity="0.502"/></g>
<circle cx="6304.00" cy="992.00" r="400.00" fill="rgb(201,154,123)" fill-opacity="0.502"/>
<polygon points="6112.00,4016.00 6576.00,4016.00 6576.00,4592.00 6112.00,4592.00" fill="rgb(0,0,0)" fill-opacity="0.502"/>
<polygon points="4371.14,596.49 5155.53,371.57 5212.86,571.51 4428.47,796.43" fill="rgb(0,0,0)" fill-opacity="0.502"/>
<polygon points="4447.38,2481.86 4433.15,2210.23 4816.62,2190.14 4830.85,2461.77" fill="rgb(233,162,134)" fill-opacity="0.502"/>
<g transform="translate(5216.00 2208.00) rotate(142) scale(368.00 256.00)"><ellipse cx="0" cy="0" rx="1" ry="1" fill="rgb(33,21,15)" fill-opacity="0.502"/></g>
<circle cx="6544.00" cy="256.00" r="544.00" fill="rgb(217,163,129)" fill-opacity="0.502"/>
<g transform="translate(4160.00 752.00) rotate(348) scale(768.00 96.00)"><ellipse cx="0" cy="0" rx="1" ry="1" fill="rgb(35,3,0)" fill-opacity="0.502"/></g>
<circle cx="1584.00" cy="4144.00" r="400.00" fill="rgb(134,66,40)" fill-opacity="0.502"/>
<g transform="translate(3104.00 4064.00) rotate(283) scale(224.00 688.00)"><ellipse cx="0" cy="0" rx="1" ry="1" fill="rgb(61,25,13)" fill-opacity="0.502"/></g>
<circle cx="2096.00" cy="1168.00" r="448.00" fill="rgb(175,113,82)" fill-opacity="0.502"/>
<polygon points="7096.00,2632.00 7096.00,3640.00 6648.00,3640.00 6648.00,2632.00" fill="rgb(121,94,75)" fill-opacity="0.502"/>
<circle cx="2576.00" cy="1888.00" r="512.00" fill="rgb(171,117,89)" fill-opacity="0.502"/>
<g transform="translate(4656.00 3552.00) rotate(92) scale(160.00 96.00)"><ellipse cx="0" cy="0" rx="1" ry="1" fill="rgb(200,170,158)" fill-opacity="0.502"/></g>
<g transform="translate(4272.00 2352.00) rotate(272) scale(192.00 352.00)"><ellipse cx="0" cy="0" rx="1" ry="1" fill="rgb(187,41,0)" fill-opacity="0.502"/></g>
<polygon points="4458.33,4636.76 4396.21,4404.94 4581.67,4355.24 4643.79,4587.06" fill="rgb(198,149,138)" fill-opacity="0.502"/>
<circle cx="5328.00" cy="3456.00" r="240.00" fill="rgb(185,155,142)" fill-opacity="0.502"/>
<circle cx="7664.00" cy="2240.00" r="592.00" fill="rgb(0,0,0)" fill-opacity="0.502"/>
<g transform="translate(5536.00 2784.00) rotate(230) scale(272.00 768.00)"><ellipse cx="0" cy="0" rx="1" ry="1" fill="rgb(71,60,53)" fill-opacity="0.502"/></g>
<g transform="translate(5984.00 3376.00) rotate(312) scale(192.00 256.00)"><ellipse cx="0" cy="0" rx="1" ry="1" fill="rgb(109,100,94)" fill-opacity="0.502"/></g>
<circle cx="5248.00" cy="176.00" r="176.00" fill="rgb(219,165,127)" fill-opacity="0.502"/>
<polygon points="5212.43,90.40 5286.59,318.66 4723.57,501.60 4649.41,273.34" fill="rgb(226,175,137)" fill-opacity="0.502"/>
<circle cx="3408.00" cy="1808.00" r="368.00" fill="rgb(0,0,0)" fill-opacity="0.502"/>
<g transform="translate(7616.00 384.00) rotate(316) scale(592.00 448.00)"><ellipse cx="0" cy="0" rx="1" ry="1" fill="rgb(0,0,0)" fill-opacity="0.502"/></g>
<circle cx="3456.00" cy="3088.00" r="224.00" fill="rgb(23,6,0)" fill-opacity="0.502"/>
<polygon points="4149.24,633.01 4153.71,696.85 3722.76,726.99 3718.29,663.15" fill="rgb(3,0,0)" fill-opacity="0.502"/>
<circle cx="6720.00" cy="976.00" r="368.00" fill="rgb(213,161,129)" fill-opacity="0.502"/>
<polygon points="4789.03,1741.82 3980.09,2420.60 3722.97,2114.18 4531.91,1435.40" fill="rgb(127,34,3)" fill-opacity="0.502"/>
<circle cx="1584.00" cy="1888.00" r="512.00" fill="rgb(143,84,59)" fill-opacity="0.502"/>
<polygon points="5392.00,2752.00 5392.00,2400.00 5648.00,2400.00 5648.00,2752.00" fill="rgb(124,112,101)" fill-opacity="0.502"/>
<circle cx="3920.00" cy="3312.00" r="208.00" fill="rgb(186,142,126)" fill-opacity="0.502"/>
<g transform="translate(3184.00 2560.00) rotate(248) scale(80.00 416.00)"><ellipse cx="0" cy="0" rx="1" ry="1" fill="rgb(0,0,0)" fill-opacity="0.502"/></g>
<polygon points="5880.73,3893.48 5693.65,3936.67 5607.27,3562.52 5794.35,3519.33" fill="rgb(23,3,0)" fill-opacity="0.502"/>
<g transform="translate(6848.00 1792.00) rotate(92) scale(816.00 240.00)"><ellipse cx="0" cy="0" rx="1" ry="1" fill="rgb(159,113,84)" fill-opacity="0.502"/></g>
<g transform="translate(7360.00 4080.00) rotate(0) scale(272.00 4592.00)"><ellipse cx="0" cy="0" rx="1" ry="1" fill="rgb(0,0,0)" fill-opacity="0.502"/></g>
<polygon points="5061.57,2202.81 4742.34,2180.49 4762.43,1893.19 5081.66,1915.51" fill="rgb(207,222,229)" fill-opacity="0.502"/>
<g transform="translate(5856.00 1920.00) rotate(108) scale(288.00 544.00)"><ellipse cx="0" cy="0" rx="1" ry="1" fill="rgb(5,1,0)" fill-opacity="0.502"/></g>
<circle cx="4624.00" cy="4144.00" r="192.00" fill="rgb(8,0,0)" fill-opacity="0.502"/>
<g transform="translate(6752.00 2208.00) rotate(71) scale(544.00 304.00)"><ellipse cx="0" cy="0" rx="1" ry="1" fill="rgb(119,80,57)" fill-opacity="0.502"/></g>
<g transform="translate(4448.00 2960.00) rotate(108) scale(368.00 368.00)"><ellipse cx="0" cy="0" rx="1" ry="1" fill="rgb(91,67,53)" fill-opacity="0.502"/></g>
<polygon points="3234.25,1546.17 3586.04,1558.46 3549.75,2597.83 3197.96,2585.54" fill="rgb(0,0,0)" fill-opacity="0.502"/>
<g transform="translate(2752.00 3952.00) rotate(69) scale(304.00 80.00)"><ellipse cx="0" cy="0" rx="1" ry="1" fill="rgb(151,92,73)" fill-opacity="0.502"/></g>
<g transform="translate(1472.00 1072.00) rotate(302) scale(560.00 288.00)"><ellipse cx="0" cy="0" rx="1" ry="1" fill="rgb(133,77,51)" fill-opacity="0.502"/></g>
<g transform="translate(2912.00 4592.00) rotate(22) scale(272.00 336.00)"><ellipse cx="0" cy="0" rx="1" ry="1" fill="rgb(119,0,0)" fill-opacity="0.502"/></g>
<g transform="translate(5456.00 3088.00) rotate(356) scale(144.00 96.00)"><ellipse cx="0" cy="0" rx="1" ry="1" fill="rgb(4,0,0)" fill-opacity="0.502"/></g>
<polygon points="3731.49,2557.32 3556.66,2348.95 3740.51,2194.68 3915.34,2403.05" fill="rgb(232,220,207)" fill-opacity="0.502"/>
<g transform="translate(5808.00 2992.00) rotate(11) scale(576.00 192.00)"><ellipse cx="0" cy="0" rx="1" ry="1" fill="rgb(36,24,18)" fill-opacity="0.502"/></g>
<polygon points="6204.91,1376.35 6087.98,1324.29 6179.09,1119.65 6296.02,1171.71" fill="rgb(59,35,30)" fill-opacity="0.502"/>
<polygon points="4256.52,1162.32 3778.34,1204.16 3743.48,805.68 4221.66,763.84" fill="rgb(218,92,50)" fill-opacity="0.502"/>
<polygon points="6590.21,4420.76 6705.30,4309.62 6849.79,4459.24 6734.70,4570.38" fill="rgb(124,138,169)" fill-opacity="0.502"/>
<g transform="translate(7968.00 480.00) rotate(100) scale(1040.00 880.00)"><ellipse cx="0" cy="0" rx="1" ry="1" fill="rgb(0,0,0)" fill-opacity="0.502"/></g>
<circle cx="4896.00" cy="2448.00" r="160.00" fill="rgb(124,113,107)" fill-opacity="0.502"/>
<circle cx="5568.00" cy="4224.00" r="208.00" fill="rgb(186,157,145)" fill-opacity="0.502"/>
<polygon points="6309.70,3794.00 6102.84,3529.22 6506.30,3214.00 6713.16,3478.78" fill="rgb(14,6,0)" fill-opacity="0.502"/>
<polygon points="1104.00,3408.00 1392.00,3408.00 1392.00,4416.00 1104.00,4416.00" fill="rgb(103,51,31)" fill-opacity="0.502"/>
<circle cx="1408.00" cy="3008.00" r="320.00" fill="rgb(128,71,46)" fill-opacity="0.502"/>
<circle cx="3776.00" cy="3760.00" r="176.00" fill="rgb(18,1,0)" fill-opacity="0.502"/>
<g transform="translate(6112.00 2800.00) rotate(67) scale(272.00 64.00)"><ellipse cx="0" cy="0" rx="1" ry="1" fill="rgb(0,0,0)" fill-opacity="0.502"/></g>
<g transform="translate(3584.00 416.00) rotate(303) scale(512.00 224.00)"><ellipse cx="0" cy="0" rx="1" ry="1" fill="rgb(198,140,106)" fill-opacity="0.502"/></g>
<circle cx="496.00" cy="112.00" r="608.00" fill="rgb(0,0,0)" fill-opacity="0.502"/>
<circle cx="5120.00" cy="2208.00" r="208.00" fill="rgb(39,22,14)" fill-opacity="0.502"/>
<polygon points="5070.77,1153.11 5228.04,1042.98 5393.23,1278.89 5235.96,1389.02" fill="rgb(0,0,0)" fill-opacity="0.502"/>
<polygon points="4955.57,2038.99 4738.38,2430.82 4612.43,2361.01 4829.62,1969.18" fill="rgb(243,255,255)" fill-opacity="0.502"/>
<g transform="translate(6080.00 2368.00) rotate(137) scale(320.00 96.00)"><ellipse cx="0" cy="0" rx="1" ry="1" fill="rgb(107,74,53)" fill-opacity="0.502"/></g>
<g transform="translate(7632.00 4112.00) rotate(305) scale(784.00 400.00)"><ellipse cx="0" cy="0" rx="1" ry="1" fill="rgb(0,0,0)" fill-opacity="0.502"/></g>
<polygon points="5956.30,1429.36 6248.52,1345.57 6411.70,1914.64 6119.48,1998.43" fill="rgb(101,71,53)" fill-opacity="0.502"/>
<g transform="translate(6000.00 768.00) rotate(27) scale(272.00 208.00)"><ellipse cx="0" cy="0" rx="1" ry="1" fill="rgb(179,130,102)" fill-opacity="0.502"/></g>
<circle cx="4272.00" cy="3472.00" r="224.00" fill="rgb(35,20,15)" fill-opacity="0.502"/>
<polygon points="5074.57,3403.08 4837.21,3498.98 4621.43,2964.92 4858.79,2869.02" fill="rgb(33,18,11)" fill-opacity="0.502"/>
<g transform="translate(4976.00 1056.00) rotate(280) scale(240.00 96.00)"><ellipse cx="0" cy="0" rx="1" ry="1" fill="rgb(220,165,130)" fill-opacity="0.502"/></g>
<polygon points="4272.00,2832.00 4592.00,2832.00 4592.00,3072.00 4272.00,3072.00" fill="rgb(188,149,134)" fill-opacity="0.502"/>
<polygon points="6053.29,834.81 5980.11,490.50 6042.71,477.19 6115.89,821.50" fill="rgb(0,0,0)" fill-opacity="0.502"/>
<polygon points="4246.20,4522.38 3981.09,4634.91 3849.80,4325.62 4114.91,4213.09" fill="rgb(3,0,0)" fill-opacity="0.502"/>
<g transform="translate(656.00 2912.00) rotate(8) scale(384.00 1728.00)"><ellipse cx="0" cy="0" rx="1" ry="1" fill="rgb(0,0,0)" fill-opacity="0.502"/></g>
<polygon points="3483.12,1028.72 3825.99,822.70 3924.88,987.28 3582.01,1193.30" fill="rgb(153,105,87)" fill-opacity="0.502"/>
<g transform="translate(2368.00 3872.00) rotate(248) scale(544.00 320.00)"><ellipse cx="0" cy="0" rx="1" ry="1" fill="rgb(32,8,0)" fill-opacity="0.502"/></g>
<g transform="translate(6672.00 3792.00) rotate(0) scale(448.00 160.00)"><ellipse cx="0" cy="0" rx="1" ry="1" fill="rgb(91,76,67)" fill-opacity="0.502"/></g>
<g transform="translate(4224.00 1616.00) rotate(209) scale(512.00 208.00)"><ellipse cx="0" cy="0" rx="1" ry="1" fill="rgb(203,81,45)" fill-opacity="0.502"/></g>
<circle cx="3888.00" cy="2560.00" r="144.00" fill="rgb(255,255,255)" fill-opacity="0.502"/>
<g transform="translate(4464.00 2432.00) rotate(306) scale(224.00 144.00)"><ellipse cx="0" cy="0" rx="1" ry="1" fill="rgb(180,72,36)" fill-opacity="0.502"/></g>
<g transform="translate(4384.00 2080.00) rotate(177) scale(320.00 160.00)"><ellipse cx="0" cy="0" rx="1" ry="1" fill="rgb(36,11,0)" fill-opacity="0.502"/></g>
<circle cx="3424.00" cy="4112.00" r="160.00" fill="rgb(9,0,0)" fill-opacity="0.502"/>
<circle cx="3248.00" cy="1120.00" r="160.00" fill="rgb(27,7,0)" fill-opacity="0.502"/>
<polygon points="2991.57,2000.43 3202.65,2301.88 2560.43,2751.57 2349.35,2450.12" fill="rgb(164,109,81)" fill-opacity="0.502"/>
<polygon points="4131.46,4342.08 4124.76,4150.20 4476.54,4137.92 4483.24,4329.80" fill="rgb(122,86,73)" fill-opacity="0.502"/>
<polygon points="7022.80,4406.66 6799.35,4391.04 6865.20,3449.34 7088.65,3464.96" fill="rgb(118,98,88)" fill-opacity="0.502"/>
<polygon points="5942.22,357.83 6003.97,573.15 5065.78,842.17 5004.03,626.85" fill="rgb(153,102,78)" fill-opacity="0.502"/>
<circle cx="432.00" cy="4304.00" r="688.00" fill="rgb(0,0,0)" fill-opacity="0.502"/>
<circle cx="4032.00" cy="3568.00" r="176.00" fill="rgb(136,89,76)" fill-opacity="0.502"/>
<circle cx="6016.00" cy="4432.00" r="256.00" fill="rgb(35,30,31)" fill-opacity="0.502"/>
<polygon points="2781.27,877.03 2385.14,1316.98 1778.73,770.97 2174.86,331.02" fill="rgb(167,111,80)" fill-opacity="0.502"/>
<circle cx="4384.00" cy="1024.00" r="96.00" fill="rgb(79,30,13)" fill-opacity="0.502"/>
<circle cx="2688.00" cy="2848.00" r="208.00" fill="rgb(185,124,91)" fill-opacity="0.502"/>
<circle cx="1904.00" cy="2512.00" r="240.00" fill="rgb(61,24,11)" fill-opacity="0.502"/>
<g transform="translate(2944.00 3664.00) rotate(109) scale(272.00 96.00)"><ellipse cx="0" cy="0" rx="1" ry="1" fill="rgb(11,1,0)" fill-opacity="0.502"/></g>
<g transform="translate(3408.00 2272.00) rotate(146) scale(208.00 208.00)"><ellipse cx="0" cy="0" rx="1" ry="1" fill="rgb(7,1,0)" fill-opacity="0.502"/></g>
<g transform="translate(368.00 1696.00) rotate(358) scale(720.00 4592.00)"><ellipse cx="0" cy="0" rx="1" ry="1" fill="rgb(0,0,0)" fill-opacity="0.502"/></g>
<circle cx="2432.00" cy="4592.00" r="208.00" fill="rgb(90,29,10)" fill-opacity="0.502"/>
<polygon points="6713.13,4638.29 6965.84,4249.14 7126.87,4353.71 6874.16,4742.86" fill="rgb(33,23,24)" fill-opacity="0.502"/>
<g transform="translate(5184.00 4416.00) rotate(179) scale(112.00 272.00)"><ellipse cx="0" cy="0" rx="1" ry="1" fill="rgb(98,80,68)" fill-opacity="0.502"/></g>
<circle cx="7792.00" cy="2784.00" r="720.00" fill="rgb(0,0,0)" fill-opacity="0.502"/>
<polygon points="3208.29,4249.65 3263.71,4281.65 3191.71,4406.35 3136.29,4374.35" fill="rgb(201,126,112)" fill-opacity="0.502"/>
<circle cx="5744.00" cy="1024.00" r="96.00" fill="rgb(0,0,0)" fill-opacity="0.502"/>
<circle cx="1840.00" cy="3408.00" r="160.00" fill="rgb(47,27,16)" fill-opacity="0.502"/>
<polygon points="4271.15,826.77 4374.25,783.00 4736.85,1637.23 4633.75,1681.00" fill="rgb(101,42,26)" fill-opacity="0.502"/>
<circle cx="5728.00" cy="1632.00" r="320.00" fill="rgb(9,4,0)" fill-opacity="0.502"/>
<circle cx="4944.00" cy="1648.00" r="256.00" fill="rgb(31,6,0)" fill-opacity="0.502"/>
<g transform="translate(3328.00 2736.00) rotate(337) scale(304.00 64.00)"><ellipse cx="0" cy="0" rx="1" ry="1" fill="rgb(204,148,118)" fill-opacity="0.502"/></g>
<polygon points="4128.00,3136.00 4400.00,3136.00 4400.00,3536.00 4128.00,3536.00" fill="rgb(40,24,16)" fill-opacity="0.502"/>
<g transform="translate(2784.00 3280.00) rotate(110) scale(224.00 208.00)"><ellipse cx="0" cy="0" rx="1" ry="1" fill="rgb(191,128,94)" fill-opacity="0.502"/></g>
<circle cx="3136.00" cy="1344.00" r="192.00" fill="rgb(152,100,78)" fill-opacity="0.502"/>
<polygon points="4304.00,3552.00 4608.00,3552.00 4608.00,3936.00 4304.00,3936.00" fill="rgb(93,69,56)" fill-opacity="0.502"/>
<polygon points="1808.00,2256.00 2336.00,2256.00 2336.00,3376.00 1808.00,3376.00" fill="rgb(87,45,28)" fill-opacity="0.502"/>
<circle cx="6624.00" cy="1088.00" r="464.00" fill="rgb(200,154,122)" fill-opacity="0.502"/>
<g transform="translate(3392.00 3392.00) rotate(240) scale(384.00 48.00)"><ellipse cx="0" cy="0" rx="1" ry="1" fill="rgb(154,109,95)" fill-opacity="0.502"/></g>
<polygon points="1316.01,2180.88 1076.39,1484.98 1499.99,1339.12 1739.61,2035.02" fill="rgb(128,77,54)" fill-opacity="0.502"/>
<g transform="translate(7792.00 1664.00) rotate(327) scale(368.00 1168.00)"><ellipse cx="0" cy="0" rx="1" ry="1" fill="rgb(0,0,0)" fill-opacity="0.502"/></g>
<polygon points="3518.48,4604.81 3491.19,4382.48 3713.52,4355.19 3740.81,4577.52" fill="rgb(200,140,118)" fill-opacity="0.502"/>
<circle cx="2080.00" cy="160.00" r="336.00" fill="rgb(125,66,38)" fill-opacity="0.502"/>
<circle cx="6256.00" cy="0.00" r="416.00" fill="rgb(215,163,129)" fill-opacity="0.502"/>
<circle cx="2976.00" cy="0.00" r="240.00" fill="rgb(141,83,54)" fill-opacity="0.502"/>
<polygon points="4581.99,3554.87 4758.73,3479.84 4890.01,3789.13 4713.27,3864.16" fill="rgb(186,154,137)" fill-opacity="0.502"/>
<polygon points="4919.43,2885.47 5076.00,3146.05 5048.57,3162.53 4892.00,2901.95" fill="rgb(255,255,255)" fill-opacity="0.502"/>
<circle cx="5792.00" cy="16.00" r="272.00" fill="rgb(232,175,135)" fill-opacity="0.502"/>
<polygon points="5578.84,2284.93 4994.12,2192.32 5029.16,1971.07 5613.88,2063.68" fill="rgb(76,54,43)" fill-opacity="0.502"/>
<g transform="translate(3904.00 1920.00) rotate(70) scale(320.00 112.00)"><ellipse cx="0" cy="0" rx="1" ry="1" fill="rgb(110,20,0)" fill-opacity="0.502"/></g>
<polygon points="5115.12,3561.36 5235.51,3892.14 4964.88,3990.64 4844.49,3659.86" fill="rgb(55,32,20)" fill-opacity="0.502"/>
<circle cx="3200.00" cy="496.00" r="448.00" fill="rgb(186,129,96)" fill-opacity="0.502"/>
<circle cx="4544.00" cy="0.00" r="528.00" fill="rgb(206,151,115)" fill-opacity="0.502"/>
<polygon points="5816.82,912.67 5982.39,1167.62 5687.18,1359.33 5521.61,1104.38" fill="rgb(23,16,9)" fill-opacity="0.502"/>
<g transform="translate(4736.00 1408.00) rotate(2) scale(400.00 16.00)"><ellipse cx="0" cy="0" rx="1" ry="1" fill="rgb(179,107,75)" fill-opacity="0.502"/></g>
<g transform="translate(1632.00 2048.00) rotate(49) scale(224.00 624.00)"><ellipse cx="0" cy="0" rx="1" ry="1" fill="rgb(143,88,63)" fill-opacity="0.502"/></g>
<polygon points="2029.89,4177.87 2731.21,4239.23 2706.11,4526.13 2004.79,4464.77" fill="rgb(27,4,0)" fill-opacity="0.502"/>
<polygon points="4104.64,4165.35 3802.65,4312.64 3655.36,4010.65 3957.35,3863.36" fill="rgb(93,63,53)" fill-opacity="0.502"/>
<g transform="translate(2784.00 2160.00) rotate(347) scale(32.00 1280.00)"><ellipse cx="0" cy="0" rx="1" ry="1" fill="rgb(7,0,0)" fill-opacity="0.502"/></g>
<circle cx="3664.00" cy="2608.00" r="96.00" fill="rgb(255,255,248)" fill-opacity="0.502"/>
<circle cx="6560.00" cy="1776.00" r="224.00" fill="rgb(156,103,78)" fill-opacity="0.502"/>
<polygon points="5455.75,3644.57 5390.67,4055.45 5264.25,4035.43 5329.33,3624.55" fill="rgb(107,71,58)" fill-opacity="0.502"/>
<polygon points="5772.99,2821.26 5809.78,3171.33 5587.01,3194.74 5550.22,2844.67" fill="rgb(79,62,55)" fill-opacity="0.502"/>
<polygon points="3167.84,3783.04 3201.25,3545.37 3312.16,3560.96 3278.75,3798.63" fill="rgb(197,157,133)" fill-opacity="0.502"/>
<circle cx="3712.00" cy="3632.00" r="144.00" fill="rgb(32,12,7)" fill-opacity="0.502"/>
<polygon points="5877.29,3458.81 5804.11,3114.50 5866.71,3101.19 5939.89,3445.50" fill="rgb(162,154,143)" fill-opacity="0.502"/>
<circle cx="7888.00" cy="704.00" r="800.00" fill="rgb(0,0,0)" fill-opacity="0.502"/>
<polygon points="6000.61,1042.17 5778.27,834.84 5887.39,717.83 6109.73,925.16" fill="rgb(217,169,134)" fill-opacity="0.502"/>
<polygon points="6061.31,925.74 6139.56,909.10 6242.69,1394.26 6164.44,1410.90" fill="rgb(18,0,0)" fill-opacity="0.502"/>
<circle cx="7488.00" cy="3904.00" r="416.00" fill="rgb(0,0,0)" fill-opacity="0.502"/>
<g transform="translate(2896.00 1744.00) rotate(250) scale(512.00 160.00)"><ellipse cx="0" cy="0" rx="1" ry="1" fill="rgb(184,127,97)" fill-opacity="0.502"/></g>
<polygon points="2096.00,2256.00 2352.00,2256.00 2352.00,2592.00 2096.00,2592.00" fill="rgb(57,19,6)" fill-opacity="0.502"/>
<polygon points="3684.05,1305.44 3774.56,1395.95 3355.95,1814.56 3265.44,1724.05" fill="rgb(14,0,0)" fill-opacity="0.502"/>
<polygon points="4877.33,2733.70 4862.20,2738.91 4674.67,2194.30 4689.80,2189.09" fill="rgb(255,255,255)" fill-opacity="0.502"/>
<g transform="translate(1344.00 1040.00) rotate(288) scale(368.00 224.00)"><ellipse cx="0" cy="0" rx="1" ry="1" fill="rgb(131,76,51)" fill-opacity="0.502"/></g>
<polygon points="5816.00,2680.00 5816.00,2472.00 5880.00,2472.00 5880.00,2680.00" fill="rgb(117,117,105)" fill-opacity="0.502"/>
<polygon points="4911.71,1062.53 5003.99,1036.07 5136.29,1497.47 5044.01,1523.93" fill="rgb(198,143,113)" fill-opacity="0.502"/>
<g transform="translate(1664.00 3984.00) rotate(327) scale(304.00 256.00)"><ellipse cx="0" cy="0" rx="1" ry="1" fill="rgb(121,71,49)" fill-opacity="0.502"/></g>
<polygon points="6112.63,1493.09 5993.72,1386.03 6079.37,1290.91 6198.28,1397.97" fill="rgb(204,155,136)" fill-opacity="0.502"/>
<polygon points="3011.69,1035.02 2460.85,1203.42 2236.31,468.98 2787.15,300.58" fill="rgb(172,119,86)" fill-opacity="0.502"/>
<polygon points="4681.30,3441.42 4523.27,3466.45 4470.70,3134.58 4628.73,3109.55" fill="rgb(129,98,83)" fill-opacity="0.502"/>
<g transform="translate(2096.00 1968.00) rotate(126) scale(304.00 304.00)"><ellipse cx="0" cy="0" rx="1" ry="1" fill="rgb(163,103,75)" fill-opacity="0.502"/></g>
<polygon points="5448.91,1001.59 5267.37,939.08 5335.09,742.41 5516.63,804.92" fill="rgb(238,181,147)" fill-opacity="0.502"/>
<circle cx="5056.00" cy="2800.00" r="128.00" fill="rgb(176,150,136)" fill-opacity="0.502"/>
<polygon points="6803.49,3968.88 6779.78,4239.85 6588.51,4223.12 6612.22,3952.15" fill="rgb(6,10,11)" fill-opacity="0.502"/>
<polygon points="3816.32,1980.14 4023.18,1958.40 4071.68,2419.86 3864.82,2441.60" fill="rgb(127,47,17)" fill-opacity="0.502"/>
<circle cx="4128.00" cy="2816.00" r="80.00" fill="rgb(7,0,0)" fill-opacity="0.502"/>
<polygon points="6762.48,3011.75 6789.28,3523.04 6613.52,3532.25 6586.72,3020.96" fill="rgb(95,70,53)" fill-opacity="0.502"/>
<polygon points="6828.90,3446.08 6986.35,3264.95 7107.10,3369.92 6949.65,3551.05" fill="rgb(113,95,79)" fill-opacity="0.502"/>
<polygon points="3988.28,2391.09 3788.34,2333.76 3867.72,2056.91 4067.66,2114.24" fill="rgb(132,48,17)" fill-opacity="0.502"/>
<polygon points="4883.37,4388.92 5064.91,4326.41 5132.63,4523.08 4951.09,4585.59" fill="rgb(186,156,146)" fill-opacity="0.502"/>
<polygon points="3457.82,2142.49 3487.93,1856.06 3806.18,1889.51 3776.07,2175.94" fill="rgb(4,1,0)" fill-opacity="0.502"/>
<polygon points="3999.39,2861.10 4035.85,2967.00 3536.61,3138.90 3500.15,3033.00" fill="rgb(54,30,22)" fill-opacity="0.502"/>
<circle cx="4432.00" cy="2640.00" r="64.00" fill="rgb(34,0,0)" fill-opacity="0.502"/>
<circle cx="1248.00" cy="4544.00" r="160.00" fill="rgb(82,29,11)" fill-opacity="0.502"/>
<circle cx="4432.00" cy="4592.00" r="160.00" fill="rgb(167,125,110)" fill-opacity="0.502"/>
<polygon points="5585.05,2834.56 5379.36,2589.43 5550.95,2445.44 5756.64,2690.57" fill="rgb(108,96,86)" fill-opacity="0.502"/>
<polygon points="3119.89,761.10 3083.77,556.26 3840.11,422.90 3876.23,627.74" fill="rgb(196,139,104)" fill-opacity="0.502"/>
<g transform="translate(5104.00 976.00) rotate(172) scale(496.00 96.00)"><ellipse cx="0" cy="0" rx="1" ry="1" fill="rgb(214,161,130)" fill-opacity="0.502"/></g>
<polygon points="4354.98,2042.59 3951.34,2143.23 3901.02,1941.41 4304.66,1840.77" fill="rgb(70,17,0)" fill-opacity="0.502"/>
<circle cx="6256.00" cy="3216.00" r="112.00" fill="rgb(24,17,7)" fill-opacity="0.502"/>
<polygon points="3037.06,2546.63 3059.37,2291.61 3170.94,2301.37 3148.63,2556.39" fill="rgb(194,133,109)" fill-opacity="0.502"/>
<polygon points="6368.89,4108.51 6382.29,4300.05 6047.11,4323.49 6033.71,4131.95" fill="rgb(14,3,0)" fill-opacity="0.502"/>
<g transform="translate(4640.00 4048.00) rotate(126) scale(176.00 144.00)"><ellipse cx="0" cy="0" rx="1" ry="1" fill="rgb(39,17,5)" fill-opacity="0.502"/></g>
<g transform="translate(4848.00 3008.00) rotate(300) scale(32.00 416.00)"><ellipse cx="0" cy="0" rx="1" ry="1" fill="rgb(87,60,46)" fill-opacity="0.502"/></g>
<g transform="translate(6176.00 3824.00) rotate(154) scale(128.00 224.00)"><ellipse cx="0" cy="0" rx="1" ry="1" fill="rgb(40,24,15)" fill-opacity="0.502"/></g>
<circle cx="5136.00" cy="2656.00" r="80.00" fill="rgb(86,71,60)" fill-opacity="0.502"/>
<g transform="translate(7328.00 16.00) rotate(320) scale(240.00 240.00)"><ellipse cx="0" cy="0" rx="1" ry="1" fill="rgb(0,0,0)" fill-opacity="0.502"/></g>
<circle cx="7824.00" cy="4128.00" r="736.00" fill="rgb(0,0,0)" fill-opacity="0.502"/>
<circle cx="6416.00" cy="2688.00" r="112.00" fill="rgb(33,21,11)" fill-opacity="0.502"/>
<circle cx="7696.00" cy="1664.00" r="624.00" fill="rgb(0,0,0)" fill-opacity="0.502"/>
<polygon points="4034.31,1104.26 4165.97,1285.48 3997.69,1407.74 3866.03,1226.52" fill="rgb(128,37,16)" fill-opacity="0.502"/>
<g transform="translate(5568.00 624.00) rotate(169) scale(48.00 384.00)"><ellipse cx="0" cy="0" rx="1" ry="1" fill="rgb(17,13,16)" fill-opacity="0.502"/></g>
<polygon points="3295.30,4361.69 3077.46,4771.38 2992.70,4726.31 3210.54,4316.62" fill="rgb(148,68,53)" fill-opacity="0.502"/>
<circle cx="5376.00" cy="1824.00" r="208.00" fill="rgb(0,0,0)" fill-opacity="0.502"/>
<polygon points="3365.68,3555.49 3297.30,3851.70 2954.32,3772.51 3022.70,3476.30" fill="rgb(132,94,79)" fill-opacity="0.502"/>
<g transform="translate(2928.00 1152.00) rotate(347) scale(352.00 80.00)"><ellipse cx="0" cy="0" rx="1" ry="1" fill="rgb(32,5,0)" fill-opacity="0.502"/></g>
<circle cx="6160.00" cy="1872.00" r="80.00" fill="rgb(175,123,93)" fill-opacity="0.502"/>
<circle cx="5488.00" cy="3328.00" r="144.00" fill="rgb(158,143,140)" fill-opacity="0.502"/>
<circle cx="4224.00" cy="4016.00" r="160.00" fill="rgb(186,151,132)" fill-opacity="0.502"/>
<polygon points="3287.68,2702.44 3128.35,2568.74 3416.32,2225.56 3575.65,2359.26" fill="rgb(31,14,0)" fill-opacity="0.502"/>
<circle cx="3424.00" cy="1952.00" r="320.00" fill="rgb(14,8,0)" fill-opacity="0.502"/>
<circle cx="1344.00" cy="128.00" r="240.00" fill="rgb(112,49,25)" fill-opacity="0.502"/>
<polygon points="4030.68,1329.72 4296.81,1709.80 4113.32,1838.28 3847.19,1458.20" fill="rgb(230,102,60)" fill-opacity="0.502"/>
<polygon points="4933.02,1778.79 4848.23,1914.48 4698.98,1821.21 4783.77,1685.52" fill="rgb(0,0,0)" fill-opacity="0.502"/>
<polygon points="3174.32,3881.80 3078.84,3891.83 3033.68,3462.20 3129.16,3452.17" fill="rgb(60,23,7)" fill-opacity="0.502"/>
<g transform="translate(6752.00 4352.00) rotate(165) scale(256.00 80.00)"><ellipse cx="0" cy="0" rx="1" ry="1" fill="rgb(96,90,97)" fill-opacity="0.502"/></g>
<circle cx="2464.00" cy="992.00" r="192.00" fill="rgb(173,115,83)" fill-opacity="0.502"/>
<polygon points="5024.00,3408.00 5024.00,3584.00 4784.00,3584.00 4784.00,3408.00" fill="rgb(104,80,69)" fill-opacity="0.502"/>
<polygon points="4932.97,1308.95 4480.90,1068.58 4571.03,899.05 5023.10,1139.42" fill="rgb(201,143,108)" fill-opacity="0.502"/>
<circle cx="5088.00" cy="1648.00" r="80.00" fill="rgb(113,64,41)" fill-opacity="0.502"/>
<polygon points="4613.39,887.51 4591.12,729.07 5050.61,664.49 5072.88,822.93" fill="rgb(139,86,65)" fill-opacity="0.502"/>
<circle cx="6864.00" cy="112.00" r="224.00" fill="rgb(203,156,122)" fill-opacity="0.502"/>
<circle cx="4880.00" cy="4064.00" r="128.00" fill="rgb(105,74,55)" fill-opacity="0.502"/>
<circle cx="6768.00" cy="496.00" r="320.00" fill="rgb(204,160,129)" fill-opacity="0.502"/>
<circle cx="1680.00" cy="4576.00" r="272.00" fill="rgb(119,58,31)" fill-opacity="0.502"/>
<circle cx="3664.00" cy="4592.00" r="128.00" fill="rgb(160,108,87)" fill-opacity="0.502"/>
<g transform="translate(2784.00 3888.00) rotate(263) scale(384.00 48.00)"><ellipse cx="0" cy="0" rx="1" ry="1" fill="rgb(158,102,82)" fill-opacity="0.502"/></g>
<polygon points="6608.08,4444.04 6776.35,4566.30 6719.92,4643.96 6551.65,4521.70" fill="rgb(41,28,40)" fill-opacity="0.502"/>
<g transform="translate(1808.00 944.00) rotate(128) scale(432.00 272.00)"><ellipse cx="0" cy="0" rx="1" ry="1" fill="rgb(149,93,66)" fill-opacity="0.502"/></g>
<polygon points="5246.55,2081.79 5528.26,2021.91 5601.45,2366.21 5319.74,2426.09" fill="rgb(69,46,36)" fill-opacity="0.502"/>
<circle cx="5216.00" cy="1104.00" r="64.00" fill="rgb(15,0,0)" fill-opacity="0.502"/>
<g transform="translate(4480.00 1264.00) rotate(235) scale(272.00 96.00)"><ellipse cx="0" cy="0" rx="1" ry="1" fill="rgb(143,60,33)" fill-opacity="0.502"/></g>
<circle cx="5344.00" cy="112.00" r="192.00" fill="rgb(209,156,122)" fill-opacity="0.502"/>
<circle cx="5168.00" cy="1168.00" r="112.00" fill="rgb(15,0,0)" fill-opacity="0.502"/>
<g transform="translate(5968.00 3840.00) rotate(279) scale(544.00 48.00)"><ellipse cx="0" cy="0" rx="1" ry="1" fill="rgb(122,114,116)" fill-opacity="0.502"/></g>
<polygon points="6518.99,3810.12 5992.27,3773.29 6009.01,3533.88 6535.73,3570.71" fill="rgb(48,30,18)" fill-opacity="0.502"/>
<circle cx="4192.00" cy="2608.00" r="64.00" fill="rgb(255,255,255)" fill-opacity="0.502"/>
<g transform="translate(3728.00 2288.00) rotate(56) scale(96.00 48.00)"><ellipse cx="0" cy="0" rx="1" ry="1" fill="rgb(232,204,198)" fill-opacity="0.502"/></g>
<circle cx="5552.00" cy="3504.00" r="112.00" fill="rgb(167,151,147)" fill-opacity="0.502"/>
<polygon points="3551.19,2687.52 3496.89,2589.56 3664.81,2496.48 3719.11,2594.44" fill="rgb(236,217,205)" fill-opacity="0.502"/>
<g transform="translate(5760.00 1952.00) rotate(11) scale(208.00 448.00)"><ellipse cx="0" cy="0" rx="1" ry="1" fill="rgb(12,6,1)" fill-opacity="0.502"/></g>
<polygon points="4118.80,2481.74 4201.21,2618.89 4009.20,2734.26 3926.79,2597.11" fill="rgb(243,255,255)" fill-opacity="0.502"/>
<polygon points="5672.57,1221.78 5509.41,1723.94 5159.43,1610.22 5322.59,1108.06" fill="rgb(1,0,0)" fill-opacity="0.502"/>
<circle cx="5344.00" cy="432.00" r="128.00" fill="rgb(13,1,0)" fill-opacity="0.502"/>
<polygon points="3974.21,626.02 3924.96,761.34 3849.79,733.98 3899.04,598.66" fill="rgb(41,19,12)" fill-opacity="0.502"/>
<polygon points="3828.53,3421.10 3768.59,3272.75 4139.47,3122.90 4199.41,3271.25" fill="rgb(178,152,140)" fill-opacity="0.502"/>
<g transform="translate(7360.00 3488.00) rotate(270) scale(2080.00 272.00)"><ellipse cx="0" cy="0" rx="1" ry="1" fill="rgb(0,0,0)" fill-opacity="0.502"/></g>
<polygon points="5224.32,437.13 5245.69,547.07 4711.68,650.87 4690.31,540.93" fill="rgb(0,0,0)" fill-opacity="0.502"/>
<polygon points="2385.43,2527.18 2452.11,2905.35 1774.57,3024.82 1707.89,2646.65" fill="rgb(79,40,24)" fill-opacity="0.502"/>
<circle cx="2512.00" cy="1696.00" r="176.00" fill="rgb(175,120,91)" fill-opacity="0.502"/>
<g transform="translate(6368.00 112.00) rotate(360) scale(320.00 960.00)"><ellipse cx="0" cy="0" rx="1" ry="1" fill="rgb(207,162,127)" fill-opacity="0.502"/></g>
<polygon points="4124.83,3502.45 4223.33,3628.54 3971.17,3825.55 3872.67,3699.46" fill="rgb(120,82,69)" fill-opacity="0.502"/>
<polygon points="4297.15,120.98 4453.42,574.83 4150.85,679.02 3994.58,225.17" fill="rgb(206,150,116)" fill-opacity="0.502"/>
<g transform="translate(3696.00 1696.00) rotate(84) scale(416.00 48.00)"><ellipse cx="0" cy="0" rx="1" ry="1" fill="rgb(22,0,0)" fill-opacity="0.502"/></g>
<circle cx="4464.00" cy="1680.00" r="224.00" fill="rgb(143,51,25)" fill-opacity="0.502"/>
<polygon points="5081.89,3739.74 5176.71,3754.76 5094.11,4276.26 4999.29,4261.24" fill="rgb(44,18,12)" fill-opacity="0.502"/>
<g transform="translate(4496.00 656.00) rotate(346) scale(256.00 80.00)"><ellipse cx="0" cy="0" rx="1" ry="1" fill="rgb(19,6,0)" fill-opacity="0.502"/></g>
<polygon points="1662.60,4267.98 1331.67,4545.67 1105.40,4276.02 1436.33,3998.33" fill="rgb(99,50,33)" fill-opacity="0.502"/>
<g transform="translate(3424.00 3328.00) rotate(292) scale(96.00 256.00)"><ellipse cx="0" cy="0" rx="1" ry="1" fill="rgb(97,60,43)" fill-opacity="0.502"/></g>
<circle cx="6496.00" cy="1040.00" r="336.00" fill="rgb(202,157,124)" fill-opacity="0.502"/>
<circle cx="4144.00" cy="2768.00" r="96.00" fill="rgb(43,25,14)" fill-opacity="0.502"/>
<polygon points="5637.41,1013.64 5653.11,1010.59 5738.59,1450.36 5722.89,1453.41" fill="rgb(177,164,163)" fill-opacity="0.502"/>
<g transform="translate(1504.00 3392.00) rotate(109) scale(528.00 160.00)"><ellipse cx="0" cy="0" rx="1" ry="1" fill="rgb(121,69,46)" fill-opacity="0.502"/></g>
<polygon points="4865.84,1389.09 4707.65,1466.24 4462.16,962.91 4620.35,885.76" fill="rgb(194,138,107)" fill-opacity="0.502"/>
<circle cx="2448.00" cy="2016.00" r="224.00" fill="rgb(172,115,81)" fill-opacity="0.502"/>
<polygon points="3143.36,2780.54 3238.64,2792.23 3160.64,3427.46 3065.36,3415.77" fill="rgb(193,134,103)" fill-opacity="0.502"/>
<polygon points="4616.19,3612.33 4550.36,3521.72 4679.81,3427.67 4745.64,3518.28" fill="rgb(159,130,126)" fill-opacity="0.502"/>
<circle cx="1632.00" cy="3888.00" r="304.00" fill="rgb(114,65,44)" fill-opacity="0.502"/>
<polygon points="4503.91,889.22 4490.68,843.08 4952.09,710.78 4965.32,756.92" fill="rgb(198,142,110)" fill-opacity="0.502"/>
<circle cx="7920.00" cy="2896.00" r="816.00" fill="rgb(0,0,0)" fill-opacity="0.502"/>
<polygon points="2239.45,2133.71 1818.93,2329.80 1744.55,2170.29 2165.07,1974.20" fill="rgb(147,91,65)" fill-opacity="0.502"/>
<polygon points="4269.89,3656.42 4142.20,3416.26 4354.11,3303.58 4481.80,3543.74" fill="rgb(35,15,8)" fill-opacity="0.502"/>
<polygon points="5375.12,4410.05 5538.80,4585.57 5456.88,4661.95 5293.20,4486.43" fill="rgb(43,32,22)" fill-opacity="0.502"/>
<circle cx="192.00" cy="1456.00" r="912.00" fill="rgb(0,0,0)" fill-opacity="0.502"/>
<g transform="translate(3264.00 3424.00) rotate(313) scale(112.00 80.00)"><ellipse cx="0" cy="0" rx="1" ry="1" fill="rgb(52,20,9)" fill-opacity="0.502"/></g>
<polygon points="2687.40,3852.27 2043.45,3977.44 1936.60,3427.73 2580.55,3302.56" fill="rgb(40,14,0)" fill-opacity="0.502"/>
<circle cx="6432.00" cy="3920.00" r="176.00" fill="rgb(86,64,53)" fill-opacity="0.502"/>
<polygon points="4033.58,2440.54 3997.59,2284.64 4574.42,2151.46 4610.41,2307.36" fill="rgb(161,67,35)" fill-opacity="0.502"/>
<polygon points="7007.21,2529.66 7082.29,3003.75 6560.79,3086.34 6485.71,2612.25" fill="rgb(102,71,52)" fill-opacity="0.502"/>
<circle cx="2272.00" cy="704.00" r="272.00" fill="rgb(165,107,78)" fill-opacity="0.502"/>
<polygon points="1844.20,3757.02 1812.32,3759.81 1739.80,2930.98 1771.68,2928.19" fill="rgb(21,0,0)" fill-opacity="0.502"/>
<polygon points="3338.03,1406.46 3292.47,1508.78 2853.97,1313.54 2899.53,1211.22" fill="rgb(169,112,86)" fill-opacity="0.502"/>
<polygon points="5530.13,4615.94 5510.60,4392.79 5701.87,4376.06 5721.40,4599.21" fill="rgb(110,78,73)" fill-opacity="0.502"/>
<polygon points="5903.17,4742.41 6104.85,4378.57 6160.83,4409.59 5959.15,4773.43" fill="rgb(113,112,103)" fill-opacity="0.502"/>
<polygon points="6250.41,1492.69 6308.42,1791.10 6245.59,1803.31 6187.58,1504.90" fill="rgb(0,0,0)" fill-opacity="0.502"/>
<circle cx="5744.00" cy="3232.00" r="112.00" fill="rgb(78,68,58)" fill-opacity="0.502"/>
<circle cx="6960.00" cy="4000.00" r="128.00" fill="rgb(117,88,79)" fill-opacity="0.502"/>
<g transform="translate(1504.00 336.00) rotate(236) scale(384.00 400.00)"><ellipse cx="0" cy="0" rx="1" ry="1" fill="rgb(104,53,32)" fill-opacity="0.502"/></g>
<polygon points="3557.34,3876.25 3589.74,4016.56 3402.66,4059.75 3370.26,3919.44" fill="rgb(50,18,1)" fill-opacity="0.502"/>
<g transform="translate(4512.00 2608.00) rotate(48) scale(16.00 560.00)"><ellipse cx="0" cy="0" rx="1" ry="1" fill="rgb(80,49,35)" fill-opacity="0.502"/></g>
<polygon points="4543.16,2506.48 4432.01,2621.58 4224.84,2421.52 4335.99,2306.42" fill="rgb(210,86,47)" fill-opacity="0.502"/>
<g transform="translate(6400.00 2496.00) rotate(350) scale(32.00 1168.00)"><ellipse cx="0" cy="0" rx="1" ry="1" fill="rgb(0,0,0)" fill-opacity="0.502"/></g>
<polygon points="1753.75,3345.28 1987.16,3103.58 2102.25,3214.72 1868.84,3456.42" fill="rgb(91,56,38)" fill-opacity="0.502"/>
<polygon points="5382.45,1708.02 5431.55,1808.69 5129.55,1955.98 5080.45,1855.31" fill="rgb(22,7,0)" fill-opacity="0.502"/>
<circle cx="3712.00" cy="2976.00" r="128.00" fill="rgb(118,71,56)" fill-opacity="0.502"/>
<g transform="translate(2896.00 3760.00) rotate(92) scale(256.00 64.00)"><ellipse cx="0" cy="0" rx="1" ry="1" fill="rgb(5,0,0)" fill-opacity="0.502"/></g>
<g transform="translate(5616.00 4320.00) rotate(241) scale(64.00 352.00)"><ellipse cx="0" cy="0" rx="1" ry="1" fill="rgb(144,125,117)" fill-opacity="0.502"/></g>
<circle cx="4032.00" cy="2336.00" r="144.00" fill="rgb(173,72,37)" fill-opacity="0.502"/>
<circle cx="4048.00" cy="2784.00" r="48.00" fill="rgb(167,187,194)" fill-opacity="0.502"/>
<polygon points="6617.49,2677.82 6429.94,2235.98 6886.51,2042.18 7074.06,2484.02" fill="rgb(103,71,51)" fill-opacity="0.502"/>
<circle cx="3008.00" cy="2704.00" r="32.00" fill="rgb(223,171,144)" fill-opacity="0.502"/>
<g transform="translate(4064.00 1744.00) rotate(117) scale(80.00 288.00)"><ellipse cx="0" cy="0" rx="1" ry="1" fill="rgb(158,57,18)" fill-opacity="0.502"/></g>
<g transform="translate(6096.00 3552.00) rotate(358) scale(192.00 144.00)"><ellipse cx="0" cy="0" rx="1" ry="1" fill="rgb(81,63,56)" fill-opacity="0.502"/></g>
<circle cx="2768.00" cy="160.00" r="80.00" fill="rgb(127,72,42)" fill-opacity="0.502"/>
<circle cx="3408.00" cy="3456.00" r="112.00" fill="rgb(170,129,112)" fill-opacity="0.502"/>
<circle cx="5776.00" cy="1552.00" r="240.00" fill="rgb(18,10,3)" fill-opacity="0.502"/>
<polygon points="2283.94,2180.63 2349.47,2226.52 2276.06,2331.37 2210.53,2285.48" fill="rgb(57,11,0)" fill-opacity="0.502"/>
<polygon points="4659.24,3254.04 4755.53,3126.26 4972.76,3289.96 4876.47,3417.74" fill="rgb(35,22,12)" fill-opacity="0.502"/>
<circle cx="2832.00" cy="4544.00" r="304.00" fill="rgb(78,7,0)" fill-opacity="0.502"/>
<polygon points="6338.37,3305.89 6592.31,3403.37 6477.63,3702.11 6223.69,3604.63" fill="rgb(18,12,1)" fill-opacity="0.502"/>
<circle cx="4416.00" cy="256.00" r="320.00" fill="rgb(202,146,111)" fill-opacity="0.502"/>
<g transform="translate(3072.00 624.00) rotate(99) scale(400.00 256.00)"><ellipse cx="0" cy="0" rx="1" ry="1" fill="rgb(182,125,91)" fill-opacity="0.502"/></g>
<g transform="translate(4640.00 4272.00) rotate(226) scale(352.00 96.00)"><ellipse cx="0" cy="0" rx="1" ry="1" fill="rgb(58,32,22)" fill-opacity="0.502"/></g>
<circle cx="6864.00" cy="1216.00" r="224.00" fill="rgb(182,136,109)" fill-opacity="0.502"/>
<circle cx="4848.00" cy="3440.00" r="32.00" fill="rgb(158,152,140)" fill-opacity="0.502"/>
<polygon points="4420.59,2040.21 4719.10,1853.67 4795.41,1975.79 4496.90,2162.33" fill="rgb(51,21,1)" fill-opacity="0.502"/>
<circle cx="2208.00" cy="1536.00" r="384.00" fill="rgb(164,107,77)" fill-opacity="0.502"/>
<polygon points="3760.99,2864.50 3619.64,2891.97 3583.01,2703.50 3724.36,2676.03" fill="rgb(117,81,65)" fill-opacity="0.502"/>
<g transform="translate(1440.00 1296.00) rotate(62) scale(464.00 288.00)"><ellipse cx="0" cy="0" rx="1" ry="1" fill="rgb(134,82,58)" fill-opacity="0.502"/></g>
<circle cx="1792.00" cy="1456.00" r="288.00" fill="rgb(148,92,67)" fill-opacity="0.502"/>
<g transform="translate(6592.00 288.00) rotate(91) scale(944.00 496.00)"><ellipse cx="0" cy="0" rx="1" ry="1" fill="rgb(204,158,126)" fill-opacity="0.502"/></g>
<polygon points="6927.90,3850.08 6755.75,3813.49 6912.10,3077.92 7084.25,3114.51" fill="rgb(104,82,65)" fill-opacity="0.502"/>
<polygon points="3957.45,3942.56 3641.71,3827.65 3674.55,3737.44 3990.29,3852.35" fill="rgb(45,23,15)" fill-opacity="0.502"/>
<polygon points="5299.68,531.67 4932.46,643.94 4876.32,460.33 5243.54,348.06" fill="rgb(27,2,0)" fill-opacity="0.502"/>
<g transform="translate(3520.00 2960.00) rotate(166) scale(96.00 208.00)"><ellipse cx="0" cy="0" rx="1" ry="1" fill="rgb(35,14,4)" fill-opacity="0.502"/></g>
<polygon points="3153.15,1139.92 3235.78,1295.32 2910.85,1468.08 2828.22,1312.68" fill="rgb(144,90,65)" fill-opacity="0.502"/>
<circle cx="2224.00" cy="4128.00" r="272.00" fill="rgb(33,13,0)" fill-opacity="0.502"/>
<polygon points="5172.41,971.90 5160.70,1083.29 4635.59,1028.10 4647.30,916.71" fill="rgb(202,144,115)" fill-opacity="0.502"/>
<polygon points="3206.26,2476.03 2908.90,2539.23 2825.74,2147.97 3123.10,2084.77" fill="rgb(180,125,97)" fill-opacity="0.502"/>
<circle cx="4960.00" cy="4256.00" r="80.00" fill="rgb(166,135,133)" fill-opacity="0.502"/>
<polygon points="2018.42,4150.76 1911.57,3601.04 2445.58,3497.24 2552.43,4046.96" fill="rgb(37,13,0)" fill-opacity="0.502"/>
<g transform="translate(3152.00 4048.00) rotate(1) scale(128.00 240.00)"><ellipse cx="0" cy="0" rx="1" ry="1" fill="rgb(102,58,40)" fill-opacity="0.502"/></g>
<polygon points="4769.47,2203.16 4942.53,1915.15 5038.53,1972.84 4865.47,2260.85" fill="rgb(236,247,250)" fill-opacity="0.502"/>
<circle cx="4368.00" cy="848.00" r="64.00" fill="rgb(59,33,26)" fill-opacity="0.502"/>
<g transform="translate(2112.00 3952.00) rotate(42) scale(128.00 192.00)"><ellipse cx="0" cy="0" rx="1" ry="1" fill="rgb(38,12,2)" fill-opacity="0.502"/></g>
<polygon points="4678.87,2424.01 4753.05,2453.97 4681.13,2631.99 4606.95,2602.03" fill="rgb(12,6,0)" fill-opacity="0.502"/>
<circle cx="4448.00" cy="3920.00" r="96.00" fill="rgb(77,60,43)" fill-opacity="0.502"/>
<g transform="translate(5168.00 4048.00) rotate(92) scale(112.00 192.00)"><ellipse cx="0" cy="0" rx="1" ry="1" fill="rgb(49,27,19)" fill-opacity="0.502"/></g>
<g transform="translate(2128.00 32.00) rotate(47) scale(304.00 640.00)"><ellipse cx="0" cy="0" rx="1" ry="1" fill="rgb(118,62,37)" fill-opacity="0.502"/></g>
<polygon points="6383.12,4232.95 6560.43,4459.89 6320.88,4647.05 6143.57,4420.11" fill="rgb(27,12,4)" fill-opacity="0.502"/>
<g transform="translate(6096.00 1312.00) rotate(349) scale(32.00 688.00)"><ellipse cx="0" cy="0" rx="1" ry="1" fill="rgb(221,169,143)" fill-opacity="0.502"/></g>
<polygon points="3677.72,3169.21 3948.59,3031.20 4050.28,3230.79 3779.41,3368.80" fill="rgb(160,116,94)" fill-opacity="0.502"/>
<g transform="translate(6960.00 3728.00) rotate(0) scale(128.00 608.00)"><ellipse cx="0" cy="0" rx="1" ry="1" fill="rgb(110,84,71)" fill-opacity="0.502"/></g>
<g transform="translate(6016.00 3232.00) rotate(21) scale(80.00 160.00)"><ellipse cx="0" cy="0" rx="1" ry="1" fill="rgb(52,45,35)" fill-opacity="0.502"/></g>
<polygon points="5747.21,619.04 5986.30,598.12 6012.79,900.96 5773.70,921.88" fill="rgb(219,161,126)" fill-opacity="0.502"/>
<circle cx="1280.00" cy="1680.00" r="192.00" fill="rgb(126,73,51)" fill-opacity="0.502"/>
<polygon points="5561.25,571.23 5654.40,1009.44 5638.75,1012.77 5545.60,574.56" fill="rgb(219,200,182)" fill-opacity="0.502"/>
<polygon points="1645.86,2522.40 1302.30,2654.28 1090.14,2101.60 1433.70,1969.72" fill="rgb(124,72,47)" fill-opacity="0.502"/>
<circle cx="5248.00" cy="0.00" r="320.00" fill="rgb(206,153,117)" fill-opacity="0.502"/>
<polygon points="4113.49,773.15 4241.49,994.85 3950.51,1162.85 3822.51,941.15" fill="rgb(218,83,40)" fill-opacity="0.502"/>
<circle cx="6448.00" cy="1312.00" r="240.00" fill="rgb(188,143,111)" fill-opacity="0.502"/>
<polygon points="5362.40,4521.09 5188.59,4090.87 5277.60,4054.91 5451.41,4485.13" fill="rgb(71,58,47)" fill-opacity="0.502"/>
<circle cx="5520.00" cy="3744.00" r="160.00" fill="rgb(114,86,77)" fill-opacity="0.502"/>
<polygon points="4165.59,2145.81 4170.62,2001.90 4522.41,2014.19 4517.38,2158.10" fill="rgb(43,11,0)" fill-opacity="0.502"/>
<polygon points="5041.60,1206.56 5057.25,1203.23 5150.40,1641.44 5134.75,1644.77" fill="rgb(173,133,115)" fill-opacity="0.502"/>
<polygon points="4343.69,4086.83 4512.02,4431.96 4296.31,4537.17 4127.98,4192.04" fill="rgb(107,72,60)" fill-opacity="0.502"/>
<polygon points="5060.86,1118.18 5473.99,991.88 5675.14,1649.82 5262.01,1776.12" fill="rgb(12,5,0)" fill-opacity="0.502"/>
<circle cx="7984.00" cy="128.00" r="912.00" fill="rgb(0,0,0)" fill-opacity="0.502"/>
<polygon points="6452.94,4110.49 6303.10,4481.36 5947.06,4337.51 6096.90,3966.64" fill="rgb(34,21,10)" fill-opacity="0.502"/>
<g transform="translate(3632.00 480.00) rotate(160) scale(464.00 224.00)"><ellipse cx="0" cy="0" rx="1" ry="1" fill="rgb(194,137,103)" fill-opacity="0.502"/></g>
<polygon points="4786.38,4261.78 4935.14,4580.80 4717.62,4682.22 4568.86,4363.20" fill="rgb(89,49,35)" fill-opacity="0.502"/>
<g transform="translate(2624.00 4032.00) rotate(335) scale(64.00 480.00)"><ellipse cx="0" cy="0" rx="1" ry="1" fill="rgb(48,18,1)" fill-opacity="0.502"/></g>
<polygon points="4520.99,2791.40 4470.29,3204.30 4375.01,3192.60 4425.71,2779.70" fill="rgb(169,132,115)" fill-opacity="0.502"/>
<polygon points="5184.70,3715.39 5081.79,3378.77 5311.30,3308.61 5414.21,3645.23" fill="rgb(172,141,126)" fill-opacity="0.502"/>
<circle cx="5360.00" cy="784.00" r="192.00" fill="rgb(203,147,111)" fill-opacity="0.502"/>
<polygon points="3184.00,1952.00 3616.00,1952.00 3616.00,2256.00 3184.00,2256.00" fill="rgb(13,8,0)" fill-opacity="0.502"/>
<circle cx="1136.00" cy="4592.00" r="48.00" fill="rgb(23,10,11)" fill-opacity="0.502"/>
<polygon points="5090.06,1843.01 5070.28,1903.88 4765.94,1804.99 4785.72,1744.12" fill="rgb(10,0,0)" fill-opacity="0.502"/>
<circle cx="3856.00" cy="2288.00" r="64.00" fill="rgb(72,34,13)" fill-opacity="0.502"/>
<g transform="translate(6576.00 2016.00) rotate(112) scale(144.00 224.00)"><ellipse cx="0" cy="0" rx="1" ry="1" fill="rgb(129,87,65)" fill-opacity="0.502"/></g>
<polygon points="3803.90,962.22 3754.16,921.94 4036.10,573.78 4085.84,614.06" fill="rgb(117,93,91)" fill-opacity="0.502"/>
<g transform="translate(1904.00 3792.00) rotate(173) scale(16.00 544.00)"><ellipse cx="0" cy="0" rx="1" ry="1" fill="rgb(195,165,145)" fill-opacity="0.502"/></g>
<circle cx="3776.00" cy="2480.00" r="128.00" fill="rgb(225,219,198)" fill-opacity="0.502"/>
<g transform="translate(6000.00 1296.00) rotate(324) scale(16.00 48.00)"><ellipse cx="0" cy="0" rx="1" ry="1" fill="rgb(180,144,117)" fill-opacity="0.502"/></g>
<polygon points="3632.00,1552.00 3632.00,1632.00 3040.00,1632.00 3040.00,1552.00" fill="rgb(8,0,0)" fill-opacity="0.502"/>
</g>
</svg>