<?xml version="1.0" standalone="no"?>
<svg xmlns="http://www.w3.org/2000/svg" width="8192" height="4608" viewBox="0 0 8192 4608" style="overflow:hidden">
<defs>
<clipPath id="c"><rect x="0" y="0" width="8192" height="4608"/></clipPath>
</defs>
<rect width="8192" height="4608" fill="rgb(121,99,77)"/>
<g clip-path="url(#c)">
<g transform="translate(272.00 2608.00) rotate(90) scale(8144.00 848.00)"><ellipse cx="0" cy="0" rx="1" ry="1" fill="rgb(0,0,0)" fill-opacity="0.502"/></g>
<circle cx="3552.00" cy="0.00" r="2480.00" fill="rgb(255,255,239)" fill-opacity="0.502"/>
<circle cx="8176.00" cy="3264.00" r="2336.00" fill="rgb(0,0,0)" fill-opacity="0.502"/>
<g transform="translate(6416.00 992.00) rotate(134) scale(656.00 720.00)"><ellipse cx="0" cy="0" rx="1" ry="1" fill="rgb(255,255,228)" fill-opacity="0.502"/></g>
<circle cx="3136.00" cy="2640.00" r="544.00" fill="rgb(13,0,0)" fill-opacity="0.502"/>
<g transform="translate(7808.00 1744.00) rotate(181) scale(752.00 4592.00)"><ellipse cx="0" cy="0" rx="1" ry="1" fill="rgb(0,0,0)" fill-opacity="0.502"/></g>
<g transform="translate(2560.00 1536.00) rotate(344) scale(1536.00 496.00)"><ellipse cx="0" cy="0" rx="1" ry="1" fill="rgb(255,255,255)" fill-opacity="0.502"/></g>
<circle cx="2224.00" cy="3920.00" r="768.00" fill="rgb(236,255,243)" fill-opacity="0.502"/>
<circle cx="6544.00" cy="2400.00" r="544.00" fill="rgb(255,141,83)" fill-opacity="0.502"/>
<g transform="translate(6192.00 4592.00) rotate(288) scale(816.00 1664.00)"><ellipse cx="0" cy="0" rx="1" ry="1" fill="rgb(38,0,0)" fill-opacity="0.502"/></g>
<circle cx="0.00" cy="3200.00" r="1408.00" fill="rgb(0,0,0)" fill-opacity="0.502"/>
<circle cx="4896.00" cy="2352.00" r="1456.00" fill="rgb(201,114,48)" fill-opacity="0.502"/>
<circle cx="2256.00" cy="2832.00" r="368.00" fill="rgb(52,9,0)" fill-opacity="0.502"/>
<g transform="translate(7760.00 1248.00) rotate(179) scale(672.00 4592.00)"><ellipse cx="0" cy="0" rx="1" ry="1" fill="rgb(0,0,0)" fill-opacity="0.502"/></g>
<circle cx="224.00" cy="896.00" r="912.00" fill="rgb(0,0,0)" fill-opacity="0.502"/>
<g transform="translate(5360.00 1712.00) rotate(255) scale(240.00 544.00)"><ellipse cx="0" cy="0" rx="1" ry="1" fill="rgb(20,29,0)" fill-opacity="0.502"/></g>
<g transform="translate(1472.00 1952.00) rotate(251) scale(512.00 368.00)"><ellipse cx="0" cy="0" rx="1" ry="1" fill="rgb(255,255,240)" fill-opacity="0.502"/></g>
<circle cx="3328.00" cy="0.00" r="1616.00" fill="rgb(255,249,216)" fill-opacity="0.502"/>
<g transform="translate(2880.00 1488.00) rotate(250) scale(464.00 736.00)"><ellipse cx="0" cy="0" rx="1" ry="1" fill="rgb(255,255,255)" fill-opacity="0.502"/></g>
<g transform="translate(5216.00 2336.00) rotate(93) scale(288.00 1856.00)"><ellipse cx="0" cy="0" rx="1" ry="1" fill="rgb(255,168,112)" fill-opacity="0.502"/></g>
<polygon points="1104.00,688.00 1744.00,688.00 1744.00,960.00 1104.00,960.00" fill="rgb(255,255,255)" fill-opacity="0.502"/>
<g transform="translate(576.00 1344.00) rotate(272) scale(7024.00 496.00)"><ellipse cx="0" cy="0" rx="1" ry="1" fill="rgb(0,0,0)" fill-opacity="0.502"/></g>
<g transform="translate(4272.00 4128.00) rotate(183) scale(1408.00 608.00)"><ellipse cx="0" cy="0" rx="1" ry="1" fill="rgb(112,53,21)" fill-opacity="0.502"/></g>
<circle cx="6400.00" cy="3264.00" r="672.00" fill="rgb(116,63,38)" fill-opacity="0.502"/>
<circle cx="4592.00" cy="1392.00" r="432.00" fill="rgb(151,122,55)" fill-opacity="0.502"/>
<g transform="translate(6880.00 2864.00) rotate(172) scale(1392.00 192.00)"><ellipse cx="0" cy="0" rx="1" ry="1" fill="rgb(5,0,0)" fill-opacity="0.502"/></g>
<polygon points="6441.17,783.16 4697.43,752.72 4710.83,-15.16 6454.57,15.28" fill="rgb(248,227,193)" fill-opacity="0.502"/>
<g transform="translate(6208.00 3472.00) rotate(119) scale(256.00 720.00)"><ellipse cx="0" cy="0" rx="1" ry="1" fill="rgb(177,115,74)" fill-opacity="0.502"/></g>
<polygon points="2326.62,1315.46 1265.05,1464.65 1209.38,1068.54 2270.95,919.35" fill="rgb(141,65,10)" fill-opacity="0.502"/>
<g transform="translate(4128.00 3248.00) rotate(3) scale(992.00 320.00)"><ellipse cx="0" cy="0" rx="1" ry="1" fill="rgb(183,126,96)" fill-opacity="0.502"/></g>
<circle cx="6496.00" cy="1088.00" r="544.00" fill="rgb(253,202,169)" fill-opacity="0.502"/>
<g transform="translate(2496.00 480.00) rotate(223) scale(192.00 224.00)"><ellipse cx="0" cy="0" rx="1" ry="1" fill="rgb(157,115,75)" fill-opacity="0.502"/></g>
<g transform="translate(3424.00 2000.00) rotate(68) scale(256.00 784.00)"><ellipse cx="0" cy="0" rx="1" ry="1" fill="rgb(177,120,0)" fill-opacity="0.502"/></g>
<circle cx="7664.00" cy="480.00" r="592.00" fill="rgb(0,0,0)" fill-opacity="0.502"/>
<circle cx="1488.00" cy="96.00" r="400.00" fill="rgb(255,255,240)" fill-opacity="0.502"/>
<g transform="translate(1440.00 3552.00) rotate(81) scale(400.00 336.00)"><ellipse cx="0" cy="0" rx="1" ry="1" fill="rgb(190,138,106)" fill-opacity="0.502"/></g>
<circle cx="1504.00" cy="2752.00" r="448.00" fill="rgb(168,67,2)" fill-opacity="0.502"/>
<g transform="translate(544.00 1696.00) rotate(203) scale(528.00 720.00)"><ellipse cx="0" cy="0" rx="1" ry="1" fill="rgb(0,0,0)" fill-opacity="0.502"/></g>
<polygon points="2657.84,2028.39 2701.07,2522.51 2414.16,2547.61 2370.93,2053.49" fill="rgb(255,219,173)" fill-opacity="0.502"/>
<circle cx="4576.00" cy="1136.00" r="304.00" fill="rgb(168,139,81)" fill-opacity="0.502"/>
<g transform="translate(1360.00 4448.00) rotate(118) scale(1424.00 176.00)"><ellipse cx="0" cy="0" rx="1" ry="1" fill="rgb(199,220,197)" fill-opacity="0.502"/></g>
<circle cx="4192.00" cy="1344.00" r="256.00" fill="rgb(240,208,184)" fill-opacity="0.502"/>
<circle cx="2896.00" cy="2688.00" r="496.00" fill="rgb(34,23,23)" fill-opacity="0.502"/>
<g transform="translate(2208.00 1472.00) rotate(335) scale(1184.00 208.00)"><ellipse cx="0" cy="0" rx="1" ry="1" fill="rgb(255,255,247)" fill-opacity="0.502"/></g>
<circle cx="3616.00" cy="2928.00" r="224.00" fill="rgb(67,31,24)" fill-opacity="0.502"/>
<circle cx="1600.00" cy="4528.00" r="512.00" fill="rgb(182,177,156)" fill-opacity="0.502"/>
<circle cx="2112.00" cy="2096.00" r="224.00" fill="rgb(172,99,0)" fill-opacity="0.502"/>
<g transform="translate(1936.00 2480.00) rotate(346) scale(304.00 128.00)"><ellipse cx="0" cy="0" rx="1" ry="1" fill="rgb(41,17,0)" fill-opacity="0.502"/></g>
<circle cx="2576.00" cy="3488.00" r="368.00" fill="rgb(193,211,181)" fill-opacity="0.502"/>
<circle cx="416.00" cy="464.00" r="656.00" fill="rgb(0,0,0)" fill-opacity="0.502"/>
<g transform="translate(3488.00 816.00) rotate(352) scale(1312.00 80.00)"><ellipse cx="0" cy="0" rx="1" ry="1" fill="rgb(167,128,91)" fill-opacity="0.502"/></g>
<circle cx="6160.00" cy="0.00" r="448.00" fill="rgb(155,128,84)" fill-opacity="0.502"/>
<g transform="translate(6848.00 3600.00) rotate(13) scale(240.00 256.00)"><ellipse cx="0" cy="0" rx="1" ry="1" fill="rgb(159,100,62)" fill-opacity="0.502"/></g>
<circle cx="5216.00" cy="1200.00" r="480.00" fill="rgb(198,174,103)" fill-opacity="0.502"/>
<polygon points="6160.55,2097.63 6143.79,1617.92 6703.45,1598.37 6720.21,2078.08" fill="rgb(63,0,0)" fill-opacity="0.502"/>
<g transform="translate(7728.00 1984.00) rotate(184) scale(608.00 3808.00)"><ellipse cx="0" cy="0" rx="1" ry="1" fill="rgb(0,0,0)" fill-opacity="0.502"/></g>
<polygon points="2416.00,2224.00 2656.00,2224.00 2656.00,2608.00 2416.00,2608.00" fill="rgb(211,161,107)" fill-opacity="0.502"/>
<g transform="translate(1360.00 2304.00) rotate(140) scale(256.00 256.00)"><ellipse cx="0" cy="0" rx="1" ry="1" fill="rgb(224,141,76)" fill-opacity="0.502"/></g>
<polygon points="1096.00,3384.00 1096.00,4584.00 136.00,4584.00 136.00,3384.00" fill="rgb(0,0,0)" fill-opacity="0.502"/>
<g transform="translate(6576.00 784.00) rotate(74) scale(368.00 512.00)"><ellipse cx="0" cy="0" rx="1" ry="1" fill="rgb(217,187,155)" fill-opacity="0.502"/></g>
<circle cx="4528.00" cy="1744.00" r="288.00" fill="rgb(152,87,37)" fill-opacity="0.502"/>
<g transform="translate(7040.00 4240.00) rotate(10) scale(1664.00 288.00)"><ellipse cx="0" cy="0" rx="1" ry="1" fill="rgb(0,0,0)" fill-opacity="0.502"/></g>
<circle cx="4272.00" cy="2464.00" r="656.00" fill="rgb(206,138,103)" fill-opacity="0.502"/>
<g transform="translate(5648.00 1664.00) rotate(360) scale(96.00 400.00)"><ellipse cx="0" cy="0" rx="1" ry="1" fill="rgb(42,33,0)" fill-opacity="0.502"/></g>
<circle cx="304.00" cy="2752.00" r="800.00" fill="rgb(0,0,0)" fill-opacity="0.502"/>
<polygon points="6084.92,2698.02 5996.01,3202.24 5019.08,3029.98 5107.99,2525.76" fill="rgb(137,58,41)" fill-opacity="0.502"/>
<circle cx="4624.00" cy="48.00" r="912.00" fill="rgb(234,228,196)" fill-opacity="0.502"/>
<polygon points="5634.43,1174.05 5844.05,724.52 6061.57,825.95 5851.95,1275.48" fill="rgb(255,236,205)" fill-opacity="0.502"/>
<circle cx="5760.00" cy="1408.00" r="208.00" fill="rgb(142,108,4)" fill-opacity="0.502"/>
<polygon points="2603.43,4268.83 1492.26,4032.64 1668.57,3203.17 2779.74,3439.36" fill="rgb(187,206,182)" fill-opacity="0.502"/>
<g transform="translate(5056.00 4464.00) rotate(104) scale(256.00 2256.00)"><ellipse cx="0" cy="0" rx="1" ry="1" fill="rgb(126,79,49)" fill-opacity="0.502"/></g>
<polygon points="7004.34,765.93 6459.40,534.62 6515.66,402.07 7060.60,633.38" fill="rgb(136,110,53)" fill-opacity="0.502"/>
<g transform="translate(1664.00 1264.00) rotate(318) scale(224.00 320.00)"><ellipse cx="0" cy="0" rx="1" ry="1" fill="rgb(157,100,58)" fill-opacity="0.502"/></g>
<g transform="translate(2112.00 32.00) rotate(26) scale(256.00 304.00)"><ellipse cx="0" cy="0" rx="1" ry="1" fill="rgb(255,255,249)" fill-opacity="0.502"/></g>
<polygon points="2311.57,4522.34 3002.14,3855.47 3224.43,4085.66 2533.86,4752.53" fill="rgb(151,138,111)" fill-opacity="0.502"/>
<g transform="translate(3168.00 4400.00) rotate(8) scale(176.00 976.00)"><ellipse cx="0" cy="0" rx="1" ry="1" fill="rgb(80,47,31)" fill-opacity="0.502"/></g>
<circle cx="3088.00" cy="0.00" r="448.00" fill="rgb(249,255,226)" fill-opacity="0.502"/>
<g transform="translate(1728.00 560.00) rotate(171) scale(160.00 128.00)"><ellipse cx="0" cy="0" rx="1" ry="1" fill="rgb(93,61,11)" fill-opacity="0.502"/></g>
<g transform="translate(1408.00 2832.00) rotate(159) scale(208.00 432.00)"><ellipse cx="0" cy="0" rx="1" ry="1" fill="rgb(118,51,0)" fill-opacity="0.502"/></g>
<circle cx="3424.00" cy="2384.00" r="304.00" fill="rgb(155,94,38)" fill-opacity="0.502"/>
<circle cx="320.00" cy="1392.00" r="784.00" fill="rgb(0,0,0)" fill-opacity="0.502"/>
<circle cx="5552.00" cy="3984.00" r="464.00" fill="rgb(71,38,20)" fill-opacity="0.502"/>
<polygon points="2922.28,2772.67 3114.07,3247.39 2965.72,3307.33 2773.93,2832.61" fill="rgb(0,41,126)" fill-opacity="0.502"/>
<polygon points="5599.28,1726.25 5616.02,1965.66 5328.72,1985.75 5311.98,1746.34" fill="rgb(6,0,0)" fill-opacity="0.502"/>
<g transform="translate(5104.00 3616.00) rotate(84) scale(272.00 448.00)"><ellipse cx="0" cy="0" rx="1" ry="1" fill="rgb(122,83,60)" fill-opacity="0.502"/></g>
<g transform="translate(3760.00 960.00) rotate(269) scale(256.00 128.00)"><ellipse cx="0" cy="0" rx="1" ry="1" fill="rgb(192,134,81)" fill-opacity="0.502"/></g>
<circle cx="3696.00" cy="2880.00" r="272.00" fill="rgb(112,68,47)" fill-opacity="0.502"/>
<polygon points="4944.26,1471.42 4960.17,1167.83 5279.74,1184.58 5263.83,1488.17" fill="rgb(252,240,195)" fill-opacity="0.502"/>
<circle cx="1408.00" cy="1680.00" r="304.00" fill="rgb(252,230,212)" fill-opacity="0.502"/>
<circle cx="1488.00" cy="0.00" r="320.00" fill="rgb(243,250,225)" fill-opacity="0.502"/>
<circle cx="1904.00" cy="1744.00" r="256.00" fill="rgb(255,255,255)" fill-opacity="0.502"/>
<g transform="translate(1408.00 880.00) rotate(169) scale(320.00 112.00)"><ellipse cx="0" cy="0" rx="1" ry="1" fill="rgb(239,255,255)" fill-opacity="0.502"/></g>
<circle cx="6640.00" cy="3040.00" r="240.00" fill="rgb(0,2,0)" fill-opacity="0.502"/>
<polygon points="4037.07,3054.54 4708.15,3089.71 4698.93,3265.46 4027.85,3230.29" fill="rgb(240,174,140)" fill-opacity="0.502"/>
<polygon points="6061.40,1246.96 6001.19,1819.80 5746.60,1793.04 5806.81,1220.20" fill="rgb(181,124,18)" fill-opacity="0.502"/>
<polygon points="5075.39,1797.88 5162.05,1682.88 5532.61,1962.12 5445.95,2077.12" fill="rgb(37,17,8)" fill-opacity="0.502"/>
<g transform="translate(6128.00 1920.00) rotate(331) scale(128.00 192.00)"><ellipse cx="0" cy="0" rx="1" ry="1" fill="rgb(69,8,0)" fill-opacity="0.502"/></g>
<circle cx="1312.00" cy="1744.00" r="224.00" fill="rgb(252,250,241)" fill-opacity="0.502"/>
<g transform="translate(4352.00 2224.00) rotate(191) scale(416.00 384.00)"><ellipse cx="0" cy="0" rx="1" ry="1" fill="rgb(226,163,116)" fill-opacity="0.502"/></g>
<g transform="translate(2448.00 784.00) rotate(354) scale(1328.00 112.00)"><ellipse cx="0" cy="0" rx="1" ry="1" fill="rgb(232,255,255)" fill-opacity="0.502"/></g>
<circle cx="2512.00" cy="352.00" r="208.00" fill="rgb(183,149,110)" fill-opacity="0.502"/>
<g transform="translate(6704.00 32.00) rotate(315) scale(336.00 416.00)"><ellipse cx="0" cy="0" rx="1" ry="1" fill="rgb(161,126,77)" fill-opacity="0.502"/></g>
<g transform="translate(4944.00 2912.00) rotate(88) scale(400.00 320.00)"><ellipse cx="0" cy="0" rx="1" ry="1" fill="rgb(149,76,55)" fill-opacity="0.502"/></g>
<polygon points="4802.16,2256.45 4966.97,1982.16 5501.84,2303.55 5337.03,2577.84" fill="rgb(245,166,115)" fill-opacity="0.502"/>
<polygon points="5279.38,1779.50 5176.17,2048.38 4832.62,1916.50 4935.83,1647.62" fill="rgb(52,16,2)" fill-opacity="0.502"/>
<g transform="translate(2528.00 2032.00) rotate(19) scale(160.00 288.00)"><ellipse cx="0" cy="0" rx="1" ry="1" fill="rgb(255,255,248)" fill-opacity="0.502"/></g>
<g transform="translate(5440.00 192.00) rotate(161) scale(1088.00 96.00)"><ellipse cx="0" cy="0" rx="1" ry="1" fill="rgb(195,177,143)" fill-opacity="0.502"/></g>
<g transform="translate(4320.00 16.00) rotate(179) scale(1328.00 208.00)"><ellipse cx="0" cy="0" rx="1" ry="1" fill="rgb(248,255,230)" fill-opacity="0.502"/></g>
<polygon points="5848.80,1983.97 7079.11,2048.45 7063.20,2352.03 5832.89,2287.55" fill="rgb(175,106,90)" fill-opacity="0.502"/>
<polygon points="5701.52,221.45 5841.80,509.06 5338.48,754.55 5198.20,466.94" fill="rgb(255,242,229)" fill-opacity="0.502"/>
<polygon points="5648.10,2913.51 5664.01,2001.65 6399.90,2014.49 6383.99,2926.35" fill="rgb(196,123,79)" fill-opacity="0.502"/>
<circle cx="400.00" cy="4224.00" r="704.00" fill="rgb(0,0,0)" fill-opacity="0.502"/>
<polygon points="1609.57,2336.14 1451.54,2361.17 1366.43,1823.86 1524.46,1798.83" fill="rgb(161,124,96)" fill-opacity="0.502"/>
<g transform="translate(6816.00 944.00) rotate(47) scale(368.00 128.00)"><ellipse cx="0" cy="0" rx="1" ry="1" fill="rgb(255,254,241)" fill-opacity="0.502"/></g>
<polygon points="6880.35,2902.50 7096.65,3200.22 6863.65,3369.50 6647.35,3071.78" fill="rgb(19,12,8)" fill-opacity="0.502"/>
<polygon points="2056.00,2984.00 2056.00,2680.00 2472.00,2680.00 2472.00,2984.00" fill="rgb(36,20,0)" fill-opacity="0.502"/>
<circle cx="5840.00" cy="2352.00" r="336.00" fill="rgb(217,140,90)" fill-opacity="0.502"/>
<circle cx="1344.00" cy="1392.00" r="176.00" fill="rgb(165,99,61)" fill-opacity="0.502"/>
<g transform="translate(2096.00 4592.00) rotate(261) scale(304.00 736.00)"><ellipse cx="0" cy="0" rx="1" ry="1" fill="rgb(168,147,118)" fill-opacity="0.502"/></g>
<circle cx="848.00" cy="2064.00" r="272.00" fill="rgb(0,0,0)" fill-opacity="0.502"/>
<polygon points="6912.00,1664.00 6912.00,2000.00 6064.00,2000.00 6064.00,1664.00" fill="rgb(88,23,3)" fill-opacity="0.502"/>
<circle cx="1280.00" cy="3760.00" r="192.00" fill="rgb(123,83,66)" fill-opacity="0.502"/>
<polygon points="2867.44,2106.84 2376.27,2175.87 2300.56,1637.16 2791.73,1568.13" fill="rgb(255,255,244)" fill-opacity="0.502"/>
<polygon points="1134.65,3817.61 1257.74,3238.55 1633.35,3318.39 1510.26,3897.45" fill="rgb(138,88,63)" fill-opacity="0.502"/>
<circle cx="1744.00" cy="1760.00" r="272.00" fill="rgb(255,255,252)" fill-opacity="0.502"/>
<polygon points="1781.83,2563.31 2061.07,2933.88 1882.17,3068.69 1602.93,2698.12" fill="rgb(223,135,125)" fill-opacity="0.502"/>
<polygon points="1444.30,3645.17 1124.35,3650.75 1115.70,3154.83 1435.65,3149.25" fill="rgb(167,98,72)" fill-opacity="0.502"/>
<polygon points="1350.22,1635.09 1270.84,2043.44 1113.78,2012.91 1193.16,1604.56" fill="rgb(255,255,255)" fill-opacity="0.502"/>
<g transform="translate(6528.00 1472.00) rotate(22) scale(416.00 144.00)"><ellipse cx="0" cy="0" rx="1" ry="1" fill="rgb(208,169,129)" fill-opacity="0.502"/></g>
<g transform="translate(3168.00 3552.00) rotate(222) scale(448.00 176.00)"><ellipse cx="0" cy="0" rx="1" ry="1" fill="rgb(77,60,48)" fill-opacity="0.502"/></g>
<polygon points="1889.08,2479.94 1871.21,1968.25 2334.92,1952.06 2352.79,2463.75" fill="rgb(154,102,27)" fill-opacity="0.502"/>
<g transform="translate(560.00 16.00) rotate(268) scale(2496.00 544.00)"><ellipse cx="0" cy="0" rx="1" ry="1" fill="rgb(0,0,0)" fill-opacity="0.502"/></g>
<g transform="translate(2176.00 2656.00) rotate(209) scale(416.00 208.00)"><ellipse cx="0" cy="0" rx="1" ry="1" fill="rgb(67,45,0)" fill-opacity="0.502"/></g>
<polygon points="4373.68,704.78 4468.35,907.79 3946.32,1151.22 3851.65,948.21" fill="rgb(255,255,252)" fill-opacity="0.502"/>
<g transform="translate(4528.00 2608.00) rotate(359) scale(240.00 128.00)"><ellipse cx="0" cy="0" rx="1" ry="1" fill="rgb(155,93,65)" fill-opacity="0.502"/></g>
<g transform="translate(3584.00 1904.00) rotate(292) scale(288.00 256.00)"><ellipse cx="0" cy="0" rx="1" ry="1" fill="rgb(215,163,52)" fill-opacity="0.502"/></g>
<polygon points="1521.87,2126.24 1736.56,1986.81 1902.13,2241.76 1687.44,2381.19" fill="rgb(255,232,193)" fill-opacity="0.502"/>
<circle cx="6176.00" cy="1376.00" r="272.00" fill="rgb(216,168,127)" fill-opacity="0.502"/>
<polygon points="1108.76,2078.46 1427.54,2050.57 1451.24,2321.54 1132.46,2349.43" fill="rgb(245,190,153)" fill-opacity="0.502"/>
<circle cx="4560.00" cy="944.00" r="128.00" fill="rgb(128,94,38)" fill-opacity="0.502"/>
<polygon points="2680.89,624.77 2807.19,211.64 3159.11,319.23 3032.81,732.36" fill="rgb(212,197,150)" fill-opacity="0.502"/>
<g transform="translate(2864.00 1520.00) rotate(87) scale(432.00 576.00)"><ellipse cx="0" cy="0" rx="1" ry="1" fill="rgb(254,252,240)" fill-opacity="0.502"/></g>
<g transform="translate(2176.00 3920.00) rotate(97) scale(352.00 704.00)"><ellipse cx="0" cy="0" rx="1" ry="1" fill="rgb(183,201,181)" fill-opacity="0.502"/></g>
<circle cx="4400.00" cy="1136.00" r="112.00" fill="rgb(132,93,54)" fill-opacity="0.502"/>
<polygon points="5716.52,2839.78 5724.88,2744.15 6091.48,2776.22 6083.12,2871.85" fill="rgb(80,29,18)" fill-opacity="0.502"/>
<g transform="translate(2352.00 3456.00) rotate(154) scale(448.00 256.00)"><ellipse cx="0" cy="0" rx="1" ry="1" fill="rgb(198,199,170)" fill-opacity="0.502"/></g>
<polygon points="5680.69,921.81 5423.30,1137.79 5279.31,966.19 5536.70,750.21" fill="rgb(134,78,34)" fill-opacity="0.502"/>
<polygon points="6281.49,4588.48 5616.62,4173.02 5862.51,3779.52 6527.38,4194.98" fill="rgb(48,22,10)" fill-opacity="0.502"/>
<circle cx="1664.00" cy="176.00" r="304.00" fill="rgb(227,231,202)" fill-opacity="0.502"/>
<g transform="translate(6480.00 2864.00) rotate(311) scale(304.00 160.00)"><ellipse cx="0" cy="0" rx="1" ry="1" fill="rgb(38,24,10)" fill-opacity="0.502"/></g>
<polygon points="6705.50,840.61 7002.85,903.82 6846.50,1639.39 6549.15,1576.18" fill="rgb(255,237,216)" fill-opacity="0.502"/>
<polygon points="4425.30,4788.41 3911.38,4054.45 4566.70,3595.59 5080.62,4329.55" fill="rgb(122,74,45)" fill-opacity="0.502"/>
<polygon points="7025.46,1216.54 7109.98,1290.02 6910.54,1519.46 6826.02,1445.98" fill="rgb(121,95,3)" fill-opacity="0.502"/>
<polygon points="2847.94,2465.60 3194.60,2404.48 3264.06,2798.40 2917.40,2859.52" fill="rgb(1,0,0)" fill-opacity="0.502"/>
<g transform="translate(7360.00 848.00) rotate(118) scale(512.00 144.00)"><ellipse cx="0" cy="0" rx="1" ry="1" fill="rgb(0,0,0)" fill-opacity="0.502"/></g>
<circle cx="7744.00" cy="1376.00" r="672.00" fill="rgb(0,0,0)" fill-opacity="0.502"/>
<g transform="translate(1216.00 2624.00) rotate(248) scale(256.00 48.00)"><ellipse cx="0" cy="0" rx="1" ry="1" fill="rgb(184,108,25)" fill-opacity="0.502"/></g>
<circle cx="7840.00" cy="3552.00" r="768.00" fill="rgb(0,0,0)" fill-opacity="0.502"/>
<polygon points="3256.00,2904.00 3256.00,2712.00 3336.00,2712.00 3336.00,2904.00" fill="rgb(0,0,0)" fill-opacity="0.502"/>
<polygon points="2989.30,4285.74 3008.75,4396.04 2882.70,4418.26 2863.25,4307.96" fill="rgb(208,201,172)" fill-opacity="0.502"/>
<polygon points="3057.03,3145.58 2884.46,3229.75 2638.97,2726.42 2811.54,2642.25" fill="rgb(12,42,102)" fill-opacity="0.502"/>
<g transform="translate(2048.00 2992.00) rotate(239) scale(80.00 432.00)"><ellipse cx="0" cy="0" rx="1" ry="1" fill="rgb(59,23,2)" fill-opacity="0.502"/></g>
<g transform="translate(3152.00 4544.00) rotate(1) scale(352.00 144.00)"><ellipse cx="0" cy="0" rx="1" ry="1" fill="rgb(75,51,29)" fill-opacity="0.502"/></g>
<polygon points="6237.98,536.11 6244.23,550.83 5714.02,775.89 5707.77,761.17" fill="rgb(100,54,34)" fill-opacity="0.502"/>
<polygon points="3128.99,3815.01 3240.99,4008.99 3047.01,4120.99 2935.01,3927.01" fill="rgb(148,131,113)" fill-opacity="0.502"/>
<polygon points="1805.60,2373.60 1743.48,2141.78 2114.40,2042.40 2176.52,2274.22" fill="rgb(156,119,52)" fill-opacity="0.502"/>
<polygon points="3652.78,582.50 3644.41,422.72 4507.22,377.50 4515.59,537.28" fill="rgb(213,184,143)" fill-opacity="0.502"/>
<polygon points="3711.19,1135.41 3646.91,937.59 3920.81,848.59 3985.09,1046.41" fill="rgb(210,157,107)" fill-opacity="0.502"/>
<circle cx="400.00" cy="3024.00" r="704.00" fill="rgb(0,0,0)" fill-opacity="0.502"/>
<circle cx="6896.00" cy="2496.00" r="192.00" fill="rgb(237,144,86)" fill-opacity="0.502"/>
<circle cx="3984.00" cy="1408.00" r="160.00" fill="rgb(217,174,110)" fill-opacity="0.502"/>
<polygon points="3306.62,3508.78 3245.34,3560.20 2885.38,3131.22 2946.66,3079.80" fill="rgb(11,44,63)" fill-opacity="0.502"/>
<circle cx="3216.00" cy="448.00" r="208.00" fill="rgb(220,203,162)" fill-opacity="0.502"/>
<g transform="translate(7760.00 160.00) rotate(91) scale(8176.00 656.00)"><ellipse cx="0" cy="0" rx="1" ry="1" fill="rgb(0,0,0)" fill-opacity="0.502"/></g>
<circle cx="6368.00" cy="1088.00" r="288.00" fill="rgb(206,156,124)" fill-opacity="0.502"/>
<polygon points="3664.38,736.93 3650.73,625.77 4063.62,575.07 4077.27,686.23" fill="rgb(234,255,255)" fill-opacity="0.502"/>
<circle cx="7040.00" cy="2240.00" r="64.00" fill="rgb(76,36,22)" fill-opacity="0.502"/>
<polygon points="5577.94,970.45 5252.29,1173.94 5142.06,997.55 5467.71,794.06" fill="rgb(152,102,71)" fill-opacity="0.502"/>
<g transform="translate(1200.00 608.00) rotate(332) scale(64.00 112.00)"><ellipse cx="0" cy="0" rx="1" ry="1" fill="rgb(29,42,0)" fill-opacity="0.502"/></g>
<g transform="translate(1632.00 3072.00) rotate(288) scale(96.00 224.00)"><ellipse cx="0" cy="0" rx="1" ry="1" fill="rgb(52,14,17)" fill-opacity="0.502"/></g>
<circle cx="1424.00" cy="464.00" r="176.00" fill="rgb(216,202,157)" fill-opacity="0.502"/>
<g transform="translate(3792.00 2048.00) rotate(176) scale(752.00 32.00)"><ellipse cx="0" cy="0" rx="1" ry="1" fill="rgb(215,175,153)" fill-opacity="0.502"/></g>
<polygon points="5236.72,3050.23 5415.13,3372.09 5051.28,3573.77 4872.87,3251.91" fill="rgb(166,113,81)" fill-opacity="0.502"/>
<circle cx="4096.00" cy="2464.00" r="112.00" fill="rgb(189,102,65)" fill-opacity="0.502"/>
<circle cx="2896.00" cy="2528.00" r="224.00" fill="rgb(19,14,0)" fill-opacity="0.502"/>
<polygon points="2813.32,153.65 1342.21,102.27 1346.68,-25.65 2817.79,25.73" fill="rgb(246,255,242)" fill-opacity="0.502"/>
<g transform="translate(1280.00 2864.00) rotate(105) scale(400.00 144.00)"><ellipse cx="0" cy="0" rx="1" ry="1" fill="rgb(156,81,14)" fill-opacity="0.502"/></g>
<g transform="translate(2720.00 48.00) rotate(360) scale(1616.00 96.00)"><ellipse cx="0" cy="0" rx="1" ry="1" fill="rgb(242,246,227)" fill-opacity="0.502"/></g>
<polygon points="3197.91,2409.40 3086.52,2421.11 3058.09,2150.60 3169.48,2138.89" fill="rgb(135,47,7)" fill-opacity="0.502"/>
<circle cx="2352.00" cy="1024.00" r="112.00" fill="rgb(187,133,102)" fill-opacity="0.502"/>
<polygon points="6024.00,760.00 6024.00,1176.00 5720.00,1176.00 5720.00,760.00" fill="rgb(245,223,200)" fill-opacity="0.502"/>
<circle cx="4064.00" cy="1008.00" r="240.00" fill="rgb(254,244,228)" fill-opacity="0.502"/>
<circle cx="5584.00" cy="928.00" r="128.00" fill="rgb(186,153,96)" fill-opacity="0.502"/>
<polygon points="2733.79,3153.43 2835.22,3370.95 2690.21,3438.57 2588.78,3221.05" fill="rgb(201,204,172)" fill-opacity="0.502"/>
<polygon points="1289.47,496.63 1442.23,660.46 1430.53,671.37 1277.77,507.54" fill="rgb(255,255,255)" fill-opacity="0.502"/>
<g transform="translate(1360.00 1392.00) rotate(5) scale(256.00 144.00)"><ellipse cx="0" cy="0" rx="1" ry="1" fill="rgb(169,112,76)" fill-opacity="0.502"/></g>
<g transform="translate(2160.00 1984.00) rotate(42) scale(112.00 224.00)"><ellipse cx="0" cy="0" rx="1" ry="1" fill="rgb(189,138,67)" fill-opacity="0.502"/></g>
<circle cx="4976.00" cy="1616.00" r="128.00" fill="rgb(138,132,34)" fill-opacity="0.502"/>
<polygon points="3755.82,1579.74 3171.11,1487.13 3236.18,1076.26 3820.89,1168.87" fill="rgb(255,254,246)" fill-opacity="0.502"/>
<polygon points="3666.80,2281.15 4297.08,2170.01 4333.20,2374.85 3702.92,2485.99" fill="rgb(243,166,116)" fill-opacity="0.502"/>
<g transform="translate(1792.00 3440.00) rotate(217) scale(176.00 272.00)"><ellipse cx="0" cy="0" rx="1" ry="1" fill="rgb(190,175,148)" fill-opacity="0.502"/></g>
<polygon points="3263.79,3248.97 3729.88,3418.61 3664.21,3599.03 3198.12,3429.39" fill="rgb(151,122,86)" fill-opacity="0.502"/>
<g transform="translate(6480.00 1408.00) rotate(125) scale(96.00 416.00)"><ellipse cx="0" cy="0" rx="1" ry="1" fill="rgb(197,161,126)" fill-opacity="0.502"/></g>
<circle cx="2928.00" cy="3472.00" r="160.00" fill="rgb(150,130,101)" fill-opacity="0.502"/>
<polygon points="2368.00,3152.00 2368.00,3024.00 2720.00,3024.00 2720.00,3152.00" fill="rgb(135,84,57)" fill-opacity="0.502"/>
<circle cx="5760.00" cy="3424.00" r="352.00" fill="rgb(132,87,59)" fill-opacity="0.502"/>
<circle cx="6256.00" cy="1120.00" r="192.00" fill="rgb(235,191,159)" fill-opacity="0.502"/>
<g transform="translate(3792.00 2512.00) rotate(20) scale(336.00 112.00)"><ellipse cx="0" cy="0" rx="1" ry="1" fill="rgb(205,115,66)" fill-opacity="0.502"/></g>
<circle cx="6912.00" cy="2960.00" r="192.00" fill="rgb(42,31,23)" fill-opacity="0.502"/>
<circle cx="4496.00" cy="1312.00" r="128.00" fill="rgb(223,177,134)" fill-opacity="0.502"/>
<circle cx="1200.00" cy="768.00" r="80.00" fill="rgb(245,253,228)" fill-opacity="0.502"/>
<g transform="translate(6592.00 3328.00) rotate(12) scale(528.00 80.00)"><ellipse cx="0" cy="0" rx="1" ry="1" fill="rgb(131,64,47)" fill-opacity="0.502"/></g>
<g transform="translate(5856.00 448.00) rotate(85) scale(64.00 272.00)"><ellipse cx="0" cy="0" rx="1" ry="1" fill="rgb(255,255,237)" fill-opacity="0.502"/></g>
<g transform="translate(1712.00 2064.00) rotate(279) scale(352.00 64.00)"><ellipse cx="0" cy="0" rx="1" ry="1" fill="rgb(255,255,245)" fill-opacity="0.502"/></g>
<g transform="translate(3552.00 4592.00) rotate(360) scale(384.00 256.00)"><ellipse cx="0" cy="0" rx="1" ry="1" fill="rgb(95,51,29)" fill-opacity="0.502"/></g>
<circle cx="1600.00" cy="4304.00" r="320.00" fill="rgb(174,181,163)" fill-opacity="0.502"/>
<circle cx="3808.00" cy="3344.00" r="224.00" fill="rgb(144,107,71)" fill-opacity="0.502"/>
<circle cx="6736.00" cy="2176.00" r="144.00" fill="rgb(136,70,56)" fill-opacity="0.502"/>
<g transform="translate(1312.00 3744.00) rotate(193) scale(160.00 560.00)"><ellipse cx="0" cy="0" rx="1" ry="1" fill="rgb(141,90,66)" fill-opacity="0.502"/></g>
<circle cx="3584.00" cy="2256.00" r="176.00" fill="rgb(164,121,23)" fill-opacity="0.502"/>
<circle cx="2416.00" cy="2576.00" r="112.00" fill="rgb(146,96,29)" fill-opacity="0.502"/>
<polygon points="2997.08,3895.87 2941.41,3499.76 3194.92,3464.13 3250.59,3860.24" fill="rgb(93,61,35)" fill-opacity="0.502"/>
<polygon points="2905.48,4193.31 3106.86,4442.00 2982.52,4542.69 2781.14,4294.00" fill="rgb(160,146,123)" fill-opacity="0.502"/>
<circle cx="320.00" cy="2048.00" r="784.00" fill="rgb(0,0,0)" fill-opacity="0.502"/>
<polygon points="1784.61,1530.82 2288.66,1190.83 2503.39,1509.18 1999.34,1849.17" fill="rgb(254,241,220)" fill-opacity="0.502"/>
<g transform="translate(2880.00 2256.00) rotate(5) scale(208.00 144.00)"><ellipse cx="0" cy="0" rx="1" ry="1" fill="rgb(82,70,0)" fill-opacity="0.502"/></g>
<polygon points="4243.13,2749.51 4191.67,2581.20 4252.87,2562.49 4304.33,2730.80" fill="rgb(255,215,180)" fill-opacity="0.502"/>
<polygon points="5920.00,640.00 6528.00,640.00 6528.00,784.00 5920.00,784.00" fill="rgb(255,247,234)" fill-opacity="0.502"/>
<circle cx="3344.00" cy="3184.00" r="176.00" fill="rgb(141,109,76)" fill-opacity="0.502"/>
<polygon points="5860.23,2930.38 6208.25,2768.10 6363.77,3101.62 6015.75,3263.90" fill="rgb(76,31,22)" fill-opacity="0.502"/>
<g transform="translate(6320.00 2800.00) rotate(242) scale(128.00 96.00)"><ellipse cx="0" cy="0" rx="1" ry="1" fill="rgb(125,59,30)" fill-opacity="0.502"/></g>
<g transform="translate(5792.00 608.00) rotate(18) scale(192.00 96.00)"><ellipse cx="0" cy="0" rx="1" ry="1" fill="rgb(196,171,152)" fill-opacity="0.502"/></g>
<polygon points="6953.85,2077.48 6704.15,1852.65 6886.15,1650.52 7135.85,1875.35" fill="rgb(85,32,11)" fill-opacity="0.502"/>
<g transform="translate(2208.00 624.00) rotate(3) scale(384.00 32.00)"><ellipse cx="0" cy="0" rx="1" ry="1" fill="rgb(194,166,139)" fill-opacity="0.502"/></g>
<polygon points="5429.38,135.94 5436.15,150.44 4986.62,360.06 4979.85,345.56" fill="rgb(57,48,4)" fill-opacity="0.502"/>
<circle cx="3328.00" cy="1888.00" r="112.00" fill="rgb(229,170,21)" fill-opacity="0.502"/>
<polygon points="1197.69,3962.90 1425.45,3399.18 1618.31,3477.10 1390.55,4040.82" fill="rgb(114,89,67)" fill-opacity="0.502"/>
<circle cx="6544.00" cy="864.00" r="96.00" fill="rgb(187,139,110)" fill-opacity="0.502"/>
<polygon points="6032.00,2224.00 6720.00,2224.00 6720.00,2592.00 6032.00,2592.00" fill="rgb(231,141,77)" fill-opacity="0.502"/>
<polygon points="2266.94,3541.65 2635.54,3873.53 2325.06,4218.35 1956.46,3886.47" fill="rgb(186,204,190)" fill-opacity="0.502"/>
<g transform="translate(5776.00 3872.00) rotate(19) scale(240.00 240.00)"><ellipse cx="0" cy="0" rx="1" ry="1" fill="rgb(50,27,16)" fill-opacity="0.502"/></g>
<g transform="translate(5920.00 1408.00) rotate(15) scale(80.00 160.00)"><ellipse cx="0" cy="0" rx="1" ry="1" fill="rgb(159,109,16)" fill-opacity="0.502"/></g>
<polygon points="6118.63,2208.78 6456.90,2571.54 6281.37,2735.22 5943.10,2372.46" fill="rgb(218,138,77)" fill-opacity="0.502"/>
<polygon points="6408.72,555.62 6283.07,531.20 6295.28,468.38 6420.93,492.80" fill="rgb(142,109,87)" fill-opacity="0.502"/>
<polygon points="6874.69,1513.68 6560.57,1452.62 6661.31,934.32 6975.43,995.38" fill="rgb(252,231,211)" fill-opacity="0.502"/>
<g transform="translate(944.00 2752.00) rotate(279) scale(480.00 144.00)"><ellipse cx="0" cy="0" rx="1" ry="1" fill="rgb(0,0,0)" fill-opacity="0.502"/></g>
<polygon points="6759.86,4281.02 6896.67,3905.14 7528.14,4134.98 7391.33,4510.86" fill="rgb(0,0,0)" fill-opacity="0.502"/>
<polygon points="4185.19,1712.53 4515.02,1776.64 4502.81,1839.47 4172.98,1775.36" fill="rgb(67,21,0)" fill-opacity="0.502"/>
<polygon points="3665.48,1603.50 4095.84,1565.84 4126.52,1916.50 3696.16,1954.16" fill="rgb(195,146,23)" fill-opacity="0.502"/>
<polygon points="7063.49,536.86 7103.08,708.35 6744.51,791.14 6704.92,619.65" fill="rgb(188,167,126)" fill-opacity="0.502"/>
<polygon points="6414.66,2928.45 6476.59,3176.84 6321.34,3215.55 6259.41,2967.16" fill="rgb(33,13,7)" fill-opacity="0.502"/>
<polygon points="1141.63,2084.04 1285.43,2076.51 1306.37,2475.96 1162.57,2483.49" fill="rgb(217,127,63)" fill-opacity="0.502"/>
<circle cx="1296.00" cy="1952.00" r="144.00" fill="rgb(255,253,236)" fill-opacity="0.502"/>
<circle cx="2224.00" cy="2208.00" r="144.00" fill="rgb(163,119,85)" fill-opacity="0.502"/>
<circle cx="1952.00" cy="2960.00" r="64.00" fill="rgb(220,119,110)" fill-opacity="0.502"/>
<circle cx="4848.00" cy="880.00" r="112.00" fill="rgb(254,237,204)" fill-opacity="0.502"/>
<polygon points="6645.91,3793.36 6282.83,3918.38 6090.09,3358.64 6453.17,3233.62" fill="rgb(148,97,62)" fill-opacity="0.502"/>
<polygon points="5009.88,3541.14 4214.26,3624.76 4174.12,3242.86 4969.74,3159.24" fill="rgb(171,123,85)" fill-opacity="0.502"/>
<polygon points="4752.97,667.59 5105.76,447.15 5199.03,596.41 4846.24,816.85" fill="rgb(255,234,222)" fill-opacity="0.502"/>
<polygon points="-295.36,1034.18 -16.27,267.39 1111.36,677.82 832.27,1444.61" fill="rgb(0,0,0)" fill-opacity="0.502"/>
<g transform="translate(6464.00 0.00) rotate(212) scale(240.00 464.00)"><ellipse cx="0" cy="0" rx="1" ry="1" fill="rgb(153,123,89)" fill-opacity="0.502"/></g>
<circle cx="6144.00" cy="1504.00" r="112.00" fill="rgb(231,196,177)" fill-opacity="0.502"/>
<g transform="translate(3696.00 4048.00) rotate(309) scale(464.00 496.00)"><ellipse cx="0" cy="0" rx="1" ry="1" fill="rgb(119,68,41)" fill-opacity="0.502"/></g>
<circle cx="3888.00" cy="3088.00" r="128.00" fill="rgb(185,128,95)" fill-opacity="0.502"/>
<g transform="translate(2544.00 400.00) rotate(142) scale(96.00 336.00)"><ellipse cx="0" cy="0" rx="1" ry="1" fill="rgb(195,161,127)" fill-opacity="0.502"/></g>
<g transform="translate(2432.00 3024.00) rotate(161) scale(416.00 112.00)"><ellipse cx="0" cy="0" rx="1" ry="1" fill="rgb(96,57,43)" fill-opacity="0.502"/></g>
<polygon points="1280.00,3168.00 1280.00,2896.00 1424.00,2896.00 1424.00,3168.00" fill="rgb(109,15,7)" fill-opacity="0.502"/>
<polygon points="2270.14,1619.78 2121.38,1938.80 1729.86,1756.22 1878.62,1437.20" fill="rgb(253,252,243)" fill-opacity="0.502"/>
<polygon points="3736.74,2923.60 3642.27,3032.28 3159.26,2612.40 3253.73,2503.72" fill="rgb(86,49,38)" fill-opacity="0.502"/>
<polygon points="4471.38,2827.70 4473.05,2779.73 5176.62,2804.30 5174.95,2852.27" fill="rgb(222,177,156)" fill-opacity="0.502"/>
<circle cx="6368.00" cy="4592.00" r="176.00" fill="rgb(88,56,36)" fill-opacity="0.502"/>
<polygon points="6376.00,1608.00 6376.00,1480.00 6616.00,1480.00 6616.00,1608.00" fill="rgb(146,110,71)" fill-opacity="0.502"/>
<polygon points="7075.93,806.08 7084.03,1270.01 6860.07,1273.92 6851.97,809.99" fill="rgb(246,223,208)" fill-opacity="0.502"/>
<polygon points="6040.05,2429.65 5949.84,2462.49 5927.95,2402.35 6018.16,2369.51" fill="rgb(127,56,25)" fill-opacity="0.502"/>
<polygon points="4285.39,2894.93 4237.42,2896.60 4210.61,2129.07 4258.58,2127.40" fill="rgb(252,220,189)" fill-opacity="0.502"/>
<g transform="translate(752.00 3376.00) rotate(174) scale(352.00 544.00)"><ellipse cx="0" cy="0" rx="1" ry="1" fill="rgb(0,0,0)" fill-opacity="0.502"/></g>
<g transform="translate(1504.00 2544.00) rotate(356) scale(128.00 16.00)"><ellipse cx="0" cy="0" rx="1" ry="1" fill="rgb(216,180,119)" fill-opacity="0.502"/></g>
<circle cx="6880.00" cy="3728.00" r="208.00" fill="rgb(129,81,47)" fill-opacity="0.502"/>
<g transform="translate(6272.00 144.00) rotate(25) scale(96.00 384.00)"><ellipse cx="0" cy="0" rx="1" ry="1" fill="rgb(167,142,108)" fill-opacity="0.502"/></g>
<g transform="translate(2240.00 1808.00) rotate(229) scale(80.00 96.00)"><ellipse cx="0" cy="0" rx="1" ry="1" fill="rgb(203,169,145)" fill-opacity="0.502"/></g>
<g transform="translate(928.00 4240.00) rotate(2) scale(176.00 800.00)"><ellipse cx="0" cy="0" rx="1" ry="1" fill="rgb(0,0,0)" fill-opacity="0.502"/></g>
<polygon points="3505.12,1148.38 3670.37,837.58 3726.88,867.62 3561.63,1178.42" fill="rgb(253,242,235)" fill-opacity="0.502"/>
<polygon points="2440.61,3160.18 2461.98,3270.12 1959.39,3367.82 1938.02,3257.88" fill="rgb(235,221,194)" fill-opacity="0.502"/>
<g transform="translate(5440.00 1360.00) rotate(29) scale(128.00 368.00)"><ellipse cx="0" cy="0" rx="1" ry="1" fill="rgb(176,161,102)" fill-opacity="0.502"/></g>
<polygon points="3037.60,4520.71 1878.30,4663.05 1874.40,4631.29 3033.70,4488.95" fill="rgb(162,143,117)" fill-opacity="0.502"/>
<polygon points="4744.25,2454.08 4868.11,1957.28 5271.75,2057.92 5147.89,2554.72" fill="rgb(221,158,116)" fill-opacity="0.502"/>
<polygon points="3657.50,2789.90 3356.80,2899.35 3318.50,2794.10 3619.20,2684.65" fill="rgb(126,93,74)" fill-opacity="0.502"/>
<g transform="translate(5312.00 3696.00) rotate(91) scale(80.00 1008.00)"><ellipse cx="0" cy="0" rx="1" ry="1" fill="rgb(95,57,33)" fill-opacity="0.502"/></g>
<polygon points="3797.70,1986.21 3709.79,1797.70 3898.30,1709.79 3986.21,1898.30" fill="rgb(177,121,19)" fill-opacity="0.502"/>
<polygon points="2054.72,960.99 1115.90,862.31 1129.28,735.01 2068.10,833.69" fill="rgb(226,241,234)" fill-opacity="0.502"/>
<g transform="translate(4048.00 2864.00) rotate(99) scale(48.00 384.00)"><ellipse cx="0" cy="0" rx="1" ry="1" fill="rgb(156,111,87)" fill-opacity="0.502"/></g>
<polygon points="6168.00,1944.00 6168.00,1656.00 6632.00,1656.00 6632.00,1944.00" fill="rgb(79,28,7)" fill-opacity="0.502"/>
<g transform="translate(2608.00 4336.00) rotate(354) scale(416.00 128.00)"><ellipse cx="0" cy="0" rx="1" ry="1" fill="rgb(179,168,134)" fill-opacity="0.502"/></g>
<circle cx="6160.00" cy="224.00" r="48.00" fill="rgb(255,239,205)" fill-opacity="0.502"/>
<g transform="translate(4752.00 3808.00) rotate(183) scale(816.00 48.00)"><ellipse cx="0" cy="0" rx="1" ry="1" fill="rgb(146,98,69)" fill-opacity="0.502"/></g>
<circle cx="4224.00" cy="1568.00" r="176.00" fill="rgb(210,173,138)" fill-opacity="0.502"/>
<polygon points="1829.46,1344.45 2017.97,1256.54 2058.54,1343.55 1870.03,1431.46" fill="rgb(206,145,108)" fill-opacity="0.502"/>
<g transform="translate(2256.00 352.00) rotate(33) scale(96.00 96.00)"><ellipse cx="0" cy="0" rx="1" ry="1" fill="rgb(226,238,197)" fill-opacity="0.502"/></g>
<polygon points="5047.17,324.45 4543.84,569.93 4536.83,555.55 5040.16,310.07" fill="rgb(76,62,27)" fill-opacity="0.502"/>
<circle cx="7056.00" cy="1808.00" r="160.00" fill="rgb(16,12,0)" fill-opacity="0.502"/>
<polygon points="2688.00,176.00 4576.00,176.00 4576.00,464.00 2688.00,464.00" fill="rgb(226,229,184)" fill-opacity="0.502"/>
<circle cx="5504.00" cy="528.00" r="32.00" fill="rgb(164,133,118)" fill-opacity="0.502"/>
<circle cx="5856.00" cy="1776.00" r="192.00" fill="rgb(157,112,13)" fill-opacity="0.502"/>
<circle cx="1520.00" cy="640.00" r="112.00" fill="rgb(178,129,103)" fill-opacity="0.502"/>
<polygon points="4156.97,2590.43 4418.56,2354.89 4547.03,2497.57 4285.44,2733.11" fill="rgb(187,126,85)" fill-opacity="0.502"/>
<circle cx="2640.00" cy="960.00" r="96.00" fill="rgb(191,143,113)" fill-opacity="0.502"/>
<g transform="translate(5248.00 576.00) rotate(25) scale(176.00 208.00)"><ellipse cx="0" cy="0" rx="1" ry="1" fill="rgb(243,215,198)" fill-opacity="0.502"/></g>
<polygon points="5842.57,1306.70 5821.35,1914.33 5677.43,1909.30 5698.65,1301.67" fill="rgb(113,83,20)" fill-opacity="0.502"/>
<polygon points="5226.38,973.52 5013.34,904.30 5077.62,706.48 5290.66,775.70" fill="rgb(224,151,120)" fill-opacity="0.502"/>
<polygon points="5471.88,3771.63 5373.83,3853.91 5312.12,3780.37 5410.17,3698.09" fill="rgb(55,22,8)" fill-opacity="0.502"/>
<circle cx="304.00" cy="4480.00" r="800.00" fill="rgb(0,0,0)" fill-opacity="0.502"/>
<g transform="translate(3296.00 688.00) rotate(0) scale(528.00 80.00)"><ellipse cx="0" cy="0" rx="1" ry="1" fill="rgb(225,242,226)" fill-opacity="0.502"/></g>
<polygon points="6415.78,350.36 5959.21,156.55 5984.22,97.64 6440.79,291.45" fill="rgb(255,246,217)" fill-opacity="0.502"/>
<circle cx="4896.00" cy="1088.00" r="144.00" fill="rgb(219,189,112)" fill-opacity="0.502"/>
<polygon points="3122.04,1346.82 3440.82,1374.71 3405.96,1773.18 3087.18,1745.29" fill="rgb(242,239,220)" fill-opacity="0.502"/>
<polygon points="2049.65,2360.79 2096.10,2547.09 1630.35,2663.21 1583.90,2476.91" fill="rgb(76,47,8)" fill-opacity="0.502"/>
<circle cx="1744.00" cy="2928.00" r="128.00" fill="rgb(175,98,77)" fill-opacity="0.502"/>
<polygon points="4780.28,874.01 4685.30,933.36 4515.72,661.99 4610.70,602.64" fill="rgb(190,164,120)" fill-opacity="0.502"/>
<g transform="translate(2768.00 1696.00) rotate(260) scale(208.00 320.00)"><ellipse cx="0" cy="0" rx="1" ry="1" fill="rgb(255,255,255)" fill-opacity="0.502"/></g>
<g transform="translate(2000.00 528.00) rotate(35) scale(96.00 368.00)"><ellipse cx="0" cy="0" rx="1" ry="1" fill="rgb(228,215,184)" fill-opacity="0.502"/></g>
<g transform="translate(3808.00 4080.00) rotate(59) scale(224.00 240.00)"><ellipse cx="0" cy="0" rx="1" ry="1" fill="rgb(130,78,49)" fill-opacity="0.502"/></g>
<circle cx="6928.00" cy="320.00" r="160.00" fill="rgb(157,124,81)" fill-opacity="0.502"/>
<polygon points="1368.82,2939.34 1284.22,2749.32 1591.18,2612.66 1675.78,2802.68" fill="rgb(111,56,0)" fill-opacity="0.502"/>
<polygon points="3818.44,2833.08 3860.40,2936.93 3845.56,2942.92 3803.60,2839.07" fill="rgb(2,0,0)" fill-opacity="0.502"/>
<circle cx="2976.00" cy="0.00" r="288.00" fill="rgb(243,243,226)" fill-opacity="0.502"/>
<g transform="translate(5792.00 48.00) rotate(204) scale(672.00 16.00)"><ellipse cx="0" cy="0" rx="1" ry="1" fill="rgb(255,255,241)" fill-opacity="0.502"/></g>
<g transform="translate(4240.00 3296.00) rotate(335) scale(80.00 192.00)"><ellipse cx="0" cy="0" rx="1" ry="1" fill="rgb(202,149,112)" fill-opacity="0.502"/></g>
<circle cx="2672.00" cy="3568.00" r="208.00" fill="rgb(173,193,172)" fill-opacity="0.502"/>
<circle cx="1824.00" cy="752.00" r="80.00" fill="rgb(243,250,247)" fill-opacity="0.502"/>
<circle cx="160.00" cy="304.00" r="928.00" fill="rgb(0,0,0)" fill-opacity="0.502"/>
<g transform="translate(2256.00 4592.00) rotate(349) scale(592.00 80.00)"><ellipse cx="0" cy="0" rx="1" ry="1" fill="rgb(150,127,97)" fill-opacity="0.502"/></g>
<circle cx="1376.00" cy="1216.00" r="240.00" fill="rgb(139,93,56)" fill-opacity="0.502"/>
<polygon points="6347.61,553.85 6394.49,417.69 6500.39,454.15 6453.51,590.31" fill="rgb(165,133,98)" fill-opacity="0.502"/>
<circle cx="6208.00" cy="2480.00" r="208.00" fill="rgb(222,140,78)" fill-opacity="0.502"/>
<polygon points="1905.94,3638.96 1657.04,3390.06 1838.06,3209.04 2086.96,3457.94" fill="rgb(181,184,159)" fill-opacity="0.502"/>
<circle cx="3520.00" cy="1872.00" r="112.00" fill="rgb(201,151,0)" fill-opacity="0.502"/>
<polygon points="5702.28,100.87 5724.07,143.64 5481.72,267.13 5459.93,224.36" fill="rgb(131,89,57)" fill-opacity="0.502"/>
<g transform="translate(5264.00 4432.00) rotate(117) scale(208.00 288.00)"><ellipse cx="0" cy="0" rx="1" ry="1" fill="rgb(112,71,47)" fill-opacity="0.502"/></g>
<polygon points="5874.25,3262.05 6183.35,3179.22 6253.75,3441.95 5944.65,3524.78" fill="rgb(152,97,61)" fill-opacity="0.502"/>
<circle cx="2288.00" cy="2464.00" r="96.00" fill="rgb(163,106,25)" fill-opacity="0.502"/>
<polygon points="4993.93,2163.94 5095.62,1964.35 5566.07,2204.06 5464.38,2403.65" fill="rgb(224,150,105)" fill-opacity="0.502"/>
<polygon points="1824.00,3392.00 2400.00,3392.00 2400.00,3616.00 1824.00,3616.00" fill="rgb(174,186,157)" fill-opacity="0.502"/>
<polygon points="3288.91,2107.89 3583.07,2354.72 3367.09,2612.11 3072.93,2365.28" fill="rgb(135,85,55)" fill-opacity="0.502"/>
<circle cx="2976.00" cy="1984.00" r="80.00" fill="rgb(248,184,143)" fill-opacity="0.502"/>
<polygon points="5804.75,228.95 5761.18,296.05 5667.25,235.05 5710.82,167.95" fill="rgb(178,145,104)" fill-opacity="0.502"/>
<circle cx="2304.00" cy="3104.00" r="80.00" fill="rgb(137,102,73)" fill-opacity="0.502"/>
<circle cx="5152.00" cy="0.00" r="224.00" fill="rgb(240,242,211)" fill-opacity="0.502"/>
<circle cx="6992.00" cy="3504.00" r="96.00" fill="rgb(125,83,65)" fill-opacity="0.502"/>
<circle cx="3648.00" cy="2928.00" r="112.00" fill="rgb(68,38,21)" fill-opacity="0.502"/>
<polygon points="2357.04,2205.24 1837.06,2113.55 1850.96,2034.76 2370.94,2126.45" fill="rgb(134,95,29)" fill-opacity="0.502"/>
<g transform="translate(4528.00 2960.00) rotate(28) scale(176.00 128.00)"><ellipse cx="0" cy="0" rx="1" ry="1" fill="rgb(182,88,59)" fill-opacity="0.502"/></g>
<g transform="translate(5824.00 2160.00) rotate(276) scale(224.00 128.00)"><ellipse cx="0" cy="0" rx="1" ry="1" fill="rgb(218,154,117)" fill-opacity="0.502"/></g>
<polygon points="3983.81,2058.56 3984.09,2074.55 3360.19,2085.44 3359.91,2069.45" fill="rgb(255,255,234)" fill-opacity="0.502"/>
<polygon points="4464.00,2864.00 4000.00,2864.00 4000.00,2848.00 4464.00,2848.00" fill="rgb(87,40,24)" fill-opacity="0.502"/>
<polygon points="4861.49,1599.64 4570.51,1431.64 4722.51,1168.36 5013.49,1336.36" fill="rgb(186,148,61)" fill-opacity="0.502"/>
<polygon points="4155.59,1803.82 4175.37,1742.96 4388.41,1812.18 4368.63,1873.04" fill="rgb(136,86,16)" fill-opacity="0.502"/>
<g transform="translate(7632.00 192.00) rotate(143) scale(480.00 656.00)"><ellipse cx="0" cy="0" rx="1" ry="1" fill="rgb(0,0,0)" fill-opacity="0.502"/></g>
<circle cx="2656.00" cy="2304.00" r="112.00" fill="rgb(146,125,62)" fill-opacity="0.502"/>
<g transform="translate(4928.00 160.00) rotate(22) scale(128.00 240.00)"><ellipse cx="0" cy="0" rx="1" ry="1" fill="rgb(241,236,201)" fill-opacity="0.502"/></g>
<circle cx="2576.00" cy="224.00" r="80.00" fill="rgb(154,124,82)" fill-opacity="0.502"/>
<g transform="translate(3344.00 496.00) rotate(25) scale(288.00 160.00)"><ellipse cx="0" cy="0" rx="1" ry="1" fill="rgb(221,203,172)" fill-opacity="0.502"/></g>
<polygon points="2502.29,2334.74 2683.54,2110.92 2745.71,2161.26 2564.46,2385.08" fill="rgb(200,160,125)" fill-opacity="0.502"/>
<circle cx="6000.00" cy="256.00" r="80.00" fill="rgb(141,136,75)" fill-opacity="0.502"/>
<g transform="translate(4480.00 1760.00) rotate(91) scale(80.00 176.00)"><ellipse cx="0" cy="0" rx="1" ry="1" fill="rgb(100,41,19)" fill-opacity="0.502"/></g>
<circle cx="4160.00" cy="1424.00" r="48.00" fill="rgb(245,255,225)" fill-opacity="0.502"/>
<polygon points="1203.44,61.06 1529.46,142.35 1436.56,514.94 1110.54,433.65" fill="rgb(219,221,191)" fill-opacity="0.502"/>
<g transform="translate(4304.00 1904.00) rotate(286) scale(64.00 352.00)"><ellipse cx="0" cy="0" rx="1" ry="1" fill="rgb(230,149,85)" fill-opacity="0.502"/></g>
<g transform="translate(6896.00 2528.00) rotate(216) scale(240.00 96.00)"><ellipse cx="0" cy="0" rx="1" ry="1" fill="rgb(217,133,80)" fill-opacity="0.502"/></g>
<polygon points="1492.17,3889.30 2159.74,4159.01 2075.83,4366.70 1408.26,4096.99" fill="rgb(173,187,172)" fill-opacity="0.502"/>
<polygon points="1091.81,1888.34 895.42,1485.68 924.19,1471.66 1120.58,1874.32" fill="rgb(0,0,0)" fill-opacity="0.502"/>
<polygon points="5539.60,1788.03 5252.69,1762.93 5276.40,1491.97 5563.31,1517.07" fill="rgb(146,143,69)" fill-opacity="0.502"/>
<polygon points="4746.00,2089.52 4522.85,2070.00 4534.00,1942.48 4757.15,1962.00" fill="rgb(245,200,159)" fill-opacity="0.502"/>
<polygon points="6260.87,1221.42 6125.64,1511.44 5995.13,1450.58 6130.36,1160.56" fill="rgb(196,148,108)" fill-opacity="0.502"/>
<circle cx="1824.00" cy="608.00" r="48.00" fill="rgb(117,87,55)" fill-opacity="0.502"/>
<circle cx="6480.00" cy="1360.00" r="48.00" fill="rgb(103,62,42)" fill-opacity="0.502"/>
<g transform="translate(1568.00 4592.00) rotate(299) scale(208.00 512.00)"><ellipse cx="0" cy="0" rx="1" ry="1" fill="rgb(179,165,144)" fill-opacity="0.502"/></g>
<circle cx="2800.00" cy="2848.00" r="112.00" fill="rgb(8,46,120)" fill-opacity="0.502"/>
<polygon points="4576.05,1211.95 4612.05,1056.05 4767.95,1092.05 4731.95,1247.95" fill="rgb(120,95,56)" fill-opacity="0.502"/>
<circle cx="5344.00" cy="3248.00" r="192.00" fill="rgb(170,105,77)" fill-opacity="0.502"/>
<g transform="translate(1824.00 2160.00) rotate(209) scale(48.00 288.00)"><ellipse cx="0" cy="0" rx="1" ry="1" fill="rgb(210,178,129)" fill-opacity="0.502"/></g>
<g transform="translate(6096.00 1664.00) rotate(344) scale(176.00 32.00)"><ellipse cx="0" cy="0" rx="1" ry="1" fill="rgb(220,121,80)" fill-opacity="0.502"/></g>
<g transform="translate(5488.00 656.00) rotate(242) scale(64.00 192.00)"><ellipse cx="0" cy="0" rx="1" ry="1" fill="rgb(255,235,215)" fill-opacity="0.502"/></g>
<g transform="translate(6256.00 4592.00) rotate(89) scale(48.00 832.00)"><ellipse cx="0" cy="0" rx="1" ry="1" fill="rgb(103,71,47)" fill-opacity="0.502"/></g>
<circle cx="1168.00" cy="1664.00" r="80.00" fill="rgb(255,255,255)" fill-opacity="0.502"/>
<polygon points="5441.67,3992.61 5752.47,4157.86 5662.33,4327.39 5351.53,4162.14" fill="rgb(63,30,16)" fill-opacity="0.502"/>
<polygon points="3793.32,1412.81 3773.36,1318.91 4430.68,1179.19 4450.64,1273.09" fill="rgb(226,196,175)" fill-opacity="0.502"/>
<polygon points="6004.28,465.77 6038.23,499.72 5947.72,590.23 5913.77,556.28" fill="rgb(140,121,97)" fill-opacity="0.502"/>
<polygon points="1871.52,2615.56 1967.88,2508.55 2336.48,2840.44 2240.12,2947.45" fill="rgb(39,39,5)" fill-opacity="0.502"/>
<polygon points="5226.13,1360.22 5293.96,1468.77 4981.87,1663.78 4914.04,1555.23" fill="rgb(206,192,89)" fill-opacity="0.502"/>
<polygon points="4770.91,529.85 4749.86,486.71 5325.09,206.15 5346.14,249.29" fill="rgb(255,255,252)" fill-opacity="0.502"/>
<g transform="translate(2480.00 1008.00) rotate(132) scale(64.00 96.00)"><ellipse cx="0" cy="0" rx="1" ry="1" fill="rgb(195,144,114)" fill-opacity="0.502"/></g>
<polygon points="4121.66,3583.46 4911.81,3458.31 4934.34,3600.54 4144.19,3725.69" fill="rgb(139,91,55)" fill-opacity="0.502"/>
<polygon points="6296.13,3085.47 6129.41,3258.11 6071.87,3202.53 6238.59,3029.89" fill="rgb(96,44,19)" fill-opacity="0.502"/>
<polygon points="4718.60,1460.47 4682.93,1428.35 4993.40,1083.53 5029.07,1115.65" fill="rgb(168,139,52)" fill-opacity="0.502"/>
<circle cx="6560.00" cy="4096.00" r="240.00" fill="rgb(25,11,1)" fill-opacity="0.502"/>
<g transform="translate(1424.00 1632.00) rotate(79) scale(112.00 128.00)"><ellipse cx="0" cy="0" rx="1" ry="1" fill="rgb(249,237,217)" fill-opacity="0.502"/></g>
<g transform="translate(352.00 1984.00) rotate(11) scale(704.00 1600.00)"><ellipse cx="0" cy="0" rx="1" ry="1" fill="rgb(0,0,0)" fill-opacity="0.502"/></g>
<circle cx="3936.00" cy="2912.00" r="80.00" fill="rgb(116,59,40)" fill-opacity="0.502"/>
<polygon points="4555.09,2270.48 4465.65,2203.08 4484.91,2177.52 4574.35,2244.92" fill="rgb(131,80,23)" fill-opacity="0.502"/>
<circle cx="3072.00" cy="2272.00" r="80.00" fill="rgb(50,35,0)" fill-opacity="0.502"/>
<circle cx="1344.00" cy="3616.00" r="128.00" fill="rgb(165,117,102)" fill-opacity="0.502"/>
<polygon points="2239.36,1465.71 2240.75,1385.72 2960.64,1398.29 2959.25,1478.28" fill="rgb(225,216,197)" fill-opacity="0.502"/>
<polygon points="5448.00,2984.00 5448.00,2904.00 5928.00,2904.00 5928.00,2984.00" fill="rgb(84,30,21)" fill-opacity="0.502"/>
<polygon points="5124.38,1995.71 5330.08,1750.58 5403.62,1812.29 5197.92,2057.42" fill="rgb(56,29,25)" fill-opacity="0.502"/>
<polygon points="4699.26,467.72 4636.28,395.26 4708.74,332.28 4771.72,404.74" fill="rgb(229,235,183)" fill-opacity="0.502"/>
<polygon points="3119.87,1866.91 3159.19,1894.45 3104.13,1973.09 3064.81,1945.55" fill="rgb(238,188,98)" fill-opacity="0.502"/>
<g transform="translate(3392.00 896.00) rotate(149) scale(128.00 112.00)"><ellipse cx="0" cy="0" rx="1" ry="1" fill="rgb(178,128,76)" fill-opacity="0.502"/></g>
<g transform="translate(4944.00 2880.00) rotate(355) scale(144.00 176.00)"><ellipse cx="0" cy="0" rx="1" ry="1" fill="rgb(126,57,37)" fill-opacity="0.502"/></g>
</g>
</svg>