<?xml version="1.0" standalone="no"?>
<svg xmlns="http://www.w3.org/2000/svg" width="8192" height="4608" viewBox="0 0 8192 4608" style="overflow:hidden">
<defs>
<clipPath id="c"><rect x="0" y="0" width="8192" height="4608"/></clipPath>
</defs>
<rect width="8192" height="4608" fill="rgb(52,39,33)"/>
<g clip-path="url(#c)">
<polygon points="5786.33,4459.26 3785.36,4704.95 3461.67,2068.74 5462.64,1823.05" fill="rgb(255,249,247)" fill-opacity="0.502"/>
<circle cx="3440.00" cy="2288.00" r="320.00" fill="rgb(255,255,255)" fill-opacity="0.502"/>
<circle cx="2928.00" cy="4304.00" r="480.00" fill="rgb(222,173,139)" fill-opacity="0.502"/>
<circle cx="7040.00" cy="1472.00" r="1776.00" fill="rgb(0,0,0)" fill-opacity="0.502"/>
<g transform="translate(1424.00 3520.00) rotate(259) scale(976.00 2752.00)"><ellipse cx="0" cy="0" rx="1" ry="1" fill="rgb(0,0,0)" fill-opacity="0.502"/></g>
<g transform="translate(0.00 1536.00) rotate(90) scale(8176.00 1136.00)"><ellipse cx="0" cy="0" rx="1" ry="1" fill="rgb(0,0,0)" fill-opacity="0.502"/></g>
<circle cx="3328.00" cy="400.00" r="1680.00" fill="rgb(121,44,5)" fill-opacity="0.502"/>
<g transform="translate(3968.00 3760.00) rotate(66) scale(464.00 432.00)"><ellipse cx="0" cy="0" rx="1" ry="1" fill="rgb(95,23,0)" fill-opacity="0.502"/></g>
<circle cx="4560.00" cy="2576.00" r="544.00" fill="rgb(255,255,255)" fill-opacity="0.502"/>
<g transform="translate(7840.00 3440.00) rotate(269) scale(6960.00 768.00)"><ellipse cx="0" cy="0" rx="1" ry="1" fill="rgb(0,0,0)" fill-opacity="0.502"/></g>
<g transform="translate(1952.00 4416.00) rotate(338) scale(1568.00 160.00)"><ellipse cx="0" cy="0" rx="1" ry="1" fill="rgb(148,114,92)" fill-opacity="0.502"/></g>
<circle cx="6000.00" cy="960.00" r="1136.00" fill="rgb(0,0,0)" fill-opacity="0.502"/>
<circle cx="5216.00" cy="1712.00" r="384.00" fill="rgb(16,12,18)" fill-opacity="0.502"/>
<circle cx="5488.00" cy="4592.00" r="400.00" fill="rgb(253,211,193)" fill-opacity="0.502"/>
<circle cx="6784.00" cy="3616.00" r="224.00" fill="rgb(255,248,236)" fill-opacity="0.502"/>
<g transform="translate(6208.00 3408.00) rotate(178) scale(400.00 2672.00)"><ellipse cx="0" cy="0" rx="1" ry="1" fill="rgb(0,0,4)" fill-opacity="0.502"/></g>
<g transform="translate(5184.00 4080.00) rotate(272) scale(160.00 928.00)"><ellipse cx="0" cy="0" rx="1" ry="1" fill="rgb(96,23,0)" fill-opacity="0.502"/></g>
<g transform="translate(7664.00 3472.00) rotate(91) scale(5248.00 576.00)"><ellipse cx="0" cy="0" rx="1" ry="1" fill="rgb(0,0,0)" fill-opacity="0.502"/></g>
<polygon points="2649.63,2323.26 2663.03,2067.61 3142.37,2092.74 3128.97,2348.39" fill="rgb(227,168,131)" fill-opacity="0.502"/>
<circle cx="1280.00" cy="2272.00" r="208.00" fill="rgb(246,156,117)" fill-opacity="0.502"/>
<polygon points="4610.08,2177.77 4621.81,2849.67 3901.92,2862.23 3890.19,2190.33" fill="rgb(219,241,255)" fill-opacity="0.502"/>
<circle cx="5152.00" cy="3408.00" r="560.00" fill="rgb(223,220,223)" fill-opacity="0.502"/>
<g transform="translate(2448.00 1984.00) rotate(311) scale(592.00 432.00)"><ellipse cx="0" cy="0" rx="1" ry="1" fill="rgb(53,22,5)" fill-opacity="0.502"/></g>
<circle cx="400.00" cy="2032.00" r="768.00" fill="rgb(0,0,0)" fill-opacity="0.502"/>
<polygon points="3298.09,3995.81 2723.49,4035.99 2717.91,3956.19 3292.51,3916.01" fill="rgb(255,255,255)" fill-opacity="0.502"/>
<g transform="translate(5584.00 4544.00) rotate(35) scale(208.00 368.00)"><ellipse cx="0" cy="0" rx="1" ry="1" fill="rgb(200,194,199)" fill-opacity="0.502"/></g>
<circle cx="144.00" cy="752.00" r="992.00" fill="rgb(0,0,0)" fill-opacity="0.502"/>
<circle cx="5344.00" cy="2624.00" r="400.00" fill="rgb(90,131,209)" fill-opacity="0.502"/>
<circle cx="1968.00" cy="3296.00" r="992.00" fill="rgb(0,0,0)" fill-opacity="0.502"/>
<polygon points="4704.00,2336.00 5056.00,2336.00 5056.00,3904.00 4704.00,3904.00" fill="rgb(255,255,255)" fill-opacity="0.502"/>
<circle cx="6784.00" cy="3200.00" r="224.00" fill="rgb(146,130,109)" fill-opacity="0.502"/>
<g transform="translate(528.00 1136.00) rotate(0) scale(592.00 4592.00)"><ellipse cx="0" cy="0" rx="1" ry="1" fill="rgb(0,0,0)" fill-opacity="0.502"/></g>
<g transform="translate(5264.00 4192.00) rotate(88) scale(2448.00 112.00)"><ellipse cx="0" cy="0" rx="1" ry="1" fill="rgb(105,67,33)" fill-opacity="0.502"/></g>
<circle cx="4336.00" cy="4592.00" r="240.00" fill="rgb(68,7,0)" fill-opacity="0.502"/>
<g transform="translate(4224.00 3232.00) rotate(222) scale(592.00 288.00)"><ellipse cx="0" cy="0" rx="1" ry="1" fill="rgb(155,89,56)" fill-opacity="0.502"/></g>
<circle cx="5024.00" cy="4384.00" r="240.00" fill="rgb(240,194,163)" fill-opacity="0.502"/>
<polygon points="1816.60,4260.05 1432.43,4751.77 1079.40,4475.95 1463.57,3984.23" fill="rgb(69,35,22)" fill-opacity="0.502"/>
<g transform="translate(3872.00 4592.00) rotate(266) scale(176.00 1184.00)"><ellipse cx="0" cy="0" rx="1" ry="1" fill="rgb(71,33,2)" fill-opacity="0.502"/></g>
<circle cx="5584.00" cy="3584.00" r="208.00" fill="rgb(227,244,255)" fill-opacity="0.502"/>
<circle cx="1760.00" cy="816.00" r="688.00" fill="rgb(95,41,12)" fill-opacity="0.502"/>
<polygon points="3629.05,4214.95 4940.25,4169.16 4946.95,4361.05 3635.75,4406.84" fill="rgb(255,227,192)" fill-opacity="0.502"/>
<g transform="translate(5472.00 192.00) rotate(102) scale(1872.00 336.00)"><ellipse cx="0" cy="0" rx="1" ry="1" fill="rgb(0,0,0)" fill-opacity="0.502"/></g>
<g transform="translate(1616.00 1888.00) rotate(178) scale(304.00 624.00)"><ellipse cx="0" cy="0" rx="1" ry="1" fill="rgb(74,27,3)" fill-opacity="0.502"/></g>
<circle cx="3056.00" cy="2816.00" r="464.00" fill="rgb(0,6,16)" fill-opacity="0.502"/>
<g transform="translate(4064.00 3952.00) rotate(269) scale(144.00 272.00)"><ellipse cx="0" cy="0" rx="1" ry="1" fill="rgb(37,0,0)" fill-opacity="0.502"/></g>
<g transform="translate(6848.00 4368.00) rotate(135) scale(208.00 256.00)"><ellipse cx="0" cy="0" rx="1" ry="1" fill="rgb(161,133,102)" fill-opacity="0.502"/></g>
<polygon points="5512.85,2915.82 5771.54,2831.76 5895.15,3212.18 5636.46,3296.24" fill="rgb(0,35,144)" fill-opacity="0.502"/>
<circle cx="7920.00" cy="3888.00" r="848.00" fill="rgb(0,0,0)" fill-opacity="0.502"/>
<circle cx="4448.00" cy="2832.00" r="240.00" fill="rgb(219,235,255)" fill-opacity="0.502"/>
<polygon points="3601.45,4630.83 3614.57,3878.94 3742.55,3881.17 3729.43,4633.06" fill="rgb(204,166,138)" fill-opacity="0.502"/>
<g transform="translate(6016.00 2992.00) rotate(257) scale(6368.00 272.00)"><ellipse cx="0" cy="0" rx="1" ry="1" fill="rgb(0,3,13)" fill-opacity="0.502"/></g>
<polygon points="4668.41,3432.90 4336.55,3380.34 4371.59,3159.10 4703.45,3211.66" fill="rgb(67,53,46)" fill-opacity="0.502"/>
<polygon points="4064.46,3805.02 4096.83,3342.15 4623.54,3378.98 4591.17,3841.85" fill="rgb(220,158,128)" fill-opacity="0.502"/>
<polygon points="3984.13,2883.36 3692.12,3243.95 3455.87,3052.64 3747.88,2692.05" fill="rgb(42,24,16)" fill-opacity="0.502"/>
<circle cx="6848.00" cy="4048.00" r="224.00" fill="rgb(105,59,35)" fill-opacity="0.502"/>
<polygon points="5541.44,3204.90 5446.15,3216.60 5274.56,1819.10 5369.85,1807.40" fill="rgb(255,255,255)" fill-opacity="0.502"/>
<circle cx="3552.00" cy="2320.00" r="288.00" fill="rgb(218,211,225)" fill-opacity="0.502"/>
<polygon points="6733.53,2266.00 6908.56,2284.40 6786.47,3446.00 6611.44,3427.60" fill="rgb(113,103,89)" fill-opacity="0.502"/>
<g transform="translate(2368.00 4496.00) rotate(28) scale(320.00 176.00)"><ellipse cx="0" cy="0" rx="1" ry="1" fill="rgb(135,102,80)" fill-opacity="0.502"/></g>
<g transform="translate(2592.00 3984.00) rotate(219) scale(176.00 144.00)"><ellipse cx="0" cy="0" rx="1" ry="1" fill="rgb(121,67,45)" fill-opacity="0.502"/></g>
<circle cx="4512.00" cy="1040.00" r="512.00" fill="rgb(96,42,16)" fill-opacity="0.502"/>
<g transform="translate(5072.00 4336.00) rotate(96) scale(80.00 384.00)"><ellipse cx="0" cy="0" rx="1" ry="1" fill="rgb(255,215,185)" fill-opacity="0.502"/></g>
<circle cx="4448.00" cy="2064.00" r="240.00" fill="rgb(174,128,105)" fill-opacity="0.502"/>
<g transform="translate(5696.00 2960.00) rotate(349) scale(128.00 992.00)"><ellipse cx="0" cy="0" rx="1" ry="1" fill="rgb(5,49,133)" fill-opacity="0.502"/></g>
<circle cx="1904.00" cy="2976.00" r="576.00" fill="rgb(0,3,4)" fill-opacity="0.502"/>
<polygon points="3375.74,4225.02 3389.39,4336.18 3008.26,4382.98 2994.61,4271.82" fill="rgb(255,246,230)" fill-opacity="0.502"/>
<g transform="translate(3904.00 3568.00) rotate(354) scale(304.00 208.00)"><ellipse cx="0" cy="0" rx="1" ry="1" fill="rgb(76,42,30)" fill-opacity="0.502"/></g>
<circle cx="1520.00" cy="4592.00" r="416.00" fill="rgb(53,37,23)" fill-opacity="0.502"/>
<circle cx="6192.00" cy="3104.00" r="480.00" fill="rgb(0,9,19)" fill-opacity="0.502"/>
<g transform="translate(1184.00 3968.00) rotate(251) scale(288.00 224.00)"><ellipse cx="0" cy="0" rx="1" ry="1" fill="rgb(0,0,0)" fill-opacity="0.502"/></g>
<circle cx="1888.00" cy="1872.00" r="560.00" fill="rgb(70,33,15)" fill-opacity="0.502"/>
<polygon points="3875.36,2493.43 4046.95,2349.44 4252.64,2594.57 4081.05,2738.56" fill="rgb(252,255,255)" fill-opacity="0.502"/>
<g transform="translate(2992.00 2176.00) rotate(171) scale(192.00 48.00)"><ellipse cx="0" cy="0" rx="1" ry="1" fill="rgb(255,205,178)" fill-opacity="0.502"/></g>
<circle cx="3808.00" cy="2080.00" r="176.00" fill="rgb(141,108,76)" fill-opacity="0.502"/>
<g transform="translate(4784.00 2080.00) rotate(305) scale(256.00 208.00)"><ellipse cx="0" cy="0" rx="1" ry="1" fill="rgb(199,170,157)" fill-opacity="0.502"/></g>
<g transform="translate(3712.00 3456.00) rotate(357) scale(144.00 448.00)"><ellipse cx="0" cy="0" rx="1" ry="1" fill="rgb(64,45,35)" fill-opacity="0.502"/></g>
<circle cx="3440.00" cy="432.00" r="976.00" fill="rgb(102,45,19)" fill-opacity="0.502"/>
<polygon points="5072.06,2684.13 4262.14,2783.58 4191.94,2211.87 5001.86,2112.42" fill="rgb(191,217,254)" fill-opacity="0.502"/>
<polygon points="5298.99,4001.18 5115.99,3719.39 5277.01,3614.82 5460.01,3896.61" fill="rgb(164,91,55)" fill-opacity="0.502"/>
<circle cx="6720.00" cy="3648.00" r="96.00" fill="rgb(255,255,255)" fill-opacity="0.502"/>
<polygon points="4057.93,4627.74 3373.70,4555.82 3382.07,4476.26 4066.30,4548.18" fill="rgb(20,8,3)" fill-opacity="0.502"/>
<g transform="translate(6128.00 3936.00) rotate(139) scale(448.00 400.00)"><ellipse cx="0" cy="0" rx="1" ry="1" fill="rgb(2,13,16)" fill-opacity="0.502"/></g>
<circle cx="5088.00" cy="3008.00" r="64.00" fill="rgb(70,92,151)" fill-opacity="0.502"/>
<circle cx="5616.00" cy="1840.00" r="288.00" fill="rgb(5,7,18)" fill-opacity="0.502"/>
<polygon points="2691.35,1855.29 4477.09,1572.45 4524.65,1872.71 2738.91,2155.55" fill="rgb(37,34,27)" fill-opacity="0.502"/>
<g transform="translate(6336.00 2224.00) rotate(113) scale(816.00 384.00)"><ellipse cx="0" cy="0" rx="1" ry="1" fill="rgb(0,2,2)" fill-opacity="0.502"/></g>
<g transform="translate(3264.00 2672.00) rotate(207) scale(240.00 256.00)"><ellipse cx="0" cy="0" rx="1" ry="1" fill="rgb(23,33,59)" fill-opacity="0.502"/></g>
<g transform="translate(7296.00 3312.00) rotate(117) scale(224.00 416.00)"><ellipse cx="0" cy="0" rx="1" ry="1" fill="rgb(0,0,0)" fill-opacity="0.502"/></g>
<g transform="translate(6960.00 3520.00) rotate(185) scale(112.00 448.00)"><ellipse cx="0" cy="0" rx="1" ry="1" fill="rgb(108,64,46)" fill-opacity="0.502"/></g>
<g transform="translate(6944.00 1200.00) rotate(276) scale(448.00 144.00)"><ellipse cx="0" cy="0" rx="1" ry="1" fill="rgb(72,37,24)" fill-opacity="0.502"/></g>
<g transform="translate(3920.00 2112.00) rotate(262) scale(144.00 1136.00)"><ellipse cx="0" cy="0" rx="1" ry="1" fill="rgb(201,152,115)" fill-opacity="0.502"/></g>
<polygon points="4647.34,2479.61 4835.44,2220.73 5016.66,2352.39 4828.56,2611.27" fill="rgb(252,255,255)" fill-opacity="0.502"/>
<polygon points="6795.34,3289.01 6788.64,3672.95 6676.66,3670.99 6683.36,3287.05" fill="rgb(255,255,255)" fill-opacity="0.502"/>
<polygon points="4928.05,4315.86 4956.99,4521.83 4655.95,4564.14 4627.01,4358.17" fill="rgb(144,96,67)" fill-opacity="0.502"/>
<circle cx="2992.00" cy="3200.00" r="560.00" fill="rgb(0,2,1)" fill-opacity="0.502"/>
<circle cx="1648.00" cy="416.00" r="560.00" fill="rgb(80,40,18)" fill-opacity="0.502"/>
<circle cx="3632.00" cy="2464.00" r="192.00" fill="rgb(198,229,255)" fill-opacity="0.502"/>
<g transform="translate(2688.00 2432.00) rotate(260) scale(592.00 128.00)"><ellipse cx="0" cy="0" rx="1" ry="1" fill="rgb(16,11,7)" fill-opacity="0.502"/></g>
<g transform="translate(5344.00 4592.00) rotate(310) scale(256.00 80.00)"><ellipse cx="0" cy="0" rx="1" ry="1" fill="rgb(123,90,62)" fill-opacity="0.502"/></g>
<circle cx="784.00" cy="1488.00" r="464.00" fill="rgb(0,0,0)" fill-opacity="0.502"/>
<circle cx="3520.00" cy="2784.00" r="224.00" fill="rgb(27,42,81)" fill-opacity="0.502"/>
<circle cx="3824.00" cy="2672.00" r="128.00" fill="rgb(115,117,146)" fill-opacity="0.502"/>
<polygon points="4288.30,2894.32 4240.36,2896.83 4207.70,2273.68 4255.64,2271.17" fill="rgb(88,108,175)" fill-opacity="0.502"/>
<g transform="translate(7840.00 2544.00) rotate(177) scale(720.00 4592.00)"><ellipse cx="0" cy="0" rx="1" ry="1" fill="rgb(0,0,0)" fill-opacity="0.502"/></g>
<circle cx="6768.00" cy="3744.00" r="64.00" fill="rgb(255,255,255)" fill-opacity="0.502"/>
<circle cx="5472.00" cy="2160.00" r="96.00" fill="rgb(4,55,243)" fill-opacity="0.502"/>
<polygon points="5011.08,2648.11 5034.79,2919.08 4476.92,2967.89 4453.21,2696.92" fill="rgb(245,255,255)" fill-opacity="0.502"/>
<polygon points="6529.50,3940.43 6348.21,3638.70 6526.50,3531.57 6707.79,3833.30" fill="rgb(17,24,34)" fill-opacity="0.502"/>
<g transform="translate(6304.00 496.00) rotate(227) scale(720.00 672.00)"><ellipse cx="0" cy="0" rx="1" ry="1" fill="rgb(1,3,3)" fill-opacity="0.502"/></g>
<g transform="translate(5200.00 2704.00) rotate(77) scale(752.00 112.00)"><ellipse cx="0" cy="0" rx="1" ry="1" fill="rgb(82,94,110)" fill-opacity="0.502"/></g>
<circle cx="1968.00" cy="3360.00" r="784.00" fill="rgb(2,6,6)" fill-opacity="0.502"/>
<polygon points="4752.89,4454.50 3665.06,4473.49 3663.11,4361.50 4750.94,4342.51" fill="rgb(186,126,100)" fill-opacity="0.502"/>
<circle cx="6832.00" cy="2592.00" r="240.00" fill="rgb(49,35,25)" fill-opacity="0.502"/>
<g transform="translate(4128.00 4128.00) rotate(86) scale(80.00 544.00)"><ellipse cx="0" cy="0" rx="1" ry="1" fill="rgb(130,68,31)" fill-opacity="0.502"/></g>
<circle cx="368.00" cy="4336.00" r="784.00" fill="rgb(0,0,0)" fill-opacity="0.502"/>
<circle cx="2752.00" cy="1408.00" r="448.00" fill="rgb(86,43,22)" fill-opacity="0.502"/>
<polygon points="1513.63,4224.36 1552.53,4444.96 1174.37,4511.64 1135.47,4291.04" fill="rgb(90,55,40)" fill-opacity="0.502"/>
<polygon points="5025.07,1812.63 4608.03,2016.03 4558.93,1915.37 4975.97,1711.97" fill="rgb(128,82,57)" fill-opacity="0.502"/>
<g transform="translate(2000.00 928.00) rotate(191) scale(624.00 480.00)"><ellipse cx="0" cy="0" rx="1" ry="1" fill="rgb(91,45,22)" fill-opacity="0.502"/></g>
<g transform="translate(6576.00 3056.00) rotate(354) scale(96.00 208.00)"><ellipse cx="0" cy="0" rx="1" ry="1" fill="rgb(9,13,28)" fill-opacity="0.502"/></g>
<polygon points="3907.64,2326.18 3822.32,2480.12 3724.36,2425.82 3809.68,2271.88" fill="rgb(44,85,194)" fill-opacity="0.502"/>
<circle cx="3168.00" cy="3024.00" r="400.00" fill="rgb(10,9,6)" fill-opacity="0.502"/>
<g transform="translate(3184.00 3840.00) rotate(270) scale(48.00 688.00)"><ellipse cx="0" cy="0" rx="1" ry="1" fill="rgb(46,52,50)" fill-opacity="0.502"/></g>
<g transform="translate(560.00 1040.00) rotate(91) scale(8176.00 528.00)"><ellipse cx="0" cy="0" rx="1" ry="1" fill="rgb(0,0,0)" fill-opacity="0.502"/></g>
<circle cx="3696.00" cy="3952.00" r="80.00" fill="rgb(240,233,215)" fill-opacity="0.502"/>
<polygon points="5581.93,4480.86 5762.07,4376.86 5858.07,4543.14 5677.93,4647.14" fill="rgb(180,223,255)" fill-opacity="0.502"/>
<g transform="translate(7344.00 4480.00) rotate(120) scale(352.00 352.00)"><ellipse cx="0" cy="0" rx="1" ry="1" fill="rgb(0,0,0)" fill-opacity="0.502"/></g>
<polygon points="4437.29,1958.88 4063.13,1872.50 4138.71,1545.12 4512.87,1631.50" fill="rgb(49,30,18)" fill-opacity="0.502"/>
<g transform="translate(3440.00 1776.00) rotate(294) scale(176.00 560.00)"><ellipse cx="0" cy="0" rx="1" ry="1" fill="rgb(70,45,28)" fill-opacity="0.502"/></g>
<circle cx="5856.00" cy="2608.00" r="208.00" fill="rgb(4,13,26)" fill-opacity="0.502"/>
<g transform="translate(704.00 2800.00) rotate(18) scale(752.00 416.00)"><ellipse cx="0" cy="0" rx="1" ry="1" fill="rgb(0,0,0)" fill-opacity="0.502"/></g>
<polygon points="2711.03,4443.93 2677.45,4616.70 2488.97,4580.07 2522.55,4407.30" fill="rgb(69,43,24)" fill-opacity="0.502"/>
<g transform="translate(4304.00 3392.00) rotate(304) scale(96.00 304.00)"><ellipse cx="0" cy="0" rx="1" ry="1" fill="rgb(210,151,121)" fill-opacity="0.502"/></g>
<polygon points="2528.33,4359.47 1603.86,4440.35 1599.67,4392.53 2524.14,4311.65" fill="rgb(209,179,156)" fill-opacity="0.502"/>
<circle cx="3344.00" cy="2304.00" r="144.00" fill="rgb(222,218,219)" fill-opacity="0.502"/>
<polygon points="6662.31,2624.68 6713.53,2989.10 6697.69,2991.32 6646.47,2626.90" fill="rgb(137,144,160)" fill-opacity="0.502"/>
<g transform="translate(3024.00 4592.00) rotate(8) scale(352.00 128.00)"><ellipse cx="0" cy="0" rx="1" ry="1" fill="rgb(60,35,20)" fill-opacity="0.502"/></g>
<polygon points="6227.33,4666.43 5954.41,4352.47 6316.67,4037.57 6589.59,4351.53" fill="rgb(1,3,0)" fill-opacity="0.502"/>
<polygon points="6788.42,4630.71 6681.29,4452.42 6859.58,4345.29 6966.71,4523.58" fill="rgb(152,134,114)" fill-opacity="0.502"/>
<circle cx="5424.00" cy="416.00" r="432.00" fill="rgb(6,5,3)" fill-opacity="0.502"/>
<circle cx="5088.00" cy="4048.00" r="144.00" fill="rgb(155,85,46)" fill-opacity="0.502"/>
<polygon points="5314.51,2155.60 5144.98,2245.74 4829.49,1652.40 4999.02,1562.26" fill="rgb(40,31,36)" fill-opacity="0.502"/>
<circle cx="5536.00" cy="3808.00" r="96.00" fill="rgb(255,255,255)" fill-opacity="0.502"/>
<polygon points="3314.20,4318.96 2372.50,4384.81 2365.80,4289.04 3307.50,4223.19" fill="rgb(235,211,190)" fill-opacity="0.502"/>
<circle cx="7472.00" cy="3200.00" r="480.00" fill="rgb(0,0,0)" fill-opacity="0.502"/>
<polygon points="6752.15,4556.64 6582.15,4304.62 6767.85,4179.36 6937.85,4431.38" fill="rgb(136,114,94)" fill-opacity="0.502"/>
<polygon points="6953.05,4091.40 6964.76,4202.79 6566.95,4244.60 6555.24,4133.21" fill="rgb(80,52,35)" fill-opacity="0.502"/>
<circle cx="4608.00" cy="1632.00" r="160.00" fill="rgb(39,22,9)" fill-opacity="0.502"/>
<g transform="translate(4624.00 1248.00) rotate(113) scale(336.00 336.00)"><ellipse cx="0" cy="0" rx="1" ry="1" fill="rgb(82,40,19)" fill-opacity="0.502"/></g>
<polygon points="3189.70,2305.96 3159.73,2231.79 3738.30,1998.04 3768.27,2072.21" fill="rgb(221,176,142)" fill-opacity="0.502"/>
<circle cx="1392.00" cy="1664.00" r="320.00" fill="rgb(54,25,11)" fill-opacity="0.502"/>
<circle cx="3760.00" cy="4080.00" r="128.00" fill="rgb(119,69,38)" fill-opacity="0.502"/>
<g transform="translate(2480.00 2864.00) rotate(159) scale(656.00 512.00)"><ellipse cx="0" cy="0" rx="1" ry="1" fill="rgb(3,5,5)" fill-opacity="0.502"/></g>
<g transform="translate(6464.00 2112.00) rotate(347) scale(256.00 512.00)"><ellipse cx="0" cy="0" rx="1" ry="1" fill="rgb(1,4,3)" fill-opacity="0.502"/></g>
<circle cx="5328.00" cy="1168.00" r="384.00" fill="rgb(5,6,5)" fill-opacity="0.502"/>
<polygon points="4517.80,3079.76 4422.73,3093.12 4378.20,2776.24 4473.27,2762.88" fill="rgb(254,255,253)" fill-opacity="0.502"/>
<circle cx="2864.00" cy="4128.00" r="144.00" fill="rgb(135,73,42)" fill-opacity="0.502"/>
<g transform="translate(5072.00 4592.00) rotate(53) scale(96.00 208.00)"><ellipse cx="0" cy="0" rx="1" ry="1" fill="rgb(148,163,170)" fill-opacity="0.502"/></g>
<polygon points="5604.22,3238.92 5611.76,3670.85 5483.78,3673.08 5476.24,3241.15" fill="rgb(252,255,255)" fill-opacity="0.502"/>
<polygon points="4729.45,4599.62 4779.77,4397.80 4950.55,4440.38 4900.23,4642.20" fill="rgb(117,89,61)" fill-opacity="0.502"/>
<circle cx="4656.00" cy="3920.00" r="80.00" fill="rgb(57,44,21)" fill-opacity="0.502"/>
<circle cx="6880.00" cy="1072.00" r="144.00" fill="rgb(62,32,22)" fill-opacity="0.502"/>
<circle cx="4544.00" cy="3696.00" r="64.00" fill="rgb(255,255,255)" fill-opacity="0.502"/>
<circle cx="3616.00" cy="2640.00" r="80.00" fill="rgb(53,102,246)" fill-opacity="0.502"/>
<polygon points="4963.54,3173.13 4942.83,3250.40 4556.46,3146.87 4577.17,3069.60" fill="rgb(237,248,255)" fill-opacity="0.502"/>
<circle cx="1504.00" cy="4592.00" r="256.00" fill="rgb(43,37,26)" fill-opacity="0.502"/>
<polygon points="5700.85,4000.31 5591.90,3716.50 5771.15,3647.69 5880.10,3931.50" fill="rgb(74,84,95)" fill-opacity="0.502"/>
<g transform="translate(4912.00 3664.00) rotate(25) scale(160.00 288.00)"><ellipse cx="0" cy="0" rx="1" ry="1" fill="rgb(255,255,255)" fill-opacity="0.502"/></g>
<polygon points="3473.76,4388.96 3615.58,4413.96 3582.24,4603.04 3440.42,4578.04" fill="rgb(0,3,15)" fill-opacity="0.502"/>
<polygon points="5107.60,3900.76 4739.66,3907.18 4732.40,3491.24 5100.34,3484.82" fill="rgb(255,255,245)" fill-opacity="0.502"/>
<polygon points="1139.69,2065.73 1165.74,1990.09 1468.31,2094.27 1442.26,2169.91" fill="rgb(193,124,97)" fill-opacity="0.502"/>
<circle cx="6912.00" cy="2304.00" r="144.00" fill="rgb(40,25,13)" fill-opacity="0.502"/>
<circle cx="3440.00" cy="3744.00" r="176.00" fill="rgb(0,7,14)" fill-opacity="0.502"/>
<polygon points="6497.60,3865.43 6477.50,4248.90 5822.40,4214.57 5842.50,3831.10" fill="rgb(4,7,9)" fill-opacity="0.502"/>
<polygon points="5152.90,3357.67 5451.41,3544.21 5375.10,3666.33 5076.59,3479.79" fill="rgb(168,128,109)" fill-opacity="0.502"/>
<g transform="translate(3152.00 1888.00) rotate(70) scale(208.00 400.00)"><ellipse cx="0" cy="0" rx="1" ry="1" fill="rgb(70,43,28)" fill-opacity="0.502"/></g>
<circle cx="1888.00" cy="1696.00" r="240.00" fill="rgb(58,26,12)" fill-opacity="0.502"/>
<g transform="translate(5424.00 4080.00) rotate(284) scale(144.00 336.00)"><ellipse cx="0" cy="0" rx="1" ry="1" fill="rgb(129,65,27)" fill-opacity="0.502"/></g>
<g transform="translate(3600.00 2480.00) rotate(18) scale(144.00 80.00)"><ellipse cx="0" cy="0" rx="1" ry="1" fill="rgb(255,255,255)" fill-opacity="0.502"/></g>
<polygon points="2160.95,4463.88 2035.69,4649.59 1903.05,4560.12 2028.31,4374.41" fill="rgb(43,29,17)" fill-opacity="0.502"/>
<g transform="translate(4880.00 3136.00) rotate(160) scale(144.00 480.00)"><ellipse cx="0" cy="0" rx="1" ry="1" fill="rgb(221,231,250)" fill-opacity="0.502"/></g>
<polygon points="6812.38,2770.39 7098.81,2800.50 7043.62,3325.61 6757.19,3295.50" fill="rgb(56,42,27)" fill-opacity="0.502"/>
<circle cx="3840.00" cy="2976.00" r="192.00" fill="rgb(82,53,38)" fill-opacity="0.502"/>
<g transform="translate(5392.00 2784.00) rotate(175) scale(16.00 1056.00)"><ellipse cx="0" cy="0" rx="1" ry="1" fill="rgb(255,255,255)" fill-opacity="0.502"/></g>
<polygon points="4956.65,1059.03 2991.34,956.03 3027.35,268.97 4992.66,371.97" fill="rgb(98,43,18)" fill-opacity="0.502"/>
<g transform="translate(3952.00 4256.00) rotate(83) scale(64.00 336.00)"><ellipse cx="0" cy="0" rx="1" ry="1" fill="rgb(252,212,190)" fill-opacity="0.502"/></g>
<g transform="translate(5552.00 2320.00) rotate(155) scale(64.00 384.00)"><ellipse cx="0" cy="0" rx="1" ry="1" fill="rgb(3,42,156)" fill-opacity="0.502"/></g>
<circle cx="6192.00" cy="1504.00" r="672.00" fill="rgb(7,7,6)" fill-opacity="0.502"/>
<circle cx="5296.00" cy="1776.00" r="48.00" fill="rgb(76,66,67)" fill-opacity="0.502"/>
<polygon points="7052.43,3863.15 6895.92,3896.42 6739.57,3160.85 6896.08,3127.58" fill="rgb(137,95,76)" fill-opacity="0.502"/>
<polygon points="4466.13,3208.12 4618.25,3349.97 4541.87,3431.88 4389.75,3290.03" fill="rgb(58,35,28)" fill-opacity="0.502"/>
<g transform="translate(5856.00 3504.00) rotate(79) scale(416.00 96.00)"><ellipse cx="0" cy="0" rx="1" ry="1" fill="rgb(38,54,66)" fill-opacity="0.502"/></g>
<g transform="translate(1600.00 2080.00) rotate(217) scale(512.00 144.00)"><ellipse cx="0" cy="0" rx="1" ry="1" fill="rgb(70,36,19)" fill-opacity="0.502"/></g>
<g transform="translate(8064.00 2064.00) rotate(261) scale(3616.00 816.00)"><ellipse cx="0" cy="0" rx="1" ry="1" fill="rgb(0,0,0)" fill-opacity="0.502"/></g>
<g transform="translate(5232.00 880.00) rotate(217) scale(256.00 240.00)"><ellipse cx="0" cy="0" rx="1" ry="1" fill="rgb(6,5,5)" fill-opacity="0.502"/></g>
<polygon points="2650.94,2079.80 2781.84,2241.44 2645.06,2352.20 2514.16,2190.56" fill="rgb(85,58,42)" fill-opacity="0.502"/>
<g transform="translate(4512.00 4256.00) rotate(135) scale(48.00 128.00)"><ellipse cx="0" cy="0" rx="1" ry="1" fill="rgb(255,228,210)" fill-opacity="0.502"/></g>
<polygon points="5213.74,2663.16 5106.73,2759.52 4978.26,2616.84 5085.27,2520.48" fill="rgb(84,106,173)" fill-opacity="0.502"/>
<g transform="translate(848.00 4592.00) rotate(31) scale(3360.00 272.00)"><ellipse cx="0" cy="0" rx="1" ry="1" fill="rgb(0,0,0)" fill-opacity="0.502"/></g>
<polygon points="4080.00,4592.00 3408.00,4592.00 3408.00,4592.00 4080.00,4592.00" fill="rgb(20,6,0)" fill-opacity="0.502"/>
<polygon points="4672.78,3548.30 4026.81,3363.08 4031.22,3347.70 4677.19,3532.92" fill="rgb(255,255,255)" fill-opacity="0.502"/>
<circle cx="4880.00" cy="4272.00" r="128.00" fill="rgb(227,194,177)" fill-opacity="0.502"/>
<polygon points="5518.07,4445.92 5879.30,4516.14 5857.93,4626.08 5496.70,4555.86" fill="rgb(197,218,247)" fill-opacity="0.502"/>
<g transform="translate(5216.00 3024.00) rotate(98) scale(464.00 112.00)"><ellipse cx="0" cy="0" rx="1" ry="1" fill="rgb(115,113,106)" fill-opacity="0.502"/></g>
<g transform="translate(4816.00 0.00) rotate(259) scale(208.00 400.00)"><ellipse cx="0" cy="0" rx="1" ry="1" fill="rgb(99,40,14)" fill-opacity="0.502"/></g>
<circle cx="5312.00" cy="4320.00" r="96.00" fill="rgb(255,172,131)" fill-opacity="0.502"/>
<circle cx="5552.00" cy="1248.00" r="592.00" fill="rgb(7,7,8)" fill-opacity="0.502"/>
<polygon points="4516.98,3521.01 4437.87,3764.48 4027.02,3630.99 4106.13,3387.52" fill="rgb(166,93,66)" fill-opacity="0.502"/>
<polygon points="5463.36,3267.30 5426.09,3406.39 5240.64,3356.70 5277.91,3217.61" fill="rgb(156,133,107)" fill-opacity="0.502"/>
<circle cx="1312.00" cy="1200.00" r="224.00" fill="rgb(66,28,12)" fill-opacity="0.502"/>
<circle cx="3808.00" cy="2144.00" r="64.00" fill="rgb(40,31,15)" fill-opacity="0.502"/>
<circle cx="5520.00" cy="3696.00" r="96.00" fill="rgb(255,255,255)" fill-opacity="0.502"/>
<polygon points="5143.02,1826.81 4819.73,1565.01 5000.98,1341.19 5324.27,1602.99" fill="rgb(10,8,10)" fill-opacity="0.502"/>
<circle cx="4896.00" cy="2224.00" r="32.00" fill="rgb(37,80,225)" fill-opacity="0.502"/>
<circle cx="2928.00" cy="4288.00" r="80.00" fill="rgb(221,197,172)" fill-opacity="0.502"/>
<polygon points="4483.44,1882.10 4866.79,1593.23 4924.56,1669.90 4541.21,1958.77" fill="rgb(72,45,27)" fill-opacity="0.502"/>
<g transform="translate(3360.00 1808.00) rotate(351) scale(1136.00 64.00)"><ellipse cx="0" cy="0" rx="1" ry="1" fill="rgb(32,20,11)" fill-opacity="0.502"/></g>
<g transform="translate(5760.00 2512.00) rotate(252) scale(768.00 112.00)"><ellipse cx="0" cy="0" rx="1" ry="1" fill="rgb(4,17,39)" fill-opacity="0.502"/></g>
<g transform="translate(4048.00 2736.00) rotate(53) scale(256.00 48.00)"><ellipse cx="0" cy="0" rx="1" ry="1" fill="rgb(196,196,208)" fill-opacity="0.502"/></g>
<g transform="translate(4912.00 1680.00) rotate(296) scale(80.00 400.00)"><ellipse cx="0" cy="0" rx="1" ry="1" fill="rgb(31,20,17)" fill-opacity="0.502"/></g>
<polygon points="3740.34,2688.65 3680.99,2783.63 3219.66,2495.35 3279.01,2400.37" fill="rgb(52,81,154)" fill-opacity="0.502"/>
<circle cx="6976.00" cy="4544.00" r="96.00" fill="rgb(92,75,57)" fill-opacity="0.502"/>
<circle cx="4688.00" cy="4592.00" r="160.00" fill="rgb(101,67,35)" fill-opacity="0.502"/>
<circle cx="3600.00" cy="2288.00" r="160.00" fill="rgb(234,231,227)" fill-opacity="0.502"/>
<polygon points="5713.43,4414.14 5760.22,4211.47 5822.57,4225.86 5775.78,4428.53" fill="rgb(219,169,148)" fill-opacity="0.502"/>
<polygon points="5544.00,4248.00 5544.00,4424.00 5320.00,4424.00 5320.00,4248.00" fill="rgb(237,154,115)" fill-opacity="0.502"/>
<circle cx="5312.00" cy="2192.00" r="32.00" fill="rgb(59,91,167)" fill-opacity="0.502"/>
<g transform="translate(6992.00 2224.00) rotate(2) scale(96.00 1088.00)"><ellipse cx="0" cy="0" rx="1" ry="1" fill="rgb(43,28,19)" fill-opacity="0.502"/></g>
<g transform="translate(3216.00 1344.00) rotate(165) scale(400.00 432.00)"><ellipse cx="0" cy="0" rx="1" ry="1" fill="rgb(89,43,19)" fill-opacity="0.502"/></g>
<circle cx="2576.00" cy="4016.00" r="80.00" fill="rgb(142,79,56)" fill-opacity="0.502"/>
<polygon points="2374.86,4306.83 2177.04,4242.55 2345.14,3725.17 2542.96,3789.45" fill="rgb(23,17,15)" fill-opacity="0.502"/>
<circle cx="1232.00" cy="0.00" r="176.00" fill="rgb(30,15,5)" fill-opacity="0.502"/>
<circle cx="2512.00" cy="160.00" r="496.00" fill="rgb(85,43,20)" fill-opacity="0.502"/>
<polygon points="4409.78,3195.92 4174.22,3331.92 4054.22,3124.08 4289.78,2988.08" fill="rgb(190,106,71)" fill-opacity="0.502"/>
<polygon points="5121.86,4622.63 5014.75,4589.88 5038.14,4513.37 5145.25,4546.12" fill="rgb(197,209,207)" fill-opacity="0.502"/>
<circle cx="4048.00" cy="3936.00" r="112.00" fill="rgb(42,19,0)" fill-opacity="0.502"/>
<polygon points="3087.71,2515.38 3182.18,2406.70 3520.29,2700.62 3425.82,2809.30" fill="rgb(33,38,57)" fill-opacity="0.502"/>
<circle cx="4752.00" cy="48.00" r="336.00" fill="rgb(92,40,17)" fill-opacity="0.502"/>
<circle cx="2480.00" cy="864.00" r="368.00" fill="rgb(96,45,20)" fill-opacity="0.502"/>
<polygon points="4683.09,3153.46 4604.66,3032.69 4644.91,3006.54 4723.34,3127.31" fill="rgb(117,142,178)" fill-opacity="0.502"/>
<polygon points="6706.52,3224.94 6685.60,2985.85 6717.48,2983.06 6738.40,3222.15" fill="rgb(204,200,179)" fill-opacity="0.502"/>
<polygon points="6572.87,3227.38 6009.46,3347.14 5843.13,2564.62 6406.54,2444.86" fill="rgb(3,5,7)" fill-opacity="0.502"/>
<polygon points="2704.00,4240.00 2704.00,4384.00 2592.00,4384.00 2592.00,4240.00" fill="rgb(192,175,157)" fill-opacity="0.502"/>
<circle cx="5408.00" cy="2816.00" r="128.00" fill="rgb(245,251,255)" fill-opacity="0.502"/>
<circle cx="5520.00" cy="3856.00" r="64.00" fill="rgb(255,255,255)" fill-opacity="0.502"/>
<polygon points="1168.26,2111.23 1388.86,2150.12 1327.74,2496.77 1107.14,2457.88" fill="rgb(211,149,120)" fill-opacity="0.502"/>
<g transform="translate(3328.00 2832.00) rotate(123) scale(128.00 352.00)"><ellipse cx="0" cy="0" rx="1" ry="1" fill="rgb(17,15,15)" fill-opacity="0.502"/></g>
<circle cx="4576.00" cy="3408.00" r="80.00" fill="rgb(103,92,86)" fill-opacity="0.502"/>
<polygon points="4204.46,2167.88 4218.96,2161.12 4259.54,2248.12 4245.04,2254.88" fill="rgb(37,34,38)" fill-opacity="0.502"/>
<polygon points="3679.94,4559.92 3734.33,4392.53 3856.06,4432.08 3801.67,4599.47" fill="rgb(104,67,42)" fill-opacity="0.502"/>
<polygon points="3647.51,3668.94 3664.25,3908.36 3568.49,3915.06 3551.75,3675.64" fill="rgb(61,62,53)" fill-opacity="0.502"/>
<g transform="translate(1584.00 2240.00) rotate(292) scale(288.00 192.00)"><ellipse cx="0" cy="0" rx="1" ry="1" fill="rgb(74,39,20)" fill-opacity="0.502"/></g>
<circle cx="6544.00" cy="3584.00" r="112.00" fill="rgb(30,44,50)" fill-opacity="0.502"/>
<polygon points="6096.75,4067.95 5909.59,4307.51 5695.25,4140.05 5882.41,3900.49" fill="rgb(22,23,22)" fill-opacity="0.502"/>
<circle cx="4176.00" cy="1408.00" r="224.00" fill="rgb(79,43,22)" fill-opacity="0.502"/>
<polygon points="1593.91,4411.24 1570.52,4487.74 1142.09,4356.76 1165.48,4280.26" fill="rgb(94,64,46)" fill-opacity="0.502"/>
<polygon points="5820.12,1892.63 5808.42,1987.92 5347.88,1931.37 5359.58,1836.08" fill="rgb(13,11,25)" fill-opacity="0.502"/>
<polygon points="4378.05,2000.18 4378.05,2000.18 4357.95,2575.82 4357.95,2575.82" fill="rgb(147,139,146)" fill-opacity="0.502"/>
<polygon points="4351.72,3028.22 4330.13,3121.76 4096.28,3067.78 4117.87,2974.24" fill="rgb(117,72,55)" fill-opacity="0.502"/>
<g transform="translate(7008.00 480.00) rotate(353) scale(48.00 384.00)"><ellipse cx="0" cy="0" rx="1" ry="1" fill="rgb(67,33,15)" fill-opacity="0.502"/></g>
<polygon points="5883.10,3902.10 5909.86,3647.50 6084.90,3665.90 6058.14,3920.50" fill="rgb(12,16,27)" fill-opacity="0.502"/>
<polygon points="7085.26,4507.63 6973.53,4515.44 6946.74,4132.37 7058.47,4124.56" fill="rgb(70,52,30)" fill-opacity="0.502"/>
<g transform="translate(3776.00 3488.00) rotate(93) scale(192.00 16.00)"><ellipse cx="0" cy="0" rx="1" ry="1" fill="rgb(7,0,0)" fill-opacity="0.502"/></g>
<polygon points="6597.38,3592.63 6525.47,3557.56 6602.62,3399.37 6674.53,3434.44" fill="rgb(59,84,72)" fill-opacity="0.502"/>
<polygon points="1810.38,4430.64 2387.21,4563.82 2365.62,4657.36 1788.79,4524.18" fill="rgb(52,35,20)" fill-opacity="0.502"/>
<polygon points="4499.11,1870.83 4517.10,1948.78 4220.89,2017.17 4202.90,1939.22" fill="rgb(124,79,58)" fill-opacity="0.502"/>
<polygon points="5054.50,2672.85 5340.93,2642.74 5409.50,3295.15 5123.07,3325.26" fill="rgb(114,113,117)" fill-opacity="0.502"/>
<g transform="translate(2240.00 4080.00) rotate(17) scale(192.00 224.00)"><ellipse cx="0" cy="0" rx="1" ry="1" fill="rgb(27,19,19)" fill-opacity="0.502"/></g>
<g transform="translate(5088.00 4320.00) rotate(136) scale(64.00 160.00)"><ellipse cx="0" cy="0" rx="1" ry="1" fill="rgb(255,233,209)" fill-opacity="0.502"/></g>
<circle cx="1568.00" cy="880.00" r="384.00" fill="rgb(84,42,19)" fill-opacity="0.502"/>
<circle cx="3872.00" cy="3152.00" r="192.00" fill="rgb(120,73,62)" fill-opacity="0.502"/>
<circle cx="4640.00" cy="2256.00" r="48.00" fill="rgb(68,103,203)" fill-opacity="0.502"/>
<polygon points="3216.86,4142.35 3288.86,4017.65 3455.14,4113.65 3383.14,4238.35" fill="rgb(87,52,26)" fill-opacity="0.502"/>
<polygon points="5888.00,3136.00 6032.00,3136.00 6032.00,3920.00 5888.00,3920.00" fill="rgb(12,21,39)" fill-opacity="0.502"/>
<g transform="translate(4960.00 2656.00) rotate(189) scale(16.00 400.00)"><ellipse cx="0" cy="0" rx="1" ry="1" fill="rgb(227,240,252)" fill-opacity="0.502"/></g>
<polygon points="3961.58,2324.54 4232.55,2348.25 4214.42,2555.46 3943.45,2531.75" fill="rgb(248,255,255)" fill-opacity="0.502"/>
<circle cx="4944.00" cy="2624.00" r="32.00" fill="rgb(73,75,190)" fill-opacity="0.502"/>
<circle cx="6944.00" cy="3792.00" r="128.00" fill="rgb(120,84,68)" fill-opacity="0.502"/>
<polygon points="5442.28,3826.63 5155.37,3851.73 5117.72,3421.37 5404.63,3396.27" fill="rgb(171,130,107)" fill-opacity="0.502"/>
<polygon points="2754.96,4587.15 2406.94,4424.86 2461.04,4308.85 2809.06,4471.14" fill="rgb(118,91,69)" fill-opacity="0.502"/>
<g transform="translate(4544.00 3872.00) rotate(302) scale(80.00 16.00)"><ellipse cx="0" cy="0" rx="1" ry="1" fill="rgb(253,236,199)" fill-opacity="0.502"/></g>
<polygon points="3989.96,4419.83 4166.35,4530.05 4090.04,4652.17 3913.65,4541.95" fill="rgb(109,69,37)" fill-opacity="0.502"/>
<circle cx="3072.00" cy="3280.00" r="496.00" fill="rgb(7,7,9)" fill-opacity="0.502"/>
<polygon points="6701.04,3758.16 6597.21,4077.72 6018.96,3889.84 6122.79,3570.28" fill="rgb(9,8,14)" fill-opacity="0.502"/>
<polygon points="2120.87,2139.07 1938.86,1936.94 2343.13,1572.93 2525.14,1775.06" fill="rgb(73,38,21)" fill-opacity="0.502"/>
<g transform="translate(3680.00 2928.00) rotate(275) scale(224.00 128.00)"><ellipse cx="0" cy="0" rx="1" ry="1" fill="rgb(58,43,36)" fill-opacity="0.502"/></g>
<polygon points="4561.22,1976.85 4639.17,1994.84 4606.78,2135.15 4528.83,2117.16" fill="rgb(145,118,88)" fill-opacity="0.502"/>
<polygon points="3167.66,4263.40 2671.50,4082.81 2704.34,3992.60 3200.50,4173.19" fill="rgb(129,73,46)" fill-opacity="0.502"/>
<polygon points="3768.00,2328.00 3768.00,1960.00 3832.00,1960.00 3832.00,2328.00" fill="rgb(61,54,63)" fill-opacity="0.502"/>
<circle cx="1456.00" cy="2864.00" r="368.00" fill="rgb(8,7,5)" fill-opacity="0.502"/>
<circle cx="2592.00" cy="4144.00" r="80.00" fill="rgb(94,38,13)" fill-opacity="0.502"/>
<g transform="translate(5104.00 2320.00) rotate(262) scale(208.00 64.00)"><ellipse cx="0" cy="0" rx="1" ry="1" fill="rgb(66,91,154)" fill-opacity="0.502"/></g>
<polygon points="2512.00,4208.00 2512.00,4000.00 3200.00,4000.00 3200.00,4208.00" fill="rgb(127,77,52)" fill-opacity="0.502"/>
<g transform="translate(2336.00 1968.00) rotate(109) scale(464.00 96.00)"><ellipse cx="0" cy="0" rx="1" ry="1" fill="rgb(68,36,20)" fill-opacity="0.502"/></g>
<circle cx="4480.00" cy="2416.00" r="128.00" fill="rgb(245,255,250)" fill-opacity="0.502"/>
<circle cx="352.00" cy="1920.00" r="816.00" fill="rgb(0,0,0)" fill-opacity="0.502"/>
<circle cx="5120.00" cy="4176.00" r="80.00" fill="rgb(109,63,34)" fill-opacity="0.502"/>
<polygon points="1517.97,4393.26 1995.34,4343.09 2002.03,4406.74 1524.66,4456.91" fill="rgb(131,102,82)" fill-opacity="0.502"/>
<g transform="translate(3968.00 2816.00) rotate(334) scale(64.00 144.00)"><ellipse cx="0" cy="0" rx="1" ry="1" fill="rgb(123,102,81)" fill-opacity="0.502"/></g>
<g transform="translate(5232.00 1648.00) rotate(213) scale(80.00 336.00)"><ellipse cx="0" cy="0" rx="1" ry="1" fill="rgb(14,13,18)" fill-opacity="0.502"/></g>
<polygon points="3826.84,2697.29 4204.67,2906.72 4189.16,2934.71 3811.33,2725.28" fill="rgb(228,215,195)" fill-opacity="0.502"/>
<g transform="translate(6960.00 2528.00) rotate(80) scale(416.00 128.00)"><ellipse cx="0" cy="0" rx="1" ry="1" fill="rgb(33,24,14)" fill-opacity="0.502"/></g>
<circle cx="4720.00" cy="3392.00" r="32.00" fill="rgb(75,96,117)" fill-opacity="0.502"/>
<polygon points="4811.41,3913.79 4858.19,3760.78 4980.59,3798.21 4933.81,3951.22" fill="rgb(242,198,175)" fill-opacity="0.502"/>
<polygon points="2640.92,4082.69 2493.16,4271.81 2367.08,4173.31 2514.84,3984.19" fill="rgb(88,48,30)" fill-opacity="0.502"/>
<polygon points="3106.47,3990.62 3102.00,3926.77 3293.53,3913.38 3298.00,3977.23" fill="rgb(255,255,255)" fill-opacity="0.502"/>
<circle cx="1632.00" cy="0.00" r="352.00" fill="rgb(72,36,16)" fill-opacity="0.502"/>
<circle cx="5440.00" cy="2784.00" r="96.00" fill="rgb(255,255,255)" fill-opacity="0.502"/>
<polygon points="4396.05,3574.50 4318.90,3732.68 4131.95,3641.50 4209.10,3483.32" fill="rgb(222,137,110)" fill-opacity="0.502"/>
<g transform="translate(464.00 464.00) rotate(112) scale(1408.00 496.00)"><ellipse cx="0" cy="0" rx="1" ry="1" fill="rgb(0,0,0)" fill-opacity="0.502"/></g>
<polygon points="4862.79,3390.63 5068.76,3361.68 5073.21,3393.37 4867.24,3422.32" fill="rgb(80,88,160)" fill-opacity="0.502"/>
<g transform="translate(1280.00 1344.00) rotate(67) scale(416.00 80.00)"><ellipse cx="0" cy="0" rx="1" ry="1" fill="rgb(56,28,16)" fill-opacity="0.502"/></g>
<circle cx="3648.00" cy="4304.00" r="48.00" fill="rgb(227,200,183)" fill-opacity="0.502"/>
<polygon points="4464.13,3048.74 4879.87,3063.26 4879.87,3063.26 4464.13,3048.74" fill="rgb(52,57,167)" fill-opacity="0.502"/>
<circle cx="4016.00" cy="3760.00" r="80.00" fill="rgb(177,104,73)" fill-opacity="0.502"/>
<polygon points="6601.61,4128.87 6695.17,3822.86 7062.39,3935.13 6968.83,4241.14" fill="rgb(81,50,34)" fill-opacity="0.502"/>
<g transform="translate(5568.00 288.00) rotate(68) scale(480.00 544.00)"><ellipse cx="0" cy="0" rx="1" ry="1" fill="rgb(7,6,6)" fill-opacity="0.502"/></g>
<polygon points="3419.00,1957.00 2955.94,2134.75 2933.00,2075.00 3396.06,1897.25" fill="rgb(106,69,48)" fill-opacity="0.502"/>
<circle cx="5200.00" cy="2144.00" r="112.00" fill="rgb(68,82,97)" fill-opacity="0.502"/>
<polygon points="1844.77,2531.65 1722.51,2363.37 1787.23,2316.35 1909.49,2484.63" fill="rgb(11,9,5)" fill-opacity="0.502"/>
<circle cx="7568.00" cy="4064.00" r="480.00" fill="rgb(0,0,0)" fill-opacity="0.502"/>
<polygon points="3458.66,4249.81 3392.13,3936.80 3517.34,3910.19 3583.87,4223.20" fill="rgb(1,8,10)" fill-opacity="0.502"/>
<polygon points="2259.63,2048.19 2423.53,2176.25 2236.37,2415.81 2072.47,2287.75" fill="rgb(66,36,20)" fill-opacity="0.502"/>
<polygon points="5052.49,3017.96 4720.25,2767.60 4739.51,2742.04 5071.75,2992.40" fill="rgb(246,254,255)" fill-opacity="0.502"/>
<circle cx="5216.00" cy="4512.00" r="64.00" fill="rgb(128,112,88)" fill-opacity="0.502"/>
<circle cx="5072.00" cy="4464.00" r="32.00" fill="rgb(142,103,91)" fill-opacity="0.502"/>
<polygon points="6986.41,3945.86 7079.50,4113.79 6869.59,4230.14 6776.50,4062.21" fill="rgb(73,40,20)" fill-opacity="0.502"/>
<circle cx="2784.00" cy="3984.00" r="64.00" fill="rgb(236,203,167)" fill-opacity="0.502"/>
<g transform="translate(6832.00 2832.00) rotate(28) scale(192.00 96.00)"><ellipse cx="0" cy="0" rx="1" ry="1" fill="rgb(58,48,37)" fill-opacity="0.502"/></g>
<polygon points="4607.35,2650.98 4608.47,2682.96 4320.65,2693.02 4319.53,2661.04" fill="rgb(90,91,184)" fill-opacity="0.502"/>
<circle cx="3712.00" cy="2384.00" r="64.00" fill="rgb(214,235,255)" fill-opacity="0.502"/>
<polygon points="4008.83,3427.73 4069.95,3774.38 3991.17,3788.27 3930.05,3441.62" fill="rgb(144,86,73)" fill-opacity="0.502"/>
<g transform="translate(5584.00 4064.00) rotate(114) scale(160.00 160.00)"><ellipse cx="0" cy="0" rx="1" ry="1" fill="rgb(124,73,43)" fill-opacity="0.502"/></g>
<polygon points="5176.00,3640.00 5176.00,3096.00 5288.00,3096.00 5288.00,3640.00" fill="rgb(140,106,77)" fill-opacity="0.502"/>
<polygon points="3891.44,2109.26 3803.74,2148.31 3660.56,1826.74 3748.26,1787.69" fill="rgb(75,58,36)" fill-opacity="0.502"/>
<polygon points="5057.76,2845.00 4619.26,3040.23 4606.24,3011.00 5044.74,2815.77" fill="rgb(221,233,250)" fill-opacity="0.502"/>
<g transform="translate(1952.00 224.00) rotate(145) scale(624.00 224.00)"><ellipse cx="0" cy="0" rx="1" ry="1" fill="rgb(81,41,19)" fill-opacity="0.502"/></g>
<polygon points="3254.76,2172.82 3174.24,2225.11 3113.24,2131.18 3193.76,2078.89" fill="rgb(221,166,129)" fill-opacity="0.502"/>
<circle cx="6720.00" cy="3488.00" r="64.00" fill="rgb(255,255,255)" fill-opacity="0.502"/>
<polygon points="3943.71,2602.59 4175.72,2494.40 4216.29,2581.41 3984.28,2689.60" fill="rgb(255,255,255)" fill-opacity="0.502"/>
<circle cx="3888.00" cy="3312.00" r="32.00" fill="rgb(201,171,167)" fill-opacity="0.502"/>
<g transform="translate(4752.00 2544.00) rotate(260) scale(288.00 80.00)"><ellipse cx="0" cy="0" rx="1" ry="1" fill="rgb(234,245,250)" fill-opacity="0.502"/></g>
<polygon points="6648.49,2953.30 6658.98,2941.22 6743.51,3014.70 6733.02,3026.78" fill="rgb(214,227,255)" fill-opacity="0.502"/>
<polygon points="2380.71,3784.38 2458.80,3608.98 2707.29,3719.62 2629.20,3895.02" fill="rgb(6,8,10)" fill-opacity="0.502"/>
<circle cx="3312.00" cy="3008.00" r="256.00" fill="rgb(12,13,14)" fill-opacity="0.502"/>
<polygon points="6739.09,4502.75 6671.69,4592.20 6428.91,4409.25 6496.31,4319.80" fill="rgb(8,8,6)" fill-opacity="0.502"/>
<g transform="translate(1472.00 4080.00) rotate(207) scale(48.00 128.00)"><ellipse cx="0" cy="0" rx="1" ry="1" fill="rgb(138,36,29)" fill-opacity="0.502"/></g>
<g transform="translate(2496.00 1712.00) rotate(238) scale(576.00 32.00)"><ellipse cx="0" cy="0" rx="1" ry="1" fill="rgb(71,37,19)" fill-opacity="0.502"/></g>
<polygon points="4646.51,2608.44 4662.50,2607.89 4681.49,3151.56 4665.50,3152.11" fill="rgb(45,62,138)" fill-opacity="0.502"/>
<circle cx="5760.00" cy="2000.00" r="176.00" fill="rgb(4,5,8)" fill-opacity="0.502"/>
<g transform="translate(6704.00 4128.00) rotate(215) scale(128.00 176.00)"><ellipse cx="0" cy="0" rx="1" ry="1" fill="rgb(89,59,45)" fill-opacity="0.502"/></g>
<polygon points="3342.41,4301.92 3388.28,4421.41 3313.59,4450.08 3267.72,4330.59" fill="rgb(188,146,119)" fill-opacity="0.502"/>
<polygon points="1464.48,4155.29 1558.91,3969.96 1815.52,4100.71 1721.09,4286.04" fill="rgb(0,0,6)" fill-opacity="0.502"/>
<circle cx="2128.00" cy="4352.00" r="80.00" fill="rgb(152,134,123)" fill-opacity="0.502"/>
<circle cx="224.00" cy="3680.00" r="976.00" fill="rgb(0,0,0)" fill-opacity="0.502"/>
<g transform="translate(3536.00 880.00) rotate(174) scale(800.00 256.00)"><ellipse cx="0" cy="0" rx="1" ry="1" fill="rgb(98,45,19)" fill-opacity="0.502"/></g>
<circle cx="7552.00" cy="2912.00" r="496.00" fill="rgb(0,0,0)" fill-opacity="0.502"/>
<polygon points="1984.56,931.57 2340.23,1299.88 1983.44,1644.43 1627.77,1276.12" fill="rgb(82,38,18)" fill-opacity="0.502"/>
<polygon points="1341.27,4257.61 1310.39,4365.27 1202.73,4334.39 1233.61,4226.73" fill="rgb(38,9,0)" fill-opacity="0.502"/>
<circle cx="5504.00" cy="3984.00" r="96.00" fill="rgb(163,119,94)" fill-opacity="0.502"/>
<polygon points="4768.97,2552.40 4766.74,2616.36 4287.03,2599.60 4289.26,2535.64" fill="rgb(249,255,249)" fill-opacity="0.502"/>
<g transform="translate(2448.00 2816.00) rotate(291) scale(464.00 416.00)"><ellipse cx="0" cy="0" rx="1" ry="1" fill="rgb(5,6,5)" fill-opacity="0.502"/></g>
<polygon points="6993.23,3302.26 6858.79,3353.86 6686.77,2905.74 6821.21,2854.14" fill="rgb(72,57,48)" fill-opacity="0.502"/>
<polygon points="2866.93,4475.58 2443.12,4700.93 2413.07,4644.42 2836.88,4419.07" fill="rgb(96,66,46)" fill-opacity="0.502"/>
<g transform="translate(5904.00 4288.00) rotate(266) scale(784.00 32.00)"><ellipse cx="0" cy="0" rx="1" ry="1" fill="rgb(29,37,40)" fill-opacity="0.502"/></g>
<g transform="translate(1808.00 4032.00) rotate(79) scale(288.00 160.00)"><ellipse cx="0" cy="0" rx="1" ry="1" fill="rgb(8,8,9)" fill-opacity="0.502"/></g>
<polygon points="738.88,4298.35 767.31,4027.84 1165.12,4069.65 1136.69,4340.16" fill="rgb(0,0,1)" fill-opacity="0.502"/>
<polygon points="5105.34,4062.20 4655.81,4271.81 4574.66,4097.80 5024.19,3888.19" fill="rgb(132,92,62)" fill-opacity="0.502"/>
<circle cx="5680.00" cy="4544.00" r="176.00" fill="rgb(172,185,206)" fill-opacity="0.502"/>
<circle cx="4624.00" cy="96.00" r="448.00" fill="rgb(92,41,16)" fill-opacity="0.502"/>
<polygon points="6389.73,2606.59 6541.83,2381.09 6714.27,2497.41 6562.17,2722.91" fill="rgb(0,1,1)" fill-opacity="0.502"/>
<g transform="translate(4224.00 3280.00) rotate(110) scale(48.00 160.00)"><ellipse cx="0" cy="0" rx="1" ry="1" fill="rgb(229,158,122)" fill-opacity="0.502"/></g>
<circle cx="2800.00" cy="3296.00" r="416.00" fill="rgb(6,6,5)" fill-opacity="0.502"/>
<g transform="translate(5120.00 3952.00) rotate(90) scale(48.00 416.00)"><ellipse cx="0" cy="0" rx="1" ry="1" fill="rgb(174,119,88)" fill-opacity="0.502"/></g>
<circle cx="3808.00" cy="3296.00" r="32.00" fill="rgb(208,175,139)" fill-opacity="0.502"/>
<polygon points="2036.99,3954.64 1843.01,4066.64 1803.01,3997.36 1996.99,3885.36" fill="rgb(21,16,21)" fill-opacity="0.502"/>
<circle cx="1456.00" cy="4304.00" r="128.00" fill="rgb(57,25,14)" fill-opacity="0.502"/>
<g transform="translate(3552.00 1936.00) rotate(161) scale(192.00 112.00)"><ellipse cx="0" cy="0" rx="1" ry="1" fill="rgb(98,67,45)" fill-opacity="0.502"/></g>
<g transform="translate(5584.00 4592.00) rotate(38) scale(80.00 400.00)"><ellipse cx="0" cy="0" rx="1" ry="1" fill="rgb(182,181,189)" fill-opacity="0.502"/></g>
<circle cx="1520.00" cy="1648.00" r="336.00" fill="rgb(60,31,17)" fill-opacity="0.502"/>
<polygon points="4103.43,2874.08 4134.46,2930.05 3896.57,3061.92 3865.54,3005.95" fill="rgb(76,57,43)" fill-opacity="0.502"/>
<g transform="translate(3904.00 3360.00) rotate(15) scale(592.00 16.00)"><ellipse cx="0" cy="0" rx="1" ry="1" fill="rgb(50,26,7)" fill-opacity="0.502"/></g>
<g transform="translate(6144.00 4384.00) rotate(244) scale(528.00 176.00)"><ellipse cx="0" cy="0" rx="1" ry="1" fill="rgb(5,8,8)" fill-opacity="0.502"/></g>
<circle cx="1152.00" cy="1472.00" r="80.00" fill="rgb(23,19,16)" fill-opacity="0.502"/>
<polygon points="4264.82,1211.34 4180.22,1021.32 4487.18,884.66 4571.78,1074.68" fill="rgb(98,44,19)" fill-opacity="0.502"/>
<polygon points="6664.00,3320.00 6664.00,3480.00 6552.00,3480.00 6552.00,3320.00" fill="rgb(53,79,66)" fill-opacity="0.502"/>
<polygon points="4868.72,3549.70 4730.03,3441.34 4779.28,3378.30 4917.97,3486.66" fill="rgb(209,217,238)" fill-opacity="0.502"/>
<polygon points="1717.32,1069.00 1925.57,601.26 2378.68,803.00 2170.43,1270.74" fill="rgb(93,45,22)" fill-opacity="0.502"/>
<circle cx="6416.00" cy="1872.00" r="416.00" fill="rgb(5,6,6)" fill-opacity="0.502"/>
<g transform="translate(2896.00 2224.00) rotate(341) scale(96.00 96.00)"><ellipse cx="0" cy="0" rx="1" ry="1" fill="rgb(211,170,147)" fill-opacity="0.502"/></g>
<polygon points="5489.36,2859.61 5527.18,2830.05 5694.64,3044.39 5656.82,3073.95" fill="rgb(34,85,214)" fill-opacity="0.502"/>
<polygon points="1968.00,4592.00 1104.00,4592.00 1104.00,4528.00 1968.00,4528.00" fill="rgb(29,25,16)" fill-opacity="0.502"/>
<circle cx="4720.00" cy="608.00" r="272.00" fill="rgb(91,41,17)" fill-opacity="0.502"/>
<polygon points="4383.08,1245.72 4784.92,1013.72 4976.92,1346.28 4575.08,1578.28" fill="rgb(80,40,18)" fill-opacity="0.502"/>
<circle cx="4240.00" cy="160.00" r="576.00" fill="rgb(95,42,16)" fill-opacity="0.502"/>
<polygon points="3937.20,4382.58 4033.20,4440.27 3950.80,4577.42 3854.80,4519.73" fill="rgb(119,80,55)" fill-opacity="0.502"/>
<circle cx="7584.00" cy="3712.00" r="496.00" fill="rgb(0,0,0)" fill-opacity="0.502"/>
<polygon points="2027.92,4552.84 2199.52,4408.85 2292.08,4519.16 2120.48,4663.15" fill="rgb(75,53,40)" fill-opacity="0.502"/>
<polygon points="5125.74,2999.32 5129.09,3047.20 4650.26,3080.68 4646.91,3032.80" fill="rgb(121,137,207)" fill-opacity="0.502"/>
<polygon points="1363.67,2034.67 1372.04,2194.45 1164.33,2205.33 1155.96,2045.55" fill="rgb(178,116,94)" fill-opacity="0.502"/>
<polygon points="4933.05,4592.75 4900.09,4537.89 5050.95,4447.25 5083.91,4502.11" fill="rgb(118,99,89)" fill-opacity="0.502"/>
<polygon points="5488.00,2368.00 5568.00,2368.00 5568.00,2672.00 5488.00,2672.00" fill="rgb(19,69,235)" fill-opacity="0.502"/>
<polygon points="1453.32,2304.99 1547.25,2365.99 1442.68,2527.01 1348.75,2466.01" fill="rgb(93,48,20)" fill-opacity="0.502"/>
<polygon points="3737.46,3893.75 3582.06,3976.38 3574.54,3962.25 3729.94,3879.62" fill="rgb(238,236,211)" fill-opacity="0.502"/>
<g transform="translate(3312.00 3376.00) rotate(322) scale(368.00 96.00)"><ellipse cx="0" cy="0" rx="1" ry="1" fill="rgb(7,8,9)" fill-opacity="0.502"/></g>
<polygon points="4564.00,3179.52 4529.14,3233.19 4140.00,2980.48 4174.86,2926.81" fill="rgb(129,105,91)" fill-opacity="0.502"/>
<circle cx="7392.00" cy="4512.00" r="304.00" fill="rgb(0,0,0)" fill-opacity="0.502"/>
<circle cx="5056.00" cy="4304.00" r="96.00" fill="rgb(252,218,191)" fill-opacity="0.502"/>
</g>
</svg>