<?xml version="1.0" standalone="no"?>
<svg xmlns="http://www.w3.org/2000/svg" width="8192" height="4608" viewBox="0 0 8192 4608" style="overflow:hidden">
<defs>
<clipPath id="c"><rect x="0" y="0" width="8192" height="4608"/></clipPath>
</defs>
<rect width="8192" height="4608" fill="rgb(88,80,73)"/>
<g clip-path="url(#c)">
<circle cx="6048.00" cy="864.00" r="1056.00" fill="rgb(255,255,237)" fill-opacity="0.502"/>
<circle cx="2448.00" cy="1328.00" r="1440.00" fill="rgb(234,255,255)" fill-opacity="0.502"/>
<circle cx="0.00" cy="3120.00" r="1536.00" fill="rgb(0,0,0)" fill-opacity="0.502"/>
<circle cx="8176.00" cy="3632.00" r="2272.00" fill="rgb(0,0,0)" fill-opacity="0.502"/>
<circle cx="2384.00" cy="3728.00" r="736.00" fill="rgb(227,255,255)" fill-opacity="0.502"/>
<g transform="translate(4688.00 3984.00) rotate(137) scale(1392.00 1600.00)"><ellipse cx="0" cy="0" rx="1" ry="1" fill="rgb(6,0,0)" fill-opacity="0.502"/></g>
<g transform="translate(6416.00 2720.00) rotate(17) scale(608.00 1248.00)"><ellipse cx="0" cy="0" rx="1" ry="1" fill="rgb(196,128,99)" fill-opacity="0.502"/></g>
<g transform="translate(7872.00 864.00) rotate(91) scale(7120.00 784.00)"><ellipse cx="0" cy="0" rx="1" ry="1" fill="rgb(0,0,0)" fill-opacity="0.502"/></g>
<g transform="translate(336.00 1520.00) rotate(0) scale(784.00 4592.00)"><ellipse cx="0" cy="0" rx="1" ry="1" fill="rgb(0,0,0)" fill-opacity="0.502"/></g>
<circle cx="6336.00" cy="0.00" r="640.00" fill="rgb(207,105,30)" fill-opacity="0.502"/>
<g transform="translate(6064.00 1072.00) rotate(72) scale(400.00 1072.00)"><ellipse cx="0" cy="0" rx="1" ry="1" fill="rgb(221,255,255)" fill-opacity="0.502"/></g>
<circle cx="5424.00" cy="0.00" r="784.00" fill="rgb(168,140,99)" fill-opacity="0.502"/>
<circle cx="5664.00" cy="3760.00" r="352.00" fill="rgb(252,59,44)" fill-opacity="0.502"/>
<circle cx="2768.00" cy="2784.00" r="576.00" fill="rgb(220,140,48)" fill-opacity="0.502"/>
<g transform="translate(1696.00 2752.00) rotate(314) scale(368.00 752.00)"><ellipse cx="0" cy="0" rx="1" ry="1" fill="rgb(210,175,152)" fill-opacity="0.502"/></g>
<g transform="translate(528.00 880.00) rotate(178) scale(576.00 2640.00)"><ellipse cx="0" cy="0" rx="1" ry="1" fill="rgb(0,0,0)" fill-opacity="0.502"/></g>
<circle cx="7632.00" cy="528.00" r="560.00" fill="rgb(0,0,0)" fill-opacity="0.502"/>
<g transform="translate(4096.00 1488.00) rotate(163) scale(384.00 1792.00)"><ellipse cx="0" cy="0" rx="1" ry="1" fill="rgb(61,52,53)" fill-opacity="0.502"/></g>
<g transform="translate(3856.00 2448.00) rotate(65) scale(448.00 288.00)"><ellipse cx="0" cy="0" rx="1" ry="1" fill="rgb(28,0,8)" fill-opacity="0.502"/></g>
<g transform="translate(4656.00 1216.00) rotate(359) scale(448.00 848.00)"><ellipse cx="0" cy="0" rx="1" ry="1" fill="rgb(154,37,19)" fill-opacity="0.502"/></g>
<circle cx="1776.00" cy="1440.00" r="560.00" fill="rgb(220,255,255)" fill-opacity="0.502"/>
<g transform="translate(1504.00 352.00) rotate(262) scale(576.00 400.00)"><ellipse cx="0" cy="0" rx="1" ry="1" fill="rgb(255,255,255)" fill-opacity="0.502"/></g>
<circle cx="4608.00" cy="4032.00" r="880.00" fill="rgb(0,0,0)" fill-opacity="0.502"/>
<polygon points="6531.18,2949.95 6477.59,1927.36 7036.82,1898.05 7090.41,2920.64" fill="rgb(170,177,148)" fill-opacity="0.502"/>
<g transform="translate(1616.00 2352.00) rotate(25) scale(528.00 384.00)"><ellipse cx="0" cy="0" rx="1" ry="1" fill="rgb(188,206,195)" fill-opacity="0.502"/></g>
<circle cx="752.00" cy="4368.00" r="384.00" fill="rgb(0,0,0)" fill-opacity="0.502"/>
<circle cx="7776.00" cy="3552.00" r="720.00" fill="rgb(0,0,0)" fill-opacity="0.502"/>
<circle cx="6336.00" cy="4352.00" r="576.00" fill="rgb(0,0,0)" fill-opacity="0.502"/>
<g transform="translate(5808.00 2896.00) rotate(189) scale(752.00 512.00)"><ellipse cx="0" cy="0" rx="1" ry="1" fill="rgb(58,7,16)" fill-opacity="0.502"/></g>
<g transform="translate(2336.00 2816.00) rotate(11) scale(272.00 448.00)"><ellipse cx="0" cy="0" rx="1" ry="1" fill="rgb(147,82,18)" fill-opacity="0.502"/></g>
<polygon points="2440.12,3084.03 2751.61,4042.70 2279.88,4195.97 1968.39,3237.30" fill="rgb(216,253,245)" fill-opacity="0.502"/>
<g transform="translate(1552.00 3776.00) rotate(174) scale(448.00 752.00)"><ellipse cx="0" cy="0" rx="1" ry="1" fill="rgb(143,107,94)" fill-opacity="0.502"/></g>
<polygon points="2454.16,717.22 3070.47,619.60 3385.84,2610.78 2769.53,2708.40" fill="rgb(172,235,241)" fill-opacity="0.502"/>
<circle cx="6736.00" cy="3488.00" r="368.00" fill="rgb(196,58,0)" fill-opacity="0.502"/>
<circle cx="7776.00" cy="1216.00" r="704.00" fill="rgb(0,0,0)" fill-opacity="0.502"/>
<circle cx="3584.00" cy="496.00" r="560.00" fill="rgb(74,134,126)" fill-opacity="0.502"/>
<polygon points="6103.00,1755.55 5816.92,3101.48 5097.00,2948.45 5383.08,1602.52" fill="rgb(118,60,59)" fill-opacity="0.502"/>
<g transform="translate(5248.00 3296.00) rotate(81) scale(256.00 784.00)"><ellipse cx="0" cy="0" rx="1" ry="1" fill="rgb(0,0,0)" fill-opacity="0.502"/></g>
<circle cx="4480.00" cy="1696.00" r="256.00" fill="rgb(41,0,0)" fill-opacity="0.502"/>
<circle cx="7696.00" cy="2368.00" r="624.00" fill="rgb(0,0,0)" fill-opacity="0.502"/>
<g transform="translate(5200.00 1664.00) rotate(27) scale(112.00 320.00)"><ellipse cx="0" cy="0" rx="1" ry="1" fill="rgb(234,202,199)" fill-opacity="0.502"/></g>
<g transform="translate(2672.00 256.00) rotate(144) scale(336.00 288.00)"><ellipse cx="0" cy="0" rx="1" ry="1" fill="rgb(213,255,217)" fill-opacity="0.502"/></g>
<g transform="translate(6960.00 1536.00) rotate(190) scale(96.00 464.00)"><ellipse cx="0" cy="0" rx="1" ry="1" fill="rgb(190,195,169)" fill-opacity="0.502"/></g>
<circle cx="6784.00" cy="3136.00" r="320.00" fill="rgb(147,113,71)" fill-opacity="0.502"/>
<circle cx="6592.00" cy="4368.00" r="672.00" fill="rgb(4,0,0)" fill-opacity="0.502"/>
<circle cx="384.00" cy="3696.00" r="752.00" fill="rgb(0,0,0)" fill-opacity="0.502"/>
<circle cx="7904.00" cy="3904.00" r="848.00" fill="rgb(0,0,0)" fill-opacity="0.502"/>
<circle cx="4800.00" cy="4096.00" r="544.00" fill="rgb(0,0,0)" fill-opacity="0.502"/>
<g transform="translate(5488.00 4032.00) rotate(340) scale(160.00 400.00)"><ellipse cx="0" cy="0" rx="1" ry="1" fill="rgb(182,0,0)" fill-opacity="0.502"/></g>
<g transform="translate(2912.00 3888.00) rotate(259) scale(656.00 256.00)"><ellipse cx="0" cy="0" rx="1" ry="1" fill="rgb(99,144,186)" fill-opacity="0.502"/></g>
<circle cx="400.00" cy="1040.00" r="704.00" fill="rgb(0,0,0)" fill-opacity="0.502"/>
<circle cx="2448.00" cy="3152.00" r="176.00" fill="rgb(129,107,87)" fill-opacity="0.502"/>
<circle cx="3344.00" cy="2048.00" r="336.00" fill="rgb(78,126,124)" fill-opacity="0.502"/>
<circle cx="6432.00" cy="1904.00" r="400.00" fill="rgb(164,160,133)" fill-opacity="0.502"/>
<polygon points="4627.00,621.35 4764.66,424.75 5053.00,626.65 4915.34,823.25" fill="rgb(173,139,136)" fill-opacity="0.502"/>
<polygon points="6839.21,3252.47 6773.98,3873.05 6264.79,3819.53 6330.02,3198.95" fill="rgb(155,31,0)" fill-opacity="0.502"/>
<g transform="translate(3424.00 2864.00) rotate(81) scale(208.00 320.00)"><ellipse cx="0" cy="0" rx="1" ry="1" fill="rgb(255,174,54)" fill-opacity="0.502"/></g>
<g transform="translate(4864.00 0.00) rotate(122) scale(304.00 432.00)"><ellipse cx="0" cy="0" rx="1" ry="1" fill="rgb(135,178,169)" fill-opacity="0.502"/></g>
<g transform="translate(7424.00 64.00) rotate(201) scale(272.00 624.00)"><ellipse cx="0" cy="0" rx="1" ry="1" fill="rgb(0,0,0)" fill-opacity="0.502"/></g>
<circle cx="448.00" cy="384.00" r="656.00" fill="rgb(0,0,0)" fill-opacity="0.502"/>
<polygon points="4582.05,285.56 4427.69,823.87 4073.95,722.44 4228.31,184.13" fill="rgb(30,9,0)" fill-opacity="0.502"/>
<circle cx="1936.00" cy="2096.00" r="384.00" fill="rgb(167,230,232)" fill-opacity="0.502"/>
<g transform="translate(3200.00 4592.00) rotate(185) scale(576.00 256.00)"><ellipse cx="0" cy="0" rx="1" ry="1" fill="rgb(183,81,28)" fill-opacity="0.502"/></g>
<circle cx="8016.00" cy="880.00" r="944.00" fill="rgb(0,0,0)" fill-opacity="0.502"/>
<g transform="translate(4800.00 1088.00) rotate(332) scale(112.00 432.00)"><ellipse cx="0" cy="0" rx="1" ry="1" fill="rgb(241,139,115)" fill-opacity="0.502"/></g>
<polygon points="2051.48,3118.82 1700.82,3088.14 1724.52,2817.18 2075.18,2847.86" fill="rgb(74,1,0)" fill-opacity="0.502"/>
<circle cx="3312.00" cy="1264.00" r="208.00" fill="rgb(48,132,214)" fill-opacity="0.502"/>
<circle cx="4128.00" cy="2272.00" r="256.00" fill="rgb(43,12,18)" fill-opacity="0.502"/>
<circle cx="5152.00" cy="2288.00" r="224.00" fill="rgb(189,130,120)" fill-opacity="0.502"/>
<polygon points="2103.58,4101.31 2218.50,4417.05 1752.42,4586.69 1637.50,4270.95" fill="rgb(102,85,66)" fill-opacity="0.502"/>
<polygon points="6447.73,1395.04 6432.66,963.30 7072.27,940.96 7087.34,1372.70" fill="rgb(194,201,185)" fill-opacity="0.502"/>
<g transform="translate(1728.00 1488.00) rotate(161) scale(224.00 496.00)"><ellipse cx="0" cy="0" rx="1" ry="1" fill="rgb(225,255,247)" fill-opacity="0.502"/></g>
<polygon points="5743.71,2215.20 5268.80,1918.45 5472.29,1592.80 5947.20,1889.55" fill="rgb(86,40,53)" fill-opacity="0.502"/>
<g transform="translate(3984.00 3920.00) rotate(42) scale(496.00 112.00)"><ellipse cx="0" cy="0" rx="1" ry="1" fill="rgb(129,51,42)" fill-opacity="0.502"/></g>
<polygon points="1103.57,762.14 1153.74,284.77 1392.43,309.86 1342.26,787.23" fill="rgb(204,234,186)" fill-opacity="0.502"/>
<g transform="translate(1632.00 128.00) rotate(254) scale(800.00 496.00)"><ellipse cx="0" cy="0" rx="1" ry="1" fill="rgb(207,228,205)" fill-opacity="0.502"/></g>
<circle cx="1328.00" cy="2144.00" r="240.00" fill="rgb(173,143,133)" fill-opacity="0.502"/>
<circle cx="5584.00" cy="4592.00" r="368.00" fill="rgb(0,0,0)" fill-opacity="0.502"/>
<polygon points="6058.21,2763.59 5975.82,2177.35 6181.79,2148.41 6264.18,2734.65" fill="rgb(198,152,156)" fill-opacity="0.502"/>
<g transform="translate(5328.00 416.00) rotate(228) scale(272.00 240.00)"><ellipse cx="0" cy="0" rx="1" ry="1" fill="rgb(103,111,82)" fill-opacity="0.502"/></g>
<g transform="translate(5600.00 1056.00) rotate(163) scale(416.00 288.00)"><ellipse cx="0" cy="0" rx="1" ry="1" fill="rgb(209,251,242)" fill-opacity="0.502"/></g>
<circle cx="480.00" cy="2464.00" r="624.00" fill="rgb(0,0,0)" fill-opacity="0.502"/>
<polygon points="2190.10,1678.96 2103.97,1190.50 2497.90,1121.04 2584.03,1609.50" fill="rgb(105,159,216)" fill-opacity="0.502"/>
<circle cx="656.00" cy="1504.00" r="448.00" fill="rgb(0,0,0)" fill-opacity="0.502"/>
<g transform="translate(3952.00 1568.00) rotate(275) scale(416.00 208.00)"><ellipse cx="0" cy="0" rx="1" ry="1" fill="rgb(61,98,112)" fill-opacity="0.502"/></g>
<circle cx="5872.00" cy="352.00" r="384.00" fill="rgb(206,145,95)" fill-opacity="0.502"/>
<g transform="translate(2816.00 1088.00) rotate(5) scale(224.00 1136.00)"><ellipse cx="0" cy="0" rx="1" ry="1" fill="rgb(208,230,212)" fill-opacity="0.502"/></g>
<polygon points="2217.71,466.82 2546.86,664.60 2390.29,925.18 2061.14,727.40" fill="rgb(95,151,195)" fill-opacity="0.502"/>
<circle cx="2944.00" cy="4064.00" r="272.00" fill="rgb(93,132,174)" fill-opacity="0.502"/>
<polygon points="5779.95,4077.75 5610.25,3908.05 6108.05,3410.25 6277.75,3579.95" fill="rgb(155,189,156)" fill-opacity="0.502"/>
<circle cx="7536.00" cy="2832.00" r="464.00" fill="rgb(0,0,0)" fill-opacity="0.502"/>
<polygon points="3200.48,4626.72 2677.62,4553.23 2735.52,4141.28 3258.38,4214.77" fill="rgb(139,146,103)" fill-opacity="0.502"/>
<g transform="translate(2576.00 3408.00) rotate(353) scale(160.00 112.00)"><ellipse cx="0" cy="0" rx="1" ry="1" fill="rgb(230,253,250)" fill-opacity="0.502"/></g>
<circle cx="6320.00" cy="1968.00" r="352.00" fill="rgb(161,141,123)" fill-opacity="0.502"/>
<circle cx="1296.00" cy="1904.00" r="208.00" fill="rgb(188,166,150)" fill-opacity="0.502"/>
<g transform="translate(2448.00 4400.00) rotate(51) scale(352.00 192.00)"><ellipse cx="0" cy="0" rx="1" ry="1" fill="rgb(184,200,182)" fill-opacity="0.502"/></g>
<polygon points="5960.54,2742.04 6555.26,2868.45 6455.46,3337.96 5860.74,3211.55" fill="rgb(32,11,13)" fill-opacity="0.502"/>
<circle cx="7392.00" cy="1600.00" r="320.00" fill="rgb(0,0,0)" fill-opacity="0.502"/>
<circle cx="6784.00" cy="1792.00" r="304.00" fill="rgb(139,135,108)" fill-opacity="0.502"/>
<polygon points="5629.70,3696.57 5524.49,3480.86 5970.30,3263.43 6075.51,3479.14" fill="rgb(221,0,0)" fill-opacity="0.502"/>
<polygon points="4633.64,2237.53 4491.25,2134.08 4726.36,1810.47 4868.75,1913.92" fill="rgb(21,0,1)" fill-opacity="0.502"/>
<polygon points="3378.68,2610.33 3447.71,3101.50 2877.32,3181.67 2808.29,2690.50" fill="rgb(222,126,30)" fill-opacity="0.502"/>
<circle cx="6704.00" cy="128.00" r="384.00" fill="rgb(195,117,64)" fill-opacity="0.502"/>
<g transform="translate(4880.00 2640.00) rotate(272) scale(208.00 272.00)"><ellipse cx="0" cy="0" rx="1" ry="1" fill="rgb(43,2,15)" fill-opacity="0.502"/></g>
<circle cx="448.00" cy="4240.00" r="656.00" fill="rgb(0,0,0)" fill-opacity="0.502"/>
<g transform="translate(2608.00 2816.00) rotate(236) scale(560.00 272.00)"><ellipse cx="0" cy="0" rx="1" ry="1" fill="rgb(176,107,37)" fill-opacity="0.502"/></g>
<g transform="translate(6496.00 3408.00) rotate(182) scale(480.00 160.00)"><ellipse cx="0" cy="0" rx="1" ry="1" fill="rgb(173,78,3)" fill-opacity="0.502"/></g>
<circle cx="2416.00" cy="1808.00" r="256.00" fill="rgb(162,199,152)" fill-opacity="0.502"/>
<circle cx="5312.00" cy="2816.00" r="192.00" fill="rgb(136,105,83)" fill-opacity="0.502"/>
<circle cx="5264.00" cy="3456.00" r="224.00" fill="rgb(0,0,0)" fill-opacity="0.502"/>
<polygon points="6304.24,2310.98 6447.69,2298.42 6479.76,2665.02 6336.31,2677.58" fill="rgb(29,0,21)" fill-opacity="0.502"/>
<polygon points="5379.06,2688.58 5466.02,2364.03 5836.94,2463.42 5749.98,2787.97" fill="rgb(48,9,19)" fill-opacity="0.502"/>
<polygon points="3273.71,3728.68 3084.49,3235.75 3846.29,2943.32 4035.51,3436.25" fill="rgb(16,0,12)" fill-opacity="0.502"/>
<polygon points="4301.09,4571.87 3854.80,4610.91 3826.91,4292.13 4273.20,4253.09" fill="rgb(19,27,76)" fill-opacity="0.502"/>
<g transform="translate(4944.00 2512.00) rotate(262) scale(656.00 80.00)"><ellipse cx="0" cy="0" rx="1" ry="1" fill="rgb(41,8,19)" fill-opacity="0.502"/></g>
<polygon points="4959.78,358.49 4905.06,508.84 4544.22,377.51 4598.94,227.16" fill="rgb(48,7,21)" fill-opacity="0.502"/>
<circle cx="784.00" cy="3088.00" r="448.00" fill="rgb(0,0,0)" fill-opacity="0.502"/>
<polygon points="3214.76,617.25 3422.26,631.76 3393.24,1046.75 3185.74,1032.24" fill="rgb(55,105,125)" fill-opacity="0.502"/>
<circle cx="4368.00" cy="1104.00" r="352.00" fill="rgb(115,38,16)" fill-opacity="0.502"/>
<polygon points="4044.47,3962.32 3644.67,4782.02 3299.53,4613.68 3699.33,3793.98" fill="rgb(74,0,0)" fill-opacity="0.502"/>
<circle cx="496.00" cy="208.00" r="608.00" fill="rgb(0,0,0)" fill-opacity="0.502"/>
<g transform="translate(2208.00 0.00) rotate(324) scale(384.00 464.00)"><ellipse cx="0" cy="0" rx="1" ry="1" fill="rgb(145,163,158)" fill-opacity="0.502"/></g>
<circle cx="7616.00" cy="4352.00" r="608.00" fill="rgb(0,0,0)" fill-opacity="0.502"/>
<polygon points="2577.37,1898.28 2827.78,1951.51 2734.63,2389.72 2484.22,2336.49" fill="rgb(170,190,189)" fill-opacity="0.502"/>
<circle cx="4832.00" cy="4320.00" r="544.00" fill="rgb(0,0,0)" fill-opacity="0.502"/>
<circle cx="4832.00" cy="1520.00" r="288.00" fill="rgb(167,76,56)" fill-opacity="0.502"/>
<polygon points="3796.91,1947.42 4367.30,2027.59 4267.09,2740.58 3696.70,2660.41" fill="rgb(42,20,27)" fill-opacity="0.502"/>
<polygon points="4494.03,1923.73 4952.90,2322.61 4721.97,2588.27 4263.10,2189.39" fill="rgb(108,67,75)" fill-opacity="0.502"/>
<circle cx="7728.00" cy="1696.00" r="656.00" fill="rgb(0,0,0)" fill-opacity="0.502"/>
<polygon points="2160.78,1306.14 2034.92,960.33 2591.22,757.86 2717.08,1103.67" fill="rgb(172,189,174)" fill-opacity="0.502"/>
<circle cx="4192.00" cy="2944.00" r="464.00" fill="rgb(56,18,22)" fill-opacity="0.502"/>
<circle cx="3904.00" cy="1776.00" r="160.00" fill="rgb(92,118,127)" fill-opacity="0.502"/>
<circle cx="3264.00" cy="3600.00" r="192.00" fill="rgb(42,28,64)" fill-opacity="0.502"/>
<polygon points="5860.78,3619.65 5988.61,3612.95 6011.22,4044.35 5883.39,4051.05" fill="rgb(88,86,75)" fill-opacity="0.502"/>
<circle cx="2192.00" cy="2208.00" r="192.00" fill="rgb(97,170,229)" fill-opacity="0.502"/>
<circle cx="1968.00" cy="2656.00" r="128.00" fill="rgb(250,255,160)" fill-opacity="0.502"/>
<g transform="translate(1328.00 864.00) rotate(162) scale(112.00 160.00)"><ellipse cx="0" cy="0" rx="1" ry="1" fill="rgb(180,207,75)" fill-opacity="0.502"/></g>
<g transform="translate(1360.00 320.00) rotate(345) scale(128.00 336.00)"><ellipse cx="0" cy="0" rx="1" ry="1" fill="rgb(239,250,219)" fill-opacity="0.502"/></g>
<polygon points="4412.87,3815.95 4297.70,4314.83 3939.13,4232.05 4054.30,3733.17" fill="rgb(72,18,12)" fill-opacity="0.502"/>
<circle cx="6976.00" cy="512.00" r="112.00" fill="rgb(210,212,221)" fill-opacity="0.502"/>
<polygon points="6585.60,640.72 6661.18,968.11 6006.40,1119.28 5930.82,791.89" fill="rgb(202,246,253)" fill-opacity="0.502"/>
<circle cx="3504.00" cy="0.00" r="512.00" fill="rgb(93,121,99)" fill-opacity="0.502"/>
<polygon points="5599.68,1825.32 5143.49,2057.76 5056.32,1886.68 5512.51,1654.24" fill="rgb(122,57,73)" fill-opacity="0.502"/>
<polygon points="3422.71,2525.51 3157.68,2586.70 3089.29,2290.49 3354.32,2229.30" fill="rgb(110,167,205)" fill-opacity="0.502"/>
<g transform="translate(3888.00 1072.00) rotate(171) scale(192.00 464.00)"><ellipse cx="0" cy="0" rx="1" ry="1" fill="rgb(63,106,119)" fill-opacity="0.502"/></g>
<g transform="translate(6800.00 3904.00) rotate(311) scale(208.00 336.00)"><ellipse cx="0" cy="0" rx="1" ry="1" fill="rgb(75,0,2)" fill-opacity="0.502"/></g>
<polygon points="3226.84,2109.39 3290.05,1812.04 3509.16,1858.61 3445.95,2155.96" fill="rgb(79,117,81)" fill-opacity="0.502"/>
<polygon points="4493.82,2924.92 4710.13,2627.20 4930.18,2787.08 4713.87,3084.80" fill="rgb(105,61,60)" fill-opacity="0.502"/>
<g transform="translate(5328.00 96.00) rotate(191) scale(144.00 448.00)"><ellipse cx="0" cy="0" rx="1" ry="1" fill="rgb(169,130,65)" fill-opacity="0.502"/></g>
<circle cx="6000.00" cy="1504.00" r="288.00" fill="rgb(199,198,163)" fill-opacity="0.502"/>
<circle cx="4256.00" cy="0.00" r="336.00" fill="rgb(68,118,71)" fill-opacity="0.502"/>
<g transform="translate(1296.00 2368.00) rotate(340) scale(128.00 432.00)"><ellipse cx="0" cy="0" rx="1" ry="1" fill="rgb(164,140,129)" fill-opacity="0.502"/></g>
<g transform="translate(6288.00 4592.00) rotate(9) scale(656.00 656.00)"><ellipse cx="0" cy="0" rx="1" ry="1" fill="rgb(0,0,0)" fill-opacity="0.502"/></g>
<g transform="translate(2208.00 3744.00) rotate(152) scale(256.00 720.00)"><ellipse cx="0" cy="0" rx="1" ry="1" fill="rgb(191,214,207)" fill-opacity="0.502"/></g>
<polygon points="1647.79,-21.49 1800.21,66.51 1632.21,357.49 1479.79,269.49" fill="rgb(137,168,193)" fill-opacity="0.502"/>
<circle cx="240.00" cy="3264.00" r="864.00" fill="rgb(0,0,0)" fill-opacity="0.502"/>
<g transform="translate(3056.00 4048.00) rotate(315) scale(144.00 144.00)"><ellipse cx="0" cy="0" rx="1" ry="1" fill="rgb(79,121,215)" fill-opacity="0.502"/></g>
<polygon points="2252.75,3587.68 2191.56,3852.71 2051.25,3820.32 2112.44,3555.29" fill="rgb(121,195,255)" fill-opacity="0.502"/>
<polygon points="5427.95,3744.11 5436.32,3504.26 5884.05,3519.89 5875.68,3759.74" fill="rgb(199,0,0)" fill-opacity="0.502"/>
<circle cx="720.00" cy="1344.00" r="384.00" fill="rgb(0,0,0)" fill-opacity="0.502"/>
<g transform="translate(3504.00 4592.00) rotate(52) scale(176.00 160.00)"><ellipse cx="0" cy="0" rx="1" ry="1" fill="rgb(179,0,0)" fill-opacity="0.502"/></g>
<polygon points="4122.46,956.30 4585.82,932.01 4597.54,1155.70 4134.18,1179.99" fill="rgb(55,13,0)" fill-opacity="0.502"/>
<polygon points="4486.85,336.08 4471.25,463.12 4217.15,431.92 4232.75,304.88" fill="rgb(14,15,11)" fill-opacity="0.502"/>
<g transform="translate(4160.00 1584.00) rotate(274) scale(272.00 64.00)"><ellipse cx="0" cy="0" rx="1" ry="1" fill="rgb(80,17,0)" fill-opacity="0.502"/></g>
<circle cx="2416.00" cy="2176.00" r="112.00" fill="rgb(89,115,76)" fill-opacity="0.502"/>
<circle cx="288.00" cy="1504.00" r="800.00" fill="rgb(0,0,0)" fill-opacity="0.502"/>
<circle cx="6864.00" cy="1056.00" r="208.00" fill="rgb(199,212,208)" fill-opacity="0.502"/>
<polygon points="1833.69,3897.78 1769.11,3438.30 2054.31,3398.22 2118.89,3857.70" fill="rgb(168,149,122)" fill-opacity="0.502"/>
<g transform="translate(7952.00 336.00) rotate(127) scale(768.00 928.00)"><ellipse cx="0" cy="0" rx="1" ry="1" fill="rgb(0,0,0)" fill-opacity="0.502"/></g>
<g transform="translate(5168.00 3440.00) rotate(334) scale(736.00 240.00)"><ellipse cx="0" cy="0" rx="1" ry="1" fill="rgb(0,0,0)" fill-opacity="0.502"/></g>
<circle cx="1936.00" cy="4528.00" r="304.00" fill="rgb(104,91,73)" fill-opacity="0.502"/>
<g transform="translate(4256.00 2784.00) rotate(73) scale(576.00 240.00)"><ellipse cx="0" cy="0" rx="1" ry="1" fill="rgb(61,38,34)" fill-opacity="0.502"/></g>
<polygon points="3401.54,2482.00 3427.59,2557.64 2822.46,2766.00 2796.41,2690.36" fill="rgb(186,171,153)" fill-opacity="0.502"/>
<g transform="translate(1760.00 2864.00) rotate(27) scale(144.00 144.00)"><ellipse cx="0" cy="0" rx="1" ry="1" fill="rgb(119,58,51)" fill-opacity="0.502"/></g>
<polygon points="1837.85,4336.99 1454.79,4363.78 1362.15,3039.01 1745.21,3012.22" fill="rgb(122,99,88)" fill-opacity="0.502"/>
<polygon points="1958.12,2045.54 2015.42,2211.95 1833.88,2274.46 1776.58,2108.05" fill="rgb(255,255,64)" fill-opacity="0.502"/>
<circle cx="3120.00" cy="1712.00" r="224.00" fill="rgb(129,190,180)" fill-opacity="0.502"/>
<circle cx="4096.00" cy="2416.00" r="160.00" fill="rgb(94,69,50)" fill-opacity="0.502"/>
<g transform="translate(2528.00 4576.00) rotate(241) scale(112.00 256.00)"><ellipse cx="0" cy="0" rx="1" ry="1" fill="rgb(123,95,67)" fill-opacity="0.502"/></g>
<circle cx="7824.00" cy="2784.00" r="752.00" fill="rgb(0,0,0)" fill-opacity="0.502"/>
<polygon points="424.22,4344.32 598.56,4002.18 1111.78,4263.68 937.44,4605.82" fill="rgb(0,0,0)" fill-opacity="0.502"/>
<polygon points="2150.03,3056.12 1896.45,3276.56 1801.97,3167.88 2055.55,2947.44" fill="rgb(165,153,143)" fill-opacity="0.502"/>
<g transform="translate(1488.00 2256.00) rotate(57) scale(224.00 112.00)"><ellipse cx="0" cy="0" rx="1" ry="1" fill="rgb(152,138,136)" fill-opacity="0.502"/></g>
<circle cx="5344.00" cy="4592.00" r="288.00" fill="rgb(0,0,0)" fill-opacity="0.502"/>
<circle cx="6736.00" cy="1392.00" r="256.00" fill="rgb(181,176,150)" fill-opacity="0.502"/>
<g transform="translate(7408.00 752.00) rotate(181) scale(320.00 2896.00)"><ellipse cx="0" cy="0" rx="1" ry="1" fill="rgb(0,0,0)" fill-opacity="0.502"/></g>
<polygon points="1102.42,1163.53 1512.75,831.25 1633.58,980.47 1223.25,1312.75" fill="rgb(149,195,217)" fill-opacity="0.502"/>
<g transform="translate(3984.00 3488.00) rotate(335) scale(160.00 272.00)"><ellipse cx="0" cy="0" rx="1" ry="1" fill="rgb(0,0,4)" fill-opacity="0.502"/></g>
<polygon points="4959.13,1333.99 4696.40,1404.38 4592.87,1018.01 4855.60,947.62" fill="rgb(211,114,91)" fill-opacity="0.502"/>
<polygon points="1444.34,701.60 2297.70,836.76 2267.66,1026.40 1414.30,891.24" fill="rgb(186,208,194)" fill-opacity="0.502"/>
<polygon points="2015.54,2098.41 1956.09,2044.88 2416.46,1533.59 2475.91,1587.12" fill="rgb(155,182,129)" fill-opacity="0.502"/>
<g transform="translate(2336.00 3584.00) rotate(2) scale(224.00 304.00)"><ellipse cx="0" cy="0" rx="1" ry="1" fill="rgb(210,233,233)" fill-opacity="0.502"/></g>
<polygon points="2457.56,2742.53 2213.04,2995.73 2086.44,2873.47 2330.96,2620.27" fill="rgb(93,54,40)" fill-opacity="0.502"/>
<polygon points="3024.19,3258.65 3109.35,3600.19 2767.81,3685.35 2682.65,3343.81" fill="rgb(113,157,208)" fill-opacity="0.502"/>
<polygon points="3437.43,80.24 3180.25,168.79 3138.57,47.76 3395.75,-40.79" fill="rgb(59,112,202)" fill-opacity="0.502"/>
<g transform="translate(2672.00 592.00) rotate(107) scale(128.00 112.00)"><ellipse cx="0" cy="0" rx="1" ry="1" fill="rgb(156,190,109)" fill-opacity="0.502"/></g>
<polygon points="5920.00,2944.00 5200.00,2944.00 5200.00,2768.00 5920.00,2768.00" fill="rgb(130,98,87)" fill-opacity="0.502"/>
<g transform="translate(2080.00 240.00) rotate(78) scale(208.00 48.00)"><ellipse cx="0" cy="0" rx="1" ry="1" fill="rgb(239,221,213)" fill-opacity="0.502"/></g>
<polygon points="6894.29,3289.20 6979.77,2849.43 7089.71,2870.80 7004.23,3310.57" fill="rgb(142,140,112)" fill-opacity="0.502"/>
<circle cx="1904.00" cy="2352.00" r="112.00" fill="rgb(207,255,248)" fill-opacity="0.502"/>
<polygon points="5643.60,1374.91 5626.92,1469.45 5012.40,1361.09 5029.08,1266.55" fill="rgb(185,232,228)" fill-opacity="0.502"/>
<circle cx="3328.00" cy="1536.00" r="160.00" fill="rgb(100,146,151)" fill-opacity="0.502"/>
<circle cx="3872.00" cy="784.00" r="272.00" fill="rgb(88,109,113)" fill-opacity="0.502"/>
<g transform="translate(6992.00 128.00) rotate(266) scale(352.00 80.00)"><ellipse cx="0" cy="0" rx="1" ry="1" fill="rgb(197,115,66)" fill-opacity="0.502"/></g>
<circle cx="2880.00" cy="1008.00" r="320.00" fill="rgb(188,225,221)" fill-opacity="0.502"/>
<polygon points="2624.35,3215.37 2750.41,3193.14 2847.65,3744.63 2721.59,3766.86" fill="rgb(157,182,176)" fill-opacity="0.502"/>
<polygon points="2384.24,-49.04 2538.82,90.14 2431.76,209.04 2277.18,69.86" fill="rgb(132,186,235)" fill-opacity="0.502"/>
<circle cx="2608.00" cy="3840.00" r="192.00" fill="rgb(158,185,170)" fill-opacity="0.502"/>
<polygon points="2420.99,1264.09 2552.86,1501.99 2203.01,1695.91 2071.14,1458.01" fill="rgb(112,166,227)" fill-opacity="0.502"/>
<g transform="translate(3520.00 2864.00) rotate(162) scale(160.00 160.00)"><ellipse cx="0" cy="0" rx="1" ry="1" fill="rgb(229,149,77)" fill-opacity="0.502"/></g>
<g transform="translate(5744.00 3952.00) rotate(126) scale(176.00 176.00)"><ellipse cx="0" cy="0" rx="1" ry="1" fill="rgb(136,149,120)" fill-opacity="0.502"/></g>
<g transform="translate(4080.00 896.00) rotate(183) scale(48.00 544.00)"><ellipse cx="0" cy="0" rx="1" ry="1" fill="rgb(95,80,65)" fill-opacity="0.502"/></g>
<polygon points="2048.00,3712.00 2128.00,3712.00 2128.00,3904.00 2048.00,3904.00" fill="rgb(97,140,230)" fill-opacity="0.502"/>
<g transform="translate(5424.00 576.00) rotate(288) scale(240.00 112.00)"><ellipse cx="0" cy="0" rx="1" ry="1" fill="rgb(96,139,170)" fill-opacity="0.502"/></g>
<g transform="translate(4656.00 544.00) rotate(194) scale(192.00 80.00)"><ellipse cx="0" cy="0" rx="1" ry="1" fill="rgb(161,132,126)" fill-opacity="0.502"/></g>
<polygon points="7080.99,404.71 6887.01,516.71 6743.01,267.29 6936.99,155.29" fill="rgb(169,117,84)" fill-opacity="0.502"/>
<g transform="translate(5680.00 240.00) rotate(37) scale(688.00 192.00)"><ellipse cx="0" cy="0" rx="1" ry="1" fill="rgb(189,145,104)" fill-opacity="0.502"/></g>
<circle cx="3216.00" cy="3440.00" r="160.00" fill="rgb(29,18,53)" fill-opacity="0.502"/>
<polygon points="2118.97,2318.34 2189.11,2462.15 1657.03,2721.66 1586.89,2577.85" fill="rgb(153,179,200)" fill-opacity="0.502"/>
<circle cx="5184.00" cy="2016.00" r="176.00" fill="rgb(147,88,91)" fill-opacity="0.502"/>
<circle cx="1296.00" cy="2912.00" r="160.00" fill="rgb(113,27,11)" fill-opacity="0.502"/>
<polygon points="5522.19,3409.58 5716.37,3484.12 5469.81,4126.42 5275.63,4051.88" fill="rgb(178,0,0)" fill-opacity="0.502"/>
<polygon points="1135.21,4807.55 1105.06,3944.08 1552.79,3928.45 1582.94,4791.92" fill="rgb(94,85,82)" fill-opacity="0.502"/>
<g transform="translate(1776.00 640.00) rotate(155) scale(208.00 192.00)"><ellipse cx="0" cy="0" rx="1" ry="1" fill="rgb(223,232,217)" fill-opacity="0.502"/></g>
<polygon points="6444.31,3053.08 6198.57,2823.93 6307.69,2706.92 6553.43,2936.07" fill="rgb(24,5,25)" fill-opacity="0.502"/>
<g transform="translate(3856.00 64.00) rotate(346) scale(240.00 448.00)"><ellipse cx="0" cy="0" rx="1" ry="1" fill="rgb(100,105,73)" fill-opacity="0.502"/></g>
<circle cx="1872.00" cy="4064.00" r="224.00" fill="rgb(159,125,118)" fill-opacity="0.502"/>
<polygon points="1403.22,2495.98 1698.19,2569.52 1620.78,2880.02 1325.81,2806.48" fill="rgb(188,151,143)" fill-opacity="0.502"/>
<polygon points="5704.25,3050.18 5413.70,2479.93 5527.75,2421.82 5818.30,2992.07" fill="rgb(78,36,38)" fill-opacity="0.502"/>
<g transform="translate(2048.00 1664.00) rotate(242) scale(400.00 112.00)"><ellipse cx="0" cy="0" rx="1" ry="1" fill="rgb(199,225,191)" fill-opacity="0.502"/></g>
<circle cx="4640.00" cy="1808.00" r="176.00" fill="rgb(54,17,6)" fill-opacity="0.502"/>
<polygon points="5059.44,706.73 5091.21,702.83 5116.56,909.27 5084.79,913.17" fill="rgb(85,25,23)" fill-opacity="0.502"/>
<polygon points="2346.12,627.23 2500.70,488.06 2821.88,844.77 2667.30,983.94" fill="rgb(155,196,186)" fill-opacity="0.502"/>
<g transform="translate(1216.00 3136.00) rotate(345) scale(128.00 176.00)"><ellipse cx="0" cy="0" rx="1" ry="1" fill="rgb(69,7,1)" fill-opacity="0.502"/></g>
<polygon points="5277.51,871.64 5392.47,625.12 5682.49,760.36 5567.53,1006.88" fill="rgb(151,165,176)" fill-opacity="0.502"/>
<polygon points="2686.51,2699.03 2342.95,2567.15 2417.49,2372.97 2761.05,2504.85" fill="rgb(231,152,48)" fill-opacity="0.502"/>
<polygon points="5129.88,2804.81 5234.07,3107.38 4886.12,3227.19 4781.93,2924.62" fill="rgb(34,13,15)" fill-opacity="0.502"/>
<polygon points="4754.07,2179.01 4866.07,2372.99 4685.93,2476.99 4573.93,2283.01" fill="rgb(64,32,23)" fill-opacity="0.502"/>
<circle cx="4320.00" cy="768.00" r="176.00" fill="rgb(108,33,13)" fill-opacity="0.502"/>
<circle cx="7648.00" cy="192.00" r="576.00" fill="rgb(0,0,0)" fill-opacity="0.502"/>
<circle cx="1248.00" cy="3712.00" r="160.00" fill="rgb(94,93,91)" fill-opacity="0.502"/>
<g transform="translate(3344.00 2992.00) rotate(244) scale(128.00 464.00)"><ellipse cx="0" cy="0" rx="1" ry="1" fill="rgb(187,128,65)" fill-opacity="0.502"/></g>
<circle cx="3424.00" cy="2880.00" r="128.00" fill="rgb(215,108,0)" fill-opacity="0.502"/>
<polygon points="2902.49,1302.94 3108.21,1179.33 3289.51,1481.06 3083.79,1604.67" fill="rgb(141,203,251)" fill-opacity="0.502"/>
<circle cx="2224.00" cy="1104.00" r="128.00" fill="rgb(207,203,189)" fill-opacity="0.502"/>
<circle cx="4992.00" cy="32.00" r="336.00" fill="rgb(133,149,136)" fill-opacity="0.502"/>
<g transform="translate(3024.00 4080.00) rotate(148) scale(144.00 288.00)"><ellipse cx="0" cy="0" rx="1" ry="1" fill="rgb(97,135,194)" fill-opacity="0.502"/></g>
<circle cx="688.00" cy="1952.00" r="416.00" fill="rgb(0,0,0)" fill-opacity="0.502"/>
<g transform="translate(2720.00 2208.00) rotate(43) scale(208.00 160.00)"><ellipse cx="0" cy="0" rx="1" ry="1" fill="rgb(163,191,190)" fill-opacity="0.502"/></g>
<polygon points="5137.55,485.02 5032.99,525.16 4958.45,330.98 5063.01,290.84" fill="rgb(90,172,197)" fill-opacity="0.502"/>
<polygon points="4687.07,2813.04 4314.48,2905.93 4240.93,2610.96 4613.52,2518.07" fill="rgb(0,0,4)" fill-opacity="0.502"/>
<polygon points="6925.98,3287.90 7090.29,3350.98 7010.02,3560.10 6845.71,3497.02" fill="rgb(126,111,92)" fill-opacity="0.502"/>
<circle cx="2784.00" cy="3088.00" r="224.00" fill="rgb(144,101,55)" fill-opacity="0.502"/>
<polygon points="2502.24,2943.51 2523.16,2704.42 2889.76,2736.49 2868.84,2975.58" fill="rgb(209,120,37)" fill-opacity="0.502"/>
<polygon points="4935.86,1067.75 5047.01,952.65 5208.14,1108.25 5096.99,1223.35" fill="rgb(83,68,123)" fill-opacity="0.502"/>
<circle cx="3968.00" cy="1824.00" r="64.00" fill="rgb(159,167,176)" fill-opacity="0.502"/>
<g transform="translate(6416.00 4368.00) rotate(224) scale(592.00 448.00)"><ellipse cx="0" cy="0" rx="1" ry="1" fill="rgb(0,0,0)" fill-opacity="0.502"/></g>
<g transform="translate(304.00 2688.00) rotate(332) scale(736.00 1056.00)"><ellipse cx="0" cy="0" rx="1" ry="1" fill="rgb(0,0,0)" fill-opacity="0.502"/></g>
<polygon points="6925.42,992.49 6979.41,1226.34 6402.58,1359.51 6348.59,1125.66" fill="rgb(200,206,185)" fill-opacity="0.502"/>
<g transform="translate(1312.00 1792.00) rotate(255) scale(592.00 144.00)"><ellipse cx="0" cy="0" rx="1" ry="1" fill="rgb(188,174,163)" fill-opacity="0.502"/></g>
<polygon points="3064.68,534.58 3164.15,454.03 3335.32,665.42 3235.85,745.97" fill="rgb(49,105,194)" fill-opacity="0.502"/>
<circle cx="3040.00" cy="2976.00" r="192.00" fill="rgb(185,103,17)" fill-opacity="0.502"/>
<circle cx="4192.00" cy="3136.00" r="160.00" fill="rgb(98,65,51)" fill-opacity="0.502"/>
<circle cx="6528.00" cy="368.00" r="208.00" fill="rgb(173,134,100)" fill-opacity="0.502"/>
<polygon points="6548.04,657.58 6950.70,461.19 7083.96,734.42 6681.30,930.81" fill="rgb(194,212,225)" fill-opacity="0.502"/>
<polygon points="3106.77,607.66 3195.80,964.73 3149.23,976.34 3060.20,619.27" fill="rgb(170,204,216)" fill-opacity="0.502"/>
<polygon points="3432.00,1176.00 3432.00,920.00 3576.00,920.00 3576.00,1176.00" fill="rgb(198,218,199)" fill-opacity="0.502"/>
<polygon points="1586.02,4234.66 1873.59,4677.48 1725.98,4773.34 1438.41,4330.52" fill="rgb(72,62,66)" fill-opacity="0.502"/>
<polygon points="4302.22,2369.93 4537.78,2233.93 4641.78,2414.07 4406.22,2550.07" fill="rgb(132,103,115)" fill-opacity="0.502"/>
<g transform="translate(6416.00 2208.00) rotate(283) scale(128.00 480.00)"><ellipse cx="0" cy="0" rx="1" ry="1" fill="rgb(165,135,124)" fill-opacity="0.502"/></g>
<circle cx="1824.00" cy="1968.00" r="64.00" fill="rgb(97,146,222)" fill-opacity="0.502"/>
<g transform="translate(4880.00 1488.00) rotate(295) scale(224.00 144.00)"><ellipse cx="0" cy="0" rx="1" ry="1" fill="rgb(153,71,52)" fill-opacity="0.502"/></g>
<polygon points="4814.99,2778.03 4884.85,2449.37 5057.01,2485.97 4987.15,2814.63" fill="rgb(7,0,14)" fill-opacity="0.502"/>
<g transform="translate(3392.00 4032.00) rotate(219) scale(176.00 224.00)"><ellipse cx="0" cy="0" rx="1" ry="1" fill="rgb(41,13,42)" fill-opacity="0.502"/></g>
<polygon points="2914.88,3483.28 3010.17,3494.98 2973.12,3796.72 2877.83,3785.02" fill="rgb(68,115,199)" fill-opacity="0.502"/>
<polygon points="5667.86,4406.23 5433.99,4302.10 5564.14,4009.77 5798.01,4113.90" fill="rgb(117,0,0)" fill-opacity="0.502"/>
<polygon points="1617.31,2642.25 1678.17,2511.75 1982.69,2653.75 1921.83,2784.25" fill="rgb(234,217,180)" fill-opacity="0.502"/>
<polygon points="6981.10,3753.81 6779.77,3655.62 6842.90,3526.19 7044.23,3624.38" fill="rgb(191,57,51)" fill-opacity="0.502"/>
<circle cx="6272.00" cy="1520.00" r="192.00" fill="rgb(183,176,142)" fill-opacity="0.502"/>
<circle cx="432.00" cy="4368.00" r="672.00" fill="rgb(0,0,0)" fill-opacity="0.502"/>
<polygon points="4616.00,1352.00 4616.00,1816.00 4232.00,1816.00 4232.00,1352.00" fill="rgb(80,24,11)" fill-opacity="0.502"/>
<circle cx="6640.00" cy="3120.00" r="192.00" fill="rgb(123,68,54)" fill-opacity="0.502"/>
<polygon points="7087.74,2694.49 6939.99,3100.43 6624.26,2985.51 6772.01,2579.57" fill="rgb(129,118,98)" fill-opacity="0.502"/>
<polygon points="4828.83,3137.52 4883.02,3354.87 4355.17,3486.48 4300.98,3269.13" fill="rgb(32,2,15)" fill-opacity="0.502"/>
<g transform="translate(704.00 4560.00) rotate(272) scale(1680.00 400.00)"><ellipse cx="0" cy="0" rx="1" ry="1" fill="rgb(0,0,0)" fill-opacity="0.502"/></g>
<circle cx="2704.00" cy="1520.00" r="208.00" fill="rgb(203,230,234)" fill-opacity="0.502"/>
<polygon points="5975.70,2411.67 6057.12,2360.80 6184.30,2564.33 6102.88,2615.20" fill="rgb(204,160,157)" fill-opacity="0.502"/>
<polygon points="3018.19,2197.20 2927.08,1857.20 3189.81,1786.80 3280.92,2126.80" fill="rgb(93,152,188)" fill-opacity="0.502"/>
<polygon points="3752.53,4438.85 3503.09,4381.26 3607.47,3929.15 3856.91,3986.74" fill="rgb(29,4,0)" fill-opacity="0.502"/>
<circle cx="3152.00" cy="32.00" r="144.00" fill="rgb(61,114,151)" fill-opacity="0.502"/>
<polygon points="4441.37,1273.15 4237.92,1316.40 4214.63,1206.85 4418.08,1163.60" fill="rgb(195,111,102)" fill-opacity="0.502"/>
<g transform="translate(2544.00 1680.00) rotate(4) scale(144.00 208.00)"><ellipse cx="0" cy="0" rx="1" ry="1" fill="rgb(187,202,180)" fill-opacity="0.502"/></g>
<g transform="translate(2976.00 2448.00) rotate(307) scale(80.00 400.00)"><ellipse cx="0" cy="0" rx="1" ry="1" fill="rgb(199,200,189)" fill-opacity="0.502"/></g>
<circle cx="7696.00" cy="4096.00" r="624.00" fill="rgb(0,0,0)" fill-opacity="0.502"/>
<polygon points="4140.37,3355.47 4412.20,3364.96 4387.63,4068.53 4115.80,4059.04" fill="rgb(47,15,21)" fill-opacity="0.502"/>
<g transform="translate(6192.00 2416.00) rotate(173) scale(64.00 224.00)"><ellipse cx="0" cy="0" rx="1" ry="1" fill="rgb(116,68,70)" fill-opacity="0.502"/></g>
<polygon points="4610.88,2413.09 4641.64,2404.27 4765.12,2834.91 4734.36,2843.73" fill="rgb(149,101,87)" fill-opacity="0.502"/>
<g transform="translate(5632.00 1056.00) rotate(246) scale(128.00 416.00)"><ellipse cx="0" cy="0" rx="1" ry="1" fill="rgb(218,254,240)" fill-opacity="0.502"/></g>
<circle cx="3232.00" cy="3856.00" r="112.00" fill="rgb(74,52,91)" fill-opacity="0.502"/>
<circle cx="3600.00" cy="2608.00" r="112.00" fill="rgb(69,37,26)" fill-opacity="0.502"/>
<g transform="translate(6880.00 1920.00) rotate(176) scale(208.00 464.00)"><ellipse cx="0" cy="0" rx="1" ry="1" fill="rgb(140,131,107)" fill-opacity="0.502"/></g>
<circle cx="3888.00" cy="1360.00" r="160.00" fill="rgb(34,72,108)" fill-opacity="0.502"/>
<g transform="translate(5904.00 2992.00) rotate(270) scale(128.00 48.00)"><ellipse cx="0" cy="0" rx="1" ry="1" fill="rgb(190,153,155)" fill-opacity="0.502"/></g>
<g transform="translate(3648.00 80.00) rotate(93) scale(512.00 240.00)"><ellipse cx="0" cy="0" rx="1" ry="1" fill="rgb(83,103,79)" fill-opacity="0.502"/></g>
<circle cx="1344.00" cy="3936.00" r="256.00" fill="rgb(104,95,91)" fill-opacity="0.502"/>
<circle cx="5184.00" cy="0.00" r="176.00" fill="rgb(148,109,72)" fill-opacity="0.502"/>
<g transform="translate(5232.00 1248.00) rotate(281) scale(416.00 80.00)"><ellipse cx="0" cy="0" rx="1" ry="1" fill="rgb(176,199,205)" fill-opacity="0.502"/></g>
<polygon points="3250.18,3419.40 3215.65,3452.75 3037.82,3268.60 3072.35,3235.25" fill="rgb(59,45,78)" fill-opacity="0.502"/>
<circle cx="3248.00" cy="2352.00" r="224.00" fill="rgb(139,173,176)" fill-opacity="0.502"/>
<circle cx="1504.00" cy="3008.00" r="96.00" fill="rgb(182,147,134)" fill-opacity="0.502"/>
<polygon points="3557.79,979.68 3641.59,1271.91 3626.21,1276.32 3542.41,984.09" fill="rgb(207,251,255)" fill-opacity="0.502"/>
<polygon points="2643.39,4347.28 2334.10,4216.00 2396.61,4068.72 2705.90,4200.00" fill="rgb(184,222,227)" fill-opacity="0.502"/>
<g transform="translate(3424.00 3328.00) rotate(157) scale(160.00 176.00)"><ellipse cx="0" cy="0" rx="1" ry="1" fill="rgb(8,0,16)" fill-opacity="0.502"/></g>
<polygon points="4165.59,2594.66 4229.70,2924.49 3978.41,2973.34 3914.30,2643.51" fill="rgb(25,9,13)" fill-opacity="0.502"/>
<circle cx="6688.00" cy="3392.00" r="224.00" fill="rgb(155,77,0)" fill-opacity="0.502"/>
<circle cx="1616.00" cy="48.00" r="80.00" fill="rgb(104,137,187)" fill-opacity="0.502"/>
<g transform="translate(4656.00 688.00) rotate(9) scale(48.00 48.00)"><ellipse cx="0" cy="0" rx="1" ry="1" fill="rgb(32,0,0)" fill-opacity="0.502"/></g>
<polygon points="3733.34,771.91 3722.46,979.63 3578.66,972.09 3589.54,764.37" fill="rgb(28,94,173)" fill-opacity="0.502"/>
<polygon points="5556.65,1424.24 5649.38,1399.39 5707.35,1615.76 5614.62,1640.61" fill="rgb(104,184,208)" fill-opacity="0.502"/>
<circle cx="4560.00" cy="816.00" r="128.00" fill="rgb(176,86,54)" fill-opacity="0.502"/>
<circle cx="5808.00" cy="1328.00" r="176.00" fill="rgb(205,214,200)" fill-opacity="0.502"/>
<polygon points="1820.90,2033.42 1741.52,2310.27 1603.10,2270.58 1682.48,1993.73" fill="rgb(112,168,239)" fill-opacity="0.502"/>
<polygon points="5906.40,3992.13 5751.15,4030.84 5677.60,3735.87 5832.85,3697.16" fill="rgb(162,161,132)" fill-opacity="0.502"/>
<polygon points="3142.87,4659.42 2924.19,4448.24 3113.13,4252.58 3331.81,4463.76" fill="rgb(130,97,58)" fill-opacity="0.502"/>
<g transform="translate(6416.00 416.00) rotate(128) scale(288.00 96.00)"><ellipse cx="0" cy="0" rx="1" ry="1" fill="rgb(184,135,95)" fill-opacity="0.502"/></g>
<g transform="translate(2320.00 4592.00) rotate(244) scale(144.00 96.00)"><ellipse cx="0" cy="0" rx="1" ry="1" fill="rgb(152,120,94)" fill-opacity="0.502"/></g>
<g transform="translate(944.00 864.00) rotate(2) scale(160.00 720.00)"><ellipse cx="0" cy="0" rx="1" ry="1" fill="rgb(0,0,0)" fill-opacity="0.502"/></g>
<circle cx="8128.00" cy="2000.00" r="1056.00" fill="rgb(0,0,0)" fill-opacity="0.502"/>
<g transform="translate(5392.00 1984.00) rotate(117) scale(128.00 96.00)"><ellipse cx="0" cy="0" rx="1" ry="1" fill="rgb(58,16,37)" fill-opacity="0.502"/></g>
<circle cx="6000.00" cy="3552.00" r="112.00" fill="rgb(190,155,121)" fill-opacity="0.502"/>
<polygon points="3040.28,4102.76 2953.24,4032.28 3023.72,3945.24 3110.76,4015.72" fill="rgb(28,67,135)" fill-opacity="0.502"/>
<circle cx="6976.00" cy="3696.00" r="128.00" fill="rgb(153,53,54)" fill-opacity="0.502"/>
<circle cx="4096.00" cy="1856.00" r="112.00" fill="rgb(131,95,75)" fill-opacity="0.502"/>
<circle cx="1504.00" cy="3296.00" r="224.00" fill="rgb(108,82,67)" fill-opacity="0.502"/>
<polygon points="7155.43,4187.90 7036.19,4432.38 6748.57,4292.10 6867.81,4047.62" fill="rgb(20,0,0)" fill-opacity="0.502"/>
<polygon points="1104.52,1879.81 1153.51,1531.24 1359.48,1560.19 1310.49,1908.76" fill="rgb(176,160,152)" fill-opacity="0.502"/>
<polygon points="4854.08,1651.13 4407.79,1612.08 4425.92,1404.87 4872.21,1443.92" fill="rgb(132,51,30)" fill-opacity="0.502"/>
<polygon points="2323.39,1078.70 2395.38,1390.50 2348.61,1401.30 2276.62,1089.50" fill="rgb(215,232,225)" fill-opacity="0.502"/>
<polygon points="3147.17,4210.72 3165.48,4304.96 2772.83,4381.28 2754.52,4287.04" fill="rgb(154,189,167)" fill-opacity="0.502"/>
<g transform="translate(4976.00 3712.00) rotate(22) scale(320.00 688.00)"><ellipse cx="0" cy="0" rx="1" ry="1" fill="rgb(0,0,0)" fill-opacity="0.502"/></g>
<g transform="translate(6528.00 2688.00) rotate(282) scale(128.00 48.00)"><ellipse cx="0" cy="0" rx="1" ry="1" fill="rgb(233,198,212)" fill-opacity="0.502"/></g>
<g transform="translate(6480.00 3632.00) rotate(1) scale(208.00 128.00)"><ellipse cx="0" cy="0" rx="1" ry="1" fill="rgb(159,29,0)" fill-opacity="0.502"/></g>
<polygon points="2318.47,3165.87 2140.18,3272.99 2049.53,3122.13 2227.82,3015.01" fill="rgb(140,120,93)" fill-opacity="0.502"/>
<circle cx="4416.00" cy="2000.00" r="48.00" fill="rgb(255,241,232)" fill-opacity="0.502"/>
<circle cx="2560.00" cy="3856.00" r="144.00" fill="rgb(173,207,199)" fill-opacity="0.502"/>
<polygon points="4034.32,715.75 3890.52,723.29 3853.68,20.25 3997.48,12.71" fill="rgb(109,122,95)" fill-opacity="0.502"/>
<g transform="translate(5360.00 3296.00) rotate(280) scale(224.00 256.00)"><ellipse cx="0" cy="0" rx="1" ry="1" fill="rgb(8,0,0)" fill-opacity="0.502"/></g>
<polygon points="2531.42,3299.93 2558.14,3109.80 2716.58,3132.07 2689.86,3322.20" fill="rgb(120,131,127)" fill-opacity="0.502"/>
<polygon points="2118.17,2670.52 2083.56,2777.04 1961.83,2737.48 1996.44,2630.96" fill="rgb(228,253,136)" fill-opacity="0.502"/>
<circle cx="3360.00" cy="384.00" r="96.00" fill="rgb(116,198,218)" fill-opacity="0.502"/>
<polygon points="1967.04,2301.98 1816.00,2488.50 1728.96,2418.02 1880.00,2231.50" fill="rgb(222,255,226)" fill-opacity="0.502"/>
<circle cx="5888.00" cy="0.00" r="368.00" fill="rgb(199,136,86)" fill-opacity="0.502"/>
<polygon points="1890.56,1782.10 1925.17,1888.62 1453.44,2041.90 1418.83,1935.38" fill="rgb(207,228,216)" fill-opacity="0.502"/>
<polygon points="1621.83,3471.80 1825.29,3515.04 1722.17,4000.20 1518.71,3956.96" fill="rgb(151,118,109)" fill-opacity="0.502"/>
<polygon points="6495.94,1671.40 6429.69,1424.13 6816.06,1320.60 6882.31,1567.87" fill="rgb(174,165,139)" fill-opacity="0.502"/>
<circle cx="1856.00" cy="1280.00" r="96.00" fill="rgb(146,202,207)" fill-opacity="0.502"/>
<polygon points="6108.57,2020.36 6219.43,1956.36 6371.43,2219.64 6260.57,2283.64" fill="rgb(207,169,162)" fill-opacity="0.502"/>
<polygon points="1857.03,1543.65 1608.35,1745.03 1406.97,1496.35 1655.65,1294.97" fill="rgb(238,255,228)" fill-opacity="0.502"/>
<polygon points="1846.60,3593.22 1771.59,3167.78 1913.40,3142.78 1988.41,3568.22" fill="rgb(185,188,158)" fill-opacity="0.502"/>
<polygon points="4532.77,1901.39 4343.69,1934.73 4299.23,1682.61 4488.31,1649.27" fill="rgb(37,9,12)" fill-opacity="0.502"/>
<polygon points="7058.36,1585.40 6639.19,1480.89 6685.64,1294.60 7104.81,1399.11" fill="rgb(171,165,144)" fill-opacity="0.502"/>
<polygon points="3013.14,1784.55 2965.87,1792.89 2890.86,1367.45 2938.13,1359.11" fill="rgb(126,151,171)" fill-opacity="0.502"/>
<polygon points="4961.35,1256.35 5065.73,1708.46 4878.65,1751.65 4774.27,1299.54" fill="rgb(172,90,76)" fill-opacity="0.502"/>
<polygon points="3748.08,3649.09 3978.79,3715.25 3947.92,3822.91 3717.21,3756.75" fill="rgb(126,103,102)" fill-opacity="0.502"/>
<circle cx="4304.00" cy="512.00" r="144.00" fill="rgb(28,13,17)" fill-opacity="0.502"/>
<polygon points="4412.72,2390.39 4441.61,2428.72 4403.28,2457.61 4374.39,2419.28" fill="rgb(254,242,241)" fill-opacity="0.502"/>
<polygon points="3412.63,797.25 3553.90,872.37 3531.37,914.75 3390.10,839.63" fill="rgb(217,222,236)" fill-opacity="0.502"/>
<circle cx="6480.00" cy="0.00" r="416.00" fill="rgb(191,125,74)" fill-opacity="0.502"/>
<g transform="translate(3568.00 336.00) rotate(216) scale(112.00 160.00)"><ellipse cx="0" cy="0" rx="1" ry="1" fill="rgb(93,119,98)" fill-opacity="0.502"/></g>
<circle cx="672.00" cy="176.00" r="432.00" fill="rgb(0,0,0)" fill-opacity="0.502"/>
<polygon points="1796.95,976.39 1618.93,1048.31 1499.05,751.61 1677.07,679.69" fill="rgb(168,196,189)" fill-opacity="0.502"/>
<circle cx="6576.00" cy="1088.00" r="128.00" fill="rgb(170,187,168)" fill-opacity="0.502"/>
<g transform="translate(4656.00 2192.00) rotate(129) scale(64.00 288.00)"><ellipse cx="0" cy="0" rx="1" ry="1" fill="rgb(62,34,39)" fill-opacity="0.502"/></g>
<g transform="translate(2944.00 1120.00) rotate(108) scale(96.00 288.00)"><ellipse cx="0" cy="0" rx="1" ry="1" fill="rgb(190,220,202)" fill-opacity="0.502"/></g>
<g transform="translate(3584.00 2512.00) rotate(65) scale(176.00 192.00)"><ellipse cx="0" cy="0" rx="1" ry="1" fill="rgb(90,55,57)" fill-opacity="0.502"/></g>
<polygon points="3651.55,1803.17 3796.04,1952.80 3692.45,2052.83 3547.96,1903.20" fill="rgb(193,194,194)" fill-opacity="0.502"/>
<circle cx="4592.00" cy="224.00" r="48.00" fill="rgb(99,149,223)" fill-opacity="0.502"/>
<polygon points="4086.53,2907.19 3658.85,3125.11 3593.47,2996.81 4021.15,2778.89" fill="rgb(42,18,26)" fill-opacity="0.502"/>
<circle cx="3872.00" cy="1680.00" r="144.00" fill="rgb(63,94,80)" fill-opacity="0.502"/>
<polygon points="3448.54,4090.78 3463.88,3915.45 3575.46,3925.22 3560.12,4100.55" fill="rgb(93,61,46)" fill-opacity="0.502"/>
<circle cx="3488.00" cy="768.00" r="80.00" fill="rgb(94,129,193)" fill-opacity="0.502"/>
<circle cx="7264.00" cy="1440.00" r="192.00" fill="rgb(0,0,0)" fill-opacity="0.502"/>
<circle cx="1984.00" cy="2064.00" r="80.00" fill="rgb(206,219,86)" fill-opacity="0.502"/>
<circle cx="4784.00" cy="2224.00" r="80.00" fill="rgb(131,96,90)" fill-opacity="0.502"/>
<polygon points="3366.32,2681.09 3275.55,2649.83 3353.68,2422.91 3444.45,2454.17" fill="rgb(120,94,114)" fill-opacity="0.502"/>
<polygon points="5646.80,4521.23 5541.49,4423.02 5825.20,4118.77 5930.51,4216.98" fill="rgb(43,0,0)" fill-opacity="0.502"/>
<g transform="translate(6208.00 2896.00) rotate(122) scale(64.00 336.00)"><ellipse cx="0" cy="0" rx="1" ry="1" fill="rgb(53,22,29)" fill-opacity="0.502"/></g>
<polygon points="6432.38,594.23 6756.39,731.76 6687.62,893.77 6363.61,756.24" fill="rgb(183,211,225)" fill-opacity="0.502"/>
<g transform="translate(7520.00 3152.00) rotate(184) scale(432.00 1008.00)"><ellipse cx="0" cy="0" rx="1" ry="1" fill="rgb(0,0,0)" fill-opacity="0.502"/></g>
<g transform="translate(5008.00 1872.00) rotate(232) scale(48.00 144.00)"><ellipse cx="0" cy="0" rx="1" ry="1" fill="rgb(201,160,143)" fill-opacity="0.502"/></g>
<circle cx="5120.00" cy="4576.00" r="448.00" fill="rgb(0,0,0)" fill-opacity="0.502"/>
<circle cx="1232.00" cy="2656.00" r="144.00" fill="rgb(143,108,92)" fill-opacity="0.502"/>
<polygon points="2844.77,512.91 2734.82,534.28 2643.23,63.09 2753.18,41.72" fill="rgb(240,255,217)" fill-opacity="0.502"/>
<polygon points="3377.45,4301.47 3357.95,4460.28 3278.55,4450.53 3298.05,4291.72" fill="rgb(119,89,37)" fill-opacity="0.502"/>
<polygon points="5211.04,4025.56 5296.69,3930.44 5700.96,4294.44 5615.31,4389.56" fill="rgb(109,0,0)" fill-opacity="0.502"/>
<polygon points="4524.26,1243.98 4623.74,1163.43 4915.74,1524.02 4816.26,1604.57" fill="rgb(163,69,40)" fill-opacity="0.502"/>
<polygon points="3776.89,2867.90 3649.74,2935.50 3567.11,2780.10 3694.26,2712.50" fill="rgb(151,152,161)" fill-opacity="0.502"/>
<g transform="translate(128.00 1200.00) rotate(158) scale(944.00 1216.00)"><ellipse cx="0" cy="0" rx="1" ry="1" fill="rgb(0,0,0)" fill-opacity="0.502"/></g>
<circle cx="6144.00" cy="3696.00" r="128.00" fill="rgb(171,154,129)" fill-opacity="0.502"/>
<polygon points="3090.56,1791.70 3256.97,1734.40 3293.44,1840.30 3127.03,1897.60" fill="rgb(150,212,225)" fill-opacity="0.502"/>
<g transform="translate(6512.00 1920.00) rotate(137) scale(240.00 288.00)"><ellipse cx="0" cy="0" rx="1" ry="1" fill="rgb(150,142,113)" fill-opacity="0.502"/></g>
<polygon points="6176.00,2768.00 6176.00,3168.00 5936.00,3168.00 5936.00,2768.00" fill="rgb(57,23,28)" fill-opacity="0.502"/>
<circle cx="1408.00" cy="2608.00" r="160.00" fill="rgb(170,150,132)" fill-opacity="0.502"/>
<circle cx="2048.00" cy="1328.00" r="64.00" fill="rgb(241,255,237)" fill-opacity="0.502"/>
<polygon points="5224.60,1200.72 5086.49,1067.35 5175.40,975.28 5313.51,1108.65" fill="rgb(156,210,238)" fill-opacity="0.502"/>
<circle cx="5888.00" cy="1920.00" r="112.00" fill="rgb(120,76,72)" fill-opacity="0.502"/>
<g transform="translate(6992.00 2624.00) rotate(281) scale(432.00 48.00)"><ellipse cx="0" cy="0" rx="1" ry="1" fill="rgb(121,120,93)" fill-opacity="0.502"/></g>
<polygon points="2216.35,1667.43 2555.50,2210.18 2487.65,2252.57 2148.50,1709.82" fill="rgb(137,165,144)" fill-opacity="0.502"/>
</g>
</svg>