<?xml version="1.0" standalone="no"?>
<svg xmlns="http://www.w3.org/2000/svg" width="8192" height="4608" viewBox="0 0 8192 4608" style="overflow:hidden">
<defs>
<clipPath id="c"><rect x="0" y="0" width="8192" height="4608"/></clipPath>
</defs>
<rect width="8192" height="4608" fill="rgb(113,88,66)"/>
<g clip-path="url(#c)">
<g transform="translate(2800.00 688.00) rotate(157) scale(1856.00 1200.00)"><ellipse cx="0" cy="0" rx="1" ry="1" fill="rgb(255,255,255)" fill-opacity="0.502"/></g>
<circle cx="8176.00" cy="2864.00" r="2288.00" fill="rgb(0,0,0)" fill-opacity="0.502"/>
<circle cx="5664.00" cy="80.00" r="1424.00" fill="rgb(255,253,207)" fill-opacity="0.502"/>
<circle cx="0.00" cy="2688.00" r="1520.00" fill="rgb(0,0,0)" fill-opacity="0.502"/>
<circle cx="400.00" cy="704.00" r="800.00" fill="rgb(0,0,0)" fill-opacity="0.502"/>
<circle cx="6528.00" cy="2160.00" r="560.00" fill="rgb(248,141,90)" fill-opacity="0.502"/>
<circle cx="8176.00" cy="1072.00" r="1248.00" fill="rgb(0,0,0)" fill-opacity="0.502"/>
<circle cx="3200.00" cy="784.00" r="1568.00" fill="rgb(255,223,163)" fill-opacity="0.502"/>
<g transform="translate(7328.00 4208.00) rotate(360) scale(3296.00 464.00)"><ellipse cx="0" cy="0" rx="1" ry="1" fill="rgb(0,0,0)" fill-opacity="0.502"/></g>
<circle cx="2176.00" cy="2384.00" r="624.00" fill="rgb(34,21,0)" fill-opacity="0.502"/>
<g transform="translate(4880.00 2208.00) rotate(184) scale(2256.00 288.00)"><ellipse cx="0" cy="0" rx="1" ry="1" fill="rgb(255,161,93)" fill-opacity="0.502"/></g>
<g transform="translate(384.00 1600.00) rotate(89) scale(6544.00 720.00)"><ellipse cx="0" cy="0" rx="1" ry="1" fill="rgb(0,0,0)" fill-opacity="0.502"/></g>
<g transform="translate(1488.00 1392.00) rotate(97) scale(880.00 384.00)"><ellipse cx="0" cy="0" rx="1" ry="1" fill="rgb(255,255,255)" fill-opacity="0.502"/></g>
<circle cx="5392.00" cy="208.00" r="688.00" fill="rgb(252,219,200)" fill-opacity="0.502"/>
<circle cx="2272.00" cy="1104.00" r="544.00" fill="rgb(255,255,255)" fill-opacity="0.502"/>
<circle cx="6400.00" cy="3552.00" r="448.00" fill="rgb(182,106,65)" fill-opacity="0.502"/>
<circle cx="1536.00" cy="192.00" r="464.00" fill="rgb(231,237,217)" fill-opacity="0.502"/>
<circle cx="3104.00" cy="1984.00" r="656.00" fill="rgb(194,110,28)" fill-opacity="0.502"/>
<polygon points="4737.19,1393.25 4275.33,1924.57 3550.81,1294.75 4012.67,763.43" fill="rgb(134,89,18)" fill-opacity="0.502"/>
<circle cx="8080.00" cy="2976.00" r="1168.00" fill="rgb(0,0,0)" fill-opacity="0.502"/>
<g transform="translate(4704.00 1088.00) rotate(104) scale(416.00 960.00)"><ellipse cx="0" cy="0" rx="1" ry="1" fill="rgb(172,133,54)" fill-opacity="0.502"/></g>
<circle cx="1440.00" cy="3440.00" r="400.00" fill="rgb(228,230,206)" fill-opacity="0.502"/>
<g transform="translate(6000.00 1600.00) rotate(273) scale(192.00 496.00)"><ellipse cx="0" cy="0" rx="1" ry="1" fill="rgb(64,0,0)" fill-opacity="0.502"/></g>
<polygon points="4943.95,1696.39 5098.71,1026.03 5504.05,1119.61 5349.29,1789.97" fill="rgb(84,48,0)" fill-opacity="0.502"/>
<g transform="translate(6224.00 768.00) rotate(306) scale(352.00 464.00)"><ellipse cx="0" cy="0" rx="1" ry="1" fill="rgb(255,227,209)" fill-opacity="0.502"/></g>
<g transform="translate(1536.00 1184.00) rotate(319) scale(400.00 480.00)"><ellipse cx="0" cy="0" rx="1" ry="1" fill="rgb(255,255,255)" fill-opacity="0.502"/></g>
<g transform="translate(1952.00 2640.00) rotate(81) scale(320.00 464.00)"><ellipse cx="0" cy="0" rx="1" ry="1" fill="rgb(0,0,0)" fill-opacity="0.502"/></g>
<polygon points="7067.32,645.55 6959.35,1113.24 6756.68,1066.45 6864.65,598.76" fill="rgb(255,255,238)" fill-opacity="0.502"/>
<g transform="translate(1280.00 4352.00) rotate(89) scale(1424.00 176.00)"><ellipse cx="0" cy="0" rx="1" ry="1" fill="rgb(191,206,191)" fill-opacity="0.502"/></g>
<g transform="translate(2976.00 112.00) rotate(355) scale(1248.00 336.00)"><ellipse cx="0" cy="0" rx="1" ry="1" fill="rgb(236,255,248)" fill-opacity="0.502"/></g>
<circle cx="6400.00" cy="2880.00" r="432.00" fill="rgb(20,3,0)" fill-opacity="0.502"/>
<polygon points="104.00,4696.00 104.00,3496.00 1096.00,3496.00 1096.00,4696.00" fill="rgb(0,0,0)" fill-opacity="0.502"/>
<g transform="translate(7424.00 144.00) rotate(118) scale(464.00 2496.00)"><ellipse cx="0" cy="0" rx="1" ry="1" fill="rgb(0,0,0)" fill-opacity="0.502"/></g>
<circle cx="3072.00" cy="3408.00" r="944.00" fill="rgb(165,105,72)" fill-opacity="0.502"/>
<g transform="translate(2352.00 1152.00) rotate(168) scale(1264.00 384.00)"><ellipse cx="0" cy="0" rx="1" ry="1" fill="rgb(255,255,255)" fill-opacity="0.502"/></g>
<circle cx="288.00" cy="2704.00" r="896.00" fill="rgb(0,0,0)" fill-opacity="0.502"/>
<circle cx="4528.00" cy="2992.00" r="688.00" fill="rgb(185,91,53)" fill-opacity="0.502"/>
<g transform="translate(1888.00 3920.00) rotate(188) scale(800.00 192.00)"><ellipse cx="0" cy="0" rx="1" ry="1" fill="rgb(183,186,179)" fill-opacity="0.502"/></g>
<circle cx="6192.00" cy="4352.00" r="496.00" fill="rgb(2,0,0)" fill-opacity="0.502"/>
<g transform="translate(5424.00 2144.00) rotate(114) scale(416.00 656.00)"><ellipse cx="0" cy="0" rx="1" ry="1" fill="rgb(230,141,89)" fill-opacity="0.502"/></g>
<polygon points="6361.93,1270.81 6519.54,1472.54 6406.07,1561.19 6248.46,1359.46" fill="rgb(255,226,184)" fill-opacity="0.502"/>
<circle cx="4064.00" cy="4528.00" r="992.00" fill="rgb(111,49,17)" fill-opacity="0.502"/>
<g transform="translate(400.00 928.00) rotate(3) scale(704.00 2176.00)"><ellipse cx="0" cy="0" rx="1" ry="1" fill="rgb(0,0,0)" fill-opacity="0.502"/></g>
<g transform="translate(5792.00 2880.00) rotate(12) scale(368.00 240.00)"><ellipse cx="0" cy="0" rx="1" ry="1" fill="rgb(46,2,0)" fill-opacity="0.502"/></g>
<circle cx="8096.00" cy="2112.00" r="1024.00" fill="rgb(0,0,0)" fill-opacity="0.502"/>
<circle cx="7904.00" cy="3776.00" r="848.00" fill="rgb(0,0,0)" fill-opacity="0.502"/>
<circle cx="3520.00" cy="2672.00" r="384.00" fill="rgb(81,27,22)" fill-opacity="0.502"/>
<circle cx="1888.00" cy="4496.00" r="368.00" fill="rgb(57,11,0)" fill-opacity="0.502"/>
<polygon points="5663.29,3130.82 7092.56,3306.31 7008.71,3989.18 5579.44,3813.69" fill="rgb(156,95,59)" fill-opacity="0.502"/>
<circle cx="2256.00" cy="3232.00" r="320.00" fill="rgb(187,150,107)" fill-opacity="0.502"/>
<g transform="translate(1984.00 3696.00) rotate(2) scale(448.00 144.00)"><ellipse cx="0" cy="0" rx="1" ry="1" fill="rgb(84,36,12)" fill-opacity="0.502"/></g>
<g transform="translate(1648.00 1792.00) rotate(146) scale(400.00 128.00)"><ellipse cx="0" cy="0" rx="1" ry="1" fill="rgb(255,255,229)" fill-opacity="0.502"/></g>
<polygon points="7072.00,2160.00 7072.00,2624.00 6960.00,2624.00 6960.00,2160.00" fill="rgb(255,188,155)" fill-opacity="0.502"/>
<g transform="translate(3056.00 3984.00) rotate(82) scale(144.00 304.00)"><ellipse cx="0" cy="0" rx="1" ry="1" fill="rgb(199,206,204)" fill-opacity="0.502"/></g>
<circle cx="4576.00" cy="1152.00" r="240.00" fill="rgb(252,240,182)" fill-opacity="0.502"/>
<circle cx="4848.00" cy="144.00" r="336.00" fill="rgb(255,243,226)" fill-opacity="0.502"/>
<circle cx="1360.00" cy="448.00" r="272.00" fill="rgb(205,189,165)" fill-opacity="0.502"/>
<g transform="translate(3568.00 2256.00) rotate(254) scale(64.00 288.00)"><ellipse cx="0" cy="0" rx="1" ry="1" fill="rgb(107,49,52)" fill-opacity="0.502"/></g>
<g transform="translate(6320.00 1088.00) rotate(269) scale(384.00 144.00)"><ellipse cx="0" cy="0" rx="1" ry="1" fill="rgb(255,244,226)" fill-opacity="0.502"/></g>
<g transform="translate(7376.00 832.00) rotate(90) scale(8176.00 288.00)"><ellipse cx="0" cy="0" rx="1" ry="1" fill="rgb(0,0,0)" fill-opacity="0.502"/></g>
<circle cx="6736.00" cy="304.00" r="368.00" fill="rgb(188,143,97)" fill-opacity="0.502"/>
<circle cx="1488.00" cy="352.00" r="384.00" fill="rgb(196,185,161)" fill-opacity="0.502"/>
<circle cx="1568.00" cy="4496.00" r="384.00" fill="rgb(74,60,47)" fill-opacity="0.502"/>
<polygon points="1823.54,2429.83 1499.94,2194.72 1744.46,1858.17 2068.06,2093.28" fill="rgb(75,78,0)" fill-opacity="0.502"/>
<circle cx="3312.00" cy="2400.00" r="224.00" fill="rgb(240,144,101)" fill-opacity="0.502"/>
<polygon points="3417.96,1087.41 3367.79,610.04 3686.04,576.59 3736.21,1053.96" fill="rgb(255,255,255)" fill-opacity="0.502"/>
<g transform="translate(5120.00 864.00) rotate(53) scale(496.00 112.00)"><ellipse cx="0" cy="0" rx="1" ry="1" fill="rgb(166,123,57)" fill-opacity="0.502"/></g>
<circle cx="5248.00" cy="4144.00" r="560.00" fill="rgb(50,12,0)" fill-opacity="0.502"/>
<g transform="translate(4256.00 2032.00) rotate(198) scale(912.00 272.00)"><ellipse cx="0" cy="0" rx="1" ry="1" fill="rgb(248,168,125)" fill-opacity="0.502"/></g>
<polygon points="2465.55,739.64 2499.00,421.39 3326.45,508.36 3293.00,826.61" fill="rgb(180,139,100)" fill-opacity="0.502"/>
<g transform="translate(2464.00 1664.00) rotate(72) scale(112.00 928.00)"><ellipse cx="0" cy="0" rx="1" ry="1" fill="rgb(216,157,25)" fill-opacity="0.502"/></g>
<circle cx="6720.00" cy="1312.00" r="304.00" fill="rgb(111,83,0)" fill-opacity="0.502"/>
<circle cx="5376.00" cy="768.00" r="256.00" fill="rgb(248,226,202)" fill-opacity="0.502"/>
<polygon points="1601.32,2485.88 1095.62,2405.79 1150.68,2058.12 1656.38,2138.21" fill="rgb(222,157,81)" fill-opacity="0.502"/>
<g transform="translate(3616.00 3296.00) rotate(263) scale(256.00 512.00)"><ellipse cx="0" cy="0" rx="1" ry="1" fill="rgb(205,144,100)" fill-opacity="0.502"/></g>
<g transform="translate(416.00 4080.00) rotate(273) scale(4912.00 656.00)"><ellipse cx="0" cy="0" rx="1" ry="1" fill="rgb(0,0,0)" fill-opacity="0.502"/></g>
<polygon points="1705.85,3737.21 1442.94,3242.76 2022.15,2934.79 2285.06,3429.24" fill="rgb(150,103,73)" fill-opacity="0.502"/>
<g transform="translate(3456.00 1728.00) rotate(271) scale(512.00 416.00)"><ellipse cx="0" cy="0" rx="1" ry="1" fill="rgb(199,141,86)" fill-opacity="0.502"/></g>
<polygon points="6470.69,1846.30 6339.36,1485.46 6745.31,1337.70 6876.64,1698.54" fill="rgb(47,29,2)" fill-opacity="0.502"/>
<g transform="translate(5872.00 864.00) rotate(124) scale(400.00 288.00)"><ellipse cx="0" cy="0" rx="1" ry="1" fill="rgb(215,151,118)" fill-opacity="0.502"/></g>
<polygon points="1719.98,2835.02 1290.59,3113.87 1064.02,2764.98 1493.41,2486.13" fill="rgb(101,33,10)" fill-opacity="0.502"/>
<g transform="translate(2592.00 2224.00) rotate(133) scale(368.00 400.00)"><ellipse cx="0" cy="0" rx="1" ry="1" fill="rgb(148,99,41)" fill-opacity="0.502"/></g>
<polygon points="2368.00,2752.00 3264.00,2752.00 3264.00,2864.00 2368.00,2864.00" fill="rgb(5,0,0)" fill-opacity="0.502"/>
<polygon points="2720.00,3680.00 2720.00,4160.00 2592.00,4160.00 2592.00,3680.00" fill="rgb(74,40,21)" fill-opacity="0.502"/>
<polygon points="4301.96,1705.98 4306.15,1466.01 4994.04,1478.02 4989.85,1717.99" fill="rgb(24,21,0)" fill-opacity="0.502"/>
<circle cx="7712.00" cy="464.00" r="640.00" fill="rgb(0,0,0)" fill-opacity="0.502"/>
<g transform="translate(5680.00 3472.00) rotate(122) scale(352.00 656.00)"><ellipse cx="0" cy="0" rx="1" ry="1" fill="rgb(153,92,57)" fill-opacity="0.502"/></g>
<g transform="translate(3312.00 2128.00) rotate(335) scale(288.00 208.00)"><ellipse cx="0" cy="0" rx="1" ry="1" fill="rgb(254,173,139)" fill-opacity="0.502"/></g>
<circle cx="1456.00" cy="1696.00" r="208.00" fill="rgb(255,255,255)" fill-opacity="0.502"/>
<polygon points="4228.16,3178.52 4028.10,2971.35 4315.84,2693.48 4515.90,2900.65" fill="rgb(105,26,9)" fill-opacity="0.502"/>
<g transform="translate(3760.00 176.00) rotate(229) scale(224.00 352.00)"><ellipse cx="0" cy="0" rx="1" ry="1" fill="rgb(232,238,203)" fill-opacity="0.502"/></g>
<circle cx="2640.00" cy="4576.00" r="464.00" fill="rgb(119,51,21)" fill-opacity="0.502"/>
<polygon points="6547.55,1000.82 6154.22,865.39 6284.45,487.18 6677.78,622.61" fill="rgb(255,245,230)" fill-opacity="0.502"/>
<circle cx="7664.00" cy="1392.00" r="752.00" fill="rgb(0,0,0)" fill-opacity="0.502"/>
<polygon points="6647.22,782.80 7008.46,853.02 6968.78,1057.20 6607.54,986.98" fill="rgb(255,255,235)" fill-opacity="0.502"/>
<circle cx="1408.00" cy="160.00" r="320.00" fill="rgb(220,231,217)" fill-opacity="0.502"/>
<circle cx="5856.00" cy="0.00" r="288.00" fill="rgb(158,135,97)" fill-opacity="0.502"/>
<circle cx="3648.00" cy="4080.00" r="480.00" fill="rgb(119,72,43)" fill-opacity="0.502"/>
<g transform="translate(7968.00 3296.00) rotate(88) scale(5744.00 864.00)"><ellipse cx="0" cy="0" rx="1" ry="1" fill="rgb(0,0,0)" fill-opacity="0.502"/></g>
<g transform="translate(5120.00 2864.00) rotate(97) scale(96.00 688.00)"><ellipse cx="0" cy="0" rx="1" ry="1" fill="rgb(96,23,11)" fill-opacity="0.502"/></g>
<g transform="translate(5360.00 2560.00) rotate(7) scale(672.00 96.00)"><ellipse cx="0" cy="0" rx="1" ry="1" fill="rgb(175,84,35)" fill-opacity="0.502"/></g>
<g transform="translate(6192.00 64.00) rotate(44) scale(368.00 320.00)"><ellipse cx="0" cy="0" rx="1" ry="1" fill="rgb(182,145,111)" fill-opacity="0.502"/></g>
<g transform="translate(3136.00 1616.00) rotate(147) scale(224.00 176.00)"><ellipse cx="0" cy="0" rx="1" ry="1" fill="rgb(176,130,6)" fill-opacity="0.502"/></g>
<polygon points="3503.32,2322.65 3647.13,2252.51 3920.68,2813.35 3776.87,2883.49" fill="rgb(0,0,0)" fill-opacity="0.502"/>
<circle cx="5392.00" cy="1504.00" r="208.00" fill="rgb(195,125,14)" fill-opacity="0.502"/>
<polygon points="3604.15,935.97 3925.47,1034.21 3803.85,1432.03 3482.53,1333.79" fill="rgb(236,190,171)" fill-opacity="0.502"/>
<polygon points="3789.33,1778.63 3582.16,1578.57 3826.67,1325.37 4033.84,1525.43" fill="rgb(129,61,25)" fill-opacity="0.502"/>
<circle cx="4992.00" cy="704.00" r="208.00" fill="rgb(143,102,60)" fill-opacity="0.502"/>
<g transform="translate(6560.00 4384.00) rotate(97) scale(480.00 624.00)"><ellipse cx="0" cy="0" rx="1" ry="1" fill="rgb(11,0,0)" fill-opacity="0.502"/></g>
<circle cx="368.00" cy="4176.00" r="736.00" fill="rgb(0,0,0)" fill-opacity="0.502"/>
<g transform="translate(2432.00 1728.00) rotate(154) scale(368.00 112.00)"><ellipse cx="0" cy="0" rx="1" ry="1" fill="rgb(214,164,68)" fill-opacity="0.502"/></g>
<g transform="translate(1424.00 4304.00) rotate(275) scale(288.00 160.00)"><ellipse cx="0" cy="0" rx="1" ry="1" fill="rgb(110,103,89)" fill-opacity="0.502"/></g>
<circle cx="1952.00" cy="2672.00" r="288.00" fill="rgb(0,9,0)" fill-opacity="0.502"/>
<g transform="translate(4800.00 3792.00) rotate(186) scale(400.00 48.00)"><ellipse cx="0" cy="0" rx="1" ry="1" fill="rgb(28,0,0)" fill-opacity="0.502"/></g>
<circle cx="5104.00" cy="1584.00" r="160.00" fill="rgb(37,42,7)" fill-opacity="0.502"/>
<polygon points="1480.00,680.00 1480.00,456.00 1944.00,456.00 1944.00,680.00" fill="rgb(166,105,66)" fill-opacity="0.502"/>
<circle cx="1264.00" cy="3232.00" r="176.00" fill="rgb(230,219,191)" fill-opacity="0.502"/>
<polygon points="3119.50,3459.06 1642.59,3640.40 1568.50,3036.94 3045.41,2855.60" fill="rgb(158,118,83)" fill-opacity="0.502"/>
<g transform="translate(5232.00 752.00) rotate(115) scale(240.00 176.00)"><ellipse cx="0" cy="0" rx="1" ry="1" fill="rgb(231,218,190)" fill-opacity="0.502"/></g>
<g transform="translate(3392.00 2576.00) rotate(28) scale(384.00 64.00)"><ellipse cx="0" cy="0" rx="1" ry="1" fill="rgb(197,128,93)" fill-opacity="0.502"/></g>
<polygon points="6092.20,2408.04 6306.04,2517.00 6051.80,3015.96 5837.96,2907.00" fill="rgb(31,24,16)" fill-opacity="0.502"/>
<circle cx="1552.00" cy="3952.00" r="256.00" fill="rgb(167,161,138)" fill-opacity="0.502"/>
<circle cx="1760.00" cy="4048.00" r="80.00" fill="rgb(239,244,247)" fill-opacity="0.502"/>
<g transform="translate(5424.00 1936.00) rotate(44) scale(320.00 80.00)"><ellipse cx="0" cy="0" rx="1" ry="1" fill="rgb(225,165,124)" fill-opacity="0.502"/></g>
<circle cx="704.00" cy="3360.00" r="384.00" fill="rgb(0,0,0)" fill-opacity="0.502"/>
<circle cx="2736.00" cy="960.00" r="352.00" fill="rgb(255,253,244)" fill-opacity="0.502"/>
<polygon points="3534.73,2045.08 3654.76,1916.36 3713.27,1970.92 3593.24,2099.64" fill="rgb(64,0,0)" fill-opacity="0.502"/>
<circle cx="5904.00" cy="4304.00" r="448.00" fill="rgb(33,11,4)" fill-opacity="0.502"/>
<polygon points="4406.92,241.38 4455.42,702.84 4153.08,734.62 4104.58,273.16" fill="rgb(241,227,209)" fill-opacity="0.502"/>
<g transform="translate(3344.00 1008.00) rotate(112) scale(144.00 432.00)"><ellipse cx="0" cy="0" rx="1" ry="1" fill="rgb(231,201,174)" fill-opacity="0.502"/></g>
<g transform="translate(6960.00 2512.00) rotate(57) scale(96.00 128.00)"><ellipse cx="0" cy="0" rx="1" ry="1" fill="rgb(255,160,104)" fill-opacity="0.502"/></g>
<circle cx="5696.00" cy="1216.00" r="224.00" fill="rgb(236,185,149)" fill-opacity="0.502"/>
<g transform="translate(2768.00 3648.00) rotate(271) scale(192.00 608.00)"><ellipse cx="0" cy="0" rx="1" ry="1" fill="rgb(103,65,35)" fill-opacity="0.502"/></g>
<circle cx="4048.00" cy="3360.00" r="256.00" fill="rgb(163,113,76)" fill-opacity="0.502"/>
<circle cx="6592.00" cy="2912.00" r="416.00" fill="rgb(41,17,10)" fill-opacity="0.502"/>
<g transform="translate(2320.00 1760.00) rotate(357) scale(576.00 112.00)"><ellipse cx="0" cy="0" rx="1" ry="1" fill="rgb(210,162,106)" fill-opacity="0.502"/></g>
<polygon points="5022.57,1309.12 5008.33,1580.75 4209.43,1538.88 4223.67,1267.25" fill="rgb(150,146,64)" fill-opacity="0.502"/>
<g transform="translate(4912.00 672.00) rotate(154) scale(336.00 112.00)"><ellipse cx="0" cy="0" rx="1" ry="1" fill="rgb(149,102,63)" fill-opacity="0.502"/></g>
<polygon points="3628.56,1782.86 3487.49,1977.02 3267.44,1817.14 3408.51,1622.98" fill="rgb(240,190,152)" fill-opacity="0.502"/>
<g transform="translate(3632.00 688.00) rotate(77) scale(112.00 288.00)"><ellipse cx="0" cy="0" rx="1" ry="1" fill="rgb(255,255,255)" fill-opacity="0.502"/></g>
<g transform="translate(1952.00 1056.00) rotate(171) scale(832.00 384.00)"><ellipse cx="0" cy="0" rx="1" ry="1" fill="rgb(255,255,246)" fill-opacity="0.502"/></g>
<polygon points="1765.08,2658.33 1696.05,2167.16 2218.92,2093.67 2287.95,2584.84" fill="rgb(29,35,0)" fill-opacity="0.502"/>
<g transform="translate(6016.00 2960.00) rotate(189) scale(448.00 144.00)"><ellipse cx="0" cy="0" rx="1" ry="1" fill="rgb(19,12,4)" fill-opacity="0.502"/></g>
<polygon points="3072.00,448.00 3232.00,448.00 3232.00,944.00 3072.00,944.00" fill="rgb(167,136,84)" fill-opacity="0.502"/>
<circle cx="1712.00" cy="80.00" r="128.00" fill="rgb(143,100,55)" fill-opacity="0.502"/>
<g transform="translate(2496.00 3968.00) rotate(216) scale(192.00 144.00)"><ellipse cx="0" cy="0" rx="1" ry="1" fill="rgb(202,206,199)" fill-opacity="0.502"/></g>
<circle cx="7008.00" cy="3088.00" r="224.00" fill="rgb(6,0,0)" fill-opacity="0.502"/>
<circle cx="6672.00" cy="4528.00" r="576.00" fill="rgb(12,3,0)" fill-opacity="0.502"/>
<circle cx="3696.00" cy="2208.00" r="112.00" fill="rgb(85,9,1)" fill-opacity="0.502"/>
<polygon points="1217.49,711.73 1174.30,524.65 1470.51,456.27 1513.70,643.35" fill="rgb(158,91,40)" fill-opacity="0.502"/>
<circle cx="1904.00" cy="1312.00" r="400.00" fill="rgb(251,250,243)" fill-opacity="0.502"/>
<circle cx="1168.00" cy="2032.00" r="144.00" fill="rgb(117,65,14)" fill-opacity="0.502"/>
<polygon points="5113.81,1702.04 5153.86,1954.89 4806.19,2009.96 4766.14,1757.11" fill="rgb(109,73,74)" fill-opacity="0.502"/>
<g transform="translate(3856.00 1472.00) rotate(34) scale(208.00 192.00)"><ellipse cx="0" cy="0" rx="1" ry="1" fill="rgb(134,83,40)" fill-opacity="0.502"/></g>
<g transform="translate(1296.00 3664.00) rotate(4) scale(192.00 432.00)"><ellipse cx="0" cy="0" rx="1" ry="1" fill="rgb(181,190,170)" fill-opacity="0.502"/></g>
<g transform="translate(4752.00 3296.00) rotate(3) scale(464.00 320.00)"><ellipse cx="0" cy="0" rx="1" ry="1" fill="rgb(162,113,76)" fill-opacity="0.502"/></g>
<polygon points="4152.00,4040.00 4152.00,3928.00 4952.00,3928.00 4952.00,4040.00" fill="rgb(67,25,2)" fill-opacity="0.502"/>
<circle cx="5792.00" cy="272.00" r="160.00" fill="rgb(241,218,202)" fill-opacity="0.502"/>
<polygon points="4779.22,1915.55 4912.59,2053.67 4532.78,2420.45 4399.41,2282.33" fill="rgb(246,153,93)" fill-opacity="0.502"/>
<polygon points="1120.00,240.00 2176.00,240.00 2176.00,448.00 1120.00,448.00" fill="rgb(225,250,255)" fill-opacity="0.502"/>
<g transform="translate(2752.00 2640.00) rotate(268) scale(48.00 576.00)"><ellipse cx="0" cy="0" rx="1" ry="1" fill="rgb(49,21,9)" fill-opacity="0.502"/></g>
<polygon points="4249.84,1635.66 4276.33,1938.50 3798.16,1980.34 3771.67,1677.50" fill="rgb(225,179,145)" fill-opacity="0.502"/>
<circle cx="4960.00" cy="96.00" r="432.00" fill="rgb(236,219,196)" fill-opacity="0.502"/>
<g transform="translate(544.00 1232.00) rotate(150) scale(496.00 720.00)"><ellipse cx="0" cy="0" rx="1" ry="1" fill="rgb(0,0,0)" fill-opacity="0.502"/></g>
<g transform="translate(6800.00 1632.00) rotate(7) scale(96.00 608.00)"><ellipse cx="0" cy="0" rx="1" ry="1" fill="rgb(147,110,37)" fill-opacity="0.502"/></g>
<g transform="translate(4016.00 256.00) rotate(256) scale(128.00 688.00)"><ellipse cx="0" cy="0" rx="1" ry="1" fill="rgb(213,212,193)" fill-opacity="0.502"/></g>
<polygon points="2895.49,3006.05 2845.29,3579.86 2000.51,3505.95 2050.71,2932.14" fill="rgb(159,124,88)" fill-opacity="0.502"/>
<circle cx="5184.00" cy="1296.00" r="160.00" fill="rgb(81,51,0)" fill-opacity="0.502"/>
<polygon points="2529.34,3652.04 2670.19,3622.10 2766.66,4075.96 2625.81,4105.90" fill="rgb(104,66,43)" fill-opacity="0.502"/>
<polygon points="2376.10,4531.91 2047.48,4405.77 2167.90,4092.09 2496.52,4218.23" fill="rgb(113,58,36)" fill-opacity="0.502"/>
<polygon points="1656.00,3240.00 1656.00,3848.00 1416.00,3848.00 1416.00,3240.00" fill="rgb(166,154,135)" fill-opacity="0.502"/>
<g transform="translate(4512.00 608.00) rotate(335) scale(192.00 144.00)"><ellipse cx="0" cy="0" rx="1" ry="1" fill="rgb(212,152,120)" fill-opacity="0.502"/></g>
<circle cx="384.00" cy="176.00" r="720.00" fill="rgb(0,0,0)" fill-opacity="0.502"/>
<circle cx="5344.00" cy="2224.00" r="352.00" fill="rgb(208,135,87)" fill-opacity="0.502"/>
<g transform="translate(1856.00 4016.00) rotate(114) scale(416.00 16.00)"><ellipse cx="0" cy="0" rx="1" ry="1" fill="rgb(62,29,19)" fill-opacity="0.502"/></g>
<circle cx="2944.00" cy="3248.00" r="336.00" fill="rgb(155,105,68)" fill-opacity="0.502"/>
<circle cx="3440.00" cy="496.00" r="80.00" fill="rgb(153,138,94)" fill-opacity="0.502"/>
<g transform="translate(3152.00 2832.00) rotate(212) scale(192.00 80.00)"><ellipse cx="0" cy="0" rx="1" ry="1" fill="rgb(84,29,9)" fill-opacity="0.502"/></g>
<polygon points="6543.12,1058.15 6963.77,1849.27 6864.88,1901.85 6444.23,1110.73" fill="rgb(62,46,9)" fill-opacity="0.502"/>
<polygon points="2851.68,3990.65 2936.47,3854.96 3004.32,3897.35 2919.53,4033.04" fill="rgb(61,36,20)" fill-opacity="0.502"/>
<polygon points="5707.99,1083.59 5712.40,1068.21 6020.01,1156.41 6015.60,1171.79" fill="rgb(109,75,44)" fill-opacity="0.502"/>
<g transform="translate(4304.00 2080.00) rotate(346) scale(432.00 288.00)"><ellipse cx="0" cy="0" rx="1" ry="1" fill="rgb(222,153,108)" fill-opacity="0.502"/></g>
<polygon points="6757.74,2797.32 6837.64,2954.14 6538.26,3106.68 6458.36,2949.86" fill="rgb(86,65,44)" fill-opacity="0.502"/>
<circle cx="6464.00" cy="2048.00" r="96.00" fill="rgb(55,21,20)" fill-opacity="0.502"/>
<polygon points="5274.60,2753.02 5888.51,3026.35 5797.40,3230.98 5183.49,2957.65" fill="rgb(97,37,20)" fill-opacity="0.502"/>
<circle cx="3632.00" cy="4032.00" r="448.00" fill="rgb(120,74,45)" fill-opacity="0.502"/>
<g transform="translate(7312.00 2704.00) rotate(4) scale(400.00 128.00)"><ellipse cx="0" cy="0" rx="1" ry="1" fill="rgb(2,0,0)" fill-opacity="0.502"/></g>
<polygon points="2944.00,2704.00 2944.00,2304.00 3504.00,2304.00 3504.00,2704.00" fill="rgb(190,113,76)" fill-opacity="0.502"/>
<circle cx="5296.00" cy="4592.00" r="288.00" fill="rgb(86,44,24)" fill-opacity="0.502"/>
<polygon points="6605.72,1123.00 6755.60,956.53 6898.28,1085.00 6748.40,1251.47" fill="rgb(162,138,15)" fill-opacity="0.502"/>
<g transform="translate(6944.00 560.00) rotate(173) scale(144.00 208.00)"><ellipse cx="0" cy="0" rx="1" ry="1" fill="rgb(211,169,131)" fill-opacity="0.502"/></g>
<polygon points="6538.61,2230.48 6470.22,2526.69 5893.39,2393.52 5961.78,2097.31" fill="rgb(235,146,82)" fill-opacity="0.502"/>
<polygon points="1665.88,2672.21 1232.07,2431.74 1294.12,2319.79 1727.93,2560.26" fill="rgb(106,59,9)" fill-opacity="0.502"/>
<polygon points="2877.28,4150.88 3130.13,4110.83 3202.72,4569.12 2949.87,4609.17" fill="rgb(107,60,34)" fill-opacity="0.502"/>
<g transform="translate(5184.00 48.00) rotate(288) scale(144.00 352.00)"><ellipse cx="0" cy="0" rx="1" ry="1" fill="rgb(255,243,218)" fill-opacity="0.502"/></g>
<g transform="translate(4080.00 1536.00) rotate(349) scale(544.00 80.00)"><ellipse cx="0" cy="0" rx="1" ry="1" fill="rgb(109,70,27)" fill-opacity="0.502"/></g>
<circle cx="1504.00" cy="1776.00" r="240.00" fill="rgb(255,244,225)" fill-opacity="0.502"/>
<circle cx="2208.00" cy="544.00" r="128.00" fill="rgb(177,130,89)" fill-opacity="0.502"/>
<polygon points="6991.39,1324.78 7190.30,1385.59 7040.61,1875.22 6841.70,1814.41" fill="rgb(34,7,0)" fill-opacity="0.502"/>
<polygon points="1634.84,2095.02 1690.51,2491.13 1421.16,2528.98 1365.49,2132.87" fill="rgb(165,128,94)" fill-opacity="0.502"/>
<g transform="translate(5680.00 1360.00) rotate(197) scale(128.00 48.00)"><ellipse cx="0" cy="0" rx="1" ry="1" fill="rgb(255,255,240)" fill-opacity="0.502"/></g>
<circle cx="6960.00" cy="1040.00" r="96.00" fill="rgb(235,178,136)" fill-opacity="0.502"/>
<g transform="translate(6272.00 1888.00) rotate(167) scale(320.00 192.00)"><ellipse cx="0" cy="0" rx="1" ry="1" fill="rgb(118,69,68)" fill-opacity="0.502"/></g>
<polygon points="3564.88,1333.44 3775.21,937.88 3987.12,1050.56 3776.79,1446.12" fill="rgb(214,162,124)" fill-opacity="0.502"/>
<circle cx="5728.00" cy="0.00" r="144.00" fill="rgb(123,109,68)" fill-opacity="0.502"/>
<polygon points="4850.83,1809.79 4843.03,1873.31 4557.17,1838.21 4564.97,1774.69" fill="rgb(235,189,178)" fill-opacity="0.502"/>
<circle cx="4048.00" cy="896.00" r="144.00" fill="rgb(127,98,52)" fill-opacity="0.502"/>
<circle cx="6192.00" cy="1312.00" r="144.00" fill="rgb(209,157,117)" fill-opacity="0.502"/>
<polygon points="3680.80,2726.66 3760.02,2715.52 3791.20,2937.34 3711.98,2948.48" fill="rgb(0,0,0)" fill-opacity="0.502"/>
<polygon points="3689.74,2419.08 3817.52,2515.37 3798.26,2540.92 3670.48,2444.63" fill="rgb(255,141,145)" fill-opacity="0.502"/>
<polygon points="1939.89,432.99 2803.37,463.14 2796.11,671.01 1932.63,640.86" fill="rgb(173,130,92)" fill-opacity="0.502"/>
<circle cx="5776.00" cy="1888.00" r="160.00" fill="rgb(147,68,68)" fill-opacity="0.502"/>
<circle cx="6784.00" cy="3632.00" r="336.00" fill="rgb(117,75,50)" fill-opacity="0.502"/>
<g transform="translate(1760.00 1504.00) rotate(84) scale(176.00 528.00)"><ellipse cx="0" cy="0" rx="1" ry="1" fill="rgb(255,255,248)" fill-opacity="0.502"/></g>
<circle cx="6928.00" cy="2016.00" r="176.00" fill="rgb(112,73,77)" fill-opacity="0.502"/>
<polygon points="1399.95,704.37 2614.28,768.01 2600.05,1039.63 1385.72,975.99" fill="rgb(255,255,250)" fill-opacity="0.502"/>
<g transform="translate(4752.00 3088.00) rotate(2) scale(256.00 96.00)"><ellipse cx="0" cy="0" rx="1" ry="1" fill="rgb(193,116,86)" fill-opacity="0.502"/></g>
<circle cx="5984.00" cy="1840.00" r="80.00" fill="rgb(225,143,137)" fill-opacity="0.502"/>
<polygon points="6221.27,1603.17 6101.97,1773.55 5826.73,1580.83 5946.03,1410.45" fill="rgb(65,12,0)" fill-opacity="0.502"/>
<circle cx="3344.00" cy="1232.00" r="160.00" fill="rgb(215,175,109)" fill-opacity="0.502"/>
<polygon points="3683.61,2364.69 3749.53,2254.98 3996.39,2403.31 3930.47,2513.02" fill="rgb(211,119,83)" fill-opacity="0.502"/>
<circle cx="2320.00" cy="2768.00" r="128.00" fill="rgb(0,0,0)" fill-opacity="0.502"/>
<polygon points="6778.82,314.63 6773.23,-5.32 7077.18,-10.63 7082.77,309.32" fill="rgb(141,110,68)" fill-opacity="0.502"/>
<polygon points="1241.47,2283.23 1412.77,2473.47 1222.53,2644.77 1051.23,2454.53" fill="rgb(80,55,0)" fill-opacity="0.502"/>
<g transform="translate(2160.00 2016.00) rotate(108) scale(128.00 336.00)"><ellipse cx="0" cy="0" rx="1" ry="1" fill="rgb(120,96,9)" fill-opacity="0.502"/></g>
<g transform="translate(448.00 4448.00) rotate(56) scale(1408.00 496.00)"><ellipse cx="0" cy="0" rx="1" ry="1" fill="rgb(0,0,0)" fill-opacity="0.502"/></g>
<g transform="translate(2528.00 0.00) rotate(88) scale(176.00 720.00)"><ellipse cx="0" cy="0" rx="1" ry="1" fill="rgb(255,251,224)" fill-opacity="0.502"/></g>
<polygon points="2431.33,2528.80 2397.87,2911.34 1664.67,2847.20 1698.13,2464.66" fill="rgb(3,11,0)" fill-opacity="0.502"/>
<g transform="translate(5568.00 4048.00) rotate(287) scale(256.00 416.00)"><ellipse cx="0" cy="0" rx="1" ry="1" fill="rgb(33,16,7)" fill-opacity="0.502"/></g>
<g transform="translate(2816.00 1648.00) rotate(335) scale(128.00 48.00)"><ellipse cx="0" cy="0" rx="1" ry="1" fill="rgb(176,120,0)" fill-opacity="0.502"/></g>
<circle cx="6192.00" cy="2656.00" r="208.00" fill="rgb(49,37,26)" fill-opacity="0.502"/>
<circle cx="2032.00" cy="4368.00" r="256.00" fill="rgb(99,52,33)" fill-opacity="0.502"/>
<circle cx="7520.00" cy="288.00" r="448.00" fill="rgb(0,0,0)" fill-opacity="0.502"/>
<polygon points="6957.37,716.51 6761.71,527.56 6850.63,435.49 7046.29,624.44" fill="rgb(137,106,56)" fill-opacity="0.502"/>
<polygon points="5870.31,1045.05 5651.06,947.43 5761.69,698.95 5980.94,796.57" fill="rgb(244,199,170)" fill-opacity="0.502"/>
<g transform="translate(4400.00 4352.00) rotate(291) scale(96.00 1296.00)"><ellipse cx="0" cy="0" rx="1" ry="1" fill="rgb(108,62,39)" fill-opacity="0.502"/></g>
<polygon points="4037.84,529.25 4044.53,465.60 4474.16,510.75 4467.47,574.40" fill="rgb(179,151,123)" fill-opacity="0.502"/>
<g transform="translate(2368.00 2144.00) rotate(305) scale(64.00 160.00)"><ellipse cx="0" cy="0" rx="1" ry="1" fill="rgb(138,111,75)" fill-opacity="0.502"/></g>
<polygon points="4249.93,642.39 4156.17,370.08 4262.07,333.61 4355.83,605.92" fill="rgb(255,255,240)" fill-opacity="0.502"/>
<circle cx="5392.00" cy="1168.00" r="160.00" fill="rgb(178,121,10)" fill-opacity="0.502"/>
<polygon points="6671.51,1006.14 6644.47,948.14 6992.49,785.86 7019.53,843.86" fill="rgb(255,221,203)" fill-opacity="0.502"/>
<g transform="translate(5680.00 1472.00) rotate(120) scale(48.00 96.00)"><ellipse cx="0" cy="0" rx="1" ry="1" fill="rgb(159,46,14)" fill-opacity="0.502"/></g>
<polygon points="4050.30,1326.04 3963.33,1001.49 4349.70,897.96 4436.67,1222.51" fill="rgb(192,155,74)" fill-opacity="0.502"/>
<g transform="translate(6464.00 240.00) rotate(204) scale(688.00 32.00)"><ellipse cx="0" cy="0" rx="1" ry="1" fill="rgb(255,248,227)" fill-opacity="0.502"/></g>
<g transform="translate(4240.00 3840.00) rotate(182) scale(368.00 80.00)"><ellipse cx="0" cy="0" rx="1" ry="1" fill="rgb(150,99,70)" fill-opacity="0.502"/></g>
<g transform="translate(2320.00 16.00) rotate(207) scale(384.00 464.00)"><ellipse cx="0" cy="0" rx="1" ry="1" fill="rgb(227,235,212)" fill-opacity="0.502"/></g>
<polygon points="6014.74,1438.41 6795.76,1506.74 6769.26,1809.59 5988.24,1741.26" fill="rgb(67,30,8)" fill-opacity="0.502"/>
<g transform="translate(1792.00 4544.00) rotate(75) scale(448.00 192.00)"><ellipse cx="0" cy="0" rx="1" ry="1" fill="rgb(68,35,19)" fill-opacity="0.502"/></g>
<g transform="translate(3184.00 352.00) rotate(95) scale(96.00 672.00)"><ellipse cx="0" cy="0" rx="1" ry="1" fill="rgb(214,237,227)" fill-opacity="0.502"/></g>
<polygon points="2719.76,1515.02 2514.92,1551.14 2448.24,1172.98 2653.08,1136.86" fill="rgb(249,249,231)" fill-opacity="0.502"/>
<circle cx="4480.00" cy="0.00" r="288.00" fill="rgb(214,190,165)" fill-opacity="0.502"/>
<g transform="translate(2976.00 2176.00) rotate(312) scale(496.00 64.00)"><ellipse cx="0" cy="0" rx="1" ry="1" fill="rgb(210,131,79)" fill-opacity="0.502"/></g>
<circle cx="5952.00" cy="720.00" r="224.00" fill="rgb(205,161,127)" fill-opacity="0.502"/>
<circle cx="2832.00" cy="4000.00" r="64.00" fill="rgb(255,255,255)" fill-opacity="0.502"/>
<polygon points="1124.92,3120.83 1102.66,2962.39 1467.08,2911.17 1489.34,3069.61" fill="rgb(136,97,65)" fill-opacity="0.502"/>
<g transform="translate(2832.00 2016.00) rotate(281) scale(192.00 192.00)"><ellipse cx="0" cy="0" rx="1" ry="1" fill="rgb(170,131,17)" fill-opacity="0.502"/></g>
<g transform="translate(4192.00 2416.00) rotate(15) scale(400.00 96.00)"><ellipse cx="0" cy="0" rx="1" ry="1" fill="rgb(196,118,89)" fill-opacity="0.502"/></g>
<g transform="translate(7648.00 3792.00) rotate(258) scale(1040.00 528.00)"><ellipse cx="0" cy="0" rx="1" ry="1" fill="rgb(0,0,0)" fill-opacity="0.502"/></g>
<g transform="translate(3136.00 1104.00) rotate(246) scale(80.00 528.00)"><ellipse cx="0" cy="0" rx="1" ry="1" fill="rgb(254,255,248)" fill-opacity="0.502"/></g>
<polygon points="1647.10,2636.58 1195.03,2876.95 1104.90,2707.42 1556.97,2467.05" fill="rgb(59,13,3)" fill-opacity="0.502"/>
<g transform="translate(6672.00 432.00) rotate(314) scale(64.00 128.00)"><ellipse cx="0" cy="0" rx="1" ry="1" fill="rgb(134,113,66)" fill-opacity="0.502"/></g>
<circle cx="5616.00" cy="2208.00" r="256.00" fill="rgb(221,130,74)" fill-opacity="0.502"/>
<circle cx="4256.00" cy="3024.00" r="48.00" fill="rgb(215,146,124)" fill-opacity="0.502"/>
<circle cx="6256.00" cy="1136.00" r="144.00" fill="rgb(253,225,206)" fill-opacity="0.502"/>
<g transform="translate(3920.00 1344.00) rotate(110) scale(208.00 96.00)"><ellipse cx="0" cy="0" rx="1" ry="1" fill="rgb(158,115,50)" fill-opacity="0.502"/></g>
<g transform="translate(5296.00 3728.00) rotate(181) scale(656.00 64.00)"><ellipse cx="0" cy="0" rx="1" ry="1" fill="rgb(95,62,41)" fill-opacity="0.502"/></g>
<circle cx="3136.00" cy="736.00" r="192.00" fill="rgb(219,179,142)" fill-opacity="0.502"/>
<circle cx="5152.00" cy="3312.00" r="336.00" fill="rgb(147,95,61)" fill-opacity="0.502"/>
<polygon points="1592.68,3022.00 1779.76,2978.81 1927.32,3618.00 1740.24,3661.19" fill="rgb(132,92,68)" fill-opacity="0.502"/>
<circle cx="1440.00" cy="48.00" r="128.00" fill="rgb(145,117,67)" fill-opacity="0.502"/>
<circle cx="6912.00" cy="2304.00" r="112.00" fill="rgb(233,141,104)" fill-opacity="0.502"/>
<polygon points="6484.21,1534.67 6359.98,1998.32 6251.79,1969.33 6376.02,1505.68" fill="rgb(179,96,79)" fill-opacity="0.502"/>
<polygon points="6451.65,1888.79 6459.16,1936.20 6364.35,1951.21 6356.84,1903.80" fill="rgb(240,207,173)" fill-opacity="0.502"/>
<polygon points="2888.61,1241.15 2731.04,1213.37 2839.39,598.85 2996.96,626.63" fill="rgb(255,255,252)" fill-opacity="0.502"/>
<g transform="translate(6384.00 3952.00) rotate(265) scale(112.00 432.00)"><ellipse cx="0" cy="0" rx="1" ry="1" fill="rgb(64,27,22)" fill-opacity="0.502"/></g>
<polygon points="1424.30,2170.88 1285.12,2016.30 1439.70,1877.12 1578.88,2031.70" fill="rgb(255,222,193)" fill-opacity="0.502"/>
<polygon points="1607.32,2187.77 1138.35,2349.25 1096.68,2228.23 1565.65,2066.75" fill="rgb(197,150,101)" fill-opacity="0.502"/>
<circle cx="1344.00" cy="3280.00" r="192.00" fill="rgb(202,200,175)" fill-opacity="0.502"/>
<polygon points="3491.80,1892.76 3556.87,2038.93 2972.20,2299.24 2907.13,2153.07" fill="rgb(242,163,117)" fill-opacity="0.502"/>
<polygon points="1961.81,3788.29 1692.46,3826.15 1670.19,3667.71 1939.54,3629.85" fill="rgb(70,33,13)" fill-opacity="0.502"/>
<polygon points="6816.00,3328.00 7072.00,3328.00 7072.00,3936.00 6816.00,3936.00" fill="rgb(129,82,55)" fill-opacity="0.502"/>
<polygon points="1493.18,3416.80 1547.13,3283.29 1754.82,3367.20 1700.87,3500.71" fill="rgb(116,102,98)" fill-opacity="0.502"/>
<polygon points="4200.97,1590.36 4231.11,1159.41 4263.03,1161.64 4232.89,1592.59" fill="rgb(230,184,138)" fill-opacity="0.502"/>
<circle cx="3120.00" cy="1248.00" r="128.00" fill="rgb(245,240,214)" fill-opacity="0.502"/>
<g transform="translate(6560.00 3424.00) rotate(96) scale(192.00 544.00)"><ellipse cx="0" cy="0" rx="1" ry="1" fill="rgb(125,77,54)" fill-opacity="0.502"/></g>
<g transform="translate(7936.00 2064.00) rotate(6) scale(816.00 2896.00)"><ellipse cx="0" cy="0" rx="1" ry="1" fill="rgb(0,0,0)" fill-opacity="0.502"/></g>
<g transform="translate(1488.00 1104.00) rotate(44) scale(480.00 256.00)"><ellipse cx="0" cy="0" rx="1" ry="1" fill="rgb(250,242,227)" fill-opacity="0.502"/></g>
<polygon points="3181.04,1912.74 3219.93,1692.14 3282.96,1703.26 3244.07,1923.86" fill="rgb(222,182,141)" fill-opacity="0.502"/>
<g transform="translate(5488.00 528.00) rotate(330) scale(320.00 128.00)"><ellipse cx="0" cy="0" rx="1" ry="1" fill="rgb(245,222,207)" fill-opacity="0.502"/></g>
<g transform="translate(2496.00 2288.00) rotate(259) scale(432.00 48.00)"><ellipse cx="0" cy="0" rx="1" ry="1" fill="rgb(84,49,41)" fill-opacity="0.502"/></g>
<g transform="translate(4144.00 2752.00) rotate(98) scale(384.00 48.00)"><ellipse cx="0" cy="0" rx="1" ry="1" fill="rgb(135,68,46)" fill-opacity="0.502"/></g>
<polygon points="5453.07,636.04 5444.70,540.40 5906.93,499.96 5915.30,595.60" fill="rgb(190,143,119)" fill-opacity="0.502"/>
<circle cx="3712.00" cy="1776.00" r="128.00" fill="rgb(231,159,121)" fill-opacity="0.502"/>
<polygon points="4488.66,1913.68 4939.65,2217.88 4823.34,2390.32 4372.35,2086.12" fill="rgb(241,151,91)" fill-opacity="0.502"/>
<polygon points="5068.23,119.09 5090.56,438.31 4595.77,472.91 4573.44,153.69" fill="rgb(242,227,205)" fill-opacity="0.502"/>
<circle cx="3072.00" cy="3952.00" r="96.00" fill="rgb(255,255,255)" fill-opacity="0.502"/>
<polygon points="3915.27,3164.37 3628.36,3139.27 3636.73,3043.63 3923.64,3068.73" fill="rgb(246,170,141)" fill-opacity="0.502"/>
<circle cx="6000.00" cy="432.00" r="112.00" fill="rgb(255,242,230)" fill-opacity="0.502"/>
<g transform="translate(608.00 2144.00) rotate(329) scale(480.00 544.00)"><ellipse cx="0" cy="0" rx="1" ry="1" fill="rgb(0,0,0)" fill-opacity="0.502"/></g>
<polygon points="1549.34,3878.94 1884.81,4096.80 1858.66,4137.06 1523.19,3919.20" fill="rgb(144,143,133)" fill-opacity="0.502"/>
<polygon points="4913.94,1666.97 4877.82,1871.81 4862.06,1869.03 4898.18,1664.19" fill="rgb(254,219,201)" fill-opacity="0.502"/>
<polygon points="1432.18,472.43 1519.47,566.04 1191.82,871.57 1104.53,777.96" fill="rgb(194,140,96)" fill-opacity="0.502"/>
<polygon points="5599.27,2777.76 5039.61,2758.22 5040.73,2726.24 5600.39,2745.78" fill="rgb(255,193,161)" fill-opacity="0.502"/>
<circle cx="6080.00" cy="1216.00" r="48.00" fill="rgb(255,226,209)" fill-opacity="0.502"/>
<polygon points="6152.00,216.00 6152.00,280.00 5720.00,280.00 5720.00,216.00" fill="rgb(170,140,100)" fill-opacity="0.502"/>
<polygon points="3785.26,2839.89 3994.97,2693.05 4086.74,2824.11 3877.03,2970.95" fill="rgb(140,89,67)" fill-opacity="0.502"/>
<circle cx="4064.00" cy="3936.00" r="64.00" fill="rgb(62,8,0)" fill-opacity="0.502"/>
<g transform="translate(6336.00 1616.00) rotate(246) scale(64.00 400.00)"><ellipse cx="0" cy="0" rx="1" ry="1" fill="rgb(58,23,8)" fill-opacity="0.502"/></g>
<polygon points="3462.43,1213.38 3593.22,1095.61 3689.57,1202.62 3558.78,1320.39" fill="rgb(237,223,200)" fill-opacity="0.502"/>
<polygon points="4717.16,1908.07 4727.17,1844.86 5074.84,1899.93 5064.83,1963.14" fill="rgb(69,15,0)" fill-opacity="0.502"/>
<circle cx="2960.00" cy="1776.00" r="96.00" fill="rgb(223,177,141)" fill-opacity="0.502"/>
<polygon points="5006.35,345.89 5133.40,330.29 5201.65,886.11 5074.60,901.71" fill="rgb(196,170,119)" fill-opacity="0.502"/>
<circle cx="6704.00" cy="1952.00" r="144.00" fill="rgb(181,127,90)" fill-opacity="0.502"/>
<polygon points="1211.85,1479.32 1603.17,1101.43 1892.15,1400.68 1500.83,1778.57" fill="rgb(254,255,251)" fill-opacity="0.502"/>
<circle cx="1488.00" cy="3040.00" r="64.00" fill="rgb(149,92,66)" fill-opacity="0.502"/>
<polygon points="2122.06,4569.20 2001.87,4343.17 2453.94,4102.80 2574.13,4328.83" fill="rgb(114,67,44)" fill-opacity="0.502"/>
<polygon points="3549.59,3696.72 3348.67,3750.56 3282.41,3503.28 3483.33,3449.44" fill="rgb(150,97,55)" fill-opacity="0.502"/>
<polygon points="2221.43,3888.50 2149.44,3576.70 2258.57,3551.50 2330.56,3863.30" fill="rgb(112,73,57)" fill-opacity="0.502"/>
<polygon points="5264.20,2274.31 5297.35,2004.34 5503.80,2029.69 5470.65,2299.66" fill="rgb(162,88,73)" fill-opacity="0.502"/>
<polygon points="2736.00,1856.00 2736.00,2032.00 2720.00,2032.00 2720.00,1856.00" fill="rgb(68,23,0)" fill-opacity="0.502"/>
<circle cx="5888.00" cy="128.00" r="48.00" fill="rgb(255,255,255)" fill-opacity="0.502"/>
<circle cx="6784.00" cy="2048.00" r="96.00" fill="rgb(69,24,15)" fill-opacity="0.502"/>
<circle cx="4576.00" cy="1088.00" r="160.00" fill="rgb(248,222,191)" fill-opacity="0.502"/>
<circle cx="336.00" cy="2736.00" r="784.00" fill="rgb(0,0,0)" fill-opacity="0.502"/>
<g transform="translate(624.00 1696.00) rotate(55) scale(416.00 512.00)"><ellipse cx="0" cy="0" rx="1" ry="1" fill="rgb(0,0,0)" fill-opacity="0.502"/></g>
<polygon points="6435.20,3617.45 6460.40,3726.58 5836.80,3870.55 5811.60,3761.42" fill="rgb(160,113,79)" fill-opacity="0.502"/>
<polygon points="3277.43,3874.62 2806.98,3634.91 2850.57,3549.38 3321.02,3789.09" fill="rgb(104,63,36)" fill-opacity="0.502"/>
<circle cx="5104.00" cy="3920.00" r="64.00" fill="rgb(103,63,49)" fill-opacity="0.502"/>
<g transform="translate(4832.00 1648.00) rotate(299) scale(48.00 96.00)"><ellipse cx="0" cy="0" rx="1" ry="1" fill="rgb(4,0,0)" fill-opacity="0.502"/></g>
<g transform="translate(6400.00 48.00) rotate(26) scale(752.00 96.00)"><ellipse cx="0" cy="0" rx="1" ry="1" fill="rgb(132,91,61)" fill-opacity="0.502"/></g>
<g transform="translate(5168.00 2128.00) rotate(18) scale(80.00 352.00)"><ellipse cx="0" cy="0" rx="1" ry="1" fill="rgb(223,165,121)" fill-opacity="0.502"/></g>
<polygon points="4765.60,2813.60 4610.27,2926.45 4450.40,2706.40 4605.73,2593.55" fill="rgb(179,101,75)" fill-opacity="0.502"/>
<g transform="translate(5344.00 336.00) rotate(270) scale(112.00 176.00)"><ellipse cx="0" cy="0" rx="1" ry="1" fill="rgb(193,168,152)" fill-opacity="0.502"/></g>
<g transform="translate(2112.00 240.00) rotate(177) scale(1008.00 80.00)"><ellipse cx="0" cy="0" rx="1" ry="1" fill="rgb(207,220,194)" fill-opacity="0.502"/></g>
<circle cx="2496.00" cy="3920.00" r="112.00" fill="rgb(183,179,171)" fill-opacity="0.502"/>
<g transform="translate(2624.00 4304.00) rotate(211) scale(160.00 240.00)"><ellipse cx="0" cy="0" rx="1" ry="1" fill="rgb(123,76,47)" fill-opacity="0.502"/></g>
<polygon points="5636.69,261.80 5043.29,501.54 5019.31,442.20 5612.71,202.46" fill="rgb(255,255,252)" fill-opacity="0.502"/>
<polygon points="5062.35,1766.20 5007.49,1733.23 5081.65,1609.80 5136.51,1642.77" fill="rgb(26,0,0)" fill-opacity="0.502"/>
<circle cx="2096.00" cy="2160.00" r="176.00" fill="rgb(57,57,0)" fill-opacity="0.502"/>
<g transform="translate(1152.00 1984.00) rotate(89) scale(336.00 48.00)"><ellipse cx="0" cy="0" rx="1" ry="1" fill="rgb(185,134,78)" fill-opacity="0.502"/></g>
<g transform="translate(2688.00 2288.00) rotate(155) scale(176.00 272.00)"><ellipse cx="0" cy="0" rx="1" ry="1" fill="rgb(150,92,56)" fill-opacity="0.502"/></g>
<g transform="translate(5008.00 2736.00) rotate(183) scale(976.00 16.00)"><ellipse cx="0" cy="0" rx="1" ry="1" fill="rgb(236,185,158)" fill-opacity="0.502"/></g>
<polygon points="6208.76,2214.85 6234.11,2421.30 5551.24,2505.15 5525.89,2298.70" fill="rgb(228,147,77)" fill-opacity="0.502"/>
<circle cx="4640.00" cy="3632.00" r="160.00" fill="rgb(109,72,47)" fill-opacity="0.502"/>
<polygon points="4703.33,1384.85 4754.54,1020.43 4944.67,1047.15 4893.46,1411.57" fill="rgb(196,171,116)" fill-opacity="0.502"/>
<g transform="translate(5632.00 3248.00) rotate(80) scale(112.00 544.00)"><ellipse cx="0" cy="0" rx="1" ry="1" fill="rgb(148,85,55)" fill-opacity="0.502"/></g>
<polygon points="6926.05,1037.23 6579.39,976.10 6609.95,802.77 6956.61,863.90" fill="rgb(255,233,209)" fill-opacity="0.502"/>
<polygon points="6968.00,2360.00 6968.00,2504.00 6328.00,2504.00 6328.00,2360.00" fill="rgb(208,124,71)" fill-opacity="0.502"/>
<circle cx="7088.00" cy="4432.00" r="192.00" fill="rgb(0,0,0)" fill-opacity="0.502"/>
<polygon points="5994.89,897.80 5909.09,969.79 5765.11,798.20 5850.91,726.21" fill="rgb(248,207,176)" fill-opacity="0.502"/>
<circle cx="4880.00" cy="3648.00" r="128.00" fill="rgb(105,68,38)" fill-opacity="0.502"/>
<polygon points="4105.39,195.52 4233.21,188.83 4246.61,444.48 4118.79,451.17" fill="rgb(253,239,207)" fill-opacity="0.502"/>
<polygon points="1226.02,4456.85 1344.92,4563.91 1269.98,4647.15 1151.08,4540.09" fill="rgb(190,173,153)" fill-opacity="0.502"/>
<polygon points="1678.45,2483.34 1726.01,2783.60 1441.55,2828.66 1393.99,2528.40" fill="rgb(79,32,15)" fill-opacity="0.502"/>
<g transform="translate(7264.00 1168.00) rotate(123) scale(288.00 304.00)"><ellipse cx="0" cy="0" rx="1" ry="1" fill="rgb(12,4,1)" fill-opacity="0.502"/></g>
<circle cx="3984.00" cy="736.00" r="112.00" fill="rgb(163,128,87)" fill-opacity="0.502"/>
<g transform="translate(3312.00 2240.00) rotate(14) scale(208.00 96.00)"><ellipse cx="0" cy="0" rx="1" ry="1" fill="rgb(223,144,92)" fill-opacity="0.502"/></g>
<g transform="translate(5616.00 2080.00) rotate(172) scale(272.00 80.00)"><ellipse cx="0" cy="0" rx="1" ry="1" fill="rgb(218,128,95)" fill-opacity="0.502"/></g>
<polygon points="6698.92,1454.05 6638.73,1288.67 6789.08,1233.95 6849.27,1399.33" fill="rgb(108,75,10)" fill-opacity="0.502"/>
<g transform="translate(3344.00 2432.00) rotate(320) scale(32.00 512.00)"><ellipse cx="0" cy="0" rx="1" ry="1" fill="rgb(210,136,98)" fill-opacity="0.502"/></g>
<g transform="translate(4176.00 4544.00) rotate(287) scale(272.00 976.00)"><ellipse cx="0" cy="0" rx="1" ry="1" fill="rgb(120,72,44)" fill-opacity="0.502"/></g>
<circle cx="1232.00" cy="3392.00" r="128.00" fill="rgb(166,175,159)" fill-opacity="0.502"/>
<polygon points="2785.19,183.07 3809.04,200.95 3806.81,328.93 2782.96,311.05" fill="rgb(211,217,169)" fill-opacity="0.502"/>
<circle cx="2256.00" cy="2400.00" r="160.00" fill="rgb(86,59,2)" fill-opacity="0.502"/>
<g transform="translate(288.00 432.00) rotate(279) scale(1328.00 800.00)"><ellipse cx="0" cy="0" rx="1" ry="1" fill="rgb(0,0,0)" fill-opacity="0.502"/></g>
<g transform="translate(1248.00 2064.00) rotate(176) scale(64.00 384.00)"><ellipse cx="0" cy="0" rx="1" ry="1" fill="rgb(151,96,40)" fill-opacity="0.502"/></g>
<polygon points="3938.43,2885.93 4021.57,2837.93 4125.57,3018.07 4042.43,3066.07" fill="rgb(132,27,5)" fill-opacity="0.502"/>
<polygon points="2817.28,3850.51 2896.06,3864.40 2862.72,4053.49 2783.94,4039.60" fill="rgb(248,255,253)" fill-opacity="0.502"/>
<polygon points="5143.05,2846.38 5002.77,2558.77 5160.95,2481.62 5301.23,2769.23" fill="rgb(178,98,69)" fill-opacity="0.502"/>
<circle cx="6624.00" cy="2496.00" r="48.00" fill="rgb(126,42,25)" fill-opacity="0.502"/>
<g transform="translate(1696.00 3392.00) rotate(228) scale(272.00 16.00)"><ellipse cx="0" cy="0" rx="1" ry="1" fill="rgb(106,85,61)" fill-opacity="0.502"/></g>
<g transform="translate(2496.00 928.00) rotate(76) scale(304.00 192.00)"><ellipse cx="0" cy="0" rx="1" ry="1" fill="rgb(250,248,241)" fill-opacity="0.502"/></g>
<circle cx="3520.00" cy="2640.00" r="64.00" fill="rgb(217,187,175)" fill-opacity="0.502"/>
<g transform="translate(864.00 736.00) rotate(246) scale(400.00 192.00)"><ellipse cx="0" cy="0" rx="1" ry="1" fill="rgb(0,0,0)" fill-opacity="0.502"/></g>
<polygon points="3464.00,2248.00 3464.00,1896.00 3544.00,1896.00 3544.00,2248.00" fill="rgb(255,206,175)" fill-opacity="0.502"/>
<g transform="translate(2752.00 1680.00) rotate(114) scale(64.00 272.00)"><ellipse cx="0" cy="0" rx="1" ry="1" fill="rgb(194,147,27)" fill-opacity="0.502"/></g>
<g transform="translate(4592.00 1584.00) rotate(203) scale(224.00 80.00)"><ellipse cx="0" cy="0" rx="1" ry="1" fill="rgb(40,32,0)" fill-opacity="0.502"/></g>
<circle cx="1488.00" cy="3424.00" r="32.00" fill="rgb(219,217,225)" fill-opacity="0.502"/>
<polygon points="2869.56,1381.04 3460.12,1339.74 3482.44,1658.96 2891.88,1700.26" fill="rgb(193,145,33)" fill-opacity="0.502"/>
<g transform="translate(4784.00 1136.00) rotate(195) scale(112.00 240.00)"><ellipse cx="0" cy="0" rx="1" ry="1" fill="rgb(201,175,122)" fill-opacity="0.502"/></g>
<polygon points="6597.46,1434.60 6685.83,1472.11 6554.54,1781.40 6466.17,1743.89" fill="rgb(22,20,8)" fill-opacity="0.502"/>
<circle cx="2912.00" cy="2016.00" r="176.00" fill="rgb(192,140,42)" fill-opacity="0.502"/>
<circle cx="3328.00" cy="3184.00" r="112.00" fill="rgb(206,147,107)" fill-opacity="0.502"/>
<circle cx="2800.00" cy="544.00" r="96.00" fill="rgb(156,122,69)" fill-opacity="0.502"/>
<g transform="translate(6528.00 432.00) rotate(32) scale(544.00 112.00)"><ellipse cx="0" cy="0" rx="1" ry="1" fill="rgb(165,140,97)" fill-opacity="0.502"/></g>
<polygon points="4235.71,2081.81 4197.85,1812.46 4356.29,1790.19 4394.15,2059.54" fill="rgb(228,180,132)" fill-opacity="0.502"/>
<polygon points="3206.31,3077.60 3226.40,2790.31 3513.69,2810.40 3493.60,3097.69" fill="rgb(139,49,30)" fill-opacity="0.502"/>
<polygon points="2454.89,4039.29 2457.12,3911.31 2537.11,3912.71 2534.88,4040.69" fill="rgb(57,44,35)" fill-opacity="0.502"/>
<polygon points="1283.16,4480.25 1668.87,4324.41 1692.84,4383.75 1307.13,4539.59" fill="rgb(67,67,53)" fill-opacity="0.502"/>
<polygon points="5119.87,1949.76 5152.24,1486.89 5200.13,1490.24 5167.76,1953.11" fill="rgb(88,56,24)" fill-opacity="0.502"/>
<g transform="translate(2576.00 2720.00) rotate(355) scale(144.00 16.00)"><ellipse cx="0" cy="0" rx="1" ry="1" fill="rgb(255,242,216)" fill-opacity="0.502"/></g>
<polygon points="5030.59,3887.24 5064.92,4542.34 4713.41,4560.76 4679.08,3905.66" fill="rgb(74,40,22)" fill-opacity="0.502"/>
<polygon points="6032.00,1760.00 5680.00,1760.00 5680.00,1440.00 6032.00,1440.00" fill="rgb(87,23,0)" fill-opacity="0.502"/>
<polygon points="6347.97,2594.05 6530.29,3123.54 6500.03,3133.95 6317.71,2604.46" fill="rgb(64,62,48)" fill-opacity="0.502"/>
<g transform="translate(3440.00 1408.00) rotate(190) scale(352.00 16.00)"><ellipse cx="0" cy="0" rx="1" ry="1" fill="rgb(224,190,122)" fill-opacity="0.502"/></g>
<polygon points="5821.92,1527.76 5840.32,1702.79 5522.08,1736.24 5503.68,1561.21" fill="rgb(85,17,0)" fill-opacity="0.502"/>
<polygon points="6718.87,3981.24 6781.94,4145.55 6737.13,4162.76 6674.06,3998.45" fill="rgb(72,40,54)" fill-opacity="0.502"/>
<circle cx="1984.00" cy="3888.00" r="64.00" fill="rgb(255,255,255)" fill-opacity="0.502"/>
<polygon points="6192.32,3096.92 6170.09,3222.98 5807.68,3159.08 5829.91,3033.02" fill="rgb(88,36,12)" fill-opacity="0.502"/>
<g transform="translate(3360.00 4128.00) rotate(255) scale(384.00 128.00)"><ellipse cx="0" cy="0" rx="1" ry="1" fill="rgb(121,75,47)" fill-opacity="0.502"/></g>
<circle cx="7360.00" cy="1168.00" r="288.00" fill="rgb(0,0,0)" fill-opacity="0.502"/>
<circle cx="3072.00" cy="3328.00" r="256.00" fill="rgb(152,108,74)" fill-opacity="0.502"/>
<g transform="translate(944.00 2064.00) rotate(12) scale(160.00 176.00)"><ellipse cx="0" cy="0" rx="1" ry="1" fill="rgb(0,0,0)" fill-opacity="0.502"/></g>
<polygon points="1111.82,249.85 1314.68,-185.18 1416.18,-137.85 1213.32,297.18" fill="rgb(249,249,227)" fill-opacity="0.502"/>
<g transform="translate(6464.00 2368.00) rotate(97) scale(128.00 256.00)"><ellipse cx="0" cy="0" rx="1" ry="1" fill="rgb(215,134,80)" fill-opacity="0.502"/></g>
<polygon points="1406.67,4048.27 1562.97,4416.47 1489.33,4447.73 1333.03,4079.53" fill="rgb(98,84,77)" fill-opacity="0.502"/>
<circle cx="5680.00" cy="3728.00" r="96.00" fill="rgb(95,58,36)" fill-opacity="0.502"/>
<g transform="translate(6224.00 112.00) rotate(24) scale(208.00 32.00)"><ellipse cx="0" cy="0" rx="1" ry="1" fill="rgb(255,250,230)" fill-opacity="0.502"/></g>
</g>
</svg>