<?xml version="1.0" standalone="no"?>
<svg xmlns="http://www.w3.org/2000/svg" width="8192" height="4608" viewBox="0 0 8192 4608" style="overflow:hidden">
<defs>
<clipPath id="c"><rect x="0" y="0" width="8192" height="4608"/></clipPath>
</defs>
<rect width="8192" height="4608" fill="rgb(46,52,45)"/>
<g clip-path="url(#c)">
<circle cx="2368.00" cy="816.00" r="1392.00" fill="rgb(255,255,255)" fill-opacity="0.502"/>
<circle cx="1424.00" cy="1760.00" r="368.00" fill="rgb(212,238,225)" fill-opacity="0.502"/>
<circle cx="2064.00" cy="80.00" r="992.00" fill="rgb(217,246,232)" fill-opacity="0.502"/>
<circle cx="6864.00" cy="3840.00" r="3216.00" fill="rgb(0,0,0)" fill-opacity="0.502"/>
<circle cx="1568.00" cy="4160.00" r="528.00" fill="rgb(159,151,121)" fill-opacity="0.502"/>
<g transform="translate(384.00 1056.00) rotate(89) scale(6544.00 720.00)"><ellipse cx="0" cy="0" rx="1" ry="1" fill="rgb(0,0,0)" fill-opacity="0.502"/></g>
<g transform="translate(5040.00 144.00) rotate(190) scale(2144.00 272.00)"><ellipse cx="0" cy="0" rx="1" ry="1" fill="rgb(103,154,156)" fill-opacity="0.502"/></g>
<circle cx="3424.00" cy="2448.00" r="624.00" fill="rgb(110,136,78)" fill-opacity="0.502"/>
<circle cx="3408.00" cy="1104.00" r="496.00" fill="rgb(58,123,63)" fill-opacity="0.502"/>
<g transform="translate(3472.00 4016.00) rotate(193) scale(1808.00 464.00)"><ellipse cx="0" cy="0" rx="1" ry="1" fill="rgb(0,0,0)" fill-opacity="0.502"/></g>
<g transform="translate(7728.00 864.00) rotate(91) scale(7184.00 640.00)"><ellipse cx="0" cy="0" rx="1" ry="1" fill="rgb(0,0,0)" fill-opacity="0.502"/></g>
<circle cx="2016.00" cy="2208.00" r="240.00" fill="rgb(208,246,191)" fill-opacity="0.502"/>
<circle cx="3968.00" cy="1744.00" r="560.00" fill="rgb(88,122,131)" fill-opacity="0.502"/>
<circle cx="2592.00" cy="1744.00" r="144.00" fill="rgb(0,69,0)" fill-opacity="0.502"/>
<circle cx="6528.00" cy="3040.00" r="432.00" fill="rgb(160,89,50)" fill-opacity="0.502"/>
<polygon points="2726.43,4251.39 2627.93,4522.03 2041.57,4308.61 2140.07,4037.97" fill="rgb(175,166,138)" fill-opacity="0.502"/>
<circle cx="1424.00" cy="1136.00" r="336.00" fill="rgb(227,252,247)" fill-opacity="0.502"/>
<circle cx="6672.00" cy="304.00" r="480.00" fill="rgb(89,129,127)" fill-opacity="0.502"/>
<g transform="translate(4096.00 384.00) rotate(255) scale(848.00 400.00)"><ellipse cx="0" cy="0" rx="1" ry="1" fill="rgb(65,117,103)" fill-opacity="0.502"/></g>
<g transform="translate(4304.00 1760.00) rotate(104) scale(96.00 1872.00)"><ellipse cx="0" cy="0" rx="1" ry="1" fill="rgb(95,145,162)" fill-opacity="0.502"/></g>
<g transform="translate(1344.00 3280.00) rotate(274) scale(816.00 224.00)"><ellipse cx="0" cy="0" rx="1" ry="1" fill="rgb(165,177,138)" fill-opacity="0.502"/></g>
<circle cx="528.00" cy="1840.00" r="576.00" fill="rgb(0,0,0)" fill-opacity="0.502"/>
<g transform="translate(3360.00 0.00) rotate(159) scale(416.00 576.00)"><ellipse cx="0" cy="0" rx="1" ry="1" fill="rgb(188,217,184)" fill-opacity="0.502"/></g>
<polygon points="5914.92,2114.17 6308.12,1838.85 6565.08,2205.83 6171.88,2481.15" fill="rgb(131,99,73)" fill-opacity="0.502"/>
<circle cx="352.00" cy="3200.00" r="784.00" fill="rgb(0,0,0)" fill-opacity="0.502"/>
<circle cx="592.00" cy="4112.00" r="560.00" fill="rgb(0,0,0)" fill-opacity="0.502"/>
<circle cx="496.00" cy="720.00" r="624.00" fill="rgb(0,0,0)" fill-opacity="0.502"/>
<g transform="translate(2096.00 2912.00) rotate(289) scale(288.00 384.00)"><ellipse cx="0" cy="0" rx="1" ry="1" fill="rgb(125,144,82)" fill-opacity="0.502"/></g>
<circle cx="7664.00" cy="352.00" r="624.00" fill="rgb(0,0,0)" fill-opacity="0.502"/>
<circle cx="6224.00" cy="4528.00" r="1184.00" fill="rgb(0,0,0)" fill-opacity="0.502"/>
<circle cx="6048.00" cy="2976.00" r="400.00" fill="rgb(126,64,35)" fill-opacity="0.502"/>
<circle cx="2864.00" cy="2304.00" r="256.00" fill="rgb(0,64,0)" fill-opacity="0.502"/>
<g transform="translate(1200.00 1744.00) rotate(181) scale(96.00 560.00)"><ellipse cx="0" cy="0" rx="1" ry="1" fill="rgb(239,250,249)" fill-opacity="0.502"/></g>
<g transform="translate(4992.00 1088.00) rotate(220) scale(416.00 608.00)"><ellipse cx="0" cy="0" rx="1" ry="1" fill="rgb(18,0,0)" fill-opacity="0.502"/></g>
<g transform="translate(1488.00 1792.00) rotate(90) scale(128.00 160.00)"><ellipse cx="0" cy="0" rx="1" ry="1" fill="rgb(49,62,63)" fill-opacity="0.502"/></g>
<polygon points="1812.71,2055.82 1768.18,2372.71 1451.29,2328.18 1495.82,2011.29" fill="rgb(5,78,12)" fill-opacity="0.502"/>
<g transform="translate(3232.00 4096.00) rotate(29) scale(1200.00 432.00)"><ellipse cx="0" cy="0" rx="1" ry="1" fill="rgb(0,0,0)" fill-opacity="0.502"/></g>
<g transform="translate(3520.00 2928.00) rotate(179) scale(336.00 576.00)"><ellipse cx="0" cy="0" rx="1" ry="1" fill="rgb(114,123,88)" fill-opacity="0.502"/></g>
<circle cx="2832.00" cy="1456.00" r="416.00" fill="rgb(108,138,76)" fill-opacity="0.502"/>
<g transform="translate(4752.00 192.00) rotate(240) scale(192.00 624.00)"><ellipse cx="0" cy="0" rx="1" ry="1" fill="rgb(46,116,156)" fill-opacity="0.502"/></g>
<polygon points="6132.96,2074.74 6340.65,2158.66 5963.04,3093.26 5755.35,3009.34" fill="rgb(158,68,24)" fill-opacity="0.502"/>
<polygon points="1717.17,3654.50 1519.40,3325.35 1738.83,3193.50 1936.60,3522.65" fill="rgb(132,136,138)" fill-opacity="0.502"/>
<polygon points="1263.11,3452.93 1819.43,3800.56 1632.89,4099.07 1076.57,3751.44" fill="rgb(158,157,127)" fill-opacity="0.502"/>
<polygon points="2026.17,989.68 2110.70,1063.16 1669.83,1570.32 1585.30,1496.84" fill="rgb(64,85,83)" fill-opacity="0.502"/>
<circle cx="6784.00" cy="3088.00" r="336.00" fill="rgb(124,73,46)" fill-opacity="0.502"/>
<circle cx="3856.00" cy="736.00" r="272.00" fill="rgb(0,48,7)" fill-opacity="0.502"/>
<g transform="translate(1936.00 2160.00) rotate(228) scale(96.00 640.00)"><ellipse cx="0" cy="0" rx="1" ry="1" fill="rgb(165,189,147)" fill-opacity="0.502"/></g>
<circle cx="3232.00" cy="672.00" r="448.00" fill="rgb(137,175,121)" fill-opacity="0.502"/>
<circle cx="5632.00" cy="720.00" r="320.00" fill="rgb(4,40,0)" fill-opacity="0.502"/>
<polygon points="2529.93,3374.69 2165.30,2315.71 2846.07,2081.31 3210.70,3140.29" fill="rgb(18,77,0)" fill-opacity="0.502"/>
<polygon points="5012.99,1999.91 4663.14,1805.99 4795.01,1568.09 5144.86,1762.01" fill="rgb(0,0,2)" fill-opacity="0.502"/>
<g transform="translate(4640.00 3792.00) rotate(312) scale(656.00 1056.00)"><ellipse cx="0" cy="0" rx="1" ry="1" fill="rgb(0,0,0)" fill-opacity="0.502"/></g>
<g transform="translate(3712.00 1536.00) rotate(126) scale(208.00 304.00)"><ellipse cx="0" cy="0" rx="1" ry="1" fill="rgb(61,68,70)" fill-opacity="0.502"/></g>
<g transform="translate(2096.00 2240.00) rotate(156) scale(496.00 112.00)"><ellipse cx="0" cy="0" rx="1" ry="1" fill="rgb(184,212,174)" fill-opacity="0.502"/></g>
<polygon points="5793.23,-0.94 7112.83,328.07 7054.77,560.94 5735.17,231.93" fill="rgb(101,86,39)" fill-opacity="0.502"/>
<g transform="translate(848.00 1056.00) rotate(246) scale(464.00 192.00)"><ellipse cx="0" cy="0" rx="1" ry="1" fill="rgb(0,0,0)" fill-opacity="0.502"/></g>
<g transform="translate(1232.00 2960.00) rotate(151) scale(144.00 96.00)"><ellipse cx="0" cy="0" rx="1" ry="1" fill="rgb(152,170,136)" fill-opacity="0.502"/></g>
<circle cx="2416.00" cy="4592.00" r="448.00" fill="rgb(114,105,82)" fill-opacity="0.502"/>
<g transform="translate(272.00 2288.00) rotate(273) scale(2576.00 832.00)"><ellipse cx="0" cy="0" rx="1" ry="1" fill="rgb(0,0,0)" fill-opacity="0.502"/></g>
<circle cx="4192.00" cy="2240.00" r="304.00" fill="rgb(12,3,16)" fill-opacity="0.502"/>
<circle cx="2000.00" cy="1872.00" r="400.00" fill="rgb(167,189,145)" fill-opacity="0.502"/>
<circle cx="7920.00" cy="1504.00" r="1008.00" fill="rgb(0,0,0)" fill-opacity="0.502"/>
<g transform="translate(5392.00 592.00) rotate(195) scale(848.00 224.00)"><ellipse cx="0" cy="0" rx="1" ry="1" fill="rgb(33,38,6)" fill-opacity="0.502"/></g>
<g transform="translate(3680.00 3968.00) rotate(333) scale(944.00 448.00)"><ellipse cx="0" cy="0" rx="1" ry="1" fill="rgb(0,0,0)" fill-opacity="0.502"/></g>
<circle cx="7920.00" cy="3328.00" r="864.00" fill="rgb(0,0,0)" fill-opacity="0.502"/>
<g transform="translate(2032.00 3680.00) rotate(290) scale(304.00 224.00)"><ellipse cx="0" cy="0" rx="1" ry="1" fill="rgb(0,0,0)" fill-opacity="0.502"/></g>
<g transform="translate(3184.00 1408.00) rotate(326) scale(144.00 496.00)"><ellipse cx="0" cy="0" rx="1" ry="1" fill="rgb(177,175,163)" fill-opacity="0.502"/></g>
<circle cx="3008.00" cy="2176.00" r="176.00" fill="rgb(0,49,0)" fill-opacity="0.502"/>
<g transform="translate(3872.00 880.00) rotate(2) scale(112.00 624.00)"><ellipse cx="0" cy="0" rx="1" ry="1" fill="rgb(0,10,9)" fill-opacity="0.502"/></g>
<polygon points="3103.94,2451.70 3291.83,2173.14 3504.06,2316.30 3316.17,2594.86" fill="rgb(133,155,123)" fill-opacity="0.502"/>
<g transform="translate(3744.00 2064.00) rotate(183) scale(272.00 384.00)"><ellipse cx="0" cy="0" rx="1" ry="1" fill="rgb(110,108,71)" fill-opacity="0.502"/></g>
<polygon points="2758.65,2687.55 2731.89,2432.95 3193.35,2384.45 3220.11,2639.05" fill="rgb(106,130,63)" fill-opacity="0.502"/>
<polygon points="6197.34,1359.40 6038.98,2045.36 5290.66,1872.60 5449.02,1186.64" fill="rgb(0,0,0)" fill-opacity="0.502"/>
<polygon points="3779.49,754.28 3723.71,1391.85 3516.51,1373.72 3572.29,736.15" fill="rgb(13,115,62)" fill-opacity="0.502"/>
<g transform="translate(4208.00 720.00) rotate(192) scale(208.00 448.00)"><ellipse cx="0" cy="0" rx="1" ry="1" fill="rgb(100,126,108)" fill-opacity="0.502"/></g>
<polygon points="2041.74,2309.92 2257.45,2415.13 2166.26,2602.08 1950.55,2496.87" fill="rgb(0,27,0)" fill-opacity="0.502"/>
<polygon points="7103.73,3128.33 6944.34,3142.27 6912.27,2775.67 7071.66,2761.73" fill="rgb(151,84,46)" fill-opacity="0.502"/>
<circle cx="6912.00" cy="0.00" r="176.00" fill="rgb(121,225,255)" fill-opacity="0.502"/>
<g transform="translate(4608.00 1824.00) rotate(114) scale(80.00 608.00)"><ellipse cx="0" cy="0" rx="1" ry="1" fill="rgb(79,139,166)" fill-opacity="0.502"/></g>
<polygon points="5148.39,1354.67 4826.07,1020.90 4883.61,965.33 5205.93,1299.10" fill="rgb(92,72,75)" fill-opacity="0.502"/>
<circle cx="2384.00" cy="3216.00" r="272.00" fill="rgb(81,90,37)" fill-opacity="0.502"/>
<circle cx="4048.00" cy="144.00" r="192.00" fill="rgb(4,16,5)" fill-opacity="0.502"/>
<polygon points="7108.70,2337.56 6395.71,2237.35 6411.30,2126.44 7124.29,2226.65" fill="rgb(71,176,242)" fill-opacity="0.502"/>
<circle cx="5792.00" cy="3536.00" r="320.00" fill="rgb(68,35,25)" fill-opacity="0.502"/>
<circle cx="6784.00" cy="3600.00" r="240.00" fill="rgb(0,0,1)" fill-opacity="0.502"/>
<g transform="translate(4896.00 832.00) rotate(73) scale(416.00 352.00)"><ellipse cx="0" cy="0" rx="1" ry="1" fill="rgb(22,13,12)" fill-opacity="0.502"/></g>
<g transform="translate(6608.00 2496.00) rotate(31) scale(384.00 192.00)"><ellipse cx="0" cy="0" rx="1" ry="1" fill="rgb(0,0,0)" fill-opacity="0.502"/></g>
<polygon points="6368.00,1504.00 6928.00,1504.00 6928.00,2112.00 6368.00,2112.00" fill="rgb(0,0,0)" fill-opacity="0.502"/>
<circle cx="1808.00" cy="816.00" r="384.00" fill="rgb(193,209,205)" fill-opacity="0.502"/>
<circle cx="1472.00" cy="3472.00" r="96.00" fill="rgb(0,0,0)" fill-opacity="0.502"/>
<circle cx="416.00" cy="2608.00" r="688.00" fill="rgb(0,0,0)" fill-opacity="0.502"/>
<polygon points="7113.30,1081.41 7094.87,25.57 8182.70,6.59 8201.13,1062.43" fill="rgb(0,0,0)" fill-opacity="0.502"/>
<g transform="translate(5248.00 2672.00) rotate(37) scale(656.00 368.00)"><ellipse cx="0" cy="0" rx="1" ry="1" fill="rgb(10,4,15)" fill-opacity="0.502"/></g>
<polygon points="1214.06,2851.08 1100.92,2737.94 1281.94,2556.92 1395.08,2670.06" fill="rgb(142,168,124)" fill-opacity="0.502"/>
<g transform="translate(6848.00 528.00) rotate(328) scale(176.00 368.00)"><ellipse cx="0" cy="0" rx="1" ry="1" fill="rgb(103,128,116)" fill-opacity="0.502"/></g>
<circle cx="8016.00" cy="3712.00" r="976.00" fill="rgb(0,0,0)" fill-opacity="0.502"/>
<polygon points="5095.04,1385.17 4954.24,1910.64 4536.96,1798.83 4677.76,1273.36" fill="rgb(6,4,3)" fill-opacity="0.502"/>
<g transform="translate(6304.00 1440.00) rotate(300) scale(352.00 160.00)"><ellipse cx="0" cy="0" rx="1" ry="1" fill="rgb(72,57,56)" fill-opacity="0.502"/></g>
<g transform="translate(1360.00 432.00) rotate(360) scale(256.00 1232.00)"><ellipse cx="0" cy="0" rx="1" ry="1" fill="rgb(200,210,205)" fill-opacity="0.502"/></g>
<polygon points="5544.72,1083.14 5392.55,1132.58 5239.28,660.86 5391.45,611.42" fill="rgb(83,60,64)" fill-opacity="0.502"/>
<circle cx="704.00" cy="352.00" r="416.00" fill="rgb(0,0,0)" fill-opacity="0.502"/>
<polygon points="6112.19,4029.29 5718.52,3445.65 5983.81,3266.71 6377.48,3850.35" fill="rgb(32,18,14)" fill-opacity="0.502"/>
<polygon points="3313.38,2255.82 3194.70,2207.87 3278.62,2000.18 3397.30,2048.13" fill="rgb(162,163,141)" fill-opacity="0.502"/>
<polygon points="3020.36,1595.10 2602.82,1131.38 2947.64,820.90 3365.18,1284.62" fill="rgb(109,123,88)" fill-opacity="0.502"/>
<g transform="translate(2272.00 1008.00) rotate(121) scale(112.00 32.00)"><ellipse cx="0" cy="0" rx="1" ry="1" fill="rgb(65,80,64)" fill-opacity="0.502"/></g>
<circle cx="6080.00" cy="416.00" r="128.00" fill="rgb(56,142,173)" fill-opacity="0.502"/>
<polygon points="1246.57,3440.86 1302.68,3325.82 1633.43,3487.14 1577.32,3602.18" fill="rgb(0,0,0)" fill-opacity="0.502"/>
<g transform="translate(672.00 4256.00) rotate(328) scale(464.00 352.00)"><ellipse cx="0" cy="0" rx="1" ry="1" fill="rgb(0,0,0)" fill-opacity="0.502"/></g>
<circle cx="2192.00" cy="2704.00" r="160.00" fill="rgb(117,150,90)" fill-opacity="0.502"/>
<circle cx="4272.00" cy="2704.00" r="400.00" fill="rgb(12,8,23)" fill-opacity="0.502"/>
<polygon points="2448.00,1472.00 2624.00,1472.00 2624.00,1776.00 2448.00,1776.00" fill="rgb(13,75,34)" fill-opacity="0.502"/>
<g transform="translate(3776.00 1552.00) rotate(2) scale(48.00 336.00)"><ellipse cx="0" cy="0" rx="1" ry="1" fill="rgb(140,185,186)" fill-opacity="0.502"/></g>
<polygon points="1328.13,1845.65 1457.58,1939.69 1231.87,2250.35 1102.42,2156.31" fill="rgb(207,225,213)" fill-opacity="0.502"/>
<circle cx="1360.00" cy="4560.00" r="272.00" fill="rgb(148,146,124)" fill-opacity="0.502"/>
<g transform="translate(3392.00 256.00) rotate(307) scale(368.00 448.00)"><ellipse cx="0" cy="0" rx="1" ry="1" fill="rgb(160,186,164)" fill-opacity="0.502"/></g>
<circle cx="4128.00" cy="1456.00" r="128.00" fill="rgb(49,152,209)" fill-opacity="0.502"/>
<g transform="translate(4752.00 2336.00) rotate(7) scale(784.00 336.00)"><ellipse cx="0" cy="0" rx="1" ry="1" fill="rgb(17,14,20)" fill-opacity="0.502"/></g>
<g transform="translate(7040.00 3952.00) rotate(243) scale(80.00 96.00)"><ellipse cx="0" cy="0" rx="1" ry="1" fill="rgb(89,103,104)" fill-opacity="0.502"/></g>
<g transform="translate(6352.00 3200.00) rotate(94) scale(48.00 1584.00)"><ellipse cx="0" cy="0" rx="1" ry="1" fill="rgb(1,0,0)" fill-opacity="0.502"/></g>
<polygon points="5957.64,3275.12 5758.67,3409.32 5642.36,3236.88 5841.33,3102.68" fill="rgb(162,82,36)" fill-opacity="0.502"/>
<polygon points="4032.00,1648.00 4032.00,1408.00 4496.00,1408.00 4496.00,1648.00" fill="rgb(97,156,178)" fill-opacity="0.502"/>
<polygon points="6490.73,706.90 6956.82,876.54 6869.27,1117.10 6403.18,947.46" fill="rgb(4,78,0)" fill-opacity="0.502"/>
<polygon points="1712.00,2640.00 2080.00,2640.00 2080.00,2800.00 1712.00,2800.00" fill="rgb(133,143,114)" fill-opacity="0.502"/>
<g transform="translate(1904.00 4384.00) rotate(20) scale(784.00 80.00)"><ellipse cx="0" cy="0" rx="1" ry="1" fill="rgb(42,38,25)" fill-opacity="0.502"/></g>
<circle cx="5152.00" cy="0.00" r="256.00" fill="rgb(124,156,136)" fill-opacity="0.502"/>
<g transform="translate(6720.00 1408.00) rotate(118) scale(176.00 480.00)"><ellipse cx="0" cy="0" rx="1" ry="1" fill="rgb(9,2,4)" fill-opacity="0.502"/></g>
<g transform="translate(5312.00 256.00) rotate(14) scale(1840.00 96.00)"><ellipse cx="0" cy="0" rx="1" ry="1" fill="rgb(40,120,159)" fill-opacity="0.502"/></g>
<polygon points="1575.26,3246.72 1545.11,2671.51 1816.74,2657.28 1846.89,3232.49" fill="rgb(10,20,28)" fill-opacity="0.502"/>
<polygon points="1604.78,2234.75 1790.24,2185.06 1819.22,2293.25 1633.76,2342.94" fill="rgb(0,0,0)" fill-opacity="0.502"/>
<polygon points="6272.26,1739.87 6167.29,1619.11 6239.74,1556.13 6344.71,1676.89" fill="rgb(134,125,106)" fill-opacity="0.502"/>
<polygon points="1817.43,4189.56 1917.46,3953.91 2182.57,4066.44 2082.54,4302.09" fill="rgb(135,133,112)" fill-opacity="0.502"/>
<polygon points="3949.43,2376.78 4075.48,2399.00 3986.57,2903.22 3860.52,2881.00" fill="rgb(0,5,32)" fill-opacity="0.502"/>
<circle cx="6656.00" cy="0.00" r="112.00" fill="rgb(100,211,255)" fill-opacity="0.502"/>
<polygon points="1888.70,3774.89 2193.11,3424.70 2543.30,3729.11 2238.89,4079.30" fill="rgb(0,0,0)" fill-opacity="0.502"/>
<polygon points="2755.84,3365.66 2797.68,2887.48 3196.16,2922.34 3154.32,3400.52" fill="rgb(4,38,0)" fill-opacity="0.502"/>
<polygon points="3203.48,458.03 3561.27,188.42 3580.52,213.97 3222.73,483.58" fill="rgb(0,0,0)" fill-opacity="0.502"/>
<polygon points="3874.49,1106.75 4096.31,1137.92 4029.51,1613.25 3807.69,1582.08" fill="rgb(3,43,48)" fill-opacity="0.502"/>
<g transform="translate(5104.00 1776.00) rotate(103) scale(160.00 576.00)"><ellipse cx="0" cy="0" rx="1" ry="1" fill="rgb(8,15,11)" fill-opacity="0.502"/></g>
<g transform="translate(4464.00 240.00) rotate(183) scale(224.00 432.00)"><ellipse cx="0" cy="0" rx="1" ry="1" fill="rgb(42,94,121)" fill-opacity="0.502"/></g>
<g transform="translate(5888.00 2304.00) rotate(236) scale(64.00 208.00)"><ellipse cx="0" cy="0" rx="1" ry="1" fill="rgb(0,0,0)" fill-opacity="0.502"/></g>
<circle cx="6352.00" cy="0.00" r="160.00" fill="rgb(0,50,88)" fill-opacity="0.502"/>
<polygon points="2239.06,1126.27 2096.14,1143.82 2064.94,889.73 2207.86,872.18" fill="rgb(142,157,144)" fill-opacity="0.502"/>
<polygon points="5206.77,3130.43 5761.32,3208.37 5721.23,3493.57 5166.68,3415.63" fill="rgb(69,52,41)" fill-opacity="0.502"/>
<polygon points="3110.22,2086.60 3163.45,2337.01 2521.78,2473.40 2468.55,2222.99" fill="rgb(0,39,0)" fill-opacity="0.502"/>
<g transform="translate(2976.00 4592.00) rotate(121) scale(80.00 384.00)"><ellipse cx="0" cy="0" rx="1" ry="1" fill="rgb(147,143,116)" fill-opacity="0.502"/></g>
<g transform="translate(1184.00 2400.00) rotate(352) scale(512.00 112.00)"><ellipse cx="0" cy="0" rx="1" ry="1" fill="rgb(0,14,0)" fill-opacity="0.502"/></g>
<g transform="translate(128.00 4464.00) rotate(36) scale(640.00 1408.00)"><ellipse cx="0" cy="0" rx="1" ry="1" fill="rgb(0,0,0)" fill-opacity="0.502"/></g>
<g transform="translate(1216.00 3072.00) rotate(29) scale(96.00 144.00)"><ellipse cx="0" cy="0" rx="1" ry="1" fill="rgb(142,155,123)" fill-opacity="0.502"/></g>
<circle cx="4400.00" cy="1824.00" r="192.00" fill="rgb(112,136,108)" fill-opacity="0.502"/>
<g transform="translate(3632.00 2784.00) rotate(36) scale(192.00 352.00)"><ellipse cx="0" cy="0" rx="1" ry="1" fill="rgb(83,85,61)" fill-opacity="0.502"/></g>
<g transform="translate(2576.00 2688.00) rotate(226) scale(512.00 80.00)"><ellipse cx="0" cy="0" rx="1" ry="1" fill="rgb(0,51,10)" fill-opacity="0.502"/></g>
<polygon points="2368.89,2224.71 2311.31,1975.27 2623.11,1903.29 2680.69,2152.73" fill="rgb(167,200,141)" fill-opacity="0.502"/>
<g transform="translate(1312.00 3872.00) rotate(303) scale(272.00 176.00)"><ellipse cx="0" cy="0" rx="1" ry="1" fill="rgb(127,122,97)" fill-opacity="0.502"/></g>
<g transform="translate(2528.00 1312.00) rotate(88) scale(64.00 624.00)"><ellipse cx="0" cy="0" rx="1" ry="1" fill="rgb(160,185,143)" fill-opacity="0.502"/></g>
<circle cx="4272.00" cy="1296.00" r="112.00" fill="rgb(0,0,7)" fill-opacity="0.502"/>
<g transform="translate(6624.00 3536.00) rotate(117) scale(160.00 224.00)"><ellipse cx="0" cy="0" rx="1" ry="1" fill="rgb(3,3,9)" fill-opacity="0.502"/></g>
<g transform="translate(5792.00 1664.00) rotate(66) scale(368.00 384.00)"><ellipse cx="0" cy="0" rx="1" ry="1" fill="rgb(1,0,0)" fill-opacity="0.502"/></g>
<g transform="translate(6304.00 4592.00) rotate(121) scale(880.00 544.00)"><ellipse cx="0" cy="0" rx="1" ry="1" fill="rgb(0,0,1)" fill-opacity="0.502"/></g>
<polygon points="1759.89,1270.03 1914.46,1130.85 2000.11,1225.97 1845.54,1365.15" fill="rgb(31,44,39)" fill-opacity="0.502"/>
<circle cx="7744.00" cy="2176.00" r="672.00" fill="rgb(0,0,0)" fill-opacity="0.502"/>
<circle cx="720.00" cy="848.00" r="384.00" fill="rgb(0,0,0)" fill-opacity="0.502"/>
<polygon points="6396.79,1629.61 6381.85,1623.88 6611.21,1026.39 6626.15,1032.12" fill="rgb(123,110,101)" fill-opacity="0.502"/>
<polygon points="6478.99,3107.20 6111.05,3100.78 6113.01,2988.80 6480.95,2995.22" fill="rgb(194,134,73)" fill-opacity="0.502"/>
<circle cx="1760.00" cy="896.00" r="320.00" fill="rgb(191,208,203)" fill-opacity="0.502"/>
<g transform="translate(5616.00 544.00) rotate(0) scale(32.00 864.00)"><ellipse cx="0" cy="0" rx="1" ry="1" fill="rgb(7,13,2)" fill-opacity="0.502"/></g>
<circle cx="6288.00" cy="928.00" r="288.00" fill="rgb(49,31,26)" fill-opacity="0.502"/>
<circle cx="4336.00" cy="1072.00" r="160.00" fill="rgb(82,117,141)" fill-opacity="0.502"/>
<circle cx="8032.00" cy="576.00" r="960.00" fill="rgb(0,0,0)" fill-opacity="0.502"/>
<circle cx="656.00" cy="4304.00" r="448.00" fill="rgb(0,0,0)" fill-opacity="0.502"/>
<g transform="translate(1360.00 2656.00) rotate(275) scale(48.00 240.00)"><ellipse cx="0" cy="0" rx="1" ry="1" fill="rgb(95,133,95)" fill-opacity="0.502"/></g>
<circle cx="336.00" cy="400.00" r="768.00" fill="rgb(0,0,0)" fill-opacity="0.502"/>
<polygon points="1329.94,3393.02 1287.55,3460.86 894.06,3214.98 936.45,3147.14" fill="rgb(0,0,0)" fill-opacity="0.502"/>
<g transform="translate(5744.00 4208.00) rotate(299) scale(384.00 528.00)"><ellipse cx="0" cy="0" rx="1" ry="1" fill="rgb(1,0,2)" fill-opacity="0.502"/></g>
<polygon points="2113.36,4631.31 1656.41,4550.74 1678.64,4424.69 2135.59,4505.26" fill="rgb(109,110,90)" fill-opacity="0.502"/>
<polygon points="5279.15,1214.63 4993.30,1179.53 5088.85,401.37 5374.70,436.47" fill="rgb(24,8,11)" fill-opacity="0.502"/>
<g transform="translate(7792.00 4096.00) rotate(319) scale(896.00 672.00)"><ellipse cx="0" cy="0" rx="1" ry="1" fill="rgb(0,0,0)" fill-opacity="0.502"/></g>
<circle cx="6400.00" cy="2576.00" r="176.00" fill="rgb(0,0,0)" fill-opacity="0.502"/>
<g transform="translate(3712.00 0.00) rotate(242) scale(64.00 320.00)"><ellipse cx="0" cy="0" rx="1" ry="1" fill="rgb(255,251,254)" fill-opacity="0.502"/></g>
<circle cx="1792.00" cy="3056.00" r="144.00" fill="rgb(51,51,68)" fill-opacity="0.502"/>
<g transform="translate(3952.00 480.00) rotate(274) scale(784.00 64.00)"><ellipse cx="0" cy="0" rx="1" ry="1" fill="rgb(0,8,11)" fill-opacity="0.502"/></g>
<circle cx="2000.00" cy="3456.00" r="144.00" fill="rgb(0,0,0)" fill-opacity="0.502"/>
<polygon points="4206.08,713.93 4015.95,687.21 4113.92,-9.93 4304.05,16.79" fill="rgb(84,100,53)" fill-opacity="0.502"/>
<circle cx="1312.00" cy="2912.00" r="224.00" fill="rgb(129,147,114)" fill-opacity="0.502"/>
<polygon points="3499.58,532.69 3713.92,365.23 3812.42,491.31 3598.08,658.77" fill="rgb(68,167,89)" fill-opacity="0.502"/>
<g transform="translate(3136.00 64.00) rotate(172) scale(192.00 352.00)"><ellipse cx="0" cy="0" rx="1" ry="1" fill="rgb(180,197,192)" fill-opacity="0.502"/></g>
<polygon points="2907.36,937.11 3125.60,1171.15 2692.64,1574.89 2474.40,1340.85" fill="rgb(145,171,126)" fill-opacity="0.502"/>
<g transform="translate(5696.00 2080.00) rotate(97) scale(64.00 576.00)"><ellipse cx="0" cy="0" rx="1" ry="1" fill="rgb(38,115,166)" fill-opacity="0.502"/></g>
<g transform="translate(5840.00 720.00) rotate(354) scale(384.00 112.00)"><ellipse cx="0" cy="0" rx="1" ry="1" fill="rgb(0,55,0)" fill-opacity="0.502"/></g>
<circle cx="4800.00" cy="2736.00" r="544.00" fill="rgb(13,11,20)" fill-opacity="0.502"/>
<circle cx="464.00" cy="1008.00" r="640.00" fill="rgb(0,0,0)" fill-opacity="0.502"/>
<polygon points="1468.13,1310.82 1317.90,1593.36 1091.87,1473.18 1242.10,1190.64" fill="rgb(188,202,198)" fill-opacity="0.502"/>
<polygon points="1733.89,2499.11 2047.57,2378.70 2122.11,2572.89 1808.43,2693.30" fill="rgb(0,40,0)" fill-opacity="0.502"/>
<g transform="translate(2976.00 3744.00) rotate(85) scale(240.00 784.00)"><ellipse cx="0" cy="0" rx="1" ry="1" fill="rgb(0,0,0)" fill-opacity="0.502"/></g>
<g transform="translate(3280.00 1648.00) rotate(121) scale(224.00 176.00)"><ellipse cx="0" cy="0" rx="1" ry="1" fill="rgb(182,204,184)" fill-opacity="0.502"/></g>
<g transform="translate(2736.00 432.00) rotate(154) scale(304.00 304.00)"><ellipse cx="0" cy="0" rx="1" ry="1" fill="rgb(174,197,186)" fill-opacity="0.502"/></g>
<g transform="translate(6240.00 1488.00) rotate(271) scale(80.00 16.00)"><ellipse cx="0" cy="0" rx="1" ry="1" fill="rgb(255,255,255)" fill-opacity="0.502"/></g>
<polygon points="5377.84,1284.76 5058.62,1307.08 5054.16,1243.24 5373.38,1220.92" fill="rgb(121,98,99)" fill-opacity="0.502"/>
<g transform="translate(3696.00 2080.00) rotate(299) scale(320.00 304.00)"><ellipse cx="0" cy="0" rx="1" ry="1" fill="rgb(97,98,70)" fill-opacity="0.502"/></g>
<g transform="translate(4672.00 1312.00) rotate(180) scale(224.00 208.00)"><ellipse cx="0" cy="0" rx="1" ry="1" fill="rgb(1,4,5)" fill-opacity="0.502"/></g>
<polygon points="4905.76,1022.38 4828.10,965.95 5110.24,577.62 5187.90,634.05" fill="rgb(61,55,55)" fill-opacity="0.502"/>
<circle cx="2032.00" cy="1696.00" r="352.00" fill="rgb(167,185,153)" fill-opacity="0.502"/>
<polygon points="2992.00,2576.00 2544.00,2576.00 2544.00,2464.00 2992.00,2464.00" fill="rgb(94,125,67)" fill-opacity="0.502"/>
<polygon points="4434.03,1866.71 4369.25,1586.09 4493.97,1557.29 4558.75,1837.91" fill="rgb(141,188,192)" fill-opacity="0.502"/>
<polygon points="1637.37,1784.13 1498.19,1938.70 1450.63,1895.87 1589.81,1741.30" fill="rgb(242,240,221)" fill-opacity="0.502"/>
<polygon points="3459.54,822.96 3332.79,805.15 3388.46,409.04 3515.21,426.85" fill="rgb(173,211,162)" fill-opacity="0.502"/>
<circle cx="6176.00" cy="1232.00" r="80.00" fill="rgb(101,87,94)" fill-opacity="0.502"/>
<circle cx="2000.00" cy="2816.00" r="144.00" fill="rgb(123,133,89)" fill-opacity="0.502"/>
<circle cx="2064.00" cy="2112.00" r="256.00" fill="rgb(162,179,152)" fill-opacity="0.502"/>
<circle cx="6064.00" cy="2064.00" r="144.00" fill="rgb(44,43,29)" fill-opacity="0.502"/>
<g transform="translate(624.00 2048.00) rotate(326) scale(464.00 496.00)"><ellipse cx="0" cy="0" rx="1" ry="1" fill="rgb(0,0,0)" fill-opacity="0.502"/></g>
<polygon points="4707.48,659.94 5019.56,464.93 5036.52,492.06 4724.44,687.07" fill="rgb(163,142,114)" fill-opacity="0.502"/>
<polygon points="3291.30,423.30 2702.98,916.96 2692.70,904.70 3281.02,411.04" fill="rgb(0,0,0)" fill-opacity="0.502"/>
<circle cx="416.00" cy="1152.00" r="688.00" fill="rgb(0,0,0)" fill-opacity="0.502"/>
<polygon points="3748.48,1012.84 4659.66,1362.60 4619.52,1467.16 3708.34,1117.40" fill="rgb(0,1,0)" fill-opacity="0.502"/>
<polygon points="6480.13,1936.53 6258.66,2230.42 6015.87,2047.47 6237.34,1753.58" fill="rgb(87,76,55)" fill-opacity="0.502"/>
<circle cx="5744.00" cy="1008.00" r="256.00" fill="rgb(8,13,5)" fill-opacity="0.502"/>
<g transform="translate(2272.00 1520.00) rotate(122) scale(272.00 96.00)"><ellipse cx="0" cy="0" rx="1" ry="1" fill="rgb(138,165,112)" fill-opacity="0.502"/></g>
<circle cx="1424.00" cy="240.00" r="336.00" fill="rgb(193,202,193)" fill-opacity="0.502"/>
<polygon points="6433.30,2892.94 6415.48,2766.19 6494.70,2755.06 6512.52,2881.81" fill="rgb(253,149,62)" fill-opacity="0.502"/>
<circle cx="7056.00" cy="3344.00" r="48.00" fill="rgb(183,129,102)" fill-opacity="0.502"/>
<g transform="translate(3808.00 256.00) rotate(280) scale(1024.00 48.00)"><ellipse cx="0" cy="0" rx="1" ry="1" fill="rgb(37,135,80)" fill-opacity="0.502"/></g>
<g transform="translate(6672.00 160.00) rotate(196) scale(448.00 80.00)"><ellipse cx="0" cy="0" rx="1" ry="1" fill="rgb(0,31,64)" fill-opacity="0.502"/></g>
<circle cx="5392.00" cy="2432.00" r="176.00" fill="rgb(56,47,34)" fill-opacity="0.502"/>
<circle cx="7296.00" cy="2576.00" r="336.00" fill="rgb(0,0,0)" fill-opacity="0.502"/>
<polygon points="1101.28,566.49 1575.60,421.47 1762.72,1033.51 1288.40,1178.53" fill="rgb(191,206,201)" fill-opacity="0.502"/>
<circle cx="1376.00" cy="1728.00" r="80.00" fill="rgb(26,58,79)" fill-opacity="0.502"/>
<polygon points="6412.44,3793.02 6390.85,3886.56 5907.56,3774.98 5929.15,3681.44" fill="rgb(107,66,51)" fill-opacity="0.502"/>
<polygon points="5862.24,360.78 5882.20,266.87 6617.76,423.22 6597.80,517.13" fill="rgb(138,164,131)" fill-opacity="0.502"/>
<g transform="translate(1248.00 2368.00) rotate(218) scale(208.00 128.00)"><ellipse cx="0" cy="0" rx="1" ry="1" fill="rgb(0,50,25)" fill-opacity="0.502"/></g>
<g transform="translate(3712.00 4336.00) rotate(354) scale(624.00 736.00)"><ellipse cx="0" cy="0" rx="1" ry="1" fill="rgb(3,2,2)" fill-opacity="0.502"/></g>
<polygon points="5718.28,69.60 5859.55,144.71 5641.72,554.40 5500.45,479.29" fill="rgb(96,109,103)" fill-opacity="0.502"/>
<g transform="translate(4400.00 1776.00) rotate(220) scale(320.00 96.00)"><ellipse cx="0" cy="0" rx="1" ry="1" fill="rgb(101,132,121)" fill-opacity="0.502"/></g>
<g transform="translate(1488.00 1376.00) rotate(171) scale(208.00 192.00)"><ellipse cx="0" cy="0" rx="1" ry="1" fill="rgb(202,221,215)" fill-opacity="0.502"/></g>
<g transform="translate(6688.00 2976.00) rotate(185) scale(704.00 16.00)"><ellipse cx="0" cy="0" rx="1" ry="1" fill="rgb(0,0,0)" fill-opacity="0.502"/></g>
<circle cx="3600.00" cy="256.00" r="64.00" fill="rgb(255,252,247)" fill-opacity="0.502"/>
<circle cx="6624.00" cy="2576.00" r="208.00" fill="rgb(3,0,5)" fill-opacity="0.502"/>
<g transform="translate(4672.00 3648.00) rotate(161) scale(608.00 208.00)"><ellipse cx="0" cy="0" rx="1" ry="1" fill="rgb(1,0,0)" fill-opacity="0.502"/></g>
<polygon points="1649.12,1724.38 1814.37,1413.58 1870.88,1443.62 1705.63,1754.42" fill="rgb(204,221,232)" fill-opacity="0.502"/>
<g transform="translate(1888.00 2736.00) rotate(213) scale(272.00 16.00)"><ellipse cx="0" cy="0" rx="1" ry="1" fill="rgb(160,170,139)" fill-opacity="0.502"/></g>
<g transform="translate(672.00 2944.00) rotate(329) scale(432.00 416.00)"><ellipse cx="0" cy="0" rx="1" ry="1" fill="rgb(0,0,0)" fill-opacity="0.502"/></g>
<g transform="translate(6704.00 3072.00) rotate(98) scale(48.00 384.00)"><ellipse cx="0" cy="0" rx="1" ry="1" fill="rgb(200,130,80)" fill-opacity="0.502"/></g>
<g transform="translate(3024.00 2704.00) rotate(112) scale(208.00 128.00)"><ellipse cx="0" cy="0" rx="1" ry="1" fill="rgb(56,83,15)" fill-opacity="0.502"/></g>
<polygon points="3682.94,1522.70 3751.32,1818.91 3533.06,1869.30 3464.68,1573.09" fill="rgb(36,47,48)" fill-opacity="0.502"/>
<polygon points="4483.79,112.50 4591.97,141.49 4364.21,991.50 4256.03,962.51" fill="rgb(17,98,151)" fill-opacity="0.502"/>
<circle cx="2224.00" cy="1952.00" r="320.00" fill="rgb(160,178,142)" fill-opacity="0.502"/>
<g transform="translate(5488.00 2208.00) rotate(186) scale(608.00 96.00)"><ellipse cx="0" cy="0" rx="1" ry="1" fill="rgb(0,0,0)" fill-opacity="0.502"/></g>
<polygon points="6157.77,3714.90 5809.75,3552.62 5938.23,3277.10 6286.25,3439.38" fill="rgb(0,0,1)" fill-opacity="0.502"/>
<circle cx="2960.00" cy="1760.00" r="272.00" fill="rgb(144,176,124)" fill-opacity="0.502"/>
<polygon points="4959.31,1757.41 4542.27,1554.01 4752.69,1122.59 5169.73,1325.99" fill="rgb(13,10,7)" fill-opacity="0.502"/>
<circle cx="4656.00" cy="976.00" r="160.00" fill="rgb(32,27,20)" fill-opacity="0.502"/>
<polygon points="1471.69,2649.69 1418.63,2613.90 1472.31,2534.31 1525.37,2570.10" fill="rgb(0,44,0)" fill-opacity="0.502"/>
<polygon points="5188.56,2393.79 5025.38,2459.72 4971.44,2326.21 5134.62,2260.28" fill="rgb(61,59,49)" fill-opacity="0.502"/>
<g transform="translate(7296.00 3488.00) rotate(332) scale(144.00 368.00)"><ellipse cx="0" cy="0" rx="1" ry="1" fill="rgb(0,0,0)" fill-opacity="0.502"/></g>
<circle cx="1888.00" cy="2048.00" r="160.00" fill="rgb(171,188,157)" fill-opacity="0.502"/>
<polygon points="6916.46,418.10 6562.72,316.66 6571.54,285.90 6925.28,387.34" fill="rgb(0,0,0)" fill-opacity="0.502"/>
<g transform="translate(5392.00 1136.00) rotate(190) scale(48.00 128.00)"><ellipse cx="0" cy="0" rx="1" ry="1" fill="rgb(111,102,96)" fill-opacity="0.502"/></g>
<polygon points="2210.65,2832.54 2440.83,2610.25 2685.35,2863.46 2455.17,3085.75" fill="rgb(56,89,37)" fill-opacity="0.502"/>
<polygon points="3828.10,1312.51 3840.31,1249.69 4075.90,1295.49 4063.69,1358.31" fill="rgb(45,134,168)" fill-opacity="0.502"/>
<g transform="translate(5744.00 1600.00) rotate(117) scale(432.00 432.00)"><ellipse cx="0" cy="0" rx="1" ry="1" fill="rgb(7,6,6)" fill-opacity="0.502"/></g>
<polygon points="7073.72,1352.16 7086.28,1591.84 7086.28,1591.84 7073.72,1352.16" fill="rgb(160,153,145)" fill-opacity="0.502"/>
<g transform="translate(1792.00 1808.00) rotate(235) scale(32.00 688.00)"><ellipse cx="0" cy="0" rx="1" ry="1" fill="rgb(188,208,178)" fill-opacity="0.502"/></g>
<polygon points="4039.21,308.22 4150.93,300.41 4168.79,555.78 4057.07,563.59" fill="rgb(39,65,41)" fill-opacity="0.502"/>
<g transform="translate(1184.00 624.00) rotate(166) scale(32.00 288.00)"><ellipse cx="0" cy="0" rx="1" ry="1" fill="rgb(203,207,206)" fill-opacity="0.502"/></g>
<polygon points="3771.76,1794.29 3708.11,1787.60 3748.24,1405.71 3811.89,1412.40" fill="rgb(146,177,174)" fill-opacity="0.502"/>
<g transform="translate(5472.00 3568.00) rotate(95) scale(144.00 128.00)"><ellipse cx="0" cy="0" rx="1" ry="1" fill="rgb(5,0,7)" fill-opacity="0.502"/></g>
<polygon points="7138.82,785.14 6966.80,1233.26 6877.18,1198.86 7049.20,750.74" fill="rgb(75,62,37)" fill-opacity="0.502"/>
<g transform="translate(2208.00 2368.00) rotate(62) scale(64.00 256.00)"><ellipse cx="0" cy="0" rx="1" ry="1" fill="rgb(0,41,13)" fill-opacity="0.502"/></g>
<polygon points="1456.28,2071.62 1693.64,2167.52 1615.72,2360.38 1378.36,2264.48" fill="rgb(0,45,0)" fill-opacity="0.502"/>
<polygon points="6668.27,2752.63 6767.16,2917.21 6643.73,2991.37 6544.84,2826.79" fill="rgb(173,88,42)" fill-opacity="0.502"/>
<polygon points="5628.16,301.99 5637.09,174.30 6147.84,210.01 6138.91,337.70" fill="rgb(108,142,110)" fill-opacity="0.502"/>
<polygon points="2418.62,3938.93 2796.51,3547.61 3245.38,3981.07 2867.49,4372.39" fill="rgb(3,0,0)" fill-opacity="0.502"/>
<g transform="translate(2240.00 1680.00) rotate(343) scale(208.00 272.00)"><ellipse cx="0" cy="0" rx="1" ry="1" fill="rgb(160,176,138)" fill-opacity="0.502"/></g>
<circle cx="4304.00" cy="1904.00" r="48.00" fill="rgb(20,29,0)" fill-opacity="0.502"/>
<circle cx="1168.00" cy="3168.00" r="80.00" fill="rgb(119,128,98)" fill-opacity="0.502"/>
<polygon points="5836.35,3215.42 5744.58,3084.35 5875.65,2992.58 5967.42,3123.65" fill="rgb(168,86,34)" fill-opacity="0.502"/>
<polygon points="1103.53,3448.97 1192.54,3413.01 1264.47,3591.03 1175.46,3626.99" fill="rgb(166,165,143)" fill-opacity="0.502"/>
<polygon points="2093.82,2352.24 2018.17,2378.28 1794.18,1727.76 1869.83,1701.72" fill="rgb(170,189,161)" fill-opacity="0.502"/>
<polygon points="5500.58,991.89 5818.83,1025.34 5795.42,1248.11 5477.17,1214.66" fill="rgb(0,0,0)" fill-opacity="0.502"/>
<circle cx="2688.00" cy="4592.00" r="176.00" fill="rgb(86,82,51)" fill-opacity="0.502"/>
<polygon points="2912.72,2243.40 2240.35,2542.76 2175.28,2396.60 2847.65,2097.24" fill="rgb(0,44,0)" fill-opacity="0.502"/>
<polygon points="3896.00,2904.00 3896.00,2728.00 4280.00,2728.00 4280.00,2904.00" fill="rgb(40,38,42)" fill-opacity="0.502"/>
<g transform="translate(1776.00 1392.00) rotate(302) scale(64.00 64.00)"><ellipse cx="0" cy="0" rx="1" ry="1" fill="rgb(27,40,45)" fill-opacity="0.502"/></g>
<circle cx="4320.00" cy="0.00" r="144.00" fill="rgb(93,103,69)" fill-opacity="0.502"/>
<polygon points="6238.05,2435.27 6041.66,2837.93 5825.95,2732.73 6022.34,2330.07" fill="rgb(112,51,23)" fill-opacity="0.502"/>
<polygon points="3493.78,1902.30 3437.64,2085.91 3162.22,2001.70 3218.36,1818.09" fill="rgb(72,63,68)" fill-opacity="0.502"/>
<g transform="translate(2256.00 2656.00) rotate(5) scale(96.00 128.00)"><ellipse cx="0" cy="0" rx="1" ry="1" fill="rgb(96,130,80)" fill-opacity="0.502"/></g>
<polygon points="3176.00,2792.00 3176.00,2520.00 3272.00,2520.00 3272.00,2792.00" fill="rgb(128,158,127)" fill-opacity="0.502"/>
<polygon points="1722.18,3344.50 1778.32,3528.11 1701.82,3551.50 1645.68,3367.89" fill="rgb(202,199,201)" fill-opacity="0.502"/>
<circle cx="1952.00" cy="688.00" r="448.00" fill="rgb(186,201,195)" fill-opacity="0.502"/>
<g transform="translate(5424.00 1088.00) rotate(195) scale(32.00 320.00)"><ellipse cx="0" cy="0" rx="1" ry="1" fill="rgb(84,69,63)" fill-opacity="0.502"/></g>
<polygon points="1776.00,3632.00 1776.00,4112.00 1328.00,4112.00 1328.00,3632.00" fill="rgb(134,135,107)" fill-opacity="0.502"/>
<g transform="translate(816.00 64.00) rotate(214) scale(304.00 256.00)"><ellipse cx="0" cy="0" rx="1" ry="1" fill="rgb(0,0,0)" fill-opacity="0.502"/></g>
<g transform="translate(5040.00 1696.00) rotate(331) scale(112.00 208.00)"><ellipse cx="0" cy="0" rx="1" ry="1" fill="rgb(41,37,31)" fill-opacity="0.502"/></g>
<g transform="translate(4032.00 2288.00) rotate(6) scale(48.00 384.00)"><ellipse cx="0" cy="0" rx="1" ry="1" fill="rgb(7,22,46)" fill-opacity="0.502"/></g>
<g transform="translate(3472.00 1952.00) rotate(281) scale(416.00 16.00)"><ellipse cx="0" cy="0" rx="1" ry="1" fill="rgb(120,106,92)" fill-opacity="0.502"/></g>
<polygon points="6322.57,2058.98 6202.58,2540.25 6109.43,2517.02 6229.42,2035.75" fill="rgb(153,86,39)" fill-opacity="0.502"/>
<polygon points="2723.99,1921.15 2874.34,1866.43 2940.01,2046.85 2789.66,2101.57" fill="rgb(171,223,156)" fill-opacity="0.502"/>
<circle cx="5392.00" cy="128.00" r="96.00" fill="rgb(136,146,116)" fill-opacity="0.502"/>
<g transform="translate(1888.00 1584.00) rotate(138) scale(912.00 16.00)"><ellipse cx="0" cy="0" rx="1" ry="1" fill="rgb(34,47,45)" fill-opacity="0.502"/></g>
<g transform="translate(2864.00 3344.00) rotate(277) scale(112.00 384.00)"><ellipse cx="0" cy="0" rx="1" ry="1" fill="rgb(49,70,10)" fill-opacity="0.502"/></g>
<g transform="translate(1472.00 1280.00) rotate(329) scale(96.00 320.00)"><ellipse cx="0" cy="0" rx="1" ry="1" fill="rgb(194,210,204)" fill-opacity="0.502"/></g>
<polygon points="3214.68,1881.35 3297.91,1956.29 3137.32,2134.65 3054.09,2059.71" fill="rgb(0,43,17)" fill-opacity="0.502"/>
<polygon points="7023.00,3385.20 6495.32,3366.77 6497.00,3318.80 7024.68,3337.23" fill="rgb(255,220,180)" fill-opacity="0.502"/>
<circle cx="6272.00" cy="864.00" r="96.00" fill="rgb(0,0,0)" fill-opacity="0.502"/>
<polygon points="2731.97,1523.82 2706.96,1582.73 2324.03,1420.18 2349.04,1361.27" fill="rgb(39,89,38)" fill-opacity="0.502"/>
<polygon points="7006.92,1797.77 6980.43,1494.93 7857.08,1418.23 7883.57,1721.07" fill="rgb(0,0,0)" fill-opacity="0.502"/>
<circle cx="1408.00" cy="3216.00" r="160.00" fill="rgb(138,147,115)" fill-opacity="0.502"/>
<circle cx="2464.00" cy="3664.00" r="256.00" fill="rgb(3,1,0)" fill-opacity="0.502"/>
<polygon points="2846.54,794.23 3174.35,538.12 3233.46,613.77 2905.65,869.88" fill="rgb(203,236,183)" fill-opacity="0.502"/>
<polygon points="3395.11,2934.92 3526.71,3462.76 3324.89,3513.08 3193.29,2985.24" fill="rgb(106,120,83)" fill-opacity="0.502"/>
<polygon points="1879.37,1456.85 1841.86,1368.48 2504.63,1087.15 2542.14,1175.52" fill="rgb(181,199,183)" fill-opacity="0.502"/>
<polygon points="4320.45,3246.67 4503.02,2855.14 5039.55,3105.33 4856.98,3496.86" fill="rgb(11,7,17)" fill-opacity="0.502"/>
<circle cx="6736.00" cy="3264.00" r="80.00" fill="rgb(32,10,0)" fill-opacity="0.502"/>
<polygon points="2947.30,803.77 3054.96,772.90 3116.70,988.23 3009.04,1019.10" fill="rgb(76,106,60)" fill-opacity="0.502"/>
<g transform="translate(7024.00 688.00) rotate(152) scale(64.00 64.00)"><ellipse cx="0" cy="0" rx="1" ry="1" fill="rgb(65,151,174)" fill-opacity="0.502"/></g>
<circle cx="3472.00" cy="2000.00" r="160.00" fill="rgb(116,107,79)" fill-opacity="0.502"/>
<polygon points="5395.95,809.55 5374.91,852.70 5116.05,726.45 5137.09,683.30" fill="rgb(107,92,101)" fill-opacity="0.502"/>
<polygon points="4664.00,4280.00 4664.00,3864.00 5224.00,3864.00 5224.00,4280.00" fill="rgb(0,0,0)" fill-opacity="0.502"/>
<polygon points="2956.79,596.13 3081.14,495.44 3091.21,507.87 2966.86,608.56" fill="rgb(255,255,255)" fill-opacity="0.502"/>
<circle cx="1776.00" cy="912.00" r="288.00" fill="rgb(191,207,202)" fill-opacity="0.502"/>
<circle cx="5904.00" cy="0.00" r="288.00" fill="rgb(62,79,64)" fill-opacity="0.502"/>
<g transform="translate(4992.00 64.00) rotate(286) scale(80.00 624.00)"><ellipse cx="0" cy="0" rx="1" ry="1" fill="rgb(111,143,125)" fill-opacity="0.502"/></g>
<polygon points="5734.73,435.35 6553.83,654.83 6537.27,716.65 5718.17,497.17" fill="rgb(140,77,46)" fill-opacity="0.502"/>
<polygon points="1314.04,2573.59 1322.86,2604.35 1245.96,2626.41 1237.14,2595.65" fill="rgb(255,255,255)" fill-opacity="0.502"/>
<g transform="translate(4224.00 2240.00) rotate(130) scale(496.00 32.00)"><ellipse cx="0" cy="0" rx="1" ry="1" fill="rgb(32,30,27)" fill-opacity="0.502"/></g>
<polygon points="6227.91,701.63 6263.70,754.69 5932.09,978.37 5896.30,925.31" fill="rgb(113,87,80)" fill-opacity="0.502"/>
<circle cx="1792.00" cy="2512.00" r="96.00" fill="rgb(16,76,30)" fill-opacity="0.502"/>
<polygon points="4277.82,2736.77 4308.72,2745.05 4234.18,3023.23 4203.28,3014.95" fill="rgb(94,87,92)" fill-opacity="0.502"/>
<g transform="translate(4704.00 1456.00) rotate(113) scale(336.00 112.00)"><ellipse cx="0" cy="0" rx="1" ry="1" fill="rgb(15,13,14)" fill-opacity="0.502"/></g>
<g transform="translate(2976.00 3136.00) rotate(36) scale(304.00 144.00)"><ellipse cx="0" cy="0" rx="1" ry="1" fill="rgb(6,36,3)" fill-opacity="0.502"/></g>
<g transform="translate(5776.00 1872.00) rotate(317) scale(128.00 352.00)"><ellipse cx="0" cy="0" rx="1" ry="1" fill="rgb(5,10,10)" fill-opacity="0.502"/></g>
<g transform="translate(1472.00 1360.00) rotate(262) scale(128.00 256.00)"><ellipse cx="0" cy="0" rx="1" ry="1" fill="rgb(194,210,204)" fill-opacity="0.502"/></g>
<polygon points="3442.63,2658.12 3437.33,2962.07 3197.37,2957.88 3202.67,2653.93" fill="rgb(102,123,92)" fill-opacity="0.502"/>
<g transform="translate(6208.00 1504.00) rotate(0) scale(16.00 384.00)"><ellipse cx="0" cy="0" rx="1" ry="1" fill="rgb(115,101,90)" fill-opacity="0.502"/></g>
<circle cx="5424.00" cy="32.00" r="144.00" fill="rgb(98,92,66)" fill-opacity="0.502"/>
<circle cx="3872.00" cy="1808.00" r="16.00" fill="rgb(0,0,0)" fill-opacity="0.502"/>
<polygon points="1642.54,4241.84 1664.13,4335.37 1461.46,4382.16 1439.87,4288.63" fill="rgb(63,63,56)" fill-opacity="0.502"/>
<polygon points="4508.45,-86.40 4314.65,370.17 4211.55,326.40 4405.35,-130.17" fill="rgb(94,119,110)" fill-opacity="0.502"/>
<g transform="translate(4816.00 4432.00) rotate(178) scale(1488.00 608.00)"><ellipse cx="0" cy="0" rx="1" ry="1" fill="rgb(4,3,4)" fill-opacity="0.502"/></g>
<circle cx="7024.00" cy="1040.00" r="32.00" fill="rgb(167,130,124)" fill-opacity="0.502"/>
<g transform="translate(1648.00 3488.00) rotate(97) scale(176.00 32.00)"><ellipse cx="0" cy="0" rx="1" ry="1" fill="rgb(22,25,20)" fill-opacity="0.502"/></g>
<g transform="translate(6288.00 1344.00) rotate(334) scale(80.00 288.00)"><ellipse cx="0" cy="0" rx="1" ry="1" fill="rgb(34,24,26)" fill-opacity="0.502"/></g>
<circle cx="5120.00" cy="480.00" r="112.00" fill="rgb(71,45,31)" fill-opacity="0.502"/>
<polygon points="2692.11,2632.93 2617.00,2491.65 2715.89,2439.07 2791.00,2580.35" fill="rgb(104,132,65)" fill-opacity="0.502"/>
<polygon points="5772.63,2406.86 5634.52,2540.23 5523.37,2425.14 5661.48,2291.77" fill="rgb(67,47,44)" fill-opacity="0.502"/>
<polygon points="6209.09,1980.36 5793.15,1987.62 5790.91,1859.64 6206.85,1852.38" fill="rgb(1,0,0)" fill-opacity="0.502"/>
<g transform="translate(6352.00 2128.00) rotate(141) scale(32.00 160.00)"><ellipse cx="0" cy="0" rx="1" ry="1" fill="rgb(107,121,111)" fill-opacity="0.502"/></g>
<g transform="translate(1440.00 2512.00) rotate(62) scale(16.00 368.00)"><ellipse cx="0" cy="0" rx="1" ry="1" fill="rgb(242,255,243)" fill-opacity="0.502"/></g>
<circle cx="640.00" cy="4016.00" r="464.00" fill="rgb(0,0,0)" fill-opacity="0.502"/>
<circle cx="3344.00" cy="1456.00" r="128.00" fill="rgb(194,200,210)" fill-opacity="0.502"/>
<g transform="translate(6432.00 832.00) rotate(37) scale(144.00 16.00)"><ellipse cx="0" cy="0" rx="1" ry="1" fill="rgb(190,157,143)" fill-opacity="0.502"/></g>
<circle cx="6512.00" cy="1024.00" r="96.00" fill="rgb(65,54,48)" fill-opacity="0.502"/>
<polygon points="1367.20,4365.02 1106.98,4104.80 1208.80,4002.98 1469.02,4263.20" fill="rgb(82,82,71)" fill-opacity="0.502"/>
<g transform="translate(5328.00 2608.00) rotate(352) scale(416.00 96.00)"><ellipse cx="0" cy="0" rx="1" ry="1" fill="rgb(5,2,8)" fill-opacity="0.502"/></g>
<circle cx="2672.00" cy="720.00" r="112.00" fill="rgb(163,186,152)" fill-opacity="0.502"/>
<polygon points="2182.70,858.34 2257.81,999.61 2201.30,1029.66 2126.19,888.39" fill="rgb(123,135,120)" fill-opacity="0.502"/>
<polygon points="1263.03,3535.74 1311.78,3932.76 1152.97,3952.26 1104.22,3555.24" fill="rgb(136,137,105)" fill-opacity="0.502"/>
<polygon points="6093.56,2542.80 6145.34,2580.42 5938.44,2865.20 5886.66,2827.58" fill="rgb(79,25,0)" fill-opacity="0.502"/>
<g transform="translate(3520.00 128.00) rotate(50) scale(16.00 624.00)"><ellipse cx="0" cy="0" rx="1" ry="1" fill="rgb(255,250,255)" fill-opacity="0.502"/></g>
<circle cx="2752.00" cy="944.00" r="64.00" fill="rgb(197,233,180)" fill-opacity="0.502"/>
<g transform="translate(4848.00 1920.00) rotate(197) scale(304.00 48.00)"><ellipse cx="0" cy="0" rx="1" ry="1" fill="rgb(0,72,138)" fill-opacity="0.502"/></g>
<polygon points="7003.27,1065.84 7421.52,905.29 7524.73,1174.16 7106.48,1334.71" fill="rgb(0,0,0)" fill-opacity="0.502"/>
<circle cx="4224.00" cy="3040.00" r="112.00" fill="rgb(6,4,9)" fill-opacity="0.502"/>
<g transform="translate(5744.00 2704.00) rotate(281) scale(512.00 48.00)"><ellipse cx="0" cy="0" rx="1" ry="1" fill="rgb(0,0,3)" fill-opacity="0.502"/></g>
<g transform="translate(5168.00 1088.00) rotate(157) scale(160.00 192.00)"><ellipse cx="0" cy="0" rx="1" ry="1" fill="rgb(21,0,4)" fill-opacity="0.502"/></g>
<g transform="translate(5744.00 400.00) rotate(283) scale(48.00 1232.00)"><ellipse cx="0" cy="0" rx="1" ry="1" fill="rgb(9,96,148)" fill-opacity="0.502"/></g>
<circle cx="4784.00" cy="352.00" r="48.00" fill="rgb(225,132,71)" fill-opacity="0.502"/>
<polygon points="3225.61,616.71 3307.89,714.76 2854.39,1095.29 2772.11,997.24" fill="rgb(95,127,78)" fill-opacity="0.502"/>
<g transform="translate(2688.00 1088.00) rotate(198) scale(16.00 32.00)"><ellipse cx="0" cy="0" rx="1" ry="1" fill="rgb(0,0,0)" fill-opacity="0.502"/></g>
<polygon points="1765.61,2397.62 1771.86,2412.34 1418.39,2562.38 1412.14,2547.66" fill="rgb(255,255,255)" fill-opacity="0.502"/>
<polygon points="1526.74,2462.53 1465.87,2442.76 1609.26,2001.47 1670.13,2021.24" fill="rgb(0,40,0)" fill-opacity="0.502"/>
<polygon points="1588.16,3317.91 1740.26,3092.41 1819.84,3146.09 1667.74,3371.59" fill="rgb(40,57,59)" fill-opacity="0.502"/>
<polygon points="2126.27,4309.61 1929.85,4520.24 1777.73,4378.39 1974.15,4167.76" fill="rgb(64,63,49)" fill-opacity="0.502"/>
<circle cx="1552.00" cy="2128.00" r="96.00" fill="rgb(0,56,3)" fill-opacity="0.502"/>
<polygon points="3360.29,458.41 3538.73,253.13 3695.71,389.59 3517.27,594.87" fill="rgb(178,202,171)" fill-opacity="0.502"/>
<g transform="translate(7392.00 496.00) rotate(167) scale(240.00 800.00)"><ellipse cx="0" cy="0" rx="1" ry="1" fill="rgb(0,0,0)" fill-opacity="0.502"/></g>
<polygon points="1500.01,4463.10 1238.89,4674.55 1107.99,4512.90 1369.11,4301.45" fill="rgb(131,129,111)" fill-opacity="0.502"/>
<polygon points="3987.72,1114.59 3938.47,979.27 4284.28,853.41 4333.53,988.73" fill="rgb(106,114,82)" fill-opacity="0.502"/>
<g transform="translate(3504.00 1536.00) rotate(355) scale(48.00 368.00)"><ellipse cx="0" cy="0" rx="1" ry="1" fill="rgb(62,77,74)" fill-opacity="0.502"/></g>
<polygon points="6234.83,919.79 6436.65,970.11 6421.17,1032.21 6219.35,981.89" fill="rgb(127,110,114)" fill-opacity="0.502"/>
<g transform="translate(1792.00 3200.00) rotate(318) scale(96.00 160.00)"><ellipse cx="0" cy="0" rx="1" ry="1" fill="rgb(66,77,92)" fill-opacity="0.502"/></g>
<polygon points="3969.85,1107.25 4081.43,623.96 4206.15,652.75 4094.57,1136.04" fill="rgb(104,96,44)" fill-opacity="0.502"/>
<polygon points="1335.90,3352.53 1353.10,3307.72 1592.10,3399.47 1574.90,3444.28" fill="rgb(156,149,129)" fill-opacity="0.502"/>
<g transform="translate(5456.00 2320.00) rotate(104) scale(16.00 288.00)"><ellipse cx="0" cy="0" rx="1" ry="1" fill="rgb(143,150,140)" fill-opacity="0.502"/></g>
<g transform="translate(3888.00 2432.00) rotate(10) scale(32.00 928.00)"><ellipse cx="0" cy="0" rx="1" ry="1" fill="rgb(103,108,98)" fill-opacity="0.502"/></g>
<polygon points="2727.64,1887.19 2811.55,2094.88 2648.36,2160.81 2564.45,1953.12" fill="rgb(172,211,152)" fill-opacity="0.502"/>
<circle cx="5312.00" cy="3488.00" r="48.00" fill="rgb(107,75,74)" fill-opacity="0.502"/>
<polygon points="4797.45,921.02 4876.47,908.50 4946.55,1350.98 4867.53,1363.50" fill="rgb(0,0,0)" fill-opacity="0.502"/>
<polygon points="6348.79,3812.01 6372.24,3364.63 7123.21,3403.99 7099.76,3851.37" fill="rgb(4,1,2)" fill-opacity="0.502"/>
<circle cx="5856.00" cy="1152.00" r="48.00" fill="rgb(108,90,86)" fill-opacity="0.502"/>
<g transform="translate(320.00 2064.00) rotate(302) scale(912.00 720.00)"><ellipse cx="0" cy="0" rx="1" ry="1" fill="rgb(0,0,0)" fill-opacity="0.502"/></g>
<circle cx="7408.00" cy="976.00" r="352.00" fill="rgb(0,0,0)" fill-opacity="0.502"/>
<polygon points="4912.79,976.25 4899.68,967.07 4927.21,927.75 4940.32,936.93" fill="rgb(206,205,214)" fill-opacity="0.502"/>
<g transform="translate(3344.00 336.00) rotate(323) scale(224.00 32.00)"><ellipse cx="0" cy="0" rx="1" ry="1" fill="rgb(72,67,71)" fill-opacity="0.502"/></g>
<polygon points="6496.69,2471.24 6548.97,2551.76 6079.31,2856.76 6027.03,2776.24" fill="rgb(7,5,2)" fill-opacity="0.502"/>
<g transform="translate(2752.00 544.00) rotate(132) scale(608.00 96.00)"><ellipse cx="0" cy="0" rx="1" ry="1" fill="rgb(182,207,183)" fill-opacity="0.502"/></g>
<polygon points="1672.87,1626.58 1653.42,1736.87 1543.13,1717.42 1562.58,1607.13" fill="rgb(208,222,211)" fill-opacity="0.502"/>
<g transform="translate(5840.00 3776.00) rotate(187) scale(320.00 32.00)"><ellipse cx="0" cy="0" rx="1" ry="1" fill="rgb(106,90,67)" fill-opacity="0.502"/></g>
<polygon points="2056.68,4022.68 1969.16,4228.87 1527.32,4041.32 1614.84,3835.13" fill="rgb(133,132,106)" fill-opacity="0.502"/>
<circle cx="1184.00" cy="832.00" r="96.00" fill="rgb(195,204,201)" fill-opacity="0.502"/>
<circle cx="1472.00" cy="1088.00" r="336.00" fill="rgb(190,206,202)" fill-opacity="0.502"/>
<g transform="translate(576.00 3552.00) rotate(84) scale(848.00 528.00)"><ellipse cx="0" cy="0" rx="1" ry="1" fill="rgb(0,0,0)" fill-opacity="0.502"/></g>
<circle cx="4160.00" cy="1328.00" r="64.00" fill="rgb(8,108,189)" fill-opacity="0.502"/>
<polygon points="4573.69,1081.78 4771.48,592.23 4786.31,598.22 4588.52,1087.77" fill="rgb(127,118,99)" fill-opacity="0.502"/>
<g transform="translate(3584.00 1952.00) rotate(23) scale(32.00 272.00)"><ellipse cx="0" cy="0" rx="1" ry="1" fill="rgb(107,117,92)" fill-opacity="0.502"/></g>
<g transform="translate(5184.00 3824.00) rotate(319) scale(32.00 16.00)"><ellipse cx="0" cy="0" rx="1" ry="1" fill="rgb(173,151,160)" fill-opacity="0.502"/></g>
<polygon points="5844.18,3294.15 5762.91,3485.61 5659.82,3441.85 5741.09,3250.39" fill="rgb(151,73,31)" fill-opacity="0.502"/>
<g transform="translate(5824.00 3632.00) rotate(2) scale(752.00 64.00)"><ellipse cx="0" cy="0" rx="1" ry="1" fill="rgb(0,0,0)" fill-opacity="0.502"/></g>
</g>
</svg>