<?xml version="1.0" standalone="no"?>
<svg xmlns="http://www.w3.org/2000/svg" width="8192" height="4608" viewBox="0 0 8192 4608" style="overflow:hidden">
<defs>
<clipPath id="c"><rect x="0" y="0" width="8192" height="4608"/></clipPath>
</defs>
<rect width="8192" height="4608" fill="rgb(112,112,112)"/>
<g clip-path="url(#c)">
<g transform="translate(3392.00 448.00) rotate(79) scale(1728.00 2208.00)"><ellipse cx="0" cy="0" rx="1" ry="1" fill="rgb(255,255,255)" fill-opacity="0.502"/></g>
<circle cx="5744.00" cy="3440.00" r="1376.00" fill="rgb(255,255,255)" fill-opacity="0.502"/>
<circle cx="8176.00" cy="1600.00" r="1616.00" fill="rgb(0,0,0)" fill-opacity="0.502"/>
<circle cx="8144.00" cy="3648.00" r="1136.00" fill="rgb(0,0,0)" fill-opacity="0.502"/>
<circle cx="0.00" cy="2624.00" r="2112.00" fill="rgb(0,0,0)" fill-opacity="0.502"/>
<g transform="translate(1568.00 2320.00) rotate(24) scale(464.00 640.00)"><ellipse cx="0" cy="0" rx="1" ry="1" fill="rgb(255,255,255)" fill-opacity="0.502"/></g>
<circle cx="8176.00" cy="928.00" r="1232.00" fill="rgb(0,0,0)" fill-opacity="0.502"/>
<g transform="translate(6704.00 2032.00) rotate(106) scale(704.00 368.00)"><ellipse cx="0" cy="0" rx="1" ry="1" fill="rgb(255,255,255)" fill-opacity="0.502"/></g>
<circle cx="0.00" cy="832.00" r="1200.00" fill="rgb(0,0,0)" fill-opacity="0.502"/>
<g transform="translate(3232.00 144.00) rotate(0) scale(1792.00 1008.00)"><ellipse cx="0" cy="0" rx="1" ry="1" fill="rgb(255,255,255)" fill-opacity="0.502"/></g>
<g transform="translate(3104.00 2800.00) rotate(127) scale(848.00 1264.00)"><ellipse cx="0" cy="0" rx="1" ry="1" fill="rgb(16,16,16)" fill-opacity="0.502"/></g>
<circle cx="2032.00" cy="4080.00" r="416.00" fill="rgb(0,0,0)" fill-opacity="0.502"/>
<circle cx="0.00" cy="3216.00" r="1216.00" fill="rgb(0,0,0)" fill-opacity="0.502"/>
<circle cx="5936.00" cy="3712.00" r="1168.00" fill="rgb(237,237,236)" fill-opacity="0.502"/>
<g transform="translate(6608.00 2432.00) rotate(95) scale(624.00 496.00)"><ellipse cx="0" cy="0" rx="1" ry="1" fill="rgb(226,226,226)" fill-opacity="0.502"/></g>
<g transform="translate(2608.00 2016.00) rotate(84) scale(640.00 400.00)"><ellipse cx="0" cy="0" rx="1" ry="1" fill="rgb(71,71,71)" fill-opacity="0.502"/></g>
<g transform="translate(1344.00 1248.00) rotate(360) scale(256.00 720.00)"><ellipse cx="0" cy="0" rx="1" ry="1" fill="rgb(216,216,215)" fill-opacity="0.502"/></g>
<circle cx="1360.00" cy="3792.00" r="320.00" fill="rgb(255,255,255)" fill-opacity="0.502"/>
<polygon points="6435.76,1069.03 5905.54,1294.09 5724.24,866.97 6254.46,641.91" fill="rgb(255,255,255)" fill-opacity="0.502"/>
<circle cx="496.00" cy="384.00" r="640.00" fill="rgb(0,0,0)" fill-opacity="0.502"/>
<g transform="translate(1984.00 1968.00) rotate(23) scale(656.00 400.00)"><ellipse cx="0" cy="0" rx="1" ry="1" fill="rgb(174,174,173)" fill-opacity="0.502"/></g>
<circle cx="5280.00" cy="224.00" r="448.00" fill="rgb(255,255,255)" fill-opacity="0.502"/>
<g transform="translate(7712.00 3760.00) rotate(89) scale(5648.00 624.00)"><ellipse cx="0" cy="0" rx="1" ry="1" fill="rgb(0,0,0)" fill-opacity="0.502"/></g>
<g transform="translate(4160.00 4512.00) rotate(93) scale(256.00 368.00)"><ellipse cx="0" cy="0" rx="1" ry="1" fill="rgb(0,0,0)" fill-opacity="0.502"/></g>
<polygon points="1358.91,3322.43 1328.23,3673.09 1105.09,3653.57 1135.77,3302.91" fill="rgb(255,255,255)" fill-opacity="0.502"/>
<g transform="translate(3520.00 2016.00) rotate(111) scale(256.00 240.00)"><ellipse cx="0" cy="0" rx="1" ry="1" fill="rgb(255,255,255)" fill-opacity="0.502"/></g>
<polygon points="3265.99,1375.28 3466.05,1168.11 4030.01,1712.72 3829.95,1919.89" fill="rgb(58,58,57)" fill-opacity="0.502"/>
<polygon points="4211.76,1265.26 4458.73,403.97 5612.24,734.74 5365.27,1596.03" fill="rgb(78,78,77)" fill-opacity="0.502"/>
<g transform="translate(4496.00 3696.00) rotate(215) scale(1104.00 96.00)"><ellipse cx="0" cy="0" rx="1" ry="1" fill="rgb(0,0,0)" fill-opacity="0.502"/></g>
<circle cx="6720.00" cy="4400.00" r="368.00" fill="rgb(232,232,232)" fill-opacity="0.502"/>
<g transform="translate(1392.00 4448.00) rotate(202) scale(224.00 528.00)"><ellipse cx="0" cy="0" rx="1" ry="1" fill="rgb(255,255,255)" fill-opacity="0.502"/></g>
<g transform="translate(2896.00 4432.00) rotate(217) scale(208.00 752.00)"><ellipse cx="0" cy="0" rx="1" ry="1" fill="rgb(215,215,215)" fill-opacity="0.502"/></g>
<g transform="translate(3424.00 4592.00) rotate(151) scale(464.00 144.00)"><ellipse cx="0" cy="0" rx="1" ry="1" fill="rgb(255,255,255)" fill-opacity="0.502"/></g>
<polygon points="6576.27,1775.85 5855.73,2191.85 5615.73,1776.15 6336.27,1360.15" fill="rgb(0,0,0)" fill-opacity="0.502"/>
<g transform="translate(4592.00 2816.00) rotate(83) scale(240.00 432.00)"><ellipse cx="0" cy="0" rx="1" ry="1" fill="rgb(255,255,255)" fill-opacity="0.502"/></g>
<circle cx="5360.00" cy="1936.00" r="416.00" fill="rgb(72,72,71)" fill-opacity="0.502"/>
<g transform="translate(1440.00 1776.00) rotate(126) scale(464.00 240.00)"><ellipse cx="0" cy="0" rx="1" ry="1" fill="rgb(95,95,94)" fill-opacity="0.502"/></g>
<circle cx="1536.00" cy="2416.00" r="416.00" fill="rgb(253,253,253)" fill-opacity="0.502"/>
<circle cx="368.00" cy="2160.00" r="752.00" fill="rgb(0,0,0)" fill-opacity="0.502"/>
<g transform="translate(400.00 3552.00) rotate(91) scale(6400.00 704.00)"><ellipse cx="0" cy="0" rx="1" ry="1" fill="rgb(0,0,0)" fill-opacity="0.502"/></g>
<g transform="translate(3728.00 3888.00) rotate(261) scale(208.00 672.00)"><ellipse cx="0" cy="0" rx="1" ry="1" fill="rgb(192,192,191)" fill-opacity="0.502"/></g>
<polygon points="3037.67,3288.22 3293.31,3552.94 2706.33,4119.78 2450.69,3855.06" fill="rgb(32,32,32)" fill-opacity="0.502"/>
<g transform="translate(1856.00 1248.00) rotate(67) scale(608.00 224.00)"><ellipse cx="0" cy="0" rx="1" ry="1" fill="rgb(255,255,255)" fill-opacity="0.502"/></g>
<g transform="translate(7808.00 2512.00) rotate(281) scale(2352.00 576.00)"><ellipse cx="0" cy="0" rx="1" ry="1" fill="rgb(0,0,0)" fill-opacity="0.502"/></g>
<g transform="translate(1872.00 3552.00) rotate(316) scale(288.00 496.00)"><ellipse cx="0" cy="0" rx="1" ry="1" fill="rgb(0,0,0)" fill-opacity="0.502"/></g>
<circle cx="2624.00" cy="1744.00" r="352.00" fill="rgb(46,46,47)" fill-opacity="0.502"/>
<polygon points="2366.83,4568.57 1712.42,4614.33 1681.17,4167.43 2335.58,4121.67" fill="rgb(0,0,0)" fill-opacity="0.502"/>
<polygon points="5929.64,627.27 6388.67,767.61 6262.36,1180.73 5803.33,1040.39" fill="rgb(255,255,255)" fill-opacity="0.502"/>
<circle cx="6928.00" cy="144.00" r="160.00" fill="rgb(255,255,255)" fill-opacity="0.502"/>
<circle cx="5296.00" cy="3184.00" r="848.00" fill="rgb(223,223,222)" fill-opacity="0.502"/>
<g transform="translate(2416.00 4176.00) rotate(110) scale(176.00 80.00)"><ellipse cx="0" cy="0" rx="1" ry="1" fill="rgb(243,243,241)" fill-opacity="0.502"/></g>
<circle cx="4192.00" cy="320.00" r="496.00" fill="rgb(237,237,236)" fill-opacity="0.502"/>
<circle cx="5168.00" cy="2176.00" r="176.00" fill="rgb(0,0,0)" fill-opacity="0.502"/>
<polygon points="5228.83,4053.49 5092.37,4210.47 4899.17,4042.51 5035.63,3885.53" fill="rgb(39,39,40)" fill-opacity="0.502"/>
<g transform="translate(2768.00 432.00) rotate(169) scale(656.00 496.00)"><ellipse cx="0" cy="0" rx="1" ry="1" fill="rgb(255,255,255)" fill-opacity="0.502"/></g>
<polygon points="2328.37,3908.27 2192.71,3464.54 2391.63,3403.73 2527.29,3847.46" fill="rgb(251,251,250)" fill-opacity="0.502"/>
<circle cx="4448.00" cy="1696.00" r="512.00" fill="rgb(184,184,183)" fill-opacity="0.502"/>
<g transform="translate(6960.00 528.00) rotate(116) scale(208.00 144.00)"><ellipse cx="0" cy="0" rx="1" ry="1" fill="rgb(253,253,255)" fill-opacity="0.502"/></g>
<polygon points="4223.34,1267.73 3778.29,1447.54 3424.66,572.27 3869.71,392.46" fill="rgb(255,255,255)" fill-opacity="0.502"/>
<polygon points="5923.16,1545.20 5477.54,1233.18 5596.84,1062.80 6042.46,1374.82" fill="rgb(255,255,255)" fill-opacity="0.502"/>
<circle cx="7904.00" cy="4320.00" r="832.00" fill="rgb(0,0,0)" fill-opacity="0.502"/>
<circle cx="4016.00" cy="3264.00" r="368.00" fill="rgb(0,0,0)" fill-opacity="0.502"/>
<polygon points="3366.36,1472.22 2298.44,1565.65 2249.64,1007.78 3317.56,914.35" fill="rgb(203,203,201)" fill-opacity="0.502"/>
<g transform="translate(2352.00 2608.00) rotate(247) scale(432.00 272.00)"><ellipse cx="0" cy="0" rx="1" ry="1" fill="rgb(33,33,33)" fill-opacity="0.502"/></g>
<g transform="translate(880.00 16.00) rotate(338) scale(192.00 352.00)"><ellipse cx="0" cy="0" rx="1" ry="1" fill="rgb(0,0,0)" fill-opacity="0.502"/></g>
<g transform="translate(1392.00 1904.00) rotate(54) scale(288.00 288.00)"><ellipse cx="0" cy="0" rx="1" ry="1" fill="rgb(111,111,109)" fill-opacity="0.502"/></g>
<circle cx="7760.00" cy="384.00" r="688.00" fill="rgb(0,0,0)" fill-opacity="0.502"/>
<g transform="translate(5264.00 368.00) rotate(103) scale(464.00 224.00)"><ellipse cx="0" cy="0" rx="1" ry="1" fill="rgb(255,255,255)" fill-opacity="0.502"/></g>
<g transform="translate(4352.00 592.00) rotate(138) scale(176.00 208.00)"><ellipse cx="0" cy="0" rx="1" ry="1" fill="rgb(146,146,149)" fill-opacity="0.502"/></g>
<g transform="translate(6848.00 880.00) rotate(291) scale(240.00 208.00)"><ellipse cx="0" cy="0" rx="1" ry="1" fill="rgb(129,129,131)" fill-opacity="0.502"/></g>
<g transform="translate(1984.00 2240.00) rotate(173) scale(48.00 368.00)"><ellipse cx="0" cy="0" rx="1" ry="1" fill="rgb(218,218,215)" fill-opacity="0.502"/></g>
<polygon points="5826.38,770.20 5637.52,1140.86 5309.62,973.80 5498.48,603.14" fill="rgb(27,27,31)" fill-opacity="0.502"/>
<g transform="translate(2576.00 3312.00) rotate(352) scale(160.00 384.00)"><ellipse cx="0" cy="0" rx="1" ry="1" fill="rgb(39,39,38)" fill-opacity="0.502"/></g>
<g transform="translate(6576.00 4000.00) rotate(78) scale(784.00 496.00)"><ellipse cx="0" cy="0" rx="1" ry="1" fill="rgb(214,214,216)" fill-opacity="0.502"/></g>
<circle cx="448.00" cy="4176.00" r="704.00" fill="rgb(0,0,0)" fill-opacity="0.502"/>
<g transform="translate(2848.00 3552.00) rotate(32) scale(480.00 272.00)"><ellipse cx="0" cy="0" rx="1" ry="1" fill="rgb(49,49,49)" fill-opacity="0.502"/></g>
<g transform="translate(7568.00 2464.00) rotate(321) scale(544.00 464.00)"><ellipse cx="0" cy="0" rx="1" ry="1" fill="rgb(0,0,0)" fill-opacity="0.502"/></g>
<circle cx="4688.00" cy="3088.00" r="352.00" fill="rgb(224,224,223)" fill-opacity="0.502"/>
<polygon points="1602.34,876.87 1398.92,1102.78 1101.66,835.13 1305.08,609.22" fill="rgb(240,240,237)" fill-opacity="0.502"/>
<g transform="translate(2336.00 3008.00) rotate(260) scale(272.00 352.00)"><ellipse cx="0" cy="0" rx="1" ry="1" fill="rgb(34,34,33)" fill-opacity="0.502"/></g>
<circle cx="6736.00" cy="2848.00" r="352.00" fill="rgb(220,220,221)" fill-opacity="0.502"/>
<g transform="translate(7344.00 3072.00) rotate(179) scale(256.00 2320.00)"><ellipse cx="0" cy="0" rx="1" ry="1" fill="rgb(0,0,0)" fill-opacity="0.502"/></g>
<g transform="translate(4864.00 2464.00) rotate(196) scale(160.00 368.00)"><ellipse cx="0" cy="0" rx="1" ry="1" fill="rgb(188,188,189)" fill-opacity="0.502"/></g>
<polygon points="4309.32,4249.82 5029.80,4632.91 4954.68,4774.18 4234.20,4391.09" fill="rgb(0,0,0)" fill-opacity="0.502"/>
<g transform="translate(768.00 960.00) rotate(145) scale(304.00 400.00)"><ellipse cx="0" cy="0" rx="1" ry="1" fill="rgb(0,0,0)" fill-opacity="0.502"/></g>
<polygon points="4103.56,4154.58 4347.56,3778.85 4696.44,4005.42 4452.44,4381.15" fill="rgb(189,189,190)" fill-opacity="0.502"/>
<circle cx="448.00" cy="1552.00" r="656.00" fill="rgb(0,0,0)" fill-opacity="0.502"/>
<polygon points="2002.26,2234.79 1655.61,2173.67 1741.74,1685.21 2088.39,1746.33" fill="rgb(111,111,109)" fill-opacity="0.502"/>
<polygon points="1105.20,2533.67 1805.35,2460.08 1838.80,2778.33 1138.65,2851.92" fill="rgb(255,255,255)" fill-opacity="0.502"/>
<g transform="translate(2272.00 1984.00) rotate(227) scale(384.00 80.00)"><ellipse cx="0" cy="0" rx="1" ry="1" fill="rgb(255,255,254)" fill-opacity="0.502"/></g>
<g transform="translate(5456.00 1824.00) rotate(205) scale(208.00 176.00)"><ellipse cx="0" cy="0" rx="1" ry="1" fill="rgb(177,177,175)" fill-opacity="0.502"/></g>
<g transform="translate(4288.00 1008.00) rotate(350) scale(288.00 256.00)"><ellipse cx="0" cy="0" rx="1" ry="1" fill="rgb(141,141,139)" fill-opacity="0.502"/></g>
<g transform="translate(4736.00 2432.00) rotate(268) scale(80.00 256.00)"><ellipse cx="0" cy="0" rx="1" ry="1" fill="rgb(18,18,17)" fill-opacity="0.502"/></g>
<polygon points="6601.85,1710.18 6597.94,1822.11 6246.15,1809.82 6250.06,1697.89" fill="rgb(0,0,0)" fill-opacity="0.502"/>
<polygon points="3364.61,2213.60 3256.23,1778.91 3675.39,1674.40 3783.77,2109.09" fill="rgb(255,255,255)" fill-opacity="0.502"/>
<g transform="translate(2160.00 96.00) rotate(45) scale(384.00 656.00)"><ellipse cx="0" cy="0" rx="1" ry="1" fill="rgb(250,250,247)" fill-opacity="0.502"/></g>
<circle cx="5984.00" cy="2656.00" r="560.00" fill="rgb(220,220,219)" fill-opacity="0.502"/>
<g transform="translate(4016.00 1936.00) rotate(258) scale(368.00 320.00)"><ellipse cx="0" cy="0" rx="1" ry="1" fill="rgb(164,164,163)" fill-opacity="0.502"/></g>
<polygon points="1349.99,4091.12 1299.11,4172.54 1082.01,4036.88 1132.89,3955.46" fill="rgb(173,173,173)" fill-opacity="0.502"/>
<polygon points="1126.26,1817.13 1526.02,1831.09 1513.74,2182.87 1113.98,2168.91" fill="rgb(112,112,111)" fill-opacity="0.502"/>
<circle cx="3584.00" cy="1488.00" r="144.00" fill="rgb(30,30,32)" fill-opacity="0.502"/>
<polygon points="5335.65,1468.03 5078.21,1708.09 4936.35,1555.97 5193.79,1315.91" fill="rgb(196,196,193)" fill-opacity="0.502"/>
<g transform="translate(1568.00 2320.00) rotate(212) scale(96.00 336.00)"><ellipse cx="0" cy="0" rx="1" ry="1" fill="rgb(97,97,97)" fill-opacity="0.502"/></g>
<circle cx="4416.00" cy="1216.00" r="176.00" fill="rgb(79,79,77)" fill-opacity="0.502"/>
<g transform="translate(1248.00 512.00) rotate(12) scale(160.00 240.00)"><ellipse cx="0" cy="0" rx="1" ry="1" fill="rgb(111,111,112)" fill-opacity="0.502"/></g>
<polygon points="2518.76,1525.92 2488.08,1876.58 2185.24,1850.08 2215.92,1499.42" fill="rgb(129,129,130)" fill-opacity="0.502"/>
<circle cx="3744.00" cy="2880.00" r="432.00" fill="rgb(43,43,43)" fill-opacity="0.502"/>
<circle cx="4992.00" cy="48.00" r="416.00" fill="rgb(255,255,255)" fill-opacity="0.502"/>
<circle cx="7792.00" cy="3840.00" r="704.00" fill="rgb(0,0,0)" fill-opacity="0.502"/>
<circle cx="5744.00" cy="0.00" r="144.00" fill="rgb(244,244,244)" fill-opacity="0.502"/>
<circle cx="1952.00" cy="1488.00" r="224.00" fill="rgb(255,255,255)" fill-opacity="0.502"/>
<circle cx="1152.00" cy="2864.00" r="96.00" fill="rgb(174,174,176)" fill-opacity="0.502"/>
<polygon points="1438.87,3930.58 1119.65,3908.25 1153.13,3429.42 1472.35,3451.75" fill="rgb(221,221,221)" fill-opacity="0.502"/>
<g transform="translate(1968.00 4144.00) rotate(182) scale(64.00 336.00)"><ellipse cx="0" cy="0" rx="1" ry="1" fill="rgb(105,105,106)" fill-opacity="0.502"/></g>
<polygon points="6694.36,2417.84 7245.85,2320.59 7273.64,2478.16 6722.15,2575.41" fill="rgb(45,45,45)" fill-opacity="0.502"/>
<g transform="translate(7024.00 1344.00) rotate(87) scale(144.00 64.00)"><ellipse cx="0" cy="0" rx="1" ry="1" fill="rgb(255,255,255)" fill-opacity="0.502"/></g>
<g transform="translate(3552.00 4240.00) rotate(68) scale(112.00 512.00)"><ellipse cx="0" cy="0" rx="1" ry="1" fill="rgb(69,69,68)" fill-opacity="0.502"/></g>
<polygon points="4894.56,2096.45 4810.50,1837.76 5297.44,1679.55 5381.50,1938.24" fill="rgb(66,66,65)" fill-opacity="0.502"/>
<g transform="translate(6592.00 320.00) rotate(304) scale(224.00 352.00)"><ellipse cx="0" cy="0" rx="1" ry="1" fill="rgb(71,71,72)" fill-opacity="0.502"/></g>
<g transform="translate(1312.00 16.00) rotate(139) scale(240.00 160.00)"><ellipse cx="0" cy="0" rx="1" ry="1" fill="rgb(194,194,194)" fill-opacity="0.502"/></g>
<g transform="translate(1536.00 528.00) rotate(218) scale(480.00 48.00)"><ellipse cx="0" cy="0" rx="1" ry="1" fill="rgb(164,164,163)" fill-opacity="0.502"/></g>
<polygon points="4336.00,4320.00 4336.00,4544.00 4112.00,4544.00 4112.00,4320.00" fill="rgb(0,0,0)" fill-opacity="0.502"/>
<polygon points="1586.57,901.35 1955.69,795.50 2189.43,1610.65 1820.31,1716.50" fill="rgb(255,255,255)" fill-opacity="0.502"/>
<g transform="translate(1584.00 1808.00) rotate(7) scale(496.00 144.00)"><ellipse cx="0" cy="0" rx="1" ry="1" fill="rgb(121,121,121)" fill-opacity="0.502"/></g>
<circle cx="1680.00" cy="2016.00" r="80.00" fill="rgb(255,255,255)" fill-opacity="0.502"/>
<circle cx="368.00" cy="2880.00" r="736.00" fill="rgb(0,0,0)" fill-opacity="0.502"/>
<circle cx="5056.00" cy="3984.00" r="128.00" fill="rgb(62,62,64)" fill-opacity="0.502"/>
<circle cx="7008.00" cy="592.00" r="80.00" fill="rgb(255,255,255)" fill-opacity="0.502"/>
<polygon points="1680.37,3698.77 1058.66,3195.31 1199.63,3021.23 1821.34,3524.69" fill="rgb(64,64,63)" fill-opacity="0.502"/>
<circle cx="4896.00" cy="1104.00" r="224.00" fill="rgb(60,60,61)" fill-opacity="0.502"/>
<polygon points="4732.34,1065.11 4238.23,1108.34 4179.66,438.89 4673.77,395.66" fill="rgb(167,167,167)" fill-opacity="0.502"/>
<circle cx="4320.00" cy="176.00" r="272.00" fill="rgb(255,255,255)" fill-opacity="0.502"/>
<polygon points="6432.59,1675.39 6101.55,2166.18 5743.41,1924.61 6074.45,1433.82" fill="rgb(22,22,23)" fill-opacity="0.502"/>
<circle cx="608.00" cy="3776.00" r="496.00" fill="rgb(0,0,0)" fill-opacity="0.502"/>
<g transform="translate(1984.00 3616.00) rotate(199) scale(288.00 208.00)"><ellipse cx="0" cy="0" rx="1" ry="1" fill="rgb(3,3,4)" fill-opacity="0.502"/></g>
<circle cx="304.00" cy="544.00" r="800.00" fill="rgb(0,0,0)" fill-opacity="0.502"/>
<polygon points="6846.48,426.38 6836.47,363.17 7073.52,325.62 7083.53,388.83" fill="rgb(255,255,255)" fill-opacity="0.502"/>
<circle cx="2592.00" cy="3136.00" r="352.00" fill="rgb(60,60,60)" fill-opacity="0.502"/>
<circle cx="7440.00" cy="80.00" r="368.00" fill="rgb(0,0,0)" fill-opacity="0.502"/>
<circle cx="5024.00" cy="1856.00" r="96.00" fill="rgb(150,150,144)" fill-opacity="0.502"/>
<g transform="translate(4768.00 4144.00) rotate(16) scale(368.00 128.00)"><ellipse cx="0" cy="0" rx="1" ry="1" fill="rgb(162,162,163)" fill-opacity="0.502"/></g>
<circle cx="1952.00" cy="2816.00" r="192.00" fill="rgb(57,57,56)" fill-opacity="0.502"/>
<circle cx="6752.00" cy="2944.00" r="336.00" fill="rgb(220,220,219)" fill-opacity="0.502"/>
<circle cx="2352.00" cy="4496.00" r="144.00" fill="rgb(18,18,16)" fill-opacity="0.502"/>
<g transform="translate(6832.00 1936.00) rotate(29) scale(224.00 336.00)"><ellipse cx="0" cy="0" rx="1" ry="1" fill="rgb(232,232,230)" fill-opacity="0.502"/></g>
<polygon points="1375.90,1190.70 1104.28,1176.47 1136.10,569.30 1407.72,583.53" fill="rgb(203,203,202)" fill-opacity="0.502"/>
<g transform="translate(3232.00 4144.00) rotate(339) scale(368.00 176.00)"><ellipse cx="0" cy="0" rx="1" ry="1" fill="rgb(132,132,132)" fill-opacity="0.502"/></g>
<g transform="translate(6912.00 1408.00) rotate(52) scale(48.00 208.00)"><ellipse cx="0" cy="0" rx="1" ry="1" fill="rgb(249,249,248)" fill-opacity="0.502"/></g>
<circle cx="5760.00" cy="1312.00" r="224.00" fill="rgb(213,213,212)" fill-opacity="0.502"/>
<circle cx="4816.00" cy="2928.00" r="432.00" fill="rgb(218,218,218)" fill-opacity="0.502"/>
<g transform="translate(3040.00 960.00) rotate(167) scale(336.00 112.00)"><ellipse cx="0" cy="0" rx="1" ry="1" fill="rgb(144,144,145)" fill-opacity="0.502"/></g>
<g transform="translate(1520.00 256.00) rotate(360) scale(192.00 208.00)"><ellipse cx="0" cy="0" rx="1" ry="1" fill="rgb(221,221,219)" fill-opacity="0.502"/></g>
<polygon points="2568.74,1491.47 2959.65,1633.75 2839.26,1964.53 2448.35,1822.25" fill="rgb(8,8,8)" fill-opacity="0.502"/>
<circle cx="1648.00" cy="2144.00" r="192.00" fill="rgb(197,197,199)" fill-opacity="0.502"/>
<g transform="translate(3648.00 112.00) rotate(69) scale(80.00 368.00)"><ellipse cx="0" cy="0" rx="1" ry="1" fill="rgb(140,140,143)" fill-opacity="0.502"/></g>
<polygon points="6811.05,1369.41 6375.03,1528.11 6292.95,1302.59 6728.97,1143.89" fill="rgb(12,12,11)" fill-opacity="0.502"/>
<circle cx="1968.00" cy="2240.00" r="112.00" fill="rgb(245,245,239)" fill-opacity="0.502"/>
<polygon points="5738.07,1813.15 5866.07,2034.85 5685.93,2138.85 5557.93,1917.15" fill="rgb(23,23,21)" fill-opacity="0.502"/>
<circle cx="752.00" cy="4544.00" r="352.00" fill="rgb(0,0,0)" fill-opacity="0.502"/>
<circle cx="5536.00" cy="2064.00" r="128.00" fill="rgb(212,212,209)" fill-opacity="0.502"/>
<g transform="translate(7536.00 160.00) rotate(240) scale(416.00 464.00)"><ellipse cx="0" cy="0" rx="1" ry="1" fill="rgb(0,0,0)" fill-opacity="0.502"/></g>
<circle cx="5168.00" cy="4528.00" r="320.00" fill="rgb(161,161,163)" fill-opacity="0.502"/>
<polygon points="3471.22,4384.51 3496.06,4477.24 3248.78,4543.49 3223.94,4450.76" fill="rgb(249,249,248)" fill-opacity="0.502"/>
<circle cx="4560.00" cy="400.00" r="32.00" fill="rgb(14,14,14)" fill-opacity="0.502"/>
<circle cx="7552.00" cy="2176.00" r="464.00" fill="rgb(0,0,0)" fill-opacity="0.502"/>
<polygon points="6805.54,1609.70 6797.18,1530.14 7290.46,1478.30 7298.82,1557.86" fill="rgb(0,0,0)" fill-opacity="0.502"/>
<g transform="translate(3872.00 1152.00) rotate(34) scale(576.00 80.00)"><ellipse cx="0" cy="0" rx="1" ry="1" fill="rgb(255,255,255)" fill-opacity="0.502"/></g>
<circle cx="4192.00" cy="3472.00" r="176.00" fill="rgb(0,0,0)" fill-opacity="0.502"/>
<polygon points="1166.58,2442.15 1096.41,2212.63 1249.42,2165.85 1319.59,2395.37" fill="rgb(255,255,255)" fill-opacity="0.502"/>
<polygon points="6016.66,2002.28 5834.06,2061.61 5631.34,1437.72 5813.94,1378.39" fill="rgb(35,35,35)" fill-opacity="0.502"/>
<circle cx="7696.00" cy="2960.00" r="624.00" fill="rgb(0,0,0)" fill-opacity="0.502"/>
<polygon points="4471.63,1198.58 4704.34,1618.39 4648.37,1649.42 4415.66,1229.61" fill="rgb(255,255,255)" fill-opacity="0.502"/>
<circle cx="6192.00" cy="2480.00" r="400.00" fill="rgb(215,215,216)" fill-opacity="0.502"/>
<circle cx="592.00" cy="2528.00" r="512.00" fill="rgb(0,0,0)" fill-opacity="0.502"/>
<polygon points="4383.48,3237.36 4193.23,3408.66 4000.52,3194.64 4190.77,3023.34" fill="rgb(0,0,0)" fill-opacity="0.502"/>
<circle cx="272.00" cy="3776.00" r="832.00" fill="rgb(0,0,0)" fill-opacity="0.502"/>
<g transform="translate(4672.00 4176.00) rotate(201) scale(576.00 208.00)"><ellipse cx="0" cy="0" rx="1" ry="1" fill="rgb(171,171,171)" fill-opacity="0.502"/></g>
<polygon points="6259.52,1902.52 6392.17,1813.04 6508.48,1985.48 6375.83,2074.96" fill="rgb(219,219,220)" fill-opacity="0.502"/>
<polygon points="5098.06,709.16 4865.06,878.44 4629.94,554.84 4862.94,385.56" fill="rgb(114,114,114)" fill-opacity="0.502"/>
<polygon points="6060.28,106.95 6875.16,149.66 6851.72,597.05 6036.84,554.34" fill="rgb(89,89,89)" fill-opacity="0.502"/>
<circle cx="6848.00" cy="2176.00" r="240.00" fill="rgb(220,220,219)" fill-opacity="0.502"/>
<g transform="translate(4688.00 1568.00) rotate(96) scale(224.00 400.00)"><ellipse cx="0" cy="0" rx="1" ry="1" fill="rgb(201,201,200)" fill-opacity="0.502"/></g>
<g transform="translate(3760.00 3808.00) rotate(172) scale(448.00 128.00)"><ellipse cx="0" cy="0" rx="1" ry="1" fill="rgb(178,178,179)" fill-opacity="0.502"/></g>
<circle cx="6736.00" cy="3680.00" r="352.00" fill="rgb(218,218,218)" fill-opacity="0.502"/>
<circle cx="4784.00" cy="2320.00" r="112.00" fill="rgb(241,241,238)" fill-opacity="0.502"/>
<polygon points="2858.85,2172.05 2464.93,2241.51 2437.15,2083.95 2831.07,2014.49" fill="rgb(209,209,211)" fill-opacity="0.502"/>
<g transform="translate(3728.00 752.00) rotate(220) scale(16.00 80.00)"><ellipse cx="0" cy="0" rx="1" ry="1" fill="rgb(0,0,5)" fill-opacity="0.502"/></g>
<circle cx="4096.00" cy="608.00" r="112.00" fill="rgb(255,255,255)" fill-opacity="0.502"/>
<g transform="translate(4624.00 2304.00) rotate(253) scale(112.00 48.00)"><ellipse cx="0" cy="0" rx="1" ry="1" fill="rgb(18,18,20)" fill-opacity="0.502"/></g>
<polygon points="3153.60,1688.02 3074.22,1279.67 3278.40,1239.98 3357.78,1648.33" fill="rgb(137,137,138)" fill-opacity="0.502"/>
<polygon points="6874.08,-99.97 7103.23,145.76 6997.92,243.97 6768.77,-1.76" fill="rgb(255,255,255)" fill-opacity="0.502"/>
<polygon points="1199.01,1684.14 1103.54,1674.11 1136.99,1355.86 1232.46,1365.89" fill="rgb(255,255,255)" fill-opacity="0.502"/>
<g transform="translate(2768.00 2624.00) rotate(145) scale(400.00 448.00)"><ellipse cx="0" cy="0" rx="1" ry="1" fill="rgb(57,57,57)" fill-opacity="0.502"/></g>
<circle cx="5648.00" cy="4112.00" r="368.00" fill="rgb(219,219,219)" fill-opacity="0.502"/>
<polygon points="1392.36,2396.24 1550.55,2319.09 1599.64,2419.76 1441.45,2496.91" fill="rgb(44,44,42)" fill-opacity="0.502"/>
<polygon points="6498.76,2731.69 6239.24,2199.60 6541.24,2052.31 6800.76,2584.40" fill="rgb(210,210,211)" fill-opacity="0.502"/>
<polygon points="3082.27,1049.38 3210.75,1324.90 2949.73,1446.62 2821.25,1171.10" fill="rgb(255,255,255)" fill-opacity="0.502"/>
<circle cx="4864.00" cy="1984.00" r="32.00" fill="rgb(255,255,255)" fill-opacity="0.502"/>
<polygon points="4920.14,3507.93 5010.12,3897.68 4791.86,3948.07 4701.88,3558.32" fill="rgb(227,227,226)" fill-opacity="0.502"/>
<g transform="translate(2240.00 4032.00) rotate(241) scale(176.00 192.00)"><ellipse cx="0" cy="0" rx="1" ry="1" fill="rgb(0,0,0)" fill-opacity="0.502"/></g>
<g transform="translate(3616.00 1712.00) rotate(80) scale(32.00 128.00)"><ellipse cx="0" cy="0" rx="1" ry="1" fill="rgb(85,85,88)" fill-opacity="0.502"/></g>
<circle cx="3984.00" cy="1472.00" r="128.00" fill="rgb(102,102,100)" fill-opacity="0.502"/>
<g transform="translate(5152.00 1008.00) rotate(336) scale(48.00 208.00)"><ellipse cx="0" cy="0" rx="1" ry="1" fill="rgb(241,241,237)" fill-opacity="0.502"/></g>
<polygon points="5208.60,1673.52 4618.85,1621.93 4631.40,1478.48 5221.15,1530.07" fill="rgb(167,167,167)" fill-opacity="0.502"/>
<g transform="translate(4240.00 1584.00) rotate(77) scale(32.00 656.00)"><ellipse cx="0" cy="0" rx="1" ry="1" fill="rgb(255,255,255)" fill-opacity="0.502"/></g>
<polygon points="5491.38,856.78 5689.15,248.11 5932.62,327.22 5734.85,935.89" fill="rgb(85,85,84)" fill-opacity="0.502"/>
<g transform="translate(1952.00 4448.00) rotate(159) scale(144.00 768.00)"><ellipse cx="0" cy="0" rx="1" ry="1" fill="rgb(28,28,28)" fill-opacity="0.502"/></g>
<circle cx="1424.00" cy="1376.00" r="272.00" fill="rgb(111,111,110)" fill-opacity="0.502"/>
<circle cx="7824.00" cy="528.00" r="752.00" fill="rgb(0,0,0)" fill-opacity="0.502"/>
<g transform="translate(5152.00 2208.00) rotate(305) scale(288.00 32.00)"><ellipse cx="0" cy="0" rx="1" ry="1" fill="rgb(0,0,0)" fill-opacity="0.502"/></g>
<polygon points="6054.39,1175.91 6044.51,1145.47 7033.61,824.09 7043.49,854.53" fill="rgb(255,255,255)" fill-opacity="0.502"/>
<circle cx="3136.00" cy="3248.00" r="592.00" fill="rgb(58,58,58)" fill-opacity="0.502"/>
<circle cx="6992.00" cy="736.00" r="112.00" fill="rgb(88,88,90)" fill-opacity="0.502"/>
<circle cx="1600.00" cy="2896.00" r="80.00" fill="rgb(43,43,41)" fill-opacity="0.502"/>
<circle cx="4672.00" cy="3008.00" r="368.00" fill="rgb(216,216,215)" fill-opacity="0.502"/>
<circle cx="2176.00" cy="1280.00" r="64.00" fill="rgb(58,58,60)" fill-opacity="0.502"/>
<polygon points="3613.70,279.49 3839.74,399.68 3554.30,936.51 3328.26,816.32" fill="rgb(255,255,255)" fill-opacity="0.502"/>
<polygon points="5887.67,1752.92 5683.49,1792.61 5616.33,1447.08 5820.51,1407.39" fill="rgb(81,81,81)" fill-opacity="0.502"/>
<polygon points="2113.86,1281.86 2034.48,1005.01 2142.14,974.14 2221.52,1250.99" fill="rgb(57,57,54)" fill-opacity="0.502"/>
<g transform="translate(2784.00 1440.00) rotate(290) scale(96.00 160.00)"><ellipse cx="0" cy="0" rx="1" ry="1" fill="rgb(125,125,125)" fill-opacity="0.502"/></g>
<polygon points="4648.86,2049.82 4609.17,1911.40 5255.14,1726.18 5294.83,1864.60" fill="rgb(101,101,98)" fill-opacity="0.502"/>
<g transform="translate(1936.00 4480.00) rotate(159) scale(304.00 224.00)"><ellipse cx="0" cy="0" rx="1" ry="1" fill="rgb(21,21,21)" fill-opacity="0.502"/></g>
<g transform="translate(6000.00 1120.00) rotate(146) scale(64.00 80.00)"><ellipse cx="0" cy="0" rx="1" ry="1" fill="rgb(0,0,9)" fill-opacity="0.502"/></g>
<polygon points="2428.92,4353.94 2609.94,4172.92 2723.08,4286.06 2542.06,4467.08" fill="rgb(7,7,5)" fill-opacity="0.502"/>
<polygon points="5581.42,1020.74 5271.07,1447.90 5154.58,1363.26 5464.93,936.10" fill="rgb(34,34,32)" fill-opacity="0.502"/>
<polygon points="1822.92,3348.86 1709.04,3066.99 2065.08,2923.14 2178.96,3205.01" fill="rgb(18,18,18)" fill-opacity="0.502"/>
<g transform="translate(5504.00 2752.00) rotate(183) scale(688.00 448.00)"><ellipse cx="0" cy="0" rx="1" ry="1" fill="rgb(218,218,217)" fill-opacity="0.502"/></g>
<g transform="translate(3040.00 4128.00) rotate(228) scale(256.00 176.00)"><ellipse cx="0" cy="0" rx="1" ry="1" fill="rgb(160,160,160)" fill-opacity="0.502"/></g>
<circle cx="2352.00" cy="1280.00" r="160.00" fill="rgb(227,227,228)" fill-opacity="0.502"/>
<g transform="translate(4240.00 2640.00) rotate(286) scale(32.00 112.00)"><ellipse cx="0" cy="0" rx="1" ry="1" fill="rgb(255,255,255)" fill-opacity="0.502"/></g>
<g transform="translate(2576.00 3024.00) rotate(64) scale(320.00 448.00)"><ellipse cx="0" cy="0" rx="1" ry="1" fill="rgb(54,54,53)" fill-opacity="0.502"/></g>
<polygon points="6118.60,149.94 5640.07,373.08 5545.40,170.06 6023.93,-53.08" fill="rgb(115,115,114)" fill-opacity="0.502"/>
<polygon points="6308.03,721.72 6573.91,574.33 6635.97,686.28 6370.09,833.67" fill="rgb(53,53,55)" fill-opacity="0.502"/>
<circle cx="3968.00" cy="4000.00" r="240.00" fill="rgb(131,131,130)" fill-opacity="0.502"/>
<polygon points="6092.21,304.86 5996.21,471.14 5843.79,383.14 5939.79,216.86" fill="rgb(172,172,169)" fill-opacity="0.502"/>
<polygon points="2114.43,936.43 2576.29,405.12 2781.57,583.57 2319.71,1114.88" fill="rgb(246,246,240)" fill-opacity="0.502"/>
<circle cx="6752.00" cy="656.00" r="64.00" fill="rgb(255,255,255)" fill-opacity="0.502"/>
<polygon points="3414.09,2200.93 3746.82,2247.69 3737.91,2311.07 3405.18,2264.31" fill="rgb(135,135,132)" fill-opacity="0.502"/>
<polygon points="3567.60,4482.38 3839.56,4477.63 3840.40,4525.62 3568.44,4530.37" fill="rgb(245,245,245)" fill-opacity="0.502"/>
<g transform="translate(4880.00 32.00) rotate(130) scale(336.00 864.00)"><ellipse cx="0" cy="0" rx="1" ry="1" fill="rgb(255,255,255)" fill-opacity="0.502"/></g>
<polygon points="2976.00,1632.00 3184.00,1632.00 3184.00,1856.00 2976.00,1856.00" fill="rgb(255,255,255)" fill-opacity="0.502"/>
<circle cx="2256.00" cy="2304.00" r="128.00" fill="rgb(21,21,20)" fill-opacity="0.502"/>
<polygon points="3551.37,1564.25 3376.92,1450.96 3568.63,1155.75 3743.08,1269.04" fill="rgb(81,81,80)" fill-opacity="0.502"/>
<g transform="translate(3488.00 2000.00) rotate(35) scale(272.00 112.00)"><ellipse cx="0" cy="0" rx="1" ry="1" fill="rgb(255,255,255)" fill-opacity="0.502"/></g>
<g transform="translate(1408.00 4512.00) rotate(129) scale(320.00 192.00)"><ellipse cx="0" cy="0" rx="1" ry="1" fill="rgb(208,208,207)" fill-opacity="0.502"/></g>
<circle cx="6544.00" cy="3408.00" r="544.00" fill="rgb(217,217,217)" fill-opacity="0.502"/>
<g transform="translate(1280.00 2384.00) rotate(299) scale(256.00 144.00)"><ellipse cx="0" cy="0" rx="1" ry="1" fill="rgb(255,255,255)" fill-opacity="0.502"/></g>
<g transform="translate(5408.00 848.00) rotate(74) scale(144.00 256.00)"><ellipse cx="0" cy="0" rx="1" ry="1" fill="rgb(84,84,84)" fill-opacity="0.502"/></g>
<circle cx="960.00" cy="48.00" r="144.00" fill="rgb(0,0,0)" fill-opacity="0.502"/>
<polygon points="3889.32,4194.98 4261.91,4287.87 4238.68,4381.02 3866.09,4288.13" fill="rgb(0,0,0)" fill-opacity="0.502"/>
<circle cx="2912.00" cy="3264.00" r="384.00" fill="rgb(67,67,67)" fill-opacity="0.502"/>
<circle cx="7552.00" cy="1792.00" r="480.00" fill="rgb(0,0,0)" fill-opacity="0.502"/>
<circle cx="1888.00" cy="2512.00" r="80.00" fill="rgb(117,117,115)" fill-opacity="0.502"/>
<polygon points="1745.34,3258.36 1922.45,3772.72 1710.66,3845.64 1533.55,3331.28" fill="rgb(46,46,45)" fill-opacity="0.502"/>
<circle cx="6656.00" cy="4464.00" r="432.00" fill="rgb(204,204,203)" fill-opacity="0.502"/>
<g transform="translate(6256.00 1536.00) rotate(314) scale(336.00 144.00)"><ellipse cx="0" cy="0" rx="1" ry="1" fill="rgb(59,59,58)" fill-opacity="0.502"/></g>
<circle cx="368.00" cy="256.00" r="736.00" fill="rgb(0,0,0)" fill-opacity="0.502"/>
<circle cx="2704.00" cy="4112.00" r="128.00" fill="rgb(44,44,42)" fill-opacity="0.502"/>
<polygon points="3797.38,966.60 3617.10,627.54 3786.62,537.40 3966.90,876.46" fill="rgb(188,188,187)" fill-opacity="0.502"/>
<g transform="translate(8176.00 2912.00) rotate(75) scale(2384.00 928.00)"><ellipse cx="0" cy="0" rx="1" ry="1" fill="rgb(0,0,0)" fill-opacity="0.502"/></g>
<polygon points="4571.32,750.11 4929.89,667.32 5012.68,1025.89 4654.11,1108.68" fill="rgb(114,114,114)" fill-opacity="0.502"/>
<g transform="translate(3056.00 3680.00) rotate(83) scale(192.00 448.00)"><ellipse cx="0" cy="0" rx="1" ry="1" fill="rgb(42,42,42)" fill-opacity="0.502"/></g>
<polygon points="1383.76,1616.76 1214.56,1996.79 1112.24,1951.24 1281.44,1571.21" fill="rgb(153,153,155)" fill-opacity="0.502"/>
<g transform="translate(3888.00 2080.00) rotate(79) scale(160.00 208.00)"><ellipse cx="0" cy="0" rx="1" ry="1" fill="rgb(172,172,173)" fill-opacity="0.502"/></g>
<g transform="translate(5408.00 0.00) rotate(272) scale(48.00 496.00)"><ellipse cx="0" cy="0" rx="1" ry="1" fill="rgb(255,255,255)" fill-opacity="0.502"/></g>
<polygon points="2896.00,4016.00 2896.00,3968.00 3072.00,3968.00 3072.00,4016.00" fill="rgb(255,255,255)" fill-opacity="0.502"/>
<polygon points="6098.07,934.56 5917.93,1038.56 5757.93,761.44 5938.07,657.44" fill="rgb(235,235,234)" fill-opacity="0.502"/>
<circle cx="4560.00" cy="3696.00" r="128.00" fill="rgb(59,59,58)" fill-opacity="0.502"/>
<g transform="translate(5440.00 1696.00) rotate(319) scale(96.00 144.00)"><ellipse cx="0" cy="0" rx="1" ry="1" fill="rgb(201,201,205)" fill-opacity="0.502"/></g>
<g transform="translate(384.00 1584.00) rotate(42) scale(880.00 464.00)"><ellipse cx="0" cy="0" rx="1" ry="1" fill="rgb(0,0,0)" fill-opacity="0.502"/></g>
<polygon points="4428.25,3298.70 4234.45,2842.13 4867.75,2573.30 5061.55,3029.87" fill="rgb(215,215,214)" fill-opacity="0.502"/>
<g transform="translate(3808.00 3376.00) rotate(106) scale(304.00 208.00)"><ellipse cx="0" cy="0" rx="1" ry="1" fill="rgb(37,37,39)" fill-opacity="0.502"/></g>
<polygon points="1291.65,4324.32 1146.64,4256.70 1268.35,3995.68 1413.36,4063.30" fill="rgb(124,124,125)" fill-opacity="0.502"/>
<polygon points="3888.00,1584.00 3952.00,1584.00 3952.00,1872.00 3888.00,1872.00" fill="rgb(41,41,37)" fill-opacity="0.502"/>
<circle cx="4336.00" cy="1312.00" r="80.00" fill="rgb(4,4,7)" fill-opacity="0.502"/>
<g transform="translate(3296.00 3424.00) rotate(72) scale(272.00 496.00)"><ellipse cx="0" cy="0" rx="1" ry="1" fill="rgb(66,66,65)" fill-opacity="0.502"/></g>
<circle cx="6992.00" cy="384.00" r="96.00" fill="rgb(249,249,250)" fill-opacity="0.502"/>
<polygon points="6143.07,1826.75 6634.25,1757.72 6640.93,1805.25 6149.75,1874.28" fill="rgb(0,0,0)" fill-opacity="0.502"/>
<circle cx="5248.00" cy="1808.00" r="160.00" fill="rgb(52,52,54)" fill-opacity="0.502"/>
<circle cx="6128.00" cy="1312.00" r="64.00" fill="rgb(255,255,255)" fill-opacity="0.502"/>
<circle cx="5248.00" cy="2112.00" r="208.00" fill="rgb(41,41,40)" fill-opacity="0.502"/>
<polygon points="5821.65,18.11 5882.52,-1.67 5986.35,317.89 5925.48,337.67" fill="rgb(235,235,236)" fill-opacity="0.502"/>
<g transform="translate(5376.00 64.00) rotate(250) scale(432.00 192.00)"><ellipse cx="0" cy="0" rx="1" ry="1" fill="rgb(252,252,248)" fill-opacity="0.502"/></g>
<polygon points="2370.66,3016.50 2171.22,3245.93 1869.34,2983.50 2068.78,2754.07" fill="rgb(38,38,37)" fill-opacity="0.502"/>
<circle cx="2256.00" cy="3392.00" r="80.00" fill="rgb(227,227,227)" fill-opacity="0.502"/>
<circle cx="2080.00" cy="2192.00" r="96.00" fill="rgb(206,206,205)" fill-opacity="0.502"/>
<polygon points="1112.00,4104.00 1112.00,3928.00 1656.00,3928.00 1656.00,4104.00" fill="rgb(159,159,156)" fill-opacity="0.502"/>
<polygon points="5666.91,832.56 5645.71,529.30 5901.09,511.44 5922.29,814.70" fill="rgb(69,69,70)" fill-opacity="0.502"/>
<polygon points="5571.61,1130.25 5508.49,1000.82 5580.39,965.75 5643.51,1095.18" fill="rgb(0,0,0)" fill-opacity="0.502"/>
<g transform="translate(6176.00 848.00) rotate(326) scale(112.00 288.00)"><ellipse cx="0" cy="0" rx="1" ry="1" fill="rgb(246,246,240)" fill-opacity="0.502"/></g>
<polygon points="2531.99,4439.72 2851.55,4456.47 2844.01,4600.28 2524.45,4583.53" fill="rgb(232,232,228)" fill-opacity="0.502"/>
<circle cx="3248.00" cy="2096.00" r="80.00" fill="rgb(50,50,51)" fill-opacity="0.502"/>
<circle cx="6080.00" cy="4032.00" r="80.00" fill="rgb(255,255,255)" fill-opacity="0.502"/>
<g transform="translate(3072.00 2080.00) rotate(353) scale(240.00 224.00)"><ellipse cx="0" cy="0" rx="1" ry="1" fill="rgb(80,80,82)" fill-opacity="0.502"/></g>
<g transform="translate(4864.00 4400.00) rotate(0) scale(128.00 128.00)"><ellipse cx="0" cy="0" rx="1" ry="1" fill="rgb(164,164,166)" fill-opacity="0.502"/></g>
<g transform="translate(4912.00 2272.00) rotate(324) scale(160.00 96.00)"><ellipse cx="0" cy="0" rx="1" ry="1" fill="rgb(220,220,223)" fill-opacity="0.502"/></g>
<polygon points="1638.95,1139.13 1576.20,1856.39 1353.05,1836.87 1415.80,1119.61" fill="rgb(107,107,105)" fill-opacity="0.502"/>
<polygon points="4929.70,3989.53 4973.34,3942.73 5406.30,4346.47 5362.66,4393.27" fill="rgb(57,57,56)" fill-opacity="0.502"/>
<polygon points="6412.33,1821.98 5675.93,2134.57 5619.67,2002.02 6356.07,1689.43" fill="rgb(16,16,20)" fill-opacity="0.502"/>
<polygon points="1451.14,469.59 1235.17,726.98 1124.86,634.41 1340.83,377.02" fill="rgb(93,93,95)" fill-opacity="0.502"/>
<g transform="translate(2720.00 1232.00) rotate(97) scale(80.00 112.00)"><ellipse cx="0" cy="0" rx="1" ry="1" fill="rgb(255,255,255)" fill-opacity="0.502"/></g>
<polygon points="2720.73,1156.78 2100.47,1370.35 2095.27,1355.22 2715.53,1141.65" fill="rgb(0,0,0)" fill-opacity="0.502"/>
<circle cx="6784.00" cy="2048.00" r="288.00" fill="rgb(208,208,209)" fill-opacity="0.502"/>
<g transform="translate(6736.00 3040.00) rotate(297) scale(448.00 320.00)"><ellipse cx="0" cy="0" rx="1" ry="1" fill="rgb(216,216,215)" fill-opacity="0.502"/></g>
<circle cx="6464.00" cy="2000.00" r="176.00" fill="rgb(208,208,208)" fill-opacity="0.502"/>
<circle cx="7264.00" cy="2400.00" r="192.00" fill="rgb(0,0,0)" fill-opacity="0.502"/>
<polygon points="7023.68,2637.46 7086.89,2647.47 7024.32,3042.54 6961.11,3032.53" fill="rgb(237,237,237)" fill-opacity="0.502"/>
<polygon points="4125.21,1747.98 4096.78,2018.49 3730.79,1980.02 3759.22,1709.51" fill="rgb(147,147,145)" fill-opacity="0.502"/>
<circle cx="3312.00" cy="1520.00" r="112.00" fill="rgb(229,229,226)" fill-opacity="0.502"/>
<polygon points="3296.00,4432.00 3680.00,4432.00 3680.00,4592.00 3296.00,4592.00" fill="rgb(220,220,221)" fill-opacity="0.502"/>
<g transform="translate(2176.00 224.00) rotate(96) scale(512.00 416.00)"><ellipse cx="0" cy="0" rx="1" ry="1" fill="rgb(240,240,237)" fill-opacity="0.502"/></g>
<polygon points="2371.96,3902.92 2496.31,3802.23 2748.04,4113.08 2623.69,4213.77" fill="rgb(79,79,79)" fill-opacity="0.502"/>
<circle cx="5648.00" cy="2224.00" r="48.00" fill="rgb(25,25,33)" fill-opacity="0.502"/>
<polygon points="5643.80,2542.22 5510.43,2404.10 5844.20,2081.78 5977.57,2219.90" fill="rgb(215,215,215)" fill-opacity="0.502"/>
<circle cx="3216.00" cy="0.00" r="192.00" fill="rgb(243,243,241)" fill-opacity="0.502"/>
<g transform="translate(4624.00 448.00) rotate(360) scale(240.00 64.00)"><ellipse cx="0" cy="0" rx="1" ry="1" fill="rgb(133,133,132)" fill-opacity="0.502"/></g>
<polygon points="3982.95,618.35 3974.13,587.59 4497.05,437.65 4505.87,468.41" fill="rgb(255,255,255)" fill-opacity="0.502"/>
<circle cx="4832.00" cy="784.00" r="208.00" fill="rgb(116,116,118)" fill-opacity="0.502"/>
<g transform="translate(4976.00 2528.00) rotate(260) scale(48.00 416.00)"><ellipse cx="0" cy="0" rx="1" ry="1" fill="rgb(209,209,209)" fill-opacity="0.502"/></g>
<polygon points="1466.80,2934.95 1151.36,3124.48 1077.20,3001.05 1392.64,2811.52" fill="rgb(93,93,90)" fill-opacity="0.502"/>
<polygon points="4760.54,2447.25 4618.15,2550.70 4439.46,2304.75 4581.85,2201.30" fill="rgb(18,18,18)" fill-opacity="0.502"/>
<polygon points="1352.08,2586.54 1459.10,2682.89 1319.92,2837.46 1212.90,2741.11" fill="rgb(255,255,255)" fill-opacity="0.502"/>
<polygon points="1632.76,3706.99 1496.30,3863.97 1327.24,3717.01 1463.70,3560.03" fill="rgb(221,221,223)" fill-opacity="0.502"/>
<polygon points="5270.85,1443.86 5345.83,1182.40 5561.15,1244.14 5486.17,1505.60" fill="rgb(53,53,54)" fill-opacity="0.502"/>
<polygon points="6700.32,2175.05 6773.80,2090.52 7075.68,2352.95 7002.20,2437.48" fill="rgb(222,222,223)" fill-opacity="0.502"/>
<circle cx="3328.00" cy="2496.00" r="288.00" fill="rgb(54,54,54)" fill-opacity="0.502"/>
<g transform="translate(2416.00 3104.00) rotate(62) scale(352.00 240.00)"><ellipse cx="0" cy="0" rx="1" ry="1" fill="rgb(47,47,47)" fill-opacity="0.502"/></g>
<polygon points="3443.88,373.81 4030.25,160.39 4156.12,506.19 3569.75,719.61" fill="rgb(255,255,255)" fill-opacity="0.502"/>
<g transform="translate(4400.00 3872.00) rotate(305) scale(80.00 416.00)"><ellipse cx="0" cy="0" rx="1" ry="1" fill="rgb(177,177,178)" fill-opacity="0.502"/></g>
<polygon points="4305.25,1711.64 4410.22,1590.88 4494.75,1664.36 4389.78,1785.12" fill="rgb(132,132,130)" fill-opacity="0.502"/>
<circle cx="4288.00" cy="2736.00" r="128.00" fill="rgb(223,223,221)" fill-opacity="0.502"/>
<polygon points="2573.64,1793.73 2891.89,1760.28 2930.36,2126.27 2612.11,2159.72" fill="rgb(59,59,62)" fill-opacity="0.502"/>
<polygon points="4307.44,3648.63 4289.46,3693.14 3740.56,3471.37 3758.54,3426.86" fill="rgb(10,10,12)" fill-opacity="0.502"/>
<g transform="translate(896.00 4384.00) rotate(279) scale(464.00 240.00)"><ellipse cx="0" cy="0" rx="1" ry="1" fill="rgb(0,0,0)" fill-opacity="0.502"/></g>
<circle cx="1904.00" cy="3472.00" r="224.00" fill="rgb(10,10,10)" fill-opacity="0.502"/>
<polygon points="2516.43,4574.03 2500.73,4577.09 2491.57,4529.97 2507.27,4526.91" fill="rgb(255,255,251)" fill-opacity="0.502"/>
<g transform="translate(1872.00 2032.00) rotate(342) scale(80.00 144.00)"><ellipse cx="0" cy="0" rx="1" ry="1" fill="rgb(64,64,67)" fill-opacity="0.502"/></g>
<polygon points="3120.72,1664.94 3277.22,1698.21 3247.28,1839.06 3090.78,1805.79" fill="rgb(255,255,255)" fill-opacity="0.502"/>
<g transform="translate(4224.00 1552.00) rotate(223) scale(224.00 64.00)"><ellipse cx="0" cy="0" rx="1" ry="1" fill="rgb(246,246,249)" fill-opacity="0.502"/></g>
<circle cx="3824.00" cy="1776.00" r="64.00" fill="rgb(227,227,223)" fill-opacity="0.502"/>
<polygon points="4819.68,1459.67 4452.46,1571.94 4396.32,1388.33 4763.54,1276.06" fill="rgb(245,245,244)" fill-opacity="0.502"/>
<g transform="translate(6768.00 4352.00) rotate(236) scale(240.00 352.00)"><ellipse cx="0" cy="0" rx="1" ry="1" fill="rgb(208,208,209)" fill-opacity="0.502"/></g>
<polygon points="3994.07,1162.14 4008.11,1116.24 4405.93,1237.86 4391.89,1283.76" fill="rgb(109,109,104)" fill-opacity="0.502"/>
<polygon points="6299.02,1141.13 6642.58,1009.25 6676.98,1098.87 6333.42,1230.75" fill="rgb(41,41,42)" fill-opacity="0.502"/>
<g transform="translate(4688.00 1744.00) rotate(235) scale(128.00 560.00)"><ellipse cx="0" cy="0" rx="1" ry="1" fill="rgb(169,169,169)" fill-opacity="0.502"/></g>
<polygon points="1799.16,480.41 1576.64,570.31 1384.84,95.59 1607.36,5.69" fill="rgb(212,212,209)" fill-opacity="0.502"/>
<polygon points="7576.97,995.39 7060.50,885.61 7127.03,572.61 7643.50,682.39" fill="rgb(0,0,0)" fill-opacity="0.502"/>
<g transform="translate(6944.00 1024.00) rotate(255) scale(272.00 80.00)"><ellipse cx="0" cy="0" rx="1" ry="1" fill="rgb(49,49,51)" fill-opacity="0.502"/></g>
<polygon points="4013.30,1287.70 3956.87,1365.37 3762.70,1224.30 3819.13,1146.63" fill="rgb(255,255,255)" fill-opacity="0.502"/>
<polygon points="2171.11,1816.19 2249.79,1522.54 2388.89,1559.81 2310.21,1853.46" fill="rgb(111,111,110)" fill-opacity="0.502"/>
<g transform="translate(3296.00 1360.00) rotate(311) scale(16.00 96.00)"><ellipse cx="0" cy="0" rx="1" ry="1" fill="rgb(255,255,255)" fill-opacity="0.502"/></g>
<circle cx="4384.00" cy="2496.00" r="160.00" fill="rgb(102,102,103)" fill-opacity="0.502"/>
<polygon points="1375.43,3780.57 1220.18,3819.27 1088.57,3291.43 1243.82,3252.73" fill="rgb(184,184,186)" fill-opacity="0.502"/>
<polygon points="3558.46,1256.81 3041.09,1424.92 3001.54,1303.19 3518.91,1135.08" fill="rgb(160,160,166)" fill-opacity="0.502"/>
<polygon points="5305.52,1237.97 5313.86,1285.24 5014.48,1338.03 5006.14,1290.76" fill="rgb(218,218,221)" fill-opacity="0.502"/>
<polygon points="1352.00,344.00 1352.00,536.00 1112.00,536.00 1112.00,344.00" fill="rgb(127,127,131)" fill-opacity="0.502"/>
<g transform="translate(1968.00 1840.00) rotate(267) scale(240.00 64.00)"><ellipse cx="0" cy="0" rx="1" ry="1" fill="rgb(186,186,185)" fill-opacity="0.502"/></g>
<polygon points="6852.43,2395.44 7151.18,2510.12 7099.57,2644.56 6800.82,2529.88" fill="rgb(44,44,44)" fill-opacity="0.502"/>
<polygon points="6110.93,1134.56 6059.47,1302.87 5937.07,1265.44 5988.53,1097.13" fill="rgb(42,42,44)" fill-opacity="0.502"/>
<circle cx="4240.00" cy="2432.00" r="48.00" fill="rgb(255,255,255)" fill-opacity="0.502"/>
<polygon points="3760.58,4390.17 3821.43,4520.68 3647.42,4601.83 3586.57,4471.32" fill="rgb(222,222,224)" fill-opacity="0.502"/>
<circle cx="6080.00" cy="960.00" r="144.00" fill="rgb(255,255,255)" fill-opacity="0.502"/>
<polygon points="2646.25,931.90 2422.35,1056.01 2313.75,860.10 2537.65,735.99" fill="rgb(252,252,246)" fill-opacity="0.502"/>
<g transform="translate(560.00 4368.00) rotate(229) scale(608.00 496.00)"><ellipse cx="0" cy="0" rx="1" ry="1" fill="rgb(0,0,0)" fill-opacity="0.502"/></g>
<polygon points="7086.92,604.70 7039.18,609.72 7009.08,323.30 7056.82,318.28" fill="rgb(255,255,255)" fill-opacity="0.502"/>
<polygon points="3647.42,3823.53 3743.71,3951.31 3232.58,4336.47 3136.29,4208.69" fill="rgb(141,141,142)" fill-opacity="0.502"/>
<polygon points="1531.40,3272.10 1324.29,3121.62 1540.60,2823.90 1747.71,2974.38" fill="rgb(57,57,56)" fill-opacity="0.502"/>
<polygon points="7084.87,2378.47 6897.07,2418.39 6867.13,2277.53 7054.93,2237.61" fill="rgb(223,223,222)" fill-opacity="0.502"/>
<polygon points="2403.43,3897.78 2531.74,3963.15 2444.57,4134.22 2316.26,4068.85" fill="rgb(106,106,111)" fill-opacity="0.502"/>
<g transform="translate(2832.00 4464.00) rotate(0) scale(128.00 240.00)"><ellipse cx="0" cy="0" rx="1" ry="1" fill="rgb(196,196,197)" fill-opacity="0.502"/></g>
<polygon points="3592.38,3144.33 3467.36,2781.25 4087.62,2567.67 4212.64,2930.75" fill="rgb(49,49,50)" fill-opacity="0.502"/>
<circle cx="4512.00" cy="4208.00" r="160.00" fill="rgb(152,152,151)" fill-opacity="0.502"/>
<circle cx="6144.00" cy="1344.00" r="64.00" fill="rgb(255,255,255)" fill-opacity="0.502"/>
<g transform="translate(1280.00 4048.00) rotate(173) scale(64.00 48.00)"><ellipse cx="0" cy="0" rx="1" ry="1" fill="rgb(47,47,36)" fill-opacity="0.502"/></g>
<g transform="translate(6416.00 2592.00) rotate(62) scale(592.00 128.00)"><ellipse cx="0" cy="0" rx="1" ry="1" fill="rgb(214,214,214)" fill-opacity="0.502"/></g>
<circle cx="832.00" cy="3184.00" r="272.00" fill="rgb(0,0,0)" fill-opacity="0.502"/>
<circle cx="1584.00" cy="3984.00" r="96.00" fill="rgb(197,197,194)" fill-opacity="0.502"/>
<polygon points="5402.95,1469.07 5196.97,1440.12 5237.05,1154.93 5443.03,1183.88" fill="rgb(75,75,74)" fill-opacity="0.502"/>
<g transform="translate(3616.00 1440.00) rotate(330) scale(128.00 144.00)"><ellipse cx="0" cy="0" rx="1" ry="1" fill="rgb(61,61,64)" fill-opacity="0.502"/></g>
<g transform="translate(4336.00 800.00) rotate(344) scale(208.00 144.00)"><ellipse cx="0" cy="0" rx="1" ry="1" fill="rgb(192,192,194)" fill-opacity="0.502"/></g>
<polygon points="1127.53,2568.44 1350.98,2584.07 1336.47,2791.56 1113.02,2775.93" fill="rgb(255,255,255)" fill-opacity="0.502"/>
<circle cx="4528.00" cy="2048.00" r="80.00" fill="rgb(98,98,95)" fill-opacity="0.502"/>
<polygon points="7096.63,3834.66 6984.41,4064.75 6567.37,3861.34 6679.59,3631.25" fill="rgb(215,215,213)" fill-opacity="0.502"/>
<polygon points="4495.78,3026.03 5144.88,3199.96 5008.22,3709.97 4359.12,3536.04" fill="rgb(218,218,217)" fill-opacity="0.502"/>
<polygon points="3875.19,3192.28 3854.27,2953.19 4236.81,2919.72 4257.73,3158.81" fill="rgb(31,31,33)" fill-opacity="0.502"/>
<polygon points="1104.20,2267.36 1243.29,2230.09 1375.80,2724.64 1236.71,2761.91" fill="rgb(255,255,255)" fill-opacity="0.502"/>
<g transform="translate(4816.00 1168.00) rotate(335) scale(320.00 64.00)"><ellipse cx="0" cy="0" rx="1" ry="1" fill="rgb(69,69,69)" fill-opacity="0.502"/></g>
<polygon points="5561.77,1002.34 5618.34,945.77 5686.23,1013.66 5629.66,1070.23" fill="rgb(0,0,0)" fill-opacity="0.502"/>
<polygon points="3992.00,2472.00 3992.00,2424.00 4248.00,2424.00 4248.00,2472.00" fill="rgb(212,212,207)" fill-opacity="0.502"/>
<polygon points="4939.72,2041.38 5036.33,1957.41 5204.28,2150.62 5107.67,2234.59" fill="rgb(22,22,20)" fill-opacity="0.502"/>
<g transform="translate(2576.00 640.00) rotate(207) scale(480.00 160.00)"><ellipse cx="0" cy="0" rx="1" ry="1" fill="rgb(245,245,241)" fill-opacity="0.502"/></g>
<circle cx="4256.00" cy="0.00" r="336.00" fill="rgb(253,253,249)" fill-opacity="0.502"/>
<circle cx="4880.00" cy="640.00" r="32.00" fill="rgb(220,220,215)" fill-opacity="0.502"/>
<polygon points="6982.47,1572.29 7085.56,1616.06 6985.53,1851.71 6882.44,1807.94" fill="rgb(223,223,223)" fill-opacity="0.502"/>
<circle cx="4448.00" cy="4432.00" r="96.00" fill="rgb(4,4,3)" fill-opacity="0.502"/>
<g transform="translate(6272.00 288.00) rotate(196) scale(80.00 496.00)"><ellipse cx="0" cy="0" rx="1" ry="1" fill="rgb(107,107,110)" fill-opacity="0.502"/></g>
<circle cx="2400.00" cy="4192.00" r="64.00" fill="rgb(232,232,225)" fill-opacity="0.502"/>
<polygon points="5851.44,18.63 5866.82,14.22 6100.56,829.37 6085.18,833.78" fill="rgb(255,255,255)" fill-opacity="0.502"/>
<g transform="translate(1792.00 928.00) rotate(340) scale(16.00 128.00)"><ellipse cx="0" cy="0" rx="1" ry="1" fill="rgb(116,116,120)" fill-opacity="0.502"/></g>
<circle cx="2160.00" cy="3312.00" r="64.00" fill="rgb(247,247,246)" fill-opacity="0.502"/>
<polygon points="4722.91,1251.92 4629.01,1271.88 4589.09,1084.08 4682.99,1064.12" fill="rgb(209,209,211)" fill-opacity="0.502"/>
<circle cx="1360.00" cy="2080.00" r="64.00" fill="rgb(16,16,15)" fill-opacity="0.502"/>
<polygon points="4584.90,4339.32 4735.37,4546.42 4567.10,4668.68 4416.63,4461.58" fill="rgb(34,34,32)" fill-opacity="0.502"/>
<circle cx="4576.00" cy="560.00" r="144.00" fill="rgb(187,187,188)" fill-opacity="0.502"/>
<g transform="translate(6768.00 496.00) rotate(357) scale(224.00 80.00)"><ellipse cx="0" cy="0" rx="1" ry="1" fill="rgb(93,93,95)" fill-opacity="0.502"/></g>
<circle cx="6848.00" cy="4016.00" r="240.00" fill="rgb(206,206,207)" fill-opacity="0.502"/>
<polygon points="1876.36,2176.42 2062.06,2301.67 1963.64,2447.58 1777.94,2322.33" fill="rgb(253,253,250)" fill-opacity="0.502"/>
<circle cx="1968.00" cy="2560.00" r="128.00" fill="rgb(138,138,137)" fill-opacity="0.502"/>
</g>
</svg>