<?xml version="1.0" standalone="no"?>
<svg xmlns="http://www.w3.org/2000/svg" width="8192" height="4608" viewBox="0 0 8192 4608" style="overflow:hidden">
<defs>
<clipPath id="c"><rect x="0" y="0" width="8192" height="4608"/></clipPath>
</defs>
<rect width="8192" height="4608" fill="rgb(79,78,80)"/>
<g clip-path="url(#c)">
<circle cx="2480.00" cy="1264.00" r="1440.00" fill="rgb(171,168,172)" fill-opacity="0.502"/>
<g transform="translate(8176.00 656.00) rotate(93) scale(6336.00 1088.00)"><ellipse cx="0" cy="0" rx="1" ry="1" fill="rgb(0,0,0)" fill-opacity="0.502"/></g>
<circle cx="0.00" cy="2016.00" r="1488.00" fill="rgb(0,0,0)" fill-opacity="0.502"/>
<circle cx="2080.00" cy="3632.00" r="1008.00" fill="rgb(160,160,162)" fill-opacity="0.502"/>
<circle cx="5424.00" cy="3888.00" r="1664.00" fill="rgb(153,152,155)" fill-opacity="0.502"/>
<circle cx="96.00" cy="3760.00" r="1120.00" fill="rgb(0,0,0)" fill-opacity="0.502"/>
<g transform="translate(7728.00 3072.00) rotate(0) scale(656.00 4592.00)"><ellipse cx="0" cy="0" rx="1" ry="1" fill="rgb(0,0,0)" fill-opacity="0.502"/></g>
<circle cx="3376.00" cy="4000.00" r="448.00" fill="rgb(0,0,0)" fill-opacity="0.502"/>
<g transform="translate(368.00 608.00) rotate(268) scale(6320.00 720.00)"><ellipse cx="0" cy="0" rx="1" ry="1" fill="rgb(0,0,0)" fill-opacity="0.502"/></g>
<circle cx="7840.00" cy="2496.00" r="784.00" fill="rgb(0,0,0)" fill-opacity="0.502"/>
<circle cx="3104.00" cy="2624.00" r="368.00" fill="rgb(150,147,151)" fill-opacity="0.502"/>
<g transform="translate(1264.00 2400.00) rotate(90) scale(4544.00 160.00)"><ellipse cx="0" cy="0" rx="1" ry="1" fill="rgb(170,169,171)" fill-opacity="0.502"/></g>
<circle cx="1808.00" cy="2160.00" r="720.00" fill="rgb(147,145,148)" fill-opacity="0.502"/>
<g transform="translate(5216.00 384.00) rotate(252) scale(2912.00 1744.00)"><ellipse cx="0" cy="0" rx="1" ry="1" fill="rgb(114,112,115)" fill-opacity="0.502"/></g>
<g transform="translate(3856.00 2672.00) rotate(172) scale(416.00 224.00)"><ellipse cx="0" cy="0" rx="1" ry="1" fill="rgb(0,0,0)" fill-opacity="0.502"/></g>
<circle cx="7888.00" cy="3872.00" r="832.00" fill="rgb(0,0,0)" fill-opacity="0.502"/>
<circle cx="176.00" cy="624.00" r="944.00" fill="rgb(0,0,0)" fill-opacity="0.502"/>
<circle cx="416.00" cy="2096.00" r="688.00" fill="rgb(0,0,0)" fill-opacity="0.502"/>
<g transform="translate(496.00 3792.00) rotate(202) scale(496.00 1072.00)"><ellipse cx="0" cy="0" rx="1" ry="1" fill="rgb(0,0,0)" fill-opacity="0.502"/></g>
<circle cx="6640.00" cy="2992.00" r="464.00" fill="rgb(90,91,94)" fill-opacity="0.502"/>
<g transform="translate(1728.00 624.00) rotate(96) scale(2640.00 560.00)"><ellipse cx="0" cy="0" rx="1" ry="1" fill="rgb(141,139,142)" fill-opacity="0.502"/></g>
<circle cx="496.00" cy="240.00" r="608.00" fill="rgb(0,0,0)" fill-opacity="0.502"/>
<circle cx="3936.00" cy="656.00" r="1248.00" fill="rgb(109,107,110)" fill-opacity="0.502"/>
<circle cx="7696.00" cy="560.00" r="640.00" fill="rgb(0,0,0)" fill-opacity="0.502"/>
<circle cx="3840.00" cy="2176.00" r="464.00" fill="rgb(36,33,37)" fill-opacity="0.502"/>
<circle cx="672.00" cy="1536.00" r="432.00" fill="rgb(0,0,0)" fill-opacity="0.502"/>
<circle cx="7872.00" cy="1328.00" r="800.00" fill="rgb(0,0,0)" fill-opacity="0.502"/>
<circle cx="560.00" cy="608.00" r="544.00" fill="rgb(0,0,0)" fill-opacity="0.502"/>
<g transform="translate(3728.00 3264.00) rotate(213) scale(720.00 272.00)"><ellipse cx="0" cy="0" rx="1" ry="1" fill="rgb(106,103,108)" fill-opacity="0.502"/></g>
<circle cx="3520.00" cy="3824.00" r="560.00" fill="rgb(30,30,35)" fill-opacity="0.502"/>
<circle cx="1600.00" cy="304.00" r="512.00" fill="rgb(143,140,144)" fill-opacity="0.502"/>
<circle cx="1600.00" cy="3840.00" r="512.00" fill="rgb(117,117,118)" fill-opacity="0.502"/>
<circle cx="3792.00" cy="256.00" r="720.00" fill="rgb(120,118,120)" fill-opacity="0.502"/>
<circle cx="7584.00" cy="2800.00" r="512.00" fill="rgb(0,0,0)" fill-opacity="0.502"/>
<circle cx="5584.00" cy="3472.00" r="816.00" fill="rgb(139,137,140)" fill-opacity="0.502"/>
<polygon points="2464.69,4678.86 2416.12,3752.13 3007.31,3721.14 3055.88,4647.87" fill="rgb(129,130,132)" fill-opacity="0.502"/>
<g transform="translate(5888.00 2352.00) rotate(276) scale(448.00 1232.00)"><ellipse cx="0" cy="0" rx="1" ry="1" fill="rgb(93,91,95)" fill-opacity="0.502"/></g>
<polygon points="2494.15,2631.77 2599.31,2433.99 2881.85,2584.23 2776.69,2782.01" fill="rgb(59,56,58)" fill-opacity="0.502"/>
<g transform="translate(4000.00 3936.00) rotate(99) scale(352.00 240.00)"><ellipse cx="0" cy="0" rx="1" ry="1" fill="rgb(126,124,127)" fill-opacity="0.502"/></g>
<circle cx="528.00" cy="2480.00" r="576.00" fill="rgb(0,0,0)" fill-opacity="0.502"/>
<g transform="translate(3696.00 1056.00) rotate(85) scale(80.00 496.00)"><ellipse cx="0" cy="0" rx="1" ry="1" fill="rgb(23,21,26)" fill-opacity="0.502"/></g>
<g transform="translate(768.00 4240.00) rotate(91) scale(3040.00 336.00)"><ellipse cx="0" cy="0" rx="1" ry="1" fill="rgb(0,0,0)" fill-opacity="0.502"/></g>
<circle cx="7888.00" cy="4096.00" r="816.00" fill="rgb(0,0,0)" fill-opacity="0.502"/>
<circle cx="7776.00" cy="1728.00" r="704.00" fill="rgb(0,0,0)" fill-opacity="0.502"/>
<g transform="translate(1456.00 3280.00) rotate(156) scale(336.00 416.00)"><ellipse cx="0" cy="0" rx="1" ry="1" fill="rgb(114,114,115)" fill-opacity="0.502"/></g>
<g transform="translate(3200.00 4592.00) rotate(268) scale(160.00 800.00)"><ellipse cx="0" cy="0" rx="1" ry="1" fill="rgb(145,146,148)" fill-opacity="0.502"/></g>
<g transform="translate(3344.00 3904.00) rotate(256) scale(560.00 208.00)"><ellipse cx="0" cy="0" rx="1" ry="1" fill="rgb(0,0,1)" fill-opacity="0.502"/></g>
<circle cx="3808.00" cy="1360.00" r="304.00" fill="rgb(126,123,128)" fill-opacity="0.502"/>
<circle cx="3280.00" cy="2112.00" r="112.00" fill="rgb(214,210,213)" fill-opacity="0.502"/>
<circle cx="2128.00" cy="2752.00" r="480.00" fill="rgb(126,126,128)" fill-opacity="0.502"/>
<g transform="translate(5056.00 2272.00) rotate(282) scale(528.00 48.00)"><ellipse cx="0" cy="0" rx="1" ry="1" fill="rgb(58,54,58)" fill-opacity="0.502"/></g>
<polygon points="4712.48,3255.15 4669.71,3233.35 4967.52,2648.85 5010.29,2670.65" fill="rgb(0,0,0)" fill-opacity="0.502"/>
<polygon points="2854.98,2883.07 3010.31,2995.93 2841.02,3228.93 2685.69,3116.07" fill="rgb(46,46,50)" fill-opacity="0.502"/>
<circle cx="7520.00" cy="256.00" r="464.00" fill="rgb(0,0,0)" fill-opacity="0.502"/>
<polygon points="4556.23,2998.19 4729.56,3228.20 4371.77,3497.81 4198.44,3267.80" fill="rgb(88,83,91)" fill-opacity="0.502"/>
<polygon points="3844.82,3350.94 3876.08,3277.30 3979.18,3321.06 3947.92,3394.70" fill="rgb(0,0,0)" fill-opacity="0.502"/>
<circle cx="3680.00" cy="3136.00" r="160.00" fill="rgb(149,146,148)" fill-opacity="0.502"/>
<circle cx="288.00" cy="1056.00" r="816.00" fill="rgb(0,0,0)" fill-opacity="0.502"/>
<circle cx="4368.00" cy="2656.00" r="128.00" fill="rgb(148,145,156)" fill-opacity="0.502"/>
<circle cx="3584.00" cy="3648.00" r="80.00" fill="rgb(136,132,132)" fill-opacity="0.502"/>
<circle cx="4800.00" cy="3712.00" r="592.00" fill="rgb(127,125,129)" fill-opacity="0.502"/>
<circle cx="3360.00" cy="3040.00" r="192.00" fill="rgb(136,134,135)" fill-opacity="0.502"/>
<polygon points="4425.59,3496.43 4289.90,3581.22 4086.41,3255.57 4222.10,3170.78" fill="rgb(77,75,80)" fill-opacity="0.502"/>
<circle cx="6704.00" cy="4496.00" r="368.00" fill="rgb(134,135,138)" fill-opacity="0.502"/>
<circle cx="3424.00" cy="2368.00" r="208.00" fill="rgb(86,85,88)" fill-opacity="0.502"/>
<circle cx="4704.00" cy="2016.00" r="368.00" fill="rgb(116,114,118)" fill-opacity="0.502"/>
<polygon points="3856.59,1706.83 4096.34,1113.43 4719.41,1365.17 4479.66,1958.57" fill="rgb(120,117,121)" fill-opacity="0.502"/>
<circle cx="3952.00" cy="3328.00" r="64.00" fill="rgb(0,0,0)" fill-opacity="0.502"/>
<circle cx="1584.00" cy="4176.00" r="496.00" fill="rgb(119,119,120)" fill-opacity="0.502"/>
<g transform="translate(96.00 4032.00) rotate(2) scale(992.00 4592.00)"><ellipse cx="0" cy="0" rx="1" ry="1" fill="rgb(0,0,0)" fill-opacity="0.502"/></g>
<circle cx="5584.00" cy="2032.00" r="496.00" fill="rgb(102,100,103)" fill-opacity="0.502"/>
<circle cx="3728.00" cy="2208.00" r="272.00" fill="rgb(75,74,76)" fill-opacity="0.502"/>
<circle cx="6320.00" cy="4032.00" r="528.00" fill="rgb(128,128,131)" fill-opacity="0.502"/>
<circle cx="6720.00" cy="3360.00" r="384.00" fill="rgb(95,95,98)" fill-opacity="0.502"/>
<g transform="translate(7904.00 160.00) rotate(229) scale(928.00 736.00)"><ellipse cx="0" cy="0" rx="1" ry="1" fill="rgb(0,0,0)" fill-opacity="0.502"/></g>
<g transform="translate(3856.00 2656.00) rotate(351) scale(384.00 208.00)"><ellipse cx="0" cy="0" rx="1" ry="1" fill="rgb(0,0,0)" fill-opacity="0.502"/></g>
<polygon points="4171.18,1008.18 4360.27,1041.52 4340.82,1151.82 4151.73,1118.48" fill="rgb(0,0,0)" fill-opacity="0.502"/>
<polygon points="4697.96,1113.45 4709.69,1337.15 4454.04,1350.55 4442.31,1126.85" fill="rgb(46,43,47)" fill-opacity="0.502"/>
<g transform="translate(7376.00 4224.00) rotate(23) scale(208.00 544.00)"><ellipse cx="0" cy="0" rx="1" ry="1" fill="rgb(0,0,0)" fill-opacity="0.502"/></g>
<circle cx="6848.00" cy="2624.00" r="240.00" fill="rgb(101,103,103)" fill-opacity="0.502"/>
<polygon points="3412.39,3250.39 3403.46,3378.08 3339.61,3373.61 3348.54,3245.92" fill="rgb(185,186,188)" fill-opacity="0.502"/>
<polygon points="3662.45,1011.99 3101.60,1285.53 3073.55,1228.01 3634.40,954.47" fill="rgb(0,0,0)" fill-opacity="0.502"/>
<circle cx="1664.00" cy="592.00" r="576.00" fill="rgb(137,135,138)" fill-opacity="0.502"/>
<g transform="translate(6912.00 3792.00) rotate(27) scale(176.00 176.00)"><ellipse cx="0" cy="0" rx="1" ry="1" fill="rgb(84,85,88)" fill-opacity="0.502"/></g>
<circle cx="6528.00" cy="560.00" r="560.00" fill="rgb(87,87,86)" fill-opacity="0.502"/>
<g transform="translate(3888.00 1888.00) rotate(110) scale(96.00 224.00)"><ellipse cx="0" cy="0" rx="1" ry="1" fill="rgb(22,21,25)" fill-opacity="0.502"/></g>
<circle cx="6192.00" cy="3696.00" r="448.00" fill="rgb(130,127,131)" fill-opacity="0.502"/>
<polygon points="3086.54,2867.49 2876.04,2790.88 3089.46,2204.51 3299.96,2281.12" fill="rgb(159,157,157)" fill-opacity="0.502"/>
<polygon points="3017.75,4024.84 3333.81,4074.90 3286.25,4375.16 2970.19,4325.10" fill="rgb(3,3,8)" fill-opacity="0.502"/>
<circle cx="3568.00" cy="4256.00" r="208.00" fill="rgb(9,10,14)" fill-opacity="0.502"/>
<g transform="translate(3856.00 3552.00) rotate(75) scale(160.00 112.00)"><ellipse cx="0" cy="0" rx="1" ry="1" fill="rgb(108,106,105)" fill-opacity="0.502"/></g>
<polygon points="3586.76,2449.45 3982.40,2320.90 3997.24,2366.55 3601.60,2495.10" fill="rgb(168,168,167)" fill-opacity="0.502"/>
<circle cx="7776.00" cy="3072.00" r="704.00" fill="rgb(0,0,0)" fill-opacity="0.502"/>
<g transform="translate(3296.00 656.00) rotate(110) scale(448.00 448.00)"><ellipse cx="0" cy="0" rx="1" ry="1" fill="rgb(121,119,121)" fill-opacity="0.502"/></g>
<circle cx="1584.00" cy="2384.00" r="496.00" fill="rgb(126,125,128)" fill-opacity="0.502"/>
<g transform="translate(2144.00 3488.00) rotate(74) scale(1392.00 704.00)"><ellipse cx="0" cy="0" rx="1" ry="1" fill="rgb(126,126,128)" fill-opacity="0.502"/></g>
<g transform="translate(2976.00 848.00) rotate(207) scale(368.00 416.00)"><ellipse cx="0" cy="0" rx="1" ry="1" fill="rgb(126,124,126)" fill-opacity="0.502"/></g>
<g transform="translate(7504.00 1072.00) rotate(225) scale(416.00 416.00)"><ellipse cx="0" cy="0" rx="1" ry="1" fill="rgb(0,0,0)" fill-opacity="0.502"/></g>
<circle cx="128.00" cy="3824.00" r="960.00" fill="rgb(0,0,0)" fill-opacity="0.502"/>
<circle cx="3520.00" cy="1264.00" r="192.00" fill="rgb(135,133,136)" fill-opacity="0.502"/>
<circle cx="2928.00" cy="2432.00" r="256.00" fill="rgb(132,130,132)" fill-opacity="0.502"/>
<circle cx="3984.00" cy="3088.00" r="192.00" fill="rgb(146,143,146)" fill-opacity="0.502"/>
<polygon points="5959.57,3294.32 4924.82,2958.11 5048.43,2577.68 6083.18,2913.89" fill="rgb(137,136,139)" fill-opacity="0.502"/>
<circle cx="4448.00" cy="1424.00" r="192.00" fill="rgb(118,115,119)" fill-opacity="0.502"/>
<polygon points="4559.76,3295.75 4579.02,3321.30 4336.24,3504.25 4316.98,3478.70" fill="rgb(7,6,4)" fill-opacity="0.502"/>
<circle cx="7664.00" cy="880.00" r="592.00" fill="rgb(0,0,0)" fill-opacity="0.502"/>
<polygon points="2947.99,3501.70 3474.71,3538.53 3468.01,3634.30 2941.29,3597.47" fill="rgb(38,38,43)" fill-opacity="0.502"/>
<circle cx="3584.00" cy="2192.00" r="80.00" fill="rgb(0,0,0)" fill-opacity="0.502"/>
<circle cx="4880.00" cy="1536.00" r="64.00" fill="rgb(0,1,1)" fill-opacity="0.502"/>
<circle cx="4928.00" cy="832.00" r="496.00" fill="rgb(103,101,105)" fill-opacity="0.502"/>
<polygon points="3458.19,3562.70 3410.63,3519.87 3549.81,3365.30 3597.37,3408.13" fill="rgb(126,123,128)" fill-opacity="0.502"/>
<polygon points="3724.56,1058.49 3716.76,994.96 3891.44,973.51 3899.24,1037.04" fill="rgb(0,0,0)" fill-opacity="0.502"/>
<g transform="translate(1488.00 4464.00) rotate(312) scale(256.00 464.00)"><ellipse cx="0" cy="0" rx="1" ry="1" fill="rgb(113,114,113)" fill-opacity="0.502"/></g>
<circle cx="3056.00" cy="0.00" r="592.00" fill="rgb(124,123,124)" fill-opacity="0.502"/>
<polygon points="2916.30,3346.70 3000.46,3519.27 2971.70,3533.30 2887.54,3360.73" fill="rgb(0,0,0)" fill-opacity="0.502"/>
<polygon points="3219.20,2835.13 3268.94,2875.41 2956.80,3260.87 2907.06,3220.59" fill="rgb(140,137,146)" fill-opacity="0.502"/>
<circle cx="1520.00" cy="3392.00" r="400.00" fill="rgb(120,120,121)" fill-opacity="0.502"/>
<polygon points="1340.60,2380.79 1118.33,1120.24 1827.40,995.21 2049.67,2255.76" fill="rgb(140,137,141)" fill-opacity="0.502"/>
<g transform="translate(2608.00 2032.00) rotate(26) scale(32.00 176.00)"><ellipse cx="0" cy="0" rx="1" ry="1" fill="rgb(83,81,88)" fill-opacity="0.502"/></g>
<polygon points="6065.91,804.66 7079.25,1038.61 6910.09,1771.34 5896.75,1537.39" fill="rgb(88,89,88)" fill-opacity="0.502"/>
<g transform="translate(2224.00 1392.00) rotate(355) scale(416.00 1168.00)"><ellipse cx="0" cy="0" rx="1" ry="1" fill="rgb(132,130,134)" fill-opacity="0.502"/></g>
<g transform="translate(5856.00 4192.00) rotate(16) scale(1280.00 720.00)"><ellipse cx="0" cy="0" rx="1" ry="1" fill="rgb(123,122,124)" fill-opacity="0.502"/></g>
<g transform="translate(1360.00 768.00) rotate(359) scale(256.00 1200.00)"><ellipse cx="0" cy="0" rx="1" ry="1" fill="rgb(139,137,141)" fill-opacity="0.502"/></g>
<polygon points="3976.13,2099.22 3952.13,2140.78 3591.87,1932.78 3615.87,1891.22" fill="rgb(5,3,9)" fill-opacity="0.502"/>
<polygon points="4105.58,3151.03 4188.01,2726.97 4486.42,2784.97 4403.99,3209.03" fill="rgb(144,141,144)" fill-opacity="0.502"/>
<g transform="translate(3104.00 3296.00) rotate(335) scale(80.00 64.00)"><ellipse cx="0" cy="0" rx="1" ry="1" fill="rgb(161,161,160)" fill-opacity="0.502"/></g>
<polygon points="3514.59,1221.63 3728.80,1287.12 3429.41,2266.37 3215.20,2200.88" fill="rgb(130,128,130)" fill-opacity="0.502"/>
<polygon points="6704.00,1296.00 7072.00,1296.00 7072.00,3824.00 6704.00,3824.00" fill="rgb(94,95,96)" fill-opacity="0.502"/>
<circle cx="7648.00" cy="3728.00" r="576.00" fill="rgb(0,0,0)" fill-opacity="0.502"/>
<circle cx="3504.00" cy="3120.00" r="128.00" fill="rgb(136,134,137)" fill-opacity="0.502"/>
<g transform="translate(5072.00 3312.00) rotate(243) scale(304.00 576.00)"><ellipse cx="0" cy="0" rx="1" ry="1" fill="rgb(133,130,134)" fill-opacity="0.502"/></g>
<g transform="translate(624.00 240.00) rotate(143) scale(544.00 352.00)"><ellipse cx="0" cy="0" rx="1" ry="1" fill="rgb(0,0,0)" fill-opacity="0.502"/></g>
<g transform="translate(3824.00 2656.00) rotate(172) scale(480.00 144.00)"><ellipse cx="0" cy="0" rx="1" ry="1" fill="rgb(19,15,22)" fill-opacity="0.502"/></g>
<circle cx="4000.00" cy="4304.00" r="240.00" fill="rgb(108,109,110)" fill-opacity="0.502"/>
<polygon points="3557.08,1732.43 3654.55,1478.49 4042.92,1627.57 3945.45,1881.51" fill="rgb(92,91,92)" fill-opacity="0.502"/>
<g transform="translate(4832.00 2320.00) rotate(171) scale(224.00 304.00)"><ellipse cx="0" cy="0" rx="1" ry="1" fill="rgb(106,104,108)" fill-opacity="0.502"/></g>
<circle cx="4320.00" cy="3568.00" r="240.00" fill="rgb(124,121,123)" fill-opacity="0.502"/>
<g transform="translate(6336.00 3664.00) rotate(135) scale(272.00 816.00)"><ellipse cx="0" cy="0" rx="1" ry="1" fill="rgb(129,129,131)" fill-opacity="0.502"/></g>
<g transform="translate(4960.00 4592.00) rotate(206) scale(544.00 368.00)"><ellipse cx="0" cy="0" rx="1" ry="1" fill="rgb(109,110,110)" fill-opacity="0.502"/></g>
<circle cx="3472.00" cy="4160.00" r="288.00" fill="rgb(16,16,19)" fill-opacity="0.502"/>
<circle cx="7888.00" cy="2048.00" r="816.00" fill="rgb(0,0,0)" fill-opacity="0.502"/>
<circle cx="2480.00" cy="3280.00" r="320.00" fill="rgb(125,125,128)" fill-opacity="0.502"/>
<circle cx="5152.00" cy="48.00" r="416.00" fill="rgb(101,101,103)" fill-opacity="0.502"/>
<circle cx="3104.00" cy="2816.00" r="208.00" fill="rgb(128,125,129)" fill-opacity="0.502"/>
<circle cx="992.00" cy="1264.00" r="112.00" fill="rgb(0,0,0)" fill-opacity="0.502"/>
<circle cx="3056.00" cy="3488.00" r="64.00" fill="rgb(162,163,161)" fill-opacity="0.502"/>
<polygon points="7094.27,2291.40 6332.47,2583.82 5529.73,492.60 6291.53,200.18" fill="rgb(93,92,95)" fill-opacity="0.502"/>
<circle cx="3616.00" cy="3712.00" r="144.00" fill="rgb(81,79,85)" fill-opacity="0.502"/>
<circle cx="3520.00" cy="592.00" r="416.00" fill="rgb(115,112,115)" fill-opacity="0.502"/>
<circle cx="6832.00" cy="80.00" r="240.00" fill="rgb(95,96,97)" fill-opacity="0.502"/>
<circle cx="3280.00" cy="2624.00" r="176.00" fill="rgb(110,108,115)" fill-opacity="0.502"/>
<g transform="translate(6416.00 2576.00) rotate(242) scale(1232.00 368.00)"><ellipse cx="0" cy="0" rx="1" ry="1" fill="rgb(95,94,97)" fill-opacity="0.502"/></g>
<g transform="translate(3376.00 2512.00) rotate(259) scale(16.00 816.00)"><ellipse cx="0" cy="0" rx="1" ry="1" fill="rgb(148,146,151)" fill-opacity="0.502"/></g>
<circle cx="2528.00" cy="4272.00" r="448.00" fill="rgb(118,118,121)" fill-opacity="0.502"/>
<g transform="translate(4208.00 544.00) rotate(120) scale(448.00 704.00)"><ellipse cx="0" cy="0" rx="1" ry="1" fill="rgb(109,108,110)" fill-opacity="0.502"/></g>
<polygon points="3036.43,4325.45 3416.36,4562.86 3331.57,4698.55 2951.64,4461.14" fill="rgb(121,121,125)" fill-opacity="0.502"/>
<g transform="translate(4128.00 2352.00) rotate(228) scale(128.00 48.00)"><ellipse cx="0" cy="0" rx="1" ry="1" fill="rgb(13,12,18)" fill-opacity="0.502"/></g>
<g transform="translate(4208.00 3936.00) rotate(50) scale(208.00 320.00)"><ellipse cx="0" cy="0" rx="1" ry="1" fill="rgb(123,122,125)" fill-opacity="0.502"/></g>
<g transform="translate(3616.00 1776.00) rotate(89) scale(16.00 352.00)"><ellipse cx="0" cy="0" rx="1" ry="1" fill="rgb(59,56,58)" fill-opacity="0.502"/></g>
<g transform="translate(4880.00 1312.00) rotate(58) scale(96.00 192.00)"><ellipse cx="0" cy="0" rx="1" ry="1" fill="rgb(82,79,83)" fill-opacity="0.502"/></g>
<circle cx="5296.00" cy="1328.00" r="432.00" fill="rgb(102,99,102)" fill-opacity="0.502"/>
<g transform="translate(3888.00 4544.00) rotate(3) scale(400.00 112.00)"><ellipse cx="0" cy="0" rx="1" ry="1" fill="rgb(118,118,120)" fill-opacity="0.502"/></g>
<g transform="translate(2912.00 3024.00) rotate(216) scale(320.00 80.00)"><ellipse cx="0" cy="0" rx="1" ry="1" fill="rgb(46,47,52)" fill-opacity="0.502"/></g>
<circle cx="7744.00" cy="4352.00" r="656.00" fill="rgb(0,0,0)" fill-opacity="0.502"/>
<circle cx="7392.00" cy="112.00" r="320.00" fill="rgb(0,0,0)" fill-opacity="0.502"/>
<polygon points="3029.76,3041.41 3017.16,3051.26 2682.24,2622.59 2694.84,2612.74" fill="rgb(9,11,11)" fill-opacity="0.502"/>
<circle cx="2208.00" cy="2656.00" r="400.00" fill="rgb(129,128,131)" fill-opacity="0.502"/>
<polygon points="2048.00,4368.00 2048.00,4608.00 1840.00,4608.00 1840.00,4368.00" fill="rgb(110,109,111)" fill-opacity="0.502"/>
<g transform="translate(1456.00 3168.00) rotate(255) scale(816.00 288.00)"><ellipse cx="0" cy="0" rx="1" ry="1" fill="rgb(122,122,123)" fill-opacity="0.502"/></g>
<circle cx="3648.00" cy="96.00" r="400.00" fill="rgb(118,116,119)" fill-opacity="0.502"/>
<g transform="translate(1584.00 0.00) rotate(166) scale(480.00 336.00)"><ellipse cx="0" cy="0" rx="1" ry="1" fill="rgb(139,137,140)" fill-opacity="0.502"/></g>
<circle cx="3568.00" cy="4560.00" r="128.00" fill="rgb(127,127,127)" fill-opacity="0.502"/>
<g transform="translate(7456.00 2416.00) rotate(240) scale(592.00 224.00)"><ellipse cx="0" cy="0" rx="1" ry="1" fill="rgb(0,0,0)" fill-opacity="0.502"/></g>
<g transform="translate(3808.00 3984.00) rotate(188) scale(48.00 32.00)"><ellipse cx="0" cy="0" rx="1" ry="1" fill="rgb(0,0,0)" fill-opacity="0.502"/></g>
<polygon points="2617.67,2262.61 2677.74,2641.88 2630.33,2649.39 2570.26,2270.12" fill="rgb(0,0,0)" fill-opacity="0.502"/>
<circle cx="2432.00" cy="2480.00" r="160.00" fill="rgb(138,135,139)" fill-opacity="0.502"/>
<polygon points="3584.00,4368.00 3728.00,4368.00 3728.00,4448.00 3584.00,4448.00" fill="rgb(5,6,9)" fill-opacity="0.502"/>
<circle cx="5168.00" cy="3328.00" r="448.00" fill="rgb(130,128,131)" fill-opacity="0.502"/>
<circle cx="5952.00" cy="3488.00" r="528.00" fill="rgb(129,127,130)" fill-opacity="0.502"/>
<polygon points="4720.62,2683.99 4623.85,2295.88 4639.38,2292.01 4736.15,2680.12" fill="rgb(57,56,64)" fill-opacity="0.502"/>
<polygon points="7080.19,3269.49 7465.90,3113.65 7543.81,3306.51 7158.10,3462.35" fill="rgb(0,0,0)" fill-opacity="0.502"/>
<g transform="translate(4672.00 3856.00) rotate(237) scale(208.00 592.00)"><ellipse cx="0" cy="0" rx="1" ry="1" fill="rgb(127,126,129)" fill-opacity="0.502"/></g>
<circle cx="3024.00" cy="1312.00" r="48.00" fill="rgb(0,0,0)" fill-opacity="0.502"/>
<polygon points="2727.98,3509.09 3043.18,3755.35 2856.02,3994.91 2540.82,3748.65" fill="rgb(124,124,127)" fill-opacity="0.502"/>
<g transform="translate(6768.00 384.00) rotate(119) scale(448.00 272.00)"><ellipse cx="0" cy="0" rx="1" ry="1" fill="rgb(91,91,90)" fill-opacity="0.502"/></g>
<g transform="translate(7968.00 176.00) rotate(241) scale(512.00 352.00)"><ellipse cx="0" cy="0" rx="1" ry="1" fill="rgb(0,0,0)" fill-opacity="0.502"/></g>
<g transform="translate(4480.00 288.00) rotate(25) scale(224.00 784.00)"><ellipse cx="0" cy="0" rx="1" ry="1" fill="rgb(106,106,106)" fill-opacity="0.502"/></g>
<polygon points="4286.33,2505.78 4250.55,2558.84 3905.67,2326.22 3941.45,2273.16" fill="rgb(109,105,106)" fill-opacity="0.502"/>
<circle cx="4080.00" cy="3328.00" r="80.00" fill="rgb(28,27,34)" fill-opacity="0.502"/>
<circle cx="496.00" cy="1808.00" r="608.00" fill="rgb(0,0,0)" fill-opacity="0.502"/>
<circle cx="2048.00" cy="1360.00" r="416.00" fill="rgb(136,134,137)" fill-opacity="0.502"/>
<g transform="translate(4544.00 2448.00) rotate(253) scale(240.00 112.00)"><ellipse cx="0" cy="0" rx="1" ry="1" fill="rgb(102,99,100)" fill-opacity="0.502"/></g>
<circle cx="2176.00" cy="64.00" r="400.00" fill="rgb(131,130,133)" fill-opacity="0.502"/>
<circle cx="3920.00" cy="3872.00" r="32.00" fill="rgb(0,0,0)" fill-opacity="0.502"/>
<polygon points="4079.39,2446.40 4061.75,2384.88 4784.61,2177.60 4802.25,2239.12" fill="rgb(98,94,98)" fill-opacity="0.502"/>
<polygon points="4131.28,634.52 4455.83,721.48 4364.72,1061.48 4040.17,974.52" fill="rgb(115,111,116)" fill-opacity="0.502"/>
<circle cx="3328.00" cy="3360.00" r="16.00" fill="rgb(255,255,255)" fill-opacity="0.502"/>
<g transform="translate(7472.00 3488.00) rotate(260) scale(448.00 384.00)"><ellipse cx="0" cy="0" rx="1" ry="1" fill="rgb(0,0,0)" fill-opacity="0.502"/></g>
<polygon points="3175.33,2225.02 3117.99,2075.65 3192.67,2046.98 3250.01,2196.35" fill="rgb(227,226,224)" fill-opacity="0.502"/>
<polygon points="2743.73,3010.23 2773.19,2997.73 3048.27,3645.77 3018.81,3658.27" fill="rgb(0,0,0)" fill-opacity="0.502"/>
<polygon points="6565.37,2177.99 5829.97,2795.06 4986.63,1790.01 5722.03,1172.94" fill="rgb(98,97,99)" fill-opacity="0.502"/>
<polygon points="3158.71,1260.06 2920.81,1391.93 2905.29,1363.94 3143.19,1232.07" fill="rgb(0,0,0)" fill-opacity="0.502"/>
<polygon points="2697.41,2488.95 3028.17,2327.63 3238.59,2759.05 2907.83,2920.37" fill="rgb(130,128,129)" fill-opacity="0.502"/>
<g transform="translate(3328.00 2544.00) rotate(253) scale(16.00 80.00)"><ellipse cx="0" cy="0" rx="1" ry="1" fill="rgb(10,8,10)" fill-opacity="0.502"/></g>
<g transform="translate(6912.00 2864.00) rotate(147) scale(112.00 272.00)"><ellipse cx="0" cy="0" rx="1" ry="1" fill="rgb(95,95,97)" fill-opacity="0.502"/></g>
<circle cx="2688.00" cy="1392.00" r="240.00" fill="rgb(131,129,130)" fill-opacity="0.502"/>
<circle cx="4528.00" cy="2304.00" r="256.00" fill="rgb(102,99,103)" fill-opacity="0.502"/>
<g transform="translate(3040.00 4560.00) rotate(284) scale(208.00 1984.00)"><ellipse cx="0" cy="0" rx="1" ry="1" fill="rgb(121,121,123)" fill-opacity="0.502"/></g>
<g transform="translate(3600.00 1104.00) rotate(27) scale(80.00 16.00)"><ellipse cx="0" cy="0" rx="1" ry="1" fill="rgb(141,142,145)" fill-opacity="0.502"/></g>
<circle cx="704.00" cy="208.00" r="400.00" fill="rgb(0,0,0)" fill-opacity="0.502"/>
<polygon points="2787.16,1451.37 2874.12,1775.92 2796.84,1796.63 2709.88,1472.08" fill="rgb(102,100,103)" fill-opacity="0.502"/>
<polygon points="3582.39,1577.27 3626.85,1325.16 4225.61,1430.73 4181.15,1682.84" fill="rgb(110,108,112)" fill-opacity="0.502"/>
<polygon points="3903.64,1438.87 3549.77,1191.09 3632.36,1073.13 3986.23,1320.91" fill="rgb(113,110,114)" fill-opacity="0.502"/>
<polygon points="6560.00,4208.00 7072.00,4208.00 7072.00,4592.00 6560.00,4592.00" fill="rgb(126,126,128)" fill-opacity="0.502"/>
<circle cx="3664.00" cy="1968.00" r="192.00" fill="rgb(49,47,49)" fill-opacity="0.502"/>
<circle cx="1632.00" cy="4144.00" r="384.00" fill="rgb(122,121,124)" fill-opacity="0.502"/>
<g transform="translate(4832.00 1152.00) rotate(58) scale(496.00 160.00)"><ellipse cx="0" cy="0" rx="1" ry="1" fill="rgb(105,102,106)" fill-opacity="0.502"/></g>
<polygon points="1116.46,4467.55 1028.55,4656.07 883.54,4588.45 971.45,4399.93" fill="rgb(0,0,0)" fill-opacity="0.502"/>
<g transform="translate(1504.00 2736.00) rotate(249) scale(944.00 192.00)"><ellipse cx="0" cy="0" rx="1" ry="1" fill="rgb(126,125,128)" fill-opacity="0.502"/></g>
<g transform="translate(6704.00 2016.00) rotate(91) scale(1104.00 384.00)"><ellipse cx="0" cy="0" rx="1" ry="1" fill="rgb(92,92,94)" fill-opacity="0.502"/></g>
<circle cx="6576.00" cy="2336.00" r="512.00" fill="rgb(95,94,97)" fill-opacity="0.502"/>
<polygon points="5224.38,2554.80 5074.79,1785.21 5671.62,1669.20 5821.21,2438.79" fill="rgb(101,99,102)" fill-opacity="0.502"/>
<polygon points="1099.84,3866.06 1239.27,3651.37 1588.16,3877.94 1448.73,4092.63" fill="rgb(117,117,117)" fill-opacity="0.502"/>
<g transform="translate(2896.00 3360.00) rotate(248) scale(800.00 16.00)"><ellipse cx="0" cy="0" rx="1" ry="1" fill="rgb(0,0,0)" fill-opacity="0.502"/></g>
<circle cx="3488.00" cy="1456.00" r="48.00" fill="rgb(174,176,180)" fill-opacity="0.502"/>
<circle cx="4240.00" cy="4592.00" r="368.00" fill="rgb(115,115,117)" fill-opacity="0.502"/>
<polygon points="3458.70,2812.39 3394.95,2817.97 3357.30,2387.61 3421.05,2382.03" fill="rgb(140,137,144)" fill-opacity="0.502"/>
<g transform="translate(7296.00 1392.00) rotate(275) scale(400.00 208.00)"><ellipse cx="0" cy="0" rx="1" ry="1" fill="rgb(0,0,0)" fill-opacity="0.502"/></g>
<g transform="translate(4816.00 1120.00) rotate(15) scale(384.00 144.00)"><ellipse cx="0" cy="0" rx="1" ry="1" fill="rgb(107,104,107)" fill-opacity="0.502"/></g>
<g transform="translate(1440.00 2016.00) rotate(70) scale(256.00 208.00)"><ellipse cx="0" cy="0" rx="1" ry="1" fill="rgb(135,133,137)" fill-opacity="0.502"/></g>
<polygon points="2854.08,2936.45 2642.90,2717.77 2665.92,2695.55 2877.10,2914.23" fill="rgb(0,0,0)" fill-opacity="0.502"/>
<g transform="translate(2880.00 416.00) rotate(8) scale(144.00 1184.00)"><ellipse cx="0" cy="0" rx="1" ry="1" fill="rgb(124,124,125)" fill-opacity="0.502"/></g>
<g transform="translate(3904.00 2912.00) rotate(38) scale(80.00 48.00)"><ellipse cx="0" cy="0" rx="1" ry="1" fill="rgb(59,59,60)" fill-opacity="0.502"/></g>
<g transform="translate(1984.00 4128.00) rotate(13) scale(656.00 240.00)"><ellipse cx="0" cy="0" rx="1" ry="1" fill="rgb(123,123,125)" fill-opacity="0.502"/></g>
<circle cx="3072.00" cy="2032.00" r="112.00" fill="rgb(114,114,110)" fill-opacity="0.502"/>
<circle cx="2864.00" cy="3664.00" r="128.00" fill="rgb(127,127,132)" fill-opacity="0.502"/>
<g transform="translate(3216.00 3216.00) rotate(136) scale(32.00 176.00)"><ellipse cx="0" cy="0" rx="1" ry="1" fill="rgb(0,0,0)" fill-opacity="0.502"/></g>
<g transform="translate(3072.00 3392.00) rotate(168) scale(304.00 16.00)"><ellipse cx="0" cy="0" rx="1" ry="1" fill="rgb(139,139,130)" fill-opacity="0.502"/></g>
<circle cx="3744.00" cy="3648.00" r="64.00" fill="rgb(0,0,0)" fill-opacity="0.502"/>
<polygon points="5028.16,1796.25 4840.07,1537.37 4891.84,1499.75 5079.93,1758.63" fill="rgb(5,6,8)" fill-opacity="0.502"/>
<polygon points="2056.00,1816.00 2056.00,2472.00 1480.00,2472.00 1480.00,1816.00" fill="rgb(134,132,136)" fill-opacity="0.502"/>
<polygon points="7199.03,2437.60 7261.15,2669.42 7152.97,2698.40 7090.85,2466.58" fill="rgb(0,0,0)" fill-opacity="0.502"/>
<g transform="translate(4128.00 1360.00) rotate(264) scale(240.00 384.00)"><ellipse cx="0" cy="0" rx="1" ry="1" fill="rgb(118,116,119)" fill-opacity="0.502"/></g>
<polygon points="3281.96,2825.64 3399.79,2775.63 3406.04,2790.36 3288.21,2840.37" fill="rgb(242,243,232)" fill-opacity="0.502"/>
<g transform="translate(5488.00 3040.00) rotate(179) scale(640.00 336.00)"><ellipse cx="0" cy="0" rx="1" ry="1" fill="rgb(132,130,133)" fill-opacity="0.502"/></g>
<g transform="translate(4176.00 3104.00) rotate(13) scale(160.00 112.00)"><ellipse cx="0" cy="0" rx="1" ry="1" fill="rgb(130,127,130)" fill-opacity="0.502"/></g>
<polygon points="4881.94,1504.81 4822.19,1527.75 4782.06,1423.19 4841.81,1400.25" fill="rgb(0,0,0)" fill-opacity="0.502"/>
<circle cx="4544.00" cy="1584.00" r="256.00" fill="rgb(111,108,111)" fill-opacity="0.502"/>
<polygon points="4155.02,4287.76 3776.86,4221.08 3812.98,4016.24 4191.14,4082.92" fill="rgb(104,105,106)" fill-opacity="0.502"/>
<polygon points="4360.19,2320.48 4342.99,2365.29 3431.81,2015.52 3449.01,1970.71" fill="rgb(96,94,94)" fill-opacity="0.502"/>
<polygon points="398.23,1077.11 485.19,249.67 1105.77,314.89 1018.81,1142.33" fill="rgb(0,0,0)" fill-opacity="0.502"/>
<g transform="translate(3120.00 2336.00) rotate(134) scale(128.00 64.00)"><ellipse cx="0" cy="0" rx="1" ry="1" fill="rgb(186,185,188)" fill-opacity="0.502"/></g>
<polygon points="2694.43,3890.11 2697.78,3794.17 3033.57,3805.89 3030.22,3901.83" fill="rgb(119,119,121)" fill-opacity="0.502"/>
<g transform="translate(4080.00 3696.00) rotate(280) scale(160.00 176.00)"><ellipse cx="0" cy="0" rx="1" ry="1" fill="rgb(101,99,102)" fill-opacity="0.502"/></g>
<g transform="translate(4256.00 2240.00) rotate(267) scale(304.00 112.00)"><ellipse cx="0" cy="0" rx="1" ry="1" fill="rgb(61,58,62)" fill-opacity="0.502"/></g>
<circle cx="4688.00" cy="1296.00" r="80.00" fill="rgb(43,43,42)" fill-opacity="0.502"/>
<circle cx="4608.00" cy="2736.00" r="32.00" fill="rgb(54,50,45)" fill-opacity="0.502"/>
<polygon points="2694.89,1764.56 2732.40,1852.93 2585.11,1915.44 2547.60,1827.07" fill="rgb(92,92,96)" fill-opacity="0.502"/>
<g transform="translate(3600.00 4064.00) rotate(327) scale(192.00 144.00)"><ellipse cx="0" cy="0" rx="1" ry="1" fill="rgb(16,17,18)" fill-opacity="0.502"/></g>
<polygon points="5528.00,200.00 5528.00,984.00 4920.00,984.00 4920.00,200.00" fill="rgb(98,96,99)" fill-opacity="0.502"/>
<polygon points="4941.79,2448.77 4931.09,2436.88 5026.21,2351.23 5036.91,2363.12" fill="rgb(147,148,143)" fill-opacity="0.502"/>
<g transform="translate(1552.00 1360.00) rotate(12) scale(320.00 528.00)"><ellipse cx="0" cy="0" rx="1" ry="1" fill="rgb(140,138,141)" fill-opacity="0.502"/></g>
<circle cx="592.00" cy="4304.00" r="512.00" fill="rgb(0,0,0)" fill-opacity="0.502"/>
<circle cx="3664.00" cy="4352.00" r="96.00" fill="rgb(9,9,13)" fill-opacity="0.502"/>
<polygon points="4018.02,1733.08 3959.96,1500.21 4285.98,1418.92 4344.04,1651.79" fill="rgb(105,102,104)" fill-opacity="0.502"/>
<circle cx="656.00" cy="1424.00" r="448.00" fill="rgb(0,0,0)" fill-opacity="0.502"/>
<polygon points="3624.53,2947.17 3501.05,2516.52 3639.47,2476.83 3762.95,2907.48" fill="rgb(19,18,23)" fill-opacity="0.502"/>
<circle cx="1552.00" cy="4592.00" r="48.00" fill="rgb(169,169,184)" fill-opacity="0.502"/>
<circle cx="4176.00" cy="2784.00" r="64.00" fill="rgb(93,90,97)" fill-opacity="0.502"/>
<polygon points="6292.55,3716.39 6283.61,3460.55 6539.45,3451.61 6548.39,3707.45" fill="rgb(128,127,129)" fill-opacity="0.502"/>
<polygon points="4254.01,1915.92 4106.25,2105.04 4017.99,2036.08 4165.75,1846.96" fill="rgb(80,78,80)" fill-opacity="0.502"/>
<circle cx="3456.00" cy="2384.00" r="48.00" fill="rgb(0,0,0)" fill-opacity="0.502"/>
<polygon points="4505.30,2881.19 4363.49,2906.19 4310.70,2606.81 4452.51,2581.81" fill="rgb(145,142,150)" fill-opacity="0.502"/>
<g transform="translate(4880.00 1840.00) rotate(76) scale(80.00 432.00)"><ellipse cx="0" cy="0" rx="1" ry="1" fill="rgb(105,103,105)" fill-opacity="0.502"/></g>
<g transform="translate(4976.00 1056.00) rotate(311) scale(352.00 512.00)"><ellipse cx="0" cy="0" rx="1" ry="1" fill="rgb(102,100,104)" fill-opacity="0.502"/></g>
<polygon points="3637.85,1874.89 3496.04,1899.89 3482.15,1821.11 3623.96,1796.11" fill="rgb(85,85,85)" fill-opacity="0.502"/>
<g transform="translate(7200.00 4448.00) rotate(185) scale(112.00 208.00)"><ellipse cx="0" cy="0" rx="1" ry="1" fill="rgb(0,0,0)" fill-opacity="0.502"/></g>
<g transform="translate(4512.00 3200.00) rotate(84) scale(16.00 48.00)"><ellipse cx="0" cy="0" rx="1" ry="1" fill="rgb(0,0,0)" fill-opacity="0.502"/></g>
<circle cx="4864.00" cy="864.00" r="432.00" fill="rgb(103,101,104)" fill-opacity="0.502"/>
<circle cx="3184.00" cy="3376.00" r="32.00" fill="rgb(0,0,0)" fill-opacity="0.502"/>
<polygon points="3227.33,1963.77 3549.65,1630.00 3572.67,1652.23 3250.35,1986.00" fill="rgb(169,166,176)" fill-opacity="0.502"/>
<polygon points="4172.72,2363.39 4304.00,2054.10 4451.28,2116.61 4320.00,2425.90" fill="rgb(89,86,93)" fill-opacity="0.502"/>
<circle cx="5232.00" cy="1616.00" r="240.00" fill="rgb(101,99,103)" fill-opacity="0.502"/>
<g transform="translate(4320.00 1280.00) rotate(24) scale(480.00 112.00)"><ellipse cx="0" cy="0" rx="1" ry="1" fill="rgb(125,123,125)" fill-opacity="0.502"/></g>
<g transform="translate(3264.00 2720.00) rotate(178) scale(32.00 400.00)"><ellipse cx="0" cy="0" rx="1" ry="1" fill="rgb(75,72,76)" fill-opacity="0.502"/></g>
<polygon points="3410.84,2924.28 3424.49,2813.12 3869.16,2867.72 3855.51,2978.88" fill="rgb(57,53,57)" fill-opacity="0.502"/>
<circle cx="7744.00" cy="3008.00" r="656.00" fill="rgb(0,0,0)" fill-opacity="0.502"/>
<circle cx="2176.00" cy="3008.00" r="496.00" fill="rgb(124,124,127)" fill-opacity="0.502"/>
<polygon points="3477.27,4346.23 3340.12,4428.64 3018.73,3893.77 3155.88,3811.36" fill="rgb(21,22,23)" fill-opacity="0.502"/>
<polygon points="3488.11,1792.10 3472.48,1568.64 3711.89,1551.90 3727.52,1775.36" fill="rgb(103,100,102)" fill-opacity="0.502"/>
<circle cx="3104.00" cy="832.00" r="320.00" fill="rgb(121,119,122)" fill-opacity="0.502"/>
<polygon points="2968.02,2134.92 2972.43,2119.54 3479.98,2265.08 3475.57,2280.46" fill="rgb(204,203,207)" fill-opacity="0.502"/>
<circle cx="4864.00" cy="2256.00" r="160.00" fill="rgb(104,102,105)" fill-opacity="0.502"/>
<g transform="translate(3792.00 3152.00) rotate(191) scale(384.00 80.00)"><ellipse cx="0" cy="0" rx="1" ry="1" fill="rgb(131,129,131)" fill-opacity="0.502"/></g>
<circle cx="6624.00" cy="2672.00" r="464.00" fill="rgb(95,95,97)" fill-opacity="0.502"/>
<circle cx="4432.00" cy="1184.00" r="96.00" fill="rgb(29,27,32)" fill-opacity="0.502"/>
<circle cx="2832.00" cy="3104.00" r="96.00" fill="rgb(130,130,132)" fill-opacity="0.502"/>
<circle cx="3792.00" cy="3376.00" r="96.00" fill="rgb(9,9,12)" fill-opacity="0.502"/>
<g transform="translate(3440.00 4528.00) rotate(86) scale(112.00 96.00)"><ellipse cx="0" cy="0" rx="1" ry="1" fill="rgb(124,124,123)" fill-opacity="0.502"/></g>
<polygon points="3802.17,4036.98 3790.47,4026.07 4117.83,3675.02 4129.53,3685.93" fill="rgb(0,0,0)" fill-opacity="0.502"/>
<g transform="translate(3584.00 3328.00) rotate(117) scale(48.00 192.00)"><ellipse cx="0" cy="0" rx="1" ry="1" fill="rgb(0,0,2)" fill-opacity="0.502"/></g>
<circle cx="6624.00" cy="1856.00" r="448.00" fill="rgb(92,92,94)" fill-opacity="0.502"/>
<polygon points="7394.02,304.62 7437.56,1135.47 7133.98,1151.38 7090.44,320.53" fill="rgb(0,0,0)" fill-opacity="0.502"/>
<g transform="translate(3824.00 2704.00) rotate(234) scale(96.00 256.00)"><ellipse cx="0" cy="0" rx="1" ry="1" fill="rgb(10,9,13)" fill-opacity="0.502"/></g>
<circle cx="2976.00" cy="2080.00" r="176.00" fill="rgb(122,121,122)" fill-opacity="0.502"/>
<circle cx="6304.00" cy="2128.00" r="384.00" fill="rgb(96,95,98)" fill-opacity="0.502"/>
<polygon points="4372.42,2370.09 4160.45,2030.87 4187.58,2013.91 4399.55,2353.13" fill="rgb(39,39,38)" fill-opacity="0.502"/>
<circle cx="7904.00" cy="2208.00" r="832.00" fill="rgb(0,0,0)" fill-opacity="0.502"/>
<circle cx="3776.00" cy="2448.00" r="32.00" fill="rgb(227,222,229)" fill-opacity="0.502"/>
<polygon points="3315.40,3000.52 3261.42,2766.67 3292.60,2759.48 3346.58,2993.33" fill="rgb(151,149,162)" fill-opacity="0.502"/>
<g transform="translate(5088.00 2448.00) rotate(161) scale(272.00 16.00)"><ellipse cx="0" cy="0" rx="1" ry="1" fill="rgb(95,93,100)" fill-opacity="0.502"/></g>
<polygon points="4295.69,1240.79 4440.70,1173.17 4792.31,1927.21 4647.30,1994.83" fill="rgb(108,105,109)" fill-opacity="0.502"/>
<polygon points="3599.78,2923.73 3676.16,3005.64 3360.22,3300.27 3283.84,3218.36" fill="rgb(110,107,110)" fill-opacity="0.502"/>
<circle cx="6624.00" cy="1408.00" r="448.00" fill="rgb(91,91,90)" fill-opacity="0.502"/>
<g transform="translate(3856.00 1440.00) rotate(69) scale(208.00 400.00)"><ellipse cx="0" cy="0" rx="1" ry="1" fill="rgb(113,111,115)" fill-opacity="0.502"/></g>
<g transform="translate(2880.00 3136.00) rotate(153) scale(16.00 368.00)"><ellipse cx="0" cy="0" rx="1" ry="1" fill="rgb(160,160,160)" fill-opacity="0.502"/></g>
<circle cx="6128.00" cy="1760.00" r="464.00" fill="rgb(96,95,98)" fill-opacity="0.502"/>
<polygon points="4064.66,1067.39 3536.74,1076.60 3535.34,996.61 4063.26,987.40" fill="rgb(0,0,3)" fill-opacity="0.502"/>
<g transform="translate(3520.00 4096.00) rotate(56) scale(224.00 256.00)"><ellipse cx="0" cy="0" rx="1" ry="1" fill="rgb(14,14,17)" fill-opacity="0.502"/></g>
<circle cx="4208.00" cy="3776.00" r="144.00" fill="rgb(115,111,117)" fill-opacity="0.502"/>
<g transform="translate(3056.00 2384.00) rotate(204) scale(16.00 112.00)"><ellipse cx="0" cy="0" rx="1" ry="1" fill="rgb(101,99,99)" fill-opacity="0.502"/></g>
<g transform="translate(64.00 704.00) rotate(41) scale(704.00 1360.00)"><ellipse cx="0" cy="0" rx="1" ry="1" fill="rgb(0,0,0)" fill-opacity="0.502"/></g>
<g transform="translate(3568.00 2416.00) rotate(311) scale(128.00 16.00)"><ellipse cx="0" cy="0" rx="1" ry="1" fill="rgb(206,203,198)" fill-opacity="0.502"/></g>
<circle cx="2000.00" cy="4112.00" r="480.00" fill="rgb(121,121,123)" fill-opacity="0.502"/>
<circle cx="3792.00" cy="2224.00" r="64.00" fill="rgb(0,0,0)" fill-opacity="0.502"/>
<g transform="translate(7328.00 1712.00) rotate(157) scale(208.00 368.00)"><ellipse cx="0" cy="0" rx="1" ry="1" fill="rgb(0,0,0)" fill-opacity="0.502"/></g>
<polygon points="4304.00,272.00 4800.00,272.00 4800.00,1040.00 4304.00,1040.00" fill="rgb(105,104,106)" fill-opacity="0.502"/>
<circle cx="3680.00" cy="3424.00" r="48.00" fill="rgb(120,116,129)" fill-opacity="0.502"/>
<circle cx="4672.00" cy="2176.00" r="352.00" fill="rgb(106,104,107)" fill-opacity="0.502"/>
<polygon points="4166.85,3556.96 4386.10,3459.34 4425.15,3547.04 4205.90,3644.66" fill="rgb(62,62,63)" fill-opacity="0.502"/>
<g transform="translate(3840.00 752.00) rotate(181) scale(256.00 208.00)"><ellipse cx="0" cy="0" rx="1" ry="1" fill="rgb(114,111,114)" fill-opacity="0.502"/></g>
<polygon points="4081.69,3344.61 4085.29,3360.20 3742.31,3439.39 3738.71,3423.80" fill="rgb(125,121,127)" fill-opacity="0.502"/>
<circle cx="3152.00" cy="224.00" r="304.00" fill="rgb(121,120,121)" fill-opacity="0.502"/>
<g transform="translate(5568.00 2176.00) rotate(283) scale(464.00 448.00)"><ellipse cx="0" cy="0" rx="1" ry="1" fill="rgb(100,98,101)" fill-opacity="0.502"/></g>
<circle cx="4864.00" cy="3296.00" r="192.00" fill="rgb(131,130,131)" fill-opacity="0.502"/>
<g transform="translate(4128.00 1808.00) rotate(40) scale(192.00 48.00)"><ellipse cx="0" cy="0" rx="1" ry="1" fill="rgb(94,92,94)" fill-opacity="0.502"/></g>
<polygon points="6256.18,2887.98 5687.11,2724.80 5823.82,2248.02 6392.89,2411.20" fill="rgb(97,97,99)" fill-opacity="0.502"/>
<circle cx="4560.00" cy="1968.00" r="192.00" fill="rgb(110,108,113)" fill-opacity="0.502"/>
<circle cx="2256.00" cy="1856.00" r="352.00" fill="rgb(133,131,134)" fill-opacity="0.502"/>
<polygon points="4608.82,2775.55 4306.75,2402.52 4319.18,2392.45 4621.25,2765.48" fill="rgb(130,128,136)" fill-opacity="0.502"/>
<g transform="translate(3248.00 4592.00) rotate(149) scale(176.00 192.00)"><ellipse cx="0" cy="0" rx="1" ry="1" fill="rgb(107,107,109)" fill-opacity="0.502"/></g>
<g transform="translate(2416.00 1616.00) rotate(82) scale(352.00 240.00)"><ellipse cx="0" cy="0" rx="1" ry="1" fill="rgb(130,128,131)" fill-opacity="0.502"/></g>
<polygon points="2749.44,1378.14 3026.56,1538.14 3010.56,1565.86 2733.44,1405.86" fill="rgb(170,170,173)" fill-opacity="0.502"/>
<polygon points="3445.99,3225.79 3420.96,3067.76 3658.01,3030.21 3683.04,3188.24" fill="rgb(130,128,132)" fill-opacity="0.502"/>
<circle cx="3664.00" cy="2976.00" r="96.00" fill="rgb(82,77,80)" fill-opacity="0.502"/>
<polygon points="3785.01,1244.70 3936.04,1058.19 4134.99,1219.30 3983.96,1405.81" fill="rgb(119,116,120)" fill-opacity="0.502"/>
<circle cx="3536.00" cy="2352.00" r="64.00" fill="rgb(0,0,1)" fill-opacity="0.502"/>
<polygon points="4950.15,2653.34 5037.71,2412.77 5097.85,2434.66 5010.29,2675.23" fill="rgb(22,20,24)" fill-opacity="0.502"/>
<circle cx="4960.00" cy="1328.00" r="160.00" fill="rgb(100,98,100)" fill-opacity="0.502"/>
<polygon points="1901.39,2585.45 1602.00,1176.92 2290.61,1030.55 2590.00,2439.08" fill="rgb(134,132,136)" fill-opacity="0.502"/>
<circle cx="7888.00" cy="3952.00" r="800.00" fill="rgb(0,0,0)" fill-opacity="0.502"/>
<circle cx="6352.00" cy="64.00" r="208.00" fill="rgb(96,93,98)" fill-opacity="0.502"/>
<polygon points="4496.59,3629.93 4488.11,3643.50 4447.41,3618.07 4455.89,3604.50" fill="rgb(255,255,255)" fill-opacity="0.502"/>
<g transform="translate(6864.00 688.00) rotate(24) scale(144.00 432.00)"><ellipse cx="0" cy="0" rx="1" ry="1" fill="rgb(90,91,90)" fill-opacity="0.502"/></g>
<polygon points="3101.12,2330.35 2703.31,2372.16 2674.88,2101.65 3072.69,2059.84" fill="rgb(132,131,134)" fill-opacity="0.502"/>
<g transform="translate(1568.00 1440.00) rotate(265) scale(416.00 336.00)"><ellipse cx="0" cy="0" rx="1" ry="1" fill="rgb(140,137,141)" fill-opacity="0.502"/></g>
<polygon points="3008.16,2536.87 2993.65,2543.63 2959.84,2471.13 2974.35,2464.37" fill="rgb(22,24,22)" fill-opacity="0.502"/>
<g transform="translate(912.00 1360.00) rotate(295) scale(480.00 48.00)"><ellipse cx="0" cy="0" rx="1" ry="1" fill="rgb(0,0,0)" fill-opacity="0.502"/></g>
<circle cx="3200.00" cy="2128.00" r="48.00" fill="rgb(252,250,239)" fill-opacity="0.502"/>
<polygon points="2705.47,1805.62 2901.13,1616.68 3134.53,1858.38 2938.87,2047.32" fill="rgb(122,120,122)" fill-opacity="0.502"/>
<polygon points="5166.37,4029.79 5209.11,4249.67 4753.63,4338.21 4710.89,4118.33" fill="rgb(120,119,122)" fill-opacity="0.502"/>
<g transform="translate(4448.00 3824.00) rotate(164) scale(224.00 304.00)"><ellipse cx="0" cy="0" rx="1" ry="1" fill="rgb(127,126,128)" fill-opacity="0.502"/></g>
<circle cx="8160.00" cy="224.00" r="400.00" fill="rgb(0,0,0)" fill-opacity="0.502"/>
<circle cx="3424.00" cy="3456.00" r="48.00" fill="rgb(137,133,127)" fill-opacity="0.502"/>
<polygon points="3593.52,2414.50 3780.05,2713.02 3766.48,2721.50 3579.95,2422.98" fill="rgb(19,16,16)" fill-opacity="0.502"/>
<polygon points="4768.67,1794.90 4725.93,2014.79 4223.33,1917.10 4266.07,1697.21" fill="rgb(110,107,112)" fill-opacity="0.502"/>
<circle cx="2848.00" cy="3904.00" r="128.00" fill="rgb(117,117,118)" fill-opacity="0.502"/>
<g transform="translate(4672.00 1072.00) rotate(86) scale(112.00 192.00)"><ellipse cx="0" cy="0" rx="1" ry="1" fill="rgb(110,107,112)" fill-opacity="0.502"/></g>
<circle cx="3824.00" cy="2672.00" r="224.00" fill="rgb(16,14,18)" fill-opacity="0.502"/>
<polygon points="5118.95,2430.05 4969.74,2550.88 4577.05,2065.95 4726.26,1945.12" fill="rgb(105,103,106)" fill-opacity="0.502"/>
<circle cx="3984.00" cy="3328.00" r="64.00" fill="rgb(11,9,15)" fill-opacity="0.502"/>
<polygon points="672.03,1506.16 1070.51,1471.30 1103.97,1853.84 705.49,1888.70" fill="rgb(0,0,0)" fill-opacity="0.502"/>
<circle cx="6848.00" cy="624.00" r="240.00" fill="rgb(90,90,90)" fill-opacity="0.502"/>
<circle cx="4256.00" cy="3984.00" r="256.00" fill="rgb(122,121,124)" fill-opacity="0.502"/>
<circle cx="464.00" cy="3088.00" r="624.00" fill="rgb(0,0,0)" fill-opacity="0.502"/>
<polygon points="2833.18,4598.60 2809.40,4577.18 2830.82,4553.40 2854.60,4574.82" fill="rgb(62,61,63)" fill-opacity="0.502"/>
<polygon points="3605.83,1042.36 3628.85,1064.59 3562.17,1133.64 3539.15,1111.41" fill="rgb(37,34,52)" fill-opacity="0.502"/>
<g transform="translate(2368.00 2544.00) rotate(255) scale(432.00 208.00)"><ellipse cx="0" cy="0" rx="1" ry="1" fill="rgb(132,130,132)" fill-opacity="0.502"/></g>
<polygon points="3128.64,2810.68 3150.69,2887.58 2935.36,2949.32 2913.31,2872.42" fill="rgb(136,132,131)" fill-opacity="0.502"/>
<g transform="translate(3840.00 4544.00) rotate(263) scale(80.00 976.00)"><ellipse cx="0" cy="0" rx="1" ry="1" fill="rgb(115,115,117)" fill-opacity="0.502"/></g>
<circle cx="4992.00" cy="2096.00" r="64.00" fill="rgb(124,124,123)" fill-opacity="0.502"/>
<circle cx="1520.00" cy="176.00" r="320.00" fill="rgb(140,138,141)" fill-opacity="0.502"/>
<polygon points="4391.11,2915.93 4224.70,2858.63 4328.89,2556.07 4495.30,2613.37" fill="rgb(135,132,136)" fill-opacity="0.502"/>
<circle cx="5232.00" cy="3808.00" r="416.00" fill="rgb(125,123,127)" fill-opacity="0.502"/>
<circle cx="6912.00" cy="176.00" r="176.00" fill="rgb(93,93,94)" fill-opacity="0.502"/>
<polygon points="1364.94,2208.36 2213.07,2373.22 2155.06,2671.64 1306.93,2506.78" fill="rgb(129,127,129)" fill-opacity="0.502"/>
<polygon points="3293.15,1698.64 3253.15,1629.36 3474.85,1501.36 3514.85,1570.64" fill="rgb(144,141,142)" fill-opacity="0.502"/>
<g transform="translate(1312.00 3968.00) rotate(287) scale(656.00 64.00)"><ellipse cx="0" cy="0" rx="1" ry="1" fill="rgb(117,117,117)" fill-opacity="0.502"/></g>
<circle cx="4672.00" cy="3072.00" r="32.00" fill="rgb(43,45,47)" fill-opacity="0.502"/>
<g transform="translate(6944.00 2432.00) rotate(174) scale(112.00 864.00)"><ellipse cx="0" cy="0" rx="1" ry="1" fill="rgb(92,92,94)" fill-opacity="0.502"/></g>
<polygon points="3823.70,2102.12 4086.80,2219.26 4080.30,2233.88 3817.20,2116.74" fill="rgb(240,242,236)" fill-opacity="0.502"/>
<polygon points="4113.28,2851.83 4288.11,3060.19 4030.72,3276.17 3855.89,3067.81" fill="rgb(129,127,130)" fill-opacity="0.502"/>
<g transform="translate(2496.00 4512.00) rotate(41) scale(288.00 480.00)"><ellipse cx="0" cy="0" rx="1" ry="1" fill="rgb(124,124,126)" fill-opacity="0.502"/></g>
<polygon points="3171.24,773.43 3361.81,796.83 3324.76,1098.57 3134.19,1075.17" fill="rgb(119,117,118)" fill-opacity="0.502"/>
<polygon points="3229.83,3164.98 2902.47,2813.93 2914.17,2803.02 3241.53,3154.07" fill="rgb(163,160,162)" fill-opacity="0.502"/>
<g transform="translate(912.00 976.00) rotate(7) scale(176.00 656.00)"><ellipse cx="0" cy="0" rx="1" ry="1" fill="rgb(0,0,0)" fill-opacity="0.502"/></g>
<circle cx="3424.00" cy="2992.00" r="80.00" fill="rgb(126,123,123)" fill-opacity="0.502"/>
<circle cx="5296.00" cy="2752.00" r="128.00" fill="rgb(133,130,133)" fill-opacity="0.502"/>
<polygon points="2926.06,1270.88 2865.24,1469.79 2849.94,1465.12 2910.76,1266.21" fill="rgb(179,178,178)" fill-opacity="0.502"/>
<circle cx="6352.00" cy="3888.00" r="400.00" fill="rgb(125,125,127)" fill-opacity="0.502"/>
<circle cx="6176.00" cy="2912.00" r="48.00" fill="rgb(116,108,113)" fill-opacity="0.502"/>
<polygon points="3428.62,1077.89 3056.03,985.00 3195.38,426.11 3567.97,519.00" fill="rgb(119,117,120)" fill-opacity="0.502"/>
<circle cx="3600.00" cy="1952.00" r="128.00" fill="rgb(52,50,52)" fill-opacity="0.502"/>
<circle cx="5136.00" cy="1536.00" r="192.00" fill="rgb(101,98,101)" fill-opacity="0.502"/>
<polygon points="5128.05,3034.21 4742.63,3462.26 4599.95,3333.79 4985.37,2905.74" fill="rgb(134,131,135)" fill-opacity="0.502"/>
<circle cx="1552.00" cy="3712.00" r="384.00" fill="rgb(121,121,123)" fill-opacity="0.502"/>
<polygon points="4513.03,1920.98 4495.45,1585.44 4846.97,1567.02 4864.55,1902.56" fill="rgb(109,106,108)" fill-opacity="0.502"/>
<circle cx="3440.00" cy="3744.00" r="112.00" fill="rgb(0,0,4)" fill-opacity="0.502"/>
</g>
</svg>