<?xml version="1.0" standalone="no"?>
<svg xmlns="http://www.w3.org/2000/svg" width="8192" height="4608" viewBox="0 0 8192 4608" style="overflow:hidden">
<defs>
<clipPath id="c"><rect x="0" y="0" width="8192" height="4608"/></clipPath>
</defs>
<rect width="8192" height="4608" fill="rgb(78,78,78)"/>
<g clip-path="url(#c)">
<g transform="translate(3088.00 560.00) rotate(75) scale(1424.00 2144.00)"><ellipse cx="0" cy="0" rx="1" ry="1" fill="rgb(255,255,255)" fill-opacity="0.502"/></g>
<circle cx="1968.00" cy="4176.00" r="912.00" fill="rgb(237,237,237)" fill-opacity="0.502"/>
<circle cx="0.00" cy="2880.00" r="1600.00" fill="rgb(0,0,0)" fill-opacity="0.502"/>
<circle cx="8176.00" cy="3600.00" r="2848.00" fill="rgb(0,0,0)" fill-opacity="0.502"/>
<circle cx="352.00" cy="784.00" r="816.00" fill="rgb(0,0,0)" fill-opacity="0.502"/>
<circle cx="512.00" cy="4144.00" r="624.00" fill="rgb(0,0,0)" fill-opacity="0.502"/>
<circle cx="4016.00" cy="3728.00" r="880.00" fill="rgb(0,0,0)" fill-opacity="0.502"/>
<g transform="translate(6096.00 256.00) rotate(107) scale(464.00 1024.00)"><ellipse cx="0" cy="0" rx="1" ry="1" fill="rgb(199,199,198)" fill-opacity="0.502"/></g>
<polygon points="6165.66,753.51 6898.86,817.66 6826.34,1646.49 6093.14,1582.34" fill="rgb(195,195,196)" fill-opacity="0.502"/>
<circle cx="7696.00" cy="624.00" r="768.00" fill="rgb(0,0,0)" fill-opacity="0.502"/>
<circle cx="4720.00" cy="1344.00" r="592.00" fill="rgb(222,222,221)" fill-opacity="0.502"/>
<circle cx="1648.00" cy="1568.00" r="576.00" fill="rgb(241,240,241)" fill-opacity="0.502"/>
<circle cx="8176.00" cy="3264.00" r="1728.00" fill="rgb(0,0,0)" fill-opacity="0.502"/>
<circle cx="2880.00" cy="0.00" r="1792.00" fill="rgb(233,233,233)" fill-opacity="0.502"/>
<g transform="translate(6784.00 1904.00) rotate(252) scale(752.00 208.00)"><ellipse cx="0" cy="0" rx="1" ry="1" fill="rgb(130,130,131)" fill-opacity="0.502"/></g>
<g transform="translate(720.00 592.00) rotate(270) scale(8176.00 384.00)"><ellipse cx="0" cy="0" rx="1" ry="1" fill="rgb(0,0,0)" fill-opacity="0.502"/></g>
<circle cx="96.00" cy="2576.00" r="1040.00" fill="rgb(0,0,0)" fill-opacity="0.502"/>
<circle cx="2960.00" cy="4448.00" r="528.00" fill="rgb(139,139,139)" fill-opacity="0.502"/>
<g transform="translate(7776.00 864.00) rotate(271) scale(6240.00 688.00)"><ellipse cx="0" cy="0" rx="1" ry="1" fill="rgb(0,0,0)" fill-opacity="0.502"/></g>
<circle cx="3872.00" cy="2752.00" r="464.00" fill="rgb(12,12,13)" fill-opacity="0.502"/>
<g transform="translate(4400.00 4384.00) rotate(86) scale(1552.00 576.00)"><ellipse cx="0" cy="0" rx="1" ry="1" fill="rgb(0,0,0)" fill-opacity="0.502"/></g>
<circle cx="1792.00" cy="3408.00" r="720.00" fill="rgb(156,156,156)" fill-opacity="0.502"/>
<polygon points="1007.78,2618.01 1899.38,2183.15 2320.22,3045.99 1428.62,3480.85" fill="rgb(94,94,94)" fill-opacity="0.502"/>
<circle cx="336.00" cy="624.00" r="768.00" fill="rgb(0,0,0)" fill-opacity="0.502"/>
<polygon points="3701.83,1420.39 4190.78,1658.86 3882.17,2291.61 3393.22,2053.14" fill="rgb(20,20,20)" fill-opacity="0.502"/>
<circle cx="4976.00" cy="752.00" r="176.00" fill="rgb(20,20,18)" fill-opacity="0.502"/>
<g transform="translate(6256.00 704.00) rotate(145) scale(288.00 720.00)"><ellipse cx="0" cy="0" rx="1" ry="1" fill="rgb(183,183,182)" fill-opacity="0.502"/></g>
<g transform="translate(3280.00 2384.00) rotate(167) scale(208.00 320.00)"><ellipse cx="0" cy="0" rx="1" ry="1" fill="rgb(192,192,193)" fill-opacity="0.502"/></g>
<polygon points="5555.66,1039.82 6401.57,1282.38 6044.34,2528.18 5198.43,2285.62" fill="rgb(38,38,38)" fill-opacity="0.502"/>
<g transform="translate(4304.00 1168.00) rotate(72) scale(576.00 304.00)"><ellipse cx="0" cy="0" rx="1" ry="1" fill="rgb(232,232,233)" fill-opacity="0.502"/></g>
<circle cx="5584.00" cy="928.00" r="400.00" fill="rgb(0,0,0)" fill-opacity="0.502"/>
<circle cx="3520.00" cy="3376.00" r="544.00" fill="rgb(41,41,41)" fill-opacity="0.502"/>
<g transform="translate(3760.00 1216.00) rotate(199) scale(336.00 304.00)"><ellipse cx="0" cy="0" rx="1" ry="1" fill="rgb(226,226,225)" fill-opacity="0.502"/></g>
<g transform="translate(4560.00 4448.00) rotate(75) scale(1392.00 480.00)"><ellipse cx="0" cy="0" rx="1" ry="1" fill="rgb(0,0,0)" fill-opacity="0.502"/></g>
<g transform="translate(5904.00 2192.00) rotate(106) scale(416.00 304.00)"><ellipse cx="0" cy="0" rx="1" ry="1" fill="rgb(95,95,94)" fill-opacity="0.502"/></g>
<g transform="translate(3856.00 1840.00) rotate(64) scale(368.00 480.00)"><ellipse cx="0" cy="0" rx="1" ry="1" fill="rgb(67,67,67)" fill-opacity="0.502"/></g>
<circle cx="4672.00" cy="2352.00" r="608.00" fill="rgb(67,67,67)" fill-opacity="0.502"/>
<g transform="translate(1376.00 3760.00) rotate(87) scale(416.00 272.00)"><ellipse cx="0" cy="0" rx="1" ry="1" fill="rgb(196,196,195)" fill-opacity="0.502"/></g>
<g transform="translate(3072.00 3952.00) rotate(34) scale(96.00 128.00)"><ellipse cx="0" cy="0" rx="1" ry="1" fill="rgb(217,217,219)" fill-opacity="0.502"/></g>
<polygon points="-149.97,1733.33 130.71,815.28 1109.97,1114.67 829.29,2032.72" fill="rgb(0,0,0)" fill-opacity="0.502"/>
<circle cx="5136.00" cy="2800.00" r="320.00" fill="rgb(8,8,9)" fill-opacity="0.502"/>
<circle cx="480.00" cy="320.00" r="624.00" fill="rgb(0,0,0)" fill-opacity="0.502"/>
<circle cx="1968.00" cy="1984.00" r="224.00" fill="rgb(103,102,101)" fill-opacity="0.502"/>
<polygon points="6192.54,1821.62 6276.71,1649.06 6607.46,1810.38 6523.29,1982.94" fill="rgb(136,136,137)" fill-opacity="0.502"/>
<circle cx="2896.00" cy="4272.00" r="384.00" fill="rgb(121,121,121)" fill-opacity="0.502"/>
<g transform="translate(3312.00 4592.00) rotate(295) scale(336.00 256.00)"><ellipse cx="0" cy="0" rx="1" ry="1" fill="rgb(167,167,168)" fill-opacity="0.502"/></g>
<g transform="translate(1648.00 4592.00) rotate(98) scale(1152.00 544.00)"><ellipse cx="0" cy="0" rx="1" ry="1" fill="rgb(179,179,179)" fill-opacity="0.502"/></g>
<circle cx="448.00" cy="4176.00" r="656.00" fill="rgb(0,0,0)" fill-opacity="0.502"/>
<g transform="translate(4816.00 816.00) rotate(225) scale(64.00 368.00)"><ellipse cx="0" cy="0" rx="1" ry="1" fill="rgb(43,43,40)" fill-opacity="0.502"/></g>
<circle cx="2944.00" cy="1312.00" r="416.00" fill="rgb(232,232,232)" fill-opacity="0.502"/>
<g transform="translate(320.00 1872.00) rotate(316) scale(832.00 736.00)"><ellipse cx="0" cy="0" rx="1" ry="1" fill="rgb(0,0,0)" fill-opacity="0.502"/></g>
<circle cx="5024.00" cy="1680.00" r="288.00" fill="rgb(173,173,171)" fill-opacity="0.502"/>
<polygon points="7072.00,2096.00 6672.00,2096.00 6672.00,0.00 7072.00,0.00" fill="rgb(99,99,98)" fill-opacity="0.502"/>
<g transform="translate(3632.00 2240.00) rotate(343) scale(416.00 80.00)"><ellipse cx="0" cy="0" rx="1" ry="1" fill="rgb(17,17,19)" fill-opacity="0.502"/></g>
<polygon points="5153.85,1179.59 5244.96,1384.22 4894.15,1540.41 4803.04,1335.78" fill="rgb(63,63,65)" fill-opacity="0.502"/>
<polygon points="6589.31,956.05 6607.71,1131.09 6066.69,1187.95 6048.29,1012.91" fill="rgb(222,222,220)" fill-opacity="0.502"/>
<polygon points="5029.09,3409.79 5328.99,4455.64 5082.91,4526.21 4783.01,3480.36" fill="rgb(163,163,166)" fill-opacity="0.502"/>
<circle cx="6528.00" cy="752.00" r="320.00" fill="rgb(135,135,135)" fill-opacity="0.502"/>
<g transform="translate(5632.00 4192.00) rotate(84) scale(1088.00 352.00)"><ellipse cx="0" cy="0" rx="1" ry="1" fill="rgb(20,20,21)" fill-opacity="0.502"/></g>
<circle cx="7568.00" cy="416.00" r="496.00" fill="rgb(0,0,0)" fill-opacity="0.502"/>
<polygon points="1392.46,2141.62 1136.49,2146.09 1103.54,258.38 1359.51,253.91" fill="rgb(222,221,221)" fill-opacity="0.502"/>
<circle cx="6400.00" cy="2592.00" r="512.00" fill="rgb(32,32,33)" fill-opacity="0.502"/>
<g transform="translate(464.00 3152.00) rotate(271) scale(5824.00 640.00)"><ellipse cx="0" cy="0" rx="1" ry="1" fill="rgb(0,0,0)" fill-opacity="0.502"/></g>
<polygon points="5660.20,94.79 5289.96,536.04 4995.80,289.21 5366.04,-152.04" fill="rgb(118,118,117)" fill-opacity="0.502"/>
<g transform="translate(5088.00 3536.00) rotate(262) scale(432.00 272.00)"><ellipse cx="0" cy="0" rx="1" ry="1" fill="rgb(119,119,118)" fill-opacity="0.502"/></g>
<g transform="translate(6192.00 3456.00) rotate(253) scale(1344.00 512.00)"><ellipse cx="0" cy="0" rx="1" ry="1" fill="rgb(54,54,53)" fill-opacity="0.502"/></g>
<g transform="translate(7680.00 1552.00) rotate(89) scale(5376.00 592.00)"><ellipse cx="0" cy="0" rx="1" ry="1" fill="rgb(0,0,0)" fill-opacity="0.502"/></g>
<circle cx="4496.00" cy="4128.00" r="496.00" fill="rgb(0,0,0)" fill-opacity="0.502"/>
<g transform="translate(2176.00 2256.00) rotate(159) scale(448.00 144.00)"><ellipse cx="0" cy="0" rx="1" ry="1" fill="rgb(16,16,15)" fill-opacity="0.502"/></g>
<circle cx="2768.00" cy="3152.00" r="272.00" fill="rgb(41,41,41)" fill-opacity="0.502"/>
<g transform="translate(5456.00 2032.00) rotate(247) scale(192.00 176.00)"><ellipse cx="0" cy="0" rx="1" ry="1" fill="rgb(0,0,0)" fill-opacity="0.502"/></g>
<circle cx="2768.00" cy="3840.00" r="176.00" fill="rgb(52,52,54)" fill-opacity="0.502"/>
<g transform="translate(2752.00 4208.00) rotate(189) scale(160.00 1152.00)"><ellipse cx="0" cy="0" rx="1" ry="1" fill="rgb(93,93,93)" fill-opacity="0.502"/></g>
<polygon points="1136.00,2560.00 1552.00,2560.00 1552.00,2608.00 1136.00,2608.00" fill="rgb(241,241,244)" fill-opacity="0.502"/>
<g transform="translate(3888.00 1184.00) rotate(60) scale(416.00 368.00)"><ellipse cx="0" cy="0" rx="1" ry="1" fill="rgb(214,214,213)" fill-opacity="0.502"/></g>
<polygon points="4048.75,828.92 4736.20,91.72 5087.25,419.08 4399.80,1156.28" fill="rgb(208,207,208)" fill-opacity="0.502"/>
<g transform="translate(2800.00 2192.00) rotate(93) scale(176.00 288.00)"><ellipse cx="0" cy="0" rx="1" ry="1" fill="rgb(29,29,29)" fill-opacity="0.502"/></g>
<g transform="translate(6720.00 1824.00) rotate(196) scale(144.00 368.00)"><ellipse cx="0" cy="0" rx="1" ry="1" fill="rgb(69,69,68)" fill-opacity="0.502"/></g>
<g transform="translate(5024.00 2320.00) rotate(192) scale(32.00 208.00)"><ellipse cx="0" cy="0" rx="1" ry="1" fill="rgb(172,172,166)" fill-opacity="0.502"/></g>
<circle cx="3328.00" cy="448.00" r="336.00" fill="rgb(174,174,173)" fill-opacity="0.502"/>
<circle cx="4144.00" cy="1984.00" r="304.00" fill="rgb(77,77,78)" fill-opacity="0.502"/>
<circle cx="3616.00" cy="2736.00" r="192.00" fill="rgb(0,0,0)" fill-opacity="0.502"/>
<g transform="translate(4848.00 1168.00) rotate(85) scale(176.00 240.00)"><ellipse cx="0" cy="0" rx="1" ry="1" fill="rgb(221,221,221)" fill-opacity="0.502"/></g>
<g transform="translate(1616.00 800.00) rotate(333) scale(496.00 576.00)"><ellipse cx="0" cy="0" rx="1" ry="1" fill="rgb(196,196,196)" fill-opacity="0.502"/></g>
<circle cx="5344.00" cy="2208.00" r="144.00" fill="rgb(0,0,0)" fill-opacity="0.502"/>
<polygon points="2994.83,4050.77 3200.80,4079.72 3165.17,4333.23 2959.20,4304.28" fill="rgb(197,197,199)" fill-opacity="0.502"/>
<circle cx="4688.00" cy="2896.00" r="128.00" fill="rgb(163,163,166)" fill-opacity="0.502"/>
<g transform="translate(5344.00 1328.00) rotate(63) scale(288.00 144.00)"><ellipse cx="0" cy="0" rx="1" ry="1" fill="rgb(126,126,126)" fill-opacity="0.502"/></g>
<g transform="translate(6640.00 512.00) rotate(323) scale(144.00 240.00)"><ellipse cx="0" cy="0" rx="1" ry="1" fill="rgb(199,199,196)" fill-opacity="0.502"/></g>
<circle cx="7008.00" cy="4336.00" r="336.00" fill="rgb(1,1,2)" fill-opacity="0.502"/>
<polygon points="3354.82,3471.03 4023.13,3541.27 3941.18,4320.97 3272.87,4250.73" fill="rgb(42,42,43)" fill-opacity="0.502"/>
<polygon points="4043.51,2840.67 4158.18,3240.56 3604.49,3399.33 3489.82,2999.44" fill="rgb(70,70,70)" fill-opacity="0.502"/>
<polygon points="3584.00,2704.00 3584.00,2048.00 3920.00,2048.00 3920.00,2704.00" fill="rgb(5,5,6)" fill-opacity="0.502"/>
<polygon points="5149.79,3097.29 5479.45,2421.39 5810.21,2582.71 5480.55,3258.61" fill="rgb(78,78,78)" fill-opacity="0.502"/>
<g transform="translate(6832.00 0.00) rotate(215) scale(192.00 240.00)"><ellipse cx="0" cy="0" rx="1" ry="1" fill="rgb(159,159,151)" fill-opacity="0.502"/></g>
<polygon points="7177.60,2085.86 7206.59,2194.05 6758.40,2314.14 6729.41,2205.95" fill="rgb(160,160,164)" fill-opacity="0.502"/>
<polygon points="6048.77,1316.08 5874.69,1457.04 5663.23,1195.92 5837.31,1054.96" fill="rgb(104,104,104)" fill-opacity="0.502"/>
<g transform="translate(4976.00 1952.00) rotate(303) scale(160.00 320.00)"><ellipse cx="0" cy="0" rx="1" ry="1" fill="rgb(110,110,110)" fill-opacity="0.502"/></g>
<g transform="translate(2800.00 2624.00) rotate(136) scale(144.00 400.00)"><ellipse cx="0" cy="0" rx="1" ry="1" fill="rgb(113,113,112)" fill-opacity="0.502"/></g>
<polygon points="3328.04,3867.10 3359.24,4121.20 3263.96,4132.90 3232.76,3878.80" fill="rgb(0,0,0)" fill-opacity="0.502"/>
<polygon points="5702.72,1505.74 5884.64,1606.58 5481.28,2334.26 5299.36,2233.42" fill="rgb(0,0,0)" fill-opacity="0.502"/>
<polygon points="6475.88,727.77 6034.68,805.56 6004.12,632.23 6445.32,554.44" fill="rgb(75,75,72)" fill-opacity="0.502"/>
<polygon points="1285.15,3188.25 1318.73,3361.01 1098.85,3403.75 1065.27,3230.99" fill="rgb(26,26,23)" fill-opacity="0.502"/>
<polygon points="5984.71,1054.99 5699.04,1158.96 5551.29,753.01 5836.96,649.04" fill="rgb(0,0,0)" fill-opacity="0.502"/>
<g transform="translate(1456.00 1456.00) rotate(11) scale(304.00 384.00)"><ellipse cx="0" cy="0" rx="1" ry="1" fill="rgb(219,218,219)" fill-opacity="0.502"/></g>
<circle cx="2256.00" cy="3232.00" r="304.00" fill="rgb(115,115,115)" fill-opacity="0.502"/>
<polygon points="6468.00,174.63 6753.85,209.73 6748.00,257.37 6462.15,222.27" fill="rgb(27,27,32)" fill-opacity="0.502"/>
<circle cx="352.00" cy="3344.00" r="752.00" fill="rgb(0,0,0)" fill-opacity="0.502"/>
<polygon points="7519.11,2367.76 7320.14,2501.97 7024.89,2064.24 7223.86,1930.03" fill="rgb(0,0,0)" fill-opacity="0.502"/>
<polygon points="1786.49,3003.62 1498.07,2523.60 1909.51,2276.38 2197.93,2756.40" fill="rgb(94,94,94)" fill-opacity="0.502"/>
<polygon points="5578.92,447.80 5734.52,608.93 5205.08,1120.20 5049.48,959.07" fill="rgb(53,53,53)" fill-opacity="0.502"/>
<circle cx="2832.00" cy="1824.00" r="208.00" fill="rgb(135,135,134)" fill-opacity="0.502"/>
<circle cx="4576.00" cy="544.00" r="208.00" fill="rgb(216,214,218)" fill-opacity="0.502"/>
<circle cx="6544.00" cy="2544.00" r="384.00" fill="rgb(22,22,23)" fill-opacity="0.502"/>
<circle cx="2240.00" cy="2816.00" r="400.00" fill="rgb(98,98,98)" fill-opacity="0.502"/>
<polygon points="5187.79,3970.34 5180.25,3538.41 5452.21,3533.66 5459.75,3965.59" fill="rgb(43,43,41)" fill-opacity="0.502"/>
<circle cx="5728.00" cy="2096.00" r="112.00" fill="rgb(174,174,169)" fill-opacity="0.502"/>
<polygon points="2929.45,1106.23 2971.86,1712.75 1870.55,1789.77 1828.14,1183.25" fill="rgb(230,229,228)" fill-opacity="0.502"/>
<g transform="translate(4368.00 2608.00) rotate(320) scale(128.00 272.00)"><ellipse cx="0" cy="0" rx="1" ry="1" fill="rgb(97,97,97)" fill-opacity="0.502"/></g>
<g transform="translate(1504.00 1616.00) rotate(243) scale(128.00 448.00)"><ellipse cx="0" cy="0" rx="1" ry="1" fill="rgb(219,217,219)" fill-opacity="0.502"/></g>
<polygon points="4849.98,3435.01 4635.73,3078.43 4718.02,3028.99 4932.27,3385.57" fill="rgb(172,172,175)" fill-opacity="0.502"/>
<g transform="translate(3392.00 1104.00) rotate(352) scale(16.00 1120.00)"><ellipse cx="0" cy="0" rx="1" ry="1" fill="rgb(0,0,0)" fill-opacity="0.502"/></g>
<polygon points="5067.78,1943.89 5003.54,2035.64 4964.22,2008.11 5028.46,1916.36" fill="rgb(228,228,222)" fill-opacity="0.502"/>
<g transform="translate(1408.00 3424.00) rotate(246) scale(48.00 272.00)"><ellipse cx="0" cy="0" rx="1" ry="1" fill="rgb(193,193,190)" fill-opacity="0.502"/></g>
<polygon points="3688.00,2840.00 3688.00,2984.00 3400.00,2984.00 3400.00,2840.00" fill="rgb(0,0,0)" fill-opacity="0.502"/>
<circle cx="5008.00" cy="3936.00" r="48.00" fill="rgb(0,0,0)" fill-opacity="0.502"/>
<g transform="translate(3264.00 2384.00) rotate(269) scale(64.00 640.00)"><ellipse cx="0" cy="0" rx="1" ry="1" fill="rgb(140,140,138)" fill-opacity="0.502"/></g>
<g transform="translate(5824.00 240.00) rotate(357) scale(160.00 384.00)"><ellipse cx="0" cy="0" rx="1" ry="1" fill="rgb(184,184,180)" fill-opacity="0.502"/></g>
<polygon points="5604.64,352.22 5451.63,399.00 5339.36,31.78 5492.37,-15.00" fill="rgb(75,75,70)" fill-opacity="0.502"/>
<circle cx="6752.00" cy="3824.00" r="320.00" fill="rgb(30,30,31)" fill-opacity="0.502"/>
<g transform="translate(2432.00 4128.00) rotate(102) scale(704.00 160.00)"><ellipse cx="0" cy="0" rx="1" ry="1" fill="rgb(182,182,183)" fill-opacity="0.502"/></g>
<polygon points="5329.05,921.27 4981.38,866.20 5038.95,502.73 5386.62,557.80" fill="rgb(64,64,63)" fill-opacity="0.502"/>
<g transform="translate(1840.00 1744.00) rotate(353) scale(16.00 1104.00)"><ellipse cx="0" cy="0" rx="1" ry="1" fill="rgb(153,153,152)" fill-opacity="0.502"/></g>
<circle cx="4208.00" cy="2000.00" r="224.00" fill="rgb(49,49,48)" fill-opacity="0.502"/>
<polygon points="4795.12,1492.28 5369.72,1452.11 5380.88,1611.72 4806.28,1651.89" fill="rgb(213,213,211)" fill-opacity="0.502"/>
<circle cx="1600.00" cy="2288.00" r="208.00" fill="rgb(38,38,41)" fill-opacity="0.502"/>
<circle cx="2416.00" cy="2448.00" r="64.00" fill="rgb(232,232,229)" fill-opacity="0.502"/>
<circle cx="1760.00" cy="4128.00" r="672.00" fill="rgb(171,171,171)" fill-opacity="0.502"/>
<circle cx="5056.00" cy="4064.00" r="112.00" fill="rgb(162,162,164)" fill-opacity="0.502"/>
<polygon points="5151.03,2361.27 5497.43,2759.75 5424.97,2822.73 5078.57,2424.25" fill="rgb(0,0,0)" fill-opacity="0.502"/>
<circle cx="7824.00" cy="2080.00" r="752.00" fill="rgb(0,0,0)" fill-opacity="0.502"/>
<g transform="translate(1472.00 2336.00) rotate(69) scale(176.00 432.00)"><ellipse cx="0" cy="0" rx="1" ry="1" fill="rgb(45,45,46)" fill-opacity="0.502"/></g>
<g transform="translate(6272.00 2304.00) rotate(163) scale(304.00 496.00)"><ellipse cx="0" cy="0" rx="1" ry="1" fill="rgb(42,42,41)" fill-opacity="0.502"/></g>
<polygon points="5232.00,4528.00 5232.00,4592.00 5136.00,4592.00 5136.00,4528.00" fill="rgb(171,171,173)" fill-opacity="0.502"/>
<polygon points="4371.33,745.29 4912.25,600.35 4924.67,646.71 4383.75,791.65" fill="rgb(222,221,224)" fill-opacity="0.502"/>
<circle cx="4720.00" cy="1472.00" r="64.00" fill="rgb(0,0,0)" fill-opacity="0.502"/>
<g transform="translate(2560.00 2432.00) rotate(353) scale(1040.00 48.00)"><ellipse cx="0" cy="0" rx="1" ry="1" fill="rgb(208,208,210)" fill-opacity="0.502"/></g>
<circle cx="6880.00" cy="496.00" r="240.00" fill="rgb(107,107,107)" fill-opacity="0.502"/>
<polygon points="5046.09,2202.15 4905.02,2396.32 4697.91,2245.85 4838.98,2051.68" fill="rgb(28,28,28)" fill-opacity="0.502"/>
<circle cx="3760.00" cy="2384.00" r="208.00" fill="rgb(23,23,22)" fill-opacity="0.502"/>
<g transform="translate(6000.00 1472.00) rotate(180) scale(80.00 416.00)"><ellipse cx="0" cy="0" rx="1" ry="1" fill="rgb(3,3,3)" fill-opacity="0.502"/></g>
<circle cx="2976.00" cy="4592.00" r="160.00" fill="rgb(186,186,185)" fill-opacity="0.502"/>
<polygon points="2714.91,2025.80 1854.19,2101.10 1829.09,1814.20 2689.81,1738.90" fill="rgb(141,141,141)" fill-opacity="0.502"/>
<polygon points="5520.49,1526.31 5487.02,1908.85 5359.51,1897.69 5392.98,1515.15" fill="rgb(31,31,29)" fill-opacity="0.502"/>
<g transform="translate(2304.00 2944.00) rotate(251) scale(128.00 256.00)"><ellipse cx="0" cy="0" rx="1" ry="1" fill="rgb(128,128,126)" fill-opacity="0.502"/></g>
<circle cx="7264.00" cy="3184.00" r="416.00" fill="rgb(0,0,0)" fill-opacity="0.502"/>
<polygon points="4719.70,4174.87 4877.88,4097.71 5088.30,4529.13 4930.12,4606.29" fill="rgb(0,0,0)" fill-opacity="0.502"/>
<circle cx="3648.00" cy="2176.00" r="256.00" fill="rgb(31,31,32)" fill-opacity="0.502"/>
<circle cx="4352.00" cy="128.00" r="416.00" fill="rgb(192,189,193)" fill-opacity="0.502"/>
<circle cx="5344.00" cy="176.00" r="320.00" fill="rgb(133,132,132)" fill-opacity="0.502"/>
<circle cx="2672.00" cy="3584.00" r="96.00" fill="rgb(169,169,165)" fill-opacity="0.502"/>
<g transform="translate(6304.00 1072.00) rotate(223) scale(336.00 192.00)"><ellipse cx="0" cy="0" rx="1" ry="1" fill="rgb(188,188,186)" fill-opacity="0.502"/></g>
<polygon points="1959.19,2052.50 1960.87,1956.52 2360.81,1963.50 2359.13,2059.48" fill="rgb(168,168,168)" fill-opacity="0.502"/>
<g transform="translate(3424.00 2176.00) rotate(73) scale(352.00 112.00)"><ellipse cx="0" cy="0" rx="1" ry="1" fill="rgb(93,93,94)" fill-opacity="0.502"/></g>
<polygon points="7023.04,1566.35 7143.45,1880.03 6784.96,2017.65 6664.55,1703.97" fill="rgb(49,49,50)" fill-opacity="0.502"/>
<polygon points="2975.71,3209.24 3134.84,3192.51 3168.29,3510.76 3009.16,3527.49" fill="rgb(0,0,0)" fill-opacity="0.502"/>
<circle cx="4432.00" cy="3024.00" r="176.00" fill="rgb(0,0,0)" fill-opacity="0.502"/>
<circle cx="7504.00" cy="3776.00" r="496.00" fill="rgb(0,0,0)" fill-opacity="0.502"/>
<polygon points="0.00,0.00 1088.00,0.00 1088.00,4592.00 0.00,4592.00" fill="rgb(0,0,0)" fill-opacity="0.502"/>
<polygon points="7119.28,171.33 6910.14,493.38 6896.72,484.67 7105.86,162.62" fill="rgb(209,209,209)" fill-opacity="0.502"/>
<polygon points="5922.70,3761.80 6417.26,3629.28 6653.30,4510.20 6158.74,4642.72" fill="rgb(58,58,58)" fill-opacity="0.502"/>
<polygon points="6199.89,1492.91 6362.71,1391.16 6600.11,1771.09 6437.29,1872.84" fill="rgb(80,80,79)" fill-opacity="0.502"/>
<polygon points="4013.81,2268.17 4041.88,2176.37 4210.19,2227.83 4182.12,2319.63" fill="rgb(182,182,185)" fill-opacity="0.502"/>
<circle cx="1504.00" cy="176.00" r="400.00" fill="rgb(187,187,186)" fill-opacity="0.502"/>
<circle cx="6000.00" cy="624.00" r="144.00" fill="rgb(173,173,173)" fill-opacity="0.502"/>
<g transform="translate(2960.00 144.00) rotate(339) scale(272.00 496.00)"><ellipse cx="0" cy="0" rx="1" ry="1" fill="rgb(202,202,202)" fill-opacity="0.502"/></g>
<g transform="translate(2240.00 3312.00) rotate(92) scale(80.00 416.00)"><ellipse cx="0" cy="0" rx="1" ry="1" fill="rgb(160,160,161)" fill-opacity="0.502"/></g>
<g transform="translate(5120.00 208.00) rotate(181) scale(128.00 192.00)"><ellipse cx="0" cy="0" rx="1" ry="1" fill="rgb(162,161,161)" fill-opacity="0.502"/></g>
<g transform="translate(2304.00 2656.00) rotate(168) scale(896.00 128.00)"><ellipse cx="0" cy="0" rx="1" ry="1" fill="rgb(57,57,56)" fill-opacity="0.502"/></g>
<circle cx="6832.00" cy="4128.00" r="240.00" fill="rgb(24,24,25)" fill-opacity="0.502"/>
<circle cx="1504.00" cy="912.00" r="416.00" fill="rgb(200,200,200)" fill-opacity="0.502"/>
<polygon points="5052.20,4415.96 4335.98,4734.84 4179.80,4384.04 4896.02,4065.16" fill="rgb(0,0,0)" fill-opacity="0.502"/>
<polygon points="5713.64,515.18 5826.17,250.07 5870.36,268.82 5757.83,533.93" fill="rgb(119,119,117)" fill-opacity="0.502"/>
<polygon points="2743.89,3994.91 2701.93,3891.06 2776.11,3861.09 2818.07,3964.94" fill="rgb(219,219,214)" fill-opacity="0.502"/>
<circle cx="4112.00" cy="1952.00" r="288.00" fill="rgb(71,71,71)" fill-opacity="0.502"/>
<polygon points="2680.87,2939.15 1118.84,3075.81 1095.13,2804.85 2657.16,2668.19" fill="rgb(109,109,108)" fill-opacity="0.502"/>
<polygon points="5045.56,1162.83 4817.44,1310.97 4634.44,1029.17 4862.56,881.03" fill="rgb(217,217,216)" fill-opacity="0.502"/>
<polygon points="3104.00,3888.00 2976.00,3888.00 2976.00,3712.00 3104.00,3712.00" fill="rgb(223,223,220)" fill-opacity="0.502"/>
<circle cx="1440.00" cy="4224.00" r="352.00" fill="rgb(175,175,175)" fill-opacity="0.502"/>
<circle cx="8048.00" cy="128.00" r="976.00" fill="rgb(0,0,0)" fill-opacity="0.502"/>
<circle cx="4256.00" cy="864.00" r="400.00" fill="rgb(213,213,212)" fill-opacity="0.502"/>
<g transform="translate(2880.00 3936.00) rotate(0) scale(64.00 544.00)"><ellipse cx="0" cy="0" rx="1" ry="1" fill="rgb(30,30,29)" fill-opacity="0.502"/></g>
<polygon points="2850.36,3204.25 2452.55,3162.44 2477.64,2923.75 2875.45,2965.56" fill="rgb(25,25,27)" fill-opacity="0.502"/>
<polygon points="2765.92,4539.66 2430.74,4516.22 2434.08,4468.34 2769.26,4491.78" fill="rgb(19,19,18)" fill-opacity="0.502"/>
<g transform="translate(5008.00 3472.00) rotate(360) scale(48.00 256.00)"><ellipse cx="0" cy="0" rx="1" ry="1" fill="rgb(30,30,26)" fill-opacity="0.502"/></g>
<polygon points="3555.11,1736.92 3497.77,1886.29 3228.89,1783.08 3286.23,1633.71" fill="rgb(217,216,218)" fill-opacity="0.502"/>
<polygon points="6326.70,1393.92 6641.90,1147.65 6681.30,1198.08 6366.10,1444.35" fill="rgb(125,125,121)" fill-opacity="0.502"/>
<polygon points="7334.43,2493.81 7090.19,2646.43 6937.57,2402.19 7181.81,2249.57" fill="rgb(0,0,0)" fill-opacity="0.502"/>
<circle cx="5680.00" cy="864.00" r="240.00" fill="rgb(8,8,10)" fill-opacity="0.502"/>
<polygon points="2693.35,2383.60 2542.31,2197.09 2666.65,2096.40 2817.69,2282.91" fill="rgb(105,105,104)" fill-opacity="0.502"/>
<g transform="translate(1280.00 1936.00) rotate(206) scale(192.00 96.00)"><ellipse cx="0" cy="0" rx="1" ry="1" fill="rgb(106,103,106)" fill-opacity="0.502"/></g>
<polygon points="4758.17,540.99 4715.86,239.95 4921.83,211.01 4964.14,512.05" fill="rgb(151,151,146)" fill-opacity="0.502"/>
<polygon points="7030.10,743.15 6982.55,1043.40 6713.90,1000.85 6761.45,700.60" fill="rgb(98,98,99)" fill-opacity="0.502"/>
<circle cx="2944.00" cy="4416.00" r="64.00" fill="rgb(4,4,4)" fill-opacity="0.502"/>
<g transform="translate(4976.00 2800.00) rotate(303) scale(320.00 144.00)"><ellipse cx="0" cy="0" rx="1" ry="1" fill="rgb(38,38,38)" fill-opacity="0.502"/></g>
<polygon points="6945.99,2294.14 6878.15,2336.53 6734.01,2105.86 6801.85,2063.47" fill="rgb(238,238,241)" fill-opacity="0.502"/>
<g transform="translate(1520.00 3744.00) rotate(216) scale(416.00 416.00)"><ellipse cx="0" cy="0" rx="1" ry="1" fill="rgb(160,160,159)" fill-opacity="0.502"/></g>
<polygon points="4738.62,2324.43 4771.35,2289.33 5005.38,2507.57 4972.65,2542.67" fill="rgb(20,20,17)" fill-opacity="0.502"/>
<polygon points="5036.47,1754.91 4552.37,1921.60 4531.53,1861.09 5015.63,1694.40" fill="rgb(22,22,22)" fill-opacity="0.502"/>
<g transform="translate(4896.00 3456.00) rotate(189) scale(48.00 224.00)"><ellipse cx="0" cy="0" rx="1" ry="1" fill="rgb(167,167,166)" fill-opacity="0.502"/></g>
<circle cx="3040.00" cy="800.00" r="288.00" fill="rgb(204,204,203)" fill-opacity="0.502"/>
<polygon points="5472.00,816.00 6464.00,816.00 6464.00,832.00 5472.00,832.00" fill="rgb(43,43,49)" fill-opacity="0.502"/>
<polygon points="4299.95,1583.60 4503.60,1379.95 4628.05,1504.40 4424.40,1708.05" fill="rgb(235,234,236)" fill-opacity="0.502"/>
<circle cx="6640.00" cy="3488.00" r="368.00" fill="rgb(32,32,33)" fill-opacity="0.502"/>
<circle cx="7440.00" cy="1536.00" r="400.00" fill="rgb(0,0,0)" fill-opacity="0.502"/>
<g transform="translate(4768.00 3744.00) rotate(262) scale(432.00 80.00)"><ellipse cx="0" cy="0" rx="1" ry="1" fill="rgb(0,0,0)" fill-opacity="0.502"/></g>
<polygon points="1103.31,3730.53 1183.20,3726.35 1216.69,4365.47 1136.80,4369.65" fill="rgb(180,180,179)" fill-opacity="0.502"/>
<circle cx="3616.00" cy="4336.00" r="144.00" fill="rgb(75,75,77)" fill-opacity="0.502"/>
<circle cx="3376.00" cy="3904.00" r="224.00" fill="rgb(23,23,23)" fill-opacity="0.502"/>
<g transform="translate(2768.00 4160.00) rotate(292) scale(112.00 48.00)"><ellipse cx="0" cy="0" rx="1" ry="1" fill="rgb(226,226,226)" fill-opacity="0.502"/></g>
<polygon points="5984.20,246.82 6283.58,299.61 6255.80,457.18 5956.42,404.39" fill="rgb(221,221,219)" fill-opacity="0.502"/>
<circle cx="2880.00" cy="576.00" r="416.00" fill="rgb(196,196,195)" fill-opacity="0.502"/>
<circle cx="1440.00" cy="1552.00" r="256.00" fill="rgb(217,216,218)" fill-opacity="0.502"/>
<g transform="translate(2800.00 4464.00) rotate(173) scale(48.00 624.00)"><ellipse cx="0" cy="0" rx="1" ry="1" fill="rgb(180,180,183)" fill-opacity="0.502"/></g>
<circle cx="5328.00" cy="2816.00" r="80.00" fill="rgb(187,187,187)" fill-opacity="0.502"/>
<g transform="translate(5136.00 912.00) rotate(0) scale(128.00 192.00)"><ellipse cx="0" cy="0" rx="1" ry="1" fill="rgb(107,107,107)" fill-opacity="0.502"/></g>
<g transform="translate(5552.00 800.00) rotate(137) scale(240.00 400.00)"><ellipse cx="0" cy="0" rx="1" ry="1" fill="rgb(27,26,27)" fill-opacity="0.502"/></g>
<circle cx="3536.00" cy="3920.00" r="160.00" fill="rgb(70,70,71)" fill-opacity="0.502"/>
<polygon points="5992.21,4157.25 5606.77,4707.72 5239.79,4450.75 5625.23,3900.28" fill="rgb(25,25,26)" fill-opacity="0.502"/>
<polygon points="6017.12,786.38 5937.60,1046.50 5646.88,957.62 5726.40,697.50" fill="rgb(4,4,4)" fill-opacity="0.502"/>
<polygon points="2581.06,4516.64 2586.64,4580.39 2506.94,4587.36 2501.36,4523.61" fill="rgb(0,0,0)" fill-opacity="0.502"/>
<polygon points="7093.72,1366.38 7045.21,1535.56 6522.28,1385.62 6570.79,1216.44" fill="rgb(67,67,67)" fill-opacity="0.502"/>
<g transform="translate(3312.00 2512.00) rotate(55) scale(224.00 240.00)"><ellipse cx="0" cy="0" rx="1" ry="1" fill="rgb(118,118,117)" fill-opacity="0.502"/></g>
<circle cx="3136.00" cy="3664.00" r="112.00" fill="rgb(17,17,13)" fill-opacity="0.502"/>
<circle cx="5840.00" cy="1952.00" r="112.00" fill="rgb(128,128,130)" fill-opacity="0.502"/>
<polygon points="2000.00,1808.00 2000.00,2064.00 1680.00,2064.00 1680.00,1808.00" fill="rgb(126,126,127)" fill-opacity="0.502"/>
<polygon points="1149.18,2112.57 1139.13,1824.74 1634.82,1807.43 1644.87,2095.26" fill="rgb(126,123,127)" fill-opacity="0.502"/>
<polygon points="5010.21,513.52 5841.70,542.55 5837.79,654.48 5006.30,625.45" fill="rgb(46,45,45)" fill-opacity="0.502"/>
<circle cx="2944.00" cy="2960.00" r="96.00" fill="rgb(130,130,124)" fill-opacity="0.502"/>
<g transform="translate(4752.00 768.00) rotate(300) scale(80.00 96.00)"><ellipse cx="0" cy="0" rx="1" ry="1" fill="rgb(75,76,74)" fill-opacity="0.502"/></g>
<circle cx="3600.00" cy="3488.00" r="224.00" fill="rgb(58,58,58)" fill-opacity="0.502"/>
<circle cx="3840.00" cy="2896.00" r="112.00" fill="rgb(75,75,76)" fill-opacity="0.502"/>
<circle cx="5184.00" cy="2992.00" r="112.00" fill="rgb(0,0,0)" fill-opacity="0.502"/>
<circle cx="5952.00" cy="2896.00" r="432.00" fill="rgb(48,48,48)" fill-opacity="0.502"/>
<g transform="translate(6784.00 2624.00) rotate(167) scale(128.00 448.00)"><ellipse cx="0" cy="0" rx="1" ry="1" fill="rgb(11,11,12)" fill-opacity="0.502"/></g>
<polygon points="5800.20,1645.83 5883.44,1570.89 6343.80,2082.17 6260.56,2157.11" fill="rgb(54,54,51)" fill-opacity="0.502"/>
<circle cx="2688.00" cy="2768.00" r="48.00" fill="rgb(0,0,0)" fill-opacity="0.502"/>
<g transform="translate(4000.00 3280.00) rotate(17) scale(256.00 112.00)"><ellipse cx="0" cy="0" rx="1" ry="1" fill="rgb(40,40,38)" fill-opacity="0.502"/></g>
<circle cx="5264.00" cy="1424.00" r="128.00" fill="rgb(161,161,164)" fill-opacity="0.502"/>
<polygon points="5080.00,1800.00 5080.00,1864.00 4968.00,1864.00 4968.00,1800.00" fill="rgb(247,247,251)" fill-opacity="0.502"/>
<g transform="translate(4464.00 3424.00) rotate(99) scale(368.00 256.00)"><ellipse cx="0" cy="0" rx="1" ry="1" fill="rgb(0,0,0)" fill-opacity="0.502"/></g>
<g transform="translate(6608.00 1280.00) rotate(280) scale(720.00 16.00)"><ellipse cx="0" cy="0" rx="1" ry="1" fill="rgb(108,108,109)" fill-opacity="0.502"/></g>
<circle cx="6928.00" cy="1120.00" r="128.00" fill="rgb(92,92,91)" fill-opacity="0.502"/>
<g transform="translate(1808.00 1968.00) rotate(173) scale(704.00 144.00)"><ellipse cx="0" cy="0" rx="1" ry="1" fill="rgb(145,144,146)" fill-opacity="0.502"/></g>
<circle cx="4624.00" cy="3696.00" r="224.00" fill="rgb(0,0,0)" fill-opacity="0.502"/>
<polygon points="3770.38,544.65 3906.04,988.37 3477.62,1119.35 3341.96,675.63" fill="rgb(215,215,215)" fill-opacity="0.502"/>
<g transform="translate(4144.00 2960.00) rotate(177) scale(96.00 528.00)"><ellipse cx="0" cy="0" rx="1" ry="1" fill="rgb(20,20,20)" fill-opacity="0.502"/></g>
<polygon points="3397.39,2464.97 3288.00,2782.66 3242.61,2767.03 3352.00,2449.34" fill="rgb(198,198,197)" fill-opacity="0.502"/>
<polygon points="5043.57,4068.05 5193.92,4013.32 5292.43,4283.95 5142.08,4338.68" fill="rgb(170,170,168)" fill-opacity="0.502"/>
<circle cx="3104.00" cy="4016.00" r="80.00" fill="rgb(197,197,197)" fill-opacity="0.502"/>
<g transform="translate(6528.00 1824.00) rotate(50) scale(160.00 144.00)"><ellipse cx="0" cy="0" rx="1" ry="1" fill="rgb(102,102,102)" fill-opacity="0.502"/></g>
<g transform="translate(4640.00 1872.00) rotate(231) scale(144.00 192.00)"><ellipse cx="0" cy="0" rx="1" ry="1" fill="rgb(112,112,111)" fill-opacity="0.502"/></g>
<g transform="translate(5968.00 2656.00) rotate(86) scale(560.00 416.00)"><ellipse cx="0" cy="0" rx="1" ry="1" fill="rgb(49,49,49)" fill-opacity="0.502"/></g>
<polygon points="2975.54,4392.49 3372.56,4343.75 3376.46,4375.51 2979.44,4424.25" fill="rgb(0,0,0)" fill-opacity="0.502"/>
<g transform="translate(5840.00 2608.00) rotate(290) scale(64.00 512.00)"><ellipse cx="0" cy="0" rx="1" ry="1" fill="rgb(49,49,50)" fill-opacity="0.502"/></g>
<circle cx="7440.00" cy="1024.00" r="368.00" fill="rgb(0,0,0)" fill-opacity="0.502"/>
<g transform="translate(5648.00 4512.00) rotate(297) scale(224.00 368.00)"><ellipse cx="0" cy="0" rx="1" ry="1" fill="rgb(38,38,39)" fill-opacity="0.502"/></g>
<circle cx="1392.00" cy="1312.00" r="304.00" fill="rgb(202,202,202)" fill-opacity="0.502"/>
<circle cx="6464.00" cy="2800.00" r="336.00" fill="rgb(24,24,24)" fill-opacity="0.502"/>
<circle cx="6944.00" cy="160.00" r="144.00" fill="rgb(133,133,134)" fill-opacity="0.502"/>
<polygon points="6331.21,1299.09 6436.06,1225.67 6628.79,1500.91 6523.94,1574.33" fill="rgb(146,146,149)" fill-opacity="0.502"/>
<circle cx="1440.00" cy="4144.00" r="176.00" fill="rgb(184,184,184)" fill-opacity="0.502"/>
<circle cx="3824.00" cy="176.00" r="512.00" fill="rgb(196,195,196)" fill-opacity="0.502"/>
<circle cx="6880.00" cy="1008.00" r="80.00" fill="rgb(77,77,72)" fill-opacity="0.502"/>
<circle cx="2256.00" cy="3040.00" r="80.00" fill="rgb(180,180,178)" fill-opacity="0.502"/>
<g transform="translate(1792.00 3408.00) rotate(182) scale(368.00 32.00)"><ellipse cx="0" cy="0" rx="1" ry="1" fill="rgb(81,81,77)" fill-opacity="0.502"/></g>
<circle cx="3776.00" cy="4256.00" r="64.00" fill="rgb(0,0,0)" fill-opacity="0.502"/>
<g transform="translate(5136.00 3392.00) rotate(123) scale(144.00 64.00)"><ellipse cx="0" cy="0" rx="1" ry="1" fill="rgb(154,154,158)" fill-opacity="0.502"/></g>
<polygon points="5894.23,1331.15 5952.00,1407.82 5849.77,1484.85 5792.00,1408.18" fill="rgb(168,168,162)" fill-opacity="0.502"/>
<polygon points="2820.73,3974.35 2789.23,4010.57 2475.27,3737.65 2506.77,3701.43" fill="rgb(123,123,122)" fill-opacity="0.502"/>
<g transform="translate(1344.00 0.00) rotate(11) scale(224.00 512.00)"><ellipse cx="0" cy="0" rx="1" ry="1" fill="rgb(183,183,184)" fill-opacity="0.502"/></g>
<polygon points="5552.56,897.55 5168.06,787.29 5247.44,510.45 5631.94,620.71" fill="rgb(57,57,58)" fill-opacity="0.502"/>
<g transform="translate(5008.00 560.00) rotate(248) scale(32.00 384.00)"><ellipse cx="0" cy="0" rx="1" ry="1" fill="rgb(184,182,181)" fill-opacity="0.502"/></g>
<polygon points="5011.44,4361.07 5192.74,4788.18 5148.56,4806.93 4967.26,4379.82" fill="rgb(0,0,0)" fill-opacity="0.502"/>
<g transform="translate(2240.00 4496.00) rotate(21) scale(256.00 800.00)"><ellipse cx="0" cy="0" rx="1" ry="1" fill="rgb(171,171,172)" fill-opacity="0.502"/></g>
<g transform="translate(4720.00 4272.00) rotate(63) scale(1008.00 224.00)"><ellipse cx="0" cy="0" rx="1" ry="1" fill="rgb(0,0,0)" fill-opacity="0.502"/></g>
<circle cx="3088.00" cy="1072.00" r="288.00" fill="rgb(217,217,218)" fill-opacity="0.502"/>
<polygon points="2736.08,1762.38 1890.15,1821.54 1887.92,1789.62 2733.85,1730.46" fill="rgb(77,77,67)" fill-opacity="0.502"/>
<polygon points="1439.67,3276.22 2117.22,3156.75 2128.33,3219.78 1450.78,3339.25" fill="rgb(6,6,6)" fill-opacity="0.502"/>
<circle cx="2256.00" cy="1472.00" r="304.00" fill="rgb(221,220,221)" fill-opacity="0.502"/>
<polygon points="4654.55,2235.66 4431.78,2212.25 4433.45,2196.34 4656.22,2219.75" fill="rgb(221,221,228)" fill-opacity="0.502"/>
<polygon points="1244.70,398.81 1603.27,481.59 1459.30,1105.19 1100.73,1022.41" fill="rgb(209,209,209)" fill-opacity="0.502"/>
<circle cx="4752.00" cy="2208.00" r="32.00" fill="rgb(215,215,223)" fill-opacity="0.502"/>
<polygon points="5323.64,304.36 5383.71,-74.91 5652.36,-32.36 5592.29,346.91" fill="rgb(90,91,90)" fill-opacity="0.502"/>
<polygon points="3845.98,2504.63 4176.75,2625.02 4122.02,2775.37 3791.25,2654.98" fill="rgb(11,11,12)" fill-opacity="0.502"/>
<g transform="translate(5408.00 3296.00) rotate(192) scale(64.00 880.00)"><ellipse cx="0" cy="0" rx="1" ry="1" fill="rgb(57,57,55)" fill-opacity="0.502"/></g>
<circle cx="3168.00" cy="2208.00" r="128.00" fill="rgb(195,195,195)" fill-opacity="0.502"/>
<polygon points="5879.97,953.36 6039.37,967.31 6024.03,1142.64 5864.63,1128.69" fill="rgb(0,0,0)" fill-opacity="0.502"/>
<g transform="translate(7776.00 928.00) rotate(258) scale(1520.00 624.00)"><ellipse cx="0" cy="0" rx="1" ry="1" fill="rgb(0,0,0)" fill-opacity="0.502"/></g>
<g transform="translate(5040.00 4112.00) rotate(222) scale(96.00 64.00)"><ellipse cx="0" cy="0" rx="1" ry="1" fill="rgb(99,99,104)" fill-opacity="0.502"/></g>
<polygon points="3105.30,4005.07 2881.31,3354.56 2926.70,3338.93 3150.69,3989.44" fill="rgb(172,172,169)" fill-opacity="0.502"/>
<g transform="translate(2160.00 3808.00) rotate(245) scale(320.00 400.00)"><ellipse cx="0" cy="0" rx="1" ry="1" fill="rgb(167,167,168)" fill-opacity="0.502"/></g>
<g transform="translate(2416.00 3024.00) rotate(210) scale(128.00 256.00)"><ellipse cx="0" cy="0" rx="1" ry="1" fill="rgb(92,92,92)" fill-opacity="0.502"/></g>
<polygon points="3431.87,1800.94 3535.85,1515.28 3656.13,1559.06 3552.15,1844.72" fill="rgb(116,116,116)" fill-opacity="0.502"/>
<polygon points="4059.43,1992.61 4144.75,1838.68 4564.57,2071.39 4479.25,2225.32" fill="rgb(50,50,48)" fill-opacity="0.502"/>
<g transform="translate(4560.00 784.00) rotate(90) scale(128.00 64.00)"><ellipse cx="0" cy="0" rx="1" ry="1" fill="rgb(175,176,176)" fill-opacity="0.502"/></g>
<polygon points="970.32,2771.19 960.31,2707.97 1813.68,2572.81 1823.69,2636.03" fill="rgb(0,0,0)" fill-opacity="0.502"/>
<polygon points="4385.92,2632.23 4448.95,2621.12 4510.08,2967.77 4447.05,2978.88" fill="rgb(15,15,17)" fill-opacity="0.502"/>
<polygon points="4025.30,1498.45 4078.98,1533.31 3782.70,1989.55 3729.02,1954.69" fill="rgb(67,67,68)" fill-opacity="0.502"/>
<polygon points="3091.42,2005.62 3608.80,1837.51 3628.58,1898.38 3111.20,2066.49" fill="rgb(16,16,20)" fill-opacity="0.502"/>
<polygon points="1914.33,2361.88 1806.96,2521.06 1541.67,2342.12 1649.04,2182.94" fill="rgb(91,91,89)" fill-opacity="0.502"/>
<g transform="translate(4976.00 2192.00) rotate(311) scale(48.00 336.00)"><ellipse cx="0" cy="0" rx="1" ry="1" fill="rgb(42,42,42)" fill-opacity="0.502"/></g>
<g transform="translate(1584.00 2976.00) rotate(92) scale(304.00 480.00)"><ellipse cx="0" cy="0" rx="1" ry="1" fill="rgb(93,93,93)" fill-opacity="0.502"/></g>
<polygon points="5836.08,4263.66 5446.34,4173.68 5539.92,3768.34 5929.66,3858.32" fill="rgb(12,12,12)" fill-opacity="0.502"/>
<circle cx="4640.00" cy="608.00" r="128.00" fill="rgb(221,220,223)" fill-opacity="0.502"/>
<circle cx="3776.00" cy="1072.00" r="384.00" fill="rgb(217,217,216)" fill-opacity="0.502"/>
<polygon points="5173.94,683.95 5437.04,566.81 5450.06,596.05 5186.96,713.19" fill="rgb(112,111,113)" fill-opacity="0.502"/>
<g transform="translate(2400.00 2336.00) rotate(245) scale(32.00 208.00)"><ellipse cx="0" cy="0" rx="1" ry="1" fill="rgb(4,4,3)" fill-opacity="0.502"/></g>
<polygon points="4554.01,1306.40 4828.30,1141.59 4885.99,1237.60 4611.70,1402.41" fill="rgb(216,216,211)" fill-opacity="0.502"/>
<g transform="translate(5040.00 3792.00) rotate(171) scale(112.00 96.00)"><ellipse cx="0" cy="0" rx="1" ry="1" fill="rgb(198,198,200)" fill-opacity="0.502"/></g>
<circle cx="5040.00" cy="912.00" r="96.00" fill="rgb(148,148,147)" fill-opacity="0.502"/>
<g transform="translate(2656.00 4112.00) rotate(86) scale(192.00 32.00)"><ellipse cx="0" cy="0" rx="1" ry="1" fill="rgb(0,0,0)" fill-opacity="0.502"/></g>
<polygon points="6009.49,1900.37 6306.75,2168.02 5878.51,2643.63 5581.25,2375.98" fill="rgb(54,54,54)" fill-opacity="0.502"/>
<g transform="translate(3328.00 3408.00) rotate(323) scale(96.00 496.00)"><ellipse cx="0" cy="0" rx="1" ry="1" fill="rgb(51,51,54)" fill-opacity="0.502"/></g>
<polygon points="3948.71,4574.86 3785.55,4072.70 3907.29,4033.14 4070.45,4535.30" fill="rgb(53,53,53)" fill-opacity="0.502"/>
<polygon points="5115.93,1887.04 4930.60,1981.47 4916.07,1952.96 5101.40,1858.53" fill="rgb(0,0,0)" fill-opacity="0.502"/>
<circle cx="7808.00" cy="4592.00" r="864.00" fill="rgb(0,0,0)" fill-opacity="0.502"/>
<polygon points="3540.77,1911.09 3449.18,2382.28 3339.23,2360.91 3430.82,1889.72" fill="rgb(68,68,69)" fill-opacity="0.502"/>
<circle cx="3728.00" cy="2000.00" r="80.00" fill="rgb(0,0,0)" fill-opacity="0.502"/>
<circle cx="1808.00" cy="4320.00" r="336.00" fill="rgb(175,175,176)" fill-opacity="0.502"/>
<g transform="translate(5936.00 608.00) rotate(149) scale(96.00 144.00)"><ellipse cx="0" cy="0" rx="1" ry="1" fill="rgb(198,198,197)" fill-opacity="0.502"/></g>
<circle cx="5616.00" cy="448.00" r="64.00" fill="rgb(195,195,206)" fill-opacity="0.502"/>
<polygon points="6167.16,871.79 6191.88,795.71 6328.84,840.21 6304.12,916.29" fill="rgb(236,236,238)" fill-opacity="0.502"/>
<polygon points="3373.63,2681.75 3376.42,2713.63 2866.37,2758.25 2863.58,2726.37" fill="rgb(35,35,31)" fill-opacity="0.502"/>
<polygon points="6539.26,836.79 6608.94,1116.24 6484.74,1147.21 6415.06,867.76" fill="rgb(232,232,232)" fill-opacity="0.502"/>
<g transform="translate(4816.00 1728.00) rotate(153) scale(112.00 32.00)"><ellipse cx="0" cy="0" rx="1" ry="1" fill="rgb(227,227,226)" fill-opacity="0.502"/></g>
<circle cx="5968.00" cy="3552.00" r="256.00" fill="rgb(54,54,54)" fill-opacity="0.502"/>
<circle cx="4608.00" cy="2336.00" r="112.00" fill="rgb(45,45,45)" fill-opacity="0.502"/>
<circle cx="5760.00" cy="2528.00" r="256.00" fill="rgb(59,59,59)" fill-opacity="0.502"/>
<circle cx="3312.00" cy="2160.00" r="112.00" fill="rgb(155,155,161)" fill-opacity="0.502"/>
<circle cx="6384.00" cy="1552.00" r="96.00" fill="rgb(64,64,58)" fill-opacity="0.502"/>
<polygon points="4712.43,1767.84 4876.11,1943.36 4583.57,2216.16 4419.89,2040.64" fill="rgb(89,89,90)" fill-opacity="0.502"/>
<g transform="translate(2192.00 3696.00) rotate(57) scale(144.00 336.00)"><ellipse cx="0" cy="0" rx="1" ry="1" fill="rgb(165,165,166)" fill-opacity="0.502"/></g>
<circle cx="3632.00" cy="1776.00" r="112.00" fill="rgb(109,109,112)" fill-opacity="0.502"/>
<polygon points="3280.00,3488.00 3168.00,3488.00 3168.00,3424.00 3280.00,3424.00" fill="rgb(134,134,128)" fill-opacity="0.502"/>
<circle cx="6256.00" cy="1328.00" r="80.00" fill="rgb(143,143,144)" fill-opacity="0.502"/>
<polygon points="1717.51,890.33 1879.52,959.10 1754.49,1253.67 1592.48,1184.90" fill="rgb(177,177,178)" fill-opacity="0.502"/>
<polygon points="6264.40,1256.66 6219.59,1239.46 6391.60,791.34 6436.41,808.54" fill="rgb(66,66,68)" fill-opacity="0.502"/>
<g transform="translate(2288.00 2928.00) rotate(102) scale(16.00 48.00)"><ellipse cx="0" cy="0" rx="1" ry="1" fill="rgb(0,0,12)" fill-opacity="0.502"/></g>
<polygon points="6914.14,4522.04 6616.32,3937.54 6701.86,3893.96 6999.68,4478.46" fill="rgb(8,8,9)" fill-opacity="0.502"/>
<polygon points="5644.57,489.10 5896.59,319.11 5923.43,358.90 5671.41,528.89" fill="rgb(233,233,236)" fill-opacity="0.502"/>
<polygon points="5316.52,1108.62 5203.38,995.48 5531.48,667.38 5644.62,780.52" fill="rgb(26,26,27)" fill-opacity="0.502"/>
<polygon points="3280.15,4186.17 3140.21,4263.74 3023.85,4053.83 3163.79,3976.26" fill="rgb(185,185,185)" fill-opacity="0.502"/>
<polygon points="6460.17,3650.64 5849.57,4032.18 5747.83,3869.36 6358.43,3487.82" fill="rgb(49,49,48)" fill-opacity="0.502"/>
<polygon points="3147.07,2840.49 2945.34,2998.10 2708.93,2695.51 2910.66,2537.90" fill="rgb(115,115,114)" fill-opacity="0.502"/>
<circle cx="4368.00" cy="2640.00" r="176.00" fill="rgb(92,92,92)" fill-opacity="0.502"/>
<g transform="translate(1296.00 3696.00) rotate(335) scale(128.00 352.00)"><ellipse cx="0" cy="0" rx="1" ry="1" fill="rgb(167,167,167)" fill-opacity="0.502"/></g>
<g transform="translate(1984.00 560.00) rotate(48) scale(480.00 192.00)"><ellipse cx="0" cy="0" rx="1" ry="1" fill="rgb(201,201,200)" fill-opacity="0.502"/></g>
<polygon points="3124.15,4581.70 3101.88,4423.25 3307.85,4394.30 3330.12,4552.75" fill="rgb(193,193,189)" fill-opacity="0.502"/>
<circle cx="6800.00" cy="576.00" r="48.00" fill="rgb(244,244,241)" fill-opacity="0.502"/>
<g transform="translate(2608.00 1328.00) rotate(323) scale(288.00 448.00)"><ellipse cx="0" cy="0" rx="1" ry="1" fill="rgb(216,215,215)" fill-opacity="0.502"/></g>
<polygon points="5075.82,937.46 5006.36,543.54 5148.18,518.54 5217.64,912.46" fill="rgb(66,66,64)" fill-opacity="0.502"/>
<polygon points="6695.88,4220.95 6843.17,4522.94 6728.12,4579.05 6580.83,4277.06" fill="rgb(42,42,44)" fill-opacity="0.502"/>
<polygon points="6920.40,2057.68 6919.57,2105.67 6727.60,2102.32 6728.43,2054.33" fill="rgb(236,236,242)" fill-opacity="0.502"/>
<polygon points="4972.20,1477.09 5210.10,1608.96 5155.80,1706.91 4917.90,1575.04" fill="rgb(229,229,223)" fill-opacity="0.502"/>
<g transform="translate(2784.00 1792.00) rotate(176) scale(352.00 64.00)"><ellipse cx="0" cy="0" rx="1" ry="1" fill="rgb(126,126,126)" fill-opacity="0.502"/></g>
<polygon points="3008.50,1974.62 3109.45,2118.79 2991.50,2201.38 2890.55,2057.21" fill="rgb(32,32,28)" fill-opacity="0.502"/>
<polygon points="2383.84,1291.51 2167.54,1589.23 1792.16,1316.49 2008.46,1018.77" fill="rgb(212,212,211)" fill-opacity="0.502"/>
<g transform="translate(5520.00 3744.00) rotate(12) scale(176.00 528.00)"><ellipse cx="0" cy="0" rx="1" ry="1" fill="rgb(22,22,23)" fill-opacity="0.502"/></g>
<polygon points="5282.96,3483.89 5458.72,3493.10 5421.04,4212.11 5245.28,4202.90" fill="rgb(44,44,44)" fill-opacity="0.502"/>
<g transform="translate(3904.00 1680.00) rotate(337) scale(80.00 32.00)"><ellipse cx="0" cy="0" rx="1" ry="1" fill="rgb(23,23,21)" fill-opacity="0.502"/></g>
<polygon points="3071.28,2335.06 2768.94,2303.28 2800.72,2000.94 3103.06,2032.72" fill="rgb(24,24,25)" fill-opacity="0.502"/>
<g transform="translate(3312.00 2368.00) rotate(256) scale(16.00 752.00)"><ellipse cx="0" cy="0" rx="1" ry="1" fill="rgb(15,15,17)" fill-opacity="0.502"/></g>
<polygon points="5218.97,2598.84 5322.07,2642.60 5197.03,2937.16 5093.93,2893.40" fill="rgb(0,0,0)" fill-opacity="0.502"/>
<g transform="translate(4352.00 4320.00) rotate(267) scale(720.00 240.00)"><ellipse cx="0" cy="0" rx="1" ry="1" fill="rgb(0,0,0)" fill-opacity="0.502"/></g>
<circle cx="2752.00" cy="2960.00" r="80.00" fill="rgb(0,0,0)" fill-opacity="0.502"/>
<circle cx="1520.00" cy="2544.00" r="64.00" fill="rgb(186,186,190)" fill-opacity="0.502"/>
<polygon points="6473.70,1962.32 6450.43,1920.34 6758.30,1749.68 6781.57,1791.66" fill="rgb(50,50,56)" fill-opacity="0.502"/>
<polygon points="5446.52,2691.29 5427.26,2665.74 5529.48,2588.71 5548.74,2614.26" fill="rgb(187,187,179)" fill-opacity="0.502"/>
<polygon points="3182.01,3746.61 3100.10,3670.23 3361.99,3389.39 3443.90,3465.77" fill="rgb(13,13,12)" fill-opacity="0.502"/>
<polygon points="5386.92,860.22 5117.57,898.07 5093.08,723.78 5362.43,685.93" fill="rgb(75,75,73)" fill-opacity="0.502"/>
<polygon points="3175.03,1368.80 3113.90,1715.46 2136.97,1543.20 2198.10,1196.54" fill="rgb(220,219,219)" fill-opacity="0.502"/>
<circle cx="7536.00" cy="2320.00" r="464.00" fill="rgb(0,0,0)" fill-opacity="0.502"/>
<g transform="translate(2304.00 3264.00) rotate(77) scale(240.00 16.00)"><ellipse cx="0" cy="0" rx="1" ry="1" fill="rgb(62,62,61)" fill-opacity="0.502"/></g>
<circle cx="6240.00" cy="0.00" r="208.00" fill="rgb(104,104,103)" fill-opacity="0.502"/>
<polygon points="3665.37,3084.33 3623.38,3132.64 3502.63,3027.67 3544.62,2979.36" fill="rgb(114,114,122)" fill-opacity="0.502"/>
<circle cx="4896.00" cy="400.00" r="96.00" fill="rgb(212,212,213)" fill-opacity="0.502"/>
<polygon points="2630.02,4755.72 2666.28,4341.31 2745.98,4348.28 2709.72,4762.69" fill="rgb(188,188,192)" fill-opacity="0.502"/>
<polygon points="3584.31,1824.42 3565.60,1885.62 3519.69,1871.58 3538.40,1810.38" fill="rgb(161,161,144)" fill-opacity="0.502"/>
<circle cx="6624.00" cy="896.00" r="112.00" fill="rgb(119,119,120)" fill-opacity="0.502"/>
<polygon points="4855.00,879.04 4793.30,805.50 5161.00,496.96 5222.70,570.50" fill="rgb(64,64,66)" fill-opacity="0.502"/>
<polygon points="3094.24,1746.16 3146.33,1594.87 3433.76,1693.84 3381.67,1845.13" fill="rgb(226,225,229)" fill-opacity="0.502"/>
<polygon points="2176.70,2848.83 2157.17,3071.98 1599.30,3023.17 1618.83,2800.02" fill="rgb(109,109,111)" fill-opacity="0.502"/>
<circle cx="4800.00" cy="3376.00" r="48.00" fill="rgb(141,141,144)" fill-opacity="0.502"/>
<polygon points="5683.44,162.24 5766.67,87.30 5916.56,253.76 5833.33,328.70" fill="rgb(121,121,117)" fill-opacity="0.502"/>
<polygon points="2192.54,2124.35 1379.64,2195.47 1375.46,2147.65 2188.36,2076.53" fill="rgb(0,0,0)" fill-opacity="0.502"/>
<circle cx="6800.00" cy="1408.00" r="176.00" fill="rgb(73,73,72)" fill-opacity="0.502"/>
<g transform="translate(5728.00 3040.00) rotate(120) scale(128.00 416.00)"><ellipse cx="0" cy="0" rx="1" ry="1" fill="rgb(48,48,47)" fill-opacity="0.502"/></g>
<polygon points="6737.75,2107.84 6977.60,2116.22 6974.25,2212.16 6734.40,2203.78" fill="rgb(78,78,85)" fill-opacity="0.502"/>
<circle cx="2000.00" cy="0.00" r="272.00" fill="rgb(191,191,190)" fill-opacity="0.502"/>
<circle cx="2592.00" cy="4112.00" r="32.00" fill="rgb(5,5,1)" fill-opacity="0.502"/>
<circle cx="2512.00" cy="2336.00" r="64.00" fill="rgb(7,7,0)" fill-opacity="0.502"/>
<polygon points="5792.26,383.16 5744.29,384.83 5743.74,368.84 5791.71,367.17" fill="rgb(0,0,0)" fill-opacity="0.502"/>
<polygon points="5838.86,3286.63 5974.63,3150.86 6065.14,3241.37 5929.37,3377.14" fill="rgb(72,72,70)" fill-opacity="0.502"/>
<circle cx="5456.00" cy="2560.00" r="32.00" fill="rgb(255,255,255)" fill-opacity="0.502"/>
<polygon points="4021.74,3128.00 3874.65,3717.94 3626.26,3656.00 3773.35,3066.06" fill="rgb(42,42,43)" fill-opacity="0.502"/>
<g transform="translate(6192.00 0.00) rotate(100) scale(64.00 64.00)"><ellipse cx="0" cy="0" rx="1" ry="1" fill="rgb(208,208,203)" fill-opacity="0.502"/></g>
<polygon points="3632.93,3012.22 3627.92,3043.83 3375.07,3003.78 3380.08,2972.17" fill="rgb(137,137,142)" fill-opacity="0.502"/>
</g>
</svg>