<?xml version="1.0" standalone="no"?>
<svg xmlns="http://www.w3.org/2000/svg" width="8192" height="4608" viewBox="0 0 8192 4608" style="overflow:hidden">
<defs>
<clipPath id="c"><rect x="0" y="0" width="8192" height="4608"/></clipPath>
</defs>
<rect width="8192" height="4608" fill="rgb(2,15,35)"/>
<g clip-path="url(#c)">
<circle cx="4064.00" cy="2416.00" r="1904.00" fill="rgb(5,49,113)" fill-opacity="0.502"/>
<g transform="translate(784.00 2272.00) rotate(347) scale(1488.00 4592.00)"><ellipse cx="0" cy="0" rx="1" ry="1" fill="rgb(2,0,0)" fill-opacity="0.502"/></g>
<g transform="translate(8112.00 1792.00) rotate(90) scale(8176.00 1040.00)"><ellipse cx="0" cy="0" rx="1" ry="1" fill="rgb(0,0,0)" fill-opacity="0.502"/></g>
<g transform="translate(2176.00 128.00) rotate(259) scale(784.00 4592.00)"><ellipse cx="0" cy="0" rx="1" ry="1" fill="rgb(3,0,0)" fill-opacity="0.502"/></g>
<g transform="translate(5888.00 1824.00) rotate(79) scale(6016.00 272.00)"><ellipse cx="0" cy="0" rx="1" ry="1" fill="rgb(2,0,0)" fill-opacity="0.502"/></g>
<g transform="translate(4912.00 576.00) rotate(95) scale(304.00 480.00)"><ellipse cx="0" cy="0" rx="1" ry="1" fill="rgb(4,59,131)" fill-opacity="0.502"/></g>
<g transform="translate(5584.00 3584.00) rotate(167) scale(384.00 624.00)"><ellipse cx="0" cy="0" rx="1" ry="1" fill="rgb(1,57,123)" fill-opacity="0.502"/></g>
<circle cx="7856.00" cy="1232.00" r="1056.00" fill="rgb(2,0,0)" fill-opacity="0.502"/>
<g transform="translate(6608.00 1664.00) rotate(84) scale(2240.00 416.00)"><ellipse cx="0" cy="0" rx="1" ry="1" fill="rgb(4,51,113)" fill-opacity="0.502"/></g>
<circle cx="7392.00" cy="4192.00" r="688.00" fill="rgb(1,0,0)" fill-opacity="0.502"/>
<g transform="translate(2368.00 1312.00) rotate(119) scale(528.00 304.00)"><ellipse cx="0" cy="0" rx="1" ry="1" fill="rgb(3,45,105)" fill-opacity="0.502"/></g>
<g transform="translate(2784.00 3296.00) rotate(0) scale(928.00 128.00)"><ellipse cx="0" cy="0" rx="1" ry="1" fill="rgb(5,2,6)" fill-opacity="0.502"/></g>
<circle cx="4448.00" cy="1792.00" r="1152.00" fill="rgb(2,42,95)" fill-opacity="0.502"/>
<circle cx="5536.00" cy="4336.00" r="544.00" fill="rgb(4,43,97)" fill-opacity="0.502"/>
<g transform="translate(3984.00 2544.00) rotate(117) scale(544.00 480.00)"><ellipse cx="0" cy="0" rx="1" ry="1" fill="rgb(5,44,100)" fill-opacity="0.502"/></g>
<circle cx="368.00" cy="2960.00" r="1968.00" fill="rgb(2,0,0)" fill-opacity="0.502"/>
<g transform="translate(7040.00 1408.00) rotate(296) scale(352.00 448.00)"><ellipse cx="0" cy="0" rx="1" ry="1" fill="rgb(1,0,0)" fill-opacity="0.502"/></g>
<g transform="translate(3968.00 1824.00) rotate(258) scale(64.00 4592.00)"><ellipse cx="0" cy="0" rx="1" ry="1" fill="rgb(2,0,0)" fill-opacity="0.502"/></g>
<circle cx="4464.00" cy="4160.00" r="640.00" fill="rgb(11,32,70)" fill-opacity="0.502"/>
<polygon points="2624.00,3168.00 3712.00,3168.00 3712.00,4464.00 2624.00,4464.00" fill="rgb(5,23,57)" fill-opacity="0.502"/>
<circle cx="7824.00" cy="2944.00" r="752.00" fill="rgb(0,0,0)" fill-opacity="0.502"/>
<circle cx="1952.00" cy="4208.00" r="672.00" fill="rgb(9,0,0)" fill-opacity="0.502"/>
<circle cx="7488.00" cy="288.00" r="592.00" fill="rgb(2,0,0)" fill-opacity="0.502"/>
<g transform="translate(832.00 1552.00) rotate(98) scale(6240.00 1104.00)"><ellipse cx="0" cy="0" rx="1" ry="1" fill="rgb(1,0,0)" fill-opacity="0.502"/></g>
<g transform="translate(7072.00 1472.00) rotate(259) scale(336.00 320.00)"><ellipse cx="0" cy="0" rx="1" ry="1" fill="rgb(0,0,0)" fill-opacity="0.502"/></g>
<polygon points="4295.26,472.63 5257.79,232.64 5528.74,1319.37 4566.21,1559.36" fill="rgb(3,44,98)" fill-opacity="0.502"/>
<g transform="translate(7168.00 4272.00) rotate(308) scale(8176.00 496.00)"><ellipse cx="0" cy="0" rx="1" ry="1" fill="rgb(1,0,0)" fill-opacity="0.502"/></g>
<circle cx="2288.00" cy="1856.00" r="208.00" fill="rgb(6,34,79)" fill-opacity="0.502"/>
<circle cx="5232.00" cy="2368.00" r="480.00" fill="rgb(1,52,106)" fill-opacity="0.502"/>
<circle cx="2432.00" cy="240.00" r="624.00" fill="rgb(6,0,0)" fill-opacity="0.502"/>
<polygon points="4986.61,2872.49 5008.88,3030.93 4549.39,3095.51 4527.12,2937.07" fill="rgb(2,0,0)" fill-opacity="0.502"/>
<polygon points="6097.45,1879.32 6447.68,2841.57 5966.55,3016.68 5616.32,2054.43" fill="rgb(2,2,4)" fill-opacity="0.502"/>
<circle cx="3568.00" cy="3200.00" r="192.00" fill="rgb(5,9,21)" fill-opacity="0.502"/>
<circle cx="6624.00" cy="3792.00" r="240.00" fill="rgb(9,37,79)" fill-opacity="0.502"/>
<circle cx="3600.00" cy="912.00" r="336.00" fill="rgb(3,40,97)" fill-opacity="0.502"/>
<polygon points="6117.78,1326.79 5909.40,145.02 6634.22,17.21 6842.60,1198.98" fill="rgb(3,38,88)" fill-opacity="0.502"/>
<polygon points="5889.21,1431.44 6020.81,1959.28 5694.79,2040.56 5563.19,1512.72" fill="rgb(3,0,0)" fill-opacity="0.502"/>
<polygon points="5429.33,1541.88 5512.49,1933.14 4698.67,2106.12 4615.51,1714.86" fill="rgb(4,50,107)" fill-opacity="0.502"/>
<circle cx="2160.00" cy="1200.00" r="208.00" fill="rgb(7,36,83)" fill-opacity="0.502"/>
<g transform="translate(2000.00 1552.00) rotate(79) scale(448.00 96.00)"><ellipse cx="0" cy="0" rx="1" ry="1" fill="rgb(7,7,10)" fill-opacity="0.502"/></g>
<g transform="translate(7664.00 2096.00) rotate(108) scale(848.00 544.00)"><ellipse cx="0" cy="0" rx="1" ry="1" fill="rgb(0,0,0)" fill-opacity="0.502"/></g>
<circle cx="6464.00" cy="320.00" r="480.00" fill="rgb(2,34,78)" fill-opacity="0.502"/>
<circle cx="6720.00" cy="2272.00" r="368.00" fill="rgb(3,47,104)" fill-opacity="0.502"/>
<g transform="translate(4304.00 1136.00) rotate(259) scale(4176.00 64.00)"><ellipse cx="0" cy="0" rx="1" ry="1" fill="rgb(3,5,18)" fill-opacity="0.502"/></g>
<g transform="translate(6560.00 1760.00) rotate(266) scale(352.00 272.00)"><ellipse cx="0" cy="0" rx="1" ry="1" fill="rgb(2,44,98)" fill-opacity="0.502"/></g>
<g transform="translate(2608.00 1136.00) rotate(316) scale(448.00 272.00)"><ellipse cx="0" cy="0" rx="1" ry="1" fill="rgb(1,36,87)" fill-opacity="0.502"/></g>
<circle cx="4688.00" cy="4560.00" r="176.00" fill="rgb(5,41,95)" fill-opacity="0.502"/>
<polygon points="5960.06,3953.30 4977.89,4180.05 4743.94,3166.70 5726.11,2939.95" fill="rgb(3,44,96)" fill-opacity="0.502"/>
<circle cx="5584.00" cy="4176.00" r="112.00" fill="rgb(0,2,5)" fill-opacity="0.502"/>
<g transform="translate(7824.00 4432.00) rotate(126) scale(1344.00 1088.00)"><ellipse cx="0" cy="0" rx="1" ry="1" fill="rgb(1,0,0)" fill-opacity="0.502"/></g>
<circle cx="3184.00" cy="4112.00" r="384.00" fill="rgb(3,29,70)" fill-opacity="0.502"/>
<g transform="translate(3856.00 4448.00) rotate(82) scale(64.00 3328.00)"><ellipse cx="0" cy="0" rx="1" ry="1" fill="rgb(1,1,1)" fill-opacity="0.502"/></g>
<circle cx="2640.00" cy="1600.00" r="432.00" fill="rgb(0,34,82)" fill-opacity="0.502"/>
<g transform="translate(5680.00 4544.00) rotate(172) scale(416.00 304.00)"><ellipse cx="0" cy="0" rx="1" ry="1" fill="rgb(2,43,100)" fill-opacity="0.502"/></g>
<g transform="translate(4496.00 4000.00) rotate(66) scale(352.00 256.00)"><ellipse cx="0" cy="0" rx="1" ry="1" fill="rgb(12,38,83)" fill-opacity="0.502"/></g>
<circle cx="3344.00" cy="176.00" r="464.00" fill="rgb(7,2,3)" fill-opacity="0.502"/>
<circle cx="7872.00" cy="656.00" r="816.00" fill="rgb(0,0,0)" fill-opacity="0.502"/>
<polygon points="4166.35,4539.92 4539.78,4396.58 4585.65,4516.08 4212.22,4659.42" fill="rgb(10,40,94)" fill-opacity="0.502"/>
<circle cx="3680.00" cy="4112.00" r="144.00" fill="rgb(6,14,33)" fill-opacity="0.502"/>
<polygon points="4155.06,1791.34 4248.64,2196.68 3780.94,2304.66 3687.36,1899.32" fill="rgb(5,43,98)" fill-opacity="0.502"/>
<circle cx="1536.00" cy="3760.00" r="912.00" fill="rgb(6,1,0)" fill-opacity="0.502"/>
<g transform="translate(3104.00 1232.00) rotate(349) scale(48.00 4592.00)"><ellipse cx="0" cy="0" rx="1" ry="1" fill="rgb(3,5,15)" fill-opacity="0.502"/></g>
<g transform="translate(560.00 1888.00) rotate(14) scale(1056.00 4496.00)"><ellipse cx="0" cy="0" rx="1" ry="1" fill="rgb(1,0,0)" fill-opacity="0.502"/></g>
<polygon points="6938.57,2557.35 6961.10,2699.58 6613.43,2754.65 6590.90,2612.42" fill="rgb(4,3,15)" fill-opacity="0.502"/>
<polygon points="3266.35,3316.58 2486.85,3496.55 2461.65,3387.42 3241.15,3207.45" fill="rgb(0,0,0)" fill-opacity="0.502"/>
<g transform="translate(5872.00 2784.00) rotate(150) scale(160.00 128.00)"><ellipse cx="0" cy="0" rx="1" ry="1" fill="rgb(0,0,2)" fill-opacity="0.502"/></g>
<polygon points="4880.00,3760.00 4880.00,3008.00 5312.00,3008.00 5312.00,3760.00" fill="rgb(3,42,94)" fill-opacity="0.502"/>
<g transform="translate(3840.00 1296.00) rotate(256) scale(496.00 368.00)"><ellipse cx="0" cy="0" rx="1" ry="1" fill="rgb(3,41,96)" fill-opacity="0.502"/></g>
<circle cx="5632.00" cy="1248.00" r="176.00" fill="rgb(1,0,3)" fill-opacity="0.502"/>
<g transform="translate(5568.00 2864.00) rotate(81) scale(48.00 3136.00)"><ellipse cx="0" cy="0" rx="1" ry="1" fill="rgb(0,1,4)" fill-opacity="0.502"/></g>
<g transform="translate(6784.00 3216.00) rotate(1) scale(304.00 512.00)"><ellipse cx="0" cy="0" rx="1" ry="1" fill="rgb(4,41,93)" fill-opacity="0.502"/></g>
<circle cx="6080.00" cy="3504.00" r="176.00" fill="rgb(2,0,1)" fill-opacity="0.502"/>
<polygon points="7096.68,2029.18 6867.25,2228.63 6615.32,1938.82 6844.75,1739.37" fill="rgb(4,43,98)" fill-opacity="0.502"/>
<circle cx="4992.00" cy="944.00" r="416.00" fill="rgb(1,43,94)" fill-opacity="0.502"/>
<circle cx="4336.00" cy="3536.00" r="400.00" fill="rgb(7,40,87)" fill-opacity="0.502"/>
<polygon points="6380.19,2589.09 6145.43,2638.98 5955.81,1746.91 6190.57,1697.02" fill="rgb(5,17,37)" fill-opacity="0.502"/>
<g transform="translate(1696.00 2656.00) rotate(176) scale(416.00 3488.00)"><ellipse cx="0" cy="0" rx="1" ry="1" fill="rgb(7,2,3)" fill-opacity="0.502"/></g>
<polygon points="3022.64,3989.82 2586.13,4090.60 2449.36,3498.18 2885.87,3397.40" fill="rgb(7,26,59)" fill-opacity="0.502"/>
<polygon points="5346.86,1663.85 5630.57,1968.09 5373.14,2208.15 5089.43,1903.91" fill="rgb(2,48,102)" fill-opacity="0.502"/>
<circle cx="6624.00" cy="4592.00" r="528.00" fill="rgb(6,4,3)" fill-opacity="0.502"/>
<circle cx="4496.00" cy="1472.00" r="112.00" fill="rgb(7,39,86)" fill-opacity="0.502"/>
<circle cx="6608.00" cy="4288.00" r="144.00" fill="rgb(10,18,32)" fill-opacity="0.502"/>
<polygon points="6975.35,264.42 7166.30,284.49 7072.65,1175.58 6881.70,1155.51" fill="rgb(36,13,10)" fill-opacity="0.502"/>
<g transform="translate(6272.00 3776.00) rotate(76) scale(2576.00 208.00)"><ellipse cx="0" cy="0" rx="1" ry="1" fill="rgb(3,3,5)" fill-opacity="0.502"/></g>
<polygon points="2693.82,4545.94 2625.94,4613.82 2490.18,4478.06 2558.06,4410.18" fill="rgb(9,0,0)" fill-opacity="0.502"/>
<g transform="translate(3328.00 3680.00) rotate(353) scale(208.00 368.00)"><ellipse cx="0" cy="0" rx="1" ry="1" fill="rgb(3,33,80)" fill-opacity="0.502"/></g>
<circle cx="7952.00" cy="2640.00" r="880.00" fill="rgb(0,0,0)" fill-opacity="0.502"/>
<circle cx="7472.00" cy="320.00" r="448.00" fill="rgb(0,0,0)" fill-opacity="0.502"/>
<polygon points="2384.00,2672.00 2672.00,2672.00 2672.00,3328.00 2384.00,3328.00" fill="rgb(7,25,61)" fill-opacity="0.502"/>
<circle cx="5696.00" cy="3168.00" r="192.00" fill="rgb(4,46,100)" fill-opacity="0.502"/>
<g transform="translate(6736.00 3776.00) rotate(356) scale(144.00 160.00)"><ellipse cx="0" cy="0" rx="1" ry="1" fill="rgb(8,42,91)" fill-opacity="0.502"/></g>
<polygon points="2600.76,2143.86 3150.48,2037.01 3367.24,3152.14 2817.52,3258.99" fill="rgb(4,36,90)" fill-opacity="0.502"/>
<polygon points="5662.23,2831.24 5313.05,2456.79 5441.77,2336.76 5790.95,2711.21" fill="rgb(2,46,97)" fill-opacity="0.502"/>
<g transform="translate(5360.00 3808.00) rotate(95) scale(352.00 480.00)"><ellipse cx="0" cy="0" rx="1" ry="1" fill="rgb(2,39,85)" fill-opacity="0.502"/></g>
<polygon points="5878.70,361.17 5808.48,722.41 5337.30,630.83 5407.52,269.59" fill="rgb(2,1,2)" fill-opacity="0.502"/>
<g transform="translate(2688.00 944.00) rotate(162) scale(240.00 112.00)"><ellipse cx="0" cy="0" rx="1" ry="1" fill="rgb(4,36,89)" fill-opacity="0.502"/></g>
<circle cx="6992.00" cy="1392.00" r="288.00" fill="rgb(1,0,0)" fill-opacity="0.502"/>
<polygon points="2224.00,2176.00 2464.00,2176.00 2464.00,2736.00 2224.00,2736.00" fill="rgb(10,28,62)" fill-opacity="0.502"/>
<g transform="translate(3888.00 992.00) rotate(95) scale(416.00 256.00)"><ellipse cx="0" cy="0" rx="1" ry="1" fill="rgb(3,40,92)" fill-opacity="0.502"/></g>
<circle cx="5344.00" cy="4592.00" r="304.00" fill="rgb(5,38,90)" fill-opacity="0.502"/>
<polygon points="6032.00,1104.00 6032.00,368.00 6864.00,368.00 6864.00,1104.00" fill="rgb(2,36,81)" fill-opacity="0.502"/>
<polygon points="8104.06,3070.08 8196.10,4122.06 7191.94,4209.92 7099.90,3157.94" fill="rgb(0,0,0)" fill-opacity="0.502"/>
<circle cx="7664.00" cy="1312.00" r="672.00" fill="rgb(0,0,0)" fill-opacity="0.502"/>
<g transform="translate(6352.00 3168.00) rotate(259) scale(1312.00 96.00)"><ellipse cx="0" cy="0" rx="1" ry="1" fill="rgb(4,14,30)" fill-opacity="0.502"/></g>
<circle cx="2896.00" cy="4304.00" r="240.00" fill="rgb(4,24,56)" fill-opacity="0.502"/>
<g transform="translate(3616.00 3120.00) rotate(260) scale(1232.00 64.00)"><ellipse cx="0" cy="0" rx="1" ry="1" fill="rgb(8,31,75)" fill-opacity="0.502"/></g>
<g transform="translate(4976.00 1488.00) rotate(353) scale(528.00 64.00)"><ellipse cx="0" cy="0" rx="1" ry="1" fill="rgb(3,43,95)" fill-opacity="0.502"/></g>
<g transform="translate(2624.00 2752.00) rotate(347) scale(304.00 560.00)"><ellipse cx="0" cy="0" rx="1" ry="1" fill="rgb(4,30,72)" fill-opacity="0.502"/></g>
<g transform="translate(3808.00 3424.00) rotate(194) scale(256.00 144.00)"><ellipse cx="0" cy="0" rx="1" ry="1" fill="rgb(7,40,87)" fill-opacity="0.502"/></g>
<circle cx="5616.00" cy="3536.00" r="320.00" fill="rgb(2,42,95)" fill-opacity="0.502"/>
<circle cx="4672.00" cy="32.00" r="320.00" fill="rgb(6,4,16)" fill-opacity="0.502"/>
<circle cx="2912.00" cy="1728.00" r="208.00" fill="rgb(2,37,92)" fill-opacity="0.502"/>
<g transform="translate(4016.00 32.00) rotate(300) scale(368.00 480.00)"><ellipse cx="0" cy="0" rx="1" ry="1" fill="rgb(7,4,6)" fill-opacity="0.502"/></g>
<g transform="translate(6720.00 2576.00) rotate(78) scale(80.00 368.00)"><ellipse cx="0" cy="0" rx="1" ry="1" fill="rgb(6,38,82)" fill-opacity="0.502"/></g>
<g transform="translate(4976.00 2608.00) rotate(67) scale(304.00 352.00)"><ellipse cx="0" cy="0" rx="1" ry="1" fill="rgb(2,42,92)" fill-opacity="0.502"/></g>
<circle cx="4240.00" cy="3936.00" r="448.00" fill="rgb(10,33,74)" fill-opacity="0.502"/>
<polygon points="3384.66,4186.59 3643.51,4312.84 3559.34,4485.41 3300.49,4359.16" fill="rgb(6,31,73)" fill-opacity="0.502"/>
<circle cx="4352.00" cy="3440.00" r="304.00" fill="rgb(6,41,86)" fill-opacity="0.502"/>
<circle cx="7856.00" cy="4304.00" r="800.00" fill="rgb(0,0,0)" fill-opacity="0.502"/>
<polygon points="6778.09,1360.30 6112.63,1453.83 6085.91,1263.70 6751.37,1170.17" fill="rgb(3,8,18)" fill-opacity="0.502"/>
<polygon points="2070.36,1025.52 2816.75,933.87 2937.64,1918.48 2191.25,2010.13" fill="rgb(2,33,78)" fill-opacity="0.502"/>
<polygon points="7062.78,3436.84 7079.51,3628.11 6633.22,3667.16 6616.49,3475.89" fill="rgb(5,32,72)" fill-opacity="0.502"/>
<circle cx="5376.00" cy="1312.00" r="128.00" fill="rgb(5,48,101)" fill-opacity="0.502"/>
<g transform="translate(6992.00 4176.00) rotate(170) scale(192.00 384.00)"><ellipse cx="0" cy="0" rx="1" ry="1" fill="rgb(3,1,1)" fill-opacity="0.502"/></g>
<circle cx="4960.00" cy="3168.00" r="144.00" fill="rgb(7,43,100)" fill-opacity="0.502"/>
<polygon points="4553.40,1702.67 4727.23,1730.20 4614.60,2441.33 4440.77,2413.80" fill="rgb(6,34,81)" fill-opacity="0.502"/>
<circle cx="2112.00" cy="3312.00" r="320.00" fill="rgb(5,3,8)" fill-opacity="0.502"/>
<circle cx="1488.00" cy="4432.00" r="400.00" fill="rgb(7,2,0)" fill-opacity="0.502"/>
<circle cx="6992.00" cy="1600.00" r="208.00" fill="rgb(3,1,3)" fill-opacity="0.502"/>
<polygon points="5709.33,449.58 5852.37,1122.54 5570.67,1182.42 5427.63,509.46" fill="rgb(3,1,0)" fill-opacity="0.502"/>
<circle cx="3648.00" cy="3200.00" r="64.00" fill="rgb(0,0,0)" fill-opacity="0.502"/>
<circle cx="4336.00" cy="3104.00" r="64.00" fill="rgb(2,13,21)" fill-opacity="0.502"/>
<polygon points="4501.27,1832.53 5518.54,1616.30 5754.73,2727.47 4737.46,2943.70" fill="rgb(3,44,95)" fill-opacity="0.502"/>
<circle cx="4480.00" cy="624.00" r="240.00" fill="rgb(6,34,81)" fill-opacity="0.502"/>
<g transform="translate(128.00 944.00) rotate(238) scale(1264.00 1136.00)"><ellipse cx="0" cy="0" rx="1" ry="1" fill="rgb(0,0,0)" fill-opacity="0.502"/></g>
<g transform="translate(2320.00 2128.00) rotate(110) scale(80.00 208.00)"><ellipse cx="0" cy="0" rx="1" ry="1" fill="rgb(6,16,33)" fill-opacity="0.502"/></g>
<polygon points="4528.09,2951.70 4054.00,3026.79 3983.91,2584.30 4458.00,2509.21" fill="rgb(5,45,98)" fill-opacity="0.502"/>
<circle cx="2096.00" cy="128.00" r="224.00" fill="rgb(3,0,0)" fill-opacity="0.502"/>
<circle cx="5456.00" cy="3376.00" r="432.00" fill="rgb(2,42,93)" fill-opacity="0.502"/>
<polygon points="7068.27,757.33 6988.74,1017.45 6835.73,970.67 6915.26,710.55" fill="rgb(31,22,28)" fill-opacity="0.502"/>
<g transform="translate(7408.00 3168.00) rotate(330) scale(320.00 320.00)"><ellipse cx="0" cy="0" rx="1" ry="1" fill="rgb(0,0,0)" fill-opacity="0.502"/></g>
<polygon points="5882.32,1109.98 5940.89,978.43 6101.68,1050.02 6043.11,1181.57" fill="rgb(2,14,29)" fill-opacity="0.502"/>
<polygon points="6834.54,2793.61 6760.00,3071.80 6605.46,3030.39 6680.00,2752.20" fill="rgb(4,44,99)" fill-opacity="0.502"/>
<circle cx="5744.00" cy="2352.00" r="80.00" fill="rgb(0,10,35)" fill-opacity="0.502"/>
<polygon points="4000.32,1833.30 4400.07,1847.26 4367.68,2774.70 3967.93,2760.74" fill="rgb(3,43,96)" fill-opacity="0.502"/>
<polygon points="3572.20,1489.04 3116.00,1256.60 3275.80,942.96 3732.00,1175.40" fill="rgb(3,33,84)" fill-opacity="0.502"/>
<polygon points="2588.24,4627.00 2000.66,4554.85 2035.76,4269.00 2623.34,4341.15" fill="rgb(6,1,3)" fill-opacity="0.502"/>
<g transform="translate(1488.00 32.00) rotate(295) scale(288.00 448.00)"><ellipse cx="0" cy="0" rx="1" ry="1" fill="rgb(7,2,2)" fill-opacity="0.502"/></g>
<circle cx="3856.00" cy="3184.00" r="48.00" fill="rgb(3,6,4)" fill-opacity="0.502"/>
<circle cx="5104.00" cy="2336.00" r="240.00" fill="rgb(0,42,86)" fill-opacity="0.502"/>
<polygon points="3908.68,4317.05 3848.59,4430.07 3707.32,4354.95 3767.41,4241.93" fill="rgb(8,25,54)" fill-opacity="0.502"/>
<g transform="translate(4048.00 3344.00) rotate(313) scale(160.00 144.00)"><ellipse cx="0" cy="0" rx="1" ry="1" fill="rgb(7,41,88)" fill-opacity="0.502"/></g>
<polygon points="6070.27,3486.74 6041.02,3724.96 5945.73,3713.26 5974.98,3475.04" fill="rgb(0,5,24)" fill-opacity="0.502"/>
<circle cx="6192.00" cy="0.00" r="112.00" fill="rgb(2,4,7)" fill-opacity="0.502"/>
<polygon points="3204.29,2098.19 3119.65,1981.69 3339.71,1821.81 3424.35,1938.31" fill="rgb(5,8,19)" fill-opacity="0.502"/>
<circle cx="5680.00" cy="3856.00" r="304.00" fill="rgb(2,39,86)" fill-opacity="0.502"/>
<g transform="translate(480.00 2992.00) rotate(356) scale(608.00 2448.00)"><ellipse cx="0" cy="0" rx="1" ry="1" fill="rgb(0,0,0)" fill-opacity="0.502"/></g>
<g transform="translate(3088.00 4016.00) rotate(145) scale(224.00 416.00)"><ellipse cx="0" cy="0" rx="1" ry="1" fill="rgb(2,25,60)" fill-opacity="0.502"/></g>
<polygon points="5351.23,567.82 5383.60,1030.69 4904.77,1064.18 4872.40,601.31" fill="rgb(3,42,93)" fill-opacity="0.502"/>
<g transform="translate(6624.00 2112.00) rotate(306) scale(256.00 368.00)"><ellipse cx="0" cy="0" rx="1" ry="1" fill="rgb(1,40,90)" fill-opacity="0.502"/></g>
<circle cx="6240.00" cy="4208.00" r="208.00" fill="rgb(2,1,4)" fill-opacity="0.502"/>
<polygon points="5396.34,2434.55 5182.00,2267.09 5467.66,1901.45 5682.00,2068.91" fill="rgb(3,47,100)" fill-opacity="0.502"/>
<g transform="translate(7280.00 2144.00) rotate(182) scale(144.00 1856.00)"><ellipse cx="0" cy="0" rx="1" ry="1" fill="rgb(0,0,0)" fill-opacity="0.502"/></g>
<polygon points="4595.51,4236.57 4142.39,4034.83 4220.49,3859.43 4673.61,4061.17" fill="rgb(16,39,78)" fill-opacity="0.502"/>
<g transform="translate(6384.00 3360.00) rotate(294) scale(160.00 64.00)"><ellipse cx="0" cy="0" rx="1" ry="1" fill="rgb(5,18,44)" fill-opacity="0.502"/></g>
<circle cx="3184.00" cy="3632.00" r="256.00" fill="rgb(4,32,77)" fill-opacity="0.502"/>
<circle cx="1440.00" cy="2992.00" r="384.00" fill="rgb(6,2,2)" fill-opacity="0.502"/>
<g transform="translate(8048.00 4160.00) rotate(302) scale(832.00 1040.00)"><ellipse cx="0" cy="0" rx="1" ry="1" fill="rgb(0,0,0)" fill-opacity="0.502"/></g>
<g transform="translate(5632.00 48.00) rotate(168) scale(448.00 176.00)"><ellipse cx="0" cy="0" rx="1" ry="1" fill="rgb(4,0,0)" fill-opacity="0.502"/></g>
<polygon points="2638.63,3010.82 2499.94,3119.17 2273.37,2829.18 2412.06,2720.83" fill="rgb(8,23,50)" fill-opacity="0.502"/>
<polygon points="2003.66,844.66 2047.42,741.56 2268.34,835.34 2224.58,938.44" fill="rgb(4,0,0)" fill-opacity="0.502"/>
<circle cx="6288.00" cy="384.00" r="320.00" fill="rgb(4,34,80)" fill-opacity="0.502"/>
<circle cx="7984.00" cy="656.00" r="912.00" fill="rgb(0,0,0)" fill-opacity="0.502"/>
<polygon points="3551.06,2851.76 3675.26,2820.79 3744.94,3100.24 3620.74,3131.21" fill="rgb(2,37,89)" fill-opacity="0.502"/>
<polygon points="4299.64,1788.02 4425.79,2116.64 4052.36,2259.98 3926.21,1931.36" fill="rgb(4,40,92)" fill-opacity="0.502"/>
<polygon points="3818.49,4293.87 4167.86,4250.97 4181.51,4362.13 3832.14,4405.03" fill="rgb(7,32,69)" fill-opacity="0.502"/>
<circle cx="7168.00" cy="176.00" r="208.00" fill="rgb(3,0,0)" fill-opacity="0.502"/>
<polygon points="3803.11,2449.12 4024.63,2175.57 4260.89,2366.88 4039.37,2640.43" fill="rgb(5,45,96)" fill-opacity="0.502"/>
<g transform="translate(6608.00 1776.00) rotate(327) scale(240.00 480.00)"><ellipse cx="0" cy="0" rx="1" ry="1" fill="rgb(4,40,87)" fill-opacity="0.502"/></g>
<g transform="translate(1904.00 2848.00) rotate(95) scale(528.00 384.00)"><ellipse cx="0" cy="0" rx="1" ry="1" fill="rgb(5,3,5)" fill-opacity="0.502"/></g>
<polygon points="1487.69,1332.98 2032.30,1520.51 1808.31,2171.02 1263.70,1983.49" fill="rgb(5,3,7)" fill-opacity="0.502"/>
<circle cx="6592.00" cy="4176.00" r="176.00" fill="rgb(7,12,21)" fill-opacity="0.502"/>
<circle cx="3968.00" cy="4208.00" r="144.00" fill="rgb(5,28,64)" fill-opacity="0.502"/>
<g transform="translate(3056.00 2384.00) rotate(81) scale(352.00 224.00)"><ellipse cx="0" cy="0" rx="1" ry="1" fill="rgb(2,34,84)" fill-opacity="0.502"/></g>
<polygon points="4087.53,4474.53 4181.47,4535.53 4120.47,4629.47 4026.53,4568.47" fill="rgb(6,33,81)" fill-opacity="0.502"/>
<circle cx="4816.00" cy="576.00" r="272.00" fill="rgb(2,41,91)" fill-opacity="0.502"/>
<g transform="translate(2512.00 512.00) rotate(1) scale(656.00 304.00)"><ellipse cx="0" cy="0" rx="1" ry="1" fill="rgb(5,5,8)" fill-opacity="0.502"/></g>
<g transform="translate(5824.00 144.00) rotate(228) scale(96.00 240.00)"><ellipse cx="0" cy="0" rx="1" ry="1" fill="rgb(6,4,8)" fill-opacity="0.502"/></g>
<polygon points="4199.53,1529.94 3961.94,1767.53 3656.47,1462.06 3894.06,1224.47" fill="rgb(2,42,98)" fill-opacity="0.502"/>
<polygon points="2409.55,1477.51 2780.47,1378.12 2838.45,1594.49 2467.53,1693.88" fill="rgb(0,30,72)" fill-opacity="0.502"/>
<g transform="translate(4480.00 2016.00) rotate(176) scale(80.00 256.00)"><ellipse cx="0" cy="0" rx="1" ry="1" fill="rgb(5,20,51)" fill-opacity="0.502"/></g>
<g transform="translate(2864.00 3760.00) rotate(4) scale(336.00 160.00)"><ellipse cx="0" cy="0" rx="1" ry="1" fill="rgb(3,25,60)" fill-opacity="0.502"/></g>
<polygon points="4944.00,4592.00 4160.00,4592.00 4160.00,4464.00 4944.00,4464.00" fill="rgb(6,32,78)" fill-opacity="0.502"/>
<circle cx="5568.00" cy="288.00" r="160.00" fill="rgb(3,2,0)" fill-opacity="0.502"/>
<circle cx="6848.00" cy="3216.00" r="240.00" fill="rgb(1,38,85)" fill-opacity="0.502"/>
<polygon points="3592.13,3955.64 3607.21,4243.24 3127.87,4268.36 3112.79,3980.76" fill="rgb(4,28,66)" fill-opacity="0.502"/>
<polygon points="2455.68,914.58 2093.42,599.68 2408.32,237.42 2770.58,552.32" fill="rgb(5,5,10)" fill-opacity="0.502"/>
<polygon points="5944.15,4061.87 5882.22,3813.48 5959.85,3794.13 6021.78,4042.52" fill="rgb(2,40,92)" fill-opacity="0.502"/>
<polygon points="5235.64,212.02 5339.76,445.89 5164.36,523.98 5060.24,290.11" fill="rgb(7,37,87)" fill-opacity="0.502"/>
<circle cx="5680.00" cy="1376.00" r="192.00" fill="rgb(1,3,9)" fill-opacity="0.502"/>
<polygon points="5559.73,3740.72 5447.20,4005.82 5064.27,3843.28 5176.80,3578.18" fill="rgb(1,36,81)" fill-opacity="0.502"/>
<g transform="translate(5760.00 3808.00) rotate(235) scale(192.00 192.00)"><ellipse cx="0" cy="0" rx="1" ry="1" fill="rgb(2,44,95)" fill-opacity="0.502"/></g>
<circle cx="4112.00" cy="3680.00" r="256.00" fill="rgb(8,33,73)" fill-opacity="0.502"/>
<g transform="translate(7696.00 2112.00) rotate(217) scale(512.00 688.00)"><ellipse cx="0" cy="0" rx="1" ry="1" fill="rgb(0,0,0)" fill-opacity="0.502"/></g>
<g transform="translate(6528.00 2416.00) rotate(195) scale(160.00 192.00)"><ellipse cx="0" cy="0" rx="1" ry="1" fill="rgb(4,41,90)" fill-opacity="0.502"/></g>
<circle cx="6656.00" cy="3920.00" r="96.00" fill="rgb(10,39,83)" fill-opacity="0.502"/>
<polygon points="4380.15,1063.32 4300.92,1074.45 4211.85,440.68 4291.08,429.55" fill="rgb(11,27,59)" fill-opacity="0.502"/>
<polygon points="2071.71,4220.08 1824.41,3664.65 2248.29,3475.92 2495.59,4031.35" fill="rgb(5,3,7)" fill-opacity="0.502"/>
<polygon points="4332.20,1257.22 4389.77,893.75 4547.80,918.78 4490.23,1282.25" fill="rgb(8,36,84)" fill-opacity="0.502"/>
<circle cx="6384.00" cy="976.00" r="288.00" fill="rgb(1,35,80)" fill-opacity="0.502"/>
<polygon points="6629.27,3591.42 6456.83,3475.11 6474.73,3448.58 6647.17,3564.89" fill="rgb(8,22,44)" fill-opacity="0.502"/>
<polygon points="1936.00,2016.00 1936.00,2016.00 1936.00,3280.00 1936.00,3280.00" fill="rgb(9,8,29)" fill-opacity="0.502"/>
<polygon points="5086.76,4171.95 5116.70,4312.80 4913.24,4356.05 4883.30,4215.20" fill="rgb(4,5,6)" fill-opacity="0.502"/>
<circle cx="6608.00" cy="2848.00" r="112.00" fill="rgb(6,38,91)" fill-opacity="0.502"/>
<circle cx="5616.00" cy="3136.00" r="208.00" fill="rgb(4,47,100)" fill-opacity="0.502"/>
<circle cx="1392.00" cy="3744.00" r="368.00" fill="rgb(5,2,0)" fill-opacity="0.502"/>
<circle cx="1216.00" cy="3600.00" r="144.00" fill="rgb(9,1,2)" fill-opacity="0.502"/>
<polygon points="4724.48,3075.64 4772.12,3069.79 4795.52,3260.36 4747.88,3266.21" fill="rgb(15,22,48)" fill-opacity="0.502"/>
<polygon points="3513.17,1907.22 3734.99,1938.39 3654.83,2508.78 3433.01,2477.61" fill="rgb(5,36,86)" fill-opacity="0.502"/>
<g transform="translate(5056.00 960.00) rotate(149) scale(288.00 544.00)"><ellipse cx="0" cy="0" rx="1" ry="1" fill="rgb(2,43,95)" fill-opacity="0.502"/></g>
<circle cx="4320.00" cy="1696.00" r="64.00" fill="rgb(0,8,27)" fill-opacity="0.502"/>
<circle cx="6400.00" cy="1792.00" r="176.00" fill="rgb(2,42,91)" fill-opacity="0.502"/>
<g transform="translate(2336.00 4512.00) rotate(79) scale(1312.00 272.00)"><ellipse cx="0" cy="0" rx="1" ry="1" fill="rgb(5,2,5)" fill-opacity="0.502"/></g>
<polygon points="6003.81,4078.75 6356.99,3890.96 6492.19,4145.25 6139.01,4333.04" fill="rgb(2,3,6)" fill-opacity="0.502"/>
<polygon points="3364.48,2481.64 3355.55,1969.71 3547.52,1966.36 3556.45,2478.29" fill="rgb(7,32,78)" fill-opacity="0.502"/>
<g transform="translate(2928.00 1632.00) rotate(94) scale(368.00 96.00)"><ellipse cx="0" cy="0" rx="1" ry="1" fill="rgb(2,35,86)" fill-opacity="0.502"/></g>
<circle cx="2528.00" cy="3376.00" r="64.00" fill="rgb(0,1,5)" fill-opacity="0.502"/>
<polygon points="5803.94,2736.98 5756.82,2746.14 5540.06,1631.02 5587.18,1621.86" fill="rgb(1,21,61)" fill-opacity="0.502"/>
<g transform="translate(2864.00 816.00) rotate(59) scale(48.00 80.00)"><ellipse cx="0" cy="0" rx="1" ry="1" fill="rgb(12,32,82)" fill-opacity="0.502"/></g>
<g transform="translate(4656.00 3568.00) rotate(66) scale(256.00 48.00)"><ellipse cx="0" cy="0" rx="1" ry="1" fill="rgb(2,36,92)" fill-opacity="0.502"/></g>
<polygon points="5772.43,3703.06 5518.63,3133.00 5635.57,3080.94 5889.37,3651.00" fill="rgb(4,47,100)" fill-opacity="0.502"/>
<g transform="translate(4560.00 208.00) rotate(360) scale(224.00 176.00)"><ellipse cx="0" cy="0" rx="1" ry="1" fill="rgb(4,8,20)" fill-opacity="0.502"/></g>
<polygon points="3849.28,2814.25 3607.58,2580.84 3718.72,2465.75 3960.42,2699.16" fill="rgb(5,36,83)" fill-opacity="0.502"/>
<polygon points="3472.00,1632.00 3712.00,1632.00 3712.00,1744.00 3472.00,1744.00" fill="rgb(6,39,94)" fill-opacity="0.502"/>
<polygon points="4622.20,351.24 4658.97,320.39 4833.80,528.76 4797.03,559.61" fill="rgb(7,41,91)" fill-opacity="0.502"/>
<polygon points="6097.23,1054.34 5913.62,1110.47 5838.77,865.66 6022.38,809.53" fill="rgb(3,13,31)" fill-opacity="0.502"/>
<g transform="translate(4304.00 4000.00) rotate(118) scale(352.00 176.00)"><ellipse cx="0" cy="0" rx="1" ry="1" fill="rgb(12,36,77)" fill-opacity="0.502"/></g>
<g transform="translate(6144.00 752.00) rotate(92) scale(576.00 16.00)"><ellipse cx="0" cy="0" rx="1" ry="1" fill="rgb(4,38,82)" fill-opacity="0.502"/></g>
<g transform="translate(4384.00 400.00) rotate(131) scale(112.00 16.00)"><ellipse cx="0" cy="0" rx="1" ry="1" fill="rgb(6,11,27)" fill-opacity="0.502"/></g>
<circle cx="4816.00" cy="0.00" r="320.00" fill="rgb(4,6,16)" fill-opacity="0.502"/>
<g transform="translate(2704.00 2448.00) rotate(341) scale(192.00 352.00)"><ellipse cx="0" cy="0" rx="1" ry="1" fill="rgb(4,34,81)" fill-opacity="0.502"/></g>
<circle cx="1744.00" cy="4592.00" r="384.00" fill="rgb(5,2,0)" fill-opacity="0.502"/>
<circle cx="6928.00" cy="1984.00" r="144.00" fill="rgb(5,44,99)" fill-opacity="0.502"/>
<circle cx="2640.00" cy="32.00" r="304.00" fill="rgb(4,1,3)" fill-opacity="0.502"/>
<circle cx="3136.00" cy="1472.00" r="96.00" fill="rgb(4,22,56)" fill-opacity="0.502"/>
<circle cx="3504.00" cy="1456.00" r="224.00" fill="rgb(2,35,87)" fill-opacity="0.502"/>
<polygon points="5954.94,1716.39 6129.31,1467.37 6221.06,1531.61 6046.69,1780.63" fill="rgb(9,17,36)" fill-opacity="0.502"/>
<g transform="translate(5584.00 2368.00) rotate(150) scale(80.00 240.00)"><ellipse cx="0" cy="0" rx="1" ry="1" fill="rgb(5,48,102)" fill-opacity="0.502"/></g>
<circle cx="4976.00" cy="3728.00" r="144.00" fill="rgb(6,39,88)" fill-opacity="0.502"/>
<circle cx="4576.00" cy="3824.00" r="176.00" fill="rgb(4,34,82)" fill-opacity="0.502"/>
<g transform="translate(3088.00 784.00) rotate(244) scale(48.00 368.00)"><ellipse cx="0" cy="0" rx="1" ry="1" fill="rgb(7,28,65)" fill-opacity="0.502"/></g>
<g transform="translate(2976.00 3568.00) rotate(360) scale(192.00 144.00)"><ellipse cx="0" cy="0" rx="1" ry="1" fill="rgb(5,29,74)" fill-opacity="0.502"/></g>
<polygon points="4883.30,3285.78 4761.04,3159.17 4956.70,2970.22 5078.96,3096.83" fill="rgb(8,37,87)" fill-opacity="0.502"/>
<polygon points="6674.25,1404.42 6685.14,1612.13 6237.75,1635.58 6226.86,1427.87" fill="rgb(4,39,87)" fill-opacity="0.502"/>
<polygon points="5968.10,3519.31 5999.98,3522.09 5967.90,3888.69 5936.02,3885.91" fill="rgb(0,17,44)" fill-opacity="0.502"/>
<circle cx="3600.00" cy="160.00" r="368.00" fill="rgb(6,5,12)" fill-opacity="0.502"/>
<polygon points="6695.55,3749.31 6993.97,3507.65 7064.45,3594.69 6766.03,3836.35" fill="rgb(9,40,79)" fill-opacity="0.502"/>
<polygon points="2821.71,1138.66 2639.71,936.52 2794.29,797.34 2976.29,999.48" fill="rgb(2,33,83)" fill-opacity="0.502"/>
<polygon points="2272.00,1456.00 2272.00,960.00 2672.00,960.00 2672.00,1456.00" fill="rgb(1,35,82)" fill-opacity="0.502"/>
<circle cx="1600.00" cy="1776.00" r="144.00" fill="rgb(7,3,7)" fill-opacity="0.502"/>
<g transform="translate(4000.00 688.00) rotate(274) scale(208.00 160.00)"><ellipse cx="0" cy="0" rx="1" ry="1" fill="rgb(3,35,86)" fill-opacity="0.502"/></g>
<circle cx="7056.00" cy="1392.00" r="256.00" fill="rgb(1,0,0)" fill-opacity="0.502"/>
<circle cx="6160.00" cy="640.00" r="128.00" fill="rgb(1,37,86)" fill-opacity="0.502"/>
<circle cx="6912.00" cy="2432.00" r="160.00" fill="rgb(4,42,94)" fill-opacity="0.502"/>
<g transform="translate(5232.00 1632.00) rotate(344) scale(336.00 16.00)"><ellipse cx="0" cy="0" rx="1" ry="1" fill="rgb(9,35,88)" fill-opacity="0.502"/></g>
<polygon points="5819.36,420.30 5993.20,447.83 5940.64,779.70 5766.80,752.17" fill="rgb(3,10,27)" fill-opacity="0.502"/>
<g transform="translate(1424.00 4592.00) rotate(121) scale(384.00 368.00)"><ellipse cx="0" cy="0" rx="1" ry="1" fill="rgb(7,2,0)" fill-opacity="0.502"/></g>
<circle cx="6448.00" cy="4352.00" r="144.00" fill="rgb(7,7,7)" fill-opacity="0.502"/>
<polygon points="2251.22,2248.77 1995.85,2230.92 2004.78,2103.23 2260.15,2121.08" fill="rgb(4,3,8)" fill-opacity="0.502"/>
<g transform="translate(6432.00 352.00) rotate(268) scale(304.00 432.00)"><ellipse cx="0" cy="0" rx="1" ry="1" fill="rgb(3,34,79)" fill-opacity="0.502"/></g>
<g transform="translate(3056.00 1056.00) rotate(173) scale(64.00 352.00)"><ellipse cx="0" cy="0" rx="1" ry="1" fill="rgb(3,15,39)" fill-opacity="0.502"/></g>
<polygon points="4405.53,4499.26 4374.50,4443.28 4458.47,4396.74 4489.50,4452.72" fill="rgb(17,28,47)" fill-opacity="0.502"/>
<polygon points="5678.93,1196.05 5795.95,1086.93 5905.07,1203.95 5788.05,1313.07" fill="rgb(5,3,1)" fill-opacity="0.502"/>
<circle cx="7024.00" cy="640.00" r="64.00" fill="rgb(43,20,23)" fill-opacity="0.502"/>
<g transform="translate(4544.00 3024.00) rotate(320) scale(160.00 32.00)"><ellipse cx="0" cy="0" rx="1" ry="1" fill="rgb(3,15,31)" fill-opacity="0.502"/></g>
<circle cx="4944.00" cy="3360.00" r="128.00" fill="rgb(7,42,96)" fill-opacity="0.502"/>
<polygon points="3436.29,3300.56 3524.66,3263.05 3699.71,3675.44 3611.34,3712.95" fill="rgb(6,21,42)" fill-opacity="0.502"/>
<polygon points="6224.00,1264.00 6224.00,1008.00 6320.00,1008.00 6320.00,1264.00" fill="rgb(5,38,89)" fill-opacity="0.502"/>
<polygon points="6279.77,2506.90 6133.92,2930.49 5816.23,2821.10 5962.08,2397.51" fill="rgb(3,4,7)" fill-opacity="0.502"/>
<circle cx="1968.00" cy="752.00" r="224.00" fill="rgb(4,2,3)" fill-opacity="0.502"/>
<g transform="translate(5232.00 1792.00) rotate(179) scale(336.00 128.00)"><ellipse cx="0" cy="0" rx="1" ry="1" fill="rgb(3,49,101)" fill-opacity="0.502"/></g>
<polygon points="2929.46,3470.69 3419.09,3321.00 3470.54,3489.31 2980.91,3639.00" fill="rgb(4,33,81)" fill-opacity="0.502"/>
<polygon points="6179.87,680.99 5924.48,200.66 6108.13,103.01 6363.52,583.34" fill="rgb(5,36,84)" fill-opacity="0.502"/>
<circle cx="6976.00" cy="496.00" r="80.00" fill="rgb(31,12,9)" fill-opacity="0.502"/>
<circle cx="3024.00" cy="368.00" r="304.00" fill="rgb(6,4,8)" fill-opacity="0.502"/>
<polygon points="4038.49,2972.98 3875.31,3038.91 3689.51,2579.02 3852.69,2513.09" fill="rgb(5,41,91)" fill-opacity="0.502"/>
<circle cx="2240.00" cy="1792.00" r="176.00" fill="rgb(8,30,67)" fill-opacity="0.502"/>
<circle cx="7776.00" cy="608.00" r="704.00" fill="rgb(0,0,0)" fill-opacity="0.502"/>
<polygon points="3670.07,4027.22 3488.78,3725.50 3529.93,3700.78 3711.22,4002.50" fill="rgb(5,15,35)" fill-opacity="0.502"/>
<polygon points="4221.02,424.44 4079.16,272.32 4242.98,119.56 4384.84,271.68" fill="rgb(5,5,1)" fill-opacity="0.502"/>
<polygon points="3220.78,1836.57 3156.78,1947.43 3115.22,1923.43 3179.22,1812.57" fill="rgb(1,15,48)" fill-opacity="0.502"/>
<polygon points="6976.40,2231.54 6946.73,2140.24 7007.60,2120.46 7037.27,2211.76" fill="rgb(7,52,118)" fill-opacity="0.502"/>
<polygon points="5410.90,3368.08 5149.40,3881.30 5021.10,3815.92 5282.60,3302.70" fill="rgb(0,40,87)" fill-opacity="0.502"/>
<polygon points="2866.13,2496.72 3232.73,2528.80 3197.87,2927.28 2831.27,2895.20" fill="rgb(4,36,85)" fill-opacity="0.502"/>
<polygon points="6378.16,1962.52 6744.94,2342.33 6629.84,2453.48 6263.06,2073.67" fill="rgb(3,41,92)" fill-opacity="0.502"/>
<polygon points="4472.00,4449.84 4502.53,4606.90 4424.00,4622.16 4393.47,4465.10" fill="rgb(9,36,84)" fill-opacity="0.502"/>
<g transform="translate(3904.00 4592.00) rotate(252) scale(48.00 544.00)"><ellipse cx="0" cy="0" rx="1" ry="1" fill="rgb(11,30,62)" fill-opacity="0.502"/></g>
<polygon points="3697.71,4493.80 3825.64,4498.26 3822.29,4594.20 3694.36,4589.74" fill="rgb(10,8,13)" fill-opacity="0.502"/>
<circle cx="2192.00" cy="2000.00" r="96.00" fill="rgb(9,27,56)" fill-opacity="0.502"/>
<polygon points="2759.78,1588.45 2790.46,1939.11 2328.22,1979.55 2297.54,1628.89" fill="rgb(1,34,83)" fill-opacity="0.502"/>
<circle cx="7024.00" cy="2912.00" r="48.00" fill="rgb(14,44,103)" fill-opacity="0.502"/>
<g transform="translate(2736.00 3712.00) rotate(215) scale(304.00 112.00)"><ellipse cx="0" cy="0" rx="1" ry="1" fill="rgb(5,25,59)" fill-opacity="0.502"/></g>
<polygon points="4251.65,2745.43 4151.63,2981.08 4004.35,2918.57 4104.37,2682.92" fill="rgb(6,46,99)" fill-opacity="0.502"/>
<g transform="translate(2032.00 1232.00) rotate(258) scale(256.00 80.00)"><ellipse cx="0" cy="0" rx="1" ry="1" fill="rgb(10,26,51)" fill-opacity="0.502"/></g>
<g transform="translate(5152.00 1200.00) rotate(308) scale(384.00 176.00)"><ellipse cx="0" cy="0" rx="1" ry="1" fill="rgb(3,42,93)" fill-opacity="0.502"/></g>
<circle cx="4336.00" cy="4064.00" r="224.00" fill="rgb(14,36,76)" fill-opacity="0.502"/>
<polygon points="2953.11,677.98 2555.45,846.78 2342.89,346.02 2740.55,177.22" fill="rgb(4,5,12)" fill-opacity="0.502"/>
<circle cx="6608.00" cy="4016.00" r="64.00" fill="rgb(13,26,53)" fill-opacity="0.502"/>
<polygon points="6923.02,583.54 6860.96,695.49 6804.98,664.46 6867.04,552.51" fill="rgb(0,33,68)" fill-opacity="0.502"/>
<polygon points="5220.70,204.83 5235.10,267.19 4923.30,339.17 4908.90,276.81" fill="rgb(13,27,62)" fill-opacity="0.502"/>
<g transform="translate(3424.00 2576.00) rotate(170) scale(16.00 624.00)"><ellipse cx="0" cy="0" rx="1" ry="1" fill="rgb(11,27,57)" fill-opacity="0.502"/></g>
<g transform="translate(4096.00 2288.00) rotate(71) scale(304.00 48.00)"><ellipse cx="0" cy="0" rx="1" ry="1" fill="rgb(4,47,100)" fill-opacity="0.502"/></g>
<g transform="translate(5472.00 2048.00) rotate(12) scale(160.00 176.00)"><ellipse cx="0" cy="0" rx="1" ry="1" fill="rgb(4,47,98)" fill-opacity="0.502"/></g>
<polygon points="3566.51,1946.10 3893.90,1870.51 3969.49,2197.90 3642.10,2273.49" fill="rgb(4,38,89)" fill-opacity="0.502"/>
<g transform="translate(6608.00 48.00) rotate(350) scale(352.00 128.00)"><ellipse cx="0" cy="0" rx="1" ry="1" fill="rgb(4,31,72)" fill-opacity="0.502"/></g>
<polygon points="5332.56,523.34 5340.10,379.54 5819.44,404.66 5811.90,548.46" fill="rgb(2,4,11)" fill-opacity="0.502"/>
<circle cx="4720.00" cy="2768.00" r="96.00" fill="rgb(9,34,78)" fill-opacity="0.502"/>
<polygon points="6072.19,1418.26 5825.95,1691.74 5623.81,1509.74 5870.05,1236.26" fill="rgb(3,3,4)" fill-opacity="0.502"/>
<polygon points="3247.64,504.03 3337.45,81.47 3744.36,167.97 3654.55,590.53" fill="rgb(5,6,14)" fill-opacity="0.502"/>
<polygon points="4878.19,377.02 4528.35,570.94 4481.81,486.98 4831.65,293.06" fill="rgb(8,38,83)" fill-opacity="0.502"/>
<polygon points="6108.62,1376.08 6101.93,1312.43 6563.38,1263.92 6570.07,1327.57" fill="rgb(0,5,4)" fill-opacity="0.502"/>
<g transform="translate(6560.00 112.00) rotate(326) scale(224.00 96.00)"><ellipse cx="0" cy="0" rx="1" ry="1" fill="rgb(4,36,80)" fill-opacity="0.502"/></g>
<polygon points="4472.25,1532.85 4408.49,1538.42 4391.75,1347.15 4455.51,1341.58" fill="rgb(10,32,75)" fill-opacity="0.502"/>
<g transform="translate(4256.00 3488.00) rotate(255) scale(208.00 176.00)"><ellipse cx="0" cy="0" rx="1" ry="1" fill="rgb(5,38,78)" fill-opacity="0.502"/></g>
<g transform="translate(7008.00 1360.00) rotate(173) scale(272.00 208.00)"><ellipse cx="0" cy="0" rx="1" ry="1" fill="rgb(1,0,1)" fill-opacity="0.502"/></g>
<polygon points="5351.01,2846.36 5164.06,2937.54 5128.99,2865.64 5315.94,2774.46" fill="rgb(2,14,35)" fill-opacity="0.502"/>
<polygon points="7103.22,760.42 7013.59,794.83 6944.78,615.58 7034.41,581.17" fill="rgb(37,16,21)" fill-opacity="0.502"/>
<polygon points="4072.00,4488.00 4072.00,4472.00 4328.00,4472.00 4328.00,4488.00" fill="rgb(10,27,48)" fill-opacity="0.502"/>
<polygon points="4613.36,4172.64 4657.46,4018.84 4826.64,4067.36 4782.54,4221.16" fill="rgb(3,37,88)" fill-opacity="0.502"/>
<g transform="translate(6944.00 2688.00) rotate(177) scale(160.00 16.00)"><ellipse cx="0" cy="0" rx="1" ry="1" fill="rgb(10,38,80)" fill-opacity="0.502"/></g>
<circle cx="5792.00" cy="416.00" r="96.00" fill="rgb(5,8,23)" fill-opacity="0.502"/>
<circle cx="2800.00" cy="528.00" r="144.00" fill="rgb(7,7,14)" fill-opacity="0.502"/>
<polygon points="2651.43,4562.55 2615.44,4406.65 2724.57,4381.45 2760.56,4537.35" fill="rgb(11,19,35)" fill-opacity="0.502"/>
<polygon points="5042.40,3580.59 4840.66,3127.47 4957.60,3075.41 5159.34,3528.53" fill="rgb(4,44,97)" fill-opacity="0.502"/>
<g transform="translate(1248.00 1968.00) rotate(3) scale(144.00 864.00)"><ellipse cx="0" cy="0" rx="1" ry="1" fill="rgb(5,1,0)" fill-opacity="0.502"/></g>
<polygon points="3614.68,3138.98 3637.91,3232.13 3265.32,3325.02 3242.09,3231.87" fill="rgb(0,5,9)" fill-opacity="0.502"/>
<polygon points="3744.51,4264.40 3697.10,4271.91 3599.49,3655.60 3646.90,3648.09" fill="rgb(10,20,40)" fill-opacity="0.502"/>
<polygon points="3192.60,707.34 3088.48,941.20 3015.40,908.66 3119.52,674.80" fill="rgb(11,25,53)" fill-opacity="0.502"/>
<polygon points="6177.42,2794.79 6610.16,2678.84 6622.58,2725.21 6189.84,2841.16" fill="rgb(2,2,13)" fill-opacity="0.502"/>
<g transform="translate(1408.00 992.00) rotate(261) scale(208.00 512.00)"><ellipse cx="0" cy="0" rx="1" ry="1" fill="rgb(1,1,0)" fill-opacity="0.502"/></g>
<polygon points="6271.96,3696.16 6302.01,3639.65 6528.04,3759.84 6497.99,3816.35" fill="rgb(1,6,7)" fill-opacity="0.502"/>
<circle cx="6736.00" cy="976.00" r="160.00" fill="rgb(6,39,81)" fill-opacity="0.502"/>
<g transform="translate(4528.00 2464.00) rotate(172) scale(64.00 416.00)"><ellipse cx="0" cy="0" rx="1" ry="1" fill="rgb(1,19,54)" fill-opacity="0.502"/></g>
<polygon points="2840.32,3925.51 2765.30,3748.77 3015.68,3642.49 3090.70,3819.23" fill="rgb(0,24,56)" fill-opacity="0.502"/>
<polygon points="6512.00,1008.00 6400.00,1008.00 6400.00,464.00 6512.00,464.00" fill="rgb(0,27,70)" fill-opacity="0.502"/>
<circle cx="2592.00" cy="3184.00" r="112.00" fill="rgb(5,30,75)" fill-opacity="0.502"/>
<g transform="translate(7920.00 3072.00) rotate(283) scale(896.00 784.00)"><ellipse cx="0" cy="0" rx="1" ry="1" fill="rgb(0,0,0)" fill-opacity="0.502"/></g>
<circle cx="1376.00" cy="3104.00" r="336.00" fill="rgb(5,1,1)" fill-opacity="0.502"/>
<g transform="translate(6992.00 2208.00) rotate(187) scale(64.00 432.00)"><ellipse cx="0" cy="0" rx="1" ry="1" fill="rgb(7,42,93)" fill-opacity="0.502"/></g>
<circle cx="2544.00" cy="1712.00" r="96.00" fill="rgb(0,30,69)" fill-opacity="0.502"/>
<polygon points="7086.62,2737.15 6848.02,3077.92 6769.38,3022.85 7007.98,2682.08" fill="rgb(5,40,95)" fill-opacity="0.502"/>
<g transform="translate(5536.00 528.00) rotate(334) scale(64.00 736.00)"><ellipse cx="0" cy="0" rx="1" ry="1" fill="rgb(2,4,7)" fill-opacity="0.502"/></g>
<polygon points="4991.35,3339.07 4940.96,3557.33 4800.65,3524.93 4851.04,3306.67" fill="rgb(9,37,89)" fill-opacity="0.502"/>
<g transform="translate(3680.00 2192.00) rotate(189) scale(240.00 192.00)"><ellipse cx="0" cy="0" rx="1" ry="1" fill="rgb(4,39,90)" fill-opacity="0.502"/></g>
<polygon points="3568.00,3824.00 3568.00,4288.00 3264.00,4288.00 3264.00,3824.00" fill="rgb(5,28,69)" fill-opacity="0.502"/>
<polygon points="1252.63,1464.34 1575.92,1202.54 1787.37,1463.66 1464.08,1725.46" fill="rgb(4,2,6)" fill-opacity="0.502"/>
<circle cx="5280.00" cy="1488.00" r="16.00" fill="rgb(0,28,26)" fill-opacity="0.502"/>
<polygon points="4486.84,691.82 4751.94,804.35 4633.16,1084.18 4368.06,971.65" fill="rgb(4,40,89)" fill-opacity="0.502"/>
<circle cx="3120.00" cy="1024.00" r="48.00" fill="rgb(12,32,55)" fill-opacity="0.502"/>
<g transform="translate(6480.00 1920.00) rotate(182) scale(224.00 96.00)"><ellipse cx="0" cy="0" rx="1" ry="1" fill="rgb(2,42,94)" fill-opacity="0.502"/></g>
<circle cx="6208.00" cy="1504.00" r="64.00" fill="rgb(11,35,70)" fill-opacity="0.502"/>
<g transform="translate(6368.00 3856.00) rotate(343) scale(128.00 32.00)"><ellipse cx="0" cy="0" rx="1" ry="1" fill="rgb(3,4,6)" fill-opacity="0.502"/></g>
<polygon points="2972.97,4462.52 3465.28,4402.07 3475.03,4481.48 2982.72,4541.93" fill="rgb(6,19,42)" fill-opacity="0.502"/>
<g transform="translate(5184.00 1888.00) rotate(270) scale(176.00 416.00)"><ellipse cx="0" cy="0" rx="1" ry="1" fill="rgb(2,46,99)" fill-opacity="0.502"/></g>
<g transform="translate(6944.00 0.00) rotate(271) scale(1040.00 16.00)"><ellipse cx="0" cy="0" rx="1" ry="1" fill="rgb(6,17,25)" fill-opacity="0.502"/></g>
<polygon points="5097.63,1230.12 5108.79,1357.63 4694.37,1393.88 4683.21,1266.37" fill="rgb(0,39,83)" fill-opacity="0.502"/>
<circle cx="3904.00" cy="768.00" r="144.00" fill="rgb(2,41,94)" fill-opacity="0.502"/>
<polygon points="5046.21,2714.03 5669.80,2570.07 5705.79,2725.97 5082.20,2869.93" fill="rgb(5,45,99)" fill-opacity="0.502"/>
<g transform="translate(3440.00 976.00) rotate(106) scale(336.00 320.00)"><ellipse cx="0" cy="0" rx="1" ry="1" fill="rgb(3,35,85)" fill-opacity="0.502"/></g>
<g transform="translate(5904.00 1984.00) rotate(254) scale(400.00 144.00)"><ellipse cx="0" cy="0" rx="1" ry="1" fill="rgb(2,3,6)" fill-opacity="0.502"/></g>
<polygon points="6977.80,313.94 7111.18,175.83 7134.20,198.06 7000.82,336.17" fill="rgb(13,6,0)" fill-opacity="0.502"/>
<g transform="translate(6480.00 3136.00) rotate(353) scale(32.00 384.00)"><ellipse cx="0" cy="0" rx="1" ry="1" fill="rgb(12,32,73)" fill-opacity="0.502"/></g>
<circle cx="2832.00" cy="3344.00" r="32.00" fill="rgb(2,0,0)" fill-opacity="0.502"/>
<polygon points="6249.43,3247.77 6011.22,3277.01 5958.57,2848.23 6196.78,2818.99" fill="rgb(1,2,1)" fill-opacity="0.502"/>
<g transform="translate(5056.00 192.00) rotate(349) scale(320.00 48.00)"><ellipse cx="0" cy="0" rx="1" ry="1" fill="rgb(5,5,17)" fill-opacity="0.502"/></g>
<polygon points="2944.80,3739.21 2892.37,3702.50 3039.20,3492.79 3091.63,3529.50" fill="rgb(5,27,68)" fill-opacity="0.502"/>
<circle cx="6608.00" cy="3696.00" r="64.00" fill="rgb(9,36,91)" fill-opacity="0.502"/>
<polygon points="2650.12,1330.43 2701.57,1162.12 2869.88,1213.57 2818.43,1381.88" fill="rgb(0,30,70)" fill-opacity="0.502"/>
<circle cx="6384.00" cy="3600.00" r="80.00" fill="rgb(5,15,31)" fill-opacity="0.502"/>
<polygon points="2402.05,714.96 1826.14,725.01 1821.95,485.04 2397.86,474.99" fill="rgb(5,4,7)" fill-opacity="0.502"/>
<g transform="translate(4032.00 3136.00) rotate(167) scale(560.00 48.00)"><ellipse cx="0" cy="0" rx="1" ry="1" fill="rgb(3,9,24)" fill-opacity="0.502"/></g>
<polygon points="6003.54,4197.26 5700.28,4218.47 5692.46,4106.74 5995.72,4085.53" fill="rgb(0,9,23)" fill-opacity="0.502"/>
<polygon points="5971.24,4277.04 5796.56,4298.49 5788.76,4234.96 5963.44,4213.51" fill="rgb(11,36,91)" fill-opacity="0.502"/>
<polygon points="5760.00,4208.00 6032.00,4208.00 6032.00,4336.00 5760.00,4336.00" fill="rgb(9,34,82)" fill-opacity="0.502"/>
<circle cx="6624.00" cy="2992.00" r="176.00" fill="rgb(2,40,90)" fill-opacity="0.502"/>
<polygon points="6318.11,3235.98 6387.79,2956.54 6449.89,2972.02 6380.21,3251.46" fill="rgb(5,17,39)" fill-opacity="0.502"/>
<polygon points="3880.95,1394.79 4054.28,1425.35 4007.05,1693.21 3833.72,1662.65" fill="rgb(3,44,99)" fill-opacity="0.502"/>
<polygon points="6468.13,1036.29 6436.13,1091.71 6075.87,883.71 6107.87,828.29" fill="rgb(2,37,84)" fill-opacity="0.502"/>
<circle cx="4256.00" cy="4384.00" r="48.00" fill="rgb(0,7,14)" fill-opacity="0.502"/>
<polygon points="5322.69,4488.20 5083.27,4471.45 5093.31,4327.80 5332.73,4344.55" fill="rgb(7,37,85)" fill-opacity="0.502"/>
<circle cx="6848.00" cy="96.00" r="112.00" fill="rgb(0,23,57)" fill-opacity="0.502"/>
<g transform="translate(2512.00 3120.00) rotate(45) scale(16.00 144.00)"><ellipse cx="0" cy="0" rx="1" ry="1" fill="rgb(10,26,63)" fill-opacity="0.502"/></g>
<polygon points="6966.45,3694.66 6985.43,3965.99 6937.55,3969.34 6918.57,3698.01" fill="rgb(0,0,1)" fill-opacity="0.502"/>
<g transform="translate(3344.00 2784.00) rotate(171) scale(16.00 432.00)"><ellipse cx="0" cy="0" rx="1" ry="1" fill="rgb(0,16,61)" fill-opacity="0.502"/></g>
<g transform="translate(3776.00 3712.00) rotate(157) scale(64.00 96.00)"><ellipse cx="0" cy="0" rx="1" ry="1" fill="rgb(5,35,84)" fill-opacity="0.502"/></g>
<circle cx="4176.00" cy="3024.00" r="48.00" fill="rgb(4,39,78)" fill-opacity="0.502"/>
<circle cx="2368.00" cy="2752.00" r="16.00" fill="rgb(16,43,88)" fill-opacity="0.502"/>
<polygon points="3729.04,2587.56 3635.11,2648.56 3486.96,2420.44 3580.89,2359.44" fill="rgb(0,34,84)" fill-opacity="0.502"/>
<polygon points="3691.12,966.69 3491.68,737.26 3684.88,569.31 3884.32,798.74" fill="rgb(3,38,89)" fill-opacity="0.502"/>
<circle cx="6656.00" cy="4240.00" r="48.00" fill="rgb(14,22,57)" fill-opacity="0.502"/>
<circle cx="2432.00" cy="2112.00" r="80.00" fill="rgb(1,12,24)" fill-opacity="0.502"/>
<g transform="translate(4880.00 4016.00) rotate(150) scale(64.00 128.00)"><ellipse cx="0" cy="0" rx="1" ry="1" fill="rgb(3,17,40)" fill-opacity="0.502"/></g>
<polygon points="3690.53,4315.42 3830.95,4446.37 3765.47,4516.58 3625.05,4385.63" fill="rgb(5,8,17)" fill-opacity="0.502"/>
<g transform="translate(5296.00 1536.00) rotate(350) scale(1008.00 16.00)"><ellipse cx="0" cy="0" rx="1" ry="1" fill="rgb(0,0,11)" fill-opacity="0.502"/></g>
<polygon points="2241.43,2205.04 2300.34,2230.04 2206.57,2450.96 2147.66,2425.96" fill="rgb(10,21,44)" fill-opacity="0.502"/>
<g transform="translate(5536.00 1168.00) rotate(343) scale(32.00 352.00)"><ellipse cx="0" cy="0" rx="1" ry="1" fill="rgb(0,6,27)" fill-opacity="0.502"/></g>
<polygon points="3347.41,1009.86 3499.51,784.36 3804.59,990.14 3652.49,1215.64" fill="rgb(2,39,90)" fill-opacity="0.502"/>
<polygon points="5267.40,3223.85 5220.07,3122.34 5756.60,2872.15 5803.93,2973.66" fill="rgb(5,43,95)" fill-opacity="0.502"/>
</g>
</svg>