<?xml version="1.0" standalone="no"?>
<svg xmlns="http://www.w3.org/2000/svg" width="8192" height="4608" viewBox="0 0 8192 4608" style="overflow:hidden">
<defs>
<clipPath id="c"><rect x="0" y="0" width="8192" height="4608"/></clipPath>
</defs>
<rect width="8192" height="4608" fill="rgb(33,43,29)"/>
<g clip-path="url(#c)">
<g transform="translate(2336.00 112.00) rotate(197) scale(512.00 384.00)"><ellipse cx="0" cy="0" rx="1" ry="1" fill="rgb(255,202,152)" fill-opacity="0.502"/></g>
<circle cx="2224.00" cy="2864.00" r="960.00" fill="rgb(96,164,104)" fill-opacity="0.502"/>
<circle cx="6048.00" cy="2624.00" r="1056.00" fill="rgb(92,158,113)" fill-opacity="0.502"/>
<g transform="translate(8048.00 2672.00) rotate(179) scale(976.00 4592.00)"><ellipse cx="0" cy="0" rx="1" ry="1" fill="rgb(0,0,0)" fill-opacity="0.502"/></g>
<circle cx="0.00" cy="3232.00" r="1440.00" fill="rgb(0,0,0)" fill-opacity="0.502"/>
<circle cx="4816.00" cy="2208.00" r="576.00" fill="rgb(133,116,121)" fill-opacity="0.502"/>
<polygon points="7093.97,-91.62 7081.96,596.28 6586.03,587.62 6598.04,-100.28" fill="rgb(255,220,170)" fill-opacity="0.502"/>
<circle cx="3728.00" cy="3248.00" r="576.00" fill="rgb(33,181,75)" fill-opacity="0.502"/>
<g transform="translate(4624.00 3440.00) rotate(89) scale(80.00 2544.00)"><ellipse cx="0" cy="0" rx="1" ry="1" fill="rgb(201,247,255)" fill-opacity="0.502"/></g>
<g transform="translate(528.00 1424.00) rotate(360) scale(592.00 4592.00)"><ellipse cx="0" cy="0" rx="1" ry="1" fill="rgb(0,0,0)" fill-opacity="0.502"/></g>
<g transform="translate(6080.00 2464.00) rotate(84) scale(240.00 1072.00)"><ellipse cx="0" cy="0" rx="1" ry="1" fill="rgb(171,197,212)" fill-opacity="0.502"/></g>
<circle cx="2272.00" cy="736.00" r="432.00" fill="rgb(146,41,25)" fill-opacity="0.502"/>
<circle cx="2784.00" cy="1936.00" r="656.00" fill="rgb(113,95,106)" fill-opacity="0.502"/>
<circle cx="4096.00" cy="544.00" r="944.00" fill="rgb(7,0,0)" fill-opacity="0.502"/>
<g transform="translate(3168.00 3936.00) rotate(0) scale(8176.00 288.00)"><ellipse cx="0" cy="0" rx="1" ry="1" fill="rgb(0,0,0)" fill-opacity="0.502"/></g>
<circle cx="1472.00" cy="0.00" r="352.00" fill="rgb(208,138,113)" fill-opacity="0.502"/>
<polygon points="2305.53,1940.98 2351.57,1985.44 1662.47,2699.02 1616.43,2654.56" fill="rgb(255,255,255)" fill-opacity="0.502"/>
<polygon points="4669.98,2175.51 4128.72,2372.51 3970.02,1936.49 4511.28,1739.49" fill="rgb(15,0,0)" fill-opacity="0.502"/>
<g transform="translate(6368.00 4064.00) rotate(89) scale(592.00 3808.00)"><ellipse cx="0" cy="0" rx="1" ry="1" fill="rgb(0,16,0)" fill-opacity="0.502"/></g>
<circle cx="1344.00" cy="3456.00" r="256.00" fill="rgb(111,206,103)" fill-opacity="0.502"/>
<g transform="translate(5584.00 3056.00) rotate(177) scale(1920.00 336.00)"><ellipse cx="0" cy="0" rx="1" ry="1" fill="rgb(0,101,0)" fill-opacity="0.502"/></g>
<circle cx="5904.00" cy="1776.00" r="480.00" fill="rgb(78,19,20)" fill-opacity="0.502"/>
<circle cx="1408.00" cy="2544.00" r="288.00" fill="rgb(138,131,144)" fill-opacity="0.502"/>
<circle cx="1632.00" cy="1728.00" r="512.00" fill="rgb(81,36,30)" fill-opacity="0.502"/>
<g transform="translate(4704.00 2496.00) rotate(274) scale(192.00 1104.00)"><ellipse cx="0" cy="0" rx="1" ry="1" fill="rgb(122,137,139)" fill-opacity="0.502"/></g>
<circle cx="7824.00" cy="2592.00" r="768.00" fill="rgb(0,0,0)" fill-opacity="0.502"/>
<g transform="translate(1392.00 3264.00) rotate(344) scale(288.00 480.00)"><ellipse cx="0" cy="0" rx="1" ry="1" fill="rgb(47,127,44)" fill-opacity="0.502"/></g>
<circle cx="3648.00" cy="1776.00" r="448.00" fill="rgb(86,65,57)" fill-opacity="0.502"/>
<circle cx="1360.00" cy="768.00" r="608.00" fill="rgb(15,0,0)" fill-opacity="0.502"/>
<g transform="translate(7728.00 1136.00) rotate(271) scale(5824.00 640.00)"><ellipse cx="0" cy="0" rx="1" ry="1" fill="rgb(0,0,0)" fill-opacity="0.502"/></g>
<g transform="translate(384.00 1520.00) rotate(90) scale(8176.00 720.00)"><ellipse cx="0" cy="0" rx="1" ry="1" fill="rgb(0,0,0)" fill-opacity="0.502"/></g>
<polygon points="2248.00,3416.00 2248.00,2952.00 3208.00,2952.00 3208.00,3416.00" fill="rgb(0,148,0)" fill-opacity="0.502"/>
<polygon points="1584.00,3552.00 1584.00,3440.00 1888.00,3440.00 1888.00,3552.00" fill="rgb(186,171,211)" fill-opacity="0.502"/>
<circle cx="3344.00" cy="2576.00" r="368.00" fill="rgb(33,19,34)" fill-opacity="0.502"/>
<g transform="translate(5232.00 2064.00) rotate(178) scale(736.00 240.00)"><ellipse cx="0" cy="0" rx="1" ry="1" fill="rgb(75,40,22)" fill-opacity="0.502"/></g>
<polygon points="7856.00,4592.00 320.00,4592.00 320.00,4416.00 7856.00,4416.00" fill="rgb(0,0,0)" fill-opacity="0.502"/>
<g transform="translate(3136.00 1872.00) rotate(132) scale(672.00 256.00)"><ellipse cx="0" cy="0" rx="1" ry="1" fill="rgb(40,37,19)" fill-opacity="0.502"/></g>
<circle cx="5712.00" cy="416.00" r="912.00" fill="rgb(27,7,16)" fill-opacity="0.502"/>
<circle cx="2304.00" cy="2528.00" r="272.00" fill="rgb(161,115,121)" fill-opacity="0.502"/>
<g transform="translate(2592.00 1680.00) rotate(313) scale(416.00 64.00)"><ellipse cx="0" cy="0" rx="1" ry="1" fill="rgb(152,208,255)" fill-opacity="0.502"/></g>
<polygon points="4594.59,2880.01 4620.55,3375.33 3997.41,3407.99 3971.45,2912.67" fill="rgb(0,148,35)" fill-opacity="0.502"/>
<polygon points="2288.23,2944.24 2271.48,3423.95 1807.77,3407.76 1824.52,2928.05" fill="rgb(0,135,0)" fill-opacity="0.502"/>
<g transform="translate(6848.00 2208.00) rotate(92) scale(112.00 288.00)"><ellipse cx="0" cy="0" rx="1" ry="1" fill="rgb(203,223,207)" fill-opacity="0.502"/></g>
<circle cx="6656.00" cy="1680.00" r="432.00" fill="rgb(88,44,44)" fill-opacity="0.502"/>
<polygon points="2448.00,3536.00 2448.00,3424.00 3488.00,3424.00 3488.00,3536.00" fill="rgb(181,212,242)" fill-opacity="0.502"/>
<circle cx="6880.00" cy="3360.00" r="208.00" fill="rgb(42,169,116)" fill-opacity="0.502"/>
<g transform="translate(2144.00 1392.00) rotate(166) scale(960.00 240.00)"><ellipse cx="0" cy="0" rx="1" ry="1" fill="rgb(95,43,23)" fill-opacity="0.502"/></g>
<g transform="translate(3920.00 3168.00) rotate(359) scale(2928.00 224.00)"><ellipse cx="0" cy="0" rx="1" ry="1" fill="rgb(0,117,19)" fill-opacity="0.502"/></g>
<polygon points="7082.53,1669.07 4861.58,1785.46 4805.47,714.93 7026.42,598.54" fill="rgb(44,34,33)" fill-opacity="0.502"/>
<circle cx="1408.00" cy="2128.00" r="336.00" fill="rgb(33,28,26)" fill-opacity="0.502"/>
<circle cx="5840.00" cy="2880.00" r="208.00" fill="rgb(0,65,13)" fill-opacity="0.502"/>
<circle cx="2976.00" cy="4288.00" r="144.00" fill="rgb(18,147,27)" fill-opacity="0.502"/>
<polygon points="5206.34,1686.14 5703.06,2451.01 5273.66,2729.86 4776.94,1964.99" fill="rgb(92,81,57)" fill-opacity="0.502"/>
<circle cx="3024.00" cy="704.00" r="480.00" fill="rgb(55,14,9)" fill-opacity="0.502"/>
<polygon points="2287.27,2844.15 3679.06,2819.86 3680.73,2915.85 2288.94,2940.14" fill="rgb(0,0,0)" fill-opacity="0.502"/>
<g transform="translate(4096.00 448.00) rotate(29) scale(768.00 416.00)"><ellipse cx="0" cy="0" rx="1" ry="1" fill="rgb(6,0,1)" fill-opacity="0.502"/></g>
<polygon points="1689.38,2585.55 1686.59,2745.52 1510.62,2742.45 1513.41,2582.48" fill="rgb(175,245,244)" fill-opacity="0.502"/>
<polygon points="1300.41,2768.89 1133.03,2823.28 1083.59,2671.11 1250.97,2616.72" fill="rgb(212,174,150)" fill-opacity="0.502"/>
<g transform="translate(5840.00 1904.00) rotate(358) scale(1296.00 160.00)"><ellipse cx="0" cy="0" rx="1" ry="1" fill="rgb(117,75,55)" fill-opacity="0.502"/></g>
<circle cx="3072.00" cy="160.00" r="288.00" fill="rgb(54,12,8)" fill-opacity="0.502"/>
<g transform="translate(1456.00 3488.00) rotate(91) scale(80.00 352.00)"><ellipse cx="0" cy="0" rx="1" ry="1" fill="rgb(146,136,167)" fill-opacity="0.502"/></g>
<polygon points="1696.00,3536.00 2448.00,3536.00 2448.00,3536.00 1696.00,3536.00" fill="rgb(255,255,255)" fill-opacity="0.502"/>
<circle cx="6768.00" cy="2896.00" r="336.00" fill="rgb(0,60,15)" fill-opacity="0.502"/>
<g transform="translate(1616.00 2448.00) rotate(142) scale(688.00 96.00)"><ellipse cx="0" cy="0" rx="1" ry="1" fill="rgb(75,97,113)" fill-opacity="0.502"/></g>
<g transform="translate(1968.00 0.00) rotate(269) scale(176.00 864.00)"><ellipse cx="0" cy="0" rx="1" ry="1" fill="rgb(255,206,169)" fill-opacity="0.502"/></g>
<polygon points="2705.68,2816.75 2553.06,2572.51 2702.32,2479.25 2854.94,2723.49" fill="rgb(76,1,3)" fill-opacity="0.502"/>
<g transform="translate(3696.00 4288.00) rotate(218) scale(160.00 144.00)"><ellipse cx="0" cy="0" rx="1" ry="1" fill="rgb(15,129,29)" fill-opacity="0.502"/></g>
<circle cx="4384.00" cy="2080.00" r="208.00" fill="rgb(19,15,12)" fill-opacity="0.502"/>
<circle cx="6736.00" cy="3104.00" r="288.00" fill="rgb(0,131,23)" fill-opacity="0.502"/>
<polygon points="5457.78,2376.73 4198.59,2486.90 4190.22,2391.27 5449.41,2281.10" fill="rgb(156,188,181)" fill-opacity="0.502"/>
<polygon points="6519.03,2709.08 5742.66,2599.96 5784.97,2298.92 6561.34,2408.04" fill="rgb(103,174,212)" fill-opacity="0.502"/>
<g transform="translate(4048.00 4304.00) rotate(90) scale(96.00 3120.00)"><ellipse cx="0" cy="0" rx="1" ry="1" fill="rgb(18,139,36)" fill-opacity="0.502"/></g>
<g transform="translate(2304.00 1472.00) rotate(178) scale(288.00 352.00)"><ellipse cx="0" cy="0" rx="1" ry="1" fill="rgb(60,30,18)" fill-opacity="0.502"/></g>
<polygon points="3363.86,2895.76 3388.98,2416.42 3996.14,2448.24 3971.02,2927.58" fill="rgb(29,17,27)" fill-opacity="0.502"/>
<polygon points="1524.56,2142.03 1566.87,1840.98 1915.44,1889.97 1873.13,2191.02" fill="rgb(0,10,6)" fill-opacity="0.502"/>
<g transform="translate(6064.00 4288.00) rotate(359) scale(1120.00 128.00)"><ellipse cx="0" cy="0" rx="1" ry="1" fill="rgb(5,49,23)" fill-opacity="0.502"/></g>
<g transform="translate(1648.00 544.00) rotate(263) scale(384.00 544.00)"><ellipse cx="0" cy="0" rx="1" ry="1" fill="rgb(59,16,10)" fill-opacity="0.502"/></g>
<circle cx="576.00" cy="848.00" r="768.00" fill="rgb(0,0,0)" fill-opacity="0.502"/>
<polygon points="2392.63,1132.85 2040.68,1139.00 2023.37,147.15 2375.32,141.00" fill="rgb(141,67,44)" fill-opacity="0.502"/>
<polygon points="4481.39,2261.63 4822.16,2500.24 4638.61,2762.37 4297.84,2523.76" fill="rgb(83,128,201)" fill-opacity="0.502"/>
<polygon points="3708.45,1670.29 3753.71,1715.55 3459.55,2009.71 3414.29,1964.45" fill="rgb(212,208,192)" fill-opacity="0.502"/>
<g transform="translate(1888.00 1632.00) rotate(191) scale(608.00 128.00)"><ellipse cx="0" cy="0" rx="1" ry="1" fill="rgb(122,94,71)" fill-opacity="0.502"/></g>
<polygon points="6927.28,2406.17 7101.97,2427.62 7072.72,2665.83 6898.03,2644.38" fill="rgb(199,191,182)" fill-opacity="0.502"/>
<polygon points="6549.59,115.84 7067.88,15.10 7098.41,172.16 6580.12,272.90" fill="rgb(213,234,185)" fill-opacity="0.502"/>
<circle cx="5568.00" cy="48.00" r="400.00" fill="rgb(11,8,0)" fill-opacity="0.502"/>
<polygon points="4735.53,2327.66 5212.90,2377.83 5184.47,2648.34 4707.10,2598.17" fill="rgb(148,149,88)" fill-opacity="0.502"/>
<g transform="translate(7600.00 400.00) rotate(314) scale(384.00 608.00)"><ellipse cx="0" cy="0" rx="1" ry="1" fill="rgb(0,0,0)" fill-opacity="0.502"/></g>
<polygon points="4479.27,2587.19 4428.06,2951.61 3952.73,2884.81 4003.94,2520.39" fill="rgb(38,36,42)" fill-opacity="0.502"/>
<g transform="translate(5648.00 2816.00) rotate(0) scale(1456.00 64.00)"><ellipse cx="0" cy="0" rx="1" ry="1" fill="rgb(0,0,5)" fill-opacity="0.502"/></g>
<circle cx="5936.00" cy="3056.00" r="240.00" fill="rgb(0,128,24)" fill-opacity="0.502"/>
<g transform="translate(1568.00 3104.00) rotate(194) scale(432.00 288.00)"><ellipse cx="0" cy="0" rx="1" ry="1" fill="rgb(22,90,19)" fill-opacity="0.502"/></g>
<circle cx="6416.00" cy="768.00" r="400.00" fill="rgb(37,31,33)" fill-opacity="0.502"/>
<polygon points="6907.93,455.24 6953.00,540.00 6628.07,712.76 6583.00,628.00" fill="rgb(184,134,101)" fill-opacity="0.502"/>
<polygon points="1142.51,538.39 1130.23,362.82 1433.49,341.61 1445.77,517.18" fill="rgb(108,57,41)" fill-opacity="0.502"/>
<circle cx="3552.00" cy="2368.00" r="64.00" fill="rgb(127,163,140)" fill-opacity="0.502"/>
<circle cx="1296.00" cy="2320.00" r="272.00" fill="rgb(68,53,44)" fill-opacity="0.502"/>
<g transform="translate(6384.00 1712.00) rotate(94) scale(512.00 320.00)"><ellipse cx="0" cy="0" rx="1" ry="1" fill="rgb(61,48,39)" fill-opacity="0.502"/></g>
<circle cx="4784.00" cy="1120.00" r="512.00" fill="rgb(30,15,12)" fill-opacity="0.502"/>
<polygon points="3107.13,1428.78 3249.81,1300.31 3356.87,1419.22 3214.19,1547.69" fill="rgb(130,118,127)" fill-opacity="0.502"/>
<circle cx="6336.00" cy="3104.00" r="288.00" fill="rgb(0,123,25)" fill-opacity="0.502"/>
<polygon points="2810.28,-97.45 2638.28,502.37 2453.72,449.45 2625.72,-150.37" fill="rgb(246,159,121)" fill-opacity="0.502"/>
<g transform="translate(3136.00 880.00) rotate(226) scale(480.00 512.00)"><ellipse cx="0" cy="0" rx="1" ry="1" fill="rgb(42,23,18)" fill-opacity="0.502"/></g>
<g transform="translate(7792.00 1840.00) rotate(300) scale(864.00 672.00)"><ellipse cx="0" cy="0" rx="1" ry="1" fill="rgb(0,0,0)" fill-opacity="0.502"/></g>
<g transform="translate(6096.00 1168.00) rotate(174) scale(400.00 96.00)"><ellipse cx="0" cy="0" rx="1" ry="1" fill="rgb(73,66,63)" fill-opacity="0.502"/></g>
<circle cx="6064.00" cy="3840.00" r="352.00" fill="rgb(0,7,1)" fill-opacity="0.502"/>
<polygon points="2000.00,592.00 2000.00,1472.00 1408.00,1472.00 1408.00,592.00" fill="rgb(23,6,5)" fill-opacity="0.502"/>
<polygon points="2796.82,2502.80 2890.08,2353.54 3107.18,2489.20 3013.92,2638.46" fill="rgb(93,144,161)" fill-opacity="0.502"/>
<circle cx="5264.00" cy="2160.00" r="144.00" fill="rgb(26,27,24)" fill-opacity="0.502"/>
<polygon points="5553.40,2243.27 5590.83,2365.68 5070.60,2524.73 5033.17,2402.32" fill="rgb(135,160,135)" fill-opacity="0.502"/>
<polygon points="3450.30,2326.72 3742.52,2410.52 3733.70,2441.28 3441.48,2357.48" fill="rgb(157,176,151)" fill-opacity="0.502"/>
<polygon points="2912.36,2006.37 3132.96,1967.47 3199.64,2345.63 2979.04,2384.53" fill="rgb(10,9,1)" fill-opacity="0.502"/>
<g transform="translate(1776.00 1920.00) rotate(28) scale(224.00 384.00)"><ellipse cx="0" cy="0" rx="1" ry="1" fill="rgb(26,23,16)" fill-opacity="0.502"/></g>
<circle cx="3168.00" cy="3632.00" r="112.00" fill="rgb(29,183,36)" fill-opacity="0.502"/>
<polygon points="5448.00,456.00 5448.00,680.00 5304.00,680.00 5304.00,456.00" fill="rgb(98,90,77)" fill-opacity="0.502"/>
<circle cx="6048.00" cy="448.00" r="480.00" fill="rgb(20,18,16)" fill-opacity="0.502"/>
<circle cx="2912.00" cy="4496.00" r="144.00" fill="rgb(0,0,0)" fill-opacity="0.502"/>
<g transform="translate(6288.00 0.00) rotate(258) scale(176.00 768.00)"><ellipse cx="0" cy="0" rx="1" ry="1" fill="rgb(22,11,4)" fill-opacity="0.502"/></g>
<circle cx="5056.00" cy="3248.00" r="112.00" fill="rgb(69,10,40)" fill-opacity="0.502"/>
<circle cx="608.00" cy="1840.00" r="480.00" fill="rgb(0,0,0)" fill-opacity="0.502"/>
<circle cx="7776.00" cy="768.00" r="704.00" fill="rgb(0,0,0)" fill-opacity="0.502"/>
<g transform="translate(5728.00 2128.00) rotate(85) scale(96.00 1232.00)"><ellipse cx="0" cy="0" rx="1" ry="1" fill="rgb(37,36,30)" fill-opacity="0.502"/></g>
<g transform="translate(1472.00 2912.00) rotate(181) scale(384.00 80.00)"><ellipse cx="0" cy="0" rx="1" ry="1" fill="rgb(2,0,11)" fill-opacity="0.502"/></g>
<g transform="translate(4304.00 1856.00) rotate(206) scale(208.00 608.00)"><ellipse cx="0" cy="0" rx="1" ry="1" fill="rgb(45,26,21)" fill-opacity="0.502"/></g>
<g transform="translate(2944.00 2640.00) rotate(57) scale(32.00 304.00)"><ellipse cx="0" cy="0" rx="1" ry="1" fill="rgb(119,111,101)" fill-opacity="0.502"/></g>
<polygon points="3056.00,4224.00 1632.00,4224.00 1632.00,3680.00 3056.00,3680.00" fill="rgb(0,24,2)" fill-opacity="0.502"/>
<g transform="translate(2016.00 2736.00) rotate(293) scale(224.00 176.00)"><ellipse cx="0" cy="0" rx="1" ry="1" fill="rgb(146,100,115)" fill-opacity="0.502"/></g>
<polygon points="5867.63,604.67 6710.99,516.03 6724.37,643.33 5881.01,731.97" fill="rgb(66,64,64)" fill-opacity="0.502"/>
<polygon points="6320.28,1860.33 6452.14,1533.96 7119.72,1803.67 6987.86,2130.04" fill="rgb(91,64,51)" fill-opacity="0.502"/>
<polygon points="4223.14,1962.64 4056.86,1866.64 4096.86,1797.36 4263.14,1893.36" fill="rgb(109,101,99)" fill-opacity="0.502"/>
<polygon points="3188.44,2818.25 3198.19,2738.85 3547.56,2781.75 3537.81,2861.15" fill="rgb(99,130,117)" fill-opacity="0.502"/>
<g transform="translate(2800.00 2784.00) rotate(91) scale(16.00 896.00)"><ellipse cx="0" cy="0" rx="1" ry="1" fill="rgb(180,174,170)" fill-opacity="0.502"/></g>
<g transform="translate(4320.00 3456.00) rotate(268) scale(48.00 1440.00)"><ellipse cx="0" cy="0" rx="1" ry="1" fill="rgb(174,216,255)" fill-opacity="0.502"/></g>
<circle cx="7200.00" cy="2480.00" r="128.00" fill="rgb(0,0,0)" fill-opacity="0.502"/>
<polygon points="1737.55,1483.61 1733.09,1547.45 1174.45,1508.39 1178.91,1444.55" fill="rgb(247,185,152)" fill-opacity="0.502"/>
<polygon points="2687.98,2367.54 2335.20,2587.99 2208.02,2384.46 2560.80,2164.01" fill="rgb(134,154,136)" fill-opacity="0.502"/>
<circle cx="7840.00" cy="3904.00" r="880.00" fill="rgb(0,0,0)" fill-opacity="0.502"/>
<g transform="translate(4512.00 2752.00) rotate(115) scale(80.00 128.00)"><ellipse cx="0" cy="0" rx="1" ry="1" fill="rgb(61,79,103)" fill-opacity="0.502"/></g>
<g transform="translate(4768.00 1808.00) rotate(200) scale(304.00 192.00)"><ellipse cx="0" cy="0" rx="1" ry="1" fill="rgb(115,86,65)" fill-opacity="0.502"/></g>
<circle cx="1424.00" cy="1872.00" r="336.00" fill="rgb(47,41,28)" fill-opacity="0.502"/>
<g transform="translate(2192.00 1680.00) rotate(262) scale(112.00 208.00)"><ellipse cx="0" cy="0" rx="1" ry="1" fill="rgb(34,18,6)" fill-opacity="0.502"/></g>
<circle cx="0.00" cy="752.00" r="1120.00" fill="rgb(0,0,0)" fill-opacity="0.502"/>
<polygon points="2683.55,1517.87 2670.24,1455.27 3108.45,1362.13 3121.76,1424.73" fill="rgb(133,180,230)" fill-opacity="0.502"/>
<circle cx="944.00" cy="4384.00" r="176.00" fill="rgb(0,0,0)" fill-opacity="0.502"/>
<circle cx="2592.00" cy="2064.00" r="128.00" fill="rgb(151,153,147)" fill-opacity="0.502"/>
<circle cx="2752.00" cy="880.00" r="416.00" fill="rgb(54,28,15)" fill-opacity="0.502"/>
<polygon points="4661.65,2994.35 4733.65,2869.65 4858.35,2941.65 4786.35,3066.35" fill="rgb(3,155,42)" fill-opacity="0.502"/>
<g transform="translate(6304.00 1392.00) rotate(79) scale(288.00 800.00)"><ellipse cx="0" cy="0" rx="1" ry="1" fill="rgb(40,38,32)" fill-opacity="0.502"/></g>
<g transform="translate(6400.00 800.00) rotate(318) scale(128.00 304.00)"><ellipse cx="0" cy="0" rx="1" ry="1" fill="rgb(7,7,10)" fill-opacity="0.502"/></g>
<polygon points="5875.81,1369.52 5018.97,1631.49 4972.19,1478.48 5829.03,1216.51" fill="rgb(29,16,8)" fill-opacity="0.502"/>
<g transform="translate(3120.00 1520.00) rotate(161) scale(512.00 64.00)"><ellipse cx="0" cy="0" rx="1" ry="1" fill="rgb(110,83,72)" fill-opacity="0.502"/></g>
<polygon points="2919.30,2684.63 3160.84,2527.77 3256.70,2675.37 3015.16,2832.23" fill="rgb(61,37,36)" fill-opacity="0.502"/>
<g transform="translate(1200.00 3008.00) rotate(82) scale(80.00 96.00)"><ellipse cx="0" cy="0" rx="1" ry="1" fill="rgb(79,155,76)" fill-opacity="0.502"/></g>
<g transform="translate(4016.00 816.00) rotate(213) scale(320.00 672.00)"><ellipse cx="0" cy="0" rx="1" ry="1" fill="rgb(12,4,7)" fill-opacity="0.502"/></g>
<circle cx="1248.00" cy="848.00" r="352.00" fill="rgb(9,5,6)" fill-opacity="0.502"/>
<g transform="translate(1808.00 2688.00) rotate(151) scale(384.00 32.00)"><ellipse cx="0" cy="0" rx="1" ry="1" fill="rgb(54,35,55)" fill-opacity="0.502"/></g>
<g transform="translate(7632.00 2960.00) rotate(114) scale(800.00 496.00)"><ellipse cx="0" cy="0" rx="1" ry="1" fill="rgb(0,0,0)" fill-opacity="0.502"/></g>
<polygon points="5155.21,2867.43 5164.71,3411.35 4636.79,3420.57 4627.29,2876.65" fill="rgb(29,108,45)" fill-opacity="0.502"/>
<circle cx="1520.00" cy="2048.00" r="240.00" fill="rgb(24,27,21)" fill-opacity="0.502"/>
<g transform="translate(6896.00 960.00) rotate(200) scale(144.00 400.00)"><ellipse cx="0" cy="0" rx="1" ry="1" fill="rgb(74,55,52)" fill-opacity="0.502"/></g>
<circle cx="3344.00" cy="1952.00" r="128.00" fill="rgb(117,124,98)" fill-opacity="0.502"/>
<g transform="translate(5184.00 3584.00) rotate(269) scale(48.00 2000.00)"><ellipse cx="0" cy="0" rx="1" ry="1" fill="rgb(3,139,17)" fill-opacity="0.502"/></g>
<circle cx="256.00" cy="3136.00" r="848.00" fill="rgb(0,0,0)" fill-opacity="0.502"/>
<polygon points="4227.25,2651.73 3870.67,2865.99 3804.75,2756.27 4161.33,2542.01" fill="rgb(89,76,80)" fill-opacity="0.502"/>
<g transform="translate(2256.00 688.00) rotate(78) scale(368.00 176.00)"><ellipse cx="0" cy="0" rx="1" ry="1" fill="rgb(126,56,36)" fill-opacity="0.502"/></g>
<g transform="translate(6736.00 1120.00) rotate(60) scale(160.00 192.00)"><ellipse cx="0" cy="0" rx="1" ry="1" fill="rgb(22,12,12)" fill-opacity="0.502"/></g>
<polygon points="4336.00,4352.00 1392.00,4352.00 1392.00,4336.00 4336.00,4336.00" fill="rgb(75,200,94)" fill-opacity="0.502"/>
<polygon points="3579.71,4572.40 3572.45,4364.53 3828.29,4355.60 3835.55,4563.47" fill="rgb(0,0,2)" fill-opacity="0.502"/>
<polygon points="6456.15,2684.13 6248.15,2323.87 6663.85,2083.87 6871.85,2444.13" fill="rgb(154,188,169)" fill-opacity="0.502"/>
<polygon points="2976.87,3667.57 1553.09,3692.42 1551.13,3580.43 2974.91,3555.58" fill="rgb(48,196,10)" fill-opacity="0.502"/>
<g transform="translate(6112.00 2576.00) rotate(347) scale(448.00 128.00)"><ellipse cx="0" cy="0" rx="1" ry="1" fill="rgb(94,146,175)" fill-opacity="0.502"/></g>
<g transform="translate(3440.00 720.00) rotate(92) scale(48.00 128.00)"><ellipse cx="0" cy="0" rx="1" ry="1" fill="rgb(84,77,82)" fill-opacity="0.502"/></g>
<circle cx="1280.00" cy="3248.00" r="192.00" fill="rgb(40,107,38)" fill-opacity="0.502"/>
<circle cx="6512.00" cy="1360.00" r="352.00" fill="rgb(48,45,41)" fill-opacity="0.502"/>
<circle cx="2624.00" cy="2704.00" r="64.00" fill="rgb(36,0,0)" fill-opacity="0.502"/>
<g transform="translate(1168.00 1520.00) rotate(268) scale(160.00 80.00)"><ellipse cx="0" cy="0" rx="1" ry="1" fill="rgb(93,47,33)" fill-opacity="0.502"/></g>
<polygon points="1311.33,509.34 1312.72,429.35 1616.67,434.66 1615.28,514.65" fill="rgb(135,65,47)" fill-opacity="0.502"/>
<polygon points="3383.67,1623.47 2949.21,1950.86 2920.33,1912.53 3354.79,1585.14" fill="rgb(133,125,125)" fill-opacity="0.502"/>
<polygon points="5564.85,2692.03 5704.57,2657.20 5747.15,2827.97 5607.43,2862.80" fill="rgb(20,13,30)" fill-opacity="0.502"/>
<g transform="translate(4400.00 3136.00) rotate(2) scale(1040.00 112.00)"><ellipse cx="0" cy="0" rx="1" ry="1" fill="rgb(10,74,30)" fill-opacity="0.502"/></g>
<polygon points="3130.84,2799.17 3112.85,2721.22 3253.16,2688.83 3271.15,2766.78" fill="rgb(3,10,14)" fill-opacity="0.502"/>
<circle cx="6928.00" cy="2256.00" r="144.00" fill="rgb(144,163,142)" fill-opacity="0.502"/>
<circle cx="2432.00" cy="3280.00" r="256.00" fill="rgb(33,120,42)" fill-opacity="0.502"/>
<polygon points="3581.76,728.19 3307.85,639.19 3362.24,471.81 3636.15,560.81" fill="rgb(62,49,45)" fill-opacity="0.502"/>
<polygon points="7187.02,3918.42 6727.54,3853.84 6780.98,3473.58 7240.46,3538.16" fill="rgb(0,8,4)" fill-opacity="0.502"/>
<circle cx="2016.00" cy="3392.00" r="128.00" fill="rgb(90,164,100)" fill-opacity="0.502"/>
<g transform="translate(1360.00 3856.00) rotate(59) scale(208.00 208.00)"><ellipse cx="0" cy="0" rx="1" ry="1" fill="rgb(0,33,8)" fill-opacity="0.502"/></g>
<polygon points="1386.55,-15.39 1137.86,185.99 1077.45,111.39 1326.14,-89.99" fill="rgb(144,119,102)" fill-opacity="0.502"/>
<g transform="translate(5312.00 2736.00) rotate(39) scale(160.00 96.00)"><ellipse cx="0" cy="0" rx="1" ry="1" fill="rgb(41,29,44)" fill-opacity="0.502"/></g>
<polygon points="5449.96,3499.64 6777.76,3476.47 6790.04,4180.36 5462.24,4203.53" fill="rgb(4,11,7)" fill-opacity="0.502"/>
<circle cx="4192.00" cy="2784.00" r="48.00" fill="rgb(93,123,126)" fill-opacity="0.502"/>
<circle cx="2272.00" cy="2272.00" r="128.00" fill="rgb(59,54,54)" fill-opacity="0.502"/>
<circle cx="6224.00" cy="1840.00" r="176.00" fill="rgb(109,78,60)" fill-opacity="0.502"/>
<g transform="translate(6768.00 400.00) rotate(305) scale(48.00 176.00)"><ellipse cx="0" cy="0" rx="1" ry="1" fill="rgb(124,56,24)" fill-opacity="0.502"/></g>
<polygon points="7099.06,2676.13 7121.29,2802.19 6884.94,2843.87 6862.71,2717.81" fill="rgb(0,0,0)" fill-opacity="0.502"/>
<polygon points="2668.00,1407.42 2869.28,1538.13 2756.00,1712.58 2554.72,1581.87" fill="rgb(70,97,140)" fill-opacity="0.502"/>
<g transform="translate(6544.00 3088.00) rotate(281) scale(240.00 560.00)"><ellipse cx="0" cy="0" rx="1" ry="1" fill="rgb(0,114,25)" fill-opacity="0.502"/></g>
<circle cx="1200.00" cy="4592.00" r="240.00" fill="rgb(0,0,0)" fill-opacity="0.502"/>
<circle cx="4704.00" cy="528.00" r="384.00" fill="rgb(14,9,8)" fill-opacity="0.502"/>
<polygon points="2649.52,2412.11 2695.08,2309.79 2870.48,2387.89 2824.92,2490.21" fill="rgb(113,148,145)" fill-opacity="0.502"/>
<polygon points="3600.51,2362.69 2992.60,2373.30 2991.49,2309.31 3599.40,2298.70" fill="rgb(12,14,15)" fill-opacity="0.502"/>
<circle cx="6080.00" cy="0.00" r="112.00" fill="rgb(70,47,45)" fill-opacity="0.502"/>
<polygon points="2502.30,2468.38 2574.94,2325.82 2617.70,2347.62 2545.06,2490.18" fill="rgb(214,206,215)" fill-opacity="0.502"/>
<g transform="translate(3792.00 1104.00) rotate(0) scale(736.00 288.00)"><ellipse cx="0" cy="0" rx="1" ry="1" fill="rgb(21,12,12)" fill-opacity="0.502"/></g>
<polygon points="6571.14,1120.59 7095.21,1056.24 7108.86,1167.41 6584.79,1231.76" fill="rgb(0,0,0)" fill-opacity="0.502"/>
<circle cx="6736.00" cy="2704.00" r="144.00" fill="rgb(24,0,26)" fill-opacity="0.502"/>
<g transform="translate(944.00 2224.00) rotate(139) scale(144.00 176.00)"><ellipse cx="0" cy="0" rx="1" ry="1" fill="rgb(0,0,0)" fill-opacity="0.502"/></g>
<circle cx="5152.00" cy="3712.00" r="256.00" fill="rgb(5,24,10)" fill-opacity="0.502"/>
<circle cx="1184.00" cy="4288.00" r="80.00" fill="rgb(51,139,47)" fill-opacity="0.502"/>
<g transform="translate(2832.00 4592.00) rotate(94) scale(160.00 1984.00)"><ellipse cx="0" cy="0" rx="1" ry="1" fill="rgb(0,1,0)" fill-opacity="0.502"/></g>
<circle cx="2400.00" cy="2576.00" r="160.00" fill="rgb(122,97,78)" fill-opacity="0.502"/>
<polygon points="2390.25,516.47 2180.31,274.97 2409.75,75.53 2619.69,317.03" fill="rgb(152,102,71)" fill-opacity="0.502"/>
<circle cx="2016.00" cy="3760.00" r="96.00" fill="rgb(0,33,7)" fill-opacity="0.502"/>
<polygon points="2532.80,3232.88 2538.39,3392.78 1211.20,3439.12 1205.61,3279.22" fill="rgb(30,144,22)" fill-opacity="0.502"/>
<g transform="translate(5136.00 3920.00) rotate(275) scale(240.00 1840.00)"><ellipse cx="0" cy="0" rx="1" ry="1" fill="rgb(7,7,5)" fill-opacity="0.502"/></g>
<circle cx="1872.00" cy="2400.00" r="64.00" fill="rgb(211,234,255)" fill-opacity="0.502"/>
<g transform="translate(6960.00 32.00) rotate(249) scale(256.00 96.00)"><ellipse cx="0" cy="0" rx="1" ry="1" fill="rgb(180,234,180)" fill-opacity="0.502"/></g>
<g transform="translate(2080.00 2320.00) rotate(313) scale(768.00 16.00)"><ellipse cx="0" cy="0" rx="1" ry="1" fill="rgb(0,0,0)" fill-opacity="0.502"/></g>
<polygon points="1219.45,2282.50 1071.84,2186.64 1324.55,1797.50 1472.16,1893.36" fill="rgb(61,53,47)" fill-opacity="0.502"/>
<polygon points="1064.52,4085.52 1392.18,3856.09 1511.48,4026.48 1183.82,4255.91" fill="rgb(3,12,6)" fill-opacity="0.502"/>
<g transform="translate(5744.00 3424.00) rotate(271) scale(48.00 1424.00)"><ellipse cx="0" cy="0" rx="1" ry="1" fill="rgb(134,170,199)" fill-opacity="0.502"/></g>
<circle cx="5504.00" cy="2720.00" r="48.00" fill="rgb(28,25,47)" fill-opacity="0.502"/>
<circle cx="3728.00" cy="4016.00" r="208.00" fill="rgb(6,10,6)" fill-opacity="0.502"/>
<polygon points="3708.45,1673.49 3379.83,1799.63 3299.55,1590.51 3628.17,1464.37" fill="rgb(1,2,4)" fill-opacity="0.502"/>
<circle cx="4416.00" cy="2752.00" r="32.00" fill="rgb(169,166,204)" fill-opacity="0.502"/>
<g transform="translate(6736.00 288.00) rotate(355) scale(16.00 144.00)"><ellipse cx="0" cy="0" rx="1" ry="1" fill="rgb(113,56,26)" fill-opacity="0.502"/></g>
<g transform="translate(7632.00 1568.00) rotate(205) scale(464.00 816.00)"><ellipse cx="0" cy="0" rx="1" ry="1" fill="rgb(0,0,0)" fill-opacity="0.502"/></g>
<polygon points="7049.50,2827.64 7046.43,3003.62 6630.50,2996.36 6633.57,2820.38" fill="rgb(5,131,36)" fill-opacity="0.502"/>
<g transform="translate(2080.00 1344.00) rotate(206) scale(528.00 112.00)"><ellipse cx="0" cy="0" rx="1" ry="1" fill="rgb(40,20,9)" fill-opacity="0.502"/></g>
<polygon points="6583.76,434.65 6573.75,371.44 7016.24,301.35 7026.25,364.56" fill="rgb(146,133,102)" fill-opacity="0.502"/>
<polygon points="6761.64,2782.16 6210.15,2879.41 6182.36,2721.84 6733.85,2624.59" fill="rgb(18,15,28)" fill-opacity="0.502"/>
<polygon points="3097.85,3130.67 3226.57,3250.70 3030.15,3461.33 2901.43,3341.30" fill="rgb(14,143,28)" fill-opacity="0.502"/>
<g transform="translate(1952.00 944.00) rotate(354) scale(160.00 416.00)"><ellipse cx="0" cy="0" rx="1" ry="1" fill="rgb(58,25,17)" fill-opacity="0.502"/></g>
<polygon points="5520.17,3324.33 5503.98,2860.61 5759.83,2851.67 5776.02,3315.39" fill="rgb(0,133,26)" fill-opacity="0.502"/>
<polygon points="7069.15,2489.47 6948.32,2638.68 6562.85,2326.53 6683.68,2177.32" fill="rgb(144,172,147)" fill-opacity="0.502"/>
<polygon points="1791.21,1242.66 1821.24,1432.29 1536.79,1477.34 1506.76,1287.71" fill="rgb(34,20,18)" fill-opacity="0.502"/>
<circle cx="6992.00" cy="544.00" r="96.00" fill="rgb(198,142,101)" fill-opacity="0.502"/>
<g transform="translate(3104.00 944.00) rotate(100) scale(16.00 192.00)"><ellipse cx="0" cy="0" rx="1" ry="1" fill="rgb(85,74,53)" fill-opacity="0.502"/></g>
<circle cx="1968.00" cy="1904.00" r="128.00" fill="rgb(25,23,20)" fill-opacity="0.502"/>
<polygon points="3664.20,4246.36 2560.36,4265.63 2559.80,4233.64 3663.64,4214.37" fill="rgb(109,191,91)" fill-opacity="0.502"/>
<g transform="translate(6976.00 832.00) rotate(109) scale(240.00 80.00)"><ellipse cx="0" cy="0" rx="1" ry="1" fill="rgb(95,84,75)" fill-opacity="0.502"/></g>
<circle cx="4288.00" cy="3168.00" r="272.00" fill="rgb(12,130,33)" fill-opacity="0.502"/>
<circle cx="7600.00" cy="112.00" r="528.00" fill="rgb(0,0,0)" fill-opacity="0.502"/>
<circle cx="3264.00" cy="1552.00" r="144.00" fill="rgb(56,38,29)" fill-opacity="0.502"/>
<polygon points="4906.14,3772.13 5114.14,3411.87 5141.86,3427.87 4933.86,3788.13" fill="rgb(22,58,16)" fill-opacity="0.502"/>
<polygon points="2269.35,3503.50 2259.60,3424.10 2386.65,3408.50 2396.40,3487.90" fill="rgb(172,166,183)" fill-opacity="0.502"/>
<g transform="translate(4272.00 2848.00) rotate(91) scale(32.00 1040.00)"><ellipse cx="0" cy="0" rx="1" ry="1" fill="rgb(0,9,0)" fill-opacity="0.502"/></g>
<circle cx="2128.00" cy="32.00" r="160.00" fill="rgb(255,211,158)" fill-opacity="0.502"/>
<polygon points="4954.20,1196.64 4817.05,1114.24 5253.80,387.36 5390.95,469.76" fill="rgb(45,35,26)" fill-opacity="0.502"/>
<g transform="translate(3360.00 3520.00) rotate(89) scale(16.00 2544.00)"><ellipse cx="0" cy="0" rx="1" ry="1" fill="rgb(175,209,232)" fill-opacity="0.502"/></g>
<g transform="translate(2704.00 1936.00) rotate(16) scale(16.00 288.00)"><ellipse cx="0" cy="0" rx="1" ry="1" fill="rgb(250,255,250)" fill-opacity="0.502"/></g>
<polygon points="2816.35,3012.02 2956.77,3142.96 2847.65,3259.98 2707.23,3129.04" fill="rgb(1,91,28)" fill-opacity="0.502"/>
<g transform="translate(1536.00 2192.00) rotate(288) scale(128.00 224.00)"><ellipse cx="0" cy="0" rx="1" ry="1" fill="rgb(18,18,15)" fill-opacity="0.502"/></g>
<g transform="translate(4528.00 2752.00) rotate(88) scale(16.00 1264.00)"><ellipse cx="0" cy="0" rx="1" ry="1" fill="rgb(194,220,234)" fill-opacity="0.502"/></g>
<circle cx="7232.00" cy="2288.00" r="160.00" fill="rgb(0,0,0)" fill-opacity="0.502"/>
<polygon points="5031.31,3283.57 5163.96,3194.10 5208.69,3260.43 5076.04,3349.90" fill="rgb(20,0,1)" fill-opacity="0.502"/>
<circle cx="5520.00" cy="3056.00" r="208.00" fill="rgb(0,109,24)" fill-opacity="0.502"/>
<polygon points="2728.17,3886.18 3231.50,3640.69 3399.83,3985.82 2896.50,4231.31" fill="rgb(5,16,9)" fill-opacity="0.502"/>
<g transform="translate(3536.00 1088.00) rotate(345) scale(464.00 272.00)"><ellipse cx="0" cy="0" rx="1" ry="1" fill="rgb(26,18,16)" fill-opacity="0.502"/></g>
<polygon points="4832.00,2880.00 6032.00,2880.00 6032.00,2944.00 4832.00,2944.00" fill="rgb(15,165,51)" fill-opacity="0.502"/>
<polygon points="3022.62,2392.78 3116.23,2305.48 3345.38,2551.22 3251.77,2638.52" fill="rgb(8,3,0)" fill-opacity="0.502"/>
<g transform="translate(3808.00 3264.00) rotate(201) scale(384.00 112.00)"><ellipse cx="0" cy="0" rx="1" ry="1" fill="rgb(14,139,32)" fill-opacity="0.502"/></g>
<circle cx="2016.00" cy="1568.00" r="80.00" fill="rgb(189,132,95)" fill-opacity="0.502"/>
<polygon points="2157.70,1585.10 2177.79,1872.39 1970.30,1886.90 1950.21,1599.61" fill="rgb(64,44,30)" fill-opacity="0.502"/>
<circle cx="560.00" cy="96.00" r="544.00" fill="rgb(0,0,0)" fill-opacity="0.502"/>
<polygon points="4398.31,2530.22 4142.34,2525.75 4145.69,2333.78 4401.66,2338.25" fill="rgb(156,162,158)" fill-opacity="0.502"/>
<circle cx="3264.00" cy="4064.00" r="176.00" fill="rgb(4,14,9)" fill-opacity="0.502"/>
<circle cx="4576.00" cy="2368.00" r="96.00" fill="rgb(92,119,204)" fill-opacity="0.502"/>
<g transform="translate(2528.00 2752.00) rotate(14) scale(16.00 736.00)"><ellipse cx="0" cy="0" rx="1" ry="1" fill="rgb(28,48,23)" fill-opacity="0.502"/></g>
<g transform="translate(4736.00 2112.00) rotate(343) scale(256.00 96.00)"><ellipse cx="0" cy="0" rx="1" ry="1" fill="rgb(53,49,40)" fill-opacity="0.502"/></g>
<circle cx="1824.00" cy="3568.00" r="80.00" fill="rgb(54,92,40)" fill-opacity="0.502"/>
<polygon points="6886.35,3.01 6998.35,196.99 6873.65,268.99 6761.65,75.01" fill="rgb(173,206,158)" fill-opacity="0.502"/>
<g transform="translate(1312.00 3776.00) rotate(308) scale(80.00 256.00)"><ellipse cx="0" cy="0" rx="1" ry="1" fill="rgb(18,59,17)" fill-opacity="0.502"/></g>
<g transform="translate(3216.00 2944.00) rotate(229) scale(16.00 64.00)"><ellipse cx="0" cy="0" rx="1" ry="1" fill="rgb(46,185,54)" fill-opacity="0.502"/></g>
<polygon points="6234.56,1444.03 6264.50,1584.88 5685.44,1707.97 5655.50,1567.12" fill="rgb(33,25,15)" fill-opacity="0.502"/>
<circle cx="4096.00" cy="2208.00" r="176.00" fill="rgb(29,17,10)" fill-opacity="0.502"/>
<polygon points="3048.79,2397.87 2705.92,2191.85 2887.21,1890.13 3230.08,2096.15" fill="rgb(38,33,19)" fill-opacity="0.502"/>
<polygon points="2007.29,675.20 1929.70,185.31 2008.71,172.80 2086.30,662.69" fill="rgb(78,25,9)" fill-opacity="0.502"/>
<polygon points="1435.58,2635.51 1540.14,2595.37 1620.42,2804.49 1515.86,2844.63" fill="rgb(145,190,182)" fill-opacity="0.502"/>
<polygon points="4688.00,2304.00 4688.00,2512.00 4288.00,2512.00 4288.00,2304.00" fill="rgb(100,128,173)" fill-opacity="0.502"/>
<circle cx="5120.00" cy="4592.00" r="240.00" fill="rgb(1,5,0)" fill-opacity="0.502"/>
<g transform="translate(288.00 4384.00) rotate(116) scale(864.00 816.00)"><ellipse cx="0" cy="0" rx="1" ry="1" fill="rgb(0,0,0)" fill-opacity="0.502"/></g>
<polygon points="4895.69,176.25 5035.41,211.08 5008.31,319.75 4868.59,284.92" fill="rgb(44,43,33)" fill-opacity="0.502"/>
<g transform="translate(5792.00 656.00) rotate(337) scale(416.00 112.00)"><ellipse cx="0" cy="0" rx="1" ry="1" fill="rgb(16,9,14)" fill-opacity="0.502"/></g>
<g transform="translate(7952.00 688.00) rotate(232) scale(976.00 800.00)"><ellipse cx="0" cy="0" rx="1" ry="1" fill="rgb(0,0,0)" fill-opacity="0.502"/></g>
<g transform="translate(7296.00 2000.00) rotate(108) scale(496.00 144.00)"><ellipse cx="0" cy="0" rx="1" ry="1" fill="rgb(0,0,0)" fill-opacity="0.502"/></g>
<circle cx="6784.00" cy="832.00" r="48.00" fill="rgb(117,125,137)" fill-opacity="0.502"/>
<polygon points="4245.60,2048.97 4477.42,1986.85 4506.40,2095.03 4274.58,2157.15" fill="rgb(0,0,0)" fill-opacity="0.502"/>
<g transform="translate(4000.00 1392.00) rotate(67) scale(224.00 160.00)"><ellipse cx="0" cy="0" rx="1" ry="1" fill="rgb(23,12,8)" fill-opacity="0.502"/></g>
<g transform="translate(5648.00 2112.00) rotate(183) scale(912.00 96.00)"><ellipse cx="0" cy="0" rx="1" ry="1" fill="rgb(52,45,37)" fill-opacity="0.502"/></g>
<circle cx="3968.00" cy="2240.00" r="128.00" fill="rgb(29,9,7)" fill-opacity="0.502"/>
<circle cx="1968.00" cy="2336.00" r="64.00" fill="rgb(199,229,249)" fill-opacity="0.502"/>
<circle cx="2720.00" cy="1440.00" r="32.00" fill="rgb(141,168,239)" fill-opacity="0.502"/>
<polygon points="4570.80,1806.00 4358.57,1662.85 4421.20,1570.00 4633.43,1713.15" fill="rgb(96,87,77)" fill-opacity="0.502"/>
<g transform="translate(1504.00 304.00) rotate(87) scale(144.00 432.00)"><ellipse cx="0" cy="0" rx="1" ry="1" fill="rgb(50,23,14)" fill-opacity="0.502"/></g>
<polygon points="7086.99,4259.31 6998.07,4351.38 6929.01,4284.69 7017.93,4192.62" fill="rgb(14,59,23)" fill-opacity="0.502"/>
<circle cx="1408.00" cy="0.00" r="192.00" fill="rgb(136,112,85)" fill-opacity="0.502"/>
<g transform="translate(6016.00 3440.00) rotate(269) scale(64.00 576.00)"><ellipse cx="0" cy="0" rx="1" ry="1" fill="rgb(114,167,198)" fill-opacity="0.502"/></g>
<circle cx="1312.00" cy="4304.00" r="80.00" fill="rgb(52,118,45)" fill-opacity="0.502"/>
<g transform="translate(832.00 2352.00) rotate(113) scale(352.00 256.00)"><ellipse cx="0" cy="0" rx="1" ry="1" fill="rgb(0,0,0)" fill-opacity="0.502"/></g>
<polygon points="1729.50,228.29 2010.12,163.50 2078.50,459.71 1797.88,524.50" fill="rgb(69,28,18)" fill-opacity="0.502"/>
<circle cx="3584.00" cy="2656.00" r="128.00" fill="rgb(2,0,6)" fill-opacity="0.502"/>
<circle cx="6288.00" cy="2240.00" r="48.00" fill="rgb(175,185,153)" fill-opacity="0.502"/>
<polygon points="6810.91,267.40 7065.93,245.09 7077.09,372.60 6822.07,394.91" fill="rgb(73,94,58)" fill-opacity="0.502"/>
<g transform="translate(6496.00 208.00) rotate(311) scale(48.00 192.00)"><ellipse cx="0" cy="0" rx="1" ry="1" fill="rgb(38,21,5)" fill-opacity="0.502"/></g>
<polygon points="1568.00,2256.00 1568.00,2592.00 1104.00,2592.00 1104.00,2256.00" fill="rgb(89,82,72)" fill-opacity="0.502"/>
<g transform="translate(1344.00 1408.00) rotate(349) scale(224.00 48.00)"><ellipse cx="0" cy="0" rx="1" ry="1" fill="rgb(46,22,19)" fill-opacity="0.502"/></g>
<polygon points="-135.06,1086.59 815.92,867.04 1111.06,2145.41 160.08,2364.96" fill="rgb(0,0,0)" fill-opacity="0.502"/>
<g transform="translate(3232.00 240.00) rotate(255) scale(496.00 240.00)"><ellipse cx="0" cy="0" rx="1" ry="1" fill="rgb(36,20,17)" fill-opacity="0.502"/></g>
<polygon points="6465.49,580.91 5447.10,473.87 5470.51,251.09 6488.90,358.13" fill="rgb(19,15,14)" fill-opacity="0.502"/>
<g transform="translate(2720.00 320.00) rotate(127) scale(176.00 48.00)"><ellipse cx="0" cy="0" rx="1" ry="1" fill="rgb(161,90,53)" fill-opacity="0.502"/></g>
<polygon points="7903.90,3660.32 7096.62,3459.04 7232.10,2915.68 8039.38,3116.96" fill="rgb(0,0,0)" fill-opacity="0.502"/>
<g transform="translate(2944.00 1888.00) rotate(105) scale(64.00 240.00)"><ellipse cx="0" cy="0" rx="1" ry="1" fill="rgb(96,90,62)" fill-opacity="0.502"/></g>
<circle cx="592.00" cy="1344.00" r="512.00" fill="rgb(0,0,0)" fill-opacity="0.502"/>
<polygon points="5035.17,1801.00 5094.50,1618.40 5748.83,1831.00 5689.50,2013.60" fill="rgb(103,72,56)" fill-opacity="0.502"/>
<polygon points="4872.08,2279.94 5039.47,2334.33 4999.92,2456.06 4832.53,2401.67" fill="rgb(147,165,117)" fill-opacity="0.502"/>
<polygon points="5152.00,1760.00 5152.00,1376.00 5312.00,1376.00 5312.00,1760.00" fill="rgb(46,38,31)" fill-opacity="0.502"/>
<g transform="translate(2320.00 1984.00) rotate(140) scale(560.00 16.00)"><ellipse cx="0" cy="0" rx="1" ry="1" fill="rgb(219,255,255)" fill-opacity="0.502"/></g>
<circle cx="3936.00" cy="2048.00" r="96.00" fill="rgb(112,60,42)" fill-opacity="0.502"/>
<g transform="translate(1168.00 3536.00) rotate(3) scale(64.00 160.00)"><ellipse cx="0" cy="0" rx="1" ry="1" fill="rgb(100,151,85)" fill-opacity="0.502"/></g>
<polygon points="1565.96,2436.94 1586.95,2461.09 1442.04,2587.06 1421.05,2562.91" fill="rgb(181,217,234)" fill-opacity="0.502"/>
<circle cx="3392.00" cy="1392.00" r="32.00" fill="rgb(255,255,255)" fill-opacity="0.502"/>
<circle cx="5488.00" cy="2336.00" r="48.00" fill="rgb(194,210,195)" fill-opacity="0.502"/>
<polygon points="6080.00,992.00 5728.00,992.00 5728.00,848.00 6080.00,848.00" fill="rgb(47,62,75)" fill-opacity="0.502"/>
<polygon points="5264.00,256.00 4880.00,256.00 4880.00,80.00 5264.00,80.00" fill="rgb(17,16,8)" fill-opacity="0.502"/>
<polygon points="6018.90,1180.18 6288.55,953.92 6525.10,1235.82 6255.45,1462.08" fill="rgb(62,56,52)" fill-opacity="0.502"/>
<polygon points="2487.21,540.25 2608.24,498.57 2696.79,755.75 2575.76,797.43" fill="rgb(35,18,11)" fill-opacity="0.502"/>
<g transform="translate(1408.00 3888.00) rotate(233) scale(176.00 288.00)"><ellipse cx="0" cy="0" rx="1" ry="1" fill="rgb(4,24,10)" fill-opacity="0.502"/></g>
<circle cx="7280.00" cy="1296.00" r="208.00" fill="rgb(0,0,0)" fill-opacity="0.502"/>
<polygon points="1249.66,1705.51 1759.66,1568.85 1838.34,1862.49 1328.34,1999.15" fill="rgb(57,42,30)" fill-opacity="0.502"/>
<circle cx="1856.00" cy="3760.00" r="96.00" fill="rgb(2,39,11)" fill-opacity="0.502"/>
<polygon points="2064.00,560.00 2272.00,560.00 2272.00,1232.00 2064.00,1232.00" fill="rgb(127,57,40)" fill-opacity="0.502"/>
<g transform="translate(4928.00 3584.00) rotate(303) scale(80.00 128.00)"><ellipse cx="0" cy="0" rx="1" ry="1" fill="rgb(3,89,21)" fill-opacity="0.502"/></g>
<polygon points="2889.61,2817.75 3138.00,2879.68 3126.39,2926.25 2878.00,2864.32" fill="rgb(0,4,12)" fill-opacity="0.502"/>
<polygon points="6180.49,2673.81 6187.19,2801.63 5947.51,2814.19 5940.81,2686.37" fill="rgb(16,6,33)" fill-opacity="0.502"/>
<polygon points="3357.27,1422.55 3022.55,1393.27 3026.73,1345.45 3361.45,1374.73" fill="rgb(166,200,255)" fill-opacity="0.502"/>
<polygon points="6394.54,797.96 6346.66,801.30 6325.46,498.04 6373.34,494.70" fill="rgb(62,65,62)" fill-opacity="0.502"/>
<polygon points="3152.80,1348.30 3048.95,1390.26 2815.20,811.70 2919.05,769.74" fill="rgb(42,29,20)" fill-opacity="0.502"/>
<circle cx="1712.00" cy="3088.00" r="128.00" fill="rgb(31,138,32)" fill-opacity="0.502"/>
<circle cx="3952.00" cy="976.00" r="176.00" fill="rgb(9,5,6)" fill-opacity="0.502"/>
<polygon points="3400.70,2134.67 3234.24,2284.56 3159.30,2201.33 3325.76,2051.44" fill="rgb(170,165,157)" fill-opacity="0.502"/>
<polygon points="1981.16,2234.27 2490.27,1725.16 2546.84,1781.73 2037.73,2290.84" fill="rgb(197,237,255)" fill-opacity="0.502"/>
<polygon points="1846.68,606.96 1249.19,377.60 1289.32,273.04 1886.81,502.40" fill="rgb(68,33,27)" fill-opacity="0.502"/>
<polygon points="6302.44,2330.12 6726.03,2475.98 6689.56,2581.88 6265.97,2436.02" fill="rgb(116,175,199)" fill-opacity="0.502"/>
<polygon points="4913.73,3277.16 4909.82,3389.09 4158.27,3362.84 4162.18,3250.91" fill="rgb(17,166,37)" fill-opacity="0.502"/>
<polygon points="4332.39,1981.85 4233.88,1855.76 4435.61,1698.15 4534.12,1824.24" fill="rgb(20,10,7)" fill-opacity="0.502"/>
<circle cx="6960.00" cy="2016.00" r="112.00" fill="rgb(58,42,33)" fill-opacity="0.502"/>
<polygon points="3072.82,1960.05 3060.30,1881.03 3471.18,1815.95 3483.70,1894.97" fill="rgb(85,83,61)" fill-opacity="0.502"/>
<g transform="translate(6800.00 3056.00) rotate(82) scale(112.00 288.00)"><ellipse cx="0" cy="0" rx="1" ry="1" fill="rgb(2,88,25)" fill-opacity="0.502"/></g>
<circle cx="1696.00" cy="3520.00" r="32.00" fill="rgb(0,0,0)" fill-opacity="0.502"/>
<circle cx="2112.00" cy="2448.00" r="32.00" fill="rgb(0,0,0)" fill-opacity="0.502"/>
<polygon points="6145.45,2834.93 4482.46,2893.00 4478.55,2781.07 6141.54,2723.00" fill="rgb(2,9,7)" fill-opacity="0.502"/>
<polygon points="4047.79,2904.38 5007.65,2887.63 5008.21,2919.62 4048.35,2936.37" fill="rgb(60,188,84)" fill-opacity="0.502"/>
<circle cx="3120.00" cy="3824.00" r="176.00" fill="rgb(4,24,8)" fill-opacity="0.502"/>
<circle cx="7808.00" cy="3536.00" r="736.00" fill="rgb(0,0,0)" fill-opacity="0.502"/>
<polygon points="4555.85,3166.56 3996.62,3137.25 4004.15,2993.44 4563.38,3022.75" fill="rgb(0,77,19)" fill-opacity="0.502"/>
<g transform="translate(5200.00 3840.00) rotate(192) scale(416.00 208.00)"><ellipse cx="0" cy="0" rx="1" ry="1" fill="rgb(6,8,4)" fill-opacity="0.502"/></g>
<polygon points="4048.00,3520.00 5248.00,3520.00 5248.00,3632.00 4048.00,3632.00" fill="rgb(16,124,31)" fill-opacity="0.502"/>
<g transform="translate(6368.00 448.00) rotate(54) scale(192.00 192.00)"><ellipse cx="0" cy="0" rx="1" ry="1" fill="rgb(13,14,12)" fill-opacity="0.502"/></g>
<polygon points="1928.63,2835.44 1937.79,2882.56 1639.37,2940.56 1630.21,2893.44" fill="rgb(0,0,0)" fill-opacity="0.502"/>
<g transform="translate(2704.00 2992.00) rotate(268) scale(48.00 1632.00)"><ellipse cx="0" cy="0" rx="1" ry="1" fill="rgb(46,187,46)" fill-opacity="0.502"/></g>
<polygon points="6117.09,2733.19 5980.28,2357.31 6250.91,2258.81 6387.72,2634.69" fill="rgb(109,163,178)" fill-opacity="0.502"/>
<circle cx="2304.00" cy="1808.00" r="96.00" fill="rgb(71,101,111)" fill-opacity="0.502"/>
<polygon points="2471.43,2330.03 2482.38,2360.10 2136.57,2485.97 2125.62,2455.90" fill="rgb(147,170,160)" fill-opacity="0.502"/>
<circle cx="5808.00" cy="1872.00" r="160.00" fill="rgb(107,77,61)" fill-opacity="0.502"/>
<circle cx="2992.00" cy="1536.00" r="64.00" fill="rgb(45,0,0)" fill-opacity="0.502"/>
<circle cx="1840.00" cy="1552.00" r="64.00" fill="rgb(222,169,125)" fill-opacity="0.502"/>
<polygon points="5050.82,3191.18 5044.13,3286.95 4613.18,3256.82 4619.87,3161.05" fill="rgb(47,26,16)" fill-opacity="0.502"/>
<g transform="translate(3040.00 544.00) rotate(223) scale(240.00 464.00)"><ellipse cx="0" cy="0" rx="1" ry="1" fill="rgb(39,20,16)" fill-opacity="0.502"/></g>
<circle cx="3120.00" cy="2064.00" r="144.00" fill="rgb(29,41,26)" fill-opacity="0.502"/>
<circle cx="7504.00" cy="4448.00" r="432.00" fill="rgb(0,0,0)" fill-opacity="0.502"/>
<polygon points="2748.87,1416.17 3049.12,1368.62 3059.13,1431.83 2758.88,1479.38" fill="rgb(153,173,192)" fill-opacity="0.502"/>
<g transform="translate(6064.00 256.00) rotate(33) scale(464.00 176.00)"><ellipse cx="0" cy="0" rx="1" ry="1" fill="rgb(21,19,15)" fill-opacity="0.502"/></g>
<polygon points="1909.54,2720.53 1926.10,2782.35 1802.46,2815.47 1785.90,2753.65" fill="rgb(22,6,13)" fill-opacity="0.502"/>
<circle cx="4768.00" cy="1664.00" r="80.00" fill="rgb(51,47,44)" fill-opacity="0.502"/>
<polygon points="2815.41,2725.97 2640.37,2744.37 2608.59,2442.03 2783.63,2423.63" fill="rgb(57,27,24)" fill-opacity="0.502"/>
<polygon points="2691.81,1582.50 2409.90,1819.04 2348.19,1745.50 2630.10,1508.96" fill="rgb(77,97,115)" fill-opacity="0.502"/>
<g transform="translate(864.00 2528.00) rotate(287) scale(384.00 224.00)"><ellipse cx="0" cy="0" rx="1" ry="1" fill="rgb(0,0,0)" fill-opacity="0.502"/></g>
<polygon points="5401.75,2611.34 5372.70,2668.37 4902.25,2428.66 4931.30,2371.63" fill="rgb(135,141,113)" fill-opacity="0.502"/>
<circle cx="3408.00" cy="2240.00" r="128.00" fill="rgb(41,38,36)" fill-opacity="0.502"/>
<polygon points="2681.38,3011.19 2693.94,3250.86 2198.62,3276.81 2186.06,3037.14" fill="rgb(3,98,16)" fill-opacity="0.502"/>
<circle cx="5216.00" cy="2480.00" r="144.00" fill="rgb(105,128,114)" fill-opacity="0.502"/>
<circle cx="7584.00" cy="2800.00" r="512.00" fill="rgb(0,0,0)" fill-opacity="0.502"/>
<polygon points="4480.11,1281.33 4280.04,1488.50 4095.89,1310.67 4295.96,1103.50" fill="rgb(12,6,3)" fill-opacity="0.502"/>
<polygon points="5548.21,3132.29 5594.78,2913.18 5907.79,2979.71 5861.22,3198.82" fill="rgb(0,93,21)" fill-opacity="0.502"/>
<g transform="translate(6224.00 1568.00) rotate(180) scale(160.00 160.00)"><ellipse cx="0" cy="0" rx="1" ry="1" fill="rgb(41,36,29)" fill-opacity="0.502"/></g>
<g transform="translate(6512.00 2944.00) rotate(282) scale(80.00 368.00)"><ellipse cx="0" cy="0" rx="1" ry="1" fill="rgb(6,122,26)" fill-opacity="0.502"/></g>
<circle cx="3728.00" cy="1456.00" r="64.00" fill="rgb(136,95,75)" fill-opacity="0.502"/>
<polygon points="1168.11,2587.52 1229.63,2605.16 1167.89,2820.48 1106.37,2802.84" fill="rgb(164,113,83)" fill-opacity="0.502"/>
<polygon points="4529.38,1731.29 5075.03,1605.32 5150.62,1932.71 4604.97,2058.68" fill="rgb(108,83,65)" fill-opacity="0.502"/>
<circle cx="3744.00" cy="4240.00" r="32.00" fill="rgb(69,158,86)" fill-opacity="0.502"/>
<circle cx="3728.00" cy="1872.00" r="112.00" fill="rgb(48,45,37)" fill-opacity="0.502"/>
<polygon points="3079.26,3442.40 3080.94,3394.43 3400.74,3405.60 3399.06,3453.57" fill="rgb(121,116,91)" fill-opacity="0.502"/>
<g transform="translate(2400.00 2416.00) rotate(28) scale(128.00 400.00)"><ellipse cx="0" cy="0" rx="1" ry="1" fill="rgb(120,122,106)" fill-opacity="0.502"/></g>
<circle cx="2576.00" cy="48.00" r="96.00" fill="rgb(255,222,184)" fill-opacity="0.502"/>
<g transform="translate(5296.00 2160.00) rotate(75) scale(96.00 496.00)"><ellipse cx="0" cy="0" rx="1" ry="1" fill="rgb(58,54,44)" fill-opacity="0.502"/></g>
<circle cx="6944.00" cy="3408.00" r="80.00" fill="rgb(143,175,228)" fill-opacity="0.502"/>
<circle cx="8144.00" cy="3232.00" r="1072.00" fill="rgb(0,0,0)" fill-opacity="0.502"/>
<polygon points="6525.16,2250.34 6558.29,2126.70 6882.84,2213.66 6849.71,2337.30" fill="rgb(165,197,163)" fill-opacity="0.502"/>
<g transform="translate(2096.00 2736.00) rotate(173) scale(48.00 208.00)"><ellipse cx="0" cy="0" rx="1" ry="1" fill="rgb(145,137,114)" fill-opacity="0.502"/></g>
<g transform="translate(5488.00 2416.00) rotate(237) scale(16.00 96.00)"><ellipse cx="0" cy="0" rx="1" ry="1" fill="rgb(0,11,0)" fill-opacity="0.502"/></g>
<circle cx="1504.00" cy="3616.00" r="48.00" fill="rgb(100,185,19)" fill-opacity="0.502"/>
<polygon points="3712.59,601.71 3922.37,82.48 4367.41,262.29 4157.63,781.52" fill="rgb(4,5,2)" fill-opacity="0.502"/>
<polygon points="5536.47,4202.28 6192.37,4213.73 6191.53,4261.72 5535.63,4250.27" fill="rgb(42,103,71)" fill-opacity="0.502"/>
<g transform="translate(1728.00 2064.00) rotate(61) scale(160.00 368.00)"><ellipse cx="0" cy="0" rx="1" ry="1" fill="rgb(20,22,16)" fill-opacity="0.502"/></g>
<circle cx="1600.00" cy="2816.00" r="16.00" fill="rgb(255,255,255)" fill-opacity="0.502"/>
<polygon points="7064.00,1224.00 7064.00,1560.00 6808.00,1560.00 6808.00,1224.00" fill="rgb(54,53,51)" fill-opacity="0.502"/>
<polygon points="3385.84,2682.89 3263.28,2785.73 3078.16,2565.11 3200.72,2462.27" fill="rgb(58,52,42)" fill-opacity="0.502"/>
<polygon points="1749.23,2784.36 1753.68,2816.05 1642.77,2831.64 1638.32,2799.95" fill="rgb(229,219,223)" fill-opacity="0.502"/>
</g>
</svg>