<?xml version="1.0" standalone="no"?>
<svg xmlns="http://www.w3.org/2000/svg" width="1024" height="768" viewBox="0 0 1024 768" style="overflow:hidden">
<defs>
<clipPath id="c"><rect x="0" y="0" width="1024" height="768"/></clipPath>
</defs>
<rect width="1024" height="768" fill="rgb(0,0,0)"/>
<g clip-path="url(#c)">
<polygon points="329.85,84.99 330.13,100.99 214.15,103.01 213.87,87.01" fill="rgb(30,32,35)" fill-opacity="0.502"/>
<polygon points="534.81,23.62 533.13,71.59 441.19,68.38 442.87,20.41" fill="rgb(10,10,12)" fill-opacity="0.502"/>
<polygon points="85.54,90.02 2.36,101.71 -1.54,73.98 81.64,62.29" fill="rgb(40,42,45)" fill-opacity="0.502"/>
<g transform="translate(388.00 80.00) rotate(344) scale(64.00 16.00)"><ellipse cx="0" cy="0" rx="1" ry="1" fill="rgb(16,18,21)" fill-opacity="0.502"/></g>
<polygon points="335.13,53.24 472.75,-43.12 504.87,2.76 367.25,99.12" fill="rgb(0,0,0)" fill-opacity="0.502"/>
<g transform="translate(72.00 56.00) rotate(321) scale(36.00 20.00)"><ellipse cx="0" cy="0" rx="1" ry="1" fill="rgb(0,0,0)" fill-opacity="0.502"/></g>
<polygon points="49.01,73.54 55.22,50.36 174.99,82.46 168.78,105.64" fill="rgb(12,13,15)" fill-opacity="0.502"/>
<g transform="translate(580.00 0.00) rotate(153) scale(184.00 4.00)"><ellipse cx="0" cy="0" rx="1" ry="1" fill="rgb(41,45,52)" fill-opacity="0.502"/></g>
<g transform="translate(200.00 88.00) rotate(309) scale(12.00 16.00)"><ellipse cx="0" cy="0" rx="1" ry="1" fill="rgb(13,15,18)" fill-opacity="0.502"/></g>
<g transform="translate(196.00 76.00) rotate(287) scale(8.00 48.00)"><ellipse cx="0" cy="0" rx="1" ry="1" fill="rgb(0,0,0)" fill-opacity="0.502"/></g>
<polygon points="115.47,160.30 224.02,92.47 268.53,163.70 159.98,231.53" fill="rgb(0,0,0)" fill-opacity="0.502"/>
<polygon points="527.17,28.02 314.13,97.24 296.83,43.98 509.87,-25.24" fill="rgb(0,0,0)" fill-opacity="0.502"/>
<polygon points="0.28,77.39 100.14,82.62 99.72,90.61 -0.14,85.38" fill="rgb(101,106,114)" fill-opacity="0.502"/>
<polygon points="138.79,95.59 69.98,143.77 17.21,68.41 86.02,20.23" fill="rgb(2,2,3)" fill-opacity="0.502"/>
<g transform="translate(88.00 116.00) rotate(287) scale(4.00 108.00)"><ellipse cx="0" cy="0" rx="1" ry="1" fill="rgb(0,0,0)" fill-opacity="0.502"/></g>
<g transform="translate(548.00 148.00) rotate(16) scale(120.00 112.00)"><ellipse cx="0" cy="0" rx="1" ry="1" fill="rgb(0,0,0)" fill-opacity="0.502"/></g>
<g transform="translate(508.00 120.00) rotate(27) scale(92.00 28.00)"><ellipse cx="0" cy="0" rx="1" ry="1" fill="rgb(0,0,0)" fill-opacity="0.502"/></g>
<g transform="translate(76.00 144.00) rotate(217) scale(96.00 16.00)"><ellipse cx="0" cy="0" rx="1" ry="1" fill="rgb(0,0,0)" fill-opacity="0.502"/></g>
<polygon points="387.65,3.97 410.93,-1.83 428.35,68.03 405.07,73.83" fill="rgb(0,0,0)" fill-opacity="0.502"/>
<g transform="translate(316.00 12.00) rotate(334) scale(88.00 84.00)"><ellipse cx="0" cy="0" rx="1" ry="1" fill="rgb(0,0,0)" fill-opacity="0.502"/></g>
<polygon points="57.84,88.49 110.82,116.66 90.16,155.51 37.18,127.34" fill="rgb(0,0,0)" fill-opacity="0.502"/>
<g transform="translate(548.00 112.00) rotate(75) scale(76.00 200.00)"><ellipse cx="0" cy="0" rx="1" ry="1" fill="rgb(0,0,0)" fill-opacity="0.502"/></g>
<g transform="translate(0.00 128.00) rotate(158) scale(76.00 32.00)"><ellipse cx="0" cy="0" rx="1" ry="1" fill="rgb(0,0,0)" fill-opacity="0.502"/></g>
<g transform="translate(8.00 188.00) rotate(197) scale(88.00 104.00)"><ellipse cx="0" cy="0" rx="1" ry="1" fill="rgb(0,0,0)" fill-opacity="0.502"/></g>
<g transform="translate(444.00 4.00) rotate(119) scale(84.00 24.00)"><ellipse cx="0" cy="0" rx="1" ry="1" fill="rgb(0,0,0)" fill-opacity="0.502"/></g>
<g transform="translate(116.00 72.00) rotate(198) scale(100.00 8.00)"><ellipse cx="0" cy="0" rx="1" ry="1" fill="rgb(9,10,11)" fill-opacity="0.502"/></g>
<polygon points="133.37,76.83 93.76,82.39 82.63,3.17 122.24,-2.39" fill="rgb(0,0,0)" fill-opacity="0.502"/>
<g transform="translate(512.00 80.00) rotate(307) scale(56.00 32.00)"><ellipse cx="0" cy="0" rx="1" ry="1" fill="rgb(0,0,0)" fill-opacity="0.502"/></g>
<g transform="translate(340.00 248.00) rotate(343) scale(76.00 36.00)"><ellipse cx="0" cy="0" rx="1" ry="1" fill="rgb(0,0,0)" fill-opacity="0.502"/></g>
<g transform="translate(128.00 16.00) rotate(212) scale(80.00 68.00)"><ellipse cx="0" cy="0" rx="1" ry="1" fill="rgb(0,0,0)" fill-opacity="0.502"/></g>
<polygon points="257.29,96.95 278.34,165.81 182.71,195.05 161.66,126.19" fill="rgb(0,0,0)" fill-opacity="0.502"/>
<polygon points="104.38,81.41 356.04,94.60 355.62,102.59 103.96,89.40" fill="rgb(40,44,50)" fill-opacity="0.502"/>
<g transform="translate(24.00 32.00) rotate(147) scale(68.00 36.00)"><ellipse cx="0" cy="0" rx="1" ry="1" fill="rgb(2,2,2)" fill-opacity="0.502"/></g>
<g transform="translate(232.00 0.00) rotate(50) scale(96.00 88.00)"><ellipse cx="0" cy="0" rx="1" ry="1" fill="rgb(0,0,0)" fill-opacity="0.502"/></g>
<polygon points="298.66,94.84 245.16,46.66 293.34,-6.84 346.84,41.34" fill="rgb(0,0,0)" fill-opacity="0.502"/>
<g transform="translate(172.00 232.00) rotate(32) scale(176.00 124.00)"><ellipse cx="0" cy="0" rx="1" ry="1" fill="rgb(0,0,0)" fill-opacity="0.502"/></g>
<g transform="translate(384.00 56.00) rotate(310) scale(52.00 24.00)"><ellipse cx="0" cy="0" rx="1" ry="1" fill="rgb(0,0,0)" fill-opacity="0.502"/></g>
<polygon points="315.56,132.73 313.80,129.13 432.44,71.27 434.20,74.87" fill="rgb(27,29,34)" fill-opacity="0.502"/>
<g transform="translate(936.00 656.00) rotate(243) scale(88.00 4.00)"><ellipse cx="0" cy="0" rx="1" ry="1" fill="rgb(0,0,0)" fill-opacity="0.502"/></g>
<g transform="translate(320.00 220.00) rotate(283) scale(120.00 184.00)"><ellipse cx="0" cy="0" rx="1" ry="1" fill="rgb(0,0,0)" fill-opacity="0.502"/></g>
<g transform="translate(288.00 32.00) rotate(331) scale(100.00 40.00)"><ellipse cx="0" cy="0" rx="1" ry="1" fill="rgb(0,0,0)" fill-opacity="0.502"/></g>
<g transform="translate(192.00 188.00) rotate(349) scale(144.00 92.00)"><ellipse cx="0" cy="0" rx="1" ry="1" fill="rgb(0,0,0)" fill-opacity="0.502"/></g>
<polygon points="316.58,187.32 319.51,103.37 471.42,108.68 468.49,192.63" fill="rgb(0,0,0)" fill-opacity="0.502"/>
<g transform="translate(272.00 204.00) rotate(239) scale(112.00 100.00)"><ellipse cx="0" cy="0" rx="1" ry="1" fill="rgb(0,0,0)" fill-opacity="0.502"/></g>
<g transform="translate(224.00 28.00) rotate(179) scale(172.00 64.00)"><ellipse cx="0" cy="0" rx="1" ry="1" fill="rgb(0,0,0)" fill-opacity="0.502"/></g>
<polygon points="33.35,76.65 34.46,84.57 14.65,87.35 13.54,79.43" fill="rgb(116,115,116)" fill-opacity="0.502"/>
<polygon points="315.34,182.81 312.69,106.86 360.66,105.19 363.31,181.14" fill="rgb(0,0,0)" fill-opacity="0.502"/>
<g transform="translate(296.00 16.00) rotate(46) scale(108.00 40.00)"><ellipse cx="0" cy="0" rx="1" ry="1" fill="rgb(0,0,0)" fill-opacity="0.502"/></g>
<polygon points="258.17,95.38 224.26,41.10 237.83,32.62 271.74,86.90" fill="rgb(0,0,0)" fill-opacity="0.502"/>
<g transform="translate(404.00 216.00) rotate(136) scale(108.00 120.00)"><ellipse cx="0" cy="0" rx="1" ry="1" fill="rgb(0,0,0)" fill-opacity="0.502"/></g>
<g transform="translate(352.00 48.00) rotate(223) scale(12.00 60.00)"><ellipse cx="0" cy="0" rx="1" ry="1" fill="rgb(0,0,0)" fill-opacity="0.502"/></g>
<polygon points="111.60,91.54 43.98,84.44 44.40,80.46 112.02,87.56" fill="rgb(65,69,78)" fill-opacity="0.502"/>
<g transform="translate(488.00 0.00) rotate(270) scale(20.00 84.00)"><ellipse cx="0" cy="0" rx="1" ry="1" fill="rgb(0,0,0)" fill-opacity="0.502"/></g>
<polygon points="106.36,134.87 105.66,94.88 205.64,93.13 206.34,133.12" fill="rgb(0,0,0)" fill-opacity="0.502"/>
<g transform="translate(144.00 44.00) rotate(272) scale(44.00 68.00)"><ellipse cx="0" cy="0" rx="1" ry="1" fill="rgb(0,0,0)" fill-opacity="0.502"/></g>
<polygon points="98.06,244.84 -18.87,192.78 29.94,83.16 146.87,135.22" fill="rgb(0,0,0)" fill-opacity="0.502"/>
<g transform="translate(488.00 0.00) rotate(52) scale(36.00 84.00)"><ellipse cx="0" cy="0" rx="1" ry="1" fill="rgb(0,0,0)" fill-opacity="0.502"/></g>
<g transform="translate(0.00 0.00) rotate(61) scale(96.00 20.00)"><ellipse cx="0" cy="0" rx="1" ry="1" fill="rgb(1,1,1)" fill-opacity="0.502"/></g>
<polygon points="25.98,29.52 0.40,18.13 2.02,14.48 27.60,25.87" fill="rgb(33,33,34)" fill-opacity="0.502"/>
<g transform="translate(40.00 144.00) rotate(68) scale(48.00 88.00)"><ellipse cx="0" cy="0" rx="1" ry="1" fill="rgb(0,0,0)" fill-opacity="0.502"/></g>
<g transform="translate(64.00 8.00) rotate(109) scale(36.00 72.00)"><ellipse cx="0" cy="0" rx="1" ry="1" fill="rgb(0,0,0)" fill-opacity="0.502"/></g>
<g transform="translate(460.00 60.00) rotate(228) scale(4.00 4.00)"><ellipse cx="0" cy="0" rx="1" ry="1" fill="rgb(55,61,69)" fill-opacity="0.502"/></g>
<g transform="translate(332.00 16.00) rotate(32) scale(100.00 56.00)"><ellipse cx="0" cy="0" rx="1" ry="1" fill="rgb(0,0,0)" fill-opacity="0.502"/></g>
<polygon points="237.19,108.27 185.10,151.98 174.81,139.73 226.90,96.02" fill="rgb(0,0,0)" fill-opacity="0.502"/>
<g transform="translate(96.00 128.00) rotate(64) scale(16.00 76.00)"><ellipse cx="0" cy="0" rx="1" ry="1" fill="rgb(0,0,0)" fill-opacity="0.502"/></g>
<polygon points="274.11,59.81 209.40,91.38 205.89,84.19 270.60,52.62" fill="rgb(0,0,0)" fill-opacity="0.502"/>
<polygon points="292.00,92.00 292.00,80.00 304.00,80.00 304.00,92.00" fill="rgb(0,0,0)" fill-opacity="0.502"/>
<polygon points="216.06,103.21 303.85,97.07 311.94,212.79 224.15,218.93" fill="rgb(0,0,0)" fill-opacity="0.502"/>
<g transform="translate(588.00 124.00) rotate(152) scale(104.00 108.00)"><ellipse cx="0" cy="0" rx="1" ry="1" fill="rgb(0,0,0)" fill-opacity="0.502"/></g>
<polygon points="529.27,227.50 406.30,138.16 462.73,60.50 585.70,149.84" fill="rgb(0,0,0)" fill-opacity="0.502"/>
<g transform="translate(16.00 184.00) rotate(272) scale(92.00 92.00)"><ellipse cx="0" cy="0" rx="1" ry="1" fill="rgb(0,0,0)" fill-opacity="0.502"/></g>
<g transform="translate(8.00 84.00) rotate(0) scale(12.00 4.00)"><ellipse cx="0" cy="0" rx="1" ry="1" fill="rgb(170,176,181)" fill-opacity="0.502"/></g>
<g transform="translate(344.00 4.00) rotate(217) scale(28.00 112.00)"><ellipse cx="0" cy="0" rx="1" ry="1" fill="rgb(0,0,0)" fill-opacity="0.502"/></g>
<g transform="translate(192.00 152.00) rotate(294) scale(64.00 12.00)"><ellipse cx="0" cy="0" rx="1" ry="1" fill="rgb(0,0,0)" fill-opacity="0.502"/></g>
<g transform="translate(344.00 8.00) rotate(191) scale(132.00 60.00)"><ellipse cx="0" cy="0" rx="1" ry="1" fill="rgb(0,0,0)" fill-opacity="0.502"/></g>
<g transform="translate(112.00 212.00) rotate(348) scale(20.00 128.00)"><ellipse cx="0" cy="0" rx="1" ry="1" fill="rgb(0,0,0)" fill-opacity="0.502"/></g>
<g transform="translate(352.00 204.00) rotate(110) scale(104.00 52.00)"><ellipse cx="0" cy="0" rx="1" ry="1" fill="rgb(0,0,0)" fill-opacity="0.502"/></g>
<polygon points="82.36,70.28 89.92,67.68 101.64,101.72 94.08,104.32" fill="rgb(13,13,13)" fill-opacity="0.502"/>
<polygon points="363.35,-0.30 414.39,9.62 400.65,80.30 349.61,70.38" fill="rgb(0,0,0)" fill-opacity="0.502"/>
<polygon points="168.93,131.08 86.21,116.49 91.07,88.92 173.79,103.51" fill="rgb(0,0,0)" fill-opacity="0.502"/>
<g transform="translate(472.00 96.00) rotate(105) scale(12.00 52.00)"><ellipse cx="0" cy="0" rx="1" ry="1" fill="rgb(0,0,0)" fill-opacity="0.502"/></g>
<polygon points="122.91,-29.35 221.21,39.48 189.09,85.35 90.79,16.52" fill="rgb(0,0,0)" fill-opacity="0.502"/>
<polygon points="534.33,151.55 524.18,173.30 393.67,112.45 403.82,90.70" fill="rgb(0,0,0)" fill-opacity="0.502"/>
<polygon points="360.70,105.02 363.57,97.55 367.30,98.98 364.43,106.45" fill="rgb(33,36,43)" fill-opacity="0.502"/>
<g transform="translate(348.00 40.00) rotate(276) scale(56.00 72.00)"><ellipse cx="0" cy="0" rx="1" ry="1" fill="rgb(0,0,0)" fill-opacity="0.502"/></g>
<g transform="translate(180.00 164.00) rotate(101) scale(72.00 72.00)"><ellipse cx="0" cy="0" rx="1" ry="1" fill="rgb(0,0,0)" fill-opacity="0.502"/></g>
<g transform="translate(232.00 112.00) rotate(128) scale(16.00 12.00)"><ellipse cx="0" cy="0" rx="1" ry="1" fill="rgb(0,0,0)" fill-opacity="0.502"/></g>
<polygon points="-19.85,77.56 -19.85,77.56 19.85,82.44 19.85,82.44" fill="rgb(140,144,148)" fill-opacity="0.502"/>
<g transform="translate(436.00 176.00) rotate(338) scale(144.00 92.00)"><ellipse cx="0" cy="0" rx="1" ry="1" fill="rgb(0,0,0)" fill-opacity="0.502"/></g>
<polygon points="76.46,82.50 50.60,46.90 63.54,37.50 89.40,73.10" fill="rgb(14,14,14)" fill-opacity="0.502"/>
<polygon points="168.08,89.90 120.27,94.08 119.92,90.10 167.73,85.92" fill="rgb(27,29,35)" fill-opacity="0.502"/>
<g transform="translate(68.00 212.00) rotate(12) scale(88.00 124.00)"><ellipse cx="0" cy="0" rx="1" ry="1" fill="rgb(0,0,0)" fill-opacity="0.502"/></g>
<g transform="translate(260.00 32.00) rotate(161) scale(88.00 56.00)"><ellipse cx="0" cy="0" rx="1" ry="1" fill="rgb(0,0,0)" fill-opacity="0.502"/></g>
<polygon points="71.13,3.33 130.11,44.63 104.87,80.67 45.89,39.37" fill="rgb(0,0,0)" fill-opacity="0.502"/>
<g transform="translate(240.00 212.00) rotate(227) scale(168.00 12.00)"><ellipse cx="0" cy="0" rx="1" ry="1" fill="rgb(0,0,0)" fill-opacity="0.502"/></g>
<g transform="translate(544.00 0.00) rotate(245) scale(16.00 96.00)"><ellipse cx="0" cy="0" rx="1" ry="1" fill="rgb(0,0,0)" fill-opacity="0.502"/></g>
<polygon points="226.70,274.17 111.24,96.37 121.30,89.83 236.76,267.63" fill="rgb(0,0,0)" fill-opacity="0.502"/>
<polygon points="366.20,100.86 401.99,181.25 361.80,199.14 326.01,118.75" fill="rgb(0,0,0)" fill-opacity="0.502"/>
<g transform="translate(696.00 32.00) rotate(350) scale(12.00 184.00)"><ellipse cx="0" cy="0" rx="1" ry="1" fill="rgb(2,1,1)" fill-opacity="0.502"/></g>
<g transform="translate(296.00 60.00) rotate(275) scale(32.00 76.00)"><ellipse cx="0" cy="0" rx="1" ry="1" fill="rgb(0,0,0)" fill-opacity="0.502"/></g>
<polygon points="306.04,103.69 283.35,95.88 285.96,88.31 308.65,96.12" fill="rgb(52,57,62)" fill-opacity="0.502"/>
<g transform="translate(540.00 104.00) rotate(86) scale(72.00 60.00)"><ellipse cx="0" cy="0" rx="1" ry="1" fill="rgb(0,0,0)" fill-opacity="0.502"/></g>
<polygon points="510.96,121.30 476.05,58.33 497.04,46.70 531.95,109.67" fill="rgb(0,0,0)" fill-opacity="0.502"/>
<g transform="translate(24.00 128.00) rotate(148) scale(28.00 48.00)"><ellipse cx="0" cy="0" rx="1" ry="1" fill="rgb(0,0,0)" fill-opacity="0.502"/></g>
<polygon points="268.74,132.96 299.59,96.19 379.26,163.04 348.41,199.81" fill="rgb(0,0,0)" fill-opacity="0.502"/>
<polygon points="382.47,20.72 384.94,23.87 293.53,95.28 291.06,92.13" fill="rgb(0,0,0)" fill-opacity="0.502"/>
<polygon points="60.48,53.77 65.06,30.21 147.52,46.23 142.94,69.79" fill="rgb(0,0,0)" fill-opacity="0.502"/>
<g transform="translate(424.00 96.00) rotate(242) scale(12.00 92.00)"><ellipse cx="0" cy="0" rx="1" ry="1" fill="rgb(0,0,0)" fill-opacity="0.502"/></g>
<polygon points="62.84,119.27 12.09,95.60 17.16,84.73 67.91,108.40" fill="rgb(0,0,0)" fill-opacity="0.502"/>
<g transform="translate(160.00 144.00) rotate(27) scale(116.00 20.00)"><ellipse cx="0" cy="0" rx="1" ry="1" fill="rgb(0,0,0)" fill-opacity="0.502"/></g>
<polygon points="702.11,202.66 757.34,226.11 733.89,281.34 678.66,257.89" fill="rgb(0,0,0)" fill-opacity="0.502"/>
<g transform="translate(464.00 36.00) rotate(232) scale(8.00 60.00)"><ellipse cx="0" cy="0" rx="1" ry="1" fill="rgb(0,0,0)" fill-opacity="0.502"/></g>
<polygon points="284.44,293.38 267.71,102.11 307.56,98.62 324.29,289.89" fill="rgb(0,0,0)" fill-opacity="0.502"/>
<polygon points="168.70,66.78 142.81,85.58 119.30,53.22 145.19,34.42" fill="rgb(0,0,0)" fill-opacity="0.502"/>
<polygon points="134.15,57.49 246.91,16.44 257.85,46.51 145.09,87.56" fill="rgb(0,0,0)" fill-opacity="0.502"/>
<g transform="translate(412.00 40.00) rotate(249) scale(32.00 132.00)"><ellipse cx="0" cy="0" rx="1" ry="1" fill="rgb(0,0,0)" fill-opacity="0.502"/></g>
<g transform="translate(496.00 80.00) rotate(113) scale(20.00 36.00)"><ellipse cx="0" cy="0" rx="1" ry="1" fill="rgb(0,0,0)" fill-opacity="0.502"/></g>
<g transform="translate(212.00 180.00) rotate(249) scale(84.00 72.00)"><ellipse cx="0" cy="0" rx="1" ry="1" fill="rgb(0,0,0)" fill-opacity="0.502"/></g>
<g transform="translate(148.00 4.00) rotate(262) scale(60.00 112.00)"><ellipse cx="0" cy="0" rx="1" ry="1" fill="rgb(0,0,0)" fill-opacity="0.502"/></g>
<g transform="translate(184.00 144.00) rotate(23) scale(76.00 44.00)"><ellipse cx="0" cy="0" rx="1" ry="1" fill="rgb(0,0,0)" fill-opacity="0.502"/></g>
<polygon points="166.38,104.96 132.83,154.70 109.62,139.04 143.17,89.30" fill="rgb(0,0,0)" fill-opacity="0.502"/>
<polygon points="30.11,80.23 29.97,76.23 157.89,71.77 158.03,75.77" fill="rgb(0,0,0)" fill-opacity="0.502"/>
<polygon points="599.30,-2.81 574.58,10.34 572.70,6.81 597.42,-6.34" fill="rgb(48,54,62)" fill-opacity="0.502"/>
<g transform="translate(288.00 20.00) rotate(221) scale(64.00 76.00)"><ellipse cx="0" cy="0" rx="1" ry="1" fill="rgb(0,0,0)" fill-opacity="0.502"/></g>
<g transform="translate(524.00 20.00) rotate(178) scale(12.00 4.00)"><ellipse cx="0" cy="0" rx="1" ry="1" fill="rgb(0,0,0)" fill-opacity="0.502"/></g>
<polygon points="289.33,93.62 230.87,80.12 250.67,-5.62 309.13,7.88" fill="rgb(0,0,0)" fill-opacity="0.502"/>
<g transform="translate(272.00 148.00) rotate(122) scale(44.00 68.00)"><ellipse cx="0" cy="0" rx="1" ry="1" fill="rgb(0,0,0)" fill-opacity="0.502"/></g>
<g transform="translate(100.00 0.00) rotate(225) scale(116.00 44.00)"><ellipse cx="0" cy="0" rx="1" ry="1" fill="rgb(0,0,0)" fill-opacity="0.502"/></g>
<polygon points="372.86,139.58 372.86,139.58 419.14,84.42 419.14,84.42" fill="rgb(0,0,0)" fill-opacity="0.502"/>
<polygon points="0.00,44.00 32.00,44.00 32.00,76.00 0.00,76.00" fill="rgb(0,0,0)" fill-opacity="0.502"/>
<polygon points="70.45,60.74 69.41,80.71 -34.45,75.26 -33.41,55.29" fill="rgb(0,0,0)" fill-opacity="0.502"/>
<g transform="translate(264.00 196.00) rotate(295) scale(104.00 52.00)"><ellipse cx="0" cy="0" rx="1" ry="1" fill="rgb(0,0,0)" fill-opacity="0.502"/></g>
<g transform="translate(80.00 0.00) rotate(20) scale(76.00 52.00)"><ellipse cx="0" cy="0" rx="1" ry="1" fill="rgb(0,0,0)" fill-opacity="0.502"/></g>
<polygon points="678.91,47.42 677.24,31.51 705.09,28.58 706.76,44.49" fill="rgb(1,1,2)" fill-opacity="0.502"/>
<polygon points="742.81,91.97 726.39,46.87 745.19,40.03 761.61,85.13" fill="rgb(2,1,0)" fill-opacity="0.502"/>
<polygon points="266.44,6.08 311.55,22.50 285.56,93.92 240.45,77.50" fill="rgb(0,0,0)" fill-opacity="0.502"/>
<g transform="translate(132.00 544.00) rotate(157) scale(128.00 48.00)"><ellipse cx="0" cy="0" rx="1" ry="1" fill="rgb(0,0,0)" fill-opacity="0.502"/></g>
<g transform="translate(44.00 16.00) rotate(167) scale(24.00 16.00)"><ellipse cx="0" cy="0" rx="1" ry="1" fill="rgb(0,0,0)" fill-opacity="0.502"/></g>
<polygon points="687.87,48.91 699.34,78.79 688.13,83.09 676.66,53.21" fill="rgb(1,1,2)" fill-opacity="0.502"/>
<g transform="translate(220.00 156.00) rotate(294) scale(4.00 168.00)"><ellipse cx="0" cy="0" rx="1" ry="1" fill="rgb(0,0,0)" fill-opacity="0.502"/></g>
<polygon points="635.79,54.56 642.63,35.76 680.21,49.44 673.37,68.24" fill="rgb(0,0,0)" fill-opacity="0.502"/>
<g transform="translate(736.00 24.00) rotate(130) scale(8.00 128.00)"><ellipse cx="0" cy="0" rx="1" ry="1" fill="rgb(0,0,0)" fill-opacity="0.502"/></g>
<polygon points="199.76,49.44 222.71,16.67 288.24,62.56 265.29,95.33" fill="rgb(0,0,0)" fill-opacity="0.502"/>
<g transform="translate(424.00 44.00) rotate(229) scale(20.00 52.00)"><ellipse cx="0" cy="0" rx="1" ry="1" fill="rgb(0,0,0)" fill-opacity="0.502"/></g>
<g transform="translate(152.00 12.00) rotate(106) scale(68.00 128.00)"><ellipse cx="0" cy="0" rx="1" ry="1" fill="rgb(0,0,0)" fill-opacity="0.502"/></g>
<polygon points="556.23,15.06 559.77,16.94 559.77,16.94 556.23,15.06" fill="rgb(40,43,49)" fill-opacity="0.502"/>
<g transform="translate(664.00 4.00) rotate(251) scale(88.00 4.00)"><ellipse cx="0" cy="0" rx="1" ry="1" fill="rgb(2,1,1)" fill-opacity="0.502"/></g>
<polygon points="305.75,83.30 341.25,7.17 370.25,20.70 334.75,96.83" fill="rgb(0,0,0)" fill-opacity="0.502"/>
<g transform="translate(636.00 8.00) rotate(72) scale(20.00 120.00)"><ellipse cx="0" cy="0" rx="1" ry="1" fill="rgb(1,0,1)" fill-opacity="0.502"/></g>
<polygon points="135.31,85.56 75.13,5.70 100.69,-13.56 160.87,66.30" fill="rgb(0,0,0)" fill-opacity="0.502"/>
<g transform="translate(32.00 28.00) rotate(144) scale(4.00 24.00)"><ellipse cx="0" cy="0" rx="1" ry="1" fill="rgb(7,7,7)" fill-opacity="0.502"/></g>
<g transform="translate(316.00 0.00) rotate(205) scale(76.00 100.00)"><ellipse cx="0" cy="0" rx="1" ry="1" fill="rgb(0,0,0)" fill-opacity="0.502"/></g>
<g transform="translate(692.00 236.00) rotate(137) scale(48.00 4.00)"><ellipse cx="0" cy="0" rx="1" ry="1" fill="rgb(0,0,0)" fill-opacity="0.502"/></g>
<g transform="translate(40.00 204.00) rotate(155) scale(84.00 124.00)"><ellipse cx="0" cy="0" rx="1" ry="1" fill="rgb(0,0,0)" fill-opacity="0.502"/></g>
<g transform="translate(28.00 52.00) rotate(302) scale(12.00 52.00)"><ellipse cx="0" cy="0" rx="1" ry="1" fill="rgb(0,0,0)" fill-opacity="0.502"/></g>
<g transform="translate(188.00 48.00) rotate(359) scale(124.00 28.00)"><ellipse cx="0" cy="0" rx="1" ry="1" fill="rgb(0,0,0)" fill-opacity="0.502"/></g>
<g transform="translate(648.00 0.00) rotate(172) scale(72.00 4.00)"><ellipse cx="0" cy="0" rx="1" ry="1" fill="rgb(2,0,2)" fill-opacity="0.502"/></g>
<g transform="translate(304.00 80.00) rotate(191) scale(4.00 16.00)"><ellipse cx="0" cy="0" rx="1" ry="1" fill="rgb(0,0,0)" fill-opacity="0.502"/></g>
<polygon points="21.56,8.62 71.02,-7.45 78.44,15.38 28.98,31.45" fill="rgb(0,0,0)" fill-opacity="0.502"/>
<polygon points="42.59,45.75 27.96,32.11 33.41,26.25 48.04,39.89" fill="rgb(12,12,11)" fill-opacity="0.502"/>
<g transform="translate(60.00 12.00) rotate(205) scale(124.00 24.00)"><ellipse cx="0" cy="0" rx="1" ry="1" fill="rgb(0,0,0)" fill-opacity="0.502"/></g>
<g transform="translate(112.00 268.00) rotate(270) scale(180.00 20.00)"><ellipse cx="0" cy="0" rx="1" ry="1" fill="rgb(0,0,0)" fill-opacity="0.502"/></g>
<g transform="translate(48.00 24.00) rotate(22) scale(20.00 16.00)"><ellipse cx="0" cy="0" rx="1" ry="1" fill="rgb(0,0,0)" fill-opacity="0.502"/></g>
<polygon points="8.02,14.57 70.27,58.16 67.98,61.43 5.73,17.84" fill="rgb(25,25,26)" fill-opacity="0.502"/>
<polygon points="704.73,79.37 692.89,53.99 747.27,28.63 759.11,54.01" fill="rgb(1,1,0)" fill-opacity="0.502"/>
<polygon points="16.31,10.26 44.30,-5.25 63.69,29.74 35.70,45.25" fill="rgb(0,0,0)" fill-opacity="0.502"/>
<polygon points="214.21,58.53 105.08,83.73 89.79,17.47 198.92,-7.73" fill="rgb(0,0,0)" fill-opacity="0.502"/>
<g transform="translate(496.00 136.00) rotate(334) scale(72.00 80.00)"><ellipse cx="0" cy="0" rx="1" ry="1" fill="rgb(0,0,0)" fill-opacity="0.502"/></g>
<g transform="translate(76.00 64.00) rotate(237) scale(4.00 4.00)"><ellipse cx="0" cy="0" rx="1" ry="1" fill="rgb(45,48,52)" fill-opacity="0.502"/></g>
<polygon points="109.23,152.25 161.71,91.88 170.77,99.75 118.29,160.12" fill="rgb(0,0,0)" fill-opacity="0.502"/>
<polygon points="199.56,225.09 273.56,96.91 332.44,130.91 258.44,259.09" fill="rgb(0,0,0)" fill-opacity="0.502"/>
<polygon points="436.97,65.08 439.03,68.50 415.03,82.92 412.97,79.50" fill="rgb(45,50,56)" fill-opacity="0.502"/>
<g transform="translate(72.00 0.00) rotate(293) scale(48.00 92.00)"><ellipse cx="0" cy="0" rx="1" ry="1" fill="rgb(0,0,0)" fill-opacity="0.502"/></g>
<polygon points="126.74,-24.45 62.46,52.16 53.26,44.45 117.54,-32.16" fill="rgb(0,0,0)" fill-opacity="0.502"/>
<g transform="translate(512.00 24.00) rotate(247) scale(4.00 108.00)"><ellipse cx="0" cy="0" rx="1" ry="1" fill="rgb(0,0,0)" fill-opacity="0.502"/></g>
<g transform="translate(424.00 56.00) rotate(196) scale(12.00 20.00)"><ellipse cx="0" cy="0" rx="1" ry="1" fill="rgb(0,0,0)" fill-opacity="0.502"/></g>
<polygon points="627.48,121.19 579.56,85.09 632.52,14.81 680.44,50.91" fill="rgb(0,0,0)" fill-opacity="0.502"/>
<g transform="translate(20.00 40.00) rotate(143) scale(8.00 24.00)"><ellipse cx="0" cy="0" rx="1" ry="1" fill="rgb(1,1,1)" fill-opacity="0.502"/></g>
<polygon points="389.78,83.01 395.14,88.96 386.22,96.99 380.86,91.04" fill="rgb(28,31,35)" fill-opacity="0.502"/>
<g transform="translate(104.00 20.00) rotate(136) scale(48.00 60.00)"><ellipse cx="0" cy="0" rx="1" ry="1" fill="rgb(0,0,0)" fill-opacity="0.502"/></g>
<polygon points="71.40,67.67 73.09,64.04 116.60,84.33 114.91,87.96" fill="rgb(22,21,22)" fill-opacity="0.502"/>
<polygon points="370.04,54.66 393.86,57.58 389.96,89.34 366.14,86.42" fill="rgb(0,0,0)" fill-opacity="0.502"/>
<g transform="translate(76.00 24.00) rotate(47) scale(12.00 32.00)"><ellipse cx="0" cy="0" rx="1" ry="1" fill="rgb(0,0,0)" fill-opacity="0.502"/></g>
<g transform="translate(416.00 56.00) rotate(168) scale(44.00 16.00)"><ellipse cx="0" cy="0" rx="1" ry="1" fill="rgb(0,0,0)" fill-opacity="0.502"/></g>
<g transform="translate(300.00 76.00) rotate(202) scale(24.00 16.00)"><ellipse cx="0" cy="0" rx="1" ry="1" fill="rgb(0,0,0)" fill-opacity="0.502"/></g>
<g transform="translate(192.00 0.00) rotate(229) scale(28.00 124.00)"><ellipse cx="0" cy="0" rx="1" ry="1" fill="rgb(0,0,0)" fill-opacity="0.502"/></g>
<polygon points="796.87,124.69 886.05,204.99 819.13,279.31 729.95,199.01" fill="rgb(0,0,0)" fill-opacity="0.502"/>
<polygon points="58.07,27.17 35.66,35.77 29.93,20.83 52.34,12.23" fill="rgb(0,0,0)" fill-opacity="0.502"/>
<g transform="translate(368.00 184.00) rotate(136) scale(48.00 108.00)"><ellipse cx="0" cy="0" rx="1" ry="1" fill="rgb(0,0,0)" fill-opacity="0.502"/></g>
<g transform="translate(492.00 0.00) rotate(128) scale(4.00 44.00)"><ellipse cx="0" cy="0" rx="1" ry="1" fill="rgb(0,0,0)" fill-opacity="0.502"/></g>
<polygon points="16.07,95.96 12.07,96.03 11.93,88.04 15.93,87.97" fill="rgb(4,4,4)" fill-opacity="0.502"/>
<polygon points="364.66,103.56 367.96,92.03 383.34,96.44 380.04,107.97" fill="rgb(26,28,33)" fill-opacity="0.502"/>
<g transform="translate(4.00 64.00) rotate(273) scale(16.00 40.00)"><ellipse cx="0" cy="0" rx="1" ry="1" fill="rgb(0,0,0)" fill-opacity="0.502"/></g>
<g transform="translate(320.00 28.00) rotate(216) scale(92.00 52.00)"><ellipse cx="0" cy="0" rx="1" ry="1" fill="rgb(0,0,0)" fill-opacity="0.502"/></g>
<g transform="translate(380.00 204.00) rotate(6) scale(76.00 104.00)"><ellipse cx="0" cy="0" rx="1" ry="1" fill="rgb(0,0,0)" fill-opacity="0.502"/></g>
<polygon points="440.34,61.45 379.22,91.26 347.66,26.55 408.78,-3.26" fill="rgb(0,0,0)" fill-opacity="0.502"/>
<g transform="translate(108.00 176.00) rotate(218) scale(128.00 32.00)"><ellipse cx="0" cy="0" rx="1" ry="1" fill="rgb(0,0,0)" fill-opacity="0.502"/></g>
<g transform="translate(372.00 72.00) rotate(0) scale(8.00 28.00)"><ellipse cx="0" cy="0" rx="1" ry="1" fill="rgb(0,0,0)" fill-opacity="0.502"/></g>
<polygon points="459.08,199.21 352.79,263.08 288.92,156.79 395.21,92.92" fill="rgb(0,0,0)" fill-opacity="0.502"/>
<polygon points="449.00,77.43 459.03,103.57 347.00,146.57 336.97,120.43" fill="rgb(0,0,0)" fill-opacity="0.502"/>
<polygon points="15.66,77.59 2.02,62.96 28.34,38.41 41.98,53.04" fill="rgb(0,0,0)" fill-opacity="0.502"/>
<g transform="translate(432.00 212.00) rotate(85) scale(124.00 108.00)"><ellipse cx="0" cy="0" rx="1" ry="1" fill="rgb(0,0,0)" fill-opacity="0.502"/></g>
<g transform="translate(188.00 40.00) rotate(245) scale(4.00 100.00)"><ellipse cx="0" cy="0" rx="1" ry="1" fill="rgb(0,0,0)" fill-opacity="0.502"/></g>
<g transform="translate(484.00 12.00) rotate(277) scale(12.00 52.00)"><ellipse cx="0" cy="0" rx="1" ry="1" fill="rgb(0,0,0)" fill-opacity="0.502"/></g>
<polygon points="28.72,81.20 27.47,73.30 43.28,70.80 44.53,78.70" fill="rgb(4,4,4)" fill-opacity="0.502"/>
<polygon points="209.30,43.75 274.98,61.35 266.70,92.25 201.02,74.65" fill="rgb(0,0,0)" fill-opacity="0.502"/>
<g transform="translate(364.00 16.00) rotate(49) scale(80.00 16.00)"><ellipse cx="0" cy="0" rx="1" ry="1" fill="rgb(0,0,0)" fill-opacity="0.502"/></g>
<polygon points="20.76,78.64 17.36,80.76 15.24,77.36 18.64,75.24" fill="rgb(31,31,32)" fill-opacity="0.502"/>
<polygon points="52.19,82.48 51.22,86.36 31.81,81.52 32.78,77.64" fill="rgb(52,57,61)" fill-opacity="0.502"/>
<polygon points="124.00,88.00 124.00,88.00 180.00,88.00 180.00,88.00" fill="rgb(37,42,47)" fill-opacity="0.502"/>
<g transform="translate(56.00 152.00) rotate(174) scale(4.00 68.00)"><ellipse cx="0" cy="0" rx="1" ry="1" fill="rgb(0,0,0)" fill-opacity="0.502"/></g>
<g transform="translate(152.00 0.00) rotate(75) scale(84.00 96.00)"><ellipse cx="0" cy="0" rx="1" ry="1" fill="rgb(0,0,0)" fill-opacity="0.502"/></g>
<g transform="translate(444.00 20.00) rotate(305) scale(4.00 48.00)"><ellipse cx="0" cy="0" rx="1" ry="1" fill="rgb(0,0,0)" fill-opacity="0.502"/></g>
<polygon points="205.40,72.18 97.67,79.71 94.60,35.82 202.33,28.29" fill="rgb(0,0,0)" fill-opacity="0.502"/>
<polygon points="637.89,42.85 587.78,120.01 534.11,85.15 584.22,7.99" fill="rgb(0,0,0)" fill-opacity="0.502"/>
<g transform="translate(344.00 12.00) rotate(163) scale(24.00 88.00)"><ellipse cx="0" cy="0" rx="1" ry="1" fill="rgb(0,0,0)" fill-opacity="0.502"/></g>
<polygon points="599.08,7.71 615.15,57.17 580.92,68.29 564.85,18.83" fill="rgb(0,0,0)" fill-opacity="0.502"/>
<g transform="translate(72.00 72.00) rotate(310) scale(4.00 16.00)"><ellipse cx="0" cy="0" rx="1" ry="1" fill="rgb(0,0,0)" fill-opacity="0.502"/></g>
<polygon points="545.21,-11.77 542.77,16.12 538.79,15.77 541.23,-12.12" fill="rgb(0,0,0)" fill-opacity="0.502"/>
<g transform="translate(328.00 100.00) rotate(243) scale(4.00 4.00)"><ellipse cx="0" cy="0" rx="1" ry="1" fill="rgb(50,54,60)" fill-opacity="0.502"/></g>
<polygon points="330.27,105.86 323.56,101.50 325.73,98.14 332.44,102.50" fill="rgb(11,11,13)" fill-opacity="0.502"/>
<g transform="translate(60.00 32.00) rotate(147) scale(8.00 40.00)"><ellipse cx="0" cy="0" rx="1" ry="1" fill="rgb(0,0,0)" fill-opacity="0.502"/></g>
<polygon points="324.02,101.00 341.65,122.76 207.98,231.00 190.35,209.24" fill="rgb(0,0,0)" fill-opacity="0.502"/>
<g transform="translate(652.00 0.00) rotate(3) scale(44.00 4.00)"><ellipse cx="0" cy="0" rx="1" ry="1" fill="rgb(3,0,1)" fill-opacity="0.502"/></g>
<g transform="translate(328.00 176.00) rotate(320) scale(76.00 76.00)"><ellipse cx="0" cy="0" rx="1" ry="1" fill="rgb(0,0,0)" fill-opacity="0.502"/></g>
<g transform="translate(340.00 140.00) rotate(62) scale(44.00 20.00)"><ellipse cx="0" cy="0" rx="1" ry="1" fill="rgb(0,0,0)" fill-opacity="0.502"/></g>
</g>
</svg>