<?xml version="1.0" standalone="no"?>
<svg xmlns="http://www.w3.org/2000/svg" width="1024" height="768" viewBox="0 0 1024 768" style="overflow:hidden">
<defs>
<clipPath id="c"><rect x="0" y="0" width="1024" height="768"/></clipPath>
</defs>
<rect width="1024" height="768" fill="rgb(0,0,0)"/>
<g clip-path="url(#c)">
<g transform="translate(732.00 192.00) rotate(184) scale(40.00 4.00)"><ellipse cx="0" cy="0" rx="1" ry="1" fill="rgb(173,173,175)" fill-opacity="0.502"/></g>
<g transform="translate(20.00 52.00) rotate(191) scale(104.00 40.00)"><ellipse cx="0" cy="0" rx="1" ry="1" fill="rgb(4,4,4)" fill-opacity="0.502"/></g>
<polygon points="771.05,474.58 768.96,354.60 836.95,353.42 839.04,473.40" fill="rgb(2,0,1)" fill-opacity="0.502"/>
<polygon points="84.70,75.14 29.00,36.14 31.30,32.86 87.00,71.86" fill="rgb(39,39,40)" fill-opacity="0.502"/>
<g transform="translate(800.00 220.00) rotate(148) scale(24.00 44.00)"><ellipse cx="0" cy="0" rx="1" ry="1" fill="rgb(6,6,6)" fill-opacity="0.502"/></g>
<g transform="translate(832.00 232.00) rotate(102) scale(124.00 60.00)"><ellipse cx="0" cy="0" rx="1" ry="1" fill="rgb(0,0,0)" fill-opacity="0.502"/></g>
<g transform="translate(824.00 260.00) rotate(188) scale(224.00 60.00)"><ellipse cx="0" cy="0" rx="1" ry="1" fill="rgb(0,0,0)" fill-opacity="0.502"/></g>
<polygon points="77.81,33.76 4.40,53.43 -1.81,30.24 71.60,10.57" fill="rgb(0,0,0)" fill-opacity="0.502"/>
<g transform="translate(900.00 136.00) rotate(115) scale(120.00 128.00)"><ellipse cx="0" cy="0" rx="1" ry="1" fill="rgb(0,0,0)" fill-opacity="0.502"/></g>
<polygon points="776.73,474.83 708.99,468.90 715.27,397.17 783.01,403.10" fill="rgb(0,1,0)" fill-opacity="0.502"/>
<g transform="translate(112.00 40.00) rotate(303) scale(36.00 292.00)"><ellipse cx="0" cy="0" rx="1" ry="1" fill="rgb(0,0,0)" fill-opacity="0.502"/></g>
<g transform="translate(0.00 88.00) rotate(116) scale(120.00 12.00)"><ellipse cx="0" cy="0" rx="1" ry="1" fill="rgb(0,0,0)" fill-opacity="0.502"/></g>
<polygon points="747.28,172.45 783.24,189.98 772.72,211.55 736.76,194.02" fill="rgb(67,67,68)" fill-opacity="0.502"/>
<g transform="translate(820.00 264.00) rotate(193) scale(80.00 84.00)"><ellipse cx="0" cy="0" rx="1" ry="1" fill="rgb(0,0,0)" fill-opacity="0.502"/></g>
<polygon points="857.46,402.10 1011.39,487.43 974.54,553.90 820.61,468.57" fill="rgb(0,0,0)" fill-opacity="0.502"/>
<polygon points="932.14,413.24 909.12,435.47 811.86,334.76 834.88,312.53" fill="rgb(0,0,0)" fill-opacity="0.502"/>
<g transform="translate(684.00 308.00) rotate(272) scale(104.00 100.00)"><ellipse cx="0" cy="0" rx="1" ry="1" fill="rgb(0,0,0)" fill-opacity="0.502"/></g>
<g transform="translate(784.00 292.00) rotate(221) scale(112.00 80.00)"><ellipse cx="0" cy="0" rx="1" ry="1" fill="rgb(0,0,0)" fill-opacity="0.502"/></g>
<g transform="translate(792.00 112.00) rotate(69) scale(60.00 144.00)"><ellipse cx="0" cy="0" rx="1" ry="1" fill="rgb(0,0,0)" fill-opacity="0.502"/></g>
<g transform="translate(0.00 152.00) rotate(102) scale(120.00 72.00)"><ellipse cx="0" cy="0" rx="1" ry="1" fill="rgb(0,0,0)" fill-opacity="0.502"/></g>
<g transform="translate(768.00 316.00) rotate(58) scale(108.00 164.00)"><ellipse cx="0" cy="0" rx="1" ry="1" fill="rgb(0,0,0)" fill-opacity="0.502"/></g>
<polygon points="729.31,203.98 686.11,195.58 690.69,172.02 733.89,180.42" fill="rgb(71,71,71)" fill-opacity="0.502"/>
<g transform="translate(652.00 96.00) rotate(116) scale(84.00 112.00)"><ellipse cx="0" cy="0" rx="1" ry="1" fill="rgb(0,0,0)" fill-opacity="0.502"/></g>
<polygon points="784.61,438.94 759.26,384.56 835.39,349.06 860.74,403.44" fill="rgb(2,0,1)" fill-opacity="0.502"/>
<polygon points="896.63,295.31 969.37,337.31 907.37,444.69 834.63,402.69" fill="rgb(0,0,0)" fill-opacity="0.502"/>
<polygon points="760.11,368.34 790.75,342.63 831.89,391.66 801.25,417.37" fill="rgb(2,0,1)" fill-opacity="0.502"/>
<polygon points="796.89,305.34 878.81,247.98 959.11,362.66 877.19,420.02" fill="rgb(0,0,0)" fill-opacity="0.502"/>
<polygon points="817.19,109.19 824.98,164.65 638.81,190.81 631.02,135.35" fill="rgb(0,0,0)" fill-opacity="0.502"/>
<polygon points="708.71,112.61 832.91,81.65 851.29,155.39 727.09,186.35" fill="rgb(0,0,0)" fill-opacity="0.502"/>
<g transform="translate(4.00 8.00) rotate(332) scale(4.00 24.00)"><ellipse cx="0" cy="0" rx="1" ry="1" fill="rgb(16,16,18)" fill-opacity="0.502"/></g>
<g transform="translate(868.00 504.00) rotate(41) scale(64.00 48.00)"><ellipse cx="0" cy="0" rx="1" ry="1" fill="rgb(0,0,0)" fill-opacity="0.502"/></g>
<g transform="translate(616.00 152.00) rotate(359) scale(104.00 44.00)"><ellipse cx="0" cy="0" rx="1" ry="1" fill="rgb(0,0,0)" fill-opacity="0.502"/></g>
<g transform="translate(576.00 204.00) rotate(241) scale(76.00 124.00)"><ellipse cx="0" cy="0" rx="1" ry="1" fill="rgb(0,0,0)" fill-opacity="0.502"/></g>
<polygon points="807.58,547.16 720.21,483.68 748.42,444.84 835.79,508.32" fill="rgb(0,0,0)" fill-opacity="0.502"/>
<g transform="translate(720.00 256.00) rotate(343) scale(128.00 48.00)"><ellipse cx="0" cy="0" rx="1" ry="1" fill="rgb(0,0,0)" fill-opacity="0.502"/></g>
<g transform="translate(948.00 416.00) rotate(149) scale(100.00 124.00)"><ellipse cx="0" cy="0" rx="1" ry="1" fill="rgb(0,0,0)" fill-opacity="0.502"/></g>
<polygon points="759.66,291.82 694.29,273.08 716.34,196.18 781.71,214.92" fill="rgb(0,0,0)" fill-opacity="0.502"/>
<g transform="translate(592.00 148.00) rotate(255) scale(116.00 96.00)"><ellipse cx="0" cy="0" rx="1" ry="1" fill="rgb(0,0,0)" fill-opacity="0.502"/></g>
<g transform="translate(672.00 364.00) rotate(318) scale(76.00 120.00)"><ellipse cx="0" cy="0" rx="1" ry="1" fill="rgb(0,0,0)" fill-opacity="0.502"/></g>
<polygon points="820.91,319.88 685.93,303.31 699.09,196.12 834.07,212.69" fill="rgb(0,0,0)" fill-opacity="0.502"/>
<g transform="translate(0.00 156.00) rotate(216) scale(56.00 116.00)"><ellipse cx="0" cy="0" rx="1" ry="1" fill="rgb(0,0,0)" fill-opacity="0.502"/></g>
<g transform="translate(792.00 328.00) rotate(100) scale(36.00 12.00)"><ellipse cx="0" cy="0" rx="1" ry="1" fill="rgb(0,0,0)" fill-opacity="0.502"/></g>
<polygon points="815.96,423.99 830.09,431.50 800.04,488.01 785.91,480.50" fill="rgb(2,0,2)" fill-opacity="0.502"/>
<g transform="translate(0.00 0.00) rotate(133) scale(4.00 52.00)"><ellipse cx="0" cy="0" rx="1" ry="1" fill="rgb(0,0,0)" fill-opacity="0.502"/></g>
<polygon points="473.30,250.50 571.46,269.58 570.70,273.50 472.54,254.42" fill="rgb(0,0,0)" fill-opacity="0.502"/>
<g transform="translate(776.00 172.00) rotate(270) scale(12.00 144.00)"><ellipse cx="0" cy="0" rx="1" ry="1" fill="rgb(0,0,0)" fill-opacity="0.502"/></g>
<polygon points="581.82,200.36 684.54,184.09 690.18,219.64 587.46,235.91" fill="rgb(0,0,0)" fill-opacity="0.502"/>
<g transform="translate(0.00 68.00) rotate(19) scale(52.00 12.00)"><ellipse cx="0" cy="0" rx="1" ry="1" fill="rgb(4,4,4)" fill-opacity="0.502"/></g>
<g transform="translate(812.00 332.00) rotate(315) scale(8.00 48.00)"><ellipse cx="0" cy="0" rx="1" ry="1" fill="rgb(0,0,0)" fill-opacity="0.502"/></g>
<polygon points="232.25,54.39 120.80,108.75 99.75,65.61 211.20,11.25" fill="rgb(0,0,0)" fill-opacity="0.502"/>
<g transform="translate(768.00 188.00) rotate(41) scale(8.00 4.00)"><ellipse cx="0" cy="0" rx="1" ry="1" fill="rgb(119,119,121)" fill-opacity="0.502"/></g>
<g transform="translate(920.00 200.00) rotate(167) scale(140.00 124.00)"><ellipse cx="0" cy="0" rx="1" ry="1" fill="rgb(0,0,0)" fill-opacity="0.502"/></g>
<g transform="translate(692.00 144.00) rotate(193) scale(140.00 28.00)"><ellipse cx="0" cy="0" rx="1" ry="1" fill="rgb(0,0,0)" fill-opacity="0.502"/></g>
<polygon points="747.92,310.43 782.10,191.24 832.08,205.57 797.90,324.76" fill="rgb(0,0,0)" fill-opacity="0.502"/>
<polygon points="867.04,468.94 861.22,441.55 872.96,439.06 878.78,466.45" fill="rgb(2,1,1)" fill-opacity="0.502"/>
<g transform="translate(744.00 136.00) rotate(154) scale(60.00 40.00)"><ellipse cx="0" cy="0" rx="1" ry="1" fill="rgb(0,0,0)" fill-opacity="0.502"/></g>
<g transform="translate(0.00 76.00) rotate(9) scale(96.00 4.00)"><ellipse cx="0" cy="0" rx="1" ry="1" fill="rgb(6,6,6)" fill-opacity="0.502"/></g>
<polygon points="793.44,419.16 786.76,371.63 806.56,368.84 813.24,416.37" fill="rgb(3,0,1)" fill-opacity="0.502"/>
<polygon points="597.40,21.54 738.39,157.69 710.60,186.46 569.61,50.31" fill="rgb(0,0,0)" fill-opacity="0.502"/>
<g transform="translate(740.00 316.00) rotate(218) scale(52.00 84.00)"><ellipse cx="0" cy="0" rx="1" ry="1" fill="rgb(0,0,0)" fill-opacity="0.502"/></g>
<g transform="translate(608.00 264.00) rotate(12) scale(100.00 112.00)"><ellipse cx="0" cy="0" rx="1" ry="1" fill="rgb(0,0,0)" fill-opacity="0.502"/></g>
<polygon points="25.79,84.72 26.41,80.77 42.21,83.28 41.59,87.23" fill="rgb(16,15,17)" fill-opacity="0.502"/>
<g transform="translate(704.00 484.00) rotate(280) scale(48.00 4.00)"><ellipse cx="0" cy="0" rx="1" ry="1" fill="rgb(2,1,1)" fill-opacity="0.502"/></g>
<g transform="translate(0.00 68.00) rotate(180) scale(56.00 12.00)"><ellipse cx="0" cy="0" rx="1" ry="1" fill="rgb(0,0,0)" fill-opacity="0.502"/></g>
<polygon points="622.87,198.24 607.39,136.14 681.13,117.76 696.61,179.86" fill="rgb(0,0,0)" fill-opacity="0.502"/>
<polygon points="721.13,456.80 774.68,440.43 782.87,467.20 729.32,483.57" fill="rgb(0,0,0)" fill-opacity="0.502"/>
<g transform="translate(0.00 32.00) rotate(264) scale(4.00 52.00)"><ellipse cx="0" cy="0" rx="1" ry="1" fill="rgb(4,3,3)" fill-opacity="0.502"/></g>
<polygon points="843.30,92.71 908.44,131.86 848.70,231.29 783.56,192.14" fill="rgb(0,0,0)" fill-opacity="0.502"/>
<polygon points="806.92,103.79 823.85,152.96 733.08,184.21 716.15,135.04" fill="rgb(0,0,0)" fill-opacity="0.502"/>
<polygon points="643.42,192.69 621.80,90.96 676.58,79.31 698.20,181.04" fill="rgb(0,0,0)" fill-opacity="0.502"/>
<g transform="translate(784.00 256.00) rotate(210) scale(96.00 40.00)"><ellipse cx="0" cy="0" rx="1" ry="1" fill="rgb(0,0,0)" fill-opacity="0.502"/></g>
<g transform="translate(804.00 100.00) rotate(116) scale(92.00 92.00)"><ellipse cx="0" cy="0" rx="1" ry="1" fill="rgb(0,0,0)" fill-opacity="0.502"/></g>
<g transform="translate(804.00 60.00) rotate(110) scale(128.00 108.00)"><ellipse cx="0" cy="0" rx="1" ry="1" fill="rgb(0,0,0)" fill-opacity="0.502"/></g>
<polygon points="766.43,199.77 716.98,351.94 705.57,348.23 755.02,196.06" fill="rgb(0,0,0)" fill-opacity="0.502"/>
<g transform="translate(60.00 144.00) rotate(71) scale(48.00 88.00)"><ellipse cx="0" cy="0" rx="1" ry="1" fill="rgb(0,0,0)" fill-opacity="0.502"/></g>
<g transform="translate(744.00 76.00) rotate(290) scale(112.00 84.00)"><ellipse cx="0" cy="0" rx="1" ry="1" fill="rgb(0,0,0)" fill-opacity="0.502"/></g>
<polygon points="736.20,176.02 740.14,176.71 731.80,223.98 727.86,223.29" fill="rgb(4,3,3)" fill-opacity="0.502"/>
<polygon points="702.02,316.37 651.84,185.67 677.98,175.63 728.16,306.33" fill="rgb(0,0,0)" fill-opacity="0.502"/>
<polygon points="654.46,196.79 654.46,196.79 713.54,207.21 713.54,207.21" fill="rgb(2,2,2)" fill-opacity="0.502"/>
<g transform="translate(804.00 260.00) rotate(286) scale(48.00 164.00)"><ellipse cx="0" cy="0" rx="1" ry="1" fill="rgb(0,0,0)" fill-opacity="0.502"/></g>
<polygon points="103.62,85.67 85.50,101.42 72.38,86.33 90.50,70.58" fill="rgb(8,8,8)" fill-opacity="0.502"/>
<g transform="translate(664.00 220.00) rotate(51) scale(76.00 28.00)"><ellipse cx="0" cy="0" rx="1" ry="1" fill="rgb(0,0,0)" fill-opacity="0.502"/></g>
<g transform="translate(44.00 136.00) rotate(345) scale(100.00 40.00)"><ellipse cx="0" cy="0" rx="1" ry="1" fill="rgb(0,0,0)" fill-opacity="0.502"/></g>
<polygon points="769.33,184.62 753.90,166.23 790.67,135.38 806.10,153.77" fill="rgb(0,0,0)" fill-opacity="0.502"/>
<g transform="translate(84.00 200.00) rotate(301) scale(116.00 96.00)"><ellipse cx="0" cy="0" rx="1" ry="1" fill="rgb(0,0,0)" fill-opacity="0.502"/></g>
<g transform="translate(716.00 268.00) rotate(154) scale(72.00 72.00)"><ellipse cx="0" cy="0" rx="1" ry="1" fill="rgb(0,0,0)" fill-opacity="0.502"/></g>
<polygon points="750.00,206.00 750.00,202.00 790.00,202.00 790.00,206.00" fill="rgb(0,0,0)" fill-opacity="0.502"/>
<polygon points="12.81,86.99 128.79,89.02 127.19,181.01 11.21,178.98" fill="rgb(0,0,0)" fill-opacity="0.502"/>
<g transform="translate(844.00 136.00) rotate(8) scale(128.00 68.00)"><ellipse cx="0" cy="0" rx="1" ry="1" fill="rgb(0,0,0)" fill-opacity="0.502"/></g>
<g transform="translate(728.00 368.00) rotate(52) scale(84.00 8.00)"><ellipse cx="0" cy="0" rx="1" ry="1" fill="rgb(0,0,0)" fill-opacity="0.502"/></g>
<g transform="translate(732.00 400.00) rotate(120) scale(24.00 48.00)"><ellipse cx="0" cy="0" rx="1" ry="1" fill="rgb(0,0,0)" fill-opacity="0.502"/></g>
<polygon points="663.82,99.72 732.21,44.34 800.18,128.28 731.79,183.66" fill="rgb(0,0,0)" fill-opacity="0.502"/>
<polygon points="752.23,115.60 769.16,164.77 723.77,180.40 706.84,131.23" fill="rgb(0,0,0)" fill-opacity="0.502"/>
<polygon points="69.30,36.80 65.55,43.86 26.70,23.20 30.45,16.14" fill="rgb(0,0,0)" fill-opacity="0.502"/>
<polygon points="704.70,285.26 759.81,197.06 807.30,226.74 752.19,314.94" fill="rgb(0,0,0)" fill-opacity="0.502"/>
<polygon points="830.92,407.33 832.67,410.92 829.08,412.67 827.33,409.08" fill="rgb(3,0,1)" fill-opacity="0.502"/>
<polygon points="828.00,418.38 832.48,425.01 796.00,449.62 791.52,442.99" fill="rgb(3,0,1)" fill-opacity="0.502"/>
<g transform="translate(808.00 456.00) rotate(209) scale(12.00 44.00)"><ellipse cx="0" cy="0" rx="1" ry="1" fill="rgb(2,0,1)" fill-opacity="0.502"/></g>
<polygon points="820.24,598.59 815.78,470.67 851.76,469.41 856.22,597.33" fill="rgb(0,0,0)" fill-opacity="0.502"/>
<polygon points="815.96,209.41 807.59,305.05 688.04,294.59 696.41,198.95" fill="rgb(0,0,0)" fill-opacity="0.502"/>
<polygon points="12.00,27.03 28.97,44.00 12.00,60.97 -4.97,44.00" fill="rgb(0,0,0)" fill-opacity="0.502"/>
<polygon points="49.24,53.32 49.24,53.32 -49.24,70.68 -49.24,70.68" fill="rgb(0,0,0)" fill-opacity="0.502"/>
<g transform="translate(784.00 632.00) rotate(102) scale(148.00 56.00)"><ellipse cx="0" cy="0" rx="1" ry="1" fill="rgb(0,0,0)" fill-opacity="0.502"/></g>
<g transform="translate(776.00 108.00) rotate(357) scale(144.00 76.00)"><ellipse cx="0" cy="0" rx="1" ry="1" fill="rgb(0,0,0)" fill-opacity="0.502"/></g>
<g transform="translate(864.00 136.00) rotate(247) scale(24.00 116.00)"><ellipse cx="0" cy="0" rx="1" ry="1" fill="rgb(0,0,0)" fill-opacity="0.502"/></g>
<g transform="translate(756.00 420.00) rotate(96) scale(36.00 16.00)"><ellipse cx="0" cy="0" rx="1" ry="1" fill="rgb(0,0,0)" fill-opacity="0.502"/></g>
<polygon points="742.31,182.89 741.61,190.86 721.69,189.11 722.39,181.14" fill="rgb(90,90,92)" fill-opacity="0.502"/>
<polygon points="779.42,460.24 775.46,459.68 776.58,451.76 780.54,452.32" fill="rgb(0,0,0)" fill-opacity="0.502"/>
<g transform="translate(848.00 460.00) rotate(59) scale(24.00 12.00)"><ellipse cx="0" cy="0" rx="1" ry="1" fill="rgb(0,0,0)" fill-opacity="0.502"/></g>
<polygon points="730.08,184.77 710.58,25.96 797.92,15.23 817.42,174.04" fill="rgb(0,0,0)" fill-opacity="0.502"/>
<polygon points="743.90,109.67 735.95,185.26 708.10,182.33 716.05,106.74" fill="rgb(0,0,0)" fill-opacity="0.502"/>
<g transform="translate(20.00 4.00) rotate(111) scale(12.00 112.00)"><ellipse cx="0" cy="0" rx="1" ry="1" fill="rgb(0,0,0)" fill-opacity="0.502"/></g>
<polygon points="16.16,63.03 72.12,64.98 71.84,72.97 15.88,71.02" fill="rgb(0,0,0)" fill-opacity="0.502"/>
<polygon points="849.43,360.95 842.73,233.12 958.57,227.05 965.27,354.88" fill="rgb(0,0,0)" fill-opacity="0.502"/>
<polygon points="1.22,13.12 6.78,18.88 6.78,18.88 1.22,13.12" fill="rgb(42,45,48)" fill-opacity="0.502"/>
<g transform="translate(100.00 84.00) rotate(316) scale(4.00 8.00)"><ellipse cx="0" cy="0" rx="1" ry="1" fill="rgb(12,10,11)" fill-opacity="0.502"/></g>
<polygon points="43.09,84.05 109.85,111.02 52.91,251.95 -13.85,224.98" fill="rgb(0,0,0)" fill-opacity="0.502"/>
<g transform="translate(912.00 684.00) rotate(335) scale(20.00 104.00)"><ellipse cx="0" cy="0" rx="1" ry="1" fill="rgb(0,0,0)" fill-opacity="0.502"/></g>
<g transform="translate(140.00 24.00) rotate(136) scale(68.00 52.00)"><ellipse cx="0" cy="0" rx="1" ry="1" fill="rgb(0,0,0)" fill-opacity="0.502"/></g>
<polygon points="753.61,198.10 750.91,186.40 770.39,181.90 773.09,193.60" fill="rgb(106,105,107)" fill-opacity="0.502"/>
<g transform="translate(36.00 12.00) rotate(6) scale(132.00 4.00)"><ellipse cx="0" cy="0" rx="1" ry="1" fill="rgb(0,0,0)" fill-opacity="0.502"/></g>
<g transform="translate(68.00 24.00) rotate(290) scale(16.00 76.00)"><ellipse cx="0" cy="0" rx="1" ry="1" fill="rgb(0,0,0)" fill-opacity="0.502"/></g>
<polygon points="631.01,448.18 612.78,501.13 608.99,499.82 627.22,446.87" fill="rgb(2,1,0)" fill-opacity="0.502"/>
<polygon points="803.41,352.20 840.35,399.48 824.59,411.80 787.65,364.52" fill="rgb(2,0,1)" fill-opacity="0.502"/>
<g transform="translate(776.00 108.00) rotate(6) scale(28.00 80.00)"><ellipse cx="0" cy="0" rx="1" ry="1" fill="rgb(0,0,0)" fill-opacity="0.502"/></g>
<polygon points="31.49,23.51 15.83,46.72 12.51,44.49 28.17,21.28" fill="rgb(4,4,3)" fill-opacity="0.502"/>
<polygon points="758.36,195.15 713.64,228.85 713.64,228.85 758.36,195.15" fill="rgb(0,0,0)" fill-opacity="0.502"/>
<g transform="translate(780.00 68.00) rotate(54) scale(124.00 112.00)"><ellipse cx="0" cy="0" rx="1" ry="1" fill="rgb(0,0,0)" fill-opacity="0.502"/></g>
<polygon points="668.37,464.95 633.27,497.68 619.63,483.05 654.73,450.32" fill="rgb(2,1,0)" fill-opacity="0.502"/>
<polygon points="745.63,156.04 745.63,156.04 750.37,291.96 750.37,291.96" fill="rgb(0,0,0)" fill-opacity="0.502"/>
<polygon points="744.15,184.08 703.23,129.77 811.85,47.92 852.77,102.23" fill="rgb(0,0,0)" fill-opacity="0.502"/>
<g transform="translate(696.00 192.00) rotate(36) scale(4.00 4.00)"><ellipse cx="0" cy="0" rx="1" ry="1" fill="rgb(181,179,177)" fill-opacity="0.502"/></g>
<polygon points="46.53,62.05 29.26,78.72 1.47,49.95 18.74,33.28" fill="rgb(0,0,0)" fill-opacity="0.502"/>
<polygon points="7.95,77.06 11.66,88.47 4.05,90.94 0.34,79.53" fill="rgb(5,4,6)" fill-opacity="0.502"/>
<g transform="translate(0.00 112.00) rotate(38) scale(36.00 20.00)"><ellipse cx="0" cy="0" rx="1" ry="1" fill="rgb(0,0,0)" fill-opacity="0.502"/></g>
<polygon points="939.44,238.72 919.64,324.47 732.56,281.28 752.36,195.53" fill="rgb(0,0,0)" fill-opacity="0.502"/>
<polygon points="767.48,375.20 843.12,401.24 840.52,408.80 764.88,382.76" fill="rgb(2,0,1)" fill-opacity="0.502"/>
<g transform="translate(784.00 164.00) rotate(215) scale(12.00 24.00)"><ellipse cx="0" cy="0" rx="1" ry="1" fill="rgb(0,0,0)" fill-opacity="0.502"/></g>
<g transform="translate(928.00 368.00) rotate(331) scale(96.00 48.00)"><ellipse cx="0" cy="0" rx="1" ry="1" fill="rgb(0,0,0)" fill-opacity="0.502"/></g>
<polygon points="47.74,49.95 48.85,53.79 -35.74,78.05 -36.85,74.21" fill="rgb(0,0,0)" fill-opacity="0.502"/>
<g transform="translate(20.00 164.00) rotate(315) scale(76.00 80.00)"><ellipse cx="0" cy="0" rx="1" ry="1" fill="rgb(0,0,0)" fill-opacity="0.502"/></g>
<g transform="translate(20.00 208.00) rotate(208) scale(124.00 124.00)"><ellipse cx="0" cy="0" rx="1" ry="1" fill="rgb(0,0,0)" fill-opacity="0.502"/></g>
<polygon points="817.84,288.31 738.90,259.58 762.16,195.69 841.10,224.42" fill="rgb(0,0,0)" fill-opacity="0.502"/>
<polygon points="24.00,0.00 124.00,0.00 124.00,24.00 24.00,24.00" fill="rgb(0,0,0)" fill-opacity="0.502"/>
<polygon points="-12.65,34.52 -6.83,24.03 24.65,41.48 18.83,51.97" fill="rgb(0,0,0)" fill-opacity="0.502"/>
<polygon points="813.93,399.38 824.62,393.93 830.07,404.62 819.38,410.07" fill="rgb(3,0,1)" fill-opacity="0.502"/>
</g>
</svg>