<?xml version="1.0" standalone="no"?>
<svg xmlns="http://www.w3.org/2000/svg" width="1024" height="768" viewBox="0 0 1024 768" style="overflow:hidden">
<defs>
<clipPath id="c"><rect x="0" y="0" width="1024" height="768"/></clipPath>
</defs>
<rect width="1024" height="768" fill="rgb(0,0,0)"/>
<g clip-path="url(#c)">
<g transform="translate(28.00 24.00) rotate(39) scale(104.00 8.00)"><ellipse cx="0" cy="0" rx="1" ry="1" fill="rgb(12,12,13)" fill-opacity="0.502"/></g>
<polygon points="672.24,182.05 784.18,185.96 783.76,197.95 671.82,194.04" fill="rgb(127,127,129)" fill-opacity="0.502"/>
<polygon points="569.81,257.94 578.46,134.24 690.19,142.06 681.54,265.76" fill="rgb(0,0,0)" fill-opacity="0.502"/>
<g transform="translate(100.00 28.00) rotate(101) scale(28.00 84.00)"><ellipse cx="0" cy="0" rx="1" ry="1" fill="rgb(0,0,0)" fill-opacity="0.502"/></g>
<g transform="translate(844.00 188.00) rotate(2) scale(64.00 60.00)"><ellipse cx="0" cy="0" rx="1" ry="1" fill="rgb(0,0,0)" fill-opacity="0.502"/></g>
<polygon points="647.00,148.97 701.67,201.76 685.00,219.03 630.33,166.24" fill="rgb(0,0,0)" fill-opacity="0.502"/>
<polygon points="772.00,196.00 688.00,196.00 688.00,192.00 772.00,192.00" fill="rgb(95,94,96)" fill-opacity="0.502"/>
<g transform="translate(788.00 208.00) rotate(100) scale(28.00 12.00)"><ellipse cx="0" cy="0" rx="1" ry="1" fill="rgb(0,0,0)" fill-opacity="0.502"/></g>
<g transform="translate(700.00 88.00) rotate(41) scale(72.00 128.00)"><ellipse cx="0" cy="0" rx="1" ry="1" fill="rgb(0,0,0)" fill-opacity="0.502"/></g>
<polygon points="54.09,44.08 80.62,61.97 73.91,71.92 47.38,54.03" fill="rgb(22,22,23)" fill-opacity="0.502"/>
<polygon points="783.71,361.76 819.57,358.62 828.29,458.24 792.43,461.38" fill="rgb(3,0,2)" fill-opacity="0.502"/>
<g transform="translate(144.00 120.00) rotate(332) scale(16.00 80.00)"><ellipse cx="0" cy="0" rx="1" ry="1" fill="rgb(0,0,0)" fill-opacity="0.502"/></g>
<polygon points="771.61,364.18 835.13,356.38 844.39,431.82 780.87,439.62" fill="rgb(2,0,1)" fill-opacity="0.502"/>
<polygon points="633.01,63.83 697.09,214.79 674.99,224.17 610.91,73.21" fill="rgb(0,0,0)" fill-opacity="0.502"/>
<polygon points="736.00,232.00 732.00,232.00 732.00,180.00 736.00,180.00" fill="rgb(0,0,0)" fill-opacity="0.502"/>
<g transform="translate(604.00 184.00) rotate(325) scale(72.00 112.00)"><ellipse cx="0" cy="0" rx="1" ry="1" fill="rgb(0,0,0)" fill-opacity="0.502"/></g>
<polygon points="829.23,349.38 752.95,199.70 770.77,190.62 847.05,340.30" fill="rgb(0,0,0)" fill-opacity="0.502"/>
<polygon points="607.40,326.45 560.02,247.59 676.60,177.55 723.98,256.41" fill="rgb(0,0,0)" fill-opacity="0.502"/>
<polygon points="-26.12,82.75 -25.71,74.76 98.12,81.25 97.71,89.24" fill="rgb(11,10,10)" fill-opacity="0.502"/>
<g transform="translate(784.00 216.00) rotate(213) scale(44.00 4.00)"><ellipse cx="0" cy="0" rx="1" ry="1" fill="rgb(2,2,2)" fill-opacity="0.502"/></g>
<g transform="translate(932.00 224.00) rotate(358) scale(244.00 32.00)"><ellipse cx="0" cy="0" rx="1" ry="1" fill="rgb(0,0,0)" fill-opacity="0.502"/></g>
<polygon points="844.92,235.70 777.58,226.24 807.08,16.30 874.42,25.76" fill="rgb(0,0,0)" fill-opacity="0.502"/>
<g transform="translate(900.00 156.00) rotate(69) scale(88.00 124.00)"><ellipse cx="0" cy="0" rx="1" ry="1" fill="rgb(0,0,0)" fill-opacity="0.502"/></g>
<g transform="translate(20.00 0.00) rotate(246) scale(8.00 56.00)"><ellipse cx="0" cy="0" rx="1" ry="1" fill="rgb(0,0,0)" fill-opacity="0.502"/></g>
<polygon points="810.71,376.49 805.27,480.35 789.29,479.51 794.73,375.65" fill="rgb(3,0,1)" fill-opacity="0.502"/>
<polygon points="66.28,36.35 113.55,28.01 117.72,51.65 70.45,59.99" fill="rgb(0,0,0)" fill-opacity="0.502"/>
<g transform="translate(888.00 440.00) rotate(305) scale(76.00 52.00)"><ellipse cx="0" cy="0" rx="1" ry="1" fill="rgb(0,0,0)" fill-opacity="0.502"/></g>
<polygon points="-13.96,77.67 -16.30,70.02 21.96,58.33 24.30,65.98" fill="rgb(0,0,0)" fill-opacity="0.502"/>
<g transform="translate(852.00 168.00) rotate(88) scale(84.00 72.00)"><ellipse cx="0" cy="0" rx="1" ry="1" fill="rgb(0,0,0)" fill-opacity="0.502"/></g>
<g transform="translate(36.00 184.00) rotate(10) scale(48.00 128.00)"><ellipse cx="0" cy="0" rx="1" ry="1" fill="rgb(0,0,0)" fill-opacity="0.502"/></g>
<g transform="translate(600.00 112.00) rotate(144) scale(76.00 116.00)"><ellipse cx="0" cy="0" rx="1" ry="1" fill="rgb(0,0,0)" fill-opacity="0.502"/></g>
<polygon points="649.50,175.89 659.12,84.40 770.50,96.11 760.88,187.60" fill="rgb(0,0,0)" fill-opacity="0.502"/>
<g transform="translate(896.00 432.00) rotate(70) scale(76.00 52.00)"><ellipse cx="0" cy="0" rx="1" ry="1" fill="rgb(0,0,0)" fill-opacity="0.502"/></g>
<g transform="translate(804.00 440.00) rotate(195) scale(20.00 56.00)"><ellipse cx="0" cy="0" rx="1" ry="1" fill="rgb(2,0,1)" fill-opacity="0.502"/></g>
<g transform="translate(744.00 544.00) rotate(229) scale(12.00 88.00)"><ellipse cx="0" cy="0" rx="1" ry="1" fill="rgb(0,0,0)" fill-opacity="0.502"/></g>
<g transform="translate(124.00 40.00) rotate(14) scale(116.00 16.00)"><ellipse cx="0" cy="0" rx="1" ry="1" fill="rgb(0,0,0)" fill-opacity="0.502"/></g>
<g transform="translate(880.00 232.00) rotate(190) scale(88.00 144.00)"><ellipse cx="0" cy="0" rx="1" ry="1" fill="rgb(0,0,0)" fill-opacity="0.502"/></g>
<polygon points="53.14,53.97 50.70,81.86 6.86,78.03 9.30,50.14" fill="rgb(0,0,0)" fill-opacity="0.502"/>
<polygon points="719.07,195.38 751.16,315.16 700.93,328.62 668.84,208.84" fill="rgb(0,0,0)" fill-opacity="0.502"/>
<polygon points="52.51,82.14 51.12,90.02 27.49,85.86 28.88,77.98" fill="rgb(10,9,10)" fill-opacity="0.502"/>
<g transform="translate(96.00 180.00) rotate(52) scale(116.00 44.00)"><ellipse cx="0" cy="0" rx="1" ry="1" fill="rgb(0,0,0)" fill-opacity="0.502"/></g>
<polygon points="-0.85,35.83 -4.53,34.26 4.85,12.17 8.53,13.74" fill="rgb(20,21,22)" fill-opacity="0.502"/>
<g transform="translate(868.00 484.00) rotate(66) scale(36.00 76.00)"><ellipse cx="0" cy="0" rx="1" ry="1" fill="rgb(0,0,0)" fill-opacity="0.502"/></g>
<g transform="translate(724.00 112.00) rotate(100) scale(76.00 16.00)"><ellipse cx="0" cy="0" rx="1" ry="1" fill="rgb(0,0,0)" fill-opacity="0.502"/></g>
<polygon points="785.59,-31.06 875.06,101.59 742.41,191.06 652.94,58.41" fill="rgb(0,0,0)" fill-opacity="0.502"/>
<g transform="translate(8.00 120.00) rotate(92) scale(36.00 160.00)"><ellipse cx="0" cy="0" rx="1" ry="1" fill="rgb(0,0,0)" fill-opacity="0.502"/></g>
<polygon points="135.87,87.18 50.34,43.59 72.13,0.82 157.66,44.41" fill="rgb(0,0,0)" fill-opacity="0.502"/>
<g transform="translate(120.00 120.00) rotate(222) scale(128.00 4.00)"><ellipse cx="0" cy="0" rx="1" ry="1" fill="rgb(0,0,0)" fill-opacity="0.502"/></g>
<g transform="translate(624.00 476.00) rotate(76) scale(100.00 160.00)"><ellipse cx="0" cy="0" rx="1" ry="1" fill="rgb(0,0,0)" fill-opacity="0.502"/></g>
<g transform="translate(52.00 48.00) rotate(215) scale(68.00 4.00)"><ellipse cx="0" cy="0" rx="1" ry="1" fill="rgb(19,19,19)" fill-opacity="0.502"/></g>
<g transform="translate(756.00 64.00) rotate(7) scale(180.00 124.00)"><ellipse cx="0" cy="0" rx="1" ry="1" fill="rgb(0,0,0)" fill-opacity="0.502"/></g>
<g transform="translate(132.00 60.00) rotate(169) scale(32.00 116.00)"><ellipse cx="0" cy="0" rx="1" ry="1" fill="rgb(0,0,0)" fill-opacity="0.502"/></g>
<polygon points="801.98,294.87 695.06,349.35 646.02,253.13 752.94,198.65" fill="rgb(0,0,0)" fill-opacity="0.502"/>
<polygon points="193.57,75.35 157.46,123.27 58.43,48.65 94.54,0.73" fill="rgb(0,0,0)" fill-opacity="0.502"/>
<polygon points="49.77,-0.81 65.09,12.04 34.23,48.81 18.91,35.96" fill="rgb(0,0,0)" fill-opacity="0.502"/>
<polygon points="10.00,-5.39 42.18,24.62 34.00,33.39 1.82,3.38" fill="rgb(0,0,0)" fill-opacity="0.502"/>
<g transform="translate(696.00 188.00) rotate(241) scale(8.00 4.00)"><ellipse cx="0" cy="0" rx="1" ry="1" fill="rgb(138,137,137)" fill-opacity="0.502"/></g>
<polygon points="692.74,185.45 674.35,111.71 775.26,86.55 793.65,160.29" fill="rgb(0,0,0)" fill-opacity="0.502"/>
<polygon points="585.06,320.10 531.48,278.24 698.94,63.90 752.52,105.76" fill="rgb(0,0,0)" fill-opacity="0.502"/>
<polygon points="781.32,146.00 764.13,186.50 734.68,174.00 751.87,133.50" fill="rgb(2,2,2)" fill-opacity="0.502"/>
<polygon points="78.26,3.33 213.93,12.82 209.74,72.67 74.07,63.18" fill="rgb(0,0,0)" fill-opacity="0.502"/>
<g transform="translate(740.00 112.00) rotate(32) scale(124.00 48.00)"><ellipse cx="0" cy="0" rx="1" ry="1" fill="rgb(0,0,0)" fill-opacity="0.502"/></g>
<g transform="translate(756.00 56.00) rotate(293) scale(136.00 76.00)"><ellipse cx="0" cy="0" rx="1" ry="1" fill="rgb(0,0,0)" fill-opacity="0.502"/></g>
<g transform="translate(760.00 116.00) rotate(293) scale(72.00 32.00)"><ellipse cx="0" cy="0" rx="1" ry="1" fill="rgb(0,0,0)" fill-opacity="0.502"/></g>
<g transform="translate(156.00 0.00) rotate(338) scale(112.00 48.00)"><ellipse cx="0" cy="0" rx="1" ry="1" fill="rgb(0,0,0)" fill-opacity="0.502"/></g>
<g transform="translate(8.00 92.00) rotate(83) scale(4.00 96.00)"><ellipse cx="0" cy="0" rx="1" ry="1" fill="rgb(3,2,2)" fill-opacity="0.502"/></g>
<g transform="translate(8.00 168.00) rotate(179) scale(144.00 84.00)"><ellipse cx="0" cy="0" rx="1" ry="1" fill="rgb(0,0,0)" fill-opacity="0.502"/></g>
<polygon points="738.87,195.74 699.60,188.11 701.13,180.26 740.40,187.89" fill="rgb(106,106,107)" fill-opacity="0.502"/>
<polygon points="820.99,402.32 830.14,445.36 791.01,453.68 781.86,410.64" fill="rgb(2,0,1)" fill-opacity="0.502"/>
<g transform="translate(88.00 24.00) rotate(308) scale(36.00 148.00)"><ellipse cx="0" cy="0" rx="1" ry="1" fill="rgb(0,0,0)" fill-opacity="0.502"/></g>
<g transform="translate(108.00 0.00) rotate(203) scale(92.00 68.00)"><ellipse cx="0" cy="0" rx="1" ry="1" fill="rgb(0,0,0)" fill-opacity="0.502"/></g>
<g transform="translate(708.00 524.00) rotate(35) scale(16.00 124.00)"><ellipse cx="0" cy="0" rx="1" ry="1" fill="rgb(0,0,0)" fill-opacity="0.502"/></g>
<g transform="translate(760.00 132.00) rotate(151) scale(80.00 44.00)"><ellipse cx="0" cy="0" rx="1" ry="1" fill="rgb(0,0,0)" fill-opacity="0.502"/></g>
<g transform="translate(728.00 136.00) rotate(225) scale(60.00 20.00)"><ellipse cx="0" cy="0" rx="1" ry="1" fill="rgb(0,0,0)" fill-opacity="0.502"/></g>
<polygon points="86.65,74.85 89.15,90.65 73.35,93.15 70.85,77.35" fill="rgb(5,4,4)" fill-opacity="0.502"/>
<polygon points="82.10,90.39 70.40,93.09 65.90,73.61 77.60,70.91" fill="rgb(2,2,2)" fill-opacity="0.502"/>
<polygon points="101.67,55.37 96.22,66.06 46.33,40.63 51.78,29.94" fill="rgb(0,0,0)" fill-opacity="0.502"/>
<g transform="translate(696.00 348.00) rotate(59) scale(120.00 56.00)"><ellipse cx="0" cy="0" rx="1" ry="1" fill="rgb(0,0,0)" fill-opacity="0.502"/></g>
<polygon points="820.30,360.05 757.12,262.77 847.70,203.95 910.88,301.23" fill="rgb(0,0,0)" fill-opacity="0.502"/>
<polygon points="826.06,139.47 835.00,152.74 781.94,188.53 773.00,175.26" fill="rgb(0,0,0)" fill-opacity="0.502"/>
<g transform="translate(48.00 180.00) rotate(70) scale(92.00 100.00)"><ellipse cx="0" cy="0" rx="1" ry="1" fill="rgb(0,0,0)" fill-opacity="0.502"/></g>
<polygon points="778.00,190.00 778.00,194.00 746.00,194.00 746.00,190.00" fill="rgb(121,122,123)" fill-opacity="0.502"/>
<g transform="translate(744.00 168.00) rotate(284) scale(12.00 112.00)"><ellipse cx="0" cy="0" rx="1" ry="1" fill="rgb(1,1,1)" fill-opacity="0.502"/></g>
<polygon points="819.89,444.21 811.90,443.79 812.11,439.79 820.10,440.21" fill="rgb(3,0,1)" fill-opacity="0.502"/>
<g transform="translate(4.00 64.00) rotate(153) scale(4.00 52.00)"><ellipse cx="0" cy="0" rx="1" ry="1" fill="rgb(0,0,0)" fill-opacity="0.502"/></g>
<polygon points="687.75,154.52 717.48,127.75 744.25,157.48 714.52,184.25" fill="rgb(0,0,0)" fill-opacity="0.502"/>
<polygon points="14.82,50.86 7.00,52.53 1.18,25.14 9.00,23.47" fill="rgb(0,0,0)" fill-opacity="0.502"/>
<polygon points="825.20,432.14 801.42,410.73 814.80,395.86 838.58,417.27" fill="rgb(2,0,1)" fill-opacity="0.502"/>
<polygon points="751.25,190.43 666.25,167.66 680.75,113.57 765.75,136.34" fill="rgb(1,1,1)" fill-opacity="0.502"/>
<g transform="translate(4.00 60.00) rotate(7) scale(72.00 8.00)"><ellipse cx="0" cy="0" rx="1" ry="1" fill="rgb(0,0,0)" fill-opacity="0.502"/></g>
<g transform="translate(720.00 248.00) rotate(286) scale(68.00 4.00)"><ellipse cx="0" cy="0" rx="1" ry="1" fill="rgb(1,1,1)" fill-opacity="0.502"/></g>
<polygon points="817.85,470.47 834.05,540.63 830.15,541.53 813.95,471.37" fill="rgb(0,0,0)" fill-opacity="0.502"/>
<polygon points="826.58,358.85 841.45,372.23 833.42,381.15 818.55,367.77" fill="rgb(2,0,2)" fill-opacity="0.502"/>
<polygon points="869.35,467.35 861.43,468.46 858.65,448.65 866.57,447.54" fill="rgb(2,0,2)" fill-opacity="0.502"/>
<g transform="translate(792.00 388.00) rotate(318) scale(12.00 32.00)"><ellipse cx="0" cy="0" rx="1" ry="1" fill="rgb(2,0,1)" fill-opacity="0.502"/></g>
<g transform="translate(52.00 16.00) rotate(218) scale(140.00 20.00)"><ellipse cx="0" cy="0" rx="1" ry="1" fill="rgb(0,0,0)" fill-opacity="0.502"/></g>
<polygon points="111.96,87.16 96.04,88.84 96.04,88.84 111.96,87.16" fill="rgb(10,8,8)" fill-opacity="0.502"/>
<g transform="translate(136.00 24.00) rotate(274) scale(92.00 32.00)"><ellipse cx="0" cy="0" rx="1" ry="1" fill="rgb(0,0,0)" fill-opacity="0.502"/></g>
<polygon points="59.88,87.43 74.49,80.92 76.12,84.57 61.51,91.08" fill="rgb(6,6,5)" fill-opacity="0.502"/>
<polygon points="658.73,342.46 657.20,350.31 653.27,349.54 654.80,341.69" fill="rgb(2,0,1)" fill-opacity="0.502"/>
<g transform="translate(112.00 0.00) rotate(167) scale(96.00 20.00)"><ellipse cx="0" cy="0" rx="1" ry="1" fill="rgb(0,0,0)" fill-opacity="0.502"/></g>
<polygon points="1.70,11.19 4.81,13.70 2.30,16.81 -0.81,14.30" fill="rgb(38,39,40)" fill-opacity="0.502"/>
<polygon points="878.00,419.74 881.98,495.63 870.00,496.26 866.02,420.37" fill="rgb(1,1,0)" fill-opacity="0.502"/>
<polygon points="709.52,461.34 619.88,482.04 614.48,458.66 704.12,437.96" fill="rgb(2,1,0)" fill-opacity="0.502"/>
<polygon points="826.00,414.00 826.00,426.00 818.00,426.00 818.00,414.00" fill="rgb(3,0,1)" fill-opacity="0.502"/>
<g transform="translate(16.00 52.00) rotate(226) scale(44.00 4.00)"><ellipse cx="0" cy="0" rx="1" ry="1" fill="rgb(0,0,0)" fill-opacity="0.502"/></g>
<polygon points="56.60,173.58 26.90,103.62 67.40,86.42 97.10,156.38" fill="rgb(0,0,0)" fill-opacity="0.502"/>
<g transform="translate(692.00 176.00) rotate(277) scale(4.00 80.00)"><ellipse cx="0" cy="0" rx="1" ry="1" fill="rgb(9,9,9)" fill-opacity="0.502"/></g>
<g transform="translate(656.00 88.00) rotate(265) scale(104.00 72.00)"><ellipse cx="0" cy="0" rx="1" ry="1" fill="rgb(0,0,0)" fill-opacity="0.502"/></g>
<g transform="translate(640.00 104.00) rotate(333) scale(64.00 88.00)"><ellipse cx="0" cy="0" rx="1" ry="1" fill="rgb(0,0,0)" fill-opacity="0.502"/></g>
<g transform="translate(8.00 72.00) rotate(281) scale(8.00 4.00)"><ellipse cx="0" cy="0" rx="1" ry="1" fill="rgb(0,0,0)" fill-opacity="0.502"/></g>
<g transform="translate(708.00 188.00) rotate(106) scale(4.00 4.00)"><ellipse cx="0" cy="0" rx="1" ry="1" fill="rgb(124,124,124)" fill-opacity="0.502"/></g>
<polygon points="781.76,241.38 701.36,205.58 706.24,194.62 786.64,230.42" fill="rgb(0,0,0)" fill-opacity="0.502"/>
<polygon points="631.97,176.33 640.34,80.70 720.03,87.67 711.66,183.30" fill="rgb(0,0,0)" fill-opacity="0.502"/>
<polygon points="726.56,36.70 749.09,178.92 721.44,183.30 698.91,41.08" fill="rgb(0,0,0)" fill-opacity="0.502"/>
<polygon points="799.64,166.22 729.78,183.64 712.36,113.78 782.22,96.36" fill="rgb(0,0,0)" fill-opacity="0.502"/>
<polygon points="876.52,313.08 827.60,360.32 791.48,322.92 840.40,275.68" fill="rgb(0,0,0)" fill-opacity="0.502"/>
<g transform="translate(740.00 84.00) rotate(26) scale(48.00 104.00)"><ellipse cx="0" cy="0" rx="1" ry="1" fill="rgb(0,0,0)" fill-opacity="0.502"/></g>
<polygon points="696.01,500.00 692.48,498.12 699.99,484.00 703.52,485.88" fill="rgb(1,1,3)" fill-opacity="0.502"/>
<polygon points="774.66,148.74 693.66,183.13 673.34,135.26 754.34,100.87" fill="rgb(0,0,0)" fill-opacity="0.502"/>
<g transform="translate(12.00 4.00) rotate(275) scale(12.00 88.00)"><ellipse cx="0" cy="0" rx="1" ry="1" fill="rgb(0,0,0)" fill-opacity="0.502"/></g>
<polygon points="817.46,143.50 714.75,176.87 666.54,28.50 769.25,-4.87" fill="rgb(0,0,0)" fill-opacity="0.502"/>
<g transform="translate(872.00 468.00) rotate(61) scale(4.00 12.00)"><ellipse cx="0" cy="0" rx="1" ry="1" fill="rgb(2,0,1)" fill-opacity="0.502"/></g>
<polygon points="822.58,502.92 848.01,462.21 929.42,513.08 903.99,553.79" fill="rgb(0,0,0)" fill-opacity="0.502"/>
<polygon points="690.04,496.37 702.90,481.05 705.96,483.63 693.10,498.95" fill="rgb(1,1,2)" fill-opacity="0.502"/>
<polygon points="719.64,169.49 724.78,163.37 752.36,186.51 747.22,192.63" fill="rgb(16,17,18)" fill-opacity="0.502"/>
<polygon points="734.68,184.81 651.71,92.66 693.32,55.19 776.29,147.34" fill="rgb(0,0,0)" fill-opacity="0.502"/>
<polygon points="666.50,139.10 813.40,157.14 809.50,188.90 662.60,170.86" fill="rgb(0,0,0)" fill-opacity="0.502"/>
<g transform="translate(756.00 140.00) rotate(253) scale(24.00 124.00)"><ellipse cx="0" cy="0" rx="1" ry="1" fill="rgb(0,0,0)" fill-opacity="0.502"/></g>
<g transform="translate(752.00 64.00) rotate(227) scale(128.00 112.00)"><ellipse cx="0" cy="0" rx="1" ry="1" fill="rgb(0,0,0)" fill-opacity="0.502"/></g>
<g transform="translate(656.00 564.00) rotate(168) scale(76.00 76.00)"><ellipse cx="0" cy="0" rx="1" ry="1" fill="rgb(0,0,0)" fill-opacity="0.502"/></g>
<g transform="translate(52.00 0.00) rotate(59) scale(8.00 40.00)"><ellipse cx="0" cy="0" rx="1" ry="1" fill="rgb(0,0,0)" fill-opacity="0.502"/></g>
<polygon points="767.56,161.51 723.38,180.26 712.44,154.49 756.62,135.74" fill="rgb(0,0,0)" fill-opacity="0.502"/>
<g transform="translate(704.00 136.00) rotate(119) scale(24.00 88.00)"><ellipse cx="0" cy="0" rx="1" ry="1" fill="rgb(0,0,0)" fill-opacity="0.502"/></g>
<polygon points="830.22,374.97 817.78,385.03 817.78,385.03 830.22,374.97" fill="rgb(3,0,1)" fill-opacity="0.502"/>
<g transform="translate(80.00 0.00) rotate(116) scale(52.00 48.00)"><ellipse cx="0" cy="0" rx="1" ry="1" fill="rgb(0,0,0)" fill-opacity="0.502"/></g>
<polygon points="925.89,489.63 871.59,587.58 826.11,562.37 880.41,464.42" fill="rgb(0,0,0)" fill-opacity="0.502"/>
<polygon points="839.96,363.88 830.50,371.27 828.04,368.12 837.50,360.73" fill="rgb(1,0,4)" fill-opacity="0.502"/>
<polygon points="813.39,402.86 839.28,427.87 822.61,445.14 796.72,420.13" fill="rgb(2,0,1)" fill-opacity="0.502"/>
<polygon points="688.55,452.07 684.67,451.10 691.45,423.93 695.33,424.90" fill="rgb(1,1,3)" fill-opacity="0.502"/>
<g transform="translate(832.00 392.00) rotate(297) scale(8.00 8.00)"><ellipse cx="0" cy="0" rx="1" ry="1" fill="rgb(3,0,1)" fill-opacity="0.502"/></g>
<polygon points="968.54,431.51 840.85,440.44 839.46,420.49 967.15,411.56" fill="rgb(0,0,0)" fill-opacity="0.502"/>
<polygon points="788.01,408.00 780.79,398.41 783.99,396.00 791.21,405.59" fill="rgb(3,0,1)" fill-opacity="0.502"/>
<polygon points="55.09,55.14 55.09,55.14 48.91,44.86 48.91,44.86" fill="rgb(39,39,43)" fill-opacity="0.502"/>
<polygon points="745.33,195.78 767.31,242.91 618.67,312.22 596.69,265.09" fill="rgb(0,0,0)" fill-opacity="0.502"/>
<g transform="translate(16.00 56.00) rotate(194) scale(64.00 8.00)"><ellipse cx="0" cy="0" rx="1" ry="1" fill="rgb(0,0,0)" fill-opacity="0.502"/></g>
<polygon points="747.75,184.11 608.04,58.31 664.25,-4.11 803.96,121.69" fill="rgb(0,0,0)" fill-opacity="0.502"/>
<g transform="translate(676.00 284.00) rotate(214) scale(4.00 108.00)"><ellipse cx="0" cy="0" rx="1" ry="1" fill="rgb(0,0,0)" fill-opacity="0.502"/></g>
<polygon points="894.25,450.46 868.04,468.82 865.75,465.54 891.96,447.18" fill="rgb(2,1,1)" fill-opacity="0.502"/>
<polygon points="737.70,151.60 763.08,139.77 778.30,172.40 752.92,184.23" fill="rgb(0,0,0)" fill-opacity="0.502"/>
<polygon points="686.53,522.70 685.56,514.76 697.47,513.30 698.44,521.24" fill="rgb(1,1,2)" fill-opacity="0.502"/>
<polygon points="36.38,25.08 120.18,30.94 119.62,38.92 35.82,33.06" fill="rgb(0,0,0)" fill-opacity="0.502"/>
</g>
</svg>