<?xml version="1.0" standalone="no"?>
<svg xmlns="http://www.w3.org/2000/svg" width="1024" height="768" viewBox="0 0 1024 768" style="overflow:hidden">
<defs>
<clipPath id="c"><rect x="0" y="0" width="1024" height="768"/></clipPath>
</defs>
<rect width="1024" height="768" fill="rgb(0,0,0)"/>
<g clip-path="url(#c)">
<g transform="translate(732.00 192.00) rotate(179) scale(48.00 8.00)"><ellipse cx="0" cy="0" rx="1" ry="1" fill="rgb(157,157,159)" fill-opacity="0.502"/></g>
<polygon points="56.32,45.20 124.71,100.58 119.68,106.80 51.29,51.42" fill="rgb(19,19,19)" fill-opacity="0.502"/>
<g transform="translate(120.00 132.00) rotate(111) scale(48.00 40.00)"><ellipse cx="0" cy="0" rx="1" ry="1" fill="rgb(0,0,0)" fill-opacity="0.502"/></g>
<polygon points="174.68,3.68 196.74,20.91 125.32,112.32 103.26,95.09" fill="rgb(0,0,0)" fill-opacity="0.502"/>
<g transform="translate(16.00 32.00) rotate(206) scale(36.00 16.00)"><ellipse cx="0" cy="0" rx="1" ry="1" fill="rgb(8,8,8)" fill-opacity="0.502"/></g>
<polygon points="841.15,366.85 813.71,495.96 762.85,485.15 790.29,356.04" fill="rgb(2,0,1)" fill-opacity="0.502"/>
<polygon points="8.68,76.52 180.02,91.51 179.32,99.48 7.98,84.49" fill="rgb(5,5,5)" fill-opacity="0.502"/>
<g transform="translate(172.00 80.00) rotate(46) scale(40.00 208.00)"><ellipse cx="0" cy="0" rx="1" ry="1" fill="rgb(0,0,0)" fill-opacity="0.502"/></g>
<g transform="translate(4.00 56.00) rotate(135) scale(64.00 16.00)"><ellipse cx="0" cy="0" rx="1" ry="1" fill="rgb(0,0,0)" fill-opacity="0.502"/></g>
<g transform="translate(748.00 456.00) rotate(3) scale(28.00 144.00)"><ellipse cx="0" cy="0" rx="1" ry="1" fill="rgb(0,0,0)" fill-opacity="0.502"/></g>
<g transform="translate(704.00 248.00) rotate(57) scale(136.00 20.00)"><ellipse cx="0" cy="0" rx="1" ry="1" fill="rgb(0,0,0)" fill-opacity="0.502"/></g>
<g transform="translate(612.00 112.00) rotate(359) scale(96.00 124.00)"><ellipse cx="0" cy="0" rx="1" ry="1" fill="rgb(0,0,0)" fill-opacity="0.502"/></g>
<g transform="translate(692.00 188.00) rotate(222) scale(4.00 8.00)"><ellipse cx="0" cy="0" rx="1" ry="1" fill="rgb(113,113,113)" fill-opacity="0.502"/></g>
<g transform="translate(84.00 116.00) rotate(139) scale(40.00 8.00)"><ellipse cx="0" cy="0" rx="1" ry="1" fill="rgb(0,0,0)" fill-opacity="0.502"/></g>
<g transform="translate(636.00 180.00) rotate(30) scale(52.00 56.00)"><ellipse cx="0" cy="0" rx="1" ry="1" fill="rgb(0,0,0)" fill-opacity="0.502"/></g>
<g transform="translate(832.00 572.00) rotate(351) scale(44.00 96.00)"><ellipse cx="0" cy="0" rx="1" ry="1" fill="rgb(0,0,0)" fill-opacity="0.502"/></g>
<polygon points="812.00,372.00 828.00,372.00 828.00,432.00 812.00,432.00" fill="rgb(3,0,1)" fill-opacity="0.502"/>
<g transform="translate(0.00 0.00) rotate(9) scale(16.00 28.00)"><ellipse cx="0" cy="0" rx="1" ry="1" fill="rgb(10,10,11)" fill-opacity="0.502"/></g>
<polygon points="791.53,616.03 671.82,607.66 680.47,483.97 800.18,492.34" fill="rgb(0,0,0)" fill-opacity="0.502"/>
<g transform="translate(828.00 100.00) rotate(47) scale(28.00 128.00)"><ellipse cx="0" cy="0" rx="1" ry="1" fill="rgb(0,0,0)" fill-opacity="0.502"/></g>
<g transform="translate(36.00 140.00) rotate(235) scale(24.00 84.00)"><ellipse cx="0" cy="0" rx="1" ry="1" fill="rgb(0,0,0)" fill-opacity="0.502"/></g>
<g transform="translate(640.00 180.00) rotate(46) scale(64.00 36.00)"><ellipse cx="0" cy="0" rx="1" ry="1" fill="rgb(0,0,0)" fill-opacity="0.502"/></g>
<g transform="translate(844.00 496.00) rotate(143) scale(80.00 32.00)"><ellipse cx="0" cy="0" rx="1" ry="1" fill="rgb(0,0,0)" fill-opacity="0.502"/></g>
<polygon points="656.71,223.26 609.43,186.32 651.29,132.74 698.57,169.68" fill="rgb(0,0,0)" fill-opacity="0.502"/>
<g transform="translate(800.00 392.00) rotate(159) scale(8.00 24.00)"><ellipse cx="0" cy="0" rx="1" ry="1" fill="rgb(3,0,1)" fill-opacity="0.502"/></g>
<polygon points="757.89,191.03 757.06,194.95 710.11,184.97 710.94,181.05" fill="rgb(93,91,92)" fill-opacity="0.502"/>
<g transform="translate(816.00 396.00) rotate(151) scale(32.00 24.00)"><ellipse cx="0" cy="0" rx="1" ry="1" fill="rgb(2,0,1)" fill-opacity="0.502"/></g>
<polygon points="786.06,181.35 784.67,189.23 701.94,174.65 703.33,166.77" fill="rgb(8,8,8)" fill-opacity="0.502"/>
<g transform="translate(864.00 456.00) rotate(171) scale(28.00 68.00)"><ellipse cx="0" cy="0" rx="1" ry="1" fill="rgb(0,0,0)" fill-opacity="0.502"/></g>
<g transform="translate(920.00 352.00) rotate(288) scale(52.00 108.00)"><ellipse cx="0" cy="0" rx="1" ry="1" fill="rgb(0,0,0)" fill-opacity="0.502"/></g>
<polygon points="722.06,192.43 757.27,199.92 753.94,215.57 718.73,208.08" fill="rgb(2,1,2)" fill-opacity="0.502"/>
<polygon points="789.45,205.90 788.33,213.83 562.55,182.10 563.67,174.17" fill="rgb(1,1,1)" fill-opacity="0.502"/>
<g transform="translate(704.00 92.00) rotate(117) scale(84.00 124.00)"><ellipse cx="0" cy="0" rx="1" ry="1" fill="rgb(0,0,0)" fill-opacity="0.502"/></g>
<polygon points="755.43,160.69 800.69,115.43 868.57,183.31 823.31,228.57" fill="rgb(0,0,0)" fill-opacity="0.502"/>
<polygon points="889.74,218.86 762.85,182.48 810.26,17.14 937.15,53.52" fill="rgb(0,0,0)" fill-opacity="0.502"/>
<g transform="translate(564.00 228.00) rotate(341) scale(128.00 48.00)"><ellipse cx="0" cy="0" rx="1" ry="1" fill="rgb(0,0,0)" fill-opacity="0.502"/></g>
<g transform="translate(596.00 144.00) rotate(144) scale(68.00 120.00)"><ellipse cx="0" cy="0" rx="1" ry="1" fill="rgb(0,0,0)" fill-opacity="0.502"/></g>
<g transform="translate(776.00 252.00) rotate(193) scale(64.00 60.00)"><ellipse cx="0" cy="0" rx="1" ry="1" fill="rgb(0,0,0)" fill-opacity="0.502"/></g>
<g transform="translate(648.00 128.00) rotate(199) scale(124.00 24.00)"><ellipse cx="0" cy="0" rx="1" ry="1" fill="rgb(0,0,0)" fill-opacity="0.502"/></g>
<polygon points="832.14,453.47 958.15,538.47 879.86,654.53 753.85,569.53" fill="rgb(0,0,0)" fill-opacity="0.502"/>
<g transform="translate(672.00 316.00) rotate(283) scale(120.00 120.00)"><ellipse cx="0" cy="0" rx="1" ry="1" fill="rgb(0,0,0)" fill-opacity="0.502"/></g>
<g transform="translate(32.00 0.00) rotate(170) scale(40.00 8.00)"><ellipse cx="0" cy="0" rx="1" ry="1" fill="rgb(0,0,0)" fill-opacity="0.502"/></g>
<g transform="translate(696.00 92.00) rotate(332) scale(4.00 112.00)"><ellipse cx="0" cy="0" rx="1" ry="1" fill="rgb(0,0,0)" fill-opacity="0.502"/></g>
<g transform="translate(736.00 56.00) rotate(85) scale(128.00 56.00)"><ellipse cx="0" cy="0" rx="1" ry="1" fill="rgb(0,0,0)" fill-opacity="0.502"/></g>
<polygon points="731.37,-4.27 790.06,8.20 752.63,184.27 693.94,171.80" fill="rgb(0,0,0)" fill-opacity="0.502"/>
<polygon points="686.44,221.30 610.49,218.65 613.56,130.70 689.51,133.35" fill="rgb(0,0,0)" fill-opacity="0.502"/>
<polygon points="699.04,528.99 767.85,577.18 760.96,587.01 692.15,538.82" fill="rgb(2,1,1)" fill-opacity="0.502"/>
<polygon points="173.06,72.77 173.06,72.77 50.94,51.23 50.94,51.23" fill="rgb(16,16,17)" fill-opacity="0.502"/>
<polygon points="794.39,243.44 755.83,289.41 697.61,240.56 736.17,194.59" fill="rgb(0,0,0)" fill-opacity="0.502"/>
<polygon points="207.37,44.60 157.02,106.78 88.63,51.40 138.98,-10.78" fill="rgb(0,0,0)" fill-opacity="0.502"/>
<g transform="translate(204.00 88.00) rotate(130) scale(96.00 88.00)"><ellipse cx="0" cy="0" rx="1" ry="1" fill="rgb(0,0,0)" fill-opacity="0.502"/></g>
<polygon points="756.01,104.77 756.01,104.77 739.99,187.23 739.99,187.23" fill="rgb(9,9,9)" fill-opacity="0.502"/>
<g transform="translate(744.00 128.00) rotate(240) scale(48.00 72.00)"><ellipse cx="0" cy="0" rx="1" ry="1" fill="rgb(0,0,0)" fill-opacity="0.502"/></g>
<g transform="translate(740.00 96.00) rotate(225) scale(80.00 76.00)"><ellipse cx="0" cy="0" rx="1" ry="1" fill="rgb(0,0,0)" fill-opacity="0.502"/></g>
<polygon points="120.32,98.03 123.95,46.16 235.68,53.97 232.05,105.84" fill="rgb(0,0,0)" fill-opacity="0.502"/>
<g transform="translate(920.00 428.00) rotate(260) scale(96.00 80.00)"><ellipse cx="0" cy="0" rx="1" ry="1" fill="rgb(0,0,0)" fill-opacity="0.502"/></g>
<polygon points="145.22,135.96 85.22,32.04 126.78,8.04 186.78,111.96" fill="rgb(0,0,0)" fill-opacity="0.502"/>
<g transform="translate(184.00 32.00) rotate(135) scale(88.00 88.00)"><ellipse cx="0" cy="0" rx="1" ry="1" fill="rgb(0,0,0)" fill-opacity="0.502"/></g>
<g transform="translate(64.00 56.00) rotate(128) scale(4.00 28.00)"><ellipse cx="0" cy="0" rx="1" ry="1" fill="rgb(28,28,30)" fill-opacity="0.502"/></g>
<polygon points="37.63,197.96 8.17,185.46 50.37,86.04 79.83,98.54" fill="rgb(0,0,0)" fill-opacity="0.502"/>
<polygon points="814.13,170.73 813.85,186.73 729.87,185.27 730.15,169.27" fill="rgb(6,6,6)" fill-opacity="0.502"/>
<g transform="translate(900.00 236.00) rotate(96) scale(144.00 128.00)"><ellipse cx="0" cy="0" rx="1" ry="1" fill="rgb(0,0,0)" fill-opacity="0.502"/></g>
<g transform="translate(792.00 196.00) rotate(297) scale(80.00 8.00)"><ellipse cx="0" cy="0" rx="1" ry="1" fill="rgb(0,0,0)" fill-opacity="0.502"/></g>
<polygon points="772.94,185.31 766.18,170.81 835.06,138.69 841.82,153.19" fill="rgb(0,0,0)" fill-opacity="0.502"/>
<g transform="translate(900.00 160.00) rotate(241) scale(204.00 120.00)"><ellipse cx="0" cy="0" rx="1" ry="1" fill="rgb(0,0,0)" fill-opacity="0.502"/></g>
<polygon points="690.88,132.38 829.05,79.34 849.12,131.62 710.95,184.66" fill="rgb(0,0,0)" fill-opacity="0.502"/>
<g transform="translate(804.00 112.00) rotate(235) scale(48.00 104.00)"><ellipse cx="0" cy="0" rx="1" ry="1" fill="rgb(0,0,0)" fill-opacity="0.502"/></g>
<polygon points="792.80,184.01 797.83,190.23 751.20,227.99 746.17,221.77" fill="rgb(2,2,2)" fill-opacity="0.502"/>
<g transform="translate(816.00 276.00) rotate(128) scale(44.00 104.00)"><ellipse cx="0" cy="0" rx="1" ry="1" fill="rgb(0,0,0)" fill-opacity="0.502"/></g>
<g transform="translate(872.00 140.00) rotate(3) scale(128.00 68.00)"><ellipse cx="0" cy="0" rx="1" ry="1" fill="rgb(0,0,0)" fill-opacity="0.502"/></g>
<g transform="translate(876.00 192.00) rotate(184) scale(88.00 124.00)"><ellipse cx="0" cy="0" rx="1" ry="1" fill="rgb(0,0,0)" fill-opacity="0.502"/></g>
<polygon points="722.41,551.37 728.75,602.98 617.59,616.63 611.25,565.02" fill="rgb(0,0,0)" fill-opacity="0.502"/>
<g transform="translate(880.00 112.00) rotate(154) scale(140.00 12.00)"><ellipse cx="0" cy="0" rx="1" ry="1" fill="rgb(0,0,0)" fill-opacity="0.502"/></g>
<polygon points="745.81,185.32 734.68,189.81 730.19,178.68 741.32,174.19" fill="rgb(18,18,18)" fill-opacity="0.502"/>
<polygon points="816.83,415.36 780.85,416.61 779.17,368.64 815.15,367.39" fill="rgb(2,0,1)" fill-opacity="0.502"/>
<polygon points="708.22,188.41 707.80,180.42 723.78,179.59 724.20,187.58" fill="rgb(63,62,63)" fill-opacity="0.502"/>
<g transform="translate(88.00 40.00) rotate(96) scale(8.00 212.00)"><ellipse cx="0" cy="0" rx="1" ry="1" fill="rgb(0,0,0)" fill-opacity="0.502"/></g>
<polygon points="785.33,113.67 769.13,183.83 710.67,170.33 726.87,100.17" fill="rgb(0,0,0)" fill-opacity="0.502"/>
<g transform="translate(700.00 164.00) rotate(132) scale(12.00 28.00)"><ellipse cx="0" cy="0" rx="1" ry="1" fill="rgb(0,0,0)" fill-opacity="0.502"/></g>
<g transform="translate(108.00 20.00) rotate(252) scale(48.00 56.00)"><ellipse cx="0" cy="0" rx="1" ry="1" fill="rgb(0,0,0)" fill-opacity="0.502"/></g>
<g transform="translate(708.00 316.00) rotate(203) scale(116.00 4.00)"><ellipse cx="0" cy="0" rx="1" ry="1" fill="rgb(0,0,0)" fill-opacity="0.502"/></g>
<g transform="translate(24.00 32.00) rotate(216) scale(36.00 4.00)"><ellipse cx="0" cy="0" rx="1" ry="1" fill="rgb(19,18,19)" fill-opacity="0.502"/></g>
<g transform="translate(848.00 224.00) rotate(343) scale(100.00 52.00)"><ellipse cx="0" cy="0" rx="1" ry="1" fill="rgb(0,0,0)" fill-opacity="0.502"/></g>
<polygon points="787.94,436.52 803.48,423.94 816.06,439.48 800.52,452.06" fill="rgb(3,0,1)" fill-opacity="0.502"/>
<polygon points="727.40,603.55 723.43,604.04 716.60,548.45 720.57,547.96" fill="rgb(0,0,0)" fill-opacity="0.502"/>
<polygon points="760.49,454.80 755.47,550.67 727.51,549.20 732.53,453.33" fill="rgb(0,0,0)" fill-opacity="0.502"/>
<polygon points="770.26,179.93 769.57,187.90 725.74,184.07 726.43,176.10" fill="rgb(16,16,17)" fill-opacity="0.502"/>
<g transform="translate(752.00 192.00) rotate(171) scale(4.00 4.00)"><ellipse cx="0" cy="0" rx="1" ry="1" fill="rgb(173,172,174)" fill-opacity="0.502"/></g>
<polygon points="826.22,379.94 836.90,434.91 789.78,444.06 779.10,389.09" fill="rgb(2,0,1)" fill-opacity="0.502"/>
<g transform="translate(16.00 32.00) rotate(97) scale(8.00 96.00)"><ellipse cx="0" cy="0" rx="1" ry="1" fill="rgb(0,0,0)" fill-opacity="0.502"/></g>
<g transform="translate(804.00 104.00) rotate(190) scale(96.00 88.00)"><ellipse cx="0" cy="0" rx="1" ry="1" fill="rgb(0,0,0)" fill-opacity="0.502"/></g>
<polygon points="657.12,-25.47 798.50,40.46 730.88,185.47 589.50,119.54" fill="rgb(0,0,0)" fill-opacity="0.502"/>
<g transform="translate(812.00 80.00) rotate(169) scale(132.00 108.00)"><ellipse cx="0" cy="0" rx="1" ry="1" fill="rgb(0,0,0)" fill-opacity="0.502"/></g>
<g transform="translate(740.00 72.00) rotate(177) scale(84.00 112.00)"><ellipse cx="0" cy="0" rx="1" ry="1" fill="rgb(0,0,0)" fill-opacity="0.502"/></g>
<polygon points="869.65,470.81 857.83,472.89 854.35,453.19 866.17,451.11" fill="rgb(1,1,2)" fill-opacity="0.502"/>
<polygon points="896.05,453.64 869.74,463.22 851.95,414.36 878.26,404.78" fill="rgb(1,1,0)" fill-opacity="0.502"/>
<polygon points="67.99,72.02 74.38,67.20 84.01,79.98 77.62,84.80" fill="rgb(0,0,0)" fill-opacity="0.502"/>
<g transform="translate(760.00 104.00) rotate(279) scale(80.00 96.00)"><ellipse cx="0" cy="0" rx="1" ry="1" fill="rgb(0,0,0)" fill-opacity="0.502"/></g>
<g transform="translate(736.00 80.00) rotate(117) scale(100.00 116.00)"><ellipse cx="0" cy="0" rx="1" ry="1" fill="rgb(0,0,0)" fill-opacity="0.502"/></g>
<polygon points="-7.99,39.96 27.33,21.19 47.99,60.04 12.67,78.81" fill="rgb(0,0,0)" fill-opacity="0.502"/>
<g transform="translate(804.00 436.00) rotate(1) scale(24.00 40.00)"><ellipse cx="0" cy="0" rx="1" ry="1" fill="rgb(2,0,1)" fill-opacity="0.502"/></g>
<g transform="translate(48.00 56.00) rotate(208) scale(20.00 4.00)"><ellipse cx="0" cy="0" rx="1" ry="1" fill="rgb(0,0,0)" fill-opacity="0.502"/></g>
<polygon points="24.12,82.33 24.12,82.33 47.88,85.67 47.88,85.67" fill="rgb(14,13,12)" fill-opacity="0.502"/>
<polygon points="175.10,62.57 157.57,98.52 56.90,49.43 74.43,13.48" fill="rgb(0,0,0)" fill-opacity="0.502"/>
<g transform="translate(652.00 404.00) rotate(149) scale(72.00 8.00)"><ellipse cx="0" cy="0" rx="1" ry="1" fill="rgb(2,1,0)" fill-opacity="0.502"/></g>
<g transform="translate(668.00 660.00) rotate(148) scale(120.00 68.00)"><ellipse cx="0" cy="0" rx="1" ry="1" fill="rgb(0,0,0)" fill-opacity="0.502"/></g>
<polygon points="838.85,374.55 837.05,382.35 833.15,381.45 834.95,373.65" fill="rgb(3,0,1)" fill-opacity="0.502"/>
<polygon points="96.15,87.70 91.45,94.17 55.85,68.30 60.55,61.83" fill="rgb(2,1,2)" fill-opacity="0.502"/>
<g transform="translate(28.00 28.00) rotate(264) scale(4.00 8.00)"><ellipse cx="0" cy="0" rx="1" ry="1" fill="rgb(10,9,8)" fill-opacity="0.502"/></g>
<polygon points="738.36,532.77 673.00,633.41 669.64,631.23 735.00,530.59" fill="rgb(0,0,0)" fill-opacity="0.502"/>
<polygon points="107.91,89.05 47.95,86.95 48.09,82.95 108.05,85.05" fill="rgb(11,10,9)" fill-opacity="0.502"/>
<polygon points="835.83,442.55 789.07,453.35 788.17,449.45 834.93,438.65" fill="rgb(2,0,1)" fill-opacity="0.502"/>
<g transform="translate(784.00 364.00) rotate(3) scale(12.00 8.00)"><ellipse cx="0" cy="0" rx="1" ry="1" fill="rgb(2,1,1)" fill-opacity="0.502"/></g>
<g transform="translate(120.00 20.00) rotate(347) scale(64.00 52.00)"><ellipse cx="0" cy="0" rx="1" ry="1" fill="rgb(0,0,0)" fill-opacity="0.502"/></g>
<g transform="translate(592.00 344.00) rotate(265) scale(4.00 16.00)"><ellipse cx="0" cy="0" rx="1" ry="1" fill="rgb(1,0,2)" fill-opacity="0.502"/></g>
<g transform="translate(112.00 192.00) rotate(313) scale(96.00 112.00)"><ellipse cx="0" cy="0" rx="1" ry="1" fill="rgb(0,0,0)" fill-opacity="0.502"/></g>
<g transform="translate(560.00 236.00) rotate(339) scale(76.00 112.00)"><ellipse cx="0" cy="0" rx="1" ry="1" fill="rgb(0,0,0)" fill-opacity="0.502"/></g>
<polygon points="11.46,83.25 38.74,76.95 40.54,84.75 13.26,91.05" fill="rgb(9,8,9)" fill-opacity="0.502"/>
<g transform="translate(856.00 512.00) rotate(139) scale(24.00 56.00)"><ellipse cx="0" cy="0" rx="1" ry="1" fill="rgb(0,0,0)" fill-opacity="0.502"/></g>
<polygon points="686.38,101.34 760.55,61.90 805.62,146.66 731.45,186.10" fill="rgb(0,0,0)" fill-opacity="0.502"/>
<polygon points="9.50,-16.69 89.89,19.11 78.50,44.69 -1.89,8.89" fill="rgb(0,0,0)" fill-opacity="0.502"/>
<polygon points="742.82,193.75 733.87,180.49 737.18,178.25 746.13,191.51" fill="rgb(61,61,61)" fill-opacity="0.502"/>
<polygon points="654.87,-0.05 790.07,60.15 733.13,188.05 597.93,127.85" fill="rgb(0,0,0)" fill-opacity="0.502"/>
<polygon points="130.53,217.35 3.01,206.19 13.47,86.65 140.99,97.81" fill="rgb(0,0,0)" fill-opacity="0.502"/>
<polygon points="67.30,168.59 -0.69,167.40 0.70,87.41 68.69,88.60" fill="rgb(0,0,0)" fill-opacity="0.502"/>
<polygon points="730.15,313.15 681.40,235.13 745.85,194.85 794.60,272.87" fill="rgb(0,0,0)" fill-opacity="0.502"/>
<g transform="translate(732.00 124.00) rotate(252) scale(60.00 48.00)"><ellipse cx="0" cy="0" rx="1" ry="1" fill="rgb(0,0,0)" fill-opacity="0.502"/></g>
<g transform="translate(868.00 408.00) rotate(108) scale(60.00 4.00)"><ellipse cx="0" cy="0" rx="1" ry="1" fill="rgb(0,0,0)" fill-opacity="0.502"/></g>
<polygon points="850.20,430.32 849.78,438.31 837.80,437.68 838.22,429.69" fill="rgb(0,0,0)" fill-opacity="0.502"/>
<polygon points="761.42,100.73 738.27,181.48 730.58,179.27 753.73,98.52" fill="rgb(0,0,0)" fill-opacity="0.502"/>
<polygon points="-23.05,91.23 -29.41,81.05 35.05,40.77 41.41,50.95" fill="rgb(0,0,0)" fill-opacity="0.502"/>
<polygon points="58.84,47.67 74.90,24.74 137.16,68.33 121.10,91.26" fill="rgb(0,0,0)" fill-opacity="0.502"/>
<polygon points="703.97,188.66 779.96,187.34 780.03,191.34 704.04,192.66" fill="rgb(99,99,102)" fill-opacity="0.502"/>
<g transform="translate(788.00 96.00) rotate(123) scale(104.00 56.00)"><ellipse cx="0" cy="0" rx="1" ry="1" fill="rgb(0,0,0)" fill-opacity="0.502"/></g>
<polygon points="37.15,41.45 38.95,33.65 42.85,34.55 41.05,42.35" fill="rgb(11,10,10)" fill-opacity="0.502"/>
<polygon points="725.28,185.30 681.70,99.76 738.72,70.70 782.30,156.24" fill="rgb(0,0,0)" fill-opacity="0.502"/>
<g transform="translate(716.00 232.00) rotate(3) scale(4.00 40.00)"><ellipse cx="0" cy="0" rx="1" ry="1" fill="rgb(0,0,0)" fill-opacity="0.502"/></g>
<g transform="translate(92.00 48.00) rotate(4) scale(40.00 4.00)"><ellipse cx="0" cy="0" rx="1" ry="1" fill="rgb(0,0,0)" fill-opacity="0.502"/></g>
<g transform="translate(140.00 12.00) rotate(264) scale(12.00 120.00)"><ellipse cx="0" cy="0" rx="1" ry="1" fill="rgb(0,0,0)" fill-opacity="0.502"/></g>
<g transform="translate(152.00 8.00) rotate(351) scale(124.00 36.00)"><ellipse cx="0" cy="0" rx="1" ry="1" fill="rgb(0,0,0)" fill-opacity="0.502"/></g>
<polygon points="71.31,69.62 146.75,114.95 144.69,118.38 69.25,73.05" fill="rgb(1,1,1)" fill-opacity="0.502"/>
<g transform="translate(0.00 80.00) rotate(126) scale(4.00 12.00)"><ellipse cx="0" cy="0" rx="1" ry="1" fill="rgb(8,7,9)" fill-opacity="0.502"/></g>
<polygon points="694.27,84.34 780.16,51.37 821.73,159.66 735.84,192.63" fill="rgb(0,0,0)" fill-opacity="0.502"/>
<g transform="translate(80.00 80.00) rotate(108) scale(4.00 4.00)"><ellipse cx="0" cy="0" rx="1" ry="1" fill="rgb(0,0,0)" fill-opacity="0.502"/></g>
<polygon points="732.77,195.94 804.27,253.84 799.23,260.06 727.73,202.16" fill="rgb(0,0,0)" fill-opacity="0.502"/>
<g transform="translate(0.00 56.00) rotate(13) scale(48.00 20.00)"><ellipse cx="0" cy="0" rx="1" ry="1" fill="rgb(0,0,0)" fill-opacity="0.502"/></g>
<g transform="translate(60.00 16.00) rotate(303) scale(28.00 76.00)"><ellipse cx="0" cy="0" rx="1" ry="1" fill="rgb(0,0,0)" fill-opacity="0.502"/></g>
<polygon points="797.86,426.67 794.52,402.90 834.14,397.33 837.48,421.10" fill="rgb(2,0,1)" fill-opacity="0.502"/>
<polygon points="772.26,554.84 732.32,556.93 723.74,393.16 763.68,391.07" fill="rgb(0,0,0)" fill-opacity="0.502"/>
<polygon points="799.46,457.33 804.30,476.74 796.54,478.67 791.70,459.26" fill="rgb(3,0,1)" fill-opacity="0.502"/>
<polygon points="794.58,363.00 811.54,373.60 809.42,377.00 792.46,366.40" fill="rgb(3,0,1)" fill-opacity="0.502"/>
<g transform="translate(40.00 4.00) rotate(324) scale(28.00 16.00)"><ellipse cx="0" cy="0" rx="1" ry="1" fill="rgb(0,0,0)" fill-opacity="0.502"/></g>
<polygon points="732.19,176.42 732.19,176.42 755.81,203.58 755.81,203.58" fill="rgb(45,45,47)" fill-opacity="0.502"/>
<g transform="translate(780.00 112.00) rotate(214) scale(4.00 84.00)"><ellipse cx="0" cy="0" rx="1" ry="1" fill="rgb(0,0,0)" fill-opacity="0.502"/></g>
<g transform="translate(812.00 268.00) rotate(134) scale(36.00 96.00)"><ellipse cx="0" cy="0" rx="1" ry="1" fill="rgb(0,0,0)" fill-opacity="0.502"/></g>
<polygon points="776.80,197.28 857.31,249.56 807.20,326.72 726.69,274.44" fill="rgb(0,0,0)" fill-opacity="0.502"/>
<polygon points="738.86,247.45 737.19,199.48 821.14,196.55 822.81,244.52" fill="rgb(0,0,0)" fill-opacity="0.502"/>
<g transform="translate(768.00 192.00) rotate(349) scale(8.00 8.00)"><ellipse cx="0" cy="0" rx="1" ry="1" fill="rgb(124,123,126)" fill-opacity="0.502"/></g>
<polygon points="730.65,182.80 721.46,95.29 741.35,93.20 750.54,180.71" fill="rgb(0,0,0)" fill-opacity="0.502"/>
<g transform="translate(712.00 84.00) rotate(146) scale(60.00 108.00)"><ellipse cx="0" cy="0" rx="1" ry="1" fill="rgb(0,0,0)" fill-opacity="0.502"/></g>
<polygon points="729.71,63.91 742.25,183.25 734.29,184.09 721.75,64.75" fill="rgb(0,0,0)" fill-opacity="0.502"/>
<g transform="translate(752.00 232.00) rotate(128) scale(32.00 36.00)"><ellipse cx="0" cy="0" rx="1" ry="1" fill="rgb(0,0,0)" fill-opacity="0.502"/></g>
<g transform="translate(32.00 56.00) rotate(112) scale(4.00 72.00)"><ellipse cx="0" cy="0" rx="1" ry="1" fill="rgb(0,0,0)" fill-opacity="0.502"/></g>
<polygon points="660.00,200.00 752.00,200.00 752.00,284.00 660.00,284.00" fill="rgb(0,0,0)" fill-opacity="0.502"/>
<polygon points="776.46,199.75 734.16,294.76 719.54,288.25 761.84,193.24" fill="rgb(1,1,0)" fill-opacity="0.502"/>
<polygon points="765.75,180.26 765.75,180.26 770.25,199.74 770.25,199.74" fill="rgb(30,30,31)" fill-opacity="0.502"/>
<g transform="translate(668.00 148.00) rotate(286) scale(12.00 112.00)"><ellipse cx="0" cy="0" rx="1" ry="1" fill="rgb(0,0,0)" fill-opacity="0.502"/></g>
<g transform="translate(768.00 148.00) rotate(249) scale(40.00 20.00)"><ellipse cx="0" cy="0" rx="1" ry="1" fill="rgb(0,0,0)" fill-opacity="0.502"/></g>
<g transform="translate(784.00 100.00) rotate(274) scale(84.00 76.00)"><ellipse cx="0" cy="0" rx="1" ry="1" fill="rgb(0,0,0)" fill-opacity="0.502"/></g>
<polygon points="760.54,551.01 765.23,562.05 739.46,572.99 734.77,561.95" fill="rgb(2,1,1)" fill-opacity="0.502"/>
<polygon points="807.03,116.46 762.30,182.78 632.97,95.54 677.70,29.22" fill="rgb(0,0,0)" fill-opacity="0.502"/>
<polygon points="74.12,88.20 69.96,68.63 73.88,67.80 78.04,87.37" fill="rgb(1,0,1)" fill-opacity="0.502"/>
<polygon points="787.03,206.42 777.58,199.03 784.97,189.58 794.42,196.97" fill="rgb(4,4,4)" fill-opacity="0.502"/>
<polygon points="778.76,200.44 788.35,193.22 817.24,231.56 807.65,238.78" fill="rgb(0,0,0)" fill-opacity="0.502"/>
<polygon points="835.19,113.41 764.37,252.41 760.81,250.59 831.63,111.59" fill="rgb(0,0,0)" fill-opacity="0.502"/>
<polygon points="868.65,463.03 876.38,465.10 875.35,468.97 867.62,466.90" fill="rgb(2,1,1)" fill-opacity="0.502"/>
<polygon points="835.69,443.68 836.32,431.69 848.31,432.32 847.68,444.31" fill="rgb(0,0,0)" fill-opacity="0.502"/>
<g transform="translate(32.00 32.00) rotate(2) scale(4.00 12.00)"><ellipse cx="0" cy="0" rx="1" ry="1" fill="rgb(4,4,3)" fill-opacity="0.502"/></g>
<polygon points="33.23,4.48 30.72,28.35 22.77,27.52 25.28,3.65" fill="rgb(0,0,0)" fill-opacity="0.502"/>
<g transform="translate(84.00 12.00) rotate(201) scale(96.00 40.00)"><ellipse cx="0" cy="0" rx="1" ry="1" fill="rgb(0,0,0)" fill-opacity="0.502"/></g>
<polygon points="756.40,180.41 763.60,211.59 763.60,211.59 756.40,180.41" fill="rgb(42,43,44)" fill-opacity="0.502"/>
<g transform="translate(732.00 300.00) rotate(52) scale(92.00 100.00)"><ellipse cx="0" cy="0" rx="1" ry="1" fill="rgb(0,0,0)" fill-opacity="0.502"/></g>
<polygon points="729.00,582.24 745.06,564.41 751.00,569.76 734.94,587.59" fill="rgb(2,1,1)" fill-opacity="0.502"/>
<polygon points="726.89,326.80 729.13,198.82 865.11,201.20 862.87,329.18" fill="rgb(0,0,0)" fill-opacity="0.502"/>
<g transform="translate(756.00 228.00) rotate(294) scale(32.00 24.00)"><ellipse cx="0" cy="0" rx="1" ry="1" fill="rgb(0,0,0)" fill-opacity="0.502"/></g>
<polygon points="855.34,227.05 824.47,334.72 720.66,304.95 751.53,197.28" fill="rgb(0,0,0)" fill-opacity="0.502"/>
<polygon points="800.95,99.92 760.62,182.60 739.05,172.08 779.38,89.40" fill="rgb(0,0,0)" fill-opacity="0.502"/>
<g transform="translate(544.00 580.00) rotate(180) scale(184.00 60.00)"><ellipse cx="0" cy="0" rx="1" ry="1" fill="rgb(0,0,0)" fill-opacity="0.502"/></g>
<g transform="translate(808.00 88.00) rotate(218) scale(40.00 116.00)"><ellipse cx="0" cy="0" rx="1" ry="1" fill="rgb(0,0,0)" fill-opacity="0.502"/></g>
<g transform="translate(732.00 168.00) rotate(100) scale(8.00 124.00)"><ellipse cx="0" cy="0" rx="1" ry="1" fill="rgb(0,0,0)" fill-opacity="0.502"/></g>
<g transform="translate(772.00 140.00) rotate(3) scale(52.00 44.00)"><ellipse cx="0" cy="0" rx="1" ry="1" fill="rgb(0,0,0)" fill-opacity="0.502"/></g>
<polygon points="835.35,397.60 818.68,414.86 772.65,370.40 789.32,353.14" fill="rgb(2,0,1)" fill-opacity="0.502"/>
<g transform="translate(800.00 300.00) rotate(260) scale(56.00 96.00)"><ellipse cx="0" cy="0" rx="1" ry="1" fill="rgb(0,0,0)" fill-opacity="0.502"/></g>
</g>
</svg>