<?xml version="1.0" standalone="no"?>
<svg xmlns="http://www.w3.org/2000/svg" width="1024" height="768" viewBox="0 0 1024 768" style="overflow:hidden">
<defs>
<clipPath id="c"><rect x="0" y="0" width="1024" height="768"/></clipPath>
</defs>
<rect width="1024" height="768" fill="rgb(0,0,0)"/>
<g clip-path="url(#c)">
<polygon points="1012.17,520.46 997.08,533.58 991.83,527.54 1006.92,514.42" fill="rgb(2,0,1)" fill-opacity="0.502"/>
<polygon points="936.53,593.01 935.49,533.02 1051.47,530.99 1052.51,590.98" fill="rgb(0,0,0)" fill-opacity="0.502"/>
<polygon points="1008.83,532.56 1004.33,521.43 1019.17,515.44 1023.67,526.57" fill="rgb(2,0,1)" fill-opacity="0.502"/>
<polygon points="971.02,484.31 1021.34,516.98 1016.98,523.69 966.66,491.02" fill="rgb(0,0,0)" fill-opacity="0.502"/>
<polygon points="1020.23,630.60 980.33,633.39 979.77,625.40 1019.67,622.61" fill="rgb(2,0,0)" fill-opacity="0.502"/>
<polygon points="988.00,528.00 872.00,528.00 872.00,524.00 988.00,524.00" fill="rgb(3,0,1)" fill-opacity="0.502"/>
<polygon points="1007.27,531.71 1004.39,528.93 1012.73,520.29 1015.61,523.07" fill="rgb(3,0,1)" fill-opacity="0.502"/>
<polygon points="1007.92,564.50 995.71,627.32 976.08,623.50 988.29,560.68" fill="rgb(0,0,0)" fill-opacity="0.502"/>
<polygon points="1024.00,616.00 912.00,616.00 912.00,532.00 1024.00,532.00" fill="rgb(0,0,0)" fill-opacity="0.502"/>
<polygon points="1011.72,553.95 1034.42,561.76 1012.28,626.05 989.58,618.24" fill="rgb(0,0,0)" fill-opacity="0.502"/>
<g transform="translate(1012.00 428.00) rotate(80) scale(96.00 80.00)"><ellipse cx="0" cy="0" rx="1" ry="1" fill="rgb(0,0,0)" fill-opacity="0.502"/></g>
<polygon points="615.24,225.58 593.57,196.83 596.76,194.42 618.43,223.17" fill="rgb(2,1,1)" fill-opacity="0.502"/>
<polygon points="1023.75,624.38 979.76,623.61 980.25,595.62 1024.24,596.39" fill="rgb(0,0,0)" fill-opacity="0.502"/>
</g>
</svg>